<?xml version="1.0" encoding="UTF-8"?>
<!-- Generator: visioncortex VTracer 0.6.12 -->
<svg version="1.1" xmlns="http://www.w3.org/2000/svg" width="440" height="432">
<path d="M0 0 C4 -1 4 -1 9 -1 C10 -1 11 -1 12 -1 C16 -1 19 -1 22 -1 C25 -1 27 -1 29 -1 C36 -1 42 -1 49 -1 C55 -1 62 -1 69 -1 C80 -1 91 -1 103 -1 C116 -0 129 -1 142 -1 C153 -1 164 -1 175 -1 C182 -1 189 -1 195 -1 C202 -1 208 -1 214 -1 C217 -1 219 -1 221 -1 C224 -1 228 -1 231 -1 C232 -1 234 -1 236 -1 C237 -0 237 -0 240 0 C241 1 241 3 242 4 C244 4 245 4 247 4 C249 4 250 4 252 4 C253 5 253 7 254 8 C256 8 257 8 259 8 C261 8 262 8 264 8 C265 9 265 11 266 12 C268 12 270 12 272 12 C273 13 273 15 274 16 C275 16 275 16 278 18 C278 19 278 19 278 20 C280 20 282 20 284 20 C285 21 285 23 286 24 C287 24 287 24 290 26 C290 27 290 27 290 28 C291 28 292 28 293 28 C293 29 293 30 293 31 C294 35 294 35 298 38 C298 39 298 39 298 40 C299 41 301 41 302 42 C302 43 302 43 302 44 C303 44 304 44 305 44 C305 46 305 48 305 49 C306 51 306 53 306 55 C307 55 308 56 309 56 C309 60 310 63 310 67 C311 67 312 68 313 68 C313 72 313 72 313 77 C313 78 313 79 313 80 C313 84 313 87 313 91 C313 93 313 96 313 98 C313 105 313 111 313 118 C313 125 313 132 313 138 C313 150 313 162 313 173 C313 187 313 200 313 213 C313 225 313 236 313 248 C313 255 313 261 313 268 C313 275 313 281 313 288 C313 290 313 292 313 295 C313 298 313 301 313 305 C313 306 313 308 313 310 C313 311 313 313 313 314 C312 314 311 315 310 315 C310 317 310 319 310 320 C309 322 309 324 309 326 C308 326 307 327 306 327 C306 328 306 329 306 330 C305 332 305 333 305 334 C304 334 303 335 302 335 C301 339 301 339 301 342 C300 342 299 342 298 342 C297 343 297 345 296 346 C295 346 295 347 294 347 C294 349 293 352 293 354 C292 354 291 354 290 354 C289 355 289 357 288 358 C287 358 287 358 286 358 C285 359 285 361 284 362 C283 362 283 362 282 362 C281 363 281 365 280 366 C278 366 276 366 274 366 C273 367 273 369 272 370 C270 370 268 370 266 370 C265 371 265 373 264 374 C262 374 260 374 258 374 C257 375 257 377 256 378 C252 378 249 378 245 378 C244 378 243 378 242 378 C241 379 241 381 240 382 C236 383 236 383 230 383 C229 383 228 383 227 383 C224 383 220 383 217 383 C215 383 212 383 210 383 C203 383 196 383 190 383 C183 383 176 383 169 383 C157 383 146 383 134 383 C121 382 107 383 94 383 C82 383 70 383 59 383 C52 383 45 383 38 383 C32 383 25 383 19 383 C16 383 14 383 11 383 C8 383 5 383 2 383 C-0 383 -2 383 -4 383 C-5 382 -7 382 -8 382 C-9 381 -9 379 -10 378 C-12 378 -13 378 -15 378 C-17 378 -18 378 -20 378 C-20 377 -20 377 -22 374 C-24 374 -26 374 -28 374 C-28 373 -28 373 -30 370 C-32 370 -34 370 -36 370 C-36 369 -36 369 -38 366 C-40 366 -42 366 -44 366 C-44 365 -44 365 -46 362 C-47 361 -49 361 -50 360 C-50 359 -50 359 -50 358 C-51 357 -53 357 -54 356 C-54 355 -54 355 -54 354 C-55 354 -56 354 -57 354 C-57 353 -57 352 -57 351 C-58 347 -58 347 -62 344 C-62 343 -62 343 -62 342 C-63 342 -64 342 -65 342 C-65 341 -65 340 -65 339 C-66 337 -66 336 -66 335 C-67 335 -68 334 -69 334 C-69 332 -70 329 -70 327 C-71 327 -72 326 -73 326 C-73 322 -74 318 -74 314 C-74 313 -74 312 -74 311 C-75 311 -76 310 -77 310 C-77 306 -77 306 -77 301 C-77 300 -77 299 -77 298 C-77 294 -77 291 -77 288 C-77 285 -77 283 -77 281 C-77 274 -77 268 -77 261 C-77 254 -77 248 -77 241 C-77 229 -77 218 -77 207 C-77 193 -77 180 -77 167 C-77 156 -77 144 -77 133 C-77 126 -77 120 -77 113 C-77 107 -77 100 -77 94 C-77 92 -77 89 -77 87 C-77 84 -77 80 -77 77 C-77 76 -77 74 -77 72 C-77 71 -77 69 -77 68 C-77 68 -77 68 -74 67 C-74 65 -74 63 -74 62 C-73 60 -73 58 -73 56 C-73 56 -73 56 -70 55 C-70 54 -70 53 -70 52 C-69 50 -69 49 -69 48 C-69 48 -69 48 -66 47 C-65 43 -65 43 -65 40 C-64 40 -63 40 -62 40 C-61 39 -61 37 -60 36 C-60 36 -60 36 -58 35 C-58 33 -57 30 -57 28 C-56 28 -55 28 -54 28 C-53 27 -53 25 -52 24 C-51 24 -51 24 -50 24 C-49 23 -49 21 -48 20 C-46 20 -44 20 -42 20 C-41 19 -41 17 -40 16 C-39 16 -39 16 -38 16 C-37 15 -37 13 -36 12 C-34 12 -32 12 -30 12 C-29 11 -29 9 -28 8 C-26 8 -24 8 -22 8 C-21 7 -21 5 -20 4 C-15 4 -11 4 -6 4 C-5 4 -3 4 -2 4 C-1 3 -1 1 0 0 Z " fill="#5C61DA" transform="translate(102,25)"/>
<path d="M0 0 C4 3 9 7 13 11 C14 12 15 13 16 14 C24 23 31 33 34 45 C36 51 36 51 39 53 C40 53 42 54 43 54 C50 59 51 65 53 73 C56 87 56 104 49 117 C48 117 47 117 47 117 C42 137 45 162 48 183 C49 187 49 192 49 197 C50 203 50 203 51 204 C51 207 51 210 52 213 C53 217 53 221 54 225 C61 253 63 282 63 311 C62 311 61 311 60 311 C59 312 58 314 58 315 C54 315 54 315 50 315 C49 315 47 315 46 315 C44 315 42 315 41 315 C40 315 40 315 35 315 C30 315 26 315 21 315 C16 315 10 315 5 315 C-4 315 -14 315 -24 315 C-35 315 -46 315 -57 315 C-79 315 -102 315 -124 315 C-124 314 -123 312 -122 311 C-113 286 -111 263 -116 237 C-117 237 -118 237 -118 237 C-118 236 -118 236 -118 235 C-119 235 -120 235 -120 235 C-121 233 -121 231 -121 229 C-122 229 -123 229 -123 229 C-124 227 -125 224 -126 222 C-136 205 -147 197 -165 192 C-173 190 -180 192 -187 193 C-187 192 -187 192 -187 191 C-188 191 -188 191 -191 193 C-194 195 -194 195 -200 195 C-199 193 -198 190 -196 188 C-182 161 -176 134 -172 104 C-168 74 -161 43 -141 20 C-141 19 -140 18 -139 17 C-105 -22 -42 -30 0 0 Z " fill="#C6CAD4" transform="translate(284.41796875,92.01171875)"/>
<path d="M0 0 C1 1 2 1 3 2 C22 14 35 34 41 57 C42 60 44 62 47 65 C47 66 48 68 48 69 C49 69 50 70 51 70 C51 71 52 73 52 74 C53 75 54 76 55 77 C57 83 58 87 58 93 C57 93 57 93 56 93 C56 94 56 96 56 97 C57 97 57 97 58 97 C58 98 58 98 58 99 C57 99 57 99 56 99 C57 103 57 106 58 110 C57 110 57 110 56 110 C56 110 56 110 57 113 C57 117 57 117 54 121 C50 128 50 135 51 143 C51 143 51 143 51 147 C51 151 51 156 51 160 C51 162 51 165 51 167 C51 179 52 190 55 201 C55 202 55 202 56 205 C57 208 59 211 62 214 C79 236 88 259 89 286 C89 289 89 292 90 294 C90 296 90 297 90 298 C90 301 90 301 91 305 C90 305 90 305 89 305 C89 307 88 308 88 310 C87 311 87 311 86 312 C84 312 82 312 80 312 C79 313 79 315 78 316 C76 316 74 316 72 316 C71 317 71 319 70 320 C64 320 64 320 59 320 C59 319 59 317 59 316 C58 285 56 255 48 225 C47 221 46 217 46 213 C46 213 45 212 45 212 C45 208 44 204 44 200 C44 193 43 186 42 179 C41 170 41 160 41 150 C41 148 41 146 41 144 C41 143 41 143 41 139 C41 137 41 136 41 134 C41 129 42 127 46 123 C53 107 51 87 45 70 C42 65 37 63 32 60 C31 57 31 57 30 53 C23 32 5 14 -14 3 C-23 -1 -32 -4 -42 -6 C-43 -6 -45 -7 -46 -7 C-71 -12 -98 -4 -119 7 C-150 28 -165 59 -172 96 C-173 104 -174 111 -176 119 C-180 149 -186 178 -203 203 C-198 203 -198 203 -193 200 C-192 200 -192 200 -191 200 C-191 201 -191 201 -191 202 C-189 201 -188 201 -186 200 C-171 197 -159 203 -146 210 C-139 215 -134 221 -130 229 C-129 231 -128 232 -127 234 C-127 235 -127 237 -127 238 C-126 238 -126 238 -125 238 C-124 239 -124 241 -123 242 C-123 243 -124 243 -124 244 C-123 244 -123 244 -122 244 C-122 245 -122 245 -122 246 C-121 246 -121 246 -120 246 C-112 269 -115 295 -124 318 C-126 321 -126 321 -128 324 C-131 325 -131 325 -134 325 C-136 325 -137 325 -138 325 C-139 325 -139 325 -143 325 C-144 325 -146 325 -147 325 C-150 325 -153 325 -156 325 C-161 325 -166 325 -171 325 C-174 325 -177 325 -180 325 C-181 325 -182 325 -184 325 C-185 325 -186 325 -188 325 C-189 325 -190 325 -191 325 C-192 324 -193 324 -194 324 C-194 323 -194 323 -196 320 C-198 320 -199 320 -201 320 C-203 320 -204 320 -206 320 C-206 319 -206 319 -208 316 C-210 316 -212 316 -214 316 C-214 315 -214 315 -216 312 C-218 312 -220 312 -222 312 C-222 311 -222 311 -224 308 C-226 308 -228 308 -230 308 C-231 307 -231 305 -232 304 C-233 303 -235 303 -236 302 C-236 301 -236 301 -236 300 C-237 299 -239 299 -240 298 C-240 297 -240 297 -240 296 C-241 296 -242 296 -243 296 C-243 295 -243 294 -243 293 C-244 289 -244 289 -248 286 C-248 285 -248 285 -248 284 C-249 284 -250 284 -251 284 C-251 283 -251 282 -251 281 C-252 279 -252 278 -252 277 C-253 277 -254 276 -255 276 C-257 266 -257 266 -254 261 C-253 261 -253 261 -251 258 C-250 256 -249 253 -248 251 C-245 245 -241 240 -238 234 C-237 233 -237 232 -236 231 C-232 224 -227 217 -221 211 C-198 182 -190 148 -185 112 C-183 100 -182 89 -179 78 C-179 77 -178 76 -178 75 C-177 70 -175 65 -173 60 C-172 58 -172 56 -171 54 C-166 41 -159 29 -150 19 C-149 19 -149 19 -148 19 C-147 18 -147 16 -146 15 C-110 -25 -44 -28 0 0 Z " fill="#8D92A4" transform="translate(288,83)"/>
<path d="M0 0 C1 1 2 1 3 2 C22 14 35 34 41 57 C42 60 44 62 47 65 C47 66 48 68 48 69 C49 69 50 70 51 70 C51 71 52 73 52 74 C53 75 54 76 55 77 C57 83 58 87 58 93 C57 93 57 93 56 93 C56 94 56 96 56 97 C57 97 57 97 58 97 C58 98 58 98 58 99 C57 99 57 99 56 99 C57 103 57 106 58 110 C57 110 57 110 56 110 C56 110 56 110 57 113 C57 117 57 117 54 121 C50 128 50 135 51 143 C51 143 51 143 51 147 C51 151 51 156 51 160 C51 162 51 165 51 167 C51 179 52 190 55 201 C55 202 55 202 56 205 C57 208 59 211 62 214 C79 236 88 259 89 286 C89 289 89 292 90 294 C90 296 90 297 90 298 C90 301 90 301 91 305 C90 305 90 305 89 305 C89 307 88 308 88 310 C87 311 87 311 86 312 C84 312 82 312 80 312 C79 313 79 315 78 316 C76 316 74 316 72 316 C71 317 71 319 70 320 C64 320 64 320 59 320 C59 319 59 317 59 316 C58 285 56 255 48 225 C47 221 46 217 46 213 C46 213 45 212 45 212 C45 208 44 204 44 200 C44 193 43 186 42 179 C41 170 41 160 41 150 C41 148 41 146 41 144 C41 143 41 143 41 139 C41 137 41 136 41 134 C41 129 42 127 46 123 C53 107 51 87 45 70 C42 65 37 63 32 60 C31 57 31 57 30 53 C23 32 5 14 -14 3 C-23 -1 -32 -4 -42 -6 C-43 -6 -45 -7 -46 -7 C-71 -12 -98 -4 -119 7 C-150 28 -165 59 -172 96 C-173 104 -174 111 -176 119 C-180 151 -188 179 -205 207 C-206 208 -206 210 -207 211 C-210 215 -212 217 -216 221 C-225 230 -232 241 -237 253 C-239 257 -239 257 -242 261 C-245 266 -245 266 -247 271 C-251 273 -251 273 -255 273 C-256 269 -256 269 -256 265 C-254 261 -254 261 -251 258 C-250 256 -249 253 -248 251 C-245 245 -241 240 -238 234 C-237 233 -237 232 -236 231 C-232 224 -227 217 -221 211 C-198 182 -190 148 -185 112 C-183 100 -182 89 -179 78 C-179 77 -178 76 -178 75 C-177 70 -175 65 -173 60 C-172 58 -172 56 -171 54 C-166 41 -159 29 -150 19 C-149 19 -149 19 -148 19 C-147 18 -147 16 -146 15 C-110 -25 -44 -28 0 0 Z " fill="#04040B" transform="translate(288,83)"/>
<path d="M0 0 C6 5 8 9 10 17 C11 27 9 35 4 44 C-2 50 -8 50 -17 51 C-17 53 -17 55 -17 57 C-18 62 -18 63 -21 68 C-22 69 -22 69 -30 74 C-33 79 -33 79 -35 84 C-38 89 -41 92 -46 95 C-50 96 -50 96 -53 95 C-62 89 -65 81 -70 72 C-72 69 -74 65 -76 62 C-79 57 -79 57 -78 52 C-71 42 -64 32 -52 28 C-45 28 -39 29 -33 33 C-30 29 -29 28 -29 23 C-27 14 -23 6 -16 0 C-10 -3 -6 -2 0 0 Z " fill="#110F10" transform="translate(319,161)"/>
<path d="M0 0 C1 0 1 0 4 1 C13 24 9 51 0 73 C-2 76 -2 76 -4 79 C-7 80 -7 80 -10 80 C-12 80 -13 80 -14 80 C-16 80 -17 80 -19 80 C-20 80 -22 80 -23 80 C-26 80 -29 80 -32 80 C-37 80 -42 80 -47 80 C-50 80 -53 80 -56 80 C-57 80 -58 80 -60 80 C-61 80 -62 80 -64 80 C-65 80 -66 80 -67 80 C-68 79 -69 79 -70 79 C-71 78 -71 76 -72 75 C-74 75 -75 75 -77 75 C-79 75 -80 75 -82 75 C-83 74 -83 72 -84 71 C-86 71 -88 71 -90 71 C-91 70 -91 68 -92 67 C-94 67 -96 67 -98 67 C-99 66 -99 64 -100 63 C-102 63 -104 63 -106 63 C-107 62 -107 60 -108 59 C-109 58 -111 58 -112 57 C-112 56 -112 56 -112 55 C-113 54 -115 54 -116 53 C-116 52 -116 52 -116 51 C-117 51 -118 51 -119 51 C-119 50 -119 49 -119 48 C-120 44 -120 44 -124 41 C-124 40 -124 40 -124 39 C-125 39 -126 39 -127 39 C-127 38 -127 37 -127 36 C-128 34 -128 33 -128 32 C-129 32 -130 31 -131 31 C-131 30 -131 29 -131 28 C-126 26 -126 26 -123 26 C-123 25 -122 24 -122 23 C-121 19 -121 19 -117 16 C-116 16 -115 17 -114 17 C-114 18 -113 20 -113 21 C-112 22 -110 22 -109 23 C-107 26 -104 29 -102 32 C-98 36 -93 39 -87 40 C-83 41 -79 42 -75 44 C-71 45 -67 46 -62 47 C-56 47 -54 48 -49 50 C-40 52 -32 53 -23 53 C-23 54 -23 54 -23 55 C-22 55 -22 55 -18 54 C-12 53 -12 53 -6 53 C-6 52 -6 50 -6 49 C-5 49 -5 49 -4 49 C-1 39 -1 29 -1 18 C-1 15 -1 12 -1 9 C-1 7 -1 6 -1 4 C-1 1 -1 1 0 0 Z " fill="#70768A" transform="translate(164,328)"/>
<path d="M0 0 C5 3 6 5 8 10 C9 10 10 11 11 11 C11 12 12 14 12 15 C13 16 14 17 15 18 C17 24 18 28 18 34 C17 34 17 34 16 34 C16 35 16 37 16 38 C17 38 17 38 18 38 C18 39 18 39 18 40 C17 40 17 40 16 40 C16 42 16 42 18 51 C17 51 17 51 16 51 C16 52 17 53 17 54 C17 58 17 58 14 62 C10 69 10 76 11 84 C11 85 11 86 11 88 C11 92 11 97 11 101 C11 103 11 106 11 108 C11 120 12 131 15 142 C15 143 16 144 16 146 C17 149 19 152 22 155 C39 177 48 200 49 227 C49 230 49 233 50 235 C50 237 50 238 50 239 C50 242 50 242 51 246 C50 246 50 246 49 246 C49 248 48 249 48 251 C47 252 47 252 46 253 C44 253 42 253 40 253 C39 254 39 256 38 257 C36 257 34 257 32 257 C31 258 31 260 30 261 C24 261 24 261 19 261 C19 260 19 260 19 257 C18 226 16 196 8 166 C7 162 6 158 6 154 C6 154 5 153 5 153 C5 149 4 145 4 141 C4 134 3 127 2 120 C1 111 1 101 1 91 C1 89 1 87 1 85 C1 83 1 82 1 80 C1 78 1 77 1 75 C1 70 2 68 6 64 C13 48 12 27 5 11 C3 8 3 8 -1 5 C-1 3 -0 2 0 0 Z " fill="#06070F" transform="translate(328,142)"/>
<path d="M0 0 C4 3 9 7 13 11 C14 12 15 13 16 14 C24 23 31 33 34 45 C36 51 36 51 39 53 C40 53 42 54 43 54 C50 59 51 65 53 73 C56 87 56 104 49 117 C48 117 47 117 47 117 C46 117 46 117 46 120 C46 121 45 122 45 123 C41 124 41 124 36 124 C28 125 28 125 27 126 C20 126 20 126 17 124 C17 123 17 121 18 120 C21 118 25 118 29 118 C34 117 37 114 40 110 C44 100 45 91 43 81 C40 75 38 73 33 69 C28 68 26 68 22 69 C18 71 18 71 14 75 C13 77 12 78 11 79 C9 78 7 78 6 77 C7 72 10 68 13 64 C13 64 14 64 15 64 C17 60 17 60 18 57 C24 53 24 53 27 53 C27 50 27 46 28 43 C27 43 26 42 26 42 C26 41 26 40 26 39 C26 34 24 33 21 29 C17 25 13 22 12 16 C10 15 9 15 8 14 C6 13 4 11 2 10 C1 9 0 8 -1 7 C-3 5 -5 3 -8 1 C-16 -5 -25 -6 -34 -7 C-35 -7 -35 -7 -37 -9 C-41 -10 -44 -10 -48 -10 C-49 -10 -51 -10 -52 -10 C-53 -10 -53 -10 -56 -10 C-59 -10 -62 -10 -65 -10 C-66 -10 -66 -10 -69 -10 C-72 -10 -72 -10 -77 -13 C-80 -13 -80 -13 -83 -12 C-85 -12 -86 -11 -87 -11 C-87 -10 -87 -10 -86 -7 C-91 -6 -95 -6 -99 -7 C-99 -6 -99 -4 -99 -3 C-102 -2 -105 -2 -108 -1 C-110 0 -111 2 -112 3 C-114 4 -116 4 -117 5 C-118 6 -119 7 -120 8 C-122 9 -123 10 -124 11 C-131 18 -137 24 -142 32 C-143 33 -144 34 -145 35 C-147 38 -148 40 -149 43 C-151 48 -153 54 -156 59 C-159 64 -159 69 -158 75 C-159 75 -159 75 -163 77 C-164 77 -164 77 -165 79 C-166 79 -166 78 -166 78 C-165 57 -155 35 -141 20 C-141 19 -140 18 -139 17 C-105 -22 -42 -30 0 0 Z " fill="#D4D7EA" transform="translate(284.41796875,92.01171875)"/>
<path d="M0 0 C1 0 2 0 3 0 C3 1 3 2 3 3 C3 4 3 6 3 7 C3 8 3 10 3 11 C3 12 3 13 3 14 C4 14 4 15 5 15 C5 19 5 24 5 28 C5 29 5 31 5 32 C5 37 5 41 5 46 C5 49 5 52 5 55 C5 64 5 72 5 80 C5 89 5 97 5 106 C5 123 5 139 5 156 C4 156 3 156 2 156 C2 157 2 158 2 159 C3 159 3 159 4 159 C4 160 4 161 4 162 C3 162 3 162 2 162 C2 163 2 165 2 166 C3 178 3 190 3 202 C4 202 4 202 5 202 C5 205 5 205 5 209 C4 210 3 211 2 212 C3 212 3 212 4 212 C4 213 5 213 5 214 C5 214 5 214 7 212 C11 212 14 212 18 212 C25 212 28 211 33 206 C33 205 34 205 34 204 C35 204 36 203 37 203 C38 202 38 200 39 199 C40 198 41 197 42 196 C42 195 43 195 43 194 C44 194 44 194 45 194 C46 192 46 189 47 187 C47 186 47 186 50 182 C49 182 47 181 46 181 C45 179 44 178 43 176 C45 172 45 172 48 171 C49 170 49 168 50 167 C53 165 55 164 59 164 C59 163 59 162 59 162 C60 157 62 154 65 150 C65 149 66 149 66 148 C67 148 68 148 69 148 C67 161 62 175 54 185 C54 186 54 186 51 190 C50 192 48 194 46 196 C46 197 45 198 44 199 C42 202 40 204 38 206 C32 214 27 221 23 229 C21 233 21 233 18 238 C15 242 13 246 11 251 C9 255 9 255 7 258 C6 258 5 258 4 258 C4 257 4 256 4 255 C4 253 4 252 4 251 C4 249 4 248 4 246 C3 245 3 244 3 243 C2 243 1 242 0 242 C-0 238 -0 238 -0 233 C-0 232 -0 231 -0 230 C-0 226 -0 223 -0 220 C-0 217 -0 215 -0 213 C-0 206 -0 200 -0 193 C-0 186 -0 179 -0 173 C-0 160 -0 147 -0 134 C-0 120 -0 105 -0 90 C-0 60 -0 30 0 0 Z " fill="#6268E2" transform="translate(25,93)"/>
<path d="M0 0 C6 5 9 11 10 19 C11 30 9 38 2 48 C-3 52 -8 54 -15 55 C-22 53 -27 51 -32 46 C-37 35 -38 27 -35 16 C-31 7 -28 1 -19 -2 C-12 -4 -6 -3 0 0 Z " fill="#0B0B12" transform="translate(218.8125,162.4375)"/>
<path d="M0 0 C1 -0 2 -0 3 -0 C6 -0 10 -0 13 -0 C15 -0 18 -0 20 -0 C26 -0 33 -0 39 -0 C45 -0 50 -0 55 -0 C68 -0 81 -0 93 -0 C106 -0 119 -0 132 -0 C144 -0 155 -0 166 -0 C173 -0 179 -0 186 -0 C192 -0 199 -0 205 -0 C207 -0 210 -0 212 -0 C215 -0 218 -0 221 -0 C223 -0 225 -0 227 -0 C228 -0 229 0 231 0 C231 1 231 1 233 4 C234 4 236 4 238 4 C239 4 241 4 243 4 C243 5 243 5 245 8 C246 8 248 8 250 8 C251 8 253 8 255 8 C255 10 256 11 257 12 C259 12 261 12 263 12 C263 14 264 15 265 16 C265 17 265 17 269 18 C269 19 269 20 269 20 C271 20 273 20 275 20 C275 22 276 23 277 24 C277 25 277 25 281 26 C281 27 281 28 281 28 C282 28 283 28 284 28 C284 30 284 31 284 32 C283 32 282 32 281 32 C281 34 281 35 281 36 C277 37 274 38 271 39 C270 40 269 41 268 41 C263 44 258 44 252 44 C239 44 239 44 234 47 C232 47 230 47 229 47 C228 46 227 45 226 44 C225 44 224 44 222 43 C222 43 222 43 220 42 C220 41 220 40 220 38 C221 38 222 38 223 38 C224 38 225 37 227 37 C228 35 228 35 228 30 C229 25 229 25 233 21 C233 21 233 21 235 20 C236 19 237 17 238 15 C237 14 237 13 237 11 C238 10 239 9 241 8 C240 8 239 8 237 8 C234 7 234 7 229 4 C223 3 218 3 212 3 C211 3 210 3 208 3 C204 3 200 3 196 3 C194 3 191 3 188 3 C182 2 175 2 169 2 C169 3 169 4 169 5 C161 7 153 6 145 6 C145 5 145 4 145 2 C125 2 106 2 87 3 C78 3 69 3 60 3 C51 3 42 3 34 3 C30 3 27 3 24 3 C19 3 15 3 10 3 C9 3 9 3 6 3 C4 3 3 3 2 3 C1 3 1 3 -1 3 C-4 3 -4 3 -9 4 C-10 4 -11 3 -11 2 C-8 -1 -4 0 0 0 Z " fill="#6C72E4" transform="translate(111.33837890625,24.732574462890625)"/>
<path d="M0 0 C11 4 17 10 23 20 C25 24 25 26 25 31 C26 31 26 31 27 31 C30 37 28 48 27 54 C23 63 21 67 14 72 C13 73 12 74 11 75 C3 79 -5 79 -13 78 C-24 74 -31 67 -37 56 C-41 49 -43 39 -40 31 C-40 31 -40 31 -38 30 C-38 29 -37 27 -36 26 C-32 15 -24 5 -14 1 C-12 0 -11 -0 -9 -1 C-6 -3 -3 -1 0 0 Z M-16 18 C-23 27 -26 34 -26 45 C-25 53 -23 60 -18 66 C-11 70 -6 71 1 70 C9 68 13 64 18 57 C22 46 22 36 18 25 C15 19 11 17 6 14 C-2 12 -9 13 -16 18 Z " fill="#FCFCFC" transform="translate(208.125,146)"/>
<path d="M0 0 C6 6 11 13 15 21 C15 22 15 24 15 25 C14 25 14 25 13 25 C12 24 12 23 11 21 C9 17 7 15 4 12 C3 11 2 10 1 9 C-3 8 -5 8 -9 9 C-11 10 -12 11 -13 12 C-14 12 -15 13 -16 14 C-17 14 -17 14 -20 16 C-22 17 -24 18 -26 19 C-28 21 -31 22 -33 24 C-44 25 -51 23 -60 17 C-63 13 -63 13 -65 10 C-64 6 -63 4 -60 0 C-58 -4 -55 -7 -53 -11 C-52 -12 -50 -12 -49 -13 C-49 -12 -49 -12 -49 -11 C-47 -12 -46 -12 -44 -13 C-29 -16 -12 -9 0 0 Z " fill="#898EA3" transform="translate(146,296)"/>
<path d="M0 0 C1 1 3 1 4 2 C4 3 4 3 4 4 C5 5 7 5 8 6 C8 7 8 7 8 8 C9 8 10 8 11 8 C11 10 11 12 11 13 C12 15 12 17 12 19 C13 19 14 20 15 20 C15 24 16 27 16 31 C17 31 18 32 19 32 C19 36 19 36 19 41 C19 42 19 43 19 45 C19 48 19 51 19 55 C19 57 19 60 19 62 C19 69 19 75 19 82 C19 89 19 96 19 102 C19 116 19 129 19 142 C19 157 19 171 19 186 C19 217 19 247 19 278 C18 278 17 278 16 278 C16 277 16 277 16 275 C16 248 16 222 16 195 C16 182 16 170 16 157 C16 146 16 134 16 123 C16 117 16 111 16 106 C16 100 16 94 16 89 C16 86 16 83 16 80 C16 78 16 76 16 74 C16 73 16 71 16 70 C16 66 16 66 15 63 C15 61 15 58 14 56 C14 55 14 53 14 52 C14 51 14 50 14 49 C13 51 13 52 12 54 C13 54 13 54 14 54 C14 66 14 66 12 71 C11 70 9 70 8 69 C2 67 -2 67 -8 67 C-8 67 -8 67 -10 68 C-13 68 -16 68 -19 68 C-20 67 -20 67 -20 63 C-20 53 -11 44 -4 37 C1 33 1 33 6 30 C7 26 7 26 8 21 C8 20 8 18 8 16 C8 11 7 10 3 6 C3 5 3 5 3 4 C2 4 1 3 0 3 C0 2 0 1 0 0 Z " fill="#6268E2" transform="translate(396,61)"/>
<path d="M0 0 C4 1 4 1 9 4 C12 4 15 5 17 5 C24 6 28 7 34 10 C40 10 40 10 44 10 C44 11 44 11 44 14 C44 15 44 17 44 19 C44 20 44 22 44 23 C45 28 46 30 48 34 C48 35 47 37 47 38 C46 38 46 38 44 37 C38 37 35 38 30 40 C22 41 14 41 6 39 C4 39 2 40 0 40 C-1 40 -1 40 -5 40 C-7 37 -7 37 -8 33 C-7 29 -7 29 -4 27 C-4 24 -4 21 -5 18 C-5 15 -5 15 -4 10 C-5 9 -6 8 -7 7 C-5 3 -5 3 0 0 Z " fill="#C0C4D0" transform="translate(124,167)"/>
<path d="M0 0 C8 3 15 3 22 0 C29 -1 35 -1 41 2 C44 5 44 5 44 9 C41 13 39 15 34 18 C34 21 33 24 32 27 C31 28 30 30 28 31 C28 32 27 34 26 35 C23 35 23 35 18 34 C18 34 17 34 16 34 C6 31 -0 27 -6 19 C-9 16 -11 14 -14 11 C-14 10 -14 10 -14 9 C-15 9 -16 8 -18 8 C-13 0 -9 -3 0 0 Z " fill="#888DA2" transform="translate(63.5,335.9375)"/>
<path d="M0 0 C7 4 10 8 12 15 C16 31 18 50 9 65 C8 65 8 65 7 65 C7 66 7 67 6 68 C6 69 5 70 5 71 C1 72 1 72 -4 72 C-12 73 -12 73 -13 74 C-19 74 -19 74 -23 72 C-23 71 -22 69 -22 68 C-18 66 -14 66 -10 66 C-5 65 -3 62 0 58 C5 49 5 39 3 29 C1 23 -2 21 -7 17 C-11 16 -14 16 -18 17 C-22 19 -22 19 -26 23 C-27 25 -28 26 -29 27 C-30 27 -30 27 -34 25 C-32 20 -30 16 -27 12 C-26 12 -26 12 -25 12 C-23 8 -23 8 -22 5 C-14 1 -9 -2 0 0 Z " fill="#F8F9FA" transform="translate(324,144)"/>
<path d="M0 0 C0 0 1 0 1 0 C2 5 2 10 3 16 C3 19 3 19 4 22 C4 25 4 27 4 30 C4 32 4 34 4 35 C4 37 4 39 4 41 C4 43 4 45 4 47 C4 53 4 58 4 64 C4 67 4 71 4 74 C4 86 4 98 4 110 C4 121 4 133 4 144 C4 153 4 163 4 173 C4 178 4 184 4 190 C4 195 4 201 4 206 C4 209 4 212 4 215 C4 239 4 239 2 246 C0 246 -1 247 -3 247 C-3 248 -3 248 -6 251 C-6 243 -4 235 -2 227 C-1 222 0 217 1 212 C0 212 -0 212 -1 212 C-1 188 -1 164 -1 139 C-0 139 0 139 1 139 C1 135 1 131 1 127 C0 127 -0 127 -1 127 C-1 114 -1 101 -1 88 C-2 82 -2 76 -2 70 C-2 64 -2 59 -2 53 C-2 51 -2 48 -2 46 C-2 43 -2 40 -2 37 C-2 35 -2 33 -2 32 C-2 27 -1 25 0 21 C0 17 1 14 1 10 C0 10 -0 10 -1 10 C-1 7 -0 3 0 0 Z " fill="#4D53D6" transform="translate(409,105)"/>
<path d="M0 0 C1 0 2 0 3 0 C3 1 3 2 3 3 C3 4 3 6 3 7 C3 8 3 10 3 11 C3 12 3 13 3 14 C4 14 4 15 5 15 C5 19 5 24 5 28 C5 29 5 31 5 32 C5 37 5 41 5 46 C5 49 5 52 5 55 C5 64 5 72 5 80 C5 89 5 97 5 106 C5 123 5 139 5 156 C4 156 3 156 2 156 C2 157 2 158 2 159 C3 159 3 159 4 159 C4 160 4 161 4 162 C3 162 3 162 2 162 C2 163 2 165 2 166 C3 178 3 190 3 202 C4 202 4 202 5 202 C5 205 5 205 5 209 C4 210 3 211 2 212 C3 212 3 212 4 212 C4 213 5 215 5 216 C4 216 4 216 3 216 C3 217 4 217 4 218 C4 220 4 223 5 225 C5 226 5 226 5 229 C5 233 5 233 4 236 C4 238 4 241 4 243 C3 243 1 242 0 242 C-0 238 -0 238 -0 233 C-0 232 -0 231 -0 230 C-0 226 -0 223 -0 220 C-0 217 -0 215 -0 213 C-0 206 -0 200 -0 193 C-0 186 -0 179 -0 173 C-0 160 -0 147 -0 134 C-0 120 -0 105 -0 90 C-0 60 -0 30 0 0 Z " fill="#A2A6E8" transform="translate(25,93)"/>
<path d="M0 0 C1 0 3 1 4 1 C4 2 4 3 4 4 C5 4 5 5 6 5 C6 6 6 7 6 8 C7 9 9 9 10 10 C11 11 11 12 12 14 C13 15 13 16 14 17 C18 17 18 17 21 16 C21 16 22 15 22 15 C29 14 33 15 38 19 C47 28 47 28 47 37 C46 40 46 40 43 43 C38 43 38 43 32 43 C31 43 31 43 28 44 C28 43 27 43 27 42 C27 41 28 40 28 39 C27 39 25 39 24 39 C23 38 23 36 22 35 C21 36 21 38 20 39 C18 38 17 38 15 37 C13 33 13 33 12 27 C9 19 6 12 2 5 C0 2 0 2 0 0 Z " fill="#6268E2" transform="translate(314,106)"/>
<path d="M0 0 C1 -0 3 -0 4 -0 C5 -0 7 0 8 0 C9 0 11 0 12 0 C17 0 22 0 27 0 C30 0 34 0 37 0 C46 0 54 0 63 0 C72 0 81 0 90 0 C108 0 125 0 143 0 C143 2 143 3 143 5 C134 6 126 6 117 6 C116 6 114 6 113 6 C108 6 103 6 98 6 C94 6 91 6 88 6 C79 6 71 6 63 6 C63 5 63 5 63 4 C62 4 62 4 60 5 C47 6 35 5 23 4 C23 5 23 5 23 6 C18 6 13 6 8 6 C7 6 5 6 4 6 C3 6 1 6 -0 6 C-1 6 -1 6 -4 6 C-7 6 -7 6 -11 4 C-11 3 -10 2 -10 1 C-6 0 -4 -0 0 0 Z " fill="#4C52D6" transform="translate(113.13763427734375,26.879745483398438)"/>
<path d="M0 0 C5 1 10 1 15 1 C15 1 16 0 16 0 C21 0 21 0 24 1 C25 10 24 15 18 23 C14 27 9 29 4 29 C-1 28 -2 26 -5 23 C-6 22 -7 21 -8 20 C-10 15 -10 12 -10 7 C-10 6 -11 4 -11 3 C-10 1 -10 0 -10 -1 C-5 -2 -5 -2 0 0 Z " fill="#0B0D23" transform="translate(199,182)"/>
<path d="M0 0 C1 0 2 1 3 1 C3 2 3 3 3 5 C3 9 3 9 5 12 C7 17 7 20 7 25 C-4 27 -15 29 -26 26 C-30 22 -32 18 -33 12 C-31 8 -31 8 -29 7 C-26 7 -23 6 -20 6 C-16 5 -11 4 -7 3 C-4 2 -4 2 0 2 C0 1 0 1 0 0 Z " fill="#C1C5D1" transform="translate(325,289)"/>
<path d="M0 0 C1 0 3 1 4 1 C4 2 5 4 5 5 C6 6 8 6 9 7 C14 13 17 18 17 25 C16 29 16 29 13 32 C15 37 15 37 18 39 C20 41 20 41 21 46 C22 46 22 46 23 46 C23 47 22 48 22 49 C21 49 19 49 18 49 C18 48 18 48 18 47 C16 47 14 47 12 47 C11 46 11 44 10 43 C9 42 7 42 6 41 C6 40 6 40 6 39 C5 38 3 38 2 37 C2 36 2 36 2 35 C1 35 0 35 -1 35 C-1 34 -1 33 -1 32 C-2 28 -2 28 -6 25 C-6 24 -6 24 -6 23 C-7 23 -8 23 -9 23 C-9 22 -9 21 -9 20 C-10 18 -10 17 -10 16 C-11 16 -12 15 -13 15 C-13 14 -13 13 -13 12 C-8 10 -8 10 -5 10 C-4 8 -4 5 -3 3 C-2 2 -1 1 0 0 Z " fill="#6C7286" transform="translate(46,344)"/>
<path d="M0 0 C1 0 1 0 5 2 C7 9 6 15 2 21 C-2 26 -5 28 -11 29 C-13 29 -15 29 -17 28 C-18 29 -18 29 -22 29 C-27 28 -27 28 -31 24 C-29 20 -28 18 -25 15 C-25 12 -25 12 -26 9 C-25 9 -25 9 -24 9 C-24 8 -24 8 -24 7 C-25 7 -26 6 -27 6 C-27 5 -27 4 -27 3 C-26 3 -24 3 -23 3 C-22 3 -22 3 -17 3 C-17 3 -17 3 -12 3 C-7 3 -4 2 0 0 Z " fill="#C0C4D0" transform="translate(219,220)"/>
<path d="M0 0 C1 5 1 5 2 10 C3 11 3 12 4 13 C4 17 4 21 4 25 C3 25 2 25 1 25 C1 27 1 27 2 35 C1 35 0 35 -1 34 C-8 33 -15 32 -23 32 C-26 32 -26 32 -31 30 C-30 26 -29 24 -26 20 C-25 19 -24 18 -23 17 C-21 15 -21 15 -16 13 C-16 11 -15 9 -15 7 C-11 1 -7 -1 0 0 Z " fill="#BFC3CF" transform="translate(320,216)"/>
<path d="M0 0 C1 -0 3 -0 4 -0 C5 0 6 0 7 0 C10 7 9 18 9 25 C9 26 9 27 9 28 C9 36 8 42 5 49 C4 49 4 49 2 48 C1 44 1 44 1 40 C2 40 3 40 4 40 C3 38 3 36 2 34 C2 33 1 31 1 30 C1 29 0 28 -0 27 C-1 27 -2 27 -3 26 C-4 27 -4 27 -5 27 C-7 27 -9 27 -11 27 C-15 23 -18 18 -17 12 C-12 4 -10 0 0 0 Z " fill="#9499AB" transform="translate(155.0625,327.8125)"/>
<path d="M0 0 C1 0 1 0 4 2 C4 3 4 3 4 4 C5 5 7 5 8 6 C8 7 8 7 8 8 C9 8 10 8 11 8 C11 10 11 12 11 13 C12 15 12 17 12 19 C13 19 14 20 15 20 C15 24 16 27 16 31 C17 31 18 32 19 32 C19 36 19 36 19 41 C19 42 19 43 19 45 C19 48 19 51 19 55 C19 57 19 60 19 62 C19 69 19 75 19 82 C19 89 19 96 19 102 C19 116 19 129 19 142 C19 157 19 171 19 186 C19 217 19 247 19 278 C18 278 17 278 16 278 C16 277 16 277 16 275 C16 248 16 222 16 195 C16 182 16 170 16 157 C16 146 16 134 16 123 C16 117 16 111 16 106 C16 100 16 94 16 89 C16 86 16 83 16 80 C16 78 16 76 16 74 C16 73 16 71 16 70 C16 66 16 66 15 63 C15 59 15 55 14 51 C14 50 14 49 14 48 C14 45 14 43 14 40 C15 40 15 40 16 40 C16 38 15 35 15 33 C14 33 12 33 11 33 C8 27 9 22 9 16 C8 11 6 9 3 6 C3 5 3 5 3 4 C2 4 1 3 0 3 C0 2 0 1 0 0 Z " fill="#B1B5ED" transform="translate(396,61)"/>
<path d="M0 0 C1 0 3 1 4 1 C13 24 8 50 0 73 C-1 74 -1 75 -2 76 C-7 77 -9 77 -14 74 C-13 69 -13 69 -10 65 C-6 59 -6 56 -6 49 C-5 49 -5 49 -4 49 C-1 39 -1 29 -1 18 C-1 15 -1 12 -1 9 C-1 7 -1 6 -1 4 C-1 1 -1 1 0 0 Z " fill="#090A12" transform="translate(164,328)"/>
<path d="M0 0 C6 5 11 10 13 17 C13 18 13 19 13 21 C8 25 4 24 -2 24 C-21 19 -21 19 -27 15 C-26 9 -25 8 -21 4 C-20 4 -19 3 -18 2 C-12 -3 -7 -3 0 0 Z " fill="#F1B324" transform="translate(278.8125,199.375)"/>
<path d="M0 0 C1 0 1 0 2 0 C6 8 9 15 12 24 C12 25 13 26 13 28 C17 44 15 62 13 79 C11 79 10 79 8 79 C7 80 7 82 6 83 C5 83 4 83 3 83 C4 82 4 80 5 79 C6 79 6 79 9 78 C9 77 9 75 8 74 C1 34 1 34 0 15 C0 12 0 12 -2 10 C-2 8 -3 5 -3 3 C-2 3 -1 3 0 3 C0 2 0 1 0 0 Z " fill="#ACB0BA" transform="translate(352,320)"/>
<path d="M0 0 C0 0 1 0 1 0 C1 6 1 11 1 17 C0 17 -1 17 -2 17 C-3 18 -3 20 -4 21 C-7 21 -7 21 -11 21 C-13 21 -14 21 -16 21 C-17 21 -19 21 -21 21 C-22 21 -22 21 -26 21 C-31 21 -36 21 -41 21 C-46 21 -51 21 -56 21 C-66 21 -76 21 -85 21 C-96 21 -107 21 -118 21 C-141 21 -163 21 -186 21 C-185 20 -185 18 -184 17 C-174 15 -174 15 -170 17 C-168 17 -166 17 -164 17 C-162 17 -161 17 -160 17 C-158 17 -156 17 -155 17 C-153 17 -152 17 -150 17 C-145 17 -140 17 -134 17 C-131 17 -127 17 -124 17 C-114 17 -104 17 -95 17 C-85 17 -75 17 -66 17 C-47 17 -29 17 -11 17 C-5 17 -5 17 -3 18 C-3 18 -3 18 -5 15 C-4 9 -3 5 0 0 Z " fill="#D8DAEB" transform="translate(346,386)"/>
<path d="M0 0 C1 0 3 1 4 1 C3 2 3 3 2 4 C-2 12 -6 20 -9 29 C-9 30 -10 31 -10 33 C-17 50 -19 68 -22 86 C-22 91 -23 96 -24 101 C-24 102 -24 103 -24 104 C-25 110 -27 116 -29 122 C-29 122 -30 122 -30 122 C-33 107 -33 107 -30 101 C-28 94 -28 89 -29 83 C-29 78 -28 76 -25 72 C-24 67 -24 67 -24 62 C-23 53 -23 53 -21 49 C-21 48 -21 48 -21 46 C-21 41 -19 38 -17 34 C-17 32 -16 29 -16 27 C-15 26 -14 24 -13 23 C-13 22 -12 21 -12 20 C-10 16 -8 13 -6 10 C-5 9 -5 7 -4 6 C-3 6 -3 5 -2 5 C-1 3 -1 2 0 0 Z " fill="#6267E2" transform="translate(124,117)"/>
<path d="M0 0 C4 4 6 8 8 13 C9 14 10 15 11 16 C11 18 11 20 11 22 C12 23 12 25 12 27 C15 28 15 28 18 28 C18 29 18 29 18 30 C19 30 21 29 22 29 C23 30 23 30 24 31 C25 31 27 30 28 30 C29 26 31 23 32 19 C33 18 33 17 34 16 C35 16 35 17 36 17 C36 20 36 20 35 24 C34 24 33 25 32 25 C31 29 31 29 31 32 C30 32 29 32 28 32 C27 33 27 35 26 36 C26 36 26 36 24 37 C24 39 23 42 23 44 C22 44 21 44 20 44 C19 45 19 47 18 48 C17 48 17 48 16 48 C15 49 15 51 14 52 C13 52 13 52 12 52 C11 53 11 55 10 56 C8 56 7 56 5 56 C5 55 5 54 5 53 C6 53 6 53 7 53 C6 52 6 50 5 49 C5 46 5 46 5 43 C4 41 4 40 4 39 C4 38 4 38 4 35 C4 24 2 14 -0 4 C-1 3 -1 2 -1 1 C-1 1 -0 0 0 0 Z " fill="#8086E8" transform="translate(372,335)"/>
<path d="M0 0 C0 -0 0 -0 3 -0 C6 -0 10 -0 13 -0 C15 -0 18 -0 20 -0 C26 -0 33 -0 39 -0 C45 -0 50 -0 55 -0 C68 -0 81 -0 93 -0 C106 -0 119 -0 132 -0 C144 -0 155 -0 166 -0 C173 -0 179 -0 186 -0 C192 -0 199 -0 205 -0 C207 -0 210 -0 212 -0 C215 -0 218 -0 221 -0 C222 -0 222 -0 227 -0 C228 0 229 0 231 0 C231 1 231 1 233 3 C229 4 229 4 225 3 C220 3 216 3 212 3 C211 3 210 3 208 3 C204 3 200 3 196 3 C194 3 191 3 188 3 C182 2 175 2 169 2 C169 3 169 4 169 5 C161 7 153 6 145 6 C145 5 145 4 145 2 C125 2 106 2 87 3 C78 3 69 3 60 3 C51 3 42 3 34 3 C30 3 27 3 24 3 C19 3 15 3 10 3 C9 3 9 3 6 3 C4 3 3 3 2 3 C1 3 1 3 -1 3 C-4 3 -4 3 -9 4 C-10 4 -11 3 -11 2 C-8 -1 -4 0 0 0 Z " fill="#DBDEED" transform="translate(111.33837890625,24.739303588867188)"/>
<path d="M0 0 C1 5 1 5 1 10 C1 10 1 10 -1 13 C-1 15 -1 17 -1 19 C-1 20 -1 20 -2 24 C-3 24 -5 25 -6 25 C-7 24 -8 24 -9 23 C-13 23 -16 24 -20 26 C-21 26 -23 26 -24 26 C-24 24 -24 23 -24 21 C-24 16 -24 16 -26 12 C-27 11 -27 10 -28 9 C-24 3 -17 1 -11 -1 C-4 -1 -4 -1 0 0 Z " fill="#C0C4D0" transform="translate(340,359)"/>
<path d="M0 0 C6 2 11 3 15 8 C15 9 15 9 16 12 C14 16 12 18 8 19 C3 20 -2 20 -7 20 C-8 20 -8 20 -13 20 C-18 20 -18 20 -21 17 C-18 8 -10 -1 0 0 Z " fill="#C0C4D0" transform="translate(164,105)"/>
<path d="M0 0 C3 2 3 2 5 5 C5 5 5 5 6 6 C7 6 7 6 9 6 C14 6 16 8 20 10 C22 11 24 11 26 12 C31 14 36 16 41 20 C44 20 44 20 48 20 C49 20 50 20 51 20 C52 20 53 20 54 20 C54 21 54 23 54 24 C54 24 54 24 51 25 C52 28 52 28 53 31 C54 32 56 32 57 33 C56 34 56 36 55 37 C54 36 53 35 52 34 C27 12 -2 8 -34 7 C-34 6 -33 5 -33 4 C-28 3 -28 3 -23 2 C-21 1 -19 1 -17 1 C-11 0 -6 -0 0 0 Z " fill="#6369E3" transform="translate(247,58)"/>
<path d="M0 0 C0 3 0 3 1 8 C1 9 1 11 1 13 C1 14 1 16 1 18 C1 31 1 44 3 57 C4 64 4 72 4 80 C3 80 3 79 2 79 C2 78 2 78 2 77 C1 77 0 77 -1 77 C-3 74 -2 71 -2 67 C-3 60 -4 55 -6 49 C-8 42 -8 34 -8 26 C-7 26 -6 26 -5 26 C-5 24 -5 21 -5 19 C-5 18 -6 16 -6 15 C-6 14 -6 13 -6 12 C-7 12 -7 11 -8 11 C-9 6 -9 6 -9 1 C-4 -1 -4 -1 0 0 Z " fill="#D4D7EA" transform="translate(329,215)"/>
<path d="M0 0 C3 6 3 9 4 15 C4 17 4 19 4 21 C3 27 1 29 -3 33 C-8 35 -8 35 -12 34 C-16 29 -15 26 -15 21 C-13 13 -12 6 -8 -1 C-5 -2 -5 -2 0 0 Z " fill="#5057D7" transform="translate(360,181)"/>
<path d="M0 0 C1 0 1 1 2 1 C1 6 -1 9 -4 13 C-7 18 -10 24 -13 29 C-14 31 -15 32 -16 34 C-17 37 -19 39 -20 42 C-21 42 -22 42 -23 42 C-23 38 -23 34 -24 30 C-24 29 -24 28 -24 27 C-24 22 -24 18 -22 13 C-22 12 -22 12 -21 8 C-21 7 -20 5 -20 4 C-16 3 -15 4 -11 5 C-10 6 -9 6 -8 7 C-8 6 -7 5 -7 4 C-5 3 -4 3 -2 2 C-1 1 -1 1 0 0 Z " fill="#6F75E6" transform="translate(52,309)"/>
<path d="M0 0 C0 1 0 1 0 2 C1 2 2 3 3 3 C2 4 1 4 -0 5 C-8 11 -16 19 -18 29 C-17 32 -17 32 -15 35 C-11 40 -9 45 -6 50 C1 63 1 63 7 66 C12 67 14 66 18 63 C22 60 23 58 25 54 C26 54 27 55 28 55 C27 61 24 64 20 68 C16 70 14 70 9 69 C9 70 9 70 9 71 C8 71 8 71 7 71 C7 70 7 70 7 69 C6 69 5 68 4 68 C-3 66 -6 62 -10 56 C-10 55 -10 55 -12 50 C-13 45 -14 43 -18 40 C-21 36 -21 36 -21 30 C-22 30 -23 30 -24 30 C-24 29 -24 27 -24 26 C-23 26 -22 25 -21 25 C-20 22 -20 22 -19 19 C-17 12 -13 9 -8 5 C-7 4 -6 3 -5 2 C-3 0 -3 0 0 0 Z " fill="#D4D7EA" transform="translate(259,189)"/>
<path d="M0 0 C-6 9 -11 17 -19 24 C-21 27 -21 27 -22 32 C-22 37 -22 37 -24 40 C-25 40 -27 41 -28 41 C-33 43 -33 44 -35 49 C-39 51 -39 51 -43 50 C-36 35 -28 24 -17 13 C-14 10 -14 10 -11 5 C-9 1 -9 1 -5 -1 C-2 -1 -2 -1 0 0 Z " fill="#9499AB" transform="translate(93,286)"/>
<path d="M0 0 C1 -0 2 -0 3 -0 C6 0 6 0 10 1 C14 1 18 1 22 1 C25 1 28 1 30 1 C34 2 38 2 42 2 C46 2 50 2 54 2 C54 2 54 2 57 2 C66 2 66 2 70 4 C64 6 59 5 53 5 C52 5 52 5 49 5 C45 5 40 5 36 5 C33 5 30 5 27 5 C20 5 14 5 8 5 C-0 5 -9 5 -17 5 C-23 5 -29 5 -36 5 C-39 5 -42 5 -45 5 C-49 5 -53 5 -57 5 C-58 5 -58 5 -61 5 C-70 5 -70 5 -72 3 C-69 2 -67 2 -63 2 C-53 2 -42 2 -31 2 C-29 2 -27 2 -25 2 C-23 2 -21 1 -19 1 C-18 1 -16 1 -14 1 C-9 1 -5 -0 0 0 Z " fill="#C1C5D1" transform="translate(246,398.875)"/>
<path d="M0 0 C4 1 8 3 12 4 C14 4 16 4 18 4 C23 5 26 6 31 8 C40 10 48 11 57 11 C57 12 57 12 57 13 C56 13 55 13 54 13 C45 15 38 17 31 24 C26 25 22 25 17 24 C18 22 18 21 19 19 C18 18 18 16 17 15 C16 14 16 12 15 11 C11 7 11 7 7 6 C3 4 3 4 0 0 Z " fill="#7A8094" transform="translate(84,370)"/>
<path d="M0 0 C5 3 6 5 8 10 C9 10 10 11 11 11 C11 12 12 14 12 15 C13 16 14 17 15 18 C17 24 18 28 18 34 C17 34 17 34 16 34 C16 35 16 37 16 38 C17 38 17 38 18 38 C18 39 18 39 18 40 C17 40 17 40 16 40 C16 42 16 42 18 51 C17 51 17 51 16 51 C16 52 17 53 17 54 C17 60 15 63 11 68 C8 68 8 68 5 67 C5 66 5 66 6 64 C12 47 12 28 5 11 C3 8 3 8 -1 5 C-1 3 -0 2 0 0 Z " fill="#1A1F4F" transform="translate(328,142)"/>
<path d="M0 0 C0 0 1 0 1 0 C1 12 1 24 1 37 C-0 36 -2 36 -3 35 C-3 34 -4 32 -4 31 C-5 30 -7 30 -8 29 C-9 29 -9 29 -11 27 C-15 24 -15 24 -19 22 C-21 22 -22 21 -23 21 C-23 20 -24 19 -24 18 C-19 13 -13 11 -7 9 C-3 7 -3 7 -2 5 C-1 5 -1 5 0 5 C0 3 0 2 0 0 Z " fill="#6268E3" transform="translate(407,282)"/>
<path d="M0 0 C8 -0 16 -0 24 -0 C26 -0 29 -0 32 -0 C35 -0 39 -0 43 -0 C44 -0 46 -0 47 -0 C52 -0 57 0 62 2 C57 7 53 6 46 6 C45 6 44 6 43 6 C40 6 38 6 36 6 C33 6 30 6 26 6 C15 6 3 6 -8 5 C-8 4 -8 4 -8 3 C-5 3 -3 3 0 3 C0 2 0 1 0 0 Z " fill="#4C52D6" transform="translate(280,27)"/>
<path d="M0 0 C0 1 1 1 1 2 C2 2 3 3 4 3 C4 6 3 10 3 13 C3 14 3 16 4 17 C4 18 4 19 4 20 C3 20 3 20 0 22 C0 29 0 29 2 31 C1 40 1 40 -1 44 C-2 44 -3 44 -4 44 C-4 45 -4 47 -4 48 C-3 55 -3 55 -4 59 C-5 59 -7 59 -8 59 C-8 60 -9 61 -9 62 C-10 62 -10 61 -11 61 C-11 58 -10 55 -10 52 C-9 50 -9 48 -9 46 C-8 44 -8 42 -8 40 C-7 38 -7 36 -7 34 C-2 2 -2 2 0 0 Z " fill="#D1D4E5" transform="translate(117,174)"/>
<path d="M0 0 C1 0 1 0 4 2 C4 3 4 3 4 4 C5 5 7 5 8 6 C8 7 8 7 8 8 C9 8 10 8 11 8 C11 10 11 12 11 13 C12 15 12 17 12 19 C13 19 14 20 15 20 C15 24 16 27 16 31 C17 31 18 32 19 32 C19 36 19 41 19 45 C19 46 19 48 19 49 C19 53 19 57 19 62 C19 64 19 67 19 70 C19 77 19 84 19 91 C18 91 18 91 17 91 C17 89 17 87 17 86 C17 83 17 81 17 79 C17 78 16 76 16 75 C16 66 16 66 15 63 C15 59 15 55 14 51 C14 50 14 49 14 48 C14 45 14 43 14 40 C15 40 15 40 16 40 C16 38 15 35 15 33 C14 33 12 33 11 33 C8 27 9 22 9 16 C8 11 6 9 3 6 C3 5 3 5 3 4 C2 4 1 3 0 3 C0 2 0 1 0 0 Z " fill="#ABAFEB" transform="translate(396,61)"/>
<path d="M0 0 C5 0 5 0 8 2 C12 3 17 4 21 5 C25 6 27 7 30 11 C31 13 31 13 31 19 C30 20 30 20 29 21 C22 21 19 18 14 14 C13 14 12 13 11 13 C6 10 3 7 -1 3 C-1 2 -0 1 0 0 Z " fill="#C1C5D1" transform="translate(131,278)"/>
<path d="M0 0 C2 1 2 1 3 4 C4 8 4 12 4 17 C4 21 4 25 5 29 C5 34 5 39 5 44 C5 49 5 52 8 57 C8 60 8 63 8 66 C8 68 9 71 9 73 C5 71 5 71 4 68 C4 67 3 65 3 64 C3 63 2 62 2 61 C-2 42 -3 19 0 0 Z " fill="#6369E3" transform="translate(339,220)"/>
<path d="M0 0 C1 0 1 0 2 0 C4 5 4 5 5 11 C4 12 3 13 2 14 C1 14 1 14 0 14 C-1 17 -1 20 -2 23 C-3 27 -5 31 -7 35 C-8 38 -8 38 -10 43 C-11 47 -11 47 -16 50 C-18 50 -20 50 -22 50 C-21 48 -19 45 -18 43 C-17 41 -17 40 -16 39 C-16 38 -15 37 -15 36 C-11 29 -8 21 -5 13 C-1 1 -1 1 0 0 Z " fill="#D2D5E7" transform="translate(106,237)"/>
<path d="M0 0 C12 -0 23 -0 35 -0 C41 -0 46 -0 51 -0 C57 -0 62 -0 67 -0 C70 -0 73 -0 76 -0 C77 -0 77 -0 82 -0 C83 -0 85 -0 86 -0 C87 -0 87 -0 90 0 C90 0 90 0 92 3 C88 4 88 4 84 3 C80 3 76 3 71 3 C70 3 69 3 68 3 C64 3 60 2 56 2 C53 2 50 2 48 2 C41 2 35 2 28 2 C28 3 28 4 28 5 C20 6 12 6 4 6 C4 5 4 3 4 2 C3 2 1 2 0 2 C0 1 0 1 0 0 Z " fill="#D8DAEC" transform="translate(252,25)"/>
<path d="M0 0 C6 4 6 4 7 7 C7 12 7 14 4 18 C3 18 1 17 0 17 C-2 17 -3 16 -5 16 C-5 15 -5 15 -5 14 C-5 14 -5 14 -8 14 C-9 14 -10 13 -11 13 C-13 8 -13 8 -13 2 C-12 0 -12 0 -9 -1 C-5 -2 -4 -2 0 0 Z " fill="#6268E3" transform="translate(395,349)"/>
<path d="M0 0 C1 0 3 0 4 0 C4 1 4 1 4 2 C5 3 7 3 8 4 C9 5 9 5 9 11 C8 11 8 11 7 11 C7 11 7 11 9 14 C9 18 9 21 8 25 C8 30 8 35 9 40 C8 42 8 43 8 45 C5 47 5 47 2 48 C2 47 2 46 2 45 C2 13 2 13 0 0 Z " fill="#D4D7EA" transform="translate(169,331)"/>
<path d="M0 0 C1 1 1 3 2 4 C-0 9 -1 9 -6 11 C-9 11 -11 11 -14 11 C-16 12 -19 13 -21 14 C-23 14 -25 14 -27 14 C-27 13 -28 12 -28 11 C-25 6 -22 5 -16 3 C-15 2 -14 2 -12 1 C-8 -0 -4 -1 0 0 Z " fill="#5057D7" transform="translate(204,54)"/>
<path d="M0 0 C0 0 0 0 3 2 C5 4 5 4 7 8 C5 9 3 9 2 9 C2 9 2 8 2 7 C-1 6 -4 6 -6 5 C-9 4 -9 4 -12 3 C-17 2 -20 4 -24 6 C-26 7 -27 7 -28 7 C-28 2 -27 1 -23 -3 C-15 -7 -6 -5 0 0 Z " fill="#C1C5D1" transform="translate(216.25,142.8125)"/>
<path d="M0 0 C4 2 4 2 7 5 C7 6 8 8 8 9 C4 13 -2 13 -8 13 C-11 12 -11 12 -13 8 C-14 4 -14 4 -12 1 C-8 -2 -5 -1 0 0 Z " fill="#5057D7" transform="translate(387,320)"/>
<path d="M0 0 C4 4 4 12 5 17 C5 19 5 20 5 21 C7 31 8 41 7 51 C7 51 6 51 6 51 C6 49 6 48 6 46 C5 46 4 46 3 46 C3 44 2 42 2 40 C1 40 0 40 -1 40 C-1 34 -1 34 1 30 C2 24 1 23 -1 18 C-3 6 -3 6 0 0 Z " fill="#D4D7EA" transform="translate(338,319)"/>
<path d="M0 0 C2 0 4 0 6 0 C6 1 6 3 6 4 C8 4 9 4 11 4 C11 7 11 7 10 11 C5 12 5 12 0 13 C-0 13 -1 12 -1 12 C-4 12 -4 12 -8 12 C-8 12 -8 12 -10 15 C-12 16 -15 17 -17 18 C-16 11 -12 9 -7 5 C-6 5 -6 5 -5 5 C-5 4 -4 3 -4 2 C-3 2 -1 2 0 2 C0 1 0 1 0 0 Z " fill="#4F55D6" transform="translate(65,40)"/>
<path d="M0 0 C1 1 1 3 2 4 C5 5 5 5 9 6 C10 6 11 7 12 7 C12 8 11 8 11 9 C7 9 3 9 -1 9 C-1 8 -1 8 -1 7 C-2 7 -4 7 -5 7 C-24 7 -24 7 -31 6 C-32 5 -32 5 -33 4 C-24 1 -15 1 -5 1 C-4 1 -2 1 -1 1 C-1 1 -0 0 0 0 Z " fill="#62687D" transform="translate(149,398)"/>
</svg>
