<?xml version="1.0" encoding="UTF-8"?>
<!-- Generator: visioncortex VTracer 0.6.12 -->
<svg version="1.1" xmlns="http://www.w3.org/2000/svg" width="352" height="352">
<path d="M0 0 C4 -1 4 -1 8 -1 C9 -1 9 -1 13 -1 C15 -1 16 -1 18 -0 C20 -1 21 -1 23 -1 C25 -1 26 -1 28 -1 C29 -1 31 -1 32 -1 C34 -0 35 -0 36 0 C36 1 36 1 38 4 C42 4 42 4 47 4 C52 4 52 4 56 4 C56 5 56 5 58 8 C60 8 61 8 63 8 C65 8 66 8 68 8 C68 9 68 9 70 12 C72 12 73 12 75 12 C77 12 78 12 80 12 C80 13 80 13 82 16 C84 16 86 16 88 16 C88 17 88 17 90 20 C92 20 94 20 96 20 C96 21 96 21 98 24 C99 24 99 24 102 26 C102 27 102 27 102 28 C104 28 106 28 108 28 C108 29 108 29 110 32 C111 33 113 33 114 34 C114 35 114 35 114 36 C115 37 117 37 118 38 C118 39 118 39 118 40 C120 40 123 40 125 40 C125 41 125 42 125 43 C126 47 126 47 130 50 C130 51 130 51 130 52 C131 53 133 53 134 54 C134 55 134 55 134 56 C135 57 137 57 138 58 C138 59 138 59 138 60 C139 61 141 61 142 62 C142 63 142 63 142 64 C143 64 144 64 145 64 C145 65 145 66 145 67 C146 71 146 71 150 74 C150 75 150 75 150 76 C151 76 152 76 153 76 C153 77 153 78 153 79 C154 81 154 82 154 83 C155 83 156 84 157 84 C157 86 158 89 158 91 C159 91 160 92 161 92 C161 96 162 99 162 103 C163 103 164 104 165 104 C165 108 166 111 166 115 C167 115 168 116 169 116 C169 119 169 119 169 123 C169 124 169 126 169 127 C169 128 169 128 169 132 C169 134 169 136 169 137 C169 141 169 144 169 148 C169 153 169 158 169 164 C169 167 169 170 169 174 C169 175 169 177 169 179 C169 180 169 182 169 183 C169 184 169 186 169 187 C169 188 169 189 169 190 C168 190 167 191 166 191 C166 193 166 195 166 196 C165 198 165 200 165 202 C164 202 163 203 162 203 C162 205 162 207 162 208 C161 210 161 212 161 214 C160 214 159 215 158 215 C158 216 158 217 158 218 C157 220 157 221 157 222 C156 222 155 223 154 223 C154 224 154 225 154 226 C153 228 153 229 153 230 C152 230 151 231 150 231 C149 235 149 235 149 238 C148 238 147 238 146 238 C145 239 145 241 144 242 C143 242 143 242 142 242 C141 243 141 245 140 246 C139 246 139 247 138 247 C138 249 137 252 137 254 C136 254 135 254 134 254 C132 254 131 254 130 254 C129 255 129 257 128 258 C127 258 127 259 126 259 C126 261 125 264 125 266 C124 266 123 266 122 266 C120 266 119 266 118 266 C117 267 117 269 116 270 C115 270 115 270 114 270 C113 271 113 273 112 274 C110 274 108 274 106 274 C105 275 105 277 104 278 C103 278 103 278 102 278 C101 279 101 281 100 282 C98 282 96 282 94 282 C93 283 93 285 92 286 C90 286 88 286 86 286 C85 287 85 289 84 290 C82 290 80 290 78 290 C77 291 77 293 76 294 C73 294 69 294 66 294 C65 295 65 297 64 298 C61 298 57 298 54 298 C53 299 53 301 52 302 C49 303 49 303 46 303 C45 303 45 303 42 303 C41 303 39 303 38 303 C36 303 35 303 34 303 C31 303 28 303 25 303 C20 303 15 303 11 303 C8 303 5 303 2 303 C1 303 1 303 -2 303 C-3 303 -5 303 -6 303 C-7 303 -8 303 -9 303 C-10 302 -11 302 -12 302 C-13 301 -13 299 -14 298 C-17 298 -17 298 -21 298 C-25 298 -25 298 -28 298 C-29 297 -29 295 -30 294 C-32 294 -33 294 -35 294 C-37 294 -38 294 -40 294 C-41 293 -41 291 -42 290 C-44 290 -46 290 -48 290 C-49 289 -49 287 -50 286 C-52 286 -54 286 -56 286 C-57 285 -57 283 -58 282 C-60 282 -62 282 -64 282 C-65 281 -65 279 -66 278 C-67 277 -69 277 -70 276 C-70 275 -70 275 -70 274 C-72 274 -74 274 -76 274 C-76 273 -76 273 -78 270 C-79 269 -81 269 -82 268 C-82 267 -82 267 -82 266 C-83 265 -85 265 -86 264 C-86 263 -86 263 -86 262 C-87 261 -89 261 -90 260 C-90 259 -90 259 -90 258 C-91 257 -93 257 -94 256 C-94 255 -94 255 -94 254 C-95 253 -97 253 -98 252 C-98 251 -98 251 -98 250 C-99 250 -100 250 -101 250 C-101 249 -101 248 -101 247 C-102 243 -102 243 -106 240 C-106 239 -106 239 -106 238 C-107 237 -109 237 -110 236 C-110 235 -110 235 -110 234 C-111 234 -112 234 -113 234 C-113 233 -113 232 -113 231 C-114 229 -114 228 -114 227 C-115 227 -116 226 -117 226 C-117 224 -118 221 -118 219 C-119 219 -120 218 -121 218 C-121 216 -122 213 -122 211 C-123 211 -124 210 -125 210 C-125 206 -126 203 -126 199 C-127 199 -128 198 -129 198 C-129 194 -130 190 -130 186 C-130 185 -130 184 -130 183 C-131 183 -132 182 -133 182 C-133 178 -133 174 -133 170 C-133 169 -133 168 -133 167 C-133 164 -133 161 -133 159 C-133 155 -133 151 -133 147 C-133 145 -133 142 -133 140 C-133 139 -133 138 -133 136 C-133 134 -133 131 -133 128 C-133 128 -133 128 -130 127 C-130 124 -130 124 -130 120 C-129 115 -129 115 -129 112 C-129 112 -129 112 -126 111 C-126 109 -126 107 -126 106 C-125 104 -125 102 -125 100 C-125 100 -125 100 -122 99 C-122 97 -122 95 -122 94 C-121 92 -121 90 -121 88 C-121 88 -121 88 -118 87 C-117 83 -117 83 -117 80 C-116 80 -115 80 -114 80 C-113 79 -113 77 -112 76 C-112 76 -112 76 -110 75 C-110 73 -109 70 -109 68 C-108 68 -107 68 -106 68 C-105 67 -105 65 -104 64 C-103 64 -103 64 -102 64 C-101 63 -101 61 -100 60 C-99 60 -99 59 -98 59 C-98 57 -97 54 -97 52 C-96 52 -95 52 -94 52 C-93 51 -93 49 -92 48 C-91 48 -91 48 -90 48 C-89 47 -89 45 -88 44 C-87 44 -87 44 -86 44 C-85 43 -85 41 -84 40 C-83 40 -83 40 -82 40 C-81 39 -81 37 -80 36 C-79 36 -79 36 -78 36 C-77 35 -77 33 -76 32 C-74 32 -72 32 -70 32 C-69 31 -69 29 -68 28 C-67 28 -67 28 -66 28 C-65 27 -65 25 -64 24 C-62 24 -60 24 -58 24 C-57 23 -57 21 -56 20 C-54 20 -52 20 -50 20 C-49 19 -49 17 -48 16 C-46 16 -44 16 -42 16 C-41 15 -41 13 -40 12 C-38 12 -36 12 -34 12 C-33 11 -33 9 -32 8 C-28 8 -25 8 -21 8 C-21 8 -21 8 -18 8 C-17 7 -17 5 -16 4 C-12 4 -9 4 -5 4 C-4 4 -3 4 -2 4 C-1 3 -1 1 0 0 Z " fill="#C9CCD6" transform="translate(158,25)"/>
<path d="M0 0 C4 -1 4 -1 8 -1 C9 -1 9 -1 13 -1 C15 -1 16 -1 18 -0 C20 -1 21 -1 23 -1 C25 -1 26 -1 28 -1 C29 -1 31 -1 32 -1 C34 -0 35 -0 36 0 C36 1 36 1 38 4 C42 4 42 4 47 4 C52 4 52 4 56 4 C56 5 56 5 58 8 C60 8 61 8 63 8 C65 8 66 8 68 8 C68 9 68 9 70 12 C72 12 73 12 75 12 C77 12 78 12 80 12 C80 13 80 13 82 16 C84 16 86 16 88 16 C88 17 88 17 90 20 C92 20 94 20 96 20 C96 21 96 21 98 24 C99 24 99 24 102 26 C102 27 102 27 102 28 C104 28 106 28 108 28 C108 29 108 29 110 32 C111 33 113 33 114 34 C114 35 114 35 114 36 C115 37 117 37 118 38 C118 39 118 39 118 40 C120 40 123 40 125 40 C125 41 125 42 125 43 C126 47 126 47 130 50 C130 51 130 51 130 52 C131 53 133 53 134 54 C134 55 134 55 134 56 C135 57 137 57 138 58 C138 59 138 59 138 60 C139 61 141 61 142 62 C142 63 142 63 142 64 C143 64 144 64 145 64 C145 65 145 66 145 67 C146 71 146 71 150 74 C150 75 150 75 150 76 C151 76 152 76 153 76 C153 77 153 78 153 79 C154 81 154 82 154 83 C155 83 156 84 157 84 C157 86 158 89 158 91 C159 91 160 92 161 92 C161 96 162 99 162 103 C163 103 164 104 165 104 C165 108 166 111 166 115 C167 115 168 116 169 116 C169 119 169 119 169 123 C169 124 169 126 169 127 C169 128 169 128 169 132 C169 134 169 136 169 137 C169 141 169 144 169 148 C169 153 169 158 169 164 C169 167 169 170 169 174 C169 175 169 177 169 179 C169 180 169 182 169 183 C169 184 169 186 169 187 C169 188 169 189 169 190 C168 190 167 191 166 191 C166 193 166 195 166 196 C165 198 165 200 165 202 C164 202 163 203 162 203 C162 205 162 207 162 208 C161 210 161 212 161 214 C160 214 159 215 158 215 C158 216 158 217 158 218 C157 220 157 221 157 222 C156 222 155 223 154 223 C154 224 154 225 154 226 C153 228 153 229 153 230 C152 230 151 231 150 231 C149 235 149 235 149 238 C148 238 147 238 146 238 C145 239 145 241 144 242 C143 242 143 242 142 242 C141 243 141 245 140 246 C139 246 139 247 138 247 C138 249 137 252 137 254 C136 254 135 254 134 254 C132 254 131 254 130 254 C129 255 129 257 128 258 C127 258 127 259 126 259 C126 260 125 261 125 262 C123 263 122 264 120 265 C116 261 115 259 114 254 C114 252 114 251 113 249 C113 249 113 249 112 245 C112 244 112 244 112 240 C109 226 107 212 106 198 C106 196 106 193 105 191 C105 185 105 180 105 174 C105 173 105 171 105 170 C105 162 106 158 110 151 C111 146 112 142 113 137 C113 136 114 134 114 133 C114 123 111 113 106 105 C104 104 103 103 101 102 C97 98 96 95 94 89 C91 83 87 78 83 72 C83 71 82 70 82 69 C81 68 79 68 78 67 C77 66 76 65 75 64 C57 49 35 46 12 47 C-9 50 -26 60 -40 76 C-54 95 -60 116 -63 140 C-66 162 -70 185 -81 205 C-75 206 -75 206 -72 205 C-71 205 -70 206 -69 206 C-69 205 -69 205 -69 204 C-52 207 -40 211 -29 225 C-24 231 -21 237 -19 245 C-18 245 -18 246 -17 246 C-12 261 -14 277 -18 292 C-22 296 -25 296 -30 296 C-30 295 -30 295 -30 294 C-32 294 -33 294 -35 294 C-37 294 -38 294 -40 294 C-41 293 -41 291 -42 290 C-44 290 -46 290 -48 290 C-49 289 -49 287 -50 286 C-52 286 -54 286 -56 286 C-57 285 -57 283 -58 282 C-60 282 -62 282 -64 282 C-65 281 -65 279 -66 278 C-67 277 -69 277 -70 276 C-70 275 -70 275 -70 274 C-72 274 -74 274 -76 274 C-76 273 -76 273 -78 270 C-79 269 -81 269 -82 268 C-82 267 -82 267 -82 266 C-83 265 -85 265 -86 264 C-86 263 -86 263 -86 262 C-87 261 -89 261 -90 260 C-90 259 -90 259 -90 258 C-91 257 -93 257 -94 256 C-94 255 -94 255 -94 254 C-95 253 -97 253 -98 252 C-98 251 -98 251 -98 250 C-99 250 -100 250 -101 250 C-101 249 -101 248 -101 247 C-102 243 -102 243 -106 240 C-106 239 -106 239 -106 238 C-107 237 -109 237 -110 236 C-110 235 -110 235 -110 234 C-111 234 -112 234 -113 234 C-113 233 -113 232 -113 231 C-114 229 -114 228 -114 227 C-115 227 -116 226 -117 226 C-117 224 -118 221 -118 219 C-119 219 -120 218 -121 218 C-121 216 -122 213 -122 211 C-123 211 -124 210 -125 210 C-125 206 -126 203 -126 199 C-127 199 -128 198 -129 198 C-129 194 -130 190 -130 186 C-130 185 -130 184 -130 183 C-131 183 -132 182 -133 182 C-133 178 -133 174 -133 170 C-133 169 -133 168 -133 167 C-133 164 -133 161 -133 159 C-133 155 -133 151 -133 147 C-133 145 -133 142 -133 140 C-133 139 -133 138 -133 136 C-133 134 -133 131 -133 128 C-133 128 -133 128 -130 127 C-130 124 -130 124 -130 120 C-129 115 -129 115 -129 112 C-129 112 -129 112 -126 111 C-126 109 -126 107 -126 106 C-125 104 -125 102 -125 100 C-125 100 -125 100 -122 99 C-122 97 -122 95 -122 94 C-121 92 -121 90 -121 88 C-121 88 -121 88 -118 87 C-117 83 -117 83 -117 80 C-116 80 -115 80 -114 80 C-113 79 -113 77 -112 76 C-112 76 -112 76 -110 75 C-110 73 -109 70 -109 68 C-108 68 -107 68 -106 68 C-105 67 -105 65 -104 64 C-103 64 -103 64 -102 64 C-101 63 -101 61 -100 60 C-99 60 -99 59 -98 59 C-98 57 -97 54 -97 52 C-96 52 -95 52 -94 52 C-93 51 -93 49 -92 48 C-91 48 -91 48 -90 48 C-89 47 -89 45 -88 44 C-87 44 -87 44 -86 44 C-85 43 -85 41 -84 40 C-83 40 -83 40 -82 40 C-81 39 -81 37 -80 36 C-79 36 -79 36 -78 36 C-77 35 -77 33 -76 32 C-74 32 -72 32 -70 32 C-69 31 -69 29 -68 28 C-67 28 -67 28 -66 28 C-65 27 -65 25 -64 24 C-62 24 -60 24 -58 24 C-57 23 -57 21 -56 20 C-54 20 -52 20 -50 20 C-49 19 -49 17 -48 16 C-46 16 -44 16 -42 16 C-41 15 -41 13 -40 12 C-38 12 -36 12 -34 12 C-33 11 -33 9 -32 8 C-28 8 -25 8 -21 8 C-21 8 -21 8 -18 8 C-17 7 -17 5 -16 4 C-12 4 -9 4 -5 4 C-4 4 -3 4 -2 4 C-1 3 -1 1 0 0 Z " fill="#5B62DB" transform="translate(158,25)"/>
<path d="M0 0 C2 1 3 3 5 4 C6 6 8 7 9 8 C13 13 16 17 19 22 C20 24 20 25 21 26 C25 33 28 40 30 48 C30 48 30 48 32 50 C37 54 38 60 40 66 C40 67 41 68 41 69 C43 76 42 82 40 89 C40 90 39 91 39 93 C38 97 38 97 36 102 C36 105 36 108 36 111 C36 112 36 112 36 117 C36 118 36 119 36 120 C36 123 36 126 36 129 C37 152 37 152 43 164 C44 166 46 169 47 172 C48 173 48 174 49 176 C51 179 52 182 53 184 C54 185 56 186 57 186 C57 191 57 194 54 198 C52 200 52 200 50 200 C49 201 49 202 48 204 C47 204 47 204 46 204 C46 205 45 206 45 208 C43 208 42 209 40 210 C36 206 35 205 34 199 C34 198 34 196 33 195 C33 194 33 194 32 190 C32 189 32 189 32 185 C29 171 27 157 26 143 C26 141 26 139 25 136 C25 131 25 125 25 119 C25 118 25 117 25 116 C25 108 26 103 30 96 C31 92 32 87 33 82 C33 81 34 80 34 78 C34 68 31 59 26 50 C24 50 23 49 21 48 C17 43 16 40 14 34 C11 28 7 23 3 18 C3 17 2 16 2 14 C1 14 1 14 -2 12 C-3 12 -4 11 -5 10 C-23 -5 -45 -9 -68 -8 C-89 -5 -106 5 -120 21 C-134 41 -140 61 -143 85 C-146 108 -150 130 -161 150 C-155 152 -155 152 -152 150 C-151 151 -150 151 -149 152 C-149 151 -149 150 -149 150 C-132 153 -120 157 -109 170 C-104 177 -101 183 -99 190 C-98 191 -98 191 -97 192 C-92 207 -94 222 -98 238 C-102 241 -105 241 -110 242 C-110 241 -110 240 -110 240 C-112 240 -113 240 -115 240 C-117 240 -118 240 -120 240 C-121 238 -121 237 -122 236 C-124 236 -126 236 -128 236 C-128 235 -128 235 -130 232 C-132 232 -134 232 -136 232 C-136 231 -136 231 -138 228 C-140 228 -142 228 -144 228 C-144 227 -144 227 -146 224 C-147 223 -149 222 -150 222 C-150 221 -150 220 -150 220 C-152 220 -154 220 -156 220 C-156 219 -156 219 -158 216 C-159 215 -161 214 -162 214 C-162 213 -162 212 -162 212 C-163 211 -165 210 -166 210 C-166 209 -166 208 -166 208 C-167 207 -169 206 -170 206 C-170 205 -170 204 -170 204 C-171 203 -173 202 -174 202 C-174 201 -174 200 -174 200 C-175 199 -177 198 -178 198 C-178 197 -178 196 -178 196 C-179 196 -180 196 -181 196 C-181 194 -181 193 -181 192 C-182 188 -182 188 -186 186 C-186 185 -186 184 -186 184 C-187 183 -189 182 -190 182 C-191 178 -191 178 -191 174 C-187 169 -187 169 -185 166 C-164 144 -158 117 -154 88 C-152 71 -149 55 -143 40 C-142 38 -142 37 -141 35 C-141 34 -140 34 -140 32 C-139 32 -139 32 -138 32 C-137 31 -137 29 -136 26 C-124 5 -106 -7 -83 -14 C-82 -15 -81 -15 -80 -16 C-53 -22 -21 -17 0 0 Z " fill="#7F8499" transform="translate(238,79.5)"/>
<path d="M0 0 C1 0 1 0 2 0 C3 1 3 2 4 3 C6 4 9 5 11 6 C12 7 13 8 14 9 C14 10 14 10 14 11 C15 12 17 12 18 13 C22 15 22 15 25 18 C25 19 25 19 26 23 C26 23 26 23 29 24 C30 26 31 27 32 29 C35 31 37 34 40 36 C40 37 41 38 41 39 C42 39 42 39 43 39 C46 43 47 45 47 50 C48 51 50 51 51 52 C54 57 54 57 54 60 C55 60 55 60 56 60 C56 61 56 61 57 64 C58 64 59 64 60 65 C61 65 62 66 63 66 C63 70 64 73 64 77 C64 77 64 77 67 78 C67 82 68 85 68 89 C68 89 68 89 71 90 C71 93 71 93 71 97 C71 98 71 100 71 101 C71 103 71 105 71 106 C71 108 71 110 71 111 C71 115 71 118 71 122 C71 127 71 132 71 138 C71 141 71 144 71 148 C71 149 71 151 71 153 C71 153 71 153 71 157 C71 158 71 160 71 161 C71 162 71 163 71 164 C70 164 69 165 68 165 C68 167 68 169 68 170 C67 172 67 174 67 176 C66 176 65 177 64 177 C64 179 64 181 64 182 C63 184 63 186 63 188 C62 188 61 189 60 189 C60 190 60 191 60 192 C59 194 59 195 59 196 C58 196 57 197 56 197 C56 198 56 199 56 200 C55 202 55 203 55 204 C54 204 53 205 52 205 C51 209 51 209 51 212 C50 212 49 212 48 212 C47 213 47 215 46 216 C45 216 45 216 44 216 C43 217 43 219 42 220 C41 220 41 221 40 221 C40 223 39 226 39 228 C37 228 36 228 34 228 C35 227 35 225 36 224 C38 219 38 219 38 215 C37 215 37 215 34 213 C32 210 32 210 31 206 C29 201 27 196 24 191 C16 180 18 166 17 153 C17 151 17 149 17 147 C17 135 18 125 22 114 C23 107 23 101 21 94 C21 93 20 92 20 91 C18 85 16 81 11 76 C10 74 10 71 9 69 C2 49 -11 33 -29 22 C-30 21 -30 20 -31 19 C-33 16 -35 15 -39 13 C-37 10 -34 9 -31 8 C-28 7 -25 7 -22 6 C-21 5 -20 5 -19 4 C-14 3 -9 2 -4 2 C-3 2 -2 2 -1 2 C-1 1 -0 1 0 0 Z " fill="#5B62DB" transform="translate(256,51)"/>
<path d="M0 0 C2 1 3 3 5 4 C6 6 8 7 9 8 C13 13 16 17 19 22 C20 24 20 25 21 26 C25 33 28 40 30 48 C30 48 30 48 32 50 C37 54 38 60 40 66 C40 67 41 68 41 69 C43 76 42 82 40 89 C40 90 39 91 39 93 C38 97 38 97 36 102 C36 105 36 108 36 111 C36 112 36 112 36 117 C36 118 36 119 36 120 C36 123 36 126 36 129 C37 152 37 152 43 164 C44 166 46 169 47 172 C48 173 48 174 49 176 C51 179 52 182 53 184 C54 185 56 186 57 186 C57 191 57 194 54 198 C52 200 52 200 50 200 C49 201 49 202 48 204 C47 204 47 204 46 204 C46 205 45 206 45 208 C43 208 42 209 40 210 C36 206 35 205 34 199 C34 198 34 196 33 195 C33 194 33 194 32 190 C32 189 32 189 32 185 C29 171 27 157 26 143 C26 141 26 139 25 136 C25 131 25 125 25 119 C25 118 25 117 25 116 C25 108 26 103 30 96 C31 92 32 87 33 82 C33 81 34 80 34 78 C34 68 31 59 26 50 C24 50 23 49 21 48 C17 43 16 40 14 34 C11 28 7 23 3 18 C3 17 2 16 2 14 C1 14 1 14 -2 12 C-3 12 -4 11 -5 10 C-23 -5 -45 -9 -68 -8 C-89 -5 -106 5 -120 21 C-134 41 -140 61 -143 85 C-146 115 -153 149 -176 170 C-179 172 -179 172 -181 175 C-183 178 -183 178 -187 178 C-187 179 -187 179 -188 182 C-190 182 -190 182 -191 178 C-191 172 -189 170 -185 166 C-164 144 -158 117 -154 88 C-152 71 -149 55 -143 40 C-142 38 -142 37 -141 35 C-141 34 -140 34 -140 32 C-139 32 -139 32 -138 32 C-137 31 -137 29 -136 26 C-124 5 -106 -7 -83 -14 C-82 -15 -81 -15 -80 -16 C-53 -22 -21 -17 0 0 Z " fill="#040409" transform="translate(238,79.5)"/>
<path d="M0 0 C4 -1 4 -1 8 -1 C9 -1 9 -1 13 -1 C15 -1 16 -1 18 -0 C20 -1 21 -1 23 -1 C25 -1 26 -1 28 -1 C29 -1 31 -1 32 -1 C34 -0 35 -0 36 0 C36 1 36 1 38 4 C42 4 42 4 47 4 C52 4 52 4 56 4 C56 5 56 5 58 8 C60 8 61 8 63 8 C65 8 66 8 68 8 C68 9 68 9 70 12 C72 12 73 12 75 12 C77 12 78 12 80 12 C80 13 80 13 82 16 C84 16 86 16 88 16 C88 17 88 17 90 20 C92 20 94 20 96 20 C96 21 96 21 98 24 C99 24 99 24 102 26 C102 27 102 27 102 28 C104 28 106 28 108 28 C108 29 108 29 110 32 C111 33 113 33 114 34 C114 35 114 35 114 36 C115 37 117 37 118 38 C118 39 118 39 118 40 C120 40 123 40 125 40 C125 41 125 42 125 43 C126 47 126 47 130 50 C130 51 130 51 130 52 C131 53 133 53 134 54 C134 55 134 55 134 56 C135 57 137 57 138 58 C138 59 138 59 138 60 C139 61 141 61 142 62 C142 63 142 63 142 64 C143 64 144 64 145 64 C145 65 145 66 145 67 C146 71 146 71 150 74 C150 75 150 75 150 76 C151 76 152 76 153 76 C153 77 153 77 153 79 C154 81 154 82 154 83 C155 83 156 84 157 84 C157 88 157 88 157 91 C156 91 155 90 154 90 C154 89 154 87 154 86 C153 86 153 86 152 86 C151 83 149 81 148 78 C147 77 146 77 145 76 C144 72 142 69 141 65 C140 65 140 65 139 65 C135 61 131 56 127 52 C126 51 125 50 124 49 C124 48 123 47 123 46 C121 42 119 41 115 39 C113 37 112 36 110 34 C106 31 106 31 101 29 C101 28 100 27 100 26 C99 26 99 26 98 26 C98 27 97 28 97 29 C94 29 94 29 91 29 C84 30 79 31 73 34 C71 34 70 35 68 35 C64 36 64 36 60 39 C60 39 60 39 63 40 C66 42 66 42 69 47 C64 46 59 44 54 42 C32 33 5 37 -17 46 C-22 48 -27 51 -32 54 C-32 52 -32 51 -32 49 C-30 48 -29 47 -27 46 C-25 46 -24 45 -22 44 C-22 43 -22 43 -23 39 C-26 37 -26 37 -30 36 C-31 36 -32 35 -33 35 C-39 33 -44 31 -49 29 C-51 29 -52 28 -53 28 C-53 27 -53 27 -54 24 C-55 24 -55 23 -56 23 C-56 23 -56 23 -57 26 C-58 26 -58 26 -61 27 C-65 29 -67 31 -71 34 C-73 35 -74 36 -76 38 C-79 40 -82 43 -85 46 C-90 51 -90 51 -93 52 C-93 53 -94 54 -94 55 C-95 55 -96 55 -97 55 C-97 54 -97 53 -97 52 C-96 52 -95 52 -94 52 C-93 51 -93 49 -92 48 C-91 48 -91 48 -90 48 C-89 47 -89 45 -88 44 C-87 44 -87 44 -86 44 C-85 43 -85 41 -84 40 C-83 40 -83 40 -82 40 C-81 39 -81 37 -80 36 C-79 36 -79 36 -78 36 C-77 35 -77 33 -76 32 C-74 32 -72 32 -70 32 C-69 31 -69 29 -68 28 C-67 28 -67 28 -66 28 C-65 27 -65 25 -64 24 C-62 24 -60 24 -58 24 C-57 23 -57 21 -56 20 C-54 20 -52 20 -50 20 C-49 19 -49 17 -48 16 C-46 16 -44 16 -42 16 C-41 15 -41 13 -40 12 C-38 12 -36 12 -34 12 C-33 11 -33 9 -32 8 C-28 8 -25 8 -21 8 C-21 8 -21 8 -18 8 C-17 7 -17 5 -16 4 C-12 4 -9 4 -5 4 C-4 4 -3 4 -2 4 C-1 3 -1 1 0 0 Z " fill="#757BE4" transform="translate(158,25)"/>
<path d="M0 0 C1 0 2 1 3 1 C3 2 3 4 3 5 C3 5 3 5 6 5 C11 6 14 8 19 10 C22 11 22 11 28 13 C32 14 32 14 35 17 C35 18 35 18 34 22 C33 23 31 23 30 24 C28 25 27 25 25 26 C24 28 24 31 23 33 C20 35 18 37 15 39 C8 46 3 55 -2 64 C-3 64 -3 64 -4 64 C-4 66 -5 67 -5 69 C-6 72 -7 74 -8 77 C-12 88 -14 99 -16 110 C-16 113 -16 116 -17 119 C-17 120 -17 120 -17 123 C-18 126 -18 126 -20 128 C-21 123 -22 118 -22 113 C-23 113 -23 113 -24 113 C-25 112 -25 111 -26 110 C-29 111 -33 111 -36 112 C-38 112 -39 113 -41 113 C-42 112 -43 111 -44 110 C-38 96 -38 96 -32 93 C-27 94 -23 95 -18 96 C-18 95 -18 94 -18 92 C-18 88 -17 85 -15 81 C-15 79 -14 77 -14 75 C-13 75 -13 75 -12 75 C-11 71 -11 71 -11 67 C-16 64 -20 63 -25 61 C-30 60 -35 58 -40 56 C-44 55 -48 54 -53 54 C-56 57 -58 61 -60 65 C-62 69 -62 69 -65 70 C-65 68 -65 67 -65 65 C-65 65 -65 65 -62 64 C-61 60 -61 60 -61 57 C-60 57 -59 57 -58 57 C-57 56 -57 54 -56 53 C-56 53 -56 53 -54 52 C-54 50 -53 47 -53 45 C-52 45 -51 45 -50 45 C-49 44 -49 42 -48 41 C-47 41 -47 41 -46 41 C-45 40 -45 38 -44 37 C-44 37 -44 37 -42 36 C-42 35 -41 33 -41 32 C-40 32 -39 31 -38 31 C-36 29 -34 26 -32 24 C-27 19 -21 14 -15 10 C-14 9 -12 8 -11 7 C-7 4 -5 3 -1 2 C-1 1 -0 1 0 0 Z " fill="#656CE2" transform="translate(102,48)"/>
<path d="M0 0 C1 0 1 0 2 0 C3 1 3 2 4 3 C6 4 9 5 11 6 C12 7 13 8 14 9 C14 10 14 10 14 11 C15 12 17 12 18 13 C22 15 22 15 25 18 C25 19 25 19 26 23 C26 23 26 23 29 24 C30 26 31 27 32 29 C35 31 37 34 40 36 C40 37 41 38 41 39 C42 39 42 39 43 39 C46 43 47 45 47 50 C48 51 50 51 51 52 C54 57 54 57 54 60 C55 60 55 60 56 60 C56 61 56 61 57 64 C58 64 59 64 60 64 C61 65 62 65 63 66 C64 70 64 74 64 78 C63 78 61 78 60 78 C60 76 59 74 59 72 C58 72 56 73 55 74 C43 76 33 74 22 72 C19 72 19 72 16 72 C15 73 15 75 14 76 C10 71 8 66 5 61 C-2 46 -12 32 -26 24 C-30 22 -31 19 -33 16 C-36 14 -36 14 -39 13 C-37 10 -34 9 -31 8 C-28 7 -25 7 -22 6 C-21 5 -20 5 -19 4 C-14 3 -9 2 -4 2 C-3 2 -2 2 -1 2 C-1 1 -0 1 0 0 Z " fill="#6067E2" transform="translate(256,51)"/>
<path d="M0 0 C5 2 7 4 10 9 C11 13 11 16 11 20 C11 21 11 21 11 25 C11 31 8 35 4 39 C2 39 0 39 -2 40 C-3 40 -5 41 -7 41 C-8 45 -8 45 -7 49 C-10 54 -10 54 -14 57 C-20 60 -21 63 -24 69 C-25 72 -25 72 -28 75 C-32 76 -34 76 -38 75 C-42 72 -44 70 -46 65 C-47 64 -48 63 -49 61 C-49 60 -50 58 -51 57 C-52 56 -52 55 -53 54 C-55 51 -57 48 -57 44 C-54 35 -48 27 -39 23 C-35 23 -32 23 -28 22 C-25 22 -25 22 -20 19 C-19 16 -19 16 -18 13 C-17 8 -15 5 -11 2 C-7 -0 -5 -0 0 0 Z " fill="#06060C" transform="translate(253,138)"/>
<path d="M0 0 C1 -0 2 -0 3 -0 C5 -0 6 0 7 0 C8 0 9 0 11 0 C19 0 27 1 35 2 C35 3 35 4 35 5 C36 5 36 5 39 5 C44 4 44 4 46 5 C46 6 46 7 46 8 C48 8 50 8 51 8 C53 8 55 8 57 8 C57 9 57 9 58 11 C57 11 56 12 55 12 C51 14 50 15 48 19 C47 25 48 27 49 32 C40 34 31 34 22 31 C22 31 22 31 21 28 C17 28 17 28 11 28 C9 28 8 28 6 28 C5 28 5 28 1 28 C0 30 -1 31 -2 32 C-6 34 -8 34 -13 33 C-14 32 -15 30 -16 28 C-17 27 -18 26 -20 24 C-23 20 -23 20 -24 16 C-23 12 -23 12 -21 9 C-22 9 -23 8 -24 7 C-20 5 -17 5 -12 4 C-12 4 -12 3 -12 2 C-8 1 -4 0 0 0 Z " fill="#5159D8" transform="translate(169,26.734375)"/>
<path d="M0 0 C8 5 10 13 12 22 C12 23 13 25 13 26 C13 26 14 27 14 27 C14 33 14 38 12 43 C12 45 11 46 11 47 C10 51 10 51 8 56 C8 59 8 63 8 66 C8 68 8 70 8 72 C8 73 8 74 8 75 C8 78 8 81 8 84 C9 107 9 107 15 118 C16 121 18 123 19 126 C20 128 20 129 21 130 C23 133 24 136 25 139 C26 140 28 140 29 141 C29 145 29 148 26 152 C24 154 24 154 22 154 C22 155 22 155 20 158 C19 158 19 159 18 159 C18 160 17 161 17 162 C15 163 14 164 12 165 C8 161 7 159 6 154 C6 152 6 151 5 149 C5 149 5 149 4 145 C4 143 4 141 4 140 C1 126 -1 112 -2 98 C-2 96 -2 93 -3 91 C-3 85 -3 80 -3 74 C-3 73 -3 71 -3 70 C-3 62 -2 58 2 51 C3 46 4 42 5 37 C5 36 6 34 6 33 C6 23 3 13 -2 5 C-3 4 -3 4 -4 3 C-3 3 -2 3 -1 3 C-1 2 -0 1 0 0 Z " fill="#06080D" transform="translate(266,125)"/>
<path d="M0 0 C1 0 1 0 2 0 C3 1 3 2 4 3 C6 4 9 5 11 6 C12 7 13 8 14 9 C14 10 14 10 14 11 C15 12 17 12 18 13 C25 17 25 17 26 22 C26 25 26 25 24 28 C20 31 17 32 12 33 C6 35 6 35 3 38 C3 38 2 39 2 40 C-2 41 -4 41 -8 39 C-10 37 -13 34 -15 32 C-20 28 -24 25 -29 22 C-30 21 -30 20 -31 19 C-33 16 -35 15 -39 13 C-37 10 -34 9 -31 8 C-28 7 -25 7 -22 6 C-21 5 -20 5 -19 4 C-14 3 -9 2 -4 2 C-3 2 -2 2 -1 2 C-1 1 -0 1 0 0 Z " fill="#5A61DA" transform="translate(256,51)"/>
<path d="M0 0 C1 0 2 1 3 1 C3 2 3 4 3 5 C3 5 3 5 6 5 C11 6 14 8 19 10 C22 11 22 11 28 13 C32 14 32 14 35 17 C35 18 35 18 34 22 C32 23 29 25 27 26 C21 28 17 32 12 37 C10 39 7 41 4 43 C-1 42 -4 40 -8 37 C-10 35 -13 33 -16 31 C-20 28 -23 26 -25 22 C-26 22 -26 22 -27 22 C-28 24 -28 26 -29 28 C-30 29 -30 29 -31 30 C-32 30 -33 29 -34 29 C-32 21 -22 15 -15 10 C-14 9 -12 8 -11 7 C-7 4 -5 3 -1 2 C-1 1 -0 1 0 0 Z " fill="#5960DA" transform="translate(102,48)"/>
<path d="M0 0 C6 4 10 10 12 17 C12 26 11 33 6 40 C1 44 -2 45 -8 46 C-13 45 -16 44 -20 41 C-26 33 -27 27 -26 17 C-24 10 -21 4 -14 0 C-9 -2 -5 -2 0 0 Z " fill="#05050B" transform="translate(177.125,137.0625)"/>
<path d="M0 0 C4 -0 4 -0 7 0 C7 1 8 2 8 3 C8 3 8 3 10 3 C18 5 22 9 26 14 C28 18 30 21 31 25 C31 26 30 26 30 27 C30 29 30 31 30 33 C30 33 30 33 32 34 C33 42 30 47 26 54 C25 54 25 54 24 54 C24 55 23 57 23 58 C13 65 13 65 6 64 C6 65 6 65 6 66 C0 65 0 65 -2 64 C-2 63 -2 62 -2 61 C-3 61 -4 61 -5 61 C-11 60 -14 57 -18 53 C-23 44 -24 36 -23 26 C-22 25 -22 25 -21 24 C-21 23 -20 21 -20 20 C-17 13 -14 9 -8 5 C-5 3 -5 3 -1 2 C-1 1 -0 1 0 0 Z M-8 20 C-13 27 -13 34 -12 42 C-10 50 -6 54 1 58 C7 59 11 58 16 56 C23 51 25 45 26 37 C26 30 25 26 22 20 C17 15 14 12 7 12 C1 12 -3 15 -8 20 Z " fill="#FDFDFD" transform="translate(163,124)"/>
<path d="M0 0 C1 0 1 0 2 0 C2 1 2 1 2 5 C3 7 3 9 3 11 C4 11 5 12 6 12 C6 15 6 15 6 19 C6 20 6 22 6 23 C6 25 6 27 6 28 C6 30 6 32 6 33 C6 37 6 40 6 44 C6 49 6 54 6 60 C6 63 6 66 6 70 C7 71 7 73 7 75 C7 76 7 78 7 79 C7 80 7 82 7 83 C6 84 6 85 6 86 C5 86 5 86 2 87 C2 87 2 87 3 84 C3 81 3 81 2 77 C2 78 2 80 2 81 C1 82 -0 84 -1 85 C-10 86 -19 83 -27 78 C-31 75 -31 75 -33 71 C-33 68 -33 68 -31 65 C-25 60 -19 57 -12 54 C-9 52 -9 52 -7 50 C-2 48 -2 48 1 48 C2 40 2 32 2 24 C2 20 2 20 3 17 C3 16 3 16 2 12 C1 12 1 12 0 12 C-1 7 -1 5 0 0 Z " fill="#6067E2" transform="translate(321,129)"/>
<path d="M0 0 C3 4 2 7 1 12 C-0 18 -1 20 -6 24 C-8 24 -9 25 -11 26 C-24 33 -28 42 -32 55 C-32 56 -33 57 -33 58 C-34 57 -35 56 -36 55 C-36 54 -36 54 -36 53 C-37 53 -37 53 -38 53 C-42 45 -46 34 -43 25 C-41 23 -41 23 -38 21 C-37 21 -36 20 -35 20 C-33 18 -30 17 -28 16 C-23 14 -21 11 -18 7 C-13 1 -8 -2 0 0 Z " fill="#5058D7" transform="translate(77,171)"/>
<path d="M0 0 C9 2 19 4 27 8 C28 9 28 10 29 11 C28 11 28 11 24 10 C24 10 24 10 24 13 C25 22 25 22 21 26 C17 29 13 29 8 29 C7 29 6 28 5 28 C1 27 -1 27 -5 27 C-11 26 -13 25 -17 21 C-24 22 -29 26 -33 32 C-33 25 -33 25 -29 21 C-29 21 -29 21 -26 19 C-26 18 -25 17 -24 16 C-17 9 -17 9 -16 4 C-15 4 -15 3 -14 2 C-10 2 -10 2 -6 2 C-5 2 -4 1 -3 1 C-2 1 -1 2 0 2 C0 1 0 1 0 0 Z " fill="#868CA0" transform="translate(89,229)"/>
<path d="M0 0 C1 0 1 0 2 0 C5 6 5 11 5 17 C6 17 6 17 7 17 C8 19 8 20 9 22 C13 21 13 21 18 18 C23 19 23 19 25 20 C27 20 29 20 31 21 C33 21 35 21 37 21 C37 22 37 22 37 23 C38 23 40 22 41 22 C41 22 41 22 42 19 C43 19 43 19 44 19 C44 20 44 22 44 23 C43 23 42 24 41 24 C41 25 41 26 40 28 C40 29 40 30 40 31 C39 31 38 32 37 32 C37 33 37 34 36 36 C36 37 36 38 36 39 C35 39 34 40 33 40 C32 44 32 44 32 47 C31 47 30 47 29 47 C28 48 28 50 27 51 C26 51 26 51 25 51 C24 52 24 54 23 55 C23 55 23 55 21 56 C21 58 20 61 20 63 C18 63 17 63 15 63 C16 62 16 60 17 59 C19 54 19 54 19 50 C18 49 16 49 15 48 C13 45 13 45 12 40 C10 36 8 31 5 26 C1 21 -0 16 -1 9 C-1 8 -1 7 -1 6 C-1 3 -1 3 0 0 Z " fill="#7379E4" transform="translate(275,216)"/>
<path d="M0 0 C0 1 1 1 1 2 C-0 2 -2 2 -3 2 C-3 3 -4 3 -4 4 C-5 3 -6 1 -7 0 C-11 1 -11 1 -15 2 C-15 1 -15 1 -16 -2 C-21 -4 -26 -4 -31 -4 C-37 -3 -42 -3 -48 -4 C-52 -4 -54 -3 -58 -1 C-62 1 -64 1 -68 1 C-71 1 -71 1 -74 2 C-74 3 -75 5 -75 6 C-77 7 -79 8 -81 9 C-89 14 -95 20 -102 27 C-103 27 -103 27 -104 27 C-104 28 -104 29 -104 30 C-105 35 -107 38 -109 43 C-113 49 -115 55 -115 63 C-115 64 -115 65 -115 66 C-116 66 -116 66 -119 68 C-119 71 -119 71 -118 74 C-118 77 -118 80 -118 83 C-118 84 -118 86 -118 87 C-118 89 -118 90 -118 91 C-118 91 -118 91 -121 93 C-123 98 -123 103 -123 108 C-123 114 -124 117 -127 122 C-128 125 -129 129 -129 132 C-130 135 -130 135 -133 137 C-134 137 -135 137 -136 137 C-136 135 -135 134 -135 132 C-134 130 -134 128 -133 126 C-133 125 -132 124 -132 122 C-132 121 -131 120 -131 118 C-131 117 -130 116 -130 115 C-128 105 -126 96 -125 87 C-123 65 -119 46 -106 28 C-105 26 -104 25 -103 23 C-81 -9 -34 -17 0 0 Z " fill="#D9DCEA" transform="translate(219,79)"/>
<path d="M0 0 C1 0 2 0 4 0 C4 2 5 3 6 4 C7 4 9 4 11 3 C14 3 17 3 20 3 C22 3 23 3 25 3 C29 3 32 4 36 6 C36 6 36 6 39 7 C44 8 48 11 52 13 C54 19 53 25 51 31 C50 34 50 34 45 37 C43 37 42 36 41 35 C40 35 39 35 38 34 C38 34 38 33 38 32 C37 32 36 32 35 31 C33 29 33 29 31 27 C22 15 13 11 -1 8 C-1 6 -1 6 -0 5 C-2 4 -3 3 -4 1 C-3 0 -3 0 0 0 Z " fill="#C0C5D0" transform="translate(91.4375,216.6875)"/>
<path d="M0 0 C-0 1 -1 2 -2 4 C-3 8 -3 8 -3 12 C-3 20 -7 27 -11 34 C-11 36 -11 38 -11 40 C-13 40 -14 40 -16 40 C-18 42 -19 43 -21 45 C-26 47 -26 47 -31 47 C-31 43 -30 40 -30 36 C-32 36 -33 35 -35 35 C-35 33 -35 32 -35 30 C-34 31 -32 33 -31 34 C-31 33 -31 32 -30 30 C-27 17 -22 9 -10 2 C-9 2 -9 2 -7 0 C-4 -1 -4 -1 0 0 Z " fill="#5B62DB" transform="translate(75,194)"/>
<path d="M0 0 C4 -0 6 -0 10 1 C14 2 17 2 22 3 C23 3 24 3 26 3 C29 3 33 3 36 2 C38 2 41 1 43 1 C43 2 43 2 44 7 C46 7 47 7 49 7 C49 11 49 15 49 19 C50 19 50 19 51 19 C52 22 52 22 53 25 C53 26 52 26 52 27 C52 29 52 31 51 33 C51 35 51 37 51 39 C50 39 50 39 49 39 C49 33 48 28 48 22 C46 22 45 23 43 23 C38 24 36 24 31 21 C27 19 24 18 19 18 C14 17 11 17 7 14 C7 13 7 12 7 11 C6 10 6 9 6 8 C3 7 -1 7 -4 6 C-4 5 -4 5 -5 1 C-4 2 -3 3 -2 4 C-1 3 -1 1 0 0 Z " fill="#5058D6" transform="translate(272,122)"/>
<path d="M0 0 C1 5 0 9 -1 14 C-0 14 1 14 2 14 C2 15 2 16 2 18 C2 19 2 21 2 22 C3 24 3 26 3 27 C3 30 3 33 4 36 C4 40 4 40 4 45 C5 45 5 45 6 45 C6 47 6 48 6 50 C7 56 8 62 10 68 C10 70 11 71 11 73 C12 74 12 76 13 77 C14 77 16 78 17 78 C18 86 18 86 16 89 C22 88 26 87 30 82 C31 82 31 82 34 81 C34 85 32 87 29 90 C28 92 27 93 27 94 C24 97 24 97 20 101 C20 103 20 105 20 107 C19 107 18 107 17 107 C17 106 17 105 17 104 C16 102 16 101 16 100 C16 100 16 100 13 99 C13 97 12 94 12 92 C11 92 10 91 9 91 C9 89 8 86 8 84 C7 84 6 83 5 83 C5 79 4 76 4 72 C3 72 2 71 1 71 C1 67 0 63 0 59 C0 58 0 57 0 56 C-1 56 -2 55 -3 55 C-3 51 -3 47 -3 43 C-3 42 -3 41 -3 40 C-3 37 -3 34 -3 32 C-3 28 -3 24 -3 20 C-3 18 -3 15 -3 13 C-3 12 -3 11 -3 9 C-3 7 -3 4 -3 1 C-2 1 -1 0 0 0 Z " fill="#6A6FDD" transform="translate(28,152)"/>
<path d="M0 0 C3 2 3 2 6 5 C7 6 9 6 10 7 C16 17 19 27 17 39 C17 40 16 42 16 43 C14 55 14 55 11 59 C10 59 10 59 8 60 C6 59 5 59 3 58 C3 56 2 55 2 53 C4 50 4 50 7 47 C10 39 9 30 6 22 C4 19 2 17 -2 16 C-8 15 -11 17 -16 20 C-17 20 -17 20 -18 20 C-18 15 -16 12 -12 8 C-11 8 -9 7 -8 7 C-8 6 -7 4 -7 3 C-4 1 -4 1 0 0 Z " fill="#FDFDFB" transform="translate(255,123)"/>
<path d="M0 0 C0 1 1 1 1 2 C3 2 4 2 6 2 C7 5 7 5 8 9 C9 11 10 12 11 14 C11 17 11 17 9 20 C6 22 2 24 -1 26 C-2 27 -3 28 -4 28 C-6 30 -6 30 -9 31 C-15 30 -18 27 -22 23 C-24 20 -24 20 -24 17 C-24 16 -25 14 -25 13 C-24 13 -23 12 -22 12 C-19 11 -19 11 -17 10 C-17 9 -17 9 -17 8 C-16 8 -15 8 -14 8 C-9 7 -6 5 -2 2 C-1 2 -1 2 0 2 C0 1 0 1 0 0 Z " fill="#C0C5D0" transform="translate(186,180)"/>
<path d="M0 0 C1 1 2 2 3 3 C3 4 3 4 3 5 C4 6 6 6 7 7 C11 9 11 9 14 12 C14 13 14 13 15 17 C14 16 13 16 11 15 C7 14 7 14 3 15 C2 16 1 17 0 18 C-3 19 -5 21 -8 22 C-9 23 -9 23 -12 24 C-16 26 -18 26 -22 25 C-25 23 -25 23 -28 21 C-33 17 -33 17 -35 16 C-33 12 -33 12 -31 10 C-28 9 -24 9 -21 9 C-14 7 -11 5 -7 0 C-5 -1 -5 -1 0 0 Z " fill="#5058D7" transform="translate(267,57)"/>
<path d="M0 0 C1 0 2 0 3 0 C3 1 3 1 4 4 C4 4 4 4 7 4 C8 5 9 5 10 6 C11 10 11 14 11 18 C10 18 8 18 7 18 C7 17 7 17 6 12 C5 12 5 12 2 14 C-10 16 -20 14 -31 12 C-34 12 -34 12 -37 12 C-38 13 -38 15 -39 16 C-44 10 -44 10 -44 5 C-40 1 -38 1 -33 1 C-30 1 -26 2 -23 3 C-15 4 -8 3 0 2 C0 1 0 1 0 0 Z " fill="#5D64DB" transform="translate(309,111)"/>
<path d="M0 0 C1 1 2 2 3 3 C2 4 1 4 0 5 C-1 7 -1 8 -2 10 C-3 11 -4 13 -5 14 C-6 17 -6 21 -7 24 C-8 28 -8 28 -10 32 C-14 33 -14 33 -18 34 C-18 35 -18 35 -18 36 C-20 36 -22 36 -24 36 C-25 35 -25 35 -26 34 C-27 33 -28 33 -29 32 C-29 29 -29 29 -29 26 C-29 25 -29 25 -29 22 C-29 19 -29 19 -26 14 C-20 9 -14 7 -6 5 C-2 2 -2 2 0 0 Z " fill="#C1C6D1" transform="translate(244,123)"/>
<path d="M0 0 C1 0 1 0 6 0 C14 1 14 1 17 3 C18 6 18 6 17 10 C17 15 17 16 20 22 C20 22 20 23 20 24 C21 24 22 24 22 24 C22 30 22 30 20 34 C19 32 18 31 16 30 C13 27 10 25 7 23 C2 19 -1 15 -5 11 C-6 10 -7 9 -8 8 C-11 6 -11 6 -13 1 C-9 -1 -4 -0 0 0 Z " fill="#C1C6D1" transform="translate(246.75,246.3125)"/>
<path d="M0 0 C0 0 0 0 1 3 C0 3 -1 3 -2 4 C-6 5 -7 7 -9 11 C-10 16 -9 19 -8 24 C-17 26 -26 26 -35 23 C-35 22 -36 21 -36 20 C-34 18 -32 15 -30 13 C-27 9 -26 6 -24 2 C-24 2 -23 1 -23 1 C-20 1 -18 1 -15 1 C-10 -0 -5 -0 0 0 Z " fill="#5A61DA" transform="translate(226,35)"/>
<path d="M0 0 C0 1 1 3 1 4 C3 5 4 5 6 6 C6 10 6 13 6 17 C6 18 6 18 6 20 C5 28 5 28 4 30 C4 32 4 34 4 36 C3 37 3 39 3 41 C3 41 3 41 1 42 C-0 38 -2 34 -3 30 C-4 30 -5 29 -6 29 C-12 23 -12 23 -12 20 C-13 20 -14 19 -15 19 C-15 14 -15 14 -13 10 C-13 9 -13 7 -13 6 C-13 5 -13 3 -13 2 C-9 1 -5 0 0 0 Z " fill="#C6CAD5" transform="translate(258,177)"/>
<path d="M0 0 C3 0 5 1 8 1 C8 2 8 2 8 3 C6 3 5 4 3 4 C3 5 2 7 2 8 C2 8 1 9 1 9 C1 15 2 16 6 20 C6 22 5 23 5 25 C0 28 0 28 -4 29 C-5 29 -7 28 -8 28 C-9 26 -10 25 -11 23 C-12 22 -13 20 -15 19 C-18 15 -18 15 -19 11 C-18 7 -18 7 -16 4 C-17 3 -18 3 -19 2 C-13 -2 -7 -2 0 0 Z " fill="#5A61DB" transform="translate(164,32)"/>
<path d="M0 0 C3 4 3 4 3 6 C5 6 6 7 8 7 C10 8 12 8 14 9 C15 10 16 10 17 11 C20 12 20 12 23 16 C23 20 22 21 20 24 C17 26 17 26 12 26 C6 26 4 28 -1 31 C-2 31 -2 31 -3 31 C-5 27 -4 22 -4 18 C-4 14 -4 14 -5 9 C-4 8 -4 6 -3 5 C-2 5 -1 5 0 5 C0 4 0 4 0 3 C-1 3 -1 2 -2 2 C-1 2 -1 2 0 2 C0 1 0 1 0 0 Z " fill="#C1C6D1" transform="translate(104,138)"/>
<path d="M0 0 C1 0 1 0 2 0 C7 15 5 31 1 46 C-2 49 -2 49 -6 49 C-6 49 -6 49 -9 49 C-9 44 -9 41 -8 37 C-5 28 -5 20 -5 11 C-5 9 -5 7 -5 5 C-5 4 -5 2 -5 1 C-4 1 -4 1 -3 1 C-3 2 -3 2 -3 3 C-2 3 -2 3 -1 3 C-1 2 -0 1 0 0 Z " fill="#040409" transform="translate(139,271)"/>
<path d="M0 0 C1 0 3 0 4 0 C3 5 3 5 0 10 C0 14 0 14 1 17 C1 18 1 18 1 19 C0 19 0 19 -3 21 C-3 24 -3 24 -2 27 C-2 30 -2 33 -2 36 C-2 37 -2 39 -2 40 C-2 42 -2 43 -2 44 C-3 45 -4 45 -5 46 C-7 51 -7 56 -7 61 C-7 67 -8 70 -11 75 C-12 78 -13 82 -13 85 C-14 88 -14 88 -17 90 C-18 90 -19 90 -20 90 C-20 88 -19 87 -19 85 C-18 83 -18 81 -17 79 C-17 78 -16 77 -16 75 C-16 74 -15 73 -15 71 C-15 70 -14 69 -14 68 C-12 58 -10 49 -9 40 C-5 8 -5 8 0 0 Z " fill="#D5D9E9" transform="translate(103,126)"/>
<path d="M0 0 C4 4 4 7 5 12 C5 13 4 13 4 14 C3 14 3 14 2 14 C2 13 2 13 2 12 C1 12 1 12 0 12 C0 13 0 13 0 17 C2 32 -0 47 -4 61 C-5 61 -5 61 -6 61 C-6 60 -6 60 -6 59 C-7 59 -7 59 -11 59 C-13 59 -14 59 -16 59 C-16 58 -17 58 -17 57 C-13 55 -9 54 -5 53 C-4 50 -4 50 -4 46 C-4 45 -3 43 -3 42 C-3 36 -4 33 -8 29 C-13 27 -13 27 -16 27 C-16 26 -17 25 -17 24 C-17 24 -16 23 -16 23 C-14 23 -13 23 -11 23 C-9 18 -9 18 -8 15 C-7 10 -4 7 -1 3 C-1 2 -0 1 0 0 Z " fill="#878CA0" transform="translate(134,260)"/>
<path d="M0 0 C5 3 7 6 10 11 C10 13 10 14 10 16 C6 19 3 18 -2 18 C-13 15 -13 15 -16 11 C-16 10 -16 8 -16 7 C-7 0 -7 0 0 0 Z " fill="#7A7C87" transform="translate(225,168)"/>
<path d="M0 0 C6 -1 11 0 16 3 C17 4 17 6 18 7 C15 12 14 13 10 16 C7 17 5 19 2 21 C-2 21 -2 21 -5 20 C-7 14 -4 10 -1 4 C-1 3 -0 1 0 0 Z " fill="#5159D8" transform="translate(284,163)"/>
<path d="M0 0 C2 2 2 2 4 5 C7 6 9 8 12 9 C15 11 17 12 20 14 C20 15 20 17 20 18 C15 19 10 19 4 19 C4 19 4 19 -0 19 C-4 19 -4 19 -7 16 C-7 13 -6 9 -6 6 C-7 5 -7 4 -8 3 C-4 1 -4 1 0 0 Z " fill="#C1C6D1" transform="translate(212,78)"/>
<path d="M0 0 C1 0 2 0 3 0 C6 3 6 3 6 6 C6 13 3 17 0 23 C-1 23 -1 23 -2 23 C-2 24 -3 26 -3 27 C-13 34 -13 34 -20 33 C-20 34 -20 34 -20 35 C-26 34 -26 34 -28 33 C-29 30 -29 30 -29 27 C-25 26 -25 26 -20 26 C-14 26 -11 26 -7 22 C-2 15 -1 10 -1 2 C-1 1 -0 1 0 0 Z " fill="#EAEBF1" transform="translate(189,155)"/>
<path d="M0 0 C1 0 1 0 2 0 C2 2 2 4 2 5 C3 7 3 9 3 11 C4 11 5 12 6 12 C6 15 6 15 6 19 C6 20 6 22 6 23 C6 25 6 27 6 28 C6 30 6 32 6 33 C6 37 6 40 6 44 C6 49 6 54 6 60 C6 63 6 66 6 70 C7 71 7 71 7 75 C7 76 7 78 7 79 C7 80 7 82 7 83 C6 84 6 85 6 86 C5 86 5 86 2 87 C2 86 2 85 3 84 C3 81 3 81 2 77 C2 71 2 66 3 60 C3 57 3 57 2 54 C1 50 1 46 2 42 C2 36 2 30 2 24 C2 20 2 20 3 17 C3 16 3 16 2 12 C1 12 1 12 0 12 C-1 7 -1 5 0 0 Z " fill="#969BE7" transform="translate(321,129)"/>
<path d="M0 0 C1 0 1 1 2 1 C2 4 1 7 1 10 C0 10 -0 10 -1 10 C-1 11 -2 13 -2 14 C-3 14 -4 15 -5 15 C-5 16 -6 17 -6 18 C-13 18 -21 17 -26 12 C-25 8 -25 8 -21 6 C-17 4 -15 3 -10 4 C-8 5 -6 7 -4 8 C-3 8 -2 7 -1 7 C-0 3 -0 3 0 0 Z " fill="#6A72E1" transform="translate(295,87)"/>
<path d="M0 0 C1 0 1 0 5 1 C5 2 6 3 6 4 C7 5 9 5 10 6 C10 7 10 7 10 8 C12 8 14 8 16 8 C17 9 17 11 18 12 C19 13 21 13 22 14 C22 15 22 15 22 16 C23 17 25 17 26 18 C26 19 26 19 26 20 C28 20 31 20 33 20 C33 21 33 22 33 23 C34 27 34 27 38 30 C38 31 38 31 38 32 C39 33 41 33 42 34 C42 35 42 35 42 36 C43 37 45 37 46 38 C46 39 46 39 46 40 C47 41 49 41 50 42 C50 43 50 43 50 44 C51 44 52 44 53 44 C53 45 53 46 53 47 C54 51 54 51 58 54 C58 55 58 55 58 56 C59 56 60 56 61 56 C61 57 61 57 61 59 C62 61 62 62 62 63 C63 63 64 64 65 64 C65 68 65 68 65 71 C65 71 65 71 62 70 C62 69 62 67 62 66 C61 66 61 66 60 66 C59 63 57 61 56 58 C55 57 54 57 53 56 C52 52 50 49 49 45 C48 45 48 45 47 45 C43 41 39 36 35 32 C34 31 33 30 32 29 C32 28 31 27 31 26 C29 22 27 21 23 19 C21 17 20 16 18 14 C14 11 14 11 9 9 C9 8 8 7 8 6 C7 6 5 6 4 6 C2 3 2 3 0 0 Z " fill="#B7BBEC" transform="translate(250,45)"/>
<path d="M0 0 C1 -0 1 -0 4 -0 C4 -0 4 -0 7 -0 C8 -0 8 -0 11 -0 C14 0 14 0 19 2 C17 6 17 6 14 8 C11 8 7 8 4 8 C3 8 1 8 -1 8 C-2 8 -3 8 -4 8 C-4 8 -4 7 -4 6 C-6 6 -7 6 -8 6 C-13 6 -15 5 -19 3 C-13 -1 -7 0 0 0 Z " fill="#4950D4" transform="translate(176.375,26.8125)"/>
<path d="M0 0 C0 0 0 0 2 3 C2 5 2 6 2 8 C1 8 1 8 -2 10 C-3 11 -3 13 -4 14 C-6 14 -10 14 -12 14 C-16 16 -16 16 -20 18 C-20 18 -21 18 -22 18 C-21 13 -19 10 -16 6 C-14 6 -13 5 -12 5 C-11 4 -11 2 -10 1 C-6 -2 -5 -3 0 0 Z " fill="#F1F2F6" transform="translate(258.5,125)"/>
<path d="M0 0 C5 2 5 2 7 5 C5 7 3 8 1 10 C-0 11 -1 12 -2 13 C-6 15 -6 15 -9 15 C-13 14 -14 12 -16 8 C-13 -0 -8 -1 0 0 Z " fill="#5159D8" transform="translate(121,68)"/>
<path d="M0 0 C-2 16 -7 32 -16 46 C-16 46 -16 46 -18 47 C-19 41 -17 39 -14 34 C-12 29 -11 26 -11 21 C-11 16 -10 13 -8 9 C-8 8 -8 8 -7 5 C-6 1 -4 0 0 0 Z " fill="#6066E2" transform="translate(82,185)"/>
<path d="M0 0 C8 5 10 13 12 22 C12 23 13 25 13 26 C13 26 14 27 14 27 C14 30 14 32 14 35 C11 35 11 35 7 35 C6 32 6 32 5 28 C4 19 3 10 -4 3 C-3 3 -2 3 -1 3 C-1 2 -0 1 0 0 Z " fill="#0D1031" transform="translate(266,125)"/>
<path d="M0 0 C1 0 2 1 3 1 C3 8 1 14 -2 20 C-6 22 -6 22 -10 22 C-10 23 -10 23 -10 24 C-12 24 -14 24 -16 24 C-17 23 -19 21 -20 20 C-19 19 -18 19 -17 18 C-12 15 -9 12 -6 7 C-5 4 -3 2 0 0 Z " fill="#BEC2CE" transform="translate(236,135)"/>
<path d="M0 0 C1 5 0 9 -1 14 C-0 14 1 14 2 14 C2 17 2 20 3 24 C3 25 3 27 3 29 C3 33 3 36 2 40 C1 40 1 40 0 40 C-0 45 -0 51 1 56 C-0 56 -2 55 -3 55 C-3 51 -4 47 -3 43 C-3 42 -3 41 -4 40 C-3 37 -3 34 -3 32 C-3 28 -3 24 -3 20 C-3 18 -3 15 -3 13 C-3 12 -3 11 -3 9 C-3 7 -3 4 -3 1 C-2 1 -1 0 0 0 Z " fill="#C8CAF1" transform="translate(28,152)"/>
<path d="M0 0 C9 1 17 1 26 1 C27 1 27 1 30 1 C37 1 43 1 50 0 C52 0 53 0 55 0 C55 1 55 2 55 3 C53 6 44 4 40 4 C39 4 39 4 36 4 C33 4 30 4 27 4 C22 4 18 4 13 4 C10 4 7 4 4 4 C3 5 2 5 0 5 C-1 5 -1 5 -4 5 C-4 5 -4 5 -7 5 C-8 4 -9 4 -10 4 C-11 3 -11 1 -12 0 C-7 -1 -5 -1 0 0 Z " fill="#E4E6EF" transform="translate(155.875,322.9375)"/>
</svg>
