<?xml version="1.0" encoding="UTF-8"?>
<!-- Generator: visioncortex VTracer 0.6.12 -->
<svg version="1.1" xmlns="http://www.w3.org/2000/svg" width="252" height="248">
<path d="M0 0 C4 -0 8 -1 12 -0 C13 -1 14 -1 15 -1 C19 -1 19 -1 24 0 C24 1 24 1 26 4 C29 4 29 4 33 4 C37 4 37 4 40 4 C40 5 40 5 42 8 C44 8 45 8 47 8 C49 8 50 8 52 8 C52 9 52 9 54 12 C56 12 58 12 60 12 C60 13 60 13 62 16 C63 16 63 16 66 18 C66 19 66 19 66 20 C68 20 70 20 72 20 C72 21 72 21 74 24 C75 24 75 24 78 26 C78 27 78 27 78 28 C79 28 79 28 82 30 C82 31 82 31 82 32 C83 33 85 33 86 34 C86 35 86 35 86 36 C87 37 89 37 90 38 C90 39 90 39 90 40 C91 41 93 41 94 42 C94 43 94 43 94 44 C95 44 96 44 97 44 C97 45 97 46 97 47 C98 49 98 50 98 51 C99 51 100 52 101 52 C101 54 102 57 102 59 C103 59 104 60 105 60 C105 64 106 67 106 71 C107 71 108 72 109 72 C109 77 110 82 110 87 C110 88 110 90 110 91 C111 91 112 92 113 92 C113 95 113 95 113 99 C113 100 113 102 113 103 C113 104 113 105 113 106 C112 106 111 107 110 107 C110 111 110 115 110 118 C109 122 109 126 109 130 C108 130 107 131 106 131 C106 133 106 135 106 136 C105 138 105 140 105 142 C104 142 103 143 102 143 C101 147 101 147 101 150 C100 150 99 150 98 150 C97 151 97 153 96 154 C95 154 95 155 94 155 C94 157 93 160 93 162 C92 162 91 162 90 162 C89 163 89 165 88 166 C87 166 87 166 86 166 C85 167 85 169 84 170 C83 170 83 170 82 170 C81 171 81 173 80 174 C79 174 79 174 78 174 C77 175 77 177 76 178 C74 178 72 178 70 178 C69 179 69 181 68 182 C67 182 67 182 66 182 C65 183 65 185 64 186 C62 186 60 186 58 186 C57 187 57 189 56 190 C54 190 52 190 50 190 C49 191 49 193 48 194 C45 194 41 194 38 194 C37 195 37 197 36 198 C32 198 29 199 25 199 C24 199 23 199 22 199 C20 199 18 199 15 199 C12 199 9 199 5 199 C3 199 1 199 -1 199 C-2 199 -3 199 -5 199 C-7 199 -7 199 -12 198 C-13 197 -13 195 -14 194 C-16 194 -17 194 -19 194 C-21 194 -22 194 -24 194 C-24 193 -24 193 -26 190 C-28 190 -29 190 -31 190 C-33 190 -34 190 -36 190 C-36 189 -36 189 -38 186 C-39 185 -41 185 -42 184 C-42 183 -42 183 -42 182 C-44 182 -46 182 -48 182 C-48 181 -48 181 -50 178 C-51 177 -53 177 -54 176 C-54 175 -54 175 -54 174 C-55 173 -57 173 -58 172 C-58 171 -58 171 -58 170 C-59 169 -61 169 -62 168 C-62 167 -62 167 -62 166 C-63 166 -64 166 -65 166 C-65 165 -65 164 -65 163 C-66 159 -66 159 -70 156 C-70 155 -70 155 -70 154 C-71 154 -72 154 -73 154 C-73 153 -73 152 -73 151 C-74 149 -74 148 -74 147 C-75 147 -76 146 -77 146 C-77 144 -78 141 -78 139 C-79 139 -80 138 -81 138 C-81 134 -82 131 -82 127 C-83 127 -84 126 -85 126 C-85 121 -86 116 -86 111 C-86 111 -86 111 -86 107 C-87 107 -88 106 -89 106 C-89 103 -89 103 -89 99 C-89 98 -89 96 -89 95 C-89 94 -89 93 -89 92 C-89 92 -89 92 -86 91 C-86 87 -86 87 -86 82 C-85 76 -85 76 -85 72 C-85 72 -85 72 -82 71 C-82 69 -82 67 -82 66 C-81 64 -81 62 -81 60 C-81 60 -81 60 -78 59 C-77 55 -77 55 -77 52 C-76 52 -75 52 -74 52 C-73 51 -73 49 -72 48 C-72 48 -72 48 -70 47 C-70 45 -69 42 -69 40 C-68 40 -67 40 -66 40 C-65 39 -65 37 -64 36 C-63 36 -63 36 -62 36 C-61 35 -61 33 -60 32 C-59 32 -59 32 -58 32 C-57 31 -57 29 -56 28 C-55 28 -55 28 -54 28 C-53 27 -53 25 -52 24 C-51 24 -51 24 -50 24 C-49 23 -49 21 -48 20 C-46 20 -44 20 -42 20 C-41 19 -41 17 -40 16 C-39 16 -39 16 -38 16 C-37 15 -37 13 -36 12 C-34 12 -32 12 -30 12 C-29 11 -29 9 -28 8 C-25 8 -21 8 -18 8 C-17 7 -17 5 -16 4 C-12 4 -9 4 -5 4 C-4 4 -3 4 -2 4 C-1 3 -1 1 0 0 Z " fill="#7377E1" transform="translate(114,25)"/>
<path d="M0 0 C8 7 13 16 16 26 C14 29 14 29 12 31 C11 33 11 34 11 35 C7 37 4 38 1 39 C0 42 0 44 -0 46 C-1 47 -2 48 -2 49 C-5 50 -5 50 -8 50 C-14 51 -18 52 -22 56 C-23 58 -24 59 -25 61 C-25 61 -25 61 -27 64 C-31 64 -31 64 -34 62 C-33 57 -33 57 -32 54 C-32 44 -32 44 -34 40 C-40 36 -40 36 -44 36 C-48 37 -50 39 -52 41 C-55 47 -55 52 -53 59 C-51 61 -51 61 -46 64 C-46 66 -46 68 -46 70 C-46 71 -46 72 -45 72 C-42 71 -39 70 -35 68 C-32 69 -32 69 -28 70 C-26 74 -25 76 -26 80 C-26 81 -26 82 -26 83 C-27 87 -27 87 -27 90 C-25 93 -25 93 -22 95 C-17 95 -16 95 -12 91 C-7 89 -3 89 2 90 C4 90 5 90 7 90 C11 90 11 90 14 91 C15 94 15 94 15 97 C15 98 15 98 16 101 C16 101 16 102 16 103 C15 103 15 103 14 104 C14 107 14 110 14 113 C15 113 16 113 17 113 C17 113 17 113 20 114 C22 119 23 124 23 129 C23 130 24 131 24 132 C25 133 27 134 29 134 C28 136 28 137 28 138 C26 138 24 138 22 138 C21 140 20 141 20 142 C19 142 18 142 18 142 C17 144 16 145 16 146 C14 146 12 146 10 146 C9 148 8 149 8 150 C6 150 4 150 2 150 C1 152 0 153 -0 154 C-4 154 -7 154 -10 154 C-11 156 -12 157 -12 158 C-16 159 -19 159 -23 159 C-24 159 -25 159 -26 159 C-28 159 -31 159 -33 159 C-36 159 -40 159 -43 159 C-45 159 -47 159 -50 159 C-51 159 -52 159 -53 159 C-56 159 -56 159 -60 158 C-61 158 -61 158 -62 154 C-64 154 -66 154 -67 154 C-69 154 -71 154 -72 154 C-73 154 -73 154 -74 150 C-76 150 -78 150 -79 150 C-81 150 -83 150 -84 150 C-85 150 -85 150 -86 146 C-88 146 -89 145 -90 144 C-90 144 -90 143 -90 142 C-92 142 -94 142 -96 142 C-97 141 -98 140 -98 138 C-100 138 -101 137 -102 136 C-102 136 -102 135 -102 134 C-104 134 -105 133 -106 132 C-106 132 -106 131 -106 130 C-108 130 -109 129 -110 128 C-110 128 -110 127 -110 126 C-111 126 -112 126 -113 126 C-113 125 -113 124 -114 123 C-114 119 -114 119 -118 116 C-118 116 -118 115 -118 114 C-119 114 -120 114 -121 114 C-121 113 -121 112 -121 110 C-120 110 -120 110 -116 108 C-114 106 -114 106 -112 102 C-109 99 -107 96 -104 93 C-99 82 -95 71 -95 59 C-94 39 -88 17 -73 3 C-51 -14 -23 -15 0 0 Z " fill="#CACCD7" transform="translate(162.25,64.75)"/>
<path d="M0 0 C1 1 3 3 4 4 C6 5 7 6 9 7 C15 14 20 21 23 30 C25 34 26 37 29 41 C30 45 30 49 30 53 C30 54 30 56 30 57 C30 61 30 61 28 66 C27 68 27 71 26 73 C26 74 25 74 25 75 C24 90 25 104 32 117 C33 120 34 123 35 126 C35 126 36 127 36 127 C36 130 36 130 36 134 C35 134 34 135 33 135 C33 137 32 138 32 140 C31 140 30 141 29 141 C29 142 28 142 28 143 C28 142 28 142 28 141 C26 141 25 140 23 140 C20 137 21 129 20 125 C20 124 19 122 19 121 C16 120 16 120 13 120 C12 116 12 116 12 111 C13 111 14 110 15 110 C14 108 14 107 13 105 C13 104 13 103 13 102 C13 101 13 101 12 99 C9 98 9 98 5 98 C3 98 1 97 -1 97 C-7 97 -11 98 -16 101 C-17 102 -17 102 -18 103 C-23 103 -23 103 -26 100 C-29 97 -29 97 -29 94 C-29 93 -29 93 -28 90 C-27 87 -27 87 -27 84 C-28 83 -28 82 -29 81 C-29 80 -29 78 -29 77 C-36 76 -38 76 -44 80 C-44 80 -44 80 -47 79 C-48 74 -48 74 -47 71 C-49 70 -50 70 -52 69 C-56 63 -56 60 -56 53 C-54 48 -52 46 -48 43 C-44 42 -42 42 -38 44 C-35 46 -35 46 -32 50 C-32 56 -32 60 -34 66 C-34 67 -34 68 -34 69 C-31 70 -31 70 -28 70 C-26 67 -24 64 -22 61 C-17 56 -11 56 -4 55 C-2 53 -2 53 -1 50 C0 45 2 44 6 42 C7 42 9 42 10 42 C10 40 11 39 11 37 C12 35 13 34 14 32 C11 22 6 12 -3 6 C-17 -2 -31 -5 -48 -2 C-65 4 -77 11 -86 28 C-92 40 -94 55 -95 69 C-96 84 -101 97 -112 109 C-113 110 -113 111 -114 112 C-116 115 -116 115 -119 116 C-119 116 -119 116 -120 118 C-121 118 -121 117 -122 117 C-122 114 -123 112 -123 109 C-122 109 -122 109 -121 109 C-120 108 -120 106 -119 105 C-119 105 -119 105 -117 103 C-105 91 -104 70 -101 54 C-101 52 -100 51 -100 49 C-100 48 -99 46 -99 45 C-97 34 -94 23 -86 15 C-85 14 -85 13 -84 12 C-78 1 -65 -7 -53 -10 C-34 -12 -15 -13 0 0 Z " fill="#D3D7E6" transform="translate(163,58)"/>
<path d="M0 0 C8 7 13 16 16 26 C14 29 14 29 12 31 C11 33 11 34 11 35 C7 37 4 38 1 39 C0 42 0 44 -0 46 C-1 47 -2 48 -2 49 C-5 50 -5 50 -8 50 C-14 51 -18 52 -22 56 C-23 58 -24 59 -25 61 C-25 61 -25 61 -27 64 C-31 64 -31 64 -34 62 C-33 57 -33 57 -32 54 C-32 44 -32 44 -34 40 C-40 36 -40 36 -44 36 C-48 37 -50 39 -52 41 C-55 47 -55 52 -53 59 C-51 61 -51 61 -46 64 C-46 67 -46 67 -47 70 C-55 67 -60 63 -64 55 C-64 52 -64 49 -64 45 C-65 46 -65 46 -69 48 C-73 51 -74 51 -80 51 C-84 49 -84 49 -86 48 C-87 49 -87 50 -87 50 C-88 50 -89 50 -89 49 C-89 51 -89 53 -89 54 C-89 56 -88 58 -88 59 C-88 59 -88 59 -89 60 C-89 62 -89 63 -90 64 C-90 66 -90 67 -90 68 C-91 68 -91 68 -95 69 C-95 47 -92 25 -77 7 C-56 -13 -25 -17 0 0 Z " fill="#CACCD7" transform="translate(162.25,64.75)"/>
<path d="M0 0 C5 5 7 9 7 16 C7 17 7 17 7 20 C7 23 7 23 5 27 C3 32 1 37 0 42 C-0 43 -0 44 -1 45 C-1 48 -2 50 -2 53 C-2 53 -2 53 0 54 C-1 54 -2 54 -3 54 C-3 55 -3 57 -3 58 C-5 74 -8 92 -19 104 C-19 105 -19 105 -22 107 C-22 108 -23 108 -23 109 C-24 109 -24 109 -25 109 C-25 110 -25 112 -25 113 C-26 113 -27 113 -28 113 C-28 112 -28 112 -28 110 C-29 108 -29 107 -29 106 C-30 106 -31 105 -32 105 C-32 101 -33 98 -33 94 C-34 94 -35 93 -36 93 C-36 88 -37 83 -37 78 C-37 78 -37 78 -37 74 C-38 74 -39 73 -40 73 C-40 70 -40 70 -40 66 C-40 65 -40 63 -40 62 C-40 61 -40 60 -40 59 C-40 59 -40 59 -37 58 C-37 54 -37 54 -36 48 C-36 43 -36 43 -36 39 C-36 39 -36 39 -33 38 C-32 36 -32 34 -31 32 C-30 30 -29 28 -28 26 C-27 25 -26 24 -26 23 C-24 20 -24 20 -22 17 C-20 15 -20 15 -18 11 C-17 11 -17 11 -16 11 C-15 9 -15 8 -14 6 C-9 1 -7 0 0 0 Z " fill="#656ADA" transform="translate(65,58)"/>
<path d="M0 0 C4 -0 8 -1 12 -0 C13 -1 14 -1 15 -1 C19 -1 19 -1 24 0 C24 1 24 1 26 4 C29 4 29 4 33 4 C37 4 37 4 40 4 C40 5 40 5 42 8 C44 8 45 8 47 8 C47 9 48 10 48 11 C51 12 54 13 57 14 C58 15 59 15 60 16 C60 17 60 19 60 20 C60 29 65 36 69 43 C69 44 69 46 69 47 C68 47 68 47 67 47 C67 48 66 50 66 51 C65 50 65 49 64 48 C63 47 62 46 61 45 C60 44 60 43 59 42 C56 39 56 39 51 36 C50 35 49 34 47 33 C36 23 22 23 7 23 C6 23 4 23 2 23 C-12 25 -21 32 -31 41 C-32 41 -32 41 -33 41 C-34 43 -34 44 -35 46 C-38 50 -39 52 -43 55 C-43 54 -43 52 -43 51 C-43 45 -44 41 -47 36 C-49 34 -49 34 -55 34 C-56 35 -57 36 -58 37 C-59 38 -61 38 -62 39 C-63 41 -64 42 -65 44 C-66 44 -66 44 -67 44 C-67 45 -68 46 -68 47 C-69 51 -71 53 -74 56 C-76 59 -77 62 -79 65 C-79 65 -79 65 -81 66 C-81 64 -81 62 -81 60 C-81 60 -81 60 -78 59 C-77 55 -77 55 -77 52 C-76 52 -75 52 -74 52 C-73 51 -73 49 -72 48 C-72 48 -72 48 -70 47 C-70 45 -69 42 -69 40 C-68 40 -67 40 -66 40 C-65 39 -65 37 -64 36 C-63 36 -63 36 -62 36 C-61 35 -61 33 -60 32 C-59 32 -59 32 -58 32 C-57 31 -57 29 -56 28 C-55 28 -55 28 -54 28 C-53 27 -53 25 -52 24 C-51 24 -51 24 -50 24 C-49 23 -49 21 -48 20 C-46 20 -44 20 -42 20 C-41 19 -41 17 -40 16 C-39 16 -39 16 -38 16 C-37 15 -37 13 -36 12 C-34 12 -32 12 -30 12 C-29 11 -29 9 -28 8 C-25 8 -21 8 -18 8 C-17 7 -17 5 -16 4 C-12 4 -9 4 -5 4 C-4 4 -3 4 -2 4 C-1 3 -1 1 0 0 Z " fill="#6D72DA" transform="translate(114,25)"/>
<path d="M0 0 C1 1 3 3 4 4 C6 5 7 6 9 7 C15 14 20 21 23 30 C25 34 26 37 29 41 C30 45 30 49 30 53 C30 54 30 56 30 57 C30 61 30 61 28 66 C27 68 27 71 26 73 C26 74 25 74 25 75 C24 90 25 104 32 117 C33 120 34 123 35 126 C35 126 36 127 36 127 C36 130 36 130 36 134 C35 134 34 135 33 135 C33 137 32 138 32 140 C31 140 30 141 29 141 C29 142 28 142 28 143 C28 142 28 142 28 141 C26 141 25 140 23 140 C20 137 20 128 19 123 C19 122 19 122 18 120 C17 111 16 103 16 94 C16 92 16 91 16 89 C16 80 16 74 20 66 C23 59 23 52 22 44 C20 39 18 36 14 32 C13 30 12 28 11 25 C6 13 -1 7 -13 1 C-30 -6 -45 -4 -62 3 C-75 10 -84 21 -89 35 C-92 46 -94 57 -95 69 C-96 84 -101 97 -112 109 C-113 110 -113 111 -114 112 C-116 115 -116 115 -119 116 C-119 116 -119 116 -120 118 C-121 118 -121 117 -122 117 C-122 114 -123 112 -123 109 C-122 109 -122 109 -121 109 C-120 108 -120 106 -119 105 C-119 105 -119 105 -117 103 C-105 91 -104 70 -101 54 C-101 52 -100 51 -100 49 C-100 48 -99 46 -99 45 C-97 34 -94 23 -86 15 C-85 14 -85 13 -84 12 C-78 1 -65 -7 -53 -10 C-34 -12 -15 -13 0 0 Z " fill="#09091A" transform="translate(163,58)"/>
<path d="M0 0 C2 1 3 1 5 2 C10 4 13 7 16 12 C16 13 16 13 17 16 C18 17 20 17 21 18 C23 21 23 21 24 25 C21 30 19 33 15 37 C14 40 14 44 13 47 C11 50 11 50 8 51 C7 51 6 51 5 51 C-1 52 -4 53 -9 56 C-9 56 -9 56 -9 53 C-10 52 -10 51 -10 50 C-11 50 -12 49 -13 49 C-13 48 -13 48 -14 44 C-15 39 -18 36 -21 32 C-26 29 -26 29 -31 28 C-30 26 -29 25 -28 23 C-29 23 -30 22 -31 22 C-31 21 -32 20 -32 19 C-35 18 -35 18 -38 16 C-42 15 -46 14 -50 12 C-53 11 -53 11 -58 13 C-58 14 -58 14 -58 15 C-60 15 -61 16 -63 16 C-59 9 -54 6 -47 2 C-46 2 -45 2 -44 2 C-44 1 -44 1 -44 0 C-37 -2 -30 -3 -23 -3 C-21 -3 -20 -3 -19 -3 C-12 -3 -7 -3 0 0 Z " fill="#C1C5D1" transform="translate(149,64)"/>
<path d="M0 0 C1 1 3 2 4 3 C9 7 11 11 14 16 C14 17 14 17 16 20 C21 29 21 38 19 47 C17 51 17 51 16 52 C12 52 12 52 8 52 C7 51 7 49 6 48 C4 48 3 48 1 48 C-1 48 -2 48 -4 48 C-5 47 -5 45 -6 44 C-7 43 -9 43 -10 42 C-10 41 -10 41 -10 40 C-12 40 -14 40 -16 40 C-17 39 -17 37 -18 36 C-19 35 -21 35 -22 34 C-22 33 -22 33 -22 32 C-23 31 -25 31 -26 30 C-26 29 -26 29 -26 28 C-27 27 -29 27 -30 26 C-30 25 -30 25 -30 24 C-31 24 -32 24 -33 24 C-33 23 -33 23 -33 21 C-34 17 -34 17 -38 14 C-38 13 -38 13 -38 12 C-39 12 -40 12 -41 12 C-41 11 -41 9 -41 8 C-39 7 -38 7 -36 6 C-34 3 -34 3 -31 -0 C-30 -1 -30 -2 -29 -3 C-28 -4 -28 -5 -27 -6 C-20 -13 -6 -4 0 0 Z " fill="#5D6175" transform="translate(82,167)"/>
<path d="M0 0 C0 2 0 3 0 5 C1 12 4 16 10 21 C11 21 11 21 14 23 C15 23 15 23 18 25 C18 25 18 25 19 28 C18 28 17 28 16 29 C12 30 11 32 8 35 C1 41 -5 43 -13 46 C-13 46 -14 47 -14 47 C-18 47 -22 47 -26 46 C-29 47 -32 49 -35 50 C-37 50 -39 50 -41 50 C-41 49 -40 48 -40 48 C-37 42 -35 37 -33 30 C-33 29 -32 27 -32 25 C-30 24 -29 24 -27 23 C-26 19 -26 19 -26 15 C-26 15 -25 14 -25 14 C-25 12 -25 11 -25 9 C-25 7 -25 6 -25 4 C-20 3 -20 3 -15 4 C-10 5 -10 5 -6 3 C-2 0 -2 0 0 0 Z " fill="#C2C5D1" transform="translate(98,110)"/>
<path d="M0 0 C7 7 7 7 7 12 C7 18 6 21 2 25 C-1 26 -3 27 -6 28 C-7 29 -7 29 -7 32 C-8 37 -9 37 -13 40 C-15 43 -17 46 -19 49 C-22 51 -22 51 -27 50 C-29 48 -29 48 -31 45 C-32 44 -32 44 -33 43 C-34 42 -34 41 -35 40 C-36 39 -37 38 -37 37 C-39 33 -40 32 -40 28 C-37 22 -34 18 -28 15 C-24 14 -20 14 -16 13 C-14 11 -14 11 -13 8 C-12 4 -12 4 -9 2 C-6 0 -6 0 0 0 Z " fill="#121216" transform="translate(175,100)"/>
<path d="M0 0 C2 0 4 0 5 0 C6 0 6 0 9 0 C9 2 9 4 9 6 C9 6 8 6 7 6 C-10 8 -27 14 -38 28 C-48 42 -51 61 -52 79 C-54 95 -59 108 -70 119 C-70 120 -71 121 -72 123 C-74 125 -74 125 -77 126 C-77 127 -77 127 -78 128 C-78 128 -79 128 -80 127 C-80 125 -80 122 -81 119 C-80 119 -79 119 -79 119 C-78 118 -77 117 -77 115 C-76 115 -76 115 -74 113 C-63 101 -61 80 -59 64 C-58 63 -58 61 -58 59 C-57 58 -57 57 -57 55 C-54 44 -52 34 -44 25 C-43 24 -43 23 -42 22 C-33 8 -16 -0 0 0 Z " fill="#0A0A15" transform="translate(120.5625,47.8125)"/>
<path d="M0 0 C8 7 13 16 16 26 C14 29 14 29 12 31 C11 33 11 34 11 35 C7 37 4 38 1 39 C2 34 2 34 6 30 C8 27 8 27 10 24 C8 19 7 17 3 13 C2 12 2 11 1 10 C-4 3 -9 1 -17 -1 C-19 -1 -21 -2 -22 -3 C-25 -3 -25 -3 -28 -3 C-30 -3 -31 -3 -32 -3 C-33 -3 -34 -2 -36 -2 C-37 -2 -38 -2 -39 -2 C-45 -2 -51 -2 -57 -1 C-57 -0 -57 1 -57 1 C-58 2 -59 2 -60 2 C-69 6 -75 13 -80 21 C-82 26 -82 26 -82 29 C-83 30 -83 31 -84 33 C-86 38 -85 42 -85 47 C-86 48 -87 49 -87 50 C-88 50 -89 50 -89 49 C-89 51 -89 53 -89 54 C-89 56 -88 58 -88 59 C-88 59 -88 59 -89 60 C-89 62 -89 63 -90 64 C-90 66 -90 67 -90 68 C-91 68 -91 68 -95 69 C-95 47 -92 25 -77 7 C-56 -13 -25 -17 0 0 Z " fill="#D2D6E5" transform="translate(162.25,64.75)"/>
<path d="M0 0 C1 0 2 1 3 1 C3 3 3 5 3 7 C4 7 5 7 6 7 C6 7 6 7 9 8 C11 13 12 17 12 22 C13 24 13 25 13 26 C14 26 14 26 18 28 C18 29 17 31 17 32 C15 32 13 32 11 32 C11 33 11 33 11 34 C10 34 9 34 8 34 C3 35 1 37 -3 40 C-4 40 -4 40 -8 41 C-8 40 -9 40 -9 39 C-8 38 -7 38 -6 37 C-6 34 -6 34 -7 30 C-11 27 -11 27 -15 25 C-23 20 -23 20 -25 17 C-25 14 -25 14 -24 11 C-21 9 -21 9 -17 7 C-16 6 -14 6 -13 5 C-9 4 -4 3 0 2 C0 1 0 1 0 0 Z " fill="#C2C6D2" transform="translate(173,171)"/>
<path d="M0 0 C1 1 3 2 4 3 C9 7 11 11 14 16 C15 17 16 18 16 20 C18 23 18 23 17 26 C16 29 16 29 13 32 C8 28 8 28 6 26 C1 22 -4 20 -10 17 C-17 12 -22 9 -24 1 C-24 -0 -24 -2 -24 -3 C-25 -3 -26 -3 -27 -3 C-27 -2 -27 -2 -27 -1 C-28 -1 -29 -2 -30 -2 C-28 -5 -27 -7 -23 -8 C-13 -8 -8 -5 0 0 Z " fill="#7C8296" transform="translate(82,167)"/>
<path d="M0 0 C4 -0 4 -0 7 0 C7 1 7 2 7 3 C9 31 9 31 15 43 C16 46 17 49 18 52 C18 52 18 52 19 53 C19 56 19 56 19 60 C19 60 19 60 16 61 C16 63 15 64 15 66 C15 66 15 66 12 67 C12 67 12 67 11 69 C11 68 11 68 11 67 C9 67 8 66 6 66 C3 63 3 54 2 49 C2 48 2 48 1 46 C-5 10 -5 10 0 0 Z " fill="#07060B" transform="translate(180,132)"/>
<path d="M0 0 C4 2 7 5 10 9 C11 10 12 12 13 13 C13 15 13 17 13 19 C14 20 15 21 16 22 C18 27 17 29 15 34 C14 35 13 36 12 37 C8 36 8 36 5 35 C6 30 6 30 7 27 C8 17 8 17 5 13 C-1 9 -1 9 -5 9 C-9 10 -10 11 -13 14 C-15 20 -16 25 -14 31 C-12 34 -12 34 -7 37 C-7 40 -7 40 -8 43 C-16 40 -21 36 -25 28 C-26 20 -25 15 -20 8 C-14 2 -8 -1 0 0 Z " fill="#E9EAF4" transform="translate(123,92)"/>
<path d="M0 0 C4 2 4 2 6 5 C7 9 7 9 4 14 C1 18 1 18 -2 21 C-3 24 -3 28 -4 31 C-6 34 -6 34 -9 35 C-10 35 -11 35 -12 35 C-18 36 -21 37 -26 40 C-26 39 -26 38 -26 37 C-27 36 -27 35 -27 34 C-28 34 -29 33 -30 33 C-31 28 -31 28 -30 25 C-25 24 -25 24 -21 24 C-21 23 -21 22 -22 20 C-22 16 -22 16 -19 11 C-17 9 -17 9 -14 9 C-13 9 -12 9 -11 9 C-7 9 -7 9 -4 8 C-1 4 -1 4 0 0 Z " fill="#BEC2D0" transform="translate(166,80)"/>
<path d="M0 0 C2 0 4 0 6 0 C11 5 13 9 13 16 C13 17 13 18 13 20 C13 23 13 23 11 27 C9 32 7 37 6 42 C6 43 6 44 5 45 C5 48 4 50 4 53 C5 53 5 54 6 54 C5 54 4 54 3 54 C3 56 3 57 3 59 C2 64 1 68 0 72 C-4 69 -4 67 -5 62 C-5 61 -5 61 -6 58 C-7 55 -7 52 -8 49 C-6 47 -5 45 -3 43 C-2 40 -0 37 1 34 C2 32 3 31 4 29 C6 24 7 20 7 15 C5 14 5 14 1 13 C-1 13 -2 12 -4 12 C-5 12 -5 12 -8 11 C-7 8 -7 8 -6 4 C-4 3 -3 2 -1 1 C-1 1 -0 0 0 0 Z " fill="#5F64E0" transform="translate(59,58)"/>
<path d="M0 0 C3 2 5 4 7 7 C8 14 7 20 3 26 C-1 28 -3 29 -7 29 C-11 28 -12 27 -15 24 C-17 18 -18 13 -16 7 C-11 0 -7 -2 0 0 Z " fill="#060509" transform="translate(124,101)"/>
<path d="M0 0 C5 1 8 3 12 7 C15 12 17 16 18 22 C20 27 23 29 27 32 C28 33 30 34 31 35 C31 36 31 37 31 38 C32 38 32 38 33 38 C33 38 33 38 32 40 C31 40 31 40 27 41 C27 42 26 43 26 44 C21 47 20 47 14 47 C14 46 14 45 14 44 C14 43 14 42 14 40 C14 40 14 40 14 37 C14 33 14 30 12 27 C11 27 10 26 9 26 C3 19 0 11 -0 3 C-0 2 -0 1 0 0 Z " fill="#5D62D8" transform="translate(182,73)"/>
<path d="M0 0 C1 0 1 0 2 0 C2 1 3 3 3 4 C5 3 6 3 8 2 C12 2 12 2 15 2 C16 4 17 5 18 7 C16 12 14 13 9 16 C8 17 8 19 7 20 C8 20 10 21 11 21 C11 22 11 22 11 23 C12 24 14 24 15 25 C19 29 19 29 19 32 C18 35 18 35 14 38 C9 37 8 36 4 33 C2 29 2 29 2 26 C1 26 0 26 -1 26 C-2 21 -2 16 -2 11 C-2 11 -2 11 -2 7 C-2 3 -2 3 0 0 Z " fill="#646DDA" transform="translate(189,130)"/>
<path d="M0 0 C5 2 7 4 10 9 C11 11 12 12 13 14 C14 23 12 30 9 38 C10 38 12 39 13 39 C14 39 16 40 17 40 C21 40 25 40 29 40 C30 40 31 40 32 40 C37 40 42 40 47 39 C50 39 52 39 55 39 C55 40 55 42 55 43 C53 45 47 44 43 44 C42 44 41 44 40 44 C38 44 36 44 34 44 C30 44 27 44 23 44 C21 44 19 44 17 44 C16 44 16 44 14 44 C11 44 11 44 6 44 C5 43 5 41 4 40 C3 40 3 39 2 39 C2 38 3 37 4 35 C6 25 6 17 1 8 C-1 4 -1 4 0 0 Z " fill="#D3D7E6" transform="translate(96,179)"/>
<path d="M0 0 C2 0 4 0 5 0 C6 0 6 0 9 0 C9 2 9 4 9 6 C9 6 8 6 7 6 C-11 8 -27 15 -39 29 C-39 30 -40 31 -41 31 C-41 31 -42 31 -43 31 C-43 30 -44 29 -45 27 C-39 15 -27 6 -15 2 C-10 0 -6 -0 0 0 Z " fill="#080809" transform="translate(120.5625,47.8125)"/>
<path d="M0 0 C6 3 7 5 9 11 C10 20 10 27 6 35 C5 36 5 38 4 39 C3 43 3 43 1 44 C-2 44 -6 44 -9 44 C-10 41 -10 41 -10 38 C-7 35 -4 34 1 32 C4 29 4 26 4 22 C4 17 3 15 0 12 C-1 11 -3 10 -4 9 C-3 4 -3 4 0 0 Z " fill="#E6E7F2" transform="translate(177,91)"/>
<path d="M0 0 C3 1 7 2 10 3 C13 4 13 4 18 4 C19 5 19 5 20 6 C20 7 19 9 19 10 C16 11 12 13 9 14 C5 17 3 19 0 22 C-0 23 -1 24 -2 25 C-3 25 -3 25 -4 25 C-4 26 -5 26 -5 27 C-5 27 -6 26 -6 26 C-6 20 -6 20 -3 15 C-2 11 -2 11 -2 8 C-1 1 -1 1 0 0 Z " fill="#BCC0CF" transform="translate(73,124)"/>
<path d="M0 0 C4 3 6 6 7 11 C7 15 7 15 7 19 C7 20 7 22 7 23 C7 27 7 27 5 32 C5 33 4 34 4 36 C3 39 3 39 1 41 C-2 41 -2 41 -5 40 C-5 38 -4 36 -4 34 C-3 33 -3 32 -3 31 C-2 28 -2 28 -1 27 C-0 18 -0 9 -5 1 C-3 1 -2 0 0 0 Z " fill="#0E1054" transform="translate(186,92)"/>
<path d="M0 0 C3 -0 3 -0 7 1 C13 6 15 12 18 19 C17 19 17 19 13 22 C8 20 6 18 3 14 C2 13 1 12 0 11 C-2 9 -2 9 -3 5 C-2 3 -1 2 0 0 Z " fill="#878D9E" transform="translate(80,169)"/>
<path d="M0 0 C4 0 4 0 7 1 C7 2 8 3 8 4 C9 5 11 5 12 6 C16 10 16 10 16 13 C15 16 15 16 11 19 C6 18 5 17 1 14 C-1 10 -1 7 -1 2 C-1 1 -0 1 0 0 Z " fill="#5C61D8" transform="translate(192,149)"/>
<path d="M0 0 C5 0 5 0 10 2 C14 2 18 2 22 2 C22 2 22 2 25 2 C30 2 35 2 40 1 C42 1 45 1 48 1 C48 3 48 4 48 5 C45 7 39 6 36 6 C35 6 34 6 33 6 C31 6 29 6 26 6 C23 6 19 7 16 7 C14 7 12 7 9 7 C9 7 9 7 6 7 C3 7 3 7 -1 6 C-2 5 -3 4 -3 2 C-4 2 -5 2 -5 1 C-4 0 -4 0 0 0 Z " fill="#E0E2EE" transform="translate(103.25,216.8125)"/>
<path d="M0 0 C8 3 11 6 15 14 C17 18 17 20 17 25 C15 25 13 25 11 25 C8 22 7 19 5 15 C3 11 2 8 -1 4 C-1 3 -0 1 0 0 Z " fill="#060509" transform="translate(169,68)"/>
</svg>
