<?xml version="1.0" encoding="UTF-8"?>
<!-- Generator: visioncortex VTracer 0.6.12 -->
<svg version="1.1" xmlns="http://www.w3.org/2000/svg" width="360" height="556">
<path d="M0 0 C3 -1 3 -1 6 -1 C7 -1 9 -1 10 -1 C11 -1 11 -1 14 -0 C15 -1 17 -1 18 -1 C19 -1 19 -1 22 -1 C22 -1 22 -1 25 -1 C26 -0 26 -0 28 0 C28 1 28 1 30 4 C32 4 34 4 36 4 C36 5 36 5 38 8 C40 8 42 8 44 8 C44 9 44 9 46 12 C48 12 50 12 52 12 C52 13 52 13 54 16 C55 16 55 16 58 18 C58 19 58 19 58 20 C60 20 62 20 64 20 C64 21 64 21 66 24 C68 24 70 24 72 24 C72 25 72 25 74 28 C76 28 78 28 80 28 C80 29 80 29 82 32 C83 33 85 33 86 34 C86 35 86 35 86 36 C88 36 90 36 92 36 C92 37 92 37 94 40 C96 40 98 40 100 40 C100 41 100 41 102 44 C104 44 106 44 108 44 C108 45 108 45 110 48 C112 48 114 48 116 48 C116 49 116 49 118 52 C119 53 121 53 122 54 C122 55 122 55 122 56 C124 56 126 56 128 56 C128 57 128 57 130 60 C131 60 132 60 133 60 C133 61 133 62 133 63 C134 65 134 66 134 67 C135 67 136 68 137 68 C137 72 137 76 137 80 C137 80 137 80 137 83 C137 87 137 92 137 96 C137 98 137 101 137 104 C137 110 137 116 137 122 C137 129 137 137 137 145 C137 151 137 156 137 162 C137 165 137 168 137 171 C137 175 137 178 137 182 C137 184 137 185 137 186 C137 189 137 191 137 194 C136 194 135 195 134 195 C133 199 133 199 133 202 C132 202 131 202 130 202 C129 203 129 205 128 206 C127 206 127 206 126 206 C125 207 125 209 124 210 C123 210 123 210 122 210 C121 211 121 213 120 214 C118 214 116 214 114 214 C113 215 113 217 112 218 C110 218 108 218 106 218 C105 219 105 221 104 222 C102 222 100 222 98 222 C97 223 97 225 96 226 C94 226 92 226 90 226 C89 227 89 229 88 230 C86 230 84 230 82 230 C81 231 81 233 80 234 C78 234 76 234 74 234 C73 235 73 237 72 238 C71 238 71 238 70 238 C69 239 69 241 68 242 C66 242 64 242 62 242 C61 243 61 245 60 246 C58 246 56 246 54 246 C53 247 53 249 52 250 C50 250 48 250 46 250 C45 251 45 253 44 254 C42 254 40 254 38 254 C37 255 37 257 36 258 C34 258 32 258 30 258 C29 259 29 261 28 262 C27 262 27 262 26 262 C25 263 25 265 24 266 C19 267 19 267 14 266 C12 267 10 267 8 267 C7 266 6 266 4 266 C3 265 3 263 2 262 C0 262 -2 262 -4 262 C-5 261 -5 259 -6 258 C-7 257 -9 257 -10 256 C-10 255 -10 255 -10 254 C-12 254 -14 254 -16 254 C-17 253 -17 251 -18 250 C-20 250 -22 250 -24 250 C-25 249 -25 247 -26 246 C-28 246 -30 246 -32 246 C-33 245 -33 243 -34 242 C-36 242 -38 242 -40 242 C-41 241 -41 239 -42 238 C-44 238 -46 238 -48 238 C-48 237 -48 237 -50 234 C-52 234 -54 234 -56 234 C-56 233 -56 233 -58 230 C-59 229 -61 229 -62 228 C-62 227 -62 227 -62 226 C-64 226 -66 226 -68 226 C-68 225 -68 225 -70 222 C-72 222 -74 222 -76 222 C-76 221 -76 221 -78 218 C-80 218 -82 218 -84 218 C-85 217 -85 215 -86 214 C-87 213 -89 213 -90 212 C-90 211 -90 211 -90 210 C-92 210 -94 210 -96 210 C-97 209 -97 207 -98 206 C-99 205 -101 205 -102 204 C-102 203 -102 203 -102 202 C-103 202 -104 202 -105 202 C-105 201 -105 201 -105 199 C-106 197 -106 196 -106 195 C-107 195 -108 194 -109 194 C-109 190 -109 190 -109 186 C-109 184 -109 182 -109 180 C-109 179 -109 177 -109 175 C-109 173 -109 171 -109 170 C-109 169 -109 169 -109 164 C-109 164 -109 164 -109 160 C-109 158 -109 157 -109 156 C-108 156 -107 155 -106 155 C-106 151 -106 151 -106 145 C-106 144 -106 144 -106 139 C-106 138 -106 137 -106 135 C-107 135 -108 134 -109 134 C-109 130 -109 126 -109 122 C-109 121 -109 120 -109 119 C-109 116 -109 114 -109 111 C-109 108 -109 104 -109 100 C-109 98 -109 95 -109 93 C-109 92 -109 90 -109 89 C-109 87 -109 84 -109 81 C-109 81 -109 81 -106 79 C-106 78 -106 76 -106 75 C-107 75 -108 74 -109 74 C-109 73 -109 73 -109 72 C-108 72 -108 72 -105 71 C-105 65 -105 65 -105 60 C-104 60 -103 60 -102 60 C-101 59 -101 57 -100 56 C-98 56 -96 56 -94 56 C-93 55 -93 53 -92 52 C-90 52 -88 52 -86 52 C-85 51 -85 49 -84 48 C-82 48 -80 48 -78 48 C-77 47 -77 45 -76 44 C-75 44 -75 44 -74 44 C-73 43 -73 41 -72 40 C-70 40 -68 40 -66 40 C-65 39 -65 37 -64 36 C-62 36 -60 36 -58 36 C-57 35 -57 33 -56 32 C-55 32 -55 32 -54 32 C-53 31 -53 29 -52 28 C-50 28 -48 28 -46 28 C-45 27 -45 25 -44 24 C-42 24 -40 24 -38 24 C-37 23 -37 21 -36 20 C-34 20 -32 20 -30 20 C-29 19 -29 17 -28 16 C-26 16 -24 16 -22 16 C-21 15 -21 13 -20 12 C-18 12 -16 12 -14 12 C-13 11 -13 9 -12 8 C-10 8 -8 8 -6 8 C-5 7 -5 5 -4 4 C-3 4 -3 4 -2 4 C-1 3 -1 1 0 0 Z " fill="#6369DD" transform="translate(166,25)"/>
<path d="M0 0 C3 5 4 9 5 15 C6 20 7 23 10 27 C13 28 13 28 16 28 C16 29 16 29 16 30 C16 30 16 30 19 30 C22 31 22 31 25 33 C28 35 28 35 31 35 C37 33 39 30 42 26 C44 25 45 24 47 23 C49 24 50 24 52 25 C53 30 53 31 50 35 C49 36 49 37 48 37 C43 44 43 44 43 48 C44 52 46 56 48 60 C50 65 52 70 52 75 C50 75 49 75 47 75 C47 76 47 77 47 78 C44 79 44 79 39 80 C38 80 37 80 35 81 C31 81 29 81 25 80 C25 79 25 79 22 76 C18 71 15 69 9 66 C1 65 -3 66 -10 70 C-11 70 -11 70 -12 70 C-19 87 -19 87 -15 96 C-12 102 -9 104 -3 108 C5 110 10 108 17 104 C20 102 21 100 23 96 C23 95 24 93 25 91 C30 90 34 90 40 90 C41 90 43 90 45 90 C50 90 50 90 54 91 C54 92 55 93 55 94 C57 95 58 96 60 97 C74 107 74 107 76 115 C76 116 75 116 75 117 C74 117 74 117 73 117 C73 118 73 118 73 119 C71 119 69 119 67 119 C53 119 53 119 47 123 C47 124 46 125 45 126 C44 127 43 128 42 130 C34 139 30 148 31 161 C32 164 32 168 33 172 C33 173 33 174 34 175 C35 183 35 183 36 185 C36 189 36 189 36 193 C35 194 33 196 32 197 C31 197 31 197 30 197 C30 198 30 198 30 199 C21 205 21 205 15 206 C15 207 15 207 15 208 C6 213 6 213 2 213 C2 214 1 215 1 216 C-6 217 -11 217 -17 213 C-23 207 -22 200 -22 192 C-25 175 -35 161 -48 150 C-57 144 -66 141 -76 140 C-77 139 -78 139 -79 138 C-79 134 -79 134 -75 130 C-69 120 -68 108 -67 96 C-67 96 -67 96 -66 94 C-66 92 -65 90 -65 88 C-64 76 -61 65 -55 55 C-54 54 -54 53 -53 52 C-47 41 -37 32 -24 28 C-18 27 -18 27 -14 27 C-12 22 -11 18 -11 13 C-11 13 -10 12 -10 12 C-10 10 -9 8 -9 7 C-8 -1 -7 -1 0 0 Z " fill="#FCFCFD" transform="translate(184,65)"/>
<path d="M0 0 C3 0 3 0 6 1 C6 1 6 1 7 4 C9 4 12 5 14 5 C15 6 16 7 17 8 C17 8 17 8 19 9 C19 10 19 10 19 11 C18 11 17 12 16 12 C16 13 16 13 16 14 C16 14 16 14 18 15 C18 16 18 16 20 20 C21 21 22 21 23 22 C23 23 23 23 23 24 C27 24 30 23 34 22 C37 21 37 21 42 21 C43 22 44 23 45 24 C47 24 48 25 50 25 C51 25 52 26 54 26 C54 27 54 27 56 30 C58 30 60 30 62 30 C62 31 62 31 64 34 C66 34 68 34 70 34 C70 35 70 35 72 38 C74 38 76 38 78 38 C78 39 78 39 80 42 C81 43 83 43 84 44 C84 45 84 45 84 46 C86 46 88 46 90 46 C90 47 90 47 92 50 C93 50 94 50 95 50 C95 51 95 52 95 53 C95 55 95 56 95 58 C96 59 96 61 96 62 C96 66 96 66 97 69 C97 74 97 78 96 83 C96 89 96 95 96 102 C96 103 96 104 96 105 C96 109 96 114 96 118 C97 122 97 126 97 130 C97 131 97 132 97 134 C97 135 97 137 97 138 C97 140 97 141 97 143 C97 143 97 143 97 147 C97 148 97 149 97 151 C97 154 97 154 96 158 C96 162 96 166 96 170 C96 182 96 182 95 184 C94 184 94 184 93 184 C92 180 92 176 92 172 C92 170 92 169 92 167 C92 167 92 167 92 164 C91 164 91 164 90 164 C90 163 90 162 91 160 C91 152 91 152 90 148 C86 147 86 147 81 146 C77 145 73 143 69 141 C66 140 66 140 64 140 C64 141 63 143 63 144 C62 144 62 144 61 144 C61 145 60 147 60 148 C56 146 56 146 54 142 C51 137 48 134 43 130 C43 130 43 130 40 128 C38 126 38 126 34 124 C34 123 34 122 34 121 C29 121 24 121 20 120 C18 120 17 120 16 120 C12 120 9 120 5 121 C3 125 3 125 2 130 C-2 135 -7 138 -14 140 C-20 140 -25 138 -30 135 C-35 130 -38 124 -38 118 C-38 111 -36 105 -32 100 C-25 95 -19 94 -11 95 C-4 98 0 102 5 109 C10 111 16 109 21 108 C23 108 25 108 27 108 C27 107 27 106 27 105 C29 105 30 105 32 105 C28 91 28 91 25 86 C23 82 22 79 22 75 C24 72 24 72 26 68 C30 64 31 62 32 57 C31 56 30 55 29 54 C24 56 23 57 19 61 C19 61 19 61 16 62 C16 63 15 64 15 65 C12 66 12 66 8 66 C4 64 4 64 0 61 C-1 61 -1 61 -4 60 C-4 59 -4 59 -4 58 C-6 58 -8 58 -10 58 C-15 52 -16 46 -17 39 C-18 34 -18 34 -20 30 C-24 29 -24 29 -27 31 C-28 36 -28 36 -29 42 C-29 42 -30 43 -30 43 C-30 44 -30 44 -30 48 C-31 53 -31 53 -34 57 C-37 58 -37 58 -42 59 C-49 61 -54 63 -60 68 C-61 69 -63 70 -64 71 C-71 78 -74 85 -78 94 C-79 95 -79 97 -80 98 C-81 98 -81 98 -82 98 C-82 97 -82 97 -82 96 C-82 96 -82 96 -85 95 C-84 91 -84 91 -81 86 C-81 85 -80 83 -80 82 C-80 81 -79 80 -79 79 C-78 79 -78 79 -77 79 C-76 78 -76 76 -75 75 C-71 70 -68 67 -63 64 C-62 63 -62 61 -61 60 C-65 55 -67 54 -73 53 C-78 52 -83 50 -88 47 C-91 46 -91 46 -96 45 C-99 44 -99 44 -102 40 C-103 39 -103 37 -104 36 C-103 35 -101 33 -100 32 C-101 32 -101 32 -102 32 C-102 31 -102 31 -102 30 C-98 28 -95 27 -91 26 C-90 26 -89 25 -88 25 C-88 24 -87 23 -87 22 C-83 22 -83 22 -80 22 C-80 21 -80 19 -80 18 C-79 18 -78 18 -77 18 C-77 18 -77 18 -74 17 C-74 16 -73 15 -73 14 C-71 14 -69 13 -67 13 C-67 12 -66 11 -66 10 C-64 10 -63 9 -61 9 C-60 8 -60 6 -59 5 C-53 4 -52 4 -47 7 C-42 12 -40 16 -38 23 C-37 24 -36 25 -35 26 C-30 26 -29 25 -25 22 C-20 24 -19 25 -16 29 C-15 30 -14 31 -14 32 C-12 34 -12 34 -12 36 C-6 36 -4 35 1 32 C2 25 -0 23 -3 17 C-4 12 -5 10 -2 6 C-1 5 -1 4 0 3 C0 2 0 1 0 0 Z " fill="#5C62DB" transform="translate(204,35)"/>
<path d="M0 0 C1 0 1 0 4 1 C4 5 5 9 5 13 C5 13 5 13 5 16 C5 20 5 25 4 29 C4 31 4 34 5 37 C5 43 4 49 4 55 C4 62 4 70 4 78 C4 84 4 89 4 95 C4 98 4 101 4 104 C4 108 4 111 4 115 C4 116 4 116 4 119 C4 122 4 124 4 127 C3 127 2 128 1 128 C0 132 0 132 0 135 C-1 135 -2 135 -3 135 C-4 136 -4 138 -5 139 C-6 139 -6 139 -7 139 C-8 140 -8 142 -9 143 C-10 143 -10 143 -11 143 C-12 144 -12 146 -13 147 C-15 147 -17 147 -19 147 C-20 148 -20 150 -21 151 C-23 151 -25 151 -27 151 C-28 152 -28 154 -29 155 C-31 155 -33 155 -35 155 C-36 156 -36 158 -37 159 C-39 159 -41 159 -43 159 C-44 160 -44 162 -45 163 C-47 163 -49 163 -51 163 C-52 164 -52 166 -53 167 C-55 167 -57 167 -59 167 C-60 168 -60 170 -61 171 C-62 171 -62 171 -63 171 C-64 172 -64 174 -65 175 C-67 175 -69 175 -71 175 C-72 176 -72 178 -73 179 C-75 179 -77 179 -79 179 C-80 180 -80 182 -81 183 C-83 183 -85 183 -87 183 C-88 184 -88 186 -89 187 C-91 187 -93 187 -95 187 C-96 188 -96 190 -97 191 C-99 191 -101 191 -103 191 C-104 192 -104 194 -105 195 C-106 195 -106 195 -107 195 C-108 196 -108 198 -109 199 C-113 200 -113 200 -119 200 C-121 200 -123 200 -124 200 C-126 199 -127 199 -129 199 C-130 198 -130 196 -131 195 C-133 195 -135 195 -137 195 C-138 194 -138 192 -139 191 C-140 191 -140 191 -143 189 C-143 188 -143 188 -143 187 C-145 187 -147 187 -149 187 C-150 186 -150 184 -151 183 C-153 183 -155 183 -157 183 C-157 182 -157 182 -159 179 C-161 179 -163 179 -165 179 C-165 178 -165 178 -167 175 C-169 175 -171 175 -173 175 C-173 175 -173 175 -175 173 C-175 172 -175 171 -175 170 C-177 169 -179 169 -181 168 C-185 166 -185 166 -189 164 C-189 163 -189 163 -189 162 C-191 161 -192 161 -194 160 C-194 159 -194 159 -194 158 C-196 158 -197 157 -199 157 C-206 154 -213 150 -219 144 C-219 138 -218 136 -215 131 C-213 129 -212 128 -210 127 C-209 126 -208 126 -208 125 C-198 119 -186 120 -175 121 C-171 122 -169 124 -165 127 C-163 128 -162 129 -160 131 C-157 134 -157 134 -156 139 C-155 139 -153 140 -152 140 C-146 152 -141 169 -144 182 C-143 183 -143 184 -142 185 C-138 183 -138 183 -137 181 C-136 181 -136 181 -135 181 C-135 182 -135 182 -135 183 C-134 183 -134 183 -131 185 C-130 186 -128 187 -127 188 C-124 188 -124 188 -120 188 C-119 188 -118 188 -117 188 C-116 188 -115 188 -114 188 C-114 187 -113 187 -113 186 C-111 185 -109 184 -108 183 C-107 183 -106 182 -105 182 C-102 181 -102 181 -100 181 C-100 180 -100 180 -100 179 C-97 178 -95 176 -92 175 C-90 174 -89 173 -87 172 C-86 172 -86 172 -85 172 C-85 171 -85 171 -85 170 C-84 169 -82 169 -81 168 C-79 164 -80 159 -81 155 C-81 154 -82 153 -82 152 C-83 146 -84 141 -84 135 C-84 133 -84 132 -84 130 C-85 130 -85 129 -86 129 C-85 129 -85 129 -84 129 C-84 128 -84 128 -84 125 C-84 113 -75 103 -67 94 C-59 90 -50 91 -42 92 C-42 91 -42 91 -42 90 C-41 90 -41 90 -40 90 C-40 89 -39 89 -39 88 C-38 89 -36 90 -35 91 C-35 90 -34 88 -34 87 C-33 87 -33 87 -32 87 C-32 86 -31 84 -31 83 C-27 82 -24 83 -20 85 C-11 89 -11 89 -7 90 C-6 90 -5 91 -4 91 C-3 97 -3 101 -5 107 C-4 107 -4 107 -3 107 C-2 112 -2 116 -2 120 C-2 122 -2 123 -2 124 C-2 125 -2 125 -2 127 C-1 127 -1 127 0 127 C-0 125 -0 123 -0 121 C-0 119 -0 116 -0 114 C-0 113 -0 111 -0 110 C-0 109 -0 108 -0 106 C-0 105 -0 104 -0 103 C0 100 0 100 1 95 C1 92 1 90 1 87 C1 86 1 86 1 82 C1 81 1 79 1 78 C1 76 1 74 1 73 C1 71 1 70 1 68 C1 67 1 67 1 64 C1 60 1 57 0 53 C-0 49 -0 45 -0 40 C-0 39 -0 38 -0 37 C-0 32 0 26 1 21 C1 15 1 10 0 4 C0 3 0 1 0 0 Z " fill="#5C62DB" transform="translate(299,92)"/>
<path d="M0 0 C3 -1 3 -1 6 -1 C7 -1 9 -1 10 -1 C11 -1 11 -1 14 -0 C15 -1 17 -1 18 -1 C19 -1 19 -1 22 -1 C22 -1 22 -1 25 -1 C26 -0 26 -0 28 0 C28 1 28 1 30 4 C32 4 34 4 36 4 C36 5 36 5 38 8 C40 8 42 8 44 8 C44 9 44 9 46 12 C48 12 50 12 52 12 C52 13 52 13 54 16 C55 16 55 16 58 18 C58 19 58 19 58 20 C60 20 62 20 64 20 C64 21 64 21 66 24 C68 24 70 24 72 24 C72 25 72 25 74 28 C76 28 78 28 80 28 C80 29 80 29 82 32 C83 33 85 33 86 34 C85 34 84 35 83 35 C82 34 81 34 80 33 C80 32 80 32 80 31 C70 33 70 33 69 34 C65 34 65 34 61 34 C58 31 58 31 56 28 C56 27 56 26 56 25 C55 25 54 24 53 24 C53 23 54 22 54 21 C55 21 56 21 57 21 C57 20 57 20 57 19 C55 18 54 18 52 17 C52 16 52 16 52 15 C51 15 50 15 49 15 C47 14 46 14 45 14 C45 13 44 13 44 12 C42 11 40 11 38 10 C38 11 39 13 39 14 C38 14 38 14 37 14 C35 20 35 21 36 27 C37 29 38 30 39 32 C41 37 41 37 40 42 C37 45 34 46 30 47 C25 46 25 45 22 41 C21 40 21 39 20 38 C18 35 18 35 13 33 C11 34 9 36 7 37 C4 37 4 37 1 36 C-2 32 -2 32 -3 27 C-5 22 -6 20 -10 17 C-14 16 -17 15 -21 15 C-22 17 -22 18 -23 20 C-25 20 -26 20 -28 20 C-28 21 -29 23 -29 24 C-31 24 -33 24 -35 24 C-35 25 -36 27 -36 28 C-38 28 -40 28 -42 28 C-42 29 -42 31 -42 32 C-47 33 -47 33 -49 32 C-49 33 -50 35 -50 36 C-53 37 -53 37 -57 38 C-58 39 -59 39 -60 40 C-61 40 -63 40 -64 40 C-64 41 -64 41 -64 42 C-63 42 -63 42 -62 42 C-63 45 -63 45 -65 47 C-64 50 -64 50 -61 53 C-58 54 -54 55 -51 56 C-49 57 -47 58 -44 59 C-39 62 -35 63 -29 64 C-24 67 -24 67 -22 72 C-24 75 -26 77 -30 78 C-31 79 -32 81 -33 82 C-34 82 -34 82 -35 82 C-35 83 -35 83 -37 86 C-38 87 -40 89 -41 90 C-42 93 -42 95 -43 98 C-44 99 -45 101 -46 102 C-46 103 -46 104 -46 105 C-45 106 -44 107 -43 108 C-43 112 -44 116 -45 119 C-46 124 -46 124 -46 129 C-47 134 -47 134 -49 136 C-51 136 -53 136 -55 136 C-55 135 -55 135 -55 134 C-57 134 -58 134 -60 134 C-60 134 -61 133 -61 133 C-65 133 -68 133 -72 134 C-73 134 -74 134 -75 134 C-79 130 -78 127 -79 122 C-79 121 -79 120 -78 119 C-79 118 -79 116 -79 115 C-79 110 -78 107 -76 102 C-71 98 -66 98 -60 97 C-55 96 -52 95 -48 92 C-47 92 -46 92 -45 92 C-45 85 -48 81 -52 75 C-55 73 -55 73 -58 72 C-59 72 -59 72 -63 73 C-70 73 -73 71 -79 67 C-83 65 -86 64 -90 64 C-90 65 -90 65 -90 66 C-93 66 -95 66 -98 66 C-97 63 -95 61 -94 58 C-99 59 -100 61 -103 64 C-103 64 -103 64 -105 65 C-105 63 -105 62 -105 60 C-104 60 -103 60 -102 60 C-101 59 -101 57 -100 56 C-98 56 -96 56 -94 56 C-93 55 -93 53 -92 52 C-90 52 -88 52 -86 52 C-85 51 -85 49 -84 48 C-82 48 -80 48 -78 48 C-77 47 -77 45 -76 44 C-75 44 -75 44 -74 44 C-73 43 -73 41 -72 40 C-70 40 -68 40 -66 40 C-65 39 -65 37 -64 36 C-62 36 -60 36 -58 36 C-57 35 -57 33 -56 32 C-55 32 -55 32 -54 32 C-53 31 -53 29 -52 28 C-50 28 -48 28 -46 28 C-45 27 -45 25 -44 24 C-42 24 -40 24 -38 24 C-37 23 -37 21 -36 20 C-34 20 -32 20 -30 20 C-29 19 -29 17 -28 16 C-26 16 -24 16 -22 16 C-21 15 -21 13 -20 12 C-18 12 -16 12 -14 12 C-13 11 -13 9 -12 8 C-10 8 -8 8 -6 8 C-5 7 -5 5 -4 4 C-3 4 -3 4 -2 4 C-1 3 -1 1 0 0 Z " fill="#666BE1" transform="translate(166,25)"/>
<path d="M0 0 C4 8 3 17 2 26 C2 32 2 38 2 45 C2 46 2 47 2 48 C2 52 2 57 2 61 C3 65 3 69 3 73 C3 74 3 75 3 77 C3 78 3 80 3 81 C3 83 3 84 3 86 C3 86 3 86 3 90 C3 91 3 92 3 94 C3 97 3 97 2 101 C2 105 2 109 2 113 C2 125 2 125 1 127 C0 127 -0 127 -1 127 C-2 123 -2 119 -2 115 C-2 113 -2 112 -2 110 C-2 110 -2 110 -2 107 C-3 107 -3 107 -4 107 C-4 106 -4 105 -3 104 C-3 95 -3 95 -4 91 C-8 90 -8 90 -13 89 C-17 88 -21 86 -25 84 C-28 83 -28 83 -30 83 C-30 84 -30 84 -31 87 C-32 87 -32 87 -33 87 C-33 88 -33 88 -34 91 C-38 89 -38 89 -40 85 C-43 80 -46 77 -51 73 C-52 72 -53 71 -54 71 C-56 69 -56 69 -60 67 C-60 66 -60 65 -60 64 C-65 64 -70 64 -74 63 C-76 63 -77 63 -78 63 C-82 63 -85 63 -89 64 C-91 68 -91 68 -92 73 C-96 78 -101 81 -108 83 C-114 83 -119 81 -124 78 C-129 73 -132 67 -132 61 C-132 54 -130 48 -126 43 C-119 38 -113 37 -105 38 C-98 41 -94 45 -89 52 C-84 54 -78 52 -73 51 C-71 51 -69 51 -67 51 C-67 50 -67 49 -67 48 C-65 48 -64 48 -62 48 C-66 34 -66 34 -69 28 C-71 25 -72 22 -72 18 C-70 15 -70 15 -68 13 C-67 13 -66 13 -65 13 C-65 14 -65 15 -65 16 C-65 20 -65 20 -63 25 C-63 26 -63 27 -64 28 C-64 29 -64 30 -64 31 C-59 33 -56 33 -51 33 C-45 33 -37 34 -33 38 C-30 43 -27 47 -24 52 C-19 59 -12 62 -3 65 C-2 58 -2 51 -2 43 C-3 32 -3 32 -2 27 C-2 25 -2 24 -3 22 C-3 15 -2 7 0 0 Z " fill="#5057D6" transform="translate(298,92)"/>
<path d="M0 0 C3 -1 3 -1 6 -0 C7 -1 7 -1 9 -1 C10 -0 11 -0 12 0 C13 1 13 3 14 4 C16 4 18 4 20 4 C21 5 21 7 22 8 C23 9 25 9 26 10 C26 11 26 11 26 12 C27 13 29 13 30 14 C30 15 30 15 30 16 C31 16 32 17 33 17 C33 21 33 26 33 30 C33 31 33 33 33 34 C33 37 33 40 33 43 C33 47 33 51 33 56 C33 58 33 61 33 64 C33 65 33 66 33 68 C33 71 33 74 33 77 C32 78 31 78 30 79 C29 83 29 83 29 86 C28 86 27 86 26 86 C25 87 25 89 24 90 C23 90 23 90 22 90 C21 91 21 93 20 94 C18 94 16 94 14 94 C13 95 13 97 12 98 C9 99 9 99 6 98 C5 99 5 99 3 99 C2 98 1 98 0 98 C-1 97 -1 95 -2 94 C-4 94 -6 94 -8 94 C-9 93 -9 91 -10 90 C-11 89 -13 89 -14 88 C-14 87 -14 87 -14 86 C-15 86 -16 86 -17 86 C-17 85 -17 84 -17 83 C-18 81 -18 80 -18 79 C-19 79 -20 78 -21 78 C-21 74 -21 70 -21 65 C-21 64 -21 63 -21 61 C-21 59 -21 56 -21 53 C-21 49 -21 45 -21 41 C-21 38 -21 35 -21 33 C-21 31 -21 30 -21 29 C-21 26 -21 23 -21 20 C-20 20 -19 19 -18 19 C-17 15 -17 15 -17 12 C-16 12 -15 12 -14 12 C-13 11 -13 9 -12 8 C-11 8 -11 8 -10 8 C-9 7 -9 5 -8 4 C-6 4 -4 4 -2 4 C-1 3 -1 1 0 0 Z " fill="#060B22" transform="translate(242,313)"/>
<path d="M0 0 C7 0 15 0 22 0 C22 2 22 4 22 5 C23 7 23 9 23 11 C24 11 25 12 26 12 C26 14 27 17 27 19 C28 20 29 20 30 21 C30 24 31 28 31 31 C32 31 34 31 35 31 C35 21 36 11 36 0 C42 0 48 0 54 0 C54 30 54 59 54 90 C48 90 42 90 36 90 C36 89 36 89 35 83 C34 83 33 82 32 82 C32 80 31 77 31 75 C31 75 31 75 28 73 C28 71 28 71 27 63 C26 62 25 62 24 61 C23 58 23 58 23 55 C22 55 20 55 19 55 C19 56 19 56 19 61 C19 62 19 63 19 64 C19 65 19 66 19 67 C19 67 19 67 22 69 C22 73 22 73 22 78 C22 79 22 81 22 82 C22 84 22 85 22 86 C21 86 20 86 19 86 C18 87 18 89 17 90 C11 90 6 90 0 90 C0 60 0 31 0 0 Z " fill="#0C1129" transform="translate(281,317)"/>
<path d="M0 0 C3 5 4 9 5 15 C6 20 7 23 10 27 C13 28 13 28 16 28 C16 29 16 29 16 30 C17 30 18 30 19 30 C22 31 22 31 25 33 C28 35 28 35 31 35 C37 33 39 30 42 26 C44 25 45 24 47 23 C49 24 50 24 52 25 C53 30 53 31 50 35 C49 36 49 37 48 37 C43 44 43 44 43 48 C44 52 46 56 48 60 C50 65 52 70 52 75 C50 75 49 75 47 75 C47 76 47 77 47 78 C44 79 44 79 39 80 C38 80 37 80 35 81 C31 81 29 81 25 80 C25 79 25 79 22 76 C18 71 15 69 9 66 C1 65 -3 66 -10 70 C-21 75 -21 75 -26 75 C-28 73 -28 73 -28 68 C-29 63 -29 63 -32 58 C-35 56 -38 54 -41 52 C-41 52 -41 52 -42 49 C-41 47 -40 46 -39 44 C-34 43 -33 44 -28 46 C-26 47 -25 47 -23 48 C-23 48 -23 48 -21 47 C-22 42 -22 42 -24 37 C-25 37 -25 37 -26 37 C-26 36 -26 35 -25 34 C-25 33 -25 32 -25 31 C-26 30 -26 30 -27 29 C-18 27 -18 27 -14 27 C-12 22 -11 18 -11 13 C-11 13 -10 12 -10 12 C-10 11 -10 11 -9 7 C-8 -1 -7 -1 0 0 Z " fill="#F9FBFC" transform="translate(184,65)"/>
<path d="M0 0 C4 -0 4 -0 8 0 C9 1 9 3 10 4 C12 4 13 4 15 4 C17 4 18 4 20 4 C21 5 21 7 22 8 C23 8 24 8 25 8 C25 9 25 9 25 11 C25 12 25 12 26 15 C27 15 28 16 29 16 C29 20 29 20 29 24 C29 26 29 28 29 29 C29 33 29 33 28 34 C25 34 23 34 20 34 C19 34 17 34 16 34 C12 34 12 34 11 33 C11 31 11 28 10 26 C10 25 10 23 10 22 C10 21 10 20 10 19 C6 19 2 19 -2 19 C-2 27 -2 35 -2 43 C-2 45 -2 48 -2 51 C-2 55 -2 58 -2 62 C-2 64 -2 65 -2 66 C-2 69 -2 72 -2 75 C-1 76 1 78 2 79 C3 79 5 79 6 79 C10 75 11 74 11 69 C10 67 10 65 10 63 C9 63 8 63 6 62 C5 62 4 61 3 61 C2 56 2 56 2 51 C3 49 3 47 3 45 C3 41 3 41 4 40 C8 40 12 40 16 40 C17 40 18 40 19 40 C28 40 28 40 29 41 C29 44 29 48 29 51 C29 52 29 53 29 54 C29 57 29 60 29 64 C29 66 29 68 29 70 C29 75 29 81 29 86 C28 86 27 86 26 86 C25 87 25 89 24 90 C23 90 23 90 22 90 C21 91 21 93 20 94 C17 94 13 94 10 94 C9 95 9 97 8 98 C4 98 4 98 0 98 C-1 97 -1 95 -2 94 C-4 94 -5 94 -7 94 C-9 94 -10 94 -12 94 C-13 93 -13 91 -14 90 C-15 90 -16 89 -17 89 C-17 88 -18 88 -18 87 C-19 87 -20 86 -21 86 C-21 83 -21 83 -21 79 C-21 78 -21 76 -21 75 C-21 73 -21 72 -21 70 C-21 68 -21 67 -21 65 C-21 62 -21 58 -21 55 C-21 50 -21 44 -21 39 C-21 36 -21 32 -21 29 C-21 27 -21 26 -21 24 C-21 23 -21 21 -21 20 C-21 19 -21 17 -21 16 C-21 15 -21 14 -21 13 C-20 13 -19 12 -18 12 C-17 11 -17 9 -16 8 C-15 8 -15 8 -14 8 C-13 7 -13 5 -12 4 C-9 4 -5 4 -2 4 C-1 3 -1 1 0 0 Z " fill="#242534" transform="translate(134,313)"/>
<path d="M0 0 C6 -0 12 -0 18 -0 C20 -0 22 -0 24 -0 C25 -0 27 -0 29 -0 C30 -0 32 -0 33 -0 C35 -0 36 -0 37 0 C38 1 38 3 39 4 C40 5 42 5 43 6 C43 7 43 7 43 8 C44 8 45 8 46 8 C46 9 46 9 46 11 C47 13 47 14 47 15 C48 16 49 16 50 17 C50 21 50 25 50 29 C50 30 50 31 50 32 C50 35 50 38 50 41 C49 41 48 42 47 42 C46 43 46 45 45 46 C44 46 44 46 43 46 C42 47 42 49 41 50 C40 50 40 50 39 50 C38 51 38 53 37 54 C35 54 33 54 31 54 C30 55 30 57 29 58 C27 58 27 58 19 59 C19 69 18 79 18 90 C2 90 2 90 -2 88 C-4 86 -4 86 -4 84 C-3 84 -3 84 0 83 C0 79 0 79 -0 73 C-0 71 -0 69 -0 67 C-1 66 -1 65 -1 63 C-2 63 -3 62 -4 62 C-4 58 -4 58 -4 54 C-4 52 -4 50 -4 48 C-4 47 -4 45 -4 43 C-4 41 -4 39 -4 38 C-4 37 -4 37 -4 32 C-4 32 -4 32 -4 28 C-4 26 -4 25 -4 24 C-3 24 -2 23 -1 23 C-1 19 -0 15 -0 11 C-0 10 -0 9 -0 8 C-0 5 -0 3 0 0 Z " fill="#1F1F2D" transform="translate(29,317)"/>
<path d="M0 0 C2 0 3 0 5 0 C6 1 6 3 7 4 C9 4 11 4 13 4 C14 5 14 7 15 8 C17 8 19 8 21 8 C22 9 22 11 23 12 C24 13 26 13 27 14 C27 15 27 15 27 16 C29 16 31 16 33 16 C33 17 33 17 35 20 C36 20 37 20 38 20 C38 25 38 30 36 35 C35 42 35 48 36 55 C36 56 35 58 35 59 C35 61 35 63 35 65 C35 66 35 67 35 69 C35 71 36 74 36 76 C36 77 36 77 36 80 C36 81 36 82 36 83 C36 86 35 89 34 92 C28 92 23 89 18 86 C12 81 9 74 5 68 C3 65 3 65 0 63 C-6 62 -12 61 -19 61 C-22 61 -22 61 -27 58 C-27 55 -27 55 -27 51 C-28 50 -28 48 -29 47 C-29 43 -29 43 -28 40 C-29 40 -29 40 -30 40 C-30 39 -29 37 -29 36 C-27 35 -24 35 -22 34 C-17 31 -12 28 -7 25 C-3 22 -3 22 1 21 C4 19 4 19 8 15 C9 14 10 12 11 11 C16 12 16 12 20 14 C20 13 20 12 20 11 C18 10 16 10 14 9 C6 5 6 5 4 3 C3 2 1 1 0 0 Z " fill="#5D63DC" transform="translate(261,65)"/>
<path d="M0 0 C8 0 16 0 25 0 C26 1 26 3 27 4 C31 4 31 4 36 4 C39 4 42 4 45 4 C48 7 46 13 46 18 C42 18 42 18 19 19 C19 26 19 32 19 39 C25 39 32 40 38 40 C38 46 38 52 38 58 C32 58 25 59 19 59 C19 66 19 72 19 79 C23 79 23 79 46 80 C46 86 46 92 46 98 C31 98 16 98 0 98 C0 66 0 33 0 0 Z " fill="#6A72E2" transform="translate(101,433)"/>
<path d="M0 0 C4 -1 4 -1 8 -0 C9 -1 11 -1 12 -1 C14 -0 15 -0 16 0 C17 1 17 3 18 4 C21 4 21 4 26 4 C27 4 28 4 30 4 C30 4 30 4 33 4 C33 9 33 13 33 18 C25 18 18 19 10 19 C10 26 10 32 10 39 C16 39 23 40 29 40 C29 45 29 49 29 54 C28 54 27 54 26 54 C25 55 25 57 24 58 C19 59 15 59 10 59 C10 64 10 70 10 75 C11 75 13 75 14 75 C16 75 17 75 19 75 C21 75 22 75 24 75 C25 75 25 75 28 76 C29 77 29 79 30 80 C31 80 32 80 33 80 C33 85 33 89 33 94 C19 94 5 94 -9 94 C-9 90 -10 87 -10 83 C-11 82 -12 82 -13 81 C-13 77 -13 73 -13 69 C-13 67 -13 66 -13 65 C-13 62 -13 60 -13 57 C-13 53 -13 49 -13 45 C-13 42 -13 40 -13 37 C-13 36 -13 35 -13 34 C-13 31 -13 28 -13 25 C-12 24 -11 24 -10 23 C-9 19 -9 19 -9 13 C-9 12 -9 10 -9 8 C-9 7 -9 7 -9 4 C-8 4 -7 4 -6 4 C-4 4 -3 4 -2 4 C-1 3 -1 1 0 0 Z " fill="#2E2F3D" transform="translate(182,313)"/>
<path d="M0 0 C4 -1 4 -1 8 -0 C9 -1 11 -1 12 -1 C14 -0 15 -0 16 0 C17 1 17 3 18 4 C20 4 23 4 25 4 C25 9 25 13 25 18 C21 18 21 18 -2 19 C-2 26 -2 32 -2 39 C4 39 11 40 17 40 C17 46 17 52 17 58 C11 58 4 59 -2 59 C-2 66 -2 72 -2 79 C2 79 2 79 25 80 C25 86 25 92 25 98 C10 98 -5 98 -21 98 C-21 67 -21 36 -21 4 C-15 4 -8 4 -2 4 C-1 3 -1 1 0 0 Z " fill="#5F65DF" transform="translate(238,433)"/>
<path d="M0 0 C2 0 3 0 5 0 C6 0 8 0 10 0 C11 0 12 0 13 0 C13 1 13 2 13 4 C14 4 14 4 14 7 C15 7 16 8 17 8 C18 10 18 13 18 15 C19 16 20 16 21 17 C22 20 22 20 22 23 C24 23 25 23 26 23 C26 21 26 20 26 18 C27 16 27 14 27 12 C28 12 29 11 30 11 C31 7 31 4 31 0 C37 0 43 0 49 0 C49 11 49 11 49 14 C48 14 47 15 46 15 C46 17 46 19 46 21 C46 22 45 24 45 26 C44 26 43 27 42 27 C42 29 42 31 42 33 C42 34 41 36 41 38 C40 38 39 39 38 39 C38 40 38 41 38 43 C38 44 37 45 37 46 C36 46 35 47 34 47 C34 52 34 52 34 57 C34 59 34 60 34 61 C34 64 34 67 33 71 C33 73 33 75 33 77 C33 83 33 89 33 94 C27 94 21 94 15 94 C15 93 15 93 15 86 C15 82 15 78 15 75 C15 73 15 71 15 69 C15 68 15 68 15 64 C15 62 15 60 15 59 C14 58 14 56 14 55 C14 55 14 55 11 54 C11 50 11 47 10 43 C9 43 8 42 7 42 C7 38 7 35 6 31 C5 31 4 30 3 30 C3 26 3 23 2 19 C1 19 0 18 -1 18 C-1 16 -1 13 -2 11 C-3 10 -4 10 -5 9 C-5 5 -5 5 -5 1 C-4 0 -4 0 0 0 Z " fill="#6A6FE1" transform="translate(157.81640625,436.90234375)"/>
<path d="M0 0 C0 14 -1 27 -10 39 C-11 39 -11 39 -12 39 C-12 40 -12 42 -12 43 C-8 44 -8 44 -4 45 C15 49 26 59 37 74 C43 84 46 94 46 106 C46 107 46 108 46 110 C46 113 46 113 44 116 C42 117 41 117 39 118 C37 114 37 114 38 110 C39 97 35 83 29 72 C29 72 29 72 26 71 C26 70 25 69 25 68 C21 62 14 57 7 54 C-5 53 -18 52 -28 60 C-32 64 -32 64 -35 67 C-35 67 -35 67 -37 69 C-39 69 -41 69 -43 69 C-44 70 -44 72 -45 73 C-46 71 -46 71 -46 65 C-48 64 -49 63 -51 62 C-52 60 -52 59 -53 57 C-53 57 -53 57 -52 56 C-52 48 -52 41 -53 33 C-53 32 -53 30 -53 29 C-53 29 -52 28 -52 28 C-48 28 -43 29 -39 30 C-26 31 -26 31 -20 27 C-20 26 -19 26 -19 25 C-18 25 -16 25 -15 25 C-15 24 -15 23 -15 23 C-14 17 -10 14 -7 10 C-6 10 -6 10 -5 10 C-5 9 -5 7 -5 6 C-5 5 -5 3 -5 2 C-2 0 -2 0 0 0 Z " fill="#5158D7" transform="translate(117,160)"/>
<path d="M0 0 C1 0 3 1 4 1 C4 5 5 9 5 13 C5 13 5 13 5 16 C5 20 5 25 4 29 C4 31 4 34 5 37 C5 43 4 49 4 55 C4 62 4 70 4 78 C4 84 4 89 4 95 C4 98 4 101 4 104 C4 108 4 111 4 115 C4 117 4 118 4 119 C4 122 4 124 4 127 C4 127 4 127 1 128 C0 132 0 132 0 135 C-1 135 -2 135 -3 135 C-4 136 -4 138 -5 139 C-6 139 -6 139 -7 139 C-8 140 -8 142 -9 143 C-10 143 -10 143 -11 143 C-12 144 -12 146 -13 147 C-15 147 -17 147 -19 147 C-16 144 -16 144 -11 141 C-10 139 -8 138 -7 136 C-6 136 -6 136 -5 136 C-5 135 -5 134 -5 133 C-9 135 -9 135 -12 138 C-13 138 -13 138 -17 140 C-17 139 -17 139 -18 135 C-26 128 -35 122 -44 116 C-47 113 -51 111 -54 108 C-54 107 -54 107 -54 106 C-58 104 -58 104 -62 103 C-62 103 -62 103 -64 105 C-66 105 -68 105 -70 105 C-69 104 -67 102 -66 101 C-65 101 -63 101 -62 101 C-62 99 -61 98 -61 96 C-60 95 -60 95 -56 95 C-55 95 -53 95 -52 95 C-50 95 -49 95 -47 95 C-46 95 -44 95 -43 95 C-40 95 -40 95 -37 93 C-32 93 -30 93 -26 95 C-24 95 -22 96 -20 96 C-14 97 -9 98 -3 99 C-4 105 -4 105 -5 107 C-4 107 -4 107 -3 107 C-2 112 -2 116 -2 120 C-2 122 -2 123 -2 124 C-2 125 -2 126 -2 127 C-1 127 -1 127 0 127 C-0 125 -0 123 -0 121 C-0 119 -0 116 -0 114 C-0 113 -0 111 -0 110 C-0 109 -0 108 -0 106 C-0 105 -0 104 -0 103 C0 100 0 100 1 95 C1 92 1 90 1 87 C1 86 1 84 1 82 C1 81 1 79 1 78 C1 76 1 74 1 73 C1 71 1 70 1 68 C1 67 1 67 1 64 C1 60 1 57 0 53 C-0 49 -0 45 -0 40 C-0 39 -0 38 -0 37 C-0 32 0 26 1 21 C1 15 1 10 0 4 C0 3 0 1 0 0 Z " fill="#656AE1" transform="translate(299,92)"/>
<path d="M0 0 C2 2 2 2 3 6 C6 11 13 13 19 15 C20 16 22 17 24 18 C29 20 34 22 39 24 C41 25 42 25 44 26 C44 27 44 27 44 28 C47 28 47 28 51 27 C51 27 51 27 52 24 C56 23 56 23 60 23 C60 23 60 23 58 26 C56 26 54 26 52 26 C51 27 51 29 50 30 C48 30 46 30 44 30 C43 31 43 33 42 34 C40 34 38 34 36 34 C35 35 35 37 34 38 C32 38 30 38 28 38 C27 39 27 41 26 42 C24 42 22 42 20 42 C19 43 19 45 18 46 C17 46 17 46 16 46 C15 47 15 49 14 50 C12 50 10 50 8 50 C7 51 7 53 6 54 C4 54 2 54 0 54 C-1 55 -1 57 -2 58 C-4 58 -6 58 -8 58 C-9 59 -9 61 -10 62 C-12 62 -14 62 -16 62 C-17 63 -17 65 -18 66 C-20 66 -22 66 -24 66 C-25 67 -25 69 -26 70 C-27 70 -27 70 -28 70 C-29 71 -29 73 -30 74 C-34 75 -34 75 -40 74 C-42 75 -44 75 -46 75 C-47 74 -48 74 -50 74 C-51 73 -51 71 -52 70 C-54 70 -56 70 -58 70 C-59 69 -59 67 -60 66 C-61 65 -63 65 -64 64 C-64 63 -64 63 -64 62 C-66 62 -68 62 -70 62 C-71 61 -71 59 -72 58 C-71 58 -69 59 -68 59 C-63 60 -63 60 -59 58 C-59 57 -58 57 -58 56 C-57 56 -57 56 -56 56 C-56 57 -56 57 -56 58 C-55 59 -53 59 -52 60 C-51 61 -49 62 -48 63 C-45 63 -45 63 -41 63 C-40 63 -39 63 -38 63 C-37 63 -36 63 -35 63 C-35 63 -35 63 -34 61 C-32 60 -30 59 -29 58 C-28 58 -28 58 -26 57 C-23 56 -23 56 -21 56 C-21 55 -21 55 -21 54 C-18 53 -16 51 -13 50 C-11 49 -10 48 -8 47 C-7 47 -7 47 -6 47 C-6 46 -6 46 -6 45 C-5 44 -3 44 -2 43 C-0 40 -1 37 -1 33 C-1 33 -1 33 -2 30 C-3 26 -3 22 -3 18 C-2 18 -1 18 0 18 C-0 17 -0 17 -1 13 C-1 9 -1 5 -1 1 C-1 1 -0 0 0 0 Z " fill="#5F64E0" transform="translate(220,217)"/>
<path d="M0 0 C3 -1 3 -1 6 -1 C7 -1 9 -1 10 -1 C11 -1 11 -1 14 -0 C15 -1 17 -1 18 -1 C19 -1 19 -1 22 -1 C22 -1 22 -1 25 -1 C26 -0 27 -0 28 0 C29 1 29 3 30 4 C32 4 34 4 36 4 C36 5 36 5 38 8 C40 8 42 8 44 8 C44 9 44 9 46 12 C48 12 50 12 52 12 C52 13 52 13 54 16 C55 17 57 17 58 18 C58 19 58 19 58 20 C60 20 62 20 64 20 C64 21 64 21 66 24 C68 24 70 24 72 24 C72 25 72 25 74 28 C76 28 78 28 80 28 C80 29 80 29 82 32 C83 33 85 33 86 34 C86 34 86 34 83 35 C83 35 83 35 80 33 C80 32 80 32 80 31 C70 33 70 33 69 34 C65 34 65 34 61 34 C58 31 58 31 56 28 C56 27 56 26 56 25 C56 25 56 25 53 24 C53 24 53 24 54 21 C55 21 56 21 57 21 C57 20 57 20 57 19 C55 18 54 18 52 17 C52 16 52 16 52 15 C51 15 50 15 49 15 C47 14 46 14 45 14 C45 14 45 14 44 12 C42 11 40 11 38 10 C38 11 38 11 39 14 C38 14 38 14 37 14 C35 20 35 21 36 27 C37 29 38 30 39 32 C41 37 41 37 40 42 C37 45 34 46 30 47 C25 46 25 45 22 41 C21 40 21 39 20 38 C18 35 18 35 13 33 C11 34 9 36 7 37 C4 37 4 37 1 36 C-2 32 -2 32 -3 27 C-5 22 -6 20 -10 17 C-14 16 -17 15 -21 15 C-21 16 -21 16 -21 17 C-24 18 -27 19 -30 20 C-29 19 -29 17 -28 16 C-26 16 -24 16 -22 16 C-21 15 -21 13 -20 12 C-18 12 -16 12 -14 12 C-13 11 -13 9 -12 8 C-10 8 -8 8 -6 8 C-5 7 -5 5 -4 4 C-3 4 -3 4 -2 4 C-1 3 -1 1 0 0 Z " fill="#6267E1" transform="translate(166,25)"/>
<path d="M0 0 C1 0 1 0 5 2 C6 7 6 8 3 12 C2 13 2 14 1 14 C-4 21 -4 21 -4 25 C-3 29 -1 33 1 37 C3 42 5 47 5 52 C3 52 2 52 0 52 C0 53 0 54 0 55 C-3 56 -3 56 -8 57 C-9 57 -10 57 -12 58 C-16 58 -18 58 -22 57 C-23 56 -24 55 -25 53 C-29 48 -33 45 -39 42 C-39 41 -38 41 -38 40 C-37 40 -35 40 -34 40 C-34 38 -33 35 -33 33 C-36 33 -38 34 -41 34 C-41 35 -42 35 -42 36 C-46 36 -46 36 -48 34 C-49 33 -50 32 -51 31 C-52 30 -54 29 -55 28 C-55 26 -54 25 -54 23 C-46 19 -38 19 -29 19 C-29 18 -29 17 -29 16 C-26 16 -24 17 -21 17 C-21 17 -21 17 -22 15 C-23 15 -25 14 -26 14 C-26 13 -27 12 -27 11 C-28 10 -29 9 -30 8 C-25 8 -23 9 -19 12 C-16 12 -16 12 -12 11 C-10 8 -7 6 -5 3 C-3 2 -2 1 0 0 Z " fill="#FBFBFD" transform="translate(231,88)"/>
<path d="M0 0 C3 0 3 0 6 1 C6 2 7 3 7 4 C9 4 12 5 14 5 C15 6 16 7 17 8 C18 8 18 9 19 9 C19 10 19 10 19 11 C18 11 17 12 16 12 C16 13 16 13 16 14 C17 14 17 15 18 15 C19 17 19 18 20 20 C21 21 22 21 23 22 C23 23 23 23 23 24 C27 24 30 23 34 22 C37 21 37 21 42 21 C43 22 44 23 45 24 C46 24 48 25 49 25 C54 26 56 27 59 31 C60 32 62 32 63 33 C63 34 63 34 63 35 C65 35 66 36 68 36 C72 38 75 40 78 43 C78 43 78 43 77 45 C76 44 74 44 73 43 C71 43 70 42 68 42 C66 44 64 46 62 49 C59 52 55 53 51 55 C50 56 49 57 48 58 C44 61 39 64 34 64 C34 63 34 63 34 62 C35 61 36 61 37 60 C37 59 38 57 38 56 C39 56 39 56 40 56 C40 55 40 54 40 53 C41 47 45 46 49 42 C51 38 51 38 52 35 C46 35 46 35 44 36 C39 37 34 37 29 37 C24 38 24 38 19 40 C16 41 13 41 9 42 C0 43 0 43 -1 44 C-3 44 -4 44 -6 44 C-8 42 -8 42 -10 39 C-10 38 -10 37 -10 36 C-8 35 -5 35 -3 34 C-2 33 -0 33 1 32 C2 25 -0 23 -3 17 C-4 12 -5 10 -2 6 C-1 5 -1 4 0 3 C0 2 0 1 0 0 Z " fill="#5C62DB" transform="translate(204,35)"/>
<path d="M0 0 C6 0 12 0 18 0 C18 30 18 59 18 90 C12 90 6 90 0 90 C0 60 0 31 0 0 Z " fill="#040515" transform="translate(85,317)"/>
<path d="M0 0 C7 0 15 0 22 0 C22 2 22 4 22 5 C23 7 23 9 23 11 C24 11 25 12 26 12 C27 18 29 23 27 29 C26 28 25 28 24 27 C17 23 17 23 13 23 C7 29 8 37 8 45 C9 45 9 46 10 46 C11 49 11 49 11 54 C12 60 12 60 14 63 C14 62 14 61 14 60 C14 59 14 57 14 56 C14 55 14 54 14 52 C14 49 14 49 15 47 C16 47 16 47 17 47 C19 52 19 52 18 55 C18 59 18 63 19 67 C19 67 19 67 22 69 C22 73 22 73 22 78 C22 79 22 81 22 82 C22 84 22 85 22 86 C21 86 20 86 19 86 C18 87 18 89 17 90 C11 90 6 90 0 90 C0 60 0 31 0 0 Z " fill="#282937" transform="translate(281,317)"/>
<path d="M0 0 C4 -1 4 -1 8 -0 C9 -1 11 -1 12 -1 C14 -0 15 -0 16 0 C17 1 17 3 18 4 C20 4 23 4 25 4 C25 9 25 13 25 18 C20 18 16 18 11 19 C10 19 9 19 7 19 C6 19 5 19 4 19 C3 19 1 19 0 19 C-3 19 -6 19 -9 17 C-9 16 -9 14 -9 13 C-11 13 -12 13 -14 13 C-14 13 -15 12 -15 12 C-15 14 -16 16 -16 19 C-16 20 -16 21 -17 23 C-17 26 -17 26 -16 30 C-16 33 -16 36 -16 39 C-17 39 -18 39 -19 39 C-19 41 -18 42 -18 44 C-14 57 -16 70 -18 83 C-18 87 -18 90 -18 94 C-9 98 6 95 16 93 C18 93 19 93 21 93 C21 87 21 87 20 85 C15 84 10 84 4 83 C1 83 1 83 -4 80 C-5 76 -5 76 -6 73 C-7 73 -7 72 -8 72 C-8 70 -8 69 -8 67 C-7 67 -7 67 -6 67 C-6 66 -6 65 -7 64 C-7 63 -7 63 -7 60 C-3 56 -0 55 5 53 C6 53 8 53 9 53 C9 54 9 54 9 55 C12 54 14 54 17 53 C17 55 17 56 17 58 C11 58 4 59 -2 59 C-2 66 -2 72 -2 79 C2 79 2 79 25 80 C25 86 25 92 25 98 C10 98 -5 98 -21 98 C-21 67 -21 36 -21 4 C-15 4 -8 4 -2 4 C-1 3 -1 1 0 0 Z " fill="#9197E7" transform="translate(238,433)"/>
<path d="M0 0 C4 -0 8 -0 12 -0 C14 -0 15 -0 16 -0 C19 -0 22 -0 25 0 C26 1 26 3 27 4 C31 4 31 4 36 4 C39 4 42 4 45 4 C46 5 46 5 46 8 C46 9 46 10 46 12 C46 13 46 14 46 15 C46 16 46 17 46 18 C44 18 42 18 40 18 C38 18 35 18 33 18 C32 18 32 18 29 18 C28 18 26 18 25 18 C24 19 23 19 22 19 C19 19 19 19 16 22 C15 22 15 22 14 22 C14 24 14 27 14 29 C14 31 14 32 14 34 C14 37 14 37 15 39 C16 39 17 40 18 40 C18 41 18 41 18 42 C19 42 19 42 22 42 C23 43 24 43 26 43 C27 43 27 43 30 44 C31 44 32 45 33 45 C34 49 34 49 33 53 C28 54 24 54 19 53 C17 51 16 49 14 47 C10 46 10 46 7 47 C6 48 5 50 4 51 C4 50 3 48 3 47 C3 46 2 44 2 43 C1 43 1 42 0 42 C-0 39 -0 36 -0 33 C-0 31 -0 29 -0 27 C-0 25 -0 23 -0 21 C-0 19 -0 17 -0 15 C-0 10 -0 5 0 0 Z " fill="#7B80E3" transform="translate(101,433)"/>
<path d="M0 0 C2 0 3 0 5 0 C6 1 6 3 7 4 C9 4 11 4 13 4 C14 5 14 7 15 8 C17 8 19 8 21 8 C22 9 22 11 23 12 C24 13 26 13 27 14 C27 15 27 15 27 16 C29 16 31 16 33 16 C33 17 33 17 35 20 C36 20 37 20 38 20 C38 22 38 25 38 27 C38 26 38 26 36 23 C32 25 32 25 29 29 C20 38 10 43 -2 45 C-4 46 -5 46 -7 47 C-9 47 -10 47 -12 47 C-18 47 -22 48 -27 51 C-29 46 -29 45 -28 40 C-29 40 -29 40 -30 40 C-30 39 -29 37 -29 36 C-27 35 -24 35 -22 34 C-17 31 -12 28 -7 25 C-3 22 -3 22 1 21 C4 19 4 19 8 15 C9 14 10 12 11 11 C16 12 16 12 20 14 C20 13 20 12 20 11 C18 10 16 10 14 9 C6 5 6 5 4 3 C3 2 1 1 0 0 Z " fill="#6A6EE2" transform="translate(261,65)"/>
<path d="M0 0 C1 0 1 0 5 2 C5 3 6 4 6 5 C7 5 7 5 8 5 C9 7 10 9 11 11 C11 11 12 12 12 12 C17 12 17 12 20 11 C25 10 29 9 34 9 C37 8 37 8 42 6 C45 6 49 5 52 5 C57 4 62 4 67 3 C68 3 69 4 70 4 C69 9 67 12 63 15 C60 18 59 21 58 25 C57 25 57 25 56 25 C56 26 56 26 55 30 C54 30 53 31 52 31 C52 31 52 31 53 34 C53 34 52 35 52 35 C50 35 49 35 47 35 C48 34 48 32 49 31 C49 29 50 28 50 26 C49 25 48 24 47 23 C42 25 41 26 37 30 C36 30 35 31 34 31 C34 32 33 33 33 34 C30 35 30 35 26 35 C22 33 22 33 18 30 C17 30 15 29 14 29 C14 28 14 28 14 27 C12 27 10 27 8 27 C3 21 2 15 1 8 C0 7 -0 5 -1 4 C-1 3 -0 1 0 0 Z " fill="#5056D7" transform="translate(186,66)"/>
<path d="M0 0 C6 6 4 17 4 26 C4 29 4 32 4 36 C4 38 4 40 4 42 C4 43 4 45 4 47 C4 52 3 55 1 59 C-3 60 -3 60 -8 60 C-11 58 -11 58 -13 55 C-13 51 -14 47 -14 43 C-14 42 -14 41 -14 40 C-14 38 -14 35 -14 33 C-14 29 -14 26 -14 22 C-14 20 -14 18 -14 15 C-14 14 -14 13 -14 12 C-13 4 -13 4 -9 0 C-5 -1 -4 -1 0 0 Z " fill="#FCFCFD" transform="translate(253,332)"/>
<path d="M0 0 C12 12 22 26 23 44 C23 45 23 46 23 47 C23 49 23 50 23 51 C23 55 23 55 21 58 C19 58 17 59 16 60 C14 56 14 56 14 51 C15 39 11 25 6 14 C5 14 5 14 3 13 C2 12 2 11 2 10 C-2 3 -10 -1 -16 -4 C-29 -6 -41 -6 -51 2 C-56 5 -56 5 -58 9 C-59 9 -60 10 -60 11 C-62 11 -64 11 -66 11 C-67 12 -68 13 -68 15 C-69 13 -69 13 -69 9 C-65 -1 -56 -6 -47 -11 C-31 -19 -13 -12 0 0 Z " fill="#282E89" transform="translate(140.375,218.3125)"/>
<path d="M0 0 C3 -0 3 -0 9 1 C10 2 10 3 11 5 C13 5 15 5 17 5 C18 6 18 7 19 9 C20 9 22 10 23 11 C23 11 23 12 23 13 C24 13 26 14 27 15 C27 15 27 16 27 17 C28 17 29 17 30 18 C30 22 30 26 30 31 C30 32 30 33 30 35 C30 38 30 40 30 43 C30 48 30 52 30 56 C30 59 30 62 30 64 C30 66 30 67 30 68 C30 71 30 75 30 78 C29 78 28 79 27 80 C26 83 26 83 26 87 C25 87 24 87 23 87 C22 88 22 89 21 91 C20 91 20 91 19 91 C18 92 18 93 17 95 C15 95 13 95 11 95 C10 96 10 97 9 99 C6 99 6 99 3 99 C3 99 3 99 -0 99 C-1 99 -2 99 -3 99 C-4 97 -4 96 -5 95 C-7 95 -9 95 -11 95 C-12 93 -12 92 -13 91 C-14 90 -16 89 -17 89 C-17 88 -18 87 -18 86 C-18 86 -18 86 -17 85 C-13 85 -13 85 -10 86 C-10 87 -9 88 -9 90 C-6 90 -6 90 -1 91 C1 91 3 91 5 91 C10 92 10 92 15 91 C15 90 15 90 16 88 C16 87 16 87 16 85 C17 85 17 85 21 84 C22 78 22 73 23 68 C23 62 23 57 24 52 C24 48 24 48 23 44 C23 39 23 33 23 28 C22 23 21 22 18 19 C17 17 17 16 16 14 C14 11 14 11 11 10 C9 10 8 10 7 10 C5 10 3 10 1 10 C1 9 0 9 0 9 C-3 9 -5 9 -8 9 C-5 1 -5 1 0 0 Z " fill="#393945" transform="translate(244.93359375,312.328125)"/>
<path d="M0 0 C1 0 2 0 3 0 C3 1 4 3 4 4 C7 5 7 5 11 5 C15 5 18 5 22 6 C26 7 29 7 32 7 C34 7 36 7 38 7 C40 10 40 10 40 13 C39 16 39 16 37 19 C34 24 33 29 33 35 C32 35 32 35 31 35 C30 34 29 33 28 32 C27 33 27 35 26 36 C25 36 25 36 22 37 C22 37 21 38 21 38 C17 38 14 38 10 38 C10 30 9 24 14 17 C10 13 6 12 1 10 C0 9 -0 9 -1 8 C-1 7 -0 5 0 4 C0 3 0 1 0 0 Z " fill="#FAFCFD" transform="translate(182,186)"/>
<path d="M0 0 C1 0 1 1 2 1 C2 2 2 4 2 5 C3 5 3 5 4 5 C4 8 4 10 4 13 C5 13 5 13 6 13 C6 12 6 12 6 11 C7 11 8 11 9 11 C9 13 10 14 10 16 C10 15 10 15 12 10 C12 10 12 10 14 5 C15 5 15 5 16 5 C16 22 17 39 17 57 C16 57 15 57 14 57 C12 52 11 49 11 44 C11 42 11 40 10 39 C10 38 10 36 10 35 C10 36 9 38 9 39 C8 39 7 39 6 39 C6 38 5 38 5 37 C5 38 5 40 5 41 C5 43 5 44 5 46 C5 48 4 49 4 51 C4 55 3 59 2 63 C1 62 1 61 0 60 C-1 60 -2 59 -3 59 C-3 55 -3 51 -3 46 C-3 45 -3 44 -3 42 C-3 40 -3 37 -3 34 C-3 30 -3 26 -3 22 C-3 19 -3 16 -3 14 C-3 12 -3 11 -3 10 C-3 7 -3 4 -3 1 C-2 1 -1 0 0 0 Z " fill="#272734" transform="translate(224,332)"/>
<path d="M0 0 C8 0 12 3 19 6 C19 6 19 6 21 9 C29 12 29 12 33 10 C34 9 35 9 36 8 C37 8 37 8 38 8 C38 7 39 6 39 5 C40 5 40 5 47 4 C47 3 48 2 48 1 C52 0 52 0 56 0 C55 1 55 2 54 3 C52 3 50 3 48 3 C47 4 47 6 46 7 C44 7 42 7 40 7 C39 8 39 10 38 11 C36 11 34 11 32 11 C31 12 31 14 30 15 C28 15 26 15 24 15 C23 16 23 18 22 19 C20 19 18 19 16 19 C15 20 15 22 14 23 C13 23 13 23 12 23 C11 24 11 26 10 27 C8 27 6 27 4 27 C3 28 3 30 2 31 C0 31 -2 31 -4 31 C-5 32 -5 34 -6 35 C-8 35 -10 35 -12 35 C-13 36 -13 38 -14 39 C-16 39 -18 39 -20 39 C-21 40 -21 42 -22 43 C-24 43 -26 43 -28 43 C-29 44 -29 46 -30 47 C-31 47 -31 47 -32 47 C-33 48 -33 50 -34 51 C-38 52 -38 52 -44 52 C-46 52 -48 52 -50 52 C-51 51 -52 51 -54 51 C-55 50 -55 48 -56 47 C-58 47 -60 47 -62 47 C-63 46 -63 44 -64 43 C-65 42 -67 42 -68 41 C-68 40 -68 40 -68 39 C-70 39 -72 39 -74 39 C-75 38 -75 36 -76 35 C-71 37 -67 38 -62 41 C-62 42 -62 43 -62 44 C-61 44 -59 45 -58 45 C-56 46 -55 46 -53 47 C-48 47 -48 47 -44 46 C-44 45 -43 44 -43 43 C-43 44 -43 45 -43 46 C-40 46 -40 46 -36 46 C-35 45 -35 45 -34 44 C-29 42 -29 42 -24 41 C-24 40 -24 40 -24 39 C-18 36 -18 36 -14 36 C-14 35 -14 35 -14 34 C-9 32 -9 32 -6 32 C-6 32 -6 32 -5 29 C-4 29 -4 29 2 28 C2 28 2 28 3 25 C5 24 6 24 8 23 C8 23 8 23 10 20 C9 20 7 19 6 19 C2 17 2 17 -1 13 C-2 9 -1 5 -1 1 C-1 1 -0 0 0 0 Z " fill="#7F86E6" transform="translate(224,240)"/>
<path d="M0 0 C5 3 9 6 12 11 C12 11 12 12 12 13 C9 13 9 13 5 14 C2 11 2 11 -0 9 C-5 6 -7 7 -12 8 C-17 10 -19 12 -21 17 C-22 26 -22 26 -19 31 C-15 34 -13 36 -9 36 C-5 36 -5 36 -0 33 C1 33 1 33 2 33 C3 31 3 29 4 28 C10 25 10 25 13 25 C11 33 8 36 2 41 C-4 44 -8 44 -15 42 C-22 39 -26 35 -29 28 C-32 20 -29 14 -26 7 C-20 -1 -9 -4 0 0 Z " fill="#272C7C" transform="translate(196.01171875,131.39453125)"/>
<path d="M0 0 C0 0 1 0 1 0 C1 5 2 9 2 14 C3 14 3 14 6 14 C8 14 9 14 11 14 C12 14 12 14 16 14 C17 15 19 15 20 15 C21 16 21 18 22 19 C23 19 24 19 25 19 C25 24 25 28 25 33 C11 33 -3 33 -17 33 C-17 30 -17 27 -17 24 C-16 24 -16 24 -15 24 C-15 23 -15 22 -15 21 C-14 17 -14 17 -13 14 C-12 14 -12 14 -11 14 C-11 15 -10 15 -10 16 C-9 16 -9 16 -8 16 C-7 15 -7 13 -6 12 C-6 13 -6 14 -6 15 C-4 15 -3 16 -1 16 C-1 15 -1 13 -1 12 C-1 8 -1 4 0 0 Z " fill="#2B3044" transform="translate(190,374)"/>
<path d="M0 0 C3 5 4 9 5 15 C6 20 7 23 10 27 C13 28 13 28 16 28 C16 29 16 29 16 30 C17 30 19 31 20 31 C20 31 20 31 18 32 C19 33 20 33 21 34 C21 35 21 36 21 37 C23 37 24 38 26 38 C26 39 26 39 26 40 C25 40 25 40 22 39 C21 39 19 39 18 39 C18 40 17 41 17 42 C16 41 16 41 15 40 C10 36 6 34 0 35 C-2 36 -3 36 -5 37 C-6 38 -8 38 -9 39 C-14 36 -14 36 -17 33 C-18 33 -20 32 -21 32 C-21 31 -20 31 -20 30 C-19 30 -18 30 -17 30 C-17 30 -17 30 -14 29 C-14 27 -13 26 -13 24 C-13 24 -12 23 -12 23 C-12 21 -12 20 -12 18 C-11 13 -11 13 -10 12 C-10 11 -10 11 -9 7 C-8 -1 -7 -1 0 0 Z " fill="#F5F5FB" transform="translate(184,65)"/>
<path d="M0 0 C4 3 6 6 7 11 C7 15 7 15 7 19 C-3 29 -3 29 -8 29 C-14 29 -16 26 -20 23 C-23 18 -22 14 -22 9 C-20 4 -17 2 -12 -1 C-7 -2 -5 -2 0 0 Z " fill="#6970D6" transform="translate(196,139)"/>
<path d="M0 0 C25 -1 25 -1 33 6 C35 7 36 8 38 10 C41 13 41 13 42 18 C40 18 39 18 37 18 C35 19 33 19 31 19 C30 19 30 19 28 19 C23 20 19 20 15 21 C9 21 5 20 0 18 C-1 17 -1 16 -2 15 C-2 13 -1 12 -1 10 C-0 7 0 3 0 0 Z " fill="#6A72D6" transform="translate(101,213)"/>
<path d="M0 0 C1 1 1 3 2 4 C3 4 4 4 5 4 C5 5 5 5 5 7 C5 8 5 8 6 11 C7 11 8 12 9 12 C9 16 9 16 9 20 C9 22 9 24 9 25 C9 29 9 29 8 30 C5 30 3 30 0 30 C-1 30 -1 30 -4 30 C-8 30 -8 30 -9 29 C-9 27 -9 24 -10 22 C-10 21 -10 19 -10 18 C-10 17 -10 16 -10 15 C-13 15 -15 15 -18 15 C-19 15 -19 15 -22 15 C-26 15 -26 15 -29 16 C-30 15 -30 13 -31 12 C-30 11 -29 10 -28 9 C-28 8 -27 6 -27 5 C-22 4 -20 5 -15 7 C-15 5 -14 4 -14 2 C-9 -1 -5 -0 0 0 Z " fill="#292D40" transform="translate(154,317)"/>
<path d="M0 0 C1 0 1 0 2 0 C3 3 3 6 3 10 C4 10 6 9 7 9 C7 10 7 10 8 13 C10 17 10 17 14 19 C16 19 19 19 21 20 C26 20 29 20 34 22 C35 27 35 27 34 30 C22 34 9 34 -3 33 C-4 32 -5 32 -6 31 C-6 27 -6 27 -6 22 C-6 20 -6 19 -6 17 C-5 12 -4 8 -3 4 C-2 4 -2 4 -1 4 C-1 3 -0 1 0 0 Z " fill="#4C52D6" transform="translate(225,496)"/>
<path d="M0 0 C1 -0 3 -0 4 -0 C7 0 7 0 10 2 C-1 4 -1 4 -4 4 C-4 6 -4 7 -5 8 C-6 8 -7 8 -8 8 C-8 10 -8 11 -8 13 C-7 13 -6 13 -5 12 C-0 13 -0 13 3 15 C3 16 3 17 3 18 C2 19 1 19 -1 19 C-1 22 -1 22 -1 27 C-1 28 -1 29 -1 31 C-1 34 -1 34 0 36 C1 37 2 37 3 37 C3 38 3 39 3 39 C4 39 4 39 7 40 C8 40 10 40 11 40 C12 40 12 40 15 41 C16 41 17 42 18 42 C19 46 19 46 18 50 C13 51 10 51 4 50 C3 48 1 46 -1 44 C-4 44 -4 44 -8 44 C-9 46 -10 47 -11 48 C-11 44 -12 41 -11 37 C-10 29 -10 29 -12 25 C-12 21 -12 17 -12 13 C-12 12 -12 11 -12 10 C-12 6 -12 6 -12 1 C-8 0 -4 0 0 0 Z " fill="#5C62DE" transform="translate(115.5625,435.8125)"/>
<path d="M0 0 C6 0 12 0 18 0 C18 30 18 59 18 90 C12 90 6 90 0 90 C0 89 0 87 0 86 C4 86 9 86 13 86 C13 83 13 79 13 76 C14 76 14 76 15 76 C15 75 15 74 15 73 C14 68 14 64 14 59 C14 58 14 58 14 54 C14 51 14 48 13 44 C13 42 13 41 13 39 C13 38 13 38 13 35 C13 31 13 31 11 27 C11 22 11 17 11 12 C11 9 11 9 10 4 C6 3 6 3 3 3 C3 4 3 6 3 7 C3 9 3 11 3 13 C3 15 3 17 3 19 C3 24 3 24 1 29 C1 29 0 29 0 29 C0 19 0 10 0 0 Z " fill="#4A4F61" transform="translate(317,317)"/>
<path d="M0 0 C5 12 4 24 4 36 C4 37 3 37 3 38 C6 43 6 43 10 45 C10 49 10 49 10 52 C11 51 11 49 12 48 C14 48 16 48 18 48 C19 51 19 51 19 56 C23 60 25 61 29 63 C33 65 36 66 39 69 C40 69 42 70 43 70 C44 71 45 72 46 73 C46 73 46 73 48 74 C48 75 48 75 48 76 C50 76 51 77 53 77 C56 79 59 80 62 82 C62 82 62 83 62 83 C60 83 58 83 56 83 C55 82 55 80 54 79 C52 79 50 79 48 79 C47 78 47 76 46 75 C45 74 43 74 42 73 C42 72 42 72 42 71 C40 71 38 71 36 71 C35 70 35 68 34 67 C32 67 30 67 28 67 C27 66 27 64 26 63 C24 63 22 63 20 63 C19 62 19 60 18 59 C17 58 15 58 14 57 C14 56 14 56 14 55 C12 55 10 55 8 55 C7 54 7 52 6 51 C5 50 3 50 2 49 C2 48 2 48 2 47 C1 47 0 47 -1 47 C-1 46 -1 45 -1 44 C-2 42 -2 41 -2 40 C-3 40 -4 39 -5 39 C-5 35 -5 35 -5 31 C-5 29 -5 27 -5 25 C-5 24 -5 22 -5 20 C-5 18 -5 16 -5 15 C-5 14 -5 14 -5 9 C-5 9 -5 9 -5 5 C-5 3 -5 2 -5 1 C-2 0 -2 0 0 0 Z " fill="#8D91E0" transform="translate(62,180)"/>
<path d="M0 0 C0 0 1 0 1 0 C1 15 1 30 1 45 C-5 45 -11 45 -17 45 C-17 32 -17 20 -17 7 C-14 10 -14 10 -14 15 C-14 17 -14 18 -14 20 C-13 20 -13 20 -12 20 C-12 19 -11 17 -11 16 C-11 17 -11 19 -11 20 C-10 20 -9 20 -8 20 C-8 18 -8 16 -8 14 C-7 13 -6 13 -5 12 C-5 12 -4 13 -4 13 C-4 12 -3 11 -3 10 C-3 9 -2 8 -2 6 C-2 5 -1 4 -1 3 C-1 2 -1 2 0 0 Z " fill="#676CDF" transform="translate(190,486)"/>
<path d="M0 0 C1 1 1 3 2 4 C5 7 6 8 11 8 C11 14 10 17 8 22 C7 26 7 31 6 35 C6 37 6 39 6 40 C6 41 6 41 6 44 C6 44 5 44 5 44 C5 39 4 34 4 29 C3 29 3 30 2 30 C1 33 1 33 1 36 C-1 36 -3 36 -5 36 C-5 35 -5 34 -5 33 C-7 25 -7 25 -9 22 C-10 22 -11 21 -12 21 C-13 17 -13 17 -13 12 C-13 10 -13 9 -13 7 C-13 6 -13 4 -13 3 C-12 3 -12 3 -8 4 C-3 0 -3 0 0 0 Z " fill="#5359D8" transform="translate(181,470)"/>
<path d="M0 0 C1 1 3 1 4 2 C4 5 4 5 3 9 C2 14 2 14 3 16 C7 17 10 18 14 19 C12 24 9 27 4 29 C-2 29 -7 30 -13 27 C-18 22 -18 22 -18 18 C-16 10 -11 6 -4 2 C-4 2 -4 2 0 0 Z " fill="#6167E0" transform="translate(98,214)"/>
<path d="M0 0 C4 8 3 17 2 26 C2 32 2 38 2 45 C2 46 2 47 2 48 C2 52 2 57 2 61 C3 65 3 69 3 73 C3 74 3 75 3 77 C3 78 3 80 3 81 C3 83 3 84 3 86 C3 87 3 88 3 90 C3 91 3 92 3 94 C3 97 3 97 2 101 C2 105 2 109 2 113 C2 125 2 125 1 127 C0 127 -0 127 -1 127 C-2 123 -2 119 -2 115 C-2 113 -2 112 -2 110 C-2 109 -2 108 -2 107 C-3 107 -3 107 -4 107 C-4 106 -4 105 -3 104 C-3 99 -3 99 -4 94 C-4 89 -4 85 -3 80 C-3 74 -3 70 -5 65 C-4 65 -4 65 -3 65 C-2 58 -2 51 -2 43 C-3 32 -3 32 -2 27 C-2 25 -2 24 -3 22 C-3 15 -2 7 0 0 Z " fill="#4D53D6" transform="translate(298,92)"/>
<path d="M0 0 C4 -0 7 -0 11 2 C14 5 14 7 14 11 C13 12 13 12 12 13 C11 13 9 13 8 13 C8 14 7 15 7 16 C3 16 -1 16 -5 16 C-13 16 -20 16 -28 17 C-29 8 -29 8 -29 5 C-29 5 -28 4 -28 4 C-22 4 -22 4 -19 5 C-15 5 -11 4 -6 3 C-4 3 -2 3 0 3 C0 2 0 1 0 0 Z " fill="#464DAC" transform="translate(231,140)"/>
<path d="M0 0 C1 0 1 0 5 2 C5 6 5 6 5 9 C6 9 6 9 8 9 C10 9 11 10 13 10 C14 10 16 10 17 10 C21 11 21 11 24 14 C24 20 20 25 17 30 C17 31 16 32 16 33 C12 34 10 34 7 33 C6 32 5 32 4 31 C4 32 3 32 3 33 C3 32 3 31 3 30 C2 26 2 26 0 22 C-1 17 -1 14 -1 10 C-1 9 -2 8 -2 6 C-2 5 -3 4 -3 3 C-2 2 -1 1 0 0 Z " fill="#F7F7FB" transform="translate(159,225)"/>
<path d="M0 0 C4 0 4 0 7 1 C9 7 8 13 9 20 C9 24 9 24 11 28 C11 31 11 35 11 38 C11 39 11 40 11 41 C12 44 12 48 12 51 C12 53 12 55 12 57 C12 62 12 68 12 73 C11 73 10 73 9 73 C9 63 9 54 9 44 C8 44 6 44 5 44 C4 43 3 42 2 41 C1 41 0 41 -1 41 C-1 39 -1 38 -1 36 C-2 30 -2 30 -3 26 C-2 24 -2 23 -1 21 C-1 18 -1 15 -1 12 C-1 3 -1 3 0 0 Z " fill="#030312" transform="translate(320,320)"/>
<path d="M0 0 C0 0 1 0 1 0 C1 2 2 4 2 6 C4 6 5 6 7 6 C10 8 10 8 11 12 C11 17 11 20 10 25 C10 27 10 28 11 30 C11 35 11 35 10 39 C9 39 9 40 8 41 C2 41 -1 39 -6 36 C-7 36 -7 36 -8 36 C-5 26 -5 26 -4 22 C-2 17 -2 12 -2 7 C-1 2 -1 2 0 0 Z " fill="#F5F5FB" transform="translate(118,159)"/>
<path d="M0 0 C2 0 3 0 5 0 C6 0 8 0 10 0 C11 0 12 0 13 0 C13 1 13 2 13 4 C14 4 14 4 14 7 C15 7 16 8 17 8 C18 10 18 13 18 15 C19 16 20 16 21 17 C21 18 21 19 22 20 C22 21 22 22 22 23 C24 23 25 24 26 24 C26 25 26 26 26 27 C23 27 23 27 20 26 C19 22 19 22 18 17 C18 17 17 18 16 18 C16 20 16 21 15 23 C12 24 12 24 9 24 C9 25 9 26 8 27 C8 26 8 26 8 25 C8 25 7 25 6 25 C7 27 7 29 7 31 C6 31 5 30 3 30 C3 26 2 23 2 19 C1 19 0 18 -1 18 C-1 16 -1 13 -2 11 C-3 10 -4 10 -5 9 C-5 5 -5 5 -5 1 C-4 0 -4 0 0 0 Z " fill="#8B90E6" transform="translate(157.81640625,436.90234375)"/>
<path d="M0 0 C0 1 1 1 1 2 C2 2 4 1 5 1 C7 3 6 6 6 9 C6 10 6 11 6 13 C6 16 6 18 7 21 C7 23 7 24 7 25 C7 27 7 28 7 29 C7 32 7 32 9 34 C12 31 10 22 11 18 C11 9 11 9 13 7 C13 17 13 27 13 37 C-3 37 -3 37 -7 35 C-9 33 -9 33 -9 31 C-8 31 -6 30 -5 30 C-5 26 -5 26 -5 20 C-5 13 -5 8 -2 2 C-1 1 -1 1 0 0 Z " fill="#2F3448" transform="translate(34,370)"/>
<path d="M0 0 C2 1 5 2 7 3 C13 5 18 7 24 8 C25 9 25 9 25 13 C25 14 25 16 25 17 C2 15 2 15 -1 12 C-6 12 -8 12 -12 15 C-13 15 -13 14 -14 14 C-17 14 -20 14 -22 14 C-23 14 -23 14 -27 13 C-28 14 -30 14 -31 14 C-32 16 -32 17 -33 19 C-37 20 -37 20 -40 20 C-40 19 -41 17 -41 16 C-38 12 -36 11 -32 10 C-25 9 -19 9 -13 10 C-13 9 -13 9 -13 8 C-12 8 -12 8 -11 8 C-11 7 -10 7 -10 6 C-9 7 -7 8 -6 9 C-6 8 -5 6 -5 5 C-4 5 -4 5 -3 5 C-3 4 -2 2 -2 1 C-1 1 -1 0 0 0 Z " fill="#5D63DC" transform="translate(270,174)"/>
<path d="M0 0 C-0 3 -0 3 -2 7 C-6 7 -6 7 -11 7 C-23 7 -29 9 -38 17 C-39 18 -40 19 -41 20 C-42 21 -42 21 -43 22 C-45 22 -47 22 -49 22 C-50 23 -50 25 -51 26 C-52 24 -52 24 -51 20 C-48 10 -39 5 -30 0 C-20 -4 -10 -3 0 0 Z " fill="#282D86" transform="translate(123,207)"/>
<path d="M0 0 C3 -1 3 -1 6 -1 C7 -1 9 -1 10 -1 C11 -1 11 -1 14 -0 C15 -1 17 -1 18 -1 C19 -1 19 -1 22 -1 C22 -1 22 -1 25 -1 C26 -0 27 -0 28 0 C29 1 29 3 30 4 C32 4 34 4 36 4 C37 5 37 7 38 8 C40 8 42 8 44 8 C45 9 45 11 46 12 C48 12 50 12 52 12 C53 13 53 15 54 16 C55 17 57 17 58 18 C58 19 58 19 58 20 C60 20 62 20 64 20 C64 21 64 21 66 24 C68 24 70 24 72 24 C72 25 72 25 74 28 C76 28 78 28 80 28 C80 29 80 29 82 32 C83 33 85 33 86 34 C86 34 86 34 83 35 C83 35 83 35 80 33 C80 32 80 32 80 31 C70 33 70 33 69 34 C65 34 65 34 61 34 C58 31 58 31 56 28 C56 27 56 26 56 25 C55 25 54 24 53 24 C53 24 53 24 54 21 C55 21 56 21 57 21 C57 20 57 20 57 19 C56 19 56 19 52 17 C52 16 52 16 52 15 C51 15 50 15 49 15 C47 14 46 14 45 14 C45 14 45 14 44 12 C43 12 41 11 40 10 C39 10 37 10 36 9 C36 8 36 8 36 7 C35 7 34 7 33 7 C31 6 30 6 29 6 C29 6 29 6 28 3 C26 3 25 4 23 4 C15 6 9 5 1 3 C1 4 0 5 0 6 C-3 7 -3 7 -6 8 C-5 7 -5 5 -4 4 C-3 4 -3 4 -2 4 C-1 3 -1 1 0 0 Z " fill="#8185E5" transform="translate(166,25)"/>
<path d="M0 0 C1 0 1 0 2 0 C2 7 3 13 3 20 C7 20 7 20 30 21 C30 27 30 33 30 39 C15 39 -0 39 -16 39 C-16 38 -16 36 -16 35 C-13 34 -10 34 -7 34 C-7 35 -6 35 -6 36 C-2 36 3 36 7 35 C10 35 12 35 15 35 C16 34 17 34 18 34 C21 34 23 34 26 34 C26 31 26 31 25 27 C20 26 15 26 9 26 C6 26 6 26 1 23 C-2 18 -2 16 -3 11 C-3 10 -3 9 -3 7 C-3 4 -3 4 0 0 Z " fill="#BBBFED" transform="translate(117,492)"/>
<path d="M0 0 C0 1 0 1 0 2 C3 1 5 1 8 0 C8 2 8 3 8 5 C2 5 -5 6 -11 6 C-11 13 -11 19 -11 26 C-7 26 -7 26 16 27 C16 33 16 39 16 45 C1 45 -14 45 -30 45 C-30 43 -30 42 -30 40 C-28 41 -27 41 -25 42 C-14 43 -4 42 7 40 C9 40 10 40 12 40 C12 34 12 34 11 32 C6 31 1 31 -5 30 C-8 30 -8 30 -13 27 C-14 23 -14 23 -15 20 C-16 20 -16 19 -17 19 C-17 17 -17 16 -17 14 C-16 14 -16 14 -15 14 C-15 13 -15 12 -16 11 C-16 10 -16 10 -16 7 C-11 2 -7 0 0 0 Z " fill="#B1B6EB" transform="translate(247,486)"/>
<path d="M0 0 C0 0 1 0 1 0 C1 1 2 3 2 4 C3 9 3 9 6 13 C11 15 15 14 20 14 C24 14 24 14 29 16 C29 20 29 20 29 23 C5 26 5 26 -5 25 C-9 21 -9 21 -9 16 C-9 15 -9 13 -9 12 C-9 12 -9 12 -7 13 C-7 14 -7 14 -7 15 C-6 15 -6 14 -5 14 C-4 11 -4 11 -4 8 C-3 9 -2 10 -1 11 C-1 7 -0 4 0 0 Z " fill="#585EDC" transform="translate(114,503)"/>
<path d="M0 0 C-1 11 -1 11 -2 12 C-2 14 -2 15 -2 17 C-3 22 -3 22 -6 26 C-10 27 -10 27 -14 28 C-20 29 -23 31 -28 34 C-29 34 -30 34 -31 34 C-31 32 -30 31 -30 29 C-27 27 -27 27 -24 26 C-21 24 -21 24 -19 22 C-20 17 -20 17 -21 12 C-18 9 -18 9 -13 8 C-11 8 -10 7 -8 7 C-7 6 -7 4 -6 3 C-2 0 -2 0 0 0 Z " fill="#4B50D5" transform="translate(176,66)"/>
<path d="M0 0 C1 -0 1 -0 3 -0 C5 -0 6 -0 7 -0 C8 0 9 0 10 1 C12 3 12 3 12 7 C11 9 11 9 9 12 C6 18 5 22 5 29 C4 29 4 29 3 29 C2 28 1 27 -0 26 C-1 27 -1 28 -2 30 C-9 23 -9 23 -9 20 C-8 2 -8 2 0 0 Z " fill="#F5F5FB" transform="translate(210.06640625,192.3984375)"/>
<path d="M0 0 C2 0 4 0 6 0 C6 1 5 2 5 3 C4 3 2 3 1 3 C1 5 1 6 1 8 C0 8 -1 9 -2 9 C-3 9 -3 8 -4 8 C-4 9 -4 9 -4 10 C-3 10 -2 11 -1 11 C-2 11 -3 12 -4 12 C-5 12 -5 12 -8 13 C-8 14 -8 14 -8 15 C-10 16 -11 16 -13 17 C-19 20 -19 20 -20 21 C-21 21 -22 21 -24 20 C-28 20 -28 20 -32 21 C-38 22 -41 21 -46 18 C-47 17 -47 15 -48 14 C-49 14 -50 13 -51 13 C-51 12 -50 11 -50 10 C-49 10 -48 9 -47 9 C-47 8 -46 8 -46 7 C-45 7 -45 7 -44 7 C-44 8 -44 8 -44 9 C-43 10 -41 10 -40 11 C-39 12 -37 13 -36 14 C-33 14 -33 14 -29 14 C-28 14 -27 14 -26 14 C-25 14 -25 14 -23 14 C-23 13 -22 13 -22 12 C-20 11 -18 10 -17 9 C-16 9 -15 8 -14 8 C-11 7 -11 7 -9 7 C-9 6 -9 6 -9 5 C-6 4 -4 2 -1 1 C-1 1 -0 0 0 0 Z " fill="#6269DD" transform="translate(208,266)"/>
<path d="M0 0 C1 0 3 1 4 1 C4 5 5 9 5 13 C5 14 5 15 5 16 C5 20 5 25 5 29 C5 31 5 34 5 37 C5 43 5 49 5 55 C4 62 5 70 5 78 C5 84 5 89 5 95 C5 98 5 101 5 104 C5 108 5 111 5 115 C5 117 5 118 5 119 C5 122 5 122 4 127 C3 127 3 127 0 128 C-0 123 -0 119 -0 114 C-0 113 -0 112 -0 110 C-0 109 -0 108 -0 107 C-0 106 -0 106 -0 103 C0 100 0 100 1 95 C1 92 1 90 1 87 C1 86 1 84 1 82 C1 81 1 79 1 78 C1 76 1 74 1 73 C1 71 1 70 1 68 C1 67 1 65 1 64 C1 60 1 57 0 53 C-0 49 -0 45 -0 40 C-0 39 -0 38 -0 37 C-0 32 0 26 1 21 C1 15 1 10 0 4 C0 3 0 1 0 0 Z " fill="#ECEDF7" transform="translate(299,92)"/>
<path d="M0 0 C1 -0 1 -0 4 -0 C5 0 6 0 7 0 C9 4 9 4 9 8 C9 8 10 8 11 8 C11 10 12 11 13 12 C12 12 12 12 11 13 C10 14 10 14 9 16 C9 15 9 14 9 13 C5 17 5 18 4 23 C4 24 4 25 4 27 C4 27 4 28 4 29 C3 29 2 29 2 29 C2 28 2 27 2 25 C1 25 -0 25 -1 25 C-2 26 -2 27 -2 28 C-7 24 -7 21 -8 15 C-8 13 -8 12 -8 10 C-8 9 -8 9 -8 5 C-7 -1 -6 0 0 0 Z " fill="#080E26" transform="translate(36.4375,319.6875)"/>
<path d="M0 0 C1 0 1 0 2 0 C2 6 3 12 3 18 C9 18 16 19 22 19 C22 29 22 29 22 32 C18 34 18 34 14 34 C14 33 15 32 15 31 C12 30 9 30 6 29 C6 30 6 30 6 31 C5 31 4 31 3 31 C3 30 3 30 3 29 C2 29 2 28 1 28 C1 27 0 26 0 25 C-4 24 -4 24 -7 24 C-6 16 -6 16 -5 14 C-4 14 -4 14 -3 14 C-3 15 -3 15 -3 16 C-2 16 -2 16 -1 16 C-2 7 -2 7 -3 4 C-2 4 -1 4 0 4 C0 3 0 1 0 0 Z " fill="#8287E1" transform="translate(233,454)"/>
<path d="M0 0 C1 -0 1 -1 2 -1 C5 5 8 11 8 17 C6 17 5 17 3 17 C3 18 3 19 3 20 C-3 19 -3 19 -4 18 C-6 18 -8 18 -10 17 C-12 17 -14 17 -16 17 C-16 16 -16 16 -16 15 C-17 15 -18 14 -19 14 C-19 13 -19 13 -19 12 C-18 11 -17 10 -16 9 C-12 6 -12 6 -10 1 C-6 -1 -5 -1 0 0 Z " fill="#F4F4FB" transform="translate(228,123)"/>
<path d="M0 0 C5 5 4 8 4 15 C4 18 4 18 2 23 C-1 25 -1 25 -7 25 C-10 22 -11 20 -11 16 C-11 15 -11 13 -11 12 C-11 11 -11 9 -11 8 C-11 4 -11 4 -9 0 C-6 -2 -3 -1 0 0 Z " fill="#FBFBFD" transform="translate(56,332)"/>
<path d="M0 0 C2 0 3 0 5 0 C5 30 5 59 5 90 C4 90 3 90 2 90 C1 87 1 87 2 84 C2 80 2 80 2 75 C1 65 1 56 1 46 C1 44 1 43 1 41 C1 39 1 37 1 35 C1 34 1 32 1 31 C1 26 2 21 2 16 C2 13 1 10 1 7 C1 6 1 5 0 3 C0 2 0 1 0 0 Z " fill="#44495C" transform="translate(98,317)"/>
<path d="M0 0 C0 1 0 2 0 3 C-1 3 -2 4 -3 4 C-4 5 -4 7 -5 8 C-7 8 -9 8 -11 8 C-12 9 -12 11 -13 12 C-15 12 -17 12 -19 12 C-20 13 -20 15 -21 16 C-23 16 -25 16 -27 16 C-28 17 -28 19 -29 20 C-31 20 -33 20 -35 20 C-36 21 -36 23 -37 24 C-39 24 -41 24 -43 24 C-44 25 -44 27 -45 28 C-46 28 -46 28 -47 28 C-48 29 -48 31 -49 32 C-54 33 -54 33 -59 32 C-61 33 -63 33 -64 33 C-66 32 -67 32 -69 32 C-70 31 -70 29 -71 28 C-73 28 -75 28 -77 28 C-78 27 -78 25 -79 24 C-80 23 -82 23 -83 22 C-83 21 -83 21 -83 20 C-85 20 -87 20 -89 20 C-90 19 -90 17 -91 16 C-86 18 -82 19 -77 22 C-77 23 -77 24 -77 25 C-76 25 -74 26 -73 26 C-71 27 -70 27 -68 28 C-63 28 -63 28 -59 27 C-59 27 -59 27 -58 24 C-58 25 -58 26 -58 27 C-55 27 -55 27 -51 27 C-50 26 -50 26 -49 25 C-44 23 -44 23 -39 22 C-39 21 -39 21 -39 20 C-33 17 -33 17 -29 17 C-29 16 -29 16 -29 15 C-24 13 -24 13 -21 13 C-21 12 -20 11 -20 10 C-18 10 -15 9 -13 9 C-13 8 -12 7 -12 6 C-10 5 -9 5 -7 4 C-6 3 -6 2 -5 1 C-4 1 -4 1 0 0 Z " fill="#D4D6F3" transform="translate(239,259)"/>
<path d="M0 0 C1 0 2 1 3 1 C4 5 4 5 2 10 C1 10 1 10 -2 13 C-5 16 -5 16 -6 21 C-5 22 -4 22 -3 23 C-5 23 -7 23 -8 23 C-9 22 -9 21 -9 20 C-11 19 -13 19 -15 18 C-17 16 -19 14 -21 12 C-22 12 -23 11 -24 11 C-25 11 -26 10 -27 10 C-27 9 -27 9 -27 8 C-25 8 -24 7 -22 7 C-14 6 -7 -0 0 0 Z " fill="#5158D8" transform="translate(144.25,244.0625)"/>
<path d="M0 0 C0 6 1 12 1 18 C7 18 14 19 20 19 C20 25 20 31 20 37 C13 37 7 38 0 38 C1 33 1 33 2 32 C4 32 6 32 9 32 C9 32 9 32 12 32 C13 32 14 32 15 32 C15 29 15 27 15 24 C13 24 11 24 9 24 C4 23 4 23 0 21 C0 20 0 20 0 19 C-1 19 -3 18 -4 18 C-6 13 -5 6 -4 1 C-2 0 -2 0 0 0 Z " fill="#C2C5EE" transform="translate(119,454)"/>
<path d="M0 0 C1 -0 3 -0 4 -0 C7 0 7 0 10 2 C-1 4 -1 4 -4 4 C-4 6 -4 7 -5 8 C-6 8 -7 8 -8 8 C-8 10 -8 11 -8 13 C-7 13 -6 13 -5 12 C-0 13 -0 13 3 15 C3 16 3 17 3 18 C2 19 1 19 -1 19 C-1 21 -1 22 -1 23 C-2 23 -3 23 -4 23 C-4 24 -4 26 -4 27 C-4 31 -4 31 -5 34 C-10 32 -10 32 -11 29 C-12 24 -12 18 -12 13 C-12 12 -12 11 -12 9 C-12 6 -12 6 -12 1 C-8 0 -4 0 0 0 Z " fill="#545BD9" transform="translate(115.5625,435.8125)"/>
<path d="M0 0 C5 3 5 3 7 8 C7 11 7 15 7 18 C7 20 7 22 7 24 C7 28 7 28 5 30 C3 30 2 29 0 29 C-4 22 -6 16 -6 9 C-5 4 -4 2 0 0 Z " fill="#F9FBFC" transform="translate(138,126)"/>
<path d="M0 0 C4 1 4 1 6 4 C10 14 14 23 17 33 C17 34 17 35 18 36 C17 38 17 39 17 41 C16 41 15 41 15 41 C14 40 14 39 14 38 C13 38 13 38 11 37 C10 35 10 32 10 30 C9 29 8 29 7 28 C6 25 6 21 6 18 C5 17 4 17 3 16 C2 13 2 13 2 10 C-0 10 -2 10 -4 10 C-4 9 -4 7 -3 6 C-3 5 -3 5 -4 1 C-3 0 -3 0 0 0 Z " fill="#171827" transform="translate(302.3046875,361.99609375)"/>
<path d="M0 0 C1 0 3 1 4 1 C4 2 4 3 3 5 C3 9 3 12 3 16 C4 27 5 37 4 47 C3 54 3 61 3 68 C3 69 3 70 3 72 C3 73 3 75 3 76 C3 77 3 78 3 80 C3 83 3 86 4 89 C3 89 3 89 0 90 C0 60 0 31 0 0 Z " fill="#808593" transform="translate(85,317)"/>
<path d="M0 0 C6 0 12 0 18 0 C18 11 18 11 18 14 C17 14 16 15 15 15 C15 17 15 19 14 20 C14 22 14 24 14 26 C13 26 12 27 11 27 C11 31 10 34 10 38 C9 38 8 38 7 38 C7 32 7 29 10 24 C10 19 10 19 9 14 C7 14 4 15 2 15 C2 14 2 12 2 11 C3 10 4 9 5 8 C5 9 5 10 5 11 C6 11 8 10 9 10 C9 8 9 6 9 4 C2 5 2 5 0 7 C0 5 0 2 0 0 Z " fill="#969BE7" transform="translate(189,437)"/>
<path d="M0 0 C1 -0 1 -1 2 -1 C3 -1 4 -0 5 0 C5 2 5 3 5 5 C6 6 7 7 8 8 C8 8 9 9 10 10 C10 11 9 13 9 14 C4 13 4 13 -1 10 C-4 10 -4 10 -8 10 C-13 9 -16 9 -21 6 C-20 3 -20 3 -19 0 C-16 -1 -16 -1 -12 -0 C-8 -0 -4 -1 0 0 Z " fill="#F5F5FA" transform="translate(237,160)"/>
<path d="M0 0 C1 1 2 2 4 3 C8 6 8 6 12 8 C10 12 10 12 5 14 C5 15 4 15 4 16 C2 17 -1 17 -3 18 C-3 19 -4 19 -4 20 C-5 20 -7 21 -8 21 C-9 21 -11 22 -12 22 C-12 23 -12 23 -12 24 C-14 24 -16 24 -18 24 C-18 23 -18 23 -18 22 C-17 22 -15 22 -14 22 C-14 20 -14 19 -14 17 C-13 16 -12 16 -11 15 C-11 16 -11 16 -11 17 C-10 16 -9 15 -8 14 C-9 14 -10 13 -11 13 C-10 13 -9 12 -8 12 C-8 11 -8 11 -8 10 C-7 9 -5 9 -4 8 C-2 4 -2 4 0 0 Z " fill="#595FDC" transform="translate(222,252)"/>
<path d="M0 0 C1 0 1 0 2 0 C2 1 2 3 2 4 C2 21 2 21 4 27 C4 30 4 34 4 38 C4 39 4 41 4 43 C4 48 4 48 3 51 C3 53 3 56 2 58 C2 63 2 67 1 71 C1 72 2 73 2 74 C1 74 0 74 -1 74 C-1 64 -1 53 -1 43 C-1 39 -1 36 -1 32 C-1 27 -1 22 -1 17 C-1 16 -1 16 -1 12 C-1 11 -1 9 -1 8 C-1 7 -1 5 -1 4 C-1 1 -1 1 0 0 Z " fill="#515668" transform="translate(114,325)"/>
<path d="M0 0 C1 1 1 1 2 2 C4 2 5 3 7 3 C7 4 8 6 8 7 C10 7 11 8 13 8 C13 9 13 10 13 11 C12 11 12 11 11 11 C11 12 11 14 11 15 C10 15 9 15 8 15 C8 15 8 15 10 18 C10 21 10 24 10 27 C9 27 9 27 8 27 C8 26 8 26 8 25 C7 25 7 25 6 25 C6 27 5 28 5 30 C4 30 4 30 3 30 C1 26 1 24 0 20 C-1 19 -1 17 -2 16 C-2 12 -2 12 -1 8 C-1 6 -1 5 -1 3 C-0 2 -0 1 0 0 Z " fill="#5157D7" transform="translate(222,443)"/>
<path d="M0 0 C1 5 1 9 1 13 C1 15 1 16 1 17 C1 18 1 19 1 20 C-6 18 -11 15 -16 10 C-16 8 -16 6 -16 4 C-11 -1 -6 0 0 0 Z " fill="#6B73E3" transform="translate(296,199)"/>
<path d="M0 0 C4 -0 8 -0 12 -0 C14 -0 15 -0 16 -0 C19 -0 22 -0 25 0 C26 1 26 2 27 3 C22 4 17 4 12 4 C10 4 9 4 7 4 C6 4 6 4 3 4 C3 5 3 6 3 7 C4 14 4 21 4 28 C4 29 5 30 5 31 C5 39 5 39 3 44 C2 43 1 43 0 42 C-0 38 -0 38 -0 33 C-0 31 -0 29 -0 27 C-0 25 -0 23 -0 21 C-0 19 -0 17 -0 15 C-0 10 -0 5 0 0 Z " fill="#ACAFEB" transform="translate(101,433)"/>
<path d="M0 0 C1 1 2 3 3 4 C3 5 2 6 2 7 C2 7 2 7 0 8 C-1 11 -3 15 -4 18 C-5 19 -5 19 -6 20 C-8 25 -8 30 -8 36 C-8 37 -8 37 -8 41 C-8 42 -8 43 -8 44 C-9 44 -10 44 -11 44 C-11 45 -12 45 -12 46 C-13 42 -13 42 -13 36 C-13 35 -13 33 -13 31 C-14 31 -14 30 -15 30 C-14 30 -14 30 -13 30 C-13 29 -13 27 -13 26 C-13 16 -7 7 0 0 Z " fill="#4E54D6" transform="translate(228,191)"/>
<path d="M0 0 C0 0 1 0 1 0 C1 15 1 30 1 45 C-5 45 -11 45 -17 45 C-17 43 -17 42 -17 40 C-15 40 -15 40 -8 41 C-7 41 -6 41 -5 41 C-4 40 -4 40 -3 39 C-3 39 -4 38 -4 38 C-4 34 -4 29 -4 25 C-4 23 -4 22 -4 21 C-3 13 -3 7 0 0 Z " fill="#CACCEF" transform="translate(190,486)"/>
<path d="M0 0 C0 5 0 5 0 9 C-1 9 -3 9 -4 8 C-9 8 -13 8 -18 9 C-18 10 -18 10 -18 11 C-19 11 -20 12 -21 12 C-22 11 -24 9 -25 8 C-25 6 -25 4 -25 2 C-24 2 -22 2 -21 2 C-21 1 -21 1 -21 0 C-14 -1 -7 -1 0 0 Z " fill="#5158D8" transform="translate(258,437)"/>
<path d="M0 0 C3 4 2 7 2 12 C3 12 4 12 5 12 C5 9 5 7 5 4 C5 4 6 4 6 4 C7 13 7 19 2 27 C-1 30 -1 30 -4 31 C-5 31 -5 31 -7 31 C-10 27 -11 25 -10 20 C-6 18 -6 18 -3 18 C-0 13 -1 8 -1 2 C-1 1 -0 1 0 0 Z " fill="#060B24" transform="translate(65,336)"/>
<path d="M0 0 C4 1 8 1 12 2 C12 3 13 3 13 4 C14 4 15 5 16 5 C17 5 17 5 19 6 C19 7 19 7 19 8 C21 9 22 9 24 10 C24 11 24 11 24 12 C25 12 26 12 27 12 C28 12 29 13 30 13 C30 14 31 16 31 17 C32 17 33 17 34 17 C36 17 37 17 38 17 C39 20 39 20 40 23 C41 24 42 24 43 25 C41 25 39 25 37 25 C36 24 36 22 35 21 C33 21 31 21 29 21 C28 20 28 18 27 17 C25 17 23 17 21 17 C20 16 20 16 19 15 C19 14 19 13 19 12 C17 11 15 11 13 10 C9 8 9 8 5 6 C5 5 5 5 5 4 C4 4 4 4 0 2 C0 1 0 1 0 0 Z " fill="#676CDB" transform="translate(105,250)"/>
<path d="M0 0 C1 0 2 1 3 1 C5 8 5 14 5 20 C4 27 4 33 5 40 C5 43 5 45 5 48 C5 49 6 50 6 51 C6 51 6 51 5 52 C3 52 2 52 0 52 C0 35 0 18 0 0 Z " fill="#888FE4" transform="translate(101,475)"/>
<path d="M0 0 C14 4 23 15 31 26 C32 30 32 30 31 32 C29 32 28 31 26 31 C25 29 24 26 23 24 C22 24 21 23 20 23 C20 23 20 23 19 20 C15 14 9 11 3 7 C2 7 0 6 -1 5 C-1 3 -0 2 0 0 Z " fill="#2F3899" transform="translate(123,208)"/>
<path d="M0 0 C3 -1 3 -1 6 -1 C7 -1 9 -1 10 -1 C11 -1 11 -1 14 -0 C15 -1 17 -1 18 -1 C19 -1 19 -1 22 -1 C22 -1 22 -1 25 -1 C26 -0 27 -0 28 0 C29 1 29 3 30 4 C32 4 34 4 36 4 C37 5 37 7 38 8 C40 8 42 8 44 8 C45 9 45 11 46 12 C48 12 50 12 52 12 C53 13 53 15 54 16 C55 17 57 17 58 18 C58 19 57 19 57 20 C55 19 54 18 52 17 C52 16 52 16 52 15 C51 15 50 15 49 15 C47 14 46 14 45 14 C45 14 45 14 44 12 C43 12 41 11 40 10 C39 10 37 10 36 9 C36 8 36 8 36 7 C35 7 34 7 33 7 C31 6 30 6 29 6 C29 6 29 6 28 3 C26 3 25 4 23 4 C15 6 9 5 1 3 C1 4 0 5 0 6 C-3 7 -3 7 -6 8 C-5 7 -5 5 -4 4 C-3 4 -3 4 -2 4 C-1 3 -1 1 0 0 Z " fill="#B4B7EE" transform="translate(166,25)"/>
<path d="M0 0 C4 -0 4 -0 8 0 C8 3 8 3 7 7 C2 9 2 9 -3 9 C-8 10 -8 10 -12 12 C-16 14 -16 14 -20 13 C-20 13 -21 12 -22 12 C-22 11 -21 11 -21 10 C-20 10 -20 10 -19 10 C-19 8 -18 7 -18 5 C-14 2 -10 1 -5 1 C-5 2 -5 2 -5 3 C-4 3 -2 3 -1 3 C-1 2 -0 1 0 0 Z " fill="#F7F8FC" transform="translate(190,121)"/>
<path d="M0 0 C1 0 1 0 2 0 C2 7 2 14 2 22 C2 24 2 27 2 29 C2 33 2 36 2 40 C2 41 2 42 2 43 C2 46 2 48 2 51 C1 52 0 53 -1 54 C-3 50 -2 45 -2 41 C-2 41 -2 41 -2 38 C-2 36 -2 33 -2 31 C-2 28 -2 24 -2 21 C-2 18 -2 16 -2 14 C-2 13 -2 12 -2 11 C-2 3 -2 3 0 0 Z " fill="#4A50D5" transform="translate(62,105)"/>
<path d="M0 0 C-0 4 -1 7 -1 11 C-1 11 -1 11 -3 12 C-4 12 -4 11 -5 11 C-5 12 -5 12 -5 13 C-6 13 -7 14 -8 14 C-9 15 -9 16 -10 18 C-12 21 -12 21 -16 22 C-17 22 -18 21 -19 21 C-21 17 -21 17 -21 12 C-18 9 -18 9 -13 8 C-11 8 -10 7 -8 7 C-7 6 -7 4 -6 3 C-2 0 -2 0 0 0 Z " fill="#5158D8" transform="translate(176,66)"/>
<path d="M0 0 C1 0 1 0 2 0 C9 17 5 36 2 53 C1 53 1 53 0 53 C0 36 0 18 0 0 Z " fill="#959AE5" transform="translate(217,473)"/>
<path d="M0 0 C2 0 3 0 5 0 C5 6 5 12 5 18 C-10 18 -25 18 -41 18 C-41 16 -41 15 -41 13 C-40 13 -40 13 -36 15 C-25 16 -15 15 -4 13 C-2 13 -1 13 1 13 C1 12 1 10 1 9 C1 4 1 4 2 2 C1 2 1 2 0 2 C0 1 0 1 0 0 Z " fill="#BEC0EC" transform="translate(258,513)"/>
<path d="M0 0 C1 0 2 0 3 0 C3 1 4 2 5 3 C4 4 4 4 3 6 C2 6 1 6 1 6 C0 8 -1 9 -1 10 C-5 11 -5 11 -9 10 C-10 9 -10 9 -10 5 C-10 -2 -6 0 0 0 Z " fill="#FCFCFD" transform="translate(207.21484375,336.671875)"/>
<path d="M0 0 C2 0 3 0 5 0 C5 1 4 2 4 3 C3 3 3 3 2 3 C2 4 1 5 1 6 C0 6 -1 5 -2 5 C-1 1 -1 1 0 0 Z " fill="#F1F1F7" transform="translate(206,377)"/>
<path d="M0 0 C1 0 1 0 2 0 C3 4 3 4 2 6 C1 6 1 6 0 6 C-1 2 -1 2 0 0 Z " fill="#FDFDFE" transform="translate(137,337)"/>
<path d="M0 0 C1 0 1 0 2 0 C2 1 2 1 2 2 C1 2 1 2 0 2 C0 1 0 1 0 0 Z " fill="#FDFDFE" transform="translate(109,401)"/>
<path d="M0 0 C1 0 1 0 2 0 C2 1 2 1 2 2 C1 2 1 2 0 2 C0 1 0 1 0 0 Z " fill="#797984" transform="translate(137,381)"/>
</svg>
