<?xml version="1.0" encoding="UTF-8"?>
<!-- Generator: visioncortex VTracer 0.6.12 -->
<svg version="1.1" xmlns="http://www.w3.org/2000/svg" width="1824" height="376">
<path d="M0 0 C3 -1 3 -1 8 -1 C10 -1 11 -1 13 -1 C15 -1 17 -1 19 -1 C21 -1 23 -1 25 -1 C30 -1 36 -1 41 -1 C47 -1 53 -1 58 -1 C68 -1 78 -1 87 -1 C98 -0 109 -1 120 -1 C130 -1 140 -1 149 -1 C155 -1 160 -1 166 -1 C171 -1 177 -1 182 -1 C185 -1 188 -1 191 -1 C192 -1 192 -1 196 -1 C197 -1 197 -1 201 -1 C202 -0 203 -0 204 0 C204 1 204 1 206 4 C208 4 210 4 212 4 C212 5 212 5 214 8 C215 8 216 8 217 8 C217 9 217 10 217 11 C218 13 218 14 218 15 C219 15 220 16 221 16 C221 19 221 19 221 24 C221 26 221 27 221 29 C221 30 221 30 221 35 C221 37 221 39 221 41 C221 47 221 52 221 58 C221 63 221 69 221 75 C221 85 221 94 221 104 C221 115 221 126 221 138 C221 147 221 157 221 167 C221 172 221 178 221 184 C221 189 221 195 221 200 C221 203 221 206 221 209 C221 210 221 210 221 214 C221 216 221 217 221 219 C221 220 221 221 221 222 C220 222 219 223 218 223 C217 227 217 227 217 230 C216 230 215 230 214 230 C213 231 213 233 212 234 C211 234 211 234 210 234 C209 235 209 237 208 238 C206 238 204 238 202 238 C201 239 201 241 200 242 C197 243 197 243 192 243 C191 243 189 243 187 243 C186 243 184 243 182 243 C180 243 178 243 176 243 C171 243 166 243 160 243 C155 243 149 243 144 243 C135 243 125 243 116 243 C106 242 95 243 84 243 C75 243 66 243 57 243 C51 243 46 243 40 243 C34 243 28 243 22 243 C20 243 19 243 17 243 C15 243 13 243 12 243 C11 243 11 243 7 243 C7 242 7 242 4 242 C3 241 3 239 2 238 C0 238 -2 238 -4 238 C-5 237 -5 235 -6 234 C-7 233 -9 233 -10 232 C-10 231 -10 231 -10 230 C-11 230 -12 230 -13 230 C-13 229 -13 229 -13 227 C-14 225 -14 224 -14 223 C-15 223 -16 222 -17 222 C-17 219 -17 219 -17 214 C-17 213 -17 211 -17 209 C-17 207 -17 205 -17 203 C-17 201 -17 199 -17 197 C-17 192 -17 187 -17 181 C-17 175 -17 170 -17 164 C-17 155 -17 145 -17 136 C-17 125 -17 114 -17 103 C-17 93 -17 84 -17 74 C-17 69 -17 63 -17 57 C-17 51 -17 45 -17 39 C-17 37 -17 35 -17 33 C-17 31 -17 30 -17 28 C-17 26 -17 25 -17 23 C-17 23 -17 23 -17 20 C-16 20 -15 19 -14 19 C-14 15 -13 12 -13 8 C-12 8 -11 8 -10 8 C-9 7 -9 5 -8 4 C-6 4 -4 4 -2 4 C-1 3 -1 1 0 0 Z " fill="#68778F" transform="translate(338,25)"/>
<path d="M0 0 C3 -1 3 -1 8 -1 C10 -1 12 -1 13 -1 C14 -1 14 -1 19 -1 C21 -1 23 -1 25 -1 C31 -1 37 -1 42 -1 C48 -1 54 -1 60 -1 C69 -1 79 -1 89 -1 C100 -0 112 -1 123 -1 C133 -1 142 -1 152 -1 C158 -1 164 -1 169 -1 C175 -1 180 -1 186 -1 C189 -1 192 -1 195 -1 C195 -1 195 -1 200 -1 C201 -1 201 -1 205 -1 C206 -0 207 -0 208 0 C208 1 208 1 210 4 C211 4 211 4 214 6 C214 7 214 7 214 8 C215 8 215 8 218 10 C218 11 218 11 218 12 C219 12 220 12 221 12 C221 40 221 68 221 96 C221 109 221 122 221 134 C221 146 221 157 221 168 C221 174 221 180 221 186 C221 192 221 197 221 203 C221 205 221 207 221 209 C221 212 221 215 221 218 C221 219 221 221 221 223 C221 224 221 225 221 226 C220 226 219 227 218 227 C217 231 217 231 217 234 C216 234 215 234 214 234 C213 235 213 237 212 238 C210 238 208 238 206 238 C205 239 205 241 204 242 C201 243 201 243 196 243 C195 243 195 243 191 243 C190 243 190 243 185 243 C183 243 182 243 180 243 C174 243 169 243 163 243 C158 243 152 243 147 243 C137 243 128 243 119 243 C108 242 97 243 86 243 C77 243 67 243 58 243 C52 243 47 243 41 243 C35 243 29 243 23 243 C21 243 19 243 17 243 C15 243 14 243 12 243 C11 243 11 243 7 243 C7 242 7 242 4 242 C3 241 3 239 2 238 C0 238 -2 238 -4 238 C-5 237 -5 235 -6 234 C-7 233 -9 233 -10 232 C-10 231 -10 231 -10 230 C-11 230 -12 230 -13 230 C-13 202 -13 173 -13 145 C-13 132 -13 118 -13 105 C-13 94 -13 82 -13 71 C-13 65 -13 59 -13 52 C-13 47 -13 41 -13 35 C-13 33 -13 31 -13 29 C-13 26 -13 23 -13 20 C-13 19 -13 17 -13 16 C-13 14 -13 13 -13 12 C-12 12 -11 11 -10 11 C-9 7 -9 7 -9 4 C-8 4 -7 4 -6 4 C-4 4 -3 4 -2 4 C-1 3 -1 1 0 0 Z " fill="#293447" transform="translate(38,25)"/>
<path d="M0 0 C3 -1 3 -1 8 -1 C10 -1 12 -1 13 -1 C14 -1 14 -1 19 -1 C21 -1 23 -1 25 -1 C31 -1 37 -1 42 -1 C48 -1 54 -1 60 -1 C69 -1 79 -1 89 -1 C100 -0 112 -1 123 -1 C133 -1 142 -1 152 -1 C158 -1 164 -1 169 -1 C175 -1 180 -1 186 -1 C189 -1 192 -1 195 -1 C195 -1 195 -1 200 -1 C201 -1 201 -1 205 -1 C206 -0 207 -0 208 0 C208 1 208 1 210 4 C211 4 211 4 214 6 C214 7 214 7 214 8 C215 8 215 8 218 10 C218 11 218 11 218 12 C219 12 220 12 221 12 C221 84 221 156 221 230 C220 230 219 230 218 230 C217 231 217 233 216 234 C215 234 215 234 214 234 C213 235 213 237 212 238 C210 238 208 238 206 238 C205 239 205 241 204 242 C201 243 201 243 196 243 C195 243 193 243 191 243 C190 243 188 243 186 243 C184 243 182 243 180 243 C175 243 170 243 164 243 C159 243 153 243 148 243 C139 243 129 243 120 243 C110 242 99 243 88 243 C79 243 70 243 61 243 C55 243 50 243 44 243 C38 243 32 243 26 243 C24 243 23 243 21 243 C19 243 17 243 16 243 C15 243 15 243 11 243 C11 242 11 242 8 242 C7 241 7 239 6 238 C4 238 2 238 0 238 C-1 237 -1 235 -2 234 C-3 233 -5 233 -6 232 C-6 231 -6 231 -6 230 C-7 229 -9 229 -10 228 C-10 227 -10 227 -10 226 C-11 226 -12 226 -13 226 C-13 199 -13 171 -13 144 C-13 131 -13 119 -13 106 C-13 95 -13 84 -13 73 C-13 67 -13 61 -13 55 C-13 49 -13 44 -13 38 C-13 35 -13 32 -13 29 C-13 28 -13 26 -13 24 C-13 23 -13 21 -13 19 C-13 18 -13 17 -13 16 C-12 16 -11 15 -10 15 C-9 11 -9 11 -9 8 C-8 8 -7 8 -6 8 C-5 7 -5 5 -4 4 C-3 4 -3 4 -2 4 C-1 3 -1 1 0 0 Z " fill="#5C63E1" transform="translate(1270,25)"/>
<path d="M0 0 C3 -1 3 -1 8 -1 C10 -1 11 -1 13 -1 C15 -1 17 -1 19 -1 C21 -1 23 -1 25 -1 C30 -1 36 -1 41 -1 C47 -1 53 -1 58 -1 C68 -1 78 -1 87 -1 C98 -0 109 -1 120 -1 C130 -1 140 -1 149 -1 C155 -1 160 -1 166 -1 C171 -1 177 -1 182 -1 C185 -1 188 -1 191 -1 C192 -1 192 -1 196 -1 C197 -1 197 -1 201 -1 C202 -0 203 -0 204 0 C204 1 204 1 206 4 C210 4 210 4 213 4 C213 5 213 6 213 7 C214 9 214 10 214 11 C215 11 216 12 217 12 C217 16 217 16 217 20 C217 21 217 21 217 26 C217 28 217 30 217 32 C217 34 217 36 217 39 C217 44 217 50 217 56 C217 62 217 68 217 74 C217 86 217 98 217 109 C217 122 217 136 217 149 C217 176 217 203 217 230 C216 230 215 230 214 230 C213 231 213 233 212 234 C211 234 211 234 210 234 C209 235 209 237 208 238 C205 238 205 238 201 238 C200 238 199 238 197 238 C194 238 192 238 189 238 C187 238 186 238 185 238 C183 238 182 238 181 238 C180 238 180 238 178 238 C177 239 177 241 176 242 C172 243 172 243 166 242 C164 243 162 243 160 243 C159 242 158 242 156 242 C155 241 155 239 154 238 C150 238 145 238 141 238 C140 238 140 238 137 238 C132 238 128 238 123 238 C120 238 117 238 114 238 C107 238 101 238 94 238 C86 238 77 238 69 238 C62 238 56 238 49 238 C46 238 43 238 40 238 C36 238 31 238 27 239 C26 239 26 239 23 239 C20 239 17 239 14 239 C13 240 13 241 12 242 C10 242 9 241 7 241 C7 241 7 241 6 239 C4 239 3 239 1 239 C-1 238 -2 238 -4 238 C-5 237 -5 235 -6 234 C-7 233 -9 233 -10 232 C-10 231 -10 231 -10 230 C-11 230 -12 230 -13 230 C-13 229 -13 229 -13 227 C-14 225 -14 224 -14 223 C-15 223 -16 222 -17 222 C-17 219 -17 219 -17 215 C-17 215 -17 215 -17 211 C-17 209 -17 208 -17 206 C-17 204 -17 203 -17 201 C-17 195 -17 190 -17 184 C-17 180 -17 176 -17 172 C-17 164 -17 156 -17 148 C-17 138 -17 129 -17 119 C-17 110 -17 101 -17 92 C-17 88 -17 84 -17 80 C-17 75 -17 69 -17 64 C-17 62 -17 61 -17 59 C-17 58 -17 56 -17 55 C-17 53 -17 52 -17 51 C-17 50 -17 49 -17 48 C-17 48 -17 48 -14 47 C-14 44 -14 44 -14 39 C-14 38 -14 36 -14 35 C-14 33 -14 31 -14 30 C-13 26 -13 23 -13 20 C-13 19 -13 19 -13 15 C-13 14 -13 13 -13 12 C-12 12 -11 11 -10 11 C-9 7 -9 7 -9 4 C-8 4 -7 4 -6 4 C-4 4 -3 4 -2 4 C-1 3 -1 1 0 0 Z " fill="#A1ABBD" transform="translate(638,25)"/>
<path d="M0 0 C3 -1 3 -1 8 -1 C10 -1 11 -1 13 -1 C15 -1 17 -1 19 -1 C21 -1 23 -1 25 -1 C30 -1 36 -1 41 -1 C47 -1 53 -1 58 -1 C68 -1 78 -1 87 -1 C98 -0 109 -1 120 -1 C130 -1 140 -1 149 -1 C155 -1 160 -1 166 -1 C171 -1 177 -1 182 -1 C185 -1 188 -1 191 -1 C192 -1 192 -1 196 -1 C197 -1 197 -1 201 -1 C202 -0 203 -0 204 0 C204 1 204 1 206 4 C210 4 210 4 213 4 C213 5 213 6 213 7 C214 9 214 10 214 11 C215 11 216 12 217 12 C217 16 217 16 217 20 C217 21 217 21 217 26 C217 28 217 30 217 32 C217 34 217 36 217 39 C217 44 217 50 217 56 C217 62 217 68 217 74 C217 86 217 98 217 109 C217 122 217 136 217 149 C217 176 217 203 217 230 C216 230 215 230 214 230 C213 231 213 233 212 234 C211 234 211 234 210 234 C209 235 209 237 208 238 C205 238 201 238 198 238 C197 239 197 241 196 242 C192 242 192 242 188 242 C187 241 187 239 186 238 C182 238 179 237 175 237 C174 237 173 237 172 237 C170 237 168 237 165 237 C162 237 159 237 155 237 C153 237 151 237 149 237 C148 237 147 237 145 237 C143 237 143 237 138 238 C137 239 137 241 136 242 C132 242 128 243 124 243 C123 243 123 243 120 243 C116 243 112 243 108 243 C105 243 102 243 99 243 C93 243 87 243 81 243 C74 242 66 243 58 243 C52 243 46 243 40 243 C38 243 35 243 32 243 C28 243 24 243 20 243 C19 243 19 243 16 243 C13 243 13 243 8 242 C7 241 7 239 6 238 C4 238 3 238 1 238 C-1 238 -2 238 -4 238 C-5 237 -5 235 -6 234 C-7 233 -9 233 -10 232 C-10 231 -10 231 -10 230 C-11 230 -12 230 -13 230 C-13 202 -13 173 -13 145 C-13 132 -13 118 -13 105 C-13 94 -13 82 -13 71 C-13 65 -13 59 -13 52 C-13 47 -13 41 -13 35 C-13 33 -13 31 -13 29 C-13 26 -13 23 -13 20 C-13 19 -13 17 -13 16 C-13 14 -13 13 -13 12 C-12 12 -11 11 -10 11 C-9 7 -9 7 -9 4 C-8 4 -7 4 -6 4 C-4 4 -3 4 -2 4 C-1 3 -1 1 0 0 Z " fill="#F29B13" transform="translate(1582,25)"/>
<path d="M0 0 C3 -1 3 -1 8 -1 C8 -1 8 -1 13 -1 C14 -1 14 -1 18 -1 C20 -1 22 -1 24 -1 C29 -1 34 -1 40 -1 C45 -1 51 -1 56 -1 C65 -1 75 -1 84 -1 C94 -0 105 -1 116 -1 C125 -1 134 -1 143 -1 C149 -1 154 -1 160 -1 C166 -1 172 -1 178 -1 C180 -1 181 -1 183 -1 C185 -1 187 -1 188 -1 C190 -1 191 -1 193 -1 C194 -0 195 -0 196 0 C196 1 196 1 198 4 C200 4 202 4 204 4 C204 5 204 5 206 8 C207 8 207 8 210 10 C210 11 210 11 210 12 C211 12 212 12 213 12 C213 84 213 156 213 230 C212 230 211 230 210 230 C209 231 209 233 208 234 C207 234 207 234 206 234 C205 235 205 237 204 238 C200 239 200 239 196 239 C194 239 192 239 190 239 C188 239 186 239 184 239 C182 239 180 239 178 239 C172 239 167 239 161 239 C155 239 149 239 143 239 C133 239 123 239 113 239 C102 238 90 239 79 239 C69 239 59 239 49 239 C43 239 37 239 31 239 C26 239 20 239 15 239 C12 239 9 239 6 239 C4 239 2 239 0 239 C-1 239 -3 239 -4 239 C-5 238 -5 238 -8 238 C-9 237 -9 235 -10 234 C-11 233 -13 233 -14 232 C-14 231 -14 231 -14 230 C-15 230 -16 230 -17 230 C-17 158 -17 86 -17 12 C-16 12 -15 12 -14 12 C-13 11 -13 9 -12 8 C-11 8 -11 8 -10 8 C-9 7 -9 5 -8 4 C-6 4 -4 4 -2 4 C-1 3 -1 1 0 0 Z " fill="#DEE3EB" transform="translate(954,25)"/>
<path d="M0 0 C3 -1 3 -1 8 -1 C8 -1 8 -1 13 -1 C14 -1 14 -1 18 -1 C20 -1 22 -1 24 -1 C29 -1 34 -1 40 -1 C45 -1 51 -1 56 -1 C65 -1 75 -1 84 -1 C94 -0 105 -1 116 -1 C125 -1 134 -1 143 -1 C149 -1 154 -1 160 -1 C166 -1 172 -1 178 -1 C180 -1 181 -1 183 -1 C185 -1 187 -1 188 -1 C190 -1 191 -1 193 -1 C194 -0 195 -0 196 0 C196 1 196 1 198 4 C200 4 202 4 204 4 C204 5 204 5 206 8 C207 8 207 8 210 10 C210 11 210 11 210 12 C211 12 212 12 213 12 C213 26 213 40 213 55 C213 54 212 52 212 51 C211 51 211 51 210 51 C209 56 209 61 209 66 C209 87 209 87 205 92 C204 92 204 92 203 92 C203 94 203 96 203 98 C204 99 206 99 207 100 C209 102 208 105 208 107 C208 108 208 109 208 110 C208 111 208 111 208 113 C206 114 206 114 202 113 C198 111 198 111 195 109 C195 108 195 108 195 107 C194 107 194 107 193 107 C192 106 190 104 189 103 C186 102 186 102 182 103 C178 99 178 99 176 94 C173 94 169 95 166 95 C165 94 163 92 162 91 C163 85 165 83 170 79 C171 79 172 78 173 78 C174 78 174 78 176 77 C177 72 177 72 178 67 C172 68 167 69 162 70 C155 71 151 69 146 65 C145 64 145 64 144 63 C144 57 144 57 145 56 C145 54 145 53 145 51 C142 48 142 48 139 47 C135 45 135 45 132 41 C132 40 131 39 130 38 C127 38 127 38 123 39 C115 39 115 39 111 37 C111 36 111 36 111 35 C105 35 103 36 98 39 C95 41 93 42 90 44 C86 46 86 46 83 50 C83 53 83 53 82 57 C82 62 82 64 79 69 C73 72 66 71 59 71 C58 71 58 71 54 72 C53 72 51 72 50 72 C48 72 47 72 46 72 C41 71 40 69 37 66 C36 65 34 65 33 64 C30 67 30 67 28 70 C27 70 27 70 26 70 C26 72 26 73 26 75 C22 77 22 77 17 78 C12 81 12 81 10 86 C8 90 8 90 5 91 C3 91 1 92 -1 92 C-2 92 -3 93 -4 93 C-6 96 -6 96 -6 99 C-7 99 -7 99 -8 99 C-8 101 -8 102 -8 104 C-5 105 -5 105 -2 106 C-2 107 -2 107 -2 108 C-1 108 -0 109 1 109 C1 110 1 110 4 113 C7 117 9 118 14 119 C14 121 15 122 15 124 C14 125 13 126 12 127 C9 131 9 131 9 135 C9 136 10 137 10 138 C12 138 13 139 15 139 C15 138 16 137 16 136 C19 134 22 135 26 135 C30 139 30 139 31 142 C32 146 32 146 35 150 C36 151 36 151 38 154 C37 155 37 157 36 158 C35 158 35 158 34 158 C34 159 34 159 34 160 C33 161 32 162 31 163 C31 164 30 166 30 167 C33 166 37 166 40 165 C40 164 41 164 41 163 C43 162 45 162 47 161 C47 162 48 163 48 164 C47 165 47 166 46 167 C46 168 45 169 45 171 C45 172 44 173 44 174 C43 174 43 174 42 174 C42 175 42 175 42 176 C43 176 44 177 45 177 C45 181 45 181 45 185 C44 185 44 185 41 187 C40 186 39 185 38 184 C38 183 38 183 38 182 C37 182 35 182 34 182 C34 183 34 183 34 184 C33 185 32 186 31 187 C31 190 32 192 32 195 C31 196 31 198 30 199 C27 199 27 199 24 198 C22 195 22 195 22 191 C17 190 17 190 12 193 C10 196 11 199 11 203 C15 207 15 207 18 210 C21 212 21 212 22 214 C23 222 22 226 17 232 C13 233 13 233 10 234 C10 235 10 236 10 237 C17 237 23 237 30 237 C30 237 30 238 30 238 C24 238 17 238 11 238 C9 238 8 238 6 238 C4 238 2 238 1 238 C-1 238 -3 238 -4 238 C-6 238 -7 238 -8 238 C-9 237 -9 235 -10 234 C-11 233 -13 233 -14 232 C-14 231 -14 231 -14 230 C-15 230 -16 230 -17 230 C-17 158 -17 86 -17 12 C-16 12 -15 12 -14 12 C-13 11 -13 9 -12 8 C-11 8 -11 8 -10 8 C-9 7 -9 5 -8 4 C-6 4 -4 4 -2 4 C-1 3 -1 1 0 0 Z " fill="#E2E6ED" transform="translate(954,25)"/>
<path d="M0 0 C3 1 3 1 4 3 C7 4 7 4 11 4 C12 3 12 1 13 0 C15 0 16 0 18 0 C17 1 16 3 15 4 C15 5 15 6 15 7 C19 7 19 7 23 7 C23 6 23 5 24 4 C24 2 25 1 25 0 C30 -1 30 -1 35 -1 C36 -1 36 -1 40 -1 C42 -0 43 -0 45 0 C46 1 46 2 47 3 C48 3 50 3 51 3 C52 2 52 1 53 0 C57 -0 57 -0 61 -0 C62 -0 64 -0 65 -0 C67 -0 68 -0 69 0 C69 0 69 0 71 3 C72 3 74 3 75 3 C76 2 76 1 77 0 C81 -0 85 -0 90 -0 C90 -0 90 -0 93 -0 C96 -0 99 -0 102 0 C102 1 102 1 103 7 C104 7 106 7 107 7 C108 6 108 5 109 4 C110 4 110 4 111 4 C112 3 112 1 113 0 C116 -1 116 -1 119 -0 C120 -1 120 -1 122 -1 C123 -0 124 -0 125 0 C125 1 125 1 127 4 C128 4 129 5 130 5 C130 9 130 9 130 13 C129 14 128 14 127 15 C127 16 127 18 127 19 C128 20 129 20 130 21 C130 25 130 25 130 29 C129 29 128 30 127 30 C126 31 126 33 125 34 C121 34 121 34 117 34 C116 34 114 34 113 34 C111 34 110 34 109 34 C108 33 108 32 107 31 C106 31 104 31 103 31 C102 32 102 33 101 34 C98 34 98 34 94 34 C92 34 91 34 89 34 C88 34 86 34 84 34 C83 34 83 34 79 34 C76 34 72 34 68 34 C63 34 58 34 52 34 C49 34 45 34 42 34 C40 35 38 35 37 35 C36 35 36 35 32 35 C31 35 29 35 28 35 C27 34 26 34 25 34 C24 33 24 31 23 30 C22 29 20 29 19 28 C19 27 19 27 19 26 C15 26 15 26 11 27 C10 31 10 31 9 34 C7 34 6 33 4 33 C4 32 3 32 3 31 C2 31 0 31 -1 31 C-1 31 -1 31 -3 34 C-5 34 -6 33 -8 33 C-8 30 -9 27 -9 24 C-10 23 -11 23 -12 22 C-12 21 -12 21 -12 20 C-11 20 -11 20 -5 19 C-5 18 -5 16 -5 15 C-6 14 -7 14 -8 13 C-8 11 -7 10 -7 8 C-6 8 -6 8 -5 8 C-4 7 -4 5 -3 4 C-2 3 -1 1 0 0 Z " fill="#FDFDFD" transform="translate(965,317)"/>
<path d="M0 0 C3 -1 3 -1 6 -0 C7 -1 7 -1 9 -1 C10 -0 11 -0 12 0 C13 1 13 3 14 4 C15 4 16 4 17 4 C17 5 17 6 17 7 C17 9 17 10 17 11 C17 12 17 12 17 16 C18 17 18 18 18 19 C20 19 21 20 23 20 C23 18 23 16 23 15 C23 13 23 11 23 9 C24 9 25 8 26 8 C27 7 27 5 28 4 C29 4 29 4 30 4 C31 3 31 1 32 0 C35 -0 35 -0 39 -0 C40 -0 41 -0 42 -0 C43 -0 43 -0 45 0 C45 4 45 4 45 9 C44 10 43 10 42 11 C42 12 42 14 42 15 C46 15 46 15 50 15 C51 12 51 12 52 8 C53 8 53 8 54 8 C55 7 55 5 56 4 C57 4 57 4 58 4 C59 3 59 1 60 0 C63 -1 63 -1 66 -0 C67 -1 67 -1 69 -1 C70 -0 71 -0 72 0 C72 1 72 1 74 4 C79 4 80 4 84 0 C89 -0 89 -0 94 -0 C95 -0 95 -0 100 -0 C100 -0 100 -0 104 0 C104 1 104 1 106 4 C110 3 110 3 112 0 C117 -0 117 -0 121 0 C121 5 121 11 121 16 C121 18 121 20 121 21 C121 23 121 24 121 26 C122 27 122 28 122 30 C121 31 121 32 121 33 C119 33 118 34 116 34 C114 32 115 25 115 22 C115 21 115 20 115 19 C115 16 115 16 114 11 C111 9 111 9 107 9 C107 9 107 9 105 7 C102 7 100 7 97 6 C95 6 94 6 92 6 C91 6 90 6 89 6 C89 8 89 10 89 12 C90 12 90 12 94 12 C96 12 98 12 100 12 C100 13 100 13 102 16 C102 16 102 16 105 17 C105 18 105 18 104 22 C101 23 101 23 97 23 C96 23 94 23 93 23 C92 23 91 23 90 23 C90 24 90 24 90 28 C90 30 89 31 89 33 C87 33 86 34 84 34 C81 31 83 24 82 20 C82 19 82 17 82 16 C82 13 82 10 82 7 C78 8 78 8 74 11 C74 12 74 14 74 15 C75 16 76 16 77 17 C78 21 77 25 77 29 C77 29 77 29 74 30 C73 31 73 33 72 34 C69 35 69 35 66 34 C65 35 65 35 63 35 C62 34 61 34 60 34 C59 33 59 31 58 30 C57 30 56 29 55 29 C55 28 55 27 55 26 C54 25 54 24 54 23 C52 23 51 22 49 22 C49 23 49 24 49 25 C49 26 49 26 49 29 C48 29 47 30 46 30 C45 31 45 33 44 34 C40 34 40 34 35 34 C34 34 32 34 31 34 C29 34 28 34 27 34 C27 33 27 32 27 31 C26 29 26 28 26 27 C22 26 22 26 18 26 C17 27 17 29 16 30 C12 34 12 34 9 35 C6 35 3 34 0 34 C-1 33 -1 31 -2 30 C-3 30 -4 29 -5 29 C-5 27 -4 26 -4 24 C-2 24 -1 25 1 25 C1 26 2 26 2 27 C5 27 5 27 8 27 C9 27 10 28 11 28 C12 27 13 27 14 27 C14 25 15 24 15 22 C14 22 13 22 12 22 C7 22 6 21 3 18 C3 17 3 17 3 16 C4 15 5 14 6 14 C10 11 10 11 11 6 C7 6 7 6 2 7 C2 7 2 7 0 10 C-2 10 -3 9 -5 9 C-5 7 -4 6 -4 4 C-3 4 -3 4 -2 4 C-1 3 -1 1 0 0 Z " fill="#8B909C" transform="translate(1346,317)"/>
<path d="M0 0 C3 -1 3 -1 6 -0 C7 -1 7 -1 9 -1 C10 -0 11 -0 12 0 C13 1 13 3 14 4 C15 4 16 5 17 5 C17 6 18 6 18 7 C19 7 21 7 22 7 C23 6 23 5 24 4 C25 4 25 4 26 4 C27 3 27 1 28 0 C32 -0 32 -0 37 -0 C38 -0 40 -0 41 -0 C43 -0 44 -0 45 0 C45 1 45 1 45 3 C45 4 45 4 46 7 C47 8 48 8 49 9 C49 13 49 13 49 16 C51 16 52 15 54 15 C55 9 55 9 55 4 C56 4 57 4 58 4 C59 3 59 1 60 0 C63 -1 63 -1 66 -0 C67 -1 67 -1 69 -1 C70 -0 71 -0 72 0 C72 1 72 1 74 4 C75 4 76 5 77 5 C77 7 76 8 76 10 C75 10 75 11 74 11 C74 12 74 14 74 15 C75 16 76 16 77 17 C77 20 77 20 77 24 C77 24 77 24 77 27 C77 28 77 29 77 30 C76 30 75 30 74 30 C73 31 73 33 72 34 C69 35 69 35 66 34 C65 35 65 35 63 35 C62 34 61 34 60 34 C59 33 59 31 58 30 C57 30 56 29 55 29 C55 25 55 25 55 22 C53 22 51 22 49 22 C49 23 49 24 49 25 C49 26 49 26 49 29 C48 29 47 30 46 30 C45 31 45 33 44 34 C40 35 40 35 36 34 C35 35 35 35 32 35 C30 34 29 34 28 34 C27 33 27 31 26 30 C25 30 24 29 23 29 C23 28 22 28 22 27 C21 27 19 27 18 27 C18 29 17 32 17 34 C14 34 11 34 9 34 C8 34 8 34 4 34 C3 34 1 34 0 34 C-1 33 -1 31 -2 30 C-3 30 -4 29 -5 29 C-5 25 -5 21 -5 17 C-5 16 -5 15 -5 14 C-5 11 -5 8 -5 5 C-4 5 -3 4 -2 4 C-1 3 -1 1 0 0 Z " fill="#787E8C" transform="translate(458,317)"/>
<path d="M0 0 C3 -1 3 -1 6 -0 C7 -1 7 -1 9 -1 C10 -0 11 -0 12 0 C13 1 13 3 14 4 C15 4 16 4 17 4 C17 6 17 7 17 9 C18 15 18 15 22 19 C23 19 25 19 26 19 C26 18 26 17 26 16 C27 14 27 13 27 12 C28 12 29 11 30 11 C30 7 31 4 31 0 C34 0 38 0 41 0 C41 1 41 1 41 3 C41 4 41 4 42 7 C43 7 44 8 45 8 C45 10 46 13 46 15 C47 16 48 16 49 17 C49 21 49 24 49 28 C51 28 53 28 55 28 C55 19 55 10 55 0 C59 -0 63 -0 67 -0 C69 -0 70 -0 71 -0 C74 -0 74 -0 80 0 C80 1 80 1 81 5 C80 6 80 6 76 6 C74 6 72 6 70 6 C69 6 67 6 65 6 C64 6 64 6 61 6 C61 8 61 10 61 12 C62 12 62 12 64 12 C66 12 67 12 68 12 C69 12 69 12 73 12 C76 12 76 12 77 13 C77 16 77 18 77 21 C76 22 76 22 73 22 C71 22 70 22 68 22 C68 22 68 22 64 22 C63 22 62 22 61 22 C61 24 61 26 61 28 C62 28 62 28 64 28 C65 28 67 28 68 28 C69 28 69 28 72 28 C76 28 78 29 81 32 C81 33 81 33 81 34 C68 34 56 34 43 34 C43 33 43 33 42 27 C38 27 34 27 30 27 C30 29 29 32 29 34 C25 34 25 34 20 34 C19 33 19 32 18 31 C17 31 15 31 14 31 C14 31 14 31 12 34 C9 34 9 34 6 34 C5 34 4 34 3 34 C2 34 1 34 0 34 C-1 33 -1 31 -2 30 C-3 30 -4 29 -5 29 C-5 27 -6 25 -6 23 C-7 22 -8 22 -9 21 C-9 17 -9 17 -9 13 C-8 12 -7 12 -6 11 C-5 7 -5 7 -5 4 C-4 4 -3 4 -2 4 C-1 3 -1 1 0 0 Z " fill="#666D7C" transform="translate(702,317)"/>
<path d="M0 0 C3 -1 3 -1 8 -1 C10 -1 12 -1 13 -1 C14 -1 14 -1 19 -1 C21 -1 23 -1 25 -1 C31 -1 37 -1 42 -1 C48 -1 54 -1 60 -1 C69 -1 79 -1 89 -1 C100 -0 112 -1 123 -1 C133 -1 142 -1 152 -1 C158 -1 164 -1 169 -1 C175 -1 180 -1 186 -1 C189 -1 192 -1 195 -1 C195 -1 195 -1 200 -1 C201 -1 201 -1 205 -1 C206 -0 207 -0 208 0 C208 1 208 1 210 4 C211 4 211 4 214 6 C214 7 214 7 214 8 C215 8 215 8 218 10 C218 11 218 11 218 12 C219 12 220 12 221 12 C221 84 221 156 221 230 C220 230 219 230 218 230 C217 231 217 233 216 234 C215 234 215 234 214 234 C213 235 213 237 212 238 C211 238 209 237 208 237 C209 237 209 237 210 237 C210 236 210 236 210 235 C212 233 214 232 216 230 C218 226 217 222 218 218 C218 216 218 214 218 212 C218 207 218 207 217 204 C216 200 216 196 216 192 C216 191 216 189 216 187 C216 186 216 184 216 182 C216 180 216 178 216 177 C216 173 216 169 216 165 C216 159 216 152 216 146 C216 128 216 111 216 93 C216 83 216 73 216 63 C216 57 216 51 216 45 C217 40 217 35 217 31 C217 29 217 27 217 25 C217 24 217 22 217 21 C217 19 217 18 217 17 C216 12 214 11 211 8 C210 7 210 7 207 4 C205 4 204 5 202 5 C199 5 197 5 194 5 C192 5 190 5 189 5 C187 5 185 5 183 5 C180 5 177 5 174 5 C171 5 167 5 164 5 C157 5 151 5 144 5 C143 5 142 5 140 5 C138 5 136 5 133 5 C118 5 102 5 86 5 C76 5 65 5 55 5 C49 5 43 5 38 5 C31 4 25 4 19 4 C17 4 15 4 13 4 C12 4 10 4 8 4 C7 4 5 4 4 4 C-1 5 -1 6 -4 10 C-6 10 -7 10 -9 10 C-9 9 -9 9 -9 8 C-8 8 -7 8 -6 8 C-5 7 -5 5 -4 4 C-3 4 -3 4 -2 4 C-1 3 -1 1 0 0 Z " fill="#9AA2E9" transform="translate(1270,25)"/>
<path d="M0 0 C4 -1 4 -1 8 -1 C9 -1 11 -1 12 -1 C14 -1 15 -0 16 0 C17 4 17 4 18 7 C19 7 21 7 22 7 C22 6 22 5 23 4 C23 2 24 1 24 0 C28 -1 28 -1 34 -1 C35 -1 35 -1 40 -1 C40 -1 40 -1 44 0 C45 1 45 3 46 4 C47 4 48 4 49 4 C49 5 49 7 49 8 C49 10 49 12 49 13 C49 15 49 17 49 19 C49 20 49 22 49 23 C50 23 52 24 53 24 C53 25 53 25 53 26 C52 26 50 27 49 27 C49 29 49 32 49 34 C40 34 32 34 23 34 C23 32 22 29 22 27 C21 27 19 27 18 27 C17 28 17 29 16 30 C15 30 15 30 14 30 C13 31 13 33 12 34 C2 35 2 35 -3 32 C-6 27 -6 22 -6 17 C-6 16 -6 15 -6 13 C-5 11 -5 8 -5 5 C-4 5 -3 4 -2 4 C-1 3 -1 1 0 0 Z " fill="#B6BAC1" transform="translate(1734,317)"/>
<path d="M0 0 C4 -1 4 -1 10 -1 C11 -1 11 -1 16 -1 C16 -1 16 -1 20 0 C21 1 21 3 22 4 C23 4 24 5 25 5 C26 8 26 8 26 11 C27 11 29 11 30 11 C31 9 31 6 32 4 C33 4 33 4 34 4 C35 3 35 1 36 0 C39 -1 39 -1 42 -0 C43 -1 43 -1 45 -1 C46 -0 47 -0 48 0 C49 1 49 3 50 4 C51 4 52 4 53 4 C53 13 53 21 53 30 C52 30 51 30 50 30 C49 31 49 33 48 34 C45 35 45 35 42 34 C41 35 40 35 39 35 C38 34 37 34 36 34 C35 33 35 31 34 30 C33 30 32 29 31 29 C30 26 30 26 30 23 C29 23 27 23 26 23 C25 25 25 28 24 30 C23 30 23 30 22 30 C21 31 21 33 20 34 C16 35 16 35 12 34 C11 35 9 35 8 35 C6 34 5 34 4 34 C3 33 3 31 2 30 C1 29 -1 29 -2 28 C-2 27 -2 27 -2 26 C-3 26 -4 25 -5 25 C-5 21 -5 21 -5 16 C-5 15 -5 13 -5 12 C-5 11 -5 9 -5 8 C-4 8 -3 7 -2 7 C-2 6 -2 5 -1 3 C-1 3 -1 3 0 0 Z " fill="#FDFDFD" transform="translate(790,317)"/>
<path d="M0 0 C7 0 15 0 22 0 C22 2 23 5 23 7 C24 7 26 7 27 7 C28 6 28 5 29 4 C30 4 30 4 31 4 C32 3 32 1 33 0 C36 -1 36 -1 39 -0 C40 -1 40 -1 42 -1 C43 -0 44 -0 45 0 C46 1 46 3 47 4 C48 4 49 5 50 5 C50 9 50 9 50 13 C49 14 48 14 47 15 C47 16 47 18 47 19 C48 20 49 20 50 21 C50 25 50 25 50 29 C49 29 48 30 47 30 C46 31 46 33 45 34 C41 34 41 34 37 34 C36 34 34 34 33 34 C31 34 30 34 29 34 C28 33 28 32 27 31 C26 31 24 31 23 31 C23 31 23 31 21 34 C16 34 16 34 10 34 C8 34 7 34 5 34 C4 34 4 34 0 34 C-1 23 -1 11 0 0 Z " fill="#FCFCFD" transform="translate(1045,317)"/>
<path d="M0 0 C4 1 5 3 7 6 C7 7 7 7 7 8 C8 8 9 9 10 9 C10 11 9 12 9 14 C8 14 8 15 7 15 C7 16 7 18 7 19 C8 20 9 20 10 21 C11 25 10 29 10 33 C9 33 8 34 7 34 C6 35 6 37 5 38 C2 39 2 39 -1 38 C-2 39 -3 39 -4 39 C-5 38 -6 38 -7 38 C-8 37 -8 35 -9 34 C-10 34 -11 34 -12 34 C-12 32 -13 29 -13 27 C-14 27 -16 27 -17 27 C-18 28 -18 29 -19 30 C-19 30 -19 30 -22 30 C-23 30 -24 31 -25 31 C-26 35 -26 35 -27 38 C-29 38 -30 37 -32 37 C-32 36 -33 36 -33 35 C-34 35 -36 35 -37 35 C-38 36 -38 37 -39 38 C-41 38 -42 37 -44 37 C-45 29 -45 29 -44 25 C-43 24 -42 24 -41 23 C-41 22 -41 20 -41 19 C-42 18 -43 18 -44 17 C-44 15 -43 14 -43 12 C-42 12 -42 12 -41 12 C-40 11 -40 9 -39 8 C-38 8 -38 8 -37 8 C-36 7 -36 5 -35 4 C-33 4 -32 5 -30 5 C-30 6 -29 6 -29 7 C-28 7 -26 7 -25 7 C-24 6 -24 5 -23 4 C-21 4 -20 4 -18 4 C-18 5 -18 5 -18 6 C-19 7 -20 7 -21 8 C-21 9 -21 10 -21 11 C-17 12 -17 12 -13 12 C-12 11 -12 9 -11 8 C-10 8 -10 8 -9 8 C-8 7 -8 5 -7 4 C-5 4 -3 4 -1 4 C-1 3 -0 1 0 0 Z " fill="#BDC0C8" transform="translate(1325,313)"/>
<path d="M0 0 C2 0 3 1 5 1 C6 4 6 4 6 7 C7 7 9 7 10 7 C11 4 11 4 12 0 C13 0 13 0 17 1 C17 5 17 5 17 8 C19 8 20 7 22 7 C23 6 23 5 24 4 C25 4 25 4 26 4 C27 3 27 1 28 0 C32 -0 32 -0 36 -0 C38 -0 39 -0 40 -0 C44 0 44 0 45 1 C46 6 46 12 45 17 C42 21 42 21 38 23 C38 24 38 24 37 28 C38 28 39 28 40 28 C42 28 43 28 44 28 C44 29 44 29 45 33 C44 34 44 34 39 34 C37 34 35 34 33 34 C31 34 30 34 28 34 C26 34 25 34 23 34 C23 32 22 29 22 27 C18 27 18 27 14 27 C12 30 12 30 12 34 C10 34 9 33 7 33 C6 30 6 30 6 27 C5 27 3 27 2 27 C1 30 1 30 0 34 C-2 34 -3 33 -5 33 C-6 30 -6 30 -6 27 C-7 26 -8 26 -9 25 C-9 23 -8 22 -8 20 C-7 20 -7 19 -6 19 C-6 17 -6 15 -6 14 C-5 12 -5 10 -5 8 C-4 8 -3 7 -2 7 C-1 3 -1 3 0 0 Z " fill="#F6F6F7" transform="translate(50,317)"/>
<path d="M0 0 C1 0 1 0 5 1 C8 5 7 7 7 12 C7 14 7 16 7 18 C7 19 7 21 7 23 C7 25 7 27 7 29 C7 33 7 37 7 41 C7 46 7 52 7 57 C7 62 7 67 7 72 C7 74 7 75 7 77 C7 79 7 81 7 83 C7 84 7 86 7 87 C7 91 7 91 6 95 C6 99 6 103 7 107 C7 110 7 113 7 116 C7 118 7 120 7 121 C7 123 7 125 7 127 C7 129 7 131 7 133 C7 134 7 136 7 138 C7 140 7 141 7 143 C7 147 7 147 6 151 C6 154 6 156 6 159 C6 160 6 162 6 163 C6 167 6 167 7 171 C7 173 7 175 7 177 C7 179 7 180 7 181 C7 182 7 184 7 185 C7 186 7 187 7 189 C7 190 7 191 7 193 C7 194 7 195 7 196 C7 199 7 199 6 204 C3 203 3 203 0 202 C-1 199 -1 199 -1 194 C-1 192 -1 191 -1 189 C-1 187 -1 185 -1 183 C-1 181 -1 179 -1 177 C-1 172 -1 166 -1 161 C-1 155 -1 150 -1 144 C-1 133 -0 123 -0 112 C-0 100 -0 87 -0 75 C-0 50 -0 25 0 0 Z " fill="#60677B" transform="translate(321,45)"/>
<path d="M0 0 C3 -0 7 -0 10 -0 C11 -0 11 -0 16 -1 C17 -1 17 -1 21 0 C22 4 22 4 23 7 C24 7 26 7 27 7 C27 6 27 5 28 4 C28 2 29 1 29 0 C33 -1 33 -1 37 -1 C38 -1 38 -1 41 -1 C42 -1 42 -1 45 0 C46 1 46 3 47 4 C48 4 49 4 50 4 C50 13 50 21 50 30 C49 30 48 30 47 30 C46 31 46 33 45 34 C41 34 41 34 36 34 C35 34 33 34 32 34 C30 34 29 34 28 34 C28 33 28 32 28 31 C27 29 27 28 27 27 C26 27 25 26 24 26 C23 22 23 22 23 19 C20 19 20 19 16 19 C15 20 15 21 14 22 C13 22 13 22 12 22 C12 21 11 19 11 18 C9 18 8 18 6 18 C6 19 6 20 6 21 C6 23 6 24 6 25 C6 27 6 28 6 30 C6 31 6 32 6 33 C5 33 5 33 1 34 C0 33 0 33 -0 30 C-0 28 -0 27 -0 26 C-0 24 -0 23 -0 21 C-0 20 -0 18 -0 16 C-0 16 -0 16 -0 12 C-0 8 -0 4 0 0 Z " fill="#585F71" transform="translate(1101,317)"/>
<path d="M0 0 C1 0 1 0 6 0 C8 0 10 0 12 0 C13 0 15 0 16 0 C16 3 16 5 16 8 C18 8 20 7 21 7 C22 6 23 5 23 4 C24 4 25 4 25 4 C26 3 27 1 27 0 C30 -0 30 -0 33 -0 C34 -0 34 -0 37 -0 C37 -0 38 -0 39 0 C40 1 41 3 41 4 C42 4 43 5 44 5 C45 9 45 13 45 17 C45 18 45 19 45 21 C45 23 45 26 44 29 C43 29 42 30 41 30 C41 31 40 33 39 34 C35 34 35 34 31 34 C29 34 28 34 26 34 C25 34 24 34 22 34 C22 30 22 30 22 25 C23 24 24 24 25 23 C25 22 25 20 25 19 C21 15 21 15 16 14 C16 15 16 15 16 17 C16 19 16 20 16 22 C17 22 17 22 17 26 C17 27 16 28 16 29 C15 29 14 30 13 30 C13 31 12 33 11 34 C7 34 7 34 3 34 C1 34 -0 34 -2 34 C-3 34 -4 34 -6 34 C-6 30 -6 30 -6 25 C-4 25 -2 24 -1 24 C-0 25 1 27 1 28 C6 28 6 28 10 28 C11 24 11 24 9 19 C6 18 2 18 -2 18 C-3 18 -4 18 -5 18 C-6 17 -6 17 -6 14 C-6 12 -6 11 -6 9 C-6 8 -6 6 -6 5 C-6 -1 -6 0 0 0 Z " fill="#8F94A0" transform="translate(1650.69140625,316.90234375)"/>
<path d="M0 0 C2 0 3 1 5 1 C6 4 6 4 6 7 C7 7 9 7 10 7 C11 4 11 4 12 0 C13 0 13 0 17 1 C18 4 18 4 18 7 C19 8 20 8 21 9 C22 12 22 12 22 15 C23 15 25 15 26 15 C27 12 27 12 28 8 C29 8 29 7 30 7 C30 5 31 2 31 0 C34 0 38 0 41 0 C41 1 41 1 41 5 C42 7 42 9 42 11 C43 12 44 12 45 13 C45 16 46 20 46 23 C47 24 48 24 49 25 C50 29 50 29 49 33 C48 33 48 33 44 34 C44 33 44 32 44 31 C43 29 43 28 42 27 C38 26 34 25 30 26 C29 27 29 29 28 30 C27 31 25 33 24 34 C22 34 21 33 19 33 C18 30 18 30 18 27 C14 27 14 27 10 27 C8 30 8 30 8 34 C6 34 5 33 3 33 C3 32 2 32 2 31 C1 31 -1 30 -2 30 C-2 31 -3 33 -3 34 C-4 34 -5 33 -6 33 C-6 31 -6 29 -6 27 C-7 26 -8 26 -9 25 C-9 23 -8 22 -8 20 C-7 20 -7 19 -6 19 C-6 17 -5 16 -5 14 C-6 14 -8 13 -9 13 C-9 11 -8 10 -8 8 C-7 8 -6 8 -5 8 C-4 7 -3 7 -2 7 C-1 3 -1 3 0 0 Z " fill="#737989" transform="translate(642,317)"/>
<path d="M0 0 C1 0 1 0 5 1 C6 4 6 4 6 7 C7 8 8 8 9 9 C9 11 8 12 8 14 C8 14 8 14 6 15 C6 16 6 18 6 19 C10 23 10 23 14 23 C14 17 15 10 15 4 C16 4 17 4 18 4 C19 3 19 1 20 0 C23 -1 23 -1 26 -0 C27 -1 27 -1 29 -1 C30 -0 31 -0 32 0 C33 1 33 3 34 4 C35 4 36 4 37 4 C37 5 37 7 37 8 C37 10 37 12 37 13 C37 15 37 17 37 19 C37 20 37 22 37 23 C38 23 40 24 41 24 C41 25 41 25 41 26 C40 26 38 27 37 27 C37 31 37 31 37 34 C34 34 31 34 29 34 C28 34 28 34 24 34 C23 34 21 34 20 34 C19 33 19 31 18 30 C17 30 16 29 15 29 C15 28 15 28 15 27 C13 27 11 27 9 27 C9 28 8 29 8 30 C7 31 5 33 4 34 C2 34 1 33 -1 33 C-1 32 -1 31 -1 30 C-2 29 -2 28 -2 27 C-5 26 -5 26 -9 26 C-13 26 -13 26 -16 26 C-16 25 -16 25 -17 21 C-16 20 -15 20 -14 19 C-13 17 -13 14 -12 12 C-11 12 -11 12 -10 12 C-9 11 -9 9 -8 8 C-7 8 -7 8 -6 8 C-5 7 -5 5 -4 4 C-3 4 -3 4 -2 4 C-1 3 -1 1 0 0 Z " fill="#727886" transform="translate(202,317)"/>
<path d="M0 0 C3 1 3 1 4 3 C7 4 7 4 11 4 C12 3 12 1 13 0 C15 0 16 0 18 0 C17 1 16 3 15 4 C15 5 15 6 15 7 C19 7 19 7 23 7 C23 6 23 5 24 4 C24 2 25 1 25 0 C30 -1 30 -1 35 -1 C37 -1 39 -0 41 -0 C42 -0 44 -0 45 0 C45 0 45 0 46 2 C40 3 35 5 29 6 C29 7 29 7 30 14 C35 15 35 15 40 16 C40 17 40 17 40 18 C38 18 37 18 35 19 C33 19 32 20 30 20 C28 23 28 23 28 26 C32 28 32 28 35 28 C39 29 42 30 45 33 C45 33 45 34 45 34 C42 34 38 34 35 34 C33 34 31 34 30 34 C28 34 27 34 25 34 C24 33 24 31 23 30 C22 29 20 29 19 28 C19 27 19 27 19 26 C15 26 15 26 11 27 C10 31 10 31 9 34 C7 34 6 33 4 33 C4 32 3 32 3 31 C2 31 0 31 -1 31 C-1 31 -1 31 -3 34 C-5 34 -6 33 -8 33 C-8 30 -9 27 -9 24 C-10 23 -11 23 -12 22 C-12 21 -12 21 -12 20 C-11 20 -11 20 -5 19 C-5 18 -5 16 -5 15 C-6 14 -7 14 -8 13 C-8 11 -7 10 -7 8 C-6 8 -6 8 -5 8 C-4 7 -4 5 -3 4 C-2 3 -1 1 0 0 Z " fill="#9298A3" transform="translate(965,317)"/>
<path d="M0 0 C1 0 2 0 3 0 C3 1 3 2 3 4 C3 5 3 7 3 8 C4 10 4 11 4 13 C4 17 4 17 5 19 C7 19 8 19 10 19 C15 20 15 20 19 24 C20 28 20 28 19 32 C15 36 15 36 12 37 C12 38 12 38 10 42 C9 42 9 42 8 42 C5 48 5 54 5 60 C5 62 5 64 5 66 C5 68 5 70 5 72 C5 74 5 76 5 78 C5 83 5 88 5 94 C5 102 5 111 5 119 C5 122 5 125 5 128 C5 138 5 147 4 157 C4 162 4 167 4 172 C4 182 4 182 3 184 C2 184 2 184 1 184 C-0 180 -0 178 -0 174 C-0 172 -0 171 -0 169 C-0 167 -0 166 -0 164 C-0 162 -0 161 -0 159 C-0 154 -0 149 -0 144 C-0 139 -0 134 -0 129 C-0 119 -0 110 -0 100 C-0 89 -0 78 -0 67 C-0 45 -0 22 0 0 Z " fill="#DEE3EB" transform="translate(937,64)"/>
<path d="M0 0 C4 -0 8 -0 12 -0 C14 -0 15 -0 16 -0 C19 -0 19 -0 25 0 C25 1 25 1 26 5 C25 6 25 6 21 6 C19 6 17 6 15 6 C14 6 12 6 10 6 C9 6 9 6 6 6 C6 8 6 10 6 12 C7 12 7 12 9 12 C11 12 12 12 13 12 C14 12 14 12 18 12 C21 12 21 12 22 13 C22 16 22 18 22 21 C21 22 21 22 18 22 C16 22 15 22 13 22 C13 22 13 22 9 22 C8 22 7 22 6 22 C6 24 6 26 6 28 C7 28 7 28 9 28 C10 28 12 28 13 28 C14 28 14 28 17 28 C21 28 23 29 26 32 C26 33 26 33 26 34 C13 34 1 34 -12 34 C-12 32 -13 29 -13 27 C-15 27 -16 27 -18 27 C-20 27 -21 26 -23 26 C-24 22 -24 18 -24 14 C-25 14 -25 13 -26 13 C-25 12 -24 12 -23 11 C-21 10 -20 8 -18 7 C-18 8 -17 8 -17 9 C-13 9 -13 9 -10 8 C-10 9 -10 10 -10 11 C-9 13 -9 14 -9 15 C-8 16 -7 16 -6 17 C-6 21 -6 24 -6 28 C-4 28 -2 28 0 28 C0 19 0 10 0 0 Z " fill="#9095A1" transform="translate(757,317)"/>
<path d="M0 0 C2 -0 4 -0 6 -0 C6 -0 6 -0 10 0 C11 2 11 3 12 4 C13 5 15 6 16 6 C16 7 16 8 16 8 C17 9 18 9 19 9 C20 13 20 13 20 17 C20 18 20 20 20 21 C19 26 18 27 14 30 C13 30 13 30 12 30 C11 32 11 33 10 34 C6 35 6 35 0 35 C-1 35 -1 35 -6 35 C-10 34 -10 34 -11 33 C-11 31 -11 29 -11 26 C-11 25 -11 23 -11 22 C-11 20 -11 19 -11 17 C-11 16 -11 14 -11 13 C-11 11 -11 10 -11 8 C-11 7 -11 6 -11 4 C-11 -2 -5 0 0 0 Z " fill="#616879" transform="translate(111.9375,316.6875)"/>
<path d="M0 0 C1 1 1 3 2 4 C3 4 3 4 4 4 C4 62 4 121 4 181 C3 181 2 181 1 181 C1 182 1 182 -1 185 C-2 185 -2 185 -3 185 C-3 186 -3 186 -5 189 C-6 189 -8 188 -9 188 C-8 188 -8 188 -7 188 C-7 187 -7 187 -7 186 C-5 184 -3 183 -1 181 C1 177 0 173 1 169 C1 167 1 165 1 163 C1 158 1 158 0 155 C-2 149 -1 143 -1 136 C-1 136 -1 136 -1 132 C-1 127 -1 122 -1 118 C-1 114 -1 111 -1 107 C-1 100 -1 93 -1 86 C-1 77 -1 68 -1 59 C-1 52 -1 46 -1 39 C-1 35 -1 32 -1 29 C-1 24 -1 19 -1 15 C-1 13 -1 12 -1 11 C-1 1 -1 1 0 0 Z " fill="#8E95E8" transform="translate(1487,74)"/>
<path d="M0 0 C3 -0 6 -0 8 -0 C10 -0 11 -0 13 -0 C14 -0 16 -0 17 0 C18 1 18 2 19 3 C20 3 22 4 23 4 C24 3 24 1 25 0 C29 -0 33 -1 37 -1 C38 -1 39 -1 40 -1 C44 -1 44 -1 49 0 C49 1 49 1 50 5 C49 6 48 6 47 7 C46 9 46 12 45 14 C44 14 44 15 43 15 C43 16 42 17 42 18 C42 20 41 21 41 22 C41 22 41 22 39 23 C39 24 39 25 39 26 C38 27 38 27 38 30 C37 30 36 31 35 31 C34 32 34 33 33 34 C31 34 30 33 28 33 C28 31 29 30 29 28 C30 28 30 27 31 27 C31 26 31 25 31 24 C32 23 32 23 32 20 C33 20 34 19 35 19 C36 18 38 16 39 15 C39 12 39 10 39 7 C34 7 28 7 23 7 C23 9 23 10 23 12 C23 14 23 16 23 18 C23 19 23 20 23 21 C23 24 22 26 22 29 C21 29 20 30 19 30 C18 31 18 33 17 34 C13 35 13 35 9 34 C8 35 8 35 5 35 C1 34 -1 33 -4 30 C-4 28 -4 28 0 24 C1 24 2 25 3 25 C3 26 3 27 3 28 C7 28 12 28 16 28 C16 26 16 24 16 22 C15 22 14 22 13 22 C8 22 7 21 4 18 C4 16 4 16 6 14 C10 12 12 12 16 12 C16 10 16 8 16 6 C14 6 12 6 10 6 C10 6 10 6 7 6 C6 7 6 7 4 7 C4 7 4 7 2 10 C1 10 1 10 0 10 C0 7 0 3 0 0 Z " fill="#787F8C" transform="translate(137,317)"/>
<path d="M0 0 C3 -1 3 -1 8 -1 C10 -1 11 -1 13 -1 C15 -1 17 -1 19 -1 C21 -1 23 -1 25 -1 C30 -1 36 -1 41 -1 C47 -1 53 -1 58 -1 C68 -1 78 -1 87 -1 C98 -0 109 -1 120 -1 C130 -1 140 -1 149 -1 C155 -1 160 -1 166 -1 C171 -1 177 -1 182 -1 C185 -1 188 -1 191 -1 C192 -1 192 -1 196 -1 C197 -1 197 -1 201 -1 C202 -0 203 -0 204 0 C204 1 204 1 206 4 C210 4 210 4 213 4 C213 6 213 7 213 9 C212 9 211 8 210 8 C209 7 208 6 207 6 C206 5 205 5 204 4 C200 3 200 3 196 4 C190 5 186 5 180 5 C178 5 175 5 173 5 C172 5 171 5 169 5 C145 4 120 4 95 4 C94 4 93 4 91 4 C78 4 64 4 50 4 C45 4 40 4 35 4 C31 4 28 4 24 4 C22 4 20 4 17 4 C16 4 14 4 12 4 C7 4 7 4 2 3 C1 3 -1 4 -2 4 C-1 3 -1 1 0 0 Z " fill="#D7D8EB" transform="translate(638,25)"/>
<path d="M0 0 C2 -0 4 -0 6 -0 C7 -0 7 -0 11 -0 C13 -0 14 -0 16 -0 C20 0 20 0 25 1 C27 1 30 1 32 1 C34 1 35 1 37 1 C39 1 40 1 42 1 C43 1 43 1 47 1 C50 1 54 1 57 1 C63 1 68 1 73 1 C77 1 80 1 84 1 C85 1 87 1 89 1 C96 1 103 1 110 0 C114 0 119 0 123 0 C124 0 126 0 127 0 C131 0 135 0 139 1 C141 1 144 1 147 1 C153 1 160 1 166 1 C165 2 165 4 164 5 C161 6 161 6 156 6 C156 6 156 6 151 6 C150 6 150 6 146 6 C144 6 142 6 140 6 C135 6 130 6 124 6 C119 6 113 6 108 6 C99 6 89 6 80 6 C70 6 59 6 48 6 C39 6 30 6 21 6 C15 6 10 6 4 6 C-2 6 -8 6 -14 6 C-16 6 -17 6 -19 6 C-21 6 -23 6 -24 6 C-26 6 -27 6 -29 6 C-30 5 -31 5 -32 5 C-33 4 -33 2 -34 1 C-23 0 -11 -0 0 0 Z " fill="#FEF5FE" transform="translate(1310,261.875)"/>
<path d="M0 0 C1 0 3 0 4 0 C3 5 3 5 0 9 C-0 13 -0 13 -0 18 C-0 19 -0 21 -0 23 C-0 25 -0 27 -0 29 C-0 31 -0 33 -0 35 C-0 41 -0 47 -0 52 C-0 57 -0 62 -0 67 C-1 78 -1 89 -1 100 C-0 112 -1 124 -1 135 C-1 145 -1 155 -1 165 C-1 171 -1 177 -1 183 C-1 188 -1 194 -1 200 C-1 203 -1 206 -1 209 C-1 209 -1 209 -1 214 C-1 216 -1 217 -1 219 C0 224 2 226 5 230 C6 231 7 231 8 232 C8 233 8 233 8 234 C7 234 5 233 4 233 C4 232 3 231 3 230 C2 229 0 229 -1 228 C-1 227 -1 227 -1 226 C-2 226 -3 226 -4 226 C-4 198 -4 169 -4 141 C-4 128 -4 114 -4 101 C-4 90 -4 78 -4 67 C-4 61 -4 55 -4 48 C-4 43 -4 37 -4 31 C-4 29 -4 27 -4 25 C-4 22 -4 19 -4 16 C-4 15 -4 13 -4 12 C-4 10 -4 9 -4 8 C-3 8 -2 7 -1 7 C-0 3 -0 3 0 0 Z " fill="#F3B64E" transform="translate(1573,29)"/>
<path d="M0 0 C4 -1 4 -1 8 -1 C9 -1 11 -1 12 -1 C14 -1 15 -0 16 0 C17 3 17 3 18 7 C18 9 19 10 19 12 C20 18 19 23 17 29 C16 29 15 30 14 30 C13 31 13 33 12 34 C2 35 2 35 -3 32 C-6 27 -6 22 -6 17 C-6 16 -6 15 -6 13 C-5 11 -5 8 -5 5 C-4 5 -3 4 -2 4 C-1 3 -1 1 0 0 Z " fill="#485061" transform="translate(1734,317)"/>
<path d="M0 0 C1 0 1 1 2 1 C2 6 2 10 2 15 C2 16 2 16 2 20 C2 25 2 30 2 35 C2 38 2 42 2 45 C2 52 2 60 2 67 C2 76 2 86 2 95 C2 102 2 109 2 116 C2 120 2 123 2 127 C2 131 2 136 2 141 C2 143 2 144 2 145 C2 147 2 148 2 149 C2 151 2 152 2 153 C2 156 2 159 1 162 C1 164 1 167 1 169 C1 171 1 172 1 173 C1 174 1 175 1 176 C-0 176 -2 175 -3 175 C-4 172 -4 172 -4 168 C-4 167 -4 165 -4 164 C-4 163 -4 163 -4 159 C-4 157 -4 156 -4 154 C-4 148 -4 143 -3 137 C-3 133 -3 129 -4 125 C-4 117 -3 109 -3 101 C-3 91 -3 82 -3 72 C-3 63 -3 54 -3 45 C-3 41 -3 37 -3 33 C-3 28 -3 22 -3 17 C-3 15 -3 14 -3 12 C-3 11 -3 9 -3 8 C-3 6 -3 5 -3 4 C-3 3 -3 3 -3 1 C-2 1 -1 0 0 0 Z " fill="#FEFEFD" transform="translate(624,72)"/>
<path d="M0 0 C2 -0 4 -0 6 -0 C6 -0 6 -0 10 0 C11 2 11 3 12 4 C16 3 16 3 18 0 C23 0 23 0 27 0 C27 6 27 11 27 17 C27 18 27 20 27 22 C27 23 27 25 27 26 C28 27 28 29 28 30 C27 31 27 32 27 33 C26 34 26 34 22 34 C20 32 21 26 21 22 C21 21 21 20 21 19 C21 16 21 16 20 11 C17 10 17 10 13 9 C12 9 12 8 11 7 C8 7 6 7 3 7 C1 7 -0 7 -2 7 C-3 6 -4 6 -5 6 C-5 8 -5 10 -5 12 C-4 12 -4 12 0 12 C1 12 1 12 6 12 C7 14 7 15 8 16 C9 17 10 17 11 17 C11 19 10 21 10 22 C7 23 7 23 3 23 C2 23 0 23 -1 23 C-2 23 -3 23 -4 23 C-4 25 -4 27 -4 28 C-4 30 -5 32 -5 33 C-6 34 -6 34 -10 34 C-13 31 -12 22 -12 18 C-12 16 -12 15 -12 14 C-12 12 -12 11 -12 9 C-12 8 -12 7 -12 5 C-12 -2 -6 0 0 0 Z " fill="#7F8592" transform="translate(1440,316.625)"/>
<path d="M0 0 C3 -1 3 -1 8 -1 C10 -1 11 -1 13 -1 C15 -1 17 -1 19 -1 C21 -1 23 -1 25 -1 C30 -1 36 -1 41 -1 C47 -1 53 -1 58 -1 C68 -1 78 -1 87 -1 C98 -0 109 -1 120 -1 C130 -1 140 -1 149 -1 C155 -1 160 -1 166 -1 C171 -1 177 -1 182 -1 C185 -1 188 -1 191 -1 C192 -1 192 -1 196 -1 C197 -1 197 -1 201 -1 C202 -0 203 -0 204 0 C204 1 204 1 206 4 C137 4 69 4 -2 4 C-1 3 -1 1 0 0 Z " fill="#F5C879" transform="translate(1582,25)"/>
<path d="M0 0 C4 1 5 3 7 6 C7 7 7 7 7 8 C8 8 9 9 10 9 C10 12 10 12 10 15 C10 17 10 18 10 19 C10 21 10 22 10 24 C10 24 10 24 10 28 C10 31 10 35 10 38 C7 38 4 38 2 38 C1 38 1 38 -3 38 C-4 38 -6 38 -7 38 C-8 37 -8 35 -9 34 C-10 34 -11 33 -12 33 C-12 29 -12 25 -12 21 C-12 20 -12 19 -12 18 C-12 15 -12 12 -12 9 C-11 9 -10 8 -9 8 C-8 7 -8 5 -7 4 C-5 4 -3 4 -1 4 C-1 3 -0 1 0 0 Z " fill="#51596A" transform="translate(437,313)"/>
<path d="M0 0 C2 0 4 0 6 1 C13 1 21 1 29 1 C48 -0 68 -0 88 -0 C90 -0 91 -0 93 -0 C103 -0 113 -0 123 -0 C132 -0 141 -0 149 -0 C166 -0 183 -0 200 0 C199 1 199 3 198 4 C195 5 195 5 190 5 C190 5 190 5 185 5 C184 5 184 5 180 5 C178 5 176 5 174 5 C169 5 164 5 158 5 C153 5 147 5 142 5 C133 5 123 5 114 5 C104 4 93 5 82 5 C73 5 64 5 55 5 C49 5 44 5 38 5 C32 5 26 5 20 5 C18 5 17 5 15 5 C13 5 11 5 10 5 C8 5 7 5 5 5 C4 4 3 4 2 4 C1 3 1 1 0 0 Z " fill="#FEFEFE" transform="translate(340,263)"/>
<path d="M0 0 C3 -1 3 -1 6 -0 C7 -1 7 -1 9 -1 C10 -0 11 -0 12 0 C13 1 13 3 14 4 C15 4 16 4 17 4 C17 13 17 21 17 30 C16 30 15 30 14 30 C13 31 13 33 12 34 C9 35 9 35 6 34 C5 35 5 35 3 35 C2 34 1 34 0 34 C-1 33 -1 31 -2 30 C-3 30 -4 29 -5 29 C-6 25 -6 25 -6 21 C-6 19 -6 18 -6 16 C-6 12 -6 9 -5 5 C-4 5 -3 4 -2 4 C-1 3 -1 1 0 0 Z " fill="#4C5467" transform="translate(826,317)"/>
<path d="M0 0 C3 -1 3 -1 6 -0 C7 -1 7 -1 9 -1 C10 -0 11 -0 12 0 C13 1 13 3 14 4 C15 4 16 5 17 5 C17 9 17 9 17 13 C16 14 15 14 14 15 C14 16 14 18 14 19 C15 20 16 20 17 21 C17 25 17 25 17 29 C16 29 15 30 14 30 C13 31 13 33 12 34 C7 35 1 35 -4 34 C-8 30 -8 28 -8 22 C-7 21 -5 19 -4 18 C-4 15 -4 15 -4 11 C-5 8 -5 8 -5 5 C-4 5 -3 4 -2 4 C-1 3 -1 1 0 0 Z " fill="#7E8491" transform="translate(1078,317)"/>
<path d="M0 0 C1 0 2 0 3 0 C3 1 3 1 3 4 C3 9 4 13 4 18 C4 20 4 22 4 24 C4 27 4 30 4 33 C4 34 5 36 5 38 C5 39 5 41 5 42 C6 42 6 43 7 43 C7 44 7 45 7 46 C6 46 6 46 5 46 C5 47 5 49 5 50 C5 55 5 60 5 65 C5 68 5 70 5 72 C5 75 5 78 5 81 C5 83 5 85 5 87 C5 92 5 92 4 97 C4 99 4 101 4 103 C4 104 4 104 4 107 C4 109 4 110 4 111 C4 113 4 114 4 116 C4 119 4 122 4 125 C4 129 4 134 4 138 C4 152 4 167 5 181 C1 179 1 179 -0 176 C-1 173 -1 169 -1 166 C-1 164 -1 163 -1 161 C-1 160 -1 158 -1 156 C-1 155 -1 153 -1 151 C-1 146 -1 140 -1 135 C-1 131 -1 127 -1 123 C-1 114 -1 105 -1 96 C-1 85 -1 75 -0 64 C-0 43 -0 21 0 0 Z " fill="#5158DD" transform="translate(1260,72)"/>
<path d="M0 0 C1 0 1 0 2 0 C5 6 4 13 4 19 C4 21 4 23 4 24 C4 26 4 28 4 30 C4 32 4 34 4 36 C4 41 4 46 4 51 C4 54 4 58 4 61 C4 72 4 83 4 95 C4 105 4 116 4 126 C4 135 4 144 4 153 C4 159 4 164 4 169 C4 175 4 181 4 187 C4 189 4 191 4 193 C4 194 4 196 4 198 C4 199 4 201 4 202 C4 206 3 209 2 213 C1 213 1 213 0 213 C0 143 0 72 0 0 Z " fill="#42495B" transform="translate(25,41)"/>
<path d="M0 0 C2 0 3 1 5 1 C5 3 6 5 6 7 C7 7 7 7 11 8 C11 7 11 6 11 5 C11 3 11 2 11 1 C13 1 14 0 16 0 C18 2 17 9 17 13 C17 14 17 15 17 16 C17 19 17 22 17 25 C16 26 15 26 14 27 C14 29 13 32 13 34 C7 34 1 34 -5 34 C-5 32 -6 29 -6 27 C-7 26 -8 26 -9 25 C-9 23 -8 22 -8 20 C-7 20 -7 19 -6 19 C-6 17 -5 16 -5 14 C-6 14 -8 13 -9 13 C-9 11 -8 10 -8 8 C-7 8 -6 8 -5 8 C-4 7 -3 7 -2 7 C-1 3 -1 3 0 0 Z " fill="#838996" transform="translate(1594,317)"/>
<path d="M0 0 C6 2 9 4 13 8 C15 9 16 10 17 10 C18 11 19 12 20 12 C21 13 21 13 21 17 C20 18 19 19 18 20 C13 23 13 23 12 27 C12 28 12 29 12 30 C3 31 3 31 0 30 C-0 30 -1 29 -2 28 C-1 27 -1 26 -1 25 C-3 24 -5 23 -8 21 C-10 19 -10 19 -12 16 C-11 15 -10 13 -10 11 C-11 11 -12 11 -13 11 C-14 10 -15 10 -17 9 C-17 8 -17 7 -17 5 C-14 4 -14 4 -11 3 C-10 3 -9 2 -8 1 C-5 -1 -5 -1 0 0 Z " fill="#E2E6ED" transform="translate(1123.5625,227.5625)"/>
<path d="M0 0 C1 0 2 0 3 0 C3 1 3 2 3 3 C3 7 3 11 4 15 C5 20 5 26 5 31 C4 31 4 31 3 31 C3 54 3 76 3 99 C3 109 3 120 3 130 C3 140 3 150 3 161 C3 164 3 168 3 172 C3 178 3 183 3 188 C3 190 3 192 3 193 C3 195 3 196 3 198 C3 199 3 200 3 202 C3 205 3 208 4 211 C3 211 1 210 0 210 C-0 207 -0 207 -0 202 C-0 200 -0 198 -0 197 C-0 195 -0 193 -0 191 C-0 189 -0 186 -0 184 C-0 179 -0 173 -0 167 C-0 162 -0 156 -0 150 C-0 139 -0 128 -0 116 C-0 104 -0 91 -0 78 C-0 52 -0 26 0 0 Z " fill="#D8D9EC" transform="translate(1257,41)"/>
<path d="M0 0 C0 1 0 1 0 2 C1 2 2 2 3 2 C5 2 6 2 8 2 C9 2 9 2 12 3 C16 3 16 3 18 5 C16 6 15 7 13 8 C12 10 12 11 11 13 C3 17 -6 18 -15 15 C-18 15 -22 15 -25 15 C-28 14 -28 14 -32 10 C-33 9 -33 7 -34 6 C-35 5 -35 5 -36 4 C-27 -5 -11 -1 0 0 Z " fill="#2F3A4C" transform="translate(116,34)"/>
<path d="M0 0 C2 0 5 0 7 0 C7 1 7 2 7 3 C7 4 7 4 8 7 C9 7 10 8 11 8 C11 12 11 12 11 16 C11 18 11 20 11 22 C11 24 11 26 11 28 C11 30 11 32 11 35 C11 40 11 46 11 52 C11 58 11 64 11 70 C11 82 11 94 11 105 C11 118 11 132 11 145 C11 172 11 199 11 226 C10 226 9 226 8 226 C8 227 8 227 6 230 C5 230 5 230 4 230 C4 231 4 231 2 234 C1 234 -1 234 -2 234 C-2 233 -2 233 -2 232 C-1 232 -1 232 3 230 C3 229 3 229 5 226 C5 226 5 226 7 224 C7 221 7 219 7 216 C7 207 7 198 7 189 C8 152 8 114 8 77 C8 70 8 63 8 57 C8 51 9 44 9 38 C9 36 9 33 9 31 C9 28 9 25 9 21 C9 20 9 18 9 16 C8 9 5 5 0 0 Z " fill="#F3B549" transform="translate(1788,29)"/>
<path d="M0 0 C3 0 5 0 8 0 C8 1 8 1 8 2 C9 2 9 2 13 2 C32 2 50 2 69 2 C70 2 72 2 73 2 C81 2 89 2 97 2 C103 2 110 2 116 2 C124 3 132 3 140 3 C143 3 146 3 149 3 C153 3 157 3 161 3 C162 3 163 3 165 3 C170 3 176 3 181 4 C180 5 178 7 177 8 C175 8 174 7 172 7 C168 7 164 7 160 8 C158 8 156 8 154 8 C153 8 152 8 151 8 C148 8 148 8 144 7 C142 7 140 7 138 7 C136 7 135 7 134 7 C133 7 133 7 129 7 C128 7 126 7 125 7 C121 7 118 7 115 7 C109 7 104 7 99 7 C84 7 69 7 55 7 C45 6 36 6 27 6 C24 6 20 6 17 6 C12 6 7 6 2 6 C2 6 2 6 -2 6 C-3 6 -5 6 -6 6 C-7 6 -8 6 -9 6 C-10 6 -10 6 -12 6 C-12 5 -13 5 -13 4 C-11 4 -8 5 -6 5 C-6 4 -6 3 -6 2 C-4 2 -2 2 0 2 C0 1 0 1 0 0 Z " fill="#DEE3EB" transform="translate(968,25)"/>
<path d="M0 0 C2 0 3 1 5 1 C6 4 6 4 6 7 C7 7 9 7 10 7 C11 4 11 4 12 0 C13 0 13 0 17 1 C17 3 17 6 17 8 C18 8 20 9 21 9 C21 11 20 12 20 14 C17 15 17 15 14 15 C14 16 14 18 14 19 C15 20 16 20 17 21 C17 23 16 24 16 26 C15 26 15 27 14 27 C13 29 13 32 12 34 C10 34 9 33 7 33 C6 30 6 30 6 27 C5 27 3 27 2 27 C1 30 1 30 0 34 C-2 34 -3 33 -5 33 C-6 30 -6 30 -6 27 C-7 26 -8 26 -9 25 C-9 23 -8 22 -8 20 C-7 20 -7 19 -6 19 C-6 17 -5 16 -5 14 C-6 14 -8 13 -9 13 C-9 11 -8 10 -8 8 C-7 8 -6 8 -5 8 C-4 7 -3 7 -2 7 C-1 3 -1 3 0 0 Z " fill="#777D8E" transform="translate(354,317)"/>
<path d="M0 0 C2 0 3 1 5 1 C5 2 6 2 6 3 C7 3 9 3 10 3 C11 2 11 1 12 0 C14 0 15 0 17 0 C17 1 17 1 17 2 C16 3 15 3 14 4 C14 5 14 6 14 7 C15 7 15 8 16 8 C15 13 15 13 14 15 C14 17 14 19 14 21 C14 21 14 21 14 26 C13 26 11 27 10 27 C9 31 9 31 8 34 C6 34 5 33 3 33 C3 32 2 32 2 31 C1 31 -1 31 -2 31 C-2 31 -2 31 -4 34 C-6 34 -7 33 -9 33 C-10 25 -10 25 -9 21 C-8 20 -7 20 -6 19 C-6 18 -6 16 -6 15 C-7 14 -8 14 -9 13 C-9 11 -8 10 -8 8 C-7 8 -7 8 -6 8 C-5 7 -5 5 -4 4 C-3 4 -3 4 -2 4 C-1 3 -1 1 0 0 Z " fill="#777E8C" transform="translate(1290,317)"/>
<path d="M0 0 C2 0 3 1 5 1 C6 4 6 4 6 7 C7 7 9 7 10 7 C11 4 11 4 12 0 C13 0 13 0 17 1 C18 4 18 4 18 7 C18 9 18 10 18 11 C18 14 18 14 16 16 C16 18 16 19 16 21 C16 23 16 24 16 26 C15 26 15 27 14 27 C13 29 13 32 12 34 C10 34 9 33 7 33 C6 30 6 30 6 27 C5 27 3 27 2 27 C1 30 1 30 0 34 C-2 34 -3 33 -5 33 C-6 30 -6 30 -6 27 C-7 26 -8 26 -9 25 C-9 23 -8 22 -8 20 C-7 20 -7 19 -6 19 C-6 17 -6 15 -6 14 C-5 12 -5 10 -5 8 C-4 8 -3 7 -2 7 C-1 3 -1 3 0 0 Z " fill="#60687A" transform="translate(50,317)"/>
<path d="M0 0 C1 0 3 1 4 1 C5 4 5 4 5 9 C5 11 5 12 5 14 C5 16 5 18 5 20 C5 22 5 24 5 26 C5 32 5 37 5 43 C5 48 5 54 5 60 C5 70 5 79 5 89 C4 100 5 111 5 123 C5 132 5 142 5 152 C5 157 5 163 5 169 C5 174 5 180 5 185 C5 188 5 191 5 194 C5 196 5 197 5 199 C5 200 5 200 5 204 C4 205 4 206 4 207 C3 207 1 208 0 208 C0 206 0 205 0 203 C1 195 1 186 1 178 C1 176 1 175 1 173 C1 167 1 161 1 155 C1 151 1 147 1 143 C1 135 1 126 1 118 C1 108 1 98 1 88 C1 80 1 71 1 63 C1 58 1 53 1 48 C1 42 1 37 1 31 C1 30 1 30 1 26 C1 17 1 9 0 0 Z " fill="#F6F7F9" transform="translate(555,40)"/>
<path d="M0 0 C3 -0 7 -0 10 -0 C11 -0 11 -0 16 -1 C17 -1 17 -1 21 0 C22 3 22 3 23 7 C24 7 26 8 27 8 C27 12 27 15 27 19 C27 22 28 24 28 27 C27 27 25 26 24 26 C23 22 23 22 23 19 C20 19 20 19 16 19 C15 20 15 21 14 22 C13 22 13 22 12 22 C12 21 11 19 11 18 C9 18 8 18 6 18 C6 19 6 20 6 21 C6 23 6 24 6 25 C6 27 6 28 6 30 C6 31 6 32 6 33 C5 33 5 33 1 34 C0 33 0 33 -0 30 C-0 28 -0 27 -0 26 C-0 24 -0 23 -0 21 C-0 20 -0 18 -0 16 C-0 16 -0 16 -0 12 C-0 8 -0 4 0 0 Z " fill="#60677D" transform="translate(1101,317)"/>
<path d="M0 0 C3 -0 5 -0 8 -0 C10 -0 11 -0 13 -0 C15 -0 17 -0 19 -0 C21 -0 23 -0 25 -0 C30 -0 36 -0 41 -0 C47 -0 53 -0 58 -0 C68 -0 78 -0 87 -0 C98 -0 109 -0 121 -0 C130 -0 140 -0 149 -0 C155 -0 160 -0 166 -0 C171 -0 177 -0 182 -0 C185 -0 188 -0 191 -0 C193 -0 194 -0 196 -0 C198 -0 199 -0 201 -0 C201 -0 201 -0 204 0 C204 1 205 1 205 2 C201 3 197 3 193 3 C192 3 190 3 189 3 C189 3 189 3 185 3 C184 3 183 3 181 3 C176 3 170 3 164 3 C160 3 156 3 152 3 C151 3 151 3 148 3 C147 3 145 3 144 3 C143 3 142 3 141 3 C138 3 135 3 132 4 C128 4 123 4 119 4 C119 4 119 4 115 4 C113 4 110 4 107 4 C103 4 99 4 95 4 C93 4 90 4 88 4 C86 4 85 4 84 4 C78 4 71 4 65 3 C59 3 53 3 47 3 C46 3 46 3 43 3 C38 3 34 2 30 2 C27 2 24 2 21 2 C14 2 6 2 -1 2 C-1 1 -0 1 0 0 Z " fill="#B8BCC3" transform="translate(338,25)"/>
<path d="M0 0 C1 0 1 0 2 0 C3 10 3 20 3 30 C3 31 3 33 3 35 C3 41 3 46 3 52 C3 56 3 60 3 64 C3 72 3 81 3 89 C3 98 3 108 3 118 C3 126 3 134 3 142 C3 147 3 152 3 157 C3 163 3 168 3 174 C3 175 3 175 3 179 C3 194 3 194 2 200 C1 200 1 201 0 201 C-2 192 -2 182 -2 173 C-2 171 -2 169 -2 168 C-2 156 -2 156 -1 151 C-1 147 -1 143 -1 138 C-1 137 -1 136 -1 134 C-1 130 -1 126 -1 121 C-1 118 -1 115 -1 112 C-1 106 -1 100 -1 93 C-1 85 -1 77 -1 69 C-1 63 -1 57 -1 51 C-1 48 -1 45 -1 42 C-1 38 -1 33 -1 29 C-1 28 -1 27 -1 26 C-1 20 -1 14 -2 8 C-1 4 -1 4 0 0 Z " fill="#60677B" transform="translate(554,45)"/>
<path d="M0 0 C1 0 2 0 3 0 C3 67 3 133 3 202 C2 202 1 202 0 202 C0 135 0 69 0 0 Z " fill="#FDFDFD" transform="translate(321,45)"/>
<path d="M0 0 C5 3 5 3 6 5 C6 8 6 11 6 14 C6 15 6 17 6 18 C6 19 6 21 6 22 C5 22 4 23 3 23 C2 27 2 27 1 30 C-1 29 -2 29 -4 28 C-5 29 -5 29 -6 30 C-8 30 -9 29 -11 29 C-11 28 -12 27 -12 26 C-13 26 -13 26 -14 26 C-15 25 -16 24 -17 23 C-17 22 -17 22 -17 21 C-18 21 -19 20 -20 20 C-21 17 -21 17 -20 14 C-15 9 -9 5 -3 3 C-2 3 -1 2 0 2 C0 1 0 1 0 0 Z " fill="#2F3A4C" transform="translate(245,50)"/>
<path d="M0 0 C16 -0 16 -0 21 0 C21 2 22 3 22 5 C21 6 21 6 18 6 C16 6 15 6 13 6 C13 6 13 6 9 6 C8 6 7 6 6 6 C6 8 6 10 6 12 C7 12 7 12 9 12 C11 12 12 12 13 12 C15 12 16 12 18 12 C18 12 18 12 21 12 C21 14 22 15 22 17 C22 17 21 18 21 18 C19 18 16 18 14 18 C10 18 10 18 7 19 C6 24 6 24 6 28 C7 28 7 28 9 28 C10 28 12 28 13 28 C14 28 14 28 17 28 C21 28 23 29 26 32 C26 33 26 33 26 34 C17 34 9 34 0 34 C0 23 0 12 0 0 Z " fill="#6D7482" transform="translate(1701,317)"/>
<path d="M0 0 C3 0 7 0 10 0 C10 2 10 4 10 5 C11 7 11 9 11 11 C12 12 13 12 14 13 C14 16 15 20 15 23 C16 24 17 24 18 25 C18 29 18 29 18 33 C17 33 17 33 13 34 C13 33 13 32 13 31 C12 29 12 28 11 27 C7 26 3 25 -1 26 C-2 27 -2 29 -3 30 C-4 31 -6 32 -7 33 C-8 31 -8 31 -9 27 C-8 24 -6 20 -5 17 C-5 16 -5 14 -4 12 C-4 11 -4 10 -4 9 C-3 8 -2 8 -1 7 C-0 3 -0 3 0 0 Z " fill="#616877" transform="translate(673,317)"/>
<path d="M0 0 C3 -1 3 -1 6 -0 C7 -1 7 -1 9 -1 C10 -0 11 -0 12 0 C13 1 13 3 14 4 C15 4 16 4 17 4 C17 5 17 5 17 8 C17 10 17 12 17 13 C17 15 17 17 17 19 C17 20 17 22 17 23 C18 23 20 24 21 24 C21 25 21 25 21 26 C20 26 18 27 17 27 C17 28 16 29 16 30 C13 27 13 27 12 23 C12 22 11 21 11 20 C7 19 7 19 3 20 C3 21 3 21 1 25 C-1 25 -3 25 -5 25 C-5 18 -5 11 -5 4 C-4 4 -3 4 -2 4 C-1 3 -1 1 0 0 Z " fill="#6A7080" transform="translate(222,317)"/>
<path d="M0 0 C1 1 3 2 4 3 C8 3 8 3 11 3 C11 4 11 5 11 6 C14 7 14 7 17 8 C19 10 18 13 18 15 C18 16 18 17 18 18 C18 19 18 20 18 21 C17 21 16 22 15 22 C14 23 14 25 13 26 C10 27 10 27 7 26 C6 27 6 27 4 27 C3 26 3 26 1 26 C0 25 -0 23 -1 22 C-2 22 -3 21 -4 21 C-4 19 -5 17 -5 15 C-6 15 -6 14 -7 14 C-7 9 -7 9 -6 4 C-2 3 -2 3 0 4 C0 3 0 1 0 0 Z " fill="#767C8B" transform="translate(1405,325)"/>
<path d="M0 0 C3 -1 3 -1 6 -0 C7 -1 7 -1 9 -1 C10 -0 11 -0 12 0 C13 1 13 3 14 4 C15 4 16 4 17 4 C17 5 17 5 17 7 C17 9 17 10 17 11 C17 13 17 14 17 16 C17 17 18 18 18 19 C21 20 21 20 24 21 C24 23 25 24 25 26 C24 26 23 26 22 26 C21 26 21 26 18 26 C17 27 17 29 16 30 C12 34 12 34 9 35 C6 35 3 34 0 34 C-1 33 -1 31 -2 30 C-3 30 -4 29 -5 29 C-5 27 -4 26 -4 24 C-2 24 -1 25 1 25 C1 26 2 26 2 27 C5 27 5 27 8 27 C9 27 10 28 11 28 C12 27 13 27 14 27 C14 25 15 24 15 22 C14 22 13 22 12 22 C7 22 6 21 3 18 C3 17 3 17 3 16 C4 15 5 14 6 14 C10 11 10 11 11 6 C7 6 7 6 2 7 C2 7 2 7 0 10 C-2 10 -3 9 -5 9 C-5 7 -4 6 -4 4 C-3 4 -3 4 -2 4 C-1 3 -1 1 0 0 Z " fill="#808694" transform="translate(1346,317)"/>
<path d="M0 0 C67 0 135 0 204 0 C203 1 203 2 202 3 C199 3 199 3 194 3 C192 3 191 3 189 3 C187 3 185 3 183 3 C181 3 180 3 178 3 C172 3 167 3 161 3 C156 3 150 3 145 3 C135 3 126 3 117 3 C106 3 95 3 84 3 C75 3 65 3 56 3 C50 3 45 3 39 3 C33 3 27 3 21 3 C20 3 20 3 15 3 C14 3 14 3 10 3 C9 3 9 3 5 3 C4 3 3 3 2 3 C1 2 1 1 0 0 Z " fill="#FEFEFE" transform="translate(40,264)"/>
<path d="M0 0 C3 -1 3 -1 6 -0 C7 -1 7 -1 9 -1 C10 -0 11 -0 12 0 C13 1 13 3 14 4 C15 4 16 5 17 5 C17 7 16 8 16 10 C16 10 16 10 14 11 C14 12 14 14 14 15 C15 15 15 16 16 16 C16 17 15 18 15 19 C14 19 14 20 13 20 C12 23 12 25 11 28 C8 31 7 31 3 31 C1 29 1 29 -1 26 C-1 23 -0 21 0 18 C-1 13 -2 9 -4 4 C-3 4 -3 4 -2 4 C-1 3 -1 1 0 0 Z " fill="#B1B4BE" transform="translate(518,317)"/>
<path d="M0 0 C1 0 1 1 2 1 C4 8 4 8 2 13 C0 14 -2 14 -4 15 C-4 16 -5 16 -5 17 C-6 17 -6 17 -7 17 C-7 18 -8 19 -8 20 C-12 21 -14 21 -18 20 C-19 20 -21 21 -22 21 C-22 24 -22 26 -22 29 C-23 30 -23 30 -24 31 C-29 30 -29 30 -31 28 C-32 23 -31 20 -29 15 C-25 12 -22 13 -17 12 C-14 12 -14 12 -11 9 C-11 8 -11 6 -11 5 C-10 4 -10 2 -10 1 C-6 -1 -5 -1 0 0 Z " fill="#E2E6ED" transform="translate(1022,131)"/>
<path d="M0 0 C1 -0 1 -0 6 -0 C7 0 8 0 10 0 C10 2 11 4 11 5 C10 6 10 6 7 6 C5 6 4 6 2 6 C2 6 2 6 -2 6 C-3 6 -4 6 -5 6 C-5 8 -5 10 -5 12 C-4 12 -4 12 -2 12 C-0 12 1 12 2 12 C4 12 5 12 7 12 C7 12 7 12 10 12 C10 14 11 16 11 17 C9 20 9 20 6 22 C4 22 3 22 1 21 C1 21 0 20 0 19 C-2 19 -3 19 -5 18 C-5 19 -5 21 -5 22 C-5 23 -5 24 -5 26 C-5 27 -5 29 -5 30 C-5 31 -5 32 -5 33 C-6 34 -6 34 -10 34 C-12 32 -11 29 -11 26 C-11 25 -11 23 -11 22 C-11 20 -11 19 -11 17 C-11 16 -11 14 -11 13 C-11 11 -11 10 -11 8 C-11 7 -11 6 -11 4 C-11 -2 -5 0 0 0 Z " fill="#979CA7" transform="translate(1628,316.625)"/>
<path d="M0 0 C44 0 87 0 132 0 C131 1 131 3 130 4 C126 4 122 5 118 5 C117 5 116 5 114 5 C110 5 106 5 102 5 C99 5 96 5 93 5 C87 5 81 5 75 5 C68 4 60 5 52 5 C46 5 40 5 34 5 C32 5 29 5 26 5 C22 5 18 5 14 5 C13 5 13 5 10 5 C7 5 7 5 2 4 C1 3 1 1 0 0 Z " fill="#FDFEFE" transform="translate(1588,263)"/>
<path d="M0 0 C2 0 4 0 6 0 C8 0 10 0 12 0 C13 0 15 0 17 0 C32 1 32 1 36 2 C39 2 41 2 44 2 C45 2 46 2 48 2 C50 2 51 2 53 2 C54 2 56 2 58 2 C61 2 64 2 68 2 C73 2 78 2 83 2 C87 2 90 2 93 2 C94 2 94 2 98 2 C99 2 99 2 102 2 C103 2 103 2 106 2 C109 2 109 2 113 1 C117 1 120 1 123 1 C124 1 124 1 129 1 C133 1 133 1 137 2 C142 2 146 2 150 2 C150 2 150 2 153 3 C156 3 159 3 161 3 C161 3 161 4 161 4 C149 5 137 5 125 5 C122 5 118 5 115 5 C106 5 98 5 89 5 C81 5 73 5 65 5 C63 5 62 5 61 5 C44 5 26 5 8 6 C-7 6 -7 6 -15 4 C-15 3 -15 2 -15 1 C-9 -0 -5 -0 0 0 Z " fill="#60677B" transform="translate(354.53515625,259.0859375)"/>
<path d="M0 0 C46 0 92 0 140 0 C140 1 140 1 140 2 C135 3 129 3 123 3 C122 3 121 3 120 3 C115 3 111 3 107 3 C104 3 101 3 98 3 C92 3 86 3 80 3 C72 3 64 3 56 3 C50 3 44 3 38 3 C35 3 32 3 29 3 C25 3 21 3 17 3 C15 3 14 3 13 3 C8 3 4 3 0 2 C0 1 0 1 0 0 Z " fill="#FEFEFE" transform="translate(976,25)"/>
<path d="M0 0 C3 2 4 4 4 8 C5 13 5 16 2 20 C-2 23 -5 23 -10 23 C-11 22 -12 22 -13 21 C-13 19 -13 18 -14 16 C-14 14 -14 13 -14 11 C-15 11 -16 10 -17 10 C-17 6 -17 6 -17 3 C-16 3 -15 3 -14 3 C-13 2 -11 0 -10 -1 C-6 -2 -4 -2 0 0 Z " fill="#FAFBFB" transform="translate(121,323)"/>
<path d="M0 0 C4 0 4 0 6 3 C6 6 6 9 6 12 C7 16 8 19 10 22 C10 22 11 22 12 22 C11 23 11 24 10 25 C10 25 9 25 8 25 C8 27 7 28 6 29 C3 30 3 30 -2 30 C-4 30 -5 30 -7 30 C-8 29 -9 29 -10 29 C-11 25 -11 25 -10 20 C-10 20 -9 19 -8 18 C-7 17 -7 16 -6 15 C-3 16 -3 16 0 16 C0 15 -0 14 -0 12 C-2 12 -3 11 -4 11 C-5 10 -6 10 -6 9 C-6 7 -6 5 -6 3 C-4 0 -4 0 0 0 Z " fill="#BBBEC5" transform="translate(1683.5,321.625)"/>
<path d="M0 0 C4 0 9 0 13 0 C13 11 13 22 13 34 C10 34 6 34 3 34 C3 32 3 31 3 29 C3 27 3 25 3 23 C3 22 3 20 3 19 C3 17 2 14 2 11 C1 10 0 10 -1 9 C-1 5 -1 5 -1 1 C-1 1 -0 0 0 0 Z " fill="#B6BAC1" transform="translate(406,317)"/>
<path d="M0 0 C3 5 2 9 2 15 C2 16 2 17 2 18 C2 22 2 26 2 30 C2 33 2 36 2 39 C2 44 2 50 2 56 C2 63 2 71 2 78 C2 84 2 90 2 95 C2 98 2 101 2 104 C2 108 2 111 2 115 C2 116 2 117 2 119 C2 123 2 127 0 131 C-1 126 -1 121 -1 115 C-1 114 -1 113 -1 112 C-1 108 -1 104 -1 100 C-1 97 -1 94 -1 91 C-1 85 -1 80 -1 74 C-1 66 -1 59 -1 52 C-1 46 -1 40 -1 34 C-1 32 -1 29 -1 26 C-1 22 -1 18 -1 15 C-1 14 -1 12 -1 11 C-1 3 -1 3 0 0 Z " fill="#9CA2B4" transform="translate(626,85)"/>
<path d="M0 0 C1 0 2 0 3 0 C3 11 3 22 3 34 C0 34 -3 34 -6 34 C-7 33 -9 31 -10 30 C-11 29 -13 29 -14 28 C-14 24 -13 22 -10 19 C-7 15 -7 12 -7 7 C-7 6 -6 4 -6 3 C-5 3 -3 3 -2 3 C-1 2 -1 1 0 0 Z " fill="#FEFEFE" transform="translate(1042,317)"/>
<path d="M0 0 C7 0 15 0 22 0 C22 1 22 2 22 3 C18 4 13 5 9 6 C8 6 6 7 5 7 C5 9 5 10 5 12 C9 14 9 14 13 15 C14 15 15 16 16 16 C16 17 16 17 16 18 C14 18 14 18 6 19 C6 20 6 20 6 21 C5 21 5 21 4 21 C4 24 4 24 5 28 C9 29 12 29 16 29 C19 29 19 29 22 31 C22 32 21 33 21 34 C16 34 16 34 10 34 C8 34 7 34 5 34 C3 34 2 34 0 34 C-1 23 -1 11 0 0 Z " fill="#3C4557" transform="translate(1045,317)"/>
<path d="M0 0 C3 -0 3 -0 7 -0 C8 -0 10 -0 11 -0 C14 0 14 0 15 1 C18 1 21 1 24 1 C24 1 25 0 25 0 C29 -0 29 -0 34 0 C35 1 35 2 36 3 C35 3 34 4 33 4 C32 4 31 5 30 5 C30 6 30 7 30 8 C31 8 32 8 33 8 C60 6 60 6 66 9 C36 9 5 9 -26 9 C-26 9 -26 8 -26 8 C-22 8 -19 7 -15 7 C-14 7 -13 7 -12 7 C-7 6 -3 6 1 6 C1 5 1 5 1 4 C0 4 -1 3 -2 3 C-1 2 -1 1 0 0 Z " fill="#E2E6ED" transform="translate(1026,254)"/>
<path d="M0 0 C1 0 2 0 3 0 C3 47 3 94 3 143 C3 143 2 143 2 143 C-0 114 -0 85 -0 56 C-0 50 -0 43 -0 37 C-0 25 -0 12 0 0 Z " fill="#B0B4BD" transform="translate(852,37)"/>
<path d="M0 0 C1 0 1 0 5 1 C7 4 6 7 6 11 C2 15 2 15 -1 15 C-8 15 -14 15 -20 13 C-20 16 -20 16 -18 19 C-18 20 -18 22 -18 23 C-19 23 -19 23 -23 24 C-26 20 -26 20 -26 15 C-27 15 -29 15 -30 15 C-34 15 -34 15 -37 13 C-37 12 -37 11 -37 10 C-33 8 -31 7 -27 7 C-27 7 -27 7 -24 8 C-24 9 -23 10 -23 11 C-21 11 -19 11 -17 11 C-17 10 -16 9 -16 8 C-12 7 -10 7 -6 8 C-5 8 -3 7 -2 7 C-1 4 -1 4 -1 1 C-1 1 -0 0 0 0 Z " fill="#E2E6ED" transform="translate(1066,105)"/>
<path d="M0 0 C4 -1 4 -1 9 -0 C10 -0 10 -0 14 -0 C15 -0 17 -0 18 0 C18 1 18 2 18 3 C19 3 20 4 21 4 C21 5 22 7 22 8 C19 8 19 8 16 6 C12 4 9 5 4 7 C1 12 1 17 2 23 C3 25 3 26 4 28 C8 29 11 29 15 28 C16 27 16 27 18 26 C19 26 21 25 22 25 C21 29 20 31 17 34 C14 35 14 35 10 35 C9 35 8 35 7 35 C6 34 6 34 4 34 C3 33 3 31 2 30 C1 29 -1 29 -2 28 C-2 27 -2 27 -2 26 C-3 26 -4 25 -5 25 C-5 21 -5 21 -5 16 C-5 15 -5 13 -5 12 C-5 11 -5 9 -5 8 C-4 8 -3 7 -2 7 C-2 6 -2 5 -1 3 C-1 2 -0 1 0 0 Z " fill="#525A6C" transform="translate(790,317)"/>
<path d="M0 0 C3 3 4 5 5 9 C5 15 4 18 1 23 C0 24 -0 24 -1 25 C-3 25 -5 25 -7 25 C-10 21 -11 18 -12 13 C-13 14 -14 16 -15 17 C-16 17 -17 16 -18 16 C-18 12 -18 12 -18 8 C-17 8 -15 8 -14 8 C-13 9 -13 9 -12 10 C-12 9 -11 7 -11 6 C-8 -0 -7 0 0 0 Z " fill="#FDFDFD" transform="translate(711,322)"/>
<path d="M0 0 C1 1 3 2 4 3 C4 5 3 6 3 8 C1 8 -0 9 -2 9 C-4 9 -5 10 -7 10 C-8 14 -8 16 -7 20 C-8 21 -8 23 -9 24 C-17 25 -17 25 -21 24 C-22 23 -24 21 -25 20 C-24 19 -23 17 -22 16 C-22 15 -21 13 -21 12 C-17 2 -10 -1 0 0 Z " fill="#E2E6ED" transform="translate(1117,144)"/>
<path d="M0 0 C3 0 3 0 6 1 C6 2 7 4 7 5 C9 5 11 5 13 5 C13 6 13 6 13 7 C13 7 14 7 14 7 C14 15 14 22 14 30 C3 30 3 30 -1 26 C-3 23 -3 23 -3 17 C-2 16 -2 16 -1 15 C1 15 3 15 5 15 C5 12 5 12 5 8 C3 8 2 7 0 7 C-0 7 -1 6 -1 6 C-1 1 -1 1 0 0 Z " fill="#B1B4BD" transform="translate(433,321)"/>
<path d="M0 0 C4 -0 4 -0 8 -0 C10 -0 11 -0 12 -0 C16 0 16 0 17 1 C18 6 18 12 17 17 C14 21 14 21 10 23 C10 25 9 26 9 28 C10 28 11 28 12 28 C14 28 15 28 16 28 C16 30 17 31 17 33 C16 34 16 34 11 34 C9 34 7 34 5 34 C3 34 2 34 -0 34 C-2 34 -3 34 -5 34 C-5 34 -5 34 -3 33 C-3 31 -2 30 -2 28 C-1 27 -0 26 1 25 C2 25 2 25 3 25 C4 24 4 22 5 21 C7 19 8 18 10 16 C11 15 11 15 12 14 C12 12 12 10 12 8 C10 7 9 6 7 5 C5 6 4 6 2 7 C1 7 -1 8 -2 8 C-2 4 -2 4 0 0 Z " fill="#555D72" transform="translate(78,317)"/>
<path d="M0 0 C3 3 3 3 4 5 C8 5 8 5 11 4 C11 3 12 2 12 1 C16 -0 18 1 22 3 C24 4 25 4 26 5 C27 6 28 6 29 7 C29 8 28 10 28 11 C25 13 21 13 17 13 C17 13 17 13 13 14 C11 14 10 14 9 14 C9 16 9 17 9 19 C8 20 8 20 7 21 C5 21 4 21 2 21 C-2 17 -2 17 -3 12 C-2 8 -1 4 0 0 Z " fill="#2F3A4C" transform="translate(38,236)"/>
<path d="M0 0 C3 -1 3 -1 6 -0 C7 -1 7 -1 9 -1 C10 -0 11 -0 12 0 C13 1 13 3 14 4 C19 4 19 4 23 3 C23 4 22 6 22 7 C21 7 19 8 18 8 C14 11 14 11 12 15 C11 15 11 14 10 14 C10 13 10 12 10 11 C9 11 8 11 7 12 C3 12 3 12 0 10 C-0 11 -1 11 -1 12 C-3 12 -4 12 -6 12 C-7 15 -7 19 -8 22 C-9 22 -10 22 -11 22 C-11 23 -11 24 -11 25 C-11 27 -11 28 -11 29 C-12 29 -13 30 -14 30 C-15 31 -15 33 -16 34 C-17 34 -18 33 -19 33 C-18 32 -17 31 -16 30 C-14 26 -14 24 -14 20 C-14 18 -14 17 -14 16 C-13 16 -11 15 -10 15 C-9 13 -9 10 -8 8 C-7 8 -7 8 -6 8 C-5 7 -5 5 -4 4 C-3 4 -3 4 -2 4 C-1 3 -1 1 0 0 Z " fill="#BDC0C8" transform="translate(1406,317)"/>
<path d="M0 0 C5 -1 5 -1 10 -1 C12 -1 14 -0 16 -0 C17 -0 19 -0 20 0 C20 1 21 1 21 2 C15 3 10 5 4 6 C4 9 5 11 5 14 C10 15 10 15 15 16 C15 17 15 17 15 18 C13 18 12 18 10 19 C8 19 7 20 5 20 C3 23 3 23 3 26 C7 28 7 28 10 28 C14 29 17 30 20 33 C20 33 20 34 20 34 C17 34 13 34 10 34 C8 34 6 34 5 34 C3 34 2 34 0 34 C-2 30 -2 30 -1 25 C-1 22 -2 20 -2 17 C-2 5 -2 5 0 0 Z " fill="#424B5E" transform="translate(990,317)"/>
<path d="M0 0 C2 0 4 0 6 0 C6 0 6 0 11 0 C16 0 16 0 17 1 C17 5 17 5 17 9 C16 10 15 10 14 11 C13 12 13 13 13 15 C13 16 13 17 13 18 C12 18 11 19 10 19 C9 20 9 21 9 23 C9 24 9 25 9 26 C8 26 7 27 6 27 C5 31 5 31 5 34 C1 34 -2 34 -5 34 C-5 33 -5 33 -5 32 C-4 32 -3 31 -1 31 C-1 29 -1 26 -1 24 C-0 24 1 23 2 23 C2 20 2 20 3 16 C4 16 5 16 6 16 C6 15 7 13 8 12 C9 12 10 12 11 12 C11 10 11 8 11 6 C9 6 8 6 7 6 C6 6 5 6 3 6 C2 6 2 6 -1 7 C-2 6 -3 6 -4 6 C-5 5 -5 5 -5 1 C-4 0 -4 0 0 0 Z " fill="#6B7183" transform="translate(382.4375,316.8671875)"/>
<path d="M0 0 C2 0 4 0 6 0 C10 4 11 5 11 11 C11 17 10 20 7 24 C4 25 4 25 1 25 C-2 22 -4 21 -5 17 C-5 11 -5 7 -2 2 C-1 1 -1 1 0 0 Z " fill="#FEFEFE" transform="translate(828,322)"/>
<path d="M0 0 C5 -0 5 -0 9 0 C9 5 9 11 9 16 C9 18 9 20 9 21 C9 23 9 24 9 26 C10 27 10 28 10 30 C9 31 9 32 9 33 C8 33 8 33 4 34 C2 32 3 25 3 22 C3 22 3 22 3 19 C3 16 3 16 2 11 C-1 9 -1 9 -5 9 C-6 8 -6 8 -7 7 C-11 6 -15 6 -19 6 C-19 5 -19 4 -19 3 C-17 3 -17 3 -6 2 C-6 3 -6 3 -6 4 C-2 3 -2 3 0 0 Z " fill="#7A818F" transform="translate(1458,317)"/>
<path d="M0 0 C5 -0 9 -1 14 0 C17 4 16 7 16 11 C15 17 12 20 9 24 C9 25 9 27 9 28 C11 29 13 30 15 31 C15 32 16 33 16 34 C9 34 3 34 -4 34 C-2 29 -2 29 1 25 C2 25 2 25 3 25 C4 24 4 22 5 21 C6 20 6 20 8 18 C11 14 11 14 11 10 C11 9 10 8 10 7 C5 5 3 6 -2 8 C-2 7 -3 7 -3 6 C-2 4 -1 3 0 1 C0 1 0 0 0 0 Z " fill="#414A5D" transform="translate(1020,317)"/>
<path d="M0 0 C3 0 5 0 8 0 C9 8 9 8 8 12 C8 13 8 14 8 15 C11 17 11 17 17 17 C18 16 18 16 19 15 C19 13 19 11 19 9 C18 8 16 8 15 7 C15 5 16 4 16 2 C19 3 22 4 25 6 C26 10 25 14 25 18 C24 18 23 19 22 19 C21 20 21 22 20 23 C17 24 17 24 14 24 C13 24 13 24 11 24 C10 23 10 23 8 23 C7 22 7 20 6 19 C5 19 4 19 3 19 C3 18 3 18 3 16 C2 12 2 12 0 10 C-0 7 -0 3 0 0 Z " fill="#3B4457" transform="translate(1310,328)"/>
<path d="M0 0 C1 0 2 0 3 0 C3 2 3 3 3 4 C3 4 3 4 4 7 C5 8 6 9 7 9 C7 14 7 16 5 20 C4 20 4 20 3 19 C3 18 3 17 3 16 C2 16 1 16 0 16 C-0 18 -1 19 -1 20 C-2 19 -2 18 -3 16 C-2 16 -2 15 -1 14 C-1 12 -1 10 -1 8 C-5 6 -5 6 -8 6 C-9 7 -10 7 -11 7 C-12 11 -12 11 -12 15 C-11 16 -9 16 -8 16 C-7 16 -7 16 -4 17 C-4 19 -4 21 -4 22 C-7 24 -7 24 -10 24 C-13 22 -13 22 -15 19 C-15 19 -15 18 -15 17 C-16 17 -16 17 -17 17 C-19 14 -19 12 -18 8 C-13 -0 -9 -1 0 0 Z " fill="#474F61" transform="translate(499.96484375,316.61328125)"/>
<path d="M0 0 C3 -1 3 -1 6 -0 C7 -1 7 -1 9 -1 C10 -0 11 -0 12 0 C13 1 13 3 14 4 C15 4 16 5 17 5 C17 9 17 12 17 16 C17 17 17 17 17 19 C17 22 17 24 17 27 C16 27 15 27 14 27 C11 23 11 19 11 14 C11 12 11 10 11 8 C9 6 9 6 6 6 C2 6 2 6 0 8 C0 10 0 12 0 14 C2 15 4 16 6 17 C6 19 7 20 7 22 C2 22 2 22 -2 20 C-5 17 -6 16 -6 11 C-5 9 -5 7 -5 5 C-4 5 -3 4 -2 4 C-1 3 -1 1 0 0 Z " fill="#454D60" transform="translate(1678,317)"/>
<path d="M0 0 C2 0 4 0 6 0 C9 3 9 3 9 6 C9 8 9 9 9 10 C9 12 9 13 9 14 C9 18 9 21 7 24 C3 25 3 25 -1 24 C-4 22 -4 22 -5 19 C-6 9 -6 9 -3 3 C-1 1 -1 1 0 0 Z " fill="#FEFEFE" transform="translate(1136,322)"/>
<path d="M0 0 C3 1 3 1 6 4 C8 9 8 14 5 20 C3 23 3 23 -1 24 C-2 24 -3 24 -4 24 C-8 19 -8 14 -8 8 C-7 3 -6 -0 0 0 Z " fill="#FEFEFE" transform="translate(466,322.1875)"/>
<path d="M0 0 C2 3 2 3 2 5 C3 4 5 4 6 3 C14 9 14 9 16 15 C16 18 16 18 12 22 C7 24 7 24 3 23 C2 23 1 23 0 23 C-2 19 -2 16 -2 12 C-2 10 -2 9 -2 8 C-2 4 -2 4 0 0 Z " fill="#2F3A4C" transform="translate(32,54)"/>
<path d="M0 0 C2 0 3 1 5 1 C6 5 6 5 5 9 C5 11 5 13 5 14 C5 18 5 18 4 20 C3 20 2 20 1 20 C1 20 1 20 1 23 C1 24 1 25 1 26 C1 28 1 29 1 30 C1 31 1 32 1 33 C0 33 0 33 -4 34 C-4 33 -4 33 -5 31 C-6 27 -6 27 -9 25 C-9 23 -8 22 -8 20 C-7 20 -7 19 -6 19 C-6 17 -5 16 -5 14 C-6 14 -8 13 -9 13 C-9 11 -8 10 -8 8 C-7 8 -6 8 -5 8 C-4 7 -3 7 -2 7 C-1 3 -1 3 0 0 Z " fill="#737987" transform="translate(354,317)"/>
<path d="M0 0 C2 0 4 0 6 0 C10 4 11 5 11 11 C10 20 10 20 6 24 C2 24 2 24 -1 24 C-3 20 -3 17 -3 12 C-3 11 -3 9 -3 8 C-3 4 -3 4 0 0 Z " fill="#FEFEFE" transform="translate(1738,322)"/>
<path d="M0 0 C9 -0 18 -0 27 -0 C30 -0 33 -0 36 -0 C40 -0 44 -0 49 -0 C49 -0 49 -0 53 -0 C61 -0 68 0 76 1 C76 2 76 2 76 3 C72 4 69 4 65 4 C64 4 63 4 61 4 C61 4 61 4 57 4 C56 4 54 4 53 4 C50 4 46 4 43 4 C39 4 34 4 29 4 C26 4 23 4 20 4 C19 4 19 4 16 4 C14 4 13 4 12 4 C11 4 11 4 8 4 C5 4 5 4 0 2 C0 1 0 1 0 0 Z " fill="#60678B" transform="translate(336,27)"/>
<path d="M0 0 C3 -0 7 -0 10 -0 C12 -0 15 -0 17 -0 C18 -0 18 -0 23 -0 C28 0 28 0 33 2 C33 3 33 3 33 3 C28 4 25 4 20 4 C19 4 17 4 16 4 C15 4 15 4 11 4 C9 4 7 4 6 4 C2 4 -1 4 -5 4 C-10 4 -16 4 -21 4 C-25 4 -28 4 -31 4 C-33 4 -35 4 -36 4 C-38 4 -39 4 -41 4 C-42 4 -42 4 -45 4 C-48 4 -48 4 -53 3 C-53 3 -53 3 -53 2 C-48 1 -43 1 -37 1 C-37 1 -37 1 -34 1 C-23 0 -11 -0 0 0 Z " fill="#5058DD" transform="translate(1383.40087890625,259.814697265625)"/>
<path d="M0 0 C-1 0 -1 0 -4 2 C-4 3 -3 5 -3 6 C-4 7 -5 9 -6 10 C-6 14 -6 17 -6 20 C-6 25 -7 27 -9 30 C-11 30 -13 30 -15 30 C-18 24 -18 18 -17 11 C-13 3 -9 -0 0 0 Z " fill="#F3A21D" transform="translate(1592,33)"/>
<path d="M0 0 C0 2 1 3 1 5 C2 5 4 6 5 6 C5 10 5 13 5 17 C5 20 6 22 6 25 C5 25 3 24 2 24 C2 23 2 23 2 21 C2 19 1 18 1 17 C-3 15 -3 15 -7 15 C-15 13 -15 13 -16 12 C-16 10 -16 8 -16 6 C-11 2 -6 0 0 0 Z " fill="#FDFDFD" transform="translate(1123,319)"/>
<path d="M0 0 C4 -0 7 -0 11 -0 C11 -0 11 -0 14 -0 C17 -0 17 -0 22 0 C22 2 23 3 23 5 C22 6 21 6 20 7 C19 9 19 12 18 14 C18 14 18 14 16 15 C16 16 15 17 15 18 C15 20 14 21 14 22 C13 22 13 23 12 23 C12 24 12 25 12 26 C11 28 11 29 11 30 C10 30 9 31 8 31 C8 31 8 31 6 34 C4 34 3 33 1 33 C1 31 2 30 2 28 C3 28 3 27 4 27 C4 26 4 25 4 24 C5 22 5 21 5 20 C6 20 7 19 8 19 C12 15 12 15 12 10 C12 5 12 5 11 2 C10 2 10 2 8 2 C4 3 4 3 0 0 Z " fill="#555D70" transform="translate(164,317)"/>
<path d="M0 0 C1 1 1 1 1 7 C2 7 3 8 4 8 C5 11 5 11 5 14 C2 14 -1 14 -3 14 C-5 14 -6 14 -8 14 C-9 14 -11 14 -12 14 C-13 13 -13 11 -14 10 C-15 10 -16 9 -17 9 C-17 8 -17 8 -17 7 C-19 7 -21 7 -23 7 C-23 8 -24 8 -24 9 C-24 7 -24 6 -24 4 C-21 3 -21 3 -17 3 C-17 4 -17 4 -17 5 C-14 4 -14 4 -11 3 C-10 2 -10 0 -9 -1 C-5 -2 -5 -2 0 0 Z " fill="#A5A8B2" transform="translate(234,337)"/>
<path d="M0 0 C1 0 1 0 2 0 C0 4 0 4 -2 7 C-4 11 -4 13 -3 17 C-2 17 -2 17 -1 17 C2 21 2 21 2 23 C3 23 5 23 6 22 C7 22 9 22 10 22 C12 24 12 24 12 30 C9 30 7 30 4 30 C3 29 3 29 2 28 C2 29 1 29 1 30 C-1 30 -2 30 -4 30 C-5 29 -5 28 -6 27 C-7 27 -9 26 -10 26 C-10 22 -10 22 -10 18 C-10 18 -9 17 -9 17 C-8 14 -8 14 -8 10 C-9 10 -10 9 -11 9 C-11 8 -10 8 -10 7 C-9 7 -7 7 -6 7 C-5 6 -5 5 -4 4 C-3 4 -3 4 -2 4 C-1 3 -1 1 0 0 Z " fill="#F2F3F5" transform="translate(486,317)"/>
<path d="M0 0 C4 4 5 5 5 10 C5 11 6 12 6 13 C6 16 6 16 5 19 C5 22 5 22 8 26 C12 26 12 26 15 24 C17 20 17 20 18 15 C19 14 21 14 22 13 C22 17 22 22 22 26 C21 26 20 26 19 26 C18 27 18 29 17 30 C14 31 14 31 11 30 C10 31 10 31 8 31 C7 30 7 30 5 30 C4 29 4 27 3 26 C2 26 1 25 0 25 C0 23 0 20 0 18 C-1 18 -2 17 -3 17 C-3 16 -2 15 -2 15 C-1 10 -0 5 0 0 Z " fill="#384254" transform="translate(513,321)"/>
<path d="M0 0 C3 -0 6 -0 8 -0 C10 -0 11 -0 13 -0 C14 -0 14 -0 17 0 C18 1 18 3 19 4 C20 4 21 5 22 5 C14 6 14 6 9 5 C8 5 7 6 6 6 C6 9 6 9 6 13 C6 15 6 18 6 20 C6 20 5 21 5 21 C5 23 5 26 5 28 C6 28 6 28 7 28 C7 29 7 29 7 30 C6 30 4 29 3 29 C2 29 1 30 0 30 C-0 28 -0 27 -0 25 C-1 19 -1 19 -2 14 C-2 12 -1 9 -1 7 C-1 5 -1 4 -0 3 C-0 2 -0 1 0 0 Z " fill="#303A4D" transform="translate(1761,317)"/>
<path d="M0 0 C16 -0 16 -0 21 0 C21 2 22 3 22 5 C21 6 21 6 18 6 C16 6 15 6 13 6 C13 6 13 6 9 6 C8 6 7 6 6 6 C6 7 6 9 6 10 C6 12 6 13 6 15 C5 15 4 16 3 16 C3 17 3 18 3 19 C4 20 4 21 4 22 C4 23 4 24 5 25 C5 26 5 27 5 28 C4 28 4 29 3 29 C3 31 2 32 2 34 C1 34 1 34 0 34 C0 23 0 12 0 0 Z " fill="#828897" transform="translate(1701,317)"/>
<path d="M0 0 C0 2 0 3 0 5 C1 5 2 4 3 4 C4 5 5 5 6 6 C5 6 5 6 4 6 C4 9 4 12 4 15 C5 15 5 15 6 15 C6 16 6 18 6 19 C5 19 4 19 3 19 C1 24 1 24 0 28 C-2 28 -3 27 -5 27 C-6 24 -6 24 -6 21 C-7 20 -8 20 -9 19 C-9 17 -8 16 -8 14 C-7 14 -7 13 -6 13 C-6 11 -6 9 -6 8 C-5 6 -5 4 -5 2 C-1 0 -1 0 0 0 Z " fill="#555D6E" transform="translate(50,323)"/>
<path d="M0 0 C0 6 0 6 0 11 C-4 13 -9 11 -13 10 C-18 9 -21 8 -26 10 C-27 9 -28 9 -29 8 C-29 6 -28 5 -28 3 C-24 1 -18 2 -13 1 C-9 1 -4 -2 0 0 Z " fill="#E2E6ED" transform="translate(1162,150)"/>
<path d="M0 0 C1 0 2 1 3 1 C5 6 5 11 5 16 C4 16 3 16 2 16 C2 18 2 20 2 22 C1 26 1 26 -1 30 C-2 30 -3 30 -4 30 C-4 29 -4 28 -4 27 C-5 25 -5 24 -5 23 C-6 22 -7 22 -8 21 C-8 19 -7 18 -7 16 C-6 16 -6 15 -5 15 C-5 13 -4 12 -4 10 C-5 10 -7 9 -8 9 C-8 7 -7 6 -7 4 C-4 3 -4 3 -1 3 C-1 2 -0 1 0 0 Z " fill="#636A78" transform="translate(1593,321)"/>
<path d="M0 0 C1 0 2 1 3 1 C5 6 5 6 4 9 C4 11 5 13 6 14 C6 15 6 15 7 20 C5 23 5 23 1 24 C-0 24 -2 24 -3 24 C-4 22 -5 21 -6 19 C-5 18 -5 18 -4 17 C-4 15 -4 14 -4 12 C-5 11 -6 10 -7 9 C-7 5 -7 5 -6 2 C-3 -0 -3 -0 0 0 Z " fill="#E2E6ED" transform="translate(1087.0625,120.0625)"/>
<path d="M0 0 C2 2 2 2 5 4 C5 7 5 7 5 11 C5 12 5 13 5 14 C5 15 5 16 5 17 C3 17 1 17 -1 17 C-0 18 1 18 2 19 C1 23 -0 27 -2 31 C-3 31 -4 30 -5 30 C-5 28 -5 26 -5 24 C-6 23 -7 23 -8 22 C-8 20 -7 19 -7 17 C-6 17 -6 16 -5 16 C-5 14 -4 13 -4 11 C-5 11 -7 10 -8 10 C-8 8 -7 7 -7 5 C-5 5 -3 4 -1 4 C-1 3 -0 1 0 0 Z " fill="#4A5364" transform="translate(641,320)"/>
<path d="M0 0 C1 0 2 1 3 1 C3 3 4 5 4 7 C5 8 6 8 7 9 C8 12 8 12 8 15 C10 15 11 15 13 15 C13 16 12 18 12 19 C11 22 10 25 9 28 C9 28 10 29 10 29 C10 31 10 32 10 34 C8 34 7 33 5 33 C5 31 4 29 4 27 C3 27 1 26 0 26 C-2 22 -1 19 0 15 C1 9 1 6 -1 1 C-1 1 -0 0 0 0 Z " fill="#F6F7F8" transform="translate(656,317)"/>
<path d="M0 0 C2 -0 3 -0 5 -0 C6 -0 7 -0 9 -0 C10 -0 10 -0 13 -0 C16 0 16 0 19 1 C19 1 19 1 20 3 C24 4 27 4 31 4 C30 5 30 7 29 8 C25 9 25 9 21 8 C20 7 20 5 19 4 C15 4 12 4 8 4 C7 4 6 4 5 4 C2 4 -2 4 -5 4 C-7 4 -10 4 -12 4 C-18 4 -23 4 -29 4 C-22 -2 -9 -0 0 0 Z " fill="#F4BC55" transform="translate(1748.875,258.875)"/>
<path d="M0 0 C1 0 2 1 3 1 C3 2 3 2 3 3 C5 3 6 3 8 3 C8 4 8 4 8 5 C7 5 5 6 4 6 C1 10 2 12 2 17 C2 18 2 20 2 21 C2 25 2 25 3 30 C2 31 2 33 1 34 C-2 32 -2 32 -5 29 C-6 25 -6 21 -6 17 C-6 16 -6 16 -6 13 C-6 11 -5 8 -5 5 C-4 5 -3 4 -2 4 C-1 3 -1 1 0 0 Z " fill="#808595" transform="translate(1734,317)"/>
</svg>
