<?xml version="1.0" encoding="UTF-8"?>
<!-- Generator: visioncortex VTracer 0.6.12 -->
<svg version="1.1" xmlns="http://www.w3.org/2000/svg" width="460" height="580">
<path d="M0 0 C4 -0 8 -1 12 -0 C13 -1 14 -1 15 -1 C19 -1 19 -1 24 0 C24 1 24 1 26 4 C30 4 30 4 35 4 C40 4 40 4 44 4 C44 5 44 5 46 8 C48 8 49 8 51 8 C53 8 54 8 56 8 C56 9 56 9 58 12 C60 12 62 12 64 12 C64 13 64 13 66 16 C68 16 70 16 72 16 C72 17 72 17 74 20 C75 20 75 20 78 22 C78 23 78 23 78 24 C79 24 79 24 82 26 C82 27 82 27 82 28 C83 28 83 28 86 30 C86 31 86 31 86 32 C87 33 89 33 90 34 C90 35 90 35 90 36 C91 37 93 37 94 38 C94 39 94 39 94 40 C95 41 97 41 98 42 C98 43 98 43 98 44 C99 45 101 45 102 46 C102 47 102 47 102 48 C103 48 104 48 105 48 C105 49 105 50 105 51 C106 53 106 54 106 55 C107 55 108 56 109 56 C109 58 110 61 110 63 C111 63 112 64 113 64 C113 66 114 69 114 71 C115 71 116 72 117 72 C117 76 118 79 118 83 C119 83 120 84 121 84 C121 88 122 91 122 95 C123 95 124 96 125 96 C125 101 126 106 126 111 C126 112 126 114 126 115 C127 115 128 116 129 116 C129 119 129 119 129 124 C129 125 129 127 129 128 C129 132 130 135 130 139 C130 140 130 142 130 143 C130 145 130 146 130 148 C130 149 130 150 130 151 C131 151 132 152 133 152 C133 157 133 162 134 167 C134 170 134 172 134 175 C135 175 136 176 137 176 C137 180 138 183 138 187 C139 187 140 188 141 188 C141 192 142 195 142 199 C143 199 144 200 145 200 C145 202 145 204 145 205 C146 207 146 209 146 211 C147 212 149 213 150 214 C150 215 150 215 150 216 C151 216 152 216 153 216 C153 217 153 218 153 219 C154 221 154 222 154 223 C155 223 156 224 157 224 C157 228 158 231 158 235 C159 235 160 236 161 236 C161 240 162 243 162 247 C163 247 164 248 165 248 C165 253 165 258 166 263 C166 266 166 268 166 271 C167 271 168 272 169 272 C169 275 169 275 169 279 C169 280 169 282 169 283 C169 283 169 283 169 286 C168 286 167 287 166 287 C166 291 166 295 166 298 C165 302 165 306 165 310 C164 310 163 311 162 311 C162 313 162 315 162 316 C161 318 161 320 161 322 C160 322 159 323 158 323 C158 327 157 330 157 334 C156 334 155 334 154 334 C153 335 153 337 152 338 C151 338 151 338 150 338 C149 339 149 341 148 342 C147 342 147 342 146 342 C145 343 145 345 144 346 C142 346 140 346 138 346 C137 347 137 349 136 350 C135 350 135 350 134 350 C133 351 133 353 132 354 C130 354 128 354 126 354 C125 355 125 357 124 358 C121 358 117 358 114 358 C113 359 113 361 112 362 C111 362 111 362 110 362 C109 363 109 365 108 366 C107 366 107 366 106 366 C105 367 105 369 104 370 C103 370 103 370 102 370 C101 371 101 373 100 374 C97 375 97 375 94 375 C94 376 94 378 94 379 C103 380 103 380 106 380 C107 379 107 377 108 376 C112 376 115 376 119 376 C120 376 121 376 122 376 C123 375 123 373 124 372 C128 372 132 371 136 372 C137 371 138 371 139 371 C143 371 143 371 148 372 C149 373 149 375 150 376 C152 376 154 376 156 376 C157 377 157 379 158 380 C159 380 160 381 161 381 C161 383 160 384 160 386 C159 386 159 386 158 386 C157 387 157 389 156 390 C153 390 149 390 146 390 C145 391 145 393 144 394 C140 395 140 395 136 394 C135 395 133 395 132 395 C130 394 129 394 128 394 C127 393 127 391 126 390 C122 390 122 390 118 390 C117 391 117 393 116 394 C115 394 115 395 114 395 C114 397 113 400 113 402 C112 402 111 402 110 402 C108 402 107 402 106 402 C104 402 103 402 101 402 C100 402 99 402 98 402 C97 403 97 405 96 406 C94 406 92 406 90 406 C89 407 89 409 88 410 C85 411 85 411 81 411 C80 411 78 411 77 411 C75 411 73 411 72 411 C71 411 71 411 66 411 C61 411 55 411 49 411 C45 411 41 411 38 411 C29 411 21 411 13 411 C3 410 -6 411 -16 411 C-25 411 -34 411 -44 411 C-47 411 -51 411 -55 411 C-61 411 -66 411 -72 411 C-73 411 -75 411 -77 411 C-78 411 -80 411 -81 411 C-82 411 -84 411 -85 411 C-86 410 -87 410 -88 410 C-88 409 -88 409 -90 406 C-92 406 -94 406 -96 406 C-96 405 -96 405 -98 402 C-102 402 -102 402 -105 402 C-105 401 -105 400 -105 399 C-105 397 -106 396 -106 395 C-110 394 -113 394 -117 394 C-117 394 -117 394 -120 394 C-121 393 -121 391 -122 390 C-124 390 -126 390 -128 390 C-129 389 -129 387 -130 386 C-131 386 -132 385 -133 385 C-133 383 -132 382 -132 380 C-131 380 -131 380 -130 380 C-130 379 -130 379 -128 376 C-126 376 -124 376 -122 376 C-122 375 -122 375 -120 372 C-116 372 -112 371 -108 372 C-107 371 -106 371 -105 371 C-101 371 -101 371 -96 372 C-96 373 -96 373 -94 376 C-90 376 -90 376 -86 376 C-85 375 -85 373 -84 372 C-83 372 -83 371 -82 371 C-82 370 -82 368 -82 367 C-83 367 -83 367 -86 364 C-86 363 -86 363 -86 362 C-87 361 -89 361 -90 360 C-90 359 -90 359 -90 358 C-91 358 -92 358 -93 358 C-94 358 -96 358 -97 358 C-98 358 -99 358 -101 358 C-102 358 -103 358 -104 358 C-104 357 -104 357 -106 354 C-107 353 -109 353 -110 352 C-110 351 -110 351 -110 350 C-111 349 -113 349 -114 348 C-114 347 -114 347 -114 346 C-116 346 -118 346 -120 346 C-121 345 -121 343 -122 342 C-123 341 -125 341 -126 340 C-126 339 -126 339 -126 338 C-127 338 -128 338 -129 338 C-129 337 -129 336 -129 335 C-130 333 -130 332 -130 331 C-131 331 -132 330 -133 330 C-133 328 -134 325 -134 323 C-135 323 -136 322 -137 322 C-137 318 -138 315 -138 311 C-139 311 -140 310 -141 310 C-141 306 -141 302 -141 298 C-141 297 -141 296 -141 295 C-141 292 -141 289 -141 287 C-141 283 -141 279 -141 275 C-141 273 -141 270 -141 268 C-141 267 -141 266 -141 264 C-141 262 -141 259 -141 256 C-140 256 -139 255 -138 255 C-138 252 -138 252 -138 248 C-137 243 -137 243 -137 240 C-136 240 -135 239 -134 239 C-134 238 -134 237 -134 236 C-133 234 -133 233 -133 232 C-132 232 -131 231 -130 231 C-130 229 -130 227 -130 226 C-129 224 -129 222 -129 220 C-128 220 -127 219 -126 219 C-126 218 -126 217 -126 216 C-125 214 -125 213 -125 212 C-124 212 -123 211 -122 211 C-122 210 -122 209 -122 208 C-121 206 -121 205 -121 204 C-120 204 -119 203 -118 203 C-118 202 -118 201 -118 200 C-117 198 -117 197 -117 196 C-116 196 -115 195 -114 195 C-114 192 -114 192 -114 188 C-113 183 -113 183 -113 180 C-112 180 -111 179 -110 179 C-110 176 -110 176 -110 172 C-109 167 -109 167 -109 164 C-108 164 -107 163 -106 163 C-106 158 -106 154 -106 150 C-105 145 -105 141 -105 136 C-104 136 -103 135 -102 135 C-102 132 -102 132 -102 128 C-102 127 -102 125 -102 124 C-102 122 -102 121 -102 120 C-101 117 -101 114 -101 111 C-101 110 -101 108 -101 107 C-101 106 -101 105 -101 104 C-100 104 -99 103 -98 103 C-98 100 -98 100 -98 96 C-97 91 -97 91 -97 88 C-96 88 -95 87 -94 87 C-94 85 -94 83 -94 82 C-93 80 -93 78 -93 76 C-92 76 -91 75 -90 75 C-90 74 -90 73 -90 72 C-89 70 -89 69 -89 68 C-88 68 -87 67 -86 67 C-86 66 -86 65 -86 64 C-85 62 -85 61 -85 60 C-84 60 -83 59 -82 59 C-81 55 -81 55 -81 52 C-80 52 -79 52 -78 52 C-77 51 -77 49 -76 48 C-75 48 -75 47 -74 47 C-74 45 -73 42 -73 40 C-72 40 -71 40 -70 40 C-69 39 -69 37 -68 36 C-67 36 -67 36 -66 36 C-65 35 -65 33 -64 32 C-63 32 -63 32 -62 32 C-61 31 -61 29 -60 28 C-59 28 -59 28 -58 28 C-57 27 -57 25 -56 24 C-54 24 -52 24 -50 24 C-49 23 -49 21 -48 20 C-47 20 -47 20 -46 20 C-45 19 -45 17 -44 16 C-42 16 -40 16 -38 16 C-37 15 -37 13 -36 12 C-34 12 -32 12 -30 12 C-29 11 -29 9 -28 8 C-25 8 -21 8 -18 8 C-17 7 -17 5 -16 4 C-12 4 -9 4 -5 4 C-4 4 -3 4 -2 4 C-1 3 -1 1 0 0 Z " fill="#C7CAD4" transform="translate(218,25)"/>
<path d="M0 0 C4 -0 8 -1 12 -0 C13 -1 14 -1 15 -1 C19 -1 19 -1 24 0 C24 1 24 1 26 4 C30 4 30 4 35 4 C40 4 40 4 44 4 C44 5 44 5 46 8 C48 8 49 8 51 8 C53 8 54 8 56 8 C56 9 56 9 58 12 C60 12 62 12 64 12 C64 13 64 13 66 16 C68 16 70 16 72 16 C72 17 72 17 74 20 C75 20 75 20 78 22 C78 23 78 23 78 24 C79 24 79 24 82 26 C82 27 82 27 82 28 C83 28 83 28 86 30 C86 31 86 31 86 32 C87 33 89 33 90 34 C90 35 90 35 90 36 C91 37 93 37 94 38 C94 39 94 39 94 40 C95 41 97 41 98 42 C98 43 98 43 98 44 C99 45 101 45 102 46 C102 47 102 47 102 48 C103 48 104 48 105 48 C105 49 105 50 105 51 C106 53 106 54 106 55 C107 55 108 56 109 56 C109 58 110 61 110 63 C111 63 112 64 113 64 C113 66 114 69 114 71 C115 71 116 72 117 72 C117 76 118 79 118 83 C119 83 120 84 121 84 C121 88 122 91 122 95 C123 95 124 96 125 96 C125 101 126 106 126 111 C126 112 126 114 126 115 C127 115 128 116 129 116 C129 119 129 119 129 124 C129 125 129 127 129 128 C129 132 130 135 130 139 C130 140 130 142 130 143 C130 145 130 146 130 148 C130 149 130 150 130 151 C131 151 132 152 133 152 C133 157 133 162 134 167 C134 170 134 172 134 175 C135 175 136 176 137 176 C137 180 138 183 138 187 C139 187 140 188 141 188 C141 192 142 195 142 199 C143 199 144 200 145 200 C145 202 145 204 145 205 C146 207 146 209 146 211 C147 212 149 213 150 214 C150 215 150 215 150 216 C151 216 152 216 153 216 C153 217 153 218 153 219 C154 221 154 222 154 223 C155 223 156 224 157 224 C157 228 158 231 158 235 C159 235 160 236 161 236 C161 240 162 243 162 247 C163 247 164 248 165 248 C165 253 165 258 166 263 C166 266 166 268 166 271 C167 271 168 272 169 272 C169 275 169 275 169 279 C169 280 169 282 169 283 C169 283 169 283 169 286 C168 286 167 287 166 287 C166 291 166 295 166 298 C165 302 165 306 165 310 C164 310 163 311 162 311 C162 313 162 315 162 316 C161 318 161 320 161 322 C160 322 159 323 158 323 C158 327 157 330 157 334 C156 334 155 334 154 334 C153 335 153 337 152 338 C151 338 151 338 150 338 C149 339 149 341 148 342 C147 342 147 342 146 342 C145 343 145 345 144 346 C142 346 140 346 138 346 C137 347 137 349 136 350 C135 350 135 350 134 350 C133 351 133 353 132 354 C130 354 128 354 126 354 C125 355 125 357 124 358 C121 358 117 358 114 358 C113 359 113 361 112 362 C111 362 111 362 110 362 C109 363 109 365 108 366 C107 366 107 366 106 366 C105 367 105 369 104 370 C103 370 103 370 102 370 C101 371 101 373 100 374 C97 375 97 375 94 375 C94 376 94 378 94 379 C103 380 103 380 106 380 C107 379 107 377 108 376 C112 376 115 376 119 376 C120 376 121 376 122 376 C123 375 123 373 124 372 C128 372 132 371 136 372 C137 371 138 371 139 371 C143 371 143 371 148 372 C149 373 149 375 150 376 C152 376 154 376 156 376 C157 377 157 379 158 380 C159 380 160 381 161 381 C161 383 160 384 160 386 C159 386 159 386 158 386 C157 387 157 389 156 390 C153 390 149 390 146 390 C145 391 145 393 144 394 C140 395 140 395 136 394 C135 395 133 395 132 395 C130 394 129 394 128 394 C127 393 127 391 126 390 C122 390 122 390 118 390 C117 391 117 393 116 394 C115 394 115 395 114 395 C114 397 113 400 113 402 C112 402 111 402 110 402 C108 402 107 402 106 402 C104 402 103 402 101 402 C100 402 99 402 98 402 C97 403 97 405 96 406 C94 406 92 406 90 406 C89 407 89 409 88 410 C85 411 85 411 81 411 C80 411 78 411 77 411 C75 411 73 411 72 411 C71 411 71 411 66 411 C61 411 55 411 49 411 C45 411 41 411 38 411 C29 411 21 411 13 411 C3 410 -6 411 -16 411 C-25 411 -34 411 -44 411 C-47 411 -51 411 -55 411 C-61 411 -66 411 -72 411 C-73 411 -75 411 -77 411 C-78 411 -80 411 -81 411 C-82 411 -84 411 -85 411 C-86 410 -87 410 -88 410 C-88 409 -88 409 -90 406 C-92 406 -94 406 -96 406 C-96 405 -96 405 -98 402 C-102 402 -102 402 -105 402 C-105 401 -105 400 -105 399 C-105 397 -106 396 -106 395 C-110 394 -113 394 -117 394 C-117 394 -117 394 -120 394 C-121 393 -121 391 -122 390 C-124 390 -126 390 -128 390 C-129 389 -129 387 -130 386 C-131 386 -132 385 -133 385 C-133 383 -132 382 -132 380 C-131 380 -131 380 -130 380 C-130 379 -130 379 -128 376 C-126 376 -124 376 -122 376 C-122 375 -122 375 -120 372 C-116 372 -112 371 -108 372 C-107 371 -106 371 -105 371 C-101 371 -101 371 -96 372 C-96 373 -96 373 -94 376 C-90 376 -90 376 -86 376 C-85 375 -85 373 -84 372 C-83 372 -83 371 -82 371 C-82 370 -82 368 -82 367 C-83 367 -83 367 -86 364 C-86 363 -86 363 -86 362 C-87 361 -89 361 -90 360 C-90 359 -90 359 -90 358 C-91 358 -92 358 -93 358 C-94 358 -96 358 -97 358 C-98 358 -99 358 -101 358 C-102 358 -103 358 -104 358 C-104 357 -104 357 -106 354 C-107 353 -109 353 -110 352 C-110 351 -110 351 -110 350 C-111 349 -113 349 -114 348 C-114 347 -114 347 -114 346 C-116 346 -118 346 -120 346 C-121 345 -121 343 -122 342 C-123 341 -125 341 -126 340 C-126 339 -126 339 -126 338 C-127 338 -128 338 -129 338 C-129 337 -129 336 -129 335 C-130 333 -130 332 -130 331 C-131 331 -132 330 -133 330 C-133 328 -134 325 -134 323 C-135 323 -136 322 -137 322 C-137 318 -138 315 -138 311 C-139 311 -140 310 -141 310 C-141 306 -141 302 -141 298 C-141 297 -141 296 -141 295 C-141 292 -141 289 -141 287 C-141 283 -141 279 -141 275 C-141 273 -141 270 -141 268 C-141 267 -141 266 -141 264 C-141 262 -141 259 -141 256 C-140 256 -139 255 -138 255 C-138 252 -138 252 -138 248 C-137 243 -137 243 -137 240 C-136 240 -135 239 -134 239 C-134 238 -134 237 -134 236 C-133 234 -133 233 -133 232 C-132 232 -131 231 -130 231 C-130 229 -130 227 -130 226 C-129 224 -129 222 -129 220 C-128 220 -127 219 -126 219 C-126 218 -126 217 -126 216 C-125 214 -125 213 -125 212 C-124 212 -123 211 -122 211 C-122 210 -122 209 -122 208 C-121 206 -121 205 -121 204 C-120 204 -119 203 -118 203 C-118 202 -118 201 -118 200 C-117 198 -117 197 -117 196 C-116 196 -115 195 -114 195 C-114 192 -114 192 -114 188 C-113 183 -113 183 -113 180 C-112 180 -111 179 -110 179 C-110 176 -110 176 -110 172 C-109 167 -109 167 -109 164 C-108 164 -107 163 -106 163 C-106 158 -106 154 -106 150 C-105 145 -105 141 -105 136 C-104 136 -103 135 -102 135 C-102 132 -102 132 -102 128 C-102 127 -102 125 -102 124 C-102 122 -102 121 -102 120 C-101 117 -101 114 -101 111 C-101 110 -101 108 -101 107 C-101 106 -101 105 -101 104 C-100 104 -99 103 -98 103 C-98 100 -98 100 -98 96 C-97 91 -97 91 -97 88 C-96 88 -95 87 -94 87 C-94 85 -94 83 -94 82 C-93 80 -93 78 -93 76 C-92 76 -91 75 -90 75 C-90 74 -90 73 -90 72 C-89 70 -89 69 -89 68 C-88 68 -87 67 -86 67 C-86 66 -86 65 -86 64 C-85 62 -85 61 -85 60 C-84 60 -83 59 -82 59 C-81 55 -81 55 -81 52 C-80 52 -79 52 -78 52 C-77 51 -77 49 -76 48 C-75 48 -75 47 -74 47 C-74 45 -73 42 -73 40 C-72 40 -71 40 -70 40 C-69 39 -69 37 -68 36 C-67 36 -67 36 -66 36 C-65 35 -65 33 -64 32 C-63 32 -63 32 -62 32 C-61 31 -61 29 -60 28 C-59 28 -59 28 -58 28 C-57 27 -57 25 -56 24 C-54 24 -52 24 -50 24 C-49 23 -49 21 -48 20 C-47 20 -47 20 -46 20 C-45 19 -45 17 -44 16 C-42 16 -40 16 -38 16 C-37 15 -37 13 -36 12 C-34 12 -32 12 -30 12 C-29 11 -29 9 -28 8 C-25 8 -21 8 -18 8 C-17 7 -17 5 -16 4 C-12 4 -9 4 -5 4 C-4 4 -3 4 -2 4 C-1 3 -1 1 0 0 Z M-55 41 C-56 42 -57 44 -58 45 C-59 46 -59 46 -62 49 C-82 74 -88 104 -92 135 C-92 136 -92 138 -92 139 C-93 144 -94 150 -94 155 C-96 171 -99 186 -105 201 C-104 207 -103 209 -98 212 C-97 212 -97 212 -94 214 C-95 215 -96 216 -97 217 C-97 218 -98 220 -98 221 C-100 221 -101 220 -103 220 C-108 220 -108 220 -113 220 C-127 234 -129 258 -130 277 C-130 278 -130 279 -130 280 C-130 287 -130 293 -129 299 C-129 300 -129 302 -129 303 C-128 312 -127 321 -122 328 C-119 330 -119 330 -116 331 C-113 329 -111 328 -108 326 C-107 326 -107 326 -106 326 C-105 329 -104 332 -103 335 C-102 337 -102 338 -101 340 C-100 340 -98 341 -97 341 C-91 338 -91 338 -89 333 C-89 331 -89 330 -88 329 C-88 328 -87 327 -87 326 C-87 326 -87 326 -86 323 C-79 304 -78 286 -77 267 C-77 266 -77 266 -77 262 C-77 257 -77 253 -77 249 C-74 249 -74 249 -71 250 C-62 278 -72 312 -82 339 C-83 340 -84 342 -85 343 C-86 346 -86 346 -85 350 C-79 357 -71 362 -63 365 C-60 365 -60 365 -56 363 C-49 363 -47 364 -41 368 C-40 369 -40 370 -39 371 C-29 381 -5 380 8 380 C49 381 49 381 62 372 C65 369 65 369 67 364 C72 363 72 363 76 363 C76 364 76 364 76 365 C79 367 82 366 86 366 C96 362 105 356 111 347 C112 343 111 340 109 336 C106 329 104 322 102 314 C102 312 101 311 101 309 C97 291 94 267 100 249 C103 248 103 248 106 248 C106 249 106 251 106 252 C105 318 105 318 120 335 C121 337 121 338 122 340 C124 340 125 339 127 339 C130 334 131 328 133 323 C133 322 134 322 134 321 C135 321 136 322 137 322 C137 323 137 324 137 325 C138 328 138 328 141 330 C142 330 143 330 144 330 C155 317 155 300 155 284 C155 282 155 281 155 279 C156 254 149 233 134 213 C133 212 133 211 132 210 C131 210 131 210 130 210 C130 209 130 209 131 206 C131 200 130 197 128 192 C127 187 125 182 124 177 C124 176 124 176 123 173 C121 163 119 153 118 143 C117 136 116 130 115 123 C115 120 114 117 114 114 C111 80 96 53 71 31 C34 3 -23 7 -55 41 Z " fill="#131215" transform="translate(218,25)"/>
<path d="M0 0 C25 22 40 49 44 83 C44 85 44 87 45 89 C45 95 46 102 47 108 C49 115 49 122 49 129 C49 128 48 127 48 127 C47 127 46 127 45 127 C44 122 44 119 44 115 C44 109 43 104 41 100 C41 97 41 95 41 92 C40 84 38 78 35 71 C34 71 34 71 30 73 C25 75 25 75 21 75 C21 75 20 76 20 77 C18 75 17 74 16 72 C11 67 7 65 0 64 C-9 65 -15 70 -21 77 C-25 81 -27 86 -29 92 C-30 91 -31 90 -33 89 C-40 83 -47 84 -56 84 C-57 84 -57 84 -61 84 C-62 84 -64 84 -66 84 C-67 84 -69 84 -70 84 C-74 85 -77 85 -81 88 C-81 92 -80 95 -78 99 C-78 101 -78 103 -78 105 C-78 106 -78 107 -78 108 C-78 112 -78 112 -81 117 C-82 117 -82 117 -85 119 C-86 120 -87 121 -88 123 C-89 124 -90 125 -91 127 C-92 126 -92 126 -95 125 C-95 124 -95 124 -92 121 C-87 115 -87 110 -87 102 C-89 94 -91 89 -96 83 C-101 80 -104 79 -109 80 C-115 81 -119 83 -122 89 C-127 98 -127 106 -124 116 C-122 120 -119 124 -114 127 C-110 127 -106 128 -101 129 C-101 130 -101 131 -101 133 C-108 135 -115 135 -123 134 C-131 128 -137 120 -139 110 C-141 96 -140 85 -132 73 C-129 70 -129 70 -128 69 C-129 69 -129 69 -133 70 C-136 68 -139 66 -141 65 C-142 64 -144 64 -145 64 C-149 67 -152 70 -153 75 C-153 80 -153 80 -153 84 C-152 86 -152 87 -152 89 C-153 89 -153 89 -155 90 C-156 94 -156 98 -156 102 C-156 104 -156 105 -156 107 C-155 111 -155 111 -154 114 C-154 117 -154 117 -157 121 C-159 126 -160 128 -158 134 C-158 134 -158 135 -157 137 C-160 137 -162 137 -165 138 C-162 91 -157 42 -122 9 C-121 8 -121 7 -120 6 C-89 -23 -34 -27 0 0 Z " fill="#C7CAD4" transform="translate(288.16015625,55.49609375)"/>
<path d="M0 0 C7 4 13 9 18 16 C23 30 22 45 16 59 C12 65 8 68 1 70 C-8 72 -16 72 -24 68 C-25 73 -25 73 -24 76 C-25 76 -26 77 -28 77 C-33 79 -35 82 -38 86 C-39 86 -39 86 -40 86 C-41 88 -41 89 -42 91 C-46 98 -49 105 -56 109 C-61 110 -63 110 -68 107 C-72 102 -74 98 -77 92 C-80 88 -83 85 -87 82 C-88 81 -89 80 -90 79 C-90 78 -90 78 -90 77 C-91 77 -93 76 -94 76 C-94 74 -94 73 -94 71 C-98 69 -101 69 -106 69 C-106 68 -106 66 -106 65 C-108 65 -109 65 -111 65 C-118 65 -121 64 -126 58 C-132 51 -132 44 -131 34 C-130 27 -127 21 -120 17 C-115 15 -111 15 -105 16 C-97 22 -93 28 -91 38 C-91 45 -91 50 -94 56 C-97 59 -97 59 -99 61 C-98 61 -97 62 -96 62 C-94 59 -92 57 -90 54 C-88 53 -87 52 -85 51 C-82 43 -84 34 -87 26 C-85 22 -85 22 -82 21 C-75 19 -68 20 -61 20 C-60 19 -58 19 -56 19 C-47 19 -41 20 -34 26 C-34 25 -34 25 -32 22 C-26 9 -15 -2 0 0 Z " fill="#C9CCD7" transform="translate(293,119)"/>
<path d="M0 0 C7 2 13 5 19 11 C19 12 19 12 19 13 C20 13 20 13 23 15 C26 19 28 22 29 27 C29 28 30 29 30 30 C29 30 29 30 28 30 C28 31 27 32 27 33 C16 37 3 37 -8 35 C-8 35 -8 35 -10 36 C-10 37 -11 38 -11 39 C-16 41 -16 41 -19 40 C-23 44 -23 47 -25 52 C-25 52 -25 52 -26 54 C-27 58 -27 58 -26 63 C-21 65 -21 65 -16 67 C-16 67 -16 67 -13 69 C-10 69 -10 69 -7 68 C-9 72 -9 72 -12 76 C-16 80 -18 85 -20 90 C-21 89 -22 88 -23 87 C-30 81 -38 83 -47 83 C-48 83 -50 83 -52 83 C-60 83 -66 83 -74 86 C-77 81 -77 81 -78 78 C-82 71 -87 66 -94 63 C-94 63 -94 62 -94 62 C-92 62 -90 62 -88 62 C-82 50 -82 50 -82 43 C-87 39 -90 40 -96 40 C-106 39 -115 38 -124 33 C-125 27 -124 24 -121 19 C-116 13 -110 9 -103 5 C-102 6 -101 7 -100 8 C-97 12 -94 14 -90 17 C-81 23 -76 31 -73 41 C-69 43 -63 42 -58 42 C-56 41 -54 40 -52 39 C-49 38 -45 38 -42 37 C-39 37 -39 37 -35 36 C-35 34 -35 32 -35 30 C-35 30 -35 30 -38 29 C-39 26 -39 26 -39 23 C-37 20 -34 18 -32 16 C-29 14 -29 14 -26 10 C-21 5 -17 4 -10 2 C-6 -1 -5 -1 0 0 Z " fill="#C0C4D0" transform="translate(279,57)"/>
<path d="M0 0 C6 1 6 2 9 6 C11 9 13 11 16 13 C17 16 18 19 19 22 C19 25 20 28 21 31 C22 31 22 32 23 32 C23 33 23 33 23 34 C21 34 20 34 18 34 C18 35 18 36 18 37 C18 42 18 47 18 52 C18 53 18 55 18 56 C17 79 14 104 2 124 C1 124 1 124 -3 126 C-7 124 -7 124 -9 119 C-9 117 -10 116 -10 114 C-10 113 -11 112 -11 111 C-15 112 -15 112 -18 115 C-19 115 -19 115 -22 116 C-29 112 -30 107 -32 100 C-38 69 -36 36 -21 7 C-16 3 -9 5 -3 6 C-2 4 -2 3 -1 1 C-1 1 -0 0 0 0 Z " fill="#898EA0" transform="translate(123,240)"/>
<path d="M0 0 C0 1 1 2 1 3 C2 3 3 4 4 4 C5 6 7 8 8 10 C9 11 10 12 11 13 C25 34 26 59 26 84 C26 85 26 87 26 88 C26 100 23 113 15 123 C12 123 12 123 9 121 C8 118 8 118 8 115 C7 115 6 114 5 114 C2 119 1 124 -1 129 C-1 130 -2 131 -2 132 C-4 132 -5 133 -7 133 C-9 130 -9 130 -10 127 C-11 126 -11 125 -12 124 C-15 118 -16 111 -18 104 C-18 103 -19 102 -19 101 C-24 82 -23 61 -23 41 C-24 41 -24 41 -27 42 C-28 40 -28 40 -27 37 C-26 33 -24 30 -23 26 C-22 24 -22 22 -21 21 C-18 14 -13 8 -7 4 C-6 4 -6 4 -5 4 C-5 3 -5 3 -5 2 C-3 1 -2 1 0 0 Z " fill="#7E8498" transform="translate(347,232)"/>
<path d="M0 0 C-0 2 -1 4 -1 6 C-2 6 -4 6 -5 6 C-6 6 -6 6 -10 6 C-11 7 -11 9 -12 10 C-14 10 -17 11 -19 11 C-20 12 -20 14 -21 15 C-22 15 -22 16 -23 16 C-24 16 -24 15 -25 15 C-26 17 -26 18 -27 20 C-30 23 -30 23 -34 26 C-42 31 -45 36 -47 45 C-38 54 -25 52 -14 52 C-9 53 -7 53 -4 57 C-4 64 -7 70 -11 76 C-11 76 -11 76 -14 77 C-13 78 -11 79 -10 81 C-0 89 7 102 8 114 C9 121 8 123 5 129 C4 129 4 129 1 131 C0 132 -1 134 -2 135 C-3 136 -4 138 -5 139 C-6 139 -6 139 -9 137 C-9 136 -9 136 -6 134 C-1 128 -1 122 -1 114 C-2 106 -5 101 -10 96 C-15 92 -17 92 -23 92 C-29 94 -32 96 -36 101 C-41 110 -40 118 -38 128 C-36 133 -33 136 -28 139 C-24 140 -19 141 -15 141 C-15 142 -15 144 -15 145 C-22 148 -29 148 -37 146 C-45 141 -50 132 -53 123 C-55 109 -54 97 -46 85 C-43 82 -43 82 -42 81 C-43 81 -43 81 -47 82 C-50 80 -52 79 -55 77 C-56 77 -58 76 -59 76 C-63 80 -66 83 -67 88 C-67 92 -67 92 -66 97 C-66 98 -66 100 -66 101 C-66 101 -66 101 -69 102 C-70 107 -70 110 -70 115 C-70 116 -69 118 -69 119 C-69 123 -69 123 -68 126 C-68 129 -68 129 -70 133 C-73 139 -73 140 -72 146 C-72 147 -71 148 -71 149 C-74 149 -76 150 -79 150 C-76 104 -71 55 -36 21 C-35 20 -34 19 -34 19 C-25 10 -12 0 0 0 Z " fill="#C7CAD5" transform="translate(202,43)"/>
<path d="M0 0 C3 0 3 0 6 2 C14 6 14 6 19 5 C18 6 17 8 16 9 C8 21 5 32 7 46 C10 55 14 61 20 67 C20 68 20 68 20 69 C29 73 38 71 47 70 C53 69 53 69 57 72 C59 79 59 79 58 83 C59 83 59 83 62 85 C65 88 65 88 66 92 C58 100 43 98 33 98 C29 98 26 97 22 95 C18 95 16 95 13 98 C5 104 -7 104 -16 104 C-19 103 -19 103 -22 102 C-22 102 -22 102 -20 99 C-19 96 -19 93 -19 89 C-17 84 -17 84 -15 81 C-15 79 -14 76 -14 74 C-13 74 -12 74 -11 74 C-12 73 -12 72 -13 71 C-15 64 -13 60 -9 54 C-9 51 -9 51 -10 48 C-10 45 -10 42 -11 39 C-11 37 -11 36 -11 34 C-11 30 -11 30 -9 26 C-8 26 -7 26 -6 26 C-6 25 -7 23 -7 22 C-8 16 -9 12 -6 6 C-4 4 -4 4 0 0 Z " fill="#C0C4D0" transform="translate(142,118)"/>
<path d="M0 0 C7 4 13 9 18 16 C23 30 22 45 16 59 C12 65 8 68 1 70 C-8 72 -16 72 -24 68 C-25 66 -26 65 -27 63 C-29 63 -30 63 -32 63 C-36 56 -37 49 -36 41 C-36 40 -36 39 -36 38 C-35 29 -34 23 -29 16 C-29 16 -29 16 -27 13 C-20 5 -12 -2 0 0 Z " fill="#EBECF1" transform="translate(293,119)"/>
<path d="M0 0 C0 0 1 0 1 0 C1 1 2 3 2 4 C3 9 3 9 5 12 C6 17 6 21 7 25 C7 28 7 31 7 34 C8 34 8 35 9 35 C10 40 10 45 10 51 C10 52 10 52 10 56 C10 60 10 60 9 62 C8 62 8 62 7 62 C7 63 6 65 6 66 C2 68 2 68 -3 70 C-8 72 -13 74 -17 77 C-22 80 -28 82 -33 84 C-35 85 -37 85 -38 86 C-44 88 -51 90 -57 91 C-57 93 -57 95 -56 97 C-56 101 -56 103 -57 106 C-61 110 -64 111 -68 113 C-70 114 -71 115 -73 116 C-85 121 -95 122 -108 118 C-109 118 -109 118 -113 119 C-113 118 -114 117 -114 116 C-112 112 -112 112 -109 110 C-103 109 -98 109 -92 109 C-92 109 -92 109 -87 109 C-86 109 -86 109 -82 109 C-82 108 -82 108 -82 107 C-81 106 -79 104 -78 103 C-73 97 -73 97 -72 95 C-72 95 -72 95 -74 94 C-74 93 -74 92 -74 91 C-72 91 -71 91 -69 91 C-69 90 -69 90 -68 87 C-64 84 -64 84 -62 84 C-61 82 -61 81 -60 79 C-59 79 -59 79 -58 79 C-58 79 -58 79 -57 76 C-56 76 -56 75 -55 75 C-55 70 -55 70 -56 68 C-55 67 -55 65 -54 64 C-51 65 -49 65 -46 66 C-37 67 -28 66 -20 61 C-11 52 -9 40 -10 28 C-11 16 -11 16 -14 11 C-14 10 -14 8 -14 7 C-5 3 -5 3 0 3 C0 2 0 1 0 0 Z " fill="#C1C5D1" transform="translate(323,123)"/>
<path d="M0 0 C11 5 20 15 24 26 C24 32 24 32 21 36 C19 38 18 39 17 40 C16 40 16 40 15 40 C14 42 14 43 13 45 C9 52 6 59 -1 63 C-6 64 -8 64 -12 61 C-17 56 -19 52 -22 46 C-25 42 -28 39 -32 36 C-35 32 -34 28 -34 23 C-31 18 -31 18 -28 14 C-27 13 -26 11 -25 10 C-18 3 -10 -1 0 0 Z " fill="#130E07" transform="translate(238,165)"/>
<path d="M0 0 C1 0 1 0 3 1 C13 2 13 2 17 5 C18 10 16 12 14 16 C14 18 13 19 12 20 C14 21 15 22 16 23 C16 24 16 25 16 25 C17 26 18 26 18 26 C17 37 13 48 7 57 C6 58 4 59 2 59 C-2 57 -2 57 -3 52 C-4 51 -4 49 -5 47 C-5 46 -5 45 -6 44 C-10 45 -10 45 -13 48 C-13 48 -13 48 -17 49 C-23 45 -25 41 -27 33 C-29 23 -30 12 -26 2 C-25 2 -24 2 -23 1 C-23 1 -23 -0 -23 -1 C-15 -3 -7 -1 0 0 Z " fill="#7E8498" transform="translate(117.625,306.8125)"/>
<path d="M0 0 C2 2 1 7 1 10 C1 10 1 10 2 13 C6 15 10 14 14 13 C18 12 21 11 25 12 C26 13 28 14 29 15 C34 19 36 19 42 18 C41 19 41 21 40 22 C35 22 31 23 26 22 C25 22 24 22 22 22 C17 22 13 22 8 22 C5 22 1 22 -2 22 C-11 22 -19 22 -28 22 C-37 22 -45 22 -54 22 C-71 22 -89 22 -106 22 C-106 21 -106 21 -106 20 C-95 11 -95 11 -88 11 C-85 12 -81 13 -78 14 C-76 14 -75 14 -73 14 C-73 13 -73 13 -73 9 C-72 4 -72 4 -70 1 C-66 1 -63 1 -59 1 C-57 1 -55 2 -52 2 C-51 2 -50 2 -49 2 C-37 2 -24 2 -12 0 C-8 0 -4 -0 0 0 Z " fill="#D0D2E6" transform="translate(266,413)"/>
<path d="M0 0 C7 7 11 15 15 25 C16 27 16 28 17 30 C17 33 17 33 17 36 C17 38 17 39 17 40 C17 43 17 43 14 48 C13 49 11 49 10 50 C9 51 8 53 7 54 C6 55 5 57 4 58 C3 57 1 57 -0 56 C1 55 2 54 3 53 C8 47 8 41 8 33 C7 25 4 20 -1 15 C-6 11 -9 11 -14 11 C-20 13 -24 15 -27 20 C-32 29 -32 37 -29 47 C-27 52 -24 55 -19 58 C-15 59 -11 60 -6 60 C-6 61 -6 63 -6 64 C-13 67 -20 67 -28 65 C-36 60 -41 51 -44 42 C-46 28 -45 17 -37 4 C-32 -2 -27 -5 -19 -6 C-11 -6 -6 -5 0 0 Z " fill="#EBECF1" transform="translate(193.125,124)"/>
<path d="M0 0 C4 -0 8 -1 12 -0 C13 -1 14 -1 15 -1 C19 -1 19 -1 24 0 C25 1 25 3 26 4 C27 5 29 5 30 6 C30 7 30 7 30 8 C31 9 33 9 34 10 C34 11 34 11 34 12 C35 13 37 13 38 14 C38 15 38 15 38 16 C39 16 40 16 41 16 C41 21 41 25 41 30 C40 30 39 30 38 30 C37 31 37 33 36 34 C32 34 29 34 25 34 C24 34 23 34 22 34 C21 35 21 37 20 38 C16 38 12 39 8 38 C7 39 6 39 5 39 C1 39 1 39 -4 38 C-5 37 -5 35 -6 34 C-7 33 -9 33 -10 32 C-10 31 -10 31 -10 30 C-11 30 -12 30 -13 30 C-13 28 -13 26 -13 25 C-14 23 -14 21 -14 19 C-15 18 -16 18 -17 17 C-17 15 -16 14 -16 12 C-15 12 -15 11 -14 11 C-14 9 -13 6 -13 4 C-11 4 -9 4 -8 4 C-6 4 -4 4 -2 4 C-1 3 -1 1 0 0 Z " fill="#5E65DE" transform="translate(266,517)"/>
<path d="M0 0 C4 -1 4 -1 8 -0 C9 -1 11 -1 12 -1 C14 -0 15 -0 16 0 C17 1 17 3 18 4 C21 4 21 4 26 4 C27 4 28 4 30 4 C30 4 30 4 33 4 C33 5 33 5 33 7 C34 9 34 10 34 11 C35 12 36 12 37 13 C37 15 36 16 36 18 C36 18 36 18 34 19 C34 23 33 26 33 30 C32 30 31 30 30 30 C29 31 29 33 28 34 C27 34 27 34 26 34 C25 35 25 37 24 38 C21 39 21 39 17 39 C15 39 14 39 13 39 C11 39 10 39 8 38 C6 39 5 39 3 39 C2 39 1 39 -1 39 C-2 39 -2 39 -5 39 C-5 38 -5 38 -8 38 C-9 37 -9 35 -10 34 C-12 34 -14 34 -16 34 C-17 33 -17 31 -18 30 C-19 30 -20 30 -21 30 C-21 25 -21 21 -21 16 C-20 16 -19 16 -18 16 C-17 15 -17 13 -16 12 C-15 12 -15 12 -14 12 C-13 11 -13 9 -12 8 C-11 8 -11 8 -10 8 C-9 7 -9 5 -8 4 C-6 4 -4 4 -2 4 C-1 3 -1 1 0 0 Z " fill="#5D64E0" transform="translate(174,517)"/>
<path d="M0 0 C0 1 1 2 1 3 C2 3 3 4 4 4 C5 6 7 8 8 10 C9 11 10 12 11 13 C20 27 25 45 26 62 C25 62 25 62 24 62 C23 60 23 59 22 57 C20 52 19 50 15 47 C9 45 7 46 1 48 C-4 48 -7 48 -12 47 C-16 49 -16 51 -17 55 C-17 56 -18 57 -18 58 C-18 59 -19 60 -19 61 C-20 63 -20 65 -21 67 C-24 62 -23 57 -23 52 C-23 51 -23 50 -23 49 C-23 46 -23 44 -23 41 C-24 41 -24 41 -27 42 C-28 40 -28 40 -27 37 C-26 33 -24 30 -23 26 C-22 24 -22 22 -21 21 C-18 14 -13 8 -7 4 C-6 4 -6 4 -5 4 C-5 3 -5 3 -5 2 C-3 1 -2 1 0 0 Z " fill="#888EA0" transform="translate(347,232)"/>
<path d="M0 0 C1 0 2 1 3 1 C3 3 3 5 3 7 C7 9 7 9 11 10 C19 13 26 17 33 22 C37 25 41 25 46 25 C48 25 49 26 51 26 C54 26 57 26 60 26 C61 26 61 26 65 26 C66 26 66 26 69 26 C74 27 76 28 80 31 C80 32 80 32 80 33 C81 34 83 34 84 35 C84 36 85 36 85 37 C85 38 84 39 84 40 C84 40 84 40 82 41 C82 42 82 42 82 43 C80 43 80 43 72 44 C72 45 72 45 72 46 C61 47 49 46 38 42 C35 39 35 39 33 36 C27 32 25 31 18 31 C17 31 17 31 14 33 C6 33 -1 27 -7 22 C-11 18 -11 18 -12 14 C-11 11 -11 11 -7 7 C-5 6 -4 6 -2 5 C-1 3 -1 2 0 0 Z " fill="#C1C4D0" transform="translate(144,357)"/>
<path d="M0 0 C8 6 12 12 14 22 C14 29 14 34 11 40 C6 45 2 49 -5 49 C-13 49 -15 48 -21 42 C-27 35 -27 28 -26 18 C-25 11 -22 5 -15 1 C-10 -1 -6 -1 0 0 Z " fill="#0D0D0F" transform="translate(188,135)"/>
<path d="M0 0 C3 1 3 1 4 3 C5 3 7 3 8 3 C10 4 11 4 13 4 C14 5 14 7 15 8 C17 8 19 8 21 8 C22 9 22 11 23 12 C24 12 25 13 26 13 C26 15 25 16 25 18 C24 18 24 18 23 18 C22 19 22 21 21 22 C20 22 20 22 19 22 C18 23 18 25 17 26 C16 26 16 26 15 26 C14 27 14 29 13 30 C11 30 9 30 7 30 C6 31 6 33 5 34 C3 34 1 34 -1 34 C-2 35 -2 37 -3 38 C-6 39 -6 39 -9 38 C-10 39 -11 39 -12 39 C-13 38 -14 38 -15 38 C-16 37 -16 35 -17 34 C-19 34 -20 34 -22 34 C-24 34 -25 34 -27 34 C-28 33 -28 31 -29 30 C-31 30 -33 30 -35 30 C-36 29 -36 27 -37 26 C-38 26 -39 25 -40 25 C-40 23 -39 22 -39 20 C-38 20 -38 20 -37 20 C-36 19 -36 17 -35 16 C-34 16 -34 16 -33 16 C-32 15 -32 13 -31 12 C-29 12 -27 12 -25 12 C-24 11 -24 9 -23 8 C-21 8 -19 8 -17 8 C-16 7 -16 5 -15 4 C-12 3 -12 3 -8 3 C-5 3 -5 3 -2 3 C-1 2 -1 1 0 0 Z " fill="#8288E4" transform="translate(105,497)"/>
<path d="M0 0 C6 4 10 10 12 17 C13 25 11 33 7 40 C3 45 -1 48 -7 49 C-14 49 -18 47 -23 42 C-28 34 -28 27 -27 18 C-25 10 -22 6 -16 1 C-10 -1 -6 -2 0 0 Z " fill="#121214" transform="translate(292.125,136.0625)"/>
<path d="M0 0 C4 -1 4 -1 8 -0 C9 -1 11 -1 12 -1 C14 -0 15 -0 16 0 C17 1 17 3 18 4 C20 4 21 4 23 4 C25 4 26 4 28 4 C29 5 29 7 30 8 C32 8 34 8 36 8 C37 9 37 11 38 12 C40 12 42 12 44 12 C45 13 45 15 46 16 C47 16 48 17 49 17 C49 18 49 18 48 22 C47 22 47 22 46 22 C45 23 45 25 44 26 C42 26 40 26 38 26 C37 27 37 29 36 30 C34 30 32 30 30 30 C29 31 29 33 28 34 C24 35 24 35 18 34 C16 35 14 35 12 35 C11 34 10 34 8 34 C7 33 7 31 6 30 C5 29 3 29 2 28 C2 27 2 27 2 26 C0 26 -2 26 -4 26 C-5 25 -5 23 -6 22 C-7 21 -9 21 -10 20 C-10 19 -10 19 -10 18 C-11 18 -12 18 -13 18 C-13 13 -13 9 -13 4 C-11 4 -9 4 -8 4 C-6 4 -4 4 -2 4 C-1 3 -1 1 0 0 Z " fill="#7980E3" transform="translate(346,501)"/>
<path d="M0 0 C1 4 1 4 2 7 C3 7 3 7 4 7 C4 9 5 10 5 12 C7 16 8 18 11 22 C11 23 11 23 11 24 C12 24 13 25 14 25 C17 30 18 34 17 39 C11 48 2 54 -8 58 C-15 58 -15 58 -18 57 C-18 56 -18 56 -18 55 C-19 55 -19 54 -20 54 C-19 54 -19 54 -18 54 C-18 53 -17 52 -17 51 C-15 49 -15 49 -12 48 C-7 45 -3 41 0 36 C-1 36 -3 37 -4 37 C-11 37 -14 35 -19 31 C-23 27 -26 21 -28 16 C-26 11 -25 9 -20 6 C-16 5 -13 4 -9 3 C-5 0 -5 0 0 0 Z " fill="#C0C4D0" transform="translate(312,333)"/>
<path d="M0 0 C3 0 3 0 6 2 C14 6 14 6 19 5 C18 6 17 8 16 9 C8 21 5 32 7 46 C9 54 12 59 18 65 C20 67 20 67 20 71 C14 74 9 75 2 75 C1 75 -0 75 -1 75 C-5 76 -8 76 -11 75 C-14 70 -14 67 -13 61 C-13 60 -13 60 -11 58 C-9 53 -9 53 -10 48 C-10 45 -10 42 -11 39 C-11 37 -11 36 -11 34 C-11 30 -11 30 -9 26 C-8 26 -7 26 -6 26 C-6 25 -7 23 -7 22 C-8 16 -9 12 -6 6 C-4 4 -4 4 0 0 Z " fill="#C7CAD4" transform="translate(142,118)"/>
<path d="M0 0 C5 2 9 5 14 8 C14 9 14 11 14 12 C11 13 11 13 7 14 C-4 18 -4 18 -8 22 C-9 26 -9 29 -9 33 C-2 35 4 34 11 32 C11 33 11 33 11 34 C12 34 13 35 14 35 C15 37 16 38 17 40 C18 41 18 41 19 42 C16 45 9 43 6 43 C5 43 5 43 2 43 C-1 43 -4 43 -7 43 C-8 42 -8 40 -9 39 C-11 39 -13 39 -15 39 C-16 38 -16 36 -17 35 C-21 35 -21 35 -24 35 C-24 34 -24 33 -24 32 C-24 31 -24 31 -25 28 C-29 27 -32 27 -36 27 C-37 27 -38 27 -39 27 C-40 26 -40 24 -41 23 C-43 23 -45 23 -47 23 C-48 22 -48 20 -49 19 C-50 19 -51 18 -52 18 C-52 16 -51 15 -51 13 C-50 13 -50 13 -49 13 C-48 12 -48 10 -47 9 C-45 9 -43 9 -41 9 C-40 8 -40 6 -39 5 C-35 5 -31 4 -27 4 C-26 4 -25 4 -24 4 C-20 4 -20 4 -15 5 C-14 6 -14 8 -13 9 C-9 10 -9 10 -5 9 C-4 8 -4 6 -3 5 C-2 5 -2 4 -1 4 C-1 3 -0 1 0 0 Z " fill="#EBECF1" transform="translate(137,392)"/>
<path d="M0 0 C0 0 1 0 1 0 C1 1 2 3 2 4 C3 9 3 9 5 12 C6 17 6 21 7 25 C7 28 7 31 7 34 C8 34 8 35 9 35 C10 40 10 45 10 51 C10 52 10 52 10 56 C10 60 10 60 9 62 C8 62 8 62 4 62 C-7 61 -19 67 -29 72 C-33 73 -36 74 -40 74 C-41 73 -42 72 -43 71 C-44 71 -46 70 -47 70 C-49 71 -50 72 -52 73 C-53 73 -53 73 -54 73 C-55 71 -55 70 -56 68 C-55 67 -55 65 -54 64 C-51 65 -49 65 -46 66 C-37 67 -28 66 -20 61 C-11 52 -9 40 -10 28 C-11 16 -11 16 -14 11 C-14 10 -14 8 -14 7 C-5 3 -5 3 0 3 C0 2 0 1 0 0 Z " fill="#BDC0CD" transform="translate(323,123)"/>
<path d="M0 0 C4 -1 4 -1 8 -0 C9 -1 11 -1 12 -1 C14 -0 15 -0 16 0 C17 1 17 3 18 4 C19 4 20 4 21 4 C21 5 21 5 21 7 C21 8 21 8 22 11 C23 11 24 12 25 12 C25 17 25 17 25 22 C23 22 21 22 20 22 C18 22 16 22 14 22 C13 23 13 25 12 26 C8 26 5 26 1 26 C0 26 -1 26 -2 26 C-3 27 -3 29 -4 30 C-8 31 -8 31 -12 30 C-13 31 -15 31 -16 31 C-18 30 -19 30 -20 30 C-21 29 -21 27 -22 26 C-23 25 -25 25 -26 24 C-26 23 -26 23 -26 22 C-27 22 -28 22 -29 22 C-29 17 -29 13 -29 8 C-27 8 -24 8 -22 8 C-21 7 -21 5 -20 4 C-15 4 -11 4 -6 4 C-5 4 -3 4 -2 4 C-1 3 -1 1 0 0 Z " fill="#9599E6" transform="translate(54,465)"/>
<path d="M0 0 C2 2 2 2 4 5 C5 6 6 7 7 8 C7 9 7 9 8 11 C8 12 8 12 8 14 C9 14 10 15 11 15 C10 16 10 17 9 18 C8 18 6 18 5 18 C5 19 5 19 5 20 C3 22 1 23 -2 25 C-4 27 -4 27 -7 31 C-9 34 -9 34 -13 35 C-14 35 -15 35 -16 35 C-16 36 -17 37 -17 38 C-23 41 -27 40 -33 38 C-37 34 -38 30 -39 25 C-40 24 -40 23 -41 22 C-42 22 -42 21 -43 20 C-42 15 -42 15 -38 12 C-35 11 -35 11 -32 11 C-26 10 -21 8 -16 5 C-13 4 -9 3 -6 2 C-5 2 -4 1 -3 1 C-2 0 -2 0 0 0 Z " fill="#C0C4D0" transform="translate(337,216)"/>
<path d="M0 0 C4 -1 4 -1 9 -1 C10 -1 10 -1 14 -1 C16 -1 18 -1 20 -0 C21 -1 21 -1 26 -1 C27 -1 29 -1 31 -1 C32 -1 32 -1 36 -1 C37 -0 39 -0 40 0 C41 1 41 3 42 4 C43 4 44 4 45 4 C45 9 45 13 45 18 C44 18 43 18 42 18 C41 19 41 21 40 22 C39 22 39 22 38 22 C37 23 37 25 36 26 C32 27 32 27 28 26 C27 27 27 27 24 27 C22 26 21 26 20 26 C19 25 19 23 18 22 C15 22 15 22 11 22 C7 22 7 22 4 22 C3 21 3 19 2 18 C-4 18 -4 18 -9 18 C-9 15 -9 11 -9 8 C-8 8 -7 8 -6 8 C-5 7 -5 5 -4 4 C-3 4 -3 4 -2 4 C-1 3 -1 1 0 0 Z " fill="#858BE4" transform="translate(390,469)"/>
<path d="M0 0 C1 0 1 0 4 0 C4 0 4 0 7 0 C8 0 10 0 11 0 C14 1 17 2 20 4 C21 4 21 4 25 4 C26 4 27 5 29 5 C30 10 30 10 28 12 C28 13 27 14 27 15 C26 16 25 17 25 18 C23 20 21 22 20 25 C18 28 18 28 17 33 C10 35 7 35 -0 35 C-1 33 -2 31 -3 30 C-4 29 -5 29 -6 29 C-6 27 -6 25 -6 23 C-8 22 -10 22 -11 22 C-12 22 -12 23 -12 24 C-13 21 -14 19 -14 16 C-15 14 -15 13 -15 11 C-16 8 -16 8 -15 6 C-15 4 -15 2 -15 1 C-11 -1 -5 -0 0 0 Z " fill="#C0C4D0" transform="translate(155.25,247.25)"/>
<path d="M0 0 C0 0 1 0 1 0 C1 7 1 12 -2 18 C-2 19 -3 21 -3 22 C-5 26 -6 29 -9 32 C-12 32 -12 32 -15 30 C-16 27 -16 27 -16 24 C-17 24 -18 23 -19 23 C-22 28 -23 33 -25 38 C-25 39 -26 40 -26 41 C-27 41 -27 41 -31 42 C-33 40 -33 40 -34 36 C-34 35 -34 35 -36 33 C-38 29 -39 25 -40 21 C-41 19 -41 18 -41 17 C-42 13 -42 13 -42 10 C-41 10 -39 11 -38 11 C-27 12 -27 12 -22 8 C-21 7 -20 6 -19 5 C-17 2 -17 2 -12 1 C-10 1 -8 2 -6 2 C-4 2 -2 2 0 2 C0 1 0 1 0 0 Z " fill="#656B7C" transform="translate(371,323)"/>
<path d="M0 0 C4 -0 8 -1 12 -0 C13 -1 14 -1 15 -1 C19 -1 19 -1 24 0 C25 1 25 3 26 4 C28 4 30 4 32 4 C33 5 33 7 34 8 C35 8 36 9 37 9 C37 11 36 12 36 14 C35 14 35 14 34 14 C33 15 33 17 32 18 C29 18 25 18 22 18 C21 19 21 21 20 22 C16 23 16 23 12 22 C11 23 11 23 8 23 C6 22 5 22 4 22 C3 21 3 19 2 18 C-2 18 -2 18 -6 18 C-7 19 -7 21 -8 22 C-9 22 -9 22 -10 22 C-11 21 -11 20 -12 18 C-14 14 -17 12 -21 9 C-20 9 -19 8 -18 8 C-17 7 -17 5 -16 4 C-12 4 -9 4 -5 4 C-4 4 -3 4 -2 4 C-1 3 -1 1 0 0 Z " fill="#E8EAF0" transform="translate(342,397)"/>
<path d="M0 0 C3 1 3 1 6 4 C6 5 6 6 6 8 C7 11 7 11 11 14 C11 15 11 15 11 16 C12 16 13 16 14 16 C14 19 14 23 14 26 C7 26 0 26 -6 26 C-8 26 -10 26 -12 26 C-14 26 -16 26 -18 26 C-20 26 -21 26 -23 26 C-24 26 -24 26 -27 26 C-28 25 -28 23 -29 22 C-30 21 -32 21 -33 20 C-33 19 -33 19 -33 18 C-34 18 -35 17 -36 17 C-36 15 -35 14 -35 12 C-34 12 -34 12 -33 12 C-32 11 -32 9 -31 8 C-26 8 -22 8 -17 8 C-16 8 -14 8 -13 8 C-12 7 -12 5 -11 4 C-8 4 -5 3 -2 3 C-1 2 -1 1 0 0 Z " fill="#C9CCED" transform="translate(413,421)"/>
<path d="M0 0 C3 -1 3 -1 6 -0 C7 -1 7 -1 9 -1 C10 -0 11 -0 12 0 C13 1 13 3 14 4 C18 4 18 4 23 4 C28 4 28 4 32 4 C33 5 33 7 34 8 C35 8 36 9 37 9 C37 11 36 12 36 14 C35 14 35 14 34 14 C33 15 33 17 32 18 C31 18 31 18 30 18 C29 19 29 21 28 22 C27 23 26 25 25 26 C24 26 23 25 22 25 C22 25 22 25 21 23 C18 23 18 23 15 23 C14 23 14 23 11 23 C8 23 5 23 2 23 C1 23 -0 23 -1 23 C-3 23 -4 23 -5 23 C-6 22 -7 22 -8 22 C-9 21 -9 19 -10 18 C-11 18 -12 17 -13 17 C-13 15 -12 14 -12 12 C-11 12 -11 12 -10 12 C-9 11 -9 9 -8 8 C-7 8 -7 8 -6 8 C-5 7 -5 5 -4 4 C-3 4 -3 4 -2 4 C-1 3 -1 1 0 0 Z " fill="#B2B5EA" transform="translate(46,425)"/>
<path d="M0 0 C2 0 4 0 6 0 C10 4 9 11 9 17 C9 19 9 20 9 22 C8 22 7 22 6 22 C5 23 5 25 4 26 C-1 28 -7 28 -13 28 C-14 28 -16 28 -18 28 C-22 28 -22 28 -27 26 C-26 25 -26 23 -25 22 C-28 20 -31 19 -34 18 C-35 17 -37 17 -38 16 C-38 15 -39 13 -39 12 C-35 9 -34 8 -29 8 C-29 8 -29 8 -26 9 C-21 12 -17 11 -12 11 C-8 10 -8 10 -5 8 C-4 8 -2 8 -1 8 C-0 7 0 7 1 6 C2 7 4 7 5 8 C4 4 4 4 0 0 Z " fill="#6067DC" transform="translate(198,525)"/>
<path d="M0 0 C1 1 3 1 4 2 C4 3 4 3 4 4 C5 5 7 5 8 6 C8 7 8 7 8 8 C9 8 10 8 11 8 C11 13 11 17 11 22 C10 22 9 22 8 22 C7 23 7 25 6 26 C2 26 -1 26 -5 26 C-5 26 -5 26 -8 26 C-9 27 -9 29 -10 30 C-14 30 -18 31 -22 30 C-23 31 -24 31 -25 31 C-29 31 -29 31 -34 30 C-35 29 -35 27 -36 26 C-37 25 -39 25 -40 24 C-40 23 -40 23 -40 22 C-41 22 -42 22 -43 22 C-43 20 -43 17 -43 15 C-42 15 -41 16 -40 16 C-39 18 -39 20 -38 22 C-37 22 -37 22 -36 22 C-36 20 -37 17 -37 15 C-32 14 -30 14 -26 16 C-26 17 -26 17 -26 18 C-22 18 -19 18 -15 18 C-15 17 -15 17 -15 16 C-14 16 -13 16 -11 16 C-7 17 -7 17 -3 17 C-3 16 -3 16 -4 13 C-3 13 -2 12 -1 12 C0 11 1 11 2 10 C1 5 1 5 0 0 Z " fill="#888DE5" transform="translate(296,525)"/>
<path d="M0 0 C2 0 2 0 9 2 C11 2 12 2 14 2 C19 3 19 3 22 6 C28 14 28 14 28 19 C27 22 27 22 26 23 C26 24 26 26 26 27 C26 32 26 32 24 34 C23 32 23 31 22 29 C18 30 18 30 15 33 C14 33 14 33 11 34 C4 30 3 26 1 18 C0 12 -1 7 -1 1 C-1 1 -0 0 0 0 Z " fill="#63697B" transform="translate(90,322)"/>
<path d="M0 0 C0 1 1 2 1 3 C2 3 3 4 4 4 C5 6 7 8 8 10 C9 11 9 12 10 13 C10 19 10 23 8 28 C6 28 4 27 2 27 C-4 26 -10 26 -16 26 C-18 30 -20 34 -21 39 C-21 40 -22 40 -22 41 C-23 41 -23 41 -27 42 C-28 40 -28 40 -27 37 C-26 33 -24 30 -23 26 C-22 24 -22 22 -21 21 C-18 14 -13 8 -7 4 C-6 4 -6 4 -5 4 C-5 3 -5 3 -5 2 C-3 1 -2 1 0 0 Z " fill="#7E8398" transform="translate(347,232)"/>
<path d="M0 0 C3 0 3 0 6 2 C14 6 14 6 19 5 C18 6 17 8 16 9 C10 18 7 26 6 37 C4 37 3 37 1 37 C-5 37 -5 37 -8 40 C-9 40 -9 41 -10 42 C-11 30 -11 30 -9 26 C-8 26 -7 26 -6 26 C-6 25 -7 23 -7 22 C-8 16 -9 12 -6 6 C-4 4 -4 4 0 0 Z " fill="#BFC3CF" transform="translate(142,118)"/>
<path d="M0 0 C6 1 6 2 9 6 C11 9 13 11 16 13 C17 16 18 19 19 22 C19 25 20 28 21 31 C22 31 22 32 23 32 C23 33 23 33 23 34 C17 34 17 34 13 31 C13 30 13 29 13 28 C11 28 10 28 8 28 C3 27 3 27 0 24 C-1 21 -1 21 -1 17 C-2 17 -2 17 -2 14 C-8 12 -8 12 -13 14 C-16 12 -16 12 -17 8 C-17 7 -16 6 -16 5 C-11 5 -8 5 -3 6 C-2 4 -2 3 -1 1 C-1 1 -0 0 0 0 Z " fill="#797F93" transform="translate(123,240)"/>
<path d="M0 0 C5 4 9 6 12 12 C12 14 11 15 11 17 C5 21 -3 22 -10 20 C-14 19 -14 19 -19 17 C-20 16 -20 14 -21 13 C-16 5 -10 -3 0 0 Z " fill="#EDB423" transform="translate(237,175)"/>
<path d="M0 0 C3 3 5 6 6 11 C5 18 0 21 -4 25 C-12 30 -18 35 -28 34 C-29 34 -29 33 -30 33 C-30 32 -30 32 -30 31 C-31 31 -31 30 -32 30 C-31 30 -31 30 -30 30 C-30 29 -29 28 -29 27 C-26 25 -24 24 -21 22 C-16 19 -13 14 -9 10 C-8 9 -7 8 -6 7 C-4 5 -4 5 -2 1 C-1 1 -1 0 0 0 Z " fill="#B0B2B9" transform="translate(324,357)"/>
<path d="M0 0 C1 1 1 1 1 7 C1 8 0 8 0 9 C-4 9 -8 9 -13 9 C-14 9 -15 9 -16 9 C-19 9 -22 9 -25 9 C-25 8 -25 8 -25 7 C-36 7 -47 7 -59 7 C-59 6 -59 5 -59 4 C-60 4 -60 4 -61 4 C-61 5 -61 6 -61 7 C-61 8 -62 9 -62 10 C-66 12 -66 12 -71 12 C-73 9 -72 6 -72 3 C-71 2 -71 2 -70 1 C-66 1 -63 1 -59 1 C-57 1 -55 2 -52 2 C-52 2 -52 2 -49 2 C-37 2 -24 2 -12 0 C-8 0 -4 -0 0 0 Z " fill="#EBECF0" transform="translate(266,413)"/>
<path d="M0 0 C1 0 1 0 4 2 C6 2 7 2 9 2 C9 2 10 1 10 1 C13 1 17 0 20 0 C20 11 16 22 10 31 C8 32 7 32 5 33 C4 32 2 32 1 31 C-0 24 -1 16 1 9 C2 5 1 3 0 0 Z " fill="#767A83" transform="translate(115,333)"/>
<path d="M0 0 C13 13 17 39 18 56 C18 63 19 69 21 76 C22 83 22 89 22 96 C22 96 22 96 21 94 C20 94 19 94 18 94 C17 90 17 86 17 82 C17 77 16 72 14 67 C14 65 14 62 14 60 C13 53 12 47 9 41 C7 35 6 29 5 23 C4 19 4 19 2 16 C0 11 -2 5 0 0 Z " fill="#CDCFDF" transform="translate(315,88)"/>
<path d="M0 0 C1 1 1 1 2 2 C1 2 0 3 -1 3 C-1 5 -2 6 -2 8 C-1 8 -0 9 1 9 C1 12 1 12 1 16 C0 17 -0 17 -1 18 C-2 18 -4 18 -5 18 C-5 17 -5 16 -5 15 C-6 15 -8 16 -9 16 C-9 15 -9 15 -9 14 C-10 14 -11 14 -12 14 C-13 13 -14 13 -15 13 C-15 12 -16 11 -16 10 C-19 9 -19 9 -24 8 C-28 7 -32 6 -36 4 C-24 -2 -12 -7 0 0 Z " fill="#565DDB" transform="translate(117,505)"/>
<path d="M0 0 C3 -0 7 -0 10 -0 C11 -0 11 -0 16 -0 C23 0 23 0 27 3 C29 6 29 6 29 10 C26 14 22 17 17 19 C13 19 9 19 5 18 C5 17 5 15 5 14 C4 13 2 13 1 12 C1 11 2 10 2 9 C2 8 2 7 2 6 C1 6 1 5 0 5 C1 5 2 5 3 5 C2 3 1 2 0 0 Z " fill="#C4C8ED" transform="translate(97,401)"/>
<path d="M0 0 C2 0 3 1 5 2 C10 3 14 3 19 3 C20 3 20 3 24 5 C27 5 30 6 33 6 C37 7 42 9 46 10 C46 10 46 11 46 11 C25 11 4 11 -18 11 C-18 10 -18 10 -18 9 C-7 0 -7 0 0 0 Z " fill="#EBECF1" transform="translate(178,424)"/>
<path d="M0 0 C1 1 1 3 2 4 C-3 9 -8 12 -16 12 C-20 12 -25 11 -29 10 C-30 9 -30 8 -31 7 C-32 7 -33 6 -34 6 C-34 1 -34 1 -32 -1 C-23 -3 -8 -6 0 0 Z " fill="#BBBDEB" transform="translate(370,404)"/>
<path d="M0 0 C4 -0 8 -1 12 -0 C13 -1 14 -1 15 -1 C19 -1 19 -1 24 0 C25 1 25 3 26 4 C27 4 28 5 29 5 C28 5 27 6 26 6 C25 6 24 5 23 5 C19 3 17 3 12 3 C11 3 10 3 9 3 C5 3 2 3 -1 4 C-1 5 -1 5 -1 6 C4 7 10 7 15 7 C21 7 21 7 26 10 C26 11 26 11 26 12 C21 16 17 16 10 16 C9 16 8 15 7 15 C5 15 3 15 0 15 C-1 15 -2 15 -3 15 C-4 15 -5 15 -6 15 C-6 16 -6 16 -6 17 C-8 17 -9 18 -11 18 C-11 17 -11 16 -11 15 C-10 15 -9 14 -8 14 C-7 11 -7 11 -7 8 C-8 8 -8 8 -11 10 C-11 10 -11 10 -13 11 C-13 9 -13 6 -13 4 C-11 4 -9 4 -8 4 C-6 4 -4 4 -2 4 C-1 3 -1 1 0 0 Z " fill="#8288E1" transform="translate(266,517)"/>
<path d="M0 0 C3 -1 3 -1 6 -0 C7 -1 7 -1 9 -1 C10 -0 11 -0 12 0 C13 1 13 3 14 4 C13 4 11 4 10 4 C3 4 0 5 -5 9 C-6 13 -6 13 -6 16 C-4 18 -4 18 0 18 C5 18 5 18 8 17 C13 17 13 17 17 17 C18 18 18 18 19 19 C21 20 23 20 25 21 C25 20 25 20 25 19 C26 19 26 19 27 19 C27 19 27 19 28 16 C29 16 29 16 30 16 C30 15 30 15 30 14 C31 14 31 14 32 14 C30 9 30 9 28 8 C28 7 28 5 28 4 C29 4 29 4 33 5 C33 5 33 5 34 8 C35 8 36 9 37 9 C37 11 36 12 36 14 C35 14 35 14 34 14 C33 15 33 17 32 18 C31 18 31 18 30 18 C29 19 29 21 28 22 C27 23 26 25 25 26 C24 26 23 25 22 25 C22 25 22 25 21 23 C18 23 18 23 15 23 C14 23 14 23 11 23 C8 23 5 23 2 23 C1 23 -0 23 -1 23 C-3 23 -4 23 -5 23 C-6 22 -7 22 -8 22 C-9 21 -9 19 -10 18 C-11 18 -12 17 -13 17 C-13 15 -12 14 -12 12 C-11 12 -11 12 -10 12 C-9 11 -9 9 -8 8 C-7 8 -7 8 -6 8 C-5 7 -5 5 -4 4 C-3 4 -3 4 -2 4 C-1 3 -1 1 0 0 Z " fill="#D5D7EE" transform="translate(46,425)"/>
<path d="M0 0 C6 3 10 7 15 11 C23 17 23 17 25 18 C26 20 26 21 27 23 C22 26 22 26 19 26 C11 23 3 18 -3 11 C-4 7 -4 7 -3 4 C-2 3 -1 1 0 0 Z " fill="#B1B3BA" transform="translate(136,364)"/>
<path d="M0 0 C0 1 0 3 0 4 C-1 4 -3 3 -4 2 C-9 1 -9 1 -13 1 C-14 1 -15 1 -16 1 C-17 0 -18 -1 -19 -2 C-24 -4 -28 -4 -33 -2 C-36 -2 -39 -2 -42 -2 C-42 -2 -42 -2 -46 -1 C-48 -2 -49 -2 -50 -2 C-50 -3 -50 -3 -51 -7 C-53 -7 -55 -7 -57 -7 C-57 -6 -57 -6 -57 -5 C-58 -5 -59 -5 -60 -5 C-60 -6 -60 -6 -60 -7 C-61 -7 -61 -8 -62 -8 C-46 -16 -15 -9 0 0 Z " fill="#D2D4E9" transform="translate(276,48)"/>
<path d="M0 0 C4 -1 4 -1 8 -0 C9 -1 11 -1 12 -1 C14 -0 15 -0 16 0 C17 1 17 3 18 4 C21 4 21 4 26 4 C27 4 28 4 30 4 C30 4 30 4 33 4 C33 5 33 5 33 7 C34 9 34 10 34 11 C35 12 36 12 37 13 C37 15 36 16 36 18 C35 18 33 19 32 19 C32 18 32 16 32 15 C31 10 31 10 30 9 C22 8 17 8 9 10 C5 10 1 10 -3 9 C-8 9 -10 9 -14 12 C-13 11 -13 9 -12 8 C-11 8 -11 8 -10 8 C-9 7 -9 5 -8 4 C-6 4 -4 4 -2 4 C-1 3 -1 1 0 0 Z " fill="#A0A5E7" transform="translate(174,517)"/>
<path d="M0 0 C1 0 1 0 2 0 C2 1 2 2 2 3 C1 4 1 4 0 5 C1 5 1 6 2 6 C2 5 2 5 2 4 C3 4 3 4 4 4 C4 5 3 6 3 7 C2 10 2 10 2 12 C4 12 5 13 7 13 C12 15 12 15 16 19 C15 20 15 20 14 21 C19 23 22 23 27 23 C28 23 28 23 32 23 C37 23 37 23 42 22 C41 23 41 25 40 26 C37 27 37 27 33 27 C31 27 30 27 29 27 C27 27 26 27 24 26 C22 27 21 27 19 27 C18 27 17 27 15 27 C14 27 14 27 11 27 C10 26 9 26 8 26 C7 25 7 23 6 22 C4 22 2 22 0 22 C-1 21 -1 19 -2 18 C-3 18 -4 18 -5 18 C-5 13 -5 9 -5 4 C-4 4 -3 4 -2 4 C-1 3 -1 1 0 0 Z " fill="#9598E3" transform="translate(158,529)"/>
<path d="M0 0 C1 0 2 0 3 0 C3 1 3 1 3 2 C4 2 5 2 6 2 C6 5 6 9 6 12 C7 12 7 12 8 12 C8 16 8 19 8 23 C7 24 7 24 6 25 C5 25 4 25 3 25 C2 28 2 28 1 33 C2 36 4 38 5 41 C4 42 4 44 3 45 C2 45 2 45 -1 46 C-1 50 -1 50 -1 55 C-1 56 -2 57 -2 58 C-3 58 -4 58 -5 58 C-5 59 -5 59 -5 60 C-6 60 -6 60 -7 60 C-6 53 -5 47 -3 40 C-1 31 -1 22 -0 13 C-0 12 -0 11 -0 9 C-0 6 -0 3 0 0 Z " fill="#D2D4E9" transform="translate(150,288)"/>
<path d="M0 0 C0 1 1 1 1 2 C3 2 4 3 6 3 C6 3 7 4 7 4 C8 4 8 4 11 5 C16 6 16 6 18 9 C18 13 18 13 18 17 C17 18 15 20 14 21 C10 19 7 17 3 15 C-1 14 -1 14 -4 14 C-5 15 -5 15 -6 16 C-6 12 -7 7 -6 3 C-3 1 -3 1 0 0 Z " fill="#C1C5D1" transform="translate(154,331)"/>
<path d="M0 0 C0 1 0 1 0 2 C2 2 4 2 6 2 C7 3 7 3 8 4 C8 5 7 7 7 8 C7 9 7 10 7 11 C3 14 -1 16 -6 17 C-7 17 -7 17 -11 15 C-11 14 -11 14 -12 10 C-13 10 -15 9 -16 9 C-14 2 -14 2 -11 0 C-7 -1 -4 -1 0 0 Z " fill="#C2C5D1" transform="translate(216,41)"/>
<path d="M0 0 C3 2 3 2 5 5 C3 9 1 12 -1 15 C-4 19 -4 23 -4 28 C-4 27 -5 27 -5 26 C-6 26 -8 25 -9 25 C-9 23 -9 22 -9 20 C-13 18 -16 18 -21 18 C-20 13 -20 13 -17 11 C-15 11 -13 11 -11 11 C-9 8 -7 6 -5 3 C-3 2 -2 1 0 0 Z " fill="#D2D4E9" transform="translate(208,170)"/>
<path d="M0 0 C4 -0 4 -0 9 -0 C10 -0 10 -0 14 -0 C15 -0 17 -0 18 0 C18 1 18 3 18 4 C12 4 6 5 0 5 C1 6 1 8 2 9 C2 12 2 14 2 17 C3 17 3 18 4 18 C4 19 4 21 4 22 C2 22 1 21 -1 21 C-1 20 -2 19 -2 18 C-4 18 -6 18 -8 18 C-9 17 -9 15 -10 14 C-11 14 -12 13 -13 13 C-13 11 -12 10 -12 8 C-11 8 -11 8 -10 8 C-9 7 -9 5 -8 4 C-6 4 -4 4 -2 4 C-1 3 -1 1 0 0 Z " fill="#DDDEEC" transform="translate(98,397)"/>
<path d="M0 0 C4 5 6 7 6 13 C2 16 -0 15 -5 15 C-6 15 -6 15 -9 15 C-13 15 -13 15 -17 13 C-15 13 -14 12 -12 12 C-12 11 -12 11 -12 10 C-13 10 -13 9 -14 9 C-13 8 -13 6 -12 5 C-13 4 -13 2 -14 1 C-8 -1 -6 -1 0 0 Z " fill="#A3AAE8" transform="translate(416,428)"/>
<path d="M0 0 C1 1 3 2 4 3 C9 7 11 7 17 6 C16 7 16 9 15 10 C12 10 12 10 8 10 C8 10 8 10 5 10 C3 10 2 10 0 10 C-0 10 -0 10 -4 10 C-7 10 -11 10 -14 10 C-14 9 -14 9 -14 8 C-16 8 -18 8 -19 8 C-25 7 -25 7 -28 4 C-23 2 -20 2 -14 2 C-4 -1 -4 -1 0 0 Z " fill="#EBECF1" transform="translate(291,425)"/>
<path d="M0 0 C1 0 2 0 3 0 C5 3 4 6 4 10 C5 18 5 18 6 21 C6 24 6 24 4 28 C1 34 1 35 2 41 C2 42 3 43 3 44 C0 44 -2 45 -5 45 C-4 35 -3 25 -2 15 C-2 13 -2 12 -1 10 C-1 7 -0 3 0 0 Z " fill="#D2D4E9" transform="translate(128,148)"/>
<path d="M0 0 C4 4 4 4 4 8 C4 12 4 12 0 16 C-5 17 -7 17 -11 14 C-13 10 -14 8 -14 4 C-10 -0 -6 -1 0 0 Z " fill="#C1C5D1" transform="translate(192,292)"/>
<path d="M0 0 C4 -1 4 -1 9 -1 C10 -1 10 -1 14 -1 C16 -1 18 -1 20 -0 C21 -1 21 -1 26 -1 C27 -1 29 -1 31 -1 C32 -1 32 -1 36 -1 C37 -0 39 -0 40 0 C41 1 41 3 42 4 C43 4 44 4 45 4 C45 5 45 7 45 8 C40 7 40 7 36 4 C30 4 30 4 26 5 C25 5 23 4 22 4 C18 4 15 4 11 4 C10 4 8 4 6 4 C1 4 1 4 -2 7 C-3 7 -3 7 -4 7 C-4 11 -4 14 -3 18 C-5 18 -7 18 -9 18 C-9 15 -9 11 -9 8 C-8 8 -7 8 -6 8 C-5 7 -5 5 -4 4 C-3 4 -3 4 -2 4 C-1 3 -1 1 0 0 Z " fill="#C9CBEC" transform="translate(390,469)"/>
<path d="M0 0 C0 0 0 0 3 3 C3 10 3 10 0 13 C-6 15 -11 15 -17 15 C-18 15 -20 15 -22 15 C-26 15 -26 15 -31 13 C-28 9 -28 9 -24 8 C-20 8 -16 8 -13 8 C-8 7 -5 6 -1 2 C-1 1 -0 1 0 0 Z " fill="#4B52D7" transform="translate(202,538)"/>
<path d="M0 0 C0 1 1 2 1 3 C3 4 5 4 7 5 C10 8 11 10 13 14 C14 14 14 15 15 15 C15 16 15 17 15 18 C20 21 20 21 26 20 C28 20 29 21 31 21 C34 21 34 21 37 20 C36 21 36 23 35 24 C30 25 30 25 25 24 C23 25 21 25 20 25 C18 24 17 24 15 24 C14 23 14 21 13 20 C12 19 10 19 9 18 C9 17 9 17 9 16 C7 16 5 16 3 16 C2 15 2 13 1 12 C-0 11 -2 11 -3 10 C-3 9 -3 9 -3 8 C-4 8 -5 8 -6 8 C-6 7 -6 6 -6 5 C-5 5 -3 6 -2 6 C-1 4 -1 2 0 0 Z " fill="#9EA3E4" transform="translate(339,511)"/>
<path d="M0 0 C5 3 5 3 8 8 C8 10 7 11 7 13 C3 15 0 16 -5 16 C-12 13 -12 13 -13 10 C-13 4 -13 4 -12 3 C-9 3 -6 3 -3 3 C-2 3 -1 2 0 2 C0 1 0 1 0 0 Z " fill="#EA9E13" transform="translate(241,179)"/>
<path d="M0 0 C1 0 1 0 2 0 C2 2 2 3 2 5 C1 5 0 5 -1 5 C-2 6 -2 8 -3 9 C-4 9 -4 9 -5 9 C-6 10 -6 12 -7 13 C-11 14 -11 14 -15 14 C-16 14 -16 14 -19 14 C-21 13 -22 13 -23 13 C-24 12 -24 10 -25 9 C-28 9 -28 9 -32 9 C-34 9 -37 9 -39 9 C-40 8 -40 8 -41 7 C-41 6 -41 5 -41 4 C-40 4 -39 4 -38 5 C-37 5 -36 5 -35 5 C-35 5 -34 4 -34 4 C-29 4 -27 4 -23 6 C-16 6 -10 6 -4 4 C-3 3 -1 1 0 0 Z " fill="#B5B8EA" transform="translate(433,482)"/>
<path d="M0 0 C-0 2 -1 4 -1 6 C-2 6 -4 6 -5 6 C-6 6 -6 6 -10 6 C-11 7 -11 9 -12 10 C-14 10 -17 11 -19 11 C-20 12 -20 14 -21 15 C-21 15 -21 15 -23 16 C-24 16 -24 15 -25 15 C-25 16 -25 16 -27 20 C-30 23 -30 23 -34 26 C-35 27 -36 28 -38 29 C-39 30 -40 30 -41 31 C-42 31 -43 30 -44 30 C-43 29 -42 28 -41 27 C-39 25 -38 22 -36 20 C-28 11 -12 0 0 0 Z " fill="#D2D4E9" transform="translate(202,43)"/>
<path d="M0 0 C4 -0 4 -0 9 0 C10 1 10 3 11 4 C13 4 15 4 17 4 C18 5 18 7 19 8 C20 8 21 9 22 9 C22 11 21 12 21 14 C20 14 20 14 19 14 C18 15 18 17 17 18 C15 19 13 20 11 21 C11 22 10 22 10 23 C9 23 8 23 7 23 C7 22 8 21 8 20 C8 16 8 16 8 13 C7 13 7 12 6 12 C6 7 6 7 8 5 C7 4 5 4 4 3 C3 2 1 2 0 1 C0 1 0 0 0 0 Z " fill="#888DE1" transform="translate(109,501)"/>
<path d="M0 0 C1 0 1 0 2 0 C2 4 2 4 2 9 C0 9 -1 10 -3 10 C-3 9 -3 9 -4 5 C-3 5 -2 4 -1 4 C-1 3 -0 1 0 0 Z " fill="#EBECF1" transform="translate(45,393)"/>
</svg>
