<?xml version="1.0" encoding="UTF-8"?>
<!-- Generator: visioncortex VTracer 0.6.12 -->
<svg version="1.1" xmlns="http://www.w3.org/2000/svg" width="708" height="576">
<path d="M0 0 C4 -0 8 -1 12 -1 C13 -1 14 -1 15 -1 C17 -1 20 -1 22 -1 C26 -1 30 -1 33 -1 C36 -1 38 -1 40 -1 C41 -1 41 -1 44 -1 C47 -1 47 -1 52 0 C53 1 53 3 54 4 C57 4 57 4 61 4 C65 4 65 4 68 4 C69 5 69 7 70 8 C72 8 73 8 75 8 C77 8 78 8 80 8 C81 9 81 11 82 12 C84 12 86 12 88 12 C89 13 89 15 90 16 C92 16 94 16 96 16 C97 17 97 19 98 20 C99 20 99 20 102 22 C102 23 102 23 102 24 C104 24 106 24 108 24 C109 25 109 27 110 28 C111 28 111 28 114 30 C114 31 114 31 114 32 C115 33 117 33 118 34 C118 35 118 35 118 36 C119 37 121 37 122 38 C122 39 122 39 122 40 C123 41 125 41 126 42 C126 43 126 43 126 44 C127 44 128 44 129 44 C129 45 129 46 129 47 C130 51 130 51 134 54 C134 55 134 55 134 56 C135 56 136 56 137 56 C137 57 137 58 137 59 C138 63 138 63 142 66 C142 67 142 67 142 68 C143 68 144 68 145 68 C145 70 145 72 145 73 C146 75 146 77 146 79 C147 79 148 80 149 80 C149 82 150 85 150 87 C151 87 152 88 153 88 C153 92 154 96 154 100 C154 101 154 102 154 103 C155 103 156 104 157 104 C157 108 158 112 158 116 C158 117 158 118 158 119 C159 119 160 120 161 120 C161 125 161 130 162 135 C162 138 162 140 162 143 C163 143 164 144 165 144 C165 147 165 147 165 152 C165 153 165 155 165 156 C165 160 166 163 166 167 C166 168 166 170 166 171 C166 173 166 174 166 176 C166 177 166 178 166 179 C167 179 168 180 169 180 C169 185 169 190 170 195 C170 198 170 200 170 203 C171 203 172 204 173 204 C173 208 174 211 174 215 C175 215 176 216 177 216 C177 220 178 223 178 227 C179 227 180 228 181 228 C181 230 181 232 181 233 C182 235 182 237 182 239 C183 240 185 241 186 242 C186 243 186 243 186 244 C187 244 188 244 189 244 C189 245 189 246 189 247 C190 251 190 251 194 254 C194 255 194 255 194 256 C195 256 196 256 197 256 C197 257 197 258 197 259 C197 260 197 260 198 263 C199 263 200 264 201 264 C201 266 202 269 202 271 C203 271 204 272 205 272 C205 274 206 277 206 279 C207 279 208 280 209 280 C209 284 210 287 210 291 C211 291 212 292 213 292 C213 294 213 296 213 297 C214 299 214 301 214 303 C215 303 215 303 218 306 C218 307 218 307 218 308 C221 308 223 308 226 308 C227 308 229 308 230 308 C232 307 233 307 234 307 C235 306 235 305 236 304 C238 304 239 305 241 305 C241 306 242 306 242 307 C245 307 248 307 251 307 C252 307 254 307 256 308 C258 308 260 308 262 308 C263 308 265 308 267 308 C272 308 276 308 281 308 C281 309 281 309 281 311 C282 313 282 314 282 315 C283 315 284 316 285 316 C285 319 285 319 285 323 C285 324 285 325 285 327 C285 329 285 330 285 332 C285 333 285 335 285 337 C285 342 286 348 286 354 C286 357 286 361 286 365 C286 374 286 383 286 392 C286 403 286 413 286 423 C286 444 286 466 286 487 C290 487 294 487 298 487 C298 477 298 467 298 456 C298 453 298 449 298 446 C298 441 298 436 298 431 C298 429 298 428 298 426 C298 425 298 425 298 422 C298 420 298 419 298 418 C298 417 298 416 298 415 C297 415 296 414 295 414 C295 411 295 411 295 406 C295 405 295 403 295 402 C295 401 295 401 295 397 C295 395 295 394 295 392 C295 391 295 389 295 388 C295 386 295 385 295 383 C295 382 295 381 295 380 C296 380 297 379 298 379 C298 376 298 376 298 372 C298 370 298 369 298 367 C298 365 298 364 298 362 C298 361 298 361 298 356 C298 351 299 346 299 341 C299 336 299 331 299 325 C299 315 299 306 299 296 C299 284 299 273 299 262 C299 238 299 215 299 192 C300 192 301 192 302 192 C303 191 303 189 304 188 C305 188 305 188 306 188 C307 187 307 185 308 184 C311 183 311 183 315 183 C316 183 318 183 319 183 C321 183 322 183 324 183 C325 183 327 183 329 183 C332 183 335 183 339 183 C344 183 349 183 354 183 C358 183 361 183 364 183 C366 183 367 183 369 183 C370 183 370 183 373 183 C374 183 376 183 377 183 C378 184 379 184 380 184 C381 185 381 187 382 188 C384 188 386 188 388 188 C389 189 389 191 390 192 C391 192 392 192 393 192 C393 289 394 387 394 487 C401 487 409 488 416 488 C417 489 417 491 418 492 C419 492 420 493 421 493 C421 495 420 496 420 498 C419 498 419 498 418 498 C417 499 417 501 416 502 C413 502 413 502 409 502 C407 503 406 503 404 503 C403 503 401 502 399 502 C398 502 398 502 394 502 C389 503 384 502 379 502 C374 502 369 502 364 502 C351 503 338 503 325 502 C311 502 297 502 283 503 C278 503 273 503 268 503 C262 502 256 503 251 503 C249 503 247 502 246 502 C244 502 243 502 241 503 C240 503 238 503 237 503 C236 503 236 503 234 503 C234 504 233 506 233 507 C237 507 241 508 245 508 C245 509 245 509 245 510 C243 510 241 510 239 510 C237 510 234 510 232 510 C231 510 231 510 228 510 C227 510 227 510 224 510 C224 510 224 510 221 510 C220 510 219 510 218 510 C217 511 217 513 216 514 C211 514 207 514 202 514 C201 514 201 514 198 514 C197 515 197 517 196 518 C193 518 193 518 189 518 C188 518 187 518 185 518 C182 518 180 518 177 518 C175 518 174 518 173 518 C172 518 172 518 169 518 C168 518 167 518 166 518 C165 519 165 521 164 522 C160 522 156 522 152 522 C151 522 150 522 148 522 C143 522 138 522 133 522 C129 522 126 522 122 522 C121 522 120 522 118 522 C115 522 115 522 110 522 C109 523 109 525 108 526 C104 526 100 527 96 527 C94 527 93 527 92 527 C88 527 83 527 79 527 C76 527 73 527 70 527 C64 527 58 527 52 527 C44 526 36 527 28 527 C22 527 15 527 9 527 C6 527 4 527 1 527 C-3 527 -8 527 -12 527 C-13 527 -14 527 -15 527 C-19 527 -19 527 -24 526 C-25 525 -25 523 -26 522 C-30 522 -34 522 -39 522 C-40 522 -41 522 -43 522 C-47 522 -51 522 -55 522 C-60 522 -66 522 -71 522 C-72 522 -72 522 -75 522 C-78 522 -81 522 -84 522 C-85 521 -85 519 -86 518 C-90 518 -90 518 -96 518 C-97 518 -97 518 -99 518 C-103 518 -106 518 -109 518 C-113 518 -118 518 -122 518 C-124 518 -126 518 -128 518 C-129 518 -130 518 -132 518 C-133 517 -133 515 -134 514 C-137 514 -137 514 -141 514 C-145 514 -145 514 -148 514 C-149 513 -149 511 -150 510 C-152 510 -153 510 -155 510 C-157 510 -158 510 -160 510 C-161 509 -161 507 -162 506 C-164 506 -166 506 -168 506 C-168 504 -169 503 -169 501 C-169 501 -168 500 -168 500 C-166 500 -164 500 -162 500 C-161 499 -161 497 -160 496 C-158 496 -156 496 -154 496 C-153 495 -153 493 -152 492 C-148 492 -148 492 -144 492 C-143 492 -143 492 -138 492 C-135 492 -131 492 -128 492 C-127 492 -127 492 -122 492 C-121 492 -119 492 -118 492 C-116 492 -115 492 -114 492 C-113 491 -113 489 -112 488 C-109 488 -109 488 -106 487 C-104 487 -103 487 -102 487 C-100 487 -99 487 -98 487 C-95 487 -92 487 -89 487 C-88 487 -87 487 -86 487 C-85 487 -84 487 -83 487 C-82 486 -82 485 -81 484 C-78 485 -78 485 -77 487 C-73 487 -70 487 -66 487 C-66 486 -66 484 -66 483 C-68 482 -71 482 -73 481 C-73 480 -74 479 -74 478 C-75 478 -75 478 -79 478 C-81 478 -82 478 -84 478 C-85 477 -85 475 -86 474 C-88 474 -89 474 -91 474 C-93 474 -94 474 -96 474 C-97 473 -97 471 -98 470 C-100 470 -102 470 -104 470 C-105 469 -105 467 -106 466 C-108 466 -110 466 -112 466 C-112 466 -112 466 -114 463 C-115 463 -117 463 -118 463 C-119 464 -119 465 -120 466 C-122 466 -124 466 -126 466 C-127 467 -127 469 -128 470 C-130 470 -132 470 -134 470 C-135 471 -135 473 -136 474 C-140 474 -143 474 -147 474 C-148 474 -149 474 -150 474 C-151 475 -151 477 -152 478 C-156 478 -160 479 -164 478 C-165 479 -166 479 -167 479 C-171 479 -171 479 -176 478 C-176 477 -176 477 -178 474 C-179 473 -181 473 -182 472 C-182 471 -182 471 -182 470 C-186 470 -186 470 -190 470 C-191 471 -191 473 -192 474 C-195 475 -195 475 -199 475 C-201 475 -202 475 -203 475 C-205 475 -206 475 -208 474 C-210 475 -211 475 -213 475 C-214 475 -215 475 -217 475 C-218 475 -218 475 -221 475 C-222 474 -223 474 -224 474 C-225 473 -225 471 -226 470 C-230 470 -230 470 -233 470 C-233 469 -233 468 -233 467 C-234 465 -234 464 -234 463 C-235 462 -236 462 -237 461 C-237 459 -236 458 -236 456 C-235 456 -235 456 -234 456 C-234 455 -234 455 -232 452 C-231 452 -231 452 -230 452 C-230 451 -230 451 -228 448 C-227 448 -227 447 -226 447 C-226 443 -225 440 -225 436 C-224 436 -223 436 -222 436 C-222 435 -222 435 -220 432 C-219 432 -219 432 -218 432 C-218 431 -218 431 -216 428 C-215 428 -215 428 -214 428 C-214 427 -214 427 -212 424 C-211 424 -211 424 -210 424 C-210 423 -210 423 -208 420 C-207 420 -207 420 -206 420 C-206 419 -206 419 -204 416 C-203 416 -203 416 -202 416 C-201 415 -201 413 -200 412 C-199 412 -199 411 -198 411 C-198 408 -198 404 -198 401 C-198 399 -198 397 -198 395 C-198 394 -198 393 -198 391 C-199 391 -200 390 -201 390 C-201 386 -201 382 -201 378 C-201 377 -201 376 -201 375 C-201 372 -201 369 -201 367 C-201 363 -201 359 -201 355 C-201 353 -201 350 -201 348 C-201 347 -201 346 -201 344 C-201 342 -201 339 -201 336 C-200 336 -199 335 -198 335 C-198 332 -198 332 -198 328 C-197 323 -197 323 -197 320 C-196 320 -195 319 -194 319 C-194 318 -194 317 -194 316 C-193 314 -193 313 -193 312 C-192 312 -191 311 -190 311 C-190 309 -190 307 -190 306 C-189 304 -189 302 -189 300 C-188 300 -187 299 -186 299 C-186 298 -186 297 -186 296 C-185 294 -185 293 -185 292 C-184 292 -183 291 -182 291 C-181 287 -181 287 -181 284 C-180 284 -179 284 -178 284 C-177 283 -177 281 -176 280 C-175 280 -175 279 -174 279 C-174 277 -173 274 -173 272 C-172 272 -171 272 -170 272 C-169 271 -169 269 -168 268 C-167 268 -167 267 -166 267 C-166 265 -165 262 -165 260 C-164 260 -163 260 -162 260 C-161 259 -161 257 -160 256 C-159 256 -159 256 -158 256 C-157 255 -157 253 -156 252 C-155 252 -155 252 -154 252 C-153 251 -153 249 -152 248 C-151 248 -151 248 -150 248 C-149 247 -149 245 -148 244 C-147 244 -147 243 -146 243 C-146 242 -146 241 -146 240 C-145 239 -145 239 -145 236 C-144 236 -143 235 -142 235 C-142 234 -142 233 -142 232 C-141 230 -141 229 -141 228 C-140 228 -139 227 -138 227 C-138 226 -138 225 -138 224 C-137 222 -137 221 -137 220 C-136 220 -135 219 -134 219 C-134 218 -134 217 -134 216 C-133 214 -133 213 -133 212 C-132 212 -131 211 -130 211 C-130 208 -130 208 -130 204 C-129 199 -129 199 -129 196 C-128 196 -127 195 -126 195 C-126 193 -126 191 -126 190 C-125 188 -125 186 -125 184 C-124 184 -123 183 -122 183 C-122 179 -122 179 -122 174 C-121 168 -121 168 -121 164 C-120 164 -119 163 -118 163 C-118 159 -118 159 -118 154 C-117 148 -117 148 -117 144 C-116 144 -115 143 -114 143 C-114 139 -114 139 -114 134 C-113 128 -113 128 -113 124 C-112 124 -111 123 -110 123 C-110 120 -110 120 -110 116 C-109 111 -109 111 -109 108 C-108 108 -107 107 -106 107 C-106 105 -106 103 -106 102 C-105 100 -105 98 -105 96 C-104 96 -103 95 -102 95 C-102 94 -102 93 -102 92 C-101 90 -101 89 -101 88 C-100 88 -99 87 -98 87 C-98 85 -98 83 -98 82 C-97 80 -97 78 -97 76 C-96 76 -95 75 -94 75 C-93 71 -93 71 -93 68 C-92 68 -91 68 -90 68 C-90 67 -90 67 -88 64 C-87 64 -87 63 -86 63 C-86 61 -85 58 -85 56 C-84 56 -83 56 -82 56 C-81 55 -81 53 -80 52 C-79 52 -79 52 -78 52 C-77 51 -77 49 -76 48 C-75 48 -75 48 -74 48 C-73 47 -73 45 -72 44 C-71 44 -71 44 -70 44 C-69 43 -69 41 -68 40 C-67 40 -67 39 -66 39 C-66 37 -65 34 -65 32 C-64 32 -63 32 -62 32 C-60 32 -59 32 -58 32 C-57 31 -57 29 -56 28 C-55 28 -55 28 -54 28 C-53 27 -53 25 -52 24 C-51 24 -51 24 -50 24 C-49 23 -49 21 -48 20 C-46 20 -44 20 -42 20 C-41 19 -41 17 -40 16 C-38 16 -36 16 -34 16 C-33 15 -33 13 -32 12 C-31 12 -31 12 -30 12 C-29 11 -29 9 -28 8 C-25 8 -21 8 -18 8 C-17 7 -17 5 -16 4 C-12 4 -9 4 -5 4 C-4 4 -3 4 -2 4 C-1 3 -1 1 0 0 Z " fill="#C6C8D3" transform="translate(262,25)"/>
<path d="M0 0 C4 -0 8 -1 12 -1 C13 -1 14 -1 15 -1 C17 -1 20 -1 22 -1 C26 -1 30 -1 33 -1 C36 -1 38 -1 40 -1 C41 -1 41 -1 44 -1 C47 -1 47 -1 52 0 C53 1 53 3 54 4 C57 4 57 4 61 4 C65 4 65 4 68 4 C69 5 69 7 70 8 C72 8 73 8 75 8 C77 8 78 8 80 8 C81 9 81 11 82 12 C84 12 86 12 88 12 C89 13 89 15 90 16 C92 16 94 16 96 16 C97 17 97 19 98 20 C99 20 99 20 102 22 C102 23 102 23 102 24 C104 24 106 24 108 24 C109 25 109 27 110 28 C111 28 111 28 114 30 C114 31 114 31 114 32 C115 33 117 33 118 34 C118 35 118 35 118 36 C119 37 121 37 122 38 C122 39 122 39 122 40 C123 41 125 41 126 42 C126 43 126 43 126 44 C127 44 128 44 129 44 C129 45 129 46 129 47 C130 51 130 51 134 54 C134 55 134 55 134 56 C135 56 136 56 137 56 C137 57 137 58 137 59 C138 63 138 63 142 66 C142 67 142 67 142 68 C143 68 144 68 145 68 C145 70 145 72 145 73 C146 75 146 77 146 79 C147 79 148 80 149 80 C149 82 150 85 150 87 C151 87 152 88 153 88 C153 92 154 96 154 100 C154 101 154 102 154 103 C155 103 156 104 157 104 C157 108 158 112 158 116 C158 117 158 118 158 119 C159 119 160 120 161 120 C161 125 161 130 162 135 C162 138 162 140 162 143 C163 143 164 144 165 144 C165 147 165 147 165 152 C165 153 165 155 165 156 C165 160 166 163 166 167 C166 168 166 170 166 171 C166 173 166 174 166 176 C166 177 166 178 166 179 C167 179 168 180 169 180 C169 185 169 190 170 195 C170 198 170 200 170 203 C171 203 172 204 173 204 C173 208 174 211 174 215 C175 215 176 216 177 216 C177 220 178 223 178 227 C179 227 180 228 181 228 C181 230 181 232 181 233 C182 235 182 237 182 239 C183 240 185 241 186 242 C186 243 186 243 186 244 C187 244 188 244 189 244 C189 245 189 246 189 247 C190 251 190 251 194 254 C194 255 194 255 194 256 C195 256 196 256 197 256 C197 257 197 258 197 259 C197 260 197 260 198 263 C199 263 200 264 201 264 C201 266 202 269 202 271 C203 271 204 272 205 272 C205 274 206 277 206 279 C207 279 208 280 209 280 C209 284 210 287 210 291 C211 291 212 292 213 292 C213 294 213 296 213 297 C214 299 214 301 214 303 C215 303 215 303 218 306 C218 307 218 307 218 308 C221 308 223 308 226 308 C227 308 229 308 230 308 C232 307 233 307 234 307 C235 306 235 305 236 304 C238 304 239 305 241 305 C241 306 242 306 242 307 C245 307 248 307 251 307 C252 307 254 307 256 308 C258 308 260 308 262 308 C263 308 265 308 267 308 C272 308 276 308 281 308 C281 309 281 309 281 311 C282 313 282 314 282 315 C283 315 284 316 285 316 C285 319 285 319 285 323 C285 324 285 325 285 327 C285 329 285 330 285 332 C285 333 285 335 285 337 C285 342 286 348 286 354 C286 357 286 361 286 365 C286 374 286 383 286 392 C286 403 286 413 286 423 C286 444 286 466 286 487 C290 487 294 487 298 487 C298 477 298 467 298 456 C298 453 298 449 298 446 C298 441 298 436 298 431 C298 429 298 428 298 426 C298 425 298 425 298 422 C298 420 298 419 298 418 C298 417 298 416 298 415 C297 415 296 414 295 414 C295 411 295 411 295 406 C295 405 295 403 295 402 C295 401 295 401 295 397 C295 395 295 394 295 392 C295 391 295 389 295 388 C295 386 295 385 295 383 C295 382 295 381 295 380 C296 380 297 379 298 379 C298 376 298 376 298 372 C298 370 298 369 298 367 C298 365 298 364 298 362 C298 361 298 361 298 356 C298 351 299 346 299 341 C299 336 299 331 299 325 C299 315 299 306 299 296 C299 284 299 273 299 262 C299 238 299 215 299 192 C300 192 301 192 302 192 C303 191 303 189 304 188 C305 188 305 188 306 188 C307 187 307 185 308 184 C311 183 311 183 315 183 C316 183 318 183 319 183 C321 183 322 183 324 183 C325 183 327 183 329 183 C332 183 335 183 339 183 C344 183 349 183 354 183 C358 183 361 183 364 183 C366 183 367 183 369 183 C370 183 370 183 373 183 C374 183 376 183 377 183 C378 184 379 184 380 184 C381 185 381 187 382 188 C384 188 386 188 388 188 C389 189 389 191 390 192 C391 192 392 192 393 192 C393 289 394 387 394 487 C401 487 409 488 416 488 C417 489 417 491 418 492 C419 492 420 493 421 493 C421 495 420 496 420 498 C419 498 419 498 418 498 C417 499 417 501 416 502 C413 502 413 502 409 502 C407 503 406 503 404 503 C403 503 401 502 399 502 C398 502 398 502 394 502 C389 503 384 502 379 502 C374 502 369 502 364 502 C351 503 338 503 325 502 C311 502 297 502 283 503 C278 503 273 503 268 503 C262 502 256 503 251 503 C249 503 247 502 246 502 C244 502 243 502 241 503 C240 503 238 503 237 503 C236 503 236 503 234 503 C234 504 233 506 233 507 C237 507 241 508 245 508 C245 509 245 509 245 510 C243 510 241 510 239 510 C237 510 234 510 232 510 C231 510 231 510 228 510 C227 510 227 510 224 510 C224 510 224 510 221 510 C220 510 219 510 218 510 C217 511 217 513 216 514 C211 514 207 514 202 514 C201 514 201 514 198 514 C197 515 197 517 196 518 C193 518 193 518 189 518 C188 518 187 518 185 518 C182 518 180 518 177 518 C175 518 174 518 173 518 C172 518 172 518 169 518 C168 518 167 518 166 518 C165 519 165 521 164 522 C160 522 156 522 152 522 C151 522 150 522 148 522 C143 522 138 522 133 522 C129 522 126 522 122 522 C121 522 120 522 118 522 C115 522 115 522 110 522 C109 523 109 525 108 526 C104 526 100 527 96 527 C94 527 93 527 92 527 C88 527 83 527 79 527 C76 527 73 527 70 527 C64 527 58 527 52 527 C44 526 36 527 28 527 C22 527 15 527 9 527 C6 527 4 527 1 527 C-3 527 -8 527 -12 527 C-13 527 -14 527 -15 527 C-19 527 -19 527 -24 526 C-25 525 -25 523 -26 522 C-30 522 -34 522 -39 522 C-40 522 -41 522 -43 522 C-47 522 -51 522 -55 522 C-60 522 -66 522 -71 522 C-72 522 -72 522 -75 522 C-78 522 -81 522 -84 522 C-85 521 -85 519 -86 518 C-90 518 -90 518 -96 518 C-97 518 -97 518 -99 518 C-103 518 -106 518 -109 518 C-113 518 -118 518 -122 518 C-124 518 -126 518 -128 518 C-129 518 -130 518 -132 518 C-133 517 -133 515 -134 514 C-137 514 -137 514 -141 514 C-145 514 -145 514 -148 514 C-149 513 -149 511 -150 510 C-152 510 -153 510 -155 510 C-157 510 -158 510 -160 510 C-161 509 -161 507 -162 506 C-164 506 -166 506 -168 506 C-168 504 -169 503 -169 501 C-169 501 -168 500 -168 500 C-166 500 -164 500 -162 500 C-161 499 -161 497 -160 496 C-158 496 -156 496 -154 496 C-153 495 -153 493 -152 492 C-148 492 -148 492 -144 492 C-143 492 -143 492 -138 492 C-135 492 -131 492 -128 492 C-127 492 -127 492 -122 492 C-121 492 -119 492 -118 492 C-116 492 -115 492 -114 492 C-113 491 -113 489 -112 488 C-109 488 -109 488 -106 487 C-104 487 -103 487 -102 487 C-100 487 -99 487 -98 487 C-95 487 -92 487 -89 487 C-88 487 -87 487 -86 487 C-85 487 -84 487 -83 487 C-82 486 -82 485 -81 484 C-78 485 -78 485 -77 487 C-73 487 -70 487 -66 487 C-66 486 -66 484 -66 483 C-68 482 -71 482 -73 481 C-73 480 -74 479 -74 478 C-75 478 -75 478 -79 478 C-81 478 -82 478 -84 478 C-85 477 -85 475 -86 474 C-88 474 -89 474 -91 474 C-93 474 -94 474 -96 474 C-97 473 -97 471 -98 470 C-100 470 -102 470 -104 470 C-105 469 -105 467 -106 466 C-108 466 -110 466 -112 466 C-112 466 -112 466 -114 463 C-115 463 -117 463 -118 463 C-119 464 -119 465 -120 466 C-122 466 -124 466 -126 466 C-127 467 -127 469 -128 470 C-130 470 -132 470 -134 470 C-135 471 -135 473 -136 474 C-140 474 -143 474 -147 474 C-148 474 -149 474 -150 474 C-151 475 -151 477 -152 478 C-156 478 -160 479 -164 478 C-165 479 -166 479 -167 479 C-171 479 -171 479 -176 478 C-176 477 -176 477 -178 474 C-179 473 -181 473 -182 472 C-182 471 -182 471 -182 470 C-186 470 -186 470 -190 470 C-191 471 -191 473 -192 474 C-195 475 -195 475 -199 475 C-201 475 -202 475 -203 475 C-205 475 -206 475 -208 474 C-210 475 -211 475 -213 475 C-214 475 -215 475 -217 475 C-218 475 -218 475 -221 475 C-222 474 -223 474 -224 474 C-225 473 -225 471 -226 470 C-230 470 -230 470 -233 470 C-233 469 -233 468 -233 467 C-234 465 -234 464 -234 463 C-235 462 -236 462 -237 461 C-237 459 -236 458 -236 456 C-235 456 -235 456 -234 456 C-234 455 -234 455 -232 452 C-231 452 -231 452 -230 452 C-230 451 -230 451 -228 448 C-227 448 -227 447 -226 447 C-226 443 -225 440 -225 436 C-224 436 -223 436 -222 436 C-222 435 -222 435 -220 432 C-219 432 -219 432 -218 432 C-218 431 -218 431 -216 428 C-215 428 -215 428 -214 428 C-214 427 -214 427 -212 424 C-211 424 -211 424 -210 424 C-210 423 -210 423 -208 420 C-207 420 -207 420 -206 420 C-206 419 -206 419 -204 416 C-203 416 -203 416 -202 416 C-201 415 -201 413 -200 412 C-199 412 -199 411 -198 411 C-198 408 -198 404 -198 401 C-198 399 -198 397 -198 395 C-198 394 -198 393 -198 391 C-199 391 -200 390 -201 390 C-201 386 -201 382 -201 378 C-201 377 -201 376 -201 375 C-201 372 -201 369 -201 367 C-201 363 -201 359 -201 355 C-201 353 -201 350 -201 348 C-201 347 -201 346 -201 344 C-201 342 -201 339 -201 336 C-200 336 -199 335 -198 335 C-198 332 -198 332 -198 328 C-197 323 -197 323 -197 320 C-196 320 -195 319 -194 319 C-194 318 -194 317 -194 316 C-193 314 -193 313 -193 312 C-192 312 -191 311 -190 311 C-190 309 -190 307 -190 306 C-189 304 -189 302 -189 300 C-188 300 -187 299 -186 299 C-186 298 -186 297 -186 296 C-185 294 -185 293 -185 292 C-184 292 -183 291 -182 291 C-181 287 -181 287 -181 284 C-180 284 -179 284 -178 284 C-177 283 -177 281 -176 280 C-175 280 -175 279 -174 279 C-174 277 -173 274 -173 272 C-172 272 -171 272 -170 272 C-169 271 -169 269 -168 268 C-167 268 -167 267 -166 267 C-166 265 -165 262 -165 260 C-164 260 -163 260 -162 260 C-161 259 -161 257 -160 256 C-159 256 -159 256 -158 256 C-157 255 -157 253 -156 252 C-155 252 -155 252 -154 252 C-153 251 -153 249 -152 248 C-151 248 -151 248 -150 248 C-149 247 -149 245 -148 244 C-147 244 -147 243 -146 243 C-146 242 -146 241 -146 240 C-145 239 -145 239 -145 236 C-144 236 -143 235 -142 235 C-142 234 -142 233 -142 232 C-141 230 -141 229 -141 228 C-140 228 -139 227 -138 227 C-138 226 -138 225 -138 224 C-137 222 -137 221 -137 220 C-136 220 -135 219 -134 219 C-134 218 -134 217 -134 216 C-133 214 -133 213 -133 212 C-132 212 -131 211 -130 211 C-130 208 -130 208 -130 204 C-129 199 -129 199 -129 196 C-128 196 -127 195 -126 195 C-126 193 -126 191 -126 190 C-125 188 -125 186 -125 184 C-124 184 -123 183 -122 183 C-122 179 -122 179 -122 174 C-121 168 -121 168 -121 164 C-120 164 -119 163 -118 163 C-118 159 -118 159 -118 154 C-117 148 -117 148 -117 144 C-116 144 -115 143 -114 143 C-114 139 -114 139 -114 134 C-113 128 -113 128 -113 124 C-112 124 -111 123 -110 123 C-110 120 -110 120 -110 116 C-109 111 -109 111 -109 108 C-108 108 -107 107 -106 107 C-106 105 -106 103 -106 102 C-105 100 -105 98 -105 96 C-104 96 -103 95 -102 95 C-102 94 -102 93 -102 92 C-101 90 -101 89 -101 88 C-100 88 -99 87 -98 87 C-98 85 -98 83 -98 82 C-97 80 -97 78 -97 76 C-96 76 -95 75 -94 75 C-93 71 -93 71 -93 68 C-92 68 -91 68 -90 68 C-90 67 -90 67 -88 64 C-87 64 -87 63 -86 63 C-86 61 -85 58 -85 56 C-84 56 -83 56 -82 56 C-81 55 -81 53 -80 52 C-79 52 -79 52 -78 52 C-77 51 -77 49 -76 48 C-75 48 -75 48 -74 48 C-73 47 -73 45 -72 44 C-71 44 -71 44 -70 44 C-69 43 -69 41 -68 40 C-67 40 -67 39 -66 39 C-66 37 -65 34 -65 32 C-64 32 -63 32 -62 32 C-60 32 -59 32 -58 32 C-57 31 -57 29 -56 28 C-55 28 -55 28 -54 28 C-53 27 -53 25 -52 24 C-51 24 -51 24 -50 24 C-49 23 -49 21 -48 20 C-46 20 -44 20 -42 20 C-41 19 -41 17 -40 16 C-38 16 -36 16 -34 16 C-33 15 -33 13 -32 12 C-31 12 -31 12 -30 12 C-29 11 -29 9 -28 8 C-25 8 -21 8 -18 8 C-17 7 -17 5 -16 4 C-12 4 -9 4 -5 4 C-4 4 -3 4 -2 4 C-1 3 -1 1 0 0 Z M0 15 C-1 15 -2 15 -4 16 C-11 17 -17 20 -24 23 C-25 24 -26 24 -27 25 C-35 28 -42 32 -48 38 C-49 39 -49 39 -53 42 C-61 48 -66 55 -72 64 C-74 66 -75 69 -77 71 C-85 84 -90 97 -95 111 C-96 113 -96 114 -97 116 C-98 119 -98 123 -99 126 C-101 135 -101 135 -102 139 C-104 144 -104 148 -105 153 C-105 154 -105 155 -106 156 C-106 161 -107 166 -108 171 C-108 175 -109 178 -110 182 C-110 183 -110 185 -110 186 C-111 190 -112 194 -114 198 C-115 200 -115 203 -116 205 C-119 214 -122 221 -126 229 C-129 235 -129 238 -128 244 C-129 245 -130 245 -131 246 C-131 247 -132 249 -132 250 C-134 251 -137 252 -139 253 C-145 257 -149 262 -153 268 C-155 271 -155 271 -158 275 C-162 279 -164 284 -167 289 C-167 290 -168 291 -168 292 C-169 294 -170 296 -171 298 C-173 300 -174 302 -175 304 C-175 305 -176 306 -176 308 C-177 309 -177 310 -178 311 C-179 313 -179 313 -178 316 C-179 316 -179 316 -180 316 C-181 319 -181 319 -183 323 C-183 324 -183 324 -184 327 C-188 340 -190 352 -190 365 C-190 367 -190 368 -191 370 C-191 381 -191 381 -190 383 C-188 383 -187 383 -185 383 C-184 378 -184 378 -183 372 C-182 373 -180 373 -179 374 C-178 379 -179 382 -181 387 C-187 397 -187 410 -186 422 C-184 425 -184 425 -182 427 C-177 428 -175 427 -170 425 C-170 424 -170 424 -170 423 C-168 422 -167 422 -165 421 C-162 418 -159 415 -157 411 C-156 411 -155 410 -154 409 C-153 409 -152 410 -151 410 C-152 415 -152 415 -154 420 C-155 426 -156 430 -155 436 C-154 437 -152 437 -151 438 C-151 438 -151 438 -150 441 C-146 442 -143 441 -139 439 C-130 432 -121 425 -116 415 C-112 411 -109 411 -104 411 C-95 404 -91 393 -87 382 C-86 379 -84 376 -83 373 C-80 366 -78 361 -78 353 C-78 352 -78 351 -78 350 C-78 349 -78 348 -78 347 C-77 347 -76 347 -75 347 C-74 342 -74 338 -74 333 C-74 332 -74 330 -74 329 C-74 328 -73 326 -73 325 C-73 324 -73 324 -73 321 C-73 318 -73 314 -73 311 C-72 311 -70 311 -69 311 C-69 310 -68 309 -68 308 C-67 308 -67 308 -66 308 C-65 321 -65 335 -66 348 C-66 349 -66 349 -66 353 C-67 358 -68 362 -70 367 C-71 371 -72 375 -74 379 C-82 402 -99 422 -119 435 C-120 435 -121 436 -122 437 C-122 443 -122 443 -120 445 C-105 455 -84 469 -66 467 C-63 466 -60 466 -57 465 C-56 465 -54 464 -53 464 C-52 465 -50 467 -49 468 C-46 470 -46 470 -43 471 C-42 472 -41 472 -40 473 C-32 476 -23 475 -14 475 C-13 475 -12 475 -11 475 C-3 475 6 475 14 475 C15 475 16 475 17 475 C22 474 25 474 30 472 C32 472 34 472 36 471 C38 471 39 471 40 471 C41 471 43 471 44 471 C46 471 49 471 51 471 C53 471 54 470 55 470 C58 470 61 469 64 468 C66 467 68 467 70 466 C72 466 74 466 76 465 C76 464 76 464 76 463 C77 463 78 463 79 463 C82 462 82 462 84 460 C85 459 85 459 86 458 C87 453 87 453 87 447 C87 446 88 444 88 443 C89 439 89 435 89 430 C89 429 89 429 89 425 C89 422 89 418 89 415 C90 413 90 411 90 410 C90 408 90 406 90 405 C90 401 90 401 93 396 C100 391 108 391 116 391 C118 391 120 391 122 391 C125 391 128 391 131 391 C134 391 137 390 140 390 C142 390 144 390 146 390 C150 390 150 390 154 387 C155 384 155 384 156 380 C156 378 157 377 157 376 C160 363 160 351 160 338 C160 336 160 334 160 332 C159 321 159 310 157 299 C156 295 156 295 156 290 C157 289 157 289 158 288 C159 288 160 289 161 289 C161 290 162 291 162 292 C163 293 164 293 165 294 C165 295 164 295 164 296 C165 301 167 306 169 311 C170 315 170 315 170 319 C169 319 169 320 168 320 C168 321 168 321 169 324 C173 342 169 361 167 379 C167 385 167 385 167 389 C171 392 174 394 179 395 C183 394 183 394 186 391 C186 390 187 388 188 387 C189 386 189 385 190 383 C196 373 194 361 194 350 C194 348 194 346 194 344 C194 340 193 337 193 333 C193 318 193 318 198 312 C199 311 201 309 202 308 C203 303 203 303 202 299 C201 298 200 297 199 296 C199 294 198 291 198 289 C197 287 196 285 195 283 C195 281 194 280 194 278 C191 268 184 261 178 253 C176 250 174 248 173 246 C172 245 172 245 171 243 C170 243 170 243 169 243 C169 241 169 239 169 237 C168 235 167 232 166 230 C165 227 164 224 163 220 C162 219 162 217 161 215 C160 211 160 211 159 206 C159 205 158 204 158 203 C158 201 158 199 158 197 C157 192 157 192 156 190 C156 187 155 183 155 180 C153 167 151 154 149 141 C149 139 149 137 148 134 C148 134 148 134 148 131 C148 129 148 128 148 127 C147 122 146 118 144 113 C143 113 143 113 142 113 C142 112 142 110 142 109 C142 104 141 100 139 95 C139 94 138 93 138 92 C131 70 119 48 99 36 C98 35 98 35 94 33 C74 18 52 13 28 13 C27 13 27 13 24 13 C15 13 8 13 0 15 Z " fill="#111115" transform="translate(262,25)"/>
<path d="M0 0 C1 -0 1 -0 4 -0 C5 -0 7 -0 8 -0 C9 -0 11 -0 12 -0 C15 -0 18 -0 21 -0 C26 -0 30 -0 35 -0 C38 -0 41 -0 44 -0 C45 -0 46 -0 48 -0 C49 -0 50 -0 52 -0 C53 -0 54 -0 55 -0 C58 0 58 0 62 4 C62 8 62 12 62 16 C62 16 62 16 62 19 C62 23 62 27 62 31 C62 34 62 36 62 39 C62 47 62 54 62 62 C62 70 62 78 62 85 C62 99 62 112 62 125 C62 141 62 156 62 171 C62 186 62 201 62 216 C62 222 62 228 62 234 C62 242 62 249 62 257 C62 259 62 262 62 265 C62 269 62 272 62 276 C62 277 62 278 62 279 C62 285 62 289 59 293 C54 295 48 295 42 295 C41 295 40 295 38 295 C35 295 33 295 30 295 C25 295 21 295 17 295 C14 295 11 295 8 295 C7 295 6 295 5 295 C4 295 4 295 1 295 C-0 295 -1 295 -2 295 C-5 294 -5 294 -9 290 C-11 287 -10 285 -10 281 C-10 279 -10 277 -10 274 C-10 274 -11 274 -11 273 C-11 270 -11 267 -11 263 C-10 263 -10 263 -9 263 C-9 262 -9 260 -9 258 C-10 258 -10 258 -11 258 C-11 257 -11 255 -11 254 C-10 236 -10 236 -10 227 C-10 220 -10 212 -10 205 C-10 203 -10 202 -10 201 C-9 197 -9 193 -8 188 C-9 188 -9 188 -10 188 C-10 187 -10 186 -10 185 C-10 180 -10 176 -10 171 C-10 170 -10 170 -10 166 C-10 164 -10 162 -10 161 C-10 159 -10 158 -10 156 C-10 153 -10 149 -11 146 C-11 137 -11 129 -11 120 C-11 118 -11 116 -11 115 C-11 109 -11 103 -11 97 C-11 89 -11 81 -10 74 C-10 72 -10 70 -10 68 C-10 56 -10 43 -10 31 C-10 0 -10 0 0 0 Z " fill="#7679CF" transform="translate(581.152099609375,220.595947265625)"/>
<path d="M0 0 C1 -0 3 -0 4 -0 C29 -0 51 8 71 22 C72 23 73 24 74 25 C75 26 77 27 79 28 C87 36 94 43 100 53 C100 54 101 56 102 57 C106 64 109 71 111 79 C112 82 113 84 114 87 C115 91 115 94 115 98 C114 98 113 98 112 97 C110 93 109 88 108 84 C107 79 106 76 102 73 C98 74 98 74 93 76 C82 79 71 81 60 81 C61 86 61 86 63 88 C67 92 70 98 70 103 C70 103 71 102 72 102 C73 101 74 100 74 99 C75 99 75 99 77 97 C83 93 88 93 95 93 C102 96 105 98 109 105 C111 110 112 115 113 120 C113 121 113 122 114 122 C116 138 117 153 107 166 C101 172 94 174 86 175 C82 175 82 175 77 172 C75 172 73 172 72 172 C71 172 71 172 71 171 C71 170 71 168 71 166 C76 165 76 165 80 166 C87 166 91 164 96 160 C104 150 106 140 105 127 C103 122 102 118 98 115 C94 113 90 113 85 113 C84 113 84 113 83 114 C83 118 84 122 85 126 C83 128 82 129 81 130 C75 130 75 130 70 127 C68 128 67 128 66 128 C63 133 63 136 62 142 C62 143 62 145 62 147 C61 148 61 148 57 149 C52 147 52 147 48 144 C48 144 48 143 48 142 C36 142 31 143 21 150 C20 150 19 150 19 150 C18 152 17 153 17 154 C15 156 13 158 12 160 C7 166 4 169 4 177 C6 182 8 185 11 189 C14 192 15 194 15 198 C8 195 8 195 7 193 C5 189 5 189 1 185 C-3 181 -3 178 -3 172 C-2 171 -1 169 -0 167 C0 167 1 167 2 167 C3 165 4 163 5 160 C7 157 9 155 12 153 C13 152 14 150 15 148 C21 143 21 143 24 143 C24 143 24 142 24 141 C30 138 35 138 42 138 C44 138 46 138 49 137 C49 138 50 138 51 138 C52 138 54 138 56 137 C57 134 57 134 58 130 C54 131 54 131 51 133 C44 134 39 129 33 126 C27 122 24 118 23 111 C22 106 22 102 23 97 C26 93 26 93 29 90 C30 86 30 86 30 82 C26 79 23 79 18 79 C17 80 16 80 15 81 C12 82 12 82 7 82 C0 83 -5 87 -11 91 C-17 93 -19 91 -25 89 C-30 89 -36 89 -41 89 C-49 89 -49 89 -53 84 C-54 83 -54 82 -55 81 C-57 77 -60 74 -64 71 C-65 71 -67 71 -68 70 C-73 69 -76 67 -80 64 C-83 62 -85 61 -88 59 C-89 59 -89 58 -89 57 C-94 56 -94 56 -97 58 C-98 60 -99 61 -100 63 C-101 63 -102 63 -102 63 C-104 69 -105 72 -105 78 C-108 80 -108 80 -112 80 C-112 82 -112 83 -112 85 C-112 90 -112 90 -115 94 C-115 95 -115 95 -116 97 C-116 98 -116 99 -116 100 C-119 102 -119 102 -122 102 C-119 77 -100 46 -81 29 C-57 10 -32 0 0 0 Z " fill="#C7C9D4" transform="translate(289.25,37.8125)"/>
<path d="M0 0 C1 1 2 2 3 3 C6 4 9 5 12 5 C24 8 33 14 41 23 C41 23 41 23 42 26 C42 26 42 26 45 27 C50 35 53 44 56 53 C56 54 57 55 57 56 C58 61 59 66 59 71 C58 71 56 71 55 71 C55 71 55 71 55 74 C55 77 55 81 55 85 C55 86 54 88 54 89 C54 90 54 92 54 93 C54 94 54 95 54 97 C54 100 54 104 53 107 C52 107 51 107 50 107 C50 109 50 111 50 113 C50 122 48 128 43 136 C43 137 42 138 42 139 C39 150 34 164 24 171 C23 171 21 171 20 171 C14 172 14 173 11 177 C10 178 10 179 9 180 C3 189 -5 196 -15 201 C-19 201 -19 201 -22 201 C-22 200 -23 199 -23 198 C-24 197 -26 197 -27 196 C-28 188 -27 182 -24 175 C-24 173 -23 172 -23 170 C-27 170 -27 170 -30 173 C-32 174 -33 176 -34 177 C-39 182 -39 182 -42 183 C-42 184 -42 184 -42 185 C-47 187 -49 188 -54 187 C-57 184 -58 182 -58 178 C-58 154 -58 154 -53 146 C-51 142 -51 139 -51 134 C-52 133 -54 133 -55 132 C-55 134 -55 136 -56 138 C-56 138 -56 138 -57 143 C-59 143 -60 143 -62 143 C-66 123 -61 94 -52 76 C-51 76 -51 76 -50 76 C-50 75 -51 74 -51 73 C-50 70 -48 68 -47 65 C-46 64 -46 62 -45 61 C-40 50 -35 40 -27 31 C-25 29 -23 26 -22 24 C-17 18 -12 12 -4 10 C-3 8 -3 7 -2 5 C-1 4 -1 4 0 3 C0 2 0 1 0 0 Z " fill="#888DA0" transform="translate(134,265)"/>
<path d="M0 0 C1 -0 3 -0 4 -0 C7 -0 9 -0 12 -0 C16 -0 20 -0 24 -0 C27 -0 30 -0 32 -0 C33 -0 33 -0 36 -0 C41 -0 45 0 50 2 C53 6 52 7 52 11 C52 13 52 14 52 15 C52 17 52 18 52 20 C52 21 52 23 52 24 C52 29 52 34 52 39 C52 42 52 46 52 49 C52 57 52 64 52 71 C52 80 52 90 52 99 C52 106 52 113 52 120 C52 124 52 127 52 130 C52 135 52 140 52 145 C52 146 52 148 52 149 C52 169 52 169 48 173 C45 174 45 174 41 174 C40 174 38 174 37 174 C35 174 33 174 32 174 C30 174 29 174 27 174 C22 174 18 174 13 174 C11 174 9 174 6 174 C-8 174 -8 174 -15 172 C-16 172 -17 172 -18 171 C-19 168 -19 166 -19 163 C-19 162 -19 160 -19 159 C-19 157 -19 156 -19 154 C-19 153 -19 153 -19 150 C-19 144 -19 139 -19 134 C-19 130 -19 127 -19 123 C-19 116 -19 108 -19 101 C-19 91 -19 81 -19 72 C-19 64 -19 57 -19 49 C-19 46 -19 42 -19 39 C-19 34 -19 29 -19 24 C-19 22 -19 21 -19 19 C-19 18 -19 17 -19 15 C-19 14 -19 13 -19 12 C-19 8 -18 5 -16 1 C-11 -1 -5 0 0 0 Z " fill="#7679CE" transform="translate(483.8046875,341.83203125)"/>
<path d="M0 0 C1 4 1 4 0 7 C-1 7 -1 7 -5 9 C-10 12 -10 12 -11 15 C-11 18 -11 18 -7 22 C-0 23 -0 23 3 21 C10 21 17 21 24 23 C25 23 26 22 27 22 C31 22 34 22 38 22 C38 23 38 23 38 24 C41 24 43 24 46 24 C47 24 49 24 50 24 C54 24 54 24 59 22 C63 22 63 22 67 22 C68 22 68 22 72 22 C73 22 75 22 77 22 C80 23 83 23 86 23 C88 23 89 23 90 23 C95 23 99 23 104 22 C109 22 114 22 119 22 C119 22 119 22 122 22 C125 22 128 21 132 21 C134 21 136 21 139 21 C144 21 150 21 155 21 C155 22 155 22 155 23 C156 23 156 23 160 22 C162 22 163 22 164 22 C166 21 169 21 171 20 C177 20 183 20 189 21 C189 22 189 22 189 23 C187 23 186 23 184 23 C182 23 180 23 178 23 C176 23 175 23 174 23 C171 23 171 23 166 24 C166 25 165 27 165 28 C169 28 173 29 177 29 C177 30 177 30 177 31 C175 31 173 31 171 31 C169 31 166 31 164 31 C162 31 161 31 160 31 C159 31 157 31 156 31 C156 31 156 31 153 31 C152 31 152 31 150 31 C149 32 149 34 148 35 C143 35 139 35 134 35 C133 35 131 35 130 35 C129 36 129 38 128 39 C125 39 125 39 121 39 C120 39 119 39 117 39 C114 39 112 39 109 39 C107 39 106 39 105 39 C103 39 102 39 101 39 C100 39 99 39 98 39 C97 40 97 42 96 43 C92 43 88 43 84 43 C83 43 82 43 80 43 C75 43 70 43 65 43 C61 43 58 43 54 43 C53 43 52 43 50 43 C47 43 47 43 42 43 C41 44 41 46 40 47 C36 47 32 48 28 48 C26 48 25 48 24 48 C20 48 15 48 11 48 C8 48 5 48 2 48 C-4 48 -10 48 -16 48 C-24 47 -32 48 -40 48 C-46 48 -53 48 -59 48 C-62 48 -64 48 -67 48 C-71 48 -76 48 -80 48 C-81 48 -82 48 -83 48 C-87 48 -87 48 -92 47 C-92 46 -92 46 -94 43 C-98 43 -102 43 -107 43 C-108 43 -109 43 -111 43 C-115 43 -119 43 -123 43 C-128 43 -134 43 -139 43 C-140 43 -142 43 -143 43 C-146 43 -149 43 -152 43 C-152 42 -152 42 -154 39 C-158 39 -158 39 -164 39 C-165 39 -166 39 -167 39 C-171 39 -174 39 -177 39 C-181 39 -186 39 -190 39 C-192 39 -194 39 -196 39 C-197 39 -198 39 -200 39 C-201 38 -201 36 -202 35 C-205 35 -205 35 -209 35 C-213 35 -213 35 -216 35 C-217 34 -217 32 -218 31 C-220 31 -221 31 -223 31 C-225 31 -226 31 -228 31 C-229 30 -229 28 -230 27 C-232 27 -234 27 -236 27 C-236 26 -236 26 -237 22 C-237 22 -236 21 -236 21 C-234 21 -232 21 -230 21 C-229 20 -229 18 -228 17 C-226 17 -224 17 -222 17 C-221 16 -221 14 -220 13 C-216 13 -216 13 -212 13 C-211 13 -211 13 -206 13 C-205 13 -205 13 -196 13 C-194 13 -192 13 -190 13 C-190 13 -190 13 -186 13 C-184 13 -183 13 -182 13 C-181 12 -181 10 -180 9 C-177 9 -177 9 -174 8 C-172 8 -171 8 -170 8 C-168 8 -167 8 -166 8 C-163 8 -160 8 -157 8 C-156 8 -155 8 -154 8 C-153 8 -152 8 -151 8 C-150 7 -150 6 -149 5 C-146 6 -146 6 -143 9 C-144 12 -144 12 -148 15 C-152 18 -152 18 -153 22 C-152 25 -152 25 -150 27 C-145 27 -143 27 -139 25 C-134 24 -134 24 -128 25 C-125 28 -125 28 -123 31 C-123 32 -123 32 -123 33 C-117 35 -116 35 -110 33 C-107 30 -107 30 -106 27 C-103 26 -100 26 -97 26 C-96 26 -96 27 -95 27 C-91 27 -91 27 -86 27 C-85 26 -83 24 -82 23 C-82 19 -83 16 -85 12 C-84 12 -84 12 -83 12 C-83 11 -83 10 -83 9 C-82 9 -80 9 -79 9 C-55 8 -33 5 -10 1 C-5 0 -5 0 0 0 Z " fill="#DBDCE3" transform="translate(330,504)"/>
<path d="M0 0 C1 0 1 0 2 0 C2 1 2 1 2 2 C3 2 4 2 5 2 C10 3 14 6 17 10 C25 17 34 19 43 19 C48 19 48 19 52 23 C52 24 52 26 52 27 C57 28 57 28 60 27 C64 31 64 32 66 37 C69 38 71 38 74 38 C79 38 82 39 86 43 C88 44 89 45 91 46 C93 46 94 45 96 45 C100 47 100 47 102 52 C103 57 103 57 103 61 C102 61 102 61 99 63 C99 64 98 65 98 66 C98 66 98 66 95 67 C94 66 94 64 93 63 C90 63 90 63 87 64 C83 65 83 65 79 64 C77 65 75 66 73 67 C72 67 70 68 69 68 C65 69 65 69 63 71 C63 77 63 77 66 80 C69 80 73 79 76 79 C76 80 77 82 77 83 C78 83 78 83 79 83 C79 84 80 86 80 87 C83 87 86 87 89 87 C95 87 102 88 108 89 C109 89 111 89 112 89 C112 88 112 88 114 85 C119 86 119 86 122 89 C123 89 125 89 126 89 C127 86 127 86 128 83 C132 84 136 85 140 87 C141 87 142 88 143 88 C145 90 145 90 148 94 C148 99 148 99 148 103 C157 103 157 103 160 102 C161 101 162 99 163 98 C162 97 162 96 161 95 C162 94 163 93 164 92 C165 92 166 93 167 93 C167 95 168 98 168 100 C169 100 170 101 171 101 C171 102 172 103 172 104 C169 109 167 110 161 112 C154 113 147 113 140 112 C134 112 130 114 124 117 C121 119 118 120 115 121 C114 122 114 122 113 123 C113 127 113 127 114 130 C118 132 118 132 123 134 C120 139 119 139 114 141 C112 144 113 148 113 152 C112 155 112 155 108 159 C104 159 101 158 98 157 C97 156 96 156 95 156 C92 158 92 158 90 161 C88 163 88 163 84 163 C80 164 80 164 77 167 C76 170 75 173 74 176 C73 179 73 179 69 183 C60 186 53 187 44 184 C43 183 42 183 41 182 C42 177 42 177 44 175 C44 174 44 173 44 172 C44 168 44 168 47 163 C47 161 47 160 47 158 C48 152 50 147 52 141 C53 141 54 142 55 142 C56 138 57 134 58 130 C59 130 61 131 62 131 C63 130 65 129 66 128 C68 127 71 127 73 126 C74 125 75 125 76 124 C79 123 79 123 84 124 C90 124 92 123 97 119 C100 115 100 111 100 106 C100 104 101 103 101 101 C101 101 100 100 100 100 C98 100 95 101 93 101 C91 101 90 101 88 102 C83 102 83 102 80 103 C80 103 80 103 77 101 C77 100 77 100 77 99 C76 99 76 99 75 99 C74 98 73 97 72 96 C70 95 67 94 65 93 C63 90 64 87 64 83 C62 83 59 83 57 83 C56 83 56 83 53 83 C49 83 49 83 44 84 C39 84 39 84 35 82 C35 83 34 83 34 84 C28 70 28 70 28 63 C30 60 30 60 34 58 C35 58 37 58 38 57 C38 56 39 55 39 54 C35 50 32 49 27 48 C26 48 26 48 22 49 C19 49 19 49 16 48 C15 48 15 48 13 47 C8 45 5 43 2 39 C-3 34 -5 34 -11 33 C-10 32 -9 31 -8 30 C-8 29 -9 27 -9 26 C-9 24 -8 23 -8 21 C-7 21 -7 21 -6 21 C-6 19 -5 18 -5 16 C-4 11 -4 11 -1 7 C-1 5 -1 3 -1 1 C-1 1 -0 0 0 0 Z " fill="#C1C4D0" transform="translate(152,225)"/>
<path d="M0 0 C1 0 3 0 4 0 C7 0 10 0 12 0 C17 0 21 0 25 0 C28 0 30 1 33 1 C34 1 34 1 37 1 C40 1 43 1 46 1 C50 6 50 7 50 13 C50 14 50 14 50 17 C50 19 50 21 50 22 C50 23 50 23 50 28 C50 31 50 35 50 38 C50 44 50 49 50 55 C50 58 50 62 50 65 C50 67 50 69 50 70 C50 72 50 73 50 75 C50 76 50 76 50 79 C49 82 49 82 47 86 C47 86 47 86 44 87 C44 88 43 89 42 90 C38 91 38 91 33 91 C32 91 32 91 28 91 C26 91 24 91 22 91 C20 91 18 91 16 91 C-13 92 -13 92 -18 87 C-21 82 -20 77 -20 71 C-20 70 -20 70 -21 67 C-21 62 -21 57 -21 52 C-21 52 -21 52 -21 49 C-21 43 -21 36 -21 30 C-21 28 -21 25 -21 23 C-21 20 -20 17 -20 14 C-20 12 -20 11 -20 9 C-20 4 -20 4 -17 2 C-12 -0 -6 -0 0 0 Z " fill="#7679CE" transform="translate(380.60546875,424.6875)"/>
<path d="M0 0 C11 6 17 15 20 27 C22 41 23 57 16 69 C13 74 11 75 7 78 C6 79 4 80 3 81 C-7 87 -13 88 -24 86 C-34 83 -40 78 -46 70 C-51 62 -52 55 -52 46 C-52 45 -52 45 -52 43 C-52 27 -48 17 -37 6 C-25 -3 -14 -6 0 0 Z " fill="#EDEEF0" transform="translate(269.03515625,130.1875)"/>
<path d="M0 0 C5 2 9 5 13 8 C26 18 26 18 33 20 C38 19 41 16 45 13 C45 14 45 14 45 17 C44 22 44 28 44 33 C44 35 44 37 44 39 C44 51 50 60 59 67 C63 70 67 72 72 73 C73 73 75 74 76 74 C77 74 78 75 79 75 C79 76 78 76 78 77 C78 77 78 77 75 78 C75 79 75 79 78 82 C78 83 78 84 78 85 C80 86 81 86 83 87 C85 88 86 89 88 91 C95 95 100 95 108 95 C109 95 109 95 113 96 C117 96 119 95 123 93 C124 93 126 94 127 94 C127 96 128 98 128 100 C129 100 130 101 131 101 C132 103 134 106 135 108 C136 108 136 109 137 109 C137 110 137 110 137 111 C138 112 140 112 141 113 C145 115 148 117 152 119 C151 123 151 123 149 127 C148 127 147 128 146 128 C145 129 145 131 144 132 C144 133 143 133 143 134 C142 134 142 134 141 134 C141 135 140 136 140 137 C136 138 134 138 130 137 C126 135 122 132 118 129 C115 127 115 127 109 127 C108 127 108 127 105 128 C102 128 102 128 99 126 C99 125 98 124 97 123 C94 120 91 118 87 116 C76 109 76 109 74 104 C72 99 70 98 65 96 C60 93 56 90 52 85 C52 84 52 84 52 83 C51 83 50 83 48 83 C38 83 31 82 23 75 C23 75 23 75 20 72 C16 67 14 62 12 55 C12 54 11 53 11 52 C10 49 10 49 11 45 C12 38 10 35 7 30 C4 27 1 25 -3 23 C-5 19 -6 15 -7 11 C-3 1 -3 1 0 0 Z " fill="#C1C4D0" transform="translate(174,142)"/>
<path d="M0 0 C5 2 7 6 10 11 C13 22 11 33 6 43 C2 50 -3 53 -10 55 C-13 55 -13 55 -17 55 C-18 55 -19 54 -20 54 C-21 54 -22 54 -23 54 C-23 55 -23 56 -23 57 C-22 69 -22 69 -27 74 C-31 77 -31 77 -36 79 C-40 84 -43 91 -46 97 C-49 103 -52 104 -58 106 C-63 106 -66 104 -69 100 C-73 96 -76 91 -79 86 C-82 81 -85 76 -88 72 C-91 68 -92 67 -92 62 C-91 56 -88 52 -84 48 C-83 47 -83 46 -82 46 C-76 37 -69 31 -59 29 C-55 29 -51 29 -47 30 C-47 31 -47 31 -47 32 C-46 32 -44 33 -43 33 C-41 34 -40 35 -38 36 C-37 36 -37 36 -34 35 C-33 32 -33 32 -33 27 C-33 23 -32 20 -30 16 C-30 15 -29 15 -28 14 C-23 15 -23 15 -20 17 C-18 17 -16 17 -14 17 C-13 16 -12 15 -11 14 C-12 11 -12 8 -13 5 C-13 4 -13 3 -13 2 C-9 -1 -5 -0 0 0 Z " fill="#1D160E" transform="translate(384,150)"/>
<path d="M0 0 C2 7 1 13 -1 20 C-4 29 -3 35 1 44 C5 58 5 74 3 89 C-1 93 -2 92 -7 93 C-9 93 -10 93 -12 93 C-12 93 -12 93 -16 93 C-18 93 -20 93 -21 93 C-26 93 -30 93 -35 93 C-37 93 -39 93 -42 93 C-56 93 -56 93 -63 91 C-64 91 -65 90 -66 90 C-70 83 -67 69 -67 61 C-67 58 -67 55 -67 52 C-67 48 -68 43 -68 39 C-68 38 -68 36 -68 35 C-68 34 -68 34 -68 31 C-68 30 -68 29 -68 28 C-67 25 -67 25 -65 23 C-62 21 -60 20 -56 20 C-54 22 -54 22 -51 24 C-47 28 -44 29 -38 29 C-28 27 -18 23 -11 15 C-10 11 -9 8 -8 4 C-8 3 -7 2 -7 1 C-2 0 -2 0 0 0 Z " fill="#646AC8" transform="translate(532,423)"/>
<path d="M0 0 C4 2 6 4 9 7 C10 8 11 8 11 9 C17 14 22 22 22 29 C22 32 22 35 23 38 C23 42 23 42 26 45 C29 45 32 45 35 45 C39 45 42 47 46 49 C48 50 49 51 51 52 C54 54 56 56 59 58 C61 60 61 60 65 60 C65 66 65 71 65 77 C65 78 65 80 65 81 C65 83 65 84 65 86 C65 87 65 89 65 90 C65 94 64 97 62 100 C57 102 51 101 46 101 C45 101 45 101 42 101 C37 101 33 101 29 101 C26 101 23 101 20 101 C13 101 6 101 -1 101 C-1 100 -1 99 -1 98 C-1 94 -1 94 -2 90 C-3 87 -3 87 -2 82 C-2 79 -2 76 -2 73 C-2 66 -2 60 0 53 C-1 53 -1 53 -2 53 C-2 51 -2 49 -2 48 C-2 45 -2 43 -2 40 C-2 39 -2 38 -2 37 C-2 31 -2 25 -3 19 C-3 12 -2 7 0 0 Z " fill="#6B70CB" transform="translate(578,414)"/>
<path d="M0 0 C3 0 3 0 6 1 C7 2 7 4 8 5 C8 6 7 7 7 8 C7 9 7 9 8 12 C11 12 14 12 17 12 C22 12 24 13 27 16 C37 21 47 20 57 19 C59 18 61 17 63 16 C70 16 71 17 76 21 C80 24 80 24 82 28 C82 29 82 29 81 33 C78 35 74 37 71 39 C70 39 69 40 68 40 C66 41 64 42 62 43 C45 52 45 52 41 56 C43 61 43 61 46 64 C49 68 49 71 48 76 C48 78 48 79 48 81 C48 85 48 85 47 87 C47 87 47 87 50 88 C50 88 50 88 47 89 C47 90 47 90 47 91 C55 92 62 92 70 91 C71 92 71 92 72 93 C73 92 75 90 76 89 C79 88 82 87 85 86 C91 84 95 82 100 79 C101 79 102 79 103 79 C103 78 104 78 104 77 C105 82 105 84 103 89 C102 89 102 89 101 89 C101 90 100 90 100 91 C98 91 96 92 94 92 C94 93 93 93 93 94 C90 95 88 95 85 96 C77 98 77 98 76 99 C74 99 72 99 70 99 C69 100 67 100 66 100 C64 100 61 100 58 100 C57 100 56 100 55 100 C53 100 52 101 51 101 C48 101 48 101 43 103 C39 103 36 104 32 104 C31 104 31 104 29 104 C20 104 12 104 4 104 C3 104 2 104 0 104 C-12 104 -22 102 -32 96 C-33 95 -34 94 -35 93 C-34 92 -34 90 -33 89 C-27 88 -22 89 -16 90 C-2 93 -2 93 4 93 C4 92 4 92 4 88 C4 82 5 81 9 77 C11 76 12 75 14 74 C15 73 15 72 16 70 C20 64 26 62 32 58 C33 57 34 57 35 56 C35 54 36 53 36 51 C36 51 36 51 33 50 C32 47 32 45 32 42 C32 41 32 39 32 38 C32 35 32 35 33 31 C33 30 33 29 33 28 C29 25 26 24 21 23 C20 22 18 22 17 21 C13 21 8 21 4 21 C0 21 0 21 -4 17 C-5 11 -4 6 -1 1 C-1 1 -0 0 0 0 Z " fill="#C2C5D1" transform="translate(244,396)"/>
<path d="M0 0 C2 3 2 3 3 6 C2 7 2 9 1 10 C3 9 4 9 6 8 C6 8 6 8 8 11 C9 10 10 10 11 9 C16 9 16 9 22 10 C25 14 25 14 28 18 C28 19 28 19 30 21 C31 22 31 22 32 24 C35 27 38 27 42 27 C50 28 54 31 60 35 C64 38 67 38 72 37 C75 35 75 35 77 33 C82 28 82 28 87 28 C92 30 92 30 93 33 C93 34 94 35 94 36 C94 37 94 37 95 40 C97 37 97 37 98 33 C99 29 99 29 103 25 C101 36 95 51 85 58 C84 58 82 58 81 58 C75 59 75 60 72 64 C71 65 71 66 70 67 C64 76 56 83 46 88 C42 88 42 88 39 88 C39 87 38 86 38 85 C37 84 35 84 34 83 C33 75 34 69 37 62 C37 60 38 59 38 57 C34 57 34 57 31 60 C29 61 28 63 27 64 C22 69 22 69 19 70 C19 71 19 71 19 72 C14 74 12 75 7 74 C4 71 3 69 3 65 C3 41 3 41 8 33 C10 29 10 26 10 21 C9 20 7 20 6 19 C6 21 6 23 5 24 C5 26 4 28 4 30 C2 30 1 30 -1 30 C-2 24 -2 18 -1 11 C-1 10 -1 9 -1 8 C-1 5 -0 3 0 0 Z " fill="#646A7E" transform="translate(73,378)"/>
<path d="M0 0 C1 2 3 4 4 6 C7 10 9 14 12 17 C18 25 22 31 24 40 C25 41 25 42 26 43 C27 46 27 46 28 50 C28 53 28 53 31 56 C32 60 32 60 31 65 C30 66 30 66 27 69 C20 77 22 88 23 98 C23 102 23 105 23 108 C23 111 23 114 23 117 C23 133 23 133 19 140 C19 140 19 140 18 143 C17 143 17 144 16 145 C15 146 15 147 14 149 C12 151 12 151 8 152 C3 151 0 150 -4 146 C-4 143 -4 143 -4 140 C-4 138 -4 137 -3 136 C-3 135 -3 133 -3 132 C-3 130 -3 127 -2 125 C-2 124 -2 123 -2 122 C0 90 0 90 -3 76 C-2 76 -2 76 -1 76 C-1 72 -2 69 -3 65 C-6 60 -7 55 -7 50 C-8 49 -9 49 -10 48 C-10 47 -10 47 -10 46 C-11 45 -13 45 -14 44 C-18 33 -18 22 -14 11 C-11 7 -6 0 0 0 Z " fill="#7F8497" transform="translate(433,268)"/>
<path d="M0 0 C1 0 1 0 2 0 C3 1 5 3 6 4 C6 7 6 10 4 13 C6 12 7 12 9 11 C20 10 29 13 39 16 C42 17 42 17 46 16 C49 16 49 16 52 18 C54 21 54 21 55 26 C51 31 46 34 41 37 C40 38 39 38 38 39 C34 42 29 45 24 47 C20 50 20 50 17 53 C18 54 19 54 20 55 C23 57 23 57 24 59 C25 59 26 60 27 60 C28 63 28 63 28 66 C24 69 22 70 17 70 C16 70 15 70 14 70 C-4 69 -27 58 -39 46 C-39 44 -39 42 -39 40 C-37 38 -37 38 -33 35 C-20 26 -10 16 -2 2 C-1 1 -1 1 0 0 Z " fill="#C0C3CE" transform="translate(179,422)"/>
<path d="M0 0 C3 1 3 1 6 4 C5 7 5 7 1 10 C-3 13 -3 13 -4 17 C-3 20 -3 20 -1 22 C4 22 6 22 10 20 C15 20 15 20 21 20 C24 23 24 23 26 26 C26 27 26 27 26 28 C30 29 34 30 37 30 C38 31 39 31 40 31 C41 34 41 34 41 38 C35 38 29 38 22 38 C20 38 18 38 16 38 C13 38 10 38 7 38 C6 38 6 38 1 38 C-0 38 -2 38 -3 38 C-3 37 -3 37 -5 34 C-9 34 -9 34 -15 34 C-16 34 -17 34 -18 34 C-22 34 -25 34 -28 34 C-32 34 -37 34 -41 34 C-43 34 -45 34 -47 34 C-48 34 -49 34 -51 34 C-52 33 -52 31 -53 30 C-56 30 -56 30 -60 30 C-64 30 -64 30 -67 30 C-68 29 -68 27 -69 26 C-71 26 -72 26 -74 26 C-76 26 -77 26 -79 26 C-80 25 -80 23 -81 22 C-83 22 -85 22 -87 22 C-87 21 -87 21 -88 17 C-88 17 -87 16 -87 16 C-85 16 -83 16 -81 16 C-80 15 -80 13 -79 12 C-77 12 -75 12 -73 12 C-72 11 -72 9 -71 8 C-67 8 -67 8 -63 8 C-61 8 -59 8 -57 8 C-56 8 -56 8 -47 8 C-45 8 -43 8 -41 8 C-41 8 -41 8 -37 8 C-35 8 -34 8 -33 8 C-32 7 -32 5 -31 4 C-28 4 -28 4 -25 3 C-23 3 -22 3 -21 3 C-19 3 -18 3 -16 3 C-14 3 -11 3 -8 3 C-7 3 -6 3 -5 3 C-4 3 -3 3 -2 3 C-1 2 -1 1 0 0 Z " fill="#DADBE3" transform="translate(181,509)"/>
<path d="M0 0 C3 -1 3 -1 7 0 C10 5 10 5 10 7 C11 7 11 7 14 7 C16 7 18 7 20 7 C21 7 21 7 26 7 C31 7 33 8 37 12 C39 17 40 21 40 27 C38 29 38 29 33 29 C28 29 26 28 21 26 C19 26 17 26 15 26 C15 29 15 31 15 34 C15 36 15 37 15 39 C15 43 15 43 19 47 C20 48 21 48 22 49 C22 49 22 49 24 51 C24 53 23 54 23 56 C21 57 20 57 18 58 C17 60 17 61 16 63 C13 68 13 68 9 69 C5 69 5 69 0 66 C-4 66 -7 66 -11 67 C-13 66 -16 65 -18 64 C-21 64 -23 63 -26 63 C-26 64 -26 66 -26 67 C-27 67 -29 67 -30 67 C-30 65 -30 64 -30 62 C-31 62 -32 61 -33 61 C-34 58 -34 58 -34 55 C-33 54 -33 53 -32 52 C-27 53 -27 53 -25 56 C-24 57 -24 58 -23 59 C-20 55 -20 55 -20 52 C-22 47 -26 44 -30 41 C-33 38 -33 38 -34 35 C-34 34 -34 33 -34 32 C-35 32 -37 32 -38 33 C-43 33 -43 33 -45 32 C-44 31 -44 29 -43 28 C-41 28 -40 27 -38 27 C-38 28 -38 30 -38 31 C-29 30 -29 30 -27 29 C-21 29 -21 29 -19 30 C-15 30 -15 30 -10 30 C-9 29 -8 28 -7 27 C-6 27 -6 27 -5 27 C-5 27 -5 27 -4 24 C-1 23 1 22 4 21 C4 21 4 21 5 18 C5 17 4 16 4 15 C2 12 2 12 2 7 C1 6 -1 6 -2 5 C-1 3 -1 2 0 0 Z " fill="#C2C5D1" transform="translate(334,321)"/>
<path d="M0 0 C7 5 10 10 13 18 C14 31 13 42 6 52 C-0 58 -7 60 -15 60 C-22 59 -27 56 -31 51 C-38 41 -38 30 -35 17 C-33 12 -33 12 -30 8 C-30 7 -29 6 -28 5 C-20 -3 -10 -4 0 0 Z " fill="#0D0D10" transform="translate(269.375,147.5625)"/>
<path d="M0 0 C11 -0 23 9 31 15 C32 16 32 17 33 18 C33 19 32 21 32 22 C33 22 34 23 35 23 C35 24 35 26 35 27 C33 28 32 28 30 29 C28 31 26 33 23 35 C21 37 19 39 16 41 C10 45 8 48 7 55 C7 57 7 59 7 61 C7 62 7 62 7 67 C7 67 7 67 7 71 C4 71 4 71 1 70 C-1 66 -1 66 -0 62 C-0 61 -0 60 0 59 C-1 58 -3 57 -4 56 C-7 57 -7 57 -10 58 C-11 58 -11 58 -14 59 C-18 56 -20 55 -21 50 C-21 47 -21 47 -18 44 C-18 42 -18 41 -18 39 C-21 37 -25 35 -28 33 C-28 32 -29 31 -29 30 C-25 23 -19 18 -12 13 C-11 13 -11 13 -10 13 C-9 12 -9 10 -8 9 C-5 5 -5 5 -2 4 C-1 3 -1 1 0 0 Z " fill="#C2C4D0" transform="translate(329,45)"/>
<path d="M0 0 C1 0 1 0 2 0 C3 4 3 8 3 13 C3 14 3 15 3 17 C3 20 3 22 3 25 C3 32 3 37 6 44 C6 48 5 51 4 55 C3 66 3 77 3 88 C3 91 3 94 3 98 C3 100 3 102 3 104 C3 106 3 108 3 110 C3 116 4 121 5 127 C5 128 5 130 5 131 C6 131 6 131 7 131 C7 136 8 142 8 147 C9 147 9 147 10 147 C11 157 11 166 11 176 C11 177 10 179 10 180 C10 184 10 188 10 192 C11 192 11 192 12 192 C12 194 12 196 12 198 C11 210 11 223 11 236 C11 245 11 253 9 262 C10 262 10 262 11 262 C11 264 11 265 11 267 C10 267 10 267 9 267 C9 272 9 278 9 283 C9 283 8 283 8 283 C8 276 8 268 8 261 C7 261 6 261 5 261 C5 262 5 263 5 264 C5 293 5 293 1 298 C-4 299 -8 299 -13 298 C-13 297 -12 297 -12 296 C-8 296 -5 295 -1 295 C-1 285 -1 275 -1 264 C-1 261 -1 257 -1 254 C-1 249 -1 244 -1 239 C-1 237 -1 236 -1 234 C-1 233 -1 231 -1 230 C-1 228 -1 227 -1 226 C-1 225 -1 224 -1 223 C-2 223 -3 222 -4 222 C-4 219 -4 219 -4 214 C-4 213 -4 211 -4 210 C-4 208 -4 207 -4 205 C-4 204 -4 204 -4 200 C-4 199 -4 197 -4 196 C-4 194 -4 193 -4 191 C-4 190 -4 189 -4 188 C-3 188 -2 187 -1 187 C-1 184 -1 184 -1 180 C-1 178 -1 177 -1 175 C-1 173 -1 172 -1 170 C-1 169 -1 169 -1 164 C-1 159 -0 154 -0 149 C-0 144 -0 139 -0 133 C-0 123 -0 114 -0 104 C-0 92 -0 81 -0 70 C-0 46 -0 23 0 0 Z " fill="#1C1C22" transform="translate(561,217)"/>
<path d="M0 0 C5 1 5 1 8 5 C12 9 12 9 15 10 C19 10 19 10 24 9 C29 9 29 9 32 11 C33 12 33 13 34 14 C43 24 43 24 52 24 C54 23 55 23 57 22 C62 21 64 22 68 25 C69 26 70 27 71 28 C71 29 71 29 70 33 C60 38 42 45 31 42 C30 41 30 39 29 38 C30 37 30 37 33 35 C34 33 36 32 37 31 C35 26 35 26 33 25 C30 26 27 28 24 29 C21 31 17 32 14 34 C13 35 11 35 10 36 C-1 40 -14 40 -25 38 C-26 37 -27 36 -28 35 C-23 26 -15 22 -5 18 C-2 16 -2 16 -1 13 C-1 12 -1 11 -1 10 C-3 10 -5 11 -7 11 C-7 10 -8 8 -8 7 C-5 5 -5 5 -2 3 C-1 2 -1 1 0 0 Z " fill="#2E3060" transform="translate(64,450)"/>
<path d="M0 0 C2 7 1 13 -1 20 C-4 29 -3 35 1 44 C5 58 5 74 3 89 C-1 93 -4 92 -10 93 C-11 93 -12 93 -13 93 C-17 93 -20 93 -23 93 C-25 93 -28 93 -30 93 C-35 93 -41 93 -46 93 C-38 85 -29 84 -18 84 C-14 84 -11 84 -7 85 C-6 85 -4 85 -3 85 C1 76 0 64 -1 54 C-5 48 -6 48 -12 46 C-20 45 -25 45 -31 50 C-33 50 -35 50 -37 50 C-40 47 -40 47 -42 44 C-45 39 -48 35 -53 32 C-56 32 -56 32 -59 33 C-62 36 -62 36 -64 38 C-65 38 -65 38 -66 38 C-66 39 -67 39 -67 40 C-67 38 -67 35 -67 33 C-67 31 -67 30 -67 29 C-67 25 -67 25 -65 23 C-62 21 -60 20 -56 20 C-54 22 -54 22 -51 24 C-47 28 -44 29 -38 29 C-28 27 -18 23 -11 15 C-10 11 -9 8 -8 4 C-8 3 -7 2 -7 1 C-2 0 -2 0 0 0 Z " fill="#6C71CC" transform="translate(532,423)"/>
<path d="M0 0 C1 1 2 1 3 2 C3 3 3 5 3 6 C3 7 3 9 3 10 C5 10 6 11 8 11 C10 12 11 12 13 13 C17 15 20 15 24 16 C29 16 31 16 34 20 C36 23 38 27 40 30 C42 32 43 33 45 35 C46 37 47 38 48 40 C51 44 51 44 55 46 C55 47 55 47 57 51 C51 57 45 59 38 59 C36 59 34 59 32 60 C28 59 28 59 25 56 C23 52 23 52 21 48 C20 45 20 45 16 42 C14 42 12 42 11 42 C5 42 3 41 -1 38 C-2 38 -2 38 -5 39 C-8 36 -8 33 -8 29 C-8 27 -7 26 -7 24 C-7 23 -7 21 -6 20 C-5 13 -4 6 0 0 Z " fill="#9093A1" transform="translate(81,345)"/>
<path d="M0 0 C6 3 8 7 11 13 C11 17 12 21 13 25 C13 25 13 25 14 27 C15 42 17 58 7 71 C1 77 -6 78 -14 80 C-18 80 -18 80 -23 77 C-25 77 -27 77 -28 77 C-29 76 -29 76 -29 76 C-29 74 -29 72 -29 71 C-24 70 -24 70 -20 70 C-13 71 -9 69 -4 65 C4 55 6 44 5 32 C3 26 2 23 -2 19 C-7 17 -11 17 -15 18 C-16 18 -17 18 -17 19 C-17 23 -16 27 -15 31 C-17 32 -18 33 -19 35 C-26 35 -28 34 -33 31 C-35 30 -36 29 -37 29 C-39 22 -34 15 -30 9 C-22 -1 -13 -5 0 0 Z " fill="#ECEDEF" transform="translate(389.4375,133.25)"/>
<path d="M0 0 C5 2 7 6 10 11 C13 22 11 33 6 43 C2 49 -3 54 -10 55 C-16 55 -21 54 -26 51 C-27 48 -27 48 -28 45 C-29 43 -31 42 -32 40 C-35 34 -34 25 -32 19 C-30 16 -30 16 -28 14 C-23 15 -23 15 -20 17 C-18 17 -16 17 -14 17 C-13 16 -12 15 -11 14 C-12 11 -12 8 -13 5 C-13 4 -13 3 -13 2 C-9 -1 -5 -0 0 0 Z " fill="#040407" transform="translate(384,150)"/>
<path d="M0 0 C1 -0 3 -0 4 -0 C8 0 11 1 15 2 C16 2 18 2 20 2 C20 6 20 11 20 15 C20 16 20 17 20 18 C20 30 20 30 17 34 C11 36 6 35 0 35 C-1 35 -2 35 -4 35 C-8 35 -12 35 -16 35 C-19 35 -22 35 -25 35 C-32 35 -39 35 -46 35 C-46 34 -46 33 -46 32 C-46 28 -46 28 -47 25 C-48 21 -48 21 -47 16 C-47 17 -47 18 -46 19 C-41 22 -36 23 -30 21 C-26 19 -24 16 -21 12 C-15 4 -10 0 0 0 Z " fill="#656BC9" transform="translate(623.25,479.8125)"/>
<path d="M0 0 C-1 2 -1 5 -2 7 C-2 10 -2 10 1 14 C1 15 1 15 1 16 C2 16 3 17 4 17 C11 24 11 24 12 29 C9 33 7 35 2 38 C1 39 0 41 -1 42 C-4 46 -4 46 -9 47 C-10 47 -12 46 -13 46 C-17 45 -17 45 -21 46 C-21 46 -21 46 -24 46 C-26 44 -26 44 -28 41 C-32 34 -37 28 -43 22 C-44 21 -45 20 -46 19 C-44 15 -44 15 -40 13 C-39 12 -39 11 -38 11 C-32 5 -26 3 -18 2 C-13 -1 -6 0 0 0 Z " fill="#C1C4D0" transform="translate(264,48)"/>
<path d="M0 0 C0 1 0 3 0 4 C5 7 9 6 15 6 C17 6 18 6 20 7 C24 7 24 7 28 6 C28 6 28 6 31 6 C36 11 38 16 38 23 C38 23 38 23 35 24 C35 25 35 25 37 28 C37 31 37 31 35 34 C32 34 32 34 27 34 C25 34 24 35 22 36 C13 38 5 37 -4 34 C-6 34 -9 34 -11 34 C-18 33 -23 32 -29 30 C-30 26 -30 26 -28 22 C-26 19 -24 18 -20 16 C-19 16 -19 16 -18 16 C-18 15 -17 14 -17 13 C-16 13 -16 13 -15 13 C-15 12 -14 10 -14 9 C-11 2 -8 -1 0 0 Z " fill="#C1C4D0" transform="translate(379,212)"/>
<path d="M0 0 C5 3 5 3 7 7 C8 14 8 20 8 28 C8 29 8 30 8 32 C7 38 7 44 6 50 C5 50 4 50 3 50 C3 54 3 57 3 61 C2 61 2 61 1 61 C-0 57 -1 53 -1 48 C-2 44 -3 43 -7 41 C-10 40 -14 39 -17 38 C-18 38 -18 38 -23 36 C-28 35 -28 35 -33 34 C-37 34 -40 33 -43 31 C-44 31 -45 30 -46 30 C-49 28 -49 28 -52 24 C-52 19 -51 18 -47 14 C-43 14 -40 15 -36 17 C-34 16 -34 16 -31 13 C-27 10 -24 8 -19 7 C-11 6 -8 0 0 0 Z " fill="#9093A1" transform="translate(181,322)"/>
<path d="M0 0 C1 0 1 1 2 1 C2 2 2 2 2 3 C3 3 3 3 7 4 C6 5 6 6 5 7 C5 8 4 10 4 11 C3 12 2 14 2 15 C-1 21 -1 25 1 31 C6 36 12 39 18 43 C22 45 25 46 27 51 C28 54 28 54 27 58 C20 59 14 56 8 54 C6 54 5 53 4 53 C-4 50 -11 47 -19 44 C-22 42 -22 42 -26 40 C-30 39 -30 39 -34 36 C-34 34 -34 32 -34 30 C-32 28 -32 28 -28 25 C-19 18 -10 10 -2 1 C-1 1 -1 0 0 0 Z " fill="#9DA1AE" transform="translate(174,432)"/>
<path d="M0 0 C0 0 1 0 1 0 C2 5 2 7 0 12 C-1 12 -1 12 -2 12 C-2 13 -3 13 -3 14 C-5 14 -7 15 -9 15 C-9 16 -10 16 -10 17 C-13 18 -15 18 -18 19 C-26 21 -26 21 -27 22 C-29 22 -31 22 -33 22 C-34 23 -36 23 -37 23 C-39 23 -42 23 -45 23 C-46 23 -47 23 -48 23 C-50 23 -51 24 -52 24 C-55 24 -55 24 -60 26 C-64 26 -67 27 -71 27 C-72 27 -73 27 -74 27 C-83 27 -91 27 -99 27 C-100 27 -100 27 -103 27 C-115 27 -125 25 -135 19 C-136 18 -137 17 -138 16 C-137 15 -137 13 -136 12 C-130 11 -125 12 -119 13 C-112 15 -105 16 -97 17 C-96 17 -96 18 -95 18 C-89 18 -84 18 -78 18 C-76 18 -75 18 -73 18 C-72 18 -70 18 -69 18 C-68 18 -68 18 -64 17 C-61 17 -61 17 -58 14 C-55 14 -55 14 -51 14 C-45 15 -39 15 -33 14 C-33 14 -33 14 -31 16 C-30 15 -28 13 -27 12 C-24 11 -21 10 -18 9 C-12 7 -8 5 -3 2 C-2 2 -1 2 0 2 C0 1 0 1 0 0 Z " fill="#BCBECA" transform="translate(347,473)"/>
<path d="M0 0 C1 3 1 3 1 8 C1 9 1 9 1 13 C1 15 1 16 1 18 C1 20 1 22 1 24 C1 29 1 34 1 38 C1 41 0 44 1 47 C1 53 0 59 0 65 C0 66 0 68 0 70 C0 72 0 73 0 75 C0 77 0 78 0 80 C0 81 0 82 0 83 C-4 86 -7 85 -12 85 C-15 81 -15 79 -15 74 C-15 73 -15 71 -15 70 C-15 68 -15 67 -15 65 C-15 63 -15 62 -15 60 C-15 57 -15 54 -15 50 C-15 45 -15 40 -15 35 C-15 32 -15 28 -15 25 C-15 24 -15 22 -15 20 C-15 20 -15 20 -15 16 C-15 15 -15 14 -15 12 C-15 8 -13 5 -9 2 C-5 -1 -5 -1 0 0 Z " fill="#EDEEF0" transform="translate(455,430)"/>
<path d="M0 0 C0 1 0 1 1 4 C2 4 3 5 4 5 C6 11 7 16 8 22 C8 23 9 24 9 25 C10 25 11 26 12 26 C12 27 12 27 12 28 C13 28 13 28 14 28 C19 42 21 57 17 72 C17 72 16 72 16 72 C16 71 16 71 15 64 C14 64 13 64 12 64 C11 61 11 61 11 56 C10 51 9 48 8 44 C8 43 8 43 8 40 C7 35 5 31 2 27 C-5 23 -10 21 -18 22 C-24 24 -27 27 -31 31 C-32 31 -32 31 -33 31 C-35 28 -36 24 -37 20 C-39 17 -39 17 -43 14 C-43 12 -43 11 -43 9 C-42 9 -41 9 -40 9 C-28 7 -12 0 0 0 Z " fill="#BCBFCB" transform="translate(392,110)"/>
<path d="M0 0 C8 5 8 5 9 8 C10 16 11 25 9 33 C9 37 9 37 10 40 C10 41 10 42 10 43 C6 46 6 46 2 48 C2 49 1 49 1 50 C-1 50 -3 50 -5 50 C-5 51 -5 51 -5 52 C-10 51 -10 51 -13 47 C-13 44 -13 44 -14 40 C-14 38 -14 37 -14 36 C-14 34 -14 33 -14 31 C-14 30 -14 28 -14 27 C-14 13 -14 13 -13 9 C-11 8 -8 7 -6 6 C-5 4 -4 3 -3 1 C-2 1 -1 0 0 0 Z " fill="#6C71CC" transform="translate(374,462)"/>
<path d="M0 0 C5 1 5 1 8 5 C12 9 12 9 15 10 C19 10 19 10 24 9 C29 9 29 9 32 11 C33 12 33 13 34 14 C43 24 43 24 52 24 C54 23 55 23 57 22 C62 21 64 22 68 25 C69 26 70 27 71 28 C71 29 71 29 70 33 C60 38 42 45 31 42 C30 41 30 39 29 38 C30 37 30 37 33 35 C34 33 36 32 37 31 C35 26 35 26 34 25 C34 24 34 23 34 22 C34 21 34 21 33 18 C25 16 19 16 11 17 C7 17 3 17 -1 16 C-1 14 -1 12 -1 10 C-3 10 -5 11 -7 11 C-7 10 -8 8 -8 7 C-5 5 -5 5 -2 3 C-1 2 -1 1 0 0 Z " fill="#2C2E53" transform="translate(64,450)"/>
<path d="M0 0 C6 1 10 2 15 7 C16 10 18 14 19 17 C23 25 28 33 36 37 C37 37 39 37 40 37 C45 38 45 38 49 42 C48 42 48 42 44 43 C42 44 41 44 39 45 C39 46 39 46 39 47 C33 52 33 52 30 52 C30 53 30 53 28 57 C27 58 26 59 25 59 C22 62 21 64 19 68 C18 69 18 70 17 71 C13 71 13 71 10 71 C10 70 9 68 9 67 C10 66 10 65 11 64 C18 51 16 32 12 18 C10 11 5 6 0 0 Z " fill="#BDC0CC" transform="translate(274,134)"/>
<path d="M0 0 C1 0 3 0 4 0 C4 1 4 1 5 4 C6 4 7 4 8 4 C6 8 4 10 1 13 C-2 18 -2 18 -4 22 C-5 22 -5 22 -8 24 C-9 27 -9 27 -9 31 C-9 39 -9 39 -11 42 C-17 42 -17 42 -19 41 C-21 41 -22 41 -24 41 C-29 40 -29 40 -32 37 C-36 31 -37 30 -37 23 C-32 15 -23 13 -15 10 C-10 9 -10 9 -8 7 C-6 6 -5 6 -3 5 C-2 3 -1 2 0 0 Z " fill="#C1C4D0" transform="translate(421,264)"/>
<path d="M0 0 C0 0 0 0 2 2 C5 5 7 6 11 6 C11 6 11 6 14 6 C17 6 20 6 23 5 C25 18 24 27 17 38 C16 39 16 40 15 42 C13 44 13 44 9 45 C4 44 1 43 -3 39 C-3 34 -3 30 -2 25 C-2 21 -1 16 -1 12 C-1 9 -1 7 -0 5 C-0 3 -0 2 0 0 Z " fill="#646A7D" transform="translate(432,375)"/>
<path d="M0 0 C8 4 14 12 19 20 C17 25 17 25 15 27 C3 30 -4 29 -15 23 C-16 23 -16 23 -19 22 C-20 22 -21 22 -22 22 C-23 20 -24 19 -25 17 C-22 14 -22 14 -17 10 C-16 9 -15 8 -14 6 C-10 1 -7 0 0 0 Z " fill="#F2AE1F" transform="translate(331,190)"/>
<path d="M0 0 C2 -0 3 -0 5 -0 C7 -0 9 0 11 0 C12 0 12 0 16 -0 C17 -0 17 -0 22 0 C23 0 25 0 27 0 C30 0 30 0 33 1 C34 2 34 2 34 6 C35 7 35 7 35 10 C39 12 39 12 42 13 C38 16 32 16 26 16 C25 16 25 16 22 16 C-8 17 -8 17 -13 15 C-12 13 -12 11 -11 8 C-11 7 -11 6 -10 4 C-9 -2 -6 0 0 0 Z " fill="#C7C9D4" transform="translate(325.5234375,531.8671875)"/>
<path d="M0 0 C1 -0 1 -0 4 -0 C7 -0 9 -0 12 0 C16 0 20 0 24 -0 C27 -0 29 -0 32 0 C33 -0 35 -0 36 -0 C41 0 45 0 50 2 C53 7 52 12 52 17 C52 19 52 20 52 21 C52 25 52 29 52 32 C52 35 52 38 52 40 C52 47 52 53 52 59 C49 52 49 46 48 39 C48 34 47 30 46 26 C45 26 45 26 44 26 C43 17 43 17 44 13 C45 13 45 12 46 11 C42 7 42 7 39 7 C38 7 37 7 36 7 C34 7 33 7 32 7 C29 7 29 7 25 8 C23 8 21 8 18 8 C17 8 16 8 15 8 C14 8 13 8 12 8 C12 8 12 7 12 6 C3 7 -6 7 -16 7 C-16 6 -16 6 -17 2 C-11 -1 -6 -0 0 0 Z " fill="#858DDC" transform="translate(483.90234375,341.734375)"/>
<path d="M0 0 C4 2 4 2 6 6 C7 12 8 18 8 25 C5 29 2 30 -2 33 C-4 33 -6 33 -8 33 C-11 30 -11 30 -12 27 C-13 27 -14 26 -15 26 C-15 25 -16 24 -16 23 C-18 22 -19 21 -21 20 C-22 19 -23 18 -24 17 C-24 16 -24 14 -24 13 C-23 13 -23 13 -22 13 C-21 12 -21 10 -20 9 C-18 9 -17 8 -15 8 C-9 7 -5 5 -1 2 C-1 1 -0 1 0 0 Z " fill="#0F1121" transform="translate(381,164)"/>
<path d="M0 0 C1 0 3 1 4 1 C4 2 5 3 5 4 C6 4 7 4 8 4 C8 101 8 199 8 299 C7 299 7 299 6 299 C6 298 6 298 6 294 C6 258 6 222 6 185 C6 168 6 150 6 133 C6 117 6 102 6 87 C6 79 6 71 6 63 C6 55 6 47 6 40 C6 37 6 34 6 31 C6 27 6 24 6 20 C6 19 6 18 6 16 C5 10 5 7 1 2 C1 1 0 1 0 0 Z " fill="#EBECEF" transform="translate(647,213)"/>
<path d="M0 0 C0 0 0 0 2 3 C3 3 4 4 5 4 C4 5 4 7 3 8 C1 12 1 16 1 20 C0 22 0 24 0 26 C-2 27 -3 27 -5 28 C-10 26 -10 26 -14 23 C-14 22 -14 22 -14 21 C-26 21 -31 22 -41 29 C-42 29 -42 29 -43 29 C-44 30 -44 32 -45 33 C-47 35 -48 37 -50 39 C-55 45 -58 48 -58 56 C-56 61 -54 64 -51 68 C-48 71 -47 73 -47 77 C-54 74 -54 74 -55 71 C-57 68 -57 68 -61 64 C-64 59 -65 57 -65 51 C-64 49 -63 48 -62 46 C-61 46 -61 46 -60 46 C-59 44 -58 41 -57 39 C-55 36 -53 34 -50 32 C-49 30 -48 29 -47 27 C-41 22 -41 22 -38 22 C-38 21 -38 21 -38 20 C-32 17 -27 17 -20 17 C-18 17 -15 16 -13 16 C-12 16 -12 17 -11 17 C-9 17 -8 16 -6 16 C-5 12 -5 12 -4 7 C-3 5 -2 4 -1 2 C-1 1 -0 1 0 0 Z " fill="#D0D2DB" transform="translate(351,159)"/>
<path d="M0 0 C0 0 1 0 1 0 C2 6 2 12 2 18 C2 19 2 21 2 23 C2 23 2 23 2 28 C2 30 2 32 2 34 C2 37 2 41 2 45 C2 51 2 57 2 63 C2 67 2 70 2 74 C2 76 2 78 2 80 C2 89 2 99 1 109 C1 109 0 109 0 109 C-1 99 -1 88 -1 78 C-2 78 -2 78 -3 78 C-7 66 -6 53 -6 41 C-6 38 -6 34 -6 31 C-6 13 -6 13 -5 5 C-4 5 -2 5 -1 5 C-1 3 -0 2 0 0 Z " fill="#040407" transform="translate(569,270)"/>
<path d="M0 0 C1 0 1 0 2 0 C3 4 3 8 3 13 C3 14 3 15 3 17 C3 20 3 22 3 25 C3 32 3 37 6 44 C6 48 5 51 4 55 C3 66 3 76 3 87 C3 90 3 94 3 97 C3 109 3 120 5 132 C7 140 6 148 5 156 C4 163 3 170 3 177 C2 178 2 180 2 181 C1 181 1 182 0 182 C0 122 0 62 0 0 Z " fill="#25272B" transform="translate(561,217)"/>
<path d="M0 0 C8 -1 13 0 20 4 C27 7 32 8 40 7 C42 7 44 7 46 6 C46 6 46 6 50 6 C50 7 50 8 50 9 C51 13 51 13 53 16 C52 19 52 19 49 21 C44 23 41 23 36 22 C32 20 29 18 26 15 C24 14 24 14 18 14 C11 13 8 10 2 6 C1 6 1 5 0 5 C0 3 0 2 0 0 Z " fill="#C1C4D0" transform="translate(360,388)"/>
<path d="M0 0 C0 4 1 6 -2 10 C-6 13 -10 14 -15 16 C-25 20 -25 20 -26 24 C-26 25 -26 25 -27 27 C-28 28 -30 30 -31 31 C-32 31 -32 31 -33 31 C-35 28 -36 24 -37 20 C-39 17 -39 17 -43 14 C-43 12 -43 11 -43 9 C-42 9 -41 9 -40 9 C-28 7 -12 0 0 0 Z " fill="#C1C4D0" transform="translate(392,110)"/>
<path d="M0 0 C0 0 1 0 1 0 C3 15 3 29 3 44 C3 48 4 51 4 54 C4 56 4 58 4 60 C4 65 5 68 7 73 C7 77 7 80 6 84 C3 91 3 97 3 104 C3 105 3 106 3 107 C3 111 3 114 3 117 C4 117 4 117 5 117 C6 121 6 125 5 129 C4 129 3 129 2 129 C2 131 1 132 1 134 C1 134 0 134 0 134 C0 133 0 132 0 131 C0 126 0 121 0 116 C0 115 0 115 0 111 C0 110 0 108 0 106 C0 105 0 103 0 102 C0 97 0 97 -1 92 C-1 83 -1 74 -1 65 C-1 63 -1 61 -1 60 C-1 55 -1 50 -1 45 C-1 40 -0 35 -0 30 C-0 20 -0 10 0 0 Z " fill="#858DDC" transform="translate(571,275)"/>
<path d="M0 0 C1 -0 2 -0 3 -0 C6 -0 6 -0 11 0 C15 5 14 7 14 13 C14 14 14 16 14 18 C14 20 14 21 14 23 C14 25 14 27 14 28 C14 38 14 48 13 58 C13 58 12 58 12 58 C12 57 12 57 12 56 C12 55 11 53 11 52 C11 51 11 50 11 49 C10 45 10 45 8 40 C8 39 8 38 8 37 C7 37 7 37 6 37 C6 35 6 34 6 32 C6 29 6 27 6 24 C6 23 6 22 6 20 C6 19 6 18 6 17 C6 16 6 14 5 13 C5 10 5 10 2 6 C-1 6 -5 5 -8 4 C-9 4 -9 4 -13 2 C-10 -1 -5 0 0 0 Z " fill="#858DDC" transform="translate(415.9375,425.625)"/>
<path d="M0 0 C5 1 5 1 8 5 C12 9 12 9 15 10 C19 10 19 10 24 9 C29 9 29 9 32 11 C33 12 33 13 34 14 C37 18 41 21 45 24 C43 27 43 27 40 29 C36 28 36 28 34 25 C34 24 34 23 34 21 C34 20 33 19 33 18 C25 16 19 16 11 17 C7 17 3 17 -1 16 C-1 14 -1 12 -1 10 C-3 10 -5 11 -7 11 C-7 10 -8 8 -8 7 C-5 5 -5 5 -2 3 C-1 2 -1 1 0 0 Z " fill="#25272B" transform="translate(64,450)"/>
<path d="M0 0 C1 3 1 5 2 8 C2 9 2 11 2 12 C4 24 4 35 5 47 C5 49 5 50 5 52 C5 62 5 71 3 81 C2 81 2 81 1 81 C-2 78 -2 78 -2 75 C-2 74 -2 73 -2 72 C-2 71 -2 71 -2 68 C-2 67 -2 66 -2 64 C-2 63 -2 62 -2 61 C-2 51 -2 51 -1 48 C-0 48 1 48 2 48 C2 44 2 40 2 36 C0 36 -1 36 -3 36 C-3 36 -4 35 -4 35 C-4 31 -3 27 -2 22 C-2 19 -2 19 -4 15 C-7 10 -6 7 -5 1 C-2 0 -2 0 0 0 Z " fill="#D9DAE2" transform="translate(417,315)"/>
<path d="M0 0 C1 -0 3 -0 4 -0 C17 0 28 2 41 6 C39 9 39 9 38 12 C36 12 35 12 34 12 C34 11 34 9 34 7 C23 6 23 6 19 7 C16 7 13 7 10 7 C10 7 10 7 6 7 C5 6 4 6 3 6 C3 7 3 8 3 8 C-1 8 -5 9 -9 9 C-10 9 -10 9 -13 9 C-21 9 -21 9 -25 7 C-26 6 -27 4 -27 2 C-18 0 -9 -0 0 0 Z " fill="#D9DAE2" transform="translate(289.4375,37.75)"/>
<path d="M0 0 C0 0 1 0 1 0 C2 5 2 7 0 12 C-1 12 -1 12 -2 12 C-2 13 -3 13 -3 14 C-5 14 -7 15 -9 15 C-9 16 -10 16 -10 17 C-13 18 -15 18 -18 19 C-26 21 -26 21 -27 22 C-30 22 -33 23 -35 23 C-36 23 -36 23 -40 23 C-41 23 -43 23 -44 23 C-45 22 -45 21 -46 20 C-45 18 -44 17 -43 15 C-38 14 -38 14 -33 14 C-32 15 -32 15 -31 16 C-30 15 -28 13 -27 12 C-24 11 -21 10 -18 9 C-12 7 -8 5 -3 2 C-2 2 -1 2 0 2 C0 1 0 1 0 0 Z " fill="#A9ABB3" transform="translate(347,473)"/>
<path d="M0 0 C0 1 0 3 0 4 C1 19 2 29 12 40 C17 45 22 47 29 49 C30 49 32 50 33 50 C34 50 35 51 36 51 C36 51 36 51 35 53 C32 54 32 54 29 54 C29 53 29 53 29 52 C27 51 24 51 22 50 C15 49 10 47 5 44 C3 43 2 43 0 42 C-1 38 -1 38 -1 35 C-1 30 -3 21 -7 17 C-7 13 -7 9 -7 5 C-6 5 -6 5 -5 5 C-5 4 -5 3 -5 2 C-2 0 -2 0 0 0 Z " fill="#BDC0CC" transform="translate(217,166)"/>
<path d="M0 0 C1 4 1 4 0 7 C-6 11 -11 13 -18 12 C-20 12 -21 12 -22 11 C-22 10 -22 10 -22 9 C-26 8 -29 8 -33 8 C-34 9 -35 10 -36 11 C-40 14 -40 14 -43 14 C-46 13 -48 13 -50 12 C-55 11 -59 10 -64 10 C-64 10 -64 9 -64 9 C-55 8 -46 6 -37 5 C-29 4 -21 3 -13 1 C-9 1 -5 0 0 0 Z " fill="#EDEEF0" transform="translate(330,504)"/>
<path d="M0 0 C6 2 10 5 14 9 C18 10 18 10 21 11 C22 11 22 12 23 12 C23 11 24 9 24 8 C27 6 27 6 32 7 C33 11 33 11 32 14 C26 18 19 18 12 18 C6 17 2 14 -2 10 C-3 9 -5 9 -6 8 C-6 7 -7 6 -7 5 C-4 2 -4 2 0 0 Z " fill="#F3AF24" transform="translate(317,201)"/>
<path d="M0 0 C-0 2 -1 3 -1 5 C-4 6 -4 6 -7 7 C-8 7 -9 8 -10 8 C-13 9 -13 9 -18 10 C-20 11 -22 12 -24 13 C-25 13 -26 14 -27 14 C-29 16 -29 16 -31 19 C-32 19 -32 19 -36 22 C-42 27 -47 32 -52 38 C-54 40 -56 42 -58 44 C-60 44 -61 44 -63 44 C-52 23 -29 9 -8 1 C-6 0 -6 0 0 0 Z " fill="#D1D2DC" transform="translate(255,43)"/>
<path d="M0 0 C6 0 7 1 11 5 C12 10 12 13 9 18 C6 20 6 20 2 21 C-8 16 -8 16 -9 13 C-9 8 -9 6 -7 1 C-5 1 -3 1 -1 1 C-1 1 -0 0 0 0 Z " fill="#6369C5" transform="translate(369,471)"/>
<path d="M0 0 C1 0 1 0 4 1 C5 1 6 1 8 1 C21 4 21 4 27 5 C31 5 31 5 33 7 C31 7 31 7 20 8 C26 10 31 11 38 11 C38 11 38 12 38 12 C32 12 26 12 21 12 C19 12 17 12 16 12 C7 13 0 13 -7 7 C-8 6 -9 5 -10 4 C-7 -2 -6 -1 0 0 Z " fill="#B4B5BA" transform="translate(219.00390625,484.9609375)"/>
<path d="M0 0 C2 5 3 9 4 15 C4 17 4 19 4 21 C5 22 5 24 5 26 C5 27 5 29 6 30 C6 34 6 39 6 43 C4 43 3 42 1 42 C0 39 -1 36 -1 33 C-2 30 -2 30 -5 25 C-8 17 -8 10 -7 2 C-6 2 -5 2 -4 2 C-3 3 -3 3 -2 4 C-1 3 -1 1 0 0 Z " fill="#D9DAE2" transform="translate(411,172)"/>
<path d="M0 0 C1 0 3 0 4 0 C7 0 10 0 12 0 C17 0 21 0 25 0 C40 1 54 1 69 3 C69 4 69 4 69 5 C57 5 46 5 34 5 C30 5 26 5 22 5 C16 5 11 5 5 5 C4 5 4 5 -0 5 C-1 5 -1 5 -5 5 C-7 5 -8 5 -10 5 C-11 5 -12 5 -13 5 C-14 4 -14 2 -15 1 C-11 -1 -5 -0 0 0 Z " fill="#EDEEF0" transform="translate(251.0546875,546.05078125)"/>
<path d="M0 0 C1 1 3 1 4 2 C5 1 5 1 6 0 C7 1 8 2 9 3 C11 3 12 3 14 3 C17 7 17 7 19 11 C18 15 18 15 17 16 C15 16 14 16 12 16 C6 15 6 15 3 16 C0 16 0 16 -3 14 C-6 11 -6 11 -7 7 C-7 6 -7 5 -7 4 C-4 3 -4 3 -1 2 C-1 1 -0 1 0 0 Z " fill="#C2C5D1" transform="translate(259,292)"/>
<path d="M0 0 C1 1 2 2 3 3 C6 4 9 5 13 6 C22 8 22 8 24 9 C24 10 24 10 24 11 C23 11 23 11 22 11 C22 12 22 12 22 13 C23 13 24 14 25 14 C25 15 25 15 25 16 C19 19 14 19 8 17 C8 16 7 15 7 14 C4 14 4 14 1 14 C-1 14 -3 14 -5 14 C-3 6 -3 6 0 3 C0 2 0 1 0 0 Z " fill="#898C9C" transform="translate(134,265)"/>
<path d="M0 0 C1 1 2 1 3 2 C3 7 3 7 3 11 C3 11 3 11 1 12 C1 15 1 18 1 21 C1 23 1 24 2 26 C2 30 2 30 4 33 C4 36 4 38 4 41 C2 40 1 39 -1 38 C-2 38 -2 38 -5 39 C-8 36 -8 33 -8 29 C-8 27 -7 26 -7 24 C-7 23 -7 21 -6 20 C-5 13 -4 6 0 0 Z " fill="#9A9EAA" transform="translate(81,345)"/>
<path d="M0 0 C1 1 2 1 3 2 C7 4 7 4 13 4 C18 4 18 4 21 6 C25 10 26 13 28 18 C29 19 29 20 30 21 C34 21 34 21 39 21 C47 21 47 21 53 24 C54 26 55 27 56 28 C60 30 62 30 66 29 C68 29 70 28 72 28 C66 34 66 34 62 35 C57 34 56 33 52 30 C46 26 42 25 36 24 C28 23 28 23 24 20 C23 17 21 14 19 11 C16 7 16 7 13 6 C5 5 5 5 1 8 C0 7 -0 6 -1 5 C-2 5 -4 6 -5 6 C-5 5 -4 3 -4 2 C-3 2 -1 2 0 2 C0 1 0 1 0 0 Z " fill="#80859A" transform="translate(79,382)"/>
<path d="M0 0 C1 0 3 1 4 1 C3 2 1 4 0 5 C-1 7 -1 8 -2 10 C-1 10 1 9 2 9 C5 11 5 11 7 13 C7 16 7 16 6 19 C1 22 -0 23 -6 22 C-8 21 -9 20 -11 19 C-14 21 -14 21 -16 23 C-16 22 -17 21 -17 20 C-13 13 -7 5 0 0 Z " fill="#9295A1" transform="translate(123,278)"/>
<path d="M0 0 C1 1 3 1 4 2 C4 3 4 3 4 4 C5 4 5 4 6 4 C6 11 6 16 2 22 C-3 22 -3 22 -6 20 C-11 14 -11 14 -11 10 C-9 4 -5 2 0 0 Z " fill="#6C71CC" transform="translate(623,400)"/>
<path d="M0 0 C0 0 0 1 0 1 C-1 1 -2 1 -4 1 C-5 1 -7 2 -9 2 C-9 2 -9 2 -13 2 C-19 3 -23 5 -27 9 C-28 13 -28 16 -28 20 C-28 22 -28 24 -28 25 C-28 29 -28 32 -29 36 C-29 38 -29 39 -29 41 C-29 43 -29 44 -29 46 C-29 50 -30 54 -31 58 C-32 58 -32 58 -33 58 C-33 57 -33 56 -33 55 C-34 51 -34 51 -35 50 C-35 47 -35 43 -35 40 C-35 38 -35 36 -35 34 C-34 29 -33 26 -31 21 C-31 19 -31 17 -31 15 C-31 10 -31 8 -28 4 C-19 -4 -11 -2 0 0 Z " fill="#D9DAE2" transform="translate(380,414)"/>
<path d="M0 0 C1 0 1 1 2 1 C2 5 2 9 2 13 C3 19 3 25 5 32 C7 64 7 64 1 71 C-4 72 -8 72 -13 71 C-13 71 -13 71 -12 69 C-10 69 -10 69 -1 68 C-1 46 -0 23 0 0 Z " fill="#35373B" transform="translate(561,444)"/>
<path d="M0 0 C1 0 1 0 3 0 C6 0 6 0 9 2 C9 4 9 6 9 8 C3 8 -3 8 -9 9 C-11 9 -14 9 -16 9 C-19 9 -22 9 -25 9 C-26 9 -26 9 -30 9 C-32 9 -33 8 -35 8 C-35 7 -36 6 -37 4 C-30 3 -23 3 -16 4 C-10 3 -6 -0 0 0 Z " fill="#ECEDEF" transform="translate(212.625,538.6875)"/>
<path d="M0 0 C10 2 19 14 25 22 C26 24 27 26 28 28 C29 29 29 31 30 32 C36 44 36 44 36 46 C33 46 33 46 30 45 C29 42 29 42 29 39 C28 39 28 39 27 39 C25 36 25 36 24 33 C22 27 17 21 13 16 C10 13 10 13 10 11 C9 10 7 10 6 9 C6 8 5 7 5 6 C4 6 4 6 0 4 C0 3 0 1 0 0 Z " fill="#D7D8E0" transform="translate(361,63)"/>
<path d="M0 0 C5 1 9 3 13 5 C21 8 29 11 36 14 C37 14 38 14 39 15 C44 16 49 17 54 17 C54 16 54 16 53 13 C53 12 53 11 53 10 C53 9 52 8 52 7 C51 7 51 7 47 5 C46 4 45 3 44 2 C48 3 51 5 55 7 C55 7 55 7 56 9 C57 9 58 10 59 10 C60 13 60 13 60 16 C56 19 54 20 49 20 C48 20 47 20 46 20 C30 19 12 11 0 1 C0 1 0 0 0 0 Z " fill="#B4B5BA" transform="translate(147,472)"/>
<path d="M0 0 C9 9 9 9 9 16 C9 17 9 18 9 20 C9 21 9 22 9 23 C9 26 9 26 7 31 C6 32 5 32 4 33 C3 36 2 39 1 42 C1 42 0 42 0 42 C0 28 0 14 0 0 Z " fill="#858DDC" transform="translate(465,388)"/>
<path d="M0 0 C3 1 3 1 6 4 C5 7 5 7 1 10 C-3 13 -3 13 -4 17 C-4 18 -4 19 -4 20 C-5 19 -7 19 -8 18 C-8 16 -8 15 -8 13 C-14 10 -17 9 -23 9 C-25 9 -27 8 -29 8 C-30 8 -32 8 -33 8 C-32 7 -32 5 -31 4 C-28 4 -28 4 -25 3 C-24 3 -24 3 -21 3 C-19 3 -18 3 -16 3 C-14 3 -11 3 -8 3 C-7 3 -6 3 -5 3 C-4 3 -4 3 -2 3 C-1 2 -1 1 0 0 Z " fill="#EDEEF0" transform="translate(181,509)"/>
<path d="M0 0 C2 0 3 0 5 0 C4 5 1 8 -3 12 C-6 16 -6 18 -6 23 C-4 28 -2 31 1 35 C4 38 5 40 5 44 C-2 41 -2 41 -3 38 C-5 35 -5 35 -9 31 C-12 26 -13 24 -13 18 C-12 16 -11 15 -10 13 C-9 13 -9 13 -8 13 C-7 11 -6 8 -5 6 C-3 3 -3 3 0 0 Z " fill="#D7D8E0" transform="translate(299,192)"/>
<path d="M0 0 C1 0 1 0 4 0 C8 10 7 25 4 35 C4 35 4 35 4 35 C3 33 3 30 2 27 C2 27 1 27 -0 27 C-2 24 -2 24 -2 19 C-2 14 -3 11 -4 7 C-4 0 -4 0 0 0 Z " fill="#C7C9D4" transform="translate(404.5,146.8125)"/>
<path d="M0 0 C1 0 1 0 4 1 C7 7 8 12 8 18 C7 18 6 18 5 18 C5 20 5 22 5 24 C5 27 5 30 4 33 C4 37 4 41 5 45 C5 46 5 46 3 50 C2 50 0 50 -1 50 C-1 48 -1 47 -1 45 C1 30 1 15 0 0 Z " fill="#D9DAE2" transform="translate(196,333)"/>
<path d="M0 0 C3 3 4 5 5 9 C5 15 3 18 1 23 C0 27 0 30 -0 34 C-0 35 -1 36 -1 37 C-3 38 -4 38 -6 39 C-6 30 -5 22 -4 14 C-3 13 -3 11 -3 10 C-1 1 -1 1 0 0 Z " fill="#D9DAE2" transform="translate(161,162)"/>
<path d="M0 0 C1 0 1 0 4 3 C8 5 8 5 12 5 C13 6 14 6 15 7 C15 8 15 8 15 9 C14 9 13 10 12 10 C9 12 9 12 8 15 C1 14 -2 13 -6 8 C-9 7 -11 5 -14 4 C-13 3 -11 3 -10 2 C-5 -1 -5 -1 0 0 Z " fill="#F09F13" transform="translate(332,198)"/>
<path d="M0 0 C1 1 3 2 4 3 C4 9 3 10 0 15 C-1 18 -1 20 -2 23 C-3 23 -3 23 -4 23 C-4 25 -4 26 -3 28 C-3 30 -3 31 -3 33 C-7 35 -7 35 -11 35 C-11 38 -12 41 -12 44 C-12 43 -13 43 -13 42 C-14 42 -14 42 -15 42 C-15 36 -13 32 -10 27 C-6 18 -3 10 0 0 Z " fill="#CBCDD7" transform="translate(148,223)"/>
</svg>
