<?xml version="1.0" encoding="UTF-8"?>
<!-- Generator: visioncortex VTracer 0.6.12 -->
<svg version="1.1" xmlns="http://www.w3.org/2000/svg" width="596" height="556">
<path d="M0 0 C4 -0 8 -1 12 -0 C13 -1 14 -1 15 -1 C19 -1 19 -1 24 0 C25 1 25 3 26 4 C30 4 30 4 35 4 C40 4 40 4 44 4 C45 5 45 7 46 8 C48 8 49 8 51 8 C53 8 54 8 56 8 C57 9 57 11 58 12 C60 12 61 12 63 12 C65 12 66 12 68 12 C69 13 69 15 70 16 C71 16 71 16 74 18 C74 19 74 19 74 20 C76 20 78 20 80 20 C81 21 81 23 82 24 C83 24 83 24 86 26 C86 27 86 27 86 28 C88 28 90 28 92 28 C93 29 93 31 94 32 C95 33 97 33 98 34 C98 35 98 35 98 36 C99 37 101 37 102 38 C102 39 102 39 102 40 C103 40 104 40 105 40 C105 41 105 42 105 43 C106 47 106 47 110 50 C110 51 110 51 110 52 C111 53 113 53 114 54 C114 55 114 55 114 56 C115 56 116 56 117 56 C117 57 117 58 117 59 C118 61 118 62 118 63 C119 63 120 64 121 64 C121 66 122 69 122 71 C123 71 124 72 125 72 C125 74 126 77 126 79 C127 79 128 80 129 80 C129 84 130 88 130 92 C130 93 130 94 130 95 C131 95 132 96 133 96 C133 100 134 104 134 108 C134 109 134 110 134 111 C135 111 136 112 137 112 C137 118 137 124 138 129 C138 133 138 136 138 139 C139 139 140 140 141 140 C141 144 141 144 141 149 C141 150 141 152 141 154 C141 158 142 161 142 165 C142 167 142 169 142 170 C142 172 142 174 142 175 C142 177 142 178 142 179 C143 179 144 180 145 180 C145 185 145 190 146 195 C146 198 146 200 146 203 C147 203 148 204 149 204 C149 208 150 212 150 216 C150 217 150 218 150 219 C151 219 152 220 153 220 C153 222 154 225 154 227 C155 227 156 228 157 228 C157 229 157 230 157 232 C157 233 158 234 158 235 C162 236 165 236 169 236 C173 236 176 236 180 236 C181 237 181 239 182 240 C185 240 185 240 189 240 C193 240 193 240 196 240 C197 241 197 243 198 244 C201 244 201 244 205 244 C209 244 209 244 212 244 C213 245 213 247 214 248 C215 249 217 249 218 250 C218 251 218 251 218 252 C219 253 221 253 222 254 C222 255 222 255 222 256 C223 257 225 257 226 258 C226 259 226 259 226 260 C227 260 228 260 229 260 C229 261 229 263 229 264 C229 265 229 265 229 269 C229 271 229 273 229 275 C229 276 230 278 230 279 C233 280 233 280 237 281 C237 282 238 283 238 284 C244 284 249 284 255 284 C258 284 261 284 264 284 C265 285 265 287 266 288 C268 288 270 288 272 288 C273 289 273 291 274 292 C275 293 277 293 278 294 C278 295 278 295 278 296 C279 297 281 297 282 298 C282 299 282 299 282 300 C283 300 284 300 285 300 C285 301 285 301 285 303 C286 305 286 306 286 307 C287 307 288 308 289 308 C289 312 289 312 289 316 C289 318 289 320 289 321 C289 322 289 322 289 325 C288 326 287 326 286 327 C286 328 286 330 286 331 C287 332 288 332 289 333 C289 337 289 337 289 342 C289 343 289 345 289 346 C289 347 289 347 289 350 C288 350 287 351 286 351 C286 355 285 358 285 362 C284 362 283 362 282 362 C281 363 281 365 280 366 C280 366 280 366 278 367 C278 369 278 371 278 372 C277 374 277 376 277 378 C276 378 275 379 274 379 C273 383 273 383 273 386 C272 386 271 386 270 386 C269 387 269 389 268 390 C267 390 267 390 266 390 C265 391 265 393 264 394 C262 394 260 394 258 394 C257 395 257 397 256 398 C254 398 252 398 250 398 C249 399 249 401 248 402 C243 402 239 402 234 402 C231 402 231 402 226 403 C224 406 224 406 224 410 C223 410 223 411 222 411 C222 413 221 416 221 418 C220 418 219 418 218 418 C217 419 217 421 216 422 C215 422 215 422 214 422 C213 423 213 425 212 426 C210 426 208 426 206 426 C205 427 205 429 204 430 C202 430 200 430 198 430 C197 431 197 433 196 434 C192 434 189 434 185 434 C184 434 183 434 182 434 C181 435 181 437 180 438 C177 439 177 439 172 439 C171 439 169 439 168 439 C166 439 164 439 162 439 C161 439 159 439 157 439 C153 439 150 439 146 439 C140 439 134 439 129 439 C125 439 121 439 118 439 C116 439 114 439 112 439 C111 439 109 439 108 439 C107 439 107 439 103 439 C102 438 101 438 100 438 C99 437 99 435 98 434 C94 434 94 434 90 434 C89 435 89 437 88 438 C86 438 84 438 82 438 C81 439 81 441 80 442 C78 442 76 442 74 442 C73 443 73 445 72 446 C70 446 68 447 66 447 C66 448 65 449 65 450 C64 450 63 451 62 451 C62 455 62 455 62 459 C63 459 64 459 65 459 C66 459 68 459 69 459 C70 459 71 459 73 459 C74 460 75 460 76 460 C77 461 77 463 78 464 C80 464 82 464 84 464 C85 465 85 466 86 467 C87 467 89 468 90 468 C90 467 91 465 91 464 C94 465 94 465 95 467 C98 467 100 467 103 467 C104 467 104 467 108 467 C112 467 115 467 119 467 C120 467 120 467 124 467 C125 467 127 467 128 467 C129 468 129 468 132 468 C133 469 133 471 134 472 C137 472 137 472 141 472 C145 472 145 472 148 472 C149 473 149 475 150 476 C152 476 154 476 156 476 C157 477 157 479 158 480 C159 480 160 481 161 481 C161 483 160 484 160 486 C159 486 159 486 158 486 C157 487 157 489 156 490 C153 490 149 490 146 490 C145 491 145 493 144 494 C139 494 135 494 130 494 C129 494 127 494 126 494 C125 495 125 497 124 498 C121 498 121 498 116 498 C115 498 113 498 112 498 C109 498 105 498 102 498 C101 498 99 498 98 498 C96 498 95 498 93 498 C92 498 91 498 90 498 C89 499 89 501 88 502 C85 502 85 502 82 502 C80 502 79 502 78 502 C76 502 75 502 73 502 C73 502 73 502 69 502 C63 502 56 502 50 502 C46 502 41 502 37 502 C35 502 34 502 32 502 C31 502 30 502 28 502 C28 502 28 502 25 502 C24 502 23 502 22 502 C21 503 21 505 20 506 C16 506 11 507 7 507 C5 507 4 507 3 507 C-0 507 -3 507 -6 507 C-10 507 -14 507 -19 507 C-21 507 -24 507 -27 507 C-27 507 -27 507 -31 507 C-34 507 -37 506 -40 506 C-41 505 -41 503 -42 502 C-47 502 -51 502 -56 502 C-57 502 -58 502 -60 502 C-64 502 -69 502 -73 502 C-79 502 -85 502 -90 502 C-91 502 -91 502 -94 502 C-98 502 -101 502 -104 502 C-105 501 -105 499 -106 498 C-109 498 -109 498 -113 498 C-113 498 -113 498 -117 498 C-117 498 -117 498 -121 498 C-124 498 -127 498 -129 498 C-131 498 -132 498 -133 498 C-134 498 -135 498 -136 498 C-137 497 -137 495 -138 494 C-141 494 -141 494 -145 494 C-149 494 -149 494 -152 494 C-153 493 -153 491 -154 490 C-157 490 -157 490 -161 490 C-165 490 -165 490 -168 490 C-169 489 -169 487 -170 486 C-171 486 -172 485 -173 485 C-173 483 -172 482 -172 480 C-171 480 -171 480 -170 480 C-169 479 -169 477 -168 476 C-164 476 -161 476 -157 476 C-156 476 -155 476 -154 476 C-153 475 -153 473 -152 472 C-148 472 -145 472 -141 472 C-140 472 -139 472 -138 472 C-137 471 -137 469 -136 468 C-133 468 -133 468 -129 468 C-128 468 -127 468 -125 468 C-122 468 -120 468 -117 468 C-115 468 -114 468 -113 468 C-111 468 -110 468 -109 468 C-108 468 -108 468 -106 468 C-105 467 -105 465 -104 464 C-103 464 -103 464 -102 464 C-101 463 -101 461 -100 460 C-99 460 -99 459 -98 459 C-98 458 -98 456 -98 455 C-100 455 -101 455 -103 455 C-104 455 -104 455 -108 454 C-109 453 -109 451 -110 450 C-112 450 -114 450 -116 450 C-117 449 -117 447 -118 446 C-120 446 -122 446 -124 446 C-125 445 -125 443 -126 442 C-128 442 -130 442 -132 442 C-133 441 -133 439 -134 438 C-135 437 -137 437 -138 436 C-138 435 -138 435 -138 434 C-142 434 -142 434 -146 434 C-147 435 -147 437 -148 438 C-151 438 -155 438 -158 438 C-159 439 -159 441 -160 442 C-163 442 -167 442 -170 442 C-171 443 -171 445 -172 446 C-175 447 -175 447 -178 447 C-179 447 -181 447 -182 447 C-183 447 -185 447 -186 446 C-187 447 -189 447 -190 447 C-191 447 -192 447 -194 447 C-195 447 -196 447 -197 447 C-198 446 -199 446 -200 446 C-200 445 -200 445 -202 442 C-203 441 -205 441 -206 440 C-206 439 -206 439 -206 438 C-208 438 -210 438 -212 438 C-213 438 -214 438 -215 438 C-216 438 -216 438 -218 438 C-219 439 -219 441 -220 442 C-225 443 -225 443 -230 442 C-232 443 -234 443 -236 443 C-237 442 -238 442 -240 442 C-241 441 -241 439 -242 438 C-244 438 -246 438 -248 438 C-249 437 -249 435 -250 434 C-251 434 -252 434 -253 434 C-253 433 -253 431 -253 430 C-253 428 -253 426 -253 425 C-253 424 -253 424 -253 419 C-254 418 -254 416 -254 415 C-255 415 -256 414 -257 414 C-257 411 -257 411 -257 407 C-257 406 -257 404 -257 403 C-257 402 -257 401 -257 400 C-256 400 -255 400 -254 400 C-254 399 -254 399 -252 396 C-251 396 -251 396 -250 396 C-250 395 -250 395 -248 392 C-247 392 -247 392 -246 392 C-246 391 -246 391 -244 388 C-243 388 -243 388 -242 388 C-242 387 -242 387 -240 384 C-238 384 -236 384 -234 384 C-234 383 -234 383 -232 380 C-230 380 -228 380 -226 380 C-226 379 -226 379 -224 376 C-222 376 -220 376 -218 376 C-217 375 -217 373 -216 372 C-214 372 -212 372 -210 372 C-209 371 -209 369 -208 368 C-207 368 -207 368 -206 368 C-205 367 -205 365 -204 364 C-203 364 -203 363 -202 363 C-202 360 -202 357 -202 354 C-202 352 -202 350 -202 348 C-202 345 -202 341 -202 338 C-202 335 -201 332 -201 329 C-201 328 -201 326 -201 324 C-201 323 -201 323 -201 320 C-200 320 -199 319 -198 319 C-198 317 -198 315 -198 314 C-197 312 -197 310 -197 308 C-196 308 -195 307 -194 307 C-194 305 -194 303 -194 302 C-193 300 -193 298 -193 296 C-192 296 -191 295 -190 295 C-190 293 -190 291 -190 290 C-189 288 -189 286 -189 284 C-188 284 -187 283 -186 283 C-186 282 -186 281 -186 280 C-185 278 -185 277 -185 276 C-184 276 -183 275 -182 275 C-181 271 -181 271 -181 268 C-180 268 -179 268 -178 268 C-177 267 -177 265 -176 264 C-175 264 -175 263 -174 263 C-174 261 -173 258 -173 256 C-172 256 -171 256 -170 256 C-169 255 -169 253 -168 252 C-167 252 -167 251 -166 251 C-166 249 -165 246 -165 244 C-164 244 -163 244 -162 244 C-161 243 -161 241 -160 240 C-159 240 -159 240 -158 240 C-157 239 -157 237 -156 236 C-155 236 -155 236 -154 236 C-153 235 -153 233 -152 232 C-151 232 -151 231 -150 231 C-150 230 -150 229 -150 228 C-149 227 -149 227 -149 224 C-148 224 -147 223 -146 223 C-146 222 -146 221 -146 220 C-145 218 -145 217 -145 216 C-144 216 -143 215 -142 215 C-142 214 -142 213 -142 212 C-141 210 -141 209 -141 208 C-140 208 -139 207 -138 207 C-138 206 -138 205 -138 204 C-137 202 -137 201 -137 200 C-136 200 -135 199 -134 199 C-134 197 -134 195 -134 194 C-133 192 -133 190 -133 188 C-132 188 -131 187 -130 187 C-130 185 -130 183 -130 182 C-129 180 -129 178 -129 176 C-128 176 -127 175 -126 175 C-126 172 -126 172 -126 168 C-125 163 -125 163 -125 160 C-124 160 -123 159 -122 159 C-122 155 -122 155 -122 150 C-121 144 -121 144 -121 140 C-120 140 -119 139 -118 139 C-118 135 -118 135 -118 130 C-117 124 -117 124 -117 120 C-116 120 -115 119 -114 119 C-114 116 -114 116 -114 112 C-113 107 -113 107 -113 104 C-112 104 -111 103 -110 103 C-110 101 -110 99 -110 98 C-109 96 -109 94 -109 92 C-108 92 -107 91 -106 91 C-106 90 -106 89 -106 88 C-105 86 -105 85 -105 84 C-104 84 -103 83 -102 83 C-102 82 -102 81 -102 80 C-101 78 -101 77 -101 76 C-100 76 -99 75 -98 75 C-98 74 -98 73 -98 72 C-97 70 -97 69 -97 68 C-96 68 -95 67 -94 67 C-93 63 -93 63 -93 60 C-92 60 -91 60 -90 60 C-89 59 -89 57 -88 56 C-87 56 -87 55 -86 55 C-86 53 -85 50 -85 48 C-84 48 -83 48 -82 48 C-81 47 -81 45 -80 44 C-79 44 -79 44 -78 44 C-77 43 -77 41 -76 40 C-75 40 -75 40 -74 40 C-73 39 -73 37 -72 36 C-71 36 -71 36 -70 36 C-69 35 -69 33 -68 32 C-67 32 -67 32 -66 32 C-65 31 -65 29 -64 28 C-63 28 -63 28 -62 28 C-61 27 -61 25 -60 24 C-59 24 -59 24 -58 24 C-57 23 -57 21 -56 20 C-54 20 -52 20 -50 20 C-49 19 -49 17 -48 16 C-46 16 -44 16 -42 16 C-41 15 -41 13 -40 12 C-38 12 -36 12 -34 12 C-33 11 -33 9 -32 8 C-29 8 -25 8 -22 8 C-21 7 -21 5 -20 4 C-15 4 -11 4 -6 4 C-5 4 -3 4 -2 4 C-1 3 -1 1 0 0 Z " fill="#C8CAD4" transform="translate(282,25)"/>
<path d="M0 0 C4 -0 8 -1 12 -0 C13 -1 14 -1 15 -1 C19 -1 19 -1 24 0 C25 1 25 3 26 4 C30 4 30 4 35 4 C40 4 40 4 44 4 C45 5 45 7 46 8 C48 8 49 8 51 8 C53 8 54 8 56 8 C57 9 57 11 58 12 C60 12 61 12 63 12 C65 12 66 12 68 12 C69 13 69 15 70 16 C71 16 71 16 74 18 C74 19 74 19 74 20 C76 20 78 20 80 20 C81 21 81 23 82 24 C83 24 83 24 86 26 C86 27 86 27 86 28 C88 28 90 28 92 28 C93 29 93 31 94 32 C95 33 97 33 98 34 C98 35 98 35 98 36 C99 37 101 37 102 38 C102 39 102 39 102 40 C103 40 104 40 105 40 C105 41 105 42 105 43 C106 47 106 47 110 50 C110 51 110 51 110 52 C111 53 113 53 114 54 C114 55 114 55 114 56 C115 56 116 56 117 56 C117 57 117 58 117 59 C118 61 118 62 118 63 C119 63 120 64 121 64 C121 66 122 69 122 71 C123 71 124 72 125 72 C125 74 126 77 126 79 C127 79 128 80 129 80 C129 84 130 88 130 92 C130 93 130 94 130 95 C131 95 132 96 133 96 C133 100 134 104 134 108 C134 109 134 110 134 111 C135 111 136 112 137 112 C137 118 137 124 138 129 C138 133 138 136 138 139 C139 139 140 140 141 140 C141 144 141 144 141 149 C141 150 141 152 141 154 C141 158 142 161 142 165 C142 167 142 169 142 170 C142 172 142 174 142 175 C142 177 142 178 142 179 C143 179 144 180 145 180 C145 185 145 190 146 195 C146 198 146 200 146 203 C147 203 148 204 149 204 C149 208 150 212 150 216 C150 217 150 218 150 219 C151 219 152 220 153 220 C153 222 154 225 154 227 C155 227 156 228 157 228 C157 229 157 230 157 232 C157 233 158 234 158 235 C162 236 165 236 169 236 C173 236 176 236 180 236 C181 237 181 239 182 240 C185 240 185 240 189 240 C193 240 193 240 196 240 C197 241 197 243 198 244 C201 244 201 244 205 244 C209 244 209 244 212 244 C213 245 213 247 214 248 C215 249 217 249 218 250 C218 251 218 251 218 252 C219 253 221 253 222 254 C222 255 222 255 222 256 C223 257 225 257 226 258 C226 259 226 259 226 260 C227 260 228 260 229 260 C229 261 229 263 229 264 C229 265 229 265 229 269 C229 271 229 273 229 275 C229 276 230 278 230 279 C233 280 233 280 237 281 C237 282 238 283 238 284 C244 284 249 284 255 284 C258 284 261 284 264 284 C265 285 265 287 266 288 C268 288 270 288 272 288 C273 289 273 291 274 292 C275 293 277 293 278 294 C278 295 278 295 278 296 C279 297 281 297 282 298 C282 299 282 299 282 300 C283 300 284 300 285 300 C285 301 285 301 285 303 C286 305 286 306 286 307 C287 307 288 308 289 308 C289 312 289 312 289 316 C289 318 289 320 289 321 C289 322 289 322 289 325 C288 326 287 326 286 327 C286 328 286 330 286 331 C287 332 288 332 289 333 C289 337 289 337 289 342 C289 343 289 345 289 346 C289 347 289 347 289 350 C288 350 287 351 286 351 C286 355 285 358 285 362 C284 362 283 362 282 362 C281 363 281 365 280 366 C280 366 280 366 278 367 C278 369 278 371 278 372 C277 374 277 376 277 378 C276 378 275 379 274 379 C273 383 273 383 273 386 C272 386 271 386 270 386 C269 387 269 389 268 390 C267 390 267 390 266 390 C265 391 265 393 264 394 C262 394 260 394 258 394 C257 395 257 397 256 398 C254 398 252 398 250 398 C249 399 249 401 248 402 C243 402 239 402 234 402 C231 402 231 402 226 403 C224 406 224 406 224 410 C223 410 223 411 222 411 C222 413 221 416 221 418 C220 418 219 418 218 418 C217 419 217 421 216 422 C215 422 215 422 214 422 C213 423 213 425 212 426 C210 426 208 426 206 426 C205 427 205 429 204 430 C202 430 200 430 198 430 C197 431 197 433 196 434 C192 434 189 434 185 434 C184 434 183 434 182 434 C181 435 181 437 180 438 C177 439 177 439 172 439 C171 439 169 439 168 439 C166 439 164 439 162 439 C161 439 159 439 157 439 C153 439 150 439 146 439 C140 439 134 439 129 439 C125 439 121 439 118 439 C116 439 114 439 112 439 C111 439 109 439 108 439 C107 439 107 439 103 439 C102 438 101 438 100 438 C99 437 99 435 98 434 C94 434 94 434 90 434 C89 435 89 437 88 438 C86 438 84 438 82 438 C81 439 81 441 80 442 C78 442 76 442 74 442 C73 443 73 445 72 446 C70 446 68 447 66 447 C66 448 65 449 65 450 C64 450 63 451 62 451 C62 455 62 455 62 459 C63 459 64 459 65 459 C66 459 68 459 69 459 C70 459 71 459 73 459 C74 460 75 460 76 460 C77 461 77 463 78 464 C80 464 82 464 84 464 C85 465 85 466 86 467 C87 467 89 468 90 468 C90 467 91 465 91 464 C94 465 94 465 95 467 C98 467 100 467 103 467 C104 467 104 467 108 467 C112 467 115 467 119 467 C120 467 120 467 124 467 C125 467 127 467 128 467 C129 468 129 468 132 468 C133 469 133 471 134 472 C137 472 137 472 141 472 C145 472 145 472 148 472 C149 473 149 475 150 476 C152 476 154 476 156 476 C157 477 157 479 158 480 C159 480 160 481 161 481 C161 483 160 484 160 486 C159 486 159 486 158 486 C157 487 157 489 156 490 C153 490 149 490 146 490 C145 491 145 493 144 494 C139 494 135 494 130 494 C129 494 127 494 126 494 C125 495 125 497 124 498 C121 498 121 498 116 498 C115 498 113 498 112 498 C109 498 105 498 102 498 C101 498 99 498 98 498 C96 498 95 498 93 498 C92 498 91 498 90 498 C89 499 89 501 88 502 C85 502 85 502 82 502 C80 502 79 502 78 502 C76 502 75 502 73 502 C73 502 73 502 69 502 C63 502 56 502 50 502 C46 502 41 502 37 502 C35 502 34 502 32 502 C31 502 30 502 28 502 C28 502 28 502 25 502 C24 502 23 502 22 502 C21 503 21 505 20 506 C16 506 11 507 7 507 C5 507 4 507 3 507 C-0 507 -3 507 -6 507 C-10 507 -14 507 -19 507 C-21 507 -24 507 -27 507 C-27 507 -27 507 -31 507 C-34 507 -37 506 -40 506 C-41 505 -41 503 -42 502 C-47 502 -51 502 -56 502 C-57 502 -58 502 -60 502 C-64 502 -69 502 -73 502 C-79 502 -85 502 -90 502 C-91 502 -91 502 -94 502 C-98 502 -101 502 -104 502 C-105 501 -105 499 -106 498 C-109 498 -109 498 -113 498 C-113 498 -113 498 -117 498 C-117 498 -117 498 -121 498 C-124 498 -127 498 -129 498 C-131 498 -132 498 -133 498 C-134 498 -135 498 -136 498 C-137 497 -137 495 -138 494 C-141 494 -141 494 -145 494 C-149 494 -149 494 -152 494 C-153 493 -153 491 -154 490 C-157 490 -157 490 -161 490 C-165 490 -165 490 -168 490 C-169 489 -169 487 -170 486 C-171 486 -172 485 -173 485 C-173 483 -172 482 -172 480 C-171 480 -171 480 -170 480 C-169 479 -169 477 -168 476 C-164 476 -161 476 -157 476 C-156 476 -155 476 -154 476 C-153 475 -153 473 -152 472 C-148 472 -145 472 -141 472 C-140 472 -139 472 -138 472 C-137 471 -137 469 -136 468 C-133 468 -133 468 -129 468 C-128 468 -127 468 -125 468 C-122 468 -120 468 -117 468 C-115 468 -114 468 -113 468 C-111 468 -110 468 -109 468 C-108 468 -108 468 -106 468 C-105 467 -105 465 -104 464 C-103 464 -103 464 -102 464 C-101 463 -101 461 -100 460 C-99 460 -99 459 -98 459 C-98 458 -98 456 -98 455 C-100 455 -101 455 -103 455 C-104 455 -104 455 -108 454 C-109 453 -109 451 -110 450 C-112 450 -114 450 -116 450 C-117 449 -117 447 -118 446 C-120 446 -122 446 -124 446 C-125 445 -125 443 -126 442 C-128 442 -130 442 -132 442 C-133 441 -133 439 -134 438 C-135 437 -137 437 -138 436 C-138 435 -138 435 -138 434 C-142 434 -142 434 -146 434 C-147 435 -147 437 -148 438 C-151 438 -155 438 -158 438 C-159 439 -159 441 -160 442 C-163 442 -167 442 -170 442 C-171 443 -171 445 -172 446 C-175 447 -175 447 -178 447 C-179 447 -181 447 -182 447 C-183 447 -185 447 -186 446 C-187 447 -189 447 -190 447 C-191 447 -192 447 -194 447 C-195 447 -196 447 -197 447 C-198 446 -199 446 -200 446 C-200 445 -200 445 -202 442 C-203 441 -205 441 -206 440 C-206 439 -206 439 -206 438 C-208 438 -210 438 -212 438 C-213 438 -214 438 -215 438 C-216 438 -216 438 -218 438 C-219 439 -219 441 -220 442 C-225 443 -225 443 -230 442 C-232 443 -234 443 -236 443 C-237 442 -238 442 -240 442 C-241 441 -241 439 -242 438 C-244 438 -246 438 -248 438 C-249 437 -249 435 -250 434 C-251 434 -252 434 -253 434 C-253 433 -253 431 -253 430 C-253 428 -253 426 -253 425 C-253 424 -253 424 -253 419 C-254 418 -254 416 -254 415 C-255 415 -256 414 -257 414 C-257 411 -257 411 -257 407 C-257 406 -257 404 -257 403 C-257 402 -257 401 -257 400 C-256 400 -255 400 -254 400 C-254 399 -254 399 -252 396 C-251 396 -251 396 -250 396 C-250 395 -250 395 -248 392 C-247 392 -247 392 -246 392 C-246 391 -246 391 -244 388 C-243 388 -243 388 -242 388 C-242 387 -242 387 -240 384 C-238 384 -236 384 -234 384 C-234 383 -234 383 -232 380 C-230 380 -228 380 -226 380 C-226 379 -226 379 -224 376 C-222 376 -220 376 -218 376 C-217 375 -217 373 -216 372 C-214 372 -212 372 -210 372 C-209 371 -209 369 -208 368 C-207 368 -207 368 -206 368 C-205 367 -205 365 -204 364 C-203 364 -203 363 -202 363 C-202 360 -202 357 -202 354 C-202 352 -202 350 -202 348 C-202 345 -202 341 -202 338 C-202 335 -201 332 -201 329 C-201 328 -201 326 -201 324 C-201 323 -201 323 -201 320 C-200 320 -199 319 -198 319 C-198 317 -198 315 -198 314 C-197 312 -197 310 -197 308 C-196 308 -195 307 -194 307 C-194 305 -194 303 -194 302 C-193 300 -193 298 -193 296 C-192 296 -191 295 -190 295 C-190 293 -190 291 -190 290 C-189 288 -189 286 -189 284 C-188 284 -187 283 -186 283 C-186 282 -186 281 -186 280 C-185 278 -185 277 -185 276 C-184 276 -183 275 -182 275 C-181 271 -181 271 -181 268 C-180 268 -179 268 -178 268 C-177 267 -177 265 -176 264 C-175 264 -175 263 -174 263 C-174 261 -173 258 -173 256 C-172 256 -171 256 -170 256 C-169 255 -169 253 -168 252 C-167 252 -167 251 -166 251 C-166 249 -165 246 -165 244 C-164 244 -163 244 -162 244 C-161 243 -161 241 -160 240 C-159 240 -159 240 -158 240 C-157 239 -157 237 -156 236 C-155 236 -155 236 -154 236 C-153 235 -153 233 -152 232 C-151 232 -151 231 -150 231 C-150 230 -150 229 -150 228 C-149 227 -149 227 -149 224 C-148 224 -147 223 -146 223 C-146 222 -146 221 -146 220 C-145 218 -145 217 -145 216 C-144 216 -143 215 -142 215 C-142 214 -142 213 -142 212 C-141 210 -141 209 -141 208 C-140 208 -139 207 -138 207 C-138 206 -138 205 -138 204 C-137 202 -137 201 -137 200 C-136 200 -135 199 -134 199 C-134 197 -134 195 -134 194 C-133 192 -133 190 -133 188 C-132 188 -131 187 -130 187 C-130 185 -130 183 -130 182 C-129 180 -129 178 -129 176 C-128 176 -127 175 -126 175 C-126 172 -126 172 -126 168 C-125 163 -125 163 -125 160 C-124 160 -123 159 -122 159 C-122 155 -122 155 -122 150 C-121 144 -121 144 -121 140 C-120 140 -119 139 -118 139 C-118 135 -118 135 -118 130 C-117 124 -117 124 -117 120 C-116 120 -115 119 -114 119 C-114 116 -114 116 -114 112 C-113 107 -113 107 -113 104 C-112 104 -111 103 -110 103 C-110 101 -110 99 -110 98 C-109 96 -109 94 -109 92 C-108 92 -107 91 -106 91 C-106 90 -106 89 -106 88 C-105 86 -105 85 -105 84 C-104 84 -103 83 -102 83 C-102 82 -102 81 -102 80 C-101 78 -101 77 -101 76 C-100 76 -99 75 -98 75 C-98 74 -98 73 -98 72 C-97 70 -97 69 -97 68 C-96 68 -95 67 -94 67 C-93 63 -93 63 -93 60 C-92 60 -91 60 -90 60 C-89 59 -89 57 -88 56 C-87 56 -87 55 -86 55 C-86 53 -85 50 -85 48 C-84 48 -83 48 -82 48 C-81 47 -81 45 -80 44 C-79 44 -79 44 -78 44 C-77 43 -77 41 -76 40 C-75 40 -75 40 -74 40 C-73 39 -73 37 -72 36 C-71 36 -71 36 -70 36 C-69 35 -69 33 -68 32 C-67 32 -67 32 -66 32 C-65 31 -65 29 -64 28 C-63 28 -63 28 -62 28 C-61 27 -61 25 -60 24 C-59 24 -59 24 -58 24 C-57 23 -57 21 -56 20 C-54 20 -52 20 -50 20 C-49 19 -49 17 -48 16 C-46 16 -44 16 -42 16 C-41 15 -41 13 -40 12 C-38 12 -36 12 -34 12 C-33 11 -33 9 -32 8 C-29 8 -25 8 -22 8 C-21 7 -21 5 -20 4 C-15 4 -11 4 -6 4 C-5 4 -3 4 -2 4 C-1 3 -1 1 0 0 Z M-66 46 C-94 79 -104 119 -112 160 C-115 178 -121 195 -128 211 C-131 219 -133 226 -135 234 C-136 234 -136 234 -139 236 C-158 254 -174 279 -182 304 C-183 305 -183 307 -184 308 C-185 312 -186 315 -186 319 C-187 325 -187 325 -188 326 C-188 330 -188 334 -188 338 C-188 339 -188 339 -188 342 C-188 350 -188 358 -183 365 C-182 366 -181 366 -180 367 C-174 366 -173 364 -169 360 C-169 359 -169 359 -169 358 C-168 357 -166 357 -165 356 C-163 354 -162 352 -160 350 C-158 348 -157 347 -155 345 C-146 336 -146 336 -146 329 C-146 328 -146 326 -146 325 C-146 323 -146 322 -146 321 C-142 322 -142 322 -139 323 C-138 326 -138 326 -138 329 C-138 330 -138 330 -138 333 C-138 341 -144 346 -150 352 C-156 358 -161 363 -166 370 C-168 372 -168 372 -171 375 C-173 379 -174 381 -174 385 C-170 389 -169 390 -163 390 C-158 391 -155 392 -150 395 C-144 398 -137 398 -130 396 C-120 392 -110 387 -101 380 C-100 380 -98 379 -97 379 C-97 381 -96 382 -96 384 C-98 386 -99 389 -101 391 C-100 395 -100 395 -97 398 C-87 400 -77 398 -68 393 C-66 391 -64 390 -62 388 C-61 388 -60 387 -59 387 C-59 388 -59 388 -59 389 C-58 389 -57 390 -56 390 C-56 391 -56 393 -56 394 C-55 394 -55 394 -54 394 C-54 395 -53 396 -53 397 C-37 395 -24 388 -14 376 C-13 375 -13 375 -10 372 C-7 368 -7 368 -5 364 C-1 360 1 360 6 359 C6 373 -5 382 -14 391 C-14 392 -14 392 -14 393 C-16 394 -17 394 -19 395 C-23 397 -27 399 -31 401 C-43 407 -53 408 -66 406 C-72 406 -74 407 -79 408 C-89 409 -99 409 -108 403 C-112 400 -112 400 -116 400 C-120 401 -120 401 -125 403 C-132 407 -140 409 -148 408 C-149 407 -150 407 -151 406 C-152 406 -154 407 -155 407 C-137 426 -113 440 -87 446 C-84 446 -82 445 -79 444 C-73 444 -73 444 -69 447 C-64 451 -59 451 -52 452 C-50 452 -48 452 -46 453 C-22 454 6 455 30 448 C32 448 33 447 35 447 C39 445 39 445 42 443 C46 441 46 441 51 441 C60 440 67 437 74 432 C74 430 75 429 75 427 C73 425 70 423 68 422 C63 419 60 416 58 411 C57 404 57 398 56 392 C56 390 56 389 56 387 C56 367 56 347 56 326 C56 321 56 315 56 309 C56 304 56 300 56 295 C56 293 56 291 56 289 C56 286 56 283 56 280 C56 278 56 277 56 275 C56 267 57 260 62 254 C80 240 102 238 124 237 C135 236 135 236 140 234 C140 233 140 233 140 232 C141 232 141 232 142 232 C141 226 140 221 138 216 C133 200 131 183 130 167 C129 155 128 144 126 132 C126 131 126 129 125 128 C121 95 111 61 84 39 C82 38 80 36 79 35 C64 23 47 18 29 15 C28 15 27 15 26 14 C-8 10 -42 22 -66 46 Z " fill="#0D0D0F" transform="translate(282,25)"/>
<path d="M0 0 C1 -0 1 -0 6 -0 C28 0 53 1 72 13 C75 17 76 19 76 24 C76 26 76 27 76 28 C76 29 76 31 76 32 C76 33 76 33 76 36 C76 41 76 45 76 50 C76 53 76 56 76 59 C76 78 75 98 74 117 C73 128 73 139 73 149 C73 150 73 152 73 153 C73 154 73 155 73 156 C72 163 67 167 63 171 C44 182 20 183 -1 183 C-2 183 -2 183 -7 183 C-28 183 -50 180 -68 168 C-75 161 -75 157 -75 147 C-75 146 -75 145 -75 143 C-75 139 -75 135 -75 130 C-75 127 -75 124 -75 121 C-75 114 -75 108 -75 102 C-75 93 -75 85 -75 77 C-75 70 -75 64 -75 58 C-75 55 -75 52 -75 48 C-75 44 -75 40 -75 36 C-75 34 -75 33 -75 32 C-75 26 -75 21 -71 15 C-64 10 -57 6 -47 4 C-46 4 -45 4 -43 3 C-29 0 -15 -0 0 0 Z " fill="#F3F3F2" transform="translate(422.375,270.75)"/>
<path d="M0 0 C9 4 16 13 20 22 C20 23 20 23 20 24 C21 24 22 24 23 24 C27 25 29 27 33 29 C35 30 37 31 39 31 C54 38 65 49 71 64 C74 71 74 77 74 85 C74 87 74 89 74 91 C74 97 73 102 70 107 C69 107 69 107 68 107 C68 106 68 106 68 105 C63 105 61 106 58 110 C55 113 53 116 51 119 C41 131 29 140 13 143 C12 143 10 143 9 143 C9 142 8 141 8 140 C7 140 7 140 6 140 C6 139 6 137 6 136 C5 136 4 135 3 135 C3 134 3 134 3 133 C-1 135 -4 137 -7 139 C-13 143 -17 144 -24 145 C-25 145 -26 145 -28 145 C-33 145 -35 144 -39 140 C-38 135 -38 135 -36 132 C-35 132 -35 131 -34 130 C-34 128 -35 127 -35 125 C-40 127 -44 129 -49 132 C-60 139 -71 145 -84 143 C-87 142 -90 140 -93 138 C-96 137 -99 136 -102 136 C-108 135 -108 135 -112 131 C-112 126 -111 124 -108 120 C-107 120 -107 119 -106 118 C-104 116 -101 113 -99 110 C-94 104 -88 98 -82 92 C-78 88 -76 84 -76 79 C-76 77 -76 76 -76 75 C-76 74 -76 73 -76 72 C-76 71 -77 70 -77 69 C-80 68 -80 68 -83 67 C-83 66 -82 66 -82 65 C-82 62 -82 60 -81 57 C-81 56 -81 54 -81 53 C-81 49 -81 49 -82 47 C-82 44 -82 41 -82 38 C-82 36 -82 34 -82 32 C-82 28 -82 28 -80 26 C-76 25 -74 25 -70 27 C-66 31 -67 34 -67 39 C-67 42 -67 42 -65 45 C-61 47 -60 47 -56 46 C-47 42 -38 37 -30 31 C-29 30 -27 29 -26 28 C-22 24 -21 20 -19 14 C-16 11 -16 11 -14 9 C-13 8 -13 7 -12 6 C-11 5 -11 4 -10 3 C-6 3 -6 3 -2 3 C-1 2 -1 1 0 0 Z " fill="#7C8297" transform="translate(220,279)"/>
<path d="M0 0 C10 2 10 2 13 5 C13 6 12 8 12 9 C9 11 9 11 5 12 C4 13 3 13 1 14 C-2 15 -2 15 -5 15 C-7 19 -8 21 -8 25 C-7 26 -6 28 -5 29 C-1 29 3 29 7 28 C10 27 10 27 15 28 C17 31 19 33 21 36 C22 37 24 37 25 38 C25 39 25 39 25 40 C26 40 26 40 27 40 C27 39 27 39 27 38 C28 37 29 37 30 36 C33 34 33 34 35 30 C40 29 41 29 46 31 C52 31 52 31 55 30 C55 25 55 22 53 18 C50 17 46 16 43 14 C40 13 40 13 38 8 C39 8 40 8 41 8 C51 9 61 9 71 9 C72 9 72 9 74 9 C92 9 110 7 127 3 C134 3 134 3 136 4 C136 6 136 7 136 9 C128 14 128 14 125 14 C125 18 125 18 125 23 C129 25 131 25 136 25 C137 25 138 24 139 24 C143 24 143 24 147 24 C150 26 152 29 155 31 C159 33 159 33 162 33 C167 30 167 30 169 25 C173 25 173 25 177 25 C180 25 182 25 185 25 C185 25 186 24 186 24 C186 23 186 23 186 19 C186 13 186 13 188 9 C191 10 191 10 192 12 C195 12 197 12 200 12 C201 12 201 12 205 12 C209 12 212 12 216 12 C217 12 219 12 221 12 C222 12 224 12 225 12 C227 13 228 13 229 13 C230 14 230 16 231 17 C234 17 234 17 238 17 C242 17 242 17 245 17 C246 18 246 20 247 21 C249 21 251 21 253 21 C254 22 254 24 255 25 C256 25 257 26 258 26 C258 28 257 29 257 31 C256 31 256 31 255 31 C254 32 254 34 253 35 C250 35 246 35 243 35 C242 36 242 38 241 39 C236 39 232 39 227 39 C226 39 224 39 223 39 C222 40 222 42 221 43 C218 43 218 43 213 43 C212 43 210 43 209 43 C206 43 202 43 199 43 C198 43 196 43 195 43 C193 43 192 43 190 43 C189 43 188 43 187 43 C186 44 186 46 185 47 C182 47 182 47 179 47 C177 47 176 47 175 47 C173 47 172 47 170 47 C169 47 168 47 166 47 C160 47 153 47 147 47 C143 47 138 47 134 47 C132 47 131 47 129 47 C128 47 127 47 125 47 C124 47 123 47 122 47 C121 47 120 47 119 47 C118 48 118 50 117 51 C113 51 108 52 104 52 C102 52 101 52 100 52 C97 52 94 52 91 52 C87 52 83 52 78 52 C76 52 73 52 70 52 C70 52 70 52 66 52 C63 52 60 51 57 51 C57 50 57 50 55 47 C50 47 46 47 41 47 C41 47 41 47 37 47 C33 47 28 47 24 47 C18 47 12 47 7 47 C5 47 4 47 3 47 C-1 47 -4 47 -7 47 C-7 46 -7 46 -9 43 C-12 43 -12 43 -16 43 C-16 43 -16 43 -20 43 C-21 43 -23 43 -24 43 C-27 43 -30 43 -32 43 C-34 43 -35 43 -36 43 C-37 43 -37 43 -39 43 C-40 42 -40 40 -41 39 C-44 39 -44 39 -48 39 C-52 39 -52 39 -55 39 C-56 38 -56 36 -57 35 C-60 35 -60 35 -64 35 C-68 35 -68 35 -71 35 C-72 34 -72 32 -73 31 C-74 31 -75 30 -76 30 C-76 28 -75 27 -75 25 C-74 25 -74 25 -73 25 C-72 24 -72 22 -71 21 C-67 21 -64 21 -60 21 C-59 21 -58 21 -57 21 C-56 20 -56 18 -55 17 C-51 17 -48 17 -44 17 C-44 17 -44 17 -41 17 C-40 16 -40 14 -39 13 C-36 13 -36 13 -32 13 C-31 13 -30 13 -28 13 C-27 13 -27 13 -20 13 C-18 13 -17 13 -16 13 C-15 13 -15 13 -12 13 C-11 13 -10 13 -9 13 C-8 12 -8 10 -7 9 C-6 9 -6 9 -5 9 C-4 8 -4 6 -3 5 C-2 5 -2 4 -1 4 C-1 3 -0 1 0 0 Z " fill="#CED0D8" transform="translate(185,480)"/>
<path d="M0 0 C0 0 0 0 1 3 C3 3 4 4 6 4 C6 4 6 4 7 6 C10 6 12 7 15 7 C15 7 15 7 17 9 C16 14 16 14 14 16 C14 17 14 19 14 20 C14 25 14 25 12 28 C11 28 10 29 9 30 C8 31 6 32 5 33 C-4 39 -10 41 -20 41 C-33 41 -33 41 -39 44 C-40 44 -40 44 -44 44 C-49 45 -49 45 -53 48 C-53 51 -53 51 -52 55 C-48 59 -46 60 -40 61 C-35 64 -30 68 -27 73 C-24 74 -21 75 -18 76 C-15 77 -11 79 -8 80 C-0 83 8 84 16 82 C20 78 22 75 24 71 C28 64 33 60 39 55 C41 52 41 52 41 49 C40 44 37 40 34 36 C32 33 32 33 32 30 C33 26 33 26 35 21 C38 21 41 20 44 22 C44 23 44 23 44 24 C46 25 47 25 49 26 C52 28 52 28 54 31 C55 32 55 32 57 34 C59 37 60 40 61 44 C60 45 59 47 58 48 C58 50 59 52 59 54 C58 56 58 58 57 60 C58 65 59 67 63 71 C67 71 70 70 74 68 C76 71 77 73 77 77 C76 80 76 80 74 83 C71 83 68 83 65 83 C60 83 58 84 54 87 C53 90 51 93 50 96 C46 97 46 97 41 95 C27 92 27 92 21 94 C18 96 18 96 16 99 C15 100 15 100 14 101 C11 105 10 109 9 113 C9 114 10 116 10 117 C11 117 11 117 12 117 C13 119 13 120 14 122 C13 124 13 124 9 126 C3 129 -2 134 -6 140 C-8 142 -9 143 -10 145 C-11 145 -11 145 -12 145 C-12 146 -12 148 -12 149 C-16 152 -16 152 -21 152 C-20 148 -19 145 -17 141 C-16 141 -16 140 -15 140 C-15 137 -14 135 -14 132 C-14 131 -14 129 -13 128 C-12 118 -16 109 -19 100 C-20 98 -20 96 -21 94 C-23 89 -26 87 -31 84 C-32 83 -34 82 -35 81 C-39 80 -42 80 -46 79 C-46 79 -46 79 -49 79 C-50 79 -51 79 -52 79 C-51 77 -50 74 -49 72 C-48 72 -48 72 -47 72 C-47 70 -48 69 -48 67 C-52 64 -52 64 -57 62 C-57 62 -57 62 -59 61 C-63 61 -68 61 -72 61 C-78 60 -80 58 -84 55 C-86 54 -88 53 -90 52 C-91 52 -91 52 -93 50 C-95 49 -97 49 -99 48 C-100 47 -101 47 -102 46 C-102 45 -102 45 -103 41 C-101 38 -101 38 -98 34 C-97 33 -96 32 -95 31 C-89 25 -89 25 -84 25 C-78 25 -73 28 -67 31 C-66 31 -65 32 -64 33 C-63 33 -61 34 -60 35 C-57 36 -57 36 -52 37 C-49 32 -49 32 -48 28 C-47 24 -44 21 -40 17 C-39 17 -39 16 -38 15 C-38 14 -38 14 -39 11 C-40 8 -40 8 -40 5 C-36 2 -33 3 -28 3 C-28 2 -28 2 -28 1 C-23 -0 -19 -0 -15 -1 C-13 -1 -11 -1 -10 -1 C-5 -1 -5 -1 0 0 Z " fill="#C1C5D1" transform="translate(316,44)"/>
<path d="M0 0 C9 4 16 13 20 22 C20 23 20 23 20 24 C20 24 20 24 23 24 C27 25 29 27 33 29 C35 30 37 31 39 31 C52 37 59 45 67 56 C68 57 69 58 70 59 C72 66 71 71 70 77 C69 81 69 81 69 85 C69 86 69 87 69 88 C66 89 66 89 61 89 C60 88 58 87 57 86 C52 86 52 86 46 86 C45 86 43 86 41 86 C36 86 36 86 33 89 C33 90 32 91 32 92 C30 96 30 96 27 97 C25 98 22 98 20 98 C19 99 18 99 17 99 C17 100 17 100 17 101 C16 101 16 101 15 101 C15 102 15 102 15 103 C11 104 8 104 5 103 C-0 103 -3 104 -7 105 C-15 105 -18 102 -23 97 C-26 94 -26 94 -27 91 C-25 87 -25 87 -21 86 C-20 85 -19 85 -18 84 C-17 79 -18 78 -20 74 C-20 73 -20 72 -21 70 C-21 70 -21 70 -22 67 C-26 65 -26 65 -31 64 C-32 63 -34 62 -35 61 C-43 56 -51 55 -60 55 C-60 54 -60 54 -64 54 C-65 53 -65 51 -66 50 C-67 50 -67 50 -68 50 C-68 49 -68 49 -68 48 C-73 47 -76 48 -81 49 C-83 45 -82 41 -82 38 C-82 36 -82 34 -82 32 C-82 28 -82 28 -80 26 C-76 25 -74 25 -70 27 C-66 31 -67 34 -67 39 C-67 42 -67 42 -65 45 C-61 47 -60 47 -56 46 C-47 42 -38 37 -30 31 C-29 30 -27 29 -26 28 C-22 24 -21 20 -19 14 C-16 11 -16 11 -14 9 C-13 8 -13 7 -12 6 C-11 5 -11 4 -10 3 C-6 3 -6 3 -2 3 C-1 2 -1 1 0 0 Z " fill="#888E9E" transform="translate(220,279)"/>
<path d="M0 0 C9 1 18 5 27 8 C31 10 31 10 36 11 C41 12 45 16 49 19 C54 20 54 20 58 21 C58 21 58 21 60 23 C61 23 63 24 64 24 C68 25 68 25 70 28 C69 29 68 30 67 31 C66 31 66 31 63 30 C63 30 63 30 60 30 C59 32 59 33 58 35 C57 36 56 36 56 37 C52 40 50 43 49 48 C45 60 31 66 20 71 C19 72 17 72 15 73 C11 75 11 75 6 74 C4 72 4 72 2 69 C2 67 2 65 2 63 C2 57 2 57 -0 54 C-3 53 -3 53 -8 53 C-9 54 -10 54 -11 55 C-11 59 -11 59 -11 64 C-11 66 -11 68 -11 70 C-11 74 -11 74 -10 78 C-10 80 -10 83 -10 85 C-10 86 -10 88 -11 89 C-11 92 -11 92 -13 94 C-13 96 -13 99 -14 101 C-15 109 -18 113 -24 119 C-25 120 -26 121 -27 122 C-27 122 -28 123 -29 124 C-30 125 -31 127 -32 128 C-33 129 -34 130 -35 131 C-36 131 -36 131 -37 131 C-37 132 -37 132 -39 135 C-41 138 -41 138 -44 140 C-47 140 -47 140 -50 139 C-57 131 -56 121 -56 112 C-56 110 -56 109 -56 108 C-56 99 -56 99 -55 98 C-55 96 -54 93 -54 91 C-52 83 -50 76 -47 69 C-47 68 -47 68 -45 65 C-38 50 -30 37 -20 24 C-19 23 -18 22 -18 21 C-9 10 -9 10 -3 7 C-3 6 -2 4 -2 3 C-1 2 -1 1 0 0 Z " fill="#AFB2BB" transform="translate(150,252)"/>
<path d="M0 0 C4 3 4 3 6 7 C6 7 7 7 8 7 C11 12 14 18 15 24 C17 30 20 33 24 37 C28 43 28 47 28 54 C25 61 19 63 12 66 C8 68 5 71 2 75 C-5 82 -13 86 -23 86 C-34 86 -42 80 -50 74 C-56 71 -62 68 -69 65 C-72 63 -72 63 -75 59 C-75 51 -73 49 -68 43 C-64 37 -63 30 -61 23 C-59 13 -55 5 -46 -2 C-30 -11 -16 -10 0 0 Z " fill="#0A0A0D" transform="translate(446.1875,338.0625)"/>
<path d="M0 0 C0 6 0 6 -2 10 C-3 10 -3 10 -4 10 C-4 11 -4 11 -4 12 C-5 12 -5 12 -6 12 C-6 13 -6 13 -6 14 C-4 14 -3 15 -1 15 C2 18 3 21 5 25 C5 26 5 26 7 29 C8 30 8 31 9 32 C8 33 6 35 5 36 C4 36 4 36 3 36 C3 38 2 39 2 41 C1 43 0 46 -1 48 C28 49 28 49 41 44 C43 44 44 43 46 43 C55 39 64 33 70 25 C72 23 72 23 77 22 C81 25 81 25 85 29 C86 30 87 30 89 31 C89 31 89 31 91 33 C90 38 90 38 87 40 C74 46 74 46 68 47 C61 47 58 49 53 52 C26 62 -22 65 -49 56 C-52 54 -52 54 -55 52 C-57 50 -57 50 -63 50 C-64 50 -64 50 -67 52 C-87 51 -109 38 -124 26 C-124 26 -124 26 -127 24 C-131 20 -135 17 -139 13 C-138 13 -136 12 -135 12 C-134 13 -133 13 -132 14 C-122 14 -114 12 -105 8 C-101 6 -99 5 -94 7 C-91 9 -88 11 -85 13 C-80 14 -75 14 -70 14 C-69 14 -68 14 -67 14 C-63 14 -63 14 -59 13 C-55 12 -52 12 -47 13 C-38 14 -31 13 -22 10 C-21 10 -20 9 -19 9 C-14 7 -5 0 0 0 Z " fill="#C0C4D0" transform="translate(266,419)"/>
<path d="M0 0 C1 0 1 0 4 2 C6 2 9 2 11 3 C15 3 19 3 23 4 C25 8 25 8 26 12 C26 13 27 13 27 14 C28 14 29 14 30 14 C30 15 30 16 30 17 C31 20 31 24 32 27 C32 28 32 30 33 31 C33 34 33 36 34 39 C34 40 34 42 34 43 C29 47 27 46 21 47 C20 47 20 47 16 47 C15 47 13 47 12 47 C12 48 12 48 12 49 C9 50 6 51 3 52 C3 52 3 52 1 53 C-2 53 -5 53 -8 54 C-11 54 -11 54 -16 57 C-17 57 -19 58 -20 58 C-32 61 -39 68 -46 78 C-49 84 -50 90 -51 97 C-51 98 -52 99 -52 100 C-53 100 -53 100 -56 102 C-59 101 -62 99 -65 98 C-69 97 -72 97 -76 96 C-77 96 -77 96 -79 95 C-89 94 -99 92 -108 97 C-116 100 -124 100 -132 98 C-135 93 -135 93 -137 88 C-139 86 -140 84 -142 82 C-142 81 -142 81 -142 80 C-143 80 -143 80 -144 80 C-144 78 -145 77 -145 75 C-142 75 -142 75 -137 77 C-132 76 -132 76 -129 74 C-126 73 -123 73 -119 73 C-118 73 -118 73 -115 73 C-112 73 -109 74 -106 76 C-98 77 -98 77 -93 75 C-90 71 -89 67 -88 63 C-83 60 -78 61 -73 61 C-69 61 -69 61 -64 59 C-62 56 -59 54 -57 51 C-50 44 -45 43 -36 42 C-35 42 -33 42 -32 42 C-27 42 -24 40 -20 37 C-18 36 -17 36 -15 35 C-14 33 -13 32 -12 30 C-12 29 -12 29 -14 26 C-15 26 -16 25 -17 25 C-18 25 -18 25 -20 24 C-20 23 -20 23 -21 19 C-18 15 -14 12 -10 8 C-6 5 -6 5 -3 1 C-2 1 -1 0 0 0 Z " fill="#C0C4D0" transform="translate(381,207)"/>
<path d="M0 0 C4 -1 6 -1 10 2 C15 5 20 5 25 6 C29 7 29 7 32 11 C33 20 30 27 25 34 C21 38 18 39 12 39 C8 39 8 39 3 37 C3 38 3 38 5 40 C7 46 7 48 6 53 C3 58 3 58 -2 61 C-3 61 -4 61 -5 61 C-6 62 -7 62 -8 62 C-9 65 -10 68 -11 70 C-13 78 -15 83 -22 87 C-26 88 -28 88 -32 87 C-40 81 -44 75 -48 66 C-50 61 -53 58 -57 54 C-60 50 -60 49 -59 44 C-53 34 -45 24 -35 18 C-26 16 -20 16 -12 21 C-8 25 -4 29 0 34 C-1 33 -1 31 -2 30 C-6 21 -7 12 -3 3 C-2 3 -2 3 -1 3 C-1 2 -0 1 0 0 Z " fill="#0D0A09" transform="translate(363,156)"/>
<path d="M0 0 C4 3 5 5 7 9 C8 10 9 10 10 11 C14 15 15 17 17 22 C16 26 16 26 13 28 C7 30 3 31 -3 32 C-3 32 -3 32 -5 33 C-8 33 -11 32 -14 32 C-21 32 -28 32 -35 32 C-38 32 -42 32 -45 32 C-47 32 -49 32 -52 32 C-53 32 -55 32 -57 32 C-62 32 -62 32 -65 35 C-65 36 -65 38 -65 39 C-66 44 -67 47 -70 51 C-70 53 -71 56 -71 58 C-71 58 -71 58 -74 59 C-75 58 -76 58 -77 57 C-81 54 -85 55 -90 56 C-94 55 -94 55 -97 54 C-98 54 -99 53 -100 53 C-109 50 -109 50 -113 46 C-116 44 -120 43 -124 42 C-130 40 -136 38 -141 36 C-144 34 -148 33 -151 32 C-151 31 -150 29 -150 28 C-149 28 -149 28 -148 28 C-147 25 -147 22 -146 19 C-144 18 -144 18 -138 18 C-137 18 -137 18 -135 19 C-129 21 -124 22 -118 23 C-114 23 -114 23 -109 24 C-104 25 -100 24 -95 23 C-90 23 -86 22 -81 22 C-76 21 -72 18 -67 15 C-66 15 -64 15 -63 15 C-58 14 -58 14 -54 10 C-49 6 -46 6 -39 6 C-26 6 -14 5 -3 1 C-2 0 -1 0 0 0 Z " fill="#C1C5D1" transform="translate(306,221)"/>
<path d="M0 0 C9 1 18 5 27 8 C31 10 31 10 36 11 C41 12 45 16 49 19 C54 20 54 20 58 21 C58 21 58 21 60 23 C61 23 63 24 64 24 C68 25 68 25 70 28 C69 29 68 30 67 31 C66 31 66 31 63 30 C63 30 63 30 60 30 C59 32 59 33 58 35 C57 36 56 36 56 37 C52 40 50 43 49 48 C45 60 31 66 20 71 C19 72 17 72 15 73 C11 75 11 75 6 74 C4 72 4 72 2 69 C2 67 2 65 2 63 C2 57 2 57 -0 54 C-3 53 -3 53 -8 53 C-11 55 -11 55 -13 57 C-15 50 -12 40 -9 34 C-8 32 -8 31 -7 30 C-3 22 -3 18 -4 10 C-3 6 -2 3 0 0 Z " fill="#999EAE" transform="translate(150,252)"/>
<path d="M0 0 C6 4 8 8 10 14 C10 16 10 17 10 19 C9 19 9 19 8 19 C8 20 8 20 8 21 C7 21 7 21 6 21 C6 20 6 20 6 19 C2 19 -1 20 -5 22 C-6 26 -6 29 -6 33 C-6 34 -7 35 -7 36 C-8 36 -8 36 -12 37 C-13 35 -13 35 -13 29 C-15 30 -18 30 -20 31 C-19 35 -19 35 -18 40 C-17 40 -15 41 -14 41 C-14 41 -13 40 -13 40 C-12 40 -11 40 -10 40 C-8 40 -7 40 -6 40 C-6 40 -6 40 -5 38 C-4 38 -4 38 -3 38 C-3 39 -3 39 -3 40 C-1 40 0 41 2 41 C5 47 6 50 6 56 C4 63 0 66 -6 70 C-13 73 -19 74 -26 71 C-33 68 -35 64 -37 57 C-38 54 -39 50 -40 46 C-44 45 -47 45 -51 46 C-51 45 -51 45 -51 44 C-52 44 -52 44 -53 44 C-52 43 -52 41 -51 40 C-50 35 -49 30 -48 25 C-46 16 -43 8 -36 1 C-24 -5 -13 -5 0 0 Z " fill="#9295A0" transform="translate(440,343)"/>
<path d="M0 0 C1 0 1 0 2 0 C2 1 2 2 2 4 C3 8 3 8 7 12 C10 16 10 16 10 19 C7 27 2 34 -4 39 C-9 41 -10 40 -15 38 C-15 39 -16 41 -16 42 C-19 47 -21 47 -26 48 C-27 48 -28 48 -30 48 C-33 49 -33 49 -36 49 C-36 50 -36 50 -35 54 C-39 56 -44 55 -49 55 C-50 55 -51 55 -52 55 C-58 55 -64 55 -70 54 C-70 52 -69 51 -69 49 C-73 49 -76 49 -80 49 C-80 50 -80 51 -80 52 C-84 51 -84 51 -87 49 C-92 46 -99 43 -105 41 C-109 39 -109 39 -111 36 C-110 30 -108 24 -103 20 C-100 21 -98 21 -95 22 C-93 22 -91 22 -89 22 C-88 21 -87 20 -86 19 C-87 19 -87 18 -88 18 C-88 17 -88 17 -88 16 C-82 16 -80 17 -75 20 C-65 27 -58 32 -45 31 C-35 29 -28 23 -22 16 C-18 11 -14 10 -9 8 C-5 6 -2 4 0 0 Z " fill="#FCFDFC" transform="translate(473,392)"/>
<path d="M0 0 C7 4 12 11 14 19 C14 23 14 23 13 26 C12 32 13 39 13 46 C13 53 11 56 7 61 C4 65 4 66 3 71 C2 80 -1 84 -8 89 C-12 91 -14 92 -19 91 C-25 88 -27 85 -30 79 C-30 78 -31 76 -31 75 C-29 72 -27 70 -24 68 C-23 67 -22 67 -21 66 C-21 64 -21 63 -21 61 C-24 59 -26 57 -29 55 C-32 50 -32 50 -32 44 C-30 38 -29 36 -23 33 C-19 32 -19 32 -15 32 C-16 27 -17 26 -21 23 C-25 19 -25 19 -26 15 C-26 11 -25 9 -22 6 C-15 0 -9 -3 0 0 Z " fill="#7D8398" transform="translate(546.0625,321)"/>
<path d="M0 0 C4 4 4 5 4 10 C4 12 5 15 5 17 C6 17 6 18 7 18 C7 19 7 19 7 20 C8 20 9 21 10 21 C19 24 27 34 33 41 C34 42 35 43 37 44 C37 45 38 46 39 47 C37 52 37 52 33 55 C24 59 14 62 4 60 C4 59 4 59 3 56 C5 53 8 50 11 48 C12 47 12 47 13 46 C13 45 13 45 12 41 C8 43 4 44 0 46 C-5 49 -10 51 -16 53 C-18 54 -20 54 -21 55 C-30 57 -39 57 -47 53 C-48 51 -48 50 -49 48 C-43 40 -34 36 -26 32 C-23 31 -23 31 -20 28 C-20 27 -21 25 -21 24 C-25 24 -28 25 -31 26 C-35 27 -39 27 -43 27 C-43 25 -43 24 -43 22 C-40 20 -40 20 -35 17 C-33 16 -32 15 -30 14 C-27 12 -23 11 -20 9 C-19 8 -17 8 -16 7 C-15 6 -14 6 -12 5 C-4 0 -4 0 0 0 Z " fill="#424348" transform="translate(88,400)"/>
<path d="M0 0 C3 1 7 1 10 1 C16 2 16 2 20 5 C20 7 20 9 20 11 C8 23 -23 22 -40 22 C-99 22 -99 22 -112 9 C-112 6 -112 6 -111 3 C-107 1 -107 1 -102 1 C-94 -0 -94 -0 -92 -1 C-62 -6 -29 -7 0 0 Z " fill="#050507" transform="translate(468.9140625,286.34765625)"/>
<path d="M0 0 C1 0 2 1 3 1 C27 6 50 8 75 8 C76 8 76 8 81 8 C85 8 90 8 94 8 C94 9 94 10 94 11 C90 13 86 13 81 14 C80 14 79 14 77 14 C74 14 74 14 69 13 C66 13 63 13 61 14 C52 14 44 14 35 13 C34 13 33 13 32 13 C32 14 32 14 32 15 C33 15 33 15 34 15 C34 16 34 18 34 19 C35 19 37 19 38 19 C39 19 39 19 42 19 C43 20 43 22 44 23 C48 24 48 24 54 24 C64 25 74 30 83 35 C83 36 82 38 82 39 C80 38 79 37 77 37 C67 32 59 29 47 33 C37 37 30 43 25 53 C24 58 23 62 22 67 C20 75 18 80 13 86 C13 86 13 86 11 87 C11 81 11 79 15 74 C16 71 16 67 16 64 C15 64 15 64 14 64 C13 63 11 61 10 60 C9 59 8 58 7 58 C1 53 1 48 0 41 C-0 37 -0 33 -0 29 C-0 28 -0 27 -0 25 C-0 21 -0 17 2 13 C2 9 1 4 0 0 Z " fill="#FCFDFC" transform="translate(363,299)"/>
<path d="M0 0 C0 6 0 6 -2 10 C-3 10 -3 10 -4 10 C-4 11 -4 11 -4 12 C-7 14 -10 15 -13 17 C-14 18 -16 18 -17 19 C-33 27 -33 27 -44 27 C-47 27 -47 27 -50 28 C-57 28 -63 27 -70 27 C-70 27 -70 27 -74 27 C-74 28 -75 30 -75 31 C-74 32 -73 33 -72 34 C-70 36 -69 37 -68 38 C-68 40 -68 41 -68 43 C-74 46 -79 46 -86 44 C-89 42 -92 41 -95 40 C-96 40 -97 40 -98 40 C-113 39 -129 23 -139 13 C-138 13 -136 12 -135 12 C-134 13 -133 13 -132 14 C-122 14 -114 12 -105 8 C-101 6 -99 5 -94 7 C-91 9 -88 11 -85 13 C-80 14 -75 14 -70 14 C-69 14 -68 14 -67 14 C-63 14 -63 14 -59 13 C-55 12 -52 12 -47 13 C-38 14 -31 13 -22 10 C-21 10 -20 9 -19 9 C-14 7 -5 0 0 0 Z " fill="#989DAD" transform="translate(266,419)"/>
<path d="M0 0 C7 7 10 13 10 24 C10 35 7 45 -1 53 C-7 57 -13 58 -20 57 C-26 55 -30 52 -34 46 C-37 40 -37 35 -37 28 C-37 26 -37 25 -37 23 C-37 15 -33 8 -28 2 C-19 -4 -10 -5 0 0 Z " fill="#0D0D0F" transform="translate(287,142)"/>
<path d="M0 0 C1 0 1 0 2 0 C4 11 4 22 4 33 C4 35 4 37 4 39 C4 58 3 77 2 96 C-1 93 -1 89 -1 84 C-1 80 -1 76 -1 72 C-1 68 -2 64 -3 59 C-4 60 -4 61 -5 62 C-6 61 -8 61 -9 60 C-13 62 -13 62 -17 65 C-18 66 -19 66 -20 67 C-21 68 -21 69 -22 70 C-21 75 -21 75 -19 79 C-19 80 -20 82 -20 83 C-21 82 -21 80 -22 79 C-25 74 -25 74 -28 70 C-33 65 -34 61 -36 54 C-37 51 -37 51 -40 46 C-40 45 -40 45 -40 44 C-41 44 -41 44 -42 44 C-45 42 -45 42 -47 39 C-47 38 -47 38 -47 37 C-44 37 -42 36 -39 36 C-39 34 -39 32 -39 30 C-40 29 -41 28 -42 27 C-43 26 -44 25 -45 24 C-43 20 -43 20 -38 17 C-30 15 -21 13 -12 13 C-11 14 -10 14 -9 15 C-5 15 -5 15 -2 15 C1 10 0 6 0 0 Z " fill="#FCFDFC" transform="translate(494,301)"/>
<path d="M0 0 C1 0 1 0 2 0 C2 1 2 2 2 4 C2 24 2 24 6 33 C6 34 5 35 5 36 C4 36 2 37 1 37 C0 38 -1 38 -2 39 C-6 41 -8 41 -12 42 C-20 43 -20 43 -24 46 C-27 50 -29 54 -30 59 C-31 62 -31 62 -34 64 C-40 65 -46 65 -53 65 C-56 65 -56 65 -61 66 C-62 66 -62 65 -63 65 C-64 51 -62 39 -53 28 C-50 27 -48 27 -45 26 C-43 25 -42 25 -40 24 C-39 24 -37 24 -36 24 C-30 22 -28 19 -24 14 C-19 9 -13 6 -7 3 C-6 3 -6 3 -5 3 C-5 2 -4 2 -4 1 C-3 1 -2 1 -1 1 C-1 1 -0 0 0 0 Z " fill="#C0C4D0" transform="translate(234,156)"/>
<path d="M0 0 C1 0 2 0 3 1 C12 3 22 6 28 14 C28 17 28 17 28 21 C28 22 28 23 28 24 C28 26 28 27 28 28 C28 29 28 31 28 32 C28 35 28 38 28 41 C25 36 25 32 26 26 C25 26 24 26 24 26 C24 28 24 30 24 32 C25 37 25 39 22 43 C21 43 21 42 21 41 C20 42 19 42 18 42 C15 42 15 42 12 40 C8 41 8 41 3 41 C2 41 2 41 -2 42 C-3 42 -5 42 -6 43 C-7 43 -9 43 -10 43 C-14 44 -17 46 -20 48 C-18 52 -18 52 -14 56 C-14 60 -14 60 -15 62 C-20 64 -20 64 -24 64 C-24 63 -24 61 -24 59 C-26 59 -27 59 -28 58 C-38 54 -38 54 -43 52 C-47 50 -52 50 -56 50 C-59 49 -59 49 -64 47 C-65 47 -65 47 -65 44 C-69 44 -69 44 -73 43 C-73 42 -73 41 -73 39 C-74 39 -75 39 -75 39 C-75 39 -75 38 -75 37 C-71 36 -67 37 -62 37 C-56 37 -50 37 -44 37 C-38 36 -38 36 -33 37 C-31 37 -29 37 -26 37 C-25 37 -24 37 -23 37 C-19 36 -17 36 -13 34 C-15 33 -16 32 -17 31 C-16 31 -14 31 -12 30 C-9 30 -7 30 -4 29 C-3 29 -2 29 -1 28 C14 26 14 26 18 22 C18 20 18 18 18 16 C14 14 10 14 5 14 C2 13 -1 13 -5 12 C-22 8 -41 8 -59 7 C-59 7 -59 7 -59 6 C-54 5 -48 5 -42 5 C-41 5 -40 5 -39 5 C-36 5 -34 4 -31 4 C-31 3 -31 2 -31 1 C-20 -4 -11 -3 0 0 Z " fill="#F3F3F2" transform="translate(470.375,274.625)"/>
<path d="M0 0 C1 1 3 2 4 3 C11 18 16 34 12 50 C9 57 7 62 1 66 C0 66 0 66 -4 68 C-6 69 -7 70 -9 71 C-12 72 -12 72 -17 72 C-18 72 -19 72 -20 72 C-32 73 -37 70 -46 63 C-48 60 -48 60 -48 58 C-49 58 -49 58 -50 58 C-55 52 -55 46 -55 38 C-55 37 -55 37 -55 35 C-55 28 -55 28 -54 24 C-53 24 -53 23 -52 23 C-52 22 -51 20 -51 18 C-47 7 -41 1 -31 -5 C-19 -10 -11 -8 0 0 Z M-33 15 C-40 27 -42 38 -39 52 C-37 59 -33 62 -28 66 C-21 69 -17 69 -10 67 C-2 63 1 58 5 50 C8 40 8 30 4 20 C1 15 -2 11 -8 9 C-17 7 -26 8 -33 15 Z " fill="#FBFCFB" transform="translate(290,131)"/>
<path d="M0 0 C0 0 1 0 1 0 C3 7 3 13 3 20 C3 26 3 31 4 36 C4 42 4 48 4 54 C4 55 4 57 4 58 C4 59 4 59 4 63 C4 64 4 66 4 67 C4 74 -1 78 -6 83 C-12 86 -16 89 -23 89 C-24 89 -24 88 -25 88 C-29 88 -33 88 -37 89 C-40 89 -43 89 -46 89 C-48 89 -50 89 -51 89 C-52 89 -52 89 -55 89 C-55 86 -55 86 -54 82 C-50 81 -50 81 -46 80 C-41 79 -41 79 -37 78 C-35 74 -35 74 -33 71 C-29 71 -29 71 -25 72 C-18 68 -11 61 -9 53 C-9 50 -9 50 -10 47 C-11 46 -12 45 -13 45 C-17 40 -17 35 -17 29 C-17 24 -17 20 -19 15 C-20 12 -20 12 -19 9 C-15 6 -10 3 -5 1 C-4 2 -3 2 -2 3 C-1 2 -1 1 0 0 Z " fill="#F3F3F2" transform="translate(491,359)"/>
<path d="M0 0 C1 1 2 2 3 2 C7 5 11 8 15 10 C20 22 20 40 19 52 C16 57 14 58 9 60 C8 60 8 60 7 60 C6 62 6 63 5 64 C-1 70 -9 71 -17 71 C-18 70 -19 69 -20 68 C-20 67 -19 66 -19 65 C-16 65 -13 64 -10 64 C-6 63 -5 62 -2 59 C2 51 4 46 4 37 C2 34 2 34 -2 34 C-4 33 -7 33 -10 32 C-14 31 -17 30 -20 27 C-21 27 -23 27 -24 27 C-25 27 -26 27 -27 26 C-29 22 -28 19 -26 14 C-24 8 -21 4 -16 -1 C-10 -2 -5 -3 0 0 Z " fill="#FCFDFC" transform="translate(390.125,129.6875)"/>
<path d="M0 0 C1 1 3 2 4 3 C7 4 7 4 11 4 C12 4 13 4 15 4 C18 4 18 4 22 3 C26 7 26 13 27 18 C27 24 25 29 23 34 C22 35 21 35 20 36 C20 36 20 36 18 35 C11 34 5 36 -2 39 C-3 39 -5 40 -7 41 C-10 42 -14 44 -17 45 C-23 48 -27 48 -33 46 C-36 46 -36 46 -40 48 C-40 45 -39 42 -39 39 C-38 39 -38 39 -37 39 C-37 38 -37 38 -37 37 C-35 37 -33 36 -32 36 C-26 34 -26 34 -23 30 C-22 30 -22 30 -21 30 C-20 28 -20 27 -19 25 C-18 24 -17 22 -15 21 C-11 15 -12 12 -12 5 C-9 -1 -6 -2 0 0 Z " fill="#C0C4D0" transform="translate(305,379)"/>
<path d="M0 0 C3 0 6 -0 9 -0 C11 -0 13 -0 15 -0 C16 -0 16 -0 20 0 C25 0 25 0 29 2 C22 5 22 5 19 5 C19 6 19 7 19 7 C20 8 21 8 22 8 C16 10 9 10 2 10 C-3 10 -7 11 -12 12 C-16 13 -20 13 -23 13 C-42 15 -42 15 -46 16 C-50 17 -53 17 -56 17 C-59 18 -59 18 -62 18 C-63 22 -63 22 -63 26 C-64 27 -64 27 -67 28 C-68 32 -68 32 -68 37 C-68 38 -68 40 -68 42 C-68 44 -68 46 -68 48 C-68 51 -68 54 -67 57 C-67 61 -67 65 -67 69 C-67 77 -67 84 -67 92 C-67 95 -67 99 -67 103 C-67 105 -67 107 -67 109 C-67 110 -67 112 -67 113 C-67 117 -67 117 -69 121 C-69 128 -69 128 -67 131 C-66 158 -66 158 -70 164 C-73 159 -72 153 -72 147 C-72 147 -72 147 -73 143 C-73 139 -73 134 -73 130 C-73 127 -73 124 -73 121 C-73 114 -73 108 -73 101 C-73 93 -73 85 -73 77 C-73 70 -73 64 -73 58 C-73 55 -73 51 -73 48 C-73 44 -73 40 -73 36 C-73 35 -73 35 -73 32 C-73 26 -73 21 -69 15 C-62 10 -54 6 -45 4 C-44 4 -43 4 -41 3 C-27 1 -14 -0 0 0 Z " fill="#FCFCFB" transform="translate(420.21337890625,270.7392578125)"/>
<path d="M0 0 C1 0 2 1 3 1 C3 2 3 3 3 4 C5 4 8 4 10 4 C10 9 10 9 10 14 C9 14 8 15 7 15 C6 19 6 19 6 22 C5 22 5 22 3 22 C2 22 2 22 -1 22 C-2 23 -2 25 -3 26 C-4 26 -4 26 -5 26 C-6 27 -6 29 -7 30 C-8 30 -8 31 -9 31 C-9 32 -9 33 -9 34 C-10 36 -10 37 -10 38 C-10 38 -10 38 -13 39 C-13 43 -13 43 -13 47 C-12 47 -11 48 -10 48 C-10 51 -10 51 -10 55 C-9 60 -9 60 -9 63 C-9 63 -9 63 -6 65 C-6 67 -7 68 -7 70 C-7 70 -7 70 -9 71 C-9 73 -10 76 -10 78 C-11 78 -12 78 -13 78 C-14 79 -14 81 -15 82 C-15 82 -15 82 -17 83 C-17 84 -17 85 -17 86 C-18 90 -18 90 -22 94 C-25 93 -25 93 -28 90 C-28 85 -28 85 -28 80 C-27 80 -26 80 -25 80 C-24 79 -24 77 -23 76 C-23 76 -23 76 -21 75 C-21 71 -21 71 -21 67 C-21 66 -21 64 -21 63 C-21 61 -21 60 -21 59 C-22 59 -23 58 -24 58 C-24 54 -24 49 -24 45 C-24 44 -24 43 -24 41 C-24 38 -24 35 -24 32 C-23 32 -22 31 -21 31 C-20 27 -20 27 -20 24 C-19 24 -18 24 -17 24 C-16 23 -16 21 -15 20 C-14 20 -14 20 -13 20 C-12 19 -12 17 -11 16 C-10 16 -10 16 -9 16 C-8 15 -8 13 -7 12 C-6 12 -6 11 -5 11 C-5 10 -5 9 -5 8 C-4 4 -4 4 0 0 Z " fill="#D6D5CB" transform="translate(489,145)"/>
<path d="M0 0 C1 0 2 0 3 0 C3 1 3 1 3 2 C4 2 4 2 8 3 C11 9 12 12 12 18 C10 25 6 28 0 32 C-7 35 -13 36 -20 33 C-27 30 -29 26 -31 19 C-32 16 -33 12 -34 8 C-23 1 -23 1 -16 2 C-15 3 -13 4 -12 5 C-11 5 -9 5 -8 5 C-8 4 -7 3 -7 2 C-3 2 -3 2 0 2 C0 1 0 1 0 0 Z " fill="#9597A1" transform="translate(434,381)"/>
<path d="M0 0 C0 6 0 6 -2 10 C-3 10 -3 10 -4 10 C-4 11 -4 11 -4 12 C-7 14 -10 15 -13 17 C-14 18 -16 18 -17 19 C-33 27 -33 27 -44 27 C-47 27 -47 27 -50 28 C-57 28 -63 27 -70 27 C-71 27 -73 27 -74 27 C-75 28 -75 30 -76 31 C-81 29 -82 27 -85 23 C-86 22 -87 20 -88 19 C-90 16 -90 16 -93 11 C-93 10 -92 10 -92 9 C-91 10 -90 10 -89 11 C-83 14 -77 14 -70 14 C-69 14 -68 14 -67 14 C-63 14 -63 14 -59 13 C-55 12 -52 12 -47 13 C-38 14 -31 13 -22 10 C-21 10 -20 9 -19 9 C-14 7 -5 0 0 0 Z " fill="#ADB1BA" transform="translate(266,419)"/>
<path d="M0 0 C9 0 17 3 25 7 C29 8 32 8 36 9 C38 9 41 10 43 10 C46 11 49 11 51 12 C52 12 52 12 55 12 C58 13 62 13 65 14 C65 15 64 15 64 16 C64 16 64 16 61 17 C62 18 64 19 65 20 C57 22 50 24 41 22 C41 21 41 20 41 19 C40 19 40 19 39 19 C39 20 39 21 39 22 C32 24 27 23 20 20 C20 20 20 20 17 18 C15 16 15 16 9 16 C8 16 8 16 5 18 C-1 18 -7 16 -13 14 C-13 13 -13 13 -17 12 C-22 10 -25 8 -29 6 C-29 6 -29 5 -29 5 C-24 5 -21 5 -16 7 C-15 7 -14 8 -13 8 C-10 9 -10 9 -9 10 C-1 10 -1 10 3 9 C3 4 3 4 0 0 Z " fill="#AEB1BA" transform="translate(194,453)"/>
<path d="M0 0 C4 2 7 4 10 7 C11 7 11 7 13 9 C14 9 14 9 16 11 C15 16 15 16 12 18 C-1 24 -1 24 -7 25 C-14 25 -17 27 -22 30 C-32 34 -42 37 -52 33 C-52 32 -52 32 -52 31 C-51 31 -51 31 -50 31 C-50 29 -49 28 -49 26 C-46 25 -46 25 -42 24 C-41 24 -41 24 -38 23 C-37 23 -37 23 -34 22 C-23 19 -12 12 -5 3 C-3 1 -3 1 0 0 Z " fill="#AEB1BA" transform="translate(341,441)"/>
<path d="M0 0 C0 2 0 3 0 5 C-8 10 -8 10 -11 10 C-11 13 -12 17 -12 20 C-13 20 -14 20 -15 20 C-16 17 -17 13 -18 10 C-18 10 -18 10 -20 9 C-20 8 -20 8 -20 7 C-21 7 -23 7 -24 8 C-29 8 -29 8 -33 8 C-36 8 -36 8 -41 11 C-47 13 -51 13 -57 14 C-68 14 -68 14 -71 15 C-71 16 -72 16 -72 17 C-73 17 -73 17 -74 17 C-73 18 -73 19 -72 20 C-72 21 -72 22 -72 23 C-73 24 -75 25 -76 26 C-78 26 -79 25 -81 25 C-81 22 -81 22 -81 18 C-83 14 -83 14 -86 13 C-88 12 -91 11 -93 10 C-96 9 -96 9 -98 4 C-97 4 -96 4 -95 4 C-85 5 -75 5 -65 5 C-64 5 -64 5 -62 5 C-47 5 -12 -6 0 0 Z " fill="#F1F1F0" transform="translate(321,484)"/>
<path d="M0 0 C3 1 3 1 6 4 C6 9 6 9 6 14 C5 14 4 14 3 14 C2 15 2 17 1 18 C1 18 1 18 -1 19 C-1 21 -1 23 -1 24 C-2 26 -2 28 -2 30 C-3 30 -4 31 -5 31 C-6 35 -6 35 -6 41 C-6 42 -6 44 -6 46 C-6 47 -6 49 -6 50 C-7 50 -8 50 -9 50 C-10 51 -10 53 -11 54 C-12 54 -12 54 -13 54 C-14 55 -14 57 -15 58 C-16 58 -16 58 -17 58 C-18 59 -18 61 -19 62 C-20 62 -20 62 -21 62 C-22 63 -22 65 -23 66 C-28 66 -28 66 -32 66 C-32 63 -32 59 -32 56 C-31 56 -30 56 -29 56 C-27 56 -26 56 -25 56 C-24 55 -24 53 -23 52 C-22 52 -22 52 -21 52 C-20 51 -20 49 -19 48 C-19 48 -19 48 -17 47 C-17 41 -17 35 -17 30 C-16 26 -16 23 -16 20 C-15 20 -14 19 -13 19 C-12 15 -12 15 -12 12 C-11 12 -10 12 -9 12 C-8 11 -8 9 -7 8 C-6 8 -6 8 -5 8 C-4 7 -4 5 -3 4 C-2 3 -1 1 0 0 Z " fill="#A78975" transform="translate(529,185)"/>
<path d="M0 0 C7 1 11 4 17 8 C18 9 19 10 21 11 C28 26 32 42 28 58 C26 65 23 70 18 74 C17 75 17 75 13 76 C12 77 12 77 9 78 C11 73 11 73 14 70 C21 61 23 52 23 40 C22 32 19 25 13 20 C9 18 5 17 1 17 C-3 16 -6 15 -9 13 C-8 12 -7 11 -6 10 C-6 9 -6 8 -5 7 C-6 7 -7 7 -8 7 C-5 0 -5 0 0 0 Z " fill="#F4F4F3" transform="translate(273.375,122.6875)"/>
<path d="M0 0 C7 5 13 11 15 19 C15 20 15 21 15 22 C11 26 4 24 -1 24 C-10 24 -20 24 -27 17 C-27 12 -27 12 -24 9 C-24 9 -24 9 -21 6 C-20 6 -20 6 -17 3 C-11 -1 -7 -2 0 0 Z " fill="#F2AF25" transform="translate(344,184)"/>
<path d="M0 0 C1 0 1 0 3 2 C-1 6 -4 8 -9 11 C-10 11 -10 11 -13 13 C-22 18 -29 20 -39 18 C-43 17 -47 15 -51 12 C-50 12 -49 12 -49 11 C-48 10 -47 8 -47 6 C-41 0 -34 -1 -27 -3 C-18 -5 -8 -4 0 0 Z " fill="#5E6064" transform="translate(174.5625,403.5625)"/>
<path d="M0 0 C4 4 4 8 4 14 C4 18 4 18 3 20 C2 21 0 21 -1 22 C-6 24 -6 24 -9 26 C-11 28 -11 28 -17 28 C-18 27 -20 25 -21 24 C-25 24 -28 25 -31 26 C-35 27 -39 27 -43 27 C-43 25 -43 24 -43 22 C-40 20 -40 20 -35 17 C-33 16 -32 15 -30 14 C-27 12 -23 11 -20 9 C-19 8 -17 8 -16 7 C-15 6 -14 6 -12 5 C-4 0 -4 0 0 0 Z " fill="#61646A" transform="translate(88,400)"/>
<path d="M0 0 C1 0 1 0 2 0 C4 11 2 17 -3 27 C-6 32 -7 38 -7 44 C-8 47 -8 47 -10 49 C-11 48 -11 46 -12 45 C-13 45 -14 45 -15 45 C-16 42 -18 38 -19 35 C-20 35 -21 34 -22 34 C-22 35 -22 35 -22 36 C-23 36 -23 36 -24 36 C-24 36 -25 35 -25 35 C-25 36 -25 36 -27 40 C-28 40 -28 40 -31 41 C-27 32 -21 25 -15 17 C-14 16 -14 15 -13 14 C-9 10 -6 6 -2 2 C-1 1 -1 1 0 0 Z " fill="#B8BBC6" transform="translate(145,259)"/>
<path d="M0 0 C4 4 4 4 4 7 C3 15 -2 19 -8 24 C-13 27 -17 29 -23 30 C-24 29 -25 29 -26 28 C-27 22 -26 18 -23 13 C-22 11 -22 10 -21 8 C-19 3 -19 3 -14 0 C-9 -1 -5 -1 0 0 Z " fill="#C1C5D1" transform="translate(216,110)"/>
<path d="M0 0 C5 2 8 4 11 8 C12 9 13 10 14 11 C16 14 17 16 18 20 C15 21 15 21 11 21 C10 19 9 18 8 16 C8 22 8 22 9 26 C6 31 5 32 0 34 C-4 35 -4 35 -9 35 C-11 35 -12 35 -14 35 C-18 35 -18 35 -22 31 C-19 25 -16 23 -10 20 C-3 15 -0 12 2 3 C1 3 0 3 -1 3 C-1 2 -0 1 0 0 Z " fill="#6A6F80" transform="translate(220,279)"/>
<path d="M0 0 C0 0 1 0 1 0 C2 6 -0 10 -3 15 C-3 16 -3 16 -5 20 C-11 23 -16 24 -23 22 C-28 19 -32 17 -34 11 C-34 8 -34 8 -31 3 C-26 2 -24 2 -19 3 C-18 3 -18 3 -15 2 C-11 2 -9 2 -5 3 C-4 3 -4 3 -3 3 C-2 2 -1 1 0 0 Z " fill="#888E9F" transform="translate(439,393)"/>
<path d="M0 0 C5 2 5 2 9 4 C8 4 6 5 5 5 C5 6 5 6 5 7 C2 8 -1 9 -4 10 C-5 10 -5 11 -6 11 C-9 11 -12 11 -15 12 C-18 12 -18 12 -23 15 C-24 15 -26 16 -27 16 C-39 19 -46 26 -53 36 C-56 41 -57 45 -58 50 C-61 45 -62 42 -62 36 C-60 30 -57 25 -52 20 C-50 19 -48 19 -46 18 C-43 16 -39 15 -36 13 C-24 7 -24 7 -21 7 C-16 7 -15 6 -12 3 C-7 -0 -6 -1 0 0 Z " fill="#BCBFCB" transform="translate(388,249)"/>
<path d="M0 0 C3 0 6 0 9 1 C11 1 12 1 14 1 C18 1 18 1 22 0 C45 -1 45 -1 55 2 C55 3 55 3 56 7 C50 9 44 8 38 9 C37 9 37 9 33 9 C25 9 17 9 9 8 C4 8 -1 8 -6 8 C-10 8 -10 8 -13 6 C-13 4 -12 3 -12 1 C-8 -1 -5 -1 0 0 Z " fill="#46240E" transform="translate(396,290)"/>
<path d="M0 0 C6 1 7 3 11 8 C15 16 17 23 15 31 C15 32 14 33 14 34 C15 34 15 34 16 34 C17 36 17 37 18 39 C18 40 19 41 19 42 C20 45 20 45 19 48 C18 49 17 49 16 50 C16 51 15 52 14 53 C12 55 12 55 10 55 C10 56 10 58 10 59 C6 62 6 62 1 62 C2 58 3 55 5 51 C5 51 5 51 7 50 C7 47 8 45 8 42 C8 41 8 39 9 38 C9 31 8 25 6 18 C5 17 5 15 4 14 C3 10 3 10 1 6 C0 3 0 3 0 0 Z " fill="#BBBECA" transform="translate(294,134)"/>
<path d="M0 0 C3 1 3 1 5 5 C6 5 6 6 7 6 C7 8 7 9 7 11 C8 13 8 14 8 16 C9 17 10 17 11 18 C11 20 10 21 10 23 C9 23 9 24 8 24 C8 26 7 29 7 31 C6 31 5 31 4 31 C3 32 3 34 2 35 C2 35 2 35 0 36 C-0 37 -0 38 -0 39 C-1 43 -1 43 -5 47 C-8 46 -8 46 -11 43 C-11 38 -11 38 -11 33 C-10 33 -9 33 -8 33 C-7 32 -7 30 -6 29 C-5 29 -5 28 -4 28 C-4 23 -4 17 -4 12 C-4 9 -4 6 -4 3 C-3 3 -2 2 -1 2 C-1 1 -0 1 0 0 Z " fill="#C8AD99" transform="translate(472,192)"/>
<path d="M0 0 C1 1 3 1 4 2 C6 9 5 15 2 21 C-1 23 -5 21 -8 20 C-12 19 -15 19 -19 19 C-20 19 -20 19 -24 17 C-25 14 -25 14 -25 11 C-21 5 -13 4 -7 2 C-1 1 -1 1 0 0 Z " fill="#C1C5D1" transform="translate(325,331)"/>
<path d="M0 0 C1 0 2 0 4 0 C7 1 10 1 13 1 C13 2 13 2 14 3 C14 4 13 5 13 5 C12 5 12 5 11 5 C11 6 11 7 11 7 C12 8 12 8 16 8 C10 14 -6 12 -14 12 C-15 12 -17 12 -18 12 C-20 12 -21 12 -23 12 C-31 12 -40 11 -48 10 C-48 10 -49 9 -49 8 C-48 8 -46 8 -45 8 C-45 7 -45 6 -45 5 C-44 5 -44 5 -43 5 C-43 6 -43 7 -43 8 C-35 9 -29 8 -21 6 C-22 5 -23 4 -24 3 C-16 -1 -9 -1 0 0 Z " fill="#BBBECA" transform="translate(278.0625,466.625)"/>
<path d="M0 0 C0 6 0 6 -2 10 C-3 10 -3 10 -4 10 C-4 11 -4 11 -4 12 C-7 14 -10 15 -13 17 C-14 18 -16 18 -17 19 C-34 28 -34 28 -45 26 C-41 23 -41 23 -39 23 C-39 22 -39 22 -39 21 C-40 21 -40 20 -41 20 C-35 16 -28 13 -22 10 C-16 8 -6 0 0 0 Z " fill="#9CA1B0" transform="translate(266,419)"/>
<path d="M0 0 C0 1 0 1 0 2 C1 2 1 2 2 2 C2 1 2 1 2 0 C3 0 4 1 5 1 C0 16 0 16 -4 22 C-8 22 -8 22 -11 20 C-11 20 -12 21 -12 21 C-14 21 -17 22 -19 22 C-20 22 -20 23 -21 23 C-22 22 -24 22 -25 21 C-26 16 -26 16 -27 12 C-24 10 -24 10 -19 10 C-18 12 -18 15 -17 17 C-16 17 -14 17 -13 17 C-13 16 -13 16 -13 13 C-13 8 -13 8 -11 3 C-5 -2 -5 -2 0 0 Z " fill="#2F2927" transform="translate(446,362)"/>
<path d="M0 0 C4 -0 8 0 12 0 C24 1 24 1 27 0 C31 -0 31 -0 35 0 C36 1 36 1 37 2 C37 2 37 2 35 5 C33 8 33 8 34 13 C34 13 34 13 35 16 C29 17 25 15 20 12 C15 10 10 10 4 9 C1 8 1 8 -2 4 C-1 3 -1 1 0 0 Z " fill="#BBBECA" transform="translate(192,445)"/>
<path d="M0 0 C4 2 7 4 10 7 C11 8 12 8 13 9 C14 10 15 10 16 11 C16 13 15 14 15 16 C9 19 6 19 -1 20 C-2 20 -4 20 -6 20 C-8 19 -9 19 -11 19 C-12 17 -13 16 -14 14 C-12 10 -11 9 -7 6 C-7 6 -7 6 -5 3 C-3 1 -3 1 0 0 Z " fill="#9DA1AF" transform="translate(341,441)"/>
<path d="M0 0 C1 0 2 0 3 0 C3 3 4 6 4 9 C4 11 4 12 5 14 C5 19 5 23 5 28 C6 27 7 26 8 25 C9 25 9 25 10 25 C10 27 10 28 10 30 C9 30 8 30 7 30 C6 31 6 33 5 34 C4 34 4 34 3 34 C2 35 2 37 1 38 C0 38 -0 38 -1 38 C-2 39 -2 41 -3 42 C-4 42 -4 42 -5 42 C-6 43 -6 45 -7 46 C-12 46 -12 46 -16 46 C-16 43 -16 39 -16 36 C-15 36 -14 36 -13 36 C-11 36 -10 36 -9 36 C-8 35 -8 33 -7 32 C-6 32 -6 32 -5 32 C-4 31 -4 29 -3 28 C-2 28 -2 27 -1 27 C-1 24 -1 24 -1 21 C-1 20 -1 20 -0 17 C-0 16 -0 15 -0 13 C-0 12 -0 11 -0 10 C-0 6 -0 3 0 0 Z " fill="#BCA493" transform="translate(513,205)"/>
<path d="M0 0 C0 0 0 0 2 2 C-14 6 -28 7 -44 7 C-45 7 -45 7 -50 7 C-69 7 -69 7 -77 5 C-77 4 -77 3 -77 2 C-69 1 -62 1 -54 1 C-53 1 -52 1 -51 1 C-47 1 -43 1 -39 1 C-34 1 -29 1 -24 1 C-23 1 -22 1 -21 1 C-14 1 -7 -0 0 0 Z " fill="#FCFDFC" transform="translate(466,446)"/>
<path d="M0 0 C4 1 4 1 6 4 C9 6 9 6 14 7 C15 7 17 8 18 8 C18 10 18 13 17 15 C17 17 17 18 17 19 C16 23 16 23 12 26 C11 25 10 24 9 23 C7 22 6 21 4 21 C-1 18 -1 18 -3 15 C-4 11 -4 7 -3 3 C-2 2 -1 1 0 0 Z " fill="#BDC0CB" transform="translate(119,338)"/>
<path d="M0 0 C3 1 3 1 4 3 C7 3 9 3 12 3 C13 3 13 3 17 3 C21 3 24 3 28 3 C29 3 29 3 33 4 C34 4 36 4 37 4 C39 4 40 4 41 4 C42 5 42 6 43 7 C40 7 38 7 35 8 C35 8 35 8 31 8 C27 8 24 7 20 6 C16 6 12 6 8 6 C8 7 9 9 9 10 C8 11 8 11 7 12 C6 12 5 12 4 12 C4 14 3 15 3 17 C-2 22 -6 23 -13 24 C-15 24 -16 24 -18 25 C-19 25 -20 25 -21 25 C-20 18 -20 18 -19 16 C-16 16 -14 16 -11 16 C-8 16 -6 16 -3 16 C-3 16 -2 15 -2 15 C-2 13 -2 11 -2 10 C-2 4 -2 4 0 0 Z " fill="#F3F3F2" transform="translate(373,489)"/>
<path d="M0 0 C0 2 0 3 0 5 C-8 10 -8 10 -11 10 C-11 13 -12 17 -12 20 C-13 20 -14 20 -15 20 C-16 17 -17 13 -18 10 C-19 10 -19 9 -20 9 C-20 8 -20 8 -20 7 C-21 7 -23 7 -24 8 C-29 8 -29 8 -35 8 C-36 7 -36 5 -37 4 C-35 4 -34 3 -32 3 C-30 3 -27 2 -25 2 C-25 2 -25 2 -22 2 C-3 -2 -3 -2 0 0 Z " fill="#F8FAF9" transform="translate(321,484)"/>
<path d="M0 0 C1 1 2 1 3 2 C5 2 6 2 8 2 C8 4 7 5 7 7 C7 8 7 10 6 11 C5 17 3 19 -1 22 C-4 22 -4 22 -7 21 C-9 19 -9 19 -9 15 C-9 10 -9 6 -8 1 C-5 -1 -5 -1 0 0 Z " fill="#9A9FAE" transform="translate(107,370)"/>
<path d="M0 0 C1 -0 3 -0 4 -0 C10 0 15 0 21 0 C20 2 20 3 19 4 C16 5 16 5 11 5 C11 5 11 5 7 4 C4 4 0 4 -3 4 C-4 4 -6 4 -8 4 C-9 4 -10 4 -12 4 C-13 4 -14 4 -15 4 C-16 6 -16 7 -17 8 C-21 9 -21 9 -26 9 C-27 9 -29 9 -31 9 C-33 9 -34 9 -36 9 C-38 8 -40 8 -42 8 C-46 8 -51 8 -55 8 C-51 4 -47 4 -41 4 C-39 4 -37 4 -35 4 C-21 5 -21 5 -14 2 C-9 1 -5 0 0 0 Z " fill="#F3F3F2" transform="translate(387.0625,518.734375)"/>
<path d="M0 0 C6 0 10 2 14 7 C14 8 13 8 13 9 C9 10 6 10 2 10 C2 11 2 11 2 12 C-1 13 -1 13 -4 14 C-9 15 -12 16 -16 19 C-17 20 -19 20 -20 21 C-21 21 -21 21 -25 19 C-26 16 -26 16 -26 13 C-25 12 -24 11 -23 10 C-21 10 -19 10 -18 11 C-10 12 -6 9 0 5 C0 4 1 3 1 2 C1 1 0 1 0 0 Z " fill="#AFB2BB" transform="translate(183,263)"/>
<path d="M0 0 C1 0 1 0 2 0 C4 3 3 6 3 10 C3 11 3 13 3 14 C3 18 3 18 1 22 C-6 26 -6 26 -9 26 C-10 27 -10 29 -11 30 C-13 32 -16 33 -18 35 C-18 34 -18 33 -18 32 C-17 31 -17 31 -16 30 C-9 23 -9 17 -8 8 C-7 4 -5 3 -1 1 C-1 1 -0 0 0 0 Z " fill="#F3F3F2" transform="translate(406,164)"/>
<path d="M0 0 C2 0 4 0 6 0 C6 6 5 10 1 15 C-0 16 -2 16 -3 17 C-8 19 -10 20 -12 24 C-13 27 -14 30 -15 33 C-17 32 -18 32 -20 31 C-20 24 -16 20 -12 15 C-11 15 -11 15 -10 15 C-9 14 -9 12 -8 11 C-6 8 -4 6 -2 3 C-1 2 -1 1 0 0 Z " fill="#9B694A" transform="translate(489,151)"/>
<path d="M0 0 C5 -0 5 -0 10 0 C8 3 6 3 2 4 C2 5 2 5 -1 6 C-5 7 -5 7 -9 8 C-9 8 -9 8 -12 9 C-12 11 -12 12 -12 14 C-9 15 -9 15 -4 16 C-1 17 1 17 4 18 C5 18 6 19 8 19 C11 20 11 20 13 22 C11 22 9 22 7 22 C5 22 4 22 3 22 C2 22 1 22 0 22 C-1 21 -1 19 -2 18 C-5 18 -5 18 -9 18 C-13 18 -13 18 -16 18 C-17 17 -17 15 -18 14 C-19 14 -20 13 -21 13 C-21 11 -20 10 -20 8 C-19 8 -19 8 -18 8 C-17 7 -17 5 -16 4 C-12 4 -9 4 -5 4 C-4 4 -3 4 -2 4 C-1 3 -1 1 0 0 Z " fill="#F3F3F2" transform="translate(130,497)"/>
<path d="M0 0 C1 0 2 1 3 1 C3 2 2 4 2 5 C3 5 5 5 6 5 C6 4 5 2 5 1 C5 1 6 0 6 0 C8 0 10 0 12 0 C15 5 16 10 17 16 C15 16 14 15 12 14 C7 13 7 13 5 13 C5 14 4 15 4 16 C-0 16 -2 15 -5 12 C-3 7 -3 7 -1 6 C-0 3 -0 3 0 0 Z " fill="#2C2D31" transform="translate(389,392)"/>
<path d="M0 0 C1 1 2 3 3 4 C1 8 1 8 -3 11 C-4 11 -4 11 -5 11 C-5 12 -5 12 -5 13 C-7 13 -8 14 -10 14 C-10 15 -10 15 -10 16 C-13 16 -16 15 -19 15 C-19 15 -19 14 -19 14 C-17 14 -16 13 -14 13 C-16 12 -17 11 -19 10 C-19 9 -19 9 -19 8 C-18 8 -18 7 -17 7 C-17 6 -16 4 -16 3 C-10 -0 -6 -2 0 0 Z " fill="#F3F3F2" transform="translate(400,147)"/>
<path d="M0 0 C0 1 1 2 1 3 C2 3 2 3 6 4 C6 5 6 6 6 7 C4 7 3 7 1 7 C0 8 -1 8 -2 9 C-5 9 -5 9 -9 8 C-10 8 -12 8 -13 8 C-14 7 -14 7 -16 7 C-16 6 -16 6 -16 5 C-17 5 -18 5 -20 5 C-24 5 -24 5 -29 4 C-29 3 -28 2 -28 1 C-23 -0 -19 -0 -15 -1 C-13 -1 -11 -1 -10 -1 C-5 -1 -5 -1 0 0 Z " fill="#BCBFCB" transform="translate(316,44)"/>
<path d="M0 0 C2 0 3 0 5 0 C5 1 4 2 4 3 C3 3 3 3 2 3 C2 4 1 5 1 6 C0 6 -1 5 -2 5 C-1 3 -1 2 0 0 Z " fill="#F5F5F4" transform="translate(514,433)"/>
<path d="M0 0 C1 0 1 0 2 0 C2 1 2 1 2 2 C1 2 1 2 0 2 C0 1 0 1 0 0 Z " fill="#FDFEFD" transform="translate(349,477)"/>
</svg>
