<?xml version="1.0" encoding="UTF-8"?>
<!-- Generator: visioncortex VTracer 0.6.12 -->
<svg version="1.1" xmlns="http://www.w3.org/2000/svg" width="688" height="596">
<path d="M0 0 C4 -0 7 -1 11 -1 C12 -1 13 -1 14 -1 C16 -1 18 -1 21 -1 C24 -1 27 -1 31 -1 C33 -1 35 -1 37 -1 C38 -1 38 -1 41 -1 C43 -1 43 -1 48 0 C49 1 49 3 50 4 C54 4 54 4 59 4 C64 4 64 4 68 4 C69 5 69 7 70 8 C72 8 74 8 76 8 C77 9 77 11 78 12 C80 12 82 12 84 12 C85 13 85 15 86 16 C88 16 90 16 92 16 C93 17 93 19 94 20 C96 20 98 20 100 20 C101 21 101 23 102 24 C103 24 103 24 106 26 C106 27 106 27 106 28 C108 28 110 28 112 28 C113 29 113 31 114 32 C115 33 117 33 118 34 C118 35 118 35 118 36 C119 37 121 37 122 38 C122 39 122 39 122 40 C123 41 125 41 126 42 C126 43 126 43 126 44 C127 45 129 45 130 46 C130 47 130 47 130 48 C131 48 132 48 133 48 C133 49 133 50 133 51 C134 55 134 55 138 58 C138 59 138 59 138 60 C139 61 141 61 142 62 C142 63 142 63 142 64 C143 64 144 64 145 64 C145 65 145 66 145 67 C146 69 146 70 146 71 C147 71 148 72 149 72 C149 74 150 77 150 79 C151 79 152 80 153 80 C153 84 154 87 154 91 C155 91 156 92 157 92 C157 96 158 99 158 103 C159 103 160 104 161 104 C161 108 162 111 162 115 C163 115 164 116 165 116 C165 120 166 124 166 128 C166 129 166 130 166 131 C167 131 168 132 169 132 C169 137 169 142 170 147 C170 150 170 152 170 155 C171 155 172 156 173 156 C173 162 173 168 174 173 C174 177 174 180 174 183 C175 183 176 184 177 184 C178 187 178 187 178 192 C178 193 178 194 178 196 C178 197 178 198 178 199 C181 199 181 199 185 199 C186 198 187 197 188 196 C189 196 190 196 191 196 C192 195 193 195 194 195 C194 194 195 193 195 192 C196 192 197 192 198 192 C199 192 199 192 202 192 C203 191 203 189 204 188 C205 188 205 188 206 188 C207 187 207 185 208 184 C210 184 212 184 214 184 C215 183 215 181 216 180 C218 180 220 180 222 180 C223 179 223 177 224 176 C225 176 225 176 226 176 C227 175 227 173 228 172 C230 172 232 172 234 172 C235 171 235 169 236 168 C237 168 237 168 238 168 C239 167 239 165 240 164 C242 164 244 164 246 164 C247 163 247 161 248 160 C249 160 249 160 250 160 C251 159 251 157 252 156 C253 156 253 156 254 156 C255 155 255 153 256 152 C257 152 257 152 258 152 C259 151 259 149 260 148 C262 148 264 148 266 148 C267 147 267 145 268 144 C269 144 269 144 270 144 C271 143 271 141 272 140 C273 140 273 140 274 140 C275 139 275 137 276 136 C277 136 277 136 278 136 C279 135 279 133 280 132 C281 132 281 132 282 132 C283 131 283 129 284 128 C285 128 285 128 286 128 C287 127 287 125 288 124 C289 124 289 124 290 124 C291 123 291 121 292 120 C294 120 296 120 298 120 C299 119 299 117 300 116 C302 116 304 116 306 116 C307 115 307 113 308 112 C312 111 312 111 316 112 C317 111 319 111 320 111 C322 112 323 112 324 112 C325 113 325 115 326 116 C327 117 329 117 330 118 C330 119 330 119 330 120 C331 120 332 120 333 120 C333 126 333 131 333 137 C333 138 333 138 333 142 C333 143 333 145 333 146 C333 148 333 149 333 151 C333 151 333 151 333 154 C332 154 331 155 330 155 C330 158 329 162 329 165 C329 165 329 165 326 167 C326 168 326 170 326 171 C328 171 329 171 331 171 C333 171 334 172 336 172 C337 173 337 175 338 176 C339 176 340 176 341 176 C341 177 341 177 341 179 C342 181 342 182 342 183 C343 183 344 184 345 184 C345 187 345 187 345 191 C345 192 345 194 345 195 C345 195 345 195 345 198 C344 198 343 199 342 199 C342 201 342 203 342 204 C341 206 341 208 341 210 C340 210 339 211 338 211 C338 212 338 213 338 214 C337 216 337 217 337 218 C336 218 335 219 334 219 C333 223 333 223 333 226 C332 226 331 226 330 226 C329 227 329 229 328 230 C327 230 327 230 326 230 C325 231 325 233 324 234 C323 234 323 234 322 234 C321 235 321 237 320 238 C319 238 319 239 318 239 C318 240 318 242 318 243 C319 244 321 245 322 246 C322 247 322 247 322 248 C323 248 324 248 325 248 C325 251 325 254 325 257 C325 258 325 258 325 262 C325 263 325 265 325 266 C324 266 323 267 322 267 C322 268 322 269 322 270 C321 272 321 273 321 274 C320 274 319 275 318 275 C317 279 317 279 317 282 C316 282 315 282 314 282 C313 283 313 285 312 286 C311 286 311 286 310 286 C309 287 309 289 308 290 C307 290 307 290 306 290 C305 291 305 293 304 294 C303 294 303 294 302 294 C301 295 301 297 300 298 C298 298 296 298 294 298 C293 299 293 301 292 302 C291 302 291 302 290 302 C289 303 289 305 288 306 C287 306 286 306 285 306 C284 306 283 307 282 307 C281 311 281 311 281 317 C281 318 281 320 281 322 C281 323 281 323 281 326 C280 326 279 326 278 326 C277 327 277 329 276 330 C275 330 275 330 274 330 C273 331 273 333 272 334 C271 334 271 334 270 334 C269 335 269 337 268 338 C267 338 267 338 266 338 C265 339 265 341 264 342 C262 342 260 342 258 342 C257 343 257 345 256 346 C253 346 249 346 246 346 C245 347 245 349 244 350 C242 350 241 350 239 350 C237 351 236 351 234 351 C233 355 233 355 233 358 C232 358 231 358 230 358 C229 359 229 361 228 362 C227 362 227 362 226 362 C225 363 225 365 224 366 C222 366 220 366 218 366 C217 367 217 369 216 370 C210 370 205 370 199 370 C196 370 193 370 190 370 C189 371 189 373 188 374 C187 374 187 375 186 375 C186 377 186 379 186 380 C185 382 185 384 185 386 C184 386 183 387 182 387 C182 389 182 391 182 392 C181 394 181 396 181 398 C180 398 179 399 178 399 C178 400 178 401 178 402 C177 404 177 405 177 406 C176 406 175 407 174 407 C173 411 173 411 173 414 C172 414 171 414 170 414 C169 415 169 417 168 418 C167 418 167 418 166 418 C165 419 165 421 164 422 C163 422 163 423 162 423 C162 425 161 428 161 430 C160 430 159 430 158 430 C157 431 157 433 156 434 C155 434 155 434 154 434 C153 435 153 437 152 438 C150 438 148 438 146 438 C145 439 145 441 144 442 C143 442 143 442 142 442 C141 443 141 445 140 446 C139 446 139 446 138 446 C137 447 137 449 136 450 C135 450 135 450 134 450 C133 451 133 453 132 454 C131 454 131 455 130 455 C130 457 129 460 129 462 C128 462 127 462 126 462 C125 463 125 465 124 466 C123 466 123 466 122 466 C121 467 121 469 120 470 C119 470 119 470 118 470 C117 471 117 473 116 474 C113 475 113 475 110 475 C110 479 110 479 112 481 C115 483 117 484 121 484 C121 485 121 485 121 486 C119 486 116 487 114 487 C114 488 114 490 114 491 C116 491 117 491 119 491 C121 491 122 492 124 492 C125 493 125 495 126 496 C127 497 129 497 130 498 C130 499 130 499 130 500 C131 501 133 501 134 502 C134 503 134 503 134 504 C135 505 137 505 138 506 C138 507 138 507 138 508 C139 508 141 508 142 508 C146 508 151 508 156 508 C158 508 160 508 162 508 C165 508 168 508 171 508 C172 508 174 508 176 508 C177 508 179 508 180 508 C181 509 181 510 182 511 C183 511 185 511 186 511 C187 510 187 509 188 508 C189 508 189 508 190 508 C191 507 191 505 192 504 C193 504 193 504 194 504 C195 503 195 501 196 500 C198 500 200 500 202 500 C203 499 203 497 204 496 C206 496 208 496 210 496 C211 495 211 493 212 492 C213 492 213 492 214 492 C215 491 215 489 216 488 C218 488 220 488 222 488 C223 487 223 485 224 484 C226 484 228 484 230 484 C231 483 231 481 232 480 C233 480 233 480 234 480 C235 479 235 477 236 476 C238 476 240 476 242 476 C243 475 243 473 244 472 C246 472 248 472 250 472 C251 471 251 469 252 468 C255 468 255 468 259 468 C260 468 261 468 262 468 C263 468 264 468 265 468 C265 471 265 475 265 478 C264 478 263 478 262 478 C260 478 259 478 258 478 C257 479 257 481 256 482 C254 482 252 482 250 482 C249 483 249 485 248 486 C247 486 247 486 246 486 C245 487 245 489 244 490 C242 490 240 490 238 490 C237 491 237 493 236 494 C234 494 232 494 230 494 C229 495 229 497 228 498 C226 498 224 498 222 498 C221 499 221 501 220 502 C219 502 219 502 218 502 C217 503 217 505 216 506 C213 507 213 507 210 507 C210 508 210 510 210 511 C212 511 213 511 215 511 C217 511 219 511 221 511 C223 511 224 511 225 511 C228 511 228 511 233 512 C234 515 234 515 234 519 C235 520 236 520 237 521 C237 523 236 524 236 526 C234 526 232 526 230 526 C229 527 229 529 228 530 C225 530 221 530 218 530 C217 531 217 533 216 534 C210 534 205 534 199 534 C196 534 193 534 190 534 C189 535 189 537 188 538 C184 538 184 538 180 538 C178 538 176 538 174 538 C171 538 167 538 164 538 C162 538 160 538 158 538 C158 538 158 538 154 538 C153 538 153 538 150 538 C149 539 149 541 148 542 C144 542 140 542 136 542 C135 542 134 542 132 542 C127 542 122 542 117 542 C113 542 110 542 106 542 C105 542 104 542 102 542 C99 542 99 542 94 542 C93 543 93 545 92 546 C88 546 84 547 80 547 C80 547 80 547 77 547 C73 547 69 547 65 547 C62 547 59 547 56 547 C51 547 45 547 39 547 C32 546 24 547 17 547 C11 547 5 547 -1 547 C-3 547 -6 547 -9 547 C-13 547 -17 547 -20 547 C-22 547 -23 547 -24 547 C-27 547 -27 547 -32 546 C-33 545 -33 543 -34 542 C-39 542 -43 542 -48 542 C-49 542 -50 542 -52 542 C-56 542 -61 542 -65 542 C-71 542 -77 542 -82 542 C-83 542 -83 542 -86 542 C-90 542 -93 542 -96 542 C-97 541 -97 539 -98 538 C-102 538 -102 538 -108 538 C-109 538 -109 538 -111 538 C-115 538 -118 538 -121 538 C-125 538 -130 538 -134 538 C-136 538 -138 538 -140 538 C-141 538 -142 538 -144 538 C-145 537 -145 535 -146 534 C-150 534 -150 534 -155 534 C-160 534 -160 534 -164 534 C-165 533 -165 531 -166 530 C-168 530 -169 530 -171 530 C-173 530 -174 530 -176 530 C-177 529 -177 527 -178 526 C-179 525 -181 525 -182 524 C-183 523 -184 523 -185 522 C-185 521 -185 521 -185 520 C-183 518 -183 518 -180 516 C-178 516 -176 516 -174 516 C-173 515 -173 513 -172 512 C-169 511 -169 511 -165 511 C-164 511 -162 511 -161 511 C-160 511 -159 511 -158 511 C-158 510 -158 508 -158 507 C-159 507 -159 507 -162 504 C-162 503 -162 503 -162 502 C-164 502 -166 502 -168 502 C-169 501 -169 499 -170 498 C-172 498 -174 498 -176 498 C-177 497 -177 495 -178 494 C-180 494 -181 494 -183 494 C-185 494 -186 494 -188 494 C-189 493 -189 491 -190 490 C-192 490 -194 490 -196 490 C-197 489 -197 487 -198 486 C-200 486 -203 486 -205 486 C-205 481 -205 477 -205 472 C-201 472 -201 472 -196 472 C-195 473 -195 475 -194 476 C-192 476 -190 476 -188 476 C-187 477 -187 479 -186 480 C-184 480 -182 480 -180 480 C-179 481 -179 483 -178 484 C-176 484 -174 484 -172 484 C-171 485 -171 487 -170 488 C-169 489 -167 489 -166 490 C-166 491 -166 491 -166 492 C-164 492 -162 492 -160 492 C-159 493 -159 495 -158 496 C-156 496 -154 496 -152 496 C-151 497 -151 499 -150 500 C-149 501 -147 501 -146 502 C-146 503 -146 503 -146 504 C-144 504 -142 504 -140 504 C-139 505 -139 507 -138 508 C-134 508 -130 509 -126 509 C-126 509 -126 509 -123 509 C-121 509 -118 509 -116 509 C-112 509 -108 509 -105 509 C-102 509 -100 509 -98 509 C-97 509 -97 509 -94 509 C-91 509 -91 509 -86 508 C-85 507 -85 505 -84 504 C-83 504 -83 504 -82 504 C-81 503 -81 501 -80 500 C-79 500 -79 500 -78 500 C-77 499 -77 497 -76 496 C-75 496 -75 496 -74 496 C-73 495 -73 493 -72 492 C-67 491 -67 491 -62 491 C-62 490 -62 488 -62 487 C-66 486 -66 486 -69 485 C-69 483 -68 482 -68 480 C-65 479 -65 479 -62 479 C-62 478 -62 476 -62 475 C-64 474 -67 474 -69 473 C-69 472 -70 471 -70 470 C-71 469 -73 469 -74 468 C-74 467 -74 467 -74 466 C-75 466 -76 466 -77 466 C-77 465 -77 464 -77 463 C-77 462 -77 462 -78 459 C-79 459 -80 458 -81 458 C-81 457 -81 457 -81 455 C-82 451 -82 451 -86 448 C-86 447 -86 447 -86 446 C-88 446 -90 446 -92 446 C-93 445 -93 443 -94 442 C-95 441 -97 441 -98 440 C-98 439 -98 439 -98 438 C-99 437 -101 437 -102 436 C-102 435 -102 435 -102 434 C-103 433 -105 433 -106 432 C-106 431 -106 431 -106 430 C-107 429 -109 429 -110 428 C-110 427 -110 427 -110 426 C-111 425 -113 425 -114 424 C-114 423 -114 423 -114 422 C-115 422 -116 422 -117 422 C-117 421 -117 420 -117 419 C-118 415 -118 415 -122 412 C-122 411 -122 411 -122 410 C-123 410 -124 410 -125 410 C-125 409 -125 408 -125 407 C-125 406 -125 406 -126 403 C-127 403 -128 402 -129 402 C-129 398 -130 395 -130 391 C-131 391 -132 390 -133 390 C-133 388 -134 385 -134 383 C-135 383 -136 382 -137 382 C-137 378 -138 375 -138 371 C-139 371 -140 371 -141 371 C-145 371 -149 371 -153 371 C-154 371 -156 371 -157 371 C-159 371 -160 371 -161 371 C-162 371 -162 371 -165 371 C-166 370 -167 370 -168 370 C-169 369 -169 367 -170 366 C-171 365 -173 365 -174 364 C-174 363 -174 363 -174 362 C-176 362 -178 362 -180 362 C-181 361 -181 359 -182 358 C-183 358 -184 358 -185 358 C-185 357 -185 356 -185 355 C-185 353 -186 352 -186 351 C-191 350 -191 350 -196 350 C-197 349 -197 347 -198 346 C-200 346 -202 346 -204 346 C-205 345 -205 343 -206 342 C-208 342 -210 342 -212 342 C-213 341 -213 339 -214 338 C-215 337 -217 337 -218 336 C-218 335 -218 335 -218 334 C-219 333 -221 333 -222 332 C-222 331 -222 331 -222 330 C-223 329 -225 329 -226 328 C-226 327 -226 327 -226 326 C-227 326 -228 326 -229 326 C-229 325 -229 323 -229 322 C-229 321 -229 321 -229 317 C-229 315 -229 313 -229 311 C-229 310 -230 308 -230 307 C-233 306 -233 306 -237 305 C-237 305 -237 305 -238 302 C-239 301 -241 301 -242 300 C-242 299 -242 299 -242 298 C-244 298 -246 298 -248 298 C-248 297 -248 297 -250 294 C-251 293 -253 293 -254 292 C-254 291 -254 291 -254 290 C-255 289 -257 289 -258 288 C-258 287 -258 287 -258 286 C-259 285 -261 285 -262 284 C-262 283 -262 283 -262 282 C-263 281 -265 281 -266 280 C-266 279 -266 279 -266 278 C-267 278 -268 278 -269 278 C-269 277 -269 276 -269 275 C-270 273 -270 272 -270 271 C-271 271 -272 270 -273 270 C-273 266 -273 263 -273 259 C-273 258 -273 258 -273 256 C-273 253 -273 251 -273 248 C-272 248 -271 248 -270 248 C-270 247 -270 247 -268 244 C-267 244 -267 243 -266 243 C-266 242 -266 240 -266 239 C-267 238 -269 237 -270 236 C-270 235 -270 235 -270 234 C-271 233 -273 233 -274 232 C-274 231 -274 231 -274 230 C-275 229 -277 229 -278 228 C-278 227 -278 227 -278 226 C-279 226 -280 226 -281 226 C-281 225 -281 224 -281 223 C-282 221 -282 220 -282 219 C-283 219 -284 218 -285 218 C-285 216 -286 213 -286 211 C-287 211 -288 210 -289 210 C-289 208 -290 205 -290 203 C-291 203 -292 202 -293 202 C-293 198 -293 195 -293 191 C-293 190 -293 189 -293 188 C-293 185 -293 183 -293 180 C-292 180 -291 180 -290 180 C-290 179 -290 179 -288 176 C-287 176 -287 176 -286 176 C-286 175 -286 175 -284 172 C-279 171 -279 171 -274 171 C-274 170 -274 168 -274 167 C-274 167 -274 167 -277 165 C-277 163 -277 162 -278 160 C-278 158 -278 157 -278 155 C-279 155 -280 154 -281 154 C-281 151 -281 151 -281 146 C-281 145 -281 143 -281 142 C-281 140 -281 139 -281 137 C-281 135 -281 134 -281 132 C-281 128 -281 124 -281 120 C-280 120 -279 120 -278 120 C-277 119 -277 117 -276 116 C-275 116 -275 116 -274 116 C-273 115 -273 113 -272 112 C-268 111 -268 111 -262 112 C-260 111 -258 111 -256 111 C-255 112 -254 112 -252 112 C-251 113 -251 115 -250 116 C-249 117 -247 117 -246 118 C-246 119 -246 119 -246 120 C-245 121 -243 121 -242 122 C-242 123 -242 123 -242 124 C-241 125 -239 125 -238 126 C-238 127 -238 127 -238 128 C-236 128 -234 128 -232 128 C-232 129 -232 129 -230 132 C-229 132 -229 132 -226 134 C-226 135 -226 135 -226 136 C-225 136 -225 136 -222 138 C-222 139 -222 139 -222 140 C-221 140 -221 140 -218 142 C-218 143 -218 143 -218 144 C-217 144 -217 144 -214 146 C-214 147 -214 147 -214 148 C-213 148 -213 148 -210 150 C-210 151 -210 151 -210 152 C-208 152 -206 152 -204 152 C-203 153 -203 155 -202 156 C-201 156 -201 156 -198 158 C-198 159 -198 159 -198 160 C-197 160 -197 160 -194 162 C-194 163 -194 163 -194 164 C-192 164 -190 164 -188 164 C-187 165 -187 167 -186 168 C-185 168 -185 168 -182 170 C-182 171 -182 171 -182 172 C-181 172 -181 172 -178 174 C-178 175 -178 175 -178 176 C-176 176 -174 176 -172 176 C-171 177 -171 179 -170 180 C-168 180 -166 180 -164 180 C-163 181 -163 183 -162 184 C-161 185 -159 185 -158 186 C-158 187 -158 187 -158 188 C-156 188 -154 188 -152 188 C-151 189 -151 191 -150 192 C-148 192 -145 192 -143 192 C-143 193 -142 194 -142 195 C-140 196 -137 196 -135 197 C-135 198 -134 198 -134 199 C-133 199 -131 199 -130 199 C-130 198 -130 197 -130 196 C-130 195 -130 193 -130 192 C-130 191 -130 191 -130 188 C-129 187 -129 186 -129 185 C-128 184 -127 184 -126 183 C-126 178 -125 173 -125 168 C-125 167 -125 165 -125 164 C-124 164 -123 163 -122 163 C-122 160 -122 160 -122 156 C-121 151 -121 151 -121 148 C-120 148 -119 147 -118 147 C-118 143 -118 139 -118 136 C-117 132 -117 128 -117 124 C-116 124 -115 123 -114 123 C-114 120 -114 120 -114 116 C-113 111 -113 111 -113 108 C-112 108 -111 107 -110 107 C-110 105 -110 103 -110 102 C-109 100 -109 98 -109 96 C-108 96 -107 95 -106 95 C-106 94 -106 93 -106 92 C-105 90 -105 89 -105 88 C-104 88 -103 87 -102 87 C-102 86 -102 85 -102 84 C-101 82 -101 81 -101 80 C-100 80 -99 79 -98 79 C-98 78 -98 77 -98 76 C-97 74 -97 73 -97 72 C-96 72 -95 71 -94 71 C-93 67 -93 67 -93 64 C-92 64 -91 64 -90 64 C-89 63 -89 61 -88 60 C-87 60 -87 59 -86 59 C-86 57 -85 54 -85 52 C-84 52 -83 52 -82 52 C-81 51 -81 49 -80 48 C-79 48 -79 48 -78 48 C-77 47 -77 45 -76 44 C-75 44 -75 44 -74 44 C-73 43 -73 41 -72 40 C-71 40 -71 40 -70 40 C-69 39 -69 37 -68 36 C-67 36 -67 36 -66 36 C-65 35 -65 33 -64 32 C-63 32 -63 32 -62 32 C-61 31 -61 29 -60 28 C-59 28 -59 28 -58 28 C-57 27 -57 25 -56 24 C-54 24 -52 24 -50 24 C-49 23 -49 21 -48 20 C-47 20 -47 20 -46 20 C-45 19 -45 17 -44 16 C-42 16 -40 16 -38 16 C-37 15 -37 13 -36 12 C-34 12 -32 12 -30 12 C-29 11 -29 9 -28 8 C-25 8 -21 8 -18 8 C-17 7 -17 5 -16 4 C-12 4 -9 4 -5 4 C-4 4 -3 4 -2 4 C-1 3 -1 1 0 0 Z " fill="#C7C9D4" transform="translate(318,25)"/>
<path d="M0 0 C4 -0 7 -1 11 -1 C12 -1 13 -1 14 -1 C16 -1 18 -1 21 -1 C24 -1 27 -1 31 -1 C33 -1 35 -1 37 -1 C38 -1 38 -1 41 -1 C43 -1 43 -1 48 0 C49 1 49 3 50 4 C54 4 54 4 59 4 C64 4 64 4 68 4 C69 5 69 7 70 8 C72 8 74 8 76 8 C77 9 77 11 78 12 C80 12 82 12 84 12 C85 13 85 15 86 16 C88 16 90 16 92 16 C93 17 93 19 94 20 C96 20 98 20 100 20 C101 21 101 23 102 24 C103 24 103 24 106 26 C106 27 106 27 106 28 C108 28 110 28 112 28 C113 29 113 31 114 32 C115 33 117 33 118 34 C118 35 118 35 118 36 C119 37 121 37 122 38 C122 39 122 39 122 40 C123 41 125 41 126 42 C126 43 126 43 126 44 C127 45 129 45 130 46 C130 47 130 47 130 48 C131 48 132 48 133 48 C133 49 133 50 133 51 C134 55 134 55 138 58 C138 59 138 59 138 60 C139 61 141 61 142 62 C142 63 142 63 142 64 C143 64 144 64 145 64 C145 65 145 66 145 67 C146 69 146 70 146 71 C147 71 148 72 149 72 C149 74 150 77 150 79 C151 79 152 80 153 80 C153 84 154 87 154 91 C155 91 156 92 157 92 C157 96 158 99 158 103 C159 103 160 104 161 104 C161 108 162 111 162 115 C163 115 164 116 165 116 C165 120 166 124 166 128 C166 129 166 130 166 131 C167 131 168 132 169 132 C169 137 169 142 170 147 C170 150 170 152 170 155 C171 155 172 156 173 156 C173 162 173 168 174 173 C174 177 174 180 174 183 C175 183 176 184 177 184 C178 187 178 187 178 192 C178 193 178 194 178 196 C178 197 178 198 178 199 C181 199 181 199 185 199 C186 198 187 197 188 196 C189 196 190 196 191 196 C192 195 193 195 194 195 C194 194 195 193 195 192 C196 192 197 192 198 192 C199 192 199 192 202 192 C203 191 203 189 204 188 C205 188 205 188 206 188 C207 187 207 185 208 184 C210 184 212 184 214 184 C215 183 215 181 216 180 C218 180 220 180 222 180 C223 179 223 177 224 176 C225 176 225 176 226 176 C227 175 227 173 228 172 C230 172 232 172 234 172 C235 171 235 169 236 168 C237 168 237 168 238 168 C239 167 239 165 240 164 C242 164 244 164 246 164 C247 163 247 161 248 160 C249 160 249 160 250 160 C251 159 251 157 252 156 C253 156 253 156 254 156 C255 155 255 153 256 152 C257 152 257 152 258 152 C259 151 259 149 260 148 C262 148 264 148 266 148 C267 147 267 145 268 144 C269 144 269 144 270 144 C271 143 271 141 272 140 C273 140 273 140 274 140 C275 139 275 137 276 136 C277 136 277 136 278 136 C279 135 279 133 280 132 C281 132 281 132 282 132 C283 131 283 129 284 128 C285 128 285 128 286 128 C287 127 287 125 288 124 C289 124 289 124 290 124 C291 123 291 121 292 120 C294 120 296 120 298 120 C299 119 299 117 300 116 C302 116 304 116 306 116 C307 115 307 113 308 112 C312 111 312 111 316 112 C317 111 319 111 320 111 C322 112 323 112 324 112 C325 113 325 115 326 116 C327 117 329 117 330 118 C330 119 330 119 330 120 C331 120 332 120 333 120 C333 126 333 131 333 137 C333 138 333 138 333 142 C333 143 333 145 333 146 C333 148 333 149 333 151 C333 151 333 151 333 154 C332 154 331 155 330 155 C330 158 329 162 329 165 C329 165 329 165 326 167 C326 168 326 170 326 171 C328 171 329 171 331 171 C333 171 334 172 336 172 C337 173 337 175 338 176 C339 176 340 176 341 176 C341 177 341 177 341 179 C342 181 342 182 342 183 C343 183 344 184 345 184 C345 187 345 187 345 191 C345 192 345 194 345 195 C345 195 345 195 345 198 C344 198 343 199 342 199 C342 201 342 203 342 204 C341 206 341 208 341 210 C340 210 339 211 338 211 C338 212 338 213 338 214 C337 216 337 217 337 218 C336 218 335 219 334 219 C333 223 333 223 333 226 C332 226 331 226 330 226 C329 227 329 229 328 230 C327 230 327 230 326 230 C325 231 325 233 324 234 C323 234 323 234 322 234 C321 235 321 237 320 238 C319 238 319 239 318 239 C318 240 318 242 318 243 C319 244 321 245 322 246 C322 247 322 247 322 248 C323 248 324 248 325 248 C325 251 325 254 325 257 C325 258 325 258 325 262 C325 263 325 265 325 266 C324 266 323 267 322 267 C322 268 322 269 322 270 C321 272 321 273 321 274 C320 274 319 275 318 275 C317 279 317 279 317 282 C316 282 315 282 314 282 C313 283 313 285 312 286 C311 286 311 286 310 286 C309 287 309 289 308 290 C307 290 307 290 306 290 C305 291 305 293 304 294 C303 294 303 294 302 294 C301 295 301 297 300 298 C298 298 296 298 294 298 C293 299 293 301 292 302 C291 302 291 302 290 302 C289 303 289 305 288 306 C287 306 286 306 285 306 C284 306 283 307 282 307 C281 311 281 311 281 317 C281 318 281 320 281 322 C281 323 281 323 281 326 C280 326 279 326 278 326 C277 327 277 329 276 330 C275 330 275 330 274 330 C273 331 273 333 272 334 C271 334 271 334 270 334 C269 335 269 337 268 338 C267 338 267 338 266 338 C265 339 265 341 264 342 C262 342 260 342 258 342 C257 343 257 345 256 346 C253 346 249 346 246 346 C245 347 245 349 244 350 C242 350 241 350 239 350 C237 351 236 351 234 351 C233 355 233 355 233 358 C232 358 231 358 230 358 C229 359 229 361 228 362 C227 362 227 362 226 362 C225 363 225 365 224 366 C222 366 220 366 218 366 C217 367 217 369 216 370 C210 370 205 370 199 370 C196 370 193 370 190 370 C189 371 189 373 188 374 C187 374 187 375 186 375 C186 377 186 379 186 380 C185 382 185 384 185 386 C184 386 183 387 182 387 C182 389 182 391 182 392 C181 394 181 396 181 398 C180 398 179 399 178 399 C178 400 178 401 178 402 C177 404 177 405 177 406 C176 406 175 407 174 407 C173 411 173 411 173 414 C172 414 171 414 170 414 C169 415 169 417 168 418 C167 418 167 418 166 418 C165 419 165 421 164 422 C163 422 163 423 162 423 C162 425 161 428 161 430 C160 430 159 430 158 430 C157 431 157 433 156 434 C155 434 155 434 154 434 C153 435 153 437 152 438 C150 438 148 438 146 438 C145 439 145 441 144 442 C143 442 143 442 142 442 C141 443 141 445 140 446 C139 446 139 446 138 446 C137 447 137 449 136 450 C135 450 135 450 134 450 C133 451 133 453 132 454 C131 454 131 455 130 455 C130 457 129 460 129 462 C128 462 127 462 126 462 C125 463 125 465 124 466 C123 466 123 466 122 466 C121 467 121 469 120 470 C119 470 119 470 118 470 C117 471 117 473 116 474 C113 475 113 475 110 475 C110 479 110 479 112 481 C115 483 117 484 121 484 C121 485 121 485 121 486 C119 486 116 487 114 487 C114 488 114 490 114 491 C116 491 117 491 119 491 C121 491 122 492 124 492 C125 493 125 495 126 496 C127 497 129 497 130 498 C130 499 130 499 130 500 C131 501 133 501 134 502 C134 503 134 503 134 504 C135 505 137 505 138 506 C138 507 138 507 138 508 C139 508 141 508 142 508 C146 508 151 508 156 508 C158 508 160 508 162 508 C165 508 168 508 171 508 C172 508 174 508 176 508 C177 508 179 508 180 508 C181 509 181 510 182 511 C183 511 185 511 186 511 C187 510 187 509 188 508 C189 508 189 508 190 508 C191 507 191 505 192 504 C193 504 193 504 194 504 C195 503 195 501 196 500 C198 500 200 500 202 500 C203 499 203 497 204 496 C206 496 208 496 210 496 C211 495 211 493 212 492 C213 492 213 492 214 492 C215 491 215 489 216 488 C218 488 220 488 222 488 C223 487 223 485 224 484 C226 484 228 484 230 484 C231 483 231 481 232 480 C233 480 233 480 234 480 C235 479 235 477 236 476 C238 476 240 476 242 476 C243 475 243 473 244 472 C246 472 248 472 250 472 C251 471 251 469 252 468 C255 468 255 468 259 468 C260 468 261 468 262 468 C263 468 264 468 265 468 C265 471 265 475 265 478 C264 478 263 478 262 478 C260 478 259 478 258 478 C257 479 257 481 256 482 C254 482 252 482 250 482 C249 483 249 485 248 486 C247 486 247 486 246 486 C245 487 245 489 244 490 C242 490 240 490 238 490 C237 491 237 493 236 494 C234 494 232 494 230 494 C229 495 229 497 228 498 C226 498 224 498 222 498 C221 499 221 501 220 502 C219 502 219 502 218 502 C217 503 217 505 216 506 C213 507 213 507 210 507 C210 508 210 510 210 511 C212 511 213 511 215 511 C217 511 219 511 221 511 C223 511 224 511 225 511 C228 511 228 511 233 512 C234 515 234 515 234 519 C235 520 236 520 237 521 C237 523 236 524 236 526 C234 526 232 526 230 526 C229 527 229 529 228 530 C225 530 221 530 218 530 C217 531 217 533 216 534 C210 534 205 534 199 534 C196 534 193 534 190 534 C189 535 189 537 188 538 C184 538 184 538 180 538 C178 538 176 538 174 538 C171 538 167 538 164 538 C162 538 160 538 158 538 C158 538 158 538 154 538 C153 538 153 538 150 538 C149 539 149 541 148 542 C144 542 140 542 136 542 C135 542 134 542 132 542 C127 542 122 542 117 542 C113 542 110 542 106 542 C105 542 104 542 102 542 C99 542 99 542 94 542 C93 543 93 545 92 546 C88 546 84 547 80 547 C80 547 80 547 77 547 C73 547 69 547 65 547 C62 547 59 547 56 547 C51 547 45 547 39 547 C32 546 24 547 17 547 C11 547 5 547 -1 547 C-3 547 -6 547 -9 547 C-13 547 -17 547 -20 547 C-22 547 -23 547 -24 547 C-27 547 -27 547 -32 546 C-33 545 -33 543 -34 542 C-39 542 -43 542 -48 542 C-49 542 -50 542 -52 542 C-56 542 -61 542 -65 542 C-71 542 -77 542 -82 542 C-83 542 -83 542 -86 542 C-90 542 -93 542 -96 542 C-97 541 -97 539 -98 538 C-102 538 -102 538 -108 538 C-109 538 -109 538 -111 538 C-115 538 -118 538 -121 538 C-125 538 -130 538 -134 538 C-136 538 -138 538 -140 538 C-141 538 -142 538 -144 538 C-145 537 -145 535 -146 534 C-150 534 -150 534 -155 534 C-160 534 -160 534 -164 534 C-165 533 -165 531 -166 530 C-168 530 -169 530 -171 530 C-173 530 -174 530 -176 530 C-177 529 -177 527 -178 526 C-179 525 -181 525 -182 524 C-183 523 -184 523 -185 522 C-185 521 -185 521 -185 520 C-183 518 -183 518 -180 516 C-178 516 -176 516 -174 516 C-173 515 -173 513 -172 512 C-169 511 -169 511 -165 511 C-164 511 -162 511 -161 511 C-160 511 -159 511 -158 511 C-158 510 -158 508 -158 507 C-159 507 -159 507 -162 504 C-162 503 -162 503 -162 502 C-164 502 -166 502 -168 502 C-169 501 -169 499 -170 498 C-172 498 -174 498 -176 498 C-177 497 -177 495 -178 494 C-180 494 -181 494 -183 494 C-185 494 -186 494 -188 494 C-189 493 -189 491 -190 490 C-192 490 -194 490 -196 490 C-197 489 -197 487 -198 486 C-200 486 -203 486 -205 486 C-205 481 -205 477 -205 472 C-201 472 -201 472 -196 472 C-195 473 -195 475 -194 476 C-192 476 -190 476 -188 476 C-187 477 -187 479 -186 480 C-184 480 -182 480 -180 480 C-179 481 -179 483 -178 484 C-176 484 -174 484 -172 484 C-171 485 -171 487 -170 488 C-169 489 -167 489 -166 490 C-166 491 -166 491 -166 492 C-164 492 -162 492 -160 492 C-159 493 -159 495 -158 496 C-156 496 -154 496 -152 496 C-151 497 -151 499 -150 500 C-149 501 -147 501 -146 502 C-146 503 -146 503 -146 504 C-144 504 -142 504 -140 504 C-139 505 -139 507 -138 508 C-134 508 -130 509 -126 509 C-126 509 -126 509 -123 509 C-121 509 -118 509 -116 509 C-112 509 -108 509 -105 509 C-102 509 -100 509 -98 509 C-97 509 -97 509 -94 509 C-91 509 -91 509 -86 508 C-85 507 -85 505 -84 504 C-83 504 -83 504 -82 504 C-81 503 -81 501 -80 500 C-79 500 -79 500 -78 500 C-77 499 -77 497 -76 496 C-75 496 -75 496 -74 496 C-73 495 -73 493 -72 492 C-67 491 -67 491 -62 491 C-62 490 -62 488 -62 487 C-66 486 -66 486 -69 485 C-69 483 -68 482 -68 480 C-65 479 -65 479 -62 479 C-62 478 -62 476 -62 475 C-64 474 -67 474 -69 473 C-69 472 -70 471 -70 470 C-71 469 -73 469 -74 468 C-74 467 -74 467 -74 466 C-75 466 -76 466 -77 466 C-77 465 -77 464 -77 463 C-77 462 -77 462 -78 459 C-79 459 -80 458 -81 458 C-81 457 -81 457 -81 455 C-82 451 -82 451 -86 448 C-86 447 -86 447 -86 446 C-88 446 -90 446 -92 446 C-93 445 -93 443 -94 442 C-95 441 -97 441 -98 440 C-98 439 -98 439 -98 438 C-99 437 -101 437 -102 436 C-102 435 -102 435 -102 434 C-103 433 -105 433 -106 432 C-106 431 -106 431 -106 430 C-107 429 -109 429 -110 428 C-110 427 -110 427 -110 426 C-111 425 -113 425 -114 424 C-114 423 -114 423 -114 422 C-115 422 -116 422 -117 422 C-117 421 -117 420 -117 419 C-118 415 -118 415 -122 412 C-122 411 -122 411 -122 410 C-123 410 -124 410 -125 410 C-125 409 -125 408 -125 407 C-125 406 -125 406 -126 403 C-127 403 -128 402 -129 402 C-129 398 -130 395 -130 391 C-131 391 -132 390 -133 390 C-133 388 -134 385 -134 383 C-135 383 -136 382 -137 382 C-137 378 -138 375 -138 371 C-139 371 -140 371 -141 371 C-145 371 -149 371 -153 371 C-154 371 -156 371 -157 371 C-159 371 -160 371 -161 371 C-162 371 -162 371 -165 371 C-166 370 -167 370 -168 370 C-169 369 -169 367 -170 366 C-171 365 -173 365 -174 364 C-174 363 -174 363 -174 362 C-176 362 -178 362 -180 362 C-181 361 -181 359 -182 358 C-183 358 -184 358 -185 358 C-185 357 -185 356 -185 355 C-185 353 -186 352 -186 351 C-191 350 -191 350 -196 350 C-197 349 -197 347 -198 346 C-200 346 -202 346 -204 346 C-205 345 -205 343 -206 342 C-208 342 -210 342 -212 342 C-213 341 -213 339 -214 338 C-215 337 -217 337 -218 336 C-218 335 -218 335 -218 334 C-219 333 -221 333 -222 332 C-222 331 -222 331 -222 330 C-223 329 -225 329 -226 328 C-226 327 -226 327 -226 326 C-227 326 -228 326 -229 326 C-229 325 -229 323 -229 322 C-229 321 -229 321 -229 317 C-229 315 -229 313 -229 311 C-229 310 -230 308 -230 307 C-233 306 -233 306 -237 305 C-237 305 -237 305 -238 302 C-239 301 -241 301 -242 300 C-242 299 -242 299 -242 298 C-244 298 -246 298 -248 298 C-248 297 -248 297 -250 294 C-251 293 -253 293 -254 292 C-254 291 -254 291 -254 290 C-255 289 -257 289 -258 288 C-258 287 -258 287 -258 286 C-259 285 -261 285 -262 284 C-262 283 -262 283 -262 282 C-263 281 -265 281 -266 280 C-266 279 -266 279 -266 278 C-267 278 -268 278 -269 278 C-269 277 -269 276 -269 275 C-270 273 -270 272 -270 271 C-271 271 -272 270 -273 270 C-273 266 -273 263 -273 259 C-273 258 -273 258 -273 256 C-273 253 -273 251 -273 248 C-272 248 -271 248 -270 248 C-270 247 -270 247 -268 244 C-267 244 -267 243 -266 243 C-266 242 -266 240 -266 239 C-267 238 -269 237 -270 236 C-270 235 -270 235 -270 234 C-271 233 -273 233 -274 232 C-274 231 -274 231 -274 230 C-275 229 -277 229 -278 228 C-278 227 -278 227 -278 226 C-279 226 -280 226 -281 226 C-281 225 -281 224 -281 223 C-282 221 -282 220 -282 219 C-283 219 -284 218 -285 218 C-285 216 -286 213 -286 211 C-287 211 -288 210 -289 210 C-289 208 -290 205 -290 203 C-291 203 -292 202 -293 202 C-293 198 -293 195 -293 191 C-293 190 -293 189 -293 188 C-293 185 -293 183 -293 180 C-292 180 -291 180 -290 180 C-290 179 -290 179 -288 176 C-287 176 -287 176 -286 176 C-286 175 -286 175 -284 172 C-279 171 -279 171 -274 171 C-274 170 -274 168 -274 167 C-274 167 -274 167 -277 165 C-277 163 -277 162 -278 160 C-278 158 -278 157 -278 155 C-279 155 -280 154 -281 154 C-281 151 -281 151 -281 146 C-281 145 -281 143 -281 142 C-281 140 -281 139 -281 137 C-281 135 -281 134 -281 132 C-281 128 -281 124 -281 120 C-280 120 -279 120 -278 120 C-277 119 -277 117 -276 116 C-275 116 -275 116 -274 116 C-273 115 -273 113 -272 112 C-268 111 -268 111 -262 112 C-260 111 -258 111 -256 111 C-255 112 -254 112 -252 112 C-251 113 -251 115 -250 116 C-249 117 -247 117 -246 118 C-246 119 -246 119 -246 120 C-245 121 -243 121 -242 122 C-242 123 -242 123 -242 124 C-241 125 -239 125 -238 126 C-238 127 -238 127 -238 128 C-236 128 -234 128 -232 128 C-232 129 -232 129 -230 132 C-229 132 -229 132 -226 134 C-226 135 -226 135 -226 136 C-225 136 -225 136 -222 138 C-222 139 -222 139 -222 140 C-221 140 -221 140 -218 142 C-218 143 -218 143 -218 144 C-217 144 -217 144 -214 146 C-214 147 -214 147 -214 148 C-213 148 -213 148 -210 150 C-210 151 -210 151 -210 152 C-208 152 -206 152 -204 152 C-203 153 -203 155 -202 156 C-201 156 -201 156 -198 158 C-198 159 -198 159 -198 160 C-197 160 -197 160 -194 162 C-194 163 -194 163 -194 164 C-192 164 -190 164 -188 164 C-187 165 -187 167 -186 168 C-185 168 -185 168 -182 170 C-182 171 -182 171 -182 172 C-181 172 -181 172 -178 174 C-178 175 -178 175 -178 176 C-176 176 -174 176 -172 176 C-171 177 -171 179 -170 180 C-168 180 -166 180 -164 180 C-163 181 -163 183 -162 184 C-161 185 -159 185 -158 186 C-158 187 -158 187 -158 188 C-156 188 -154 188 -152 188 C-151 189 -151 191 -150 192 C-148 192 -145 192 -143 192 C-143 193 -142 194 -142 195 C-140 196 -137 196 -135 197 C-135 198 -134 198 -134 199 C-133 199 -131 199 -130 199 C-130 198 -130 197 -130 196 C-130 195 -130 193 -130 192 C-130 191 -130 191 -130 188 C-129 187 -129 186 -129 185 C-128 184 -127 184 -126 183 C-126 178 -125 173 -125 168 C-125 167 -125 165 -125 164 C-124 164 -123 163 -122 163 C-122 160 -122 160 -122 156 C-121 151 -121 151 -121 148 C-120 148 -119 147 -118 147 C-118 143 -118 139 -118 136 C-117 132 -117 128 -117 124 C-116 124 -115 123 -114 123 C-114 120 -114 120 -114 116 C-113 111 -113 111 -113 108 C-112 108 -111 107 -110 107 C-110 105 -110 103 -110 102 C-109 100 -109 98 -109 96 C-108 96 -107 95 -106 95 C-106 94 -106 93 -106 92 C-105 90 -105 89 -105 88 C-104 88 -103 87 -102 87 C-102 86 -102 85 -102 84 C-101 82 -101 81 -101 80 C-100 80 -99 79 -98 79 C-98 78 -98 77 -98 76 C-97 74 -97 73 -97 72 C-96 72 -95 71 -94 71 C-93 67 -93 67 -93 64 C-92 64 -91 64 -90 64 C-89 63 -89 61 -88 60 C-87 60 -87 59 -86 59 C-86 57 -85 54 -85 52 C-84 52 -83 52 -82 52 C-81 51 -81 49 -80 48 C-79 48 -79 48 -78 48 C-77 47 -77 45 -76 44 C-75 44 -75 44 -74 44 C-73 43 -73 41 -72 40 C-71 40 -71 40 -70 40 C-69 39 -69 37 -68 36 C-67 36 -67 36 -66 36 C-65 35 -65 33 -64 32 C-63 32 -63 32 -62 32 C-61 31 -61 29 -60 28 C-59 28 -59 28 -58 28 C-57 27 -57 25 -56 24 C-54 24 -52 24 -50 24 C-49 23 -49 21 -48 20 C-47 20 -47 20 -46 20 C-45 19 -45 17 -44 16 C-42 16 -40 16 -38 16 C-37 15 -37 13 -36 12 C-34 12 -32 12 -30 12 C-29 11 -29 9 -28 8 C-25 8 -21 8 -18 8 C-17 7 -17 5 -16 4 C-12 4 -9 4 -5 4 C-4 4 -3 4 -2 4 C-1 3 -1 1 0 0 Z M-51 38 C-53 39 -54 40 -56 42 C-65 49 -72 58 -78 68 C-79 69 -79 70 -80 70 C-89 85 -95 101 -100 117 C-100 118 -100 118 -101 121 C-105 132 -107 143 -109 155 C-110 166 -112 177 -115 188 C-117 193 -117 198 -118 204 C-118 205 -118 206 -118 207 C-119 215 -117 220 -112 226 C-108 231 -109 236 -109 242 C-109 246 -109 246 -108 251 C-105 264 -106 277 -109 290 C-110 294 -111 298 -111 301 C-112 307 -112 307 -114 309 C-114 312 -114 315 -114 318 C-115 318 -115 318 -116 318 C-117 320 -118 323 -119 325 C-122 330 -122 330 -126 334 C-126 337 -126 337 -126 340 C-126 344 -126 348 -127 352 C-128 370 -119 388 -110 404 C-109 406 -108 407 -107 409 C-98 423 -87 435 -73 443 C-70 447 -70 447 -69 451 C-66 460 -61 463 -53 467 C-42 471 -42 471 -36 469 C-33 466 -31 464 -30 460 C-27 459 -27 459 -24 459 C-21 460 -19 462 -16 463 C11 471 50 472 75 458 C80 459 80 459 82 462 C83 463 83 464 84 465 C85 465 85 465 86 465 C86 466 86 466 86 467 C97 467 105 465 114 459 C118 454 121 451 123 445 C127 439 130 437 136 434 C144 429 150 421 155 412 C155 411 155 410 155 409 C156 409 157 408 158 408 C165 399 170 388 173 377 C173 376 174 375 174 374 C179 355 175 333 168 314 C167 310 166 305 165 300 C165 299 164 298 164 297 C163 291 162 286 161 280 C161 279 161 278 161 277 C161 274 160 271 160 268 C159 268 159 268 158 268 C158 264 159 259 159 255 C159 254 159 252 159 251 C160 239 161 229 168 219 C170 213 168 207 167 201 C166 200 166 199 166 197 C165 193 164 188 163 183 C161 176 160 169 159 162 C158 157 158 157 157 154 C157 151 156 149 156 146 C155 137 153 128 151 119 C151 118 150 116 150 115 C142 82 121 49 92 31 C78 23 64 18 48 15 C47 15 47 15 43 14 C11 9 -26 17 -51 38 Z " fill="#111112" transform="translate(318,25)"/>
<path d="M0 0 C5 5 5 5 5 10 C4 34 -9 53 -26 69 C-28 72 -28 72 -28 77 C-23 79 -23 79 -19 78 C-15 75 -12 72 -8 69 C2 61 2 61 8 59 C9 59 10 60 11 60 C11 61 11 61 11 62 C12 63 14 63 15 64 C17 74 10 86 4 94 C0 98 -3 103 -7 107 C-7 107 -7 107 -9 109 C-15 116 -22 120 -30 125 C-33 128 -33 128 -34 132 C-34 133 -34 134 -34 135 C-32 136 -32 136 -26 136 C-23 135 -23 135 -20 133 C-15 130 -14 130 -8 130 C-4 133 -4 133 -3 136 C-5 147 -16 156 -25 163 C-34 170 -46 175 -57 178 C-59 178 -60 179 -62 179 C-63 183 -63 183 -62 186 C-59 187 -55 187 -52 188 C-49 190 -49 190 -48 193 C-48 198 -50 199 -53 202 C-63 210 -72 213 -84 213 C-86 213 -87 212 -89 212 C-93 213 -93 213 -96 215 C-98 219 -98 219 -97 222 C-97 226 -97 226 -98 229 C-106 235 -117 235 -126 235 C-129 234 -129 234 -132 232 C-138 232 -138 232 -141 233 C-141 231 -142 230 -142 228 C-142 225 -142 223 -143 221 C-143 220 -143 218 -143 217 C-145 208 -147 199 -150 190 C-151 186 -152 181 -153 176 C-153 175 -154 174 -154 173 C-155 169 -156 165 -156 161 C-156 159 -156 158 -157 156 C-157 152 -157 148 -157 144 C-158 144 -158 144 -159 144 C-159 121 -159 121 -157 112 C-155 112 -154 112 -152 112 C-150 112 -149 112 -147 112 C-146 110 -146 109 -145 107 C-143 104 -141 102 -139 99 C-138 98 -138 97 -137 96 C-130 86 -120 82 -109 76 C-106 75 -104 73 -101 72 C-100 71 -100 71 -97 70 C-91 67 -86 63 -80 59 C-79 58 -77 57 -76 56 C-70 52 -64 48 -58 43 C-56 42 -54 40 -53 39 C-49 36 -46 33 -43 30 C-40 28 -37 25 -34 23 C-30 20 -26 17 -23 13 C-8 0 -8 0 0 0 Z " fill="#63697E" transform="translate(635,149)"/>
<path d="M0 0 C10 0 17 7 24 14 C27 16 30 18 32 20 C38 25 43 29 48 34 C51 37 51 37 55 40 C58 42 58 42 60 44 C64 48 68 50 73 53 C81 58 90 64 98 69 C103 72 107 75 112 78 C115 80 117 81 119 83 C123 85 123 85 127 87 C132 90 135 93 138 98 C139 99 140 100 142 101 C145 104 147 107 149 111 C149 112 149 112 149 113 C150 113 150 113 151 113 C151 114 151 114 151 115 C153 115 155 115 157 115 C158 118 159 121 159 124 C159 125 159 126 160 128 C161 141 161 154 158 166 C157 170 156 174 156 177 C155 183 155 183 153 185 C153 188 152 191 152 194 C151 194 151 194 150 194 C150 195 150 196 150 197 C148 202 145 206 141 210 C141 213 141 213 141 216 C141 222 141 227 139 232 C136 233 136 233 132 233 C131 233 130 234 129 234 C120 236 110 235 101 232 C99 230 99 230 98 227 C98 224 98 224 99 219 C97 215 97 215 95 214 C93 214 91 214 88 214 C83 213 79 213 74 211 C73 211 73 211 70 210 C61 208 55 202 50 195 C52 190 52 190 54 188 C57 188 59 187 62 187 C62 184 62 184 62 180 C59 178 59 178 55 177 C35 171 18 160 6 142 C5 137 5 137 6 134 C7 134 7 134 8 134 C8 133 9 132 9 131 C16 131 21 133 28 136 C32 137 32 137 34 137 C35 134 35 134 36 131 C33 128 30 126 26 123 C24 121 21 119 19 118 C18 117 17 116 16 115 C9 110 4 104 -1 97 C-2 96 -3 94 -4 93 C-7 90 -8 87 -10 83 C-11 82 -11 80 -12 79 C-13 75 -13 71 -13 67 C-14 67 -14 67 -15 67 C-15 66 -15 66 -15 65 C-14 65 -14 65 -11 64 C-11 63 -10 61 -10 60 C1 60 9 68 17 75 C22 79 23 79 29 79 C30 74 30 74 28 69 C27 68 25 68 24 67 C22 65 22 65 20 62 C19 61 18 60 17 59 C17 58 17 58 15 56 C14 55 13 53 11 52 C2 39 -4 28 -4 13 C-4 11 -4 10 -4 8 C-4 4 -4 4 0 0 Z " fill="#63697E" transform="translate(52,149)"/>
<path d="M0 0 C3 -0 3 -0 7 -0 C8 -0 9 -0 10 -0 C11 -0 12 -0 13 0 C13 3 13 7 13 10 C12 10 11 10 10 10 C8 10 7 10 6 10 C5 11 5 13 4 14 C2 14 0 14 -2 14 C-3 15 -3 17 -4 18 C-5 18 -5 18 -6 18 C-7 19 -7 21 -8 22 C-10 22 -12 22 -14 22 C-15 23 -15 25 -16 26 C-18 26 -20 26 -22 26 C-23 27 -23 29 -24 30 C-26 30 -28 30 -30 30 C-31 31 -31 33 -32 34 C-33 34 -33 34 -34 34 C-35 35 -35 37 -36 38 C-39 39 -39 39 -42 39 C-42 40 -42 42 -42 43 C-41 43 -41 43 -37 43 C-35 43 -33 43 -31 43 C-29 43 -28 43 -27 43 C-24 43 -24 43 -19 44 C-18 47 -18 47 -18 51 C-17 52 -16 52 -15 53 C-15 55 -16 56 -16 58 C-18 58 -20 58 -22 58 C-23 59 -23 61 -24 62 C-27 62 -31 62 -34 62 C-35 63 -35 65 -36 66 C-42 66 -47 66 -53 66 C-56 66 -59 66 -62 66 C-63 67 -63 69 -64 70 C-68 70 -68 70 -72 70 C-74 70 -76 70 -78 70 C-81 70 -85 70 -88 70 C-90 70 -92 70 -94 70 C-94 70 -94 70 -98 70 C-99 70 -99 70 -102 70 C-103 71 -103 73 -104 74 C-108 74 -112 74 -116 74 C-117 74 -118 74 -120 74 C-125 74 -130 74 -135 74 C-139 74 -142 74 -146 74 C-147 74 -148 74 -150 74 C-153 74 -153 74 -158 74 C-159 75 -159 77 -160 78 C-164 78 -168 79 -172 79 C-173 79 -174 79 -175 79 C-179 79 -183 79 -187 79 C-190 79 -193 79 -196 79 C-201 79 -207 79 -213 79 C-220 78 -228 79 -235 79 C-241 79 -247 79 -253 79 C-255 79 -258 79 -261 79 C-265 79 -269 79 -272 79 C-274 79 -275 79 -276 79 C-279 79 -279 79 -284 78 C-285 77 -285 75 -286 74 C-291 74 -295 74 -300 74 C-300 74 -300 74 -304 74 C-308 74 -313 74 -317 74 C-323 74 -329 74 -334 74 C-335 74 -335 74 -338 74 C-342 74 -345 74 -348 74 C-349 73 -349 71 -350 70 C-354 70 -354 70 -360 70 C-361 70 -361 70 -363 70 C-367 70 -370 70 -373 70 C-377 70 -382 70 -386 70 C-387 70 -387 70 -392 70 C-393 70 -394 70 -396 70 C-397 69 -397 67 -398 66 C-402 66 -402 66 -407 66 C-412 66 -412 66 -416 66 C-417 65 -417 63 -418 62 C-420 62 -421 62 -423 62 C-425 62 -426 62 -428 62 C-429 61 -429 59 -430 58 C-431 57 -433 57 -434 56 C-435 55 -436 55 -437 54 C-437 53 -437 53 -437 52 C-435 50 -435 50 -432 48 C-430 48 -428 48 -426 48 C-425 47 -425 45 -424 44 C-421 43 -421 43 -417 43 C-416 43 -414 43 -413 43 C-412 43 -411 43 -410 43 C-410 42 -410 40 -410 39 C-411 38 -413 37 -414 36 C-414 35 -414 35 -414 34 C-416 34 -418 34 -420 34 C-421 33 -421 31 -422 30 C-424 30 -426 30 -428 30 C-429 29 -429 27 -430 26 C-432 26 -433 26 -435 26 C-437 26 -438 26 -440 26 C-441 25 -441 23 -442 22 C-444 22 -446 22 -448 22 C-449 21 -449 19 -450 18 C-452 18 -455 18 -457 18 C-457 13 -457 9 -457 4 C-453 4 -453 4 -448 4 C-447 5 -447 7 -446 8 C-444 8 -442 8 -440 8 C-439 9 -439 11 -438 12 C-436 12 -434 12 -432 12 C-431 13 -431 15 -430 16 C-428 16 -426 16 -424 16 C-423 17 -423 19 -422 20 C-421 21 -419 21 -418 22 C-418 23 -418 23 -418 24 C-416 24 -414 24 -412 24 C-411 25 -411 27 -410 28 C-408 28 -406 28 -404 28 C-403 29 -403 31 -402 32 C-401 33 -399 33 -398 34 C-398 35 -398 35 -398 36 C-396 36 -394 36 -392 36 C-392 37 -392 37 -390 40 C-386 40 -382 41 -378 41 C-378 41 -378 41 -375 41 C-373 41 -370 41 -368 41 C-364 41 -360 41 -357 41 C-354 41 -352 41 -350 41 C-348 41 -347 41 -346 41 C-343 41 -343 41 -338 40 C-337 39 -337 37 -336 36 C-335 36 -335 36 -334 36 C-334 35 -333 34 -333 33 C-333 34 -332 34 -332 35 C-333 37 -333 38 -334 40 C-334 44 -334 44 -334 47 C-330 51 -330 51 -327 51 C-322 51 -318 50 -314 48 C-314 49 -314 49 -314 50 C-313 50 -312 50 -311 50 C-310 52 -309 55 -308 57 C-304 61 -304 61 -300 61 C-297 61 -297 61 -294 58 C-293 58 -293 58 -292 58 C-291 56 -291 55 -290 53 C-288 50 -288 50 -286 47 C-282 46 -282 46 -279 48 C-274 50 -271 51 -266 51 C-265 51 -265 51 -262 49 C-261 44 -260 40 -263 36 C-267 31 -270 28 -276 26 C-280 23 -280 23 -281 20 C-281 14 -278 12 -274 8 C-270 5 -270 5 -267 5 C-265 5 -264 6 -262 6 C-260 6 -257 7 -255 7 C-254 7 -253 7 -251 8 C-240 9 -228 9 -216 9 C-215 9 -213 9 -212 9 C-203 8 -195 7 -187 6 C-181 6 -181 6 -178 8 C-177 9 -176 10 -175 11 C-175 12 -175 12 -175 13 C-174 13 -174 13 -173 13 C-171 17 -171 17 -172 22 C-175 25 -178 27 -181 29 C-185 32 -188 35 -191 40 C-191 44 -191 44 -190 48 C-187 51 -187 51 -184 52 C-181 52 -181 52 -176 50 C-171 47 -171 47 -167 47 C-162 49 -161 53 -158 57 C-154 60 -152 61 -147 60 C-142 57 -142 55 -141 50 C-140 50 -140 50 -139 50 C-139 49 -139 49 -139 48 C-135 49 -133 49 -129 51 C-125 51 -122 51 -118 50 C-117 46 -116 42 -115 38 C-115 39 -114 39 -114 40 C-111 40 -108 40 -105 40 C-103 40 -101 40 -99 40 C-96 40 -93 40 -90 40 C-87 40 -84 40 -81 40 C-80 40 -78 40 -76 40 C-75 40 -73 40 -72 40 C-71 41 -71 42 -70 43 C-69 43 -67 43 -66 43 C-65 42 -65 41 -64 40 C-63 40 -63 40 -62 40 C-61 39 -61 37 -60 36 C-59 36 -59 36 -58 36 C-57 35 -57 33 -56 32 C-54 32 -52 32 -50 32 C-49 31 -49 29 -48 28 C-46 28 -44 28 -42 28 C-41 27 -41 25 -40 24 C-39 24 -39 24 -38 24 C-37 23 -37 21 -36 20 C-34 20 -32 20 -30 20 C-29 19 -29 17 -28 16 C-26 16 -24 16 -22 16 C-21 15 -21 13 -20 12 C-19 12 -19 12 -18 12 C-17 11 -17 9 -16 8 C-14 8 -12 8 -10 8 C-9 7 -9 5 -8 4 C-6 4 -4 4 -2 4 C-1 3 -1 1 0 0 Z " fill="#DCDDE4" transform="translate(570,493)"/>
<path d="M0 0 C6 3 6 3 9 6 C13 10 17 12 22 15 C30 20 39 26 47 31 C52 34 56 37 61 40 C64 42 66 43 68 45 C72 47 72 47 76 49 C81 52 84 55 87 60 C88 61 89 62 91 63 C94 66 96 69 98 73 C98 74 98 74 98 75 C99 75 99 75 100 75 C100 76 100 76 100 77 C102 77 104 77 106 77 C107 80 108 83 108 86 C108 87 108 88 109 90 C110 103 110 116 107 128 C106 132 105 136 105 139 C104 145 104 145 102 147 C102 150 101 153 101 156 C100 156 100 156 99 156 C99 157 99 158 99 159 C97 164 94 168 90 172 C86 170 83 169 79 166 C75 164 72 162 68 160 C58 157 53 151 47 142 C45 138 45 138 43 136 C37 130 34 125 32 118 C32 113 33 112 36 109 C36 103 36 103 34 101 C33 100 32 99 31 98 C23 87 16 75 16 61 C16 60 16 60 16 57 C16 53 17 48 20 45 C20 43 20 41 20 39 C13 39 14 39 9 43 C7 43 6 43 4 43 C2 41 2 41 1 38 C0 34 0 34 -3 32 C-5 29 -5 29 -5 25 C-5 19 -4 13 -1 7 C-1 5 -0 2 0 0 Z " fill="#888EA0" transform="translate(103,187)"/>
<path d="M0 0 C2 2 2 2 2 6 C7 8 13 8 19 8 C23 9 23 9 25 11 C25 14 25 14 25 18 C24 19 24 19 23 20 C23 22 22 23 22 25 C21 25 20 26 19 26 C19 27 18 27 18 28 C11 27 11 27 8 26 C7 26 7 26 3 26 C-3 25 -3 25 -6 24 C-7 23 -8 23 -9 23 C-12 26 -14 27 -15 31 C-15 34 -15 36 -15 39 C-16 43 -18 44 -21 46 C-21 51 -21 51 -19 55 C-16 64 -18 75 -20 84 C-26 94 -32 101 -41 108 C-43 111 -43 111 -43 116 C-43 116 -43 116 -40 117 C-38 122 -38 124 -39 129 C-44 138 -49 145 -57 151 C-58 152 -58 152 -61 155 C-69 162 -79 167 -89 171 C-89 172 -90 172 -90 173 C-92 173 -94 173 -96 173 C-98 169 -99 165 -100 160 C-100 159 -101 157 -102 156 C-103 151 -104 146 -105 141 C-105 140 -106 139 -106 138 C-107 134 -108 130 -108 126 C-108 124 -108 123 -109 121 C-109 117 -109 113 -109 109 C-110 109 -110 109 -111 109 C-111 86 -111 86 -109 77 C-107 77 -106 77 -104 77 C-102 77 -101 77 -99 77 C-98 75 -98 74 -97 72 C-95 69 -93 67 -91 64 C-90 63 -90 62 -89 61 C-82 51 -72 47 -61 41 C-58 40 -56 38 -53 37 C-52 36 -51 36 -49 35 C-43 32 -38 28 -32 24 C-31 24 -31 24 -28 21 C-22 17 -16 13 -10 8 C-7 5 -3 3 0 0 Z " fill="#8B90A1" transform="translate(587,184)"/>
<path d="M0 0 C1 0 1 0 2 0 C2 1 3 3 3 4 C5 6 5 6 8 8 C12 11 14 13 17 17 C20 22 23 24 29 26 C33 27 38 28 42 28 C47 29 51 30 56 32 C58 32 60 33 62 34 C68 37 72 40 75 47 C77 52 77 58 77 64 C79 72 84 78 89 84 C89 85 89 85 89 86 C90 86 90 86 93 87 C92 87 90 88 89 88 C84 90 84 90 81 93 C80 93 80 93 79 93 C79 94 79 94 77 97 C77 97 77 97 74 98 C73 100 73 101 72 103 C68 105 68 105 65 105 C65 98 65 91 65 84 C63 84 61 83 59 83 C59 82 58 81 58 80 C56 77 56 77 53 76 C47 76 44 78 40 81 C34 85 29 85 22 84 C21 83 20 83 19 82 C15 81 13 81 9 81 C7 83 8 88 8 90 C8 100 9 106 16 113 C20 116 22 117 27 118 C28 119 30 119 32 120 C32 124 32 124 31 127 C21 128 14 127 6 121 C-3 111 -7 99 -6 86 C-5 75 -1 65 5 56 C6 54 7 52 8 50 C7 49 5 49 4 48 C3 46 2 45 1 43 C-2 39 -2 39 -6 38 C-9 38 -9 38 -12 41 C-13 41 -15 41 -16 41 C-16 42 -15 43 -15 44 C-15 45 -16 47 -16 48 C-17 48 -17 48 -18 48 C-19 49 -19 51 -20 52 C-21 52 -21 52 -22 52 C-22 51 -22 50 -22 49 C-23 48 -25 48 -26 47 C-25 34 -17 21 -11 10 C-11 9 -11 9 -9 6 C-7 4 -7 4 -3 3 C-2 3 -1 3 0 3 C0 2 0 1 0 0 Z " fill="#C2C5D0" transform="translate(247,89)"/>
<path d="M0 0 C5 5 5 5 5 10 C4 34 -9 53 -26 69 C-28 72 -28 72 -28 77 C-23 79 -23 79 -19 78 C-15 75 -12 72 -8 69 C2 61 2 61 8 59 C8 59 8 59 11 60 C11 61 11 61 11 62 C12 63 14 63 15 64 C17 74 10 86 4 94 C0 98 -3 103 -7 107 C-8 108 -8 109 -9 109 C-15 116 -22 120 -30 125 C-33 128 -33 128 -34 132 C-34 133 -34 134 -34 135 C-32 136 -32 136 -26 136 C-25 136 -25 136 -21 134 C-21 135 -21 136 -21 137 C-23 137 -24 138 -26 138 C-26 139 -26 139 -26 140 C-31 142 -32 142 -37 141 C-37 141 -37 141 -40 139 C-43 139 -45 139 -48 139 C-53 139 -57 139 -62 138 C-63 137 -63 137 -64 136 C-64 132 -63 128 -62 124 C-59 117 -58 109 -57 101 C-57 99 -56 97 -56 95 C-56 90 -57 87 -59 82 C-59 82 -59 82 -62 80 C-64 77 -64 77 -64 73 C-64 67 -63 63 -59 59 C-58 58 -57 58 -56 57 C-54 58 -53 58 -51 59 C-49 59 -48 59 -46 59 C-40 60 -35 61 -30 63 C-30 62 -29 61 -29 60 C-28 60 -27 60 -26 60 C-26 58 -26 57 -26 55 C-25 54 -25 54 -24 53 C-23 50 -23 50 -24 46 C-28 44 -33 44 -37 44 C-43 43 -43 43 -47 41 C-48 38 -48 38 -47 34 C-44 31 -44 31 -39 27 C-37 26 -35 24 -34 23 C-33 22 -33 22 -31 20 C-28 18 -25 16 -23 13 C-8 0 -8 0 0 0 Z " fill="#6B7287" transform="translate(635,149)"/>
<path d="M0 0 C3 5 3 9 3 15 C3 18 3 18 4 21 C4 21 4 21 5 18 C6 18 6 18 7 18 C9 33 8 46 -1 58 C-2 58 -2 58 -3 58 C-4 59 -4 61 -5 62 C-8 67 -11 72 -14 76 C-14 78 -14 80 -14 82 C-10 86 -7 86 -1 86 C1 86 2 86 4 85 C9 85 9 85 12 86 C17 91 18 97 18 104 C18 105 18 107 18 109 C18 111 18 113 18 115 C18 120 18 120 17 124 C16 124 16 124 15 124 C15 126 14 127 14 129 C14 130 14 130 13 134 C7 136 2 132 -3 129 C-9 127 -14 125 -20 125 C-22 124 -24 123 -26 122 C-31 121 -35 121 -40 121 C-45 121 -47 120 -50 116 C-50 115 -51 114 -51 113 C-47 109 -45 108 -40 107 C-34 107 -34 107 -31 108 C-30 107 -29 106 -28 105 C-28 103 -28 102 -28 100 C-31 97 -33 98 -37 98 C-42 97 -44 97 -48 95 C-50 92 -50 92 -51 88 C-51 88 -51 88 -50 86 C-50 84 -50 83 -50 81 C-49 76 -49 76 -48 74 C-48 64 -48 64 -49 62 C-49 56 -49 56 -48 52 C-48 52 -48 52 -49 49 C-52 45 -52 41 -51 36 C-48 30 -42 28 -36 25 C-34 25 -33 26 -31 26 C-30 26 -28 26 -27 26 C-24 21 -24 21 -22 16 C-19 14 -16 13 -12 12 C-9 11 -9 11 -6 7 C-6 6 -5 5 -5 4 C-4 4 -2 4 -1 4 C-1 3 -0 1 0 0 Z " fill="#C1C4CF" transform="translate(471,275)"/>
<path d="M0 0 C4 3 4 3 7 6 C7 7 7 7 7 8 C8 8 8 8 9 8 C14 16 18 24 19 33 C19 34 20 34 20 35 C21 45 20 52 16 61 C15 62 15 64 14 65 C9 71 3 75 -4 78 C-4 79 -4 79 -4 80 C-1 82 2 84 5 86 C8 89 12 92 15 95 C18 95 21 96 24 96 C29 97 34 99 39 100 C42 101 42 101 45 100 C46 100 46 100 49 102 C50 108 49 110 47 115 C46 115 46 115 45 115 C44 117 44 118 43 120 C42 120 42 120 41 120 C41 121 41 123 41 124 C41 129 41 129 38 132 C37 132 35 131 34 131 C32 131 29 131 27 131 C26 131 24 131 23 131 C20 131 17 131 14 132 C4 132 -0 130 -8 124 C-10 124 -11 125 -13 125 C-18 122 -19 121 -21 116 C-21 115 -22 113 -22 112 C-23 107 -26 105 -31 102 C-34 99 -35 95 -36 91 C-37 90 -38 89 -39 88 C-41 85 -41 85 -41 82 C-41 81 -40 80 -40 79 C-40 78 -41 76 -41 75 C-41 75 -41 75 -39 74 C-39 75 -39 76 -39 77 C-38 77 -38 77 -37 77 C-37 76 -36 74 -36 73 C-30 74 -25 76 -20 78 C-20 77 -19 75 -19 74 C-18 71 -15 71 -12 70 C-5 67 -1 64 3 57 C6 50 7 43 5 36 C1 36 -1 36 -5 37 C-12 39 -19 37 -25 34 C-26 33 -28 32 -29 31 C-33 28 -36 27 -41 27 C-43 24 -43 24 -43 21 C-40 10 -33 3 -23 -3 C-15 -6 -8 -4 0 0 Z " fill="#C1C4CF" transform="translate(429,137)"/>
<path d="M0 0 C10 0 17 7 24 14 C27 16 30 18 32 20 C34 22 36 23 38 25 C39 26 40 27 42 28 C43 29 44 30 45 31 C46 32 47 33 49 34 C51 37 51 37 51 41 C51 45 51 45 50 48 C47 54 46 60 47 67 C50 71 50 71 53 74 C53 75 53 75 54 77 C54 78 55 79 55 80 C59 80 59 80 62 80 C61 85 61 85 60 88 C58 95 58 103 57 111 C57 118 54 121 48 126 C46 128 46 128 43 132 C42 133 42 134 41 135 C38 134 38 134 35 129 C33 128 31 126 29 125 C17 117 7 108 -1 97 C-2 96 -3 94 -4 93 C-7 90 -8 87 -10 83 C-11 82 -11 80 -12 79 C-13 75 -13 71 -13 67 C-14 67 -14 67 -15 67 C-15 66 -15 66 -15 65 C-14 65 -14 65 -11 64 C-11 63 -10 61 -10 60 C1 60 9 68 17 75 C22 79 23 79 29 79 C30 74 30 74 28 69 C27 68 25 68 24 67 C22 65 22 65 20 62 C19 61 18 60 17 59 C17 58 17 58 15 56 C14 55 13 53 11 52 C2 39 -4 28 -4 13 C-4 11 -4 10 -4 8 C-4 4 -4 4 0 0 Z " fill="#6B7287" transform="translate(52,149)"/>
<path d="M0 0 C0 1 0 1 0 2 C1 3 3 3 4 4 C4 4 4 4 5 7 C6 7 6 7 7 7 C8 9 10 10 11 12 C13 15 15 18 18 21 C21 25 22 28 22 32 C20 38 17 41 13 44 C10 46 10 46 8 46 C8 47 8 47 7 50 C3 60 -2 69 -12 74 C-16 75 -18 74 -22 72 C-29 67 -33 60 -38 52 C-40 47 -43 44 -48 41 C-50 39 -50 39 -52 35 C-53 25 -53 25 -50 21 C-48 18 -46 16 -43 13 C-42 11 -40 10 -39 8 C-29 -5 -15 -8 0 0 Z " fill="#050506" transform="translate(360,185)"/>
<path d="M0 0 C-1 5 -4 8 -7 12 C-8 13 -9 14 -10 15 C-14 19 -18 22 -23 24 C-29 28 -31 32 -33 38 C-37 44 -40 48 -47 51 C-48 51 -49 52 -51 53 C-56 55 -62 55 -68 55 C-68 54 -68 54 -68 53 C-69 53 -70 52 -71 52 C-72 51 -72 50 -73 49 C-74 48 -74 47 -75 46 C-79 46 -81 47 -85 49 C-107 60 -147 58 -170 51 C-175 49 -175 49 -178 47 C-181 47 -181 47 -184 48 C-186 51 -186 51 -188 55 C-192 58 -192 58 -196 58 C-205 56 -212 53 -219 47 C-221 43 -223 40 -224 35 C-227 31 -230 29 -235 26 C-253 11 -253 11 -255 5 C-252 4 -252 4 -249 3 C-245 5 -243 6 -240 9 C-233 15 -225 19 -217 23 C-216 24 -215 24 -213 25 C-206 29 -199 31 -190 33 C-186 34 -185 36 -182 39 C-179 39 -177 38 -174 38 C-171 39 -168 39 -165 40 C-158 42 -152 42 -145 43 C-145 43 -145 43 -141 44 C-138 44 -134 45 -131 45 C-131 46 -131 46 -131 47 C-126 48 -126 48 -121 48 C-120 47 -120 46 -119 45 C-115 44 -111 43 -107 42 C-106 42 -105 42 -104 42 C-101 41 -99 41 -97 41 C-94 40 -91 39 -88 39 C-84 38 -84 38 -80 39 C-80 39 -80 39 -78 39 C-77 37 -77 36 -76 34 C-73 33 -73 33 -69 31 C-68 31 -66 30 -65 30 C-63 30 -62 29 -60 29 C-49 25 -40 22 -30 16 C-30 16 -30 16 -27 14 C-21 11 -16 6 -10 2 C-6 -1 -5 -1 0 0 Z " fill="#B1B3B9" transform="translate(472,437)"/>
<path d="M0 0 C1 0 3 1 4 1 C4 2 4 2 6 5 C4 9 4 9 1 10 C-0 10 -1 11 -2 11 C-2 11 -3 12 -3 12 C-3 14 -3 15 -3 17 C-3 22 -4 24 -7 28 C-7 29 -7 29 -10 31 C-12 34 -12 34 -16 35 C-16 36 -16 36 -16 37 C-17 38 -18 39 -19 40 C-19 41 -20 42 -20 43 C-23 48 -26 50 -30 53 C-32 56 -32 56 -34 59 C-37 61 -40 60 -44 60 C-45 61 -45 61 -48 61 C-50 60 -51 60 -52 60 C-53 58 -53 55 -54 53 C-58 52 -58 52 -62 52 C-63 51 -65 51 -66 51 C-70 51 -70 51 -74 52 C-79 51 -79 51 -81 48 C-82 47 -82 46 -83 45 C-84 44 -85 44 -86 43 C-89 39 -91 35 -93 30 C-93 29 -92 27 -92 26 C-91 26 -90 26 -89 26 C-89 25 -89 25 -89 24 C-84 23 -79 22 -73 22 C-65 21 -59 17 -52 14 C-49 12 -45 11 -41 10 C-41 9 -41 8 -42 7 C-42 6 -42 5 -42 4 C-41 4 -41 3 -40 3 C-39 3 -39 3 -36 5 C-30 7 -25 7 -18 7 C-16 7 -14 7 -12 7 C-6 6 -4 4 0 0 Z " fill="#C1C4CF" transform="translate(296,208)"/>
<path d="M0 0 C10 10 10 10 10 14 C11 15 13 15 14 16 C16 18 17 21 19 23 C23 31 27 33 34 36 C37 37 37 37 42 40 C43 40 43 40 46 42 C53 46 53 46 56 49 C58 57 58 64 55 71 C52 72 52 72 48 72 C47 72 46 73 45 73 C36 75 26 74 17 71 C15 69 15 69 14 66 C14 63 14 63 15 58 C13 54 13 54 11 53 C9 53 7 53 4 53 C-1 52 -5 52 -10 50 C-11 50 -13 50 -14 49 C-23 47 -29 41 -34 34 C-32 29 -32 29 -30 27 C-28 27 -27 27 -25 26 C-20 25 -20 25 -17 21 C-16 20 -16 18 -15 17 C-14 16 -12 16 -11 15 C-11 14 -10 13 -10 12 C-8 8 -5 6 -2 3 C-1 3 -1 3 0 3 C0 2 0 1 0 0 Z " fill="#6A7186" transform="translate(136,310)"/>
<path d="M0 0 C2 0 3 1 5 1 C7 1 9 1 12 2 C12 2 12 2 15 2 C27 4 39 4 51 4 C51 3 51 3 55 3 C63 3 71 2 80 1 C86 1 86 1 89 3 C90 4 91 5 92 6 C92 6 92 7 92 8 C92 8 93 8 94 8 C96 12 96 12 95 17 C92 19 89 21 86 24 C82 26 81 28 78 32 C77 33 76 34 75 36 C72 36 72 36 69 34 C64 32 60 32 54 32 C54 32 54 32 50 32 C49 32 47 32 46 32 C45 32 43 32 42 32 C18 32 18 32 10 40 C9 40 9 40 7 39 C6 37 6 36 6 35 C3 27 -2 24 -9 20 C-13 18 -13 18 -14 15 C-14 9 -11 6 -7 3 C-3 -0 -3 -0 0 0 Z " fill="#EFEFF1" transform="translate(303.3125,498.1875)"/>
<path d="M0 0 C0 5 0 10 0 16 C0 17 0 19 0 20 C0 22 0 23 0 25 C1 26 1 27 1 28 C-0 33 -2 34 -5 37 C-7 38 -9 40 -11 41 C-12 42 -12 43 -13 43 C-18 48 -23 50 -28 53 C-32 55 -32 55 -35 59 C-35 60 -35 62 -36 63 C-37 68 -40 70 -44 73 C-47 76 -47 76 -48 79 C-49 83 -52 85 -56 87 C-59 87 -62 87 -65 87 C-65 89 -64 90 -64 92 C-67 94 -67 94 -72 94 C-74 92 -74 92 -76 88 C-76 88 -76 88 -78 85 C-79 84 -79 82 -80 81 C-81 80 -81 79 -82 77 C-86 71 -86 71 -87 68 C-87 67 -86 66 -86 65 C-85 65 -84 65 -83 65 C-83 64 -82 62 -82 61 C-79 60 -79 60 -76 59 C-75 59 -74 59 -72 59 C-69 58 -69 58 -64 58 C-57 57 -53 54 -48 49 C-48 49 -47 48 -47 47 C-47 46 -48 45 -48 44 C-46 42 -46 42 -43 39 C-38 35 -38 35 -37 33 C-37 30 -37 26 -37 23 C-36 20 -36 20 -32 16 C-30 16 -29 17 -27 17 C-26 18 -26 20 -25 21 C-24 21 -22 21 -21 21 C-22 20 -23 19 -24 18 C-24 17 -25 15 -26 14 C-24 10 -24 10 -21 8 C-20 8 -18 7 -17 7 C-12 5 -12 5 -8 2 C-5 0 -5 0 0 0 Z " fill="#C1C4CF" transform="translate(288,348)"/>
<path d="M0 0 C0 0 1 0 1 0 C1 8 0 16 -1 24 C-2 28 -3 32 -3 35 C-4 41 -4 41 -6 43 C-6 46 -7 49 -7 52 C-8 52 -8 52 -9 52 C-9 53 -9 54 -9 55 C-11 60 -14 64 -18 68 C-22 66 -25 65 -29 62 C-33 60 -36 58 -40 56 C-50 53 -55 47 -61 38 C-63 34 -65 32 -68 29 C-70 26 -70 26 -70 20 C-69 19 -69 17 -68 16 C-68 15 -67 14 -67 12 C-67 11 -66 10 -66 9 C-65 9 -64 8 -63 8 C-61 9 -58 11 -56 12 C-55 12 -53 13 -52 13 C-47 14 -44 17 -40 20 C-37 21 -34 23 -31 24 C-31 23 -30 22 -30 20 C-27 13 -22 10 -16 6 C-12 5 -10 5 -6 5 C-5 5 -3 5 -1 5 C-1 3 -0 2 0 0 Z " fill="#9094A2" transform="translate(211,291)"/>
<path d="M0 0 C4 3 4 3 7 6 C7 7 7 7 7 8 C8 8 8 8 9 8 C14 16 18 24 19 33 C19 34 20 34 20 35 C21 45 20 52 16 61 C15 62 15 64 14 65 C8 73 0 77 -9 80 C-14 80 -14 80 -18 79 C-19 76 -19 76 -19 73 C-16 71 -16 71 -11 69 C-4 66 -0 63 4 56 C6 49 7 43 5 36 C1 36 -1 36 -5 37 C-12 39 -19 37 -25 34 C-26 33 -28 32 -29 31 C-33 28 -36 27 -41 27 C-43 24 -43 24 -43 21 C-40 10 -33 3 -23 -3 C-15 -6 -8 -4 0 0 Z " fill="#EEEEF0" transform="translate(429,137)"/>
<path d="M0 0 C9 5 14 13 19 22 C19 23 19 25 19 26 C16 30 16 30 12 30 C6 31 3 33 -2 36 C-8 39 -12 39 -17 38 C-18 37 -19 36 -20 36 C-24 34 -26 34 -30 34 C-32 37 -32 41 -32 44 C-31 54 -30 59 -24 66 C-20 69 -17 70 -13 72 C-11 72 -9 73 -7 74 C-7 77 -7 77 -8 80 C-18 81 -25 81 -33 74 C-43 64 -46 53 -46 39 C-44 28 -40 19 -34 10 C-34 9 -34 9 -32 7 C-23 -2 -12 -5 0 0 Z " fill="#EFEFF1" transform="translate(286.25,135.5)"/>
<path d="M0 0 C1 0 1 1 2 1 C2 2 1 4 1 5 C3 7 3 7 5 9 C6 10 7 11 8 12 C8 12 8 12 10 14 C14 18 15 19 17 24 C21 26 24 27 28 28 C32 27 32 27 35 25 C39 25 39 25 42 25 C36 32 29 34 21 35 C16 35 13 35 9 34 C5 35 5 35 2 37 C0 41 0 41 1 44 C1 48 1 48 -0 51 C-8 57 -19 57 -28 57 C-31 56 -31 56 -34 54 C-40 54 -40 54 -43 55 C-44 52 -44 49 -44 46 C-45 45 -45 43 -45 42 C-46 34 -46 34 -46 30 C-42 29 -42 29 -40 30 C-40 29 -39 28 -39 27 C-37 26 -34 24 -32 23 C-21 18 -12 13 -4 4 C-3 3 -1 1 0 0 Z " fill="#6B7287" transform="translate(537,327)"/>
<path d="M0 0 C0 1 0 1 0 2 C1 2 2 3 3 3 C3 4 3 6 3 7 C4 7 5 7 6 7 C8 10 8 10 10 14 C11 15 12 16 12 17 C14 21 14 24 14 28 C14 28 14 28 16 31 C16 34 16 34 15 37 C11 38 11 38 6 38 C1 40 1 40 -1 44 C-2 45 -2 45 -3 46 C-4 47 -4 49 -5 50 C-5 50 -5 50 -7 48 C-13 42 -20 38 -29 38 C-35 38 -40 40 -45 44 C-50 51 -54 57 -58 65 C-58 65 -59 66 -59 67 C-60 67 -61 67 -62 67 C-63 62 -63 58 -62 53 C-62 53 -62 53 -63 50 C-63 48 -63 46 -63 44 C-63 43 -63 41 -63 40 C-63 35 -60 33 -57 30 C-50 26 -44 24 -36 22 C-23 18 -15 13 -7 2 C-4 0 -4 0 0 0 Z " fill="#C1C4CF" transform="translate(443,96)"/>
<path d="M0 0 C5 8 5 13 4 22 C2 31 -2 36 -10 41 C-19 45 -26 45 -35 42 C-42 37 -47 32 -49 24 C-49 21 -49 18 -49 15 C-49 13 -49 12 -49 10 C-49 6 -49 6 -47 4 C-42 3 -40 4 -36 6 C-30 8 -28 8 -22 7 C-17 5 -14 3 -10 0 C-6 -1 -4 -1 0 0 Z " fill="#050506" transform="translate(303,165)"/>
<path d="M0 0 C4 1 4 1 9 2 C10 2 12 2 13 2 C15 2 16 3 17 3 C19 7 19 7 21 11 C22 12 23 14 24 15 C24 18 25 21 25 24 C25 31 26 34 29 39 C29 42 29 42 28 46 C28 49 27 51 27 54 C25 54 24 53 22 53 C21 53 20 54 19 54 C16 53 14 52 11 52 C6 50 3 49 -2 49 C-9 48 -11 45 -15 40 C-18 38 -20 37 -23 35 C-24 34 -26 33 -27 32 C-26 29 -26 29 -21 27 C-20 26 -18 25 -16 24 C-11 21 -9 17 -6 12 C-6 11 -5 9 -4 8 C-3 5 -1 3 0 0 Z " fill="#C7C9D4" transform="translate(451,185)"/>
<path d="M0 0 C7 -1 10 1 15 5 C21 9 26 10 32 10 C36 9 36 9 39 8 C43 8 43 8 46 8 C49 16 48 23 45 30 C40 39 33 43 23 46 C15 46 8 42 1 37 C-5 29 -7 22 -6 12 C-6 8 -5 6 -3 3 C-2 3 -1 2 0 2 C0 1 0 1 0 0 Z " fill="#050506" transform="translate(388,164)"/>
<path d="M0 0 C2 2 2 2 2 6 C7 8 13 8 19 8 C23 9 23 9 25 11 C25 14 25 14 25 18 C24 19 24 19 23 20 C23 21 23 21 22 25 C22 25 22 25 19 26 C19 27 18 27 18 28 C11 27 11 27 8 26 C7 26 7 26 3 26 C-3 25 -3 25 -6 24 C-7 24 -7 24 -9 23 C-12 26 -14 27 -15 31 C-15 34 -15 36 -15 39 C-16 43 -18 44 -21 46 C-21 51 -21 51 -19 55 C-19 56 -18 58 -18 59 C-19 60 -19 62 -20 63 C-23 63 -23 63 -27 61 C-28 61 -30 61 -31 60 C-32 60 -34 59 -35 59 C-37 59 -38 58 -40 58 C-44 56 -49 54 -53 52 C-54 52 -55 51 -56 51 C-59 50 -59 50 -61 48 C-56 44 -52 40 -46 37 C-45 36 -43 35 -42 34 C-40 33 -39 33 -37 32 C-35 31 -33 30 -32 29 C-31 29 -30 28 -29 27 C-28 27 -27 26 -26 26 C-20 23 -20 23 -17 23 C-17 22 -17 21 -17 20 C-17 16 -17 16 -14 11 C-12 10 -10 8 -8 7 C-6 5 -5 4 -3 2 C-2 1 -1 1 0 0 Z " fill="#878DA0" transform="translate(587,184)"/>
<path d="M0 0 C4 4 4 4 4 10 C1 12 -1 13 -4 15 C-7 18 -8 22 -9 26 C-10 27 -12 28 -14 29 C-19 34 -19 37 -21 43 C-29 50 -39 57 -50 56 C-52 56 -53 56 -55 56 C-56 52 -56 47 -56 43 C-53 39 -53 39 -50 36 C-49 33 -47 30 -46 27 C-45 27 -45 27 -44 27 C-42 23 -42 23 -40 18 C-36 14 -31 12 -25 11 C-21 10 -19 9 -16 5 C-11 0 -7 -1 0 0 Z " fill="#C1C4CF" transform="translate(248,316)"/>
<path d="M0 0 C0 1 0 1 0 2 C1 3 3 3 4 4 C6 14 -1 26 -7 34 C-18 48 -18 48 -25 49 C-26 49 -27 50 -28 50 C-31 50 -31 50 -34 49 C-34 48 -35 47 -36 46 C-37 46 -38 45 -39 44 C-39 43 -40 43 -41 42 C-42 41 -44 40 -45 39 C-48 36 -48 36 -48 33 C-47 28 -44 25 -41 22 C-40 22 -40 22 -39 22 C-40 20 -41 19 -42 17 C-42 16 -42 16 -42 15 C-41 15 -41 15 -40 15 C-39 16 -37 18 -36 19 C-29 18 -24 13 -19 9 C-6 -2 -6 -2 0 0 Z " fill="#63697E" transform="translate(646,209)"/>
<path d="M0 0 C3 -0 3 -0 7 -0 C8 -0 9 -0 10 -0 C11 -0 11 -0 13 0 C13 3 13 7 13 10 C12 10 12 10 10 10 C9 10 9 10 6 10 C5 11 5 13 4 14 C2 14 0 14 -2 14 C-3 15 -3 17 -4 18 C-5 18 -5 18 -6 18 C-7 19 -7 21 -8 22 C-10 22 -12 22 -14 22 C-15 23 -15 25 -16 26 C-18 26 -20 26 -22 26 C-23 27 -23 29 -24 30 C-26 30 -28 30 -30 30 C-31 31 -31 33 -32 34 C-33 34 -33 34 -34 34 C-35 35 -35 37 -36 38 C-39 39 -39 39 -42 39 C-42 40 -42 42 -42 43 C-34 43 -27 44 -19 44 C-19 45 -19 45 -18 52 C-21 55 -21 55 -25 55 C-30 55 -35 54 -41 53 C-47 52 -53 51 -59 51 C-63 50 -63 50 -65 48 C-65 47 -65 47 -66 43 C-65 42 -65 41 -64 40 C-63 40 -63 40 -62 40 C-61 39 -61 37 -60 36 C-59 36 -59 36 -58 36 C-57 35 -57 33 -56 32 C-54 32 -52 32 -50 32 C-49 31 -49 29 -48 28 C-46 28 -44 28 -42 28 C-41 27 -41 25 -40 24 C-39 24 -39 24 -38 24 C-37 23 -37 21 -36 20 C-34 20 -32 20 -30 20 C-29 19 -29 17 -28 16 C-26 16 -24 16 -22 16 C-21 15 -21 13 -20 12 C-19 12 -19 12 -18 12 C-17 11 -17 9 -16 8 C-14 8 -12 8 -10 8 C-9 7 -9 5 -8 4 C-6 4 -4 4 -2 4 C-1 3 -1 1 0 0 Z " fill="#232325" transform="translate(570,493)"/>
<path d="M0 0 C4 -0 4 -0 9 0 C10 1 10 3 11 4 C13 4 15 4 17 4 C18 5 18 7 19 8 C21 8 23 8 25 8 C26 9 26 11 27 12 C29 12 31 12 33 12 C34 13 34 15 35 16 C36 17 38 17 39 18 C39 19 39 19 39 20 C41 20 43 20 45 20 C46 21 46 23 47 24 C49 24 51 24 53 24 C54 25 54 27 55 28 C56 29 58 29 59 30 C59 31 59 31 59 32 C61 32 63 32 65 32 C65 33 65 33 67 36 C68 36 69 36 70 36 C71 38 71 38 71 44 C59 50 44 48 31 48 C31 47 31 47 31 46 C30 45 30 45 29 44 C30 44 30 44 31 44 C32 43 32 41 33 40 C36 39 36 39 40 39 C41 39 43 39 44 39 C45 39 46 39 47 39 C47 38 47 36 47 35 C46 34 44 33 43 32 C43 31 43 31 43 30 C41 30 39 30 37 30 C36 29 36 27 35 26 C33 26 31 26 29 26 C28 25 28 23 27 22 C25 22 24 22 22 22 C20 22 19 22 17 22 C16 21 16 19 15 18 C13 18 11 18 9 18 C8 17 8 15 7 14 C5 14 2 14 0 14 C0 9 0 5 0 0 Z " fill="#212223" transform="translate(113,497)"/>
<path d="M0 0 C9 4 17 9 24 15 C25 15 26 16 27 17 C29 19 29 19 31 23 C23 30 12 36 2 40 C2 40 2 41 1 42 C-1 42 -3 42 -5 42 C-7 37 -8 33 -9 29 C-9 27 -10 25 -10 24 C-12 20 -12 20 -12 14 C-11 14 -10 14 -10 14 C-10 12 -10 11 -10 10 C-10 8 -11 7 -11 6 C-4 -1 -4 -1 0 0 Z " fill="#8F93A1" transform="translate(495.625,315.4375)"/>
<path d="M0 0 C7 -1 11 1 17 5 C18 6 19 7 20 8 C22 10 25 12 28 14 C30 18 30 18 30 24 C26 29 21 31 15 33 C14 33 13 34 12 34 C8 35 6 34 3 32 C2 32 1 32 0 32 C-5 25 -10 16 -10 7 C-8 4 -8 4 -5 3 C-4 3 -3 4 -2 4 C-1 3 -1 1 0 0 Z " fill="#63697E" transform="translate(58,161)"/>
<path d="M0 0 C8 4 15 13 20 21 C20 22 19 24 19 25 C16 26 16 26 13 26 C8 27 4 28 -1 30 C-6 30 -9 29 -14 27 C-16 27 -18 26 -20 26 C-21 26 -21 26 -26 25 C-27 24 -27 23 -28 22 C-27 18 -27 18 -24 15 C-23 15 -23 15 -22 15 C-21 14 -21 12 -20 11 C-14 4 -10 -1 0 0 Z " fill="#F3AF27" transform="translate(348,191)"/>
<path d="M0 0 C7 0 9 2 15 6 C15 7 15 8 15 9 C18 14 18 14 21 16 C24 19 26 21 27 25 C27 28 27 32 26 35 C26 39 27 42 28 45 C23 46 23 46 20 44 C19 43 18 43 17 42 C15 42 14 41 12 41 C10 38 10 38 7 35 C7 34 6 33 5 32 C3 29 2 26 0 23 C-1 22 -1 20 -2 19 C-3 15 -3 11 -3 7 C-4 7 -4 7 -5 7 C-5 6 -5 6 -5 5 C-4 5 -2 4 -1 4 C-1 3 -0 1 0 0 Z " fill="#63697E" transform="translate(42,209)"/>
<path d="M0 0 C0 1 1 1 1 2 C2 3 4 3 5 4 C6 5 6 5 10 7 C11 8 12 9 14 10 C15 10 17 9 18 9 C18 9 19 10 19 10 C20 10 20 10 24 11 C25 12 26 13 27 14 C28 14 28 15 29 15 C29 16 29 16 29 17 C30 17 31 18 32 18 C33 21 33 21 33 25 C32 26 31 28 30 29 C31 30 32 32 33 33 C28 32 28 32 25 29 C21 28 21 28 17 28 C17 30 17 31 17 33 C15 33 14 33 12 33 C12 34 11 35 11 36 C8 37 8 37 4 37 C2 36 1 35 -1 34 C-2 29 -2 29 -2 24 C-2 23 -3 21 -3 20 C-3 19 -2 18 -2 18 C1 13 -0 9 -1 4 C-1 3 -1 3 -1 1 C-1 1 -0 0 0 0 Z " fill="#C1C4CF" transform="translate(327,255)"/>
<path d="M0 0 C5 -1 7 -1 11 2 C13 4 13 4 13 6 C9 10 9 10 6 10 C5 11 5 13 4 14 C3 14 3 14 2 14 C1 15 1 17 0 18 C-1 18 -1 18 -2 18 C-3 19 -3 21 -4 22 C-4 22 -4 22 -6 23 C-6 25 -7 28 -7 30 C-8 30 -9 30 -10 30 C-11 31 -11 33 -12 34 C-13 34 -13 34 -14 34 C-15 35 -15 37 -16 38 C-17 38 -17 38 -18 38 C-19 39 -19 41 -20 42 C-21 42 -21 42 -22 42 C-23 43 -23 45 -24 46 C-25 46 -25 46 -26 46 C-27 47 -27 49 -28 50 C-33 50 -33 50 -37 50 C-37 47 -37 43 -37 40 C-36 40 -35 40 -34 40 C-33 39 -33 37 -32 36 C-31 36 -31 36 -30 36 C-29 35 -29 33 -28 32 C-27 32 -27 32 -26 32 C-25 31 -25 29 -24 28 C-23 28 -23 28 -22 28 C-21 27 -21 25 -20 24 C-19 24 -19 23 -18 23 C-18 21 -17 18 -17 16 C-16 16 -15 16 -14 16 C-13 15 -13 13 -12 12 C-11 12 -11 12 -10 12 C-9 11 -9 9 -8 8 C-7 8 -7 8 -6 8 C-5 7 -5 5 -4 4 C-3 4 -3 4 -2 4 C-1 3 -1 1 0 0 Z " fill="#212123" transform="translate(550,453)"/>
<path d="M0 0 C0 1 1 2 1 3 C2 4 4 4 5 5 C5 6 5 6 5 7 C6 8 8 8 9 9 C9 10 9 10 9 11 C10 12 12 12 13 13 C13 14 13 14 13 15 C14 16 16 16 17 17 C17 18 17 18 17 19 C18 20 20 20 21 21 C21 22 21 22 21 23 C22 24 24 24 25 25 C25 26 25 26 25 27 C26 28 28 28 29 29 C29 30 29 30 29 31 C30 31 31 31 32 31 C32 32 32 33 32 34 C33 38 33 38 37 41 C37 42 37 42 37 43 C38 43 39 43 40 43 C40 46 40 50 40 53 C36 53 36 53 31 53 C30 52 30 50 29 49 C28 48 26 48 25 47 C25 46 25 46 25 45 C24 45 23 45 22 45 C22 44 22 43 22 42 C21 38 21 38 17 35 C17 34 17 34 17 33 C16 32 14 32 13 31 C13 30 13 30 13 29 C12 28 10 28 9 27 C9 26 9 26 9 25 C8 24 6 24 5 23 C5 22 5 22 5 21 C4 21 3 21 2 21 C2 20 2 19 2 18 C1 14 1 14 -3 11 C-3 10 -3 10 -3 9 C-4 8 -6 8 -7 7 C-8 6 -9 6 -10 5 C-10 3 -10 3 -8 1 C-5 -1 -5 -1 0 0 Z " fill="#1A1A1C" transform="translate(135,450)"/>
<path d="M0 0 C2 2 2 2 2 6 C7 8 13 8 19 8 C23 9 23 9 25 11 C25 14 25 14 25 18 C24 19 24 19 23 20 C23 21 23 21 22 25 C21 25 20 26 19 26 C19 27 18 27 18 28 C11 27 11 27 8 26 C6 26 5 26 3 26 C-3 25 -3 25 -6 24 C-7 24 -7 24 -9 23 C-12 25 -12 25 -14 28 C-15 28 -15 28 -16 28 C-17 24 -17 20 -17 16 C-14 11 -13 10 -8 7 C-6 5 -5 4 -3 2 C-2 1 -1 1 0 0 Z " fill="#7C8296" transform="translate(587,184)"/>
<path d="M0 0 C1 0 2 1 3 1 C-9 16 -26 25 -44 29 C-45 29 -47 28 -48 28 C-48 27 -48 27 -49 23 C-50 22 -50 21 -51 20 C-53 17 -53 17 -52 12 C-43 7 -32 6 -22 5 C-21 6 -21 6 -20 7 C-14 8 -11 8 -6 5 C-5 4 -4 3 -3 2 C-2 2 -1 1 0 0 Z " fill="#6B7287" transform="translate(619,299)"/>
<path d="M0 0 C12 5 23 13 34 21 C39 24 43 26 48 29 C51 31 54 33 57 35 C57 35 57 36 57 36 C51 36 50 36 45 33 C39 29 34 26 26 26 C24 29 24 29 23 32 C20 34 20 34 17 34 C12 33 11 31 9 27 C8 26 7 26 6 25 C4 21 4 17 3 12 C2 12 2 12 1 12 C-1 3 -1 3 0 0 Z " fill="#8F93A1" transform="translate(116,198)"/>
<path d="M0 0 C1 1 1 3 2 4 C5 5 5 5 8 6 C8 5 8 5 8 4 C12 3 12 3 16 3 C17 4 19 6 20 7 C21 8 23 8 24 9 C24 14 23 18 21 23 C16 26 11 25 6 25 C4 25 3 25 2 25 C-6 25 -6 25 -11 20 C-10 18 -9 15 -8 13 C-8 10 -8 10 -9 7 C-9 6 -10 4 -10 3 C-5 0 -5 0 0 0 Z " fill="#C1C4CF" transform="translate(367,44)"/>
<path d="M0 0 C6 2 10 4 14 8 C15 15 16 19 13 26 C8 26 8 26 3 26 C2 27 1 27 0 28 C-2 28 -3 28 -5 28 C-5 27 -5 27 -5 26 C-6 26 -8 26 -9 26 C-13 25 -13 25 -16 23 C-16 22 -16 22 -17 18 C-14 15 -14 15 -11 13 C-10 13 -9 13 -8 13 C-7 11 -7 10 -6 8 C-6 7 -5 7 -5 6 C-4 6 -4 6 -3 6 C-2 4 -2 3 -1 1 C-1 1 -0 0 0 0 Z " fill="#63697E" transform="translate(178,351)"/>
<path d="M0 0 C6 2 11 5 16 9 C17 9 18 10 19 10 C23 12 24 15 26 19 C27 20 27 21 28 22 C28 23 28 23 30 26 C31 28 32 30 33 32 C36 36 38 40 38 46 C39 50 39 50 42 55 C42 61 42 61 39 65 C38 65 38 65 33 66 C33 59 33 52 33 45 C32 45 32 45 27 44 C25 41 24 39 24 35 C24 35 25 34 25 34 C25 26 20 20 15 14 C7 7 0 5 -10 6 C-15 8 -15 8 -19 9 C-19 8 -19 8 -19 7 C-17 6 -16 5 -14 4 C-13 3 -12 3 -11 2 C-7 -1 -5 -1 0 0 Z " fill="#BEC1CD" transform="translate(279,128)"/>
<path d="M0 0 C0 1 1 1 1 2 C3 2 4 1 6 1 C8 1 10 1 12 1 C14 1 17 0 19 0 C19 1 20 3 20 4 C21 4 21 5 22 5 C22 6 22 7 22 8 C23 8 25 9 26 9 C28 11 28 11 28 17 C27 17 27 17 24 19 C23 23 23 23 23 27 C18 27 14 26 9 25 C8 24 6 24 5 24 C4 25 4 27 3 28 C1 24 2 18 2 13 C2 9 2 9 0 4 C0 3 0 1 0 0 Z " fill="#C2C4D0" transform="translate(446,162)"/>
<path d="M0 0 C5 1 10 1 15 1 C16 1 17 1 18 1 C26 1 34 0 42 0 C43 0 44 0 46 0 C50 -0 55 -0 60 -0 C64 -0 67 -0 71 -1 C71 -1 71 -1 74 -1 C77 -1 79 -1 82 -1 C82 -0 82 -0 84 2 C81 6 78 5 74 5 C73 5 73 5 70 5 C70 5 70 5 67 5 C63 5 59 5 55 5 C52 5 49 5 46 5 C40 5 35 5 29 5 C21 5 14 5 6 5 C1 5 -5 5 -11 5 C-13 5 -16 5 -19 5 C-23 5 -27 5 -31 5 C-32 5 -33 5 -34 5 C-37 5 -37 5 -42 4 C-43 3 -43 2 -44 0 C-10 -2 -10 -2 0 0 Z " fill="#EFEFF1" transform="translate(328.119384765625,566.501708984375)"/>
<path d="M0 0 C1 5 1 9 0 14 C-1 14 -1 14 -2 14 C-2 15 -2 16 -2 17 C-4 22 -7 26 -11 30 C-15 28 -18 27 -22 24 C-24 23 -25 22 -27 21 C-27 20 -28 19 -28 18 C-22 10 -11 0 0 0 Z " fill="#878DA0" transform="translate(204,329)"/>
<path d="M0 0 C6 3 9 5 11 11 C11 14 10 17 10 20 C9 24 9 28 9 32 C12 35 12 35 14 37 C12 41 12 41 9 43 C7 43 6 43 4 43 C2 41 2 41 1 38 C0 34 0 34 -3 32 C-5 29 -5 29 -5 25 C-5 19 -4 13 -1 7 C-1 5 -0 2 0 0 Z " fill="#7C8296" transform="translate(103,187)"/>
<path d="M0 0 C2 0 3 0 5 0 C5 0 5 0 6 3 C9 7 11 8 16 9 C17 9 19 9 20 9 C20 8 20 8 20 7 C23 6 26 4 29 3 C29 3 29 3 31 6 C30 10 30 10 28 12 C23 13 18 13 13 14 C12 14 11 14 10 14 C6 14 3 14 -0 14 C-3 14 -5 14 -7 14 C-14 14 -20 14 -27 14 C-28 14 -29 14 -30 14 C-34 14 -37 14 -40 14 C-42 14 -44 14 -46 14 C-52 14 -57 13 -63 12 C-63 12 -63 11 -63 11 C-62 11 -61 11 -60 11 C-56 11 -52 11 -47 11 C-46 11 -44 10 -43 10 C-42 10 -42 10 -38 10 C-37 10 -36 10 -34 10 C-31 10 -31 10 -27 9 C-23 9 -18 9 -14 8 C-10 8 -10 8 -7 6 C-3 4 -3 4 0 4 C-0 4 -0 4 -1 1 C-1 1 -0 0 0 0 Z " fill="#C7C9D4" transform="translate(383,554)"/>
<path d="M0 0 C4 4 6 8 8 13 C8 15 8 16 8 18 C6 20 6 20 3 22 C2 21 1 20 0 19 C-7 19 -7 19 -10 20 C-11 19 -12 19 -13 18 C-13 17 -13 17 -13 16 C-14 16 -15 15 -16 15 C-18 10 -17 4 -16 -1 C-11 -6 -6 -3 0 0 Z " fill="#C2C5D0" transform="translate(232,282)"/>
<path d="M0 0 C1 4 1 8 0 12 C-1 13 -1 13 -2 14 C-5 13 -7 11 -9 9 C-15 6 -20 7 -26 7 C-38 12 -44 22 -50 34 C-50 34 -51 35 -51 36 C-52 36 -53 36 -54 36 C-55 30 -55 29 -52 24 C-50 22 -49 21 -47 19 C-46 18 -46 18 -44 15 C-36 6 -29 -1 -16 -2 C-5 -2 -5 -2 0 0 Z " fill="#BDC0CC" transform="translate(435,127)"/>
<path d="M0 0 C3 3 5 5 6 9 C3 12 3 12 1 13 C0 14 -0 15 -0 15 C-2 15 -3 15 -4 15 C-4 16 -4 17 -3 18 C-5 19 -7 20 -8 20 C-10 19 -12 17 -13 15 C-15 15 -17 14 -19 14 C-20 13 -22 13 -23 12 C-25 10 -25 10 -24 6 C-18 -1 -9 -4 0 0 Z " fill="#C1C4CF" transform="translate(298.4375,456.5625)"/>
<path d="M0 0 C1 0 2 1 3 1 C3 3 3 4 3 6 C4 8 4 9 4 11 C8 12 8 12 11 12 C22 14 22 14 27 18 C28 20 29 22 30 24 C31 24 32 25 33 25 C33 26 33 26 33 27 C30 27 28 27 25 28 C24 28 24 28 20 28 C16 28 14 27 10 25 C4 25 4 25 1 26 C0 23 -0 20 -0 17 C-1 16 -1 14 -1 13 C-2 9 -2 5 -2 1 C-1 1 -1 0 0 0 Z " fill="#63697E" transform="translate(493,356)"/>
<path d="M0 0 C-0 1 -1 3 -1 4 C-6 7 -10 7 -15 7 C-16 7 -18 7 -19 7 C-20 7 -20 7 -23 7 C-24 7 -24 7 -28 7 C-35 6 -41 6 -48 3 C-52 4 -52 4 -55 5 C-55 7 -54 8 -54 10 C-56 10 -57 11 -59 11 C-59 10 -59 10 -59 9 C-60 9 -60 8 -61 8 C-61 7 -62 5 -62 4 C-42 -2 -21 -4 0 0 Z " fill="#D8DAE1" transform="translate(366,40)"/>
<path d="M0 0 C1 0 3 0 4 0 C5 4 6 8 7 11 C8 15 8 15 11 17 C15 18 18 19 21 19 C27 20 27 20 32 22 C32 22 32 22 31 25 C27 25 24 25 21 24 C18 23 18 23 13 24 C11 29 11 29 10 33 C5 32 5 32 2 28 C2 27 1 25 0 24 C-1 23 -2 22 -3 21 C-3 19 -2 18 -2 16 C-2 12 -1 8 -1 4 C-1 1 -1 1 0 0 Z " fill="#974D0D" transform="translate(409,506)"/>
<path d="M0 0 C3 9 4 18 5 28 C6 32 6 32 8 37 C9 41 10 45 10 49 C10 50 11 51 11 52 C12 61 12 61 10 65 C10 65 10 65 9 62 C9 61 8 60 8 59 C7 59 6 58 5 58 C5 57 5 56 5 55 C4 55 4 55 3 55 C3 53 3 52 4 50 C4 45 4 45 1 40 C0 35 0 30 -0 25 C-1 21 -2 19 -5 16 C-7 11 -6 7 -5 2 C-2 0 -2 0 0 0 Z " fill="#D9DBE2" transform="translate(475,179)"/>
<path d="M0 0 C11 2 11 2 16 6 C18 9 17 13 17 16 C17 18 17 19 18 20 C17 22 17 23 17 24 C15 25 14 25 12 26 C12 25 11 23 11 22 C10 21 10 21 9 17 C4 15 4 15 1 16 C-3 13 -6 9 -7 4 C-3 0 -3 0 0 0 Z " fill="#C2C5D0" transform="translate(295.0234375,299.90625)"/>
<path d="M0 0 C1 0 2 1 3 1 C3 5 4 8 4 12 C8 16 11 17 16 19 C17 19 18 20 19 20 C19 21 20 22 20 23 C16 24 16 24 11 22 C4 20 4 20 0 22 C-1 25 -1 25 -2 29 C-6 31 -6 31 -8 31 C-8 29 -9 27 -9 25 C-9 24 -10 22 -10 21 C-10 21 -10 21 -10 18 C-9 17 -8 16 -7 15 C-6 15 -6 15 -5 15 C-4 12 -4 12 -4 9 C-3 5 -2 3 0 0 Z " fill="#A55810" transform="translate(277,508)"/>
<path d="M0 0 C0 6 -3 10 -7 14 C-10 16 -10 16 -13 16 C-18 14 -19 11 -22 6 C-22 5 -22 5 -23 1 C-22 0 -22 -1 -21 -2 C-17 -3 -17 -3 -13 -3 C-12 -3 -12 -3 -8 -3 C-4 -3 -4 -3 0 0 Z " fill="#E79C26" transform="translate(356,231)"/>
<path d="M0 0 C-0 2 -1 5 -1 7 C-2 7 -3 6 -4 6 C-8 6 -8 6 -11 6 C-12 7 -12 9 -13 10 C-15 10 -16 11 -18 11 C-19 12 -19 14 -20 15 C-22 16 -23 16 -25 17 C-29 20 -31 23 -34 26 C-38 30 -41 33 -45 36 C-50 41 -50 41 -51 45 C-54 46 -54 46 -57 46 C-51 34 -42 24 -31 16 C-29 15 -28 14 -26 13 C-20 8 -12 5 -5 1 C-3 0 -3 0 0 0 Z " fill="#D8DAE1" transform="translate(298,47)"/>
<path d="M0 0 C1 0 1 0 2 0 C3 1 3 2 4 3 C10 7 16 6 23 6 C26 6 26 6 30 10 C29 11 29 13 28 14 C24 15 21 16 17 17 C15 18 14 18 12 19 C12 20 11 21 11 22 C6 17 2 11 -1 4 C-1 3 -0 1 0 0 Z " fill="#BDC0CC" transform="translate(204,234)"/>
<path d="M0 0 C1 0 1 0 2 0 C4 5 3 9 3 14 C3 15 3 15 3 20 C3 25 3 25 2 29 C1 29 1 29 0 29 C-1 32 -1 36 -2 39 C-6 35 -6 31 -7 25 C-8 24 -8 23 -9 22 C-10 18 -10 18 -9 14 C-8 13 -7 12 -6 10 C-6 9 -5 8 -4 6 C-3 4 -1 2 0 0 Z " fill="#BDC0CC" transform="translate(486,370)"/>
<path d="M0 0 C6 1 12 3 18 6 C18 6 18 7 18 8 C17 8 15 9 14 9 C11 12 11 12 9 17 C5 18 2 17 -2 17 C-6 14 -6 14 -7 12 C-7 6 -6 1 0 0 Z " fill="#9094A2" transform="translate(265.375,467.4375)"/>
<path d="M0 0 C4 4 4 10 6 15 C6 16 6 17 6 19 C9 28 11 37 11 46 C8 45 8 45 5 43 C5 42 5 41 5 40 C4 40 3 39 2 39 C2 36 2 36 2 32 C2 32 2 32 3 29 C3 28 3 27 3 26 C2 26 2 26 1 26 C0 24 0 24 0 19 C-0 14 -1 11 -5 7 C-5 4 -5 4 -4 1 C-3 1 -1 0 0 0 Z " fill="#D9DBE2" transform="translate(463,127)"/>
<path d="M0 0 C4 -0 8 -0 13 -0 C14 -0 15 -0 16 -0 C19 -0 22 -0 25 0 C26 4 26 4 26 8 C23 11 23 11 19 11 C14 11 9 10 4 9 C3 9 1 8 -0 8 C-2 8 -3 7 -4 7 C-3 6 -2 6 -1 5 C-1 3 -0 2 0 0 Z " fill="#1C1C1E" transform="translate(526,537)"/>
<path d="M0 0 C0 1 0 1 0 2 C1 2 2 2 3 2 C6 3 6 3 10 5 C10 6 11 7 11 8 C12 8 12 9 13 9 C13 10 13 10 13 11 C9 12 6 12 2 12 C-3 11 -7 11 -11 11 C-13 6 -13 6 -13 1 C-8 -1 -5 -1 0 0 Z " fill="#C8CAD5" transform="translate(179,548)"/>
<path d="M0 0 C16 6 31 19 41 34 C41 35 40 36 40 37 C39 36 38 36 37 35 C37 34 37 33 37 32 C36 32 35 32 34 32 C33 31 33 29 32 28 C30 26 28 25 25 23 C20 19 15 16 10 11 C9 10 7 9 6 8 C6 7 6 7 6 6 C4 6 3 5 1 5 C1 4 1 4 0 0 Z " fill="#D8DAE1" transform="translate(401,52)"/>
<path d="M0 0 C0 1 1 2 1 3 C2 3 3 4 4 4 C4 5 4 5 2 8 C-1 13 -1 13 -2 16 C-3 16 -3 16 -4 16 C-4 19 -4 21 -4 24 C-5 24 -5 24 -6 24 C-6 25 -6 25 -6 26 C-8 26 -9 26 -11 26 C-11 28 -11 30 -11 32 C-10 32 -10 32 -9 32 C-10 33 -10 35 -11 36 C-14 37 -14 37 -17 37 C-17 30 -14 25 -11 18 C-10 17 -10 16 -9 15 C-7 10 -4 5 0 0 Z " fill="#CFD1DA" transform="translate(240,93)"/>
<path d="M0 0 C2 0 3 1 5 1 C5 2 6 2 6 3 C8 4 11 4 13 5 C13 7 12 8 12 10 C11 10 11 10 10 10 C9 11 9 13 8 14 C4 14 4 14 0 14 C-1 13 -1 11 -2 10 C-3 10 -4 9 -5 9 C-4 4 -4 4 0 0 Z " fill="#747475" transform="translate(90,453)"/>
<path d="M0 0 C-0 2 -1 3 -1 5 C-6 5 -6 5 -10 5 C-10 3 -10 3 -8 1 C-5 -1 -5 -1 0 0 Z " fill="#EFEFF1" transform="translate(511,210)"/>
<path d="M0 0 C2 0 3 1 5 1 C5 3 4 4 4 6 C2 6 1 5 -1 5 C-1 3 -0 2 0 0 Z " fill="#EFEFF1" transform="translate(178,209)"/>
<path d="M0 0 C2 0 4 0 6 0 C6 1 6 1 6 2 C4 2 2 2 0 2 C0 1 0 1 0 0 Z " fill="#EFEFF1" transform="translate(165,405)"/>
<path d="M0 0 C2 0 4 0 6 0 C6 1 6 1 6 2 C4 2 2 2 0 2 C0 1 0 1 0 0 Z " fill="#EFEFF1" transform="translate(513,401)"/>
<path d="M0 0 C1 0 1 0 2 0 C2 1 2 1 2 2 C1 2 1 2 0 2 C0 1 0 1 0 0 Z " fill="#EFEFF1" transform="translate(541,501)"/>
<path d="M0 0 C1 0 1 0 2 0 C2 1 2 1 2 2 C1 2 1 2 0 2 C0 1 0 1 0 0 Z " fill="#EFEFF1" transform="translate(565,381)"/>
<path d="M0 0 C1 0 1 0 2 0 C2 1 2 1 2 2 C1 2 1 2 0 2 C0 1 0 1 0 0 Z " fill="#EFEFF1" transform="translate(121,381)"/>
</svg>
