<?xml version="1.0" encoding="UTF-8"?>
<!-- Generator: visioncortex VTracer 0.6.12 -->
<svg version="1.1" xmlns="http://www.w3.org/2000/svg" width="648" height="596">
<path d="M0 0 C3 -1 3 -1 6 -1 C8 -1 9 -1 11 -1 C11 -1 11 -1 15 -1 C16 -1 16 -1 20 -1 C23 -1 26 -1 29 -1 C34 -1 39 -1 44 -1 C47 -1 50 -1 53 -1 C54 -1 56 -1 57 -1 C59 -1 60 -1 62 -1 C63 -1 64 -1 65 -1 C66 -0 67 -0 68 0 C69 1 69 3 70 4 C73 4 73 4 77 4 C81 4 81 4 84 4 C85 5 85 7 86 8 C88 8 89 8 91 8 C93 8 94 8 96 8 C97 9 97 11 98 12 C100 12 101 12 103 12 C105 12 106 12 108 12 C109 13 109 15 110 16 C112 16 114 16 116 16 C117 17 117 19 118 20 C119 20 119 20 122 22 C122 23 122 23 122 24 C124 24 126 24 128 24 C129 25 129 27 130 28 C131 28 131 28 134 30 C134 31 134 31 134 32 C136 32 138 32 140 32 C141 33 141 35 142 36 C143 37 145 37 146 38 C146 39 146 39 146 40 C147 41 149 41 150 42 C150 43 150 43 150 44 C151 45 153 45 154 46 C154 47 154 47 154 48 C155 49 157 49 158 50 C158 51 158 51 158 52 C159 53 161 53 162 54 C162 55 162 55 162 56 C163 56 164 56 165 56 C165 57 165 58 165 59 C166 63 166 63 170 66 C170 67 170 67 170 68 C171 69 173 69 174 70 C174 71 174 71 174 72 C175 72 176 72 177 72 C177 73 177 74 177 75 C178 77 178 78 178 79 C179 79 180 80 181 80 C181 82 182 85 182 87 C183 87 184 88 185 88 C185 90 186 93 186 95 C187 95 188 96 189 96 C189 98 190 101 190 103 C191 103 192 104 193 104 C193 108 194 111 194 115 C195 115 196 116 197 116 C197 120 198 124 198 128 C198 129 198 130 198 131 C199 131 200 132 201 132 C201 137 201 142 201 147 C202 148 202 149 202 151 C203 152 205 153 206 154 C206 155 206 155 206 156 C207 157 209 157 210 158 C210 159 210 159 210 160 C211 161 213 161 214 162 C214 163 214 163 214 164 C216 164 218 164 220 164 C221 165 221 167 222 168 C223 169 225 169 226 170 C226 171 226 171 226 172 C227 173 229 173 230 174 C230 175 230 175 230 176 C231 176 232 176 233 176 C233 177 233 178 233 179 C234 183 234 183 238 186 C238 187 238 187 238 188 C239 188 240 188 241 188 C241 189 241 190 241 191 C242 195 242 195 246 198 C246 199 246 199 246 200 C247 200 248 200 249 200 C249 201 249 202 249 203 C250 205 250 206 250 207 C251 207 252 208 253 208 C253 210 254 213 254 215 C255 215 256 216 257 216 C257 218 258 221 258 223 C259 223 260 224 261 224 C261 226 262 229 262 231 C263 231 264 232 265 232 C265 236 266 239 266 243 C267 243 268 244 269 244 C269 245 269 245 269 250 C269 250 269 250 270 255 C274 256 274 256 278 256 C279 255 279 253 280 252 C283 251 283 251 286 251 C287 251 289 251 290 251 C291 251 291 251 294 252 C295 251 297 251 298 251 C299 251 299 251 302 251 C302 251 302 251 305 251 C306 252 307 252 308 252 C309 253 309 255 310 256 C312 256 314 256 316 256 C317 257 317 259 318 260 C319 260 320 260 321 260 C321 261 321 261 321 263 C322 265 322 266 322 267 C323 267 324 268 325 268 C325 273 325 273 325 278 C324 278 323 279 322 279 C321 281 321 284 320 286 C320 286 320 286 318 287 C318 288 318 290 318 291 C319 292 321 293 322 294 C322 295 322 295 322 296 C324 296 326 296 328 296 C329 297 329 299 330 300 C331 301 333 301 334 302 C334 303 334 303 334 304 C335 304 336 304 337 304 C337 305 337 305 337 307 C338 309 338 310 338 311 C339 311 340 312 341 312 C341 317 341 317 341 322 C340 322 339 323 338 323 C337 327 337 327 337 330 C336 330 335 330 334 330 C333 331 333 333 332 334 C331 334 331 334 330 334 C329 335 329 337 328 338 C326 338 324 338 322 338 C321 339 321 341 320 342 C319 342 318 342 317 342 C316 343 315 343 314 343 C313 346 313 346 313 351 C313 352 313 353 313 355 C313 355 313 355 313 358 C312 358 311 358 310 358 C309 359 309 361 308 362 C307 362 307 362 306 362 C305 363 305 365 304 366 C302 366 300 366 298 366 C297 367 297 369 296 370 C292 370 292 370 287 370 C285 370 283 370 281 370 C277 370 273 370 269 370 C267 370 265 370 263 370 C262 370 260 370 258 370 C257 370 255 370 254 370 C253 371 253 373 252 374 C251 374 251 375 250 375 C250 377 249 380 249 382 C248 382 247 382 246 382 C245 383 245 385 244 386 C243 386 243 386 242 386 C241 387 241 389 240 390 C239 390 239 390 238 390 C237 391 237 393 236 394 C235 394 235 395 234 395 C234 396 234 398 234 399 C235 399 237 399 238 399 C240 399 241 399 243 399 C245 399 246 399 248 399 C249 400 251 400 252 400 C253 401 253 403 254 404 C258 404 258 404 263 404 C268 404 268 404 272 404 C273 405 273 407 274 408 C276 408 277 408 279 408 C281 408 282 408 284 408 C285 409 285 411 286 412 C287 412 288 412 289 412 C289 415 289 419 289 422 C288 422 287 422 286 422 C284 422 283 422 282 422 C281 423 281 425 280 426 C277 426 273 426 270 426 C269 427 269 429 268 430 C264 430 261 430 257 430 C256 430 255 430 254 430 C253 431 253 433 252 434 C247 434 243 434 238 434 C235 434 233 434 230 434 C229 435 229 437 228 438 C225 438 225 438 220 438 C219 438 217 438 216 438 C213 438 209 438 206 438 C205 438 203 438 202 438 C200 438 199 438 197 438 C196 438 195 438 194 438 C193 439 193 441 192 442 C189 442 189 442 184 442 C183 442 181 442 180 442 C177 442 173 442 170 442 C169 442 167 442 166 442 C164 442 163 442 161 442 C160 442 159 442 158 442 C157 443 157 445 156 446 C153 447 153 447 148 447 C148 447 148 447 144 447 C143 447 143 447 138 447 C136 447 134 447 133 447 C127 447 122 447 117 447 C112 447 106 447 101 447 C92 447 83 447 74 447 C63 446 53 447 43 447 C34 447 25 447 16 447 C10 447 5 447 -0 447 C-6 447 -12 447 -18 447 C-20 447 -22 447 -24 447 C-25 447 -27 447 -28 447 C-30 447 -31 447 -33 447 C-34 446 -35 446 -36 446 C-37 445 -37 443 -38 442 C-42 442 -42 442 -48 442 C-49 442 -49 442 -51 442 C-55 442 -58 442 -61 442 C-65 442 -70 442 -74 442 C-76 442 -78 442 -80 442 C-81 442 -82 442 -84 442 C-85 441 -85 439 -86 438 C-89 438 -89 438 -94 438 C-94 438 -94 438 -98 438 C-99 438 -99 438 -103 438 C-106 438 -109 438 -112 438 C-114 438 -115 438 -117 438 C-118 438 -119 438 -120 438 C-121 437 -121 435 -122 434 C-126 434 -129 434 -133 434 C-137 434 -140 434 -144 434 C-144 433 -144 433 -146 430 C-150 430 -150 430 -155 430 C-160 430 -160 430 -164 430 C-164 429 -164 429 -166 426 C-168 426 -169 426 -171 426 C-173 426 -174 426 -176 426 C-177 425 -177 423 -178 422 C-180 422 -182 422 -184 422 C-187 420 -187 420 -189 418 C-189 417 -189 417 -189 416 C-185 412 -185 412 -182 412 C-182 411 -182 411 -180 408 C-177 407 -177 407 -174 407 C-174 406 -174 404 -174 403 C-175 403 -175 403 -178 400 C-178 399 -178 399 -178 398 C-179 397 -181 397 -182 396 C-182 395 -182 395 -182 394 C-183 393 -185 393 -186 392 C-186 391 -186 391 -186 390 C-187 390 -188 390 -189 390 C-189 389 -189 388 -189 387 C-190 385 -190 384 -190 383 C-191 383 -192 382 -193 382 C-193 380 -194 377 -194 375 C-195 375 -196 374 -197 374 C-197 370 -198 367 -198 363 C-199 363 -200 362 -201 362 C-201 358 -201 355 -201 351 C-201 350 -201 350 -201 348 C-201 345 -201 343 -201 340 C-200 340 -199 339 -198 339 C-198 337 -198 335 -198 334 C-197 332 -197 330 -197 328 C-196 328 -195 327 -194 327 C-194 326 -194 325 -194 324 C-193 322 -193 321 -193 320 C-192 320 -191 319 -190 319 C-189 315 -189 315 -189 312 C-188 312 -187 312 -186 312 C-186 311 -186 311 -184 308 C-183 308 -183 307 -182 307 C-182 303 -182 298 -182 294 C-182 291 -182 289 -182 286 C-182 282 -182 277 -182 273 C-182 269 -181 265 -181 261 C-181 260 -181 258 -181 257 C-181 254 -181 251 -181 248 C-180 248 -179 247 -178 247 C-178 244 -178 244 -178 240 C-177 235 -177 235 -177 232 C-176 232 -175 231 -174 231 C-174 229 -174 227 -174 226 C-173 224 -173 222 -173 220 C-172 220 -171 219 -170 219 C-169 215 -169 215 -169 212 C-168 212 -167 212 -166 212 C-165 211 -165 209 -164 208 C-163 208 -163 207 -162 207 C-162 205 -161 202 -161 200 C-160 200 -159 200 -158 200 C-157 199 -157 197 -156 196 C-155 196 -155 196 -154 196 C-153 195 -153 193 -152 192 C-151 192 -151 191 -150 191 C-150 189 -149 186 -149 184 C-148 184 -147 184 -146 184 C-145 183 -145 181 -144 180 C-143 180 -143 179 -142 179 C-142 177 -142 175 -142 174 C-141 173 -141 173 -141 168 C-140 168 -139 167 -138 167 C-138 164 -138 164 -138 160 C-138 159 -138 157 -138 156 C-138 154 -138 153 -138 152 C-137 149 -137 146 -137 143 C-137 142 -137 140 -137 139 C-137 138 -137 137 -137 136 C-136 136 -135 135 -134 135 C-134 132 -134 132 -134 128 C-133 123 -133 123 -133 120 C-132 120 -131 119 -130 119 C-130 117 -130 115 -130 114 C-129 112 -129 110 -129 108 C-128 108 -127 107 -126 107 C-126 106 -126 105 -126 104 C-125 102 -125 101 -125 100 C-124 100 -123 99 -122 99 C-122 98 -122 97 -122 96 C-121 94 -121 93 -121 92 C-120 92 -119 91 -118 91 C-118 90 -118 89 -118 88 C-117 86 -117 85 -117 84 C-116 84 -115 83 -114 83 C-113 79 -113 79 -113 76 C-112 76 -111 76 -110 76 C-110 75 -110 75 -108 72 C-107 72 -107 71 -106 71 C-106 69 -105 66 -105 64 C-104 64 -103 64 -102 64 C-101 63 -101 61 -100 60 C-99 60 -99 60 -98 60 C-97 59 -97 57 -96 56 C-95 56 -95 56 -94 56 C-93 55 -93 53 -92 52 C-91 52 -91 52 -90 52 C-89 51 -89 49 -88 48 C-87 48 -87 48 -86 48 C-85 47 -85 45 -84 44 C-83 44 -83 44 -82 44 C-81 43 -81 41 -80 40 C-79 40 -79 40 -78 40 C-77 39 -77 37 -76 36 C-75 36 -75 36 -74 36 C-73 35 -73 33 -72 32 C-71 32 -71 32 -70 32 C-69 31 -69 29 -68 28 C-66 28 -64 28 -62 28 C-61 27 -61 25 -60 24 C-59 24 -59 24 -58 24 C-57 23 -57 21 -56 20 C-54 20 -52 20 -50 20 C-49 19 -49 17 -48 16 C-46 16 -44 16 -42 16 C-41 15 -41 13 -40 12 C-37 12 -33 12 -30 12 C-29 11 -29 9 -28 8 C-25 8 -21 8 -18 8 C-17 7 -17 5 -16 4 C-12 4 -9 4 -5 4 C-4 4 -3 4 -2 4 C-1 3 -1 1 0 0 Z " fill="#C7CAD4" transform="translate(226,125)"/>
<path d="M0 0 C3 -1 3 -1 6 -1 C8 -1 9 -1 11 -1 C11 -1 11 -1 15 -1 C16 -1 16 -1 20 -1 C23 -1 26 -1 29 -1 C34 -1 39 -1 44 -1 C47 -1 50 -1 53 -1 C54 -1 56 -1 57 -1 C59 -1 60 -1 62 -1 C63 -1 64 -1 65 -1 C66 -0 67 -0 68 0 C69 1 69 3 70 4 C73 4 73 4 77 4 C81 4 81 4 84 4 C85 5 85 7 86 8 C88 8 89 8 91 8 C93 8 94 8 96 8 C97 9 97 11 98 12 C100 12 101 12 103 12 C105 12 106 12 108 12 C109 13 109 15 110 16 C112 16 114 16 116 16 C117 17 117 19 118 20 C119 20 119 20 122 22 C122 23 122 23 122 24 C124 24 126 24 128 24 C129 25 129 27 130 28 C131 28 131 28 134 30 C134 31 134 31 134 32 C136 32 138 32 140 32 C141 33 141 35 142 36 C143 37 145 37 146 38 C146 39 146 39 146 40 C147 41 149 41 150 42 C150 43 150 43 150 44 C151 45 153 45 154 46 C154 47 154 47 154 48 C155 49 157 49 158 50 C158 51 158 51 158 52 C159 53 161 53 162 54 C162 55 162 55 162 56 C163 56 164 56 165 56 C165 57 165 58 165 59 C166 63 166 63 170 66 C170 67 170 67 170 68 C171 69 173 69 174 70 C174 71 174 71 174 72 C175 72 176 72 177 72 C177 73 177 74 177 75 C178 77 178 78 178 79 C179 79 180 80 181 80 C181 82 182 85 182 87 C183 87 184 88 185 88 C185 90 186 93 186 95 C187 95 188 96 189 96 C189 98 190 101 190 103 C191 103 192 104 193 104 C193 108 194 111 194 115 C195 115 196 116 197 116 C197 120 198 124 198 128 C198 129 198 130 198 131 C199 131 200 132 201 132 C201 137 201 142 201 147 C202 148 202 149 202 151 C203 152 205 153 206 154 C206 155 206 155 206 156 C207 157 209 157 210 158 C210 159 210 159 210 160 C211 161 213 161 214 162 C214 163 214 163 214 164 C216 164 218 164 220 164 C221 165 221 167 222 168 C223 169 225 169 226 170 C226 171 226 171 226 172 C227 173 229 173 230 174 C230 175 230 175 230 176 C231 176 232 176 233 176 C233 177 233 178 233 179 C234 183 234 183 238 186 C238 187 238 187 238 188 C239 188 240 188 241 188 C241 189 241 190 241 191 C242 195 242 195 246 198 C246 199 246 199 246 200 C247 200 248 200 249 200 C249 201 249 202 249 203 C250 205 250 206 250 207 C251 207 252 208 253 208 C253 210 254 213 254 215 C255 215 256 216 257 216 C257 218 258 221 258 223 C259 223 260 224 261 224 C261 226 262 229 262 231 C263 231 264 232 265 232 C265 236 266 239 266 243 C267 243 268 244 269 244 C269 245 269 245 269 250 C269 250 269 250 270 255 C274 256 274 256 278 256 C279 255 279 253 280 252 C283 251 283 251 286 251 C287 251 289 251 290 251 C291 251 291 251 294 252 C295 251 297 251 298 251 C299 251 299 251 302 251 C302 251 302 251 305 251 C306 252 307 252 308 252 C309 253 309 255 310 256 C312 256 314 256 316 256 C317 257 317 259 318 260 C319 260 320 260 321 260 C321 261 321 261 321 263 C322 265 322 266 322 267 C323 267 324 268 325 268 C325 273 325 273 325 278 C324 278 323 279 322 279 C321 281 321 284 320 286 C320 286 320 286 318 287 C318 288 318 290 318 291 C319 292 321 293 322 294 C322 295 322 295 322 296 C324 296 326 296 328 296 C329 297 329 299 330 300 C331 301 333 301 334 302 C334 303 334 303 334 304 C335 304 336 304 337 304 C337 305 337 305 337 307 C338 309 338 310 338 311 C339 311 340 312 341 312 C341 317 341 317 341 322 C340 322 339 323 338 323 C337 327 337 327 337 330 C336 330 335 330 334 330 C333 331 333 333 332 334 C331 334 331 334 330 334 C329 335 329 337 328 338 C326 338 324 338 322 338 C321 339 321 341 320 342 C319 342 318 342 317 342 C316 343 315 343 314 343 C313 346 313 346 313 351 C313 352 313 353 313 355 C313 355 313 355 313 358 C312 358 311 358 310 358 C309 359 309 361 308 362 C307 362 307 362 306 362 C305 363 305 365 304 366 C302 366 300 366 298 366 C297 367 297 369 296 370 C292 370 292 370 287 370 C285 370 283 370 281 370 C277 370 273 370 269 370 C267 370 265 370 263 370 C262 370 260 370 258 370 C257 370 255 370 254 370 C253 371 253 373 252 374 C251 374 251 375 250 375 C250 377 249 380 249 382 C248 382 247 382 246 382 C245 383 245 385 244 386 C243 386 243 386 242 386 C241 387 241 389 240 390 C239 390 239 390 238 390 C237 391 237 393 236 394 C235 394 235 395 234 395 C234 396 234 398 234 399 C235 399 237 399 238 399 C240 399 241 399 243 399 C245 399 246 399 248 399 C249 400 251 400 252 400 C253 401 253 403 254 404 C258 404 258 404 263 404 C268 404 268 404 272 404 C273 405 273 407 274 408 C276 408 277 408 279 408 C281 408 282 408 284 408 C285 409 285 411 286 412 C287 412 288 412 289 412 C289 415 289 419 289 422 C288 422 287 422 286 422 C284 422 283 422 282 422 C281 423 281 425 280 426 C277 426 273 426 270 426 C269 427 269 429 268 430 C264 430 261 430 257 430 C256 430 255 430 254 430 C253 431 253 433 252 434 C247 434 243 434 238 434 C235 434 233 434 230 434 C229 435 229 437 228 438 C225 438 225 438 220 438 C219 438 217 438 216 438 C213 438 209 438 206 438 C205 438 203 438 202 438 C200 438 199 438 197 438 C196 438 195 438 194 438 C193 439 193 441 192 442 C189 442 189 442 184 442 C183 442 181 442 180 442 C177 442 173 442 170 442 C169 442 167 442 166 442 C164 442 163 442 161 442 C160 442 159 442 158 442 C157 443 157 445 156 446 C153 447 153 447 148 447 C148 447 148 447 144 447 C143 447 143 447 138 447 C136 447 134 447 133 447 C127 447 122 447 117 447 C112 447 106 447 101 447 C92 447 83 447 74 447 C63 446 53 447 43 447 C34 447 25 447 16 447 C10 447 5 447 -0 447 C-6 447 -12 447 -18 447 C-20 447 -22 447 -24 447 C-25 447 -27 447 -28 447 C-30 447 -31 447 -33 447 C-34 446 -35 446 -36 446 C-37 445 -37 443 -38 442 C-42 442 -42 442 -48 442 C-49 442 -49 442 -51 442 C-55 442 -58 442 -61 442 C-65 442 -70 442 -74 442 C-76 442 -78 442 -80 442 C-81 442 -82 442 -84 442 C-85 441 -85 439 -86 438 C-89 438 -89 438 -94 438 C-94 438 -94 438 -98 438 C-99 438 -99 438 -103 438 C-106 438 -109 438 -112 438 C-114 438 -115 438 -117 438 C-118 438 -119 438 -120 438 C-121 437 -121 435 -122 434 C-126 434 -129 434 -133 434 C-137 434 -140 434 -144 434 C-144 433 -144 433 -146 430 C-150 430 -150 430 -155 430 C-160 430 -160 430 -164 430 C-164 429 -164 429 -166 426 C-168 426 -169 426 -171 426 C-173 426 -174 426 -176 426 C-177 425 -177 423 -178 422 C-180 422 -182 422 -184 422 C-187 420 -187 420 -189 418 C-189 417 -189 417 -189 416 C-185 412 -185 412 -182 412 C-182 411 -182 411 -180 408 C-177 407 -177 407 -174 407 C-174 406 -174 404 -174 403 C-175 403 -175 403 -178 400 C-178 399 -178 399 -178 398 C-179 397 -181 397 -182 396 C-182 395 -182 395 -182 394 C-183 393 -185 393 -186 392 C-186 391 -186 391 -186 390 C-187 390 -188 390 -189 390 C-189 389 -189 388 -189 387 C-190 385 -190 384 -190 383 C-191 383 -192 382 -193 382 C-193 380 -194 377 -194 375 C-195 375 -196 374 -197 374 C-197 370 -198 367 -198 363 C-199 363 -200 362 -201 362 C-201 358 -201 355 -201 351 C-201 350 -201 350 -201 348 C-201 345 -201 343 -201 340 C-200 340 -199 339 -198 339 C-198 337 -198 335 -198 334 C-197 332 -197 330 -197 328 C-196 328 -195 327 -194 327 C-194 326 -194 325 -194 324 C-193 322 -193 321 -193 320 C-192 320 -191 319 -190 319 C-189 315 -189 315 -189 312 C-188 312 -187 312 -186 312 C-186 311 -186 311 -184 308 C-183 308 -183 307 -182 307 C-182 303 -182 298 -182 294 C-182 291 -182 289 -182 286 C-182 282 -182 277 -182 273 C-182 269 -181 265 -181 261 C-181 260 -181 258 -181 257 C-181 254 -181 251 -181 248 C-180 248 -179 247 -178 247 C-178 244 -178 244 -178 240 C-177 235 -177 235 -177 232 C-176 232 -175 231 -174 231 C-174 229 -174 227 -174 226 C-173 224 -173 222 -173 220 C-172 220 -171 219 -170 219 C-169 215 -169 215 -169 212 C-168 212 -167 212 -166 212 C-165 211 -165 209 -164 208 C-163 208 -163 207 -162 207 C-162 205 -161 202 -161 200 C-160 200 -159 200 -158 200 C-157 199 -157 197 -156 196 C-155 196 -155 196 -154 196 C-153 195 -153 193 -152 192 C-151 192 -151 191 -150 191 C-150 189 -149 186 -149 184 C-148 184 -147 184 -146 184 C-145 183 -145 181 -144 180 C-143 180 -143 179 -142 179 C-142 177 -142 175 -142 174 C-141 173 -141 173 -141 168 C-140 168 -139 167 -138 167 C-138 164 -138 164 -138 160 C-138 159 -138 157 -138 156 C-138 154 -138 153 -138 152 C-137 149 -137 146 -137 143 C-137 142 -137 140 -137 139 C-137 138 -137 137 -137 136 C-136 136 -135 135 -134 135 C-134 132 -134 132 -134 128 C-133 123 -133 123 -133 120 C-132 120 -131 119 -130 119 C-130 117 -130 115 -130 114 C-129 112 -129 110 -129 108 C-128 108 -127 107 -126 107 C-126 106 -126 105 -126 104 C-125 102 -125 101 -125 100 C-124 100 -123 99 -122 99 C-122 98 -122 97 -122 96 C-121 94 -121 93 -121 92 C-120 92 -119 91 -118 91 C-118 90 -118 89 -118 88 C-117 86 -117 85 -117 84 C-116 84 -115 83 -114 83 C-113 79 -113 79 -113 76 C-112 76 -111 76 -110 76 C-110 75 -110 75 -108 72 C-107 72 -107 71 -106 71 C-106 69 -105 66 -105 64 C-104 64 -103 64 -102 64 C-101 63 -101 61 -100 60 C-99 60 -99 60 -98 60 C-97 59 -97 57 -96 56 C-95 56 -95 56 -94 56 C-93 55 -93 53 -92 52 C-91 52 -91 52 -90 52 C-89 51 -89 49 -88 48 C-87 48 -87 48 -86 48 C-85 47 -85 45 -84 44 C-83 44 -83 44 -82 44 C-81 43 -81 41 -80 40 C-79 40 -79 40 -78 40 C-77 39 -77 37 -76 36 C-75 36 -75 36 -74 36 C-73 35 -73 33 -72 32 C-71 32 -71 32 -70 32 C-69 31 -69 29 -68 28 C-66 28 -64 28 -62 28 C-61 27 -61 25 -60 24 C-59 24 -59 24 -58 24 C-57 23 -57 21 -56 20 C-54 20 -52 20 -50 20 C-49 19 -49 17 -48 16 C-46 16 -44 16 -42 16 C-41 15 -41 13 -40 12 C-37 12 -33 12 -30 12 C-29 11 -29 9 -28 8 C-25 8 -21 8 -18 8 C-17 7 -17 5 -16 4 C-12 4 -9 4 -5 4 C-4 4 -3 4 -2 4 C-1 3 -1 1 0 0 Z M-12 18 C-15 19 -18 20 -21 21 C-24 22 -26 23 -29 24 C-31 25 -32 25 -34 26 C-61 36 -84 59 -100 83 C-101 84 -101 85 -102 86 C-108 95 -112 105 -115 115 C-116 117 -116 118 -117 120 C-118 124 -118 127 -119 131 C-120 132 -120 133 -121 134 C-121 137 -122 140 -122 143 C-123 148 -123 154 -125 159 C-126 165 -126 170 -126 176 C-126 177 -126 179 -126 180 C-126 183 -126 186 -126 189 C-126 189 -126 189 -126 193 C-126 194 -126 195 -126 197 C-127 200 -127 200 -129 202 C-132 204 -132 204 -134 204 C-134 203 -134 203 -136 200 C-139 199 -139 199 -142 199 C-145 202 -147 205 -149 208 C-150 209 -151 210 -151 212 C-160 225 -166 239 -167 255 C-168 256 -168 257 -169 258 C-171 263 -170 267 -170 272 C-170 274 -170 276 -170 278 C-169 283 -169 283 -167 288 C-167 289 -167 291 -167 292 C-167 300 -165 308 -160 314 C-157 316 -157 316 -154 316 C-150 313 -145 311 -141 308 C-140 307 -138 307 -137 306 C-132 303 -130 298 -128 292 C-127 293 -127 293 -124 295 C-119 298 -119 298 -116 298 C-114 298 -113 297 -112 297 C-110 297 -109 296 -107 296 C-102 294 -102 294 -99 292 C-86 287 -72 285 -59 289 C-53 293 -48 297 -46 304 C-46 311 -46 318 -48 325 C-49 330 -49 330 -46 335 C-45 336 -44 338 -42 339 C-37 346 -36 351 -37 359 C-39 364 -40 367 -44 371 C-48 378 -47 383 -47 391 C-47 395 -47 395 -48 398 C-48 399 -48 399 -49 401 C-46 406 -46 406 -41 408 C-39 408 -37 409 -35 409 C-33 409 -32 410 -30 410 C-25 411 -20 411 -15 411 C-11 411 -9 412 -5 412 C5 415 14 414 24 414 C28 414 31 414 34 414 C50 414 50 414 56 412 C58 412 59 412 61 411 C67 410 68 409 71 404 C72 403 72 402 73 401 C74 400 74 399 75 398 C78 393 80 391 85 388 C86 387 88 386 89 385 C89 384 89 384 89 383 C90 383 90 383 91 383 C94 379 96 375 97 371 C101 355 113 348 126 340 C128 339 129 338 131 337 C132 337 133 336 135 336 C136 336 137 335 138 335 C140 330 140 330 140 326 C141 319 143 315 148 310 C150 308 151 306 153 304 C154 303 155 302 156 300 C158 297 160 294 162 290 C160 290 159 290 157 290 C152 289 149 287 145 283 C140 279 136 278 129 278 C128 277 127 276 126 275 C125 275 123 275 122 275 C121 275 119 274 118 274 C117 271 116 269 115 266 C112 263 108 261 105 259 C101 256 99 253 96 250 C92 246 90 244 85 243 C83 243 82 243 80 243 C79 243 77 243 76 243 C76 241 75 240 75 238 C73 233 73 233 68 230 C67 230 65 229 64 229 C65 231 65 232 66 234 C68 239 69 241 67 246 C64 252 61 253 55 256 C51 259 49 261 47 266 C43 273 39 280 32 285 C26 287 23 287 17 284 C11 280 7 275 4 268 C-0 261 -5 255 -13 251 C-17 247 -17 245 -18 240 C-17 236 -15 233 -12 230 C-9 226 -6 222 -4 218 C1 212 5 208 12 204 C13 204 13 204 16 202 C23 199 28 199 35 202 C40 204 43 206 47 210 C48 210 48 210 49 210 C49 211 49 211 51 215 C57 224 57 224 62 226 C61 223 61 221 60 218 C61 218 62 218 63 218 C66 217 66 217 69 215 C70 214 71 214 72 213 C76 215 76 215 79 218 C87 225 98 231 108 232 C114 232 116 230 120 227 C122 227 123 227 125 227 C126 226 126 224 127 223 C130 222 130 222 134 222 C136 221 137 221 139 220 C140 222 140 223 141 225 C147 229 151 229 158 229 C160 228 161 228 163 228 C169 226 173 223 178 218 C178 217 178 217 178 216 C186 212 186 212 191 212 C196 211 196 211 201 208 C201 203 200 200 198 195 C191 195 185 199 179 202 C174 202 170 202 166 201 C161 200 161 200 156 200 C154 200 153 200 151 200 C151 199 150 198 150 197 C148 197 147 197 145 197 C143 199 143 199 142 203 C140 207 138 211 134 214 C133 215 131 216 130 218 C121 224 112 225 101 224 C91 222 84 217 78 209 C75 205 75 201 75 196 C77 194 77 194 80 194 C85 196 87 199 91 203 C99 209 106 209 115 208 C123 205 128 201 133 195 C133 194 132 193 132 192 C130 192 129 192 127 192 C124 188 123 184 123 179 C124 175 125 174 129 172 C130 171 131 170 133 170 C143 166 154 170 164 173 C165 174 166 174 167 175 C171 177 175 176 180 176 C182 176 183 176 185 176 C190 176 193 175 197 172 C197 171 197 171 197 170 C199 170 200 169 202 169 C200 166 198 164 195 162 C188 155 187 138 185 128 C184 125 183 122 182 119 C182 118 182 118 181 116 C178 106 174 97 169 88 C168 87 168 86 167 85 C165 80 162 76 159 72 C158 71 157 69 156 68 C146 56 136 47 124 39 C123 38 122 37 121 37 C107 27 92 21 76 17 C75 17 74 16 73 16 C49 8 11 9 -12 18 Z " fill="#0E0E11" transform="translate(226,125)"/>
<path d="M0 0 C1 1 2 1 3 2 C7 4 11 3 16 3 C18 3 19 3 21 3 C28 3 31 1 35 -3 C41 -2 43 1 48 5 C49 6 51 8 52 9 C56 13 60 18 63 23 C64 24 64 24 67 27 C73 37 79 47 83 57 C83 58 83 58 85 61 C86 64 87 67 88 70 C88 70 88 70 89 73 C90 76 91 80 91 83 C91 84 92 85 92 86 C92 89 93 91 93 93 C94 96 94 99 95 102 C96 102 97 103 98 103 C98 102 98 102 98 101 C110 95 123 90 137 91 C144 95 144 95 147 99 C147 103 146 105 144 109 C143 109 143 109 142 109 C141 110 141 112 140 113 C136 115 132 117 127 118 C127 118 126 119 125 119 C125 123 125 123 126 127 C127 127 128 127 130 127 C141 127 154 131 163 139 C165 142 165 142 165 145 C163 152 158 155 152 158 C147 160 141 160 136 160 C123 161 123 161 120 163 C123 169 125 170 131 173 C134 176 134 176 134 179 C132 184 130 185 125 187 C121 187 117 188 113 188 C112 188 111 188 109 188 C102 188 102 188 98 185 C97 181 97 179 97 175 C97 174 98 172 99 171 C100 166 100 161 100 156 C100 154 100 152 100 151 C100 146 99 142 96 138 C95 139 95 140 94 141 C93 141 91 141 90 141 C90 142 90 143 90 144 C90 151 90 157 87 164 C87 166 86 169 86 171 C85 171 85 171 84 171 C84 172 84 173 84 174 C82 183 79 190 74 198 C74 199 74 199 72 202 C69 206 66 210 62 213 C61 215 59 217 57 219 C50 227 40 235 30 238 C26 237 26 237 21 235 C15 236 14 238 10 243 C4 249 -1 250 -9 251 C-20 251 -20 251 -24 249 C-24 243 -24 243 -21 240 C-21 239 -20 238 -19 237 C-20 234 -20 234 -21 231 C-26 232 -29 233 -33 236 C-39 240 -46 243 -53 245 C-54 245 -54 246 -55 246 C-59 246 -62 246 -66 246 C-68 246 -70 246 -72 247 C-77 246 -77 246 -80 244 C-82 241 -82 241 -82 238 C-79 228 -67 223 -58 218 C-56 217 -55 217 -53 216 C-55 211 -55 211 -58 207 C-58 201 -57 197 -53 192 C-50 189 -46 186 -42 184 C-38 181 -34 178 -30 175 C-29 175 -29 175 -28 175 C-28 173 -28 172 -28 170 C-28 164 -28 163 -25 158 C-25 157 -25 155 -25 154 C-24 149 -23 145 -20 141 C-19 141 -18 140 -17 140 C-16 138 -16 137 -15 135 C-13 133 -11 130 -9 128 C-4 121 -4 121 -3 119 C-4 119 -6 119 -7 119 C-13 117 -15 116 -19 112 C-24 108 -28 107 -35 107 C-36 106 -37 105 -38 104 C-41 104 -43 103 -46 103 C-48 101 -48 101 -48 98 C-51 93 -53 92 -58 89 C-62 86 -65 83 -68 79 C-72 74 -76 73 -82 72 C-84 72 -86 71 -88 71 C-90 67 -91 65 -91 61 C-92 61 -92 61 -95 60 C-96 59 -98 59 -99 58 C-98 59 -98 61 -97 62 C-95 67 -95 69 -96 74 C-99 79 -100 80 -104 83 C-105 83 -106 84 -107 84 C-108 85 -109 85 -110 86 C-113 88 -114 90 -116 94 C-120 102 -125 110 -133 114 C-138 116 -142 115 -147 114 C-155 109 -158 101 -163 94 C-166 87 -170 83 -177 80 C-181 76 -182 74 -182 68 C-182 64 -180 61 -177 58 C-173 53 -169 47 -165 42 C-159 34 -150 28 -139 26 C-129 28 -122 31 -115 38 C-113 41 -111 44 -109 47 C-107 50 -105 52 -102 54 C-103 53 -103 52 -104 51 C-104 49 -105 48 -105 47 C-103 45 -103 45 -100 44 C-96 43 -96 43 -92 40 C-88 42 -88 42 -85 45 C-77 52 -66 58 -56 59 C-50 59 -48 57 -44 54 C-42 54 -41 54 -39 54 C-38 53 -38 52 -37 51 C-33 50 -29 49 -25 48 C-24 50 -23 51 -22 53 C-16 56 -12 56 -5 55 C-4 55 -3 55 -1 55 C5 54 8 51 11 47 C16 42 20 39 27 38 C29 38 30 38 32 38 C34 37 35 37 37 36 C36 32 35 28 34 24 C27 25 21 28 15 31 C9 31 3 30 -3 29 C-5 29 -7 29 -8 28 C-10 28 -11 28 -13 28 C-13 27 -14 27 -14 26 C-16 26 -17 25 -19 25 C-19 27 -20 28 -20 30 C-26 40 -33 48 -44 52 C-54 54 -64 54 -73 50 C-80 45 -87 39 -90 31 C-90 27 -90 27 -90 24 C-87 21 -87 21 -84 21 C-79 23 -77 26 -73 30 C-65 36 -58 36 -49 35 C-42 32 -37 29 -32 23 C-32 22 -32 22 -32 21 C-34 21 -35 21 -37 21 C-42 13 -42 13 -42 8 C-40 2 -36 -0 -31 -3 C-21 -7 -10 -3 0 0 Z " fill="#888EA0" transform="translate(390,297)"/>
<path d="M0 0 C1 1 2 1 3 2 C7 4 11 3 16 3 C18 3 19 3 21 3 C28 3 31 1 35 -3 C41 -2 43 1 48 5 C49 6 51 8 52 9 C56 13 60 18 63 23 C64 24 64 24 67 27 C73 37 79 47 83 57 C83 58 83 58 85 61 C86 64 87 67 88 70 C88 70 88 70 89 73 C91 80 92 86 93 93 C94 98 95 102 98 107 C98 111 98 115 98 119 C98 120 98 122 98 123 C98 125 98 128 98 131 C93 129 93 129 91 126 C90 122 89 118 88 114 C86 106 83 101 77 95 C77 94 77 94 77 93 C75 92 74 92 72 91 C70 90 69 89 67 88 C61 84 56 84 48 83 C45 83 45 83 43 82 C39 82 39 82 34 82 C32 84 32 84 30 87 C29 88 29 89 28 90 C27 91 26 92 26 93 C13 112 13 112 6 114 C2 116 -0 118 -3 121 C-3 120 -3 120 -3 119 C-4 119 -4 119 -7 118 C-13 117 -15 116 -19 112 C-24 108 -28 107 -35 107 C-36 106 -37 105 -38 104 C-41 104 -43 103 -46 103 C-48 101 -48 101 -48 98 C-51 93 -53 92 -58 89 C-62 86 -65 83 -68 79 C-72 74 -76 73 -82 72 C-84 72 -86 71 -88 71 C-90 67 -91 65 -91 61 C-92 61 -92 61 -95 60 C-96 59 -98 59 -99 58 C-98 59 -98 61 -97 62 C-95 67 -95 69 -96 74 C-99 79 -100 80 -104 83 C-105 83 -106 84 -107 84 C-108 85 -109 85 -110 86 C-113 88 -114 90 -116 94 C-120 102 -125 110 -133 114 C-138 116 -142 115 -147 114 C-155 109 -158 101 -163 94 C-166 87 -170 83 -177 80 C-181 76 -182 74 -182 68 C-182 64 -180 61 -177 58 C-173 53 -169 47 -165 42 C-159 34 -150 28 -139 26 C-129 28 -122 31 -115 38 C-113 41 -111 44 -109 47 C-107 50 -105 52 -102 54 C-103 53 -103 52 -104 51 C-104 49 -105 48 -105 47 C-103 45 -103 45 -100 44 C-96 43 -96 43 -92 40 C-88 42 -88 42 -85 45 C-77 52 -66 58 -56 59 C-50 59 -48 57 -44 54 C-42 54 -41 54 -39 54 C-38 53 -38 52 -37 51 C-33 50 -29 49 -25 48 C-24 50 -23 51 -22 53 C-16 56 -12 56 -5 55 C-4 55 -3 55 -1 55 C5 54 8 51 11 47 C16 42 20 39 27 38 C29 38 30 38 32 38 C34 37 35 37 37 36 C36 32 35 28 34 24 C27 25 21 28 15 31 C9 31 3 30 -3 29 C-5 29 -7 29 -8 28 C-10 28 -11 28 -13 28 C-13 27 -14 27 -14 26 C-16 26 -17 25 -19 25 C-19 27 -20 28 -20 30 C-26 40 -33 48 -44 52 C-54 54 -64 54 -73 50 C-80 45 -87 39 -90 31 C-90 27 -90 27 -90 24 C-87 21 -87 21 -84 21 C-79 23 -77 26 -73 30 C-65 36 -58 36 -49 35 C-42 32 -37 29 -32 23 C-32 22 -32 22 -32 21 C-34 21 -35 21 -37 21 C-42 13 -42 13 -42 8 C-40 2 -36 -0 -31 -3 C-21 -7 -10 -3 0 0 Z " fill="#C1C4CF" transform="translate(390,297)"/>
<path d="M0 0 C4 -0 9 0 13 1 C14 1 15 1 16 1 C21 2 23 4 25 7 C27 12 28 13 26 17 C21 26 17 32 7 35 C6 36 6 38 5 39 C4 40 4 42 3 43 C4 43 6 43 7 43 C7 44 7 46 7 47 C8 46 10 46 11 45 C15 45 15 45 20 45 C22 45 23 44 25 44 C30 45 31 46 34 50 C34 50 35 51 35 51 C36 58 34 62 30 67 C17 79 17 79 11 79 C11 81 11 82 11 84 C13 86 13 86 17 86 C17 87 17 87 20 87 C20 88 21 89 21 90 C21 90 21 90 24 91 C20 98 17 102 10 106 C6 107 3 108 -1 109 C-2 110 -3 110 -4 111 C-6 111 -8 111 -10 111 C-10 111 -11 112 -11 112 C-13 112 -15 112 -17 112 C-17 111 -17 111 -17 110 C-17 110 -17 110 -20 110 C-20 111 -20 111 -23 111 C-24 111 -25 111 -26 112 C-48 114 -70 103 -87 91 C-95 83 -98 78 -101 67 C-101 67 -102 66 -102 66 C-103 60 -103 55 -103 50 C-103 48 -103 47 -102 45 C-102 41 -102 41 -100 39 C-100 38 -100 36 -99 35 C-98 29 -96 25 -92 20 C-90 20 -89 20 -87 20 C-85 24 -85 24 -83 28 C-82 29 -81 31 -80 32 C-74 31 -72 29 -67 25 C-56 18 -45 14 -33 10 C-32 10 -32 9 -31 9 C-30 9 -29 9 -28 9 C-23 9 -20 7 -15 5 C-12 4 -8 4 -5 3 C-4 3 -2 2 -1 2 C-1 1 -0 1 0 0 Z " fill="#7C8296" transform="translate(143,424)"/>
<path d="M0 0 C3 1 3 1 5 5 C6 5 7 5 9 5 C8 11 8 16 8 21 C9 21 10 20 12 19 C16 19 16 19 20 19 C22 21 22 21 25 24 C31 29 36 32 43 34 C52 37 61 42 69 47 C69 48 69 49 69 49 C69 49 69 49 72 50 C73 54 73 57 73 61 C72 63 71 65 70 67 C70 72 70 72 72 75 C76 77 76 77 81 76 C81 76 81 76 85 73 C94 71 104 70 114 73 C117 76 116 78 116 82 C117 91 118 98 125 104 C126 105 127 106 129 107 C130 110 132 113 134 115 C136 117 138 119 141 121 C145 126 145 130 145 136 C145 138 145 139 145 141 C145 142 145 143 145 144 C138 144 138 144 135 140 C134 139 133 138 133 137 C130 133 130 133 125 133 C124 132 124 132 120 132 C115 132 110 131 105 130 C102 131 99 132 97 133 C96 133 96 133 96 132 C96 126 96 126 98 121 C98 113 97 104 94 96 C90 93 90 93 87 90 C87 90 87 89 87 88 C78 84 78 84 72 85 C71 86 71 87 71 87 C68 88 65 88 61 89 C51 90 41 92 32 97 C27 99 23 100 18 98 C14 96 14 96 11 93 C10 95 9 97 9 99 C4 107 -3 110 -11 114 C-13 115 -15 116 -16 117 C-21 115 -21 115 -24 112 C-27 105 -29 98 -28 89 C-29 88 -30 86 -30 84 C-31 81 -31 77 -31 73 C-31 71 -31 70 -31 68 C-31 63 -31 61 -28 56 C-28 55 -28 53 -28 51 C-27 36 -19 22 -10 9 C-10 8 -9 7 -8 6 C-4 0 -4 0 0 0 Z " fill="#C1C4CF" transform="translate(87.3125,323.6875)"/>
<path d="M0 0 C1 1 1 1 2 2 C7 2 11 2 16 2 C17 3 17 3 20 3 C21 4 21 6 22 7 C26 7 26 7 31 7 C36 7 36 7 40 7 C41 8 41 10 42 11 C44 11 45 11 47 11 C49 11 50 11 52 11 C53 12 53 14 54 15 C55 15 56 15 57 15 C57 18 57 22 57 25 C56 25 55 25 54 25 C52 25 51 25 50 25 C49 26 49 28 48 29 C45 29 41 29 38 29 C37 30 37 32 36 33 C32 33 29 33 25 33 C24 33 23 33 22 33 C21 34 21 36 20 37 C15 37 11 37 6 37 C3 37 1 37 -2 37 C-3 38 -3 40 -4 41 C-7 41 -7 41 -12 41 C-13 41 -15 41 -16 41 C-19 41 -23 41 -26 41 C-27 41 -29 41 -30 41 C-32 41 -33 41 -35 41 C-36 41 -37 41 -38 41 C-39 42 -39 44 -40 45 C-43 45 -43 45 -48 45 C-49 45 -51 45 -52 45 C-55 45 -59 45 -62 45 C-63 45 -65 45 -66 45 C-68 45 -69 45 -71 45 C-72 45 -73 45 -74 45 C-75 46 -75 48 -76 49 C-79 50 -79 50 -84 50 C-84 50 -84 50 -88 50 C-90 50 -92 50 -94 50 C-96 50 -98 50 -99 50 C-105 50 -110 50 -115 50 C-120 50 -126 50 -131 50 C-140 50 -149 50 -158 50 C-169 49 -179 50 -189 50 C-198 50 -207 50 -216 50 C-222 50 -227 50 -232 50 C-238 50 -244 50 -250 50 C-252 50 -254 50 -256 50 C-257 50 -259 50 -260 50 C-262 50 -263 50 -265 50 C-265 49 -265 49 -268 49 C-268 48 -268 48 -270 45 C-274 45 -274 45 -280 45 C-281 45 -282 45 -283 45 C-287 45 -290 45 -293 45 C-297 45 -302 45 -306 45 C-308 45 -310 45 -312 45 C-313 45 -314 45 -316 45 C-316 44 -316 44 -318 41 C-321 41 -321 41 -326 41 C-327 41 -329 41 -330 41 C-332 41 -333 41 -335 41 C-338 41 -341 41 -344 41 C-346 41 -347 41 -349 41 C-350 41 -351 41 -352 41 C-352 40 -352 40 -354 37 C-358 37 -361 37 -365 37 C-369 37 -372 37 -376 37 C-377 36 -377 34 -378 33 C-382 33 -382 33 -387 33 C-392 33 -392 33 -396 33 C-397 32 -397 30 -398 29 C-400 29 -401 29 -403 29 C-405 29 -406 29 -408 29 C-409 28 -409 26 -410 25 C-412 25 -414 25 -416 25 C-419 23 -419 23 -421 21 C-421 20 -421 20 -421 19 C-417 15 -417 15 -414 15 C-413 14 -413 12 -412 11 C-409 10 -409 10 -406 10 C-406 8 -406 7 -406 5 C-402 7 -402 7 -398 10 C-392 14 -386 17 -380 19 C-379 20 -377 20 -376 21 C-371 22 -367 23 -362 24 C-361 24 -360 25 -359 25 C-339 27 -317 27 -299 18 C-292 18 -286 19 -280 20 C-278 21 -276 21 -275 22 C-272 22 -269 23 -267 24 C-261 26 -255 26 -249 27 C-246 27 -244 27 -241 27 C-240 27 -239 28 -238 28 C-235 28 -235 28 -233 29 C-229 29 -226 29 -222 30 C-221 30 -220 30 -219 30 C-215 30 -211 30 -208 30 C-205 30 -203 30 -201 30 C-195 31 -189 31 -183 31 C-183 30 -183 30 -183 29 C-182 29 -180 29 -179 29 C-174 29 -174 29 -172 28 C-163 27 -159 28 -152 33 C-139 37 -126 35 -114 30 C-108 30 -104 33 -98 36 C-88 42 -78 39 -67 36 C-62 34 -57 32 -52 29 C-49 28 -45 27 -42 26 C-26 21 -12 11 0 0 Z " fill="#D8DAE4" transform="translate(458,522)"/>
<path d="M0 0 C0 0 0 0 3 2 C7 4 11 3 16 3 C18 3 19 3 21 3 C28 3 31 1 35 -3 C41 -2 43 1 48 5 C49 6 51 8 52 9 C56 13 60 18 63 23 C64 24 64 24 67 27 C73 37 79 47 83 57 C83 58 83 58 85 61 C86 64 87 67 88 70 C88 71 89 72 89 73 C91 80 92 86 93 93 C94 98 95 102 98 107 C98 111 98 115 98 119 C98 120 98 122 98 123 C98 125 98 128 98 131 C93 129 93 129 91 126 C90 122 89 118 88 114 C86 106 83 101 77 95 C77 94 77 94 77 93 C75 92 74 92 72 91 C70 90 69 89 67 88 C61 84 56 84 48 83 C45 83 45 83 42 81 C42 80 42 80 42 79 C41 78 39 78 38 77 C34 71 34 67 36 59 C36 54 36 48 36 42 C36 41 36 40 36 39 C36 34 36 29 34 24 C27 25 21 28 15 31 C9 31 3 30 -3 29 C-5 29 -7 29 -8 28 C-10 28 -11 28 -13 28 C-13 27 -14 27 -14 26 C-16 26 -17 25 -19 25 C-19 27 -20 28 -20 30 C-26 40 -33 48 -44 52 C-54 54 -64 54 -73 50 C-80 45 -87 39 -90 31 C-90 27 -90 27 -90 24 C-87 21 -87 21 -84 21 C-79 23 -77 26 -73 30 C-65 36 -58 36 -49 35 C-42 32 -37 29 -32 23 C-32 22 -32 22 -32 21 C-34 21 -35 21 -37 21 C-42 13 -42 13 -42 8 C-40 2 -36 -0 -31 -3 C-21 -7 -10 -3 0 0 Z " fill="#BBBECB" transform="translate(390,297)"/>
<path d="M0 0 C9 5 15 10 20 19 C22 22 26 25 29 27 C33 34 35 38 33 45 C30 50 29 51 24 54 C24 54 24 54 22 56 C21 56 20 57 19 57 C15 60 15 61 13 65 C9 73 4 81 -4 85 C-9 87 -13 87 -18 85 C-26 80 -29 73 -34 65 C-37 58 -42 55 -48 51 C-52 47 -53 46 -54 40 C-53 35 -52 33 -48 29 C-44 24 -40 19 -36 13 C-27 2 -15 -5 0 0 Z " fill="#0A0707" transform="translate(261.0625,325.5625)"/>
<path d="M0 0 C5 1 8 2 13 5 C14 5 14 5 18 6 C23 8 25 10 29 14 C32 17 32 17 37 20 C42 23 44 25 47 30 C47 33 48 37 48 40 C51 45 51 45 54 47 C54 48 54 48 54 49 C56 50 57 50 59 51 C62 53 64 56 67 58 C68 59 70 60 71 61 C74 63 74 63 76 68 C75 68 75 68 74 68 C74 70 74 71 74 73 C75 72 75 72 76 71 C77 71 78 70 79 69 C80 68 81 68 82 67 C84 65 84 65 87 64 C90 66 92 67 93 71 C93 78 90 81 85 86 C75 94 65 98 53 97 C40 94 31 88 24 77 C22 72 22 71 23 66 C23 66 23 66 25 63 C28 62 28 62 32 63 C35 65 37 68 39 71 C44 76 49 79 55 79 C59 80 59 80 64 79 C64 79 64 79 65 76 C63 76 61 76 59 76 C59 76 59 76 58 79 C58 78 58 76 58 75 C56 75 54 75 52 75 C52 75 52 75 50 74 C50 73 50 73 50 72 C49 72 48 72 47 72 C44 71 41 70 38 68 C37 66 36 65 35 63 C31 61 28 61 24 60 C24 61 24 61 24 62 C20 65 16 67 11 67 C7 66 6 64 3 61 C-1 59 -1 59 -6 57 C-7 61 -7 64 -8 68 C-9 68 -9 67 -10 67 C-10 63 -10 60 -9 56 C-9 45 -9 45 -10 41 C-10 38 -10 38 -8 35 C-7 34 -6 34 -5 33 C-5 33 -5 33 -4 32 C-4 30 -5 27 -5 25 C-6 17 -6 17 -5 12 C-4 12 -4 12 -3 12 C-3 11 -3 11 -3 10 C-2 10 -2 10 -1 10 C-1 9 -1 7 -1 6 C-1 1 -1 1 0 0 Z " fill="#C1C4CF" transform="translate(113,253)"/>
<path d="M0 0 C3 2 3 2 5 5 C5 9 4 11 2 15 C1 15 1 15 0 15 C-1 16 -1 18 -2 19 C-6 21 -10 23 -15 24 C-15 24 -16 25 -17 25 C-17 29 -17 29 -16 33 C-15 33 -14 33 -12 33 C-1 33 12 37 21 45 C23 48 23 48 23 51 C21 58 16 61 10 64 C5 66 -1 66 -6 66 C-19 67 -19 67 -22 69 C-19 75 -17 76 -11 79 C-8 82 -8 82 -8 85 C-10 90 -12 91 -17 93 C-21 93 -25 94 -29 94 C-30 94 -31 94 -33 94 C-40 94 -40 94 -44 91 C-45 87 -45 85 -45 81 C-45 80 -45 80 -43 77 C-42 72 -42 67 -42 62 C-42 61 -42 61 -42 57 C-42 52 -43 48 -46 44 C-47 45 -47 46 -48 47 C-49 47 -51 46 -52 46 C-52 46 -52 46 -49 45 C-48 42 -47 40 -46 37 C-45 37 -45 37 -44 37 C-44 36 -44 34 -44 33 C-45 27 -45 22 -45 16 C-45 13 -45 13 -46 9 C-45 9 -45 9 -44 9 C-44 8 -44 8 -44 7 C-32 0 -13 -8 0 0 Z " fill="#60677A" transform="translate(532,391)"/>
<path d="M0 0 C2 0 4 0 6 0 C8 2 8 2 10 5 C15 7 17 7 22 7 C30 7 30 7 34 9 C36 13 39 16 41 20 C44 22 44 22 47 23 C48 23 49 24 50 24 C51 28 51 28 50 32 C50 33 50 34 50 35 C57 42 66 44 76 46 C80 47 82 49 84 52 C83 57 83 57 81 59 C81 60 81 60 83 63 C83 66 83 66 82 69 C78 71 74 73 70 75 C67 76 65 77 62 78 C62 79 62 79 59 80 C55 82 55 82 52 85 C52 85 52 85 50 87 C45 85 44 82 41 78 C39 75 36 72 33 70 C31 67 31 67 29 64 C26 60 23 58 19 55 C17 52 17 52 16 49 C15 45 15 45 11 43 C10 43 10 43 6 41 C6 40 6 40 3 36 C1 35 -0 35 -2 34 C-8 32 -10 29 -14 24 C-15 19 -15 16 -12 12 C-10 9 -8 8 -4 8 C-5 8 -5 7 -6 7 C-6 6 -5 5 -5 4 C-4 4 -3 4 -2 4 C-2 3 -2 3 -2 2 C-1 2 -1 2 0 2 C0 1 0 1 0 0 Z " fill="#C2C5D0" transform="translate(279,389)"/>
<path d="M0 0 C4 -0 9 -1 13 -1 C15 -1 16 -1 17 -1 C20 -1 23 -1 26 -1 C30 -1 34 -1 39 -1 C41 -1 44 -1 47 -1 C47 -1 47 -1 51 -1 C54 -1 57 -0 60 0 C60 1 60 1 62 4 C63 4 64 4 65 4 C65 7 65 11 65 14 C64 14 63 14 62 14 C61 15 61 17 60 18 C60 18 60 18 58 19 C58 21 57 24 57 26 C56 26 55 26 54 26 C53 27 53 29 52 30 C51 30 51 30 50 30 C49 31 49 33 48 34 C47 34 47 34 46 34 C45 35 45 37 44 38 C44 38 44 38 42 39 C42 41 41 44 41 46 C40 46 39 46 38 46 C37 47 37 49 36 50 C36 50 36 50 34 51 C34 55 34 55 34 59 C35 59 37 60 38 60 C38 59 39 57 39 56 C42 57 42 57 43 59 C47 59 52 59 56 59 C57 60 59 60 60 60 C60 61 60 61 62 64 C63 64 64 64 65 64 C65 67 65 71 65 74 C64 74 63 74 62 74 C62 75 62 75 60 78 C56 78 51 79 47 79 C45 79 44 79 43 79 C40 79 37 79 34 79 C30 79 26 79 21 79 C19 79 16 79 13 79 C13 79 13 79 9 79 C6 79 3 78 0 78 C-1 77 -1 75 -2 74 C-3 74 -4 74 -5 74 C-5 71 -5 67 -5 64 C-4 64 -3 64 -2 64 C-1 63 -1 61 0 60 C0 60 0 60 2 59 C2 57 3 54 3 52 C4 52 5 52 6 52 C7 51 7 49 8 48 C9 48 9 48 10 48 C11 47 11 45 12 44 C12 44 12 44 14 43 C14 41 15 38 15 36 C16 36 17 36 18 36 C19 35 19 33 20 32 C21 32 21 32 22 32 C23 31 23 29 24 28 C25 28 25 27 26 27 C26 26 26 24 26 23 C25 23 25 23 21 23 C19 23 17 23 15 23 C15 23 15 23 12 23 C9 23 9 23 4 22 C3 21 3 19 2 18 C-0 18 -3 18 -5 18 C-5 13 -5 9 -5 4 C-4 4 -3 4 -2 4 C-1 3 -1 1 0 0 Z " fill="#7076E0" transform="translate(558,25)"/>
<path d="M0 0 C1 0 1 0 5 2 C6 6 6 9 5 13 C6 13 7 13 8 13 C8 14 8 14 8 15 C9 15 10 15 11 15 C14 16 17 17 20 19 C25 21 29 23 34 24 C36 25 37 26 39 27 C42 28 46 29 49 30 C50 30 51 31 53 31 C57 32 61 32 65 32 C67 32 68 32 70 32 C80 30 86 24 92 17 C93 15 94 14 95 12 C96 11 97 10 98 9 C101 9 101 9 104 10 C104 9 105 9 105 8 C104 19 104 19 103 22 C103 24 103 26 103 29 C103 38 100 45 96 53 C94 56 93 58 92 60 C89 66 85 70 81 74 C78 77 78 77 76 80 C69 88 59 95 49 98 C45 97 45 97 40 95 C34 96 33 98 29 103 C23 109 18 110 10 111 C-1 111 -1 111 -5 109 C-5 103 -5 103 -3 100 C6 92 15 89 28 89 C31 89 31 89 34 91 C34 92 34 92 34 93 C37 90 39 88 41 85 C45 80 49 78 54 74 C62 69 69 62 74 53 C73 49 73 49 72 48 C69 48 67 47 64 47 C59 46 54 44 49 42 C48 42 47 42 46 42 C38 39 38 39 35 37 C34 37 33 36 32 36 C28 35 28 35 23 32 C16 29 11 29 4 30 C3 31 3 31 0 31 C-0 31 -0 31 -3 32 C-4 32 -4 32 -8 33 C-9 27 -9 24 -6 18 C-6 17 -6 15 -6 14 C-5 9 -4 4 0 0 Z " fill="#6C7387" transform="translate(371,437)"/>
<path d="M0 0 C4 -0 9 0 13 1 C14 1 15 1 16 1 C21 2 23 4 25 7 C27 12 28 13 26 17 C21 26 17 32 7 35 C5 39 5 39 4 42 C3 43 3 44 2 45 C-3 44 -3 44 -5 43 C-6 41 -7 40 -8 38 C-12 36 -12 36 -17 33 C-27 29 -27 29 -31 26 C-32 24 -32 23 -33 21 C-33 20 -33 20 -35 16 C-38 16 -38 16 -42 17 C-44 18 -45 18 -47 19 C-52 21 -57 24 -62 27 C-62 28 -62 28 -63 32 C-61 34 -61 34 -57 35 C-51 38 -47 41 -43 47 C-43 50 -42 54 -42 57 C-42 58 -41 59 -41 60 C-42 61 -43 62 -44 63 C-47 62 -47 62 -50 61 C-60 60 -67 62 -75 67 C-76 68 -78 70 -79 71 C-80 71 -80 71 -84 73 C-89 69 -91 65 -94 59 C-96 54 -96 54 -101 51 C-102 50 -102 50 -102 46 C-102 41 -102 41 -100 39 C-100 38 -100 36 -99 35 C-98 29 -96 25 -92 20 C-90 20 -89 20 -87 20 C-85 24 -85 24 -83 28 C-82 29 -81 31 -80 32 C-74 31 -72 29 -67 25 C-56 18 -45 14 -33 10 C-32 10 -32 9 -31 9 C-30 9 -29 9 -28 9 C-23 9 -20 7 -15 5 C-12 4 -8 4 -5 3 C-4 3 -2 2 -1 2 C-1 1 -0 1 0 0 Z " fill="#878D9F" transform="translate(143,424)"/>
<path d="M0 0 C3 1 3 1 5 5 C6 5 7 5 9 5 C9 8 8 10 8 13 C8 14 8 14 8 17 C8 21 8 21 5 25 C4 28 4 28 5 32 C5 38 4 44 4 50 C3 58 4 65 7 73 C8 78 9 82 9 88 C10 90 10 90 11 92 C7 101 5 106 -4 110 C-8 113 -12 115 -16 117 C-21 115 -21 115 -24 112 C-27 105 -29 98 -28 89 C-29 88 -30 86 -30 84 C-31 81 -31 77 -31 73 C-31 71 -31 70 -31 68 C-31 63 -31 61 -28 56 C-28 55 -28 53 -28 51 C-27 36 -19 22 -10 9 C-10 8 -9 7 -8 6 C-4 0 -4 0 0 0 Z " fill="#7D8397" transform="translate(87.3125,323.6875)"/>
<path d="M0 0 C4 1 7 3 9 7 C9 8 10 10 10 11 C16 23 25 29 37 34 C51 38 68 41 82 35 C87 32 92 29 97 25 C98 24 99 24 100 23 C103 21 103 21 105 19 C110 14 115 10 122 7 C123 6 123 4 124 3 C126 3 127 3 129 3 C130 9 130 12 127 17 C127 18 127 18 126 22 C124 24 124 24 121 26 C120 26 119 27 118 28 C115 29 115 29 113 29 C113 31 113 32 113 34 C115 36 115 36 119 36 C119 37 119 37 122 37 C122 38 123 39 123 40 C123 40 123 40 126 41 C122 48 119 52 112 56 C108 57 105 58 101 59 C100 60 99 60 98 61 C96 61 94 61 92 61 C92 61 91 62 91 62 C89 62 87 62 85 62 C85 61 85 61 85 60 C84 60 83 60 82 60 C82 61 82 61 79 61 C78 61 77 61 76 62 C54 64 32 53 15 41 C7 33 4 28 1 17 C1 17 0 16 0 16 C-1 11 -1 6 -1 1 C-1 1 -0 0 0 0 Z " fill="#6B7286" transform="translate(41,474)"/>
<path d="M0 0 C1 1 2 1 3 2 C7 4 11 3 16 3 C18 3 20 3 21 3 C26 3 26 3 31 1 C31 2 31 4 31 5 C31 10 31 13 32 17 C33 19 33 21 33 23 C30 26 30 26 25 27 C23 28 22 28 20 29 C12 32 5 31 -3 29 C-5 29 -7 29 -8 28 C-10 28 -11 28 -13 28 C-13 27 -14 27 -14 26 C-16 26 -17 25 -19 25 C-19 27 -20 28 -20 30 C-26 40 -33 48 -44 52 C-54 54 -64 54 -73 50 C-80 45 -87 39 -90 31 C-90 27 -90 27 -90 24 C-87 21 -87 21 -84 21 C-79 23 -77 26 -73 30 C-65 36 -58 36 -49 35 C-42 32 -37 29 -32 23 C-32 22 -32 22 -32 21 C-34 21 -35 21 -37 21 C-42 13 -42 13 -42 8 C-40 2 -36 -0 -31 -3 C-21 -7 -10 -3 0 0 Z " fill="#C2C5D0" transform="translate(390,297)"/>
<path d="M0 0 C4 -0 8 -1 12 -1 C13 -1 14 -1 15 -1 C17 -1 20 -1 22 -1 C26 -1 30 -1 33 -1 C36 -1 38 -1 40 -1 C42 -1 43 -1 44 -1 C47 -1 47 -1 52 0 C53 1 53 3 54 4 C55 4 56 4 57 4 C57 7 57 11 57 14 C56 14 55 14 54 14 C53 15 53 17 52 18 C51 18 51 18 50 18 C49 19 49 21 48 22 C48 22 48 22 46 23 C46 25 45 28 45 30 C44 30 43 30 42 30 C41 31 41 33 40 34 C40 34 40 34 38 35 C38 37 37 40 37 42 C36 42 35 42 34 42 C33 43 33 45 32 46 C32 46 32 46 30 47 C30 48 30 50 30 51 C31 51 31 51 36 51 C38 51 40 51 43 51 C44 51 45 51 47 51 C50 51 53 52 56 52 C57 53 57 55 58 56 C59 56 60 57 61 57 C61 59 60 60 60 62 C59 62 59 62 58 62 C57 63 57 65 56 66 C55 66 55 66 54 66 C53 67 53 69 52 70 C48 70 44 71 40 71 C40 71 40 71 37 71 C35 71 32 71 30 71 C26 71 22 71 19 71 C16 71 14 71 12 71 C10 71 9 71 8 71 C5 71 5 71 0 70 C-1 69 -1 67 -2 66 C-3 66 -4 65 -5 65 C-5 63 -4 62 -4 60 C-4 60 -4 60 -2 59 C-2 57 -1 54 -1 52 C-0 52 1 52 2 52 C3 51 3 49 4 48 C5 48 5 48 6 48 C7 47 7 45 8 44 C8 44 8 44 10 43 C10 41 11 38 11 36 C12 36 13 36 14 36 C15 35 15 33 16 32 C17 32 17 31 18 31 C18 30 19 29 19 28 C19 26 20 25 20 24 C21 24 21 23 22 23 C22 22 22 20 22 19 C21 19 21 19 17 19 C15 19 13 19 11 19 C11 19 11 19 8 19 C5 19 5 19 0 18 C-1 17 -1 15 -2 14 C-3 14 -4 14 -5 14 C-5 11 -5 7 -5 4 C-4 4 -3 4 -2 4 C-1 3 -1 1 0 0 Z " fill="#787DDA" transform="translate(458,109)"/>
<path d="M0 0 C6 1 11 2 17 4 C18 4 18 4 21 4 C25 5 25 5 28 8 C25 20 13 30 3 36 C-3 39 -6 43 -9 49 C-10 49 -10 49 -11 51 C-12 51 -12 51 -13 51 C-14 50 -15 49 -16 48 C-27 47 -36 50 -46 55 C-46 54 -47 53 -47 52 C-48 51 -48 50 -49 49 C-54 50 -57 51 -61 54 C-67 58 -74 61 -81 63 C-81 63 -81 63 -83 64 C-87 64 -90 64 -94 64 C-96 64 -98 64 -100 65 C-105 64 -105 64 -108 62 C-110 59 -110 59 -110 56 C-107 46 -95 41 -86 36 C-84 35 -83 34 -81 33 C-78 33 -76 33 -73 34 C-70 34 -66 34 -63 34 C-62 34 -61 34 -60 34 C-57 34 -57 34 -53 32 C-47 32 -47 33 -43 36 C-38 38 -34 37 -29 36 C-19 32 -13 24 -6 17 C-3 13 -3 13 1 10 C2 10 3 9 4 8 C4 6 4 5 4 3 C3 2 1 1 0 0 Z " fill="#7C8296" transform="translate(418,479)"/>
<path d="M0 0 C26 11 51 11 79 6 C82 5 85 4 89 4 C89 4 89 4 93 3 C97 2 101 3 105 4 C105 4 105 4 107 8 C105 10 103 12 102 14 C99 17 98 20 96 23 C92 26 88 26 84 27 C82 27 80 28 79 29 C75 29 72 29 68 29 C67 29 66 29 65 29 C63 29 60 29 58 29 C55 29 52 29 48 29 C27 29 27 29 21 26 C17 26 14 25 10 26 C4 26 -1 25 -7 24 C-8 23 -8 23 -10 23 C-13 22 -13 22 -18 21 C-21 16 -21 16 -21 12 C-19 10 -19 10 -17 8 C-17 6 -17 4 -17 2 C-17 2 -17 2 -16 -2 C-10 -5 -6 -3 0 0 Z " fill="#AEB1BA" transform="translate(198.28515625,510.49609375)"/>
<path d="M0 0 C1 -0 3 -0 4 -0 C8 0 8 0 11 1 C11 2 11 2 11 3 C12 3 12 3 15 3 C19 3 19 3 21 4 C26 4 30 4 35 4 C38 4 38 4 43 4 C43 5 43 5 45 8 C46 8 47 8 48 8 C48 11 48 15 48 18 C47 18 47 18 45 18 C44 18 44 18 41 18 C40 19 40 21 39 22 C36 22 32 22 29 22 C28 23 28 25 27 26 C23 26 20 26 16 26 C16 26 16 26 13 26 C12 27 12 29 11 30 C6 30 2 30 -3 30 C-6 30 -8 30 -11 30 C-12 31 -12 33 -13 34 C-16 35 -16 35 -20 35 C-22 35 -23 35 -25 35 C-27 34 -28 34 -30 34 C-30 34 -30 34 -34 34 C-41 34 -48 34 -55 33 C-56 33 -58 33 -59 33 C-59 32 -59 31 -59 30 C-60 30 -60 29 -61 29 C-60 29 -60 29 -58 29 C-56 29 -55 28 -54 28 C-54 27 -53 25 -53 24 C-50 23 -46 23 -43 22 C-42 22 -42 22 -38 19 C-37 19 -37 19 -36 19 C-36 18 -36 18 -36 17 C-34 17 -33 16 -31 16 C-30 15 -30 13 -29 12 C-28 12 -27 11 -26 11 C-21 9 -19 8 -16 5 C-11 -0 -7 -0 0 0 Z " fill="#D8DAE3" transform="translate(467.0625,528.875)"/>
<path d="M0 0 C0 0 0 0 2 2 C7 2 11 2 16 2 C17 3 19 3 20 3 C20 4 20 4 22 7 C26 7 26 7 31 7 C34 7 37 7 40 7 C42 9 42 9 42 12 C34 12 27 12 20 10 C20 9 20 9 20 8 C17 8 14 8 11 8 C10 8 10 8 6 8 C-0 8 -3 9 -8 13 C-12 17 -16 19 -21 21 C-22 22 -23 23 -24 24 C-25 24 -26 24 -27 24 C-27 25 -27 25 -27 26 C-31 29 -34 30 -39 31 C-40 31 -40 31 -44 32 C-44 33 -45 34 -45 35 C-46 35 -46 35 -50 36 C-50 37 -50 39 -50 40 C-49 40 -48 40 -47 39 C-43 39 -43 39 -38 40 C-39 44 -39 44 -40 45 C-42 45 -45 45 -47 45 C-49 45 -51 45 -52 45 C-55 45 -59 45 -62 45 C-63 45 -65 45 -66 45 C-68 45 -69 45 -71 45 C-72 45 -73 45 -74 45 C-75 46 -75 48 -76 49 C-79 49 -79 49 -84 49 C-85 49 -87 49 -89 49 C-90 49 -92 49 -94 49 C-95 49 -95 49 -99 49 C-105 49 -111 49 -117 49 C-121 49 -124 49 -128 49 C-138 49 -147 49 -157 49 C-157 48 -156 46 -156 45 C-154 45 -153 45 -151 45 C-151 42 -151 42 -152 39 C-155 37 -155 37 -159 36 C-160 36 -160 35 -161 35 C-165 35 -168 35 -172 35 C-175 35 -175 35 -178 34 C-178 33 -178 33 -178 32 C-180 32 -181 31 -183 31 C-183 30 -183 30 -183 29 C-182 29 -180 29 -179 29 C-174 29 -174 29 -172 28 C-163 27 -159 28 -152 33 C-139 37 -126 35 -114 30 C-108 30 -104 33 -98 36 C-88 42 -78 39 -67 36 C-62 34 -57 32 -52 29 C-49 28 -45 27 -42 26 C-26 21 -12 11 0 0 Z " fill="#E5E7EC" transform="translate(458,522)"/>
<path d="M0 0 C1 1 1 2 2 3 C1 4 1 4 0 5 C-0 7 -1 8 -1 10 C-0 10 -0 10 2 11 C4 11 5 12 6 12 C6 12 6 12 7 14 C8 15 9 15 10 16 C9 17 8 19 7 20 C6 21 6 21 4 25 C4 26 4 26 5 29 C9 30 9 30 12 30 C12 29 13 27 13 26 C16 27 16 27 17 29 C21 29 26 29 30 29 C31 30 33 30 34 30 C34 31 34 31 36 34 C37 34 38 34 39 34 C39 37 39 41 39 44 C38 44 37 44 36 44 C35 45 35 47 34 48 C30 48 25 49 21 49 C19 49 18 49 17 49 C14 49 11 49 8 49 C4 49 -0 49 -5 49 C-7 49 -10 49 -13 49 C-13 49 -13 49 -17 49 C-20 49 -23 48 -26 48 C-27 47 -27 45 -28 44 C-29 44 -30 44 -31 44 C-31 41 -31 37 -31 34 C-30 34 -29 34 -28 34 C-27 33 -27 31 -26 30 C-25 30 -25 29 -24 29 C-24 27 -23 24 -23 22 C-22 22 -21 22 -20 22 C-19 21 -19 19 -18 18 C-17 18 -17 18 -16 18 C-15 17 -15 15 -14 14 C-13 13 -12 13 -11 12 C-7 9 -4 5 0 0 Z " fill="#6268D4" transform="translate(584,55)"/>
<path d="M0 0 C2 2 2 2 3 6 C3 7 4 8 4 9 C7 10 9 11 12 13 C22 17 28 22 36 30 C36 31 36 31 36 32 C37 33 39 33 40 34 C43 37 43 37 46 42 C47 43 47 43 52 44 C54 45 55 45 57 46 C57 47 58 48 58 49 C56 49 55 49 53 50 C44 51 35 54 27 58 C22 60 18 60 13 59 C9 57 7 55 4 51 C4 49 3 47 3 45 C2 39 1 35 -0 29 C-3 20 -2 11 -1 1 C-1 1 -0 0 0 0 Z " fill="#C7CAD4" transform="translate(92,363)"/>
<path d="M0 0 C3 1 3 1 5 5 C6 5 7 5 9 5 C9 8 8 10 8 13 C8 14 8 14 8 17 C8 21 8 21 5 25 C4 28 4 28 5 32 C5 40 4 48 4 56 C4 60 4 64 5 68 C-1 66 -6 64 -11 61 C-16 58 -21 57 -26 55 C-27 54 -27 54 -28 50 C-27 35 -18 21 -10 9 C-10 8 -9 7 -8 6 C-4 0 -4 0 0 0 Z " fill="#979CAC" transform="translate(87.3125,323.6875)"/>
<path d="M0 0 C4 0 4 0 7 3 C7 4 7 4 8 7 C8 7 8 7 10 8 C1 19 -10 30 -24 34 C-28 33 -28 33 -33 31 C-39 32 -40 35 -44 39 C-50 45 -55 47 -63 47 C-74 48 -74 48 -78 45 C-78 39 -78 39 -76 36 C-67 28 -57 26 -45 25 C-42 25 -42 25 -39 27 C-39 28 -39 29 -39 29 C-36 27 -34 24 -32 21 C-27 15 -22 12 -16 8 C-15 7 -13 6 -12 5 C-10 4 -7 3 -5 1 C-4 0 -4 0 0 0 Z " fill="#60677A" transform="translate(443.875,500.75)"/>
<path d="M0 0 C5 0 7 1 11 4 C12 4 12 4 17 6 C22 8 22 8 24 12 C26 13 27 13 29 14 C34 17 35 18 38 23 C40 24 41 25 43 26 C43 27 43 28 43 29 C44 29 45 30 46 30 C46 30 46 30 47 33 C46 33 45 34 44 34 C41 36 38 38 35 41 C28 47 28 47 21 47 C17 46 17 46 14 44 C13 43 11 42 10 42 C7 40 7 40 4 37 C4 35 4 34 4 32 C3 26 2 24 -2 19 C-3 13 -1 6 0 0 Z " fill="#C1C4CF" transform="translate(326,157)"/>
<path d="M0 0 C6 3 10 7 14 12 C15 13 16 15 18 16 C19 17 20 19 21 20 C21 20 21 20 24 23 C24 23 25 24 25 25 C23 30 23 30 22 31 C20 31 17 31 15 31 C8 32 4 33 -2 37 C-6 37 -7 36 -11 35 C-15 33 -19 32 -24 31 C-28 31 -30 30 -32 28 C-33 27 -33 26 -34 25 C-33 23 -33 23 -30 20 C-29 19 -28 17 -27 16 C-25 15 -24 13 -23 12 C-22 11 -21 10 -21 9 C-15 2 -9 -2 0 0 Z " fill="#F6A727" transform="translate(255,336)"/>
<path d="M0 0 C3 -0 3 -0 7 0 C10 2 12 5 14 8 C19 14 25 16 33 17 C43 16 49 10 57 4 C59 2 59 2 62 1 C65 3 67 4 68 8 C68 15 65 18 60 23 C50 31 40 35 28 34 C15 31 6 25 -1 14 C-3 9 -3 8 -2 3 C-1 2 -1 1 0 0 Z " fill="#040406" transform="translate(138,316)"/>
<path d="M0 0 C0 1 0 2 0 3 C1 3 1 3 2 3 C1 11 -3 17 -9 22 C-20 31 -28 33 -42 32 C-52 30 -60 24 -66 16 C-69 12 -70 8 -69 3 C-66 0 -66 0 -63 -0 C-58 2 -56 5 -52 9 C-44 15 -37 15 -28 14 C-20 11 -14 6 -9 -1 C-5 -2 -4 -2 0 0 Z " fill="#050507" transform="translate(369,318)"/>
<path d="M0 0 C0 2 1 3 1 5 C3 8 5 10 8 13 C11 15 11 15 12 19 C11 20 11 21 10 22 C10 23 9 24 9 25 C11 30 14 34 17 39 C17 40 18 41 18 42 C17 43 17 45 16 46 C12 46 12 46 8 46 C7 46 5 46 4 46 C0 46 0 46 -3 44 C-3 43 -3 43 -3 42 C-4 42 -4 42 -5 42 C-5 41 -6 41 -6 40 C-7 40 -7 40 -11 40 C-13 40 -15 40 -17 40 C-20 36 -20 36 -22 32 C-22 31 -22 31 -25 29 C-26 28 -26 27 -27 26 C-25 19 -22 16 -17 11 C-16 10 -15 8 -14 7 C-6 -1 -6 -1 0 0 Z " fill="#C2C5D0" transform="translate(164,178)"/>
<path d="M0 0 C0 2 0 4 0 6 C1 7 3 8 4 9 C4 12 4 12 4 15 C4 17 4 19 4 21 C5 22 6 22 7 23 C7 27 7 29 5 33 C-7 36 -26 36 -37 29 C-39 23 -38 18 -35 12 C-34 11 -33 10 -32 9 C-31 8 -30 7 -29 6 C-23 2 -17 1 -10 0 C-9 -0 -9 -0 -6 -1 C-3 -1 -3 -1 0 0 Z " fill="#C1C4CF" transform="translate(401,235)"/>
<path d="M0 0 C4 -1 4 -1 8 0 C10 4 10 8 11 12 C11 12 12 13 12 13 C14 13 17 12 19 12 C31 11 41 11 52 17 C57 20 61 19 66 18 C68 20 68 20 68 26 C65 29 64 31 60 32 C59 32 59 32 57 32 C57 33 57 33 57 34 C49 36 40 38 32 34 C33 33 35 32 36 31 C35 31 35 31 31 29 C30 28 29 27 28 26 C24 25 20 24 16 23 C-7 17 -7 17 -11 12 C-11 11 -12 9 -12 8 C-11 7 -9 5 -8 4 C-2 4 -2 4 3 5 C2 2 2 2 0 0 Z " fill="#C2C5D0" transform="translate(212,284)"/>
<path d="M0 0 C0 1 0 3 0 4 C3 5 5 5 8 6 C8 7 8 7 8 8 C9 9 9 9 10 10 C10 11 10 13 10 14 C11 14 11 14 15 15 C19 19 18 20 18 24 C18 26 18 27 18 28 C18 31 18 31 14 35 C9 36 9 36 4 36 C2 36 0 36 -2 36 C-11 35 -15 30 -20 23 C-23 19 -23 19 -23 14 C-24 14 -24 14 -25 14 C-25 13 -25 13 -25 12 C-24 12 -24 12 -23 12 C-23 11 -23 10 -23 9 C-22 6 -22 6 -19 4 C-18 4 -18 4 -15 3 C-14 3 -14 3 -12 2 C-11 2 -10 1 -9 1 C-6 -0 -3 -0 0 0 Z " fill="#C2C5D0" transform="translate(226,141)"/>
<path d="M0 0 C0 1 0 1 0 2 C10 3 20 3 30 3 C30 2 30 2 30 1 C34 0 37 -0 41 1 C41 2 41 2 41 3 C42 3 42 3 45 3 C45 3 45 3 49 3 C51 3 52 3 54 3 C58 3 58 3 63 6 C65 7 67 7 69 8 C69 11 69 11 68 14 C65 15 65 15 62 15 C61 15 59 15 58 15 C57 15 55 15 54 15 C53 15 51 15 50 15 C46 15 42 15 38 15 C37 15 37 15 33 15 C30 15 27 15 23 15 C19 15 14 15 9 15 C6 15 3 15 -0 15 C-2 15 -3 15 -5 15 C-6 15 -6 15 -9 15 C-10 15 -11 15 -13 15 C-18 15 -22 14 -26 11 C-26 10 -26 9 -26 8 C-23 6 -23 6 -18 5 C-18 5 -18 5 -14 3 C-13 3 -11 2 -10 2 C-5 0 -5 0 0 0 Z " fill="#C6C9D3" transform="translate(239,553)"/>
<path d="M0 0 C1 0 3 1 4 1 C3 3 2 4 1 6 C1 7 0 9 0 10 C1 10 2 10 3 10 C7 10 10 10 14 10 C16 10 17 10 19 10 C19 10 19 10 22 10 C23 10 23 10 26 10 C27 11 28 11 29 11 C30 12 30 14 31 15 C32 15 33 16 34 16 C34 17 34 17 33 21 C32 21 32 21 31 21 C30 22 30 24 29 25 C28 25 28 25 27 25 C26 26 26 28 25 29 C21 29 17 30 14 30 C13 30 13 30 10 30 C8 30 5 30 3 30 C-1 30 -5 30 -8 30 C-11 30 -13 30 -16 30 C-17 30 -18 30 -19 30 C-22 30 -22 30 -27 29 C-28 28 -28 26 -29 25 C-30 25 -31 24 -32 24 C-32 22 -31 21 -31 19 C-30 19 -28 18 -27 18 C-26 17 -26 15 -25 14 C-22 12 -22 12 -20 10 C-20 12 -20 15 -20 17 C-17 17 -17 17 -13 16 C-10 13 -10 13 -8 10 C-7 10 -7 10 -6 10 C-6 10 -6 10 -5 7 C-4 4 -4 4 0 2 C0 1 0 1 0 0 Z " fill="#5D62D4" transform="translate(485,150)"/>
<path d="M0 0 C3 4 4 8 6 12 C7 13 7 14 8 16 C9 19 10 22 11 25 C11 26 12 27 12 28 C14 35 15 41 16 48 C17 53 18 57 21 62 C21 66 21 70 21 74 C21 75 21 75 21 78 C21 80 21 83 21 86 C16 84 16 84 14 81 C13 77 12 73 11 69 C9 61 6 56 0 50 C0 49 0 49 0 48 C-2 47 -3 47 -5 46 C-6 45 -8 44 -9 43 C-16 39 -22 39 -30 38 C-30 37 -30 37 -30 36 C-27 35 -23 35 -20 34 C-16 32 -13 31 -10 28 C-9 28 -9 28 -8 28 C-8 27 -7 26 -7 25 C-3 24 1 24 5 24 C5 19 5 17 2 13 C1 8 0 5 0 0 Z " fill="#C2C5D0" transform="translate(467,342)"/>
<path d="M0 0 C1 -0 1 -0 4 -0 C5 -0 5 -0 8 0 C8 2 9 3 9 4 C10 4 10 4 11 4 C11 6 12 7 12 8 C13 8 14 8 15 8 C21 8 24 11 29 14 C30 15 30 15 34 17 C35 21 35 24 34 28 C34 29 34 29 32 29 C32 29 32 29 31 27 C25 26 20 27 14 28 C12 28 11 28 9 29 C6 29 3 30 -0 31 C-4 31 -4 31 -10 31 C-12 26 -12 23 -11 17 C-10 16 -10 15 -9 13 C-9 7 -9 7 -10 2 C-7 -1 -4 0 0 0 Z " fill="#C1C4CF" transform="translate(272.0625,487.625)"/>
<path d="M0 0 C1 0 3 0 4 0 C5 1 5 3 6 4 C7 5 8 5 9 6 C9 7 9 8 9 9 C11 9 13 9 15 9 C22 9 26 10 32 13 C29 22 27 28 18 32 C17 33 17 33 14 34 C12 35 11 35 10 36 C8 37 7 38 5 39 C0 37 0 37 -3 34 C-6 27 -8 20 -6 12 C-5 11 -5 11 -4 10 C-4 9 -3 7 -3 6 C-2 2 -2 2 0 0 Z " fill="#61687B" transform="translate(66,402)"/>
<path d="M0 0 C4 2 4 2 8 5 C14 9 20 12 26 14 C27 15 29 15 30 16 C35 17 39 18 44 19 C48 21 48 21 49 23 C50 24 51 24 52 25 C46 27 40 27 34 27 C33 27 32 27 31 27 C27 28 23 28 19 28 C17 28 16 28 14 28 C13 28 11 28 10 28 C9 27 9 25 8 24 C6 24 5 24 3 24 C1 24 -0 24 -2 24 C-3 23 -3 21 -4 20 C-6 20 -8 20 -10 20 C-13 18 -13 18 -15 16 C-15 15 -15 15 -15 14 C-11 10 -11 10 -8 10 C-7 9 -7 7 -6 6 C-3 5 -3 5 0 5 C0 3 0 2 0 0 Z " fill="#D9DBE4" transform="translate(52,527)"/>
<path d="M0 0 C4 1 7 3 9 7 C10 9 11 12 12 14 C18 24 26 29 36 34 C44 37 44 37 45 41 C45 44 45 44 41 47 C36 50 33 50 27 49 C18 45 9 37 4 28 C3 24 2 21 1 17 C1 17 0 16 0 16 C-1 11 -1 6 -1 1 C-1 1 -0 0 0 0 Z " fill="#61687C" transform="translate(41,474)"/>
<path d="M0 0 C1 0 1 0 4 0 C8 0 8 0 11 1 C11 2 11 3 11 3 C12 3 13 3 14 3 C19 3 23 4 28 5 C28 6 28 6 28 6 C24 6 20 6 16 6 C16 8 16 9 16 10 C15 10 15 10 14 10 C15 15 15 15 17 19 C20 20 20 20 24 20 C24 21 24 21 24 21 C14 25 3 29 -7 25 C-7 24 -8 23 -8 22 C-9 22 -9 22 -10 21 C-10 21 -10 20 -10 19 C-12 19 -13 19 -15 18 C-19 16 -19 16 -22 14 C-22 13 -23 12 -23 10 C-21 8 -21 8 -18 6 C-18 5 -17 5 -16 4 C-10 0 -6 -0 0 0 Z " fill="#C7CAD4" transform="translate(467.125,528.8125)"/>
<path d="M0 0 C2 2 5 3 7 5 C20 9 33 7 45 2 C51 2 55 5 60 8 C64 10 64 10 67 11 C68 11 68 11 70 12 C70 13 70 13 70 14 C65 16 63 16 58 16 C57 16 57 16 54 17 C53 17 51 17 50 17 C49 17 49 17 45 17 C14 18 14 18 8 16 C8 14 7 13 7 11 C4 9 4 9 0 8 C-1 8 -1 7 -2 7 C-6 7 -9 7 -13 7 C-16 7 -16 7 -19 6 C-19 5 -19 5 -19 4 C-21 4 -22 3 -24 3 C-24 2 -24 2 -24 1 C-23 1 -21 1 -20 1 C-13 1 -7 -1 0 0 Z " fill="#D8DAE3" transform="translate(299,550)"/>
<path d="M0 0 C4 0 4 0 6 1 C9 1 11 2 13 2 C21 2 27 5 33 9 C28 18 21 21 11 23 C5 24 -1 23 -7 19 C-8 16 -8 16 -9 12 C-9 12 -9 12 -10 11 C-9 4 -8 1 0 0 Z " fill="#9296A2" transform="translate(428.625,377.6875)"/>
<path d="M0 0 C1 1 2 3 3 4 C1 6 1 6 -1 9 C-2 11 -4 13 -5 15 C-18 34 -18 34 -26 37 C-27 37 -28 37 -29 37 C-29 36 -29 35 -28 33 C-28 29 -28 29 -30 26 C-31 25 -31 25 -32 24 C-34 20 -33 15 -33 11 C-29 6 -26 5 -20 4 C-12 2 -12 2 -8 1 C-5 0 -5 0 0 0 Z " fill="#C6C9D3" transform="translate(421,375)"/>
<path d="M0 0 C1 2 2 3 3 5 C1 9 -3 11 -7 13 C-8 14 -10 15 -11 16 C-16 16 -16 16 -22 16 C-23 17 -23 17 -28 17 C-33 16 -33 16 -36 14 C-38 11 -38 11 -38 8 C-36 2 -33 -1 -28 -4 C-17 -9 -10 -7 0 0 Z " fill="#6D7488" transform="translate(346,527)"/>
<path d="M0 0 C4 2 4 2 7 5 C15 12 26 18 36 19 C42 19 44 17 48 14 C52 14 52 14 54 16 C54 19 54 19 53 23 C50 26 48 26 43 26 C40 25 37 25 34 24 C13 20 13 20 5 25 C4 25 3 26 2 26 C2 25 2 25 1 21 C-0 21 -2 20 -3 20 C-11 15 -11 15 -12 10 C-12 9 -13 7 -13 6 C-12 6 -10 5 -9 5 C-4 3 -4 3 0 0 Z " fill="#BCBFCC" transform="translate(298,337)"/>
<path d="M0 0 C1 1 1 3 2 4 C3 4 4 4 5 4 C5 7 5 11 5 14 C4 14 4 14 2 14 C1 14 1 14 -2 14 C-3 15 -3 17 -4 18 C-7 18 -11 18 -14 18 C-15 19 -15 21 -16 22 C-20 22 -23 22 -27 22 C-28 22 -29 22 -30 22 C-31 23 -31 25 -32 26 C-35 26 -35 26 -39 26 C-40 26 -41 26 -42 26 C-43 26 -43 26 -45 26 C-45 25 -45 23 -45 22 C-44 22 -43 22 -42 22 C-36 21 -30 20 -24 17 C-25 16 -26 16 -27 15 C-28 13 -29 12 -30 10 C-30 9 -29 7 -29 6 C-28 6 -28 6 -27 6 C-27 5 -27 3 -27 2 C-7 -1 -7 -1 0 0 Z " fill="#DCDEE6" transform="translate(510,533)"/>
<path d="M0 0 C1 1 2 1 3 2 C3 3 2 5 2 6 C1 6 0 7 -1 7 C-1 6 -1 6 -1 5 C-6 6 -8 7 -11 11 C-13 12 -16 12 -18 13 C-23 16 -28 19 -32 23 C-34 24 -35 25 -37 26 C-40 29 -42 31 -45 34 C-46 34 -46 34 -48 37 C-51 39 -51 39 -54 43 C-55 43 -55 43 -56 43 C-57 44 -57 46 -58 47 C-60 50 -62 52 -64 55 C-65 55 -65 55 -66 55 C-66 56 -67 58 -67 59 C-68 61 -70 62 -71 64 C-72 65 -72 66 -73 67 C-74 67 -74 67 -75 67 C-75 68 -76 69 -76 70 C-76 71 -76 71 -77 74 C-77 74 -77 74 -80 75 C-80 79 -80 79 -80 83 C-81 83 -81 83 -82 83 C-84 87 -84 91 -85 96 C-86 96 -87 96 -88 96 C-88 98 -88 100 -88 101 C-88 103 -88 105 -88 107 C-89 107 -89 107 -93 109 C-94 85 -76 60 -61 43 C-60 42 -59 40 -57 39 C-56 38 -55 36 -54 35 C-53 34 -53 33 -52 33 C-39 19 -22 7 -4 2 C-3 1 -1 1 0 0 Z " fill="#D7D9E3" transform="translate(201,147)"/>
<path d="M0 0 C0 1 0 1 0 2 C1 2 1 3 2 3 C-9 18 -9 18 -19 20 C-34 21 -34 21 -39 18 C-39 12 -39 12 -37 9 C-29 1 -11 -7 0 0 Z " fill="#6B7286" transform="translate(405,528)"/>
<path d="M0 0 C1 0 2 1 3 1 C9 3 15 5 20 8 C20 8 20 9 20 9 C7 9 7 9 1 6 C-2 4 -2 4 -6 4 C-6 3 -6 3 -6 2 C-8 2 -9 1 -11 1 C-12 1 -14 0 -15 0 C-17 0 -18 1 -20 1 C-26 2 -29 1 -35 -1 C-39 -1 -43 -1 -47 -1 C-48 -1 -49 -1 -50 -1 C-53 -1 -55 -1 -58 -1 C-58 -0 -58 0 -58 1 C-79 5 -79 5 -84 1 C-84 0 -84 0 -85 -4 C-59 -10 -25 -9 0 0 Z " fill="#D7D9E3" transform="translate(310,144)"/>
<path d="M0 0 C3 1 3 1 5 5 C8 11 10 17 12 23 C13 29 13 29 16 31 C15 36 15 36 13 40 C13 40 13 40 11 41 C10 45 10 48 10 52 C10 57 9 60 7 65 C7 67 6 70 6 72 C5 72 5 72 4 72 C1 67 4 60 5 55 C5 54 5 52 5 51 C2 50 2 50 -1 50 C-2 51 -2 53 -3 54 C-5 56 -7 58 -9 60 C-10 61 -11 62 -12 64 C-12 64 -13 65 -14 66 C-14 55 -5 44 3 36 C5 31 5 28 5 23 C5 21 5 19 5 18 C5 14 5 11 4 7 C3 7 3 7 2 7 C0 3 0 3 0 0 Z " fill="#7D8397" transform="translate(470,396)"/>
<path d="M0 0 C2 4 2 4 2 9 C3 9 3 9 3 13 C4 13 4 14 5 14 C4 15 3 17 2 18 C2 19 2 20 2 21 C1 21 1 21 0 21 C-0 23 -1 24 -1 26 C-0 26 0 26 1 26 C1 27 1 27 1 28 C0 28 -0 28 -1 28 C-1 29 -1 30 -1 31 C-1 32 -1 33 -1 34 C-1 35 -1 36 -1 38 C-1 41 -1 44 -2 47 C-4 43 -4 43 -5 38 C-5 38 -5 38 -8 39 C-9 37 -11 35 -12 33 C-13 33 -15 32 -16 32 C-18 24 -15 18 -12 11 C-9 6 -9 6 -5 3 C-4 3 -2 2 -1 2 C-1 1 -0 1 0 0 Z " fill="#8F93A0" transform="translate(90,331)"/>
<path d="M0 0 C6 5 11 9 13 17 C13 18 14 19 14 20 C14 23 15 25 15 28 C15 29 15 31 15 32 C15 36 15 36 13 40 C13 47 14 48 18 53 C22 58 26 63 26 70 C25 74 24 77 21 80 C20 81 19 83 18 84 C17 84 15 83 14 83 C15 82 15 80 16 79 C19 72 19 66 16 59 C14 55 14 55 10 51 C7 48 7 48 6 43 C7 39 7 39 8 36 C10 29 10 22 7 14 C4 9 -0 6 -6 3 C-10 2 -10 2 -13 2 C-13 1 -12 -1 -12 -2 C-6 -3 -5 -3 0 0 Z " fill="#C9CCD6" transform="translate(171,410)"/>
<path d="M0 0 C1 1 2 1 2 2 C7 4 10 5 15 5 C16 5 16 5 20 5 C22 5 23 5 25 5 C42 6 42 6 49 12 C53 16 58 19 63 22 C59 25 56 24 51 24 C44 22 37 20 30 16 C27 15 27 15 23 14 C18 13 14 11 10 8 C7 7 7 7 3 6 C3 5 3 5 3 4 C2 4 1 4 0 4 C0 3 0 1 0 0 Z " fill="#7D8397" transform="translate(376,446)"/>
<path d="M0 0 C1 0 3 0 4 0 C4 0 4 0 8 0 C9 0 10 0 12 0 C15 0 18 0 21 0 C21 1 21 2 21 3 C24 3 26 3 28 3 C28 4 27 4 26 4 C25 8 25 8 26 10 C25 11 25 12 23 12 C23 14 23 16 23 17 C23 17 23 17 21 18 C21 18 21 18 20 15 C16 13 8 15 3 15 C-1 15 -1 15 -7 14 C-10 10 -10 10 -12 6 C-10 0 -6 -0 0 0 Z " fill="#5E66D3" transform="translate(566.515625,28.70703125)"/>
<path d="M0 0 C3 2 6 3 10 3 C13 5 17 6 20 7 C16 8 16 8 13 7 C12 7 12 7 7 7 C2 7 2 7 -2 5 C-3 6 -3 7 -4 7 C-29 10 -29 10 -37 6 C-37 3 -37 3 -36 -1 C-23 -7 -12 -6 0 0 Z " fill="#7C8296" transform="translate(398.1484375,470.58203125)"/>
<path d="M0 0 C1 0 3 1 4 1 C5 3 5 4 6 6 C7 7 7 7 8 8 C8 8 7 9 7 9 C8 9 8 10 9 10 C4 20 4 20 -2 22 C-3 22 -4 22 -5 22 C-5 24 -4 25 -4 27 C-5 27 -5 26 -6 26 C-6 25 -6 25 -6 24 C-8 24 -9 23 -11 23 C-15 20 -18 18 -21 14 C-21 13 -21 12 -21 11 C-17 9 -17 9 -14 9 C-14 8 -14 8 -14 7 C-12 6 -10 5 -8 4 C-4 0 -4 0 0 0 Z " fill="#C2C5D0" transform="translate(206.125,340.9375)"/>
<path d="M0 0 C4 -0 8 -1 12 -1 C13 -1 14 -1 15 -1 C17 -1 20 -1 22 -1 C26 -1 30 -1 33 -1 C36 -1 38 -1 40 -1 C42 -1 43 -1 44 -1 C47 -1 47 -1 52 0 C53 1 53 3 54 4 C55 4 56 4 57 4 C57 7 57 11 57 14 C56 14 55 14 54 14 C54 15 54 15 54 16 C53 16 53 16 52 16 C52 14 52 13 52 11 C52 9 52 8 52 6 C48 3 48 3 45 3 C44 4 42 4 41 4 C38 4 35 4 32 4 C31 4 29 4 28 4 C24 4 21 4 17 4 C16 4 14 4 12 4 C11 4 9 4 8 4 C4 4 1 5 -2 8 C-1 12 -1 12 2 15 C8 15 8 15 12 13 C13 13 15 13 16 13 C16 14 16 14 16 15 C17 15 18 15 19 15 C22 16 22 16 26 18 C26 24 26 24 23 29 C22 30 21 31 20 32 C19 32 19 31 18 31 C19 28 19 28 20 24 C21 24 21 23 22 23 C22 22 22 20 22 19 C21 19 21 19 17 19 C15 19 13 19 11 19 C11 19 11 19 8 19 C5 19 5 19 0 18 C-1 17 -1 15 -2 14 C-3 14 -4 14 -5 14 C-5 11 -5 7 -5 4 C-4 4 -3 4 -2 4 C-1 3 -1 1 0 0 Z " fill="#C3C5E5" transform="translate(458,109)"/>
<path d="M0 0 C3 1 3 1 5 4 C5 9 5 9 4 14 C4 16 4 18 3 19 C2 24 1 26 -3 29 C-4 29 -5 29 -6 29 C-6 28 -7 26 -7 25 C-8 24 -9 22 -10 21 C-14 15 -14 11 -14 4 C-11 -1 -6 -1 0 0 Z " fill="#F7B540" transform="translate(255,336)"/>
<path d="M0 0 C4 0 9 0 13 0 C14 0 14 0 17 0 C18 0 18 0 21 0 C22 0 23 0 24 0 C25 1 25 1 27 1 C28 2 28 4 29 5 C30 5 31 6 32 6 C32 8 31 9 31 11 C30 11 30 11 29 11 C28 12 28 14 27 15 C26 15 26 15 25 15 C24 16 24 18 23 19 C19 19 15 20 12 20 C11 20 11 20 8 20 C6 20 3 20 1 20 C-3 20 -7 20 -10 20 C-13 20 -15 20 -18 20 C-19 20 -20 20 -21 20 C-24 20 -24 20 -29 19 C-30 18 -30 16 -31 15 C-32 15 -33 14 -34 14 C-34 12 -33 11 -33 9 C-32 9 -31 8 -30 8 C-30 9 -30 11 -29 12 C-29 13 -28 15 -27 16 C-22 15 -22 15 -19 15 C-15 14 -11 14 -7 14 C-2 15 3 15 8 14 C11 14 15 14 18 14 C18 15 18 16 18 17 C25 14 25 14 27 10 C25 5 25 5 22 3 C22 4 22 4 22 5 C19 5 16 5 13 5 C12 5 10 5 8 5 C4 5 4 5 0 2 C0 1 0 1 0 0 Z " fill="#A5AAE0" transform="translate(487,160)"/>
<path d="M0 0 C4 -0 9 -1 13 -1 C15 -1 16 -1 17 -1 C20 -1 23 -1 26 -1 C30 -1 34 -1 39 -1 C41 -1 44 -1 47 -1 C47 -1 47 -1 51 -1 C54 -1 57 -0 60 0 C60 1 60 1 62 4 C63 4 64 4 65 4 C65 7 65 11 65 14 C64 14 63 14 62 14 C61 15 61 17 60 18 C59 18 58 19 57 19 C57 17 58 16 58 14 C59 8 59 8 57 4 C53 4 49 4 45 4 C44 4 42 4 41 4 C39 4 36 4 34 4 C30 4 26 4 22 4 C19 4 17 4 14 4 C13 4 12 4 11 5 C6 5 2 5 -2 7 C-1 11 -0 14 2 18 C-0 18 -3 18 -5 18 C-5 13 -5 9 -5 4 C-4 4 -3 4 -2 4 C-1 3 -1 1 0 0 Z " fill="#C7C9E7" transform="translate(558,25)"/>
<path d="M0 0 C4 2 6 4 8 8 C10 12 10 12 8 17 C7 18 6 19 5 20 C3 20 1 20 -1 20 C-2 19 -3 18 -4 17 C-6 17 -7 16 -9 16 C-14 15 -14 15 -16 12 C-16 7 -15 6 -12 2 C-8 -1 -5 -1 0 0 Z " fill="#C2C5D0" transform="translate(188,264)"/>
<path d="M0 0 C5 3 6 4 9 8 C10 9 11 11 12 12 C14 13 15 15 16 16 C17 17 18 18 19 19 C19 19 20 20 20 21 C18 26 18 26 17 27 C15 27 12 27 10 28 C8 28 7 28 6 28 C2 27 2 27 -1 24 C-3 18 -3 15 -2 9 C-2 8 -2 8 -1 4 C-1 3 -0 1 0 0 Z " fill="#F3A219" transform="translate(260,340)"/>
<path d="M0 0 C4 4 4 4 4 8 C5 11 5 11 9 14 C13 14 13 14 17 14 C19 14 20 14 22 14 C22 14 22 14 25 14 C25 13 25 13 25 12 C27 12 29 11 31 11 C32 12 32 12 32 18 C28 21 28 21 23 22 C23 21 23 21 23 20 C21 20 19 20 17 20 C17 20 17 20 16 23 C16 22 16 20 16 19 C14 19 12 19 10 19 C9 19 9 18 8 18 C8 17 8 17 8 16 C7 16 6 16 5 16 C2 15 -1 14 -4 12 C-5 10 -6 9 -7 7 C-11 5 -15 4 -19 3 C-19 2 -18 1 -18 0 C-11 -2 -7 -2 0 0 Z " fill="#BCBFCC" transform="translate(155,309)"/>
<path d="M0 0 C9 0 9 0 13 3 C13 4 13 4 15 6 C15 7 14 7 14 8 C15 8 16 8 17 8 C17 9 18 10 18 11 C17 11 16 12 15 12 C14 13 14 15 13 16 C12 16 12 17 11 17 C11 19 10 22 10 24 C9 24 8 24 7 24 C6 25 6 27 5 28 C4 28 3 29 2 29 C2 27 2 26 2 24 C1 24 1 24 -2 26 C-3 25 -4 25 -5 24 C-4 19 -4 19 -1 14 C1 10 1 10 0 6 C0 5 1 4 1 3 C0 3 -1 2 -2 2 C-1 1 -1 1 0 0 Z " fill="#757DD9" transform="translate(493,115)"/>
<path d="M0 0 C1 0 3 0 4 0 C4 3 3 5 3 8 C2 8 2 8 1 8 C1 9 1 9 1 10 C1 10 1 10 -1 11 C-1 17 -1 20 1 25 C1 27 1 28 1 30 C-1 31 -2 33 -4 34 C-5 38 -5 38 -4 42 C-4 44 -4 46 -4 48 C-4 49 -4 50 -4 51 C-4 54 -4 54 -5 58 C-5 60 -5 61 -5 63 C-5 68 -5 68 -8 71 C-9 71 -9 70 -10 70 C-10 67 -10 67 -10 63 C-10 62 -10 61 -10 59 C-10 58 -10 56 -10 55 C-10 54 -10 54 -10 51 C-9 25 -9 25 -6 22 C-6 17 -5 13 -5 8 C-4 4 -4 4 0 0 Z " fill="#CED1DB" transform="translate(109,255)"/>
<path d="M0 0 C1 1 2 3 3 4 C1 9 -0 11 -4 15 C-4 15 -4 15 -6 18 C-9 20 -9 20 -14 20 C-18 16 -22 11 -25 6 C-24 6 -22 5 -21 5 C-21 4 -21 3 -21 2 C-20 2 -19 2 -18 3 C-12 3 -6 0 0 0 Z " fill="#F2A32D" transform="translate(262,380)"/>
<path d="M0 0 C4 2 4 2 8 6 C15 13 20 14 30 14 C32 14 33 14 34 14 C37 15 37 15 43 14 C44 12 44 11 45 9 C46 8 48 6 49 5 C50 5 50 5 54 6 C50 13 44 18 36 21 C26 22 19 21 11 15 C9 13 6 10 4 8 C1 7 1 7 -2 6 C-1 1 -1 1 0 0 Z " fill="#D6D8E2" transform="translate(305,312)"/>
<path d="M0 0 C2 4 2 6 1 10 C-3 12 -7 14 -11 16 C-14 18 -17 19 -20 21 C-23 22 -23 22 -26 22 C-26 17 -26 15 -23 11 C-20 9 -18 6 -15 4 C-14 3 -14 3 -13 2 C-9 0 -5 -1 0 0 Z " fill="#BCBFCC" transform="translate(360,448)"/>
<path d="M0 0 C1 0 1 0 2 0 C2 1 2 2 1 3 C1 7 1 11 2 15 C5 15 7 15 10 15 C12 15 13 15 15 15 C19 15 19 15 22 15 C25 14 28 14 32 14 C33 14 34 14 35 14 C37 14 38 14 39 14 C40 14 42 14 43 14 C44 14 45 14 47 14 C47 14 47 14 50 14 C53 14 53 14 57 15 C61 11 62 10 62 4 C63 4 64 4 65 4 C65 7 65 11 65 14 C64 14 63 14 62 14 C61 15 61 17 60 18 C56 18 51 19 47 19 C45 19 44 19 43 19 C40 19 37 19 34 19 C30 19 26 19 21 19 C19 19 16 19 13 19 C13 19 13 19 9 19 C6 19 3 18 0 18 C-1 17 -1 15 -2 14 C-3 14 -4 14 -5 14 C-5 11 -5 7 -5 4 C-4 4 -3 4 -2 4 C-1 3 -1 1 0 0 Z " fill="#C7C9E5" transform="translate(558,85)"/>
<path d="M0 0 C3 -0 5 -0 8 -0 C10 -0 11 -0 13 -0 C14 -0 15 -0 16 0 C16 1 16 3 16 4 C18 4 19 4 21 4 C21 5 21 5 22 8 C23 8 25 8 26 8 C26 9 25 10 25 11 C24 10 23 10 21 9 C15 6 10 5 3 6 C-8 10 -15 16 -22 26 C-23 27 -24 29 -25 30 C-26 31 -26 32 -27 33 C-28 32 -30 32 -31 31 C-30 27 -30 27 -26 23 C-25 22 -24 21 -23 19 C-17 11 -10 6 -1 2 C-1 1 -0 1 0 0 Z " fill="#D7D9E3" transform="translate(243,319)"/>
<path d="M0 0 C4 0 8 1 12 1 C12 2 11 4 11 5 C9 5 8 5 6 5 C6 6 6 6 6 7 C7 7 8 8 9 8 C9 9 8 10 8 11 C9 11 10 11 11 11 C19 11 24 11 31 15 C31 15 31 16 31 16 C27 16 23 16 19 16 C19 16 19 16 16 16 C13 16 10 16 7 16 C6 15 6 13 5 12 C1 12 -2 12 -6 12 C-10 12 -13 12 -17 12 C-18 11 -18 11 -19 10 C-19 9 -19 8 -19 7 C-15 6 -11 6 -7 6 C-3 6 -3 6 2 4 C1 3 1 1 0 0 Z " fill="#E5E6EB" transform="translate(99,547)"/>
<path d="M0 0 C1 0 1 0 5 2 C6 8 6 12 3 17 C2 18 2 19 1 20 C1 21 1 21 1 22 C2 22 3 23 4 23 C4 26 4 26 3 29 C-4 33 -4 33 -8 33 C-9 27 -9 24 -6 18 C-6 17 -6 15 -6 14 C-5 9 -4 4 0 0 Z " fill="#60677A" transform="translate(371,437)"/>
<path d="M0 0 C1 0 1 0 4 0 C8 0 8 0 11 2 C10 3 10 3 9 3 C10 5 11 6 13 7 C12 8 11 9 10 10 C11 11 12 11 13 11 C13 12 13 13 13 13 C9 15 7 14 4 12 C4 12 4 11 4 10 C1 11 -1 11 -3 11 C-4 12 -4 13 -4 13 C-10 13 -10 13 -13 11 C-13 11 -13 11 -15 8 C-14 4 -14 4 -12 2 C-7 0 -5 -0 0 0 Z " fill="#4E55CD" transform="translate(470.1875,111.625)"/>
<path d="M0 0 C15 5 15 5 19 11 C19 15 19 19 19 23 C19 24 19 24 19 27 C19 29 19 32 19 35 C14 33 14 33 12 30 C11 26 10 22 9 18 C7 11 5 7 0 2 C0 1 0 1 0 0 Z " fill="#B2B5C1" transform="translate(469,393)"/>
<path d="M0 0 C2 0 3 1 5 1 C6 2 7 2 8 3 C8 3 8 3 8 4 C3 6 -0 6 -6 5 C-7 4 -8 3 -9 3 C-12 1 -14 1 -18 3 C-19 4 -21 5 -23 6 C-36 11 -36 11 -44 9 C-45 9 -46 9 -48 8 C-49 8 -50 8 -51 8 C-51 7 -51 6 -51 6 C-48 5 -45 5 -43 4 C-6 -2 -6 -2 0 0 Z " fill="#E7E8ED" transform="translate(177.5625,542.4375)"/>
<path d="M0 0 C1 1 1 1 2 2 C7 2 11 2 16 2 C17 3 17 3 20 3 C21 4 21 6 22 7 C26 7 26 7 31 7 C34 7 37 7 40 7 C42 9 42 9 42 12 C34 12 27 12 20 10 C20 9 20 9 20 8 C17 8 14 8 11 8 C10 8 10 8 6 8 C0 8 -3 9 -7 13 C-8 13 -9 14 -10 15 C-11 15 -11 14 -12 14 C-11 9 -9 8 -5 5 C-4 4 -3 3 -2 2 C-2 1 -1 1 0 0 Z " fill="#E2E3EA" transform="translate(458,522)"/>
<path d="M0 0 C1 1 2 3 3 4 C2 9 1 10 -3 14 C-3 15 -4 16 -4 17 C-6 20 -8 22 -11 25 C-12 26 -12 26 -13 27 C-17 27 -17 27 -20 27 C-20 24 -20 24 -20 20 C-18 17 -18 17 -15 15 C-11 11 -11 11 -9 8 C-8 8 -8 8 -7 8 C-7 6 -6 5 -6 3 C-5 3 -5 2 -4 2 C-3 2 -2 3 -1 3 C-1 2 -0 1 0 0 Z " fill="#6A73D8" transform="translate(485,140)"/>
<path d="M0 0 C7 4 13 11 17 18 C18 19 19 21 20 22 C26 31 30 41 34 52 C34 52 34 52 32 53 C31 52 29 52 28 51 C28 49 27 46 27 44 C26 43 24 41 23 40 C23 38 22 37 22 35 C21 34 21 34 20 33 C20 32 20 30 20 29 C19 28 17 28 16 27 C15 25 14 23 13 21 C12 20 11 18 10 17 C8 13 8 13 8 9 C6 9 5 8 3 8 C0 4 0 4 0 0 Z " fill="#D7D9E3" transform="translate(371,183)"/>
<path d="M0 0 C2 3 2 3 2 6 C1 6 0 7 -1 7 C-1 11 -2 14 -2 18 C-3 22 -3 22 -5 24 C-10 26 -10 26 -15 26 C-18 24 -18 24 -19 21 C-18 19 -18 19 -15 16 C-14 15 -13 13 -12 12 C-10 11 -9 9 -8 8 C-7 7 -6 6 -5 5 C-3 2 -3 2 0 0 Z " fill="#F19E1F" transform="translate(240,340)"/>
<path d="M0 0 C1 0 1 0 2 0 C2 1 2 2 2 3 C3 3 5 4 6 4 C9 7 11 10 13 13 C14 14 14 15 15 16 C18 20 19 23 19 28 C18 32 17 35 14 38 C13 39 12 41 11 42 C10 42 8 41 7 41 C8 40 8 38 9 37 C12 30 12 24 9 17 C7 13 7 13 3 9 C0 6 0 6 -1 1 C-1 1 -0 0 0 0 Z " fill="#D7D9E3" transform="translate(178,452)"/>
<path d="M0 0 C4 -1 8 -0 12 0 C12 2 13 3 13 5 C12 5 11 6 10 6 C9 7 9 9 8 10 C7 10 7 10 6 10 C5 11 5 13 4 14 C3 15 2 17 1 18 C-3 17 -4 15 -6 12 C-6 11 -6 11 -6 10 C-7 10 -8 9 -9 9 C-9 7 -8 6 -8 4 C-6 4 -4 4 -2 4 C-1 3 -1 1 0 0 Z " fill="#ADB0E4" transform="translate(546,145)"/>
<path d="M0 0 C1 1 2 2 3 3 C3 3 3 4 3 4 C1 4 -0 4 -2 5 C-11 6 -20 9 -28 13 C-33 15 -37 15 -42 14 C-43 13 -43 12 -44 11 C-42 11 -41 11 -39 11 C-33 10 -33 10 -28 7 C-27 7 -26 7 -25 6 C-24 6 -23 6 -22 6 C-22 5 -21 4 -21 3 C-20 3 -18 3 -16 3 C-16 3 -16 3 -12 3 C-12 2 -11 0 -11 -1 C-7 -3 -4 -1 0 0 Z " fill="#D7D9E3" transform="translate(147,408)"/>
<path d="M0 0 C2 -0 3 -0 5 -0 C9 0 9 0 12 2 C13 5 13 5 12 9 C10 12 8 15 5 18 C4 20 3 21 1 23 C0 24 -1 25 -2 26 C-2 26 -2 26 -3 26 C-3 24 -3 22 -3 19 C-2 19 -1 19 0 19 C1 18 2 17 2 15 C3 15 4 15 4 15 C5 14 6 13 6 11 C7 11 8 11 8 10 C8 9 8 8 8 6 C8 6 8 6 4 6 C2 6 -1 6 -3 6 C-3 6 -3 6 -6 6 C-9 6 -9 6 -14 5 C-14 4 -15 3 -16 1 C-10 0 -5 0 0 0 Z " fill="#E6E7E9" transform="translate(575.6875,41.8125)"/>
</svg>
