<?xml version="1.0" encoding="UTF-8"?>
<!-- Generator: visioncortex VTracer 0.6.12 -->
<svg version="1.1" xmlns="http://www.w3.org/2000/svg" width="648" height="656">
<path d="M0 0 C3 -1 3 -1 6 -1 C8 -1 9 -1 11 -1 C11 -1 11 -1 15 -1 C17 -1 18 -1 20 -1 C23 -1 26 -1 29 -1 C34 -1 39 -1 44 -1 C47 -1 50 -1 53 -1 C54 -1 56 -1 57 -1 C59 -1 60 -1 62 -1 C63 -1 64 -1 65 -1 C66 -0 67 -0 68 0 C69 1 69 3 70 4 C73 4 73 4 77 4 C81 4 81 4 84 4 C85 5 85 7 86 8 C88 8 89 8 91 8 C93 8 94 8 96 8 C97 9 97 11 98 12 C100 12 102 12 104 12 C105 13 105 15 106 16 C108 16 110 16 112 16 C113 17 113 19 114 20 C115 20 115 20 118 22 C118 23 118 23 118 24 C120 24 122 24 124 24 C125 25 125 27 126 28 C127 28 127 28 130 30 C130 31 130 31 130 32 C132 32 134 32 136 32 C137 33 137 35 138 36 C139 37 141 37 142 38 C142 39 142 39 142 40 C143 41 145 41 146 42 C146 43 146 43 146 44 C147 45 149 45 150 46 C150 47 150 47 150 48 C151 49 153 49 154 50 C154 51 154 51 154 52 C155 52 156 52 157 52 C157 53 157 54 157 55 C158 59 158 59 162 62 C162 63 162 63 162 64 C163 65 165 65 166 66 C166 67 166 67 166 68 C167 68 168 68 169 68 C169 69 169 70 169 71 C170 73 170 74 170 75 C171 75 172 76 173 76 C173 78 174 81 174 83 C175 83 176 84 177 84 C177 86 178 89 178 91 C179 91 180 92 181 92 C181 94 182 97 182 99 C183 99 184 100 185 100 C185 104 186 107 186 111 C187 111 188 112 189 112 C189 116 190 119 190 123 C191 123 192 124 193 124 C193 128 194 131 194 135 C195 135 196 136 197 136 C197 140 198 144 198 148 C198 149 198 150 198 151 C199 151 200 152 201 152 C201 155 201 155 201 159 C201 160 201 162 201 163 C201 166 202 169 202 172 C202 173 202 175 202 176 C202 177 202 179 202 180 C202 181 202 182 202 183 C203 183 204 184 205 184 C205 188 205 188 205 193 C205 194 205 196 205 198 C205 202 206 205 206 209 C206 211 206 213 206 214 C206 216 206 218 206 219 C206 221 206 222 206 223 C207 223 208 224 209 224 C209 229 209 234 210 239 C210 242 210 244 210 247 C211 247 212 248 213 248 C213 252 214 256 214 260 C214 261 214 262 214 263 C215 263 216 264 217 264 C217 268 218 272 218 276 C218 277 218 278 218 279 C219 279 220 280 221 280 C221 282 222 285 222 287 C223 287 224 288 225 288 C225 290 226 293 226 295 C227 295 228 296 229 296 C229 298 230 301 230 303 C231 303 232 304 233 304 C233 306 234 309 234 311 C235 311 236 312 237 312 C237 313 237 314 237 315 C238 319 238 319 242 322 C242 323 242 323 242 324 C243 325 245 325 246 326 C246 327 246 327 246 328 C247 329 249 329 250 330 C250 331 250 331 250 332 C251 333 253 333 254 334 C254 335 254 335 254 336 C256 336 258 336 260 336 C261 337 261 339 262 340 C264 340 265 340 267 340 C269 340 270 340 272 340 C273 341 273 343 274 344 C278 344 283 344 287 344 C291 344 296 344 300 344 C301 345 301 347 302 348 C306 348 306 348 311 348 C316 348 316 348 320 348 C321 349 321 351 322 352 C323 353 325 353 326 354 C326 355 326 355 326 356 C327 357 329 357 330 358 C330 359 330 359 330 360 C331 361 333 361 334 362 C334 363 334 363 334 364 C335 364 336 364 337 364 C337 368 337 371 337 375 C337 376 337 377 337 378 C337 381 337 383 337 386 C336 386 335 387 334 387 C333 391 333 391 333 394 C332 394 331 394 330 394 C329 395 329 397 328 398 C327 398 327 398 326 398 C325 399 325 401 324 402 C323 402 323 402 322 402 C321 403 321 405 320 406 C317 407 317 407 314 407 C314 408 314 410 314 411 C315 412 316 412 317 413 C317 418 317 418 317 424 C317 426 317 427 317 429 C317 430 317 430 317 434 C316 434 315 434 314 434 C313 435 313 437 312 438 C311 438 311 438 310 438 C309 439 309 441 308 442 C307 442 307 442 306 442 C305 443 305 445 304 446 C303 446 303 446 302 446 C301 447 301 449 300 450 C298 450 296 450 294 450 C293 451 293 453 292 454 C289 454 285 454 282 454 C281 455 281 457 280 458 C275 459 275 459 270 459 C270 460 270 462 270 463 C274 463 277 464 281 464 C281 465 281 465 281 466 C277 466 273 467 269 467 C269 469 269 472 269 474 C268 474 267 474 266 474 C265 475 265 477 264 478 C263 478 263 478 262 478 C261 479 261 481 260 482 C258 482 256 482 254 482 C253 483 253 485 252 486 C250 486 248 486 246 486 C245 487 245 489 244 490 C238 490 233 490 227 490 C224 490 221 490 218 490 C217 491 217 493 216 494 C215 494 215 495 214 495 C214 497 213 500 213 502 C212 502 211 502 210 502 C209 503 209 505 208 506 C207 506 207 506 206 506 C205 507 205 509 204 510 C203 510 203 510 202 510 C201 511 201 513 200 514 C199 514 199 514 198 514 C197 515 197 517 196 518 C194 518 192 518 190 518 C189 519 189 521 188 522 C187 522 187 522 186 522 C185 523 185 525 184 526 C183 526 183 526 182 526 C181 527 181 529 180 530 C178 530 176 530 174 530 C173 531 173 533 172 534 C170 534 168 534 166 534 C165 535 165 537 164 538 C162 538 160 538 158 538 C157 539 157 541 156 542 C154 542 152 542 150 542 C149 543 149 545 148 546 C145 547 145 547 142 547 C142 550 142 552 142 555 C142 555 142 555 145 555 C146 555 148 555 149 555 C150 555 150 555 153 555 C154 556 155 556 156 556 C157 557 157 559 158 560 C160 560 162 560 164 560 C165 561 165 563 166 564 C167 564 168 565 169 565 C169 566 170 566 170 567 C171 567 173 568 174 568 C174 567 175 565 175 564 C178 565 178 565 179 567 C182 567 184 567 187 567 C188 567 188 567 192 567 C196 567 199 567 203 567 C204 567 204 567 208 567 C209 567 211 567 212 567 C213 568 213 568 216 568 C217 569 217 571 218 572 C222 572 222 572 227 572 C232 572 232 572 236 572 C237 573 237 575 238 576 C240 576 241 576 243 576 C245 576 246 576 248 576 C249 577 249 579 250 580 C251 580 252 581 253 581 C253 583 252 584 252 586 C251 586 251 586 250 586 C249 587 249 589 248 590 C245 590 241 590 238 590 C237 591 237 593 236 594 C231 594 227 594 222 594 C221 594 221 594 218 594 C217 595 217 597 216 598 C210 598 205 598 199 598 C196 598 193 598 190 598 C189 599 189 601 188 602 C184 602 184 602 178 602 C177 602 177 602 175 602 C170 602 166 602 162 602 C159 602 155 602 152 602 C151 602 151 602 146 602 C145 602 144 602 142 602 C141 603 141 605 140 606 C137 607 137 607 132 607 C131 607 129 607 128 607 C127 607 127 607 122 607 C120 607 118 607 117 607 C111 607 106 607 101 607 C96 607 90 607 85 607 C76 607 67 607 58 607 C47 606 37 607 27 607 C18 607 9 607 -0 607 C-6 607 -11 607 -16 607 C-22 607 -28 607 -34 607 C-36 607 -38 607 -40 607 C-41 607 -43 607 -44 607 C-46 607 -47 607 -49 607 C-50 606 -51 606 -52 606 C-53 605 -53 603 -54 602 C-58 602 -62 602 -66 602 C-67 602 -68 602 -70 602 C-73 602 -77 602 -81 602 C-86 602 -91 602 -96 602 C-97 602 -97 602 -100 602 C-103 602 -103 602 -108 602 C-109 601 -109 599 -110 598 C-114 598 -119 598 -123 598 C-127 598 -132 598 -136 598 C-137 597 -137 595 -138 594 C-142 594 -142 594 -147 594 C-152 594 -152 594 -156 594 C-157 593 -157 591 -158 590 C-160 590 -162 590 -164 590 C-165 589 -165 587 -166 586 C-168 586 -170 586 -172 586 C-172 584 -173 583 -173 581 C-172 581 -171 580 -170 580 C-169 579 -169 577 -168 576 C-165 576 -161 576 -158 576 C-157 575 -157 573 -156 572 C-151 572 -147 572 -142 572 C-141 572 -141 572 -138 572 C-137 571 -137 569 -136 568 C-133 568 -133 568 -128 568 C-127 568 -125 568 -124 568 C-121 568 -117 568 -114 568 C-113 568 -111 568 -110 568 C-109 568 -109 568 -105 568 C-104 568 -103 568 -102 568 C-101 567 -101 565 -100 564 C-95 564 -91 564 -86 564 C-85 564 -85 564 -82 564 C-81 563 -81 561 -80 560 C-78 560 -76 560 -74 560 C-73 559 -73 557 -72 556 C-68 556 -65 556 -61 556 C-61 556 -61 556 -58 556 C-57 555 -57 553 -56 552 C-55 552 -55 551 -54 551 C-54 550 -54 548 -54 547 C-56 546 -59 546 -61 545 C-61 544 -62 543 -62 542 C-63 542 -63 542 -67 542 C-69 542 -70 542 -72 542 C-73 541 -73 539 -74 538 C-76 538 -78 538 -80 538 C-81 537 -81 535 -82 534 C-83 533 -85 533 -86 532 C-86 531 -86 531 -86 530 C-88 530 -90 530 -92 530 C-93 529 -93 527 -94 526 C-95 525 -97 525 -98 524 C-98 523 -98 523 -98 522 C-100 522 -102 522 -104 522 C-105 521 -105 519 -106 518 C-107 517 -109 517 -110 516 C-110 515 -110 515 -110 514 C-111 513 -113 513 -114 512 C-114 511 -114 511 -114 510 C-115 509 -117 509 -118 508 C-118 507 -118 507 -118 506 C-119 505 -121 505 -122 504 C-122 503 -122 503 -122 502 C-123 502 -124 502 -125 502 C-125 501 -125 500 -125 499 C-126 495 -126 495 -130 492 C-130 491 -130 491 -130 490 C-131 490 -132 490 -133 490 C-138 490 -142 490 -147 490 C-148 490 -150 490 -152 490 C-153 490 -153 490 -156 490 C-158 490 -159 490 -161 490 C-161 490 -161 490 -164 490 C-165 489 -165 487 -166 486 C-168 486 -170 486 -172 486 C-173 485 -173 483 -174 482 C-176 482 -178 482 -180 482 C-181 481 -181 479 -182 478 C-183 477 -185 477 -186 476 C-186 475 -186 475 -186 474 C-187 473 -189 473 -190 472 C-190 471 -190 471 -190 470 C-191 470 -192 470 -193 470 C-193 468 -193 466 -193 465 C-193 463 -194 461 -194 459 C-197 458 -197 458 -201 457 C-201 457 -201 457 -202 454 C-204 454 -205 454 -207 454 C-209 454 -210 454 -212 454 C-212 453 -212 453 -214 450 C-216 450 -218 450 -220 450 C-220 449 -220 449 -222 446 C-223 445 -225 445 -226 444 C-226 443 -226 443 -226 442 C-228 442 -231 442 -233 442 C-233 441 -233 440 -233 439 C-234 435 -234 435 -238 432 C-238 431 -238 431 -238 430 C-239 430 -240 430 -241 430 C-241 428 -241 425 -241 423 C-241 422 -241 420 -241 419 C-241 418 -241 417 -241 416 C-240 416 -239 415 -238 415 C-237 411 -237 411 -238 407 C-241 406 -241 406 -245 405 C-245 405 -245 405 -246 402 C-247 401 -249 401 -250 400 C-250 399 -250 399 -250 398 C-251 398 -252 398 -253 398 C-253 397 -253 396 -253 395 C-254 393 -254 392 -254 391 C-255 391 -256 390 -257 390 C-257 388 -258 385 -258 383 C-259 383 -260 382 -261 382 C-261 377 -261 377 -261 372 C-260 372 -259 371 -258 371 C-258 367 -257 364 -257 360 C-256 360 -255 360 -254 360 C-254 359 -254 359 -252 356 C-251 356 -251 356 -250 356 C-250 355 -250 355 -248 352 C-246 352 -244 352 -242 352 C-242 351 -242 351 -240 348 C-236 348 -233 348 -229 348 C-228 348 -227 348 -226 348 C-225 347 -225 345 -224 344 C-218 344 -213 344 -207 344 C-204 344 -201 344 -198 344 C-197 343 -197 341 -196 340 C-192 340 -189 340 -185 340 C-184 340 -183 340 -182 340 C-181 339 -181 337 -180 336 C-178 336 -176 336 -174 336 C-173 335 -173 333 -172 332 C-171 332 -171 332 -170 332 C-169 331 -169 329 -168 328 C-167 328 -167 328 -166 328 C-165 327 -165 325 -164 324 C-163 324 -163 323 -162 323 C-162 321 -162 319 -162 318 C-161 317 -161 317 -161 312 C-160 312 -159 311 -158 311 C-158 307 -158 307 -158 302 C-157 296 -157 296 -157 292 C-156 292 -155 291 -154 291 C-154 288 -154 288 -154 284 C-153 279 -153 279 -153 276 C-152 276 -151 275 -150 275 C-150 272 -150 272 -150 268 C-149 263 -149 263 -149 260 C-148 260 -147 259 -146 259 C-146 255 -146 251 -146 248 C-145 244 -145 240 -145 236 C-144 236 -143 235 -142 235 C-142 231 -142 231 -142 226 C-142 225 -142 225 -142 220 C-142 218 -142 216 -142 214 C-141 209 -141 205 -141 201 C-141 200 -141 198 -141 196 C-141 195 -141 193 -141 192 C-140 192 -139 191 -138 191 C-138 188 -138 188 -138 183 C-138 182 -138 182 -138 179 C-138 177 -138 175 -138 174 C-137 170 -137 167 -137 164 C-137 162 -137 161 -137 159 C-137 158 -137 157 -137 156 C-136 156 -135 155 -134 155 C-134 151 -134 151 -134 146 C-133 140 -133 140 -133 136 C-132 136 -131 135 -130 135 C-130 133 -130 131 -130 130 C-129 128 -129 126 -129 124 C-128 124 -127 123 -126 123 C-126 121 -126 119 -126 118 C-125 116 -125 114 -125 112 C-124 112 -123 111 -122 111 C-122 109 -122 107 -122 106 C-121 104 -121 102 -121 100 C-120 100 -119 99 -118 99 C-118 98 -118 97 -118 96 C-117 94 -117 93 -117 92 C-116 92 -115 91 -114 91 C-114 90 -114 89 -114 88 C-113 86 -113 85 -113 84 C-112 84 -111 83 -110 83 C-109 79 -109 79 -109 76 C-108 76 -107 76 -106 76 C-106 75 -106 75 -104 72 C-103 72 -103 71 -102 71 C-102 69 -101 66 -101 64 C-100 64 -99 64 -98 64 C-97 63 -97 61 -96 60 C-95 60 -95 60 -94 60 C-93 59 -93 57 -92 56 C-91 56 -91 56 -90 56 C-89 55 -89 53 -88 52 C-87 52 -87 52 -86 52 C-85 51 -85 49 -84 48 C-83 48 -83 48 -82 48 C-81 47 -81 45 -80 44 C-79 44 -79 44 -78 44 C-77 43 -77 41 -76 40 C-75 40 -75 40 -74 40 C-73 39 -73 37 -72 36 C-71 36 -71 36 -70 36 C-69 35 -69 33 -68 32 C-67 32 -67 32 -66 32 C-65 31 -65 29 -64 28 C-62 28 -60 28 -58 28 C-57 27 -57 25 -56 24 C-55 24 -55 24 -54 24 C-53 23 -53 21 -52 20 C-50 20 -48 20 -46 20 C-45 19 -45 17 -44 16 C-42 16 -40 16 -38 16 C-37 15 -37 13 -36 12 C-34 12 -32 12 -30 12 C-29 11 -29 9 -28 8 C-25 8 -21 8 -18 8 C-17 7 -17 5 -16 4 C-12 4 -9 4 -5 4 C-4 4 -3 4 -2 4 C-1 3 -1 1 0 0 Z " fill="#C6C9D3" transform="translate(286,25)"/>
<path d="M0 0 C1 0 1 0 4 1 C5 5 5 5 7 10 C8 13 9 15 10 18 C10 18 10 18 11 22 C12 23 12 24 13 26 C13 27 14 29 14 30 C14 31 14 31 16 34 C16 35 16 37 17 38 C18 41 18 41 20 45 C20 49 20 49 19 52 C18 52 17 52 16 52 C10 52 7 55 2 58 C0 58 -1 59 -3 59 C-4 60 -4 62 -5 63 C-7 65 -7 65 -10 67 C-16 72 -19 76 -21 84 C-15 84 -15 84 -11 81 C-9 82 -8 82 -6 83 C-5 88 -6 91 -7 96 C-8 99 -8 102 -8 106 C-8 112 -9 116 -12 121 C-12 122 -12 124 -12 125 C-13 128 -13 128 -15 131 C-16 131 -17 132 -18 132 C-23 130 -24 128 -27 123 C-28 123 -30 124 -31 124 C-32 131 -32 137 -32 144 C-32 146 -32 148 -32 149 C-32 154 -32 154 -30 157 C-30 158 -30 158 -29 163 C-28 169 -27 174 -24 179 C-23 183 -23 186 -23 190 C-20 201 -10 211 -1 218 C2 220 4 221 7 223 C8 225 8 225 8 231 C-3 250 -28 263 -47 272 C-48 273 -49 273 -50 274 C-54 275 -58 275 -62 274 C-63 274 -63 273 -64 273 C-73 273 -79 277 -86 282 C-87 282 -88 282 -89 282 C-89 283 -89 283 -89 284 C-90 284 -91 284 -92 284 C-93 285 -94 285 -95 285 C-96 285 -98 285 -99 285 C-102 286 -102 286 -106 288 C-134 293 -167 292 -195 288 C-197 288 -199 288 -200 287 C-212 286 -221 282 -231 276 C-235 274 -235 274 -240 273 C-240 273 -241 274 -241 274 C-255 276 -267 268 -278 260 C-279 259 -280 259 -281 258 C-310 237 -324 210 -334 176 C-335 174 -335 173 -336 171 C-337 165 -337 160 -337 154 C-337 152 -337 151 -337 150 C-337 137 -335 125 -333 112 C-333 110 -332 109 -332 107 C-331 103 -331 99 -330 95 C-330 94 -329 92 -329 91 C-328 85 -327 80 -326 74 C-325 68 -324 62 -324 55 C-316 59 -316 59 -313 61 C-309 61 -309 61 -305 61 C-304 61 -304 61 -301 60 C-297 60 -297 60 -293 59 C-289 61 -289 61 -288 64 C-288 65 -287 66 -287 67 C-280 71 -267 69 -260 67 C-256 65 -253 63 -250 61 C-250 59 -249 58 -249 56 C-253 51 -258 48 -264 46 C-267 46 -271 45 -274 45 C-277 45 -277 45 -280 43 C-280 42 -280 42 -280 41 C-281 41 -281 41 -282 41 C-283 40 -285 38 -286 37 C-287 36 -288 35 -289 35 C-292 32 -294 30 -295 26 C-295 21 -295 21 -293 18 C-285 12 -279 12 -270 12 C-269 12 -269 12 -265 12 C-264 12 -262 12 -261 12 C-260 12 -260 12 -257 12 C-252 13 -251 15 -248 18 C-247 19 -246 21 -246 22 C-243 27 -240 30 -235 33 C-235 34 -235 34 -233 38 C-233 39 -233 39 -235 42 C-235 43 -236 44 -236 45 C-235 46 -234 47 -233 48 C-229 46 -226 44 -222 41 C-216 41 -216 41 -213 43 C-210 46 -210 46 -207 51 C-203 53 -197 52 -193 53 C-189 53 -189 53 -186 55 C-186 56 -186 56 -186 57 C-185 57 -184 58 -183 58 C-182 60 -181 63 -180 65 C-177 68 -177 68 -173 68 C-168 68 -167 66 -163 63 C-161 62 -160 62 -158 61 C-157 60 -157 58 -156 57 C-155 57 -155 57 -154 57 C-153 55 -153 54 -152 52 C-144 45 -144 45 -137 44 C-133 45 -133 45 -130 47 C-130 48 -130 48 -130 49 C-128 49 -126 49 -124 49 C-123 50 -122 51 -121 52 C-121 53 -121 53 -121 54 C-120 54 -119 55 -118 55 C-118 56 -118 56 -118 57 C-117 57 -117 57 -116 57 C-115 58 -114 59 -113 60 C-110 60 -110 60 -107 59 C-106 56 -106 56 -106 53 C-107 52 -108 50 -109 49 C-108 48 -106 46 -105 45 C-102 45 -100 45 -97 45 C-97 44 -96 42 -96 41 C-95 41 -95 41 -94 41 C-94 40 -93 38 -93 37 C-88 37 -83 37 -77 37 C-76 37 -75 37 -73 37 C-73 36 -72 34 -72 33 C-71 33 -71 33 -70 33 C-69 31 -69 30 -68 28 C-63 25 -58 25 -52 24 C-51 23 -50 23 -49 22 C-45 20 -41 21 -36 21 C-35 21 -34 21 -33 21 C-32 20 -32 18 -31 17 C-30 17 -30 17 -29 17 C-29 15 -28 14 -28 12 C-27 11 -27 11 -24 11 C-21 11 -18 11 -15 11 C-5 11 -5 11 -3 9 C-3 7 -3 5 -3 3 C-2 3 -2 3 -1 3 C-1 2 -0 1 0 0 Z " fill="#C6C9D3" transform="translate(481,283)"/>
<path d="M0 0 C3 -1 3 -1 6 -1 C8 -1 9 -1 11 -1 C11 -1 11 -1 15 -1 C17 -1 18 -1 20 -1 C23 -1 26 -1 29 -1 C34 -1 39 -1 44 -1 C47 -1 50 -1 53 -1 C54 -1 56 -1 57 -1 C59 -1 60 -1 62 -1 C63 -1 64 -1 65 -1 C66 -0 67 -0 68 0 C69 1 69 3 70 4 C73 4 73 4 77 4 C81 4 81 4 84 4 C85 5 85 7 86 8 C88 8 89 8 91 8 C93 8 94 8 96 8 C97 9 97 11 98 12 C100 12 102 12 104 12 C105 13 105 15 106 16 C108 16 110 16 112 16 C113 17 113 19 114 20 C115 20 115 20 118 22 C118 23 118 23 118 24 C120 24 122 24 124 24 C125 25 125 27 126 28 C127 28 127 28 130 30 C130 31 130 31 130 32 C132 32 134 32 136 32 C137 33 137 35 138 36 C139 37 141 37 142 38 C142 39 142 39 142 40 C143 41 145 41 146 42 C146 43 146 43 146 44 C147 45 149 45 150 46 C150 47 150 47 150 48 C151 49 153 49 154 50 C154 51 154 51 154 52 C155 52 156 52 157 52 C157 53 157 54 157 55 C158 59 158 59 162 62 C162 63 162 63 162 64 C163 65 165 65 166 66 C166 67 166 67 166 68 C167 68 168 68 169 68 C169 69 169 70 169 71 C170 73 170 74 170 75 C171 75 172 76 173 76 C173 78 174 81 174 83 C175 83 176 84 177 84 C177 86 178 89 178 91 C179 91 180 92 181 92 C181 94 182 97 182 99 C183 99 184 100 185 100 C185 104 186 107 186 111 C187 111 188 112 189 112 C189 116 190 119 190 123 C191 123 192 124 193 124 C193 128 194 131 194 135 C195 135 196 136 197 136 C197 140 198 144 198 148 C198 149 198 150 198 151 C199 151 200 152 201 152 C201 155 201 155 201 159 C201 160 201 162 201 163 C201 166 202 169 202 172 C202 173 202 175 202 176 C202 177 202 179 202 180 C202 181 202 182 202 183 C203 183 204 184 205 184 C205 188 205 188 205 193 C205 194 205 196 205 198 C205 202 206 205 206 209 C206 211 206 213 206 214 C206 216 206 218 206 219 C206 221 206 222 206 223 C207 223 208 224 209 224 C209 229 209 234 210 239 C210 242 210 244 210 247 C211 247 212 248 213 248 C213 252 214 256 214 260 C214 261 214 262 214 263 C215 263 216 264 217 264 C217 268 218 272 218 276 C218 277 218 278 218 279 C219 279 220 280 221 280 C221 282 222 285 222 287 C223 287 224 288 225 288 C225 290 226 293 226 295 C227 295 228 296 229 296 C229 298 230 301 230 303 C231 303 232 304 233 304 C233 306 234 309 234 311 C235 311 236 312 237 312 C237 313 237 314 237 315 C238 319 238 319 242 322 C242 323 242 323 242 324 C243 325 245 325 246 326 C246 327 246 327 246 328 C247 329 249 329 250 330 C250 331 250 331 250 332 C251 333 253 333 254 334 C254 335 254 335 254 336 C256 336 258 336 260 336 C261 337 261 339 262 340 C264 340 265 340 267 340 C269 340 270 340 272 340 C273 341 273 343 274 344 C278 344 283 344 287 344 C291 344 296 344 300 344 C301 345 301 347 302 348 C306 348 306 348 311 348 C316 348 316 348 320 348 C321 349 321 351 322 352 C323 353 325 353 326 354 C326 355 326 355 326 356 C327 357 329 357 330 358 C330 359 330 359 330 360 C331 361 333 361 334 362 C334 363 334 363 334 364 C335 364 336 364 337 364 C337 368 337 371 337 375 C337 376 337 377 337 378 C337 381 337 383 337 386 C336 386 335 387 334 387 C333 391 333 391 333 394 C332 394 331 394 330 394 C329 395 329 397 328 398 C327 398 327 398 326 398 C325 399 325 401 324 402 C323 402 323 402 322 402 C321 403 321 405 320 406 C317 407 317 407 314 407 C314 408 314 410 314 411 C315 412 316 412 317 413 C317 418 317 418 317 424 C317 426 317 427 317 429 C317 430 317 430 317 434 C316 434 315 434 314 434 C313 435 313 437 312 438 C311 438 311 438 310 438 C309 439 309 441 308 442 C307 442 307 442 306 442 C305 443 305 445 304 446 C303 446 303 446 302 446 C301 447 301 449 300 450 C298 450 296 450 294 450 C293 451 293 453 292 454 C289 454 285 454 282 454 C281 455 281 457 280 458 C275 459 275 459 270 459 C270 460 270 462 270 463 C274 463 277 464 281 464 C281 465 281 465 281 466 C277 466 273 467 269 467 C269 469 269 472 269 474 C268 474 267 474 266 474 C265 475 265 477 264 478 C263 478 263 478 262 478 C261 479 261 481 260 482 C258 482 256 482 254 482 C253 483 253 485 252 486 C250 486 248 486 246 486 C245 487 245 489 244 490 C238 490 233 490 227 490 C224 490 221 490 218 490 C217 491 217 493 216 494 C215 494 215 495 214 495 C214 497 213 500 213 502 C212 502 211 502 210 502 C209 503 209 505 208 506 C207 506 207 506 206 506 C205 507 205 509 204 510 C203 510 203 510 202 510 C201 511 201 513 200 514 C199 514 199 514 198 514 C197 515 197 517 196 518 C194 518 192 518 190 518 C189 519 189 521 188 522 C187 522 187 522 186 522 C185 523 185 525 184 526 C183 526 183 526 182 526 C181 527 181 529 180 530 C178 530 176 530 174 530 C173 531 173 533 172 534 C170 534 168 534 166 534 C165 535 165 537 164 538 C162 538 160 538 158 538 C157 539 157 541 156 542 C154 542 152 542 150 542 C149 543 149 545 148 546 C145 547 145 547 142 547 C142 550 142 552 142 555 C142 555 142 555 145 555 C146 555 148 555 149 555 C150 555 150 555 153 555 C154 556 155 556 156 556 C157 557 157 559 158 560 C160 560 162 560 164 560 C165 561 165 563 166 564 C167 564 168 565 169 565 C169 566 170 566 170 567 C171 567 173 568 174 568 C174 567 175 565 175 564 C178 565 178 565 179 567 C182 567 184 567 187 567 C188 567 188 567 192 567 C196 567 199 567 203 567 C204 567 204 567 208 567 C209 567 211 567 212 567 C213 568 213 568 216 568 C217 569 217 571 218 572 C222 572 222 572 227 572 C232 572 232 572 236 572 C237 573 237 575 238 576 C240 576 241 576 243 576 C245 576 246 576 248 576 C249 577 249 579 250 580 C251 580 252 581 253 581 C253 583 252 584 252 586 C251 586 251 586 250 586 C249 587 249 589 248 590 C245 590 241 590 238 590 C237 591 237 593 236 594 C231 594 227 594 222 594 C221 594 221 594 218 594 C217 595 217 597 216 598 C210 598 205 598 199 598 C196 598 193 598 190 598 C189 599 189 601 188 602 C184 602 184 602 178 602 C177 602 177 602 175 602 C170 602 166 602 162 602 C159 602 155 602 152 602 C151 602 151 602 146 602 C145 602 144 602 142 602 C141 603 141 605 140 606 C137 607 137 607 132 607 C131 607 129 607 128 607 C127 607 127 607 122 607 C120 607 118 607 117 607 C111 607 106 607 101 607 C96 607 90 607 85 607 C76 607 67 607 58 607 C47 606 37 607 27 607 C18 607 9 607 -0 607 C-6 607 -11 607 -16 607 C-22 607 -28 607 -34 607 C-36 607 -38 607 -40 607 C-41 607 -43 607 -44 607 C-46 607 -47 607 -49 607 C-50 606 -51 606 -52 606 C-53 605 -53 603 -54 602 C-58 602 -62 602 -66 602 C-67 602 -68 602 -70 602 C-73 602 -77 602 -81 602 C-86 602 -91 602 -96 602 C-97 602 -97 602 -100 602 C-103 602 -103 602 -108 602 C-109 601 -109 599 -110 598 C-114 598 -119 598 -123 598 C-127 598 -132 598 -136 598 C-137 597 -137 595 -138 594 C-142 594 -142 594 -147 594 C-152 594 -152 594 -156 594 C-157 593 -157 591 -158 590 C-160 590 -162 590 -164 590 C-165 589 -165 587 -166 586 C-168 586 -170 586 -172 586 C-172 584 -173 583 -173 581 C-172 581 -171 580 -170 580 C-169 579 -169 577 -168 576 C-165 576 -161 576 -158 576 C-157 575 -157 573 -156 572 C-151 572 -147 572 -142 572 C-141 572 -141 572 -138 572 C-137 571 -137 569 -136 568 C-133 568 -133 568 -128 568 C-127 568 -125 568 -124 568 C-121 568 -117 568 -114 568 C-113 568 -111 568 -110 568 C-109 568 -109 568 -105 568 C-104 568 -103 568 -102 568 C-101 567 -101 565 -100 564 C-95 564 -91 564 -86 564 C-85 564 -85 564 -82 564 C-81 563 -81 561 -80 560 C-78 560 -76 560 -74 560 C-73 559 -73 557 -72 556 C-68 556 -65 556 -61 556 C-61 556 -61 556 -58 556 C-57 555 -57 553 -56 552 C-55 552 -55 551 -54 551 C-54 550 -54 548 -54 547 C-56 546 -59 546 -61 545 C-61 544 -62 543 -62 542 C-63 542 -63 542 -67 542 C-69 542 -70 542 -72 542 C-73 541 -73 539 -74 538 C-76 538 -78 538 -80 538 C-81 537 -81 535 -82 534 C-83 533 -85 533 -86 532 C-86 531 -86 531 -86 530 C-88 530 -90 530 -92 530 C-93 529 -93 527 -94 526 C-95 525 -97 525 -98 524 C-98 523 -98 523 -98 522 C-100 522 -102 522 -104 522 C-105 521 -105 519 -106 518 C-107 517 -109 517 -110 516 C-110 515 -110 515 -110 514 C-111 513 -113 513 -114 512 C-114 511 -114 511 -114 510 C-115 509 -117 509 -118 508 C-118 507 -118 507 -118 506 C-119 505 -121 505 -122 504 C-122 503 -122 503 -122 502 C-123 502 -124 502 -125 502 C-125 501 -125 500 -125 499 C-126 495 -126 495 -130 492 C-130 491 -130 491 -130 490 C-131 490 -132 490 -133 490 C-138 490 -142 490 -147 490 C-148 490 -150 490 -152 490 C-153 490 -153 490 -156 490 C-158 490 -159 490 -161 490 C-161 490 -161 490 -164 490 C-165 489 -165 487 -166 486 C-168 486 -170 486 -172 486 C-173 485 -173 483 -174 482 C-176 482 -178 482 -180 482 C-181 481 -181 479 -182 478 C-183 477 -185 477 -186 476 C-186 475 -186 475 -186 474 C-187 473 -189 473 -190 472 C-190 471 -190 471 -190 470 C-191 470 -192 470 -193 470 C-193 468 -193 466 -193 465 C-193 463 -194 461 -194 459 C-197 458 -197 458 -201 457 C-201 457 -201 457 -202 454 C-204 454 -205 454 -207 454 C-209 454 -210 454 -212 454 C-212 453 -212 453 -214 450 C-216 450 -218 450 -220 450 C-220 449 -220 449 -222 446 C-223 445 -225 445 -226 444 C-226 443 -226 443 -226 442 C-228 442 -231 442 -233 442 C-233 441 -233 440 -233 439 C-234 435 -234 435 -238 432 C-238 431 -238 431 -238 430 C-239 430 -240 430 -241 430 C-241 428 -241 425 -241 423 C-241 422 -241 420 -241 419 C-241 418 -241 417 -241 416 C-240 416 -239 415 -238 415 C-237 411 -237 411 -238 407 C-241 406 -241 406 -245 405 C-245 405 -245 405 -246 402 C-247 401 -249 401 -250 400 C-250 399 -250 399 -250 398 C-251 398 -252 398 -253 398 C-253 397 -253 396 -253 395 C-254 393 -254 392 -254 391 C-255 391 -256 390 -257 390 C-257 388 -258 385 -258 383 C-259 383 -260 382 -261 382 C-261 377 -261 377 -261 372 C-260 372 -259 371 -258 371 C-258 367 -257 364 -257 360 C-256 360 -255 360 -254 360 C-254 359 -254 359 -252 356 C-251 356 -251 356 -250 356 C-250 355 -250 355 -248 352 C-246 352 -244 352 -242 352 C-242 351 -242 351 -240 348 C-236 348 -233 348 -229 348 C-228 348 -227 348 -226 348 C-225 347 -225 345 -224 344 C-218 344 -213 344 -207 344 C-204 344 -201 344 -198 344 C-197 343 -197 341 -196 340 C-192 340 -189 340 -185 340 C-184 340 -183 340 -182 340 C-181 339 -181 337 -180 336 C-178 336 -176 336 -174 336 C-173 335 -173 333 -172 332 C-171 332 -171 332 -170 332 C-169 331 -169 329 -168 328 C-167 328 -167 328 -166 328 C-165 327 -165 325 -164 324 C-163 324 -163 323 -162 323 C-162 321 -162 319 -162 318 C-161 317 -161 317 -161 312 C-160 312 -159 311 -158 311 C-158 307 -158 307 -158 302 C-157 296 -157 296 -157 292 C-156 292 -155 291 -154 291 C-154 288 -154 288 -154 284 C-153 279 -153 279 -153 276 C-152 276 -151 275 -150 275 C-150 272 -150 272 -150 268 C-149 263 -149 263 -149 260 C-148 260 -147 259 -146 259 C-146 255 -146 251 -146 248 C-145 244 -145 240 -145 236 C-144 236 -143 235 -142 235 C-142 231 -142 231 -142 226 C-142 225 -142 225 -142 220 C-142 218 -142 216 -142 214 C-141 209 -141 205 -141 201 C-141 200 -141 198 -141 196 C-141 195 -141 193 -141 192 C-140 192 -139 191 -138 191 C-138 188 -138 188 -138 183 C-138 182 -138 182 -138 179 C-138 177 -138 175 -138 174 C-137 170 -137 167 -137 164 C-137 162 -137 161 -137 159 C-137 158 -137 157 -137 156 C-136 156 -135 155 -134 155 C-134 151 -134 151 -134 146 C-133 140 -133 140 -133 136 C-132 136 -131 135 -130 135 C-130 133 -130 131 -130 130 C-129 128 -129 126 -129 124 C-128 124 -127 123 -126 123 C-126 121 -126 119 -126 118 C-125 116 -125 114 -125 112 C-124 112 -123 111 -122 111 C-122 109 -122 107 -122 106 C-121 104 -121 102 -121 100 C-120 100 -119 99 -118 99 C-118 98 -118 97 -118 96 C-117 94 -117 93 -117 92 C-116 92 -115 91 -114 91 C-114 90 -114 89 -114 88 C-113 86 -113 85 -113 84 C-112 84 -111 83 -110 83 C-109 79 -109 79 -109 76 C-108 76 -107 76 -106 76 C-106 75 -106 75 -104 72 C-103 72 -103 71 -102 71 C-102 69 -101 66 -101 64 C-100 64 -99 64 -98 64 C-97 63 -97 61 -96 60 C-95 60 -95 60 -94 60 C-93 59 -93 57 -92 56 C-91 56 -91 56 -90 56 C-89 55 -89 53 -88 52 C-87 52 -87 52 -86 52 C-85 51 -85 49 -84 48 C-83 48 -83 48 -82 48 C-81 47 -81 45 -80 44 C-79 44 -79 44 -78 44 C-77 43 -77 41 -76 40 C-75 40 -75 40 -74 40 C-73 39 -73 37 -72 36 C-71 36 -71 36 -70 36 C-69 35 -69 33 -68 32 C-67 32 -67 32 -66 32 C-65 31 -65 29 -64 28 C-62 28 -60 28 -58 28 C-57 27 -57 25 -56 24 C-55 24 -55 24 -54 24 C-53 23 -53 21 -52 20 C-50 20 -48 20 -46 20 C-45 19 -45 17 -44 16 C-42 16 -40 16 -38 16 C-37 15 -37 13 -36 12 C-34 12 -32 12 -30 12 C-29 11 -29 9 -28 8 C-25 8 -21 8 -18 8 C-17 7 -17 5 -16 4 C-12 4 -9 4 -5 4 C-4 4 -3 4 -2 4 C-1 3 -1 1 0 0 Z M-73 55 C-74 56 -75 57 -76 58 C-87 70 -95 83 -102 97 C-102 98 -102 98 -104 100 C-116 124 -122 152 -124 179 C-125 188 -125 197 -127 206 C-127 210 -127 214 -127 218 C-128 235 -132 252 -135 269 C-136 270 -136 271 -136 272 C-137 275 -137 277 -138 280 C-142 297 -142 297 -141 304 C-140 305 -140 305 -137 308 C-136 309 -136 309 -135 310 C-136 310 -137 311 -138 311 C-138 313 -139 314 -139 316 C-141 318 -143 320 -146 322 C-149 325 -151 329 -154 333 C-163 346 -180 350 -194 354 C-197 354 -200 355 -203 355 C-236 358 -236 358 -244 368 C-246 374 -246 376 -245 382 C-240 391 -233 396 -223 400 C-216 401 -209 402 -202 402 C-202 405 -202 405 -202 409 C-206 411 -208 412 -212 412 C-217 413 -221 414 -225 418 C-226 421 -226 421 -227 424 C-223 433 -216 438 -207 442 C-199 445 -192 446 -183 447 C-173 447 -173 447 -169 449 C-169 450 -169 452 -169 453 C-172 455 -174 456 -177 458 C-178 460 -178 460 -178 466 C-174 472 -169 474 -162 476 C-158 477 -158 477 -154 477 C-153 477 -152 477 -151 477 C-143 477 -143 477 -138 474 C-139 469 -139 469 -141 464 C-146 454 -150 441 -149 429 C-147 426 -147 426 -145 424 C-144 424 -143 424 -142 424 C-140 428 -140 428 -139 434 C-128 473 -110 502 -74 524 C-70 526 -65 528 -61 530 C-60 531 -58 531 -57 532 C-47 532 -47 532 -43 531 C-40 532 -38 533 -35 535 C-34 535 -32 536 -31 537 C-29 538 -26 539 -24 541 C-21 542 -18 543 -15 543 C-14 544 -13 544 -11 544 C-10 544 -9 544 -8 545 C-6 545 -5 545 -4 545 C12 548 28 548 45 548 C47 548 49 548 51 548 C85 548 85 548 93 544 C95 544 97 543 100 543 C100 543 100 543 103 542 C104 542 105 542 106 542 C106 541 106 541 106 540 C107 540 109 539 110 539 C113 537 117 535 120 533 C126 530 130 530 136 533 C145 533 151 529 158 525 C159 524 160 524 162 523 C175 516 190 506 199 494 C200 494 200 494 201 492 C203 489 203 489 203 483 C200 480 197 478 194 476 C185 469 175 460 172 448 C172 446 172 443 172 440 C171 437 170 434 168 431 C167 427 166 423 165 418 C165 415 165 415 163 411 C163 408 163 405 163 401 C163 400 163 398 163 396 C163 387 163 387 164 382 C165 382 167 381 168 381 C170 383 171 386 173 388 C175 389 176 389 178 390 C183 385 183 383 184 377 C185 376 185 375 186 374 C187 369 187 365 187 360 C187 357 188 354 189 350 C190 345 190 345 188 340 C187 340 185 339 184 339 C183 340 181 341 180 342 C178 342 176 342 174 342 C176 332 182 327 190 321 C191 320 191 320 192 319 C192 318 192 318 192 317 C194 316 196 316 198 315 C199 314 201 313 202 312 C207 310 209 309 214 310 C216 304 214 300 211 294 C199 265 194 233 192 201 C191 195 190 189 189 183 C189 179 188 175 188 171 C188 168 187 164 186 161 C185 156 185 156 184 150 C178 110 157 68 125 42 C124 41 123 41 122 40 C115 34 107 31 99 27 C98 27 98 27 95 25 C84 20 73 17 61 15 C59 15 58 14 56 14 C49 13 42 13 36 13 C35 13 35 13 31 13 C-7 13 -46 27 -73 55 Z " fill="#100F11" transform="translate(286,25)"/>
<path d="M0 0 C11 4 20 10 29 17 C30 18 31 18 32 19 C35 21 37 24 40 27 C46 33 53 32 60 31 C61 31 63 31 64 31 C74 31 74 31 77 29 C79 29 81 29 83 29 C84 30 84 32 85 33 C86 33 86 34 87 34 C88 37 88 37 88 40 C87 41 87 42 86 43 C86 44 86 45 86 47 C86 48 85 49 85 50 C82 51 82 51 78 51 C77 51 77 51 74 51 C71 51 68 51 65 51 C63 51 62 51 61 51 C60 53 60 54 59 56 C55 60 54 60 49 61 C44 61 41 62 36 64 C33 64 29 65 26 65 C21 67 20 67 18 72 C17 72 17 72 16 72 C16 73 15 75 15 76 C10 76 5 76 -1 76 C-2 76 -3 76 -5 76 C-5 77 -6 79 -6 80 C-7 80 -7 80 -8 80 C-8 81 -9 83 -9 84 C-12 85 -16 85 -19 86 C-19 89 -19 89 -17 92 C-17 95 -17 95 -18 98 C-21 100 -21 100 -24 100 C-25 100 -26 99 -27 99 C-27 98 -28 97 -28 96 C-29 96 -29 96 -30 96 C-31 95 -32 94 -33 93 C-33 92 -33 92 -33 91 C-34 91 -35 90 -36 90 C-36 89 -36 89 -36 88 C-38 88 -40 88 -42 88 C-43 87 -44 86 -45 85 C-51 84 -55 85 -59 88 C-64 92 -64 92 -66 96 C-67 96 -67 96 -68 96 C-69 98 -69 99 -70 101 C-73 102 -75 104 -78 105 C-79 106 -80 107 -81 108 C-86 109 -88 109 -92 106 C-94 103 -94 103 -95 100 C-96 96 -98 95 -101 93 C-105 93 -109 93 -113 93 C-119 92 -121 89 -124 84 C-126 82 -126 82 -128 81 C-134 81 -135 81 -139 85 C-141 86 -142 87 -144 88 C-145 87 -147 87 -148 86 C-148 85 -149 84 -149 83 C-148 82 -148 81 -147 80 C-147 79 -146 78 -146 77 C-148 72 -148 72 -152 69 C-157 66 -159 62 -162 57 C-163 54 -163 54 -165 53 C-170 53 -176 53 -181 53 C-182 53 -182 53 -186 53 C-187 53 -189 53 -190 53 C-191 53 -191 53 -194 53 C-199 53 -201 54 -204 57 C-206 60 -206 60 -206 63 C-204 71 -200 74 -194 78 C-194 79 -194 79 -194 80 C-193 80 -193 80 -192 80 C-191 81 -190 82 -189 83 C-186 83 -186 83 -183 83 C-174 84 -169 87 -162 93 C-161 93 -161 94 -160 95 C-161 100 -161 100 -164 102 C-174 108 -185 110 -197 108 C-198 107 -200 105 -201 104 C-201 103 -201 101 -201 100 C-207 99 -207 99 -209 100 C-212 100 -214 101 -217 101 C-218 101 -220 101 -221 101 C-226 101 -227 100 -231 97 C-232 97 -232 97 -235 95 C-235 97 -235 99 -235 101 C-236 108 -237 115 -239 121 C-240 128 -241 135 -242 142 C-243 146 -244 151 -245 155 C-247 168 -248 179 -248 192 C-248 196 -248 200 -249 204 C-251 205 -252 206 -254 207 C-257 212 -256 216 -255 222 C-253 232 -250 241 -246 250 C-246 251 -246 251 -245 255 C-252 260 -259 258 -267 257 C-274 255 -280 253 -285 247 C-285 241 -285 241 -283 238 C-280 236 -280 236 -276 234 C-276 233 -276 233 -277 229 C-281 228 -285 228 -290 228 C-306 227 -318 222 -331 212 C-333 209 -333 209 -334 204 C-332 199 -331 198 -326 195 C-322 194 -322 194 -318 193 C-311 191 -311 191 -309 190 C-309 186 -309 186 -309 183 C-310 183 -311 183 -312 183 C-325 182 -336 180 -346 172 C-351 166 -353 162 -353 154 C-351 148 -348 145 -343 142 C-331 138 -319 137 -307 136 C-292 134 -274 128 -263 117 C-262 115 -260 113 -259 111 C-256 106 -252 101 -247 98 C-246 97 -246 97 -245 96 C-245 95 -245 93 -245 92 C-244 91 -243 91 -242 90 C-243 90 -243 90 -246 88 C-248 85 -248 85 -248 82 C-247 79 -247 79 -243 75 C-242 72 -242 72 -242 68 C-241 63 -241 61 -238 56 C-238 53 -237 50 -237 47 C-237 47 -237 47 -234 48 C-234 47 -234 47 -236 43 C-235 42 -234 42 -233 41 C-233 39 -234 36 -234 34 C-234 28 -234 28 -234 23 C-233 22 -232 22 -231 21 C-230 20 -230 18 -229 17 C-229 16 -228 14 -227 13 C-224 13 -224 13 -220 14 C-214 15 -211 14 -206 12 C-192 6 -176 8 -162 13 C-157 15 -153 14 -148 13 C-148 12 -147 12 -147 11 C-146 11 -146 10 -145 10 C-145 11 -145 11 -146 15 C-146 21 -145 22 -142 27 C-141 30 -141 30 -141 33 C-140 33 -140 33 -139 33 C-139 34 -139 34 -137 37 C-133 40 -129 43 -124 45 C-124 46 -124 46 -124 47 C-125 47 -125 47 -126 47 C-124 55 -124 55 -119 58 C-118 62 -118 62 -117 66 C-116 68 -116 68 -113 70 C-104 72 -96 70 -87 68 C-86 68 -84 69 -83 69 C-82 68 -82 68 -81 67 C-80 67 -79 67 -78 67 C-72 65 -69 60 -65 55 C-64 55 -64 55 -63 55 C-62 53 -62 50 -61 48 C-61 47 -60 47 -60 46 C-58 46 -56 46 -54 46 C-54 45 -54 45 -54 44 C-53 44 -51 44 -50 44 C-46 43 -46 43 -43 42 C-39 44 -35 47 -32 51 C-25 58 -25 58 -20 59 C-13 56 -13 56 -10 53 C-10 52 -10 52 -9 49 C-8 44 -6 43 -2 40 C-1 38 -1 37 0 35 C-2 31 -4 28 -6 25 C-7 23 -9 20 -10 18 C-12 15 -14 12 -16 9 C-16 7 -16 5 -16 3 C-9 -1 -8 -2 0 0 Z " fill="#C1C4D0" transform="translate(393,244)"/>
<path d="M0 0 C2 2 2 2 4 5 C5 6 6 7 7 9 C9 11 11 13 13 16 C18 22 24 28 31 33 C32 34 33 34 34 35 C47 44 65 45 81 47 C91 48 100 49 108 56 C111 60 111 62 111 66 C109 75 105 79 98 84 C89 90 78 91 67 92 C66 93 65 93 64 93 C64 94 64 94 63 97 C67 101 69 101 74 101 C81 102 86 103 91 108 C91 113 91 115 89 119 C88 119 88 119 87 119 C87 120 87 120 85 123 C76 132 65 136 53 136 C51 136 48 136 46 136 C41 136 37 136 32 136 C32 136 31 137 31 137 C31 139 31 140 31 142 C33 144 33 144 36 145 C40 147 42 148 43 152 C44 155 44 155 42 159 C40 161 40 161 37 163 C36 163 35 164 34 164 C24 170 12 170 2 167 C-11 162 -21 153 -28 142 C-30 140 -31 139 -33 137 C-34 136 -34 135 -35 134 C-36 134 -36 134 -38 133 C-42 132 -42 132 -44 128 C-47 121 -49 113 -50 105 C-51 104 -51 102 -52 101 C-52 98 -52 95 -52 91 C-52 90 -52 90 -52 86 C-52 76 -52 76 -51 72 C-50 72 -50 72 -46 70 C-43 73 -43 73 -41 77 C-39 78 -38 78 -36 79 C-32 75 -32 72 -31 67 C-30 66 -30 65 -29 64 C-28 59 -28 55 -28 50 C-28 47 -27 44 -26 40 C-25 35 -25 35 -26 31 C-27 31 -29 30 -30 30 C-31 30 -31 30 -34 33 C-37 33 -37 33 -40 32 C-40 25 -37 22 -33 17 C-30 15 -28 13 -25 11 C-23 9 -23 9 -20 6 C-18 5 -16 4 -14 3 C-13 2 -12 2 -11 1 C-7 -1 -5 -1 0 0 Z " fill="#888D9F" transform="translate(500,335)"/>
<path d="M0 0 C5 -1 10 0 14 1 C16 1 17 2 18 2 C19 2 19 2 23 2 C52 7 82 8 111 2 C116 2 120 2 125 2 C125 3 124 5 124 6 C122 7 121 7 119 8 C115 11 113 13 110 17 C110 21 110 24 111 28 C118 30 124 29 131 27 C135 27 135 27 138 27 C140 29 140 29 143 32 C151 39 151 39 156 39 C161 39 161 39 163 36 C164 35 164 34 165 33 C166 31 167 30 168 28 C173 27 175 28 180 30 C186 30 186 30 191 27 C192 24 192 22 192 19 C192 18 192 18 192 13 C193 13 194 13 195 13 C195 12 196 10 196 9 C199 10 199 10 200 12 C203 12 205 12 208 12 C209 12 209 12 213 12 C217 12 220 12 224 12 C225 12 227 12 229 12 C230 12 232 12 233 12 C235 13 236 13 237 13 C238 14 238 16 239 17 C243 17 243 17 248 17 C253 17 253 17 257 17 C258 18 258 20 259 21 C261 21 262 21 264 21 C266 21 267 21 269 21 C270 22 270 24 271 25 C272 25 273 26 274 26 C274 28 273 29 273 31 C272 31 272 31 271 31 C270 32 270 34 269 35 C266 35 262 35 259 35 C258 36 258 38 257 39 C252 39 248 39 243 39 C242 39 240 39 239 39 C238 40 238 42 237 43 C231 43 226 43 220 43 C217 43 214 43 211 43 C210 44 210 46 209 47 C205 47 205 47 199 47 C198 47 198 47 196 47 C191 47 187 47 183 47 C180 47 176 47 173 47 C171 47 169 47 167 47 C166 47 165 47 163 47 C162 48 162 50 161 51 C158 52 158 52 153 52 C153 52 153 52 149 52 C147 52 145 52 143 52 C141 52 139 52 138 52 C132 52 127 52 122 52 C117 52 111 52 106 52 C97 52 88 52 79 52 C68 51 58 52 48 52 C39 52 30 52 21 52 C15 52 10 52 5 52 C-1 52 -7 52 -13 52 C-15 52 -17 52 -19 52 C-20 52 -22 52 -23 52 C-25 52 -26 52 -28 52 C-28 51 -28 51 -31 51 C-31 50 -31 50 -33 47 C-37 47 -41 47 -45 47 C-46 47 -47 47 -49 47 C-52 47 -56 47 -60 47 C-65 47 -70 47 -75 47 C-76 47 -76 47 -79 47 C-82 47 -82 47 -87 47 C-88 46 -88 44 -89 43 C-93 43 -98 43 -102 43 C-106 43 -111 43 -115 43 C-116 42 -116 40 -117 39 C-121 39 -121 39 -126 39 C-131 39 -131 39 -135 39 C-136 38 -136 36 -137 35 C-139 35 -141 35 -143 35 C-144 34 -144 32 -145 31 C-147 31 -149 31 -151 31 C-151 30 -151 30 -152 26 C-151 26 -150 25 -149 25 C-148 24 -148 22 -147 21 C-144 21 -140 21 -137 21 C-136 20 -136 18 -135 17 C-130 17 -126 17 -121 17 C-120 17 -118 17 -117 17 C-116 16 -116 14 -115 13 C-112 13 -112 13 -107 13 C-106 13 -104 13 -103 13 C-100 13 -96 13 -93 13 C-92 13 -90 13 -89 13 C-87 13 -86 13 -84 13 C-83 13 -82 13 -81 13 C-80 12 -80 10 -79 9 C-76 9 -76 9 -71 9 C-71 9 -71 9 -67 9 C-66 9 -65 9 -64 9 C-65 13 -65 13 -67 16 C-67 24 -67 24 -65 28 C-60 30 -54 29 -48 29 C-44 29 -44 29 -41 31 C-41 32 -41 32 -39 36 C-33 40 -33 40 -27 39 C-23 36 -19 33 -15 30 C-10 26 -7 27 -1 28 C9 29 9 29 14 27 C16 23 16 21 16 17 C12 11 7 10 2 7 C1 6 -0 6 -1 5 C-1 3 -0 2 0 0 Z " fill="#D8DAE2" transform="translate(265,580)"/>
<path d="M0 0 C4 4 3 5 3 10 C3 17 2 23 0 30 C-2 37 -2 44 -3 51 C-4 55 -5 60 -6 64 C-8 77 -9 88 -9 101 C-9 105 -9 109 -10 113 C-12 114 -13 115 -15 116 C-18 121 -17 125 -16 131 C-14 141 -11 150 -7 159 C-7 160 -7 160 -6 164 C-13 169 -20 167 -28 166 C-35 164 -41 162 -46 156 C-46 150 -46 150 -44 147 C-41 145 -41 145 -37 143 C-37 142 -37 142 -38 138 C-42 137 -46 137 -51 137 C-67 136 -79 131 -92 121 C-94 118 -94 118 -95 113 C-93 108 -92 107 -87 104 C-83 103 -83 103 -79 102 C-72 100 -72 100 -70 99 C-70 95 -70 95 -70 92 C-71 92 -72 92 -73 92 C-86 91 -97 89 -107 81 C-112 75 -114 71 -114 63 C-112 57 -109 54 -104 51 C-92 47 -80 46 -68 45 C-53 43 -35 37 -24 26 C-23 24 -21 22 -20 20 C-17 15 -13 10 -8 7 C-7 6 -7 6 -6 5 C-6 4 -6 2 -6 1 C-3 0 -3 0 0 0 Z " fill="#797F93" transform="translate(154,335)"/>
<path d="M0 0 C6 2 11 4 15 10 C16 14 16 17 15 22 C9 32 2 37 -9 40 C-16 42 -22 43 -28 43 C-29 44 -30 44 -31 44 C-31 45 -32 47 -32 48 C-28 52 -26 52 -21 52 C-14 53 -9 54 -4 59 C-4 64 -4 66 -6 70 C-7 70 -7 70 -8 70 C-8 71 -8 71 -10 74 C-19 83 -30 87 -42 87 C-44 87 -47 87 -49 87 C-54 87 -58 87 -63 87 C-63 87 -64 88 -64 88 C-64 90 -64 91 -64 93 C-62 95 -62 95 -59 96 C-55 98 -53 99 -52 103 C-51 106 -51 106 -53 110 C-55 112 -55 112 -58 114 C-59 114 -59 114 -61 115 C-71 121 -83 121 -93 118 C-103 114 -111 108 -117 100 C-116 99 -115 99 -115 98 C-112 96 -112 96 -109 91 C-106 90 -106 90 -103 88 C-100 87 -100 87 -97 85 C-96 81 -96 81 -97 76 C-95 68 -95 68 -90 64 C-86 64 -83 65 -79 66 C-78 66 -78 66 -75 64 C-74 61 -74 61 -74 57 C-73 50 -72 44 -68 38 C-65 34 -65 31 -65 26 C-64 21 -61 18 -58 14 C-56 11 -54 8 -53 5 C-50 0 -50 0 -48 -2 C-44 -2 -41 -2 -37 -2 C-24 -2 -14 -3 0 0 Z " fill="#797F93" transform="translate(595,384)"/>
<path d="M0 0 C6 4 9 8 13 15 C16 22 22 26 28 31 C34 36 34 36 36 40 C36 47 36 52 32 58 C27 62 24 63 19 64 C15 64 13 65 11 68 C9 70 7 73 6 76 C1 82 -4 87 -11 89 C-19 90 -24 89 -30 85 C-35 81 -37 77 -40 72 C-44 66 -47 66 -54 64 C-60 63 -62 60 -66 55 C-69 48 -69 42 -66 35 C-63 30 -59 26 -54 22 C-49 19 -46 15 -43 9 C-33 -7 -16 -8 0 0 Z " fill="#0B0706" transform="translate(322.34375,218.796875)"/>
<path d="M0 0 C4 3 7 7 10 11 C15 16 20 20 26 23 C28 25 28 25 29 27 C29 35 26 38 20 44 C7 56 -10 66 -26 74 C-27 75 -28 75 -29 76 C-33 77 -37 77 -41 76 C-42 76 -42 75 -43 75 C-52 75 -58 79 -65 84 C-66 84 -67 84 -68 84 C-68 85 -68 85 -68 86 C-69 86 -70 86 -71 86 C-72 87 -73 87 -74 87 C-75 87 -77 87 -78 87 C-81 88 -81 88 -85 90 C-114 95 -150 95 -179 89 C-179 88 -180 87 -180 86 C-183 85 -183 85 -186 84 C-187 84 -187 84 -190 84 C-191 83 -192 83 -193 83 C-196 82 -199 82 -202 81 C-202 80 -203 80 -203 79 C-202 79 -202 79 -199 77 C-199 76 -199 75 -199 74 C-200 74 -200 73 -201 73 C-190 75 -190 75 -186 77 C-182 78 -178 78 -174 79 C-162 80 -162 80 -159 81 C-156 81 -153 81 -151 81 C-149 81 -147 81 -146 81 C-144 81 -142 81 -140 81 C-139 81 -137 81 -135 81 C-119 81 -104 81 -88 76 C-86 76 -85 75 -83 75 C-56 67 -27 56 -12 31 C-9 25 -7 19 -7 12 C-6 8 -5 5 -2 1 C-1 1 -1 0 0 0 Z " fill="#AEB1BB" transform="translate(460,481)"/>
<path d="M0 0 C-1 0 -1 1 -2 1 C-2 2 -2 3 -2 4 C-1 4 -0 4 1 4 C2 5 3 5 4 5 C5 7 5 9 6 11 C6 12 5 12 5 13 C4 13 3 13 2 13 C-4 13 -7 16 -12 19 C-14 19 -15 20 -17 20 C-18 21 -18 23 -19 24 C-21 26 -21 26 -24 28 C-30 33 -33 37 -35 45 C-29 45 -29 45 -25 42 C-23 43 -22 43 -20 44 C-19 49 -20 52 -21 57 C-22 60 -22 63 -22 67 C-22 73 -23 77 -26 82 C-26 83 -26 85 -26 86 C-27 89 -27 89 -29 92 C-30 92 -31 93 -32 93 C-37 91 -38 89 -41 84 C-43 84 -44 84 -46 84 C-46 77 -45 71 -45 64 C-51 66 -51 66 -55 70 C-56 71 -57 73 -58 74 C-59 73 -61 73 -62 72 C-63 69 -63 69 -62 65 C-62 64 -63 62 -63 61 C-65 60 -66 60 -68 59 C-72 56 -74 52 -77 48 C-80 46 -84 47 -87 46 C-89 46 -90 46 -92 46 C-93 46 -94 46 -95 46 C-96 39 -96 39 -93 35 C-90 33 -87 31 -84 29 C-83 29 -83 29 -81 28 C-77 26 -77 26 -73 25 C-68 24 -64 22 -59 20 C-59 20 -59 20 -55 18 C-51 16 -51 16 -48 13 C-44 11 -42 10 -37 8 C-36 8 -36 8 -33 7 C-27 6 -21 4 -15 3 C-11 2 -11 2 -8 0 C-5 -1 -5 -1 0 0 Z " fill="#C1C4D0" transform="translate(495,322)"/>
<path d="M0 0 C3 4 6 7 8 11 C11 15 15 17 20 19 C28 27 33 38 35 49 C37 57 39 63 42 70 C42 72 43 73 43 75 C36 80 29 78 21 77 C14 75 8 73 3 67 C3 61 3 61 5 58 C8 56 8 56 12 54 C12 53 12 53 11 49 C7 48 3 48 -2 48 C-18 47 -30 42 -43 32 C-45 29 -45 29 -46 24 C-44 19 -43 18 -38 15 C-34 14 -34 14 -30 13 C-23 11 -23 11 -21 10 C-21 6 -21 6 -21 3 C-22 3 -22 2 -23 2 C-22 2 -22 2 -19 2 C-14 1 -14 1 -10 -0 C-6 -1 -4 -1 0 0 Z " fill="#61677C" transform="translate(105,424)"/>
<path d="M0 0 C2 2 2 2 4 5 C5 6 6 7 7 9 C9 11 11 13 13 16 C22 28 34 35 47 42 C46 43 45 44 44 45 C40 48 40 48 39 50 C30 55 17 52 7 50 C-1 49 -6 50 -14 54 C-15 55 -17 55 -18 56 C-19 57 -21 59 -22 60 C-22 63 -22 63 -21 66 C-19 80 -19 80 -22 86 C-27 92 -32 94 -40 95 C-46 92 -46 88 -49 82 C-49 89 -50 96 -50 103 C-52 101 -52 101 -52 97 C-52 95 -52 93 -52 91 C-52 90 -52 88 -52 86 C-52 76 -52 76 -51 72 C-50 72 -50 72 -46 70 C-43 73 -43 73 -41 77 C-39 78 -38 78 -36 79 C-32 75 -32 72 -31 67 C-30 66 -30 65 -29 64 C-28 59 -28 55 -28 50 C-28 47 -27 44 -26 40 C-25 35 -25 35 -26 31 C-27 31 -29 30 -30 30 C-31 30 -31 30 -34 33 C-37 33 -37 33 -40 32 C-40 25 -37 22 -33 17 C-30 15 -28 13 -25 11 C-23 9 -23 9 -20 6 C-18 5 -16 4 -14 3 C-13 2 -12 2 -11 1 C-7 -1 -5 -1 0 0 Z " fill="#9194A1" transform="translate(500,335)"/>
<path d="M0 0 C1 0 1 0 2 0 C2 0 2 0 4 3 C5 3 7 3 8 3 C8 4 8 5 8 6 C9 6 10 7 11 7 C10 8 10 10 9 11 C8 11 8 11 7 11 C6 12 6 14 5 15 C-4 24 -15 28 -27 28 C-29 28 -32 28 -34 28 C-39 28 -43 28 -48 28 C-48 28 -48 28 -49 29 C-49 31 -49 32 -49 34 C-47 36 -47 36 -44 37 C-40 39 -38 40 -37 44 C-36 47 -36 47 -38 51 C-40 53 -40 53 -43 55 C-44 55 -45 56 -46 56 C-56 62 -68 62 -78 59 C-88 55 -96 49 -102 41 C-101 40 -100 40 -100 39 C-97 37 -97 37 -94 32 C-91 31 -91 31 -88 29 C-84 28 -82 27 -81 23 C-80 22 -80 21 -80 20 C-79 18 -79 16 -78 14 C-75 13 -75 13 -72 12 C-69 13 -67 14 -64 15 C-49 16 -35 12 -23 4 C-15 -0 -8 1 0 2 C0 1 0 1 0 0 Z " fill="#60667B" transform="translate(580,443)"/>
<path d="M0 0 C3 -0 3 -0 8 -0 C8 -0 8 -0 12 -0 C13 -0 14 -0 15 0 C14 4 14 4 12 7 C12 15 12 15 14 19 C19 21 25 20 31 20 C35 20 35 20 38 22 C38 23 38 23 40 27 C45 30 45 30 50 31 C50 32 49 33 49 34 C51 36 58 36 61 37 C63 37 64 37 66 37 C68 38 69 38 71 38 C71 39 70 41 70 42 C66 42 63 43 59 42 C59 43 59 43 56 43 C53 43 53 43 48 42 C48 41 48 41 46 38 C42 38 38 38 34 38 C33 38 32 38 30 38 C27 38 23 38 19 38 C14 38 9 38 4 38 C3 38 3 38 0 38 C-3 38 -3 38 -8 38 C-9 37 -9 35 -10 34 C-14 34 -19 34 -23 34 C-27 34 -32 34 -36 34 C-37 33 -37 31 -38 30 C-42 30 -42 30 -47 30 C-52 30 -52 30 -56 30 C-57 29 -57 27 -58 26 C-60 26 -62 26 -64 26 C-65 25 -65 23 -66 22 C-68 22 -70 22 -72 22 C-72 21 -72 21 -73 17 C-72 17 -71 16 -70 16 C-69 15 -69 13 -68 12 C-65 12 -61 12 -58 12 C-57 11 -57 9 -56 8 C-51 8 -47 8 -42 8 C-41 8 -39 8 -38 8 C-37 7 -37 5 -36 4 C-33 4 -33 4 -28 4 C-27 4 -25 4 -24 4 C-21 4 -17 4 -14 4 C-13 4 -11 4 -10 4 C-8 4 -7 4 -5 4 C-4 4 -3 4 -2 4 C-1 3 -1 1 0 0 Z " fill="#DBDDE3" transform="translate(186,589)"/>
<path d="M0 0 C1 0 1 0 5 1 C5 1 5 1 6 4 C7 4 8 5 10 5 C11 5 12 6 13 6 C13 6 13 6 14 9 C13 9 12 9 11 9 C15 16 15 16 18 18 C19 21 19 21 19 24 C20 24 20 24 21 24 C22 26 22 28 23 30 C24 32 25 33 26 35 C26 39 27 42 27 46 C28 46 28 46 29 46 C29 47 30 48 30 49 C30 49 30 49 27 50 C27 51 27 53 27 54 C27 55 27 55 27 58 C22 61 18 61 12 61 C12 61 12 61 10 60 C7 60 4 60 2 60 C-0 60 -2 60 -3 60 C-7 60 -7 60 -9 61 C-13 61 -13 61 -17 61 C-18 60 -20 58 -21 57 C-21 54 -21 54 -20 51 C-20 50 -21 50 -21 49 C-22 49 -24 49 -25 49 C-26 52 -26 52 -26 55 C-25 56 -24 57 -23 58 C-25 63 -25 63 -27 65 C-34 64 -37 61 -42 57 C-42 57 -42 57 -43 54 C-39 48 -35 46 -28 44 C-27 44 -25 45 -24 45 C-24 44 -23 43 -23 42 C-22 41 -20 39 -19 38 C-17 35 -16 32 -15 28 C-13 20 -9 14 -3 9 C-2 9 -2 9 -1 9 C-1 6 -0 3 0 0 Z " fill="#C1C4D0" transform="translate(427,93)"/>
<path d="M0 0 C1 0 3 0 4 0 C5 0 5 0 8 1 C13 1 17 3 20 7 C23 10 25 14 27 18 C30 20 34 20 38 20 C41 20 41 20 43 22 C42 23 42 23 42 27 C41 29 41 32 41 34 C41 35 41 35 41 38 C42 41 42 41 43 44 C45 47 45 47 44 53 C42 58 42 58 38 62 C36 62 34 62 32 62 C28 58 28 58 27 55 C27 54 28 53 28 52 C30 48 30 48 29 44 C24 44 20 44 16 44 C-6 45 -6 45 -15 40 C-16 39 -17 38 -17 36 C-18 36 -19 36 -19 36 C-19 35 -19 34 -19 32 C-19 32 -18 32 -17 32 C-17 31 -17 29 -17 28 C-16 22 -14 18 -11 12 C-11 11 -10 9 -9 7 C-5 0 -5 0 0 0 Z " fill="#C2C5D1" transform="translate(199.36328125,107.8203125)"/>
<path d="M0 0 C1 1 2 1 3 2 C6 3 6 3 11 2 C15 2 15 2 18 4 C21 11 19 20 18 27 C17 27 15 26 14 26 C9 25 5 25 0 24 C0 23 0 21 0 20 C-11 20 -20 24 -28 32 C-31 35 -31 35 -33 39 C-34 39 -34 39 -35 39 C-35 40 -35 41 -35 42 C-36 43 -36 44 -36 45 C-36 45 -36 45 -39 46 C-39 47 -39 47 -39 48 C-41 50 -44 53 -46 55 C-46 56 -47 57 -47 58 C-51 59 -54 60 -58 61 C-59 60 -59 59 -60 58 C-58 53 -58 53 -54 50 C-50 45 -49 41 -49 35 C-50 30 -52 27 -56 23 C-56 22 -55 20 -55 19 C-51 17 -51 17 -47 16 C-42 15 -38 13 -34 10 C-30 9 -28 9 -24 10 C-20 11 -20 11 -15 8 C-14 6 -12 3 -11 1 C-7 -1 -4 -0 0 0 Z " fill="#C1C4D0" transform="translate(309,188)"/>
<path d="M0 0 C4 4 4 4 4 10 C0 13 0 13 -3 14 C-8 17 -10 19 -12 24 C-12 24 -12 24 -14 27 C-15 30 -15 30 -15 35 C-16 40 -17 41 -21 44 C-24 46 -24 46 -27 47 C-30 46 -32 45 -35 44 C-37 44 -39 44 -40 44 C-47 42 -51 40 -56 35 C-58 33 -58 33 -63 32 C-63 31 -62 31 -62 30 C-61 30 -61 30 -60 30 C-60 28 -60 26 -60 24 C-47 10 -19 0 0 0 Z " fill="#C4C7D2" transform="translate(292,41)"/>
<path d="M0 0 C1 1 2 2 3 3 C3 5 2 6 2 8 C4 11 6 13 9 15 C12 17 12 17 13 20 C12 21 11 22 10 23 C10 24 9 25 9 26 C8 28 8 29 7 30 C4 31 4 31 1 31 C-2 32 -2 32 -5 33 C-7 37 -7 41 -8 45 C-9 45 -10 46 -11 46 C-11 47 -11 47 -11 48 C-15 53 -20 56 -25 60 C-29 63 -29 63 -30 65 C-31 65 -31 65 -32 65 C-33 63 -33 62 -34 60 C-35 59 -36 58 -37 57 C-40 52 -40 47 -40 41 C-41 40 -41 40 -42 39 C-42 36 -42 36 -41 33 C-35 30 -30 31 -23 30 C-19 30 -19 30 -16 27 C-16 23 -16 18 -16 14 C-15 9 -14 7 -10 4 C-5 1 -5 1 0 0 Z " fill="#C1C4D0" transform="translate(195,425)"/>
<path d="M0 0 C5 5 10 10 12 17 C11 22 11 22 7 26 C1 26 1 26 -2 23 C-3 22 -4 21 -5 20 C-10 13 -14 11 -22 9 C-29 8 -33 10 -39 13 C-41 15 -44 18 -46 20 C-48 22 -48 22 -53 23 C-58 21 -58 21 -60 17 C-58 8 -52 2 -45 -4 C-30 -14 -14 -10 0 0 Z " fill="#050406" transform="translate(244,207)"/>
<path d="M0 0 C6 4 10 9 14 15 C14 19 14 19 14 22 C12 24 11 25 10 26 C2 26 -0 23 -5 18 C-12 13 -20 13 -28 14 C-35 17 -39 20 -43 25 C-47 29 -47 29 -51 30 C-51 30 -51 30 -54 29 C-57 24 -57 24 -57 22 C-54 11 -45 3 -36 -2 C-22 -7 -13 -7 0 0 Z " fill="#050406" transform="translate(420.1875,202.6875)"/>
<path d="M0 0 C7 4 11 9 16 16 C17 18 17 18 20 21 C20 24 20 24 19 27 C12 33 0 32 -9 32 C-10 32 -11 32 -12 32 C-20 32 -26 31 -34 28 C-35 25 -35 25 -34 21 C-32 19 -30 17 -29 15 C-26 12 -24 9 -21 5 C-15 -2 -9 -3 0 0 Z " fill="#F3AE26" transform="translate(312.625,226.6875)"/>
<path d="M0 0 C2 5 2 5 1 9 C1 10 1 11 1 12 C4 14 4 14 7 15 C12 14 17 11 21 8 C24 7 24 7 28 7 C29 7 29 8 30 8 C31 7 31 5 32 4 C32 7 32 10 32 13 C33 18 36 21 39 24 C40 29 40 32 38 37 C35 41 34 41 29 42 C24 42 24 42 19 41 C16 37 16 37 16 31 C16 30 17 29 17 27 C17 26 17 25 17 24 C15 23 14 23 12 22 C12 23 11 24 11 25 C9 29 9 29 5 32 C-1 33 -4 33 -9 30 C-14 25 -16 23 -16 16 C-16 12 -16 12 -14 9 C-13 9 -13 9 -12 9 C-12 8 -12 8 -12 7 C-11 6 -10 5 -9 4 C-8 4 -8 4 -7 4 C-7 3 -6 2 -6 1 C-4 0 -4 0 0 0 Z " fill="#C2C5D1" transform="translate(412,416)"/>
<path d="M0 0 C0 1 0 1 0 2 C1 2 2 3 3 3 C3 6 3 10 3 13 C3 14 4 16 4 17 C6 23 7 29 7 35 C7 36 7 38 7 39 C7 44 6 47 3 51 C2 52 1 52 0 53 C-6 50 -9 47 -14 42 C-17 38 -17 38 -21 36 C-25 34 -26 32 -28 28 C-28 22 -26 18 -23 13 C-20 10 -16 8 -13 5 C-12 4 -10 3 -9 1 C-5 -1 -5 -1 0 0 Z " fill="#C2C5D1" transform="translate(466,187)"/>
<path d="M0 0 C1 0 3 0 4 0 C3 6 1 8 -4 12 C-5 12 -6 13 -8 13 C-11 15 -11 15 -13 19 C-14 24 -14 24 -14 29 C-14 30 -14 32 -14 33 C-18 36 -21 38 -25 40 C-28 41 -28 41 -31 46 C-33 47 -34 47 -36 48 C-38 45 -38 45 -41 41 C-43 39 -44 38 -46 36 C-47 35 -49 33 -50 32 C-51 31 -53 30 -54 29 C-53 27 -53 27 -48 25 C-48 25 -48 25 -45 25 C-42 24 -42 24 -37 21 C-36 21 -36 21 -35 21 C-35 20 -34 19 -34 18 C-31 10 -24 6 -16 3 C-11 0 -7 0 -1 1 C-1 1 -0 0 0 0 Z " fill="#9194A1" transform="translate(513,436)"/>
<path d="M0 0 C1 1 2 1 3 2 C3 10 -0 17 -3 25 C-8 37 -8 37 -8 42 C-7 44 -6 47 -4 50 C-0 67 -0 67 -4 74 C-10 79 -14 82 -22 83 C-28 80 -28 76 -31 70 C-32 77 -32 84 -32 91 C-34 89 -34 89 -35 85 C-35 83 -35 81 -34 79 C-34 78 -34 76 -34 74 C-34 64 -34 64 -33 60 C-32 59 -30 58 -28 58 C-25 61 -25 61 -23 65 C-22 65 -20 66 -18 67 C-14 63 -14 60 -13 55 C-13 54 -12 53 -12 52 C-10 47 -10 43 -10 38 C-10 35 -10 32 -9 28 C-7 23 -7 23 -8 19 C-10 18 -11 18 -12 18 C-14 19 -15 20 -16 21 C-20 20 -20 20 -22 20 C-22 13 -20 10 -15 5 C-11 4 -11 4 -7 3 C-3 -0 -3 -0 0 0 Z " fill="#9295A2" transform="translate(482.3125,347.1875)"/>
<path d="M0 0 C5 -1 10 0 14 1 C15 1 15 1 18 2 C19 2 19 2 23 2 C52 7 82 8 111 2 C116 2 120 2 125 2 C125 3 124 5 124 6 C122 7 121 7 119 8 C110 15 110 15 109 21 C109 22 109 22 109 25 C109 25 109 25 106 24 C106 18 106 18 107 14 C101 11 96 12 90 13 C86 13 83 13 79 13 C71 12 64 12 56 12 C55 12 54 12 53 12 C44 12 44 12 42 13 C38 13 33 13 29 13 C28 13 26 13 25 13 C23 17 23 17 23 22 C22 23 22 24 21 25 C19 25 18 25 16 25 C16 24 16 23 16 21 C16 16 15 15 12 12 C9 10 5 8 2 7 C1 6 -0 6 -1 5 C-1 3 -0 2 0 0 Z " fill="#E2E4E7" transform="translate(265,580)"/>
<path d="M0 0 C0 1 1 2 1 3 C7 3 7 3 11 0 C13 1 14 1 16 2 C17 7 16 10 15 15 C14 18 14 21 14 25 C14 31 13 35 10 40 C10 41 10 43 10 44 C9 47 9 47 7 50 C6 50 5 51 4 51 C-1 49 -2 47 -5 42 C-7 42 -8 42 -10 42 C-9 26 -7 14 0 0 Z " fill="#AFB2BB" transform="translate(459,364)"/>
<path d="M0 0 C1 1 3 3 4 4 C7 4 9 5 12 5 C13 6 13 6 14 7 C15 7 15 7 17 8 C22 9 23 11 26 14 C24 20 19 26 14 29 C12 29 9 29 7 29 C6 29 6 29 3 29 C0 29 0 29 -2 27 C-4 27 -5 27 -7 27 C-7 28 -8 28 -8 29 C-9 29 -9 29 -10 29 C-10 30 -10 30 -10 31 C-11 31 -11 31 -15 29 C-15 25 -16 21 -15 16 C-15 15 -15 14 -15 13 C-15 4 -15 4 -14 3 C-12 3 -9 3 -7 3 C-7 2 -7 2 -7 1 C-5 0 -5 0 0 0 Z " fill="#C1C4D0" transform="translate(363,47)"/>
<path d="M0 0 C6 6 6 6 6 9 C8 10 9 10 11 11 C11 12 11 12 13 16 C15 16 16 17 18 17 C19 19 20 20 21 22 C21 22 21 22 20 25 C19 25 17 25 16 25 C16 26 16 26 16 27 C15 27 15 27 14 27 C14 27 14 27 13 30 C12 33 12 33 9 36 C2 36 1 35 -3 31 C-10 25 -16 21 -24 19 C-24 20 -24 21 -24 22 C-25 22 -26 23 -28 23 C-32 25 -32 25 -36 29 C-40 32 -40 32 -45 32 C-42 25 -36 21 -29 18 C-13 17 -13 17 -6 22 C-5 23 -5 23 -4 24 C3 30 3 30 9 30 C12 27 12 27 13 24 C12 18 8 13 4 9 C-5 3 -13 -1 -24 0 C-37 3 -46 9 -54 19 C-56 23 -57 25 -57 29 C-56 32 -56 32 -55 33 C-53 33 -50 34 -48 34 C-48 35 -49 36 -49 37 C-54 38 -54 38 -59 36 C-61 31 -62 28 -61 23 C-59 18 -56 14 -53 9 C-52 9 -52 9 -51 9 C-50 8 -50 6 -49 5 C-33 -6 -17 -11 0 0 Z " fill="#D7D9E2" transform="translate(421,198)"/>
<path d="M0 0 C1 1 2 2 3 3 C3 4 3 5 3 5 C5 6 6 6 7 6 C7 8 7 10 7 11 C6 10 5 10 4 9 C-6 2 -15 -4 -28 -3 C-40 0 -49 7 -56 17 C-57 21 -57 23 -56 27 C-52 28 -52 28 -49 28 C-44 25 -44 25 -40 21 C-35 16 -31 15 -24 14 C-12 15 -6 20 1 29 C4 32 4 32 4 34 C-1 33 -3 31 -6 27 C-7 27 -8 26 -10 25 C-10 25 -10 24 -10 23 C-11 23 -13 22 -15 21 C-15 21 -16 21 -17 20 C-27 20 -33 22 -41 29 C-43 30 -43 30 -45 30 C-45 31 -45 32 -46 33 C-47 34 -49 35 -51 35 C-57 31 -62 27 -64 19 C-62 16 -62 16 -59 13 C-58 12 -57 11 -56 9 C-54 7 -51 4 -49 1 C-48 1 -48 1 -47 -1 C-32 -13 -14 -11 0 0 Z " fill="#D7D9E2" transform="translate(241.6875,200.6875)"/>
<path d="M0 0 C2 2 2 2 4 5 C5 6 5 6 8 9 C12 14 13 17 14 23 C10 28 4 28 -2 29 C-9 29 -11 30 -17 26 C-17 22 -16 18 -15 14 C-21 13 -23 14 -28 17 C-29 16 -29 16 -30 15 C-29 15 -29 15 -27 12 C-23 9 -23 9 -20 6 C-18 5 -16 4 -14 3 C-13 2 -12 2 -11 1 C-7 -1 -5 -1 0 0 Z " fill="#898EA0" transform="translate(500,335)"/>
<path d="M0 0 C4 1 6 2 9 5 C9 6 9 6 9 7 C10 7 10 7 14 9 C20 12 26 16 32 20 C35 22 38 23 42 25 C46 27 51 30 55 33 C55 34 55 34 55 35 C56 36 58 36 59 37 C59 39 58 40 58 42 C43 44 30 34 18 26 C17 25 17 25 16 24 C16 23 16 21 16 20 C15 20 14 20 13 20 C13 19 13 19 13 18 C12 18 12 18 11 18 C10 17 9 16 8 14 C4 10 1 8 -3 5 C-2 5 -1 4 0 4 C0 3 0 1 0 0 Z " fill="#B0B3BD" transform="translate(182,515)"/>
<path d="M0 0 C0 1 0 1 0 2 C1 2 1 2 2 2 C2 11 -4 18 -10 25 C-13 27 -15 28 -19 28 C-25 26 -28 24 -31 18 C-32 13 -32 10 -32 5 C-27 1 -25 2 -20 1 C-13 1 -7 0 0 0 Z " fill="#F28366" transform="translate(323,270)"/>
<path d="M0 0 C1 0 2 1 3 1 C3 4 3 8 3 11 C3 12 4 14 4 15 C6 21 7 27 7 33 C7 34 7 36 7 37 C7 40 6 43 5 46 C4 46 3 46 2 46 C0 44 0 44 -2 41 C-4 38 -7 35 -9 33 C-14 26 -14 26 -15 22 C-14 16 -11 14 -7 10 C-6 9 -6 8 -5 7 C-4 7 -3 7 -2 7 C-2 5 -1 4 -1 2 C-1 1 -0 1 0 0 Z " fill="#BDC0CC" transform="translate(466,189)"/>
<path d="M0 0 C4 1 4 1 7 4 C8 12 6 20 2 27 C1 27 1 28 0 29 C-4 27 -4 27 -6 24 C-10 19 -14 17 -20 14 C-21 13 -21 13 -22 12 C-21 7 -20 5 -16 2 C-11 -1 -6 -1 0 0 Z " fill="#C1C4D0" transform="translate(447,485)"/>
<path d="M0 0 C2 2 4 5 6 8 C9 12 13 14 18 17 C19 18 19 18 19 24 C18 25 17 27 16 28 C9 25 3 22 -3 18 C-4 17 -5 17 -6 16 C-8 15 -11 13 -13 12 C-13 11 -13 11 -13 10 C-14 9 -16 9 -17 8 C-18 7 -18 7 -19 6 C-18 2 -18 2 -15 0 C-10 -1 -5 -1 0 0 Z " fill="#C1C4D0" transform="translate(204,510)"/>
<path d="M0 0 C1 1 2 1 3 2 C3 6 3 6 3 11 C3 13 3 14 4 16 C-1 20 -4 21 -9 23 C-11 24 -13 24 -14 25 C-15 24 -15 22 -15 21 C-18 20 -18 20 -21 19 C-23 18 -24 17 -25 16 C-24 9 -19 4 -13 -0 C-9 -2 -5 -1 0 0 Z " fill="#F4BC3D" transform="translate(311.4375,225.9375)"/>
<path d="M0 0 C5 -1 9 0 14 1 C15 1 16 1 17 2 C19 2 20 2 21 2 C38 5 54 6 71 7 C71 7 71 8 71 8 C71 8 71 8 68 8 C65 8 61 8 57 8 C56 8 54 8 53 8 C52 8 52 8 49 8 C48 8 47 8 46 8 C45 9 44 9 43 9 C43 10 42 12 42 13 C38 13 33 13 29 13 C28 13 28 13 25 13 C23 17 23 17 23 22 C22 23 22 24 21 25 C19 25 18 25 16 25 C16 24 16 23 16 21 C16 16 15 15 12 12 C9 10 5 8 2 7 C1 6 -0 6 -1 5 C-1 3 -0 2 0 0 Z " fill="#E8E9EB" transform="translate(265,580)"/>
<path d="M0 0 C2 -0 4 -0 6 -0 C8 -0 9 -0 10 -0 C11 -0 12 -0 13 0 C14 1 14 3 15 4 C17 4 18 4 20 4 C22 4 23 4 25 4 C26 5 26 7 27 8 C33 8 33 8 38 8 C38 13 38 13 38 18 C37 19 35 21 34 22 C33 22 32 21 31 21 C31 20 30 20 30 19 C27 19 23 19 20 19 C19 18 18 18 17 18 C16 17 16 15 15 14 C13 14 12 14 10 14 C8 14 7 14 5 14 C4 13 4 11 3 10 C2 10 1 10 0 10 C0 7 0 3 0 0 Z " fill="#373739" transform="translate(29,293)"/>
<path d="M0 0 C5 1 5 1 9 5 C9 7 8 8 8 10 C7 10 7 10 6 10 C5 11 5 13 4 14 C2 14 0 14 -2 14 C-3 15 -3 17 -4 18 C-8 18 -11 18 -15 18 C-16 18 -17 18 -18 18 C-19 19 -19 21 -20 22 C-25 22 -25 22 -29 22 C-29 19 -29 15 -29 12 C-28 12 -27 12 -26 12 C-25 11 -25 9 -24 8 C-22 8 -20 8 -18 8 C-17 7 -17 5 -16 4 C-13 3 -13 3 -9 3 C-5 3 -5 3 -2 3 C-1 2 -1 1 0 0 Z " fill="#343437" transform="translate(598,289)"/>
<path d="M0 0 C4 -0 4 -0 9 0 C10 1 10 3 11 4 C12 5 14 5 15 6 C15 7 15 7 15 8 C16 9 18 9 19 10 C19 11 19 11 19 12 C20 13 22 13 23 14 C23 15 23 15 23 16 C24 17 26 17 27 18 C27 19 27 19 27 20 C28 20 29 20 30 20 C30 21 30 22 30 23 C30 24 30 24 30 27 C31 27 33 28 34 28 C34 29 34 29 34 30 C32 32 32 32 29 34 C27 34 26 33 24 33 C24 32 23 31 23 30 C22 29 20 29 19 28 C19 27 19 27 19 26 C18 25 16 25 15 24 C15 23 15 23 15 22 C14 21 12 21 11 20 C11 19 11 19 11 18 C10 17 8 17 7 16 C7 15 7 15 7 14 C6 13 4 13 3 12 C3 11 3 11 3 10 C2 10 1 10 0 10 C0 7 0 3 0 0 Z " fill="#222124" transform="translate(53,249)"/>
<path d="M0 0 C1 1 2 1 3 2 C3 10 -0 17 -3 25 C-8 37 -8 37 -8 42 C-8 43 -8 43 -5 47 C-5 47 -5 48 -5 49 C-6 50 -7 50 -8 51 C-11 55 -12 58 -13 62 C-13 66 -13 66 -16 69 C-20 69 -20 69 -23 68 C-24 66 -25 65 -25 64 C-24 64 -23 65 -22 66 C-21 66 -20 66 -18 67 C-14 63 -14 60 -13 55 C-13 54 -12 53 -12 52 C-10 47 -10 43 -10 38 C-10 35 -10 32 -9 28 C-7 23 -7 23 -8 19 C-10 18 -11 18 -12 18 C-14 19 -15 20 -16 21 C-20 20 -20 20 -22 20 C-22 13 -20 10 -15 5 C-11 4 -11 4 -7 3 C-3 -0 -3 -0 0 0 Z " fill="#9CA0B0" transform="translate(482.3125,347.1875)"/>
<path d="M0 0 C1 -0 3 -0 4 -0 C5 -0 5 -0 9 0 C10 0 12 0 13 -0 C21 0 28 0 36 2 C35 4 33 5 32 6 C31 11 31 13 32 17 C31 19 29 20 28 21 C19 19 11 14 4 8 C4 7 3 6 3 5 C0 5 -2 5 -5 4 C-6 4 -8 3 -9 2 C-6 -1 -4 0 0 0 Z " fill="#C6C9D3" transform="translate(316.0625,590.734375)"/>
<path d="M0 0 C5 -0 5 -0 9 0 C9 3 9 7 9 10 C8 10 7 10 6 10 C5 11 5 13 4 14 C3 14 3 14 2 14 C1 15 1 17 0 18 C-1 18 -1 18 -2 18 C-3 19 -3 21 -4 22 C-5 22 -5 22 -6 22 C-7 23 -7 25 -8 26 C-9 26 -9 26 -10 26 C-11 27 -11 29 -12 30 C-13 30 -13 30 -14 30 C-15 31 -15 33 -16 34 C-21 33 -21 33 -25 30 C-25 29 -25 29 -25 28 C-24 27 -23 27 -22 26 C-18 23 -18 23 -17 19 C-17 19 -17 19 -17 16 C-16 16 -15 16 -14 16 C-13 15 -13 13 -12 12 C-11 12 -11 12 -10 12 C-9 11 -9 9 -8 8 C-7 8 -7 8 -6 8 C-5 7 -5 5 -4 4 C-3 4 -3 4 -2 4 C-1 3 -1 1 0 0 Z " fill="#18181B" transform="translate(574,245)"/>
<path d="M0 0 C4 1 6 3 9 5 C12 5 15 6 18 7 C23 10 23 11 24 16 C20 17 15 17 10 17 C9 17 8 17 7 17 C-0 17 -7 16 -15 15 C-13 7 -8 2 0 0 Z " fill="#C6C9D3" transform="translate(258.6875,611.25)"/>
<path d="M0 0 C3 5 3 6 3 12 C3 13 3 13 3 16 C3 20 3 20 -1 24 C-6 26 -8 26 -13 24 C-13 22 -14 19 -14 17 C-15 16 -15 15 -16 14 C-16 10 -16 10 -15 6 C-13 5 -12 4 -10 3 C-10 2 -9 1 -9 0 C-5 -1 -5 -1 0 0 Z " fill="#C2C5D1" transform="translate(165,380)"/>
<path d="M0 0 C1 1 3 1 4 2 C4 4 3 5 3 7 C2 7 2 7 1 7 C1 14 3 15 7 20 C7 21 6 23 6 24 C-0 25 -2 24 -7 21 C-8 21 -8 21 -12 20 C-17 18 -17 18 -21 14 C-19 8 -17 7 -12 4 C-9 3 -7 3 -4 2 C-3 1 -1 1 0 0 Z " fill="#C2C5D1" transform="translate(375,372)"/>
<path d="M0 0 C1 -0 3 -0 4 -0 C11 -0 18 1 26 2 C25 4 24 5 24 6 C20 6 20 6 17 6 C17 7 17 8 17 8 C10 8 10 8 -25 9 C-25 9 -25 8 -25 7 C-26 7 -27 7 -28 6 C-29 5 -29 4 -29 2 C-19 1 -10 -0 0 0 Z " fill="#D7D9E2" transform="translate(321.1875,37.75)"/>
<path d="M0 0 C2 0 3 0 5 0 C5 1 5 1 5 2 C6 2 6 2 7 2 C8 6 8 9 9 13 C11 16 11 16 16 17 C17 18 19 18 21 18 C23 19 25 19 27 19 C27 19 27 19 31 20 C31 20 31 20 30 23 C27 23 24 23 21 23 C18 23 18 23 14 24 C13 27 13 27 12 30 C6 29 5 27 1 23 C-2 22 -2 22 -5 21 C-3 16 -3 16 -2 15 C-2 13 -2 12 -2 10 C-2 5 -2 5 0 0 Z " fill="#E48B0D" transform="translate(407,573)"/>
<path d="M0 0 C1 0 1 1 2 1 C1 7 -0 8 -5 11 C-5 12 -6 12 -6 13 C-8 14 -9 15 -11 16 C-12 17 -13 18 -15 19 C-22 24 -29 28 -38 31 C-39 31 -40 30 -41 30 C-40 27 -40 27 -39 23 C-35 21 -35 21 -31 19 C-27 17 -22 15 -18 12 C-17 12 -15 11 -14 11 C-13 9 -13 8 -12 6 C-9 1 -6 -2 0 0 Z " fill="#9CA0B0" transform="translate(475,517)"/>
<path d="M0 0 C0 1 0 2 0 3 C-1 3 -1 3 -6 2 C-6 3 -5 4 -5 5 C-5 9 -5 9 -7 12 C-8 12 -10 13 -11 14 C-14 17 -17 19 -19 22 C-21 25 -21 25 -26 26 C-27 26 -28 26 -29 26 C-31 21 -31 21 -30 16 C-25 7 -17 4 -8 0 C-4 -1 -4 -1 0 0 Z " fill="#BCBFCB" transform="translate(483,335)"/>
<path d="M0 0 C3 2 3 2 4 7 C4 9 5 10 5 12 C6 13 6 15 7 16 C8 16 8 16 9 16 C9 17 9 17 9 18 C8 18 7 19 5 19 C1 21 -1 23 -4 26 C-5 27 -7 28 -8 29 C-10 22 -10 22 -10 20 C-17 20 -23 20 -30 20 C-29 20 -29 19 -28 19 C-28 18 -27 17 -27 16 C-23 15 -18 15 -14 14 C-10 13 -10 13 -6 9 C-5 6 -3 4 -2 1 C-1 1 -1 0 0 0 Z " fill="#DA830E" transform="translate(247,576)"/>
<path d="M0 0 C1 0 2 1 3 1 C3 3 4 6 4 8 C5 9 6 11 7 12 C8 21 4 30 -1 37 C-4 40 -4 40 -7 40 C-8 40 -9 39 -10 39 C-11 35 -11 35 -9 30 C-8 29 -7 29 -6 28 C-5 25 -5 25 -5 21 C-4 16 -4 14 -1 9 C-1 6 -0 3 0 0 Z " fill="#BDC0CC" transform="translate(156,291)"/>
<path d="M0 0 C4 1 5 3 8 6 C9 8 9 9 10 11 C12 14 12 14 15 16 C16 16 18 16 19 16 C21 19 21 19 24 22 C25 23 25 23 27 26 C30 29 30 29 30 31 C31 31 31 31 32 31 C35 34 36 35 37 39 C36 45 31 50 27 54 C26 54 24 53 23 53 C24 52 24 51 25 50 C28 44 28 38 26 32 C24 28 21 27 18 24 C9 18 4 12 0 2 C0 1 0 1 0 0 Z " fill="#D7D9E2" transform="translate(330,224)"/>
<path d="M0 0 C1 0 2 1 3 1 C3 4 3 6 3 9 C3 10 3 12 4 13 C4 18 3 19 0 23 C-3 26 -6 28 -10 30 C-11 32 -13 34 -14 36 C-15 36 -15 36 -16 36 C-16 35 -16 33 -16 32 C-15 32 -15 32 -14 32 C-14 31 -14 29 -14 28 C-13 21 -11 17 -8 12 C-7 10 -6 9 -5 7 C-3 3 -3 3 0 0 Z " fill="#BDC0CC" transform="translate(196,108)"/>
<path d="M0 0 C1 1 1 1 2 2 C1 2 -1 3 -2 3 C-2 4 -3 5 -3 6 C-4 6 -6 6 -7 6 C-7 7 -7 9 -7 10 C-9 10 -11 10 -13 10 C-13 11 -13 11 -13 12 C-14 12 -15 12 -16 12 C-17 12 -18 13 -19 13 C-19 14 -20 16 -20 17 C-23 23 -29 28 -34 33 C-38 34 -38 34 -41 34 C-41 35 -41 35 -41 36 C-42 36 -42 36 -44 35 C-48 35 -48 35 -53 36 C-53 34 -53 33 -53 31 C-54 31 -54 31 -55 31 C-55 30 -55 30 -55 29 C-54 29 -53 29 -52 29 C-43 29 -37 29 -30 23 C-26 17 -21 12 -17 5 C-14 4 -11 4 -8 4 C-5 3 -5 3 0 0 Z " fill="#D0D2DC" transform="translate(352,278)"/>
<path d="M0 0 C2 2 2 2 2 7 C-2 10 -5 12 -9 14 C-12 15 -12 15 -15 20 C-17 21 -18 21 -20 22 C-25 17 -25 12 -25 5 C-16 6 -16 6 -14 7 C-14 6 -13 5 -13 4 C-10 4 -7 3 -4 3 C-3 2 -1 1 0 0 Z " fill="#858A9D" transform="translate(497,462)"/>
<path d="M0 0 C1 0 1 0 2 0 C2 1 2 1 2 2 C3 2 4 2 5 2 C5 4 6 5 6 7 C5 8 5 8 4 9 C3 9 2 9 1 9 C1 13 1 17 2 21 C2 25 2 25 0 28 C-1 28 -1 28 -2 28 C-3 35 -3 43 -3 50 C-4 50 -6 50 -7 50 C-8 51 -8 53 -9 54 C-10 36 -6 17 0 0 Z " fill="#D7D9E2" transform="translate(172,151)"/>
<path d="M0 0 C2 3 2 3 2 6 C3 6 5 6 6 6 C6 12 6 12 5 15 C4 16 3 17 2 18 C-2 18 -2 18 -7 17 C-12 16 -12 16 -14 17 C-14 16 -14 16 -14 15 C-15 15 -15 14 -16 14 C-8 0 -8 0 0 0 Z " fill="#898EA0" transform="translate(147,346)"/>
<path d="M0 0 C6 4 6 4 7 8 C7 9 7 10 7 11 C8 11 8 11 9 11 C10 13 10 15 11 17 C12 19 13 20 14 22 C14 25 14 25 13 28 C12 27 11 27 10 26 C7 26 7 26 3 26 C2 27 0 29 -1 30 C-2 30 -2 30 -6 28 C-5 23 -5 23 -2 21 C1 18 1 18 2 14 C1 10 0 7 -1 3 C-1 2 -0 1 0 0 Z " fill="#BDC0CC" transform="translate(439,106)"/>
<path d="M0 0 C0 2 0 3 0 5 C-3 7 -6 9 -9 11 C-12 13 -12 13 -14 16 C-16 18 -17 19 -19 21 C-19 22 -20 22 -21 23 C-23 25 -23 25 -25 25 C-25 27 -26 28 -26 30 C-28 32 -30 35 -32 37 C-32 38 -32 38 -35 42 C-37 42 -38 42 -40 42 C-34 30 -15 0 0 0 Z " fill="#D7D9E2" transform="translate(232,66)"/>
<path d="M0 0 C4 1 4 1 6 3 C9 6 9 6 12 7 C13 7 14 8 15 8 C16 11 16 11 16 14 C14 17 14 17 10 18 C6 19 6 19 1 19 C-2 13 -1 7 -1 1 C-1 1 -0 0 0 0 Z " fill="#BDC0CC" transform="translate(160,266)"/>
<path d="M0 0 C3 1 3 1 5 4 C7 5 8 6 10 7 C10 9 11 10 11 12 C8 15 4 18 -0 19 C-3 19 -3 19 -5 17 C-8 13 -7 10 -6 5 C-5 5 -5 6 -4 6 C-4 7 -4 7 -4 8 C-3 8 -3 8 -2 8 C-2 7 -3 6 -3 5 C-2 3 -1 2 0 0 Z " fill="#9CA0B0" transform="translate(462,493)"/>
<path d="M0 0 C2 0 3 0 5 0 C5 1 6 1 6 2 C4 2 2 2 0 2 C0 1 0 1 0 0 Z " fill="#E8E9EB" transform="translate(81,489)"/>
</svg>
