<?xml version="1.0" encoding="UTF-8"?>
<!-- Generator: visioncortex VTracer 0.6.12 -->
<svg version="1.1" xmlns="http://www.w3.org/2000/svg" width="520" height="564">
<path d="M0 0 C3 -1 3 -1 7 -1 C9 -1 10 -1 11 -1 C13 -1 14 -1 16 -0 C18 -1 19 -1 21 -1 C22 -1 23 -1 25 -1 C26 -1 28 -1 29 -1 C30 -0 31 -0 32 0 C32 1 32 1 34 4 C38 4 38 4 43 4 C48 4 48 4 52 4 C52 5 52 5 54 8 C56 8 58 8 60 8 C61 9 61 11 62 12 C64 12 65 12 67 12 C69 12 70 12 72 12 C73 13 73 15 74 16 C76 16 78 16 80 16 C81 17 81 19 82 20 C83 20 83 20 86 22 C86 23 86 23 86 24 C88 24 90 24 92 24 C93 25 93 27 94 28 C95 28 95 28 98 30 C98 31 98 31 98 32 C99 33 101 33 102 34 C102 35 102 35 102 36 C103 37 105 37 106 38 C106 39 106 39 106 40 C107 41 109 41 110 42 C110 43 110 43 110 44 C111 44 112 44 113 44 C113 45 113 46 113 47 C114 51 114 51 118 54 C118 55 118 55 118 56 C119 56 120 56 121 56 C121 57 121 58 121 59 C122 61 122 62 122 63 C123 63 124 64 125 64 C125 66 126 69 126 71 C127 71 128 72 129 72 C129 76 130 79 130 83 C131 83 132 84 133 84 C133 88 134 92 134 96 C134 97 134 98 134 99 C135 99 136 100 137 100 C137 104 138 108 138 112 C138 113 138 114 138 115 C139 115 140 116 141 116 C141 121 141 126 142 131 C142 134 142 136 142 139 C143 139 144 140 145 140 C145 143 145 143 145 147 C145 148 145 150 145 151 C145 154 146 157 146 160 C146 161 146 163 146 164 C146 165 146 167 146 168 C146 169 146 170 146 171 C147 171 148 172 149 172 C149 176 150 180 150 184 C150 185 150 186 150 187 C151 187 152 188 153 188 C153 190 153 192 153 193 C154 195 154 197 154 199 C155 200 157 201 158 202 C158 203 158 203 158 204 C159 205 161 205 162 206 C162 207 162 207 162 208 C164 208 166 208 168 208 C169 209 169 211 170 212 C171 213 173 213 174 214 C174 215 174 215 174 216 C176 216 178 216 180 216 C181 217 181 219 182 220 C184 220 186 220 188 220 C189 221 189 223 190 224 C192 224 193 224 195 224 C197 224 198 224 200 224 C201 225 201 227 202 228 C204 228 205 228 207 228 C209 228 210 228 212 228 C213 229 213 231 214 232 C218 232 218 232 223 232 C228 232 228 232 232 232 C233 233 233 235 234 236 C238 236 241 236 245 236 C249 236 252 236 256 236 C257 237 257 239 258 240 C262 240 262 240 265 240 C265 241 265 242 265 243 C266 245 266 246 266 247 C267 247 268 248 269 248 C269 252 269 252 269 256 C269 258 269 260 269 262 C269 263 269 263 269 268 C269 270 269 272 269 274 C269 278 269 282 269 286 C269 292 269 297 269 303 C269 307 269 311 269 315 C269 318 269 321 269 324 C269 326 269 328 269 330 C269 331 269 333 269 334 C269 336 269 337 269 338 C268 338 267 339 266 339 C266 344 266 348 266 352 C265 357 265 361 265 366 C264 366 263 367 262 367 C262 370 262 370 262 374 C261 379 261 379 261 382 C260 382 259 383 258 383 C258 384 258 385 258 386 C257 388 257 389 257 390 C256 390 255 391 254 391 C254 393 254 395 254 396 C253 398 253 400 253 402 C252 402 251 403 250 403 C250 404 250 405 250 406 C249 408 249 409 249 410 C248 410 247 411 246 411 C245 415 245 415 245 418 C244 418 243 418 242 418 C241 419 241 421 240 422 C239 422 239 423 238 423 C238 425 237 428 237 430 C236 430 235 430 234 430 C233 431 233 433 232 434 C231 434 231 434 230 434 C229 435 229 437 228 438 C227 438 227 438 226 438 C225 439 225 441 224 442 C223 442 223 442 222 442 C221 443 221 445 220 446 C219 446 219 447 218 447 C218 449 217 452 217 454 C216 454 215 454 214 454 C212 454 211 454 210 454 C209 455 209 457 208 458 C207 458 207 458 206 458 C205 459 205 461 204 462 C203 462 203 462 202 462 C201 463 201 465 200 466 C199 466 199 466 198 466 C197 467 197 469 196 470 C195 470 195 470 194 470 C193 471 193 473 192 474 C191 474 191 474 190 474 C189 475 189 477 188 478 C185 479 185 479 182 479 C182 480 182 482 182 483 C184 483 185 483 187 483 C189 483 190 484 192 484 C193 485 193 487 194 488 C196 488 198 488 200 488 C203 490 203 490 205 492 C205 493 205 493 205 494 C203 496 203 496 200 498 C198 498 196 498 194 498 C193 499 193 501 192 502 C187 502 183 502 178 502 C175 502 173 502 170 502 C169 503 169 505 168 506 C163 506 159 506 154 506 C153 506 151 506 150 506 C149 507 149 509 148 510 C144 510 140 510 135 510 C135 510 135 510 131 510 C126 510 120 510 115 510 C111 510 107 510 103 510 C102 510 100 510 99 510 C96 510 93 510 90 510 C89 511 89 513 88 514 C84 514 80 515 76 515 C74 515 73 515 72 515 C68 515 63 515 59 515 C56 515 53 515 50 515 C44 515 38 515 32 515 C24 514 16 515 8 515 C2 515 -5 515 -11 515 C-14 515 -16 515 -19 515 C-23 515 -28 515 -32 515 C-33 515 -34 515 -35 515 C-39 515 -39 515 -44 514 C-45 513 -45 511 -46 510 C-50 510 -54 510 -58 510 C-59 510 -60 510 -62 510 C-65 510 -69 510 -73 510 C-78 510 -83 510 -88 510 C-89 510 -89 510 -92 510 C-95 510 -95 510 -100 510 C-101 509 -101 507 -102 506 C-106 506 -111 506 -115 506 C-119 506 -124 506 -128 506 C-129 505 -129 503 -130 502 C-134 502 -134 502 -139 502 C-144 502 -144 502 -148 502 C-148 501 -148 501 -150 498 C-152 498 -154 498 -156 498 C-159 496 -159 496 -161 494 C-161 493 -161 493 -161 492 C-159 490 -159 490 -156 488 C-154 488 -152 488 -150 488 C-149 487 -149 485 -148 484 C-144 484 -141 484 -137 484 C-136 484 -135 484 -134 484 C-133 483 -133 481 -132 480 C-129 480 -129 480 -125 480 C-124 480 -123 480 -121 480 C-118 480 -116 480 -113 480 C-111 480 -110 480 -109 480 C-107 480 -106 480 -105 480 C-104 480 -103 480 -102 480 C-101 479 -101 477 -100 476 C-96 476 -96 476 -92 476 C-92 476 -92 476 -90 479 C-89 479 -87 479 -86 479 C-85 478 -85 477 -84 476 C-82 476 -81 476 -79 476 C-77 476 -76 476 -74 476 C-73 475 -73 473 -72 472 C-71 472 -71 471 -70 471 C-70 470 -70 468 -70 467 C-72 467 -73 467 -75 467 C-76 467 -76 467 -80 466 C-81 465 -81 463 -82 462 C-84 462 -85 462 -87 462 C-89 462 -90 462 -92 462 C-93 461 -93 459 -94 458 C-96 458 -98 458 -100 458 C-101 457 -101 455 -102 454 C-103 454 -104 453 -105 453 C-105 452 -106 452 -106 451 C-107 451 -109 451 -110 451 C-111 452 -111 453 -112 454 C-114 454 -116 454 -118 454 C-119 455 -119 457 -120 458 C-123 458 -127 458 -130 458 C-131 459 -131 461 -132 462 C-136 462 -140 463 -144 462 C-145 463 -146 463 -147 463 C-151 463 -151 463 -156 462 C-156 461 -156 461 -158 458 C-163 457 -163 457 -168 458 C-169 457 -169 457 -174 457 C-175 458 -176 458 -178 458 C-178 459 -178 459 -180 462 C-184 462 -184 462 -188 462 C-189 461 -189 459 -190 458 C-192 458 -194 458 -196 458 C-197 457 -197 455 -198 454 C-199 454 -200 454 -201 454 C-201 449 -201 445 -201 440 C-200 440 -199 440 -198 440 C-198 439 -198 439 -196 436 C-195 436 -195 435 -194 435 C-194 431 -193 428 -193 424 C-192 424 -191 424 -190 424 C-190 423 -190 423 -188 420 C-187 420 -187 420 -186 420 C-186 419 -186 419 -184 416 C-183 416 -183 416 -182 416 C-182 415 -182 415 -180 412 C-179 412 -179 412 -178 412 C-178 411 -178 411 -176 408 C-175 408 -175 408 -174 408 C-174 407 -174 407 -172 404 C-171 404 -171 403 -170 403 C-170 399 -170 399 -170 395 C-171 395 -172 394 -173 394 C-173 390 -174 386 -174 382 C-174 381 -174 380 -174 379 C-175 379 -176 378 -177 378 C-177 373 -178 368 -178 363 C-178 362 -178 360 -178 359 C-179 359 -180 358 -181 358 C-181 354 -181 351 -181 347 C-181 346 -181 345 -181 344 C-181 341 -181 339 -181 336 C-180 336 -179 335 -178 335 C-178 330 -178 326 -178 322 C-177 317 -177 313 -177 308 C-176 308 -175 307 -174 307 C-174 305 -174 303 -174 302 C-173 300 -173 298 -173 296 C-172 296 -171 295 -170 295 C-170 293 -170 291 -170 290 C-169 288 -169 286 -169 284 C-168 284 -167 283 -166 283 C-166 282 -166 281 -166 280 C-165 278 -165 277 -165 276 C-164 276 -163 275 -162 275 C-162 273 -162 271 -162 270 C-161 268 -161 266 -161 264 C-160 264 -159 263 -158 263 C-157 259 -157 259 -157 256 C-156 256 -155 256 -154 256 C-153 255 -153 253 -152 252 C-151 252 -151 251 -150 251 C-150 249 -149 246 -149 244 C-148 244 -147 244 -146 244 C-145 243 -145 241 -144 240 C-143 240 -143 240 -142 240 C-141 239 -141 237 -140 236 C-139 236 -139 235 -138 235 C-138 233 -138 231 -138 230 C-137 229 -137 229 -137 224 C-136 224 -135 223 -134 223 C-134 222 -134 221 -134 220 C-133 218 -133 217 -133 216 C-132 216 -131 215 -130 215 C-130 214 -130 213 -130 212 C-129 210 -129 209 -129 208 C-128 208 -127 207 -126 207 C-126 205 -126 203 -126 202 C-125 200 -125 198 -125 196 C-124 196 -123 195 -122 195 C-122 191 -122 187 -122 184 C-121 180 -121 176 -121 172 C-120 172 -119 171 -118 171 C-118 167 -118 163 -118 160 C-117 156 -117 152 -117 148 C-116 148 -115 147 -114 147 C-114 143 -114 139 -114 136 C-113 132 -113 128 -113 124 C-112 124 -111 123 -110 123 C-110 119 -110 119 -110 114 C-109 108 -109 108 -109 104 C-108 104 -107 103 -106 103 C-106 101 -106 99 -106 98 C-105 96 -105 94 -105 92 C-104 92 -103 91 -102 91 C-102 89 -102 87 -102 86 C-101 84 -101 82 -101 80 C-100 80 -99 79 -98 79 C-98 78 -98 77 -98 76 C-97 74 -97 73 -97 72 C-96 72 -95 71 -94 71 C-93 67 -93 67 -93 64 C-92 64 -91 64 -90 64 C-89 63 -89 61 -88 60 C-87 60 -87 59 -86 59 C-86 57 -85 54 -85 52 C-84 52 -83 52 -82 52 C-81 51 -81 49 -80 48 C-79 48 -79 48 -78 48 C-77 47 -77 45 -76 44 C-75 44 -75 43 -74 43 C-74 41 -73 38 -73 36 C-72 36 -71 36 -70 36 C-69 35 -69 33 -68 32 C-67 32 -67 32 -66 32 C-65 31 -65 29 -64 28 C-63 28 -63 28 -62 28 C-61 27 -61 25 -60 24 C-58 24 -56 24 -54 24 C-53 23 -53 21 -52 20 C-50 20 -48 20 -46 20 C-45 19 -45 17 -44 16 C-42 16 -40 16 -38 16 C-37 15 -37 13 -36 12 C-34 12 -32 12 -30 12 C-29 11 -29 9 -28 8 C-25 8 -21 8 -18 8 C-17 7 -17 5 -16 4 C-12 4 -9 4 -5 4 C-4 4 -3 4 -2 4 C-1 3 -1 1 0 0 Z " fill="#5962D1" transform="translate(226,25)"/>
<path d="M0 0 C1 -0 3 -0 4 -0 C17 -0 29 2 41 6 C42 7 44 7 45 8 C49 9 49 9 53 12 C54 13 54 13 57 14 C71 22 84 35 92 48 C92 49 92 50 92 50 C93 50 93 50 94 50 C99 60 102 69 105 79 C105 80 106 82 106 83 C108 91 110 98 111 106 C111 109 111 109 113 113 C114 119 114 124 114 129 C115 138 115 138 117 142 C117 145 117 147 118 150 C118 158 119 165 121 172 C122 176 122 178 120 181 C119 182 118 182 117 182 C116 184 114 185 113 186 C111 188 108 190 105 191 C103 193 101 194 98 196 C90 201 82 206 72 209 C71 210 71 210 67 212 C62 213 60 214 55 213 C55 214 55 215 55 215 C39 221 24 223 7 223 C0 224 -3 226 -7 231 C-9 235 -9 239 -9 244 C-9 246 -9 248 -9 250 C-9 252 -9 254 -9 256 C-9 258 -9 260 -9 262 C-9 267 -9 271 -9 276 C-9 282 -9 287 -9 293 C-9 298 -9 302 -9 307 C-9 309 -9 311 -9 313 C-9 337 -5 359 3 381 C4 383 4 384 5 386 C9 399 17 411 26 422 C29 426 29 426 29 428 C30 428 30 428 31 428 C31 429 31 430 31 430 C32 431 34 432 35 432 C44 439 44 439 45 443 C44 443 44 443 43 443 C43 445 42 447 42 448 C39 449 39 449 35 449 C34 449 34 449 30 450 C28 450 26 450 24 450 C22 450 21 450 20 450 C18 450 16 450 13 450 C10 450 6 451 3 451 C-8 451 -18 452 -29 450 C-33 449 -36 449 -40 449 C-41 449 -42 449 -43 449 C-44 449 -45 449 -46 449 C-46 449 -46 448 -46 447 C-48 448 -49 448 -51 448 C-57 448 -57 448 -60 447 C-60 446 -60 446 -62 444 C-67 441 -67 441 -72 441 C-74 442 -75 443 -77 443 C-93 442 -113 432 -125 420 C-125 414 -125 414 -123 411 C-122 411 -122 411 -121 411 C-120 410 -120 409 -119 407 C-118 407 -118 407 -116 403 C-114 399 -114 399 -113 396 C-112 396 -112 396 -111 396 C-111 395 -111 394 -111 393 C-110 388 -109 386 -107 382 C-106 381 -105 379 -104 377 C-101 372 -101 372 -98 369 C-97 369 -97 369 -96 369 C-96 368 -96 368 -96 367 C-95 363 -94 359 -92 356 C-91 350 -89 344 -88 337 C-88 336 -87 335 -87 333 C-85 315 -85 294 -89 276 C-90 276 -91 276 -92 275 C-93 276 -93 277 -94 278 C-94 278 -95 278 -95 277 C-96 282 -96 285 -95 289 C-95 294 -95 299 -95 304 C-95 306 -95 307 -95 308 C-95 310 -95 311 -95 312 C-95 314 -95 315 -95 316 C-95 319 -96 322 -97 325 C-97 330 -98 334 -98 338 C-99 342 -99 342 -102 346 C-102 348 -102 349 -102 350 C-102 357 -105 360 -109 364 C-114 369 -117 373 -117 380 C-119 388 -123 397 -129 403 C-134 406 -134 406 -138 406 C-141 405 -141 405 -144 401 C-146 393 -146 385 -147 377 C-148 378 -149 378 -150 378 C-152 382 -153 386 -154 390 C-156 393 -157 396 -161 398 C-166 397 -166 397 -169 394 C-180 377 -184 355 -183 335 C-182 334 -182 332 -181 330 C-181 330 -182 329 -182 328 C-183 312 -183 312 -181 304 C-180 304 -179 304 -178 303 C-177 301 -177 301 -177 297 C-177 293 -177 290 -175 286 C-175 285 -174 283 -174 282 C-171 266 -163 245 -150 235 C-149 235 -149 235 -148 235 C-148 235 -148 234 -148 233 C-147 233 -145 233 -144 233 C-143 233 -143 233 -140 232 C-139 228 -139 226 -140 221 C-140 216 -139 213 -136 208 C-134 203 -133 198 -131 193 C-131 192 -131 191 -130 190 C-129 186 -128 182 -127 178 C-125 170 -125 170 -124 169 C-123 166 -123 162 -122 159 C-122 156 -122 154 -121 152 C-121 148 -121 145 -120 141 C-118 128 -116 115 -113 101 C-112 100 -112 98 -112 96 C-105 73 -105 73 -99 63 C-98 62 -98 61 -98 60 C-86 33 -60 14 -33 4 C-22 0 -11 -0 0 0 Z " fill="#C8CBD5" transform="translate(241.875,38.6875)"/>
<path d="M0 0 C3 -1 3 -1 7 -1 C9 -1 10 -1 11 -1 C13 -1 14 -1 16 -0 C18 -1 19 -1 21 -1 C22 -1 23 -1 25 -1 C26 -1 28 -1 29 -1 C30 -0 31 -0 32 0 C32 1 32 1 34 4 C38 4 38 4 43 4 C48 4 48 4 52 4 C52 5 52 5 54 8 C56 8 58 8 60 8 C61 9 61 11 62 12 C64 12 65 12 67 12 C69 12 70 12 72 12 C73 13 73 15 74 16 C76 16 78 16 80 16 C81 17 81 19 82 20 C83 20 83 20 86 22 C86 23 86 23 86 24 C88 24 90 24 92 24 C93 25 93 27 94 28 C95 28 95 28 98 30 C98 31 98 31 98 32 C99 33 101 33 102 34 C102 35 102 35 102 36 C103 37 105 37 106 38 C106 39 106 39 106 40 C107 41 109 41 110 42 C110 43 110 43 110 44 C111 44 112 44 113 44 C113 45 113 46 113 47 C114 51 114 51 118 54 C118 55 118 55 118 56 C119 56 120 56 121 56 C121 57 121 58 121 59 C122 61 122 62 122 63 C123 63 124 64 125 64 C125 66 126 69 126 71 C127 71 128 72 129 72 C129 76 130 79 130 83 C131 83 132 84 133 84 C133 88 134 92 134 96 C134 97 134 98 134 99 C135 99 136 100 137 100 C137 104 138 108 138 112 C138 113 138 114 138 115 C139 115 140 116 141 116 C141 121 141 126 142 131 C142 134 142 136 142 139 C143 139 144 140 145 140 C145 143 145 143 145 147 C145 148 145 150 145 151 C145 154 146 157 146 160 C146 161 146 163 146 164 C146 165 146 167 146 168 C146 169 146 170 146 171 C147 171 148 172 149 172 C149 176 150 180 150 184 C150 185 150 186 150 187 C151 187 152 188 153 188 C153 190 153 192 153 193 C154 195 154 197 154 199 C155 200 157 201 158 202 C158 203 158 203 158 204 C159 205 161 205 162 206 C162 207 162 207 162 208 C164 208 166 208 168 208 C169 209 169 211 170 212 C171 213 173 213 174 214 C174 215 174 215 174 216 C176 216 178 216 180 216 C181 217 181 219 182 220 C184 220 186 220 188 220 C189 221 189 223 190 224 C192 224 193 224 195 224 C197 224 198 224 200 224 C201 225 201 227 202 228 C204 228 205 228 207 228 C209 228 210 228 212 228 C213 229 213 231 214 232 C218 232 218 232 223 232 C228 232 228 232 232 232 C233 233 233 235 234 236 C238 236 241 236 245 236 C249 236 252 236 256 236 C257 237 257 239 258 240 C262 240 262 240 265 240 C265 241 265 242 265 243 C266 245 266 246 266 247 C267 247 268 248 269 248 C269 252 269 252 269 256 C269 258 269 260 269 262 C269 263 269 263 269 268 C269 270 269 272 269 274 C269 278 269 282 269 286 C269 292 269 297 269 303 C269 307 269 311 269 315 C269 318 269 321 269 324 C269 326 269 328 269 330 C269 331 269 333 269 334 C269 336 269 337 269 338 C268 338 267 339 266 339 C266 344 266 348 266 352 C265 357 265 361 265 366 C264 366 263 367 262 367 C262 370 262 370 262 374 C261 379 261 379 261 382 C260 382 259 383 258 383 C258 384 258 385 258 386 C257 388 257 389 257 390 C256 390 255 391 254 391 C254 393 254 395 254 396 C253 398 253 400 253 402 C252 402 251 403 250 403 C250 404 250 405 250 406 C249 408 249 409 249 410 C248 410 247 411 246 411 C245 415 245 415 245 418 C244 418 243 418 242 418 C241 419 241 421 240 422 C239 422 239 423 238 423 C238 425 237 428 237 430 C236 430 235 430 234 430 C233 431 233 433 232 434 C231 434 231 434 230 434 C229 435 229 437 228 438 C227 438 227 438 226 438 C225 439 225 441 224 442 C223 442 223 442 222 442 C221 443 221 445 220 446 C219 446 219 447 218 447 C218 449 217 452 217 454 C216 454 215 454 214 454 C212 454 211 454 210 454 C209 455 209 457 208 458 C207 458 207 458 206 458 C205 459 205 461 204 462 C203 462 203 462 202 462 C201 463 201 465 200 466 C199 466 199 466 198 466 C197 467 197 469 196 470 C195 470 195 470 194 470 C193 471 193 473 192 474 C191 474 191 474 190 474 C189 475 189 477 188 478 C185 479 185 479 182 479 C182 480 182 482 182 483 C184 483 185 483 187 483 C189 483 190 484 192 484 C193 485 193 487 194 488 C196 488 198 488 200 488 C203 490 203 490 205 492 C205 493 205 493 205 494 C203 496 203 496 200 498 C198 498 196 498 194 498 C193 499 193 501 192 502 C187 502 183 502 178 502 C175 502 173 502 170 502 C169 503 169 505 168 506 C163 506 159 506 154 506 C153 506 151 506 150 506 C149 507 149 509 148 510 C144 510 140 510 135 510 C135 510 135 510 131 510 C126 510 120 510 115 510 C111 510 107 510 103 510 C102 510 100 510 99 510 C96 510 93 510 90 510 C89 511 89 513 88 514 C84 514 80 515 76 515 C74 515 73 515 72 515 C68 515 63 515 59 515 C56 515 53 515 50 515 C44 515 38 515 32 515 C24 514 16 515 8 515 C2 515 -5 515 -11 515 C-14 515 -16 515 -19 515 C-23 515 -28 515 -32 515 C-33 515 -34 515 -35 515 C-39 515 -39 515 -44 514 C-45 513 -45 511 -46 510 C-50 510 -54 510 -58 510 C-59 510 -60 510 -62 510 C-65 510 -69 510 -73 510 C-78 510 -83 510 -88 510 C-89 510 -89 510 -92 510 C-95 510 -95 510 -100 510 C-101 509 -101 507 -102 506 C-106 506 -111 506 -115 506 C-119 506 -124 506 -128 506 C-129 505 -129 503 -130 502 C-134 502 -134 502 -139 502 C-144 502 -144 502 -148 502 C-148 501 -148 501 -150 498 C-152 498 -154 498 -156 498 C-159 496 -159 496 -161 494 C-161 493 -161 493 -161 492 C-159 490 -159 490 -156 488 C-154 488 -152 488 -150 488 C-149 487 -149 485 -148 484 C-144 484 -141 484 -137 484 C-136 484 -135 484 -134 484 C-133 483 -133 481 -132 480 C-129 480 -129 480 -125 480 C-124 480 -123 480 -121 480 C-118 480 -116 480 -113 480 C-111 480 -110 480 -109 480 C-107 480 -106 480 -105 480 C-104 480 -103 480 -102 480 C-101 479 -101 477 -100 476 C-96 476 -96 476 -92 476 C-92 476 -92 476 -90 479 C-89 479 -87 479 -86 479 C-85 478 -85 477 -84 476 C-82 476 -81 476 -79 476 C-77 476 -76 476 -74 476 C-73 475 -73 473 -72 472 C-71 472 -71 471 -70 471 C-70 470 -70 468 -70 467 C-72 467 -73 467 -75 467 C-76 467 -76 467 -80 466 C-81 465 -81 463 -82 462 C-84 462 -85 462 -87 462 C-89 462 -90 462 -92 462 C-93 461 -93 459 -94 458 C-96 458 -98 458 -100 458 C-101 457 -101 455 -102 454 C-103 454 -104 453 -105 453 C-105 452 -106 452 -106 451 C-107 451 -109 451 -110 451 C-111 452 -111 453 -112 454 C-114 454 -116 454 -118 454 C-119 455 -119 457 -120 458 C-123 458 -127 458 -130 458 C-131 459 -131 461 -132 462 C-136 462 -140 463 -144 462 C-145 463 -146 463 -147 463 C-151 463 -151 463 -156 462 C-156 461 -156 461 -158 458 C-163 457 -163 457 -168 458 C-169 457 -169 457 -174 457 C-175 458 -176 458 -178 458 C-178 459 -178 459 -180 462 C-184 462 -184 462 -188 462 C-189 461 -189 459 -190 458 C-192 458 -194 458 -196 458 C-197 457 -197 455 -198 454 C-199 454 -200 454 -201 454 C-201 449 -201 445 -201 440 C-200 440 -199 440 -198 440 C-198 439 -198 439 -196 436 C-195 436 -195 435 -194 435 C-194 431 -193 428 -193 424 C-192 424 -191 424 -190 424 C-190 423 -190 423 -188 420 C-187 420 -187 420 -186 420 C-186 419 -186 419 -184 416 C-183 416 -183 416 -182 416 C-182 415 -182 415 -180 412 C-179 412 -179 412 -178 412 C-178 411 -178 411 -176 408 C-175 408 -175 408 -174 408 C-174 407 -174 407 -172 404 C-171 404 -171 403 -170 403 C-170 399 -170 399 -170 395 C-171 395 -172 394 -173 394 C-173 390 -174 386 -174 382 C-174 381 -174 380 -174 379 C-175 379 -176 378 -177 378 C-177 373 -178 368 -178 363 C-178 362 -178 360 -178 359 C-179 359 -180 358 -181 358 C-181 354 -181 351 -181 347 C-181 346 -181 345 -181 344 C-181 341 -181 339 -181 336 C-180 336 -179 335 -178 335 C-178 330 -178 326 -178 322 C-177 317 -177 313 -177 308 C-176 308 -175 307 -174 307 C-174 305 -174 303 -174 302 C-173 300 -173 298 -173 296 C-172 296 -171 295 -170 295 C-170 293 -170 291 -170 290 C-169 288 -169 286 -169 284 C-168 284 -167 283 -166 283 C-166 282 -166 281 -166 280 C-165 278 -165 277 -165 276 C-164 276 -163 275 -162 275 C-162 273 -162 271 -162 270 C-161 268 -161 266 -161 264 C-160 264 -159 263 -158 263 C-157 259 -157 259 -157 256 C-156 256 -155 256 -154 256 C-153 255 -153 253 -152 252 C-151 252 -151 251 -150 251 C-150 249 -149 246 -149 244 C-148 244 -147 244 -146 244 C-145 243 -145 241 -144 240 C-143 240 -143 240 -142 240 C-141 239 -141 237 -140 236 C-139 236 -139 235 -138 235 C-138 233 -138 231 -138 230 C-137 229 -137 229 -137 224 C-136 224 -135 223 -134 223 C-134 222 -134 221 -134 220 C-133 218 -133 217 -133 216 C-132 216 -131 215 -130 215 C-130 214 -130 213 -130 212 C-129 210 -129 209 -129 208 C-128 208 -127 207 -126 207 C-126 205 -126 203 -126 202 C-125 200 -125 198 -125 196 C-124 196 -123 195 -122 195 C-122 191 -122 187 -122 184 C-121 180 -121 176 -121 172 C-120 172 -119 171 -118 171 C-118 167 -118 163 -118 160 C-117 156 -117 152 -117 148 C-116 148 -115 147 -114 147 C-114 143 -114 139 -114 136 C-113 132 -113 128 -113 124 C-112 124 -111 123 -110 123 C-110 119 -110 119 -110 114 C-109 108 -109 108 -109 104 C-108 104 -107 103 -106 103 C-106 101 -106 99 -106 98 C-105 96 -105 94 -105 92 C-104 92 -103 91 -102 91 C-102 89 -102 87 -102 86 C-101 84 -101 82 -101 80 C-100 80 -99 79 -98 79 C-98 78 -98 77 -98 76 C-97 74 -97 73 -97 72 C-96 72 -95 71 -94 71 C-93 67 -93 67 -93 64 C-92 64 -91 64 -90 64 C-89 63 -89 61 -88 60 C-87 60 -87 59 -86 59 C-86 57 -85 54 -85 52 C-84 52 -83 52 -82 52 C-81 51 -81 49 -80 48 C-79 48 -79 48 -78 48 C-77 47 -77 45 -76 44 C-75 44 -75 43 -74 43 C-74 41 -73 38 -73 36 C-72 36 -71 36 -70 36 C-69 35 -69 33 -68 32 C-67 32 -67 32 -66 32 C-65 31 -65 29 -64 28 C-63 28 -63 28 -62 28 C-61 27 -61 25 -60 24 C-58 24 -56 24 -54 24 C-53 23 -53 21 -52 20 C-50 20 -48 20 -46 20 C-45 19 -45 17 -44 16 C-42 16 -40 16 -38 16 C-37 15 -37 13 -36 12 C-34 12 -32 12 -30 12 C-29 11 -29 9 -28 8 C-25 8 -21 8 -18 8 C-17 7 -17 5 -16 4 C-12 4 -9 4 -5 4 C-4 4 -3 4 -2 4 C-1 3 -1 1 0 0 Z M-42 30 C-43 31 -44 31 -45 32 C-62 45 -78 60 -85 81 C-86 83 -87 85 -87 87 C-90 94 -93 101 -95 108 C-95 109 -96 110 -96 111 C-101 126 -102 141 -104 156 C-104 158 -105 160 -105 161 C-105 164 -106 168 -106 171 C-106 172 -107 174 -107 175 C-107 177 -107 178 -107 179 C-108 183 -109 187 -111 191 C-112 195 -113 198 -114 202 C-116 210 -119 217 -122 225 C-124 231 -124 233 -123 239 C-123 242 -123 242 -124 246 C-128 247 -128 247 -132 247 C-132 248 -132 248 -132 249 C-133 249 -133 249 -136 251 C-145 259 -150 271 -154 282 C-154 283 -154 283 -156 288 C-158 292 -159 297 -160 302 C-160 303 -161 303 -161 304 C-161 307 -161 311 -162 314 C-162 315 -162 316 -162 317 C-163 317 -164 318 -165 318 C-167 327 -167 337 -165 346 C-166 347 -166 348 -167 349 C-169 369 -163 391 -153 408 C-152 409 -150 411 -149 412 C-144 411 -144 411 -142 409 C-139 404 -137 400 -135 395 C-135 394 -134 393 -134 392 C-133 392 -132 391 -131 391 C-131 392 -131 394 -131 395 C-131 397 -130 399 -130 401 C-130 403 -130 405 -130 407 C-129 411 -129 414 -126 418 C-123 420 -123 420 -120 420 C-115 419 -114 417 -111 414 C-111 414 -111 414 -108 411 C-104 405 -101 397 -101 390 C-100 385 -97 382 -93 378 C-89 374 -87 371 -86 364 C-85 358 -85 358 -83 356 C-83 353 -82 351 -82 348 C-81 340 -81 340 -80 336 C-79 333 -79 330 -79 326 C-79 325 -79 324 -79 322 C-79 321 -79 320 -79 318 C-79 317 -79 316 -79 314 C-79 307 -79 301 -80 294 C-80 293 -79 292 -79 291 C-78 291 -78 292 -77 292 C-77 291 -76 290 -76 289 C-75 289 -74 290 -73 290 C-68 309 -66 337 -73 356 C-74 361 -76 366 -77 371 C-78 375 -78 375 -80 380 C-80 381 -80 382 -80 383 C-81 384 -83 384 -84 385 C-90 392 -94 400 -95 410 C-96 410 -96 410 -97 410 C-98 413 -100 415 -101 418 C-102 420 -104 421 -105 423 C-105 424 -105 424 -105 425 C-106 425 -107 426 -108 426 C-109 428 -109 428 -109 434 C-99 445 -85 450 -71 455 C-69 456 -68 456 -66 457 C-57 456 -57 456 -56 455 C-50 455 -46 457 -41 462 C-35 462 -35 462 -30 461 C-30 462 -30 462 -30 463 C-29 463 -28 463 -27 463 C-26 463 -25 463 -24 463 C-23 463 -22 463 -21 463 C-17 463 -13 463 -10 464 C1 466 11 465 22 464 C26 464 29 464 33 464 C35 464 37 464 39 464 C41 464 42 464 43 463 C45 463 48 463 51 463 C52 463 54 463 55 463 C56 463 57 462 58 462 C58 460 59 459 59 457 C60 457 60 456 61 456 C60 455 60 455 59 454 C57 452 55 449 52 447 C49 444 49 444 47 444 C47 443 47 443 47 442 C46 442 46 442 45 442 C44 441 44 439 43 438 C42 437 41 436 40 434 C29 419 20 402 15 383 C15 381 14 380 14 378 C10 364 7 351 7 336 C7 335 7 335 7 330 C7 328 7 326 7 324 C7 323 7 322 7 321 C7 315 7 309 7 304 C7 298 7 292 7 286 C7 282 7 277 7 273 C7 271 7 269 7 267 C7 264 7 261 7 258 C7 256 7 254 7 252 C7 246 10 243 14 239 C19 236 23 236 28 236 C43 236 57 234 71 229 C71 228 71 228 71 227 C71 227 71 227 74 227 C79 227 82 225 87 223 C89 223 91 222 93 221 C107 216 122 207 133 196 C134 196 135 195 136 195 C139 191 138 190 137 186 C137 185 137 185 137 182 C136 179 136 179 135 176 C133 171 134 165 133 160 C133 156 133 156 131 152 C130 147 130 141 130 136 C129 127 129 127 127 123 C127 121 126 118 126 116 C125 108 123 101 121 93 C121 92 121 92 120 90 C119 86 118 82 116 78 C116 77 116 77 115 74 C113 70 112 67 110 64 C109 64 109 64 108 64 C107 62 107 61 106 59 C96 45 82 32 66 24 C65 23 64 23 62 22 C30 9 -14 8 -42 30 Z M122 216 C116 220 109 224 102 227 C99 228 97 230 95 231 C76 241 50 244 29 245 C23 246 23 246 18 249 C16 254 16 259 16 264 C16 266 16 268 16 270 C16 272 16 274 16 276 C16 278 16 280 16 283 C16 287 16 291 16 296 C16 302 16 307 16 313 C16 317 16 322 16 326 C16 328 16 330 16 332 C17 357 21 378 31 400 C32 401 32 403 33 404 C44 428 62 446 83 462 C84 462 84 462 87 465 C100 474 114 481 129 487 C132 488 132 488 135 490 C149 491 163 480 174 472 C175 471 176 470 178 470 C185 465 192 459 198 453 C200 452 202 450 204 449 C207 446 210 442 213 439 C214 438 215 437 217 436 C242 409 256 370 256 333 C256 332 256 330 256 328 C256 326 256 324 256 322 C256 320 256 318 256 316 C256 312 256 307 256 303 C256 298 256 292 256 287 C256 283 256 278 256 274 C256 271 256 268 256 265 C256 263 256 262 256 260 C256 258 256 257 256 255 C256 251 256 251 254 247 C248 245 241 244 234 244 C209 241 188 234 166 221 C164 220 163 219 161 218 C158 216 155 215 152 212 C139 204 133 208 122 216 Z " fill="#0E0E11" transform="translate(226,25)"/>
<path d="M0 0 C1 -0 1 -0 4 -0 C17 -0 29 2 41 6 C42 7 44 7 45 8 C49 9 49 9 53 12 C54 13 54 13 57 14 C71 22 84 35 92 48 C92 49 92 50 92 50 C93 50 93 50 94 50 C99 60 102 69 105 79 C105 80 106 82 106 83 C108 91 110 98 111 106 C111 109 111 109 113 113 C114 119 114 124 114 129 C115 138 115 138 117 142 C117 145 117 147 118 150 C118 158 119 165 121 172 C122 176 122 178 120 181 C119 182 118 182 117 182 C116 184 114 185 113 186 C111 188 108 190 105 191 C103 193 101 194 98 196 C90 201 82 206 72 209 C71 210 71 210 67 212 C62 213 60 214 55 213 C55 214 55 215 55 215 C51 216 51 216 47 216 C47 215 46 214 46 213 C45 213 44 213 43 213 C43 213 43 212 43 211 C43 211 43 211 40 212 C39 212 37 212 36 212 C33 208 32 204 30 198 C30 197 29 196 29 195 C28 192 28 192 30 189 C32 186 34 183 36 180 C36 180 37 179 37 178 C36 178 36 178 35 178 C35 178 35 177 35 176 C36 177 38 177 39 177 C39 176 40 176 40 175 C42 168 46 164 51 159 C52 158 53 157 54 155 C59 151 61 150 67 149 C67 148 68 147 68 146 C67 146 66 146 65 146 C57 145 51 141 46 134 C43 129 44 124 45 118 C45 117 45 116 45 115 C46 105 46 105 50 101 C57 100 62 103 68 107 C73 110 77 111 83 112 C86 112 86 112 89 115 C90 123 89 128 85 135 C80 140 76 143 70 145 C70 146 69 147 69 147 C70 147 70 147 71 147 C71 148 71 149 71 149 C80 149 86 147 92 140 C100 129 99 116 97 102 C96 94 93 89 87 83 C80 79 76 79 68 79 C60 83 56 88 51 94 C50 95 49 95 48 95 C48 97 48 98 48 99 C48 99 48 99 46 100 C46 101 46 101 45 103 C44 104 44 104 41 106 C41 109 41 111 41 113 C40 115 39 117 38 118 C35 123 35 124 36 129 C37 130 37 130 39 131 C39 132 39 133 39 133 C40 133 40 133 41 133 C46 139 50 143 50 151 C49 158 46 161 41 165 C35 170 33 174 31 181 C28 186 26 188 20 190 C16 190 13 190 9 187 C4 182 -3 173 -3 166 C-4 166 -4 166 -7 164 C-11 161 -13 158 -15 153 C-15 146 -12 142 -7 137 C-4 135 -2 132 1 129 C6 123 10 121 18 121 C22 121 26 121 30 122 C30 122 30 121 30 120 C25 117 24 117 18 117 C16 117 15 117 13 117 C7 118 4 119 -0 125 C-2 126 -3 127 -4 128 C-6 128 -7 128 -9 127 C-10 123 -11 120 -11 116 C-11 111 -13 106 -15 101 C-15 101 -15 101 -18 100 C-18 99 -18 98 -18 97 C-19 97 -20 97 -21 97 C-20 99 -19 101 -18 102 C-14 113 -15 123 -19 133 C-21 139 -25 142 -30 145 C-38 148 -43 149 -51 145 C-58 140 -61 136 -63 127 C-64 115 -63 105 -55 95 C-50 90 -46 89 -38 89 C-33 89 -30 90 -25 93 C-25 93 -25 93 -23 94 C-23 93 -23 92 -24 92 C-24 89 -25 87 -26 85 C-27 85 -28 85 -29 84 C-27 82 -25 80 -23 77 C-24 75 -25 73 -26 70 C-26 70 -26 70 -26 67 C-28 63 -28 63 -33 61 C-35 60 -37 60 -39 59 C-39 59 -39 59 -43 58 C-45 58 -47 57 -50 56 C-58 54 -65 51 -72 47 C-76 45 -76 45 -80 45 C-80 42 -80 42 -77 38 C-77 37 -77 36 -77 35 C-77 31 -77 31 -75 29 C-74 28 -73 27 -72 26 C-71 26 -69 25 -68 24 C-68 23 -68 23 -65 21 C-64 21 -63 20 -62 19 C-43 4 -23 -0 0 0 Z " fill="#C7CAD4" transform="translate(241.875,38.6875)"/>
<path d="M0 0 C4 2 4 2 8 6 C17 11 26 16 35 20 C37 21 39 22 41 23 C58 32 77 34 96 36 C98 36 99 36 100 37 C101 37 102 37 104 37 C106 37 106 37 108 38 C111 43 111 46 111 51 C111 53 111 55 111 57 C111 58 111 58 111 62 C111 64 111 66 111 68 C111 73 111 77 111 81 C110 87 111 92 111 97 C111 102 111 106 111 110 C111 113 111 116 111 119 C110 154 101 188 79 216 C79 217 78 218 77 219 C72 225 67 231 61 236 C60 237 60 238 59 239 C48 250 35 259 22 267 C21 268 20 269 19 270 C-1 282 -1 282 -11 281 C-13 280 -16 279 -19 277 C-21 276 -24 275 -27 274 C-35 271 -42 267 -50 262 C-51 262 -52 261 -53 261 C-59 257 -64 252 -70 247 C-71 246 -73 245 -74 244 C-104 221 -123 184 -128 148 C-129 139 -129 130 -129 121 C-129 119 -129 117 -129 115 C-129 110 -129 106 -129 101 C-129 96 -130 90 -130 84 C-130 80 -130 75 -130 71 C-130 69 -130 67 -130 65 C-130 62 -130 59 -130 56 C-130 54 -130 52 -130 51 C-130 47 -130 44 -128 40 C-123 37 -120 37 -114 36 C-103 35 -91 34 -80 31 C-78 31 -77 31 -75 31 C-53 27 -33 14 -15 1 C-10 -2 -6 -2 0 0 Z M40 46 C40 47 40 48 40 48 C41 48 42 48 42 48 C43 55 43 59 38 64 C37 68 37 71 37 75 C40 80 42 82 47 84 C53 88 57 92 59 99 C59 102 59 102 56 105 C53 106 53 106 49 106 C47 106 46 106 45 106 C41 105 41 105 38 104 C35 105 35 105 31 106 C31 110 31 110 31 113 C29 112 29 112 26 109 C26 106 26 106 26 102 C26 91 22 83 14 75 C7 69 -1 66 -11 66 C-21 69 -29 73 -35 82 C-37 85 -37 85 -37 90 C-37 90 -38 90 -39 90 C-39 97 -39 103 -40 109 C-40 109 -41 109 -42 109 C-42 109 -42 109 -43 105 C-42 105 -41 105 -41 104 C-41 100 -41 96 -41 92 C-41 87 -40 84 -38 80 C-38 79 -38 78 -38 77 C-43 75 -48 74 -54 73 C-55 73 -56 73 -57 73 C-71 70 -71 70 -77 72 C-82 76 -83 80 -84 86 C-84 90 -84 90 -82 95 C-81 98 -81 98 -82 102 C-92 112 -92 112 -98 114 C-99 114 -100 113 -101 112 C-101 109 -101 105 -101 101 C-101 101 -101 101 -102 98 C-102 96 -102 93 -102 90 C-102 90 -103 90 -104 90 C-105 84 -105 77 -104 70 C-103 70 -102 70 -102 70 C-101 69 -100 67 -99 65 C-97 64 -95 63 -94 62 C-92 61 -91 60 -90 58 C-88 57 -86 56 -84 55 C-84 55 -84 55 -84 54 C-87 54 -89 55 -92 55 C-94 55 -95 55 -97 55 C-102 55 -106 57 -110 60 C-110 64 -110 68 -110 72 C-110 73 -110 74 -110 76 C-110 78 -110 80 -110 83 C-110 87 -110 91 -111 94 C-111 97 -111 99 -111 101 C-111 103 -111 104 -111 105 C-111 109 -111 113 -110 117 C-110 121 -109 125 -109 128 C-109 141 -108 153 -104 164 C-103 167 -102 170 -101 173 C-97 185 -92 197 -84 206 C-83 207 -82 208 -82 209 C-80 212 -78 214 -76 216 C-75 216 -74 216 -74 216 C-73 217 -73 217 -72 220 C-69 223 -66 225 -64 227 C-63 228 -62 229 -61 230 C-49 239 -37 248 -23 253 C-20 254 -20 254 -15 257 C-10 260 -9 260 -4 258 C0 256 4 254 7 252 C8 251 9 251 10 250 C12 249 14 247 16 246 C19 245 21 243 23 242 C49 226 49 226 52 215 C54 215 55 214 56 213 C58 211 60 209 61 206 C63 205 64 204 65 202 C66 201 66 200 66 198 C67 198 68 198 68 198 C75 188 79 177 83 165 C84 164 84 162 85 160 C86 159 86 157 87 155 C87 154 87 154 89 150 C92 141 93 133 93 123 C93 122 93 121 93 120 C93 116 93 113 93 109 C93 106 93 104 93 102 C93 95 93 88 93 81 C93 80 93 78 93 76 C93 75 93 73 93 72 C93 70 93 69 93 68 C93 63 93 60 90 56 C86 55 86 55 81 54 C72 53 63 51 54 48 C49 47 45 46 40 46 Z " fill="#5059CE" transform="translate(371.75,233.5625)"/>
<path d="M0 0 C1 0 1 0 2 0 C4 4 3 8 3 12 C3 13 3 14 3 15 C3 17 3 19 3 21 C3 24 3 28 3 31 C3 43 3 56 2 68 C4 68 5 69 7 69 C9 74 10 79 11 84 C13 93 16 101 19 110 C19 111 20 113 20 114 C25 128 33 140 41 150 C45 155 45 155 45 157 C46 157 46 157 47 157 C47 158 47 158 47 159 C48 160 50 160 51 161 C60 168 60 168 61 172 C60 172 60 172 59 172 C59 174 58 175 58 177 C55 178 55 178 51 178 C50 178 50 178 46 178 C44 178 42 179 39 179 C38 179 37 179 36 179 C34 179 31 179 29 179 C26 179 22 179 18 180 C8 180 -3 180 -13 178 C-17 178 -20 178 -24 178 C-25 178 -26 178 -27 178 C-28 178 -29 178 -30 178 C-30 177 -30 177 -30 176 C-32 176 -33 176 -35 177 C-41 177 -41 177 -44 175 C-44 175 -44 175 -46 173 C-51 170 -51 170 -56 170 C-57 170 -57 170 -61 172 C-78 171 -97 161 -109 149 C-109 143 -109 143 -107 140 C-106 140 -106 140 -105 140 C-105 139 -105 139 -103 136 C-102 135 -101 133 -100 132 C-98 128 -98 128 -97 125 C-96 125 -96 125 -95 125 C-95 124 -95 123 -95 121 C-94 117 -93 115 -91 111 C-90 109 -89 108 -88 106 C-85 101 -85 101 -82 98 C-81 98 -81 98 -80 98 C-80 97 -80 96 -80 96 C-79 91 -77 87 -75 83 C-72 82 -72 82 -69 82 C-69 81 -69 79 -69 78 C-69 74 -69 74 -66 71 C-66 68 -67 65 -67 62 C-67 58 -66 54 -66 50 C-66 49 -66 47 -66 46 C-66 42 -66 40 -63 37 C-60 36 -57 36 -53 36 C-49 35 -48 34 -45 31 C-43 30 -40 28 -38 27 C-35 25 -32 23 -30 21 C-25 18 -25 18 -23 18 C-23 17 -23 17 -23 16 C-21 15 -20 14 -18 13 C-15 11 -12 9 -9 6 C-6 4 -6 4 -1 3 C-1 2 -0 1 0 0 Z " fill="#C5C8D3" transform="translate(226,310)"/>
<path d="M0 0 C1 1 1 1 2 2 C6 4 6 4 12 5 C22 8 30 15 36 24 C39 30 39 30 39 32 C40 32 40 32 41 32 C41 33 41 34 41 35 C42 40 44 43 46 47 C47 50 47 50 47 53 C46 54 46 55 45 56 C45 56 44 55 44 55 C43 60 43 62 44 67 C44 72 44 77 44 82 C44 83 44 85 44 86 C44 87 44 89 44 90 C44 91 44 92 44 94 C44 97 43 100 42 103 C41 107 41 112 41 116 C40 120 40 120 37 124 C37 125 37 127 37 128 C37 134 34 138 30 142 C25 147 22 151 22 158 C20 166 16 175 10 181 C5 184 5 184 1 184 C-2 183 -2 183 -5 179 C-7 171 -8 163 -8 155 C-9 155 -10 156 -11 156 C-13 160 -14 163 -15 167 C-17 171 -19 173 -22 176 C-27 175 -27 175 -30 172 C-41 155 -45 133 -44 113 C-43 111 -43 110 -42 108 C-42 107 -43 107 -43 106 C-44 89 -44 89 -42 82 C-42 82 -42 82 -39 81 C-39 78 -39 78 -38 75 C-38 70 -38 68 -36 64 C-36 63 -35 61 -35 60 C-32 44 -24 23 -11 13 C-10 13 -10 13 -9 13 C-9 12 -9 12 -9 11 C-8 11 -8 11 -5 11 C-4 11 -2 10 -1 10 C0 6 0 6 0 3 C0 2 0 1 0 0 Z " fill="#888C9F" transform="translate(103,261)"/>
<path d="M0 0 C1 2 2 3 3 5 C4 6 6 7 7 8 C12 12 14 13 16 18 C17 22 17 22 17 27 C17 35 17 35 20 38 C21 38 22 39 24 39 C25 40 26 40 27 41 C27 43 28 45 28 47 C31 48 31 48 34 49 C35 49 36 50 38 50 C42 50 43 49 47 47 C52 45 56 44 61 43 C68 40 69 36 73 29 C77 22 82 18 88 14 C92 11 92 11 95 8 C95 7 95 7 97 5 C98 5 98 5 101 6 C101 7 102 7 102 8 C103 8 104 9 105 9 C106 9 107 10 108 10 C108 11 108 11 108 12 C110 12 111 13 113 13 C113 14 114 15 114 16 C115 16 115 16 118 18 C122 22 122 22 125 27 C126 28 126 29 127 30 C128 33 128 33 128 36 C127 37 127 38 126 39 C120 40 120 40 117 40 C113 40 110 41 106 42 C102 42 98 43 95 43 C91 44 91 44 88 46 C85 47 85 47 80 46 C79 46 77 47 76 47 C76 48 76 48 77 50 C78 55 78 59 77 64 C78 65 78 66 79 67 C82 72 82 76 82 82 C82 83 82 83 83 87 C84 91 84 91 83 94 C83 95 83 96 83 98 C82 101 82 101 80 104 C77 109 77 109 78 115 C78 115 78 115 81 117 C81 118 81 118 81 119 C82 119 82 119 83 119 C88 124 92 129 92 137 C91 143 88 147 83 151 C77 156 75 160 73 167 C69 172 68 174 62 176 C57 176 55 175 51 173 C46 168 39 159 39 152 C38 152 38 152 35 150 C31 146 28 143 27 138 C27 131 30 128 35 123 C37 120 40 117 42 115 C48 109 52 107 60 107 C64 107 68 107 72 108 C72 107 72 107 72 106 C67 102 65 103 60 103 C58 103 57 103 55 103 C48 103 46 105 41 110 C40 111 39 113 38 114 C36 114 35 113 33 113 C32 109 31 106 31 102 C31 96 29 92 27 87 C27 87 27 87 24 86 C24 85 24 84 24 83 C23 83 22 83 21 83 C22 85 23 86 24 88 C28 99 27 108 23 119 C21 125 17 128 12 131 C4 134 -2 134 -9 130 C-16 125 -19 122 -21 113 C-22 101 -21 91 -13 81 C-8 76 -4 75 3 75 C9 75 12 76 17 79 C17 79 17 79 19 80 C19 79 18 78 18 77 C17 75 17 73 16 71 C15 71 14 70 13 70 C15 68 17 65 19 63 C18 61 17 58 16 56 C16 55 16 55 16 52 C14 49 14 49 9 47 C7 46 5 46 3 45 C2 45 2 45 -1 44 C-3 43 -5 43 -8 42 C-16 40 -23 36 -30 33 C-34 31 -34 31 -38 31 C-38 28 -38 28 -35 24 C-35 23 -35 22 -35 21 C-35 17 -35 17 -33 14 C-31 13 -30 13 -29 12 C-28 11 -27 10 -26 9 C-26 9 -26 9 -23 7 C-22 6 -20 5 -19 4 C-15 4 -15 4 -12 5 C-12 4 -12 4 -12 3 C-3 0 -3 0 0 0 Z " fill="#C1C4D0" transform="translate(200,53)"/>
<path d="M0 0 C8 6 14 14 17 23 C17 26 17 28 17 31 C17 36 17 38 21 42 C24 45 24 45 27 48 C30 50 32 52 33 56 C33 61 33 61 33 66 C33 67 33 68 33 69 C33 71 33 74 33 76 C33 81 33 85 33 89 C33 93 33 96 33 99 C33 101 33 102 33 104 C33 105 33 107 33 108 C32 110 32 111 32 113 C32 118 30 120 26 124 C22 127 18 127 13 127 C11 127 10 127 9 127 C8 127 8 127 4 127 C2 127 0 127 -1 127 C-5 127 -8 127 -12 127 C-17 127 -22 127 -27 127 C-31 127 -34 127 -37 127 C-39 127 -40 127 -42 127 C-44 127 -45 127 -47 127 C-48 127 -49 127 -50 127 C-55 127 -59 125 -62 122 C-65 117 -64 112 -64 107 C-64 105 -64 102 -64 100 C-64 99 -64 97 -64 96 C-64 88 -64 80 -65 72 C-65 63 -65 56 -60 48 C-58 46 -55 44 -52 43 C-47 38 -47 36 -47 29 C-47 28 -47 26 -47 24 C-47 23 -47 21 -47 20 C-46 20 -46 20 -45 20 C-45 19 -45 18 -45 17 C-43 10 -40 6 -35 2 C-23 -5 -12 -6 0 0 Z " fill="#FCFCFD" transform="translate(380,304)"/>
<path d="M0 0 C4 2 4 2 8 6 C17 11 26 16 35 20 C37 21 39 22 41 23 C58 32 77 34 96 36 C98 36 99 36 100 37 C101 37 102 37 104 37 C106 37 106 37 108 38 C111 43 111 46 111 51 C111 53 111 55 111 57 C111 58 111 58 111 62 C111 64 111 66 111 68 C111 73 111 77 111 81 C110 87 111 92 111 97 C111 102 111 106 111 110 C111 113 111 116 111 119 C110 154 101 188 79 216 C79 217 78 218 77 219 C72 225 67 231 61 236 C60 237 60 238 59 239 C48 250 35 259 22 267 C21 268 20 269 19 270 C-1 282 -1 282 -11 281 C-13 280 -16 279 -19 277 C-21 276 -24 275 -27 274 C-35 271 -42 267 -50 262 C-51 262 -52 261 -53 261 C-59 257 -64 252 -70 247 C-71 246 -73 245 -74 244 C-104 221 -123 184 -128 148 C-129 139 -129 130 -129 121 C-129 119 -129 117 -129 115 C-129 110 -129 106 -129 101 C-129 96 -130 90 -130 84 C-130 80 -130 75 -130 71 C-130 69 -130 67 -130 65 C-130 62 -130 59 -130 56 C-130 54 -130 52 -130 51 C-130 47 -130 44 -128 40 C-123 37 -120 37 -114 36 C-103 35 -91 34 -80 31 C-78 31 -77 31 -75 31 C-53 27 -33 14 -15 1 C-10 -2 -6 -2 0 0 Z M-14 17 C-15 17 -16 18 -17 18 C-19 20 -22 22 -24 24 C-28 26 -31 27 -35 29 C-41 30 -41 30 -44 33 C-47 35 -50 36 -53 36 C-57 38 -62 40 -67 41 C-69 42 -71 42 -74 43 C-75 43 -76 43 -78 44 C-79 44 -80 44 -82 44 C-82 45 -82 45 -86 45 C-93 47 -101 48 -109 49 C-112 49 -112 49 -116 51 C-116 52 -116 53 -116 53 C-116 53 -117 53 -118 53 C-118 55 -117 57 -117 59 C-117 62 -117 65 -117 69 C-118 75 -118 82 -118 88 C-118 89 -118 91 -118 92 C-118 102 -118 112 -117 123 C-117 124 -117 125 -117 126 C-117 145 -114 167 -105 183 C-104 184 -104 184 -103 188 C-99 195 -96 202 -91 207 C-90 209 -89 211 -88 212 C-84 217 -79 222 -74 226 C-71 229 -71 229 -69 232 C-66 237 -61 239 -57 242 C-56 243 -55 244 -54 244 C-43 252 -31 258 -19 265 C-18 265 -17 266 -16 266 C-10 268 -5 268 0 265 C2 265 3 264 5 263 C6 262 8 261 9 260 C10 259 12 258 13 257 C14 257 15 256 16 256 C30 247 43 236 55 225 C57 223 59 220 62 218 C74 207 83 189 88 173 C89 170 89 170 92 165 C95 159 96 153 97 146 C98 142 98 142 99 140 C102 118 101 96 101 73 C101 72 101 70 101 68 C101 66 101 65 101 63 C101 61 101 60 101 58 C100 54 99 52 95 49 C91 48 86 47 82 47 C72 45 63 43 54 40 C53 40 52 40 50 39 C41 37 32 33 23 29 C22 29 20 28 19 27 C12 24 6 20 -1 15 C-7 13 -9 13 -14 17 Z " fill="#6672CD" transform="translate(371.75,233.5625)"/>
<path d="M0 0 C0 2 0 3 0 5 C-1 6 -3 7 -4 7 C-8 10 -8 10 -9 14 C-9 15 -9 16 -9 17 C-9 18 -9 19 -9 20 C-5 22 -5 22 -1 21 C-1 21 -1 21 1 20 C7 19 10 20 15 24 C19 27 22 27 27 27 C28 26 28 24 29 23 C33 21 35 21 39 21 C43 22 47 22 51 22 C59 22 66 26 73 31 C87 27 103 18 115 9 C116 9 116 9 117 9 C117 10 118 10 118 11 C120 11 121 11 123 11 C125 12 126 12 128 12 C129 13 129 15 130 16 C132 16 134 16 136 16 C139 18 139 18 141 20 C141 21 141 21 141 22 C139 24 139 24 136 26 C134 26 132 26 130 26 C129 27 129 29 128 30 C123 30 119 30 114 30 C111 30 109 30 106 30 C105 31 105 33 104 34 C99 34 95 34 90 34 C89 34 87 34 86 34 C85 35 85 37 84 38 C80 38 76 38 71 38 C71 38 71 38 67 38 C62 38 56 38 51 38 C47 38 43 38 39 38 C38 38 38 38 35 38 C32 38 29 38 26 38 C25 39 25 41 24 42 C20 42 16 43 12 43 C10 43 9 43 8 43 C4 43 -1 43 -5 43 C-8 43 -11 43 -14 43 C-20 43 -26 43 -32 43 C-40 42 -48 43 -56 43 C-62 43 -69 43 -75 43 C-78 43 -80 43 -83 43 C-87 43 -92 43 -96 43 C-97 43 -98 43 -99 43 C-103 43 -103 43 -108 42 C-108 41 -108 41 -110 38 C-114 38 -118 38 -122 38 C-123 38 -124 38 -126 38 C-129 38 -133 38 -137 38 C-142 38 -147 38 -152 38 C-153 38 -153 38 -156 38 C-159 38 -159 38 -164 38 C-165 37 -165 35 -166 34 C-170 34 -175 34 -179 34 C-183 34 -188 34 -192 34 C-193 33 -193 31 -194 30 C-198 30 -198 30 -203 30 C-208 30 -208 30 -212 30 C-213 29 -213 27 -214 26 C-216 26 -218 26 -220 26 C-223 24 -223 24 -225 22 C-225 21 -225 21 -225 20 C-223 18 -223 18 -220 16 C-218 16 -216 16 -214 16 C-213 15 -213 13 -212 12 C-208 12 -205 12 -201 12 C-200 12 -199 12 -198 12 C-197 11 -197 9 -196 8 C-193 8 -193 8 -189 8 C-188 8 -187 8 -185 8 C-184 8 -184 8 -177 8 C-175 8 -174 8 -173 8 C-172 8 -172 8 -169 8 C-168 8 -167 8 -166 8 C-165 7 -165 5 -164 4 C-160 4 -160 4 -156 4 C-156 4 -156 4 -154 7 C-153 8 -152 8 -151 9 C-151 10 -151 10 -153 13 C-154 14 -154 16 -155 17 C-155 18 -155 18 -153 22 C-149 23 -146 23 -141 22 C-137 22 -137 22 -132 25 C-128 29 -128 29 -128 31 C-126 31 -125 31 -123 31 C-123 31 -123 31 -122 28 C-120 27 -119 25 -117 24 C-116 23 -114 21 -113 20 C-105 20 -105 20 -102 22 C-99 22 -99 22 -95 22 C-94 21 -92 19 -91 18 C-91 16 -91 15 -91 13 C-93 11 -95 10 -97 8 C-97 7 -96 5 -96 4 C-93 4 -93 4 -88 4 C-86 4 -84 4 -82 4 C-74 4 -65 5 -57 5 C-51 6 -46 6 -40 4 C-37 4 -34 4 -30 4 C-20 3 -10 0 0 0 Z " fill="#D9DBE4" transform="translate(290,497)"/>
<path d="M0 0 C0 0 0 0 1 3 C3 3 5 3 7 3 C12 5 15 7 18 11 C19 13 19 14 20 16 C21 17 22 18 23 19 C19 18 17 17 13 15 C7 12 1 12 -6 14 C-13 18 -17 22 -19 30 C-21 41 -21 51 -16 61 C-11 65 -7 69 -0 69 C7 69 14 67 19 62 C25 52 26 43 25 32 C24 28 23 25 21 22 C21 21 21 21 21 20 C24 20 24 20 26 22 C32 31 32 40 33 50 C35 50 36 50 38 50 C40 48 42 46 44 43 C47 40 50 39 55 39 C57 39 58 39 60 39 C61 39 62 39 64 39 C68 39 70 40 73 43 C73 44 72 45 72 46 C71 46 71 46 70 46 C62 45 54 43 48 48 C43 52 38 57 34 62 C33 63 31 65 30 66 C28 70 28 72 28 76 C31 83 36 87 41 92 C42 94 43 96 44 98 C47 105 50 109 57 112 C62 112 64 111 68 109 C72 105 73 101 75 96 C78 91 82 88 87 84 C89 81 90 78 91 74 C91 69 90 67 87 62 C87 61 87 61 87 60 C86 59 84 59 83 58 C83 57 83 57 83 56 C82 56 82 56 81 56 C81 55 81 55 81 54 C80 53 78 53 77 52 C76 46 77 43 80 37 C81 37 81 36 82 36 C82 35 82 34 82 33 C82 29 82 29 85 26 C86 26 86 26 87 26 C87 25 88 23 88 22 C89 22 89 22 90 22 C90 21 90 19 90 18 C92 17 93 15 95 14 C95 13 95 13 98 10 C102 5 104 3 110 1 C119 0 124 2 131 7 C141 17 141 30 141 44 C141 56 136 62 128 70 C123 72 118 72 113 72 C113 71 113 71 113 70 C112 70 112 70 111 70 C111 69 112 68 112 67 C113 67 114 66 115 66 C122 63 125 60 128 53 C130 48 130 44 130 38 C128 36 128 36 124 36 C116 35 110 30 103 26 C99 25 96 25 92 25 C88 30 88 35 88 41 C87 42 87 43 87 44 C87 51 87 55 91 60 C97 65 103 67 110 69 C110 70 109 72 109 73 C108 73 106 73 105 74 C99 75 96 79 92 84 C91 84 91 85 90 86 C89 86 89 86 88 86 C86 89 85 92 84 95 C83 97 82 98 81 100 C80 100 80 100 77 99 C77 100 77 100 77 101 C78 101 78 101 79 101 C77 106 77 106 74 109 C72 112 72 112 71 116 C72 118 73 121 74 123 C74 124 75 125 75 126 C76 129 76 129 78 134 C82 135 82 135 85 134 C85 135 85 135 85 136 C86 136 87 136 88 136 C89 137 89 139 90 140 C74 145 60 145 44 145 C45 144 45 143 46 141 C47 137 47 137 46 133 C46 132 46 132 46 131 C45 131 44 130 43 130 C42 129 42 128 41 128 C38 124 35 122 29 122 C19 122 19 122 14 124 C8 126 1 125 -5 124 C-7 123 -9 122 -11 121 C-13 121 -14 121 -16 121 C-23 120 -26 118 -31 113 C-31 112 -30 110 -30 109 C-29 109 -29 109 -25 108 C-24 108 -24 108 -20 107 C-19 105 -17 102 -16 100 C-12 99 -12 99 -7 99 C-6 99 -5 98 -4 98 C0 95 5 95 10 94 C15 94 20 93 25 91 C26 91 26 91 30 90 C30 89 30 89 30 88 C30 88 30 88 27 86 C23 81 22 77 20 72 C20 72 20 72 18 70 C15 71 15 71 12 72 C12 73 12 73 12 74 C4 77 -4 76 -12 74 C-22 70 -27 65 -32 56 C-34 51 -33 47 -33 42 C-34 42 -34 42 -35 42 C-35 40 -35 39 -35 37 C-34 37 -34 37 -33 37 C-33 36 -33 36 -33 32 C-32 21 -25 12 -17 5 C-11 1 -7 0 0 0 Z " fill="#C7CAD4" transform="translate(200,116)"/>
<path d="M0 0 C1 3 2 6 3 9 C3 10 3 10 5 14 C5 17 5 20 6 23 C6 26 6 26 8 31 C10 40 9 47 8 56 C8 56 8 56 8 60 C9 61 9 61 10 62 C10 63 10 65 10 66 C11 66 11 66 12 66 C14 69 13 72 13 75 C11 78 11 78 9 80 C10 80 10 80 11 80 C11 82 12 83 12 85 C13 85 14 85 15 85 C15 86 16 88 16 89 C12 93 8 96 3 99 C-2 102 -6 106 -11 109 C-13 110 -16 111 -18 112 C-24 115 -24 115 -26 118 C-27 118 -28 118 -29 118 C-30 119 -31 119 -32 119 C-33 121 -33 122 -34 124 C-38 127 -42 127 -47 127 C-47 128 -47 128 -47 129 C-51 130 -51 130 -55 130 C-55 129 -56 128 -56 127 C-57 127 -58 127 -59 127 C-59 126 -59 126 -59 125 C-60 125 -60 125 -62 126 C-63 126 -63 126 -66 126 C-69 121 -70 117 -72 112 C-72 111 -73 110 -73 109 C-74 106 -74 106 -72 102 C-70 100 -68 97 -66 94 C-66 94 -66 94 -65 92 C-66 92 -66 92 -67 92 C-67 91 -67 91 -67 90 C-66 90 -64 91 -63 91 C-63 90 -63 89 -62 88 C-60 82 -57 77 -51 73 C-50 72 -49 70 -48 69 C-43 64 -41 64 -35 63 C-35 62 -34 61 -34 60 C-35 60 -36 60 -37 60 C-45 58 -51 54 -56 48 C-59 43 -58 38 -58 32 C-57 31 -57 31 -57 29 C-56 19 -56 19 -52 15 C-45 14 -40 17 -34 21 C-29 24 -25 25 -19 25 C-16 26 -16 26 -13 29 C-12 37 -13 42 -17 49 C-22 54 -26 57 -32 59 C-32 59 -32 59 -33 61 C-32 61 -32 61 -31 61 C-31 62 -31 62 -31 63 C-22 62 -16 61 -10 54 C-2 43 -4 29 -5 16 C-6 12 -7 9 -8 5 C-8 3 -7 2 -7 0 C-3 -1 -3 -1 0 0 Z " fill="#C8CBD5" transform="translate(344,125)"/>
<path d="M0 0 C5 1 8 4 12 7 C17 10 22 13 28 15 C28 15 28 15 32 17 C52 26 74 32 96 35 C101 35 103 37 106 41 C106 45 106 45 106 50 C106 51 106 51 106 56 C106 58 106 60 106 62 C106 64 107 66 107 68 C107 83 107 98 106 113 C106 115 106 116 106 117 C105 124 104 130 102 137 C102 138 102 138 101 142 C100 146 98 150 96 154 C95 157 94 160 92 163 C86 181 76 199 61 211 C58 213 56 215 54 218 C42 229 28 239 14 247 C13 248 12 248 11 249 C4 253 0 255 -7 254 C-12 252 -17 250 -21 247 C-22 247 -23 246 -24 246 C-33 240 -42 235 -51 229 C-52 228 -53 228 -54 227 C-60 223 -64 219 -68 213 C-71 211 -73 209 -75 207 C-81 202 -85 197 -88 190 C-89 189 -90 188 -91 187 C-92 185 -93 183 -94 181 C-95 180 -95 179 -96 178 C-98 174 -100 170 -101 166 C-102 165 -102 164 -103 163 C-110 145 -111 127 -112 108 C-112 107 -112 106 -112 104 C-112 95 -112 85 -112 75 C-112 74 -112 72 -112 71 C-112 65 -112 59 -112 53 C-111 49 -112 45 -112 40 C-112 40 -111 40 -110 40 C-110 39 -110 38 -109 37 C-104 35 -99 35 -94 34 C-86 33 -79 32 -72 30 C-69 29 -66 29 -63 28 C-52 26 -42 22 -32 16 C-31 16 -29 15 -28 14 C-22 12 -17 9 -12 5 C-4 0 -4 0 0 0 Z M-12 15 C-32 31 -67 40 -92 41 C-97 42 -101 44 -104 47 C-104 51 -105 55 -105 59 C-105 60 -105 61 -105 62 C-105 65 -105 67 -105 70 C-105 73 -105 77 -105 81 C-105 83 -105 86 -105 88 C-105 89 -105 89 -105 92 C-105 96 -105 100 -104 104 C-104 108 -104 111 -104 115 C-103 127 -103 139 -98 151 C-97 154 -97 157 -96 160 C-92 172 -87 183 -78 193 C-78 194 -77 195 -76 196 C-74 198 -72 201 -70 203 C-70 203 -69 203 -68 203 C-68 204 -68 204 -66 207 C-64 209 -61 212 -58 214 C-57 215 -57 216 -56 216 C-44 226 -32 235 -17 240 C-14 241 -14 241 -9 244 C-5 246 -4 246 2 245 C5 243 9 241 13 239 C14 238 15 237 16 237 C18 235 20 234 22 233 C24 231 27 230 29 228 C54 213 54 213 58 202 C59 201 60 201 62 200 C63 198 65 195 67 193 C68 192 69 190 71 189 C71 188 71 186 72 185 C72 185 73 185 74 185 C80 175 85 164 89 152 C89 150 90 149 90 147 C91 145 92 144 92 142 C93 141 93 141 94 137 C97 128 98 119 98 110 C98 109 98 108 98 106 C98 103 98 99 98 96 C98 93 98 91 98 88 C99 82 99 75 99 68 C99 66 99 65 99 63 C99 61 99 60 99 58 C99 57 99 56 99 54 C99 50 98 47 96 43 C92 42 92 42 87 41 C59 37 34 27 9 14 C0 10 -4 9 -12 15 Z " fill="#121145" transform="translate(366.3125,246.9375)"/>
<path d="M0 0 C-4 3 -4 3 -9 6 C-10 7 -11 8 -12 9 C-12 9 -12 9 -15 11 C-17 13 -17 13 -18 16 C-19 16 -19 16 -20 16 C-20 19 -20 21 -21 24 C-21 25 -21 27 -21 28 C-21 32 -21 32 -20 36 C-19 36 -19 36 -18 36 C-18 38 -18 39 -18 41 C-18 43 -18 45 -18 47 C-18 48 -18 49 -18 50 C-18 53 -18 53 -17 58 C-16 59 -14 59 -13 60 C-6 56 1 50 3 43 C3 42 2 41 2 40 C-1 34 0 29 2 23 C4 19 6 18 10 17 C17 17 23 18 30 19 C31 19 32 19 34 19 C38 20 42 21 46 23 C46 27 45 29 43 33 C43 36 43 39 43 42 C43 44 43 47 43 50 C43 50 43 50 41 51 C41 52 41 52 42 55 C40 60 40 60 37 62 C32 65 31 67 29 72 C29 74 28 75 28 77 C28 78 27 80 27 81 C26 81 25 81 24 81 C24 82 24 82 24 83 C25 83 25 83 26 83 C26 89 26 94 24 100 C19 102 19 102 13 103 C11 104 9 106 7 107 C4 108 -0 110 -4 111 C-7 112 -10 114 -13 116 C-14 116 -14 116 -15 116 C-15 116 -15 116 -16 118 C-18 117 -18 117 -19 114 C-23 100 -25 86 -26 71 C-26 67 -26 63 -27 59 C-27 51 -27 44 -27 36 C-27 34 -27 31 -27 29 C-27 25 -27 21 -27 18 C-27 17 -27 16 -27 14 C-27 7 -27 7 -24 3 C-20 1 -16 1 -12 0 C-11 0 -11 0 -8 0 C-5 0 -3 0 0 0 Z " fill="#5962D1" transform="translate(288,288)"/>
<path d="M0 0 C6 1 13 2 19 3 C28 6 37 8 46 9 C47 9 49 10 50 10 C53 16 53 22 53 29 C53 31 53 33 53 35 C53 36 53 37 53 38 C53 41 53 44 53 47 C53 52 53 58 53 63 C53 66 53 69 52 73 C52 75 52 77 52 79 C52 81 52 83 52 85 C52 89 52 89 51 92 C46 91 46 91 42 89 C32 89 22 93 15 99 C11 102 11 102 5 102 C1 98 1 92 1 87 C-0 80 -1 76 -6 71 C-10 67 -10 67 -10 63 C-10 62 -9 61 -9 60 C-4 58 -2 58 3 59 C5 59 7 59 10 59 C11 59 12 59 13 59 C16 59 16 59 19 56 C19 52 19 50 16 46 C15 46 14 45 13 44 C12 43 12 42 11 42 C8 39 8 39 3 35 C-1 32 -1 32 -3 29 C-4 23 -2 19 1 13 C1 13 2 12 2 12 C2 9 2 5 2 2 C1 2 1 2 0 2 C0 1 0 1 0 0 Z " fill="#5962D1" transform="translate(412,280)"/>
<path d="M0 0 C4 2 4 2 8 6 C17 11 26 16 35 20 C37 21 39 22 41 23 C58 32 77 34 96 36 C98 36 99 36 100 37 C101 37 102 37 104 37 C106 37 106 37 108 38 C111 43 111 46 111 51 C111 53 111 55 111 57 C111 58 111 58 111 62 C111 64 111 66 111 68 C111 73 111 77 111 81 C110 87 111 92 111 97 C111 102 111 106 111 110 C111 113 111 116 111 119 C110 143 110 143 107 152 C106 152 105 152 104 151 C104 147 104 147 104 143 C103 144 102 144 101 144 C98 136 99 126 100 116 C100 102 100 88 100 73 C100 72 100 72 100 68 C100 67 100 67 100 63 C100 61 100 60 100 58 C99 54 99 54 97 50 C92 49 87 48 81 48 C72 46 63 44 54 41 C53 41 52 41 50 40 C41 38 32 34 23 30 C22 30 20 29 19 28 C12 25 6 21 -1 16 C-5 14 -6 14 -11 15 C-14 18 -14 18 -18 20 C-23 24 -29 27 -35 29 C-39 31 -43 33 -47 35 C-49 36 -52 37 -54 38 C-58 39 -63 41 -67 42 C-69 43 -71 43 -74 44 C-75 44 -76 44 -78 45 C-78 45 -78 45 -82 45 C-82 46 -82 46 -86 46 C-113 52 -113 52 -119 48 C-120 51 -120 54 -121 57 C-121 57 -121 56 -122 55 C-123 55 -124 55 -126 55 C-126 57 -127 58 -128 59 C-128 57 -129 55 -129 53 C-129 52 -129 51 -130 50 C-130 46 -129 44 -128 40 C-123 37 -120 37 -114 36 C-103 35 -91 34 -80 31 C-78 31 -77 31 -75 31 C-53 27 -33 14 -15 1 C-10 -2 -6 -2 0 0 Z " fill="#727DD0" transform="translate(371.75,233.5625)"/>
<path d="M0 0 C1 0 1 0 2 0 C2 1 2 1 2 2 C4 2 5 2 7 2 C10 4 13 7 16 9 C21 12 26 12 32 11 C35 10 35 10 38 9 C44 7 47 7 53 9 C53 8 53 8 53 7 C52 7 50 8 49 8 C48 6 48 3 47 1 C48 1 49 0 50 0 C52 1 55 2 57 4 C66 8 75 8 84 6 C84 5 84 5 84 4 C87 2 87 2 91 1 C94 5 94 5 95 9 C97 15 100 17 104 20 C101 24 101 24 97 25 C97 25 97 25 94 25 C93 25 93 26 92 26 C87 27 81 27 76 28 C72 29 69 30 65 32 C63 32 62 32 60 32 C59 32 57 32 56 32 C55 35 55 35 54 38 C52 40 52 40 47 41 C45 41 44 42 42 42 C42 43 41 44 41 45 C42 46 44 46 45 47 C46 48 47 48 48 49 C52 52 56 52 61 52 C62 52 63 53 64 53 C70 56 76 56 82 56 C85 55 87 54 90 53 C98 52 105 52 112 57 C114 60 114 60 116 62 C117 63 118 64 119 65 C119 67 120 68 120 70 C118 72 115 73 113 75 C110 76 107 78 105 81 C105 81 104 82 104 82 C97 82 94 79 89 75 C85 73 85 73 82 72 C78 71 75 70 71 68 C66 65 61 64 55 64 C54 64 53 63 52 63 C49 61 46 61 42 61 C41 61 40 61 38 61 C35 61 35 61 32 63 C31 63 30 64 29 64 C24 62 22 61 18 57 C18 55 19 54 19 52 C24 52 24 52 28 52 C30 44 30 44 29 40 C26 37 23 35 19 33 C17 32 16 31 14 30 C11 29 7 29 4 29 C1 28 1 28 -3 25 C-5 19 -5 13 -2 7 C-1 6 -1 5 0 4 C0 3 0 1 0 0 Z " fill="#C1C4D0" transform="translate(128,184)"/>
<path d="M0 0 C1 1 2 2 4 2 C4 8 3 13 0 19 C-0 21 -1 23 -2 24 C-2 25 -2 25 -3 29 C-4 32 -5 34 -6 37 C-9 46 -13 55 -18 62 C-19 62 -20 62 -20 62 C-21 63 -21 64 -21 65 C-23 69 -24 71 -27 73 C-28 74 -28 74 -30 77 C-31 78 -32 79 -32 79 C-33 79 -34 79 -34 79 C-34 80 -34 81 -34 81 C-35 82 -36 82 -37 82 C-40 82 -40 82 -43 85 C-46 86 -46 86 -49 86 C-54 85 -58 83 -62 80 C-64 80 -65 79 -66 79 C-70 76 -71 73 -72 68 C-72 68 -72 68 -71 67 C-73 67 -74 67 -76 67 C-81 67 -87 67 -92 67 C-95 67 -97 67 -99 67 C-103 67 -106 67 -110 67 C-111 67 -112 67 -113 67 C-118 67 -123 66 -128 64 C-128 64 -128 63 -128 62 C-129 62 -130 62 -131 61 C-131 61 -131 61 -129 61 C-119 61 -110 61 -101 61 C-97 61 -94 61 -90 61 C-85 61 -80 61 -75 61 C-73 61 -72 61 -70 61 C-69 61 -69 61 -66 61 C-64 61 -63 61 -62 61 C-56 60 -53 58 -48 53 C-47 50 -47 47 -47 43 C-47 41 -47 40 -47 38 C-47 36 -47 35 -47 33 C-47 22 -46 11 -45 0 C-43 3 -43 3 -43 7 C-43 8 -43 9 -42 10 C-37 11 -37 11 -33 9 C-33 9 -33 9 -30 7 C-21 1 -10 -4 0 0 Z " fill="#505ACE" transform="translate(458.375,369.5625)"/>
<path d="M0 0 C1 1 1 2 2 3 C1 7 1 7 -1 11 C-0 11 -0 11 4 13 C6 14 9 16 11 17 C18 21 25 23 33 24 C37 25 40 26 43 28 C44 28 45 29 47 29 C50 30 50 30 52 33 C54 37 55 42 56 46 C56 46 56 46 53 47 C52 48 52 50 51 51 C48 51 48 51 45 50 C44 50 42 49 41 49 C40 49 40 49 37 48 C37 47 36 47 36 46 C26 46 20 49 14 56 C8 63 5 69 4 77 C4 79 3 80 3 82 C2 82 2 82 1 82 C1 84 1 86 1 88 C-0 87 -2 85 -3 84 C-3 83 -3 83 -3 82 C-3 82 -3 82 -5 81 C-10 80 -15 77 -19 74 C-20 74 -20 74 -23 72 C-26 70 -26 70 -27 66 C-27 64 -28 61 -28 59 C-29 59 -30 59 -31 59 C-30 54 -29 49 -27 44 C-27 43 -26 41 -26 40 C-24 36 -24 36 -21 31 C-21 30 -20 29 -20 28 C-15 17 -8 8 0 0 Z " fill="#C9CCD6" transform="translate(164,71)"/>
<path d="M0 0 C8 6 8 6 11 8 C13 10 13 10 19 10 C22 11 22 11 25 14 C25 16 26 17 26 19 C28 23 28 23 32 25 C34 25 35 26 37 26 C38 26 39 27 41 27 C45 28 47 28 51 27 C53 24 54 22 56 19 C59 17 59 17 62 17 C65 18 69 19 72 20 C74 20 75 19 77 19 C78 24 78 24 75 29 C74 31 72 32 70 34 C66 39 63 43 63 50 C61 58 57 67 51 73 C46 76 46 76 42 76 C39 75 39 75 36 71 C34 63 33 55 33 47 C32 47 31 48 30 48 C28 52 27 55 26 59 C24 63 22 65 19 68 C14 67 14 67 11 64 C1 47 -5 25 -3 5 C-2 3 -1 2 0 0 Z " fill="#63697C" transform="translate(62,369)"/>
<path d="M0 0 C1 1 1 1 1 7 C0 8 -0 9 -1 10 C-2 19 -1 24 4 32 C5 33 6 34 7 35 C8 40 8 43 7 47 C7 54 7 58 10 64 C9 69 6 71 2 74 C-2 75 -5 75 -9 75 C-10 75 -10 75 -13 75 C-17 75 -17 75 -20 74 C-24 74 -28 74 -32 74 C-57 74 -57 74 -66 69 C-66 67 -66 66 -66 64 C-64 63 -64 63 -59 63 C-52 62 -47 60 -41 57 C-42 56 -43 55 -44 54 C-44 49 -44 45 -44 40 C-44 35 -45 32 -48 27 C-49 22 -48 21 -46 17 C-44 14 -44 14 -42 13 C-37 13 -34 12 -30 15 C-26 19 -26 19 -26 24 C-26 29 -26 29 -29 33 C-31 37 -31 41 -32 45 C-31 45 -31 45 -30 45 C-29 47 -29 50 -28 52 C-28 52 -28 52 -27 50 C-26 50 -26 50 -25 50 C-25 50 -25 50 -26 47 C-27 42 -27 40 -26 35 C-24 32 -23 30 -21 27 C-21 26 -21 24 -21 23 C-20 19 -20 19 -16 16 C-11 11 -11 9 -10 3 C-6 0 -6 0 0 0 Z " fill="#F6F7FB" transform="translate(401,356)"/>
<path d="M0 0 C0 0 0 0 2 1 C3 6 4 11 4 16 C5 19 6 21 7 24 C7 25 7 27 7 28 C8 28 9 28 10 28 C14 28 14 28 17 29 C17 30 17 30 17 31 C17 31 17 31 20 32 C19 32 19 32 15 33 C6 36 -2 39 -7 48 C-9 51 -9 51 -10 56 C-11 56 -11 56 -12 56 C-12 57 -12 59 -12 60 C-12 62 -12 64 -12 65 C-12 67 -12 69 -12 71 C-12 71 -12 71 -12 75 C-13 75 -13 75 -16 77 C-16 75 -15 74 -15 72 C-15 72 -15 72 -17 71 C-16 71 -15 70 -14 70 C-14 69 -15 67 -15 66 C-15 59 -16 53 -12 46 C-12 45 -11 44 -11 43 C-15 42 -20 41 -24 40 C-26 40 -27 40 -28 40 C-43 37 -43 37 -50 39 C-55 42 -55 47 -56 52 C-56 56 -55 58 -54 61 C-53 64 -53 64 -55 67 C-57 70 -57 70 -61 72 C-62 73 -62 75 -63 76 C-66 78 -68 80 -71 81 C-72 80 -74 79 -75 78 C-75 74 -75 71 -75 67 C-75 66 -75 66 -75 64 C-75 61 -75 59 -75 56 C-76 56 -76 56 -77 56 C-80 49 -79 43 -77 36 C-76 36 -76 36 -75 36 C-75 35 -74 33 -74 32 C-70 28 -70 28 -67 28 C-67 27 -66 26 -66 25 C-57 19 -46 16 -36 13 C-26 10 -17 7 -8 3 C-5 2 -3 1 0 0 Z " fill="#4F59CD" transform="translate(345,268)"/>
<path d="M0 0 C4 3 8 6 11 9 C11 10 11 10 11 11 C12 11 13 11 13 11 C18 16 22 21 22 29 C21 35 18 38 13 43 C7 48 6 52 3 59 C-0 64 -2 66 -8 68 C-12 68 -15 67 -19 65 C-24 60 -31 51 -31 44 C-32 43 -33 43 -35 42 C-38 38 -41 35 -43 30 C-43 23 -40 20 -35 15 C-32 12 -30 9 -27 7 C-20 -1 -11 -3 0 0 Z " fill="#18120B" transform="translate(269.75,161.0625)"/>
<path d="M0 0 C1 1 2 3 3 4 C4 4 4 4 5 4 C5 5 5 7 5 8 C6 9 6 11 6 12 C6 12 6 12 8 13 C5 36 -6 58 -20 77 C-21 78 -21 79 -22 80 C-27 86 -32 92 -38 97 C-39 98 -40 99 -40 99 C-52 111 -64 119 -77 128 C-78 128 -78 128 -80 130 C-101 143 -101 143 -110 142 C-113 141 -115 139 -118 138 C-121 137 -124 135 -127 134 C-128 134 -128 134 -132 132 C-133 132 -134 131 -135 131 C-135 130 -135 130 -133 127 C-129 126 -127 126 -123 127 C-123 126 -123 126 -123 125 C-119 124 -119 124 -116 125 C-111 127 -108 127 -103 127 C-99 125 -99 125 -95 122 C-93 122 -92 121 -90 120 C-89 119 -87 118 -86 117 C-85 116 -84 116 -83 115 C-69 107 -56 96 -44 84 C-41 81 -41 81 -38 78 C-26 68 -18 49 -12 34 C-11 31 -11 31 -8 26 C-6 20 -4 13 -3 7 C-2 3 -2 3 0 0 Z " fill="#5862D2" transform="translate(471,373)"/>
<path d="M0 0 C5 1 8 4 12 7 C17 10 22 13 28 15 C28 15 28 15 32 17 C52 26 74 32 96 35 C101 35 103 37 106 41 C106 45 106 45 106 50 C106 52 106 54 106 56 C106 58 106 60 106 62 C106 64 107 66 107 68 C107 79 107 91 106 102 C106 103 106 104 106 105 C106 119 106 119 103 122 C101 122 99 122 98 122 C98 121 98 120 98 119 C98 110 98 101 98 92 C98 89 98 85 98 82 C98 77 98 72 98 67 C98 67 98 67 98 63 C98 62 98 62 98 58 C98 57 98 56 98 55 C98 51 97 48 96 44 C92 43 92 43 87 42 C59 38 34 28 9 15 C4 12 1 11 -5 11 C-7 13 -10 14 -12 16 C-32 32 -67 41 -92 42 C-97 43 -100 45 -104 47 C-106 50 -106 50 -106 53 C-108 53 -109 53 -110 53 C-112 49 -112 45 -112 40 C-112 40 -111 40 -110 40 C-110 39 -110 38 -109 37 C-104 35 -99 35 -94 34 C-86 33 -79 32 -72 30 C-69 29 -66 29 -63 28 C-52 26 -42 22 -32 16 C-31 16 -29 15 -28 14 C-22 12 -17 9 -12 5 C-4 0 -4 0 0 0 Z " fill="#21235F" transform="translate(366.3125,246.9375)"/>
<path d="M0 0 C0 1 0 1 0 2 C-1 2 -1 2 -2 2 C-2 3 -2 3 -2 4 C-1 4 -1 4 0 4 C0 6 1 7 1 9 C2 11 2 12 3 14 C4 14 5 15 6 15 C6 16 6 17 6 18 C7 19 8 20 9 21 C10 23 10 25 11 27 C12 28 13 30 14 31 C16 31 18 31 20 31 C22 33 22 33 24 36 C25 37 26 38 26 39 C28 41 28 41 28 43 C29 43 29 43 30 43 C30 44 30 44 30 45 C31 46 33 46 34 47 C43 54 43 54 44 58 C43 58 43 58 42 58 C42 60 41 61 41 63 C35 65 29 64 23 64 C21 64 19 64 17 64 C12 64 9 63 5 61 C5 60 4 59 4 58 C2 57 1 57 -1 56 C-3 53 -3 53 -4 49 C-11 42 -11 42 -18 42 C-23 41 -25 40 -29 37 C-31 36 -32 35 -34 33 C-38 30 -38 30 -39 27 C-34 19 -28 13 -19 10 C-14 8 -11 5 -7 2 C-5 0 -5 0 0 0 Z " fill="#C2C5D1" transform="translate(243,424)"/>
<path d="M0 0 C3 4 3 4 6 9 C11 12 11 12 15 13 C17 14 18 14 19 15 C19 16 19 18 19 19 C19 19 19 19 18 20 C18 22 18 23 18 25 C22 27 22 27 27 29 C30 30 32 32 35 33 C37 34 38 34 40 35 C40 38 40 38 38 40 C34 43 31 46 27 48 C25 49 24 50 22 51 C18 53 16 53 11 52 C9 51 6 50 4 49 C0 47 -3 45 -7 44 C-14 41 -20 37 -26 32 C-26 32 -26 32 -29 30 C-33 27 -36 24 -38 19 C-39 18 -39 18 -40 17 C-39 13 -39 13 -35 10 C-33 9 -31 9 -29 8 C-25 7 -22 6 -19 4 C-16 3 -16 3 -13 3 C-13 2 -13 2 -13 1 C-9 -1 -5 -1 0 0 Z " fill="#505ACE" transform="translate(348,440)"/>
<path d="M0 0 C7 5 10 10 13 18 C14 28 13 40 7 48 C1 54 -5 56 -13 57 C-20 56 -25 53 -30 48 C-36 38 -35 28 -34 16 C-31 10 -27 4 -21 0 C-15 -3 -7 -3 0 0 Z " fill="#0B0B0D" transform="translate(213.375,129.625)"/>
<path d="M0 0 C1 0 3 1 4 1 C6 5 6 5 6 11 C9 13 9 13 13 15 C15 16 18 18 20 19 C21 20 23 20 24 21 C27 23 30 26 33 29 C34 29 34 29 35 29 C35 31 35 32 35 34 C36 42 40 48 45 55 C45 57 45 60 45 62 C46 62 48 62 49 62 C49 63 49 63 49 64 C42 64 42 64 39 63 C37 64 36 64 34 65 C28 67 22 68 16 67 C11 65 7 62 3 58 C1 58 -0 57 -2 57 C-2 56 -2 56 -2 55 C-5 56 -7 56 -10 57 C-9 39 -6 21 -1 4 C-1 3 -0 1 0 0 Z " fill="#C8CBD5" transform="translate(132,129)"/>
<path d="M0 0 C8 4 13 10 15 19 C18 30 19 44 15 55 C11 62 6 68 -2 70 C-5 70 -8 70 -11 70 C-11 69 -11 69 -11 68 C-11 68 -12 68 -13 68 C-13 67 -13 67 -12 65 C-11 64 -10 64 -9 64 C-2 61 1 58 5 51 C6 46 7 41 6 36 C4 34 4 34 0 34 C-7 33 -12 30 -18 26 C-21 24 -21 24 -26 23 C-28 23 -29 22 -31 22 C-32 19 -32 19 -32 15 C-25 3 -14 -4 0 0 Z " fill="#F2F3F7" transform="translate(323.6875,118.125)"/>
<path d="M0 0 C3 0 6 1 10 2 C11 2 11 2 15 3 C24 5 27 10 31 17 C34 19 34 19 38 20 C45 22 49 24 53 30 C55 36 56 39 55 45 C53 49 51 50 47 52 C41 53 38 52 32 50 C31 50 30 49 29 49 C27 46 27 46 26 43 C23 39 21 35 17 32 C16 31 14 30 13 28 C8 25 3 23 -3 22 C-4 22 -5 21 -6 21 C-7 17 -7 13 -7 9 C-6 8 -4 7 -3 6 C-2 4 -2 3 -1 1 C-1 1 -0 0 0 0 Z " fill="#C1C4D0" transform="translate(113,244)"/>
<path d="M0 0 C5 2 5 2 8 4 C12 7 15 9 20 10 C23 11 23 11 27 14 C31 16 31 16 36 15 C41 13 41 13 43 12 C45 12 47 12 49 12 C49 12 49 12 51 14 C50 14 49 14 48 15 C38 17 32 22 26 30 C22 37 20 44 19 51 C18 51 18 51 17 51 C17 53 17 55 17 57 C16 56 14 54 13 53 C13 52 13 52 13 51 C12 51 11 51 11 50 C6 49 1 46 -3 43 C-4 43 -4 43 -7 41 C-10 39 -10 39 -11 35 C-11 33 -12 30 -12 28 C-13 28 -14 28 -15 28 C-14 19 -12 11 -5 5 C-5 5 -5 5 -2 3 C-1 2 -1 1 0 0 Z " fill="#BEC1CD" transform="translate(148,102)"/>
<path d="M0 0 C6 1 10 3 15 6 C20 9 24 10 29 11 C33 12 33 12 36 14 C36 22 35 28 32 34 C27 39 22 43 16 46 C8 46 0 42 -5 36 C-10 30 -10 25 -9 17 C-9 17 -9 17 -9 14 C-7 1 -7 1 0 0 Z " fill="#050507" transform="translate(295.3125,139.5)"/>
<path d="M0 0 C5 2 7 4 10 8 C13 10 13 10 19 10 C25 10 25 10 28 12 C29 14 31 16 32 18 C35 22 39 24 43 27 C42 32 42 32 39 34 C35 36 35 36 33 36 C33 37 33 37 33 38 C27 39 23 39 17 39 C16 38 16 36 15 35 C17 32 17 32 19 30 C20 29 20 28 21 27 C21 26 21 26 20 23 C19 22 17 22 16 21 C13 22 13 22 11 25 C10 25 10 25 8 27 C7 27 7 27 5 29 C-1 33 -6 34 -13 36 C-13 36 -13 36 -16 37 C-20 37 -22 37 -26 35 C-28 33 -28 33 -28 29 C-26 27 -26 27 -23 25 C-16 21 -16 21 -15 16 C-13 11 -12 9 -8 7 C-7 7 -7 7 -6 7 C-5 6 -5 4 -4 3 C-3 2 -1 1 0 0 Z " fill="#262953" transform="translate(63,438)"/>
<path d="M0 0 C0 0 0 0 1 3 C3 3 5 3 7 3 C12 5 15 7 18 11 C19 13 19 14 20 16 C21 17 22 18 23 19 C19 18 17 17 13 15 C7 12 1 12 -6 14 C-13 18 -17 22 -19 30 C-21 41 -21 51 -16 61 C-11 65 -7 69 -0 69 C5 69 11 68 16 65 C16 67 16 68 16 70 C15 70 15 70 12 72 C12 73 12 73 12 74 C4 77 -4 76 -12 74 C-22 70 -27 65 -32 56 C-34 51 -33 47 -33 42 C-34 42 -34 42 -35 42 C-35 40 -35 39 -35 37 C-34 37 -34 37 -33 37 C-33 36 -33 36 -33 32 C-32 21 -25 12 -17 5 C-11 1 -7 0 0 0 Z " fill="#FAFAFC" transform="translate(200,116)"/>
<path d="M0 0 C1 1 1 1 2 2 C5 4 7 5 11 5 C12 5 14 4 15 4 C18 7 20 10 22 14 C26 19 30 23 34 27 C38 30 38 30 40 34 C43 38 47 40 51 42 C53 44 56 45 58 47 C65 51 71 55 78 58 C86 63 86 63 87 66 C86 66 86 66 85 66 C85 67 85 67 85 68 C83 68 82 68 80 68 C79 68 79 68 75 68 C75 68 75 68 74 71 C61 67 49 58 39 49 C38 48 36 47 35 46 C21 35 8 21 0 5 C0 3 0 2 0 0 Z " fill="#6772CD" transform="translate(263,432)"/>
<path d="M0 0 C2 0 5 0 7 1 C9 1 10 1 11 1 C16 2 19 4 22 7 C26 13 26 19 26 26 C26 26 26 26 27 30 C26 31 26 33 26 34 C21 37 21 37 19 37 C19 38 19 38 19 39 C14 40 14 40 8 40 C7 41 6 42 5 43 C4 43 2 43 1 43 C1 42 1 42 1 41 C-0 41 -1 42 -2 42 C-3 42 -3 42 -6 42 C-9 37 -10 33 -12 28 C-12 27 -13 26 -13 25 C-14 22 -14 22 -12 18 C-10 16 -8 13 -6 10 C-6 9 -5 9 -5 8 C-6 8 -6 8 -7 8 C-7 7 -7 7 -7 6 C-6 6 -4 7 -3 7 C-3 6 -2 5 -2 4 C-1 1 -1 1 0 0 Z " fill="#C1C4D0" transform="translate(284,209)"/>
<path d="M0 0 C5 2 8 6 11 11 C12 14 12 14 12 20 C13 20 13 20 14 20 C14 23 14 25 14 28 C13 28 12 28 11 28 C11 29 11 30 11 31 C10 31 10 31 7 32 C7 33 7 33 7 34 C3 34 -2 34 -6 34 C-7 34 -9 34 -10 34 C-11 34 -12 34 -14 34 C-15 34 -16 34 -17 34 C-20 34 -23 33 -26 31 C-27 31 -27 31 -28 31 C-30 14 -30 14 -25 7 C-24 7 -24 7 -23 7 C-22 6 -22 4 -21 3 C-14 -3 -8 -2 0 0 Z " fill="#606AE0" transform="translate(373,313)"/>
<path d="M0 0 C1 1 2 2 2 2 C5 5 5 5 7 6 C8 4 8 2 9 0 C10 0 12 1 13 1 C16 2 19 3 22 4 C29 7 35 9 41 12 C47 14 52 15 58 15 C58 15 58 15 61 15 C64 19 64 19 64 23 C63 26 63 26 61 29 C60 32 58 35 57 38 C56 37 54 36 53 35 C53 34 53 32 53 31 C48 27 46 28 41 28 C39 28 38 28 36 28 C29 28 27 30 22 35 C22 36 22 36 19 39 C17 39 16 38 14 38 C13 34 12 31 12 27 C12 21 10 17 8 12 C7 12 6 11 5 11 C5 10 5 9 5 8 C3 8 2 7 0 7 C1 7 2 6 3 6 C2 5 1 5 0 4 C0 3 0 1 0 0 Z " fill="#C8CBD5" transform="translate(219,128)"/>
<path d="M0 0 C1 3 2 6 3 9 C4 11 4 12 5 14 C5 17 5 20 6 23 C6 26 6 26 8 31 C10 40 9 47 8 56 C8 57 8 59 8 60 C9 61 9 61 10 62 C10 63 10 65 10 66 C11 66 11 66 12 66 C14 69 13 72 13 75 C11 78 11 78 9 80 C10 80 10 80 11 80 C11 82 12 83 12 85 C13 85 14 85 15 85 C15 86 16 88 16 89 C15 90 14 91 13 92 C11 91 10 90 8 89 C8 87 8 85 8 83 C2 76 -5 72 -13 68 C-16 67 -16 67 -20 63 C-19 62 -18 61 -16 60 C-8 52 -5 46 -4 35 C-4 24 -5 15 -8 5 C-8 3 -7 2 -7 0 C-3 -1 -3 -1 0 0 Z " fill="#BDC0CD" transform="translate(344,125)"/>
<path d="M0 0 C1 0 3 0 4 0 C4 6 4 12 5 18 C5 19 5 19 5 24 C5 34 5 45 4 55 C3 54 1 53 0 52 C0 50 0 48 0 46 C-7 45 -13 48 -20 51 C-20 51 -21 52 -21 52 C-27 52 -32 52 -37 49 C-39 45 -40 42 -41 38 C-38 32 -28 28 -22 26 C-20 26 -19 26 -18 25 C-15 24 -15 24 -11 21 C-10 21 -10 21 -5 21 C-4 20 -2 20 0 19 C2 13 2 8 2 2 C1 2 1 2 0 2 C0 1 0 1 0 0 Z " fill="#4E58CD" transform="translate(312,369)"/>
<path d="M0 0 C1 0 1 1 2 1 C3 5 3 5 4 10 C3 11 3 12 2 13 C2 13 2 13 1 12 C0 17 0 19 1 24 C1 29 1 34 1 39 C1 40 1 42 1 43 C1 44 1 46 1 47 C1 48 1 49 1 51 C1 54 0 57 -1 60 C-3 56 -3 56 -4 52 C-6 48 -8 45 -12 44 C-13 43 -13 43 -16 42 C-23 40 -28 38 -33 33 C-33 30 -33 30 -32 27 C-32 27 -32 27 -30 25 C-27 23 -25 21 -24 18 C-20 12 -17 9 -12 5 C-9 5 -5 4 -2 4 C-1 3 -1 1 0 0 Z " fill="#90939F" transform="translate(146,304)"/>
<path d="M0 0 C1 0 2 1 3 1 C3 5 3 5 3 9 C3 10 3 10 3 15 C3 17 3 19 3 21 C3 23 3 25 3 27 C3 31 3 35 3 40 C3 45 3 50 3 56 C3 60 3 64 3 68 C3 71 3 74 3 77 C3 101 3 101 0 111 C-1 111 -2 110 -3 110 C-3 106 -3 106 -3 102 C-3 102 -3 102 -6 103 C-10 94 -8 84 -8 75 C-7 60 -7 46 -7 32 C-7 30 -7 28 -7 26 C-7 24 -8 23 -8 21 C-8 20 -8 18 -8 16 C-8 13 -8 13 -10 11 C-9 5 -5 3 0 0 Z " fill="#6474E5" transform="translate(479,275)"/>
<path d="M0 0 C0 0 0 0 2 1 C4 8 3 16 2 23 C2 30 3 37 6 44 C12 46 12 46 17 47 C18 48 20 50 21 51 C20 53 18 55 17 56 C16 57 15 58 15 59 C12 62 10 63 6 63 C3 62 1 60 -1 59 C-10 54 -18 55 -27 56 C-27 56 -27 56 -26 54 C-27 54 -29 54 -30 54 C-36 54 -41 54 -47 54 C-49 54 -52 54 -54 54 C-58 54 -61 53 -64 53 C-65 53 -66 53 -68 53 C-73 53 -78 53 -83 51 C-83 50 -83 50 -83 49 C-84 49 -85 48 -86 48 C-86 48 -86 48 -83 48 C-74 48 -65 48 -55 48 C-52 48 -48 48 -45 48 C-40 48 -35 48 -30 48 C-28 48 -26 47 -25 47 C-24 47 -24 47 -20 47 C-19 47 -18 47 -16 47 C-10 47 -7 44 -3 40 C-2 36 -2 33 -2 29 C-2 27 -2 26 -2 24 C-2 21 -1 17 -1 14 C-1 12 -1 11 -1 9 C-1 7 -1 6 -1 4 C-1 1 -1 1 0 0 Z " fill="#4850CC" transform="translate(413,383)"/>
<path d="M0 0 C5 7 8 14 10 22 C11 28 11 28 12 31 C16 40 17 50 18 59 C19 60 19 62 20 63 C21 68 21 74 21 79 C22 88 22 88 24 92 C24 95 24 97 24 100 C25 107 26 114 28 122 C29 125 29 128 27 131 C26 131 25 132 24 132 C23 133 23 133 20 136 C17 138 15 139 12 141 C10 142 8 144 5 145 C-16 159 -16 159 -24 159 C-24 158 -24 158 -23 155 C-21 155 -19 154 -17 154 C-17 153 -17 153 -15 150 C-10 147 -6 145 -1 143 C2 141 4 139 7 137 C9 136 10 135 12 134 C13 133 15 132 16 131 C17 130 18 130 20 129 C23 127 23 127 24 124 C24 123 24 122 24 121 C23 121 22 121 21 121 C21 119 20 118 20 116 C19 116 19 116 18 116 C18 116 18 116 19 113 C20 113 20 113 21 113 C21 109 21 106 21 102 C20 102 20 102 19 102 C18 100 18 99 17 97 C17 97 16 96 16 96 C16 93 16 91 17 88 C18 78 17 70 14 60 C13 56 13 52 13 48 C12 46 10 43 9 41 C7 33 7 33 8 29 C7 29 7 28 6 28 C4 24 3 21 2 17 C1 16 1 15 0 14 C-0 11 -0 11 -1 7 C-1 6 -1 5 -1 4 C-1 3 -1 2 -1 1 C-1 1 -0 0 0 0 Z " fill="#CED1DB" transform="translate(335,89)"/>
<path d="M0 0 C2 3 2 3 2 8 C3 8 4 9 5 9 C5 10 5 10 5 11 C6 10 8 9 9 8 C10 10 11 13 12 15 C12 15 12 15 10 16 C10 17 10 17 10 20 C9 25 7 28 3 32 C-1 31 -1 31 -4 28 C-7 27 -7 27 -11 27 C-16 30 -16 30 -18 33 C-19 33 -21 33 -22 33 C-23 34 -23 36 -24 37 C-26 35 -26 35 -26 30 C-26 28 -26 26 -26 24 C-26 22 -26 21 -26 20 C-26 12 -26 12 -25 10 C-23 10 -22 9 -20 9 C-15 7 -15 7 -12 3 C-8 -1 -6 -1 0 0 Z " fill="#F6F7FB" transform="translate(345,375)"/>
<path d="M0 0 C1 3 1 3 2 6 C-20 18 -46 27 -72 28 C-77 29 -80 30 -84 33 C-85 36 -85 36 -86 39 C-87 39 -89 39 -90 39 C-92 34 -92 31 -92 26 C-91 26 -91 26 -90 26 C-90 25 -89 24 -89 23 C-84 21 -79 21 -74 20 C-66 19 -59 18 -52 16 C-49 15 -46 15 -43 14 C-32 12 -21 8 -12 2 C-4 -1 -4 -1 0 0 Z " fill="#292D73" transform="translate(346,261)"/>
<path d="M0 0 C-0 1 -1 2 -1 3 C-2 3 -2 3 -3 3 C-3 5 -3 6 -3 8 C-7 10 -7 10 -12 12 C-12 13 -13 13 -13 14 C-21 17 -28 19 -36 20 C-37 20 -39 20 -40 21 C-52 22 -52 22 -57 20 C-58 23 -59 26 -59 29 C-59 28 -60 28 -60 27 C-61 27 -63 27 -64 27 C-65 28 -65 30 -66 31 C-66 29 -67 27 -67 25 C-67 24 -67 24 -68 21 C-68 18 -68 15 -66 12 C-61 9 -59 9 -53 8 C-38 7 -24 4 -10 1 C-4 0 -4 0 0 0 Z " fill="#777FD1" transform="translate(310,262)"/>
<path d="M0 0 C0 0 1 0 1 0 C1 2 1 3 1 5 C1 11 1 17 1 23 C1 26 1 29 1 31 C1 35 1 39 1 43 C1 44 1 45 1 46 C1 51 1 55 2 59 C2 63 2 66 2 70 C3 95 3 95 8 106 C8 108 8 109 8 111 C4 112 4 112 1 113 C-4 97 -6 80 -7 63 C-7 62 -7 61 -7 59 C-7 49 -7 40 -7 30 C-7 28 -7 27 -7 26 C-7 19 -7 13 -6 7 C-4 7 -3 8 -1 8 C-1 5 -0 3 0 0 Z " fill="#141449" transform="translate(261,292)"/>
<path d="M0 0 C5 3 9 6 12 11 C12 13 12 14 11 16 C9 16 9 16 4 17 C2 17 -0 18 -2 19 C-4 19 -5 19 -6 19 C-9 21 -9 21 -10 24 C-10 25 -10 26 -11 27 C-9 28 -7 28 -6 29 C-6 30 -6 30 -7 31 C-12 30 -12 30 -16 27 C-21 24 -21 24 -26 23 C-27 23 -27 23 -31 22 C-32 19 -32 19 -32 15 C-25 3 -14 -4 0 0 Z " fill="#FCFCFD" transform="translate(323.6875,118.125)"/>
<path d="M0 0 C7 4 13 11 17 18 C16 19 16 21 15 22 C15 22 15 22 14 25 C8 28 2 28 -5 27 C-9 25 -9 25 -13 23 C-14 23 -14 23 -17 22 C-20 21 -20 21 -23 18 C-23 18 -23 18 -24 15 C-19 6 -11 -2 0 0 Z " fill="#F18F1A" transform="translate(265,169)"/>
<path d="M0 0 C2 2 4 3 7 5 C9 7 11 9 14 10 C19 15 23 20 25 26 C25 29 25 29 24 32 C15 34 5 33 -4 31 C-8 27 -8 24 -8 19 C-8 18 -8 18 -8 15 C-9 12 -9 9 -9 6 C-9 5 -10 5 -10 4 C-5 -1 -5 -1 0 0 Z " fill="#5861D0" transform="translate(356,265)"/>
<path d="M0 0 C10 2 20 4 31 5 C32 5 33 5 34 5 C35 6 37 6 38 6 C40 6 40 6 42 7 C41 13 38 14 34 18 C31 19 31 19 27 19 C26 18 24 18 22 17 C20 17 18 17 16 16 C4 15 -7 11 -19 8 C-18 4 -18 4 -18 -1 C-11 -3 -6 -2 0 0 Z " fill="#7780D2" transform="translate(437.5625,264.75)"/>
<path d="M0 0 C3 2 5 4 7 7 C7 15 7 15 4 20 C2 24 2 28 1 32 C2 32 2 32 3 32 C3 35 4 38 4 41 C3 41 3 41 2 41 C2 42 2 42 2 43 C-1 45 -4 44 -7 44 C-8 43 -10 42 -11 41 C-11 36 -11 32 -11 27 C-11 22 -12 19 -15 14 C-16 9 -15 8 -13 4 C-9 -1 -6 -0 0 0 Z " fill="#273094" transform="translate(368,369)"/>
<path d="M0 0 C3 0 3 0 6 2 C11 11 11 20 12 30 C14 30 15 30 17 30 C19 28 21 26 23 23 C26 20 29 19 34 19 C36 19 37 19 38 19 C40 19 41 19 43 19 C47 19 49 20 52 23 C52 23 52 23 51 26 C50 26 50 26 49 26 C41 25 33 23 27 28 C22 32 17 37 13 42 C12 43 10 45 9 46 C7 51 7 54 7 59 C4 59 4 59 1 58 C-0 55 -0 55 -1 52 C-2 51 -2 51 -3 50 C-4 50 -4 50 -5 50 C-5 48 -5 46 -5 44 C-5 44 -5 44 -3 42 C4 35 5 25 4 15 C4 10 2 7 0 2 C0 1 0 1 0 0 Z " fill="#DBDDE5" transform="translate(221,136)"/>
<path d="M0 0 C2 3 3 5 4 9 C9 21 15 32 24 42 C27 46 27 46 27 48 C28 48 28 48 29 48 C30 49 31 50 32 51 C35 55 39 59 44 62 C54 70 54 70 55 72 C55 74 55 77 55 79 C47 75 37 70 32 62 C29 58 26 55 23 52 C17 47 13 42 9 35 C8 34 7 33 6 32 C5 30 4 28 3 26 C3 25 2 24 1 23 C-0 19 -2 15 -4 11 C-5 10 -5 8 -6 7 C-6 6 -7 5 -7 4 C-6 2 -6 2 -3 1 C-3 1 -3 1 0 0 Z " fill="#121249" transform="translate(269,402)"/>
<path d="M0 0 C4 2 7 3 10 5 C12 6 14 7 16 8 C16 8 16 8 18 10 C25 13 32 16 39 19 C38 20 38 20 37 21 C36 21 35 21 34 21 C34 22 34 23 35 24 C35 25 35 26 35 27 C34 28 34 28 33 29 C17 28 -4 16 -16 6 C-16 5 -16 5 -16 4 C-10 1 -6 -1 0 0 Z " fill="#6773CE" transform="translate(386,243)"/>
<path d="M0 0 C1 -0 3 -0 4 -0 C17 -0 29 2 41 6 C42 7 44 7 45 8 C49 9 49 9 53 12 C54 13 55 14 56 14 C54 14 52 14 50 14 C50 14 50 14 47 14 C44 14 44 14 42 13 C42 13 42 12 42 11 C40 11 39 11 37 11 C31 10 31 10 28 8 C26 6 26 6 21 6 C17 7 17 7 16 8 C14 8 12 8 10 8 C9 8 9 8 5 8 C5 8 5 8 1 8 C-0 8 -2 8 -3 8 C-5 8 -6 8 -7 8 C-8 8 -10 8 -11 8 C-14 8 -14 8 -15 7 C-22 7 -24 8 -30 11 C-33 12 -36 12 -39 12 C-41 13 -42 14 -44 15 C-48 17 -50 17 -54 17 C-54 18 -54 19 -54 19 C-56 19 -58 19 -60 18 C-53 13 -47 9 -39 6 C-37 5 -36 4 -34 4 C-23 0 -12 -0 0 0 Z " fill="#D6D8E2" transform="translate(241.875,38.6875)"/>
<path d="M0 0 C1 1 1 1 2 2 C6 4 6 4 12 5 C22 7 30 14 35 23 C38 28 38 28 38 33 C33 34 33 34 29 32 C27 32 25 32 24 32 C18 31 18 31 15 28 C14 27 13 25 12 24 C9 21 7 19 3 17 C0 17 -3 17 -6 17 C-6 17 -6 17 -4 14 C-2 14 -1 13 1 13 C-0 12 -2 11 -3 10 C-2 10 -2 10 -1 10 C0 6 0 6 0 3 C0 2 0 1 0 0 Z " fill="#7F8599" transform="translate(103,261)"/>
<path d="M0 0 C1 0 2 0 3 0 C3 6 3 6 1 8 C-2 13 -2 18 -2 23 C-3 23 -3 23 -3 26 C-3 33 -3 37 1 42 C7 47 13 49 20 51 C20 52 19 54 19 55 C18 55 16 55 15 56 C9 57 6 61 2 66 C1 66 1 67 0 68 C-1 68 -1 68 -2 68 C-4 71 -5 74 -6 77 C-7 78 -7 78 -9 82 C-10 82 -12 81 -13 81 C-13 82 -13 82 -13 83 C-12 83 -12 83 -11 83 C-11 84 -11 84 -11 85 C-12 85 -12 85 -17 86 C-15 76 -12 71 -3 65 C-0 62 0 60 1 56 C1 51 -0 49 -3 44 C-3 43 -3 43 -3 42 C-4 41 -6 41 -7 40 C-7 39 -7 39 -7 38 C-8 38 -8 38 -9 38 C-9 37 -9 37 -9 36 C-10 35 -12 35 -13 34 C-14 28 -13 25 -10 19 C-9 19 -9 18 -8 18 C-8 17 -8 16 -8 15 C-8 11 -8 11 -5 8 C-4 8 -4 8 -3 8 C-3 7 -2 5 -2 4 C-1 4 -1 4 0 4 C0 3 0 1 0 0 Z " fill="#DDDFE7" transform="translate(290,134)"/>
<path d="M0 0 C7 0 12 3 18 7 C20 12 20 14 18 19 C18 20 18 21 17 23 C15 28 10 31 5 33 C1 34 1 34 -2 35 C-5 32 -5 32 -5 29 C-3 8 -3 8 0 0 Z " fill="#80869A" transform="translate(71,309)"/>
<path d="M0 0 C5 0 5 0 8 -1 C9 2 9 4 9 7 C9 8 9 10 9 11 C9 15 8 16 5 19 C4 19 4 19 3 19 C3 20 3 20 3 21 C4 21 4 21 5 21 C6 23 6 24 7 26 C3 28 1 28 -4 27 C-5 26 -7 26 -8 25 C-7 25 -7 24 -6 24 C-6 23 -6 23 -7 19 C-11 18 -11 18 -16 17 C-20 15 -20 15 -22 10 C-20 7 -20 7 -18 5 C-17 5 -17 5 -16 5 C-16 4 -16 4 -16 3 C-10 -1 -7 -1 0 0 Z " fill="#80869A" transform="translate(132,362)"/>
<path d="M0 0 C-2 10 -7 18 -12 27 C-12 28 -13 28 -13 29 C-14 29 -14 29 -15 29 C-15 28 -15 27 -15 26 C-16 22 -16 22 -18 20 C-20 20 -21 19 -23 19 C-28 17 -32 15 -36 11 C-35 6 -34 5 -30 2 C-20 -1 -10 -0 0 0 Z " fill="#5962D0" transform="translate(453,403)"/>
<path d="M0 0 C1 0 1 0 2 0 C2 3 3 5 3 8 C5 8 6 8 8 8 C9 11 11 15 12 18 C15 22 18 25 21 28 C25 31 25 31 27 35 C20 37 16 35 10 32 C9 32 7 31 6 30 C2 29 -2 27 -6 25 C-6 24 -6 24 -6 23 C-7 23 -7 23 -8 23 C-8 22 -8 22 -9 18 C-10 17 -10 17 -11 16 C-10 16 -9 15 -8 15 C-7 14 -7 12 -6 11 C-6 10 -6 10 -3 7 C-1 3 -1 3 0 0 Z " fill="#9295A0" transform="translate(129,435)"/>
<path d="M0 0 C4 2 5 4 7 8 C8 14 7 19 4 24 C-2 28 -4 27 -11 26 C-16 23 -16 23 -17 21 C-17 19 -17 17 -17 14 C-17 13 -17 12 -17 11 C-17 7 -17 7 -14 5 C-14 4 -13 4 -12 3 C-10 2 -9 2 -8 1 C-4 -1 -4 -1 0 0 Z " fill="#505ACE" transform="translate(456.75,319.875)"/>
<path d="M0 0 C2 0 3 0 5 1 C5 3 5 3 4 7 C1 9 1 9 -2 11 C-6 14 -10 16 -13 19 C-18 23 -23 25 -28 28 C-29 29 -30 30 -31 31 C-36 33 -39 33 -44 32 C-44 31 -44 31 -45 27 C-41 24 -37 21 -33 19 C-24 14 -17 9 -9 3 C-5 -0 -5 -0 0 0 Z " fill="#4F59CD" transform="translate(414.25,473.3125)"/>
<path d="M0 0 C6 0 10 2 14 7 C17 12 17 14 17 20 C18 20 18 20 19 20 C19 23 19 25 19 28 C18 28 17 28 16 28 C16 29 16 30 16 31 C15 31 13 32 12 32 C12 33 12 33 12 34 C8 34 3 34 -1 34 C-2 34 -4 34 -5 34 C-6 34 -7 34 -9 34 C-10 34 -11 34 -12 34 C-15 34 -18 33 -21 31 C-22 31 -22 31 -23 31 C-25 14 -25 14 -20 7 C-19 7 -19 7 -18 7 C-17 6 -17 4 -16 3 C-16 3 -15 3 -15 3 C-15 5 -15 7 -15 9 C-16 9 -16 9 -19 11 C-20 16 -20 20 -18 24 C-15 24 -13 25 -10 25 C-10 26 -10 26 -10 27 C-7 27 -5 27 -2 27 C-0 27 1 27 3 27 C7 26 7 26 12 23 C12 18 12 14 11 9 C10 8 8 8 7 7 C7 6 7 5 7 4 C5 3 4 3 2 2 C1 1 1 1 0 0 Z " fill="#545ECF" transform="translate(368,313)"/>
<path d="M0 0 C3 2 5 5 7 8 C10 12 14 14 18 17 C17 22 17 22 14 24 C10 26 10 26 8 26 C8 27 8 27 8 28 C2 29 -2 29 -8 29 C-9 28 -9 26 -10 25 C-8 22 -8 22 -6 20 C-5 19 -5 18 -4 17 C-5 13 -5 13 -9 9 C-8 8 -8 8 -7 7 C-8 3 -8 3 -11 1 C-6 0 -6 0 0 0 Z " fill="#26273D" transform="translate(88,448)"/>
<path d="M0 0 C1 0 2 0 3 0 C3 2 3 4 3 6 C4 6 4 6 5 6 C6 7 7 8 8 9 C16 13 26 17 35 18 C36 18 36 17 37 17 C37 16 37 15 37 14 C38 15 40 16 41 17 C55 26 55 26 62 26 C62 27 62 28 62 29 C64 28 65 28 67 27 C67 28 67 28 69 31 C70 32 72 32 73 33 C73 34 73 34 73 35 C67 35 66 35 62 31 C57 28 57 28 52 28 C50 29 49 29 47 30 C30 29 11 19 -1 7 C-1 1 -1 1 0 0 Z " fill="#B0B2B9" transform="translate(118,452)"/>
<path d="M0 0 C0 35 1 70 1 106 C-1 106 -2 105 -4 105 C-5 102 -5 102 -5 99 C-5 98 -5 98 -5 95 C-5 93 -5 92 -4 90 C-4 89 -4 87 -4 85 C-4 81 -4 76 -4 71 C-4 68 -4 64 -4 61 C-4 53 -4 45 -4 37 C-5 37 -5 37 -6 37 C-6 39 -6 42 -6 44 C-6 44 -7 44 -7 44 C-7 32 -7 32 -6 29 C-5 29 -5 29 -4 29 C-4 27 -4 25 -4 23 C-5 22 -5 22 -6 21 C-6 8 -6 8 -5 2 C-2 0 -2 0 0 0 Z " fill="#D7D9E3" transform="translate(232,273)"/>
<path d="M0 0 C3 4 2 7 1 12 C1 18 1 24 1 30 C1 31 1 31 1 34 C1 48 1 63 2 77 C1 77 1 77 0 77 C-3 72 -3 69 -3 63 C-3 62 -3 60 -3 59 C-3 58 -3 57 -3 56 C-4 56 -4 56 -5 56 C-5 61 -5 65 -5 70 C-5 70 -6 70 -6 70 C-8 53 -10 37 -7 20 C-6 20 -6 20 -5 20 C-5 21 -4 22 -4 23 C-2 20 -2 16 -2 13 C-2 8 -1 4 0 0 Z " fill="#5D64B8" transform="translate(254,292)"/>
<path d="M0 0 C1 0 3 1 4 1 C6 1 9 1 11 2 C12 2 13 2 14 2 C18 2 21 1 24 0 C26 2 26 2 26 6 C27 6 27 6 28 6 C30 9 29 12 29 15 C27 18 27 18 25 20 C26 20 26 20 27 20 C27 22 28 23 28 25 C29 25 30 25 31 25 C31 26 31 26 32 29 C31 30 30 31 29 32 C27 31 26 30 24 29 C24 27 24 25 24 23 C18 16 11 12 3 8 C0 7 0 7 -4 3 C-3 2 -1 1 0 0 Z " fill="#C1C4D0" transform="translate(328,185)"/>
<path d="M0 0 C1 0 1 0 5 1 C10 2 10 2 14 5 C15 8 15 8 15 11 C14 12 14 12 11 12 C-3 12 -16 12 -29 11 C-29 10 -29 9 -29 8 C-28 8 -26 7 -25 7 C-25 6 -25 6 -25 5 C-22 3 -22 3 -17 2 C-16 1 -14 1 -12 0 C-8 -1 -5 -1 0 0 Z " fill="#C8CBD5" transform="translate(281,524)"/>
<path d="M0 0 C5 2 5 2 8 4 C12 7 15 9 20 10 C23 11 23 11 27 14 C31 16 31 16 36 15 C41 13 41 13 43 12 C45 12 47 12 49 12 C50 13 50 13 51 14 C51 14 51 14 48 15 C39 18 39 18 35 20 C30 23 25 23 20 22 C12 19 4 15 -2 9 C-2 8 -2 7 -2 6 C-3 6 -3 5 -4 5 C-2 2 -2 2 0 0 Z " fill="#C2C5D1" transform="translate(148,102)"/>
<path d="M0 0 C1 0 1 0 2 0 C2 1 2 1 2 2 C3 3 5 3 6 4 C15 11 15 11 16 15 C15 15 15 15 14 15 C14 17 13 18 13 20 C3 22 -7 21 -17 19 C-17 18 -17 17 -17 16 C-16 16 -16 16 -15 16 C-15 14 -15 13 -15 11 C-12 10 -12 10 -8 9 C-7 8 -5 7 -4 6 C-3 6 -3 6 -2 6 C-2 5 -1 4 -1 3 C-1 2 -0 1 0 0 Z " fill="#B1B3BA" transform="translate(271,467)"/>
<path d="M0 0 C1 4 2 7 3 11 C3 13 4 15 4 17 C5 18 5 19 5 20 C9 35 15 49 24 61 C26 64 26 64 26 67 C21 67 21 67 18 64 C16 61 16 61 16 56 C16 56 16 56 13 55 C12 54 12 52 11 51 C11 51 11 51 10 50 C7 41 7 41 7 39 C6 39 6 39 5 39 C5 38 5 38 5 37 C6 37 6 37 7 37 C7 36 7 36 7 35 C7 35 7 35 4 36 C4 35 3 33 3 32 C1 27 1 27 -1 24 C-2 21 -2 21 -2 18 C-3 15 -3 15 -6 11 C-6 9 -6 8 -6 6 C-5 6 -5 6 -4 6 C-4 4 -4 3 -4 1 C-2 0 -2 0 0 0 Z " fill="#D6D8E2" transform="translate(236,389)"/>
<path d="M0 0 C0 2 0 3 0 5 C-3 7 -5 8 -8 10 C-9 12 -9 13 -10 15 C-11 14 -11 14 -12 13 C-13 12 -13 12 -15 10 C-16 9 -16 8 -17 8 C-21 5 -24 6 -29 7 C-30 8 -31 8 -32 9 C-37 12 -41 11 -47 10 C-52 10 -58 10 -63 10 C-67 10 -70 9 -74 7 C-74 6 -75 6 -75 5 C-67 5 -58 5 -50 6 C-47 6 -47 6 -44 5 C-39 4 -35 4 -30 4 C-20 3 -10 0 0 0 Z " fill="#F3F4F7" transform="translate(290,497)"/>
<path d="M0 0 C3 2 5 4 7 7 C7 12 7 12 7 16 C4 19 1 18 -3 18 C-4 18 -4 18 -7 18 C-11 18 -11 18 -15 14 C-16 10 -15 8 -13 4 C-9 -1 -6 -0 0 0 Z " fill="#333B95" transform="translate(368,369)"/>
<path d="M0 0 C6 1 8 3 12 8 C13 9 13 10 14 11 C17 15 20 17 24 19 C30 23 30 23 32 25 C31 30 31 30 30 31 C26 31 24 32 20 29 C19 28 19 27 18 26 C13 21 8 17 3 13 C1 11 1 11 -1 9 C-1 3 -1 3 0 0 Z " fill="#5961C7" transform="translate(290,455)"/>
<path d="M0 0 C6 2 9 2 15 2 C15 3 15 3 16 9 C12 9 8 9 5 10 C3 10 2 10 1 10 C-2 10 -5 10 -8 10 C-9 9 -10 7 -12 6 C-16 6 -20 5 -24 6 C-25 6 -26 6 -27 6 C-30 6 -33 6 -36 6 C-35 6 -34 5 -34 5 C-34 4 -34 4 -34 3 C-32 3 -30 3 -28 2 C-23 2 -23 2 -19 1 C-19 0 -19 -0 -19 -1 C-11 -5 -7 -4 0 0 Z " fill="#C8CBD5" transform="translate(134.6875,522.125)"/>
<path d="M0 0 C1 0 3 1 4 1 C6 5 6 5 6 8 C4 8 3 7 1 7 C1 12 1 16 2 21 C2 27 1 30 -2 36 C-3 39 -3 41 -2 45 C-1 50 -1 50 -2 55 C-6 57 -6 57 -10 57 C-9 39 -6 21 -1 4 C-1 3 -0 1 0 0 Z " fill="#D7D9E3" transform="translate(132,129)"/>
<path d="M0 0 C2 0 3 0 5 0 C8 8 9 16 9 24 C10 29 11 32 13 36 C13 38 13 39 13 41 C10 42 10 42 6 43 C2 30 -3 14 0 0 Z " fill="#262862" transform="translate(256,362)"/>
<path d="M0 0 C1 0 1 0 2 0 C5 4 5 4 5 8 C4 13 2 16 -1 21 C-3 24 -4 27 -5 30 C-6 32 -6 33 -7 35 C-9 35 -10 35 -12 35 C-15 24 -11 17 -6 8 C-3 3 -3 3 0 0 Z " fill="#B2B4BB" transform="translate(144,408)"/>
<path d="M0 0 C5 1 8 4 12 7 C13 8 14 8 15 9 C14 10 14 10 14 11 C13 11 12 10 12 10 C12 11 12 11 13 13 C12 14 12 14 12 15 C8 14 8 14 4 12 C1 11 1 11 -5 11 C-8 13 -11 16 -14 18 C-16 18 -18 19 -19 19 C-19 18 -19 18 -20 14 C-21 14 -22 14 -22 14 C-22 13 -22 13 -22 12 C-20 11 -18 9 -16 8 C-14 7 -13 6 -12 5 C-3 0 -3 0 0 0 Z " fill="#262862" transform="translate(366.3125,246.9375)"/>
<path d="M0 0 C7 4 13 11 17 18 C15 22 15 22 14 23 C12 23 11 23 9 23 C10 22 10 20 11 19 C10 16 10 16 9 13 C6 12 6 12 3 11 C2 11 2 11 -0 9 C-4 7 -7 8 -12 9 C-15 11 -15 11 -18 16 C-17 16 -17 17 -16 17 C-16 18 -16 18 -16 19 C-18 19 -20 19 -22 19 C-23 18 -23 16 -24 15 C-18 6 -11 -2 0 0 Z " fill="#F1A32C" transform="translate(265,169)"/>
<path d="M0 0 C2 1 3 3 5 4 C7 5 8 6 10 7 C12 10 13 13 15 16 C16 15 17 15 18 14 C18 16 18 17 18 19 C17 19 17 19 16 19 C16 21 16 23 16 25 C15 24 13 22 12 21 C12 20 12 20 12 19 C11 19 10 19 10 18 C5 17 0 14 -4 11 C-5 10 -7 10 -8 9 C-11 7 -11 7 -12 3 C-11 2 -11 1 -10 0 C-5 -1 -5 -1 0 0 Z " fill="#C2C5D1" transform="translate(149,134)"/>
<path d="M0 0 C1 0 1 0 2 0 C3 3 3 5 3 8 C3 10 3 11 3 12 C3 14 3 15 3 17 C3 18 3 20 3 21 C3 24 3 28 3 31 C3 36 3 40 3 45 C3 48 3 51 3 54 C3 55 3 55 3 59 C3 60 3 61 3 63 C3 63 3 63 3 66 C3 67 3 68 3 69 C3 69 3 69 0 70 C-1 65 -1 60 0 55 C-1 55 -1 55 -2 55 C-2 54 -2 53 -2 52 C-2 50 -2 49 -2 47 C-2 46 -2 44 -2 43 C-2 39 -2 39 -3 34 C-3 29 -3 23 -2 18 C-2 13 -2 9 -3 4 C-2 4 -2 3 -1 3 C-1 2 -0 1 0 0 Z " fill="#BDC0CD" transform="translate(226,310)"/>
<path d="M0 0 C1 0 1 0 6 1 C6 2 6 2 6 3 C8 3 9 4 11 4 C11 5 12 6 12 7 C13 8 15 8 16 9 C20 13 23 17 25 23 C21 23 19 22 16 19 C15 19 14 18 13 17 C9 18 9 18 5 19 C0 18 0 18 -2 16 C-1 11 -1 11 0 9 C0 6 0 3 0 0 Z " fill="#BDC0CD" transform="translate(302,62)"/>
<path d="M0 0 C1 0 2 0 3 0 C2 4 2 4 1 6 C0 6 -1 7 -2 7 C-3 8 -5 10 -6 11 C-9 13 -11 14 -14 16 C-16 17 -18 19 -21 20 C-42 34 -42 34 -50 34 C-50 33 -49 31 -49 30 C-47 30 -45 29 -43 29 C-42 28 -42 26 -41 25 C-36 22 -32 20 -27 18 C-24 16 -22 14 -19 12 C-17 11 -16 10 -14 9 C-13 8 -11 7 -10 6 C-7 4 -4 2 0 1 C0 1 0 0 0 0 Z " fill="#D7D9E3" transform="translate(361,214)"/>
<path d="M0 0 C1 1 2 1 3 2 C3 3 3 3 3 4 C4 5 6 5 7 6 C12 12 15 18 18 26 C18 27 19 29 20 30 C20 30 20 30 20 33 C19 34 17 35 16 36 C16 37 15 38 15 39 C14 39 14 39 11 40 C11 39 11 38 11 37 C11 25 7 16 -1 7 C-3 5 -6 3 -8 1 C-4 -1 -4 -1 0 0 Z " fill="#4951CC" transform="translate(386,302)"/>
<path d="M0 0 C5 7 5 7 6 12 C7 12 7 12 8 12 C13 21 13 21 13 27 C12 31 9 34 6 38 C5 38 5 38 4 38 C-2 27 -0 12 0 0 Z " fill="#5F69E0" transform="translate(263,356)"/>
<path d="M0 0 C1 1 3 1 4 2 C5 1 6 1 7 0 C7 5 7 9 7 14 C6 14 5 13 4 13 C4 12 4 12 4 11 C3 11 3 11 2 11 C2 13 1 14 1 16 C0 20 -1 24 -2 28 C-3 28 -3 28 -4 28 C-4 29 -5 31 -5 32 C-5 33 -6 34 -6 35 C-11 37 -14 37 -19 37 C-19 36 -19 36 -19 35 C-20 35 -20 35 -21 35 C-21 34 -20 33 -20 32 C-19 32 -18 31 -17 31 C-10 28 -7 25 -4 18 C-2 12 -1 7 -1 1 C-1 1 -0 0 0 0 Z " fill="#FBFCFD" transform="translate(332,151)"/>
<path d="M0 0 C0 1 0 1 0 2 C1 2 2 2 3 2 C4 3 4 5 5 6 C-11 11 -25 11 -41 11 C-40 8 -40 8 -39 4 C-34 2 -29 3 -24 4 C-17 5 -11 5 -5 5 C-5 4 -5 4 -6 1 C-4 0 -4 0 0 0 Z " fill="#D7D9E3" transform="translate(285,250)"/>
<path d="M0 0 C0 0 1 0 1 0 C1 2 1 4 1 6 C0 6 0 6 -3 8 C-4 13 -4 17 -2 21 C1 21 3 22 6 22 C6 23 6 23 6 24 C9 24 13 24 16 24 C16 25 16 27 16 28 C15 28 13 29 12 29 C17 29 23 29 28 29 C28 30 28 30 28 31 C24 31 19 31 15 31 C14 31 12 31 11 31 C10 31 9 31 7 31 C6 31 5 31 4 31 C1 31 -2 30 -5 28 C-6 28 -6 28 -7 28 C-9 11 -9 11 -4 4 C-3 4 -3 4 -2 4 C-1 3 -1 1 0 0 Z " fill="#5A63CF" transform="translate(352,316)"/>
<path d="M0 0 C1 0 2 0 3 0 C3 6 3 6 1 8 C-2 12 -2 16 -2 22 C-3 32 -3 32 -4 36 C-7 36 -7 36 -11 36 C-12 35 -13 34 -14 33 C-14 28 -12 24 -10 19 C-9 19 -9 18 -8 18 C-8 17 -8 16 -8 15 C-8 11 -8 11 -5 8 C-4 8 -4 8 -3 8 C-3 7 -2 5 -2 4 C-1 4 -1 4 0 4 C0 3 0 1 0 0 Z " fill="#D7D9E3" transform="translate(290,134)"/>
<path d="M0 0 C3 -0 7 -0 10 -0 C12 -0 14 -0 16 -0 C17 -0 17 -0 21 0 C22 4 22 4 22 8 C16 12 11 13 4 13 C1 10 1 10 0 7 C1 5 1 4 2 2 C1 1 1 1 0 0 Z " fill="#F7F8FC" transform="translate(351,352)"/>
<path d="M0 0 C1 1 1 1 2 2 C5 4 7 5 11 5 C12 5 14 4 15 4 C17 6 17 6 19 9 C18 13 18 13 16 17 C16 20 17 24 17 27 C9 21 2 13 0 3 C0 2 0 1 0 0 Z " fill="#7880D2" transform="translate(263,432)"/>
<path d="M0 0 C5 2 6 4 8 9 C14 22 14 22 22 25 C25 25 27 25 30 25 C30 27 29 28 29 30 C22 31 18 30 12 26 C7 21 4 17 2 10 C1 9 0 8 -1 7 C-1 3 -1 3 0 0 Z " fill="#D7D9E3" transform="translate(235,203)"/>
<path d="M0 0 C1 0 1 0 5 2 C6 2 7 3 8 3 C9 4 10 4 11 5 C10 10 9 11 5 15 C2 17 2 17 -4 17 C-4 19 -4 20 -4 22 C-5 23 -5 23 -6 24 C-0 25 5 26 11 26 C11 26 11 27 11 27 C8 27 6 27 3 27 C2 27 1 27 -1 27 C-5 27 -8 26 -12 24 C-12 23 -13 23 -13 22 C-11 21 -10 21 -8 20 C-6 17 -6 17 -4 13 C-3 11 -2 10 -2 9 C0 5 0 5 0 0 Z " fill="#BDC0CD" transform="translate(260,461)"/>
</svg>
