<?xml version="1.0" encoding="UTF-8"?>
<!-- Generator: visioncortex VTracer 0.6.12 -->
<svg version="1.1" xmlns="http://www.w3.org/2000/svg" width="676" height="608">
<path d="M0 0 C4 -0 7 -1 11 -1 C12 -1 13 -1 14 -1 C16 -1 18 -1 21 -1 C24 -1 27 -1 31 -1 C33 -1 35 -1 37 -1 C38 -1 38 -1 41 -1 C43 -1 43 -1 48 0 C49 1 49 3 50 4 C53 4 53 4 57 4 C61 4 61 4 64 4 C65 5 65 7 66 8 C68 8 69 8 71 8 C73 8 74 8 76 8 C77 9 77 11 78 12 C80 12 82 12 84 12 C85 13 85 15 86 16 C88 16 90 16 92 16 C93 17 93 19 94 20 C96 20 98 20 100 20 C101 21 101 23 102 24 C103 24 103 24 106 26 C106 27 106 27 106 28 C107 28 107 28 110 30 C110 31 110 31 110 32 C111 33 113 33 114 34 C114 35 114 35 114 36 C116 36 119 36 121 36 C121 37 121 38 121 39 C122 43 122 43 126 46 C126 47 126 47 126 48 C127 49 129 49 130 50 C130 51 130 51 130 52 C131 53 133 53 134 54 C134 55 134 55 134 56 C135 56 136 56 137 56 C137 57 137 58 137 59 C138 63 138 63 142 66 C142 67 142 67 142 68 C143 68 144 68 145 68 C145 69 145 70 145 71 C146 73 146 74 146 75 C147 75 148 76 149 76 C149 80 150 83 150 87 C151 87 152 88 153 88 C153 90 154 93 154 95 C155 95 156 96 157 96 C157 100 158 103 158 107 C159 107 160 108 161 108 C161 113 162 118 162 123 C162 124 162 126 162 127 C163 127 164 128 165 128 C165 134 165 140 166 145 C166 149 166 152 166 155 C167 155 168 156 169 156 C169 162 169 168 170 173 C170 177 170 180 170 183 C171 183 172 184 173 184 C173 190 173 196 174 201 C174 205 174 208 174 211 C175 211 176 212 177 212 C177 216 178 220 178 224 C178 225 178 226 178 227 C179 227 180 228 181 228 C181 232 182 235 182 239 C183 239 184 240 185 240 C185 242 186 245 186 247 C187 247 188 248 189 248 C189 249 189 250 189 251 C190 255 190 255 194 258 C194 259 194 259 194 260 C195 260 196 260 197 260 C197 262 198 265 198 267 C199 267 199 267 203 267 C218 267 233 267 249 267 C257 267 264 267 272 267 C280 267 287 267 295 267 C298 267 301 267 304 267 C308 267 312 267 316 267 C317 267 318 267 320 267 C323 267 323 267 328 268 C329 269 329 271 330 272 C332 272 334 272 336 272 C337 273 337 275 338 276 C339 276 340 276 341 276 C341 277 341 277 341 279 C342 281 342 282 342 283 C343 283 344 284 345 284 C345 289 345 289 345 294 C344 294 343 295 342 295 C342 297 342 299 342 300 C341 302 341 304 341 306 C340 306 339 307 338 307 C338 310 338 310 338 314 C337 319 337 319 337 322 C336 322 335 323 334 323 C334 325 334 327 334 328 C333 330 333 332 333 334 C332 334 331 335 330 335 C330 338 330 338 330 342 C329 347 329 347 329 350 C328 350 327 351 326 351 C326 353 326 355 326 356 C325 358 325 360 325 362 C324 362 323 363 322 363 C322 365 322 367 322 368 C321 370 321 372 321 374 C320 374 319 375 318 375 C318 377 318 379 318 380 C317 382 317 384 317 386 C316 386 315 387 314 387 C314 389 314 391 314 392 C313 394 313 396 313 398 C312 398 311 399 310 399 C310 401 310 403 310 404 C309 406 309 408 309 410 C308 410 307 411 306 411 C306 413 306 415 306 416 C305 418 305 420 305 422 C304 422 303 423 302 423 C302 425 302 427 302 428 C301 430 301 432 301 434 C300 434 299 435 298 435 C298 437 298 439 298 440 C297 442 297 444 297 446 C296 446 295 447 294 447 C294 449 294 451 294 452 C293 454 293 456 293 458 C292 458 291 459 290 459 C290 461 290 463 290 464 C289 466 289 468 289 470 C288 470 287 471 286 471 C286 473 286 475 286 476 C285 478 285 480 285 482 C284 482 283 483 282 483 C282 485 282 487 282 488 C281 490 281 492 281 494 C280 494 279 495 278 495 C277 499 277 499 277 502 C276 502 275 502 274 502 C273 503 273 505 272 506 C272 506 272 506 270 507 C270 510 270 510 270 513 C270 514 270 514 270 519 C272 519 273 519 275 519 C277 519 278 520 280 520 C281 521 281 523 282 524 C286 524 286 524 289 524 C289 527 289 531 289 534 C288 534 287 534 286 534 C285 535 285 537 284 538 C280 538 277 538 273 538 C273 538 273 538 270 538 C269 539 269 541 268 542 C263 542 259 542 254 542 C251 542 249 542 246 542 C245 543 245 545 244 546 C241 546 241 546 237 546 C236 546 235 546 233 546 C230 546 228 546 225 546 C223 546 222 546 221 546 C220 546 220 546 217 546 C216 546 215 546 214 546 C213 547 213 549 212 550 C208 550 204 550 199 550 C199 550 199 550 195 550 C190 550 184 550 179 550 C175 550 171 550 167 550 C166 550 164 550 163 550 C160 550 157 550 154 550 C153 551 153 553 152 554 C147 554 143 554 138 554 C138 554 138 554 134 554 C128 554 122 554 117 554 C112 554 108 554 104 554 C102 554 101 554 100 554 C96 554 93 554 90 554 C89 555 89 557 88 558 C83 558 79 559 74 559 C73 559 71 559 70 559 C65 559 60 559 56 559 C52 559 49 559 46 559 C39 559 32 559 25 559 C16 558 7 559 -2 559 C-9 559 -16 559 -23 559 C-26 559 -29 559 -32 559 C-37 559 -42 559 -46 559 C-47 559 -47 559 -50 559 C-54 559 -57 558 -60 558 C-61 557 -61 555 -62 554 C-66 554 -66 554 -71 554 C-73 554 -75 554 -77 554 C-78 554 -79 554 -80 554 C-83 554 -86 554 -89 554 C-96 554 -102 554 -109 554 C-117 554 -124 554 -132 554 C-135 554 -138 554 -141 554 C-143 554 -145 554 -147 554 C-149 554 -150 554 -152 554 C-153 554 -155 554 -156 554 C-157 553 -157 551 -158 550 C-161 550 -161 550 -166 550 C-167 550 -169 550 -170 550 C-172 550 -173 550 -175 550 C-178 550 -181 550 -184 550 C-186 550 -187 550 -189 550 C-190 550 -191 550 -192 550 C-193 549 -193 547 -194 546 C-198 546 -203 546 -207 546 C-211 546 -216 546 -220 546 C-221 545 -221 543 -222 542 C-226 542 -231 542 -235 542 C-239 542 -244 542 -248 542 C-249 541 -249 539 -250 538 C-253 538 -253 538 -257 538 C-261 538 -261 538 -264 538 C-265 537 -265 535 -266 534 C-270 534 -270 534 -273 534 C-273 531 -273 527 -273 524 C-272 524 -271 524 -270 524 C-268 524 -267 524 -266 524 C-265 523 -265 521 -264 520 C-260 520 -257 520 -253 520 C-253 520 -253 520 -250 520 C-249 519 -249 517 -248 516 C-244 516 -241 516 -237 516 C-237 516 -237 516 -234 516 C-233 515 -233 513 -232 512 C-229 511 -229 511 -226 511 C-226 507 -226 507 -226 503 C-227 503 -228 502 -229 502 C-229 501 -229 500 -229 499 C-229 497 -230 496 -230 495 C-234 494 -234 494 -237 493 C-237 493 -237 493 -238 490 C-239 489 -241 489 -242 488 C-242 487 -242 487 -242 486 C-246 486 -249 487 -253 487 C-254 488 -254 489 -255 490 C-256 490 -257 489 -258 489 C-258 488 -259 488 -259 487 C-262 487 -266 487 -269 487 C-270 486 -271 486 -272 486 C-273 485 -273 483 -274 482 C-275 481 -277 481 -278 480 C-278 479 -278 479 -278 478 C-279 478 -280 478 -281 478 C-281 473 -281 469 -281 464 C-280 464 -279 464 -278 464 C-278 463 -278 463 -276 460 C-275 460 -275 460 -274 460 C-274 459 -274 459 -272 456 C-271 456 -270 456 -269 456 C-268 455 -267 455 -266 455 C-265 452 -265 452 -265 447 C-265 446 -265 445 -265 443 C-265 442 -265 441 -265 440 C-264 440 -263 440 -262 440 C-262 439 -262 439 -260 436 C-258 436 -256 436 -254 436 C-254 435 -254 435 -252 432 C-250 432 -248 432 -246 432 C-245 431 -245 429 -244 428 C-243 428 -243 428 -242 428 C-241 427 -241 425 -240 424 C-238 424 -236 424 -234 424 C-233 423 -233 421 -232 420 C-231 420 -231 419 -230 419 C-230 415 -230 411 -230 407 C-230 404 -230 402 -230 399 C-230 395 -230 391 -230 388 C-230 384 -229 380 -229 376 C-229 375 -229 374 -229 372 C-229 370 -229 367 -229 364 C-228 364 -227 363 -226 363 C-226 360 -226 360 -226 356 C-225 351 -225 351 -225 348 C-224 348 -223 347 -222 347 C-222 345 -222 343 -222 342 C-221 340 -221 338 -221 336 C-220 336 -219 335 -218 335 C-218 334 -218 333 -218 332 C-217 330 -217 329 -217 328 C-216 328 -215 327 -214 327 C-214 326 -214 325 -214 324 C-213 322 -213 321 -213 320 C-212 320 -211 319 -210 319 C-210 318 -210 317 -210 316 C-209 314 -209 313 -209 312 C-208 312 -207 311 -206 311 C-205 307 -205 307 -205 304 C-204 304 -203 304 -202 304 C-201 303 -201 301 -200 300 C-199 300 -199 299 -198 299 C-198 297 -197 294 -197 292 C-196 292 -195 292 -194 292 C-193 291 -193 289 -192 288 C-191 288 -191 288 -190 288 C-189 287 -189 285 -188 284 C-187 284 -187 283 -186 283 C-186 281 -185 278 -185 276 C-184 276 -183 276 -182 276 C-181 275 -181 273 -180 272 C-179 272 -179 272 -178 272 C-177 271 -177 269 -176 268 C-175 268 -175 268 -174 268 C-173 267 -173 265 -172 264 C-171 264 -171 264 -170 264 C-169 263 -169 261 -168 260 C-167 260 -166 260 -165 260 C-164 259 -163 259 -162 259 C-161 256 -161 256 -161 252 C-160 252 -159 251 -158 251 C-158 250 -158 249 -158 248 C-157 246 -157 245 -157 244 C-156 244 -155 243 -154 243 C-154 242 -154 241 -154 240 C-153 238 -153 237 -153 236 C-152 236 -151 235 -150 235 C-150 234 -150 233 -150 232 C-149 230 -149 229 -149 228 C-148 228 -147 227 -146 227 C-146 226 -146 225 -146 224 C-145 222 -145 221 -145 220 C-144 220 -143 219 -142 219 C-142 217 -142 215 -142 214 C-141 212 -141 210 -141 208 C-140 208 -139 207 -138 207 C-138 205 -138 203 -138 202 C-137 200 -137 198 -137 196 C-136 196 -135 195 -134 195 C-134 191 -134 191 -134 186 C-133 180 -133 180 -133 176 C-132 176 -131 175 -130 175 C-130 171 -130 171 -130 166 C-129 160 -129 160 -129 156 C-128 156 -127 155 -126 155 C-126 151 -126 151 -126 146 C-125 140 -125 140 -125 136 C-124 136 -123 135 -122 135 C-122 133 -122 131 -122 130 C-121 128 -121 126 -121 124 C-120 124 -119 123 -118 123 C-118 120 -118 120 -118 116 C-117 111 -117 111 -117 108 C-116 108 -115 107 -114 107 C-114 106 -114 105 -114 104 C-113 102 -113 101 -113 100 C-112 100 -111 99 -110 99 C-110 97 -110 95 -110 94 C-109 92 -109 90 -109 88 C-108 88 -107 87 -106 87 C-106 86 -106 85 -106 84 C-105 82 -105 81 -105 80 C-104 80 -103 79 -102 79 C-101 75 -101 75 -101 72 C-100 72 -99 72 -98 72 C-98 71 -98 71 -96 68 C-95 68 -95 67 -94 67 C-94 65 -93 62 -93 60 C-92 60 -91 60 -90 60 C-89 59 -89 57 -88 56 C-87 56 -87 56 -86 56 C-85 55 -85 53 -84 52 C-83 52 -83 51 -82 51 C-82 49 -81 46 -81 44 C-80 44 -79 44 -78 44 C-77 43 -77 41 -76 40 C-75 40 -75 40 -74 40 C-73 39 -73 37 -72 36 C-71 36 -71 36 -70 36 C-69 35 -69 33 -68 32 C-66 32 -64 32 -62 32 C-61 31 -61 29 -60 28 C-59 28 -59 28 -58 28 C-57 27 -57 25 -56 24 C-55 24 -55 24 -54 24 C-53 23 -53 21 -52 20 C-50 20 -48 20 -46 20 C-45 19 -45 17 -44 16 C-42 16 -40 16 -38 16 C-37 15 -37 13 -36 12 C-34 12 -32 12 -30 12 C-29 11 -29 9 -28 8 C-26 8 -24 8 -22 8 C-21 7 -21 5 -20 4 C-15 4 -11 4 -6 4 C-5 4 -3 4 -2 4 C-1 3 -1 1 0 0 Z " fill="#0C0D11" transform="translate(306,25)"/>
<path d="M0 0 C1 0 1 0 4 0 C35 2 61 19 82 42 C86 47 89 52 92 57 C93 58 93 60 94 61 C104 78 109 95 113 114 C113 115 114 116 114 118 C116 128 117 138 118 148 C127 229 127 229 145 250 C145 251 146 252 146 253 C145 254 145 255 144 256 C139 257 135 257 130 257 C128 257 127 257 126 257 C121 257 116 257 111 257 C108 257 105 257 101 258 C79 258 57 259 35 259 C25 259 15 259 5 260 C-3 260 -11 260 -19 260 C-20 260 -21 260 -22 260 C-26 260 -30 260 -34 261 C-62 261 -62 261 -73 269 C-77 274 -80 278 -83 285 C-83 286 -83 288 -84 289 C-86 296 -88 302 -90 309 C-90 310 -90 310 -91 313 C-92 319 -94 324 -96 330 C-97 335 -98 340 -100 345 C-104 359 -108 373 -111 386 C-112 389 -112 389 -113 390 C-115 390 -116 390 -118 390 C-120 387 -122 384 -124 380 C-125 379 -125 379 -127 376 C-129 369 -130 364 -130 358 C-130 354 -130 354 -132 352 C-134 352 -135 352 -137 352 C-139 354 -139 354 -139 358 C-140 363 -140 363 -144 367 C-147 369 -147 369 -149 369 C-147 373 -147 373 -142 376 C-135 379 -132 384 -128 391 C-126 394 -126 394 -124 397 C-120 402 -118 405 -118 412 C-119 416 -119 416 -120 419 C-123 426 -124 432 -126 439 C-127 443 -127 443 -130 448 C-132 449 -133 449 -135 449 C-138 447 -140 445 -143 442 C-144 442 -146 442 -147 442 C-147 447 -146 451 -144 455 C-144 460 -143 462 -146 466 C-150 469 -153 469 -158 469 C-161 468 -161 468 -165 466 C-166 466 -167 465 -168 465 C-174 461 -179 456 -184 450 C-186 448 -188 447 -192 447 C-192 449 -192 450 -193 452 C-193 454 -194 455 -194 457 C-197 459 -197 459 -201 458 C-214 453 -223 443 -229 430 C-233 420 -236 411 -237 401 C-237 397 -238 394 -239 390 C-240 390 -241 390 -242 390 C-244 394 -243 397 -243 401 C-243 402 -242 403 -242 404 C-240 409 -240 416 -242 421 C-243 421 -244 421 -245 420 C-246 417 -248 413 -249 410 C-249 409 -249 409 -250 404 C-251 403 -251 403 -252 399 C-252 398 -253 397 -253 396 C-255 391 -254 386 -254 381 C-254 380 -254 379 -254 378 C-254 359 -254 359 -251 351 C-251 350 -251 348 -250 346 C-245 314 -220 272 -194 253 C-191 252 -191 252 -188 252 C-186 251 -185 251 -183 250 C-182 245 -182 245 -182 241 C-182 237 -181 235 -178 231 C-166 209 -160 184 -155 160 C-149 128 -143 95 -126 67 C-125 66 -124 64 -123 63 C-106 34 -81 12 -48 4 C-43 2 -37 1 -32 0 C-22 -2 -11 -1 0 0 Z " fill="#C8CBD3" transform="translate(343.0625,38.8125)"/>
<path d="M0 0 C1 0 2 0 3 0 C6 0 9 0 12 0 C13 0 13 0 18 0 C23 1 25 2 29 6 C31 11 30 17 29 22 C28 22 28 22 27 26 C25 32 23 37 22 43 C21 45 21 47 20 49 C20 50 19 51 19 52 C18 55 18 55 16 59 C16 60 15 62 15 63 C14 68 13 72 11 76 C9 81 8 86 6 91 C5 94 4 98 3 101 C2 102 2 104 1 105 C1 107 0 108 0 109 C-1 108 -2 107 -3 106 C-11 101 -19 103 -28 105 C-30 107 -30 107 -31 110 C-34 116 -38 120 -42 125 C-43 125 -43 125 -44 125 C-44 126 -45 127 -45 128 C-46 129 -47 130 -48 130 C-50 133 -50 133 -51 138 C-51 139 -51 140 -50 141 C-50 145 -50 145 -52 148 C-57 155 -63 158 -72 160 C-85 160 -91 157 -101 149 C-102 149 -103 148 -104 148 C-104 147 -104 147 -104 146 C-108 147 -109 150 -112 153 C-113 154 -113 155 -114 156 C-115 158 -116 159 -117 160 C-121 165 -125 170 -130 174 C-131 175 -131 176 -132 177 C-134 179 -134 179 -139 182 C-140 182 -140 182 -141 182 C-141 183 -142 184 -142 185 C-148 188 -153 191 -160 192 C-162 192 -165 192 -167 193 C-187 197 -187 197 -195 194 C-195 193 -195 193 -195 192 C-195 192 -195 192 -197 193 C-203 194 -207 192 -212 190 C-217 187 -220 183 -224 179 C-225 178 -226 177 -227 176 C-227 175 -228 174 -229 174 C-229 173 -229 173 -231 172 C-238 175 -242 180 -246 186 C-255 196 -265 202 -277 206 C-278 207 -279 207 -280 207 C-293 212 -306 212 -320 212 C-321 212 -321 212 -324 212 C-325 212 -327 212 -328 212 C-329 212 -331 212 -332 212 C-338 212 -342 207 -347 202 C-350 199 -353 196 -356 193 C-360 190 -363 187 -366 183 C-367 182 -367 182 -371 182 C-371 182 -371 182 -374 182 C-374 183 -374 184 -374 185 C-375 185 -377 185 -378 185 C-379 188 -379 188 -380 192 C-380 192 -380 192 -382 195 C-384 199 -384 204 -384 209 C-385 211 -385 214 -386 216 C-386 218 -386 219 -386 221 C-387 229 -387 229 -389 233 C-391 233 -392 233 -394 233 C-397 226 -394 218 -392 212 C-391 211 -391 210 -391 209 C-389 202 -386 196 -384 189 C-380 177 -377 166 -374 154 C-374 154 -373 153 -373 153 C-372 150 -372 147 -372 144 C-371 139 -369 135 -368 131 C-364 117 -359 102 -356 88 C-355 85 -354 81 -353 78 C-353 76 -353 75 -352 73 C-351 69 -351 69 -349 66 C-348 64 -348 61 -347 59 C-345 49 -342 39 -339 29 C-339 28 -339 28 -338 25 C-336 19 -334 14 -329 9 C-319 5 -309 5 -299 5 C-295 5 -292 5 -288 5 C-287 5 -287 5 -284 5 C-279 5 -275 5 -270 4 C-261 4 -252 4 -243 4 C-225 4 -208 4 -190 3 C-189 3 -188 3 -186 3 C-180 3 -173 3 -167 3 C-126 2 -85 1 -43 1 C-43 1 -43 1 -39 1 C-37 1 -35 1 -32 1 C-21 1 -11 -0 0 0 Z " fill="#4D5667" transform="translate(608,304)"/>
<path d="M0 0 C1 0 1 0 4 2 C9 3 9 3 15 3 C25 8 33 13 39 23 C40 24 41 24 42 25 C43 28 43 28 45 31 C45 32 46 33 46 34 C55 52 56 67 55 87 C55 89 55 90 55 92 C55 101 55 101 50 106 C48 106 47 106 45 106 C43 108 43 108 43 112 C42 117 42 117 39 121 C35 123 35 123 33 123 C35 127 35 127 40 129 C47 133 50 138 54 145 C56 148 56 148 58 151 C62 156 64 159 64 165 C63 170 63 170 62 173 C59 179 58 186 56 192 C55 197 55 197 52 202 C50 202 49 203 47 203 C44 201 42 198 39 196 C38 196 36 196 35 196 C35 201 36 205 38 209 C39 214 39 216 36 220 C32 223 29 223 24 223 C21 222 21 222 17 220 C16 220 15 219 14 219 C8 215 3 210 -2 204 C-4 202 -6 201 -10 201 C-10 203 -10 204 -11 206 C-11 208 -12 209 -12 211 C-15 212 -15 212 -19 212 C-32 207 -41 197 -47 184 C-51 174 -54 165 -55 155 C-55 151 -56 148 -57 144 C-58 144 -59 144 -60 144 C-62 148 -61 151 -61 155 C-61 156 -60 157 -60 158 C-58 163 -58 170 -60 175 C-61 175 -62 174 -63 174 C-64 171 -65 167 -67 164 C-67 163 -67 163 -68 158 C-69 157 -69 157 -70 153 C-70 152 -71 151 -71 150 C-72 145 -72 140 -72 135 C-72 134 -72 133 -72 132 C-72 113 -72 113 -69 105 C-69 103 -69 102 -68 100 C-63 68 -38 26 -12 7 C-9 6 -9 6 -6 5 C-4 5 -3 4 -1 4 C-1 3 -0 1 0 0 Z " fill="#8E92A1" transform="translate(161,285)"/>
<path d="M0 0 C1 1 2 2 3 3 C3 10 1 16 -1 22 C-2 24 -2 26 -3 28 C-3 29 -4 30 -4 31 C-6 37 -8 42 -9 48 C-12 58 -15 67 -18 77 C-18 78 -18 78 -19 80 C-20 83 -21 86 -22 90 C-22 91 -23 92 -23 93 C-26 102 -30 110 -39 115 C-44 116 -49 117 -54 117 C-55 117 -55 117 -58 117 C-62 118 -66 118 -70 118 C-71 118 -73 118 -74 118 C-86 119 -97 119 -108 119 C-112 119 -115 119 -119 119 C-120 119 -122 119 -123 119 C-127 119 -127 119 -132 120 C-134 120 -136 120 -139 120 C-139 120 -139 120 -142 120 C-144 120 -145 120 -146 120 C-149 120 -151 120 -154 120 C-155 120 -156 120 -157 120 C-160 120 -160 120 -164 121 C-169 121 -173 122 -178 122 C-178 122 -178 122 -182 122 C-185 123 -187 123 -190 123 C-193 123 -196 123 -199 123 C-220 125 -240 125 -261 124 C-261 125 -261 125 -261 126 C-267 127 -273 127 -279 127 C-281 127 -283 127 -285 127 C-286 127 -287 127 -288 128 C-293 128 -298 128 -303 128 C-304 128 -305 128 -307 128 C-314 128 -322 128 -330 129 C-340 129 -349 129 -359 129 C-364 129 -369 129 -374 130 C-376 130 -379 130 -381 130 C-382 130 -383 130 -384 130 C-385 130 -385 130 -387 130 C-386 130 -386 129 -385 129 C-385 127 -384 124 -384 122 C-384 120 -383 117 -383 115 C-383 114 -383 112 -383 111 C-382 108 -382 108 -381 105 C-381 103 -381 102 -381 100 C-380 93 -378 87 -374 81 C-373 81 -371 81 -370 81 C-370 80 -370 79 -370 78 C-367 77 -367 77 -363 77 C-359 80 -356 84 -353 88 C-350 91 -347 94 -343 97 C-342 98 -340 100 -339 101 C-334 106 -331 107 -324 107 C-323 107 -322 107 -320 107 C-320 107 -320 107 -316 107 C-315 107 -314 107 -312 107 C-298 107 -285 106 -272 101 C-271 100 -271 100 -269 100 C-255 94 -246 86 -237 74 C-233 70 -233 70 -229 67 C-225 69 -223 71 -220 74 C-219 75 -219 75 -217 77 C-215 79 -215 79 -215 81 C-213 82 -212 82 -210 83 C-209 84 -207 85 -206 86 C-197 89 -197 89 -191 88 C-191 89 -191 89 -191 90 C-174 91 -152 90 -138 80 C-137 79 -137 79 -134 76 C-133 75 -132 75 -131 74 C-121 67 -113 56 -106 46 C-105 44 -104 43 -103 42 C-102 42 -101 42 -100 42 C-100 43 -100 43 -100 44 C-99 44 -97 45 -96 45 C-94 46 -93 47 -91 48 C-91 49 -91 49 -88 50 C-88 51 -88 51 -86 52 C-80 56 -70 55 -63 54 C-57 52 -52 49 -48 43 C-47 40 -47 38 -48 34 C-48 31 -48 31 -46 27 C-43 24 -43 24 -41 22 C-34 17 -29 10 -26 2 C-21 -3 -7 -3 0 0 Z " fill="#454D5D" transform="translate(604.0625,407.9375)"/>
<path d="M0 0 C13 0 25 4 36 11 C36 13 37 14 37 16 C35 18 35 18 32 21 C31 22 30 23 28 24 C24 28 20 30 14 32 C10 34 6 36 2 39 C1 40 -0 40 -1 41 C-5 44 -8 48 -11 53 C-13 54 -13 54 -17 54 C-26 56 -30 60 -35 67 C-36 70 -36 73 -36 76 C-36 77 -36 78 -36 80 C-36 83 -36 83 -35 88 C-34 88 -34 88 -31 89 C-23 94 -15 100 -11 109 C-10 113 -8 114 -4 116 C3 116 9 114 15 111 C15 109 16 108 16 106 C14 104 13 101 11 99 C11 92 12 90 16 85 C18 83 18 83 20 80 C24 74 29 72 36 70 C41 68 41 68 43 64 C43 63 43 63 44 59 C48 55 53 53 59 51 C62 50 64 48 67 46 C68 46 70 45 71 45 C73 49 75 52 76 56 C77 57 77 58 78 59 C81 67 81 67 81 69 C82 69 82 69 83 69 C84 72 84 72 85 76 C87 83 87 83 88 85 C88 89 88 89 88 93 C87 94 86 95 85 96 C84 95 83 94 82 93 C75 87 68 86 59 87 C55 89 55 89 53 91 C52 91 52 91 51 91 C51 92 51 92 49 95 C47 97 46 99 44 100 C40 105 37 108 36 114 C37 115 38 116 39 117 C38 119 38 122 37 124 C34 133 34 142 37 151 C37 152 36 154 36 155 C32 151 32 151 29 147 C23 141 18 139 10 138 C1 139 -6 142 -13 149 C-15 151 -16 154 -18 156 C-22 161 -22 161 -26 162 C-26 161 -26 159 -26 158 C-27 158 -27 158 -30 156 C-30 153 -30 153 -30 149 C-30 148 -30 146 -30 145 C-30 140 -30 134 -29 129 C-28 129 -27 129 -26 129 C-29 114 -32 98 -46 89 C-54 85 -61 83 -71 83 C-76 85 -76 85 -81 87 C-82 88 -83 88 -85 89 C-85 89 -86 90 -87 90 C-88 89 -88 87 -89 86 C-100 83 -107 82 -118 85 C-121 86 -124 86 -127 87 C-133 88 -137 90 -142 92 C-143 92 -144 92 -145 92 C-147 83 -142 75 -138 67 C-137 65 -137 64 -136 62 C-133 61 -133 61 -129 60 C-123 59 -118 57 -113 54 C-107 52 -103 51 -97 51 C-96 51 -96 51 -92 50 C-92 49 -91 48 -91 47 C-90 47 -89 46 -88 46 C-88 46 -88 46 -86 47 C-80 47 -80 47 -78 46 C-76 46 -74 46 -72 46 C-70 46 -69 46 -68 46 C-65 46 -62 46 -59 46 C-59 46 -59 46 -56 45 C-54 45 -53 45 -52 45 C-49 45 -49 45 -46 42 C-45 42 -45 42 -44 42 C-44 41 -43 40 -43 39 C-40 38 -40 38 -37 39 C-36 39 -34 38 -33 38 C-33 33 -33 27 -33 22 C-33 16 -32 15 -28 11 C-26 10 -26 10 -22 10 C-14 9 -6 6 0 0 Z " fill="#C0C4CF" transform="translate(357,50)"/>
<path d="M0 0 C2 0 2 0 4 2 C8 6 10 9 10 14 C11 15 11 17 11 18 C12 18 13 19 14 19 C15 20 16 21 17 22 C19 23 21 24 23 26 C25 26 26 27 27 27 C34 31 41 31 49 28 C54 26 57 24 61 20 C66 19 66 19 69 19 C78 19 85 13 92 8 C97 6 98 6 103 7 C104 8 106 8 107 9 C107 10 107 10 108 14 C106 15 105 15 103 16 C105 20 105 20 110 22 C117 26 120 31 124 38 C126 41 126 41 128 44 C132 49 134 52 134 58 C133 63 133 63 132 66 C129 72 128 79 126 85 C125 90 125 90 122 95 C120 95 119 96 117 96 C114 94 112 91 109 89 C108 89 106 89 105 89 C105 94 106 98 108 102 C109 107 109 109 106 113 C102 116 99 116 94 116 C91 115 91 115 87 113 C86 113 85 112 84 112 C78 108 73 103 68 97 C66 95 64 94 60 94 C60 96 60 97 59 99 C59 101 58 102 58 104 C55 105 55 105 51 105 C38 100 29 90 23 77 C19 67 16 58 15 48 C15 44 14 41 13 37 C12 37 11 37 10 37 C8 41 9 44 9 48 C9 48 9 48 10 51 C12 56 12 63 10 68 C9 68 8 67 7 67 C6 64 5 60 3 57 C3 55 2 53 2 51 C1 49 1 48 0 46 C-0 46 -0 46 -1 43 C-2 38 -2 33 -2 28 C-2 27 -2 26 -2 25 C-2 6 -2 6 0 0 Z " fill="#6C7286" transform="translate(91,392)"/>
<path d="M0 0 C2 0 3 1 5 1 C8 6 8 8 8 13 C8 14 8 14 8 18 C12 20 12 20 18 21 C21 23 24 25 27 27 C30 29 30 29 33 29 C37 28 37 28 41 24 C45 23 45 23 48 24 C48 25 48 25 49 29 C47 31 47 31 45 33 C40 38 39 40 39 46 C40 49 40 52 40 55 C40 57 40 58 40 60 C40 62 40 63 40 65 C40 66 40 68 40 69 C40 70 40 70 41 73 C44 74 44 74 48 75 C51 77 51 77 52 80 C52 81 52 81 50 84 C46 85 43 85 39 85 C34 86 32 89 29 93 C25 98 21 102 15 106 C13 108 13 108 13 112 C13 115 13 115 14 119 C14 120 14 121 14 122 C11 124 11 124 8 124 C5 123 5 123 3 119 C2 118 1 117 0 116 C-5 116 -5 116 -10 117 C-15 117 -19 117 -24 116 C-27 116 -27 116 -32 119 C-34 121 -35 123 -37 125 C-41 127 -41 127 -45 127 C-47 121 -45 118 -43 113 C-43 110 -43 110 -44 107 C-45 106 -46 106 -46 105 C-51 102 -52 97 -54 92 C-56 89 -56 89 -59 88 C-61 88 -62 88 -63 88 C-72 87 -72 87 -73 86 C-73 83 -73 83 -72 79 C-69 77 -69 77 -65 76 C-58 73 -58 73 -56 69 C-56 66 -55 63 -55 61 C-54 56 -51 52 -48 48 C-47 45 -47 45 -47 39 C-48 38 -49 37 -50 36 C-52 33 -52 33 -52 29 C-51 26 -51 26 -49 24 C-45 24 -43 25 -40 27 C-38 29 -38 29 -35 29 C-32 28 -30 27 -27 25 C-22 22 -17 21 -12 20 C-7 17 -7 17 -5 13 C-5 12 -5 12 -4 8 C-3 3 -3 3 0 0 Z " fill="#D7D8EC" transform="translate(446,360)"/>
<path d="M0 0 C1 0 2 1 2 1 C12 6 21 10 31 13 C34 14 37 15 41 16 C42 16 44 17 45 17 C53 20 61 23 69 26 C75 28 81 30 88 32 C92 33 96 35 100 36 C114 41 126 44 141 44 C143 44 146 43 148 43 C148 43 148 43 151 43 C158 43 164 43 170 42 C173 42 175 42 178 42 C182 42 186 42 189 42 C193 42 197 42 201 42 C202 41 203 41 205 41 C209 41 214 41 218 41 C225 40 232 40 239 39 C240 39 242 39 243 39 C250 39 256 39 262 38 C267 38 272 38 276 38 C278 38 279 38 281 38 C288 37 294 37 301 36 C304 36 308 36 311 36 C313 35 315 35 317 35 C318 35 318 35 322 35 C333 35 344 34 355 33 C361 33 367 32 372 32 C374 32 376 32 377 32 C389 31 401 31 412 30 C425 30 438 30 451 29 C452 29 453 29 455 29 C481 27 481 27 489 20 C492 15 492 15 493 11 C494 12 494 12 495 13 C497 13 498 13 500 13 C502 14 503 14 505 14 C506 15 506 17 507 18 C511 18 511 18 514 18 C514 21 514 25 514 28 C513 28 512 28 511 28 C510 29 510 31 509 32 C505 32 502 32 498 32 C498 32 498 32 495 32 C494 33 494 35 493 36 C488 36 484 36 479 36 C476 36 474 36 471 36 C470 37 470 39 469 40 C466 40 466 40 462 40 C461 40 460 40 458 40 C455 40 453 40 450 40 C448 40 447 40 446 40 C444 40 443 40 442 40 C441 40 440 40 439 40 C438 41 438 43 437 44 C433 44 429 44 424 44 C424 44 424 44 420 44 C415 44 409 44 404 44 C400 44 396 44 392 44 C391 44 391 44 388 44 C385 44 382 44 379 44 C378 45 378 47 377 48 C372 48 368 48 363 48 C362 48 361 48 359 48 C353 48 347 48 342 48 C337 48 333 48 329 48 C327 48 326 48 325 48 C321 48 318 48 315 48 C314 49 314 51 313 52 C308 52 304 53 299 53 C298 53 296 53 295 53 C290 53 285 53 280 53 C277 53 274 53 271 53 C264 53 257 53 250 53 C241 52 232 53 223 53 C216 53 209 53 202 53 C199 53 196 53 193 53 C188 53 183 53 179 53 C178 53 178 53 175 53 C171 53 168 52 165 52 C165 51 165 51 163 48 C159 48 159 48 154 48 C152 48 150 48 148 48 C147 48 146 48 145 48 C142 48 139 48 136 48 C129 48 123 48 116 48 C108 48 101 48 93 48 C90 48 87 48 84 48 C82 48 80 48 78 48 C77 48 77 48 73 48 C72 48 70 48 69 48 C69 47 69 47 67 44 C64 44 64 44 59 44 C58 44 56 44 55 44 C53 44 52 44 50 44 C47 44 44 44 41 44 C39 44 38 44 36 44 C35 44 34 44 33 44 C33 43 33 43 31 40 C27 40 22 40 18 40 C14 40 9 40 5 40 C4 39 4 37 3 36 C-1 36 -6 36 -10 36 C-14 36 -19 36 -23 36 C-24 35 -24 33 -25 32 C-28 32 -28 32 -32 32 C-36 32 -36 32 -39 32 C-40 31 -40 29 -41 28 C-45 28 -45 28 -48 28 C-48 25 -48 21 -48 18 C-47 18 -46 18 -45 18 C-44 18 -44 18 -41 18 C-40 17 -40 15 -39 14 C-35 14 -32 14 -28 14 C-27 14 -26 14 -25 14 C-24 13 -24 11 -23 10 C-19 10 -16 10 -12 10 C-12 10 -12 10 -9 10 C-8 9 -8 7 -7 6 C-6 6 -6 6 -4 6 C-3 5 -2 5 -1 5 C-1 3 -0 2 0 0 Z " fill="#EAEBEE" transform="translate(81,531)"/>
<path d="M0 0 C0 1 0 1 0 2 C1 2 3 2 4 2 C15 4 24 9 33 14 C34 15 35 16 36 16 C44 22 51 27 54 37 C56 45 56 53 56 61 C56 63 56 65 57 67 C58 81 56 93 47 104 C47 105 47 105 44 108 C26 130 26 130 17 136 C16 136 16 136 15 136 C15 137 14 138 14 139 C8 142 3 145 -4 146 C-6 146 -9 146 -11 147 C-31 151 -31 151 -39 148 C-39 147 -39 147 -39 146 C-40 146 -41 147 -41 147 C-47 148 -51 146 -56 144 C-59 142 -61 140 -63 138 C-65 136 -67 134 -68 133 C-75 126 -80 119 -84 111 C-85 110 -85 109 -86 108 C-90 101 -91 97 -90 89 C-89 88 -88 87 -87 86 C-87 83 -86 79 -86 76 C-83 64 -78 52 -73 41 C-72 40 -72 39 -71 38 C-68 30 -62 23 -54 20 C-53 20 -52 19 -51 19 C-50 18 -49 18 -48 17 C-45 16 -45 16 -41 16 C-41 15 -41 15 -41 14 C-37 12 -34 10 -30 9 C-29 8 -28 8 -26 7 C-18 3 -10 0 0 0 Z M-6 10 C-10 14 -10 17 -11 22 C-12 25 -12 25 -16 29 C-21 31 -21 31 -25 32 C-29 33 -33 35 -37 38 C-40 39 -40 39 -45 38 C-45 38 -45 38 -48 36 C-51 34 -51 34 -56 35 C-58 38 -58 38 -58 43 C-58 43 -58 43 -56 46 C-53 49 -53 49 -53 55 C-54 58 -54 58 -56 60 C-59 65 -61 69 -62 75 C-63 80 -63 81 -67 84 C-71 86 -71 86 -75 87 C-78 89 -78 89 -79 93 C-79 94 -79 95 -79 96 C-75 98 -73 98 -68 98 C-64 98 -64 98 -61 101 C-59 104 -58 107 -57 110 C-55 113 -53 115 -50 117 C-48 122 -50 126 -52 131 C-52 134 -52 134 -51 137 C-46 137 -43 135 -39 131 C-38 130 -37 128 -36 127 C-32 126 -30 126 -26 127 C-21 127 -16 127 -11 126 C-9 126 -8 126 -6 126 C-3 129 -3 129 -1 133 C2 134 2 134 5 134 C6 133 7 133 8 132 C8 129 8 129 7 125 C6 119 6 119 9 115 C12 113 15 111 18 109 C21 106 24 102 26 99 C30 95 32 95 37 95 C41 95 41 95 44 94 C44 93 44 93 46 90 C45 87 45 87 42 85 C41 85 40 85 38 84 C37 84 36 83 35 83 C34 79 34 79 34 75 C34 73 34 72 34 70 C34 68 34 67 34 65 C34 64 34 62 34 61 C33 51 33 51 36 46 C39 43 39 43 41 41 C41 41 41 41 43 39 C43 38 43 38 42 34 C39 33 39 33 35 34 C34 35 33 36 32 37 C29 39 29 39 26 39 C21 38 18 35 14 32 C5 28 5 28 2 28 C2 26 2 25 2 23 C2 15 2 15 -1 11 C-3 11 -4 10 -6 10 Z " fill="#5A66E3" transform="translate(452,350)"/>
<path d="M0 0 C7 5 11 12 13 21 C14 34 12 44 4 55 C-1 60 -8 62 -15 63 C-19 62 -22 61 -25 60 C-25 61 -25 63 -25 65 C-25 70 -26 72 -27 77 C-31 80 -31 80 -36 81 C-40 83 -40 83 -43 86 C-43 88 -44 89 -44 91 C-51 105 -51 105 -58 109 C-63 110 -66 109 -71 108 C-76 104 -79 99 -82 94 C-82 93 -82 92 -82 92 C-83 92 -84 92 -84 92 C-87 88 -89 85 -91 81 C-93 76 -93 76 -96 72 C-98 70 -98 70 -98 65 C-97 57 -91 51 -85 46 C-84 44 -84 43 -83 42 C-77 36 -69 33 -61 32 C-53 33 -47 35 -41 40 C-38 44 -38 44 -36 49 C-36 49 -35 49 -34 49 C-35 47 -35 46 -35 45 C-38 34 -37 22 -32 12 C-24 -0 -14 -4 0 0 Z " fill="#0C0D10" transform="translate(427.375,155.4375)"/>
<path d="M0 0 C2 0 4 1 6 1 C6 2 6 2 9 2 C12 3 12 3 14 5 C14 6 14 6 15 9 C17 9 18 8 20 8 C25 8 25 8 28 10 C29 11 30 12 31 13 C34 16 37 18 40 21 C41 21 41 21 43 22 C48 25 51 26 56 26 C56 27 57 28 57 29 C58 29 59 30 60 30 C62 34 63 37 63 41 C64 41 65 41 66 41 C69 46 69 46 69 48 C70 48 70 48 71 48 C72 50 72 52 73 54 C74 54 74 54 75 54 C76 56 78 59 79 62 C81 66 83 70 85 73 C86 74 86 75 87 76 C87 77 87 77 85 80 C81 81 81 81 76 81 C74 81 72 81 70 81 C69 80 67 80 66 80 C65 77 65 77 64 74 C60 73 60 73 57 73 C57 74 56 74 56 75 C48 77 41 76 33 73 C30 70 30 70 27 65 C22 62 20 62 14 61 C6 59 3 57 -3 51 C-7 50 -7 50 -10 50 C-13 53 -13 53 -13 56 C-12 61 -8 65 -5 69 C-5 70 -5 71 -5 72 C-8 74 -8 74 -13 75 C-13 76 -13 76 -13 77 C-22 79 -31 79 -40 79 C-41 79 -42 79 -44 79 C-52 79 -52 79 -55 78 C-55 77 -55 77 -55 76 C-56 76 -57 76 -58 76 C-59 76 -59 76 -63 76 C-64 76 -64 76 -67 76 C-68 76 -68 76 -71 75 C-71 73 -72 72 -72 70 C-70 68 -70 68 -68 65 C-68 64 -68 64 -66 61 C-64 57 -64 57 -59 54 C-58 53 -57 52 -56 51 C-52 51 -50 52 -47 54 C-42 57 -39 57 -33 56 C-25 52 -18 45 -15 37 C-15 36 -15 34 -14 33 C-14 32 -14 30 -14 29 C-13 28 -12 28 -11 27 C-10 25 -9 24 -8 22 C-7 21 -6 20 -5 20 C-1 15 -1 11 -0 6 C-0 5 -0 5 0 0 Z " fill="#C1C5D0" transform="translate(402,215)"/>
<path d="M0 0 C5 1 5 1 8 3 C10 3 13 3 15 3 C23 4 27 6 34 9 C39 10 42 10 47 8 C47 7 48 7 48 6 C47 12 47 12 46 15 C45 29 47 43 54 56 C62 64 70 69 81 70 C82 70 82 70 85 70 C86 70 87 70 88 70 C88 69 88 69 88 68 C93 67 95 67 100 69 C101 72 102 74 103 77 C105 81 108 83 112 86 C114 88 114 88 117 91 C119 94 122 96 126 98 C127 102 127 104 127 108 C119 116 109 115 98 116 C97 116 96 116 95 116 C92 116 89 116 85 116 C67 116 67 116 59 109 C57 104 57 104 56 100 C54 98 52 97 50 95 C50 93 49 92 49 90 C51 88 51 88 54 86 C58 83 60 81 62 76 C62 74 62 72 62 70 C57 67 55 66 50 65 C49 65 47 65 46 65 C43 64 39 64 36 63 C29 62 22 58 15 54 C9 51 3 48 -4 48 C-9 48 -9 48 -13 44 C-13 40 -13 40 -12 37 C-12 37 -12 37 -10 36 C-10 35 -10 34 -10 32 C-11 25 -9 19 -6 12 C-5 12 -5 11 -4 11 C-3 8 -3 5 -2 2 C-1 1 -1 1 0 0 Z " fill="#C0C4CF" transform="translate(206,157)"/>
<path d="M0 0 C1 0 1 0 4 2 C5 5 5 5 4 9 C2 12 2 12 -1 14 C-6 15 -10 15 -16 15 C-17 15 -19 15 -21 15 C-25 15 -25 15 -29 14 C-31 14 -32 15 -34 15 C-37 15 -40 15 -42 16 C-44 16 -46 16 -47 16 C-49 16 -51 16 -52 16 C-56 16 -59 16 -62 16 C-64 17 -65 17 -67 17 C-70 17 -74 17 -77 18 C-79 18 -81 18 -83 18 C-84 18 -86 18 -87 18 C-88 18 -89 19 -90 19 C-91 19 -91 19 -94 19 C-99 19 -103 19 -108 19 C-112 19 -112 19 -117 20 C-125 22 -133 21 -141 21 C-154 22 -167 22 -181 24 C-202 25 -224 26 -246 26 C-257 26 -267 26 -278 28 C-294 31 -311 30 -327 30 C-329 30 -330 30 -332 30 C-333 30 -335 30 -337 30 C-338 30 -339 30 -341 30 C-344 30 -344 30 -346 28 C-346 23 -346 23 -346 18 C-342 14 -335 15 -330 15 C-329 15 -327 15 -326 14 C-324 14 -323 14 -321 14 C-321 14 -321 14 -317 14 C-312 14 -307 14 -302 14 C-281 13 -261 12 -240 11 C-230 10 -220 10 -211 10 C-209 9 -207 9 -206 9 C-205 9 -205 9 -202 9 C-191 9 -180 8 -169 8 C-158 7 -147 7 -136 6 C-128 6 -121 6 -113 5 C-102 4 -90 4 -79 4 C-78 4 -78 4 -75 4 C-74 4 -73 4 -72 4 C-69 4 -69 4 -65 3 C-50 2 -36 2 -21 1 C-18 1 -15 1 -12 1 C-11 1 -9 1 -7 1 C-3 1 -3 1 0 0 Z " fill="#333B49" transform="translate(560,534)"/>
<path d="M0 0 C8 4 17 8 22 15 C21 18 21 18 20 21 C20 21 20 21 19 24 C24 29 27 31 34 31 C38 32 38 32 42 36 C42 37 42 38 43 39 C45 44 49 45 53 48 C54 48 54 48 57 51 C62 53 62 53 67 55 C72 56 72 56 74 59 C74 61 73 62 73 64 C72 64 72 64 71 64 C71 65 71 66 71 67 C70 80 67 88 60 99 C60 101 59 102 59 104 C58 105 58 106 57 107 C54 107 54 107 51 106 C50 105 50 105 49 104 C45 104 42 105 38 105 C37 105 35 104 34 104 C34 101 34 98 34 95 C33 93 32 92 31 90 C31 88 31 86 31 84 C31 77 29 73 25 67 C22 64 22 64 19 62 C18 63 18 64 17 65 C17 64 16 63 16 62 C14 60 13 59 11 57 C11 57 11 57 9 55 C7 52 5 50 2 48 C1 47 -0 47 -1 46 C-6 43 -9 41 -14 41 C-18 41 -20 40 -24 38 C-24 37 -25 35 -25 34 C-22 31 -22 31 -19 30 C-18 27 -18 27 -17 24 C-12 10 -12 10 -7 8 C-7 7 -6 6 -6 5 C-4 2 -4 2 0 0 Z " fill="#C0C4CF" transform="translate(186,248)"/>
<path d="M0 0 C-0 1 -0 2 -0 3 C0 10 3 16 8 21 C9 21 11 21 12 20 C16 20 16 20 19 22 C21 24 22 27 24 29 C27 29 27 29 31 28 C35 28 38 28 42 27 C45 27 45 27 50 25 C54 25 58 25 63 25 C67 25 67 25 71 24 C73 24 74 23 75 23 C79 28 79 31 79 37 C78 38 78 40 77 41 C76 41 76 41 72 40 C67 40 67 40 64 42 C59 49 57 55 56 64 C53 71 53 71 50 72 C41 72 41 72 37 70 C34 66 32 62 30 58 C29 58 28 57 27 57 C26 58 25 59 24 60 C19 60 19 60 16 58 C11 55 8 54 3 54 C2 54 1 54 -0 53 C-4 53 -4 53 -9 54 C-14 55 -15 55 -19 52 C-20 51 -22 51 -23 50 C-26 48 -26 48 -27 45 C-27 35 -24 28 -19 19 C-18 18 -16 18 -15 17 C-14 15 -14 14 -13 12 C-10 8 -10 8 -7 5 C-6 5 -6 5 -5 5 C-5 4 -4 2 -4 1 C-2 0 -2 0 0 0 Z " fill="#898FA2" transform="translate(136,316)"/>
<path d="M0 0 C2 0 4 0 6 0 C10 1 10 1 13 4 C8 4 8 4 -22 5 C-20 5 -18 5 -16 6 C-16 6 -16 6 -16 7 C-26 8 -37 8 -47 8 C-53 8 -58 8 -64 8 C-72 9 -81 9 -90 9 C-91 9 -93 9 -95 9 C-98 9 -102 9 -105 9 C-110 9 -116 9 -121 9 C-125 9 -128 9 -131 9 C-133 9 -135 9 -136 9 C-138 9 -139 9 -141 9 C-141 9 -141 9 -145 9 C-148 9 -148 9 -149 8 C-153 8 -157 8 -161 8 C-162 8 -164 8 -165 8 C-172 8 -179 8 -186 9 C-189 9 -192 8 -196 8 C-198 8 -201 8 -204 8 C-205 8 -207 8 -209 8 C-210 8 -212 8 -214 8 C-215 8 -217 8 -219 8 C-219 8 -219 8 -223 8 C-225 8 -226 8 -228 8 C-231 8 -234 8 -238 9 C-241 9 -244 9 -248 9 C-250 9 -252 9 -253 9 C-254 9 -254 9 -258 9 C-258 9 -258 10 -258 11 C-262 12 -265 12 -269 12 C-271 12 -273 12 -274 12 C-275 12 -275 12 -279 12 C-281 12 -283 12 -285 12 C-296 13 -306 13 -317 12 C-325 13 -331 15 -337 20 C-338 21 -340 22 -342 23 C-346 30 -347 37 -349 46 C-350 50 -351 54 -352 58 C-354 64 -356 70 -358 75 C-360 80 -360 80 -362 84 C-363 88 -364 90 -365 94 C-365 99 -366 101 -368 105 C-368 107 -368 110 -368 112 C-369 119 -371 125 -373 132 C-374 136 -375 140 -376 144 C-377 148 -377 148 -379 153 C-379 154 -379 155 -379 157 C-380 162 -381 166 -383 171 C-384 174 -385 178 -386 182 C-386 183 -386 184 -387 185 C-388 185 -389 185 -391 185 C-392 188 -392 188 -393 192 C-393 192 -393 192 -394 194 C-396 199 -396 204 -397 209 C-397 211 -398 213 -399 216 C-399 217 -399 219 -399 221 C-400 229 -400 229 -402 233 C-403 233 -405 233 -407 233 C-410 226 -406 218 -404 211 C-404 210 -404 209 -403 208 C-401 202 -399 195 -397 189 C-393 177 -389 166 -387 154 C-386 153 -386 153 -386 153 C-385 150 -385 146 -384 143 C-383 139 -382 135 -381 131 C-376 116 -372 102 -369 88 C-368 84 -367 81 -366 77 C-366 76 -365 74 -365 73 C-364 69 -364 69 -362 66 C-361 63 -360 61 -360 59 C-357 49 -355 39 -352 29 C-351 28 -351 28 -350 25 C-349 19 -346 14 -342 9 C-332 5 -322 5 -312 5 C-308 5 -304 5 -301 5 C-300 5 -300 5 -296 5 C-292 5 -287 4 -283 4 C-273 4 -264 4 -255 4 C-238 4 -220 3 -203 3 C-202 3 -200 3 -199 3 C-192 3 -186 3 -179 2 C-138 1 -97 0 -56 1 C-55 1 -55 1 -52 1 C-49 1 -47 1 -45 1 C-30 1 -15 -0 0 0 Z " fill="#61687A" transform="translate(620.5625,304.3125)"/>
<path d="M0 0 C9 6 13 15 16 25 C17 36 16 47 10 56 C4 62 -0 67 -8 69 C-18 69 -25 68 -32 62 C-40 53 -42 44 -42 32 C-40 21 -37 11 -29 3 C-20 -4 -11 -4 0 0 Z " fill="#101114" transform="translate(309.5,152)"/>
<path d="M0 0 C11 4 18 9 23 20 C25 28 26 35 26 44 C26 47 26 50 27 53 C28 67 26 79 17 90 C16 91 15 92 14 94 C-4 116 -4 116 -13 122 C-14 122 -14 122 -15 122 C-15 123 -16 124 -16 125 C-24 130 -32 133 -41 131 C-44 126 -42 123 -41 117 C-41 116 -41 116 -41 115 C-43 115 -44 114 -46 114 C-46 113 -46 113 -46 112 C-41 111 -41 111 -36 111 C-33 114 -33 114 -31 117 C-31 118 -31 118 -31 119 C-25 119 -25 119 -23 118 C-23 116 -24 114 -24 112 C-24 107 -25 105 -22 101 C-15 95 -15 95 -12 95 C-11 94 -11 92 -10 91 C-9 91 -9 91 -8 91 C-7 89 -7 88 -6 86 C-3 82 -2 81 3 80 C4 80 6 80 7 80 C11 80 11 80 14 79 C14 79 14 79 15 76 C12 72 10 71 5 69 C3 65 3 60 3 56 C3 53 3 50 3 47 C2 37 2 37 5 32 C8 29 8 29 10 27 C12 25 12 25 12 20 C8 20 5 21 2 24 C-1 26 -1 26 -4 26 C-9 25 -12 22 -16 19 C-17 18 -19 17 -20 16 C-19 16 -18 16 -17 15 C-14 14 -14 14 -10 10 C-10 9 -9 8 -9 7 C-8 7 -7 6 -6 6 C-4 6 -3 5 -2 5 C-1 3 -1 2 0 0 Z " fill="#5B65D6" transform="translate(482,364)"/>
<path d="M0 0 C12 7 18 16 23 30 C24 35 25 39 25 43 C24 43 23 43 22 43 C22 45 22 47 22 49 C22 51 22 53 22 56 C22 57 22 58 22 59 C22 62 22 65 22 68 C19 71 16 73 14 74 C14 70 15 67 17 63 C20 49 18 36 10 23 C4 17 -1 15 -9 15 C-18 15 -22 17 -28 23 C-36 34 -38 46 -37 59 C-35 68 -33 76 -25 81 C-20 83 -15 84 -9 84 C-10 86 -10 88 -10 89 C-11 89 -12 89 -12 89 C-12 90 -12 91 -12 91 C-24 92 -31 90 -41 83 C-50 76 -53 66 -55 56 C-55 54 -55 53 -55 51 C-55 50 -56 49 -56 48 C-56 32 -50 19 -40 7 C-28 -3 -15 -7 0 0 Z " fill="#EBECEF" transform="translate(306.375,135.625)"/>
<path d="M0 0 C1 0 1 0 4 2 C7 2 9 3 11 4 C15 6 15 6 20 7 C24 9 27 10 31 12 C37 14 43 15 49 15 C50 16 52 16 53 17 C55 17 56 17 58 17 C63 17 66 18 71 20 C76 22 81 23 85 25 C86 25 87 26 88 26 C88 27 88 27 88 28 C75 35 54 32 40 29 C32 27 24 27 16 26 C12 26 12 26 8 24 C3 23 -1 23 -6 23 C-15 22 -24 21 -33 20 C-34 20 -34 20 -36 20 C-42 19 -46 18 -51 15 C-53 15 -55 14 -56 14 C-57 14 -57 14 -61 13 C-61 12 -62 10 -62 9 C-58 5 -55 6 -50 5 C-47 4 -45 3 -42 2 C-41 2 -39 2 -38 2 C-34 1 -32 -0 -28 -2 C-17 -5 -10 -4 0 0 Z " fill="#C8CBD4" transform="translate(101,544)"/>
<path d="M0 0 C5 1 5 1 8 3 C10 3 13 3 15 3 C23 4 27 6 34 9 C39 10 42 10 47 8 C47 7 48 7 48 6 C47 12 47 12 46 15 C44 31 48 45 56 59 C51 58 51 58 49 55 C45 51 42 51 37 50 C34 49 31 47 28 45 C19 40 12 36 2 38 C-4 39 -4 39 -9 36 C-12 28 -10 22 -8 15 C-6 12 -6 12 -4 11 C-3 8 -3 5 -2 2 C-1 1 -1 1 0 0 Z " fill="#BDC0CC" transform="translate(206,157)"/>
<path d="M0 0 C0 0 0 1 0 1 C-3 2 -6 2 -9 3 C-12 4 -12 4 -15 9 C-18 14 -20 14 -26 15 C-33 16 -41 16 -49 16 C-59 16 -68 16 -78 18 C-94 21 -111 20 -127 20 C-129 20 -130 20 -132 20 C-133 20 -135 20 -137 20 C-138 20 -139 20 -141 20 C-144 20 -144 20 -146 18 C-146 13 -146 13 -146 8 C-142 4 -135 5 -130 5 C-129 5 -127 5 -126 4 C-124 4 -123 4 -121 4 C-121 4 -121 4 -117 4 C-112 4 -107 4 -102 4 C-95 3 -89 3 -82 3 C-82 3 -82 3 -78 3 C-65 2 -52 1 -40 1 C-27 -0 -13 -0 0 0 Z " fill="#3B414C" transform="translate(360,544)"/>
<path d="M0 0 C7 0 13 3 20 5 C26 7 33 9 40 11 C44 12 48 14 53 15 C60 18 68 20 75 23 C80 24 85 26 90 27 C92 28 94 28 97 29 C98 29 99 30 101 30 C102 30 103 30 104 31 C108 32 109 34 111 37 C111 42 111 44 109 49 C104 49 100 48 96 46 C95 46 95 46 92 45 C91 45 89 44 88 44 C87 43 86 43 84 43 C76 40 68 37 60 34 C56 33 51 31 47 30 C40 28 33 26 26 24 C25 23 23 23 22 22 C1 15 1 15 -3 8 C-3 6 -3 5 -3 3 C-2 2 -1 1 0 0 Z " fill="#333B49" transform="translate(92,513)"/>
<path d="M0 0 C8 2 12 5 17 12 C19 16 20 19 22 23 C23 25 23 26 24 28 C26 34 27 39 26 46 C26 47 26 48 26 49 C25 61 22 71 14 80 C8 85 2 87 -6 89 C-8 89 -9 88 -11 88 C-12 85 -12 85 -13 82 C-12 82 -11 81 -10 81 C-1 77 5 74 9 64 C13 55 14 44 10 34 C6 24 6 24 0 21 C-7 18 -13 18 -20 21 C-24 23 -24 23 -27 27 C-28 28 -29 29 -30 30 C-31 30 -31 30 -35 28 C-30 13 -16 -1 0 0 Z " fill="#EBECEF" transform="translate(427,136)"/>
<path d="M0 0 C2 0 3 0 5 0 C8 3 8 3 10 6 C11 7 12 8 13 9 C18 16 21 23 24 31 C26 35 28 37 31 40 C38 41 43 40 50 37 C55 35 60 34 65 33 C70 31 72 30 76 26 C77 25 79 25 80 24 C81 25 83 27 84 28 C83 30 83 33 82 35 C79 44 79 53 82 62 C82 63 81 65 81 66 C77 62 77 62 74 58 C68 52 63 50 55 50 C46 50 39 53 32 60 C30 62 29 65 27 67 C23 72 23 72 19 73 C19 72 19 70 19 69 C18 68 16 68 15 67 C15 64 15 64 15 60 C15 59 15 57 15 56 C15 51 15 45 16 40 C17 40 18 40 19 40 C16 26 13 10 0 1 C0 1 0 0 0 0 Z " fill="#BFC2CD" transform="translate(312,139)"/>
<path d="M0 0 C1 1 3 1 4 2 C5 5 5 5 4 9 C2 12 2 12 -1 14 C-6 15 -10 15 -16 15 C-17 15 -19 15 -21 15 C-25 15 -25 15 -29 14 C-31 14 -32 15 -34 15 C-37 15 -40 15 -42 16 C-44 16 -46 16 -47 16 C-48 16 -48 16 -52 16 C-56 16 -59 16 -62 16 C-64 17 -65 17 -67 17 C-70 17 -74 17 -77 18 C-81 18 -86 18 -90 19 C-91 19 -92 19 -93 19 C-103 19 -112 19 -121 19 C-118 16 -118 16 -114 15 C-110 14 -110 14 -106 10 C-97 4 -88 5 -78 4 C-73 4 -69 4 -65 3 C-50 2 -36 2 -21 1 C-18 1 -15 1 -12 1 C-11 1 -9 1 -7 1 C-3 1 -3 1 0 0 Z " fill="#454D5D" transform="translate(560,534)"/>
<path d="M0 0 C4 4 6 10 8 15 C9 17 10 18 11 20 C12 21 12 23 13 24 C6 31 -3 35 -12 39 C-12 39 -13 40 -14 40 C-23 44 -31 47 -41 46 C-43 45 -44 44 -46 43 C-47 38 -47 38 -46 36 C-41 31 -35 28 -29 26 C-24 24 -24 24 -21 21 C-22 16 -22 16 -24 12 C-20 8 -20 8 -16 7 C-15 6 -15 4 -14 3 C-5 -2 -5 -2 0 0 Z " fill="#454D5D" transform="translate(85,456)"/>
<path d="M0 0 C0 0 1 0 1 0 C2 14 -14 28 -23 39 C-27 43 -31 48 -37 51 C-38 51 -38 51 -39 51 C-39 52 -40 53 -40 54 C-48 59 -56 62 -65 60 C-68 55 -66 52 -65 46 C-65 45 -65 45 -65 44 C-67 44 -68 43 -70 43 C-70 42 -70 42 -70 41 C-65 40 -65 40 -60 40 C-57 43 -57 43 -55 46 C-55 47 -55 47 -55 48 C-49 48 -49 48 -47 47 C-47 45 -48 43 -48 40 C-48 36 -49 34 -46 30 C-39 24 -39 24 -36 24 C-35 23 -35 21 -34 20 C-33 20 -33 20 -32 20 C-31 18 -31 17 -30 15 C-27 11 -26 10 -21 9 C-17 9 -17 9 -12 10 C-7 9 -7 8 -4 4 C-3 4 -3 4 0 0 Z " fill="#4E5AD9" transform="translate(506,435)"/>
<path d="M0 0 C10 3 10 3 14 6 C16 6 17 6 19 6 C21 7 22 7 24 7 C27 12 27 12 27 14 C28 14 28 14 29 14 C30 16 30 18 31 20 C32 20 32 20 33 20 C34 22 36 25 37 28 C39 32 41 36 43 39 C44 40 44 41 45 42 C44 43 44 45 43 46 C39 47 39 47 34 47 C33 47 33 47 28 47 C27 46 25 46 24 46 C23 43 23 43 22 40 C21 40 20 39 19 39 C12 36 3 31 0 24 C-0 20 -0 17 -1 13 C-1 10 -1 10 -3 6 C-3 4 -2 3 -2 1 C-1 1 -1 0 0 0 Z " fill="#BDC0CB" transform="translate(444,249)"/>
<path d="M0 0 C0 0 0 0 2 2 C4 2 5 2 7 2 C9 3 10 3 12 3 C12 4 12 4 14 7 C18 7 18 7 21 7 C21 10 21 14 21 17 C20 17 19 17 18 17 C17 18 17 20 16 21 C12 21 9 21 5 21 C5 21 5 21 2 21 C1 22 1 24 0 25 C-5 25 -9 25 -14 25 C-17 25 -19 25 -22 25 C-23 26 -23 28 -24 29 C-28 29 -28 29 -33 29 C-34 29 -34 29 -39 29 C-41 29 -43 29 -45 29 C-47 29 -49 29 -51 29 C-65 29 -65 29 -71 27 C-73 27 -76 26 -78 26 C-80 26 -81 26 -82 25 C-83 25 -84 25 -85 25 C-81 23 -81 23 -76 23 C-71 22 -71 22 -67 21 C-60 18 -52 18 -44 18 C-13 17 -13 17 -4 9 C-1 4 -1 4 0 0 Z " fill="#E3E5E9" transform="translate(574,542)"/>
<path d="M0 0 C2 0 4 0 6 0 C10 1 10 1 13 4 C8 4 8 4 -22 5 C-20 5 -18 5 -16 6 C-16 6 -16 6 -16 7 C-26 8 -37 8 -47 8 C-53 8 -58 8 -64 8 C-72 9 -81 9 -90 9 C-90 9 -90 9 -95 9 C-100 9 -105 9 -110 9 C-114 9 -118 9 -121 9 C-130 9 -139 9 -148 9 C-147 7 -147 6 -147 5 C-148 5 -149 5 -151 5 C-156 5 -161 5 -166 5 C-168 5 -170 5 -172 5 C-175 5 -178 5 -182 5 C-183 5 -185 5 -187 5 C-192 5 -192 5 -194 3 C-148 1 -103 0 -58 1 C-57 1 -57 1 -54 1 C-51 1 -48 1 -46 1 C-30 1 -15 -0 0 0 Z " fill="#6C7286" transform="translate(620.5625,304.3125)"/>
<path d="M0 0 C4 0 6 1 9 3 C12 5 15 6 19 6 C20 6 21 5 22 5 C25 5 25 5 28 8 C30 9 31 10 32 12 C33 13 34 14 35 16 C38 19 38 19 39 21 C40 22 42 22 43 23 C43 24 43 25 43 26 C34 28 25 28 16 28 C15 28 14 28 12 28 C4 28 4 28 1 27 C1 26 1 26 1 25 C0 25 0 25 -2 25 C-3 25 -3 25 -7 25 C-8 25 -8 25 -11 25 C-13 24 -14 24 -15 24 C-15 23 -15 23 -16 19 C-14 17 -14 17 -12 14 C-12 13 -12 13 -10 10 C-8 6 -8 6 -3 3 C-2 2 -1 1 0 0 Z " fill="#BDC0CC" transform="translate(346,266)"/>
<path d="M0 0 C1 0 2 1 2 1 C12 6 21 10 31 13 C34 14 37 15 41 16 C42 16 44 17 45 17 C52 20 59 22 66 25 C67 25 69 26 70 26 C73 27 75 28 78 29 C77 30 77 30 76 31 C71 30 71 30 69 29 C67 29 66 29 64 29 C58 28 54 27 48 24 C42 22 36 20 30 18 C25 16 20 14 15 12 C6 9 -2 10 -11 13 C-12 14 -13 14 -14 15 C-16 15 -18 16 -20 16 C-24 17 -26 17 -30 19 C-32 19 -33 19 -35 19 C-36 20 -38 20 -39 20 C-41 24 -41 24 -41 26 C-39 26 -38 26 -36 26 C-31 27 -31 27 -28 28 C-23 31 -18 31 -13 32 C-12 32 -11 32 -10 33 C-0 34 9 35 19 35 C24 35 24 35 28 36 C33 38 39 39 44 39 C52 39 59 40 66 43 C66 43 66 44 66 44 C61 44 55 44 50 44 C48 44 47 44 45 44 C44 44 44 44 40 44 C40 44 40 44 36 44 C35 44 34 44 33 44 C33 43 33 43 31 40 C27 40 22 40 18 40 C14 40 9 40 5 40 C4 39 4 37 3 36 C-1 36 -6 36 -10 36 C-14 36 -19 36 -23 36 C-24 35 -24 33 -25 32 C-28 32 -28 32 -32 32 C-36 32 -36 32 -39 32 C-40 31 -40 29 -41 28 C-45 28 -45 28 -48 28 C-48 25 -48 21 -48 18 C-47 18 -46 18 -45 18 C-44 18 -44 18 -41 18 C-40 17 -40 15 -39 14 C-35 14 -32 14 -28 14 C-27 14 -26 14 -25 14 C-24 13 -24 11 -23 10 C-19 10 -16 10 -12 10 C-12 10 -12 10 -9 10 C-8 9 -8 7 -7 6 C-6 6 -6 6 -4 6 C-3 5 -2 5 -1 5 C-1 3 -0 2 0 0 Z " fill="#EBECEF" transform="translate(81,531)"/>
<path d="M0 0 C3 3 5 5 8 8 C11 9 11 9 14 10 C15 10 15 10 18 11 C24 11 33 11 39 7 C39 6 40 6 41 5 C42 6 44 6 45 7 C44 12 44 12 42 17 C42 18 42 20 42 21 C41 22 41 24 41 25 C35 28 32 26 26 24 C25 24 25 24 21 23 C-7 14 -7 14 -20 9 C-29 6 -38 5 -47 4 C-47 3 -47 1 -47 0 C-45 0 -44 0 -42 0 C-21 0 -21 0 -13 -1 C-4 -1 -4 -1 0 0 Z " fill="#333943" transform="translate(162,508)"/>
<path d="M0 0 C8 4 15 13 19 21 C19 23 19 24 19 26 C18 26 18 26 17 26 C17 26 17 26 16 29 C3 31 -8 28 -20 23 C-21 23 -22 22 -23 22 C-26 21 -26 21 -28 17 C-26 15 -26 15 -24 12 C-23 11 -22 10 -22 9 C-15 3 -9 -1 0 0 Z " fill="#F0A112" transform="translate(371,198)"/>
<path d="M0 0 C0 1 0 1 0 2 C1 2 3 2 4 2 C13 3 23 7 30 13 C30 16 30 16 29 19 C26 20 24 21 21 21 C21 22 20 24 20 25 C18 28 16 30 12 31 C8 31 6 30 2 28 C1 25 1 25 1 21 C1 17 1 14 -2 11 C-4 11 -5 12 -7 12 C-9 16 -9 16 -10 21 C-11 25 -11 25 -13 28 C-14 28 -14 27 -15 27 C-15 26 -14 24 -14 23 C-12 19 -12 19 -12 16 C-14 15 -16 15 -18 14 C-19 13 -21 12 -22 11 C-27 11 -31 12 -36 13 C-33 7 -20 4 -14 2 C-9 0 -5 0 0 0 Z " fill="#5A64D6" transform="translate(452,350)"/>
<path d="M0 0 C2 0 2 0 4 2 C8 6 10 9 10 14 C11 15 11 17 11 18 C12 18 13 19 14 19 C16 22 18 24 20 27 C21 28 22 29 22 30 C24 32 24 32 25 37 C25 37 25 37 22 38 C21 41 21 41 21 44 C20 43 20 42 19 41 C18 40 18 40 17 39 C17 41 16 42 16 44 C14 42 14 42 13 37 C12 37 11 37 10 37 C8 41 9 44 9 48 C9 48 9 48 10 51 C12 56 12 63 10 68 C9 68 8 67 7 67 C6 64 5 60 3 57 C3 55 2 53 2 51 C1 49 1 48 0 46 C-0 46 -0 46 -1 43 C-2 38 -2 33 -2 28 C-2 27 -2 26 -2 25 C-2 6 -2 6 0 0 Z " fill="#606779" transform="translate(91,392)"/>
<path d="M0 0 C11 4 18 9 23 20 C24 25 25 30 26 35 C25 36 25 37 24 38 C23 36 23 35 22 33 C19 33 19 33 15 33 C13 33 12 33 11 34 C10 34 10 34 7 34 C6 34 5 34 4 34 C6 32 8 30 10 27 C12 25 12 25 12 20 C8 20 5 21 2 24 C-1 26 -1 26 -4 26 C-9 25 -12 22 -16 19 C-17 18 -19 17 -20 16 C-19 16 -18 16 -17 15 C-14 14 -14 14 -10 10 C-10 9 -9 8 -9 7 C-8 7 -7 6 -6 6 C-4 6 -3 5 -2 5 C-1 3 -1 2 0 0 Z " fill="#4F5BE2" transform="translate(482,364)"/>
<path d="M0 0 C-2 2 -2 2 -6 3 C-11 4 -13 5 -16 8 C-17 8 -17 8 -18 8 C-18 9 -19 10 -19 11 C-22 12 -25 13 -28 14 C-28 14 -28 14 -27 16 C-31 17 -35 17 -40 17 C-41 17 -43 17 -44 17 C-46 17 -47 17 -49 17 C-50 17 -52 17 -54 17 C-57 17 -61 17 -65 17 C-64 16 -62 16 -61 15 C-63 14 -63 14 -71 11 C-68 9 -68 9 -65 8 C-70 7 -75 7 -80 6 C-81 6 -81 6 -86 6 C-87 6 -89 6 -90 6 C-90 6 -90 5 -90 5 C-85 4 -79 4 -74 4 C-72 3 -69 3 -67 3 C-67 3 -67 3 -64 3 C-47 3 -31 2 -14 0 C-9 0 -5 -0 0 0 Z " fill="#393F49" transform="translate(469,538)"/>
<path d="M0 0 C1 0 2 1 3 1 C3 7 3 7 1 11 C0 13 -0 16 -0 18 C-1 22 -2 26 -4 30 C-4 31 -4 33 -4 34 C-5 39 -6 43 -8 48 C-9 52 -10 55 -11 59 C-11 60 -12 61 -12 62 C-13 62 -15 62 -16 62 C-17 65 -17 65 -18 69 C-18 69 -18 69 -20 72 C-22 76 -22 81 -22 86 C-23 88 -23 91 -24 93 C-24 95 -24 96 -24 98 C-25 106 -25 106 -27 110 C-29 110 -30 110 -32 110 C-35 103 -32 95 -30 89 C-29 88 -29 87 -29 86 C-27 79 -24 73 -22 66 C-18 54 -15 43 -12 31 C-12 31 -11 30 -11 30 C-11 28 -10 26 -10 24 C-9 15 -7 7 0 0 Z " fill="#5F6778" transform="translate(246,427)"/>
<path d="M0 0 C4 4 6 10 8 15 C9 17 10 18 11 20 C12 21 12 23 13 24 C9 28 5 30 0 33 C-1 33 -1 32 -2 32 C-2 31 -1 29 -1 28 C-5 26 -5 26 -8 25 C-16 22 -20 20 -24 13 C-23 10 -23 10 -18 7 C-17 7 -17 7 -16 7 C-15 6 -15 4 -14 3 C-5 -2 -5 -2 0 0 Z " fill="#525A6B" transform="translate(85,456)"/>
<path d="M0 0 C4 3 4 3 5 6 C5 8 5 9 5 10 C5 15 5 18 6 22 C6 24 5 25 5 27 C4 27 3 27 2 27 C1 30 1 33 0 36 C-3 41 -3 41 -7 43 C-8 43 -10 43 -11 43 C-18 34 -16 23 -15 12 C-13 6 -13 5 -8 1 C-6 1 -4 1 -2 1 C-1 1 -1 0 0 0 Z " fill="#BDC1CC" transform="translate(233,375)"/>
<path d="M0 0 C0 0 1 0 1 0 C2 13 -11 24 -19 34 C-20 35 -20 36 -21 37 C-23 39 -24 40 -26 42 C-27 42 -27 42 -28 42 C-29 40 -30 37 -31 35 C-33 33 -33 33 -37 32 C-34 24 -32 16 -25 10 C-21 9 -17 9 -12 10 C-7 9 -7 8 -4 4 C-3 4 -3 4 0 0 Z " fill="#4E5AE0" transform="translate(506,435)"/>
<path d="M0 0 C2 -0 3 -0 5 -0 C10 -0 16 0 21 0 C22 0 22 0 27 0 C54 0 82 0 109 1 C109 2 109 3 109 4 C107 4 105 4 103 4 C100 4 98 4 95 4 C94 4 93 4 91 4 C85 4 79 4 73 5 C68 5 65 5 60 4 C57 4 54 4 52 4 C50 4 48 4 47 4 C45 4 44 4 42 4 C41 4 41 4 37 4 C36 4 36 4 32 4 C31 4 29 4 28 4 C24 4 21 5 18 5 C15 5 11 5 8 5 C6 5 4 5 2 5 C1 5 1 5 -2 5 C-2 6 -2 6 -2 7 C-6 8 -10 8 -15 8 C-16 8 -18 8 -20 8 C-22 8 -23 8 -25 8 C-27 8 -29 8 -31 8 C-35 8 -40 8 -44 8 C-44 7 -44 6 -44 5 C-32 -2 -14 -0 0 0 Z " fill="#5F6778" transform="translate(365.015625,307.8671875)"/>
<path d="M0 0 C2 1 3 3 5 4 C8 5 8 5 11 6 C10 11 9 15 6 20 C1 22 1 22 -3 23 C-8 24 -12 26 -16 29 C-18 29 -18 29 -20 27 C-21 26 -21 26 -23 24 C-24 23 -24 23 -27 21 C-28 20 -29 19 -30 18 C-30 17 -29 15 -29 14 C-30 14 -30 13 -31 13 C-28 12 -28 12 -25 12 C-24 13 -23 13 -22 14 C-19 16 -19 16 -15 16 C-14 16 -13 15 -12 15 C-12 14 -12 14 -14 10 C-15 5 -15 5 -14 3 C-9 1 -6 0 0 0 Z " fill="#6673E3" transform="translate(430,360)"/>
<path d="M0 0 C-0 10 -2 17 -6 26 C-7 28 -8 29 -8 31 C-9 31 -9 31 -11 34 C-14 34 -14 34 -17 32 C-18 31 -19 31 -20 30 C-23 28 -23 28 -23 25 C-23 21 -23 18 -22 15 C-22 13 -22 11 -22 9 C-21 7 -21 5 -21 3 C-15 -2 -8 -2 0 0 Z " fill="#BDC0CC" transform="translate(257,313)"/>
<path d="M0 0 C1 0 1 0 5 0 C11 1 11 1 14 1 C18 1 21 2 25 3 C26 3 28 3 29 4 C32 5 34 7 36 10 C36 15 36 17 34 22 C29 22 25 20 20 19 C19 19 18 18 16 18 C15 17 14 17 12 17 C11 16 10 16 8 15 C3 14 -3 12 -8 10 C-7 9 -5 9 -4 8 C-4 7 -5 6 -5 5 C-3 4 -2 3 0 2 C0 1 0 1 0 0 Z " fill="#333B49" transform="translate(167,540)"/>
<path d="M0 0 C5 1 5 1 8 3 C10 3 13 3 15 3 C23 4 27 6 34 9 C39 10 42 10 47 8 C47 7 48 7 48 6 C47 13 45 16 40 21 C35 22 32 22 27 20 C26 20 25 20 24 19 C23 19 21 18 20 18 C18 17 15 17 13 16 C12 15 11 15 10 15 C7 14 5 14 2 13 C1 13 1 13 -3 11 C-3 3 -3 3 0 0 Z " fill="#C1C5D0" transform="translate(206,157)"/>
<path d="M0 0 C4 1 4 1 6 4 C5 6 4 7 2 8 C2 8 1 8 0 8 C0 9 0 10 0 10 C-5 13 -10 14 -16 15 C-21 16 -26 16 -31 19 C-38 21 -44 21 -52 20 C-52 20 -52 19 -52 18 C-50 18 -49 18 -48 18 C-47 17 -47 16 -47 14 C-42 12 -38 10 -33 9 C-28 7 -28 7 -24 5 C-19 3 -15 3 -10 2 C-5 -1 -5 -1 0 0 Z " fill="#C0C4CF" transform="translate(311.6875,46.625)"/>
<path d="M0 0 C1 1 2 2 3 3 C3 2 4 2 4 1 C6 10 6 18 2 26 C1 26 1 27 0 27 C-0 28 -0 28 -2 32 C-8 33 -11 31 -16 29 C-20 28 -20 28 -23 28 C-23 27 -23 27 -23 26 C-22 25 -21 24 -19 23 C-13 18 -10 10 -7 2 C-3 0 -3 0 0 0 Z " fill="#BEC1CD" transform="translate(458,193)"/>
<path d="M0 0 C1 1 3 1 4 2 C5 2 5 2 8 3 C12 4 12 4 15 6 C15 7 15 7 15 8 C16 9 18 9 19 10 C19 11 20 13 20 14 C21 14 21 14 22 14 C23 15 24 17 25 18 C27 18 28 19 30 19 C25 22 20 22 14 22 C6 19 -3 15 -9 9 C-10 5 -10 5 -10 1 C-7 -1 -4 -0 0 0 Z " fill="#888EA2" transform="translate(111,401)"/>
<path d="M0 0 C8 4 15 8 21 15 C21 16 21 16 22 20 C20 22 20 22 16 22 C2 22 2 22 -3 18 C-7 14 -9 11 -11 6 C-7 0 -7 0 0 0 Z " fill="#898FA2" transform="translate(176,288)"/>
<path d="M0 0 C0 1 0 1 1 5 C1 6 2 7 2 9 C2 10 2 11 2 12 C-2 14 -2 14 -6 13 C-7 13 -7 13 -11 10 C-12 10 -14 11 -15 11 C-14 17 -13 17 -9 20 C-6 22 -6 22 -4 24 C-4 25 -4 26 -4 27 C-9 26 -9 26 -12 24 C-15 22 -15 22 -20 23 C-21 26 -21 26 -22 29 C-23 29 -23 29 -24 29 C-24 28 -25 28 -25 27 C-26 27 -28 27 -30 26 C-31 26 -32 26 -34 26 C-34 25 -35 25 -35 24 C-31 16 -24 9 -16 6 C-15 6 -14 5 -13 5 C-12 4 -10 4 -9 3 C-8 3 -6 3 -5 3 C-5 2 -5 2 -5 1 C-2 0 -2 0 0 0 Z " fill="#5D6CD4" transform="translate(416,363)"/>
<path d="M0 0 C1 0 1 1 2 1 C2 2 3 3 3 4 C4 7 4 7 7 9 C9 11 9 11 10 15 C10 16 10 17 10 18 C7 21 5 20 0 21 C-1 21 -2 21 -4 21 C-7 21 -10 21 -14 21 C-18 21 -18 21 -21 23 C-21 20 -21 20 -21 16 C-20 15 -19 15 -18 14 C-17 12 -16 11 -15 9 C-11 5 -10 4 -5 3 C-3 2 -2 1 0 0 Z " fill="#BDC0CB" transform="translate(409,228)"/>
<path d="M0 0 C1 0 2 0 3 0 C3 1 3 2 3 2 C2 9 2 16 2 22 C2 28 2 33 0 38 C0 41 0 41 1 44 C4 46 4 46 7 47 C7 47 7 48 7 48 C0 49 -6 49 -13 49 C-13 49 -13 49 -11 48 C-11 46 -10 43 -10 41 C-10 39 -9 36 -9 34 C-9 33 -9 31 -8 30 C-8 27 -8 27 -7 24 C-7 22 -7 21 -7 19 C-6 12 -4 6 0 0 Z " fill="#4E5767" transform="translate(230,489)"/>
<path d="M0 0 C6 1 11 2 17 4 C19 4 20 5 22 5 C26 7 31 8 35 10 C31 12 31 12 27 11 C26 11 24 11 23 11 C22 12 20 14 19 15 C18 15 18 15 17 15 C18 16 18 18 19 19 C12 20 7 18 1 16 C-0 15 -1 15 -2 15 C-10 12 -10 12 -12 11 C-12 10 -12 10 -12 9 C-8 7 -8 7 -4 6 C-4 6 -4 5 -4 5 C-2 5 1 5 3 5 C2 3 1 2 0 0 Z " fill="#3A404B" transform="translate(145,530)"/>
<path d="M0 0 C2 0 4 0 6 0 C11 0 17 0 22 0 C21 1 20 1 19 1 C19 2 19 2 19 5 C18 6 18 7 18 8 C14 9 10 9 6 9 C6 9 6 9 3 9 C-1 9 -4 9 -7 9 C-9 9 -11 9 -13 9 C-18 9 -23 9 -27 9 C-27 9 -27 8 -27 7 C-32 7 -37 6 -41 5 C-29 -1 -14 -0 0 0 Z " fill="#C8CBD4" transform="translate(378.375,569.8125)"/>
<path d="M0 0 C1 1 3 1 4 2 C5 5 5 5 4 9 C2 12 2 12 -1 14 C-6 15 -10 15 -16 15 C-17 15 -19 15 -21 15 C-25 15 -25 15 -29 13 C-29 8 -29 8 -28 4 C-23 1 -18 2 -12 1 C-3 1 -3 1 0 0 Z " fill="#353B47" transform="translate(560,534)"/>
<path d="M0 0 C2 0 4 0 6 0 C7 0 7 0 10 1 C13 1 13 1 18 3 C19 6 19 6 18 12 C17 17 17 17 19 20 C15 24 4 23 -2 23 C-7 23 -7 23 -10 21 C-8 21 -6 20 -4 20 C-5 19 -5 17 -6 16 C-5 15 -4 14 -3 13 C-3 12 -2 11 -2 10 C2 9 2 9 5 9 C5 8 4 7 4 6 C5 6 7 5 8 5 C8 4 8 4 8 3 C7 3 6 3 5 3 C3 2 2 2 1 2 C1 1 0 1 0 0 Z " fill="#5A65DE" transform="translate(423,476)"/>
<path d="M0 0 C1 0 1 0 5 0 C6 0 6 0 11 0 C12 0 12 0 17 0 C21 0 26 0 30 0 C26 3 26 3 24 3 C24 5 24 6 24 7 C23 7 22 7 20 7 C7 7 -4 8 -16 13 C-19 14 -19 14 -24 14 C-23 10 -22 8 -19 4 C-12 1 -7 -0 0 0 Z " fill="#6B7185" transform="translate(296.62890625,309.609375)"/>
<path d="M0 0 C1 0 1 0 2 0 C-5 34 -5 34 -14 45 C-15 46 -17 46 -18 47 C-18 39 -18 33 -15 25 C-15 23 -14 22 -14 20 C-13 15 -13 15 -10 10 C-9 10 -8 9 -7 9 C-7 8 -6 8 -6 7 C-5 7 -5 7 -4 7 C-3 5 -3 4 -2 2 C-1 1 -1 1 0 0 Z " fill="#4E5767" transform="translate(587,472)"/>
<path d="M0 0 C0 0 0 0 1 2 C-1 3 -4 3 -6 4 C-7 4 -7 4 -10 4 C-14 5 -14 5 -20 5 C-20 6 -20 6 -20 7 C-16 7 -13 7 -9 7 C-9 8 -10 8 -10 9 C-14 10 -17 10 -21 11 C-23 11 -24 11 -26 11 C-29 11 -32 11 -36 10 C-36 11 -37 12 -37 13 C-39 11 -39 11 -39 6 C-39 1 -39 1 -37 -1 C-25 -3 -12 -3 0 0 Z " fill="#333B49" transform="translate(253,551)"/>
<path d="M0 0 C5 0 8 2 12 5 C10 9 8 11 5 14 C4 15 3 16 2 17 C0 19 0 19 -2 19 C-3 20 -3 22 -4 23 C-8 25 -11 24 -15 24 C-15 23 -15 23 -16 19 C-14 17 -14 17 -12 14 C-12 13 -12 13 -10 10 C-8 6 -8 6 -3 3 C-2 2 -1 1 0 0 Z " fill="#C1C5D0" transform="translate(346,266)"/>
<path d="M0 0 C1 0 3 1 4 1 C6 6 6 11 7 16 C8 25 10 32 14 40 C14 41 15 43 15 44 C15 45 14 45 14 46 C13 45 11 44 10 43 C9 42 7 42 6 41 C2 39 2 39 -1 35 C-1 32 -0 28 0 25 C0 21 0 19 -1 15 C-2 11 -2 7 -2 3 C-1 2 -1 1 0 0 Z " fill="#30353F" transform="translate(101,428)"/>
<path d="M0 0 C1 0 1 0 3 0 C6 0 9 0 13 0 C14 0 14 0 18 0 C23 1 23 1 26 4 C20 4 20 4 -9 5 C-7 5 -5 6 -3 6 C-3 6 -3 7 -3 7 C-13 8 -23 8 -34 8 C-35 8 -37 7 -38 7 C-42 7 -45 7 -49 7 C-49 6 -49 5 -49 4 C-43 3 -38 3 -32 2 C-28 2 -28 2 -24 1 C-16 -1 -8 -0 0 0 Z " fill="#5F6778" transform="translate(608,304)"/>
<path d="M0 0 C1 -0 3 -0 4 -0 C5 -0 5 -0 7 0 C10 5 11 7 11 12 C11 13 11 15 11 16 C11 17 10 18 10 18 C7 14 7 14 6 12 C4 12 2 11 -1 10 C-1 12 -1 14 -2 15 C-5 20 -5 20 -8 22 C-8 22 -8 22 -11 22 C-12 18 -12 15 -12 10 C-12 9 -12 7 -12 6 C-12 5 -12 4 -12 2 C-7 0 -5 0 0 0 Z " fill="#5B66E5" transform="translate(496.5625,396.5625)"/>
<path d="M0 0 C1 0 2 1 3 1 C-1 3 -4 6 -8 8 C-12 16 -14 23 -15 31 C-16 35 -17 38 -18 42 C-18 41 -19 41 -19 40 C-23 44 -24 46 -26 51 C-27 51 -27 51 -28 51 C-25 39 -22 26 -18 14 C-18 12 -17 11 -17 9 C-16 8 -16 6 -15 5 C-11 4 -11 4 -6 3 C-5 2 -4 2 -3 1 C-2 1 -2 1 0 0 Z " fill="#656C7E" transform="translate(287,319)"/>
<path d="M0 0 C1 -0 1 -0 3 -0 C8 0 11 0 15 2 C11 3 7 4 2 4 C2 5 2 6 2 7 C2 8 2 9 2 9 C-1 11 -4 10 -8 10 C-9 11 -10 11 -12 11 C-16 10 -16 10 -21 8 C-23 8 -26 8 -28 7 C-29 7 -31 7 -32 7 C-33 7 -34 6 -35 6 C-31 4 -31 4 -26 4 C-21 3 -21 3 -17 2 C-11 0 -6 -0 0 0 Z " fill="#C8CBD3" transform="translate(523.8125,560.6875)"/>
<path d="M0 0 C4 1 4 1 9 4 C12 4 16 4 19 4 C21 6 21 6 21 9 C21 13 21 13 18 18 C15 19 15 19 11 19 C6 16 5 15 2 10 C1 9 0 8 -1 7 C-1 6 -2 5 -2 4 C-1 3 -1 1 0 0 Z " fill="#F1A91D" transform="translate(351,233)"/>
<path d="M0 0 C1 4 1 4 1 7 C0 7 -0 7 -1 7 C-1 8 -2 9 -2 10 C-16 12 -29 8 -42 2 C-39 -1 -33 0 -30 -0 C-25 0 -21 1 -16 3 C-16 4 -16 4 -16 5 C-13 5 -11 6 -8 6 C-8 5 -8 5 -8 4 C-8 3 -8 2 -8 1 C-5 -1 -5 -1 0 0 Z " fill="#F1AB21" transform="translate(389,217)"/>
<path d="M0 0 C1 0 1 0 2 0 C4 4 4 4 3 8 C2 9 2 9 1 12 C0 12 -0 12 -1 12 C-1 13 -2 14 -2 15 C-3 18 -3 18 -7 20 C-7 22 -7 23 -7 25 C-6 25 -5 26 -4 26 C-3 27 -1 29 0 30 C1 30 1 30 5 32 C11 35 16 39 20 44 C20 44 20 44 19 46 C18 45 17 45 17 44 C8 37 2 32 -9 32 C-12 31 -12 31 -15 29 C-15 28 -16 26 -16 25 C-13 22 -13 22 -10 21 C-9 18 -9 18 -8 15 C-6 9 -3 5 0 0 Z " fill="#BDC0C1" transform="translate(177,257)"/>
<path d="M0 0 C2 0 5 1 7 1 C7 2 7 4 7 5 C6 5 5 6 4 6 C4 7 4 8 4 9 C3 9 2 9 1 9 C-1 9 -2 9 -3 9 C-3 10 -4 12 -4 13 C-4 13 -4 13 -6 16 C-6 17 -5 18 -5 19 C-8 20 -8 20 -11 20 C-12 19 -13 18 -14 17 C-14 17 -14 17 -12 14 C-13 14 -13 14 -14 14 C-14 7 -13 4 -8 -1 C-5 -2 -5 -2 0 0 Z " fill="#6674E4" transform="translate(424,477)"/>
<path d="M0 0 C-0 1 -1 3 -1 4 C-0 5 0 7 1 8 C0 9 -1 10 -2 11 C-2 12 -2 13 -2 14 C-14 13 -14 13 -18 9 C-20 9 -21 8 -23 8 C-23 7 -22 5 -22 4 C-22 3 -23 2 -23 1 C-21 1 -20 1 -18 1 C-18 1 -17 2 -17 2 C-15 2 -12 1 -10 1 C-3 0 -3 0 0 0 Z " fill="#3C434E" transform="translate(199,519)"/>
<path d="M0 0 C1 0 1 0 2 0 C5 4 8 9 10 14 C10 14 10 14 8 17 C4 17 4 17 -2 17 C-3 17 -5 17 -7 17 C-8 17 -10 17 -11 17 C-11 15 -11 14 -11 12 C-10 12 -10 12 -9 12 C-9 11 -8 9 -8 8 C-6 6 -3 4 -1 2 C-1 1 -0 1 0 0 Z " fill="#898EA2" transform="translate(479,278)"/>
<path d="M0 0 C5 1 6 2 9 6 C10 11 10 11 8 14 C3 19 0 19 -6 19 C-7 18 -7 18 -7 15 C-7 9 -4 4 0 0 Z " fill="#505ADD" transform="translate(409,411)"/>
<path d="M0 0 C1 0 1 0 5 2 C4 9 -0 13 -6 17 C-7 17 -9 16 -10 16 C-12 12 -13 10 -13 5 C-11 -1 -6 -0 0 0 Z " fill="#4957E1" transform="translate(463,439)"/>
<path d="M0 0 C1 0 1 0 2 0 C5 6 6 12 7 19 C6 20 6 21 5 22 C4 20 4 19 3 17 C-0 17 -0 17 -4 17 C-6 17 -7 17 -8 18 C-9 18 -9 18 -12 18 C-13 18 -14 18 -15 18 C-13 16 -11 14 -9 11 C-7 9 -7 9 -7 4 C-4 3 -4 3 -1 2 C-1 1 -0 1 0 0 Z " fill="#4E5BD8" transform="translate(501,380)"/>
<path d="M0 0 C0 0 1 0 1 0 C1 3 0 6 0 9 C1 9 3 10 4 10 C5 10 6 11 7 11 C9 11 11 11 13 12 C15 12 17 12 19 12 C16 15 16 15 11 16 C10 17 8 17 7 18 C7 19 6 20 6 21 C4 22 3 22 1 23 C-2 27 -1 29 -1 34 C-5 30 -5 29 -5 23 C-5 18 -5 18 -2 15 C-2 12 -1 8 -1 5 C-1 3 -0 2 0 0 Z " fill="#505BDC" transform="translate(367,421)"/>
<path d="M0 0 C1 1 3 1 4 2 C3 5 3 7 2 10 C-0 19 -1 28 2 37 C2 38 1 40 1 41 C-7 33 -7 33 -10 29 C-8 24 -8 24 -7 22 C-6 22 -5 21 -4 21 C-4 18 -4 18 -4 15 C-4 9 -3 5 0 0 Z " fill="#C6C9D0" transform="translate(392,164)"/>
<path d="M0 0 C1 0 1 0 4 2 C10 4 15 4 22 4 C19 6 19 6 17 6 C17 7 16 9 16 10 C14 13 12 15 8 16 C4 16 2 15 -2 13 C-2 12 -3 10 -3 9 C-2 9 -2 9 -1 9 C-1 8 -1 6 -1 5 C-1 1 -1 1 0 0 Z " fill="#5E68E4" transform="translate(456,365)"/>
<path d="M0 0 C1 0 1 0 2 0 C2 1 2 1 2 2 C1 2 1 2 0 2 C0 1 0 1 0 0 Z " fill="#EBECEF" transform="translate(581,537)"/>
</svg>
