<?xml version="1.0" encoding="UTF-8"?>
<!-- Generator: visioncortex VTracer 0.6.12 -->
<svg version="1.1" xmlns="http://www.w3.org/2000/svg" width="632" height="584">
<path d="M0 0 C4 -1 4 -1 9 -1 C10 -1 10 -1 14 -1 C16 -1 18 -1 20 -0 C21 -1 21 -1 26 -1 C27 -1 29 -1 31 -1 C32 -1 32 -1 36 -1 C37 -0 37 -0 40 0 C41 1 41 3 42 4 C45 4 45 4 49 4 C53 4 53 4 56 4 C57 5 57 7 58 8 C60 8 61 8 63 8 C65 8 66 8 68 8 C69 9 69 11 70 12 C72 12 74 12 76 12 C77 13 77 15 78 16 C80 16 82 16 84 16 C85 17 85 19 86 20 C88 20 90 20 92 20 C93 21 93 23 94 24 C95 24 95 24 98 26 C98 27 98 27 98 28 C99 28 99 28 102 30 C102 31 102 31 102 32 C103 33 105 33 106 34 C106 35 106 35 106 36 C108 36 110 36 112 36 C113 37 113 39 114 40 C115 40 116 40 117 40 C117 41 117 42 117 43 C118 47 118 47 122 50 C122 51 122 51 122 52 C123 53 125 53 126 54 C126 55 126 55 126 56 C127 56 128 56 129 56 C129 57 129 58 129 59 C130 61 130 62 130 63 C131 63 132 64 133 64 C133 66 134 69 134 71 C135 71 136 72 137 72 C137 74 138 77 138 79 C139 79 140 80 141 80 C141 82 142 85 142 87 C143 87 144 88 145 88 C145 92 146 95 146 99 C147 99 148 100 149 100 C149 104 150 108 150 112 C150 113 150 114 150 115 C151 115 152 116 153 116 C153 121 154 126 154 131 C154 132 154 134 154 135 C155 135 156 136 157 136 C157 139 157 139 157 143 C157 144 157 146 157 147 C157 150 158 153 158 156 C158 157 158 159 158 160 C158 161 158 163 158 164 C158 165 158 166 158 167 C159 167 160 168 161 168 C161 174 161 180 162 185 C162 189 162 192 162 195 C163 195 164 196 165 196 C165 201 166 206 166 211 C166 212 166 214 166 215 C167 215 168 216 169 216 C169 218 169 220 169 221 C170 223 170 225 170 227 C171 228 173 229 174 230 C174 231 174 231 174 232 C181 231 181 231 184 228 C188 228 188 228 192 228 C193 228 193 228 196 228 C198 228 199 228 200 228 C201 229 201 231 202 232 C204 232 206 232 208 232 C209 233 209 235 210 236 C211 237 213 237 214 238 C214 239 214 239 214 240 C215 241 217 241 218 242 C218 243 218 243 218 244 C219 245 221 245 222 246 C222 247 222 247 222 248 C223 248 224 248 225 248 C225 249 225 250 225 251 C226 253 226 254 226 255 C227 255 228 256 229 256 C229 258 230 261 230 263 C231 263 232 264 233 264 C233 266 234 269 234 271 C235 271 236 272 237 272 C237 273 237 274 237 275 C238 279 238 279 242 282 C242 283 242 283 242 284 C243 284 244 284 245 284 C245 285 245 286 245 287 C245 288 245 288 246 291 C247 291 248 292 249 292 C249 294 250 297 250 299 C251 299 252 300 253 300 C253 301 253 302 253 303 C254 307 254 307 258 310 C258 311 258 311 258 312 C259 312 260 312 261 312 C261 313 261 313 261 315 C262 317 262 318 262 319 C263 319 264 320 265 320 C265 322 266 325 266 327 C267 327 268 328 269 328 C269 330 270 333 270 335 C271 335 272 336 273 336 C273 337 273 338 273 339 C274 343 274 343 278 346 C278 347 278 347 278 348 C279 348 280 348 281 348 C281 349 281 349 281 351 C282 353 282 354 282 355 C283 355 284 356 285 356 C285 358 286 361 286 363 C287 363 288 364 289 364 C289 366 290 369 290 371 C291 371 292 372 293 372 C293 374 294 377 294 379 C295 379 296 380 297 380 C297 381 297 382 297 383 C298 387 298 387 302 390 C302 391 302 391 302 392 C303 392 304 392 305 392 C305 393 305 393 305 395 C306 397 306 398 306 399 C307 399 308 400 309 400 C309 402 310 405 310 407 C311 407 312 408 313 408 C313 410 314 413 314 415 C315 415 316 416 317 416 C317 418 318 421 318 423 C319 423 320 424 321 424 C321 426 322 429 322 431 C323 431 324 432 325 432 C325 434 326 437 326 439 C327 439 328 440 329 440 C329 444 329 449 329 453 C329 454 329 454 329 457 C329 460 329 463 329 466 C328 466 327 466 326 466 C325 467 325 469 324 470 C323 470 323 470 322 470 C321 471 321 473 320 474 C319 474 319 474 318 474 C317 475 317 477 316 478 C315 478 315 478 314 478 C313 479 313 481 312 482 C308 482 305 482 301 482 C300 482 299 482 298 482 C296 482 293 482 291 482 C287 482 283 482 279 482 C270 482 260 482 251 482 C243 482 235 482 227 482 C223 482 219 482 216 482 C213 482 211 482 209 482 C208 482 208 482 205 482 C203 482 203 482 198 482 C197 483 197 485 196 486 C192 486 188 487 184 487 C182 487 181 487 180 487 C177 487 175 487 172 487 C168 487 164 487 160 487 C157 487 155 487 152 487 C152 487 152 487 149 487 C145 487 145 487 140 486 C139 485 139 483 138 482 C134 482 134 482 129 482 C127 482 125 482 124 482 C122 482 120 482 118 482 C116 482 114 482 112 482 C107 483 103 483 98 483 C98 484 98 486 98 487 C100 488 103 488 105 489 C105 490 106 491 106 492 C108 492 110 492 112 492 C113 493 113 495 114 496 C118 496 118 496 123 496 C124 496 124 496 129 496 C130 496 130 496 135 496 C139 496 143 496 147 496 C148 496 150 496 152 496 C153 496 155 496 156 496 C157 497 157 499 158 500 C162 500 165 500 169 500 C173 500 176 500 180 500 C181 501 181 503 182 504 C188 504 188 504 193 504 C193 507 193 511 193 514 C192 514 192 514 190 514 C188 514 187 514 186 514 C185 515 185 517 184 518 C180 518 177 518 173 518 C173 518 173 518 170 518 C169 519 169 521 168 522 C163 522 159 522 154 522 C151 522 149 522 146 522 C145 523 145 525 144 526 C141 526 141 526 136 526 C135 526 133 526 132 526 C129 526 125 526 122 526 C121 526 119 526 118 526 C117 526 117 526 113 526 C112 526 111 526 110 526 C109 527 109 529 108 530 C105 530 105 530 101 530 C100 530 100 530 96 530 C94 530 93 530 91 530 C90 530 90 530 86 530 C78 530 71 530 63 530 C58 530 53 530 47 530 C45 530 44 530 42 530 C41 530 41 530 37 530 C36 530 35 530 33 530 C32 530 31 530 30 530 C29 531 29 533 28 534 C25 535 25 535 22 534 C21 535 20 535 19 535 C18 534 18 534 16 534 C15 533 15 531 14 530 C10 530 10 530 5 530 C3 530 1 530 -1 530 C-2 530 -3 530 -4 530 C-7 530 -10 530 -13 530 C-20 530 -26 530 -33 530 C-41 530 -48 530 -56 530 C-59 530 -62 530 -65 530 C-67 530 -69 530 -71 530 C-73 530 -74 530 -76 530 C-77 530 -79 530 -80 530 C-81 529 -81 527 -82 526 C-86 526 -89 526 -93 526 C-94 526 -95 526 -96 526 C-100 526 -103 526 -107 526 C-112 526 -116 526 -121 526 C-121 526 -121 526 -124 526 C-127 526 -127 526 -132 526 C-133 525 -133 523 -134 522 C-138 522 -143 522 -147 522 C-151 522 -156 522 -160 522 C-161 521 -161 519 -162 518 C-165 518 -165 518 -169 518 C-173 518 -173 518 -176 518 C-177 517 -177 515 -178 514 C-179 513 -181 513 -182 512 C-183 511 -184 511 -185 510 C-185 509 -185 509 -185 508 C-183 506 -183 506 -180 504 C-178 504 -176 504 -174 504 C-173 503 -173 501 -172 500 C-167 500 -163 500 -158 500 C-155 500 -153 500 -150 500 C-149 499 -149 497 -148 496 C-145 496 -145 496 -141 495 C-139 495 -138 495 -136 495 C-135 495 -135 495 -132 495 C-128 495 -125 495 -122 495 C-122 495 -122 495 -118 495 C-117 495 -116 495 -115 495 C-114 494 -114 493 -113 492 C-112 492 -112 492 -111 492 C-111 493 -110 495 -110 496 C-106 495 -106 495 -104 492 C-103 492 -103 492 -99 492 C-97 492 -96 492 -94 492 C-93 491 -93 489 -92 488 C-87 487 -87 487 -82 487 C-82 486 -82 484 -82 483 C-83 483 -84 483 -85 483 C-86 483 -88 483 -89 483 C-90 483 -91 483 -93 483 C-94 482 -95 482 -96 482 C-97 481 -97 479 -98 478 C-100 478 -101 478 -103 478 C-105 478 -106 478 -108 478 C-109 477 -109 475 -110 474 C-112 474 -114 474 -116 474 C-117 473 -117 471 -118 470 C-120 470 -122 470 -124 470 C-125 469 -125 467 -126 466 C-130 465 -130 465 -134 466 C-135 465 -137 465 -138 465 C-140 466 -141 466 -142 466 C-143 467 -143 469 -144 470 C-146 470 -148 470 -150 470 C-151 471 -151 473 -152 474 C-156 474 -159 474 -163 474 C-164 474 -165 474 -166 474 C-167 475 -167 477 -168 478 C-172 478 -176 479 -180 478 C-181 479 -182 479 -183 479 C-187 479 -187 479 -192 478 C-192 477 -192 477 -194 474 C-195 473 -197 473 -198 472 C-198 471 -198 471 -198 470 C-201 470 -203 470 -206 470 C-207 470 -209 470 -210 470 C-212 470 -213 470 -214 470 C-215 471 -215 473 -216 474 C-220 474 -224 475 -228 474 C-229 475 -230 475 -231 475 C-235 475 -235 475 -240 474 C-241 473 -241 471 -242 470 C-246 470 -246 470 -249 470 C-249 469 -249 468 -249 467 C-250 465 -250 464 -250 463 C-251 463 -252 462 -253 462 C-253 457 -253 457 -253 452 C-252 452 -251 452 -250 452 C-250 451 -250 451 -248 448 C-247 448 -247 447 -246 447 C-246 443 -245 440 -245 436 C-244 436 -243 436 -242 436 C-242 435 -242 435 -240 432 C-239 432 -239 432 -238 432 C-238 431 -238 431 -236 428 C-234 428 -232 428 -230 428 C-230 427 -230 427 -228 424 C-227 424 -227 424 -226 424 C-226 423 -226 423 -224 420 C-223 420 -223 420 -222 420 C-222 419 -222 419 -220 416 C-218 416 -216 416 -214 416 C-213 415 -213 413 -212 412 C-211 412 -211 412 -210 412 C-209 411 -209 409 -208 408 C-207 408 -207 408 -206 408 C-205 407 -205 405 -204 404 C-203 404 -203 403 -202 403 C-202 399 -202 399 -202 395 C-203 395 -204 394 -205 394 C-205 390 -205 390 -205 385 C-205 383 -205 381 -205 379 C-205 378 -205 377 -205 376 C-205 373 -205 370 -205 367 C-205 365 -205 363 -205 361 C-205 360 -205 358 -205 356 C-205 355 -205 353 -205 352 C-204 352 -203 351 -202 351 C-202 347 -202 347 -202 342 C-201 336 -201 336 -201 332 C-200 332 -199 331 -198 331 C-198 329 -198 327 -198 326 C-197 324 -197 322 -197 320 C-196 320 -195 319 -194 319 C-194 317 -194 315 -194 314 C-193 312 -193 310 -193 308 C-192 308 -191 307 -190 307 C-190 305 -190 303 -190 302 C-189 300 -189 298 -189 296 C-188 296 -187 295 -186 295 C-186 294 -186 293 -186 292 C-185 290 -185 289 -185 288 C-184 288 -183 287 -182 287 C-182 286 -182 285 -182 284 C-181 282 -181 281 -181 280 C-180 280 -179 279 -178 279 C-177 275 -177 275 -177 272 C-176 272 -175 272 -174 272 C-173 271 -173 269 -172 268 C-171 268 -171 267 -170 267 C-170 265 -169 262 -169 260 C-168 260 -167 260 -166 260 C-165 259 -165 257 -164 256 C-163 256 -163 256 -162 256 C-161 255 -161 253 -160 252 C-159 252 -159 252 -158 252 C-157 251 -157 249 -156 248 C-155 248 -155 247 -154 247 C-154 246 -154 245 -154 244 C-153 243 -153 243 -153 240 C-152 240 -151 239 -150 239 C-150 238 -150 237 -150 236 C-149 234 -149 233 -149 232 C-148 232 -147 231 -146 231 C-146 229 -146 227 -146 226 C-145 224 -145 222 -145 220 C-144 220 -143 219 -142 219 C-142 217 -142 215 -142 214 C-141 212 -141 210 -141 208 C-140 208 -139 207 -138 207 C-138 205 -138 203 -138 202 C-137 200 -137 198 -137 196 C-136 196 -135 195 -134 195 C-134 192 -134 192 -134 188 C-133 183 -133 183 -133 180 C-132 180 -131 179 -130 179 C-130 175 -130 171 -130 168 C-129 164 -129 160 -129 156 C-128 156 -127 155 -126 155 C-126 151 -126 151 -126 146 C-125 140 -125 140 -125 136 C-124 136 -123 135 -122 135 C-122 132 -122 132 -122 128 C-121 123 -121 123 -121 120 C-120 120 -119 119 -118 119 C-118 116 -118 116 -118 112 C-117 107 -117 107 -117 104 C-116 104 -115 103 -114 103 C-114 102 -114 101 -114 100 C-113 98 -113 97 -113 96 C-112 96 -111 95 -110 95 C-110 93 -110 91 -110 90 C-109 88 -109 86 -109 84 C-108 84 -107 83 -106 83 C-106 82 -106 81 -106 80 C-105 78 -105 77 -105 76 C-104 76 -103 75 -102 75 C-101 71 -101 71 -101 68 C-100 68 -99 68 -98 68 C-98 67 -98 67 -96 64 C-95 64 -95 63 -94 63 C-94 61 -93 58 -93 56 C-92 56 -91 56 -90 56 C-89 55 -89 53 -88 52 C-87 52 -87 52 -86 52 C-85 51 -85 49 -84 48 C-83 48 -83 48 -82 48 C-81 47 -81 45 -80 44 C-79 44 -79 43 -78 43 C-78 41 -77 38 -77 36 C-76 36 -75 36 -74 36 C-72 36 -71 36 -70 36 C-69 35 -69 33 -68 32 C-67 32 -67 32 -66 32 C-65 31 -65 29 -64 28 C-63 28 -63 28 -62 28 C-61 27 -61 25 -60 24 C-59 24 -59 24 -58 24 C-57 23 -57 21 -56 20 C-54 20 -52 20 -50 20 C-49 19 -49 17 -48 16 C-46 16 -44 16 -42 16 C-41 15 -41 13 -40 12 C-38 12 -36 12 -34 12 C-33 11 -33 9 -32 8 C-29 8 -25 8 -22 8 C-21 7 -21 5 -20 4 C-15 4 -11 4 -6 4 C-5 4 -3 4 -2 4 C-1 3 -1 1 0 0 Z " fill="#C6C9D3" transform="translate(278,25)"/>
<path d="M0 0 C4 -1 4 -1 9 -1 C10 -1 10 -1 14 -1 C16 -1 18 -1 20 -0 C21 -1 21 -1 26 -1 C27 -1 29 -1 31 -1 C32 -1 32 -1 36 -1 C37 -0 37 -0 40 0 C41 1 41 3 42 4 C45 4 45 4 49 4 C53 4 53 4 56 4 C57 5 57 7 58 8 C60 8 61 8 63 8 C65 8 66 8 68 8 C69 9 69 11 70 12 C72 12 74 12 76 12 C77 13 77 15 78 16 C80 16 82 16 84 16 C85 17 85 19 86 20 C88 20 90 20 92 20 C93 21 93 23 94 24 C95 24 95 24 98 26 C98 27 98 27 98 28 C99 28 99 28 102 30 C102 31 102 31 102 32 C103 33 105 33 106 34 C106 35 106 35 106 36 C108 36 110 36 112 36 C113 37 113 39 114 40 C115 40 116 40 117 40 C117 41 117 42 117 43 C118 47 118 47 122 50 C122 51 122 51 122 52 C123 53 125 53 126 54 C126 55 126 55 126 56 C127 56 128 56 129 56 C129 57 129 58 129 59 C130 61 130 62 130 63 C131 63 132 64 133 64 C133 66 134 69 134 71 C135 71 136 72 137 72 C137 74 138 77 138 79 C139 79 140 80 141 80 C141 82 142 85 142 87 C143 87 144 88 145 88 C145 92 146 95 146 99 C147 99 148 100 149 100 C149 104 150 108 150 112 C150 113 150 114 150 115 C151 115 152 116 153 116 C153 121 154 126 154 131 C154 132 154 134 154 135 C155 135 156 136 157 136 C157 139 157 139 157 143 C157 144 157 146 157 147 C157 150 158 153 158 156 C158 157 158 159 158 160 C158 161 158 163 158 164 C158 165 158 166 158 167 C159 167 160 168 161 168 C161 174 161 180 162 185 C162 189 162 192 162 195 C163 195 164 196 165 196 C165 201 166 206 166 211 C166 212 166 214 166 215 C167 215 168 216 169 216 C169 218 169 220 169 221 C170 223 170 225 170 227 C171 228 173 229 174 230 C174 231 174 231 174 232 C181 231 181 231 184 228 C188 228 188 228 192 228 C193 228 193 228 196 228 C198 228 199 228 200 228 C201 229 201 231 202 232 C204 232 206 232 208 232 C209 233 209 235 210 236 C211 237 213 237 214 238 C214 239 214 239 214 240 C215 241 217 241 218 242 C218 243 218 243 218 244 C219 245 221 245 222 246 C222 247 222 247 222 248 C223 248 224 248 225 248 C225 249 225 250 225 251 C226 253 226 254 226 255 C227 255 228 256 229 256 C229 258 230 261 230 263 C231 263 232 264 233 264 C233 266 234 269 234 271 C235 271 236 272 237 272 C237 273 237 274 237 275 C238 279 238 279 242 282 C242 283 242 283 242 284 C243 284 244 284 245 284 C245 285 245 286 245 287 C245 288 245 288 246 291 C247 291 248 292 249 292 C249 294 250 297 250 299 C251 299 252 300 253 300 C253 301 253 302 253 303 C254 307 254 307 258 310 C258 311 258 311 258 312 C259 312 260 312 261 312 C261 313 261 313 261 315 C262 317 262 318 262 319 C263 319 264 320 265 320 C265 322 266 325 266 327 C267 327 268 328 269 328 C269 330 270 333 270 335 C271 335 272 336 273 336 C273 337 273 338 273 339 C274 343 274 343 278 346 C278 347 278 347 278 348 C279 348 280 348 281 348 C281 349 281 349 281 351 C282 353 282 354 282 355 C283 355 284 356 285 356 C285 358 286 361 286 363 C287 363 288 364 289 364 C289 366 290 369 290 371 C291 371 292 372 293 372 C293 374 294 377 294 379 C295 379 296 380 297 380 C297 381 297 382 297 383 C298 387 298 387 302 390 C302 391 302 391 302 392 C303 392 304 392 305 392 C305 393 305 393 305 395 C306 397 306 398 306 399 C307 399 308 400 309 400 C309 402 310 405 310 407 C311 407 312 408 313 408 C313 410 314 413 314 415 C315 415 316 416 317 416 C317 418 318 421 318 423 C319 423 320 424 321 424 C321 426 322 429 322 431 C323 431 324 432 325 432 C325 434 326 437 326 439 C327 439 328 440 329 440 C329 444 329 449 329 453 C329 454 329 454 329 457 C329 460 329 463 329 466 C328 466 327 466 326 466 C325 467 325 469 324 470 C323 470 323 470 322 470 C321 471 321 473 320 474 C319 474 319 474 318 474 C317 475 317 477 316 478 C315 478 315 478 314 478 C313 479 313 481 312 482 C308 482 305 482 301 482 C300 482 299 482 298 482 C296 482 293 482 291 482 C287 482 283 482 279 482 C270 482 260 482 251 482 C243 482 235 482 227 482 C223 482 219 482 216 482 C213 482 211 482 209 482 C208 482 208 482 205 482 C203 482 203 482 198 482 C197 483 197 485 196 486 C192 486 188 487 184 487 C182 487 181 487 180 487 C177 487 175 487 172 487 C168 487 164 487 160 487 C157 487 155 487 152 487 C152 487 152 487 149 487 C145 487 145 487 140 486 C139 485 139 483 138 482 C134 482 134 482 129 482 C127 482 125 482 124 482 C122 482 120 482 118 482 C116 482 114 482 112 482 C107 483 103 483 98 483 C98 484 98 486 98 487 C100 488 103 488 105 489 C105 490 106 491 106 492 C108 492 110 492 112 492 C113 493 113 495 114 496 C118 496 118 496 123 496 C124 496 124 496 129 496 C130 496 130 496 135 496 C139 496 143 496 147 496 C148 496 150 496 152 496 C153 496 155 496 156 496 C157 497 157 499 158 500 C162 500 165 500 169 500 C173 500 176 500 180 500 C181 501 181 503 182 504 C188 504 188 504 193 504 C193 507 193 511 193 514 C192 514 192 514 190 514 C188 514 187 514 186 514 C185 515 185 517 184 518 C180 518 177 518 173 518 C173 518 173 518 170 518 C169 519 169 521 168 522 C163 522 159 522 154 522 C151 522 149 522 146 522 C145 523 145 525 144 526 C141 526 141 526 136 526 C135 526 133 526 132 526 C129 526 125 526 122 526 C121 526 119 526 118 526 C117 526 117 526 113 526 C112 526 111 526 110 526 C109 527 109 529 108 530 C105 530 105 530 101 530 C100 530 100 530 96 530 C94 530 93 530 91 530 C90 530 90 530 86 530 C78 530 71 530 63 530 C58 530 53 530 47 530 C45 530 44 530 42 530 C41 530 41 530 37 530 C36 530 35 530 33 530 C32 530 31 530 30 530 C29 531 29 533 28 534 C25 535 25 535 22 534 C21 535 20 535 19 535 C18 534 18 534 16 534 C15 533 15 531 14 530 C10 530 10 530 5 530 C3 530 1 530 -1 530 C-2 530 -3 530 -4 530 C-7 530 -10 530 -13 530 C-20 530 -26 530 -33 530 C-41 530 -48 530 -56 530 C-59 530 -62 530 -65 530 C-67 530 -69 530 -71 530 C-73 530 -74 530 -76 530 C-77 530 -79 530 -80 530 C-81 529 -81 527 -82 526 C-86 526 -89 526 -93 526 C-94 526 -95 526 -96 526 C-100 526 -103 526 -107 526 C-112 526 -116 526 -121 526 C-121 526 -121 526 -124 526 C-127 526 -127 526 -132 526 C-133 525 -133 523 -134 522 C-138 522 -143 522 -147 522 C-151 522 -156 522 -160 522 C-161 521 -161 519 -162 518 C-165 518 -165 518 -169 518 C-173 518 -173 518 -176 518 C-177 517 -177 515 -178 514 C-179 513 -181 513 -182 512 C-183 511 -184 511 -185 510 C-185 509 -185 509 -185 508 C-183 506 -183 506 -180 504 C-178 504 -176 504 -174 504 C-173 503 -173 501 -172 500 C-167 500 -163 500 -158 500 C-155 500 -153 500 -150 500 C-149 499 -149 497 -148 496 C-145 496 -145 496 -141 495 C-139 495 -138 495 -136 495 C-135 495 -135 495 -132 495 C-128 495 -125 495 -122 495 C-122 495 -122 495 -118 495 C-117 495 -116 495 -115 495 C-114 494 -114 493 -113 492 C-112 492 -112 492 -111 492 C-111 493 -110 495 -110 496 C-106 495 -106 495 -104 492 C-103 492 -103 492 -99 492 C-97 492 -96 492 -94 492 C-93 491 -93 489 -92 488 C-87 487 -87 487 -82 487 C-82 486 -82 484 -82 483 C-83 483 -84 483 -85 483 C-86 483 -88 483 -89 483 C-90 483 -91 483 -93 483 C-94 482 -95 482 -96 482 C-97 481 -97 479 -98 478 C-100 478 -101 478 -103 478 C-105 478 -106 478 -108 478 C-109 477 -109 475 -110 474 C-112 474 -114 474 -116 474 C-117 473 -117 471 -118 470 C-120 470 -122 470 -124 470 C-125 469 -125 467 -126 466 C-130 465 -130 465 -134 466 C-135 465 -137 465 -138 465 C-140 466 -141 466 -142 466 C-143 467 -143 469 -144 470 C-146 470 -148 470 -150 470 C-151 471 -151 473 -152 474 C-156 474 -159 474 -163 474 C-164 474 -165 474 -166 474 C-167 475 -167 477 -168 478 C-172 478 -176 479 -180 478 C-181 479 -182 479 -183 479 C-187 479 -187 479 -192 478 C-192 477 -192 477 -194 474 C-195 473 -197 473 -198 472 C-198 471 -198 471 -198 470 C-201 470 -203 470 -206 470 C-207 470 -209 470 -210 470 C-212 470 -213 470 -214 470 C-215 471 -215 473 -216 474 C-220 474 -224 475 -228 474 C-229 475 -230 475 -231 475 C-235 475 -235 475 -240 474 C-241 473 -241 471 -242 470 C-246 470 -246 470 -249 470 C-249 469 -249 468 -249 467 C-250 465 -250 464 -250 463 C-251 463 -252 462 -253 462 C-253 457 -253 457 -253 452 C-252 452 -251 452 -250 452 C-250 451 -250 451 -248 448 C-247 448 -247 447 -246 447 C-246 443 -245 440 -245 436 C-244 436 -243 436 -242 436 C-242 435 -242 435 -240 432 C-239 432 -239 432 -238 432 C-238 431 -238 431 -236 428 C-234 428 -232 428 -230 428 C-230 427 -230 427 -228 424 C-227 424 -227 424 -226 424 C-226 423 -226 423 -224 420 C-223 420 -223 420 -222 420 C-222 419 -222 419 -220 416 C-218 416 -216 416 -214 416 C-213 415 -213 413 -212 412 C-211 412 -211 412 -210 412 C-209 411 -209 409 -208 408 C-207 408 -207 408 -206 408 C-205 407 -205 405 -204 404 C-203 404 -203 403 -202 403 C-202 399 -202 399 -202 395 C-203 395 -204 394 -205 394 C-205 390 -205 390 -205 385 C-205 383 -205 381 -205 379 C-205 378 -205 377 -205 376 C-205 373 -205 370 -205 367 C-205 365 -205 363 -205 361 C-205 360 -205 358 -205 356 C-205 355 -205 353 -205 352 C-204 352 -203 351 -202 351 C-202 347 -202 347 -202 342 C-201 336 -201 336 -201 332 C-200 332 -199 331 -198 331 C-198 329 -198 327 -198 326 C-197 324 -197 322 -197 320 C-196 320 -195 319 -194 319 C-194 317 -194 315 -194 314 C-193 312 -193 310 -193 308 C-192 308 -191 307 -190 307 C-190 305 -190 303 -190 302 C-189 300 -189 298 -189 296 C-188 296 -187 295 -186 295 C-186 294 -186 293 -186 292 C-185 290 -185 289 -185 288 C-184 288 -183 287 -182 287 C-182 286 -182 285 -182 284 C-181 282 -181 281 -181 280 C-180 280 -179 279 -178 279 C-177 275 -177 275 -177 272 C-176 272 -175 272 -174 272 C-173 271 -173 269 -172 268 C-171 268 -171 267 -170 267 C-170 265 -169 262 -169 260 C-168 260 -167 260 -166 260 C-165 259 -165 257 -164 256 C-163 256 -163 256 -162 256 C-161 255 -161 253 -160 252 C-159 252 -159 252 -158 252 C-157 251 -157 249 -156 248 C-155 248 -155 247 -154 247 C-154 246 -154 245 -154 244 C-153 243 -153 243 -153 240 C-152 240 -151 239 -150 239 C-150 238 -150 237 -150 236 C-149 234 -149 233 -149 232 C-148 232 -147 231 -146 231 C-146 229 -146 227 -146 226 C-145 224 -145 222 -145 220 C-144 220 -143 219 -142 219 C-142 217 -142 215 -142 214 C-141 212 -141 210 -141 208 C-140 208 -139 207 -138 207 C-138 205 -138 203 -138 202 C-137 200 -137 198 -137 196 C-136 196 -135 195 -134 195 C-134 192 -134 192 -134 188 C-133 183 -133 183 -133 180 C-132 180 -131 179 -130 179 C-130 175 -130 171 -130 168 C-129 164 -129 160 -129 156 C-128 156 -127 155 -126 155 C-126 151 -126 151 -126 146 C-125 140 -125 140 -125 136 C-124 136 -123 135 -122 135 C-122 132 -122 132 -122 128 C-121 123 -121 123 -121 120 C-120 120 -119 119 -118 119 C-118 116 -118 116 -118 112 C-117 107 -117 107 -117 104 C-116 104 -115 103 -114 103 C-114 102 -114 101 -114 100 C-113 98 -113 97 -113 96 C-112 96 -111 95 -110 95 C-110 93 -110 91 -110 90 C-109 88 -109 86 -109 84 C-108 84 -107 83 -106 83 C-106 82 -106 81 -106 80 C-105 78 -105 77 -105 76 C-104 76 -103 75 -102 75 C-101 71 -101 71 -101 68 C-100 68 -99 68 -98 68 C-98 67 -98 67 -96 64 C-95 64 -95 63 -94 63 C-94 61 -93 58 -93 56 C-92 56 -91 56 -90 56 C-89 55 -89 53 -88 52 C-87 52 -87 52 -86 52 C-85 51 -85 49 -84 48 C-83 48 -83 48 -82 48 C-81 47 -81 45 -80 44 C-79 44 -79 43 -78 43 C-78 41 -77 38 -77 36 C-76 36 -75 36 -74 36 C-72 36 -71 36 -70 36 C-69 35 -69 33 -68 32 C-67 32 -67 32 -66 32 C-65 31 -65 29 -64 28 C-63 28 -63 28 -62 28 C-61 27 -61 25 -60 24 C-59 24 -59 24 -58 24 C-57 23 -57 21 -56 20 C-54 20 -52 20 -50 20 C-49 19 -49 17 -48 16 C-46 16 -44 16 -42 16 C-41 15 -41 13 -40 12 C-38 12 -36 12 -34 12 C-33 11 -33 9 -32 8 C-29 8 -25 8 -22 8 C-21 7 -21 5 -20 4 C-15 4 -11 4 -6 4 C-5 4 -3 4 -2 4 C-1 3 -1 1 0 0 Z M-30 23 C-31 23 -31 23 -33 24 C-64 36 -83 63 -96 92 C-97 93 -97 95 -98 96 C-107 115 -112 136 -114 156 C-117 181 -121 212 -134 233 C-136 237 -136 238 -135 242 C-135 243 -135 243 -133 246 C-136 251 -141 253 -146 256 C-148 258 -149 259 -151 261 C-152 262 -152 262 -153 263 C-165 277 -175 296 -181 314 C-181 315 -181 315 -183 318 C-184 322 -185 325 -186 329 C-188 339 -188 339 -189 342 C-189 346 -189 350 -189 353 C-189 357 -189 357 -191 362 C-191 363 -191 364 -191 365 C-192 365 -192 365 -193 365 C-193 368 -193 371 -193 375 C-193 376 -193 378 -193 380 C-193 385 -193 387 -189 390 C-188 391 -187 393 -186 394 C-187 397 -187 400 -188 403 C-190 410 -190 418 -187 424 C-186 424 -186 424 -185 424 C-185 425 -185 425 -185 426 C-179 426 -177 426 -172 422 C-171 421 -169 420 -168 419 C-168 418 -168 418 -168 417 C-167 417 -166 416 -165 416 C-164 415 -164 415 -162 412 C-158 408 -158 408 -153 406 C-152 406 -151 406 -150 406 C-150 407 -150 408 -150 409 C-151 409 -151 409 -152 409 C-153 412 -155 415 -156 418 C-157 419 -157 421 -158 422 C-158 429 -158 431 -155 437 C-151 439 -149 438 -145 437 C-135 432 -130 427 -124 418 C-124 416 -123 415 -123 413 C-122 413 -122 413 -118 413 C-112 413 -112 413 -109 410 C-100 400 -92 390 -88 377 C-87 376 -87 374 -86 373 C-84 366 -82 360 -81 353 C-80 351 -80 349 -79 347 C-78 343 -78 339 -78 335 C-78 334 -78 332 -78 330 C-78 327 -77 324 -77 321 C-77 319 -77 317 -77 316 C-77 314 -77 313 -77 311 C-77 308 -77 308 -76 305 C-74 305 -73 306 -71 306 C-62 327 -69 360 -77 380 C-81 390 -87 399 -94 408 C-95 409 -96 411 -97 412 C-105 423 -116 431 -127 438 C-129 440 -129 440 -132 443 C-132 446 -132 446 -131 449 C-128 451 -125 453 -122 455 C-121 456 -120 456 -119 457 C-111 461 -102 465 -94 468 C-93 468 -92 468 -91 469 C-85 471 -81 471 -75 470 C-74 469 -74 469 -73 468 C-69 469 -69 469 -65 471 C-58 475 -53 476 -46 477 C-45 477 -43 478 -42 478 C-29 479 -16 479 -3 479 C-2 479 -2 479 3 479 C25 479 25 479 33 477 C38 476 43 475 49 475 C52 474 52 474 56 470 C56 467 56 467 55 463 C54 449 56 438 64 426 C66 422 68 418 70 414 C74 407 78 399 82 392 C84 388 87 383 89 379 C91 376 93 372 95 369 C98 363 102 356 105 350 C109 344 112 338 115 332 C117 329 119 325 121 322 C123 317 125 314 128 310 C134 301 139 293 141 282 C143 280 143 280 146 278 C147 275 149 273 150 270 C150 269 150 269 153 266 C154 263 156 261 157 258 C157 257 158 255 159 254 C160 250 160 250 160 247 C161 247 161 247 162 247 C163 242 163 239 160 234 C154 219 151 202 149 185 C148 180 148 180 147 178 C146 172 146 167 145 161 C144 147 144 147 142 141 C141 141 139 140 138 140 C137 141 137 142 136 143 C131 140 131 140 130 137 C130 136 130 135 130 134 C128 125 123 116 116 111 C104 106 104 106 98 108 C87 114 82 120 78 132 C78 133 79 135 79 136 C81 136 83 136 85 136 C88 139 88 139 90 143 C93 145 93 145 99 145 C104 143 105 141 107 137 C108 135 108 134 109 133 C113 133 113 133 116 134 C121 141 120 151 119 159 C116 170 113 177 103 183 C97 184 93 184 88 183 C83 180 79 177 76 171 C74 161 73 148 78 139 C78 138 77 136 77 135 C72 138 70 139 69 144 C68 149 68 149 68 155 C67 155 67 156 66 156 C65 160 65 160 64 164 C66 167 66 167 68 169 C71 172 71 172 74 176 C75 176 75 176 76 176 C77 177 77 179 78 180 C79 181 79 182 80 183 C82 188 81 192 81 197 C79 201 76 203 72 205 C66 208 64 210 62 215 C56 228 56 228 50 233 C45 234 42 233 37 231 C32 226 30 222 27 216 C23 208 19 202 13 195 C13 194 12 194 12 193 C10 193 8 192 6 192 C5 192 4 191 3 191 C3 192 3 192 3 193 C2 193 2 192 1 192 C1 188 1 188 2 185 C-3 185 -4 186 -7 189 C-7 190 -7 190 -7 191 C-22 196 -34 193 -48 186 C-57 178 -61 167 -63 155 C-64 141 -57 127 -48 117 C-39 109 -31 106 -19 107 C-11 107 -6 111 -1 117 C-0 118 1 119 2 120 C2 121 3 122 4 123 C9 121 9 121 12 119 C14 119 15 119 17 119 C24 118 28 116 32 111 C36 108 38 108 42 108 C43 108 43 109 44 109 C48 109 50 110 54 107 C55 106 56 105 57 104 C59 103 61 102 63 101 C69 98 74 95 79 91 C80 91 80 91 82 89 C85 87 85 87 88 84 C94 79 101 75 109 75 C110 74 111 74 112 74 C113 69 113 69 112 64 C111 64 111 64 110 64 C109 62 109 61 108 59 C106 56 106 56 103 54 C102 53 101 52 100 51 C98 49 98 49 96 48 C96 47 97 46 97 45 C97 44 97 43 97 42 C92 37 87 34 81 30 C78 29 76 28 74 26 C42 10 3 9 -30 23 Z " fill="#101012" transform="translate(278,25)"/>
<path d="M0 0 C6 5 9 12 12 19 C14 23 16 26 18 30 C23 38 27 47 32 56 C35 63 40 70 44 77 C52 88 58 99 64 111 C67 118 70 125 74 131 C75 132 75 134 76 135 C80 142 84 149 88 156 C93 164 97 172 101 180 C101 181 101 181 104 185 C104 187 105 189 106 190 C107 192 108 193 108 195 C111 201 111 206 110 212 C107 218 103 222 97 225 C94 225 91 225 88 225 C86 225 85 225 83 225 C81 225 79 225 76 225 C74 225 72 225 70 225 C63 225 55 225 48 225 C48 225 48 225 45 225 C33 225 22 225 10 225 C-5 225 -19 225 -34 226 C-45 226 -55 226 -65 226 C-72 226 -78 226 -84 226 C-90 226 -96 226 -101 226 C-104 226 -106 226 -108 226 C-111 226 -114 226 -117 226 C-118 226 -120 226 -122 226 C-128 225 -132 221 -136 216 C-140 211 -141 207 -140 201 C-137 192 -132 184 -128 176 C-125 171 -123 167 -121 163 C-118 156 -114 150 -110 144 C-105 135 -100 126 -95 116 C-92 110 -88 103 -84 97 C-79 89 -74 81 -71 72 C-65 61 -59 50 -52 39 C-50 36 -48 33 -47 30 C-46 29 -45 27 -44 26 C-43 26 -43 26 -42 26 C-42 25 -42 25 -41 22 C-37 12 -32 4 -23 -2 C-14 -5 -8 -4 0 0 Z " fill="#F7AF27" transform="translate(484,271)"/>
<path d="M0 0 C1 0 3 1 4 1 C14 5 22 9 30 15 C32 16 33 17 35 18 C38 20 38 20 41 23 C41 24 41 25 40 26 C40 26 40 26 40 29 C44 32 44 32 48 36 C54 43 54 43 54 45 C55 45 55 45 56 45 C57 49 57 51 56 55 C55 55 53 56 52 56 C41 58 33 64 25 71 C22 73 18 75 15 77 C14 78 12 79 11 80 C8 81 5 83 2 85 C-2 87 -2 87 -5 90 C-9 90 -12 90 -16 89 C-20 89 -22 90 -25 93 C-26 94 -27 95 -28 96 C-31 99 -33 99 -38 99 C-44 100 -46 101 -50 104 C-54 102 -54 102 -56 99 C-60 93 -65 91 -71 88 C-74 88 -77 88 -80 88 C-81 88 -83 88 -84 88 C-94 88 -101 94 -107 101 C-115 112 -120 126 -118 139 C-117 145 -116 150 -114 155 C-119 157 -123 159 -128 160 C-133 161 -134 162 -137 166 C-139 170 -141 173 -142 177 C-146 184 -156 186 -163 188 C-168 188 -168 188 -171 187 C-171 186 -171 186 -171 185 C-172 185 -172 185 -179 187 C-179 179 -177 172 -175 165 C-173 156 -172 147 -170 138 C-169 126 -166 114 -163 103 C-163 102 -162 100 -162 99 C-151 63 -132 29 -100 10 C-69 -6 -33 -11 0 0 Z " fill="#C7CAD4" transform="translate(334,44)"/>
<path d="M0 0 C13 7 23 23 29 36 C30 37 30 38 31 39 C39 57 45 77 45 97 C44 97 43 98 42 98 C41 99 41 100 40 101 C37 100 37 100 34 97 C33 94 33 94 33 91 C31 82 26 75 20 69 C8 64 8 64 2 66 C-7 71 -12 76 -16 85 C-17 89 -17 89 -17 93 C-16 93 -15 93 -14 92 C-13 92 -12 92 -11 92 C-7 96 -7 96 -6 100 C0 101 2 101 8 98 C10 94 10 94 12 90 C13 89 13 89 16 89 C20 90 20 90 22 93 C26 105 25 116 20 127 C17 134 13 137 7 141 C1 142 -3 142 -8 141 C-16 136 -20 132 -22 123 C-23 114 -23 104 -19 96 C-19 95 -19 94 -19 93 C-19 93 -19 93 -21 95 C-24 97 -24 97 -26 97 C-27 102 -27 108 -27 113 C-28 113 -28 113 -29 113 C-30 117 -30 117 -31 121 C-29 124 -29 124 -26 126 C-25 128 -23 130 -22 132 C-21 133 -20 134 -19 134 C-15 139 -14 142 -14 148 C-14 155 -15 156 -19 160 C-27 165 -27 165 -30 165 C-32 169 -32 169 -34 174 C-36 181 -40 186 -46 191 C-51 192 -54 191 -59 189 C-64 184 -67 179 -70 173 C-74 165 -78 159 -84 152 C-84 151 -84 151 -84 150 C-85 150 -86 151 -87 151 C-89 150 -90 150 -92 149 C-93 149 -95 149 -96 149 C-96 147 -95 144 -95 142 C-99 144 -99 144 -102 146 C-108 152 -116 152 -124 152 C-134 150 -144 146 -150 139 C-157 129 -161 118 -160 106 C-157 91 -152 79 -140 69 C-136 67 -136 67 -133 65 C-132 64 -130 64 -129 63 C-119 62 -110 62 -102 68 C-101 69 -100 69 -99 70 C-97 72 -97 72 -94 76 C-94 77 -93 78 -92 79 C-87 77 -87 77 -84 75 C-83 75 -83 75 -79 75 C-73 74 -73 74 -68 71 C-67 71 -67 71 -66 71 C-66 71 -66 71 -65 68 C-63 66 -63 66 -59 64 C-57 64 -54 64 -52 65 C-45 65 -45 65 -42 63 C-41 62 -40 61 -39 60 C-37 59 -35 58 -33 57 C-27 54 -22 51 -17 47 C-16 46 -15 46 -14 45 C-11 43 -11 43 -8 40 C-1 34 7 31 16 31 C16 28 16 24 16 21 C15 21 15 21 14 21 C13 20 12 19 11 18 C9 14 6 12 3 9 C2 8 0 6 -1 5 C-1 3 -0 2 0 0 Z " fill="#C7CAD4" transform="translate(374,68)"/>
<path d="M0 0 C3 1 3 1 7 2 C9 2 10 2 12 2 C25 7 38 16 45 27 C46 27 46 28 47 28 C49 32 50 35 51 39 C52 40 52 41 53 42 C54 44 55 47 56 50 C57 51 57 53 58 55 C59 58 59 58 59 61 C59 61 59 61 56 60 C55 64 55 67 55 71 C55 71 55 71 55 75 C55 78 55 82 54 85 C54 105 54 105 51 108 C51 110 50 112 50 114 C48 121 46 127 43 134 C42 136 42 137 41 139 C36 150 29 161 20 168 C19 168 19 168 14 168 C13 168 13 168 9 168 C8 171 8 171 7 175 C1 184 -6 189 -16 193 C-20 193 -20 193 -23 192 C-27 186 -27 184 -26 177 C-24 172 -24 172 -21 167 C-21 166 -20 165 -20 164 C-19 164 -19 164 -18 164 C-18 163 -18 162 -18 161 C-24 161 -24 161 -28 165 C-29 166 -30 167 -31 169 C-32 170 -33 171 -34 172 C-35 172 -35 172 -36 172 C-36 173 -37 174 -37 175 C-42 179 -46 182 -53 181 C-53 180 -53 180 -53 179 C-54 179 -55 178 -56 178 C-58 170 -58 163 -55 155 C-55 153 -54 151 -54 149 C-56 147 -57 145 -59 143 C-63 136 -61 127 -61 120 C-60 120 -60 120 -59 120 C-59 119 -59 118 -59 117 C-58 115 -58 112 -57 110 C-57 108 -57 106 -57 104 C-57 95 -55 87 -52 79 C-52 78 -51 76 -51 75 C-50 71 -50 71 -48 68 C-48 67 -47 66 -47 64 C-40 44 -27 18 -7 7 C-4 5 -4 5 -2 2 C-1 1 -1 1 0 0 Z " fill="#888DA0" transform="translate(146,270)"/>
<path d="M0 0 C10 4 16 12 20 21 C20 22 20 22 21 27 C21 28 21 28 22 32 C24 33 25 34 27 35 C28 34 28 33 29 32 C30 32 30 32 33 33 C34 37 35 41 35 45 C35 46 36 47 36 48 C36 53 37 59 37 64 C38 69 39 74 40 79 C41 83 41 86 42 90 C44 103 47 117 52 129 C54 133 54 135 53 139 C52 139 52 139 51 139 C51 141 50 142 50 144 C47 152 43 160 38 167 C37 168 37 170 36 171 C35 172 33 173 32 174 C32 175 31 177 31 178 C30 184 27 189 24 195 C23 196 22 197 22 198 C20 200 19 203 17 205 C16 205 15 204 14 204 C14 204 15 203 15 203 C15 203 15 203 12 201 C13 199 14 198 15 196 C13 195 12 195 10 194 C5 192 3 190 -1 185 C-3 184 -6 183 -8 182 C-9 181 -9 181 -11 179 C-15 176 -15 176 -19 176 C-21 175 -22 175 -23 175 C-23 174 -24 173 -24 172 C-26 167 -30 165 -34 162 C-40 159 -44 160 -49 161 C-50 161 -50 161 -52 161 C-52 160 -53 160 -53 159 C-52 159 -52 159 -51 159 C-51 152 -53 147 -57 141 C-57 140 -57 138 -57 137 C-58 137 -59 136 -60 136 C-60 135 -60 133 -60 132 C-61 132 -61 132 -65 134 C-66 131 -66 129 -67 126 C-66 126 -65 126 -63 126 C-58 125 -57 124 -53 120 C-50 115 -48 111 -46 106 C-44 101 -41 99 -36 96 C-31 93 -31 93 -28 89 C-27 81 -28 77 -33 70 C-33 69 -33 69 -33 68 C-34 67 -36 67 -37 66 C-38 65 -38 63 -39 62 C-40 61 -41 60 -42 59 C-44 57 -44 57 -44 54 C-43 52 -43 49 -42 47 C-42 47 -41 47 -41 47 C-41 46 -41 44 -41 43 C-41 36 -41 36 -39 32 C-35 29 -35 29 -32 27 C-31 31 -31 31 -33 35 C-34 46 -36 57 -31 67 C-26 72 -22 75 -15 76 C-8 76 -4 74 1 70 C8 60 12 51 11 39 C10 34 9 30 7 26 C4 25 4 25 0 25 C-3 29 -3 29 -5 34 C-10 37 -10 37 -16 37 C-20 33 -20 33 -22 29 C-25 28 -25 28 -30 28 C-31 22 -29 19 -27 14 C-21 4 -12 -2 0 0 Z " fill="#C7CAD4" transform="translate(387,133)"/>
<path d="M0 0 C1 3 1 3 0 7 C-3 9 -3 9 -6 11 C-13 14 -13 14 -15 18 C-14 22 -14 22 -11 24 C-6 24 -2 24 2 23 C9 23 11 25 16 29 C21 31 24 32 29 32 C29 31 29 31 29 30 C30 30 30 30 31 30 C31 29 32 28 32 27 C36 24 40 25 46 26 C49 26 49 26 53 23 C54 18 54 17 52 12 C58 12 65 12 71 12 C73 12 75 12 77 12 C79 12 80 12 82 12 C83 12 83 12 87 12 C88 12 88 12 91 12 C92 13 92 15 93 16 C97 16 100 16 104 16 C108 16 111 16 115 16 C116 17 116 19 117 20 C123 20 123 20 128 20 C128 23 128 27 128 30 C127 30 126 30 125 30 C123 30 122 30 121 30 C120 31 120 33 119 34 C115 34 112 34 108 34 C107 34 106 34 105 34 C104 35 104 37 103 38 C98 38 94 38 89 38 C86 38 84 38 81 38 C80 39 80 41 79 42 C76 42 76 42 71 42 C70 42 68 42 67 42 C64 42 60 42 57 42 C56 42 54 42 53 42 C51 42 50 42 48 42 C47 42 46 42 45 42 C44 43 44 45 43 46 C40 46 40 46 36 46 C34 46 33 46 31 46 C29 46 28 46 26 46 C24 46 22 46 21 46 C13 46 6 46 -2 46 C-7 46 -12 46 -18 46 C-20 46 -21 46 -23 46 C-24 46 -26 46 -28 46 C-29 46 -30 46 -32 46 C-33 46 -34 46 -35 46 C-36 47 -36 49 -37 50 C-40 51 -40 51 -43 50 C-44 51 -45 51 -46 51 C-47 50 -48 50 -49 50 C-49 49 -49 49 -51 46 C-55 46 -55 46 -60 46 C-62 46 -64 46 -66 46 C-67 46 -68 46 -69 46 C-72 46 -75 46 -78 46 C-85 46 -91 46 -98 46 C-106 46 -113 46 -121 46 C-124 46 -127 46 -130 46 C-132 46 -134 46 -136 46 C-137 46 -137 46 -141 46 C-142 46 -144 46 -145 46 C-145 45 -145 45 -147 42 C-151 42 -154 42 -158 42 C-159 42 -160 42 -161 42 C-165 42 -168 42 -172 42 C-177 42 -181 42 -186 42 C-187 42 -188 42 -189 42 C-192 42 -192 42 -197 42 C-198 41 -198 39 -199 38 C-203 38 -208 38 -212 38 C-216 38 -221 38 -225 38 C-226 37 -226 35 -227 34 C-230 34 -230 34 -234 34 C-238 34 -238 34 -241 34 C-242 33 -242 31 -243 30 C-244 29 -246 29 -247 28 C-248 27 -249 27 -250 26 C-250 25 -250 25 -250 24 C-248 22 -248 22 -245 20 C-243 20 -241 20 -239 20 C-238 19 -238 17 -237 16 C-232 16 -228 16 -223 16 C-220 16 -218 16 -215 16 C-214 15 -214 13 -213 12 C-210 12 -210 12 -206 11 C-204 11 -203 11 -201 11 C-200 11 -200 11 -196 11 C-193 11 -190 11 -187 11 C-187 11 -187 11 -183 11 C-182 11 -181 11 -180 11 C-179 10 -179 9 -178 8 C-177 8 -177 8 -176 8 C-176 9 -176 9 -175 12 C-171 11 -171 11 -169 8 C-167 8 -166 8 -164 8 C-164 9 -164 9 -164 10 C-167 12 -169 13 -172 15 C-174 19 -175 21 -174 25 C-169 28 -168 28 -162 27 C-161 27 -160 26 -159 26 C-157 26 -154 26 -152 26 C-152 27 -152 27 -152 28 C-152 28 -152 28 -149 29 C-148 31 -147 32 -146 34 C-142 35 -140 34 -136 32 C-133 30 -133 30 -130 26 C-124 25 -120 25 -114 27 C-110 27 -110 27 -107 27 C-106 26 -104 24 -103 23 C-103 21 -103 19 -103 17 C-108 13 -113 10 -119 9 C-118 9 -118 8 -117 8 C-117 7 -117 7 -117 6 C-117 6 -117 6 -119 5 C-112 5 -106 5 -99 6 C-91 7 -84 7 -76 7 C-75 7 -74 7 -72 7 C-52 7 -32 4 -12 -0 C-4 -2 -4 -2 0 0 Z " fill="#D8DAE2" transform="translate(343,509)"/>
<path d="M0 0 C4 3 5 6 8 10 C19 18 30 21 44 19 C49 18 49 18 52 17 C52 16 53 15 53 14 C55 12 55 12 58 10 C59 10 60 11 61 11 C61 13 60 16 60 18 C61 18 61 19 62 19 C62 18 63 18 63 17 C64 17 65 18 66 18 C69 19 69 19 71 19 C74 22 75 25 76 29 C75 31 75 32 74 34 C75 34 75 34 76 34 C76 36 76 37 76 39 C75 39 73 40 72 40 C71 41 70 43 69 44 C63 53 56 56 46 59 C45 59 45 59 42 61 C39 61 35 62 32 62 C32 62 32 62 29 63 C28 62 26 62 25 61 C25 61 25 61 24 58 C22 53 18 51 14 48 C7 45 0 44 -7 46 C-11 49 -12 51 -14 55 C-13 60 -13 60 -12 62 C-11 62 -9 62 -8 62 C-6 62 -5 62 -3 62 C-1 65 -1 65 0 70 C6 70 6 70 9 69 C13 73 13 73 13 76 C12 82 9 85 5 89 C4 89 2 89 1 89 C1 91 0 92 0 94 C-3 97 -3 97 -6 98 C-10 99 -10 99 -13 101 C-15 103 -15 103 -20 103 C-22 102 -23 101 -25 100 C-26 99 -28 99 -29 98 C-30 97 -31 96 -32 94 C-35 90 -39 87 -44 84 C-45 83 -47 82 -48 81 C-56 76 -62 74 -71 73 C-75 71 -75 71 -77 66 C-76 61 -74 58 -72 53 C-70 48 -68 43 -67 37 C-67 36 -67 36 -65 32 C-60 30 -60 30 -56 30 C-56 31 -56 31 -56 32 C-55 32 -53 31 -52 31 C-51 31 -49 32 -48 32 C-44 31 -44 31 -40 29 C-38 29 -37 28 -35 28 C-29 25 -27 20 -24 14 C-22 9 -20 6 -15 4 C-12 3 -9 3 -6 2 C-5 2 -4 1 -3 1 C-2 0 -1 0 0 0 Z " fill="#C2C5D1" transform="translate(219,199)"/>
<path d="M0 0 C5 2 7 4 10 8 C15 14 22 16 29 18 C34 18 38 16 43 14 C43 13 44 12 45 10 C45 10 45 10 50 9 C50 9 50 8 50 7 C49 7 48 7 48 7 C48 7 48 6 48 5 C49 5 50 5 52 5 C53 5 54 5 55 4 C58 5 58 5 62 6 C62 7 62 8 62 8 C63 9 64 9 66 9 C67 11 68 12 70 13 C66 19 62 23 57 26 C58 30 58 30 62 33 C68 35 68 35 71 34 C72 33 73 33 74 32 C75 32 77 32 78 31 C83 30 84 29 87 25 C90 24 90 24 93 24 C96 26 96 26 97 29 C99 32 102 34 105 36 C111 43 111 43 111 45 C111 45 112 45 113 45 C113 49 114 51 113 55 C111 55 110 56 108 56 C97 58 90 64 82 71 C78 73 75 75 72 77 C71 78 71 78 68 80 C65 82 62 83 59 85 C55 87 55 87 52 90 C48 90 45 90 41 89 C36 89 35 90 32 93 C31 94 30 95 29 96 C25 99 23 99 18 100 C13 100 11 101 7 104 C3 102 3 102 0 99 C-3 95 -5 93 -9 90 C-9 90 -9 89 -8 88 C-8 88 -7 88 -6 88 C-6 87 -6 85 -5 83 C-2 77 2 74 8 71 C12 68 14 65 18 61 C18 61 18 61 23 60 C23 59 23 58 23 56 C20 55 18 54 16 53 C13 51 11 49 8 47 C6 45 3 43 -0 42 C-7 38 -12 33 -17 27 C-17 27 -17 26 -17 25 C-19 25 -20 24 -21 23 C-26 21 -29 19 -32 15 C-32 15 -32 14 -32 13 C-33 13 -34 13 -34 12 C-28 7 -28 7 -24 7 C-24 7 -24 6 -23 5 C-23 5 -22 5 -21 5 C-20 5 -19 4 -18 3 C-12 3 -12 3 -8 4 C-8 4 -7 3 -6 2 C-3 0 -3 0 0 0 Z " fill="#C1C4D0" transform="translate(277.4375,43.8125)"/>
<path d="M0 0 C6 5 9 12 12 19 C14 23 16 26 18 30 C23 38 27 47 32 56 C35 63 40 70 44 77 C51 87 58 98 63 110 C63 111 62 112 62 113 C60 112 59 110 57 109 C57 108 57 108 57 107 C56 107 55 107 54 107 C54 108 54 108 52 111 C48 114 46 113 41 114 C33 114 29 116 23 121 C18 123 15 122 10 121 C10 122 10 122 9 125 C8 130 8 130 5 135 C5 136 5 136 5 139 C4 140 4 141 4 142 C3 142 3 142 0 144 C-0 135 1 126 1 118 C2 111 2 103 3 96 C3 92 3 89 4 85 C4 77 4 69 -0 62 C-5 59 -8 58 -13 58 C-19 58 -22 59 -26 62 C-30 66 -31 69 -31 75 C-31 76 -31 78 -31 79 C-31 81 -31 82 -31 83 C-31 84 -31 84 -31 88 C-31 91 -31 95 -31 98 C-32 97 -32 95 -33 94 C-34 94 -34 94 -35 94 C-35 89 -36 83 -36 78 C-37 78 -37 78 -38 78 C-38 80 -39 81 -39 83 C-44 81 -48 79 -52 76 C-56 74 -60 72 -65 71 C-65 72 -65 72 -65 73 C-66 73 -66 73 -67 73 C-67 74 -67 75 -67 76 C-70 78 -70 78 -73 79 C-71 71 -67 65 -63 58 C-63 57 -62 56 -61 55 C-58 48 -54 42 -50 36 C-48 33 -47 31 -46 29 C-45 28 -45 27 -44 26 C-43 26 -43 26 -42 26 C-42 25 -41 24 -41 22 C-37 12 -32 4 -23 -2 C-14 -5 -8 -4 0 0 Z " fill="#FCB82D" transform="translate(484,271)"/>
<path d="M0 0 C5 2 5 2 9 5 C10 6 11 6 12 7 C20 15 26 27 27 39 C27 43 27 47 27 52 C27 53 27 54 27 56 C26 65 22 71 16 78 C12 81 12 81 9 83 C8 84 7 85 6 86 C-4 90 -13 90 -23 86 C-34 81 -40 75 -45 64 C-51 49 -49 37 -43 23 C-38 14 -31 7 -22 2 C-15 -1 -8 -1 0 0 Z " fill="#EDEDF0" transform="translate(263,131)"/>
<path d="M0 0 C1 2 2 3 3 5 C8 9 12 9 17 10 C24 12 28 14 33 18 C38 19 38 19 41 20 C39 25 36 27 32 30 C23 39 19 53 19 66 C20 73 22 79 24 85 C19 87 15 89 10 90 C5 91 4 92 1 96 C-1 100 -3 103 -4 107 C-8 114 -18 116 -25 118 C-30 118 -30 118 -33 117 C-33 116 -33 116 -33 115 C-34 115 -34 115 -41 117 C-41 109 -39 102 -37 95 C-35 89 -34 82 -34 76 C-33 74 -33 73 -33 72 C-33 71 -33 70 -33 69 C-32 66 -32 66 -31 60 C-29 59 -26 57 -24 56 C-24 51 -24 51 -24 46 C-23 43 -21 41 -20 38 C-20 36 -20 35 -20 33 C-19 29 -18 27 -15 24 C-15 19 -15 19 -16 14 C-16 13 -15 12 -15 11 C-14 11 -13 11 -12 11 C-11 9 -11 6 -10 4 C-4 -2 -4 -2 0 0 Z " fill="#C7CAD4" transform="translate(196,114)"/>
<path d="M0 0 C4 1 4 1 7 3 C12 6 16 5 23 4 C28 3 29 3 34 6 C36 10 36 10 39 14 C43 24 43 24 48 27 C53 28 58 29 63 27 C64 26 64 25 65 25 C70 22 71 22 76 23 C78 24 79 24 81 25 C83 25 85 25 87 25 C88 28 88 28 89 31 C87 35 87 35 85 37 C81 40 80 43 79 47 C78 47 78 47 77 47 C78 48 78 48 79 49 C79 51 79 52 79 54 C75 56 75 56 70 56 C70 56 70 56 66 56 C65 59 65 59 64 63 C58 72 51 77 41 81 C37 81 37 81 34 80 C30 74 30 72 31 65 C33 60 33 60 36 55 C36 54 37 53 37 52 C38 52 38 52 39 52 C39 51 39 50 39 49 C33 49 33 49 29 53 C28 54 27 55 26 57 C25 58 24 59 23 60 C22 60 22 60 21 60 C21 61 20 62 20 63 C15 67 11 70 4 69 C4 68 4 68 4 67 C3 67 2 66 1 66 C-1 58 -1 51 2 43 C2 41 3 39 3 37 C1 35 -0 33 -2 31 C-6 24 -4 15 -4 8 C-3 8 -3 8 -2 8 C-2 8 -2 8 -2 5 C-1 2 -1 2 0 0 Z " fill="#666B7D" transform="translate(89,382)"/>
<path d="M0 0 C4 3 8 7 11 11 C12 12 12 12 15 15 C19 21 21 23 22 30 C21 37 20 38 16 42 C8 47 8 47 5 47 C3 51 3 51 1 56 C-1 63 -5 68 -11 73 C-16 74 -19 73 -24 71 C-29 66 -32 61 -35 55 C-38 49 -42 42 -47 37 C-49 34 -49 34 -50 30 C-49 21 -45 17 -39 11 C-38 10 -37 8 -35 6 C-25 -5 -13 -6 0 0 Z " fill="#14100A" transform="translate(339,186)"/>
<path d="M0 0 C0 0 0 0 1 2 C2 2 2 2 3 2 C3 3 3 3 3 4 C4 4 4 4 5 4 C3 12 -1 17 -5 23 C-8 29 -9 34 -9 41 C-5 47 0 51 6 54 C9 56 9 56 13 59 C33 68 53 71 75 72 C77 72 80 72 83 72 C84 72 84 72 87 72 C90 72 90 72 93 73 C102 73 109 74 117 70 C118 70 120 70 121 70 C125 69 125 69 130 66 C135 64 135 64 139 64 C141 66 141 66 142 69 C142 73 142 73 138 77 C133 78 133 78 128 79 C118 80 118 80 115 81 C104 82 94 82 83 82 C81 82 79 82 77 82 C47 82 47 82 38 79 C37 79 36 79 35 79 C30 79 28 78 24 76 C20 74 17 72 13 71 C12 72 12 72 11 73 C4 75 -1 73 -8 71 C-9 70 -9 70 -11 69 C-20 66 -28 63 -36 58 C-37 57 -38 57 -39 56 C-42 54 -45 53 -47 49 C-46 44 -42 42 -38 39 C-37 38 -36 38 -35 37 C-22 28 -11 17 -3 3 C-1 1 -1 1 0 0 Z " fill="#B7B9C3" transform="translate(192,422)"/>
<path d="M0 0 C0 0 1 0 1 0 C0 6 -1 10 -3 15 C-4 15 -4 15 -5 19 C-7 22 -7 22 -10 24 C-11 26 -12 29 -13 31 C-13 31 -13 31 -15 32 C-15 33 -15 34 -15 35 C-16 38 -16 38 -18 40 C-23 45 -25 52 -26 59 C-25 59 -24 59 -23 60 C-17 62 -14 65 -10 69 C-10 70 -9 71 -9 72 C-12 76 -12 76 -15 76 C-16 76 -17 76 -18 76 C-19 76 -20 76 -22 76 C-24 76 -27 76 -30 75 C-34 75 -34 75 -39 77 C-41 80 -41 80 -43 85 C-43 86 -44 87 -44 88 C-46 92 -48 96 -49 100 C-47 100 -46 101 -44 101 C-41 104 -39 106 -37 109 C-37 110 -37 111 -37 112 C-36 113 -34 113 -33 114 C-24 119 -24 119 -21 122 C-21 123 -21 125 -21 126 C-19 126 -18 127 -16 127 C-16 128 -15 128 -15 129 C-18 129 -21 130 -24 130 C-24 131 -24 131 -24 132 C2 132 28 132 55 132 C55 131 55 131 55 130 C60 130 65 130 70 131 C74 131 78 131 82 132 C84 132 85 132 86 132 C91 132 96 132 101 132 C101 131 101 131 101 130 C100 130 99 130 98 130 C98 127 98 127 99 123 C105 117 113 115 122 115 C129 115 134 117 139 121 C140 125 140 125 140 129 C138 129 137 130 135 130 C135 131 135 131 135 132 C136 132 138 132 139 132 C140 132 140 132 145 132 C147 132 148 132 150 132 C155 133 155 133 158 136 C131 136 105 136 78 136 C66 136 54 136 41 136 C30 137 20 137 9 137 C3 137 -2 137 -8 137 C-14 137 -19 137 -24 137 C-27 137 -30 137 -33 137 C-46 137 -46 137 -52 133 C-57 128 -61 124 -61 116 C-60 105 -54 96 -49 87 C-46 82 -44 78 -42 74 C-39 67 -35 61 -31 55 C-26 46 -21 37 -16 27 C-12 20 -8 12 -3 5 C-2 3 -1 2 0 0 Z " fill="#FCB72D" transform="translate(405,360)"/>
<path d="M0 0 C10 4 16 12 20 21 C20 22 20 22 21 27 C21 28 21 28 22 32 C24 33 25 34 27 35 C28 34 28 33 29 32 C30 32 30 32 33 33 C34 37 35 41 35 45 C35 46 36 47 36 48 C36 53 37 59 37 64 C38 69 39 74 40 79 C40 82 41 85 41 87 C43 98 45 108 48 118 C49 121 49 121 48 125 C48 124 48 124 48 123 C47 123 46 123 45 123 C44 121 43 118 42 116 C41 115 41 115 40 114 C40 111 40 109 40 106 C39 103 39 103 36 102 C34 99 34 99 34 94 C34 92 35 90 35 88 C35 87 35 87 36 84 C36 84 36 83 36 82 C36 82 36 82 33 83 C31 78 31 78 31 72 C31 72 31 72 33 69 C33 67 32 65 32 63 C32 60 32 57 32 54 C32 52 32 50 32 49 C32 47 32 46 32 45 C29 45 29 45 25 46 C24 49 24 49 24 53 C24 54 23 55 23 56 C22 56 22 56 21 56 C21 57 21 57 20 59 C18 68 13 75 6 80 C1 83 -4 83 -10 84 C-15 84 -18 84 -23 86 C-23 87 -24 87 -24 88 C-25 88 -26 88 -27 88 C-27 87 -27 85 -27 84 C-28 78 -30 75 -33 70 C-33 69 -33 69 -33 68 C-34 67 -36 67 -37 66 C-38 65 -38 63 -39 62 C-40 61 -41 60 -42 59 C-44 57 -44 57 -44 54 C-43 52 -43 49 -42 47 C-42 47 -41 47 -41 47 C-41 46 -41 44 -41 43 C-41 36 -41 36 -39 32 C-35 29 -35 29 -32 27 C-31 31 -31 31 -33 35 C-34 46 -36 57 -31 67 C-26 72 -22 75 -15 76 C-8 76 -4 74 1 70 C8 60 12 51 11 39 C10 34 9 30 7 26 C4 25 4 25 0 25 C-3 29 -3 29 -5 34 C-10 37 -10 37 -16 37 C-20 33 -20 33 -22 29 C-25 28 -25 28 -30 28 C-31 22 -29 19 -27 14 C-21 4 -12 -2 0 0 Z " fill="#EDEDF0" transform="translate(387,133)"/>
<path d="M0 0 C6 3 8 6 10 13 C10 19 11 24 10 30 C9 34 9 38 9 42 C9 46 8 50 8 54 C8 55 8 55 8 58 C8 62 7 66 7 71 C7 72 7 73 7 75 C6 82 6 85 1 90 C-5 94 -5 94 -9 94 C-14 92 -18 91 -21 86 C-23 82 -23 76 -23 71 C-23 70 -24 69 -24 68 C-25 54 -26 40 -26 26 C-26 24 -26 23 -26 21 C-26 20 -26 19 -26 17 C-26 17 -26 17 -26 13 C-26 9 -24 7 -22 4 C-15 -1 -9 -3 0 0 Z " fill="#050507" transform="translate(478.75,329.125)"/>
<path d="M0 0 C8 8 12 16 12 27 C12 38 8 47 -0 55 C-7 60 -14 60 -21 59 C-29 56 -33 53 -37 45 C-41 34 -41 23 -37 12 C-33 4 -28 0 -20 -3 C-13 -5 -6 -4 0 0 Z " fill="#0D0D0F" transform="translate(270,152)"/>
<path d="M0 0 C1 0 1 0 2 0 C2 1 2 1 3 4 C7 3 7 3 9 0 C11 0 12 0 14 0 C14 1 14 1 14 2 C11 4 9 5 6 7 C4 11 3 13 4 17 C9 20 10 20 16 19 C17 19 18 18 19 18 C21 18 24 18 26 18 C26 19 26 19 26 20 C26 20 26 20 29 21 C30 23 31 24 32 26 C36 27 38 26 42 24 C45 22 45 22 48 18 C49 18 49 18 50 18 C50 20 50 22 50 24 C49 25 47 27 46 28 C45 28 45 28 44 28 C44 29 44 31 44 32 C46 33 47 33 49 34 C49 35 49 37 49 38 C46 38 44 38 41 38 C40 38 38 38 37 38 C35 38 34 38 33 38 C33 37 33 37 31 34 C27 34 24 34 20 34 C19 34 18 34 17 34 C13 34 10 34 6 34 C1 34 -3 34 -8 34 C-9 34 -10 34 -11 34 C-14 34 -14 34 -19 34 C-20 33 -20 31 -21 30 C-25 30 -30 30 -34 30 C-38 30 -43 30 -47 30 C-48 29 -48 27 -49 26 C-52 26 -52 26 -56 26 C-60 26 -60 26 -63 26 C-64 25 -64 23 -65 22 C-66 21 -68 21 -69 20 C-70 19 -71 19 -72 18 C-72 17 -72 17 -72 16 C-70 14 -70 14 -67 12 C-65 12 -63 12 -61 12 C-60 11 -60 9 -59 8 C-54 8 -50 8 -45 8 C-42 8 -40 8 -37 8 C-36 7 -36 5 -35 4 C-32 4 -32 4 -28 3 C-26 3 -25 3 -23 3 C-22 3 -22 3 -18 3 C-15 3 -12 3 -9 3 C-9 3 -9 3 -5 3 C-4 3 -3 3 -2 3 C-1 2 -1 1 0 0 Z " fill="#DCDEE5" transform="translate(165,517)"/>
<path d="M0 0 C1 3 1 5 2 8 C4 8 5 7 7 7 C16 6 24 11 31 16 C34 21 35 25 35 31 C35 38 37 40 42 45 C42 46 42 46 42 47 C43 47 44 48 45 48 C48 52 50 56 51 61 C54 62 57 62 60 63 C61 64 61 66 62 67 C55 72 51 74 42 74 C34 71 31 67 27 59 C26 57 26 56 25 55 C23 51 23 51 20 49 C15 49 11 50 7 51 C2 52 0 51 -5 48 C-9 45 -9 45 -10 43 C-11 32 -8 23 -5 12 C-5 11 -4 9 -4 8 C-3 4 -3 4 0 0 Z " fill="#8F93A2" transform="translate(99,337)"/>
<path d="M0 0 C0 0 1 0 1 0 C1 2 1 4 1 6 C2 6 4 6 5 6 C6 11 6 17 6 22 C6 26 6 26 7 30 C6 31 6 33 5 34 C5 37 6 40 6 43 C7 43 8 43 9 43 C10 47 10 47 9 51 C9 53 8 54 8 56 C8 56 8 56 7 58 C4 59 1 60 -2 61 C-16 67 -16 67 -21 70 C-30 74 -42 72 -51 70 C-54 68 -57 67 -58 63 C-58 59 -56 57 -53 54 C-53 53 -53 51 -53 50 C-52 50 -52 50 -51 50 C-51 49 -50 47 -50 46 C-45 44 -41 44 -36 44 C-27 43 -21 41 -15 35 C-12 30 -9 25 -7 19 C-7 19 -6 18 -6 17 C-5 17 -5 17 -4 17 C-4 15 -3 14 -3 12 C-3 10 -2 9 -2 7 C-1 7 -1 7 0 7 C0 5 0 2 0 0 Z " fill="#C1C4D0" transform="translate(414,172)"/>
<path d="M0 0 C4 1 4 1 6 4 C10 16 9 27 4 38 C1 45 -3 48 -10 52 C-15 54 -19 53 -24 52 C-32 47 -36 43 -38 34 C-39 30 -39 25 -38 21 C-38 20 -38 20 -38 16 C-37 11 -36 8 -33 4 C-30 3 -30 3 -27 3 C-23 7 -23 7 -22 11 C-16 12 -14 12 -8 9 C-6 5 -6 5 -4 1 C-3 0 -3 0 0 0 Z " fill="#050507" transform="translate(390.3125,156.9375)"/>
<path d="M0 0 C6 -0 13 -0 19 -0 C21 -0 23 -0 25 -0 C27 -0 28 -0 30 -0 C31 -0 31 -0 35 -0 C36 -0 38 -0 39 0 C39 1 39 1 41 4 C45 4 48 4 52 4 C56 4 59 4 63 4 C63 5 63 5 65 8 C71 8 71 8 76 8 C76 11 76 15 76 18 C75 18 74 18 73 18 C72 18 72 18 69 18 C68 19 68 21 67 22 C63 22 60 22 56 22 C56 22 56 22 53 22 C52 23 52 25 51 26 C46 26 42 26 37 26 C34 26 32 26 29 26 C28 27 28 29 27 30 C24 30 24 30 19 30 C18 30 16 30 15 30 C12 30 8 30 5 30 C4 30 2 30 1 30 C-1 30 -2 30 -4 30 C-5 30 -6 30 -7 30 C-8 31 -8 33 -9 34 C-13 34 -16 34 -20 34 C-21 34 -22 34 -23 34 C-27 34 -31 34 -34 34 C-37 34 -39 34 -41 34 C-47 34 -53 34 -59 34 C-48 27 -33 29 -21 29 C-20 29 -20 29 -17 29 C-16 29 -15 29 -14 29 C-11 29 -8 28 -5 26 C-1 26 -1 26 3 26 C4 26 4 26 7 26 C8 26 9 26 10 26 C10 25 10 24 10 23 C11 17 14 15 19 11 C22 9 22 9 25 5 C14 4 14 4 12 5 C11 6 11 8 10 9 C9 9 9 9 8 9 C8 10 7 12 7 13 C3 19 3 19 -2 20 C-3 20 -4 20 -5 20 C-8 19 -8 19 -12 20 C-15 20 -17 19 -21 18 C-20 15 -20 15 -17 13 C-13 13 -10 14 -6 14 C-3 14 -3 14 1 11 C2 6 2 5 0 0 Z " fill="#DCDEE5" transform="translate(395,521)"/>
<path d="M0 0 C0 0 0 0 1 3 C-1 6 -1 6 -3 10 C-5 14 -7 18 -9 23 C-11 26 -13 29 -15 32 C-17 36 -17 36 -18 40 C-19 40 -19 40 -20 40 C-20 41 -20 41 -22 45 C-22 45 -22 45 -19 46 C-19 53 -19 53 -21 55 C-23 55 -24 55 -26 55 C-26 57 -26 59 -26 60 C-26 62 -26 64 -26 66 C-27 66 -27 66 -31 67 C-31 66 -31 66 -31 65 C-32 65 -34 64 -35 64 C-36 63 -36 62 -37 61 C-40 57 -44 55 -48 52 C-51 47 -50 41 -50 35 C-50 33 -50 32 -50 31 C-50 29 -50 28 -50 27 C-50 25 -50 24 -50 23 C-50 20 -50 20 -46 16 C-43 15 -40 14 -37 13 C-34 11 -30 9 -27 7 C-22 4 -21 4 -15 3 C-10 2 -6 0 0 0 Z " fill="#C2C5D0" transform="translate(354,412)"/>
<path d="M0 0 C6 3 8 7 11 13 C16 17 18 18 25 18 C26 18 27 18 28 17 C31 17 31 17 34 19 C36 21 36 21 37 26 C40 28 40 28 44 29 C51 32 51 32 53 34 C53 37 53 37 52 41 C48 43 48 43 43 44 C43 44 43 44 41 45 C32 45 32 45 27 42 C28 37 30 35 33 31 C33 30 33 30 33 29 C28 28 26 29 22 32 C10 38 -2 41 -15 43 C-15 43 -15 43 -17 44 C-19 44 -22 44 -24 44 C-25 44 -26 44 -28 44 C-29 44 -30 44 -31 44 C-34 40 -34 40 -34 35 C-30 32 -26 29 -21 27 C-20 26 -19 26 -17 25 C-16 24 -15 24 -14 23 C-13 22 -12 22 -11 21 C-11 17 -11 17 -13 14 C-13 13 -13 11 -13 10 C-10 7 -7 4 -3 2 C-2 1 -1 1 0 0 Z " fill="#444B5B" transform="translate(75,443)"/>
<path d="M0 0 C1 2 2 4 3 6 C5 8 7 11 9 13 C10 14 10 16 11 17 C12 18 14 18 15 19 C18 24 20 27 20 33 C18 33 16 33 14 34 C11 34 8 35 5 37 C-5 43 -17 41 -28 39 C-33 38 -33 38 -38 35 C-38 29 -37 24 -34 19 C-33 18 -31 18 -30 17 C-30 15 -29 14 -29 12 C-28 12 -28 11 -27 11 C-26 9 -26 7 -25 6 C-24 1 -23 0 -19 -2 C-12 -3 -6 -4 0 0 Z " fill="#F8B027" transform="translate(479,273)"/>
<path d="M0 0 C4 4 6 9 6 15 C5 20 3 24 1 28 C0 29 -0 31 -1 32 C-3 36 -5 39 -7 42 C-8 43 -8 45 -9 46 C-11 47 -12 48 -14 49 C-16 46 -15 42 -15 38 C-16 39 -17 39 -18 40 C-21 41 -21 41 -24 40 C-25 39 -26 39 -27 38 C-27 37 -27 37 -27 36 C-28 36 -29 35 -30 35 C-38 32 -42 27 -46 19 C-46 14 -46 14 -44 12 C-40 10 -36 8 -32 7 C-27 5 -22 3 -17 2 C-11 -1 -6 -2 0 0 Z " fill="#C2C5D1" transform="translate(432,258)"/>
<path d="M0 0 C4 4 4 4 4 7 C5 7 6 8 7 8 C7 9 6 11 6 12 C6 15 6 17 6 20 C6 21 6 21 6 25 C6 26 5 28 5 30 C5 31 5 31 5 35 C5 39 5 43 5 47 C4 47 3 47 2 47 C2 47 1 46 1 46 C1 44 1 43 1 41 C-0 41 -1 41 -2 42 C-13 43 -25 37 -35 32 C-36 32 -38 31 -39 31 C-40 31 -41 30 -42 30 C-42 29 -43 27 -43 26 C-42 25 -41 24 -40 23 C-40 19 -40 18 -43 15 C-39 11 -38 11 -33 11 C-26 10 -22 8 -16 5 C-13 4 -9 3 -6 2 C-5 2 -4 1 -3 1 C-2 1 -1 2 0 2 C0 1 0 1 0 0 Z " fill="#9094A3" transform="translate(195,321)"/>
<path d="M0 0 C0 0 1 0 1 0 C0 6 -1 10 -3 15 C-4 15 -4 15 -5 19 C-7 22 -7 22 -10 24 C-11 26 -12 29 -13 31 C-13 31 -13 31 -15 32 C-15 33 -15 34 -15 35 C-16 38 -16 38 -18 40 C-23 45 -25 52 -26 59 C-25 59 -24 59 -23 60 C-17 62 -14 65 -10 69 C-10 70 -9 71 -9 72 C-12 76 -12 76 -15 76 C-16 76 -17 76 -18 76 C-19 76 -20 76 -22 76 C-24 76 -27 76 -30 75 C-34 75 -34 75 -39 77 C-41 80 -41 80 -43 85 C-43 86 -44 87 -44 88 C-46 92 -48 96 -49 100 C-47 100 -46 101 -44 101 C-41 104 -39 106 -37 109 C-37 110 -37 111 -37 112 C-36 113 -34 113 -33 114 C-24 119 -24 119 -21 122 C-21 123 -21 125 -21 126 C-19 126 -18 127 -16 127 C-16 128 -15 128 -15 129 C-22 131 -27 131 -34 131 C-37 131 -37 131 -41 132 C-45 132 -47 131 -50 129 C-57 122 -57 122 -57 117 C-57 113 -57 113 -55 109 C-53 105 -53 101 -52 96 C-52 92 -50 89 -48 85 C-46 82 -44 78 -42 74 C-39 67 -35 61 -31 55 C-26 46 -21 37 -16 27 C-12 20 -8 12 -3 5 C-2 3 -1 2 0 0 Z " fill="#FDB72C" transform="translate(405,360)"/>
<path d="M0 0 C1 1 1 2 2 3 C5 6 5 6 10 9 C15 12 17 15 21 19 C31 26 31 26 38 26 C39 25 39 25 40 24 C40 26 40 27 40 29 C39 29 38 29 37 29 C38 34 39 36 42 39 C41 43 41 43 38 46 C34 49 33 51 32 56 C31 56 31 56 27 57 C24 55 22 52 20 49 C20 47 20 46 20 44 C15 43 15 43 11 44 C7 42 6 40 4 36 C3 35 3 33 2 32 C1 32 -1 31 -2 31 C-3 27 -3 27 -4 23 C-4 25 -4 26 -4 28 C-5 28 -5 28 -6 28 C-7 23 -8 19 -8 14 C-9 13 -9 12 -10 10 C-11 9 -11 8 -12 7 C-9 0 -7 -1 0 0 Z " fill="#C2C5D1" transform="translate(224,324)"/>
<path d="M0 0 C0 0 0 0 1 2 C2 2 2 2 3 2 C3 3 3 3 3 4 C4 4 4 4 5 4 C3 12 -1 17 -5 23 C-8 29 -9 34 -9 41 C-4 48 2 52 9 56 C10 57 11 57 12 58 C12 59 12 59 12 60 C11 60 11 60 10 60 C10 62 9 64 9 66 C4 66 1 65 -4 63 C-5 63 -7 63 -8 63 C-20 61 -30 57 -41 52 C-43 47 -43 47 -43 43 C-41 41 -38 39 -35 37 C-22 28 -11 17 -3 3 C-1 1 -1 1 0 0 Z " fill="#9CA0AE" transform="translate(192,422)"/>
<path d="M0 0 C4 1 4 1 7 3 C12 6 16 5 23 4 C28 3 29 3 34 6 C36 10 36 10 39 14 C43 24 43 24 48 27 C53 28 58 29 63 27 C64 26 64 25 65 25 C70 22 71 22 76 23 C78 24 79 24 81 25 C83 25 85 25 87 25 C88 28 88 28 89 31 C87 35 87 35 85 37 C81 40 80 43 79 47 C78 47 78 47 77 47 C78 48 78 48 79 49 C79 51 79 52 79 54 C74 56 70 57 65 57 C65 56 65 56 64 49 C63 49 63 49 62 49 C59 45 56 41 53 36 C49 32 45 30 40 27 C37 25 37 25 33 22 C30 21 30 21 27 20 C26 20 25 20 24 19 C21 19 21 19 16 21 C14 20 13 20 11 19 C10 15 10 15 10 11 C1 13 1 13 -1 14 C-2 8 -2 5 0 0 Z " fill="#7A7F91" transform="translate(89,382)"/>
<path d="M0 0 C1 2 2 3 3 5 C8 9 12 9 17 10 C24 12 28 14 33 18 C37 19 37 19 41 20 C39 25 36 27 32 30 C24 38 22 49 19 60 C16 57 15 54 14 50 C10 42 6 36 1 28 C-7 16 -7 16 -7 12 C-8 12 -8 12 -9 12 C-10 13 -10 15 -11 16 C-12 12 -11 8 -10 4 C-4 -2 -4 -2 0 0 Z " fill="#C1C4D0" transform="translate(196,114)"/>
<path d="M0 0 C-1 2 -1 3 -2 5 C8 6 8 6 13 4 C15 2 15 2 16 1 C29 -1 29 -1 35 3 C36 7 36 7 35 9 C31 13 28 14 24 17 C20 19 17 21 14 24 C8 29 2 35 -6 35 C-10 34 -13 32 -17 31 C-18 30 -19 30 -20 30 C-22 33 -22 33 -24 36 C-25 36 -25 36 -26 36 C-27 38 -27 41 -28 43 C-29 46 -31 48 -32 51 C-32 52 -32 52 -34 56 C-35 56 -36 56 -37 56 C-35 44 -16 0 0 0 Z " fill="#9094A2" transform="translate(136,280)"/>
<path d="M0 0 C1 1 3 3 4 4 C8 4 10 3 13 1 C18 -1 23 1 29 2 C29 3 29 3 29 4 C30 4 30 5 31 5 C30 5 30 5 26 5 C20 5 16 6 11 10 C7 15 7 18 7 24 C8 29 9 31 12 35 C18 39 22 40 30 38 C31 38 32 37 33 37 C33 38 32 39 32 40 C30 41 27 42 25 43 C25 44 24 45 24 46 C20 46 17 45 14 42 C9 40 9 40 4 40 C-2 40 -4 38 -9 34 C-9 34 -9 34 -12 32 C-19 27 -23 23 -25 14 C-25 9 -25 9 -23 6 C-16 1 -9 -1 0 0 Z " fill="#FCB72C" transform="translate(447,431)"/>
<path d="M0 0 C1 1 2 1 3 2 C3 3 3 3 3 4 C4 5 6 5 7 6 C8 8 9 9 10 11 C11 12 12 13 13 14 C14 16 15 19 16 21 C17 22 17 23 18 25 C19 28 19 31 20 34 C14 36 8 37 2 37 C-3 38 -6 39 -10 42 C-11 42 -11 42 -12 42 C-12 43 -12 45 -12 46 C-12 51 -12 51 -13 52 C-13 54 -13 57 -14 59 C-14 60 -14 62 -14 63 C-14 64 -14 65 -14 66 C-16 61 -16 59 -16 54 C-16 52 -16 50 -16 49 C-16 45 -16 42 -16 38 C-16 28 -16 17 -22 8 C-21 4 -21 4 -20 3 C-18 3 -16 3 -14 3 C-10 2 -7 2 -3 1 C-2 1 -1 0 0 0 Z " fill="#F8B027" transform="translate(507,321)"/>
<path d="M0 0 C5 5 6 8 7 15 C6 21 4 24 0 29 C-6 33 -11 34 -18 32 C-24 29 -26 26 -28 20 C-29 14 -28 10 -26 5 C-18 -3 -11 -6 0 0 Z " fill="#050708" transform="translate(481.9375,438.1875)"/>
<path d="M0 0 C11 13 19 30 25 46 C20 45 20 45 17 44 C15 45 14 45 12 46 C8 46 4 46 0 46 C-4 42 -3 41 -4 36 C-5 28 -7 25 -13 19 C-13 14 -13 14 -9 10 C-6 9 -2 8 1 7 C1 5 0 2 0 0 Z " fill="#FCB92D" transform="translate(563,413)"/>
<path d="M0 0 C1 3 1 3 0 7 C-3 9 -3 9 -6 11 C-12 13 -14 14 -16 20 C-16 20 -16 20 -19 19 C-19 18 -19 18 -20 15 C-26 12 -32 13 -38 13 C-45 13 -50 12 -56 10 C-60 10 -60 10 -63 10 C-64 10 -65 10 -67 10 C-69 10 -72 10 -75 10 C-79 11 -83 11 -87 11 C-94 11 -94 11 -97 13 C-98 14 -98 15 -99 16 C-100 16 -102 17 -103 17 C-106 15 -109 13 -112 11 C-116 10 -116 10 -119 9 C-118 9 -118 8 -117 8 C-117 7 -117 7 -117 6 C-118 6 -118 5 -119 5 C-112 5 -106 5 -99 6 C-91 7 -84 7 -76 7 C-75 7 -74 7 -72 7 C-52 7 -32 4 -12 -0 C-4 -2 -4 -2 0 0 Z " fill="#EDEDF0" transform="translate(343,509)"/>
<path d="M0 0 C6 3 9 8 13 14 C14 15 14 16 15 17 C15 19 15 21 15 23 C7 28 0 27 -9 25 C-22 22 -22 22 -27 16 C-13 -1 -13 -1 0 0 Z " fill="#ECA225" transform="translate(331,194)"/>
<path d="M0 0 C1 1 3 2 4 3 C4 4 4 6 4 7 C7 8 7 8 10 9 C13 10 15 11 18 12 C26 15 33 17 41 17 C46 18 50 19 54 21 C54 20 54 19 54 18 C55 17 55 16 55 15 C59 14 61 15 65 17 C73 20 81 22 90 24 C86 26 86 26 83 26 C83 27 83 27 83 28 C84 29 86 29 87 30 C85 32 81 31 78 31 C71 31 67 30 61 26 C57 27 57 27 52 29 C45 29 38 26 32 24 C30 23 29 23 28 22 C5 13 5 13 -1 5 C-1 3 -0 2 0 0 Z " fill="#B1B3BB" transform="translate(147,467)"/>
<path d="M0 0 C0 0 1 0 1 0 C0 6 -1 10 -3 15 C-4 15 -4 15 -5 19 C-7 22 -7 22 -10 24 C-11 26 -12 29 -13 31 C-13 31 -13 31 -15 32 C-15 33 -15 34 -15 35 C-16 38 -16 38 -18 40 C-23 45 -25 52 -26 59 C-25 59 -24 59 -23 60 C-17 62 -14 65 -10 69 C-10 70 -9 71 -9 72 C-12 76 -12 76 -15 76 C-16 76 -17 76 -18 76 C-19 76 -20 76 -22 76 C-24 76 -27 76 -30 75 C-34 75 -34 75 -39 77 C-40 80 -42 82 -43 85 C-43 85 -43 85 -46 86 C-44 74 -37 63 -30 53 C-28 49 -26 46 -24 42 C-23 40 -22 38 -21 36 C-18 32 -16 28 -14 23 C-10 17 -7 11 -3 5 C-2 3 -1 2 0 0 Z " fill="#FCB72C" transform="translate(405,360)"/>
<path d="M0 0 C4 4 5 7 7 12 C7 18 5 23 2 28 C1 29 1 31 0 32 C-2 36 -4 39 -6 42 C-7 43 -7 45 -8 46 C-10 47 -11 48 -13 49 C-15 45 -14 41 -14 37 C-13 36 -13 34 -12 33 C-13 33 -14 33 -15 33 C-18 26 -16 22 -14 15 C-11 9 -6 3 0 0 Z " fill="#BDC0CC" transform="translate(431,258)"/>
<path d="M0 0 C8 2 12 4 17 10 C16 13 16 17 15 20 C15 21 16 23 16 24 C16 25 17 26 17 27 C13 31 13 31 10 31 C1 31 -3 30 -10 25 C-10 20 -8 16 -6 11 C-5 9 -5 7 -4 5 C-4 4 -3 3 -3 2 C-2 2 -1 2 0 2 C0 1 0 1 0 0 Z " fill="#C1C4D0" transform="translate(215,385)"/>
<path d="M0 0 C1 0 1 0 4 0 C6 3 6 3 6 7 C5 7 5 7 4 7 C4 8 4 9 4 9 C5 9 5 9 6 9 C6 10 6 11 6 11 C4 12 3 12 1 12 C1 14 0 15 0 16 C-6 20 -11 22 -18 21 C-24 19 -29 17 -34 12 C-34 11 -35 10 -35 8 C-36 8 -37 8 -38 7 C-38 7 -38 6 -38 5 C-32 4 -27 4 -22 4 C-21 4 -20 4 -19 4 C-16 4 -13 4 -11 4 C-11 4 -11 3 -11 2 C-10 2 -9 2 -8 2 C-4 1 -4 0 0 0 Z " fill="#C6C9D3" transform="translate(320.9375,41.75)"/>
<path d="M0 0 C2 1 4 2 6 3 C7 2 7 1 8 0 C9 0 11 1 12 1 C13 5 14 9 14 13 C14 14 15 15 15 16 C15 21 16 27 16 32 C17 37 18 42 19 47 C19 50 20 53 20 55 C22 66 24 76 27 86 C28 89 28 89 27 93 C27 92 27 92 27 91 C26 91 25 91 24 91 C23 89 22 86 21 84 C20 83 20 83 19 82 C19 79 19 77 19 74 C18 71 18 71 15 70 C13 67 13 67 13 62 C13 60 14 58 14 56 C14 55 14 54 15 52 C15 52 15 51 15 50 C15 50 15 50 12 51 C10 46 10 46 10 40 C11 39 11 38 12 37 C12 35 11 33 11 31 C11 28 11 25 11 22 C11 20 11 18 11 17 C11 15 11 14 11 13 C8 13 8 13 4 14 C3 17 3 17 3 21 C3 22 2 23 2 24 C1 24 1 24 0 24 C0 16 0 8 0 0 Z " fill="#D8DAE2" transform="translate(408,165)"/>
<path d="M0 0 C1 0 2 0 3 0 C3 1 3 1 3 2 C4 2 4 2 7 3 C12 5 12 5 16 9 C15 12 15 12 13 16 C13 16 13 16 11 20 C5 29 5 29 2 31 C-8 32 -8 32 -12 31 C-14 26 -14 26 -13 21 C-11 16 -9 14 -5 10 C-4 8 -3 7 -2 5 C-2 3 -1 2 0 0 Z " fill="#BDC0CC" transform="translate(156,239)"/>
<path d="M0 0 C0 0 0 0 2 1 C9 4 13 6 21 4 C26 3 27 3 32 5 C32 6 32 6 33 9 C27 13 23 15 16 17 C16 18 16 18 16 19 C14 21 13 22 11 24 C10 25 10 26 9 27 C8 28 8 28 7 29 C6 29 6 29 5 29 C5 30 4 31 4 32 C4 33 3 34 3 35 C2 35 2 35 1 35 C1 34 1 34 1 33 C-0 33 -2 32 -3 32 C-3 31 -3 30 -3 29 C-1 21 -1 13 -1 5 C-1 3 -0 2 0 0 Z " fill="#C1C4D0" transform="translate(290,166)"/>
<path d="M0 0 C2 0 4 0 6 0 C7 2 8 3 9 5 C16 6 20 7 27 4 C33 5 34 6 37 11 C37 13 37 14 37 16 C34 19 23 18 18 18 C18 18 18 18 13 18 C12 18 10 18 9 18 C7 18 6 18 4 18 C-0 18 -4 17 -8 16 C-7 11 -7 11 -5 9 C-2 7 -2 7 -1 3 C-1 2 -0 1 0 0 Z " fill="#C7CAD4" transform="translate(216,534)"/>
<path d="M0 0 C2 0 4 0 6 1 C8 1 9 1 11 1 C11 1 11 2 11 2 C9 2 7 2 5 2 C2 2 2 2 -1 3 C-1 4 -2 5 -2 6 C-4 7 -6 9 -7 10 C-13 13 -14 16 -15 22 C-19 23 -22 23 -26 23 C-30 23 -32 24 -36 26 C-40 26 -43 26 -47 25 C-49 20 -49 20 -48 16 C-48 15 -48 15 -48 14 C-46 14 -45 14 -43 15 C-39 15 -36 15 -32 14 C-31 14 -30 14 -28 15 C-25 15 -25 15 -22 13 C-20 10 -20 10 -17 5 C-16 5 -16 4 -15 4 C-14 3 -14 1 -13 0 C-9 -2 -4 -0 0 0 Z " fill="#C6C9D3" transform="translate(420,525)"/>
<path d="M0 0 C0 0 0 0 1 2 C2 2 2 2 3 2 C3 3 3 3 3 4 C4 4 4 4 5 4 C3 12 -1 17 -5 23 C-8 29 -9 34 -9 41 C-5 47 0 51 7 54 C9 56 9 56 12 59 C6 59 3 56 -2 52 C-3 51 -5 50 -6 49 C-10 45 -12 41 -14 35 C-14 35 -15 34 -15 33 C-20 32 -20 32 -22 33 C-23 34 -24 35 -25 35 C-29 39 -30 39 -36 39 C-32 35 -28 32 -24 28 C-15 21 -9 13 -3 3 C-1 1 -1 1 0 0 Z " fill="#B1B3BB" transform="translate(192,422)"/>
<path d="M0 0 C1 4 1 4 -1 8 C-2 19 -4 30 1 40 C7 46 12 48 20 50 C21 50 22 51 23 51 C23 53 23 54 23 56 C22 56 22 56 20 56 C16 57 13 58 9 59 C9 60 8 60 8 61 C7 61 6 61 5 61 C5 60 5 58 5 56 C4 51 2 48 -1 43 C-1 42 -1 42 -1 41 C-2 40 -4 40 -5 39 C-6 38 -6 36 -7 35 C-8 34 -9 33 -10 32 C-12 30 -12 30 -12 27 C-11 25 -11 22 -10 20 C-10 20 -9 20 -9 20 C-9 19 -9 17 -9 16 C-9 9 -9 9 -7 5 C-3 2 -3 2 0 0 Z " fill="#DDDFE5" transform="translate(355,160)"/>
<path d="M0 0 C5 1 6 2 9 6 C13 12 16 17 15 25 C11 30 6 30 0 32 C-0 32 -0 32 -2 33 C-3 32 -3 32 -4 31 C-4 30 -4 28 -4 27 C-3 22 -3 22 -5 19 C-6 11 -4 7 0 0 Z " fill="#C1C4D0" transform="translate(172,173)"/>
<path d="M0 0 C1 -0 2 -0 4 -0 C5 0 6 0 7 0 C8 3 8 3 9 6 C7 10 7 10 4 12 C1 15 0 18 -1 22 C-2 22 -2 22 -3 22 C-2 23 -2 24 -1 24 C-1 26 -1 28 -1 30 C-6 32 -8 32 -13 32 C-14 12 -14 12 -11 2 C-7 0 -5 0 0 0 Z " fill="#606677" transform="translate(169.125,406.5)"/>
<path d="M0 0 C0 0 1 0 1 0 C1 2 1 4 1 6 C2 6 4 6 5 6 C6 11 6 17 6 22 C6 26 6 26 7 30 C6 36 6 36 3 41 C-0 42 -0 42 -4 41 C-8 38 -8 38 -11 35 C-12 35 -12 34 -13 34 C-12 32 -12 31 -11 29 C-11 28 -10 27 -10 26 C-9 25 -9 24 -8 23 C-8 22 -8 22 -7 19 C-7 19 -7 19 -6 17 C-5 17 -5 17 -4 17 C-4 15 -3 14 -3 12 C-3 10 -2 9 -2 7 C-1 7 -1 7 0 7 C0 5 0 2 0 0 Z " fill="#C6C9D3" transform="translate(414,172)"/>
<path d="M0 0 C0 0 1 0 1 0 C1 8 1 12 -3 19 C-4 23 -3 25 -1 29 C2 33 4 36 10 37 C14 37 14 37 17 36 C20 36 23 36 27 37 C39 39 52 38 64 38 C64 39 64 41 64 42 C56 42 48 42 40 42 C37 42 34 42 31 42 C27 43 23 43 19 43 C18 43 17 43 16 43 C8 43 4 42 -2 36 C-6 32 -8 28 -8 22 C-8 16 -6 11 -3 6 C-3 5 -3 5 -1 2 C-1 2 -0 1 0 0 Z " fill="#FEC52E" transform="translate(352,454)"/>
<path d="M0 0 C3 1 3 1 6 3 C7 3 7 3 11 4 C16 6 18 7 20 11 C20 12 20 13 20 14 C15 16 9 15 4 15 C3 15 1 15 0 15 C-7 14 -13 14 -20 12 C-19 11 -18 11 -17 10 C-17 9 -16 8 -16 7 C-12 -1 -7 -1 0 0 Z " fill="#C1C4D0" transform="translate(261,480)"/>
<path d="M0 0 C4 2 4 2 7 5 C7 6 7 6 8 9 C4 8 4 8 -0 6 C-5 4 -5 4 -11 4 C-11 5 -12 6 -12 7 C-14 7 -15 8 -17 8 C-16 10 -16 13 -15 15 C-14 15 -14 15 -11 14 C-9 14 -8 14 -6 14 C-4 16 -4 16 -4 20 C-5 21 -5 21 -6 22 C0 22 7 23 13 23 C9 27 9 26 4 26 C-6 26 -18 25 -25 18 C-26 18 -26 17 -27 16 C-13 -1 -13 -1 0 0 Z " fill="#F7B22A" transform="translate(331,194)"/>
<path d="M0 0 C6 5 9 12 12 19 C14 23 16 26 18 30 C23 37 26 44 30 52 C31 53 32 55 32 56 C33 58 33 59 34 60 C34 61 33 61 33 62 C27 55 27 55 27 49 C26 49 24 49 23 49 C21 46 20 42 18 39 C17 38 16 36 15 35 C15 33 14 32 14 30 C11 22 6 18 0 12 C-3 9 -4 6 -6 2 C-11 0 -14 -0 -19 0 C-20 0 -20 0 -23 2 C-24 2 -26 1 -27 1 C-18 -6 -10 -5 0 0 Z " fill="#FDC22D" transform="translate(484,271)"/>
<path d="M0 0 C-2 6 -4 6 -9 9 C-14 12 -18 16 -22 20 C-23 21 -24 22 -25 23 C-32 30 -38 37 -44 45 C-44 45 -44 45 -46 46 C-46 47 -47 48 -47 49 C-47 50 -48 51 -48 52 C-49 52 -49 52 -53 53 C-48 39 -19 -6 0 0 Z " fill="#D8DAE2" transform="translate(241,53)"/>
<path d="M0 0 C3 3 5 6 8 9 C9 9 11 9 12 10 C13 10 15 11 16 11 C18 15 18 15 19 19 C19 20 20 21 20 22 C19 22 19 22 18 22 C18 23 18 23 18 24 C13 26 11 26 6 25 C1 22 -1 19 -4 14 C-5 8 -3 5 0 0 Z " fill="#F8B027" transform="translate(352,466)"/>
<path d="M0 0 C0 2 1 3 1 5 C0 6 -1 8 -2 9 C-2 15 -2 15 -1 20 C-7 17 -13 13 -18 9 C-23 6 -27 4 -31 2 C-23 -4 -9 -4 0 0 Z " fill="#C7CAD4" transform="translate(189,271)"/>
<path d="M0 0 C4 0 7 0 11 0 C11 1 11 1 11 2 C12 2 13 2 14 2 C22 2 31 2 39 2 C43 2 46 2 49 2 C54 2 58 2 63 2 C63 2 63 2 67 2 C68 2 70 2 71 2 C72 2 72 2 75 2 C78 2 81 2 84 3 C84 4 84 4 84 5 C49 5 13 5 -23 5 C-20 2 -20 2 -15 2 C-14 2 -12 2 -10 2 C-8 2 -6 2 -4 2 C-3 2 -1 2 0 2 C0 1 0 1 0 0 Z " fill="#26272C" transform="translate(500,502)"/>
<path d="M0 0 C1 0 3 0 4 0 C3 5 3 6 0 10 C-1 12 -2 15 -4 17 C-7 24 -11 31 -15 38 C-17 42 -20 47 -22 52 C-23 53 -24 55 -25 56 C-26 59 -28 61 -29 64 C-30 63 -31 62 -32 61 C-33 61 -33 60 -34 60 C-33 58 -32 57 -31 55 C-30 55 -30 55 -29 55 C-29 54 -29 53 -29 52 C-28 48 -26 46 -24 43 C-21 38 -21 38 -19 34 C-15 25 -11 15 -3 8 C-3 7 -2 6 -2 5 C-1 5 1 5 2 5 C2 4 2 2 2 1 C1 1 1 0 0 0 Z " fill="#D1D3DC" transform="translate(365,397)"/>
<path d="M0 0 C1 1 2 3 3 4 C4 5 6 5 7 6 C9 12 9 17 9 24 C9 25 9 27 9 29 C8 34 7 35 3 38 C3 41 3 41 4 44 C4 46 5 47 5 49 C4 49 3 49 2 49 C2 50 2 50 2 51 C1 51 1 51 -3 52 C-3 47 -2 42 -1 37 C-0 25 0 12 0 0 Z " fill="#D8DAE2" transform="translate(210,338)"/>
<path d="M0 0 C7 1 14 1 21 1 C25 1 29 2 33 3 C33 3 33 4 33 5 C29 6 26 6 22 6 C20 6 18 6 16 6 C14 6 12 6 10 6 C8 6 6 6 4 6 C-1 6 -5 6 -10 6 C-9 6 -8 6 -7 6 C-6 7 -5 7 -4 7 C-2 8 -1 8 -0 9 C0 9 0 9 3 10 C3 10 3 10 3 11 C0 11 -3 11 -5 11 C-7 11 -8 11 -10 11 C-14 11 -17 10 -20 9 C-21 9 -22 9 -24 9 C-28 9 -30 8 -33 6 C-33 5 -33 5 -33 5 C-28 5 -23 5 -17 5 C-18 4 -19 3 -20 3 C-20 2 -20 1 -20 1 C-14 -2 -7 -1 0 0 Z " fill="#B9BCC7" transform="translate(250.16015625,492.4765625)"/>
<path d="M0 0 C5 -0 10 -0 15 1 C18 1 21 1 24 2 C25 2 27 2 28 2 C30 2 31 2 32 2 C32 3 32 4 32 5 C29 6 27 6 24 6 C23 6 23 6 20 6 C19 6 17 6 16 6 C14 6 13 6 11 6 C8 6 5 6 2 6 C-3 6 -7 6 -12 6 C-15 6 -18 6 -21 6 C-22 6 -24 6 -25 6 C-31 6 -38 6 -44 5 C-44 4 -44 3 -44 2 C-29 2 -15 2 0 2 C0 1 0 1 0 0 Z " fill="#FDB72A" transform="translate(460,490)"/>
<path d="M0 0 C1 -0 1 -0 4 -0 C12 -0 19 0 26 2 C26 3 26 3 26 3 C22 4 19 5 16 6 C15 6 14 6 14 5 C14 6 14 7 14 7 C9 7 5 8 0 8 C-1 8 -2 8 -4 8 C-16 9 -16 9 -21 5 C-22 4 -22 3 -22 1 C-15 -0 -8 0 0 0 Z " fill="#D8DAE2" transform="translate(296.3125,38.8125)"/>
<path d="M0 0 C1 0 1 0 2 0 C3 2 3 3 4 5 C5 4 7 4 8 3 C12 2 12 2 15 3 C15 9 14 11 12 16 C12 18 11 20 11 21 C11 22 11 22 10 26 C9 26 9 26 6 28 C2 24 0 21 -1 15 C-1 13 -0 11 -0 10 C-0 8 -0 6 -0 4 C-0 3 -0 1 0 0 Z " fill="#444B5B" transform="translate(85,390)"/>
<path d="M0 0 C0 0 1 0 1 0 C0 6 -1 10 -3 15 C-4 15 -4 15 -5 19 C-7 22 -7 22 -10 24 C-11 26 -12 29 -13 31 C-14 31 -14 32 -15 32 C-15 33 -15 34 -15 35 C-16 38 -16 38 -18 40 C-22 44 -23 48 -25 53 C-25 54 -26 55 -26 56 C-27 56 -27 56 -28 56 C-28 57 -29 59 -29 60 C-31 63 -33 67 -35 70 C-35 71 -36 72 -36 73 C-38 73 -39 73 -41 73 C-40 70 -39 68 -37 65 C-37 64 -36 63 -35 61 C-33 57 -31 54 -28 50 C-27 47 -25 45 -24 42 C-23 40 -22 38 -21 36 C-18 32 -16 28 -14 23 C-10 17 -7 11 -3 5 C-2 3 -1 2 0 0 Z " fill="#FDBD2D" transform="translate(405,360)"/>
<path d="M0 0 C1 0 1 0 2 0 C2 1 2 1 2 2 C3 2 4 2 5 2 C5 3 4 4 4 5 C3 5 2 4 1 4 C1 6 1 9 1 11 C1 11 2 12 2 12 C2 17 2 17 0 19 C-3 23 -3 26 -3 31 C-4 34 -4 34 -7 39 C-7 41 -7 42 -7 44 C-7 46 -7 47 -7 49 C-12 52 -12 52 -14 52 C-15 35 -7 15 0 0 Z " fill="#D8DAE2" transform="translate(180,121)"/>
<path d="M0 0 C7 0 13 0 20 0 C20 1 20 2 20 3 C19 3 17 4 16 4 C15 4 13 5 12 5 C11 6 11 8 10 9 C9 9 9 9 8 9 C8 10 7 12 7 13 C3 19 3 19 -2 20 C-3 20 -4 20 -5 20 C-8 19 -8 19 -12 20 C-15 20 -17 19 -21 18 C-20 15 -20 15 -17 13 C-13 13 -10 14 -6 14 C-3 14 -3 14 1 11 C2 6 2 5 0 0 Z " fill="#D9DBE3" transform="translate(395,521)"/>
<path d="M0 0 C8 0 16 0 24 -0 C24 -0 24 -0 29 0 C32 1 36 1 40 1 C44 2 44 2 47 4 C22 4 -2 4 -26 4 C-26 4 -25 4 -24 4 C-24 3 -24 2 -23 0 C-20 0 -17 0 -13 0 C-9 -1 -5 -0 0 0 Z " fill="#FEC52E" transform="translate(516.4375,491.5)"/>
<path d="M0 0 C2 1 5 2 7 4 C14 7 20 9 27 11 C26 12 26 12 25 13 C20 13 16 12 11 12 C7 12 5 13 1 15 C-3 15 -5 14 -9 12 C-11 10 -11 10 -11 5 C-8 2 -5 2 -1 1 C-1 1 -0 0 0 0 Z " fill="#BDC0CC" transform="translate(226,209)"/>
<path d="M0 0 C1 1 3 1 4 2 C4 6 5 9 5 13 C6 13 7 14 8 14 C9 19 9 19 8 24 C5 26 5 26 1 26 C-1 23 -3 20 -4 17 C-6 14 -8 11 -11 8 C-10 8 -8 7 -7 7 C-4 5 -4 5 -2 2 C-1 1 -1 1 0 0 Z " fill="#BDC0CC" transform="translate(405,128)"/>
<path d="M0 0 C7 -0 13 -0 20 1 C30 3 41 3 52 3 C46 7 39 6 32 6 C25 6 25 6 22 8 C21 9 21 10 20 11 C19 11 17 12 16 12 C13 10 10 8 7 6 C3 5 3 5 0 4 C1 4 1 3 2 3 C2 2 2 2 2 1 C1 1 1 0 0 0 Z " fill="#EBEBEF" transform="translate(224,514)"/>
<path d="M0 0 C2 10 0 16 -5 25 C-6 26 -6 27 -7 29 C-11 36 -11 36 -13 38 C-14 38 -15 37 -16 37 C-16 37 -16 37 -15 36 C-16 35 -17 35 -18 34 C-17 32 -15 29 -14 27 C-13 27 -13 27 -12 27 C-11 25 -11 23 -10 21 C-9 19 -8 18 -7 16 C-7 12 -7 9 -7 5 C-7 4 -6 3 -6 2 C-1 0 -1 0 0 0 Z " fill="#D8DAE2" transform="translate(417,300)"/>
<path d="M0 0 C1 0 2 1 3 1 C2 9 -3 15 -7 22 C-8 23 -8 25 -9 26 C-11 27 -12 28 -14 29 C-16 25 -15 21 -15 17 C-12 9 -7 4 0 0 Z " fill="#9EA1AD" transform="translate(432,278)"/>
<path d="M0 0 C1 0 3 0 4 0 C4 1 4 1 6 4 C10 9 14 13 20 15 C21 15 22 15 24 16 C25 16 27 17 29 17 C29 19 29 20 29 22 C28 22 28 22 26 22 C22 23 19 24 15 25 C15 26 14 26 14 27 C13 27 12 27 11 27 C11 26 11 24 11 22 C10 17 8 14 5 9 C5 8 5 8 5 7 C4 6 2 6 1 5 C1 4 1 4 0 0 Z " fill="#D8DAE2" transform="translate(349,194)"/>
<path d="M0 0 C1 0 3 0 4 0 C8 0 11 0 15 0 C15 1 15 3 15 4 C14 5 14 5 9 5 C7 5 5 5 3 5 C2 5 1 5 -1 5 C-4 5 -8 5 -11 5 C-14 5 -16 5 -18 5 C-24 5 -30 5 -36 5 C-26 -2 -12 -0 0 0 Z " fill="#EDEDF0" transform="translate(372.125,549.9375)"/>
<path d="M0 0 C1 5 1 5 0 8 C-3 9 -5 11 -8 12 C-8 13 -9 13 -9 14 C-15 17 -21 16 -27 16 C-24 13 -24 13 -21 12 C-20 11 -20 9 -19 8 C-17 7 -15 6 -13 5 C-12 4 -11 3 -10 2 C-7 -1 -5 -1 0 0 Z " fill="#EDA225" transform="translate(593,477)"/>
<path d="M0 0 C4 4 6 6 6 12 C7 17 7 17 10 21 C9 22 9 24 8 25 C7 25 6 26 5 26 C4 28 4 30 3 32 C2 32 2 32 1 32 C1 31 1 31 1 30 C-0 30 -2 29 -3 29 C-3 28 -3 27 -3 26 C-1 18 -1 10 -1 2 C-1 1 -0 1 0 0 Z " fill="#BDC0CC" transform="translate(290,169)"/>
<path d="M0 0 C1 0 2 1 3 1 C5 5 5 5 4 10 C6 11 8 12 10 13 C10 14 10 16 10 17 C10 17 10 17 5 20 C4 19 3 17 1 16 C1 15 1 13 1 12 C0 12 -1 12 -2 12 C-7 12 -7 12 -11 8 C-6 -0 -6 -0 0 0 Z " fill="#C2C5D1" transform="translate(286.625,412.0625)"/>
<path d="M0 0 C2 0 4 0 6 0 C6 1 6 1 6 2 C4 2 2 2 0 2 C0 1 0 1 0 0 Z " fill="#EDEDF0" transform="translate(457,245)"/>
</svg>
