<?xml version="1.0" encoding="UTF-8"?>
<!-- Generator: visioncortex VTracer 0.6.12 -->
<svg version="1.1" xmlns="http://www.w3.org/2000/svg" width="524" height="556">
<path d="M0 0 C4 -1 4 -1 9 -1 C10 -1 10 -1 14 -1 C16 -1 18 -1 20 -0 C21 -1 21 -1 26 -1 C27 -1 29 -1 31 -1 C32 -1 32 -1 36 -1 C37 -0 39 -0 40 0 C40 1 40 1 42 4 C45 4 45 4 49 4 C53 4 53 4 56 4 C57 5 57 7 58 8 C60 8 62 8 64 8 C65 9 65 11 66 12 C68 12 70 12 72 12 C73 13 73 15 74 16 C76 16 78 16 80 16 C81 17 81 19 82 20 C83 20 83 20 86 22 C86 23 86 23 86 24 C88 24 90 24 92 24 C93 25 93 27 94 28 C95 28 95 28 98 30 C98 31 98 31 98 32 C99 33 101 33 102 34 C102 35 102 35 102 36 C103 37 105 37 106 38 C106 39 106 39 106 40 C107 40 108 40 109 40 C109 41 109 42 109 43 C110 47 110 47 114 50 C114 51 114 51 114 52 C115 52 116 52 117 52 C117 53 117 54 117 55 C118 57 118 58 118 59 C119 59 120 60 121 60 C121 62 122 65 122 67 C123 67 124 68 125 68 C125 70 126 73 126 75 C127 75 128 76 129 76 C129 80 130 83 130 87 C131 87 132 88 133 88 C133 92 134 96 134 100 C134 101 134 102 134 103 C135 103 136 104 137 104 C137 109 138 114 138 119 C138 120 138 122 138 123 C139 123 140 124 141 124 C141 128 141 128 141 134 C141 135 141 136 141 137 C141 142 141 146 142 151 C142 154 142 157 142 161 C142 163 142 165 142 167 C142 168 142 169 142 171 C143 171 144 172 145 172 C145 178 145 184 146 189 C146 193 146 196 146 199 C147 199 148 200 149 200 C150 204 150 204 150 210 C150 211 150 213 150 215 C150 216 150 218 150 219 C151 219 153 219 154 219 C155 216 155 216 156 212 C157 212 157 211 158 211 C158 209 159 206 159 204 C160 204 161 204 162 204 C163 203 163 201 164 200 C165 200 165 200 166 200 C167 199 167 197 168 196 C169 196 169 196 170 196 C171 195 171 193 172 192 C176 192 180 191 184 192 C185 191 186 191 187 191 C191 191 191 191 196 192 C197 193 197 195 198 196 C199 197 201 197 202 198 C202 199 202 199 202 200 C203 201 205 201 206 202 C206 203 206 203 206 204 C207 204 208 204 209 204 C209 205 209 206 209 207 C209 209 209 210 209 211 C209 213 209 214 209 216 C210 217 210 218 210 219 C211 219 212 220 213 220 C213 225 213 225 213 230 C213 232 213 234 213 236 C213 237 213 237 213 241 C213 241 213 241 210 243 C210 244 210 246 210 247 C212 247 213 247 215 247 C217 247 218 248 220 248 C221 249 221 251 222 252 C224 252 226 252 228 252 C229 253 229 255 230 256 C232 256 234 256 236 256 C237 257 237 259 238 260 C239 260 240 260 241 260 C241 261 241 262 241 263 C241 264 241 264 242 267 C243 267 244 268 245 268 C245 270 246 273 246 275 C247 275 248 276 249 276 C249 279 249 279 249 284 C249 285 249 287 249 288 C249 292 250 295 250 299 C250 300 250 302 250 303 C250 305 250 306 250 308 C250 309 250 310 250 311 C251 311 252 312 253 312 C253 316 253 321 253 325 C253 326 253 327 253 329 C253 332 253 335 253 338 C252 338 251 339 250 339 C250 341 250 343 250 344 C249 346 249 348 249 350 C248 350 247 351 246 351 C246 354 246 354 246 358 C245 363 245 363 245 366 C244 366 243 367 242 367 C242 368 242 369 242 370 C241 372 241 373 241 374 C240 374 239 375 238 375 C237 379 237 379 237 382 C236 382 235 382 234 382 C233 383 233 385 232 386 C231 386 231 386 230 386 C229 387 229 389 228 390 C226 390 224 390 222 390 C221 391 221 393 220 394 C218 394 216 394 214 394 C213 395 213 397 212 398 C207 398 203 398 198 398 C197 398 195 398 194 398 C193 399 193 401 192 402 C190 402 188 402 186 402 C185 403 185 405 184 406 C182 406 180 406 178 406 C177 407 177 409 176 410 C173 410 173 410 169 410 C169 410 169 410 165 410 C162 410 160 410 157 410 C156 410 156 410 153 410 C151 410 150 410 149 410 C148 410 147 410 146 410 C145 411 145 413 144 414 C143 414 143 414 142 414 C141 415 141 417 140 418 C139 418 139 419 138 419 C138 421 137 424 137 426 C136 426 135 426 134 426 C133 427 133 429 132 430 C131 430 131 430 130 430 C129 431 129 433 128 434 C127 434 127 434 126 434 C125 435 125 437 124 438 C123 438 123 438 122 438 C121 439 121 441 120 442 C119 442 119 442 118 442 C117 443 117 445 116 446 C114 446 112 446 110 446 C109 447 109 449 108 450 C107 450 107 450 106 450 C105 451 105 453 104 454 C102 454 100 454 98 454 C97 455 97 457 96 458 C94 458 92 458 90 458 C89 459 89 461 88 462 C87 462 87 463 86 463 C86 464 86 466 86 467 C88 467 89 467 91 467 C93 467 94 468 96 468 C97 469 97 471 98 472 C101 472 101 472 106 472 C106 472 106 472 110 472 C111 472 111 472 115 472 C118 472 121 472 124 472 C126 472 127 472 129 472 C129 472 129 472 132 472 C133 473 133 475 134 476 C138 476 141 476 145 476 C149 476 152 476 156 476 C157 477 157 479 158 480 C160 480 161 480 163 480 C165 480 166 480 168 480 C169 481 169 483 170 484 C171 484 172 485 173 485 C173 487 172 488 172 490 C170 490 168 490 166 490 C165 491 165 493 164 494 C160 494 157 494 153 494 C152 494 151 494 150 494 C149 495 149 497 148 498 C143 498 139 498 134 498 C131 498 129 498 126 498 C125 499 125 501 124 502 C120 502 116 502 112 502 C111 502 110 502 108 502 C103 502 98 502 93 502 C89 502 86 502 82 502 C81 502 80 502 78 502 C75 502 75 502 70 502 C69 503 69 505 68 506 C64 506 60 507 56 507 C54 507 53 507 52 507 C48 507 43 507 39 507 C36 507 33 507 30 507 C24 507 18 507 12 507 C4 506 -4 507 -12 507 C-18 507 -25 507 -31 507 C-34 507 -36 507 -39 507 C-43 507 -48 507 -52 507 C-53 507 -54 507 -55 507 C-59 507 -59 507 -64 506 C-65 505 -65 503 -66 502 C-70 502 -70 502 -75 502 C-76 502 -76 502 -81 502 C-82 502 -82 502 -87 502 C-91 502 -95 502 -99 502 C-100 502 -102 502 -104 502 C-105 502 -107 502 -108 502 C-109 501 -109 499 -110 498 C-114 498 -119 498 -123 498 C-127 498 -132 498 -136 498 C-136 497 -136 497 -138 494 C-141 494 -141 494 -145 494 C-149 494 -149 494 -152 494 C-152 493 -152 493 -154 490 C-156 490 -158 490 -160 490 C-160 488 -161 487 -161 485 C-160 485 -159 484 -158 484 C-157 483 -157 481 -156 480 C-154 480 -152 480 -150 480 C-149 479 -149 477 -148 476 C-143 476 -139 476 -134 476 C-131 476 -129 476 -126 476 C-125 475 -125 473 -124 472 C-120 471 -120 471 -114 471 C-113 471 -112 471 -111 471 C-107 471 -104 471 -101 471 C-99 471 -96 471 -94 471 C-89 471 -83 471 -78 471 C-78 470 -78 468 -78 467 C-80 466 -83 466 -85 465 C-85 465 -85 465 -86 462 C-88 462 -90 462 -92 462 C-93 461 -93 459 -94 458 C-96 458 -98 458 -100 458 C-101 457 -101 455 -102 454 C-106 454 -106 454 -110 454 C-111 455 -111 457 -112 458 C-113 458 -113 458 -114 458 C-115 459 -115 461 -116 462 C-119 462 -123 462 -126 462 C-127 463 -127 465 -128 466 C-131 466 -135 466 -138 466 C-139 467 -139 469 -140 470 C-143 471 -143 471 -146 470 C-147 471 -147 471 -149 471 C-150 470 -151 470 -152 470 C-152 469 -152 469 -154 466 C-156 466 -158 466 -160 466 C-160 465 -160 465 -162 462 C-166 462 -166 462 -170 462 C-170 463 -170 463 -172 466 C-176 467 -176 467 -182 466 C-184 467 -186 467 -188 467 C-189 466 -190 466 -192 466 C-193 465 -193 463 -194 462 C-196 462 -199 462 -201 462 C-201 456 -201 450 -201 444 C-200 444 -199 444 -198 444 C-198 443 -198 443 -196 440 C-195 440 -195 439 -194 439 C-194 435 -193 432 -193 428 C-192 428 -191 428 -190 428 C-190 427 -190 427 -188 424 C-187 424 -187 424 -186 424 C-186 423 -186 423 -184 420 C-183 420 -183 420 -182 420 C-182 419 -182 419 -180 416 C-179 416 -179 415 -178 415 C-178 412 -178 412 -178 409 C-178 408 -178 407 -178 406 C-178 405 -178 404 -178 403 C-179 403 -180 402 -181 402 C-181 398 -182 395 -182 391 C-183 391 -184 390 -185 390 C-185 385 -186 380 -186 375 C-186 374 -186 372 -186 371 C-187 371 -188 370 -189 370 C-189 366 -189 366 -189 362 C-189 360 -189 358 -189 356 C-189 355 -189 353 -189 351 C-189 349 -189 347 -189 346 C-189 344 -189 342 -189 340 C-189 340 -189 340 -189 336 C-189 334 -189 333 -189 332 C-188 332 -187 331 -186 331 C-186 327 -186 323 -186 320 C-185 316 -185 312 -185 308 C-184 308 -183 307 -182 307 C-182 305 -182 303 -182 302 C-181 300 -181 298 -181 296 C-180 296 -179 295 -178 295 C-178 294 -178 293 -178 292 C-177 290 -177 289 -177 288 C-176 288 -175 287 -174 287 C-174 286 -174 285 -174 284 C-173 282 -173 281 -173 280 C-172 280 -171 279 -170 279 C-170 278 -170 277 -170 276 C-169 274 -169 273 -169 272 C-168 272 -167 271 -166 271 C-165 267 -165 267 -165 264 C-164 264 -163 264 -162 264 C-161 263 -161 261 -160 260 C-159 260 -159 259 -158 259 C-158 257 -157 254 -157 252 C-156 252 -155 252 -154 252 C-153 251 -153 249 -152 248 C-151 248 -151 247 -150 247 C-150 245 -149 242 -149 240 C-148 240 -147 240 -146 240 C-145 239 -145 237 -144 236 C-143 236 -143 236 -142 236 C-141 235 -141 233 -140 232 C-139 232 -139 231 -138 231 C-138 230 -138 229 -138 228 C-137 227 -137 227 -137 224 C-136 224 -135 223 -134 223 C-134 221 -134 219 -134 218 C-133 216 -133 214 -133 212 C-132 212 -131 211 -130 211 C-130 210 -130 209 -130 208 C-129 206 -129 205 -129 204 C-128 204 -127 203 -126 203 C-126 200 -126 200 -126 196 C-125 191 -125 191 -125 188 C-124 188 -123 187 -122 187 C-122 184 -122 184 -122 180 C-121 175 -121 175 -121 172 C-120 172 -119 171 -118 171 C-118 167 -118 167 -118 162 C-117 156 -117 156 -117 152 C-116 152 -115 151 -114 151 C-114 147 -114 143 -114 140 C-113 136 -113 132 -113 128 C-112 128 -111 127 -110 127 C-110 124 -110 124 -110 120 C-109 115 -109 115 -109 112 C-108 112 -107 111 -106 111 C-106 108 -106 108 -106 104 C-105 99 -105 99 -105 96 C-104 96 -103 95 -102 95 C-102 94 -102 93 -102 92 C-101 90 -101 89 -101 88 C-100 88 -99 87 -98 87 C-98 86 -98 85 -98 84 C-97 82 -97 81 -97 80 C-96 80 -95 79 -94 79 C-94 78 -94 77 -94 76 C-93 74 -93 73 -93 72 C-92 72 -91 71 -90 71 C-90 70 -90 69 -90 68 C-89 66 -89 65 -89 64 C-88 64 -87 63 -86 63 C-85 59 -85 59 -85 56 C-84 56 -83 56 -82 56 C-81 55 -81 53 -80 52 C-79 52 -79 51 -78 51 C-78 49 -77 46 -77 44 C-76 44 -75 44 -74 44 C-73 43 -73 41 -72 40 C-71 40 -71 40 -70 40 C-69 39 -69 37 -68 36 C-67 36 -67 36 -66 36 C-65 35 -65 33 -64 32 C-63 32 -63 32 -62 32 C-61 31 -61 29 -60 28 C-59 28 -59 28 -58 28 C-57 27 -57 25 -56 24 C-54 24 -52 24 -50 24 C-49 23 -49 21 -48 20 C-47 20 -47 20 -46 20 C-45 19 -45 17 -44 16 C-42 16 -40 16 -38 16 C-37 15 -37 13 -36 12 C-34 12 -32 12 -30 12 C-29 11 -29 9 -28 8 C-25 8 -21 8 -18 8 C-17 7 -17 5 -16 4 C-12 4 -9 4 -5 4 C-4 4 -3 4 -2 4 C-1 3 -1 1 0 0 Z " fill="#C6C9D3" transform="translate(226,25)"/>
<path d="M0 0 C4 -1 4 -1 9 -1 C10 -1 10 -1 14 -1 C16 -1 18 -1 20 -0 C21 -1 21 -1 26 -1 C27 -1 29 -1 31 -1 C32 -1 32 -1 36 -1 C37 -0 39 -0 40 0 C40 1 40 1 42 4 C45 4 45 4 49 4 C53 4 53 4 56 4 C57 5 57 7 58 8 C60 8 62 8 64 8 C65 9 65 11 66 12 C68 12 70 12 72 12 C73 13 73 15 74 16 C76 16 78 16 80 16 C81 17 81 19 82 20 C83 20 83 20 86 22 C86 23 86 23 86 24 C88 24 90 24 92 24 C93 25 93 27 94 28 C95 28 95 28 98 30 C98 31 98 31 98 32 C99 33 101 33 102 34 C102 35 102 35 102 36 C103 37 105 37 106 38 C106 39 106 39 106 40 C107 40 108 40 109 40 C109 41 109 42 109 43 C110 47 110 47 114 50 C114 51 114 51 114 52 C115 52 116 52 117 52 C117 53 117 54 117 55 C118 57 118 58 118 59 C119 59 120 60 121 60 C121 62 122 65 122 67 C123 67 124 68 125 68 C125 70 126 73 126 75 C127 75 128 76 129 76 C129 80 130 83 130 87 C131 87 132 88 133 88 C133 92 134 96 134 100 C134 101 134 102 134 103 C135 103 136 104 137 104 C137 109 138 114 138 119 C138 120 138 122 138 123 C139 123 140 124 141 124 C141 128 141 128 141 134 C141 135 141 136 141 137 C141 142 141 146 142 151 C142 154 142 157 142 161 C142 163 142 165 142 167 C142 168 142 169 142 171 C143 171 144 172 145 172 C145 178 145 184 146 189 C146 193 146 196 146 199 C147 199 148 200 149 200 C150 204 150 204 150 210 C150 211 150 213 150 215 C150 216 150 218 150 219 C151 219 153 219 154 219 C155 216 155 216 156 212 C157 212 157 211 158 211 C158 209 159 206 159 204 C160 204 161 204 162 204 C163 203 163 201 164 200 C165 200 165 200 166 200 C167 199 167 197 168 196 C169 196 169 196 170 196 C171 195 171 193 172 192 C176 192 180 191 184 192 C185 191 186 191 187 191 C191 191 191 191 196 192 C197 193 197 195 198 196 C199 197 201 197 202 198 C202 199 202 199 202 200 C203 201 205 201 206 202 C206 203 206 203 206 204 C207 204 208 204 209 204 C209 205 209 206 209 207 C209 209 209 210 209 211 C209 213 209 214 209 216 C210 217 210 218 210 219 C211 219 212 220 213 220 C213 225 213 225 213 230 C213 232 213 234 213 236 C213 237 213 237 213 241 C213 241 213 241 210 243 C210 244 210 246 210 247 C212 247 213 247 215 247 C217 247 218 248 220 248 C221 249 221 251 222 252 C224 252 226 252 228 252 C229 253 229 255 230 256 C232 256 234 256 236 256 C237 257 237 259 238 260 C239 260 240 260 241 260 C241 261 241 262 241 263 C241 264 241 264 242 267 C243 267 244 268 245 268 C245 270 246 273 246 275 C247 275 248 276 249 276 C249 279 249 279 249 284 C249 285 249 287 249 288 C249 292 250 295 250 299 C250 300 250 302 250 303 C250 305 250 306 250 308 C250 309 250 310 250 311 C251 311 252 312 253 312 C253 316 253 321 253 325 C253 326 253 327 253 329 C253 332 253 335 253 338 C252 338 251 339 250 339 C250 341 250 343 250 344 C249 346 249 348 249 350 C248 350 247 351 246 351 C246 354 246 354 246 358 C245 363 245 363 245 366 C244 366 243 367 242 367 C242 368 242 369 242 370 C241 372 241 373 241 374 C240 374 239 375 238 375 C237 379 237 379 237 382 C236 382 235 382 234 382 C233 383 233 385 232 386 C231 386 231 386 230 386 C229 387 229 389 228 390 C226 390 224 390 222 390 C221 391 221 393 220 394 C218 394 216 394 214 394 C213 395 213 397 212 398 C207 398 203 398 198 398 C197 398 195 398 194 398 C193 399 193 401 192 402 C190 402 188 402 186 402 C185 403 185 405 184 406 C182 406 180 406 178 406 C177 407 177 409 176 410 C173 410 173 410 169 410 C169 410 169 410 165 410 C162 410 160 410 157 410 C156 410 156 410 153 410 C151 410 150 410 149 410 C148 410 147 410 146 410 C145 411 145 413 144 414 C143 414 143 414 142 414 C141 415 141 417 140 418 C139 418 139 419 138 419 C138 421 137 424 137 426 C136 426 135 426 134 426 C133 427 133 429 132 430 C131 430 131 430 130 430 C129 431 129 433 128 434 C127 434 127 434 126 434 C125 435 125 437 124 438 C123 438 123 438 122 438 C121 439 121 441 120 442 C119 442 119 442 118 442 C117 443 117 445 116 446 C114 446 112 446 110 446 C109 447 109 449 108 450 C107 450 107 450 106 450 C105 451 105 453 104 454 C102 454 100 454 98 454 C97 455 97 457 96 458 C94 458 92 458 90 458 C89 459 89 461 88 462 C87 462 87 463 86 463 C86 464 86 466 86 467 C88 467 89 467 91 467 C93 467 94 468 96 468 C97 469 97 471 98 472 C101 472 101 472 106 472 C106 472 106 472 110 472 C111 472 111 472 115 472 C118 472 121 472 124 472 C126 472 127 472 129 472 C129 472 129 472 132 472 C133 473 133 475 134 476 C138 476 141 476 145 476 C149 476 152 476 156 476 C157 477 157 479 158 480 C160 480 161 480 163 480 C165 480 166 480 168 480 C169 481 169 483 170 484 C171 484 172 485 173 485 C173 487 172 488 172 490 C170 490 168 490 166 490 C165 491 165 493 164 494 C160 494 157 494 153 494 C152 494 151 494 150 494 C149 495 149 497 148 498 C143 498 139 498 134 498 C131 498 129 498 126 498 C125 499 125 501 124 502 C120 502 116 502 112 502 C111 502 110 502 108 502 C103 502 98 502 93 502 C89 502 86 502 82 502 C81 502 80 502 78 502 C75 502 75 502 70 502 C69 503 69 505 68 506 C64 506 60 507 56 507 C54 507 53 507 52 507 C48 507 43 507 39 507 C36 507 33 507 30 507 C24 507 18 507 12 507 C4 506 -4 507 -12 507 C-18 507 -25 507 -31 507 C-34 507 -36 507 -39 507 C-43 507 -48 507 -52 507 C-53 507 -54 507 -55 507 C-59 507 -59 507 -64 506 C-65 505 -65 503 -66 502 C-70 502 -70 502 -75 502 C-76 502 -76 502 -81 502 C-82 502 -82 502 -87 502 C-91 502 -95 502 -99 502 C-100 502 -102 502 -104 502 C-105 502 -107 502 -108 502 C-109 501 -109 499 -110 498 C-114 498 -119 498 -123 498 C-127 498 -132 498 -136 498 C-136 497 -136 497 -138 494 C-141 494 -141 494 -145 494 C-149 494 -149 494 -152 494 C-152 493 -152 493 -154 490 C-156 490 -158 490 -160 490 C-160 488 -161 487 -161 485 C-160 485 -159 484 -158 484 C-157 483 -157 481 -156 480 C-154 480 -152 480 -150 480 C-149 479 -149 477 -148 476 C-143 476 -139 476 -134 476 C-131 476 -129 476 -126 476 C-125 475 -125 473 -124 472 C-120 471 -120 471 -114 471 C-113 471 -112 471 -111 471 C-107 471 -104 471 -101 471 C-99 471 -96 471 -94 471 C-89 471 -83 471 -78 471 C-78 470 -78 468 -78 467 C-80 466 -83 466 -85 465 C-85 465 -85 465 -86 462 C-88 462 -90 462 -92 462 C-93 461 -93 459 -94 458 C-96 458 -98 458 -100 458 C-101 457 -101 455 -102 454 C-106 454 -106 454 -110 454 C-111 455 -111 457 -112 458 C-113 458 -113 458 -114 458 C-115 459 -115 461 -116 462 C-119 462 -123 462 -126 462 C-127 463 -127 465 -128 466 C-131 466 -135 466 -138 466 C-139 467 -139 469 -140 470 C-143 471 -143 471 -146 470 C-147 471 -147 471 -149 471 C-150 470 -151 470 -152 470 C-152 469 -152 469 -154 466 C-156 466 -158 466 -160 466 C-160 465 -160 465 -162 462 C-166 462 -166 462 -170 462 C-170 463 -170 463 -172 466 C-176 467 -176 467 -182 466 C-184 467 -186 467 -188 467 C-189 466 -190 466 -192 466 C-193 465 -193 463 -194 462 C-196 462 -199 462 -201 462 C-201 456 -201 450 -201 444 C-200 444 -199 444 -198 444 C-198 443 -198 443 -196 440 C-195 440 -195 439 -194 439 C-194 435 -193 432 -193 428 C-192 428 -191 428 -190 428 C-190 427 -190 427 -188 424 C-187 424 -187 424 -186 424 C-186 423 -186 423 -184 420 C-183 420 -183 420 -182 420 C-182 419 -182 419 -180 416 C-179 416 -179 415 -178 415 C-178 412 -178 412 -178 409 C-178 408 -178 407 -178 406 C-178 405 -178 404 -178 403 C-179 403 -180 402 -181 402 C-181 398 -182 395 -182 391 C-183 391 -184 390 -185 390 C-185 385 -186 380 -186 375 C-186 374 -186 372 -186 371 C-187 371 -188 370 -189 370 C-189 366 -189 366 -189 362 C-189 360 -189 358 -189 356 C-189 355 -189 353 -189 351 C-189 349 -189 347 -189 346 C-189 344 -189 342 -189 340 C-189 340 -189 340 -189 336 C-189 334 -189 333 -189 332 C-188 332 -187 331 -186 331 C-186 327 -186 323 -186 320 C-185 316 -185 312 -185 308 C-184 308 -183 307 -182 307 C-182 305 -182 303 -182 302 C-181 300 -181 298 -181 296 C-180 296 -179 295 -178 295 C-178 294 -178 293 -178 292 C-177 290 -177 289 -177 288 C-176 288 -175 287 -174 287 C-174 286 -174 285 -174 284 C-173 282 -173 281 -173 280 C-172 280 -171 279 -170 279 C-170 278 -170 277 -170 276 C-169 274 -169 273 -169 272 C-168 272 -167 271 -166 271 C-165 267 -165 267 -165 264 C-164 264 -163 264 -162 264 C-161 263 -161 261 -160 260 C-159 260 -159 259 -158 259 C-158 257 -157 254 -157 252 C-156 252 -155 252 -154 252 C-153 251 -153 249 -152 248 C-151 248 -151 247 -150 247 C-150 245 -149 242 -149 240 C-148 240 -147 240 -146 240 C-145 239 -145 237 -144 236 C-143 236 -143 236 -142 236 C-141 235 -141 233 -140 232 C-139 232 -139 231 -138 231 C-138 230 -138 229 -138 228 C-137 227 -137 227 -137 224 C-136 224 -135 223 -134 223 C-134 221 -134 219 -134 218 C-133 216 -133 214 -133 212 C-132 212 -131 211 -130 211 C-130 210 -130 209 -130 208 C-129 206 -129 205 -129 204 C-128 204 -127 203 -126 203 C-126 200 -126 200 -126 196 C-125 191 -125 191 -125 188 C-124 188 -123 187 -122 187 C-122 184 -122 184 -122 180 C-121 175 -121 175 -121 172 C-120 172 -119 171 -118 171 C-118 167 -118 167 -118 162 C-117 156 -117 156 -117 152 C-116 152 -115 151 -114 151 C-114 147 -114 143 -114 140 C-113 136 -113 132 -113 128 C-112 128 -111 127 -110 127 C-110 124 -110 124 -110 120 C-109 115 -109 115 -109 112 C-108 112 -107 111 -106 111 C-106 108 -106 108 -106 104 C-105 99 -105 99 -105 96 C-104 96 -103 95 -102 95 C-102 94 -102 93 -102 92 C-101 90 -101 89 -101 88 C-100 88 -99 87 -98 87 C-98 86 -98 85 -98 84 C-97 82 -97 81 -97 80 C-96 80 -95 79 -94 79 C-94 78 -94 77 -94 76 C-93 74 -93 73 -93 72 C-92 72 -91 71 -90 71 C-90 70 -90 69 -90 68 C-89 66 -89 65 -89 64 C-88 64 -87 63 -86 63 C-85 59 -85 59 -85 56 C-84 56 -83 56 -82 56 C-81 55 -81 53 -80 52 C-79 52 -79 51 -78 51 C-78 49 -77 46 -77 44 C-76 44 -75 44 -74 44 C-73 43 -73 41 -72 40 C-71 40 -71 40 -70 40 C-69 39 -69 37 -68 36 C-67 36 -67 36 -66 36 C-65 35 -65 33 -64 32 C-63 32 -63 32 -62 32 C-61 31 -61 29 -60 28 C-59 28 -59 28 -58 28 C-57 27 -57 25 -56 24 C-54 24 -52 24 -50 24 C-49 23 -49 21 -48 20 C-47 20 -47 20 -46 20 C-45 19 -45 17 -44 16 C-42 16 -40 16 -38 16 C-37 15 -37 13 -36 12 C-34 12 -32 12 -30 12 C-29 11 -29 9 -28 8 C-25 8 -21 8 -18 8 C-17 7 -17 5 -16 4 C-12 4 -9 4 -5 4 C-4 4 -3 4 -2 4 C-1 3 -1 1 0 0 Z M-63 49 C-88 78 -97 116 -103 154 C-112 202 -112 202 -123 223 C-125 228 -123 234 -122 239 C-126 243 -128 244 -133 245 C-148 252 -158 274 -163 289 C-163 290 -164 291 -164 292 C-165 293 -165 295 -166 296 C-168 303 -170 309 -172 316 C-172 317 -172 319 -173 320 C-178 341 -178 341 -174 348 C-173 348 -173 348 -172 348 C-173 349 -173 350 -174 351 C-177 357 -176 362 -175 369 C-175 370 -175 371 -175 372 C-174 381 -173 389 -170 398 C-170 399 -169 400 -169 401 C-168 405 -166 408 -162 411 C-158 411 -156 410 -154 408 C-144 397 -144 397 -144 393 C-143 393 -141 394 -140 394 C-139 394 -139 393 -138 393 C-138 395 -139 397 -140 399 C-142 407 -142 412 -138 420 C-135 422 -135 422 -129 422 C-117 417 -109 408 -104 396 C-102 392 -102 392 -102 390 C-100 390 -99 391 -97 391 C-96 391 -96 391 -92 391 C-89 388 -88 385 -86 381 C-85 380 -85 379 -84 377 C-80 368 -77 358 -74 348 C-74 347 -73 346 -73 344 C-68 329 -69 311 -71 294 C-71 289 -71 289 -69 284 C-68 284 -67 283 -66 283 C-66 283 -66 283 -65 286 C-64 286 -64 286 -63 286 C-57 323 -61 360 -82 391 C-84 394 -87 397 -89 400 C-90 401 -90 402 -91 403 C-94 406 -98 409 -101 412 C-104 415 -106 417 -109 420 C-109 421 -109 421 -109 422 C-111 423 -113 424 -115 425 C-116 429 -116 431 -113 435 C-98 448 -75 460 -55 459 C-50 457 -50 457 -49 456 C-43 456 -43 456 -39 459 C-25 471 6 467 24 466 C39 464 54 462 67 453 C70 452 72 451 75 450 C75 451 75 452 75 453 C90 451 105 440 115 429 C116 428 118 427 119 426 C125 420 132 414 135 406 C135 401 134 399 131 395 C129 394 128 393 126 391 C119 385 115 379 113 370 C113 368 112 367 112 365 C105 338 102 313 116 288 C119 284 119 284 123 283 C124 285 124 285 124 291 C123 293 122 296 120 298 C110 320 116 346 122 368 C126 379 133 387 143 392 C150 396 156 397 163 397 C163 395 163 394 163 392 C164 392 164 392 165 392 C165 391 165 391 165 390 C164 389 163 388 161 387 C155 383 152 378 150 370 C150 362 150 362 151 358 C152 351 150 348 146 343 C143 335 143 328 146 320 C147 319 147 317 148 316 C148 310 148 310 146 306 C141 299 141 292 143 284 C148 270 156 261 169 255 C175 253 181 251 188 250 C193 250 193 250 196 248 C201 241 201 228 200 219 C199 215 198 212 197 208 C196 208 196 208 195 208 C195 207 195 207 195 206 C189 203 184 203 177 203 C177 204 177 204 177 205 C175 206 174 206 172 207 C168 211 167 214 166 220 C165 221 165 222 164 224 C163 228 162 231 162 235 C161 236 161 238 160 240 C160 241 160 241 159 245 C156 253 152 256 145 261 C140 263 138 265 135 269 C131 270 131 270 128 270 C128 265 129 261 133 257 C135 256 136 255 138 253 C143 250 143 250 144 245 C144 242 143 238 142 235 C142 234 142 233 142 232 C140 223 138 214 136 205 C133 191 132 178 131 164 C128 124 124 80 97 48 C96 47 96 47 94 44 C76 25 52 14 26 13 C-9 12 -39 23 -63 49 Z " fill="#101012" transform="translate(226,25)"/>
<path d="M0 0 C23 18 35 44 42 72 C42 74 42 75 42 77 C39 76 37 74 34 73 C34 72 33 71 33 70 C31 69 30 69 28 68 C27 68 27 67 26 67 C17 66 13 67 6 73 C1 78 -2 84 -5 91 C-6 94 -8 98 -10 101 C-11 101 -11 101 -12 101 C-13 103 -13 106 -14 108 C-15 109 -15 109 -16 110 C-18 110 -20 110 -23 109 C-33 109 -39 113 -46 120 C-49 122 -52 125 -54 128 C-55 124 -55 124 -53 121 C-53 120 -52 119 -51 118 C-51 117 -51 117 -49 115 C-46 112 -43 110 -40 108 C-39 108 -39 108 -38 108 C-38 107 -37 106 -37 105 C-34 103 -34 103 -29 102 C-29 101 -30 99 -30 98 C-31 93 -31 89 -31 84 C-32 71 -32 71 -37 65 C-43 62 -48 61 -55 62 C-57 63 -58 63 -60 64 C-63 65 -66 66 -69 67 C-70 67 -72 68 -73 68 C-78 69 -81 67 -85 65 C-91 63 -95 64 -101 65 C-110 70 -116 76 -121 86 C-122 87 -122 88 -123 89 C-124 93 -124 93 -124 99 C-125 104 -125 104 -130 107 C-136 110 -142 109 -149 109 C-155 109 -159 111 -164 114 C-166 114 -167 114 -169 114 C-172 115 -172 115 -175 117 C-175 118 -175 119 -175 121 C-175 121 -175 121 -176 124 C-180 125 -180 125 -184 126 C-182 81 -165 37 -132 5 C-94 -25 -41 -28 0 0 Z " fill="#C7CAD4" transform="translate(307,57)"/>
<path d="M0 0 C1 1 2 1 3 2 C4 2 4 2 8 2 C18 2 27 6 34 13 C34 14 34 14 34 15 C35 15 35 15 36 15 C43 24 55 39 54 50 C53 53 53 55 52 57 C52 60 52 60 52 64 C54 81 55 99 49 116 C48 118 48 119 47 121 C44 134 39 148 31 159 C29 159 28 159 26 158 C24 158 23 158 21 158 C20 160 20 160 19 164 C14 175 8 184 -4 189 C-5 189 -5 190 -6 190 C-12 190 -12 190 -16 187 C-20 178 -17 170 -15 161 C-16 161 -18 162 -19 162 C-20 162 -20 161 -21 161 C-22 163 -22 164 -23 166 C-24 168 -25 169 -26 171 C-27 172 -27 173 -28 174 C-30 176 -30 176 -35 179 C-40 178 -40 178 -43 175 C-49 164 -51 153 -52 141 C-52 140 -52 138 -52 137 C-53 129 -53 124 -49 116 C-50 116 -50 116 -51 116 C-56 107 -51 94 -49 84 C-48 83 -48 82 -48 80 C-46 73 -44 67 -41 60 C-40 58 -40 57 -39 55 C-32 39 -24 22 -9 12 C-8 12 -6 11 -5 11 C-1 10 -1 10 1 7 C1 3 1 3 0 0 Z " fill="#8F94A3" transform="translate(103,257)"/>
<path d="M0 0 C6 8 8 16 7 26 C7 29 6 31 5 33 C5 39 5 39 7 43 C11 52 10 61 8 69 C5 73 5 73 2 78 C-1 81 -1 81 -1 85 C-0 86 -0 87 0 88 C2 95 -0 98 -4 103 C-12 114 -22 117 -35 118 C-36 118 -37 118 -38 118 C-39 119 -40 119 -42 119 C-53 118 -62 114 -70 106 C-73 102 -74 99 -73 93 C-72 93 -72 93 -69 91 C-69 91 -69 90 -69 89 C-66 88 -66 88 -63 87 C-63 88 -63 88 -62 88 C-59 89 -56 89 -53 89 C-52 90 -51 90 -51 90 C-50 87 -50 87 -49 83 C-51 81 -53 81 -57 81 C-63 81 -68 79 -74 75 C-78 71 -80 68 -80 62 C-78 53 -75 50 -68 45 C-62 42 -62 42 -60 42 C-60 39 -60 39 -61 35 C-63 35 -63 35 -67 34 C-72 34 -75 33 -80 30 C-82 26 -81 20 -81 15 C-77 6 -72 0 -62 -4 C-43 -12 -16 -15 0 0 Z " fill="#878DA0" transform="translate(457.75,294.5625)"/>
<path d="M0 0 C2 0 5 1 7 1 C8 1 10 2 11 2 C12 2 13 3 14 3 C15 7 15 7 15 9 C12 10 8 11 5 12 C2 13 2 13 0 17 C1 22 1 22 2 23 C9 23 9 23 11 22 C15 22 15 22 20 22 C22 24 25 27 27 29 C32 30 32 30 36 29 C36 29 36 29 37 26 C37 26 37 26 38 23 C43 22 44 23 49 25 C51 25 53 25 55 25 C56 24 56 24 57 23 C57 22 57 20 57 19 C57 15 57 15 59 11 C64 11 68 11 73 11 C84 11 95 11 107 10 C107 10 107 10 111 9 C118 8 125 7 132 6 C132 7 133 8 133 9 C132 10 132 10 131 11 C131 14 131 16 131 19 C135 20 139 20 143 19 C147 19 147 19 152 22 C153 23 154 24 155 25 C158 26 158 26 162 26 C164 24 164 24 166 21 C167 21 167 21 168 21 C168 20 168 20 168 19 C174 19 174 19 177 21 C180 21 180 21 183 20 C185 17 185 17 185 14 C182 9 182 9 180 8 C180 7 180 7 180 6 C185 6 190 6 195 6 C196 6 198 6 199 6 C201 6 202 6 203 6 C204 6 206 6 207 6 C208 6 209 6 210 6 C211 7 211 9 212 10 C216 10 219 10 223 10 C227 10 230 10 234 10 C235 11 235 13 236 14 C238 14 239 14 241 14 C243 14 244 14 246 14 C247 15 247 17 248 18 C249 18 250 19 251 19 C251 21 250 22 250 24 C248 24 246 24 244 24 C243 25 243 27 242 28 C238 28 235 28 231 28 C231 28 231 28 228 28 C227 29 227 31 226 32 C221 32 217 32 212 32 C209 32 207 32 204 32 C203 33 203 35 202 36 C198 36 194 36 190 36 C189 36 188 36 186 36 C181 36 176 36 171 36 C167 36 164 36 160 36 C159 36 158 36 156 36 C153 36 153 36 148 36 C147 37 147 39 146 40 C142 40 138 41 134 41 C132 41 131 41 130 41 C126 41 121 41 117 41 C114 41 111 41 108 41 C102 41 96 41 90 41 C82 40 74 41 66 41 C60 41 53 41 47 41 C44 41 42 41 39 41 C35 41 30 41 26 41 C25 41 24 41 23 41 C19 41 19 41 14 40 C14 39 14 39 12 36 C8 36 8 36 3 36 C1 36 -1 36 -3 36 C-5 36 -7 36 -9 36 C-13 36 -17 36 -21 36 C-22 36 -24 36 -26 36 C-27 36 -29 36 -30 36 C-31 35 -31 33 -32 32 C-36 32 -41 32 -45 32 C-49 32 -54 32 -58 32 C-59 31 -59 29 -60 28 C-63 28 -63 28 -67 28 C-71 28 -71 28 -74 28 C-75 27 -75 25 -76 24 C-78 24 -80 24 -82 24 C-82 23 -82 23 -83 19 C-82 19 -81 18 -80 18 C-79 17 -79 15 -78 14 C-76 14 -74 14 -72 14 C-71 13 -71 11 -70 10 C-65 10 -61 10 -56 10 C-53 10 -51 10 -48 10 C-47 9 -47 7 -46 6 C-42 5 -42 5 -36 5 C-35 5 -34 5 -33 5 C-29 5 -26 5 -23 5 C-21 5 -18 5 -16 5 C-11 5 -5 5 0 5 C0 3 0 2 0 0 Z " fill="#D9DBE3" transform="translate(148,491)"/>
<path d="M0 0 C5 2 7 4 11 8 C12 9 13 9 14 10 C20 14 20 22 21 28 C23 47 24 65 24 84 C20 82 20 82 18 79 C17 79 17 79 16 79 C16 77 16 75 16 73 C17 73 17 73 18 73 C18 69 18 66 18 62 C15 61 15 61 11 61 C9 64 6 66 4 69 C-3 73 -8 74 -15 72 C-17 72 -18 71 -19 71 C-19 72 -19 73 -19 75 C-20 79 -20 81 -24 84 C-26 85 -27 85 -29 86 C-34 88 -34 88 -36 92 C-36 93 -37 95 -37 96 C-39 102 -41 106 -46 110 C-51 112 -54 112 -59 110 C-66 105 -70 98 -73 90 C-75 86 -78 83 -81 79 C-85 73 -85 73 -84 67 C-81 63 -81 63 -78 59 C-77 58 -77 57 -76 57 C-74 54 -71 51 -68 49 C-67 48 -66 47 -64 46 C-59 43 -54 42 -48 43 C-46 43 -44 43 -42 43 C-40 39 -40 39 -38 35 C-37 34 -35 32 -34 31 C-33 28 -33 28 -32 25 C-26 10 -18 -1 0 0 Z " fill="#EBEDEF" transform="translate(333,123)"/>
<path d="M0 0 C7 -0 12 0 18 3 C18 4 18 4 18 5 C19 5 19 5 20 5 C24 17 24 30 21 42 C18 46 17 47 12 48 C11 48 10 48 8 48 C-7 50 -18 57 -28 68 C-34 77 -35 85 -35 95 C-34 100 -32 103 -29 107 C-29 113 -29 113 -31 117 C-34 124 -35 131 -32 138 C-30 141 -28 145 -26 148 C-26 152 -26 154 -27 158 C-28 167 -26 173 -21 180 C-17 184 -17 184 -12 187 C-12 188 -12 188 -12 189 C-13 189 -13 189 -14 189 C-14 191 -14 192 -14 194 C-25 195 -34 190 -42 184 C-58 171 -60 148 -62 128 C-63 113 -60 101 -53 88 C-53 82 -53 82 -55 78 C-54 75 -52 73 -51 70 C-51 68 -50 67 -50 65 C-50 66 -49 66 -49 67 C-46 67 -46 67 -42 66 C-41 65 -41 64 -40 64 C-37 59 -32 57 -27 54 C-21 50 -19 45 -17 37 C-17 35 -16 34 -16 32 C-15 28 -14 25 -13 21 C-12 20 -12 18 -11 17 C-11 15 -11 14 -10 13 C-9 9 -7 6 -4 3 C-3 3 -1 2 0 2 C0 1 0 1 0 0 Z " fill="#60667A" transform="translate(403,228)"/>
<path d="M0 0 C10 6 14 13 18 24 C19 26 20 27 20 29 C23 37 22 46 20 55 C16 62 13 65 6 69 C5 70 4 71 3 71 C-4 76 -11 76 -19 75 C-29 72 -35 69 -41 60 C-41 59 -42 58 -42 57 C-42 56 -42 56 -44 53 C-48 43 -48 29 -44 19 C-43 18 -43 18 -41 15 C-40 14 -40 13 -39 11 C-29 -2 -16 -9 0 0 Z " fill="#EDEFF1" transform="translate(228.10546875,124.2578125)"/>
<path d="M0 0 C2 3 4 6 5 9 C7 13 9 14 13 15 C18 15 21 15 26 14 C27 15 28 15 29 16 C34 18 35 19 40 18 C43 16 43 16 46 14 C50 10 52 9 57 8 C61 9 63 10 66 13 C68 16 68 16 68 20 C68 20 68 20 67 23 C66 23 66 24 65 24 C65 25 65 27 65 28 C64 34 63 37 59 41 C56 41 52 40 49 40 C48 42 48 42 47 46 C42 57 36 66 24 71 C24 71 24 71 22 72 C16 72 16 72 12 69 C8 60 11 52 13 43 C12 43 12 43 9 44 C9 44 9 44 7 43 C7 44 7 44 5 48 C4 50 3 51 2 53 C1 54 1 55 -0 56 C-2 58 -2 58 -7 61 C-12 60 -12 60 -15 57 C-21 46 -23 35 -24 23 C-24 22 -24 20 -24 19 C-25 12 -25 7 -22 0 C-20 -0 -17 -0 -15 -0 C-10 0 -5 -1 0 0 Z " fill="#7B8195" transform="translate(75,375)"/>
<path d="M0 0 C1 1 2 1 3 2 C4 2 4 2 8 2 C18 2 27 6 34 13 C34 14 34 14 34 15 C35 15 35 15 36 15 C43 24 55 39 54 50 C53 52 53 53 53 54 C52 59 52 63 52 68 C48 64 48 64 45 60 C42 56 42 56 40 55 C38 55 35 55 33 55 C33 55 33 55 29 56 C28 56 26 56 25 56 C24 56 22 56 21 56 C20 56 19 56 17 56 C16 56 15 57 14 57 C11 57 11 57 8 58 C-5 62 -20 58 -32 53 C-36 56 -36 56 -39 59 C-37 43 -25 26 -14 15 C-9 12 -9 12 -5 11 C-1 10 -1 10 1 7 C1 3 1 3 0 0 Z " fill="#8E93A2" transform="translate(103,257)"/>
<path d="M0 0 C6 2 11 3 18 3 C18 3 18 3 22 3 C26 2 26 2 28 2 C33 -0 38 -0 43 -1 C44 -1 45 -1 46 -1 C60 -2 60 -2 64 0 C68 5 71 9 72 15 C71 26 71 26 70 29 C63 30 63 30 61 28 C48 28 37 27 25 34 C23 35 23 35 18 36 C14 38 12 40 8 43 C2 47 -1 48 -9 48 C-12 47 -15 48 -18 49 C-20 51 -21 52 -22 53 C-23 54 -24 55 -24 55 C-28 52 -27 49 -28 45 C-28 42 -29 39 -29 36 C-29 33 -28 29 -27 26 C-27 24 -26 22 -26 20 C-24 11 -21 3 -14 -2 C-9 -4 -5 -2 0 0 Z " fill="#888EA0" transform="translate(82.44921875,312.52734375)"/>
<path d="M0 0 C6 6 6 6 8 11 C8 15 7 20 6 24 C6 25 6 27 6 28 C5 28 4 28 3 28 C3 27 3 27 2 23 C2 23 2 23 -1 24 C-1 23 -1 23 -1 22 C-7 22 -10 25 -15 29 C-17 31 -18 34 -20 36 C-22 37 -22 37 -27 37 C-32 38 -34 39 -38 42 C-39 42 -40 42 -41 42 C-41 43 -41 44 -41 45 C-46 48 -51 47 -56 46 C-57 42 -57 42 -57 39 C-60 38 -60 38 -63 38 C-69 37 -71 37 -76 34 C-78 30 -77 24 -77 19 C-73 9 -68 4 -59 -1 C-40 -8 -18 -11 0 0 Z " fill="#848A9D" transform="translate(454,291)"/>
<path d="M0 0 C6 4 10 7 14 13 C15 14 15 14 16 15 C20 18 21 21 22 25 C22 30 21 33 19 37 C17 39 17 39 12 41 C7 43 7 43 5 47 C4 48 4 50 4 51 C2 57 -0 61 -5 65 C-10 67 -14 67 -18 65 C-26 60 -29 53 -33 46 C-35 41 -37 38 -40 34 C-44 28 -44 28 -43 22 C-41 18 -41 18 -37 14 C-37 13 -36 13 -36 12 C-33 9 -30 7 -27 4 C-26 3 -25 2 -24 1 C-16 -4 -9 -3 0 0 Z " fill="#191308" transform="translate(292.3125,167.75)"/>
<path d="M0 0 C0 1 0 3 0 4 C1 15 6 25 14 32 C20 36 26 37 33 38 C34 39 35 39 36 39 C36 39 36 40 36 40 C35 40 34 40 32 40 C22 40 15 40 6 44 C-4 47 -11 49 -20 44 C-24 45 -27 46 -30 48 C-37 51 -42 52 -49 52 C-52 52 -52 52 -56 54 C-57 54 -57 53 -58 53 C-58 52 -58 50 -58 49 C-57 44 -57 44 -59 39 C-59 35 -58 33 -56 30 C-54 26 -54 26 -54 20 C-53 20 -52 20 -51 20 C-51 19 -51 18 -51 17 C-51 16 -51 14 -51 13 C-46 9 -43 9 -37 8 C-36 7 -34 7 -33 6 C-27 4 -22 4 -15 4 C-9 4 -5 0 0 0 Z " fill="#C0C4D0" transform="translate(182,161)"/>
<path d="M0 0 C2 0 5 1 7 1 C8 1 10 2 11 2 C12 2 13 3 14 3 C15 7 15 7 15 9 C12 10 8 11 5 12 C2 13 2 13 0 17 C1 22 1 22 2 23 C9 23 9 23 11 22 C15 22 15 22 20 22 C22 24 25 27 27 29 C29 30 30 30 32 31 C21 39 4 37 -10 37 C-12 37 -14 37 -16 37 C-17 37 -19 37 -21 37 C-23 37 -24 37 -26 37 C-27 36 -29 36 -30 36 C-31 35 -31 33 -32 32 C-36 32 -41 32 -45 32 C-49 32 -54 32 -58 32 C-59 31 -59 29 -60 28 C-63 28 -63 28 -67 28 C-71 28 -71 28 -74 28 C-75 27 -75 25 -76 24 C-78 24 -80 24 -82 24 C-82 23 -82 23 -83 19 C-82 19 -81 18 -80 18 C-79 17 -79 15 -78 14 C-76 14 -74 14 -72 14 C-71 13 -71 11 -70 10 C-65 10 -61 10 -56 10 C-53 10 -51 10 -48 10 C-47 9 -47 7 -46 6 C-42 5 -42 5 -36 5 C-35 5 -34 5 -33 5 C-29 5 -26 5 -23 5 C-21 5 -18 5 -16 5 C-11 5 -5 5 0 5 C0 3 0 2 0 0 Z " fill="#D7D9E1" transform="translate(148,491)"/>
<path d="M0 0 C0 3 0 3 -2 5 C-5 8 -8 11 -11 13 C-16 18 -20 23 -24 29 C-25 30 -25 31 -26 32 C-30 38 -33 45 -36 51 C-36 52 -37 53 -37 54 C-38 54 -38 54 -39 54 C-40 57 -41 60 -42 63 C-42 63 -43 64 -43 64 C-43 65 -43 67 -43 68 C-43 73 -43 73 -44 75 C-45 75 -45 75 -46 75 C-46 77 -46 79 -46 81 C-40 83 -37 81 -32 79 C-31 78 -29 77 -28 77 C-27 76 -25 76 -24 75 C-16 72 -9 71 -1 72 C3 76 3 76 4 81 C3 83 3 84 2 86 C0 91 0 91 -0 97 C-1 102 -1 102 -6 105 C-12 108 -18 107 -25 107 C-31 107 -35 109 -40 112 C-42 112 -43 112 -45 112 C-48 113 -48 113 -51 115 C-51 116 -51 117 -51 119 C-52 120 -52 121 -52 122 C-56 123 -56 123 -60 124 C-58 79 -41 34 -8 3 C-4 0 -4 0 0 0 Z " fill="#C8CBD5" transform="translate(183,59)"/>
<path d="M0 0 C-5 6 -5 6 -8 9 C-12 13 -14 16 -16 21 C-16 21 -15 22 -15 22 C-15 28 -15 31 -18 37 C-19 38 -20 38 -21 39 C-25 42 -27 45 -29 49 C-30 51 -31 52 -32 54 C-33 54 -33 54 -34 54 C-34 56 -35 57 -35 59 C-36 61 -36 63 -37 65 C-39 65 -40 64 -42 64 C-47 63 -47 63 -52 66 C-53 66 -53 66 -54 66 C-54 67 -53 69 -53 70 C-52 75 -52 75 -54 78 C-57 80 -60 82 -64 83 C-65 82 -67 80 -68 79 C-68 75 -67 72 -65 68 C-65 66 -65 63 -64 61 C-64 54 -64 54 -63 52 C-63 46 -63 46 -64 43 C-59 36 -51 30 -42 28 C-37 27 -37 27 -33 23 C-33 19 -34 16 -36 12 C-36 7 -36 7 -36 2 C-26 -8 -12 -4 0 0 Z " fill="#C0C4D0" transform="translate(364,269)"/>
<path d="M0 0 C10 0 10 0 15 2 C18 6 18 6 19 11 C20 12 21 13 21 14 C23 18 22 20 20 24 C14 33 8 39 -3 42 C-17 45 -29 45 -42 38 C-46 35 -49 32 -52 28 C-52 23 -52 23 -52 19 C-50 19 -49 18 -48 17 C-48 17 -48 16 -48 15 C-45 14 -45 14 -42 13 C-41 14 -41 14 -41 14 C-38 15 -35 15 -32 15 C-31 16 -30 16 -30 16 C-29 15 -28 13 -28 11 C-27 11 -26 10 -26 9 C-25 10 -24 11 -23 12 C-23 13 -23 14 -23 14 C-12 13 -12 13 -9 12 C-8 9 -8 6 -8 2 C-6 0 -6 0 0 0 Z " fill="#7C8296" transform="translate(436.5625,368.75)"/>
<path d="M0 0 C2 0 4 0 6 0 C7 1 8 2 9 3 C12 4 15 5 18 6 C19 6 21 6 22 7 C27 8 31 8 36 9 C38 10 40 11 42 12 C45 13 47 13 50 14 C51 15 53 15 54 16 C59 16 65 17 70 17 C75 17 75 17 78 19 C78 20 78 20 78 21 C79 21 79 21 80 21 C81 22 82 24 83 25 C82 25 80 26 79 26 C76 30 76 32 77 37 C76 38 76 40 75 41 C69 42 64 42 58 42 C56 42 55 42 53 42 C44 42 38 41 30 36 C30 37 30 37 31 40 C29 38 28 37 26 35 C26 34 26 34 26 33 C25 33 25 33 24 33 C22 31 21 30 19 28 C12 23 6 22 -3 21 C-5 21 -6 20 -8 20 C-9 16 -9 16 -8 14 C-7 14 -5 13 -4 13 C-3 10 -3 7 -2 4 C-1 3 -1 1 0 0 Z " fill="#C0C4D0" transform="translate(113,239)"/>
<path d="M0 0 C4 3 6 6 8 11 C8 15 8 15 9 20 C9 27 9 33 11 40 C10 40 9 40 8 41 C-2 44 -10 52 -15 61 C-15 62 -16 64 -16 65 C-16 67 -17 68 -17 69 C-21 69 -21 69 -25 67 C-24 66 -24 65 -23 64 C-19 54 -17 42 -21 32 C-29 13 -29 13 -37 7 C-37 6 -36 5 -36 4 C-33 3 -33 3 -30 3 C-25 2 -22 1 -18 -1 C-11 -4 -7 -3 0 0 Z " fill="#C0C4D0" transform="translate(268,120)"/>
<path d="M0 0 C3 1 3 1 8 2 C11 3 15 3 18 3 C21 4 21 4 25 6 C28 6 28 6 32 6 C36 6 39 6 43 7 C49 7 54 7 60 5 C64 6 64 6 66 9 C70 17 65 26 62 34 C59 41 59 41 57 45 C56 45 56 45 55 45 C55 42 55 42 56 38 C57 38 58 37 59 37 C59 36 58 35 58 34 C58 32 59 31 59 29 C56 25 55 24 50 23 C43 23 39 27 34 31 C31 34 29 34 25 33 C23 32 20 30 18 29 C17 29 17 29 13 30 C7 30 4 30 -1 27 C-5 22 -7 18 -9 12 C-7 9 -5 7 -2 4 C-1 3 -1 1 0 0 Z " fill="#868CA0" transform="translate(83,361)"/>
<path d="M0 0 C7 -0 12 0 18 3 C18 4 18 4 18 5 C19 5 19 5 20 5 C24 17 24 30 21 42 C18 46 17 47 12 48 C11 48 10 48 8 48 C-1 49 -8 52 -16 56 C-16 55 -17 53 -17 52 C-18 52 -20 51 -21 51 C-19 44 -17 37 -15 30 C-14 27 -14 24 -13 22 C-12 20 -12 19 -12 17 C-11 16 -11 14 -10 13 C-9 9 -7 6 -4 3 C-3 3 -1 2 0 2 C0 1 0 1 0 0 Z " fill="#7D8397" transform="translate(403,228)"/>
<path d="M0 0 C-1 0 -2 1 -3 1 C-3 2 -3 2 -1 7 C-2 7 -2 7 -3 7 C-3 8 -4 9 -4 10 C-7 11 -9 12 -12 13 C-16 14 -21 16 -25 18 C-26 18 -27 19 -28 19 C-28 20 -28 20 -28 21 C-29 22 -30 23 -32 24 C-36 28 -36 28 -38 31 C-40 34 -40 34 -45 36 C-45 37 -45 38 -45 39 C-48 41 -48 41 -52 42 C-52 42 -52 42 -53 43 C-59 43 -61 42 -66 39 C-68 35 -67 29 -67 24 C-63 14 -58 9 -49 4 C-33 -2 -17 -3 0 0 Z " fill="#7D8397" transform="translate(444,286)"/>
<path d="M0 0 C6 6 7 11 7 19 C7 29 3 36 -3 43 C-9 46 -12 47 -18 47 C-25 45 -30 42 -34 36 C-37 28 -36 21 -34 13 C-29 9 -27 10 -21 10 C-16 9 -14 5 -11 2 C-7 -2 -5 -1 0 0 Z " fill="#050507" transform="translate(235,145)"/>
<path d="M0 0 C4 2 7 3 11 5 C15 5 20 6 24 6 C25 6 27 6 28 6 C33 6 38 6 43 6 C47 6 47 6 52 9 C58 13 61 12 68 12 C68 12 68 12 70 14 C68 14 67 14 65 15 C55 16 48 22 42 29 C41 30 41 32 40 33 C39 33 39 33 38 33 C37 31 37 30 36 28 C34 26 34 26 30 26 C20 26 12 28 3 33 C-2 35 -6 36 -12 35 C-12 33 -11 30 -11 28 C-10 28 -10 28 -9 28 C-9 27 -9 27 -9 23 C-9 17 -7 13 -4 7 C-3 7 -3 7 -2 7 C-1 5 -1 2 0 0 Z " fill="#C0C4D0" transform="translate(148,106)"/>
<path d="M0 0 C1 3 1 5 2 8 C1 8 0 9 -1 9 C-0 10 0 12 1 13 C-0 16 -0 16 -3 19 C-3 20 -4 21 -5 22 C-6 23 -6 24 -7 25 C-10 30 -12 32 -11 38 C-4 50 9 55 22 61 C26 63 26 63 29 65 C29 66 29 66 29 67 C30 67 30 68 31 68 C27 72 25 72 20 72 C-0 71 -22 59 -36 45 C-36 42 -36 42 -36 38 C-32 35 -32 35 -30 35 C-29 34 -29 32 -28 31 C-26 29 -24 27 -22 25 C-21 24 -20 23 -19 22 C-18 21 -17 20 -16 19 C-10 13 -5 7 0 0 Z " fill="#B0B2B9" transform="translate(147,412)"/>
<path d="M0 0 C2 4 4 7 5 11 C5 11 5 11 6 12 C8 12 9 12 11 12 C18 12 22 12 27 17 C30 19 30 19 33 24 C32 29 31 30 27 33 C24 34 20 34 17 34 C14 34 14 34 9 35 C8 34 7 33 6 32 C7 31 7 29 8 28 C9 23 9 23 8 19 C3 22 -1 24 -6 28 C-15 34 -24 36 -35 36 C-36 35 -37 35 -38 34 C-38 29 -36 26 -33 22 C-32 21 -31 21 -29 20 C-26 17 -26 17 -26 11 C-25 10 -25 8 -25 6 C-22 4 -22 4 -18 3 C-17 3 -16 2 -15 2 C-10 1 -5 0 0 0 Z " fill="#3E4046" transform="translate(74,444)"/>
<path d="M0 0 C3 -0 3 -0 6 -0 C7 -0 7 -0 10 -0 C11 -0 13 -0 14 -0 C15 -0 15 -0 18 -0 C21 -0 25 -0 28 0 C28 1 28 3 28 4 C27 4 27 4 23 4 C20 4 18 4 16 4 C15 4 15 4 12 4 C7 5 3 5 -2 7 C-3 7 -4 7 -5 7 C-5 8 -5 9 -5 10 C-4 10 -2 11 -1 11 C-0 11 -0 11 2 12 C6 13 6 13 10 11 C11 10 12 10 13 9 C13 9 13 8 13 8 C17 8 20 8 24 8 C24 9 24 9 24 10 C25 10 26 10 27 10 C27 11 27 11 28 14 C27 16 26 17 25 19 C24 19 24 19 23 19 C23 20 23 21 23 22 C22 22 22 22 19 24 C21 26 24 25 27 26 C28 26 30 26 31 26 C31 26 31 26 34 26 C34 27 34 27 34 28 C35 28 36 28 37 28 C37 29 37 29 37 30 C34 30 30 30 27 30 C25 30 23 30 21 30 C19 30 18 30 16 30 C15 29 15 27 14 26 C10 26 5 26 1 26 C-3 26 -8 26 -12 26 C-13 25 -13 23 -14 22 C-17 22 -17 22 -21 22 C-25 22 -25 22 -28 22 C-29 21 -29 19 -30 18 C-32 18 -34 18 -36 18 C-36 17 -36 17 -37 13 C-36 13 -35 12 -34 12 C-33 11 -33 9 -32 8 C-30 8 -28 8 -26 8 C-25 7 -25 5 -24 4 C-19 4 -15 4 -10 4 C-7 4 -5 4 -2 4 C-1 3 -1 1 0 0 Z " fill="#DFE1E7" transform="translate(102,497)"/>
<path d="M0 0 C1 0 2 1 3 1 C4 4 4 4 4 8 C4 9 4 11 4 12 C4 19 0 21 -4 25 C-5 28 -5 28 -5 32 C-3 35 -3 35 -1 38 C2 42 2 42 3 45 C3 46 4 46 5 47 C2 52 -0 54 -5 57 C-10 56 -10 56 -13 53 C-21 40 -23 25 -20 10 C-20 9 -20 7 -19 6 C-18 6 -17 5 -15 5 C-15 4 -15 3 -14 2 C-13 2 -12 1 -10 1 C-9 2 -8 2 -7 3 C-3 0 -3 0 0 0 Z " fill="#61677B" transform="translate(73.1875,378.875)"/>
<path d="M0 0 C6 0 6 0 10 2 C14 5 16 6 20 7 C26 8 26 8 30 12 C33 17 31 22 29 27 C27 32 25 35 20 37 C13 37 8 35 2 32 C2 31 2 30 2 29 C1 29 0 28 -1 28 C-6 22 -5 16 -5 8 C-4 4 -4 4 0 0 Z " fill="#050507" transform="translate(307,151)"/>
<path d="M0 0 C4 4 9 7 13 11 C14 12 15 13 16 14 C18 18 19 20 19 24 C8 44 -14 62 -35 70 C-38 71 -38 71 -41 71 C-41 70 -42 68 -42 67 C-41 67 -40 67 -39 67 C-39 67 -38 68 -38 68 C-38 66 -37 65 -37 63 C-35 61 -35 61 -32 59 C-31 58 -30 58 -29 57 C-23 52 -17 48 -11 44 C-9 42 -9 42 -6 39 C-5 38 -3 36 -2 35 C0 31 0 29 0 24 C-0 24 -0 24 -1 22 C-1 19 -2 16 -2 14 C-2 12 -2 11 -2 9 C-2 5 -2 5 0 0 Z " fill="#ADAFB7" transform="translate(342,407)"/>
<path d="M0 0 C2 4 2 5 1 10 C1 11 0 11 0 12 C-1 12 -3 12 -4 12 C-4 14 -4 15 -4 17 C-3 18 -1 19 0 20 C0 22 0 23 0 25 C-3 27 -3 27 -7 30 C-8 30 -9 31 -11 32 C-17 36 -21 36 -29 35 C-32 33 -32 33 -34 29 C-34 22 -33 17 -28 12 C-28 12 -28 12 -25 11 C-22 10 -22 10 -20 7 C-19 6 -18 5 -17 4 C-15 4 -13 4 -11 4 C-11 3 -10 2 -10 1 C-7 -1 -4 -0 0 0 Z " fill="#C1C5D1" transform="translate(200,440)"/>
<path d="M0 0 C8 6 14 11 17 20 C18 21 18 23 19 24 C20 26 20 27 21 29 C16 32 15 32 9 32 C9 32 9 32 6 33 C1 35 -4 35 -10 34 C-13 32 -15 31 -17 27 C-18 22 -18 22 -17 17 C-14 13 -14 13 -10 10 C-4 5 -4 5 -2 2 C-1 2 -1 2 0 2 C0 1 0 1 0 0 Z " fill="#C0C4D0" transform="translate(313,70)"/>
<path d="M0 0 C3 3 3 6 3 11 C3 17 2 22 0 28 C-1 28 -3 29 -4 29 C-5 28 -5 27 -6 26 C-10 27 -10 27 -13 30 C-17 33 -21 33 -27 33 C-28 33 -29 34 -30 34 C-37 36 -46 35 -53 34 C-53 33 -52 33 -52 32 C-51 32 -50 32 -49 32 C-49 31 -49 30 -49 29 C-43 25 -38 24 -30 23 C-26 19 -26 19 -23 16 C-20 12 -18 10 -13 8 C-9 8 -9 8 -6 10 C-6 11 -6 11 -5 15 C-4 15 -4 14 -3 14 C-3 10 -2 7 -2 3 C-1 2 -1 1 0 0 Z " fill="#9095A4" transform="translate(462,304)"/>
<path d="M0 0 C1 1 3 3 4 4 C3 13 1 20 -5 26 C-6 26 -7 26 -8 26 C-8 27 -8 27 -8 28 C-10 28 -11 28 -13 28 C-14 28 -14 28 -19 29 C-21 33 -21 33 -23 39 C-24 41 -25 43 -26 45 C-27 46 -28 47 -28 48 C-29 48 -29 48 -30 50 C-31 50 -33 50 -34 50 C-34 49 -34 49 -34 48 C-34 48 -34 48 -32 47 C-32 47 -32 47 -33 44 C-33 38 -31 34 -27 29 C-24 23 -22 16 -20 10 C-19 5 -18 3 -14 0 C-9 -1 -5 -1 0 0 Z " fill="#BEC2CD" transform="translate(180,373)"/>
<path d="M0 0 C2 0 3 0 5 0 C5 1 6 2 6 3 C7 3 7 3 11 5 C13 6 14 7 16 8 C18 9 19 9 21 10 C26 15 28 20 30 27 C31 28 31 30 32 31 C32 32 32 33 32 34 C31 35 30 35 28 36 C20 42 16 48 14 58 C10 58 10 58 6 56 C7 55 7 54 8 53 C12 43 14 31 10 21 C7 14 4 7 0 0 Z " fill="#BCBFCB" transform="translate(237,131)"/>
<path d="M0 0 C7 4 13 10 17 17 C17 21 17 21 16 24 C10 27 -0 26 -7 24 C-13 22 -18 19 -24 16 C-24 11 -24 11 -22 9 C-21 8 -21 8 -19 6 C-18 6 -17 5 -16 4 C-10 0 -7 -1 0 0 Z " fill="#EEA210" transform="translate(286,175)"/>
<path d="M0 0 C2 2 2 2 2 5 C2 10 0 13 -3 17 C-4 17 -6 18 -7 18 C-8 19 -8 21 -9 22 C-11 24 -11 24 -14 26 C-15 26 -16 27 -16 28 C-19 29 -19 29 -24 30 C-29 28 -29 28 -31 26 C-32 23 -32 19 -33 16 C-34 14 -34 13 -35 11 C-34 10 -34 8 -33 7 C-30 7 -30 7 -27 7 C-21 7 -17 6 -12 4 C-10 4 -8 3 -7 3 C-2 2 -2 2 0 0 Z " fill="#C0C4D0" transform="translate(341,429)"/>
<path d="M0 0 C10 0 21 4 28 10 C28 14 28 14 26 16 C20 18 14 18 8 18 C8 17 8 16 8 16 C6 16 5 16 3 16 C1 16 -1 16 -3 16 C-5 16 -7 16 -9 16 C-14 16 -14 16 -16 16 C-18 10 -18 10 -18 6 C-16 2 -16 2 -11 1 C-7 1 -4 0 0 0 Z " fill="#C0C4D0" transform="translate(245.5,466.5)"/>
<path d="M0 0 C4 1 4 1 9 3 C13 3 16 3 20 3 C20 3 20 3 23 3 C27 4 30 4 33 4 C36 4 38 4 40 4 C51 4 62 4 73 4 C74 4 74 4 78 4 C82 4 86 4 90 3 C92 3 94 3 96 3 C97 3 98 3 99 3 C100 3 100 3 103 3 C104 3 105 3 106 3 C111 3 115 3 119 4 C118 5 118 7 117 8 C113 8 109 9 105 9 C104 9 104 9 101 9 C97 9 92 9 88 8 C85 8 82 8 79 9 C73 9 67 8 61 8 C53 8 45 8 37 8 C31 8 24 8 18 8 C15 8 13 8 10 8 C6 8 1 8 -3 8 C-4 8 -5 8 -6 8 C-9 8 -12 8 -15 8 C-16 7 -16 6 -17 5 C-12 3 -7 2 -1 1 C-1 1 -0 0 0 0 Z " fill="#EDEFF1" transform="translate(177,523)"/>
<path d="M0 0 C8 -0 8 -0 12 2 C14 4 14 4 14 6 C13 6 11 7 10 7 C10 11 10 14 10 18 C9 18 8 19 7 19 C7 21 7 23 6 24 C6 26 6 28 6 30 C5 30 4 31 3 31 C3 35 2 38 2 42 C-6 42 -6 42 -10 40 C-12 38 -12 38 -12 36 C-11 36 -11 36 -8 35 C-8 32 -8 32 -8 28 C-8 23 -8 23 -8 20 C-7 20 -6 19 -5 19 C-5 17 -5 15 -4 14 C-4 12 -4 10 -4 8 C-3 8 -2 7 -1 7 C-0 3 -0 3 0 0 Z " fill="#3B3C3E" transform="translate(433,153)"/>
<path d="M0 0 C3 0 5 1 8 1 C8 2 8 4 8 5 C6 6 5 7 3 8 C2 11 2 11 1 14 C0 15 -1 17 -2 18 C-4 18 -7 18 -9 18 C-9 19 -10 21 -10 22 C-11 23 -12 23 -13 24 C-13 24 -13 24 -14 27 C-13 27 -13 28 -12 28 C-13 29 -14 30 -15 31 C-15 32 -16 33 -16 35 C-19 41 -22 43 -28 46 C-34 47 -37 47 -42 44 C-44 42 -47 40 -49 37 C-50 36 -52 34 -53 33 C-54 32 -54 30 -55 29 C-56 29 -56 28 -57 28 C-58 19 -58 19 -56 15 C-55 17 -54 18 -53 20 C-44 37 -44 37 -37 39 C-31 39 -30 39 -25 36 C-21 32 -20 27 -18 22 C-17 19 -17 19 -14 15 C-11 14 -8 13 -5 12 C-2 8 -1 5 0 0 Z " fill="#C7CAD4" transform="translate(314,194)"/>
<path d="M0 0 C4 3 7 5 9 9 C10 14 10 18 8 23 C3 26 3 26 -3 26 C-6 24 -6 24 -9 22 C-9 22 -9 22 -12 20 C-14 18 -15 16 -16 12 C-14 7 -11 2 -7 -1 C-4 -2 -4 -2 0 0 Z " fill="#C1C5D1" transform="translate(170,414)"/>
<path d="M0 0 C5 -0 5 -0 9 0 C9 3 9 7 9 10 C8 10 7 10 6 10 C5 11 5 13 4 14 C2 14 0 14 -2 14 C-3 15 -3 17 -4 18 C-5 18 -5 18 -6 18 C-7 19 -7 21 -8 22 C-9 22 -9 22 -10 22 C-11 23 -11 25 -12 26 C-14 26 -16 27 -18 27 C-19 28 -19 29 -20 30 C-25 29 -25 29 -29 26 C-29 25 -29 25 -29 24 C-25 20 -25 20 -22 20 C-21 19 -21 17 -20 16 C-19 16 -19 16 -18 16 C-17 15 -17 13 -16 12 C-15 12 -15 12 -14 12 C-13 11 -13 9 -12 8 C-10 8 -8 8 -6 8 C-5 7 -5 5 -4 4 C-3 4 -3 4 -2 4 C-1 3 -1 1 0 0 Z " fill="#2E2F31" transform="translate(490,197)"/>
<path d="M0 0 C1 10 1 10 -2 15 C-7 19 -11 18 -17 18 C-19 18 -20 18 -22 18 C-27 18 -27 18 -31 16 C-30 11 -30 11 -27 8 C-25 7 -23 6 -21 5 C-15 2 -15 2 -13 0 C-8 -1 -5 -1 0 0 Z " fill="#C0C4D0" transform="translate(208,54)"/>
<path d="M0 0 C0 0 0 0 3 2 C5 2 6 2 8 2 C18 2 27 6 34 13 C34 14 34 14 34 15 C35 15 35 16 36 16 C30 18 23 18 16 18 C15 18 14 18 12 18 C10 18 7 18 4 18 C3 17 2 16 1 15 C1 14 1 12 1 11 C0 11 -0 10 -1 10 C-0 9 0 8 1 7 C1 3 1 3 0 0 Z " fill="#878DA0" transform="translate(103,257)"/>
<path d="M0 0 C1 -0 2 -0 4 -0 C12 -0 19 1 28 3 C25 7 25 7 19 9 C13 9 8 9 2 8 C2 8 2 7 2 6 C-2 6 -7 7 -11 7 C-12 7 -13 7 -14 7 C-26 7 -26 7 -31 12 C-33 12 -35 12 -36 11 C-37 10 -38 8 -38 6 C-36 6 -35 5 -33 4 C-31 4 -30 4 -29 3 C-19 1 -10 -0 0 0 Z " fill="#D8DAE2" transform="translate(244.375,37.6875)"/>
<path d="M0 0 C3 3 3 3 5 6 C5 10 5 10 4 13 C4 13 4 13 2 14 C2 15 2 17 2 18 C1 24 -0 27 -4 31 C-9 31 -9 31 -13 30 C-12 28 -12 26 -11 24 C-10 24 -8 25 -7 25 C-9 15 -9 15 -10 11 C-11 8 -11 8 -11 3 C-7 -1 -6 -1 0 0 Z " fill="#62687C" transform="translate(138,385)"/>
<path d="M0 0 C0 3 0 3 -2 5 C-5 8 -8 11 -11 13 C-16 18 -20 23 -24 29 C-25 30 -25 31 -26 32 C-30 38 -33 44 -35 51 C-37 54 -37 54 -41 55 C-42 56 -43 56 -44 56 C-40 41 -19 0 0 0 Z " fill="#D7D9E1" transform="translate(183,59)"/>
<path d="M0 0 C4 -0 7 -1 11 -0 C13 -0 15 -0 17 -0 C22 0 22 0 27 3 C27 6 28 9 26 12 C25 12 25 12 21 11 C20 12 18 13 17 14 C13 15 11 15 7 13 C4 11 1 8 -1 5 C-1 3 -0 2 0 0 Z " fill="#C1C5D1" transform="translate(300,376)"/>
<path d="M0 0 C1 1 2 1 3 2 C5 2 8 3 10 3 C10 4 10 4 10 5 C11 5 11 5 16 6 C16 7 15 9 15 10 C13 10 11 10 9 10 C7 13 5 15 3 18 C-0 19 -0 19 -3 19 C-8 14 -8 12 -9 6 C-10 4 -10 3 -11 1 C-7 -1 -4 -0 0 0 Z " fill="#C0C4D0" transform="translate(271,45)"/>
<path d="M0 0 C1 0 3 0 4 0 C5 4 5 4 6 9 C7 11 7 13 8 14 C8 16 8 18 9 20 C9 22 9 24 10 26 C15 49 15 49 12 56 C11 56 9 56 8 56 C8 55 7 55 7 54 C8 53 9 52 10 51 C9 51 8 50 7 50 C8 50 8 50 11 49 C11 48 11 46 11 45 C10 45 8 44 7 44 C6 40 6 40 5 35 C4 33 4 32 3 30 C3 27 3 23 3 20 C1 15 1 15 -2 12 C-2 8 -1 4 0 0 Z " fill="#D8DAE2" transform="translate(356,220)"/>
<path d="M0 0 C4 -0 4 -0 9 -0 C10 -0 10 -0 15 -0 C17 -0 19 -0 21 -0 C23 -0 25 -0 27 -0 C32 -0 37 -0 42 0 C42 3 42 3 40 7 C36 8 36 8 33 7 C29 6 25 6 20 6 C18 6 16 6 14 6 C14 6 14 6 10 6 C9 7 8 9 7 10 C4 11 4 11 1 12 C0 12 -0 11 -1 11 C-2 6 -2 5 0 0 Z " fill="#ECEEF0" transform="translate(207,502)"/>
<path d="M0 0 C4 -0 4 -0 8 0 C9 1 9 3 10 4 C11 5 13 5 14 6 C15 7 15 7 21 11 C22 12 24 12 25 13 C24 14 23 14 22 15 C21 16 19 17 18 18 C14 18 11 18 7 18 C6 18 5 18 4 18 C-4 17 -4 17 -6 15 C-5 14 -5 14 -4 13 C-3 13 -2 13 -1 13 C-1 12 -1 11 -1 10 C-0 10 0 10 1 10 C3 4 3 4 3 1 C2 1 1 0 0 0 Z " fill="#C7CAD4" transform="translate(126,506)"/>
<path d="M0 0 C7 4 7 4 9 7 C9 13 8 14 5 19 C5 20 4 21 4 22 C3 22 2 22 1 22 C1 26 1 30 2 35 C2 39 2 39 0 44 C-6 35 -5 20 -4 10 C-3 6 -2 3 0 0 Z " fill="#7A8094" transform="translate(345,331)"/>
<path d="M0 0 C-2 5 -4 8 -7 12 C-10 17 -13 22 -16 27 C-24 41 -24 41 -30 45 C-28 29 -16 13 -5 1 C-3 0 -3 0 0 0 Z " fill="#979CAC" transform="translate(94,271)"/>
<path d="M0 0 C1 3 1 5 2 8 C1 8 0 9 -1 9 C-0 10 0 12 1 13 C-0 16 -0 16 -3 19 C-3 20 -4 21 -5 22 C-10 29 -15 36 -24 38 C-24 37 -25 35 -25 34 C-24 33 -22 33 -21 32 C-21 31 -20 30 -20 29 C-18 28 -17 27 -15 26 C-15 25 -15 24 -15 23 C-14 18 -11 15 -8 11 C-7 9 -5 7 -4 5 C-3 4 -2 3 -2 2 C-1 1 -1 1 0 0 Z " fill="#969BAB" transform="translate(147,412)"/>
<path d="M0 0 C-1 2 -1 4 -2 6 C0 6 2 5 4 5 C5 5 6 5 8 5 C11 4 11 4 16 2 C19 2 22 2 25 2 C26 2 28 2 29 2 C33 2 33 2 35 3 C34 4 34 6 33 7 C29 7 29 7 23 7 C22 7 22 7 20 7 C16 7 13 7 10 7 C8 7 5 7 3 7 C-2 7 -8 7 -13 7 C-13 6 -13 6 -13 5 C-14 4 -16 4 -17 3 C-17 2 -16 0 -16 -1 C-10 -3 -6 -2 0 0 Z " fill="#EDEFF1" transform="translate(317,520)"/>
<path d="M0 0 C1 0 1 0 2 0 C2 1 2 1 2 2 C3 2 5 3 6 3 C7 8 7 8 6 14 C7 15 7 15 7 20 C6 25 5 27 2 32 C2 36 2 36 3 40 C1 41 -2 41 -4 42 C-4 41 -4 40 -4 39 C-2 27 -2 16 -1 5 C-1 1 -1 1 0 0 Z " fill="#D8DAE2" transform="translate(167,333)"/>
<path d="M0 0 C1 0 1 1 2 1 C3 6 2 11 2 16 C2 17 2 18 2 20 C2 30 2 39 -2 48 C-2 48 -2 48 -4 49 C-8 43 -8 43 -8 39 C-7 36 -7 36 -5 33 C-3 28 -4 23 -4 17 C-3 17 -3 17 -2 17 C-2 16 -2 15 -2 14 C-2 12 -2 11 -2 10 C-1 8 -1 7 -1 5 C-1 2 -1 2 0 0 Z " fill="#979CAC" transform="translate(154,325)"/>
<path d="M0 0 C3 0 5 1 8 1 C8 2 8 4 8 5 C6 6 5 7 3 8 C2 11 2 11 1 14 C0 15 -1 17 -2 18 C-4 18 -7 18 -9 18 C-9 19 -10 21 -10 22 C-11 23 -12 23 -13 24 C-13 25 -14 26 -14 27 C-13 27 -13 28 -12 28 C-13 28 -14 29 -15 29 C-16 29 -16 28 -17 28 C-17 29 -17 31 -17 32 C-18 32 -20 31 -21 31 C-20 29 -20 27 -19 25 C-19 24 -19 23 -18 22 C-17 19 -17 19 -14 15 C-11 14 -8 13 -5 12 C-2 8 -1 5 0 0 Z " fill="#CFD1DA" transform="translate(314,194)"/>
<path d="M0 0 C0 0 1 0 1 0 C3 24 3 24 3 36 C-1 34 -1 34 -3 31 C-4 31 -4 31 -5 31 C-5 29 -5 27 -5 25 C-4 25 -4 25 -3 25 C-3 20 -3 20 -3 14 C-5 14 -6 13 -8 13 C-8 12 -9 12 -9 11 C-6 7 -5 5 -1 2 C-1 1 -0 1 0 0 Z " fill="#D8DAE2" transform="translate(354,171)"/>
<path d="M0 0 C1 0 1 1 2 1 C2 7 2 10 -1 16 C-1 16 -1 16 -4 18 C-8 21 -10 24 -12 28 C-12 29 -12 29 -15 33 C-16 32 -18 32 -19 31 C-18 27 -18 27 -17 23 C-16 23 -16 23 -15 23 C-14 21 -14 20 -13 18 C-11 16 -10 14 -8 12 C-5 8 -2 4 0 0 Z " fill="#BDC0CC" transform="translate(347,290)"/>
<path d="M0 0 C1 0 1 0 2 0 C2 1 2 1 2 2 C1 2 1 2 0 2 C0 1 0 1 0 0 Z " fill="#EDEFF1" transform="translate(377,213)"/>
</svg>
