<?xml version="1.0" encoding="UTF-8"?>
<!-- Generator: visioncortex VTracer 0.6.12 -->
<svg version="1.1" xmlns="http://www.w3.org/2000/svg" width="560" height="672">
<path d="M0 0 C4 -0 9 -1 13 -1 C15 -1 16 -1 17 -1 C20 -1 23 -1 26 -1 C30 -1 34 -1 39 -1 C41 -1 44 -1 47 -1 C47 -1 47 -1 51 -1 C54 -1 57 -0 60 0 C61 1 61 3 62 4 C65 4 65 4 69 4 C73 4 73 4 76 4 C77 5 77 7 78 8 C80 8 81 8 83 8 C85 8 86 8 88 8 C89 9 89 11 90 12 C92 12 94 12 96 12 C97 13 97 15 98 16 C100 16 102 16 104 16 C105 17 105 19 106 20 C108 20 110 20 112 20 C113 21 113 23 114 24 C115 24 115 24 118 26 C118 27 118 27 118 28 C120 28 122 28 124 28 C125 29 125 31 126 32 C127 33 129 33 130 34 C130 35 130 35 130 36 C131 37 133 37 134 38 C134 39 134 39 134 40 C135 41 137 41 138 42 C138 43 138 43 138 44 C139 45 141 45 142 46 C142 47 142 47 142 48 C143 49 145 49 146 50 C146 51 146 51 146 52 C147 53 149 53 150 54 C150 55 150 55 150 56 C151 57 153 57 154 58 C154 59 154 59 154 60 C155 60 156 60 157 60 C157 61 157 62 157 63 C158 67 158 67 162 70 C162 71 162 71 162 72 C163 72 164 72 165 72 C165 73 165 74 165 75 C166 77 166 78 166 79 C167 79 168 80 169 80 C169 82 170 85 170 87 C171 87 172 88 173 88 C173 92 174 95 174 99 C175 99 176 100 177 100 C177 102 178 105 178 107 C179 107 180 108 181 108 C181 112 182 116 182 120 C182 121 182 122 182 123 C183 123 184 124 185 124 C185 128 186 132 186 136 C186 137 186 138 186 139 C187 139 188 140 189 140 C189 145 189 150 190 155 C190 158 190 160 190 163 C191 163 192 164 193 164 C193 170 193 176 194 181 C194 185 194 188 194 191 C195 191 196 192 197 192 C197 195 197 195 197 199 C197 200 197 202 197 203 C197 206 198 209 198 212 C198 213 198 215 198 216 C198 217 198 219 198 220 C198 221 198 222 198 223 C199 223 200 224 201 224 C201 229 202 234 202 239 C202 240 202 242 202 243 C203 243 204 244 205 244 C205 248 206 252 206 256 C206 257 206 258 206 259 C207 259 208 260 209 260 C209 264 210 267 210 271 C211 271 212 272 213 272 C213 276 214 279 214 283 C215 283 216 284 217 284 C217 286 218 289 218 291 C219 291 220 292 221 292 C221 293 221 294 221 295 C222 299 222 299 226 302 C226 303 226 303 226 304 C227 305 229 305 230 306 C230 307 230 307 230 308 C231 308 232 308 233 308 C233 309 233 310 233 311 C234 315 234 315 238 318 C238 319 238 319 238 320 C239 320 240 320 241 320 C241 321 241 322 241 323 C241 324 241 324 242 327 C243 327 244 328 245 328 C245 330 246 333 246 335 C247 335 248 336 249 336 C249 338 250 341 250 343 C251 343 252 344 253 344 C253 346 254 349 254 351 C255 351 256 352 257 352 C257 356 258 359 258 363 C259 363 260 364 261 364 C261 368 262 372 262 376 C262 377 262 378 262 379 C263 379 264 380 265 380 C265 383 265 383 265 386 C265 387 265 389 265 390 C265 391 265 391 265 394 C265 396 265 397 265 399 C265 402 265 405 265 408 C265 413 265 418 265 422 C265 426 265 429 265 432 C265 433 265 434 265 436 C265 437 265 438 265 440 C265 441 265 442 265 443 C265 444 265 445 265 446 C264 446 263 447 262 447 C262 450 262 450 262 454 C261 459 261 459 261 462 C260 462 259 463 258 463 C258 465 258 467 258 468 C257 470 257 472 257 474 C256 474 255 475 254 475 C254 477 254 479 254 480 C253 482 253 484 253 486 C252 486 251 487 250 487 C249 491 249 491 249 494 C248 494 247 494 246 494 C245 495 245 497 244 498 C243 498 243 498 242 498 C241 499 241 501 240 502 C239 502 239 502 238 502 C237 503 237 505 236 506 C231 506 227 506 222 506 C221 506 219 507 218 507 C217 511 217 511 217 514 C216 514 216 514 214 514 C212 514 211 514 210 514 C209 515 209 517 208 518 C203 518 199 518 194 518 C193 518 193 518 190 518 C189 519 189 521 188 522 C187 522 187 522 186 522 C185 523 185 525 184 526 C183 526 183 526 182 526 C181 527 181 529 180 530 C178 530 176 530 174 530 C173 531 173 533 172 534 C171 534 171 534 170 534 C169 535 169 537 168 538 C167 538 167 538 166 538 C165 539 165 541 164 542 C162 542 160 542 158 542 C157 543 157 545 156 546 C155 546 155 546 154 546 C153 547 153 549 152 550 C150 550 148 550 146 550 C145 551 145 553 144 554 C141 554 137 554 134 554 C133 555 133 557 132 558 C129 559 129 559 126 559 C126 560 126 562 126 563 C127 563 127 563 130 566 C130 567 130 567 130 568 C131 568 131 568 135 568 C137 568 138 568 140 568 C141 569 141 571 142 572 C144 572 146 572 148 572 C149 573 149 575 150 576 C152 576 154 576 156 576 C157 577 157 579 158 580 C162 580 162 580 167 580 C172 580 172 580 176 580 C177 581 177 583 178 584 C182 584 187 584 191 584 C195 584 200 584 204 584 C205 585 205 587 206 588 C208 588 209 588 211 588 C213 588 214 588 216 588 C217 589 217 591 218 592 C219 593 221 593 222 594 C223 595 224 595 225 596 C225 597 225 597 225 598 C223 600 223 600 220 602 C218 602 216 602 214 602 C213 603 213 605 212 606 C208 606 205 606 201 606 C201 606 201 606 198 606 C197 607 197 609 196 610 C193 610 193 610 189 610 C188 610 187 610 185 610 C182 610 180 610 177 610 C175 610 174 610 173 610 C172 610 172 610 169 610 C168 610 167 610 166 610 C165 611 165 613 164 614 C158 614 153 614 147 614 C144 614 141 614 138 614 C137 615 137 617 136 618 C132 618 129 618 125 618 C124 618 123 618 122 618 C117 618 112 618 107 618 C104 618 101 618 97 618 C96 618 95 618 94 618 C91 618 91 618 86 618 C85 619 85 621 84 622 C81 623 81 623 78 623 C77 623 77 623 74 623 C73 623 71 623 70 623 C68 623 67 623 66 623 C63 623 60 623 57 623 C52 623 47 623 43 623 C40 623 37 623 34 623 C33 623 33 623 30 623 C29 623 27 623 26 623 C26 623 26 623 23 623 C22 622 21 622 20 622 C19 621 19 619 18 618 C14 618 14 618 9 618 C7 618 5 618 3 618 C2 618 1 618 -0 618 C-4 618 -7 618 -10 618 C-17 618 -24 618 -31 618 C-39 618 -47 618 -55 618 C-58 618 -62 618 -65 618 C-67 618 -69 618 -71 618 C-73 618 -74 618 -76 618 C-77 618 -79 618 -80 618 C-81 617 -81 615 -82 614 C-85 614 -85 614 -89 614 C-90 614 -91 614 -93 614 C-94 614 -96 614 -97 614 C-100 614 -103 614 -105 614 C-107 614 -108 614 -109 614 C-110 614 -111 614 -112 614 C-113 613 -113 611 -114 610 C-118 610 -121 610 -125 610 C-129 610 -132 610 -136 610 C-137 609 -137 607 -138 606 C-142 606 -142 606 -147 606 C-152 606 -152 606 -156 606 C-157 605 -157 603 -158 602 C-160 602 -162 602 -164 602 C-167 600 -167 600 -169 598 C-169 597 -169 597 -169 596 C-165 592 -165 592 -162 592 C-161 591 -161 589 -160 588 C-158 588 -156 588 -154 588 C-153 587 -153 585 -152 584 C-147 584 -143 584 -138 584 C-135 584 -133 584 -130 584 C-129 583 -129 581 -128 580 C-125 580 -125 580 -121 580 C-120 580 -119 580 -117 580 C-114 580 -112 580 -109 580 C-107 580 -106 580 -105 580 C-104 580 -104 580 -101 580 C-100 580 -99 580 -98 580 C-97 579 -97 577 -96 576 C-95 576 -95 576 -94 576 C-93 575 -93 573 -92 572 C-89 572 -85 572 -82 572 C-81 571 -81 569 -80 568 C-75 567 -75 567 -70 567 C-70 564 -70 562 -70 559 C-71 559 -73 559 -74 559 C-75 560 -75 561 -76 562 C-81 562 -81 562 -85 562 C-85 561 -85 561 -85 560 C-84 560 -83 559 -82 559 C-80 559 -79 558 -78 558 C-78 557 -77 555 -77 554 C-78 554 -78 554 -80 554 C-82 554 -83 554 -84 554 C-85 553 -85 551 -86 550 C-88 550 -90 550 -92 550 C-93 549 -93 547 -94 546 C-96 546 -98 546 -100 546 C-101 545 -101 543 -102 542 C-103 541 -105 541 -106 540 C-106 539 -106 539 -106 538 C-108 538 -110 538 -112 538 C-113 537 -113 535 -114 534 C-115 533 -117 533 -118 532 C-118 531 -118 531 -118 530 C-119 529 -121 529 -122 528 C-122 527 -122 527 -122 526 C-123 525 -125 525 -126 524 C-126 523 -126 523 -126 522 C-127 521 -129 521 -130 520 C-130 519 -130 519 -130 518 C-132 518 -133 518 -135 518 C-137 518 -139 518 -141 518 C-142 518 -143 518 -144 518 C-147 518 -147 518 -152 518 C-153 517 -153 515 -154 514 C-158 514 -158 514 -161 514 C-161 513 -161 512 -161 511 C-161 509 -162 508 -162 507 C-166 506 -166 506 -171 506 C-176 506 -176 506 -180 506 C-181 505 -181 503 -182 502 C-183 501 -185 501 -186 500 C-186 499 -186 499 -186 498 C-187 497 -189 497 -190 496 C-190 495 -190 495 -190 494 C-191 494 -192 494 -193 494 C-193 493 -193 492 -193 491 C-194 489 -194 488 -194 487 C-195 487 -196 486 -197 486 C-197 482 -198 479 -198 475 C-199 475 -200 474 -201 474 C-201 470 -202 467 -202 463 C-203 463 -204 462 -205 462 C-205 458 -206 454 -206 450 C-206 449 -206 448 -206 447 C-207 447 -208 446 -209 446 C-209 442 -209 438 -209 433 C-209 432 -209 431 -209 429 C-209 427 -209 424 -209 421 C-209 417 -209 413 -209 409 C-209 406 -209 403 -209 401 C-209 399 -209 398 -209 397 C-209 394 -209 391 -209 388 C-208 388 -207 387 -206 387 C-206 383 -206 383 -206 378 C-205 372 -205 372 -205 368 C-204 368 -203 367 -202 367 C-202 365 -202 363 -202 362 C-201 360 -201 358 -201 356 C-200 356 -199 355 -198 355 C-198 354 -198 353 -198 352 C-197 350 -197 349 -197 348 C-196 348 -195 347 -194 347 C-194 346 -194 345 -194 344 C-193 342 -193 341 -193 340 C-192 340 -191 339 -190 339 C-190 338 -190 337 -190 336 C-189 334 -189 333 -189 332 C-188 332 -187 331 -186 331 C-186 330 -186 329 -186 328 C-185 326 -185 325 -185 324 C-184 324 -183 323 -182 323 C-181 319 -181 319 -181 316 C-180 316 -179 316 -178 316 C-178 315 -178 315 -176 312 C-175 312 -175 312 -174 312 C-173 311 -173 309 -172 308 C-171 308 -171 307 -170 307 C-170 305 -169 302 -169 300 C-168 300 -167 300 -166 300 C-165 299 -165 297 -164 296 C-163 296 -163 295 -162 295 C-162 293 -162 291 -162 290 C-161 289 -161 289 -161 284 C-160 284 -159 283 -158 283 C-158 281 -158 279 -158 278 C-157 276 -157 274 -157 272 C-156 272 -155 271 -154 271 C-154 269 -154 267 -154 266 C-153 264 -153 262 -153 260 C-152 260 -151 259 -150 259 C-150 256 -150 256 -150 252 C-149 247 -149 247 -149 244 C-148 244 -147 243 -146 243 C-146 239 -146 235 -146 232 C-145 228 -145 224 -145 220 C-144 220 -143 219 -142 219 C-142 216 -142 216 -142 212 C-142 211 -142 211 -142 208 C-142 206 -142 205 -142 204 C-141 201 -141 198 -141 195 C-141 194 -141 192 -141 191 C-141 190 -141 189 -141 188 C-140 188 -139 187 -138 187 C-138 183 -138 179 -138 176 C-137 172 -137 168 -137 164 C-136 164 -135 163 -134 163 C-134 159 -134 159 -134 154 C-133 148 -133 148 -133 144 C-132 144 -131 143 -130 143 C-130 140 -130 140 -130 136 C-129 131 -129 131 -129 128 C-128 128 -127 127 -126 127 C-126 125 -126 123 -126 122 C-125 120 -125 118 -125 116 C-124 116 -123 115 -122 115 C-122 113 -122 111 -122 110 C-121 108 -121 106 -121 104 C-120 104 -119 103 -118 103 C-118 102 -118 101 -118 100 C-117 98 -117 97 -117 96 C-116 96 -115 95 -114 95 C-114 94 -114 93 -114 92 C-113 90 -113 89 -113 88 C-112 88 -111 87 -110 87 C-110 86 -110 85 -110 84 C-109 82 -109 81 -109 80 C-108 80 -107 79 -106 79 C-105 75 -105 75 -105 72 C-104 72 -103 72 -102 72 C-102 71 -102 71 -100 68 C-99 68 -99 67 -98 67 C-98 65 -97 62 -97 60 C-96 60 -95 60 -94 60 C-93 59 -93 57 -92 56 C-91 56 -91 56 -90 56 C-89 55 -89 53 -88 52 C-87 52 -87 52 -86 52 C-85 51 -85 49 -84 48 C-83 48 -83 48 -82 48 C-81 47 -81 45 -80 44 C-79 44 -79 44 -78 44 C-77 43 -77 41 -76 40 C-75 40 -75 40 -74 40 C-73 39 -73 37 -72 36 C-71 36 -71 36 -70 36 C-69 35 -69 33 -68 32 C-67 32 -67 32 -66 32 C-65 31 -65 29 -64 28 C-63 28 -63 28 -62 28 C-61 27 -61 25 -60 24 C-58 24 -56 24 -54 24 C-53 23 -53 21 -52 20 C-51 20 -51 20 -50 20 C-49 19 -49 17 -48 16 C-46 16 -44 16 -42 16 C-41 15 -41 13 -40 12 C-37 12 -33 12 -30 12 C-29 11 -29 9 -28 8 C-25 8 -21 8 -18 8 C-17 7 -17 5 -16 4 C-12 4 -9 4 -5 4 C-4 4 -3 4 -2 4 C-1 3 -1 1 0 0 Z " fill="#C7C9D3" transform="translate(234,25)"/>
<path d="M0 0 C4 -0 9 -1 13 -1 C15 -1 16 -1 17 -1 C20 -1 23 -1 26 -1 C30 -1 34 -1 39 -1 C41 -1 44 -1 47 -1 C47 -1 47 -1 51 -1 C54 -1 57 -0 60 0 C61 1 61 3 62 4 C65 4 65 4 69 4 C73 4 73 4 76 4 C77 5 77 7 78 8 C80 8 81 8 83 8 C85 8 86 8 88 8 C89 9 89 11 90 12 C92 12 94 12 96 12 C97 13 97 15 98 16 C100 16 102 16 104 16 C105 17 105 19 106 20 C108 20 110 20 112 20 C113 21 113 23 114 24 C115 24 115 24 118 26 C118 27 118 27 118 28 C120 28 122 28 124 28 C125 29 125 31 126 32 C127 33 129 33 130 34 C130 35 130 35 130 36 C131 37 133 37 134 38 C134 39 134 39 134 40 C135 41 137 41 138 42 C138 43 138 43 138 44 C139 45 141 45 142 46 C142 47 142 47 142 48 C143 49 145 49 146 50 C146 51 146 51 146 52 C147 53 149 53 150 54 C150 55 150 55 150 56 C151 57 153 57 154 58 C154 59 154 59 154 60 C155 60 156 60 157 60 C157 61 157 62 157 63 C158 67 158 67 162 70 C162 71 162 71 162 72 C163 72 164 72 165 72 C165 73 165 74 165 75 C166 77 166 78 166 79 C167 79 168 80 169 80 C169 82 170 85 170 87 C171 87 172 88 173 88 C173 92 174 95 174 99 C175 99 176 100 177 100 C177 102 178 105 178 107 C179 107 180 108 181 108 C181 112 182 116 182 120 C182 121 182 122 182 123 C183 123 184 124 185 124 C185 128 186 132 186 136 C186 137 186 138 186 139 C187 139 188 140 189 140 C189 145 189 150 190 155 C190 158 190 160 190 163 C191 163 192 164 193 164 C193 170 193 176 194 181 C194 185 194 188 194 191 C195 191 196 192 197 192 C197 195 197 195 197 199 C197 200 197 202 197 203 C197 206 198 209 198 212 C198 213 198 215 198 216 C198 217 198 219 198 220 C198 221 198 222 198 223 C199 223 200 224 201 224 C201 229 202 234 202 239 C202 240 202 242 202 243 C203 243 204 244 205 244 C205 248 206 252 206 256 C206 257 206 258 206 259 C207 259 208 260 209 260 C209 264 210 267 210 271 C211 271 212 272 213 272 C213 276 214 279 214 283 C215 283 216 284 217 284 C217 286 218 289 218 291 C219 291 220 292 221 292 C221 293 221 294 221 295 C222 299 222 299 226 302 C226 303 226 303 226 304 C227 305 229 305 230 306 C230 307 230 307 230 308 C231 308 232 308 233 308 C233 309 233 310 233 311 C234 315 234 315 238 318 C238 319 238 319 238 320 C239 320 240 320 241 320 C241 321 241 322 241 323 C241 324 241 324 242 327 C243 327 244 328 245 328 C245 330 246 333 246 335 C247 335 248 336 249 336 C249 338 250 341 250 343 C251 343 252 344 253 344 C253 346 254 349 254 351 C255 351 256 352 257 352 C257 356 258 359 258 363 C259 363 260 364 261 364 C261 368 262 372 262 376 C262 377 262 378 262 379 C263 379 264 380 265 380 C265 383 265 383 265 386 C265 387 265 389 265 390 C265 391 265 391 265 394 C265 396 265 397 265 399 C265 402 265 405 265 408 C265 413 265 418 265 422 C265 426 265 429 265 432 C265 433 265 434 265 436 C265 437 265 438 265 440 C265 441 265 442 265 443 C265 444 265 445 265 446 C264 446 263 447 262 447 C262 450 262 450 262 454 C261 459 261 459 261 462 C260 462 259 463 258 463 C258 465 258 467 258 468 C257 470 257 472 257 474 C256 474 255 475 254 475 C254 477 254 479 254 480 C253 482 253 484 253 486 C252 486 251 487 250 487 C249 491 249 491 249 494 C248 494 247 494 246 494 C245 495 245 497 244 498 C243 498 243 498 242 498 C241 499 241 501 240 502 C239 502 239 502 238 502 C237 503 237 505 236 506 C231 506 227 506 222 506 C221 506 219 507 218 507 C217 511 217 511 217 514 C216 514 216 514 214 514 C212 514 211 514 210 514 C209 515 209 517 208 518 C203 518 199 518 194 518 C193 518 193 518 190 518 C189 519 189 521 188 522 C187 522 187 522 186 522 C185 523 185 525 184 526 C183 526 183 526 182 526 C181 527 181 529 180 530 C178 530 176 530 174 530 C173 531 173 533 172 534 C171 534 171 534 170 534 C169 535 169 537 168 538 C167 538 167 538 166 538 C165 539 165 541 164 542 C162 542 160 542 158 542 C157 543 157 545 156 546 C155 546 155 546 154 546 C153 547 153 549 152 550 C150 550 148 550 146 550 C145 551 145 553 144 554 C141 554 137 554 134 554 C133 555 133 557 132 558 C129 559 129 559 126 559 C126 560 126 562 126 563 C127 563 127 563 130 566 C130 567 130 567 130 568 C131 568 131 568 135 568 C137 568 138 568 140 568 C141 569 141 571 142 572 C144 572 146 572 148 572 C149 573 149 575 150 576 C152 576 154 576 156 576 C157 577 157 579 158 580 C162 580 162 580 167 580 C172 580 172 580 176 580 C177 581 177 583 178 584 C182 584 187 584 191 584 C195 584 200 584 204 584 C205 585 205 587 206 588 C208 588 209 588 211 588 C213 588 214 588 216 588 C217 589 217 591 218 592 C219 593 221 593 222 594 C223 595 224 595 225 596 C225 597 225 597 225 598 C223 600 223 600 220 602 C218 602 216 602 214 602 C213 603 213 605 212 606 C208 606 205 606 201 606 C201 606 201 606 198 606 C197 607 197 609 196 610 C193 610 193 610 189 610 C188 610 187 610 185 610 C182 610 180 610 177 610 C175 610 174 610 173 610 C172 610 172 610 169 610 C168 610 167 610 166 610 C165 611 165 613 164 614 C158 614 153 614 147 614 C144 614 141 614 138 614 C137 615 137 617 136 618 C132 618 129 618 125 618 C124 618 123 618 122 618 C117 618 112 618 107 618 C104 618 101 618 97 618 C96 618 95 618 94 618 C91 618 91 618 86 618 C85 619 85 621 84 622 C81 623 81 623 78 623 C77 623 77 623 74 623 C73 623 71 623 70 623 C68 623 67 623 66 623 C63 623 60 623 57 623 C52 623 47 623 43 623 C40 623 37 623 34 623 C33 623 33 623 30 623 C29 623 27 623 26 623 C26 623 26 623 23 623 C22 622 21 622 20 622 C19 621 19 619 18 618 C14 618 14 618 9 618 C7 618 5 618 3 618 C2 618 1 618 -0 618 C-4 618 -7 618 -10 618 C-17 618 -24 618 -31 618 C-39 618 -47 618 -55 618 C-58 618 -62 618 -65 618 C-67 618 -69 618 -71 618 C-73 618 -74 618 -76 618 C-77 618 -79 618 -80 618 C-81 617 -81 615 -82 614 C-85 614 -85 614 -89 614 C-90 614 -91 614 -93 614 C-94 614 -96 614 -97 614 C-100 614 -103 614 -105 614 C-107 614 -108 614 -109 614 C-110 614 -111 614 -112 614 C-113 613 -113 611 -114 610 C-118 610 -121 610 -125 610 C-129 610 -132 610 -136 610 C-137 609 -137 607 -138 606 C-142 606 -142 606 -147 606 C-152 606 -152 606 -156 606 C-157 605 -157 603 -158 602 C-160 602 -162 602 -164 602 C-167 600 -167 600 -169 598 C-169 597 -169 597 -169 596 C-165 592 -165 592 -162 592 C-161 591 -161 589 -160 588 C-158 588 -156 588 -154 588 C-153 587 -153 585 -152 584 C-147 584 -143 584 -138 584 C-135 584 -133 584 -130 584 C-129 583 -129 581 -128 580 C-125 580 -125 580 -121 580 C-120 580 -119 580 -117 580 C-114 580 -112 580 -109 580 C-107 580 -106 580 -105 580 C-104 580 -104 580 -101 580 C-100 580 -99 580 -98 580 C-97 579 -97 577 -96 576 C-95 576 -95 576 -94 576 C-93 575 -93 573 -92 572 C-89 572 -85 572 -82 572 C-81 571 -81 569 -80 568 C-75 567 -75 567 -70 567 C-70 564 -70 562 -70 559 C-71 559 -73 559 -74 559 C-75 560 -75 561 -76 562 C-81 562 -81 562 -85 562 C-85 561 -85 561 -85 560 C-84 560 -83 559 -82 559 C-80 559 -79 558 -78 558 C-78 557 -77 555 -77 554 C-78 554 -78 554 -80 554 C-82 554 -83 554 -84 554 C-85 553 -85 551 -86 550 C-88 550 -90 550 -92 550 C-93 549 -93 547 -94 546 C-96 546 -98 546 -100 546 C-101 545 -101 543 -102 542 C-103 541 -105 541 -106 540 C-106 539 -106 539 -106 538 C-108 538 -110 538 -112 538 C-113 537 -113 535 -114 534 C-115 533 -117 533 -118 532 C-118 531 -118 531 -118 530 C-119 529 -121 529 -122 528 C-122 527 -122 527 -122 526 C-123 525 -125 525 -126 524 C-126 523 -126 523 -126 522 C-127 521 -129 521 -130 520 C-130 519 -130 519 -130 518 C-132 518 -133 518 -135 518 C-137 518 -139 518 -141 518 C-142 518 -143 518 -144 518 C-147 518 -147 518 -152 518 C-153 517 -153 515 -154 514 C-158 514 -158 514 -161 514 C-161 513 -161 512 -161 511 C-161 509 -162 508 -162 507 C-166 506 -166 506 -171 506 C-176 506 -176 506 -180 506 C-181 505 -181 503 -182 502 C-183 501 -185 501 -186 500 C-186 499 -186 499 -186 498 C-187 497 -189 497 -190 496 C-190 495 -190 495 -190 494 C-191 494 -192 494 -193 494 C-193 493 -193 492 -193 491 C-194 489 -194 488 -194 487 C-195 487 -196 486 -197 486 C-197 482 -198 479 -198 475 C-199 475 -200 474 -201 474 C-201 470 -202 467 -202 463 C-203 463 -204 462 -205 462 C-205 458 -206 454 -206 450 C-206 449 -206 448 -206 447 C-207 447 -208 446 -209 446 C-209 442 -209 438 -209 433 C-209 432 -209 431 -209 429 C-209 427 -209 424 -209 421 C-209 417 -209 413 -209 409 C-209 406 -209 403 -209 401 C-209 399 -209 398 -209 397 C-209 394 -209 391 -209 388 C-208 388 -207 387 -206 387 C-206 383 -206 383 -206 378 C-205 372 -205 372 -205 368 C-204 368 -203 367 -202 367 C-202 365 -202 363 -202 362 C-201 360 -201 358 -201 356 C-200 356 -199 355 -198 355 C-198 354 -198 353 -198 352 C-197 350 -197 349 -197 348 C-196 348 -195 347 -194 347 C-194 346 -194 345 -194 344 C-193 342 -193 341 -193 340 C-192 340 -191 339 -190 339 C-190 338 -190 337 -190 336 C-189 334 -189 333 -189 332 C-188 332 -187 331 -186 331 C-186 330 -186 329 -186 328 C-185 326 -185 325 -185 324 C-184 324 -183 323 -182 323 C-181 319 -181 319 -181 316 C-180 316 -179 316 -178 316 C-178 315 -178 315 -176 312 C-175 312 -175 312 -174 312 C-173 311 -173 309 -172 308 C-171 308 -171 307 -170 307 C-170 305 -169 302 -169 300 C-168 300 -167 300 -166 300 C-165 299 -165 297 -164 296 C-163 296 -163 295 -162 295 C-162 293 -162 291 -162 290 C-161 289 -161 289 -161 284 C-160 284 -159 283 -158 283 C-158 281 -158 279 -158 278 C-157 276 -157 274 -157 272 C-156 272 -155 271 -154 271 C-154 269 -154 267 -154 266 C-153 264 -153 262 -153 260 C-152 260 -151 259 -150 259 C-150 256 -150 256 -150 252 C-149 247 -149 247 -149 244 C-148 244 -147 243 -146 243 C-146 239 -146 235 -146 232 C-145 228 -145 224 -145 220 C-144 220 -143 219 -142 219 C-142 216 -142 216 -142 212 C-142 211 -142 211 -142 208 C-142 206 -142 205 -142 204 C-141 201 -141 198 -141 195 C-141 194 -141 192 -141 191 C-141 190 -141 189 -141 188 C-140 188 -139 187 -138 187 C-138 183 -138 179 -138 176 C-137 172 -137 168 -137 164 C-136 164 -135 163 -134 163 C-134 159 -134 159 -134 154 C-133 148 -133 148 -133 144 C-132 144 -131 143 -130 143 C-130 140 -130 140 -130 136 C-129 131 -129 131 -129 128 C-128 128 -127 127 -126 127 C-126 125 -126 123 -126 122 C-125 120 -125 118 -125 116 C-124 116 -123 115 -122 115 C-122 113 -122 111 -122 110 C-121 108 -121 106 -121 104 C-120 104 -119 103 -118 103 C-118 102 -118 101 -118 100 C-117 98 -117 97 -117 96 C-116 96 -115 95 -114 95 C-114 94 -114 93 -114 92 C-113 90 -113 89 -113 88 C-112 88 -111 87 -110 87 C-110 86 -110 85 -110 84 C-109 82 -109 81 -109 80 C-108 80 -107 79 -106 79 C-105 75 -105 75 -105 72 C-104 72 -103 72 -102 72 C-102 71 -102 71 -100 68 C-99 68 -99 67 -98 67 C-98 65 -97 62 -97 60 C-96 60 -95 60 -94 60 C-93 59 -93 57 -92 56 C-91 56 -91 56 -90 56 C-89 55 -89 53 -88 52 C-87 52 -87 52 -86 52 C-85 51 -85 49 -84 48 C-83 48 -83 48 -82 48 C-81 47 -81 45 -80 44 C-79 44 -79 44 -78 44 C-77 43 -77 41 -76 40 C-75 40 -75 40 -74 40 C-73 39 -73 37 -72 36 C-71 36 -71 36 -70 36 C-69 35 -69 33 -68 32 C-67 32 -67 32 -66 32 C-65 31 -65 29 -64 28 C-63 28 -63 28 -62 28 C-61 27 -61 25 -60 24 C-58 24 -56 24 -54 24 C-53 23 -53 21 -52 20 C-51 20 -51 20 -50 20 C-49 19 -49 17 -48 16 C-46 16 -44 16 -42 16 C-41 15 -41 13 -40 12 C-37 12 -33 12 -30 12 C-29 11 -29 9 -28 8 C-25 8 -21 8 -18 8 C-17 7 -17 5 -16 4 C-12 4 -9 4 -5 4 C-4 4 -3 4 -2 4 C-1 3 -1 1 0 0 Z M-5 18 C-6 18 -8 19 -9 19 C-42 25 -67 45 -86 71 C-92 80 -92 80 -92 83 C-93 83 -93 83 -94 83 C-100 93 -105 103 -108 114 C-111 124 -111 124 -113 127 C-114 130 -114 134 -115 137 C-115 138 -116 140 -116 141 C-120 152 -122 163 -123 174 C-124 175 -124 175 -124 179 C-124 181 -125 183 -125 185 C-125 187 -126 189 -126 191 C-127 198 -128 205 -129 213 C-130 218 -130 223 -131 228 C-131 229 -131 230 -132 232 C-133 239 -134 246 -136 253 C-139 263 -139 263 -140 268 C-140 271 -140 271 -142 275 C-143 277 -143 280 -144 282 C-144 283 -145 284 -145 285 C-147 291 -149 295 -147 302 C-146 304 -145 305 -144 307 C-146 308 -147 309 -149 310 C-149 311 -150 312 -150 313 C-151 313 -151 313 -154 314 C-160 315 -162 317 -166 321 C-171 329 -171 329 -171 333 C-172 333 -172 333 -173 333 C-174 335 -175 338 -176 340 C-177 343 -179 345 -180 348 C-188 365 -188 365 -188 371 C-189 371 -189 371 -190 371 C-194 380 -195 390 -195 400 C-195 401 -195 402 -195 403 C-195 411 -195 418 -193 425 C-193 428 -193 428 -194 433 C-194 439 -194 446 -193 452 C-192 452 -192 452 -191 452 C-191 454 -191 455 -190 457 C-188 468 -185 479 -178 488 C-177 488 -175 489 -174 489 C-170 486 -170 486 -169 481 C-168 481 -168 481 -167 481 C-167 477 -166 474 -166 470 C-162 470 -162 470 -160 471 C-160 474 -159 477 -159 480 C-157 489 -155 498 -149 504 C-144 504 -143 504 -139 500 C-137 496 -136 492 -134 488 C-129 477 -129 477 -127 475 C-126 472 -126 469 -125 466 C-124 465 -124 464 -123 463 C-123 461 -122 459 -122 456 C-121 449 -119 443 -116 436 C-111 421 -113 403 -113 387 C-113 386 -113 386 -113 382 C-113 381 -113 381 -113 377 C-113 373 -112 370 -110 367 C-108 367 -107 367 -105 367 C-104 370 -104 370 -103 374 C-103 375 -103 377 -103 378 C-102 379 -102 381 -102 382 C-102 383 -102 385 -101 386 C-100 407 -102 428 -107 448 C-107 450 -108 451 -108 453 C-108 454 -109 455 -109 456 C-110 460 -110 460 -110 463 C-111 468 -113 471 -115 476 C-118 480 -120 485 -122 491 C-123 494 -123 494 -125 497 C-126 500 -126 500 -125 505 C-120 512 -114 518 -107 523 C-107 523 -107 523 -104 525 C-76 545 -76 545 -62 545 C-61 545 -61 545 -58 544 C-51 544 -48 546 -42 550 C-36 553 -30 555 -23 556 C-13 557 -13 557 -11 558 C-1 559 8 559 18 559 C22 559 26 559 31 560 C36 560 36 560 41 559 C46 559 51 559 56 559 C64 559 70 558 77 556 C82 555 86 554 91 553 C97 552 101 549 107 545 C111 543 113 542 117 543 C119 544 120 545 122 546 C140 546 161 528 174 516 C182 508 182 508 182 503 C182 498 180 495 178 491 C176 487 175 482 173 478 C172 474 172 474 169 471 C168 468 168 468 168 464 C168 463 167 461 167 460 C166 457 165 453 165 450 C164 447 164 447 163 446 C163 444 162 442 162 439 C161 435 161 430 160 425 C159 416 159 408 159 399 C159 397 159 395 159 393 C159 393 159 393 159 389 C159 387 159 386 159 384 C159 380 160 377 161 373 C161 372 162 371 162 370 C163 367 163 367 166 365 C167 366 168 367 169 368 C170 368 171 368 172 368 C172 369 171 371 171 372 C170 377 170 382 170 387 C170 388 170 388 170 392 C170 394 170 396 170 398 C170 400 170 402 170 404 C170 406 170 408 170 410 C170 410 170 410 170 415 C170 419 170 419 172 424 C173 428 173 431 173 435 C174 436 174 437 174 438 C175 438 176 439 177 439 C177 443 178 446 178 450 C179 459 179 459 181 463 C181 464 181 464 182 469 C183 475 185 480 188 486 C189 488 189 489 190 491 C191 492 191 493 192 494 C193 494 193 494 194 494 C195 496 195 497 196 499 C200 504 200 504 203 505 C211 499 213 489 215 479 C215 478 215 476 215 475 C215 473 216 472 216 470 C217 470 217 470 218 470 C218 469 218 469 218 468 C222 470 222 470 223 472 C223 473 223 473 223 476 C223 481 223 484 225 488 C229 490 229 490 234 489 C243 480 246 462 249 450 C249 449 250 447 250 446 C250 441 250 436 251 431 C251 423 251 423 252 422 C252 418 252 413 252 409 C252 408 252 407 252 405 C252 396 252 396 251 395 C251 392 251 390 250 387 C250 385 250 384 250 382 C250 381 250 380 250 379 C249 379 249 379 248 379 C248 379 248 379 248 376 C247 373 246 370 245 367 C245 366 245 365 244 364 C241 355 238 347 234 339 C233 338 233 337 233 336 C231 334 230 331 229 329 C228 329 228 329 227 329 C226 327 226 325 225 323 C220 315 215 312 207 310 C204 306 204 306 204 300 C204 298 205 297 205 295 C204 292 204 292 202 288 C197 273 192 257 189 241 C188 237 188 237 187 234 C186 231 186 228 186 225 C185 221 185 217 184 214 C183 208 183 203 182 198 C182 194 182 194 181 191 C180 187 180 183 180 179 C179 170 178 160 175 151 C174 148 174 144 173 141 C172 136 172 136 171 135 C170 133 170 130 170 128 C168 120 166 114 164 107 C162 103 161 99 159 95 C158 92 158 92 156 91 C155 89 155 88 154 86 C139 61 139 61 129 51 C128 51 128 51 127 51 C127 50 126 49 126 48 C108 34 88 21 65 18 C64 18 64 18 61 16 C58 16 55 15 52 15 C51 15 50 15 49 15 C5 11 5 11 -5 18 Z " fill="#100F11" transform="translate(234,25)"/>
<path d="M0 0 C1 1 1 3 2 4 C6 8 9 9 14 11 C20 15 22 19 25 25 C25 26 25 26 25 27 C26 27 26 27 27 27 C28 30 30 32 31 35 C33 39 35 44 37 48 C39 52 41 57 42 61 C42 62 43 63 43 64 C46 73 46 73 46 77 C47 77 47 77 48 77 C48 78 48 79 48 80 C48 82 48 83 48 85 C49 86 49 88 49 89 C49 93 49 93 50 94 C50 98 50 103 50 107 C50 108 50 109 50 111 C50 120 50 120 49 121 C49 124 49 128 49 132 C48 150 43 169 34 185 C33 186 31 187 30 188 C26 187 26 187 23 186 C22 180 21 176 21 170 C19 167 19 167 16 166 C16 167 16 167 16 168 C15 168 15 168 14 168 C14 169 14 171 14 172 C12 183 9 192 4 201 C3 201 3 201 0 203 C-3 200 -5 197 -8 194 C-8 193 -8 193 -8 192 C-9 192 -9 192 -10 192 C-11 189 -13 187 -14 184 C-15 182 -16 181 -17 179 C-18 175 -19 171 -20 167 C-21 161 -21 161 -23 157 C-24 153 -24 150 -24 145 C-24 140 -24 140 -25 137 C-26 137 -27 136 -28 136 C-29 133 -29 133 -29 129 C-30 125 -30 121 -32 117 C-32 114 -32 111 -32 108 C-32 107 -32 107 -32 102 C-32 100 -32 98 -32 96 C-32 94 -32 92 -32 90 C-32 89 -32 87 -32 85 C-32 83 -32 82 -32 80 C-32 75 -31 71 -30 66 C-31 66 -33 65 -34 65 C-36 63 -36 63 -36 59 C-35 41 -25 21 -12 9 C-8 5 -5 3 0 2 C0 1 0 1 0 0 Z " fill="#898EA1" transform="translate(436,327)"/>
<path d="M0 0 C10 4 10 4 12 9 C13 9 14 10 15 10 C15 11 15 11 15 12 C16 12 16 12 17 12 C24 22 29 31 31 43 C32 43 32 43 33 43 C33 44 33 45 33 46 C34 48 34 49 34 51 C34 52 34 54 34 55 C35 59 35 59 37 62 C35 63 34 63 32 64 C30 69 30 72 30 78 C30 78 30 78 30 83 C30 86 30 90 30 93 C30 109 30 124 24 138 C22 144 21 149 21 155 C20 159 19 161 17 165 C17 166 16 167 16 168 C15 172 13 175 12 179 C9 183 7 187 6 192 C4 196 3 198 -1 200 C-3 200 -4 200 -6 200 C-11 195 -11 192 -13 185 C-14 183 -14 182 -15 180 C-16 176 -16 176 -16 171 C-17 170 -17 168 -17 167 C-19 166 -20 166 -22 165 C-24 167 -24 174 -24 177 C-25 177 -25 177 -26 177 C-26 178 -27 179 -27 180 C-27 181 -28 182 -28 183 C-29 183 -29 183 -33 185 C-43 178 -46 163 -48 152 C-48 151 -48 151 -48 148 C-49 148 -49 148 -50 148 C-51 140 -52 133 -50 125 C-50 121 -51 117 -52 112 C-52 107 -52 101 -52 96 C-52 95 -52 94 -52 92 C-52 84 -50 75 -47 67 C-46 67 -46 67 -45 67 C-45 66 -45 65 -45 64 C-44 60 -43 56 -41 52 C-41 51 -40 50 -40 49 C-37 44 -35 39 -32 35 C-32 34 -32 34 -31 32 C-31 31 -30 30 -30 29 C-29 29 -29 29 -28 29 C-28 28 -28 27 -27 26 C-25 20 -22 16 -17 12 C-14 10 -14 10 -10 10 C-9 9 -8 9 -7 9 C-6 8 -6 6 -5 5 C-4 4 -2 4 -1 3 C-1 2 -0 1 0 0 Z " fill="#9094A3" transform="translate(91,329)"/>
<path d="M0 0 C5 -0 10 0 16 1 C24 3 33 4 42 5 C43 5 45 5 46 5 C62 7 77 6 93 4 C95 4 97 4 98 4 C106 3 114 2 122 0 C124 0 126 0 128 0 C129 1 129 1 129 6 C127 7 127 7 123 8 C118 11 114 13 111 18 C110 22 111 24 113 28 C118 31 121 30 127 29 C133 28 138 27 143 31 C145 33 147 34 148 36 C152 39 155 41 160 41 C163 40 163 40 166 37 C167 35 167 34 168 32 C169 32 169 32 170 32 C170 31 171 30 171 29 C176 29 180 30 185 31 C189 30 191 30 194 27 C197 22 195 18 194 13 C197 13 200 13 203 13 C205 13 206 13 208 13 C209 13 211 13 212 13 C213 14 213 16 214 17 C218 17 223 17 227 17 C231 17 236 17 240 17 C241 18 241 20 242 21 C244 21 245 21 247 21 C249 21 250 21 252 21 C253 22 253 24 254 25 C255 25 255 25 258 27 C259 28 260 28 261 29 C261 30 261 30 261 31 C259 33 259 33 256 35 C254 35 252 35 250 35 C249 36 249 38 248 39 C244 39 241 39 237 39 C236 39 235 39 234 39 C233 40 233 42 232 43 C229 43 229 43 225 43 C224 43 223 43 221 43 C218 43 216 43 213 43 C211 43 210 43 209 43 C207 43 206 43 205 43 C204 43 203 43 202 43 C201 44 201 46 200 47 C194 47 189 47 183 47 C180 47 177 47 174 47 C173 48 173 50 172 51 C168 51 165 51 161 51 C160 51 160 51 158 51 C153 51 148 51 143 51 C140 51 137 51 133 51 C132 51 131 51 130 51 C127 51 127 51 122 51 C121 52 121 54 120 55 C117 56 117 56 114 56 C113 56 113 56 110 56 C109 56 107 56 106 56 C104 56 103 56 102 56 C99 56 96 56 93 56 C88 56 83 56 79 56 C76 56 73 56 70 56 C69 56 69 56 66 56 C65 56 63 56 62 56 C61 56 60 56 59 56 C58 55 57 55 56 55 C56 54 56 54 54 51 C50 51 50 51 45 51 C43 51 41 51 39 51 C38 51 38 51 36 51 C32 51 29 51 26 51 C19 51 12 51 5 51 C-3 51 -11 51 -19 51 C-22 51 -26 51 -29 51 C-31 51 -33 51 -35 51 C-37 51 -38 51 -40 51 C-41 51 -43 51 -44 51 C-44 50 -44 50 -46 47 C-49 47 -49 47 -53 47 C-53 47 -53 47 -57 47 C-58 47 -60 47 -61 47 C-64 47 -67 47 -69 47 C-71 47 -72 47 -73 47 C-74 47 -74 47 -76 47 C-77 46 -77 44 -78 43 C-82 43 -85 43 -89 43 C-93 43 -96 43 -100 43 C-101 42 -101 40 -102 39 C-106 39 -106 39 -111 39 C-116 39 -116 39 -120 39 C-121 38 -121 36 -122 35 C-124 35 -126 35 -128 35 C-131 33 -131 33 -133 31 C-133 30 -133 30 -133 29 C-129 25 -129 25 -126 25 C-125 24 -125 22 -124 21 C-122 21 -120 21 -118 21 C-117 20 -117 18 -116 17 C-111 17 -107 17 -102 17 C-99 17 -97 17 -94 17 C-93 16 -93 14 -92 13 C-89 13 -89 13 -86 13 C-85 13 -85 13 -82 13 C-81 13 -79 13 -78 13 C-77 13 -77 13 -74 13 C-71 13 -67 13 -64 13 C-64 14 -64 15 -64 16 C-64 17 -64 18 -64 19 C-64 20 -64 22 -64 23 C-64 26 -64 26 -62 29 C-57 32 -52 30 -46 29 C-45 29 -44 29 -43 29 C-39 33 -39 33 -38 38 C-34 40 -32 41 -27 41 C-23 39 -20 37 -17 33 C-16 33 -16 33 -15 33 C-15 32 -15 32 -15 31 C-13 29 -13 29 -10 27 C-4 27 -4 27 1 29 C6 30 9 30 14 29 C18 26 18 24 19 19 C15 12 11 10 4 8 C2 7 1 7 0 6 C0 4 0 2 0 0 Z " fill="#D9DAE2" transform="translate(198,592)"/>
<path d="M0 0 C10 7 17 15 21 27 C21 30 22 33 22 36 C23 41 23 45 24 49 C24 58 23 66 21 74 C20 75 20 75 19 76 C19 75 19 75 19 74 C18 74 18 74 13 76 C13 75 13 75 14 72 C16 55 15 39 6 23 C0 15 -7 12 -17 11 C-26 12 -34 15 -41 22 C-50 35 -52 49 -51 65 C-49 73 -47 79 -43 86 C-42 89 -42 89 -42 94 C-42 94 -43 95 -43 95 C-48 95 -50 94 -54 91 C-55 90 -55 90 -58 87 C-58 86 -58 86 -58 85 C-59 85 -60 85 -61 86 C-62 86 -62 86 -65 86 C-66 87 -68 87 -69 87 C-72 88 -76 88 -79 89 C-84 90 -84 90 -87 92 C-88 92 -89 92 -90 92 C-90 92 -90 92 -93 93 C-95 98 -95 98 -96 103 C-95 103 -93 104 -92 104 C-92 105 -92 105 -92 106 C-90 106 -89 107 -87 107 C-85 108 -84 109 -82 110 C-80 111 -77 111 -75 112 C-66 114 -61 118 -54 123 C-53 124 -53 124 -49 126 C-45 129 -45 129 -43 132 C-43 134 -44 137 -44 139 C-44 148 -44 148 -42 153 C-43 154 -44 155 -45 156 C-50 156 -50 156 -53 155 C-56 153 -59 153 -63 153 C-69 152 -72 151 -77 147 C-82 144 -86 144 -91 144 C-96 143 -98 140 -102 137 C-103 137 -104 136 -105 136 C-106 138 -106 139 -107 141 C-108 141 -108 141 -109 141 C-109 142 -109 143 -109 145 C-110 149 -110 149 -113 153 C-115 159 -113 164 -110 170 C-112 170 -114 170 -116 170 C-118 166 -119 164 -119 160 C-117 154 -116 148 -113 143 C-112 138 -110 133 -109 128 C-108 124 -107 120 -107 116 C-106 115 -106 114 -106 112 C-105 110 -105 108 -104 106 C-103 100 -102 94 -101 88 C-101 80 -99 72 -98 64 C-98 62 -98 60 -97 58 C-93 30 -93 30 -91 19 C-91 18 -90 16 -90 15 C-89 11 -89 11 -87 9 C-84 11 -84 11 -83 14 C-82 14 -80 13 -79 13 C-66 9 -66 9 -59 12 C-55 12 -55 12 -53 10 C-51 8 -49 6 -47 5 C-35 -9 -15 -10 0 0 Z " fill="#C7C9D3" transform="translate(205,160)"/>
<path d="M0 0 C1 0 2 0 4 0 C4 0 4 0 8 0 C10 0 13 1 16 1 C23 1 30 1 37 0 C43 0 47 1 52 5 C52 6 52 6 52 7 C53 7 53 7 56 9 C56 10 55 12 55 13 C54 14 54 16 53 18 C52 19 52 21 51 23 C50 25 49 28 48 30 C50 34 50 34 54 36 C55 36 56 36 57 36 C59 34 61 33 62 31 C66 30 69 29 72 28 C81 24 81 24 83 20 C89 18 92 19 97 22 C99 23 101 23 102 24 C104 27 104 27 104 30 C100 35 97 37 90 37 C87 37 84 37 81 37 C77 37 77 37 74 39 C72 42 72 42 70 46 C67 50 64 50 59 52 C59 53 59 53 58 54 C58 54 57 54 56 54 C56 55 56 56 55 57 C53 58 53 58 49 58 C44 59 44 59 40 63 C33 67 27 67 19 67 C17 67 14 67 12 67 C11 67 10 67 8 67 C5 67 5 67 0 69 C-0 70 -0 70 -2 73 C-5 77 -5 77 -9 78 C-13 80 -13 80 -15 85 C-16 86 -16 88 -17 89 C-20 90 -22 90 -26 90 C-27 90 -28 90 -30 90 C-31 90 -31 90 -34 90 C-35 90 -35 90 -39 90 C-40 90 -42 90 -43 90 C-44 90 -46 90 -47 90 C-51 90 -55 90 -59 89 C-59 88 -59 86 -59 85 C-60 85 -61 84 -62 84 C-62 83 -63 82 -64 81 C-67 78 -70 76 -74 74 C-76 73 -77 73 -79 72 C-82 70 -85 69 -89 68 C-90 67 -91 67 -93 66 C-93 65 -93 63 -94 62 C-93 61 -92 60 -92 59 C-92 58 -92 57 -92 56 C-92 55 -93 55 -94 54 C-92 54 -90 54 -89 54 C-88 52 -87 51 -87 49 C-86 49 -85 49 -85 49 C-84 48 -83 46 -83 45 C-80 42 -80 42 -77 39 C-75 39 -73 39 -72 39 C-71 40 -70 40 -70 41 C-65 45 -60 47 -55 50 C-54 50 -53 51 -52 51 C-49 52 -46 54 -44 55 C-42 56 -41 56 -40 57 C-37 57 -34 57 -31 57 C-22 58 -19 60 -12 65 C-8 65 -8 65 -5 64 C-3 61 -3 58 -4 54 C-7 51 -7 51 -10 50 C-14 48 -14 48 -16 44 C-16 43 -16 41 -17 40 C-17 40 -18 39 -19 39 C-19 38 -19 38 -19 37 C-19 37 -19 37 -22 36 C-22 35 -22 34 -23 33 C-22 32 -22 31 -21 31 C-19 26 -20 21 -21 16 C-20 11 -20 11 -19 8 C-18 8 -17 8 -17 8 C-16 7 -16 6 -16 5 C-14 6 -13 6 -12 7 C-1 0 -1 0 0 0 Z " fill="#C1C4D0" transform="translate(242.708740234375,41.994140625)"/>
<path d="M0 0 C1 1 2 2 3 3 C6 8 10 9 15 11 C17 13 17 13 19 18 C24 22 27 21 33 22 C38 22 43 22 48 23 C50 26 50 26 51 29 C54 36 57 43 65 47 C71 49 76 49 82 48 C86 48 86 48 89 48 C92 51 92 51 93 54 C94 55 95 56 95 57 C97 60 97 60 96 65 C93 68 89 69 85 70 C84 70 83 71 82 71 C76 71 70 71 63 71 C62 71 62 71 58 71 C56 71 55 72 53 72 C51 72 50 72 48 72 C43 71 41 69 37 66 C36 65 36 64 35 63 C33 60 33 60 28 59 C25 61 25 61 23 64 C22 65 20 67 19 68 C19 69 20 70 20 71 C21 71 21 71 22 71 C23 72 25 74 26 75 C27 76 28 77 29 78 C32 80 32 80 33 82 C33 88 34 91 31 96 C27 100 23 104 18 107 C15 107 15 107 11 107 C10 107 9 107 7 107 C4 106 4 106 1 105 C-4 103 -11 104 -16 104 C-24 105 -27 103 -33 99 C-36 98 -36 98 -39 98 C-39 97 -39 97 -39 96 C-40 96 -40 96 -41 96 C-42 95 -42 94 -43 93 C-46 90 -46 90 -50 88 C-54 85 -55 82 -56 77 C-57 71 -56 70 -54 65 C-53 63 -53 62 -52 60 C-52 59 -51 57 -51 56 C-50 56 -50 56 -49 56 C-49 55 -49 55 -48 50 C-42 53 -42 53 -39 55 C-35 57 -33 58 -29 58 C-24 58 -21 59 -17 63 C-12 67 -8 67 -1 67 C2 67 5 68 8 70 C10 70 11 70 13 70 C13 69 13 69 15 66 C14 65 14 65 13 64 C13 59 13 55 14 50 C14 47 14 47 12 44 C8 41 4 39 0 36 C-0 36 -0 36 -2 34 C-8 30 -15 28 -21 26 C-27 25 -27 25 -31 22 C-32 22 -33 21 -34 21 C-34 20 -34 20 -34 19 C-35 19 -37 18 -38 18 C-37 13 -37 13 -36 8 C-32 6 -32 6 -27 5 C-26 4 -24 4 -23 3 C-20 2 -17 2 -14 1 C-12 1 -10 1 -8 1 C-4 0 -4 0 0 0 Z " fill="#C1C4D0" transform="translate(147,245)"/>
<path d="M0 0 C1 1 2 2 3 3 C5 4 6 5 8 6 C12 12 14 16 14 23 C13 25 13 26 12 28 C10 28 9 29 7 29 C6 32 6 32 7 36 C8 37 9 39 10 40 C15 40 15 40 19 40 C19 39 19 38 19 37 C20 37 20 37 21 37 C22 42 23 44 22 49 C23 49 24 48 25 48 C26 50 26 50 26 53 C27 56 27 56 30 59 C30 60 30 62 30 63 C30 68 30 68 32 71 C35 75 34 79 34 84 C34 84 34 84 32 85 C32 86 32 86 31 89 C28 91 28 91 25 92 C19 94 14 99 9 104 C6 106 6 106 4 108 C4 108 4 108 1 107 C1 106 1 106 1 105 C-0 105 -2 104 -3 104 C-8 102 -12 100 -17 97 C-19 92 -18 88 -16 83 C-16 82 -16 81 -15 80 C-14 76 -14 76 -11 73 C-11 73 -10 72 -9 71 C-10 66 -10 66 -14 63 C-34 61 -34 61 -42 66 C-43 68 -45 69 -46 70 C-51 71 -51 71 -56 71 C-57 72 -59 73 -60 74 C-60 75 -60 75 -60 78 C-59 79 -59 79 -59 82 C-60 83 -62 85 -63 86 C-64 86 -66 86 -67 86 C-67 85 -68 83 -68 82 C-69 82 -69 82 -70 82 C-70 81 -71 79 -71 78 C-74 78 -74 78 -77 80 C-79 84 -79 84 -80 88 C-80 88 -80 88 -82 90 C-84 90 -86 90 -88 90 C-91 87 -92 85 -93 81 C-94 80 -94 79 -94 78 C-95 75 -95 75 -93 70 C-91 68 -89 65 -87 63 C-85 61 -85 61 -83 58 C-81 55 -81 55 -77 54 C-76 53 -74 53 -73 52 C-71 48 -71 48 -70 43 C-68 40 -66 38 -64 35 C-63 33 -62 31 -61 29 C-58 24 -58 24 -55 22 C-54 22 -52 22 -51 22 C-46 21 -44 20 -40 18 C-37 17 -34 17 -31 16 C-30 15 -29 15 -28 14 C-26 14 -25 13 -23 13 C-15 11 -9 7 -2 2 C-1 2 -1 2 0 2 C0 1 0 1 0 0 Z " fill="#C1C4D0" transform="translate(371,94)"/>
<path d="M0 0 C1 0 1 0 4 1 C6 5 6 5 8 11 C9 16 11 21 14 26 C15 30 14 32 12 36 C2 48 -10 56 -24 64 C-25 64 -25 64 -29 67 C-40 73 -40 73 -46 73 C-48 72 -49 71 -51 70 C-56 69 -59 70 -64 73 C-64 74 -65 75 -66 75 C-72 79 -76 80 -82 81 C-86 82 -89 82 -93 84 C-100 86 -107 86 -115 86 C-126 86 -126 86 -132 87 C-134 87 -136 87 -138 87 C-144 86 -150 86 -157 86 C-176 86 -176 86 -182 84 C-185 83 -189 83 -193 82 C-202 81 -209 78 -216 73 C-220 71 -222 71 -226 72 C-243 73 -261 61 -273 51 C-274 50 -275 50 -276 49 C-277 48 -278 48 -279 47 C-286 42 -292 36 -294 27 C-293 24 -293 24 -291 21 C-289 16 -287 12 -285 7 C-285 6 -284 4 -283 2 C-279 1 -279 1 -276 2 C-273 6 -273 9 -272 14 C-267 31 -248 44 -234 53 C-232 54 -230 55 -228 56 C-227 56 -227 56 -225 58 C-205 69 -183 74 -160 74 C-160 75 -160 75 -160 76 C-124 77 -89 77 -57 58 C-55 57 -53 57 -51 56 C-33 51 -18 36 -8 20 C-8 19 -8 19 -6 17 C-4 13 -4 13 -4 8 C-4 6 -4 5 -4 3 C-3 2 -1 1 0 0 Z " fill="#AFB1BB" transform="translate(402,498)"/>
<path d="M0 0 C10 4 10 4 12 9 C13 9 14 10 15 10 C15 11 15 11 15 12 C16 12 16 12 17 12 C24 22 29 31 31 43 C32 43 32 43 33 43 C33 44 33 45 33 46 C34 48 34 49 34 51 C34 52 34 54 34 55 C35 59 35 59 37 62 C35 63 34 63 32 64 C30 69 30 71 30 75 C30 77 30 78 30 79 C30 82 30 84 30 87 C29 90 29 93 29 96 C29 96 29 96 26 97 C25 100 25 103 24 106 C23 107 23 107 22 108 C17 106 17 106 16 105 C15 105 14 105 13 105 C8 104 5 102 1 99 C-1 97 -1 97 -4 95 C-8 92 -9 89 -11 85 C-15 79 -21 75 -27 72 C-32 71 -32 71 -38 70 C-40 70 -41 70 -43 70 C-45 67 -45 67 -45 64 C-44 60 -43 56 -41 52 C-41 51 -40 50 -40 49 C-37 44 -35 39 -32 35 C-32 34 -31 33 -31 32 C-31 31 -30 30 -30 29 C-29 29 -29 29 -28 29 C-28 28 -28 27 -27 26 C-25 20 -22 16 -17 12 C-14 10 -14 10 -10 10 C-9 9 -8 9 -7 9 C-6 8 -6 6 -5 5 C-4 4 -2 4 -1 3 C-1 2 -0 1 0 0 Z " fill="#888DA0" transform="translate(91,329)"/>
<path d="M0 0 C10 10 13 24 13 37 C13 55 9 68 -3 81 C-9 86 -13 86 -20 86 C-20 87 -20 88 -21 88 C-23 88 -25 88 -28 87 C-28 88 -28 88 -31 88 C-37 86 -43 83 -47 77 C-46 77 -46 77 -46 76 C-46 70 -48 66 -50 61 C-56 48 -57 30 -52 16 C-47 6 -42 0 -32 -5 C-20 -9 -11 -7 0 0 Z " fill="#050507" transform="translate(207.625,177.625)"/>
<path d="M0 0 C1 -0 2 -0 4 -0 C11 1 16 5 21 9 C23 12 25 14 26 17 C28 19 30 21 32 24 C34 27 34 27 34 29 C35 29 35 29 37 30 C40 34 42 37 43 42 C42 47 41 49 38 52 C36 53 34 54 32 55 C28 59 25 63 22 68 C18 75 18 75 16 78 C15 78 15 78 14 78 C13 80 13 82 12 83 C7 88 4 91 -3 92 C-10 91 -13 87 -17 82 C-21 77 -24 73 -26 67 C-30 60 -34 55 -41 51 C-45 46 -44 41 -43 34 C-40 30 -38 27 -34 24 C-34 24 -34 24 -32 20 C-27 11 -20 6 -11 1 C-7 0 -4 0 0 0 Z " fill="#060406" transform="translate(265.875,222.75)"/>
<path d="M0 0 C5 -0 10 0 16 1 C24 3 33 4 42 5 C43 5 45 5 46 5 C62 7 77 6 93 4 C95 4 97 4 98 4 C106 3 114 2 122 0 C124 0 126 0 128 0 C129 1 129 1 129 6 C127 7 127 7 123 8 C118 11 114 13 111 18 C110 22 111 24 113 28 C118 31 121 30 127 29 C133 28 138 27 143 31 C145 33 147 34 148 36 C152 39 155 41 160 41 C163 40 163 40 166 37 C167 35 167 34 168 32 C169 32 169 32 170 32 C170 31 171 30 171 29 C176 29 180 30 185 31 C189 30 191 30 194 27 C197 22 195 18 194 13 C197 13 200 13 203 13 C205 13 206 13 208 13 C209 13 211 13 212 13 C212 14 212 14 214 17 C218 17 223 17 227 17 C231 17 236 17 240 17 C240 18 240 18 242 21 C244 21 245 21 247 21 C249 21 250 21 252 21 C252 22 252 22 254 25 C255 25 255 25 258 27 C259 28 260 28 261 29 C261 30 261 30 261 31 C259 33 259 33 256 35 C254 35 252 35 250 35 C249 36 249 38 248 39 C244 39 241 39 237 39 C236 39 235 39 234 39 C233 40 233 42 232 43 C229 43 229 43 225 43 C224 43 223 43 221 43 C220 43 220 43 213 43 C211 43 210 43 209 43 C207 43 206 43 205 43 C204 43 204 43 202 43 C201 44 201 46 200 47 C194 47 189 47 183 47 C180 47 177 47 174 47 C173 48 173 50 172 51 C168 51 165 51 161 51 C160 51 159 51 158 51 C154 51 151 51 147 51 C145 51 143 51 140 51 C135 51 129 51 123 51 C124 49 124 49 127 48 C131 47 135 47 139 47 C140 47 140 47 143 47 C144 47 145 47 146 47 C146 45 146 44 146 42 C144 41 142 39 140 38 C140 37 140 35 140 34 C138 34 137 33 135 33 C135 34 135 36 135 37 C134 37 133 37 132 37 C130 37 129 37 127 37 C126 37 124 37 123 37 C119 37 119 37 116 39 C116 39 116 39 119 41 C115 43 112 43 107 43 C98 38 93 34 88 25 C88 24 88 24 88 23 C87 23 87 23 86 23 C86 22 86 22 85 18 C85 18 85 18 84 16 C87 15 91 15 94 14 C84 14 75 14 65 14 C62 14 59 14 55 14 C51 14 46 14 41 14 C40 14 38 14 37 14 C35 14 34 14 33 14 C32 14 32 14 29 14 C26 14 26 14 23 16 C23 18 23 19 23 21 C23 22 23 23 23 25 C22 25 22 25 18 26 C18 25 18 25 19 23 C19 19 19 19 16 14 C12 11 8 9 4 8 C3 7 3 7 0 6 C0 4 0 2 0 0 Z " fill="#DBDCE3" transform="translate(198,592)"/>
<path d="M0 0 C0 6 0 6 -3 11 C-3 12 -4 14 -4 15 C-4 15 -4 15 -5 18 C-6 18 -7 18 -8 18 C-9 26 -9 26 -7 30 C-7 33 -7 36 -7 38 C-7 40 -7 41 -7 43 C-7 45 -7 47 -7 48 C-7 49 -7 49 -8 53 C-8 58 -8 62 -8 66 C-8 65 -9 63 -9 62 C-10 62 -10 62 -11 62 C-11 63 -10 64 -10 65 C-9 70 -8 74 -7 79 C-7 80 -6 81 -6 82 C-6 82 -6 82 -4 83 C-3 90 -3 90 -4 94 C-5 94 -5 94 -6 94 C-4 100 -4 100 1 102 C1 105 1 105 0 108 C-8 104 -8 104 -9 103 C-12 103 -15 103 -18 102 C-21 102 -21 102 -26 99 C-28 95 -28 95 -28 89 C-28 89 -28 89 -27 86 C-27 85 -28 83 -28 82 C-30 82 -32 82 -34 82 C-35 83 -36 83 -38 83 C-41 83 -41 83 -45 84 C-48 84 -48 84 -50 82 C-52 78 -53 75 -54 71 C-55 70 -55 68 -56 67 C-56 65 -56 64 -56 62 C-55 62 -53 63 -52 63 C-49 59 -49 59 -49 54 C-52 53 -52 53 -56 54 C-60 50 -60 50 -61 46 C-60 40 -59 39 -55 35 C-53 34 -52 33 -50 32 C-48 27 -49 20 -49 15 C-48 10 -48 10 -46 7 C-40 3 -36 2 -29 2 C-19 2 -9 -2 0 0 Z " fill="#C1C4D0" transform="translate(396,378)"/>
<path d="M0 0 C1 0 1 0 5 1 C5 1 5 1 6 3 C7 3 8 4 9 4 C9 8 10 12 10 16 C10 16 10 16 10 19 C11 19 12 20 13 20 C13 22 14 25 14 27 C15 27 16 28 17 28 C17 29 17 30 17 31 C17 33 18 34 18 35 C22 36 22 36 25 37 C25 38 26 39 26 40 C27 41 29 41 30 42 C30 43 30 43 30 44 C32 44 33 44 35 44 C37 44 38 44 40 44 C40 45 40 45 42 48 C43 48 44 48 45 48 C45 51 45 55 45 58 C44 58 43 58 42 58 C40 58 39 58 38 58 C37 59 37 61 36 62 C33 62 29 62 26 62 C25 63 25 65 24 66 C23 66 23 66 22 66 C21 67 21 69 20 70 C20 70 20 70 18 71 C18 72 18 73 18 74 C17 75 17 75 17 78 C16 78 15 79 14 79 C14 80 14 81 14 82 C13 84 13 85 13 86 C12 86 11 87 10 87 C9 90 9 90 9 95 C9 96 9 97 9 99 C9 100 9 101 9 102 C5 102 5 102 0 102 C-1 101 -1 99 -2 98 C-3 98 -4 98 -5 98 C-5 97 -5 97 -5 95 C-5 94 -5 94 -5 91 C-5 89 -5 88 -5 86 C-6 86 -6 86 -6 83 C-7 83 -8 82 -9 82 C-9 80 -10 77 -10 75 C-10 75 -10 75 -13 74 C-13 73 -13 72 -13 71 C-14 67 -14 67 -18 64 C-18 63 -18 63 -18 62 C-20 62 -21 62 -23 62 C-24 62 -24 62 -28 62 C-29 61 -29 59 -30 58 C-32 58 -34 58 -36 58 C-37 57 -37 55 -38 54 C-39 54 -40 53 -41 53 C-41 51 -40 50 -40 48 C-38 48 -36 48 -34 48 C-33 47 -33 45 -32 44 C-29 44 -25 44 -22 44 C-21 43 -21 41 -20 40 C-19 40 -19 40 -18 40 C-17 39 -17 37 -16 36 C-15 36 -15 36 -14 36 C-13 35 -13 33 -12 32 C-11 32 -11 31 -10 31 C-10 29 -10 27 -10 26 C-9 24 -9 22 -9 20 C-8 20 -7 19 -6 19 C-6 16 -6 16 -6 12 C-5 7 -5 7 -5 4 C-4 4 -3 3 -2 3 C-1 2 -1 1 0 0 Z " fill="#F3B041" transform="translate(490,73)"/>
<path d="M0 0 C5 2 6 3 9 7 C14 12 19 13 26 13 C31 14 34 17 37 21 C40 25 40 25 43 27 C48 27 51 25 56 22 C61 20 65 21 71 21 C71 23 70 26 70 28 C70 29 70 29 70 32 C69 36 68 39 66 42 C66 43 65 44 65 45 C64 49 62 52 61 56 C58 60 56 64 55 69 C53 73 52 75 48 77 C46 77 45 77 43 77 C38 72 38 69 36 62 C35 60 35 59 34 57 C33 53 33 53 33 48 C32 47 32 45 32 44 C30 43 29 43 27 42 C25 44 25 51 25 54 C24 54 24 54 23 54 C23 55 22 56 22 57 C22 58 21 59 21 60 C19 61 18 61 16 62 C6 55 3 40 1 28 C1 27 1 26 1 25 C0 25 -0 25 -1 25 C-3 8 -3 8 0 0 Z " fill="#6A7086" transform="translate(42,452)"/>
<path d="M0 0 C10 7 17 15 21 27 C21 30 22 33 22 36 C23 41 23 45 24 49 C24 58 23 66 21 74 C20 75 20 75 19 76 C19 75 19 75 19 74 C17 75 15 75 13 76 C13 75 13 74 14 72 C16 55 15 39 6 23 C0 15 -7 12 -17 11 C-26 12 -34 15 -41 22 C-50 35 -52 49 -51 65 C-49 73 -47 79 -43 86 C-42 89 -42 89 -42 94 C-42 94 -43 95 -43 95 C-48 95 -50 94 -54 91 C-64 80 -66 66 -67 52 C-66 35 -62 19 -50 7 C-36 -7 -17 -11 0 0 Z " fill="#ECEDEF" transform="translate(205,160)"/>
<path d="M0 0 C0 0 1 0 1 0 C2 22 -2 43 -13 62 C-14 63 -16 64 -17 65 C-21 64 -21 64 -24 63 C-25 57 -26 53 -26 47 C-28 44 -28 44 -31 43 C-31 44 -31 44 -31 45 C-32 45 -32 45 -33 45 C-33 46 -33 48 -33 49 C-35 60 -38 69 -43 78 C-44 78 -44 78 -47 80 C-50 77 -52 74 -55 71 C-55 70 -55 70 -55 69 C-56 69 -56 69 -57 69 C-58 66 -60 64 -61 61 C-62 59 -63 58 -64 56 C-65 52 -66 48 -67 44 C-68 38 -68 38 -70 34 C-72 30 -71 25 -71 20 C-64 23 -64 23 -61 25 C-55 29 -50 30 -43 30 C-39 26 -39 26 -37 23 C-35 21 -35 21 -30 18 C-26 18 -26 18 -21 20 C-16 19 -16 19 -14 16 C-13 15 -13 14 -12 13 C-10 11 -9 10 -7 8 C-4 5 -2 3 0 0 Z " fill="#6A7086" transform="translate(483,450)"/>
<path d="M0 0 C10 4 10 4 12 9 C13 9 14 10 15 10 C15 11 15 11 15 12 C16 12 16 12 17 12 C24 22 29 31 31 43 C32 43 32 43 33 43 C33 44 33 45 33 46 C33 47 33 47 34 51 C34 52 34 54 34 55 C35 59 35 59 37 62 C35 63 34 63 32 64 C30 69 29 74 29 80 C29 79 28 78 28 77 C24 75 24 75 20 76 C12 76 7 71 1 66 C-3 61 -3 57 -4 50 C-6 46 -8 42 -12 38 C-14 36 -16 33 -18 30 C-20 26 -22 25 -26 24 C-23 17 -20 13 -14 10 C-13 10 -12 10 -10 10 C-9 9 -8 9 -7 9 C-6 8 -6 6 -5 5 C-4 4 -2 4 -1 3 C-1 2 -0 1 0 0 Z " fill="#9094A3" transform="translate(91,329)"/>
<path d="M0 0 C6 0 6 0 8 1 C8 2 8 2 8 3 C9 3 9 3 13 4 C14 4 14 4 18 7 C20 8 23 8 25 9 C34 11 39 15 46 20 C47 21 47 21 51 23 C55 26 55 26 57 29 C57 31 56 34 56 36 C56 45 56 45 58 50 C57 51 56 52 55 53 C50 53 50 53 47 52 C44 50 41 50 37 50 C31 49 28 48 23 44 C18 41 14 41 9 41 C4 40 2 37 -2 34 C-2 34 -2 34 -5 33 C-5 34 -5 34 -7 38 C-8 38 -8 38 -9 38 C-9 39 -9 39 -9 42 C-10 46 -10 46 -13 50 C-15 56 -13 61 -10 67 C-12 67 -14 67 -16 67 C-18 63 -19 61 -19 57 C-17 48 -13 39 -10 31 C-8 31 -7 30 -5 30 C-4 26 -4 26 -4 22 C-4 21 -3 20 -3 19 C-2 16 -2 12 -1 9 C-1 2 -1 2 0 0 Z " fill="#C7C9D3" transform="translate(105,263)"/>
<path d="M0 0 C-0 1 -0 2 -0 3 C-0 4 -0 6 -1 7 C-1 8 -1 10 -1 11 C-1 15 -1 15 -0 18 C0 21 0 21 -2 25 C-2 26 -3 27 -3 28 C-2 29 -1 30 0 31 C0 32 0 32 0 33 C1 33 2 34 3 34 C3 35 4 37 4 38 C6 42 6 42 11 44 C12 45 14 45 15 46 C17 49 16 52 16 56 C12 60 12 60 9 60 C5 59 5 59 2 56 C-4 53 -5 53 -11 53 C-25 53 -43 44 -53 34 C-54 33 -55 33 -56 32 C-53 28 -50 26 -47 23 C-46 23 -46 23 -44 21 C-41 19 -39 18 -36 16 C-34 15 -33 14 -31 13 C-27 11 -24 9 -20 7 C-19 6 -19 6 -18 5 C-13 4 -13 4 -9 5 C-9 4 -9 2 -9 1 C-6 0 -6 0 0 0 Z " fill="#C7C9D3" transform="translate(224,48)"/>
<path d="M0 0 C1 0 1 0 5 1 C8 6 8 6 10 10 C10 10 10 10 11 11 C11 15 11 19 11 23 C11 27 11 27 15 31 C15 33 14 34 14 36 C14 36 14 36 11 35 C11 36 11 37 11 38 C1 41 -9 43 -19 44 C-22 44 -22 44 -23 45 C-26 45 -28 45 -31 45 C-33 43 -33 40 -33 37 C-36 34 -45 36 -49 36 C-58 35 -58 35 -62 31 C-61 25 -58 23 -53 19 C-52 18 -51 17 -50 17 C-46 15 -42 14 -38 13 C-35 13 -32 12 -29 11 C-27 11 -25 10 -22 10 C-14 8 -6 6 0 0 Z " fill="#C1C4D0" transform="translate(406,241)"/>
<path d="M0 0 C3 -0 3 -0 6 -0 C7 -0 7 -0 10 -0 C11 -0 13 -0 14 -0 C15 -0 15 -0 18 -0 C21 -0 25 -0 28 0 C28 1 28 2 28 3 C28 4 28 5 28 6 C28 7 28 9 28 10 C28 13 28 13 30 16 C35 19 40 17 46 16 C47 16 48 16 49 16 C53 20 53 20 54 24 C52 24 51 24 49 25 C47 25 46 26 44 26 C43 27 43 29 42 30 C41 31 39 31 38 32 C38 33 38 33 38 34 C34 34 31 34 27 34 C27 34 27 34 24 34 C21 34 21 34 16 34 C15 33 15 31 14 30 C10 30 7 30 3 30 C-1 30 -4 30 -8 30 C-9 29 -9 27 -10 26 C-14 26 -14 26 -19 26 C-24 26 -24 26 -28 26 C-29 25 -29 23 -30 22 C-32 22 -34 22 -36 22 C-39 20 -39 20 -41 18 C-41 17 -41 17 -41 16 C-37 12 -37 12 -34 12 C-33 11 -33 9 -32 8 C-30 8 -28 8 -26 8 C-25 7 -25 5 -24 4 C-19 4 -15 4 -10 4 C-7 4 -5 4 -2 4 C-1 3 -1 1 0 0 Z " fill="#DDDEE4" transform="translate(106,605)"/>
<path d="M0 0 C1 1 3 2 4 3 C5 3 7 3 8 4 C8 5 8 6 8 7 C8 7 8 7 10 8 C9 9 8 11 7 13 C6 13 6 13 5 13 C5 14 5 14 4 18 C2 22 2 22 -1 23 C-2 23 -3 23 -4 24 C-5 24 -6 24 -7 24 C-10 25 -10 25 -15 24 C-16 23 -17 22 -18 21 C-20 20 -21 19 -23 18 C-23 17 -23 16 -23 16 C-25 15 -26 15 -28 14 C-33 13 -33 13 -37 9 C-40 9 -40 9 -43 10 C-44 11 -45 11 -45 12 C-49 16 -52 16 -57 18 C-62 20 -64 21 -66 26 C-66 27 -67 28 -67 30 C-66 30 -66 30 -65 31 C-67 34 -67 34 -70 38 C-71 37 -73 37 -74 37 C-74 38 -75 39 -75 40 C-76 40 -76 40 -77 40 C-77 41 -78 43 -78 45 C-83 48 -83 48 -88 48 C-88 45 -88 42 -88 39 C-86 37 -84 36 -82 35 C-79 29 -78 24 -77 18 C-77 17 -77 17 -76 13 C-76 11 -75 10 -75 9 C-73 12 -73 12 -72 14 C-65 12 -59 8 -53 3 C-36 -10 -18 -12 0 0 Z " fill="#C1C4D0" transform="translate(304.0625,206.25)"/>
<path d="M0 0 C1 1 1 3 2 4 C6 8 9 9 14 11 C20 15 22 19 25 25 C25 26 25 26 25 27 C26 27 26 27 27 27 C28 29 28 32 29 34 C24 36 20 37 15 37 C9 38 5 42 0 47 C-4 50 -8 50 -14 50 C-15 50 -17 50 -19 50 C-24 50 -24 50 -27 48 C-29 46 -29 46 -31 41 C-28 25 -18 12 -5 3 C-3 3 -2 2 0 2 C0 1 0 1 0 0 Z " fill="#888DA0" transform="translate(436,327)"/>
<path d="M0 0 C1 0 3 1 4 1 C6 5 6 5 8 11 C9 16 11 21 14 26 C15 30 14 32 12 36 C2 48 -10 56 -24 64 C-26 65 -27 66 -29 67 C-40 73 -40 73 -46 73 C-51 70 -51 70 -52 67 C-52 63 -51 61 -49 57 C-45 54 -45 54 -41 52 C-28 43 -17 34 -8 20 C-7 19 -6 18 -6 17 C-4 13 -4 13 -4 8 C-4 6 -4 5 -4 3 C-3 2 -1 1 0 0 Z " fill="#ADB0BA" transform="translate(402,498)"/>
<path d="M0 0 C1 0 1 0 5 1 C5 1 5 1 6 3 C7 3 8 4 9 4 C9 8 10 12 10 16 C10 16 10 16 10 19 C11 19 12 20 13 20 C13 22 14 25 14 27 C15 27 16 28 17 28 C17 30 17 31 17 33 C16 33 16 33 15 33 C13 30 11 27 9 24 C9 26 9 28 9 30 C8 31 7 33 6 34 C6 35 5 37 5 38 C6 38 6 38 7 38 C7 39 8 40 8 41 C9 42 11 42 12 43 C12 44 12 44 12 45 C13 45 14 46 15 46 C18 47 18 47 20 51 C17 56 16 57 11 60 C8 63 7 65 5 69 C3 69 1 69 -1 69 C-3 66 -4 64 -6 61 C-10 57 -13 55 -18 54 C-20 55 -21 55 -23 56 C-23 57 -23 58 -23 59 C-22 60 -21 61 -20 62 C-24 62 -24 62 -28 62 C-29 61 -29 59 -30 58 C-32 58 -34 58 -36 58 C-37 57 -37 55 -38 54 C-39 54 -40 53 -41 53 C-41 51 -40 50 -40 48 C-38 48 -36 48 -34 48 C-33 47 -33 45 -32 44 C-29 44 -25 44 -22 44 C-21 43 -21 41 -20 40 C-19 40 -19 40 -18 40 C-17 39 -17 37 -16 36 C-15 36 -15 36 -14 36 C-13 35 -13 33 -12 32 C-11 32 -11 31 -10 31 C-10 29 -10 27 -10 26 C-9 24 -9 22 -9 20 C-8 20 -7 19 -6 19 C-6 16 -6 16 -6 12 C-5 7 -5 7 -5 4 C-4 4 -3 3 -2 3 C-1 2 -1 1 0 0 Z " fill="#FDE370" transform="translate(490,73)"/>
<path d="M0 0 C5 2 5 4 7 9 C8 14 9 18 10 23 C5 28 3 28 -4 28 C-6 28 -8 28 -9 28 C-13 28 -16 28 -20 28 C-21 28 -23 28 -25 28 C-26 28 -28 28 -29 28 C-31 29 -32 29 -33 29 C-34 30 -34 32 -35 33 C-39 37 -42 38 -47 40 C-48 41 -50 41 -51 42 C-52 46 -52 46 -52 51 C-52 53 -52 54 -52 56 C-52 57 -52 59 -52 60 C-53 60 -54 60 -55 60 C-55 59 -55 58 -55 57 C-56 50 -57 43 -58 36 C-58 35 -57 34 -57 33 C-58 33 -60 32 -61 32 C-63 30 -63 30 -63 26 C-63 19 -61 14 -59 8 C-58 8 -58 8 -57 8 C-56 10 -55 12 -54 14 C-48 18 -37 16 -30 15 C-25 12 -25 12 -22 8 C-17 4 -13 3 -7 3 C-5 3 -2 2 0 2 C0 1 0 1 0 0 Z " fill="#81869A" transform="translate(463,360)"/>
<path d="M0 0 C4 2 9 4 13 6 C14 7 16 7 17 8 C21 11 23 14 26 18 C29 21 31 23 35 26 C40 30 42 33 44 39 C44 43 44 43 43 46 C39 49 37 48 32 48 C31 48 29 48 28 48 C24 48 24 48 21 46 C21 45 21 45 21 44 C20 44 20 44 19 44 C18 43 17 42 16 41 C8 37 0 36 -8 35 C-8 36 -9 37 -9 38 C-12 37 -12 37 -15 35 C-15 30 -15 30 -13 28 C-13 25 -12 22 -12 19 C-11 16 -11 16 -8 11 C-7 11 -6 11 -5 11 C-5 10 -4 8 -4 7 C-3 7 -3 7 -2 7 C-2 6 -2 5 -2 4 C-1 1 -1 1 0 0 Z " fill="#C1C4D0" transform="translate(136,464)"/>
<path d="M0 0 C7 7 4 24 4 33 C4 34 4 36 4 37 C10 37 10 37 12 36 C17 36 17 36 23 36 C27 40 27 41 28 46 C28 52 28 52 31 55 C33 55 35 55 36 56 C44 57 51 60 57 64 C58 65 58 67 59 68 C56 69 56 69 52 68 C52 68 52 68 49 68 C48 69 47 70 46 71 C44 72 43 73 41 74 C40 76 38 78 37 80 C33 82 29 81 25 80 C20 78 16 75 11 72 C10 71 8 71 7 70 C7 68 6 66 6 64 C5 64 4 63 3 63 C2 60 2 60 2 56 C1 52 1 48 -1 44 C-1 41 -1 38 -1 34 C-1 33 -1 31 -1 29 C-1 28 -1 28 -1 23 C-1 21 -1 19 -1 17 C-1 2 -1 2 0 0 Z " fill="#8F93A2" transform="translate(405,400)"/>
<path d="M0 0 C13 3 25 7 36 14 C37 16 38 18 39 20 C42 23 42 23 46 25 C47 26 48 27 49 28 C54 31 58 31 63 30 C66 30 66 30 70 33 C70 37 70 37 69 41 C64 42 64 42 60 42 C56 42 54 43 51 45 C45 48 45 48 41 48 C37 45 33 42 31 37 C26 35 23 34 18 34 C13 33 11 32 7 29 C6 27 4 25 3 23 C1 22 -0 21 -2 20 C-4 15 -4 12 -4 7 C-3 7 -2 7 -1 7 C-1 5 -0 2 0 0 Z " fill="#888DA0" transform="translate(44,432)"/>
<path d="M0 0 C19 0 38 0 58 0 C54 2 51 3 47 3 C47 4 47 4 48 8 C48 9 47 9 47 10 C48 10 48 10 49 10 C54 18 54 18 55 22 C56 23 58 23 59 24 C60 25 62 26 63 27 C69 29 71 29 77 28 C77 28 77 28 76 25 C81 23 83 23 88 23 C90 23 91 24 93 24 C94 24 95 24 96 24 C96 23 96 21 96 20 C98 20 99 21 101 21 C101 22 101 22 102 25 C103 25 104 26 105 26 C106 27 107 27 108 28 C108 31 108 31 107 34 C103 35 100 35 96 35 C92 35 92 35 88 36 C83 38 80 38 75 38 C73 38 71 38 69 38 C68 38 68 38 64 38 C62 38 60 38 58 38 C49 38 41 38 32 37 C32 37 32 36 32 36 C36 36 39 35 43 35 C43 32 43 32 42 28 C38 25 38 25 35 22 C35 21 35 21 35 20 C32 19 29 17 26 16 C22 13 22 13 21 8 C20 7 20 6 19 4 C15 2 15 2 9 2 C8 2 6 2 4 1 C3 1 1 1 0 1 C0 1 0 0 0 0 Z " fill="#C7C9D3" transform="translate(237,605)"/>
<path d="M0 0 C5 4 11 8 13 15 C13 18 13 18 13 22 C10 25 10 25 7 27 C2 26 1 24 -2 21 C-8 15 -14 14 -22 15 C-29 15 -34 17 -39 23 C-44 26 -47 29 -52 31 C-56 29 -56 29 -58 25 C-57 16 -53 10 -47 5 C-32 -6 -16 -11 0 0 Z " fill="#050507" transform="translate(371.1875,204.1875)"/>
<path d="M0 0 C2 0 4 0 7 0 C8 0 9 0 10 0 C17 0 22 1 28 5 C30 8 30 8 32 12 C33 17 33 17 36 20 C35 20 34 21 32 22 C26 25 21 28 16 34 C15 35 14 36 12 37 C8 36 8 36 3 35 C-3 35 -9 37 -16 39 C-16 38 -16 36 -17 35 C-18 35 -19 34 -20 34 C-19 31 -19 31 -19 28 C-17 28 -16 27 -15 27 C-15 25 -15 22 -15 20 C-14 18 -13 17 -12 15 C-12 14 -11 13 -11 12 C-10 5 -8 1 0 0 Z " fill="#C2C5D1" transform="translate(137.640625,136.078125)"/>
<path d="M0 0 C3 2 5 4 7 6 C8 7 9 8 10 9 C14 14 18 19 22 25 C20 28 20 28 17 28 C16 29 15 29 14 29 C10 29 6 30 2 31 C-8 35 -15 33 -25 29 C-29 28 -33 27 -37 26 C-35 20 -31 16 -27 11 C-26 10 -26 9 -25 8 C-18 0 -10 -4 0 0 Z " fill="#F4AC2A" transform="translate(273,237.234375)"/>
<path d="M0 0 C5 -0 10 0 16 1 C24 3 33 4 42 5 C43 5 45 5 46 5 C62 7 77 6 93 4 C95 4 97 4 98 4 C106 3 114 2 122 0 C124 0 126 0 128 0 C129 1 129 1 129 6 C127 7 127 7 123 8 C115 12 115 12 112 16 C111 21 111 21 110 25 C109 25 109 24 108 24 C108 23 108 23 108 21 C108 19 108 18 108 17 C103 14 101 14 95 14 C95 14 95 14 91 14 C89 14 87 14 86 14 C84 14 82 14 81 14 C77 14 73 14 70 14 C64 14 59 14 53 14 C50 14 46 14 43 14 C42 14 42 14 38 14 C36 14 35 14 33 14 C33 14 33 14 29 14 C26 14 26 14 23 16 C23 18 23 19 23 21 C23 22 23 23 23 25 C22 25 22 25 18 26 C18 25 18 25 19 23 C19 19 19 19 16 14 C12 11 8 9 4 8 C3 7 3 7 0 6 C0 4 0 2 0 0 Z " fill="#EBECEE" transform="translate(198,592)"/>
<path d="M0 0 C2 -0 3 -0 5 -0 C6 -0 6 -0 10 -0 C11 -0 11 -0 15 -0 C18 0 18 0 22 4 C22 5 21 6 20 6 C20 8 20 9 20 10 C21 11 22 12 22 12 C18 17 18 17 12 17 C6 17 6 17 3 20 C3 22 2 24 1 25 C-3 26 -3 26 -5 25 C-6 25 -8 25 -9 25 C-14 24 -14 24 -17 22 C-17 22 -17 21 -17 20 C-17 20 -18 20 -19 20 C-20 19 -21 18 -22 17 C-23 17 -24 17 -26 17 C-31 16 -34 15 -38 12 C-38 12 -38 12 -39 7 C-34 4 -31 4 -25 3 C-24 3 -24 3 -22 2 C-15 -1 -7 -0 0 0 Z " fill="#C2C5D1" transform="translate(233.625,363.5625)"/>
<path d="M0 0 C5 6 5 6 5 10 C6 10 8 10 9 10 C9 16 9 21 7 27 C0 34 0 34 -5 34 C-6 33 -6 32 -7 31 C-8 32 -8 33 -9 34 C-10 34 -10 34 -11 34 C-12 31 -14 29 -15 26 C-15 25 -16 24 -16 23 C-20 16 -20 16 -20 11 C-19 11 -19 11 -18 11 C-18 9 -17 6 -17 4 C-17 5 -16 5 -16 6 C-15 6 -15 6 -14 6 C-14 4 -13 3 -13 1 C-9 -3 -5 -2 0 0 Z " fill="#656B7E" transform="translate(437,485)"/>
<path d="M0 0 C9 1 17 1 25 -0 C31 -0 35 1 40 5 C40 5 40 6 40 7 C35 9 30 11 24 13 C23 13 22 13 21 14 C15 15 10 15 4 15 C2 15 1 15 -0 15 C-9 14 -16 13 -24 8 C-23 7 -22 6 -21 5 C-20 4 -19 3 -18 2 C-13 -2 -7 -0 0 0 Z " fill="#BDC0CD" transform="translate(254.75,42.25)"/>
<path d="M0 0 C1 1 3 1 4 2 C6 8 5 14 1 20 C-0 24 -0 26 -1 31 C-1 36 -1 38 -3 43 C-3 46 -3 46 -4 49 C-4 50 -4 51 -4 52 C-4 54 -4 55 -4 56 C-4 58 -4 61 -4 63 C-4 64 -4 64 -5 66 C-5 69 -5 69 -7 74 C-7 80 -7 80 -6 83 C-6 87 -7 90 -8 94 C-9 94 -11 94 -12 94 C-12 95 -12 96 -12 97 C-13 107 -14 115 -17 124 C-18 124 -18 124 -21 125 C-22 119 -21 115 -19 109 C-17 101 -15 93 -14 84 C-14 83 -14 83 -13 78 C-12 72 -11 65 -10 58 C-5 22 -5 22 -3 10 C-3 9 -2 7 -2 6 C-1 2 -1 2 0 0 Z " fill="#D8D9E1" transform="translate(117,169)"/>
<path d="M0 0 C5 2 5 2 9 4 C9 5 9 5 9 6 C10 7 12 7 13 8 C11 12 10 13 6 15 C5 16 4 17 3 17 C2 18 1 18 0 19 C-1 20 -3 21 -4 22 C-12 26 -20 29 -29 30 C-30 26 -30 24 -29 20 C-26 16 -24 15 -19 12 C-18 11 -16 10 -14 9 C-10 6 -6 4 -2 2 C-1 1 -1 1 0 0 Z " fill="#989CAD" transform="translate(380,538)"/>
<path d="M0 0 C1 1 1 3 2 4 C6 8 9 9 14 11 C19 14 20 16 22 21 C18 20 18 20 15 17 C14 18 13 19 12 20 C7 24 5 25 -1 26 C-7 27 -11 29 -16 32 C-17 32 -19 31 -20 31 C-19 26 -18 23 -16 20 C-13 16 -12 14 -11 10 C-10 6 -8 5 -5 3 C-3 3 -2 2 0 2 C0 1 0 1 0 0 Z " fill="#9094A3" transform="translate(436,327)"/>
<path d="M0 0 C2 3 2 3 4 6 C4 7 5 8 6 10 C7 13 7 13 5 18 C-2 24 -9 29 -18 30 C-20 29 -21 29 -23 29 C-24 27 -24 26 -25 24 C-24 24 -24 24 -23 24 C-23 23 -23 21 -24 20 C-24 18 -24 17 -24 15 C-23 15 -22 14 -21 14 C-20 13 -20 12 -19 11 C-18 11 -18 10 -17 9 C-16 9 -14 9 -13 9 C-13 8 -12 7 -12 6 C-4 0 -4 0 0 0 Z " fill="#C1C4D0" transform="translate(313,274)"/>
<path d="M0 0 C7 2 10 4 14 10 C19 16 24 20 31 24 C28 29 28 29 26 30 C16 30 10 26 2 21 C1 20 -1 20 -2 19 C-3 15 -3 13 -1 9 C-1 6 -0 3 0 0 Z " fill="#888DA0" transform="translate(414,451)"/>
<path d="M0 0 C4 4 6 7 6 12 C6 17 6 19 2 22 C-2 24 -2 24 -8 24 C-12 21 -15 18 -18 13 C-18 8 -17 5 -13 1 C-8 -1 -6 -1 0 0 Z " fill="#ECEDEF" transform="translate(194,190)"/>
<path d="M0 0 C2 0 3 0 5 0 C10 1 12 2 14 6 C14 11 12 14 8 17 C3 20 -2 20 -8 19 C-12 16 -14 13 -16 8 C-14 4 -14 4 -13 2 C-8 -1 -5 -0 0 0 Z " fill="#EBECEE" transform="translate(190.5,225.9375)"/>
<path d="M0 0 C5 3 5 3 7 6 C9 9 9 9 13 10 C14 10 15 10 16 10 C18 13 18 13 18 16 C17 19 17 19 12 22 C10 22 9 23 7 24 C3 25 3 25 -1 28 C-3 29 -6 29 -8 30 C-10 19 -6 10 0 0 Z " fill="#BDC0CD" transform="translate(132,137)"/>
<path d="M0 0 C1 1 3 3 4 4 C4 5 4 6 4 7 C4 11 4 11 6 14 C10 17 15 17 20 18 C27 19 33 20 39 24 C38 25 38 26 37 27 C32 28 30 27 26 25 C20 22 16 23 10 24 C9 27 9 27 9 30 C8 30 7 31 6 31 C5 30 4 29 3 28 C-1 25 -3 24 -8 24 C-11 24 -11 24 -14 25 C-14 23 -13 22 -13 20 C-12 20 -10 19 -8 19 C-8 19 -8 19 -4 17 C-3 12 -3 12 -3 7 C-2 2 -2 2 0 0 Z " fill="#B9670E" transform="translate(344,585)"/>
<path d="M0 0 C2 2 2 2 2 5 C3 8 3 8 6 11 C6 12 6 14 6 15 C6 20 6 20 8 23 C11 27 10 31 10 36 C9 36 7 36 6 36 C6 35 6 35 6 34 C1 34 -2 34 -7 35 C-8 34 -10 32 -11 31 C-10 27 -9 25 -7 22 C-7 19 -6 16 -6 13 C-5 10 -4 7 -2 4 C-2 3 -2 2 -2 1 C-1 1 -1 0 0 0 Z " fill="#BDC0CD" transform="translate(395,142)"/>
<path d="M0 0 C-1 3 -1 3 -2 6 C-3 6 -3 6 -4 6 C-4 5 -4 5 -4 4 C-5 4 -5 4 -13 5 C-13 6 -13 8 -13 9 C-14 9 -14 9 -17 9 C-22 10 -23 11 -27 14 C-29 15 -31 16 -33 17 C-37 19 -39 20 -42 23 C-43 24 -45 25 -46 25 C-56 31 -63 39 -70 47 C-71 48 -72 49 -73 50 C-73 51 -74 51 -74 52 C-76 52 -77 52 -79 52 C-64 28 -31 -2 0 0 Z " fill="#D7D8E0" transform="translate(228,44)"/>
<path d="M0 0 C4 3 4 5 5 11 C5 12 5 14 5 16 C6 17 6 18 7 19 C7 21 7 22 7 24 C3 25 3 25 -0 23 C-2 23 -3 22 -4 21 C-5 21 -6 20 -7 20 C-13 17 -16 14 -20 10 C-18 5 -18 5 -13 2 C-8 1 -5 0 0 0 Z " fill="#C2C5D1" transform="translate(168,526)"/>
<path d="M0 0 C1 1 1 2 2 3 C8 10 8 10 11 13 C10 17 10 17 8 21 C9 21 9 22 10 22 C8 26 8 26 5 29 C4 29 2 28 1 28 C1 29 0 30 0 31 C-1 31 -1 31 -2 31 C-2 33 -3 34 -3 36 C-8 39 -8 39 -13 39 C-13 36 -13 33 -13 30 C-11 29 -9 27 -7 26 C-4 21 -3 15 -2 9 C-2 8 -2 8 -1 4 C-1 3 -0 1 0 0 Z " fill="#BABDC9" transform="translate(229,215)"/>
<path d="M0 0 C0 5 0 5 0 11 C-2 12 -3 12 -5 13 C-6 19 -6 24 -5 30 C-8 36 -10 38 -15 41 C-16 41 -16 41 -17 41 C-17 42 -17 42 -17 43 C-24 44 -24 44 -26 43 C-26 41 -26 39 -26 37 C-25 36 -23 36 -22 35 C-14 27 -10 15 -7 4 C-7 3 -6 2 -6 0 C-3 -1 -3 -1 0 0 Z " fill="#F49D13" transform="translate(495,79)"/>
<path d="M0 0 C1 0 2 0 3 0 C5 5 6 9 6 14 C6 15 6 15 7 18 C5 22 2 25 -2 28 C-3 29 -3 30 -4 31 C-5 31 -7 30 -8 30 C-8 28 -9 27 -9 25 C-15 23 -22 24 -28 26 C-29 26 -31 26 -32 26 C-32 25 -31 23 -31 22 C-26 19 -21 18 -15 17 C-7 16 -7 16 -4 15 C-3 12 -3 9 -3 6 C-2 3 -2 3 0 0 Z " fill="#D17C0E" transform="translate(180,585)"/>
<path d="M0 0 C2 0 3 1 5 1 C5 2 6 2 6 3 C7 3 8 4 9 4 C9 8 10 12 10 16 C10 17 10 18 10 19 C11 19 12 20 13 20 C13 22 14 25 14 27 C15 27 16 28 17 28 C17 30 17 31 17 33 C16 33 16 33 15 33 C13 30 11 27 9 24 C9 26 9 28 9 30 C8 31 7 33 6 34 C5 35 5 36 4 37 C3 37 1 36 0 36 C-2 30 -2 27 -1 21 C0 20 2 18 3 17 C4 17 4 17 5 17 C5 13 5 10 5 6 C3 6 1 6 -1 6 C-2 9 -2 9 -3 12 C-4 19 -5 24 -8 30 C-8 30 -9 30 -9 30 C-9 25 -9 25 -9 20 C-8 20 -7 19 -6 19 C-6 16 -6 16 -6 12 C-5 7 -5 7 -5 4 C-4 4 -3 3 -2 3 C-1 2 -1 1 0 0 Z " fill="#F6C66F" transform="translate(490,73)"/>
<path d="M0 0 C2 0 4 0 6 0 C7 0 9 0 10 0 C12 0 15 0 18 0 C18 2 18 4 18 6 C17 6 17 6 16 7 C15 8 15 10 14 11 C12 15 11 17 7 19 C5 19 3 19 2 19 C2 19 2 18 2 17 C0 17 -1 16 -2 15 C-6 10 -7 8 -7 2 C-5 0 -5 0 0 0 Z " fill="#F6B670" transform="translate(259.2265625,280.8046875)"/>
<path d="M0 0 C1 9 1 9 1 12 C-3 15 -6 14 -11 14 C-12 14 -12 14 -16 14 C-17 14 -19 14 -20 14 C-20 13 -21 12 -21 11 C-25 11 -25 11 -30 12 C-41 13 -41 13 -47 13 C-47 12 -48 11 -48 10 C-46 9 -45 9 -43 8 C-42 7 -42 5 -41 4 C-36 3 -36 3 -31 3 C-30 4 -28 5 -27 6 C-24 7 -24 7 -20 7 C-19 7 -17 7 -16 8 C-9 7 -6 0 0 0 Z " fill="#CACBD5" transform="translate(191,626)"/>
<path d="M0 0 C4 2 4 2 9 5 C10 5 10 5 14 7 C16 9 16 9 18 14 C23 18 26 17 32 18 C37 18 42 18 47 19 C47 20 47 20 47 21 C34 26 21 24 8 20 C4 16 4 13 3 8 C2 5 1 3 0 0 Z " fill="#BDC0CD" transform="translate(148,249)"/>
<path d="M0 0 C1 0 1 1 2 1 C1 2 1 3 -0 4 C-1 5 -1 6 -2 7 C-1 8 -1 10 0 11 C-0 15 -0 15 -1 18 C-3 19 -4 19 -6 20 C-6 23 -6 23 -4 27 C2 31 5 31 12 30 C14 30 15 31 17 31 C12 34 7 34 2 33 C-2 32 -5 30 -9 29 C-13 28 -17 27 -21 26 C-20 22 -19 20 -16 17 C-15 16 -14 15 -13 14 C-13 13 -12 12 -11 11 C-10 10 -10 9 -9 8 C-3 2 -3 2 0 0 Z " fill="#EF9313" transform="translate(257,237)"/>
<path d="M0 0 C1 0 1 0 2 0 C0 4 -2 7 -5 10 C-6 10 -7 11 -8 11 C-9 14 -9 14 -9 17 C-6 17 -4 17 -1 17 C-1 19 -0 21 0 23 C-0 23 -0 23 -3 22 C-6 22 -6 22 -11 24 C-11 25 -11 26 -11 27 C-10 28 -9 29 -8 30 C-12 30 -12 30 -16 30 C-17 29 -17 27 -18 26 C-20 26 -22 26 -24 26 C-25 25 -25 23 -26 22 C-27 22 -28 21 -29 21 C-29 19 -28 18 -28 16 C-26 16 -24 16 -22 16 C-21 15 -21 13 -20 12 C-17 12 -13 12 -10 12 C-9 11 -9 9 -8 8 C-7 8 -7 8 -6 8 C-5 7 -5 5 -4 4 C-3 4 -3 4 -2 4 C-1 3 -1 1 0 0 Z " fill="#F3C16E" transform="translate(478,105)"/>
<path d="M0 0 C4 8 1 14 -1 22 C-4 24 -4 24 -9 23 C-13 21 -13 21 -17 18 C-17 16 -17 14 -17 12 C-15 11 -14 11 -12 10 C-12 8 -11 5 -11 3 C-6 0 -6 0 0 0 Z " fill="#F6D482" transform="translate(268,245)"/>
<path d="M0 0 C4 4 3 10 4 16 C4 17 4 19 4 21 C4 25 4 29 4 33 C4 37 4 37 6 39 C5 42 5 45 4 48 C6 49 7 49 9 50 C9 56 10 59 7 64 C6 64 4 63 3 63 C2 60 2 60 2 56 C1 52 1 48 -1 44 C-1 41 -1 38 -1 34 C-1 33 -1 31 -1 29 C-1 28 -1 28 -1 23 C-1 21 -1 19 -1 17 C-1 2 -1 2 0 0 Z " fill="#989CAD" transform="translate(405,400)"/>
<path d="M0 0 C6 6 8 10 9 19 C8 23 8 23 6 25 C5 25 5 25 4 25 C3 23 2 21 1 19 C-1 14 -4 11 -9 7 C-9 6 -9 6 -9 5 C-10 5 -10 5 -14 3 C-15 2 -15 1 -16 0 C-10 -6 -7 -4 0 0 Z " fill="#F49D13" transform="translate(481,130)"/>
<path d="M0 0 C1 0 1 0 6 0 C10 0 14 0 19 0 C18 2 18 3 17 4 C14 5 14 5 11 5 C10 5 8 5 7 5 C6 5 4 5 3 5 C1 5 -0 5 -2 5 C-5 5 -8 5 -11 5 C-15 5 -20 5 -24 5 C-27 5 -30 5 -33 5 C-34 5 -34 5 -37 5 C-38 5 -40 5 -41 5 C-42 5 -43 5 -44 5 C-45 5 -46 5 -47 4 C-48 3 -48 2 -49 0 C-33 -2 -16 -0 0 0 Z " fill="#ECEDEF" transform="translate(301.125,642.5)"/>
<path d="M0 0 C1 0 2 0 3 0 C5 14 5 29 -2 41 C-4 40 -5 39 -7 38 C-9 30 -7 23 -3 16 C-3 15 -4 13 -4 12 C-3 10 -3 9 -2 7 C-2 6 -1 4 -1 3 C-1 2 -0 1 0 0 Z " fill="#989CAD" transform="translate(117,425)"/>
<path d="M0 0 C1 2 1 4 2 7 C5 19 8 32 13 43 C15 48 15 48 14 51 C8 46 8 46 7 44 C7 43 7 41 7 40 C7 39 7 39 7 36 C5 36 4 35 2 35 C1 32 1 32 1 28 C0 26 -1 25 -2 23 C-2 20 -1 18 -1 15 C-3 11 -3 11 -7 8 C-7 7 -7 5 -7 4 C-6 4 -6 4 -5 4 C-5 3 -4 2 -4 1 C-1 0 -1 0 0 0 Z " fill="#D8D9E1" transform="translate(424,272)"/>
<path d="M0 0 C3 5 3 5 2 10 C-3 12 -7 11 -12 11 C-14 10 -16 10 -18 10 C-19 10 -20 10 -22 10 C-22 9 -22 9 -22 8 C-23 7 -25 6 -26 5 C-26 4 -26 4 -26 3 C-17 0 -9 -1 0 0 Z " fill="#C2C5D1" transform="translate(264,564)"/>
<path d="M0 0 C1 0 3 1 4 1 C4 2 4 2 4 3 C5 3 5 4 6 4 C5 9 3 13 2 18 C1 22 1 24 2 28 C2 33 2 33 2 37 C2 37 2 37 0 38 C-0 40 -1 41 -1 43 C-2 43 -4 42 -5 42 C-5 38 -5 33 -5 29 C-5 28 -5 27 -5 25 C-5 16 -3 8 0 0 Z " fill="#989CAD" transform="translate(44,396)"/>
<path d="M0 0 C3 -0 3 -0 7 1 C8 6 9 10 7 14 C5 17 5 17 1 20 C-3 19 -3 19 -6 18 C-7 12 -8 9 -7 3 C-7 4 -6 4 -6 5 C-5 4 -4 4 -3 3 C-2 3 -1 3 0 3 C0 2 0 1 0 0 Z " fill="#656B7E" transform="translate(465,495)"/>
<path d="M0 0 C10 5 16 17 22 26 C23 27 23 28 24 29 C27 33 27 36 26 40 C25 40 25 40 22 41 C22 42 22 43 22 44 C21 44 20 44 19 44 C19 43 20 41 20 40 C21 33 19 30 15 24 C14 23 13 22 13 22 C10 19 8 16 6 13 C5 12 5 11 4 10 C2 7 1 5 -1 2 C-1 1 -0 1 0 0 Z " fill="#D8D9E1" transform="translate(287,229)"/>
<path d="M0 0 C5 2 8 4 11 8 C11 9 11 9 11 10 C10 10 8 10 7 10 C2 11 2 11 -1 12 C-1 11 -2 10 -2 9 C-3 9 -4 9 -5 9 C-5 10 -6 11 -6 12 C-6 11 -6 10 -6 9 C-7 9 -8 10 -9 10 C-12 12 -12 12 -14 12 C-15 10 -15 9 -16 7 C-11 0 -8 -0 0 0 Z " fill="#F5C34F" transform="translate(270,236)"/>
</svg>
