<?xml version="1.0" encoding="UTF-8"?>
<!-- Generator: visioncortex VTracer 0.6.12 -->
<svg version="1.1" xmlns="http://www.w3.org/2000/svg" width="652" height="596">
<path d="M0 0 C4 -0 8 -1 12 -1 C14 -1 15 -1 16 -1 C19 -1 21 -1 24 -1 C28 -1 32 -1 36 -1 C39 -1 41 -1 44 -1 C45 -1 46 -1 47 -1 C51 -1 51 -1 56 0 C57 1 57 3 58 4 C61 4 61 4 65 4 C69 4 69 4 72 4 C73 5 73 7 74 8 C76 8 77 8 79 8 C81 8 82 8 84 8 C85 9 85 11 86 12 C88 12 90 12 92 12 C93 13 93 15 94 16 C96 16 98 16 100 16 C101 17 101 19 102 20 C103 20 103 20 106 22 C106 23 106 23 106 24 C107 24 107 24 110 26 C110 27 110 27 110 28 C112 28 114 28 116 28 C117 29 117 31 118 32 C119 33 121 33 122 34 C122 35 122 35 122 36 C123 37 125 37 126 38 C126 39 126 39 126 40 C127 40 128 40 129 40 C129 41 129 42 129 43 C130 47 130 47 134 50 C134 51 134 51 134 52 C135 53 137 53 138 54 C138 55 138 55 138 56 C139 56 140 56 141 56 C141 57 141 58 141 59 C142 61 142 62 142 63 C143 63 144 64 145 64 C145 66 146 69 146 71 C147 71 148 72 149 72 C149 74 150 77 150 79 C151 79 152 80 153 80 C153 84 154 87 154 91 C155 91 156 92 157 92 C157 96 158 99 158 103 C159 103 160 104 161 104 C161 108 162 112 162 116 C162 117 162 118 162 119 C163 119 164 120 165 120 C165 125 165 130 166 135 C166 138 166 140 166 143 C167 143 168 144 169 144 C169 147 169 147 169 151 C169 152 169 154 169 155 C169 158 170 161 170 164 C170 165 170 167 170 168 C170 169 170 171 170 172 C170 173 170 174 170 175 C171 175 172 176 173 176 C173 180 174 184 174 188 C174 189 174 190 174 191 C175 191 176 192 177 192 C178 196 178 196 178 199 C185 199 191 200 198 200 C199 200 199 200 204 200 C205 200 207 200 209 200 C210 200 210 200 214 200 C215 200 217 200 218 200 C219 199 219 197 220 196 C224 195 224 195 229 195 C230 195 232 195 234 195 C236 195 238 195 240 195 C242 195 244 195 246 195 C251 195 255 195 259 195 C265 196 270 195 276 195 C280 195 284 195 289 195 C291 195 293 195 295 195 C298 195 301 195 303 195 C305 195 307 195 308 195 C310 196 311 196 312 196 C313 197 313 199 314 200 C315 201 317 201 318 202 C318 203 318 203 318 204 C319 204 320 204 321 204 C321 208 321 211 321 215 C321 215 321 215 321 218 C321 221 321 223 321 226 C320 226 319 227 318 227 C318 230 318 230 318 234 C317 239 317 239 317 242 C316 242 315 243 314 243 C314 246 314 246 314 250 C314 251 314 253 314 254 C314 256 314 257 314 258 C313 261 313 264 313 267 C313 268 313 268 313 271 C313 272 313 272 313 274 C312 274 311 275 310 275 C309 279 309 279 310 283 C313 284 313 284 317 285 C317 286 318 287 318 288 C320 288 322 288 324 288 C325 289 325 291 326 292 C327 293 329 293 330 294 C330 295 330 295 330 296 C331 296 332 296 333 296 C333 297 333 297 333 299 C334 301 334 302 334 303 C335 303 336 304 337 304 C337 308 337 311 337 315 C337 316 337 317 337 318 C337 321 337 323 337 325 C337 329 337 333 337 336 C337 338 337 341 337 343 C337 344 337 345 337 346 C337 349 337 351 337 354 C336 354 335 355 334 355 C334 356 334 357 334 358 C333 360 333 361 333 362 C332 362 331 363 330 363 C330 366 330 366 330 370 C329 375 329 375 329 378 C328 378 327 379 326 379 C325 383 325 383 325 386 C324 386 323 386 322 386 C321 387 321 389 320 390 C318 390 316 390 314 390 C313 391 313 393 312 394 C312 394 312 394 310 395 C310 398 310 398 310 401 C310 402 310 403 310 404 C310 405 310 406 310 407 C311 407 312 408 313 408 C313 412 313 416 313 421 C313 422 313 423 313 425 C313 429 313 433 313 437 C313 440 313 443 313 445 C313 452 313 459 313 466 C312 466 311 466 310 466 C309 467 309 469 308 470 C307 470 307 470 306 470 C305 471 305 473 304 474 C302 474 300 474 298 474 C297 475 297 477 296 478 C292 478 288 478 284 478 C282 478 281 478 280 478 C277 478 274 478 271 478 C267 478 262 478 258 478 C246 478 235 478 224 478 C215 478 205 478 196 478 C191 478 187 478 183 478 C180 478 177 478 174 478 C174 478 174 478 171 478 C167 478 167 478 162 478 C161 479 161 481 160 482 C157 482 157 482 153 482 C152 482 151 482 149 482 C148 482 146 482 145 482 C143 482 141 482 140 482 C133 482 127 482 120 482 C115 482 110 482 105 482 C104 482 102 482 101 482 C99 482 98 482 97 482 C96 482 96 482 93 482 C92 482 91 482 90 482 C89 483 89 485 88 486 C87 486 87 486 86 486 C85 487 85 489 84 490 C81 491 81 491 78 491 C78 494 78 496 78 499 C79 499 81 499 82 499 C84 499 85 499 87 499 C89 499 90 499 92 499 C93 500 95 500 96 500 C97 501 97 503 98 504 C100 504 102 504 104 504 C105 505 105 507 106 508 C109 508 109 508 114 508 C114 508 114 508 118 508 C119 508 119 508 123 508 C126 508 129 508 132 508 C134 508 135 508 137 508 C137 508 137 508 140 508 C141 509 141 511 142 512 C145 512 145 512 149 512 C150 512 151 512 153 512 C154 512 156 512 157 512 C160 512 163 512 165 512 C167 512 168 512 169 512 C170 512 171 512 172 512 C173 513 173 515 174 516 C176 516 177 516 179 516 C181 516 182 516 184 516 C185 517 185 519 186 520 C187 520 188 521 189 521 C189 523 188 524 188 526 C187 526 187 526 186 526 C185 527 185 529 184 530 C180 530 177 530 173 530 C173 530 173 530 170 530 C169 531 169 533 168 534 C163 534 159 534 154 534 C151 534 149 534 146 534 C145 535 145 537 144 538 C140 538 140 538 135 538 C133 538 131 538 129 538 C125 538 121 538 117 538 C115 538 113 538 111 538 C110 538 110 538 106 538 C105 538 103 538 102 538 C101 539 101 541 100 542 C96 542 92 542 88 542 C87 542 86 542 84 542 C79 542 74 542 69 542 C65 542 62 542 58 542 C57 542 56 542 54 542 C51 542 51 542 46 542 C45 543 45 545 44 546 C40 547 40 547 36 547 C34 547 32 547 30 547 C28 547 27 547 25 547 C23 547 21 547 19 547 C15 547 10 547 6 547 C1 546 -4 547 -10 547 C-15 547 -20 547 -25 547 C-27 547 -28 547 -30 547 C-32 547 -34 547 -36 547 C-37 547 -39 547 -40 547 C-42 546 -43 546 -44 546 C-45 545 -45 543 -46 542 C-49 542 -49 542 -53 542 C-54 542 -55 542 -57 542 C-58 542 -58 542 -61 542 C-62 542 -62 542 -66 542 C-71 542 -76 542 -81 542 C-88 542 -94 542 -101 542 C-101 542 -101 542 -105 542 C-107 542 -108 542 -109 542 C-111 542 -112 542 -113 542 C-114 542 -115 542 -116 542 C-117 541 -117 539 -118 538 C-122 538 -127 538 -131 538 C-135 538 -140 538 -144 538 C-145 537 -145 535 -146 534 C-150 534 -155 534 -159 534 C-163 534 -168 534 -172 534 C-173 533 -173 531 -174 530 C-177 530 -177 530 -181 530 C-185 530 -185 530 -188 530 C-189 529 -189 527 -190 526 C-191 526 -192 525 -193 525 C-193 524 -193 524 -192 520 C-191 520 -191 520 -190 520 C-189 519 -189 517 -188 516 C-185 516 -181 516 -178 516 C-177 515 -177 513 -176 512 C-172 512 -169 512 -165 512 C-164 512 -163 512 -162 512 C-157 512 -152 512 -147 512 C-144 512 -141 512 -137 512 C-136 512 -135 512 -134 512 C-131 512 -131 512 -126 512 C-125 511 -125 509 -124 508 C-119 508 -115 508 -110 508 C-109 508 -107 508 -106 508 C-105 507 -105 505 -104 504 C-102 504 -100 504 -98 504 C-97 503 -97 501 -96 500 C-93 499 -93 499 -90 499 C-90 498 -90 496 -90 495 C-91 495 -92 495 -93 495 C-94 495 -96 495 -97 495 C-98 495 -99 495 -101 495 C-102 494 -103 494 -104 494 C-105 493 -105 491 -106 490 C-108 490 -110 490 -112 490 C-113 489 -113 487 -114 486 C-116 486 -117 486 -119 486 C-121 486 -122 486 -124 486 C-125 485 -125 483 -126 482 C-128 482 -130 482 -132 482 C-133 481 -133 479 -134 478 C-138 477 -138 477 -142 478 C-143 477 -145 477 -146 477 C-148 478 -149 478 -150 478 C-151 479 -151 481 -152 482 C-155 482 -159 482 -162 482 C-163 483 -163 485 -164 486 C-168 486 -171 486 -175 486 C-176 486 -177 486 -178 486 C-179 487 -179 489 -180 490 C-183 491 -183 491 -186 490 C-187 491 -187 491 -189 491 C-190 490 -191 490 -192 490 C-193 489 -193 487 -194 486 C-200 486 -200 486 -205 486 C-205 485 -205 484 -205 483 C-205 481 -206 480 -206 479 C-210 478 -214 477 -218 478 C-219 479 -219 481 -220 482 C-224 482 -228 483 -232 482 C-233 483 -234 483 -235 483 C-239 483 -239 483 -244 482 C-245 481 -245 479 -246 478 C-248 478 -249 478 -251 478 C-253 478 -254 478 -256 478 C-257 477 -257 475 -258 474 C-259 474 -260 474 -261 474 C-261 473 -261 472 -261 471 C-261 469 -261 468 -261 467 C-262 467 -264 466 -265 466 C-265 465 -265 465 -265 464 C-264 464 -262 463 -261 463 C-261 459 -261 459 -261 456 C-260 456 -259 456 -258 456 C-258 455 -258 455 -256 452 C-255 452 -255 451 -254 451 C-254 448 -254 446 -253 443 C-253 443 -253 443 -253 439 C-253 438 -253 437 -253 436 C-252 436 -251 436 -250 436 C-250 435 -250 435 -248 432 C-247 432 -247 432 -246 432 C-246 431 -246 431 -244 428 C-242 428 -240 428 -238 428 C-238 427 -238 427 -236 424 C-235 424 -235 424 -234 424 C-234 423 -234 423 -232 420 C-230 420 -228 420 -226 420 C-225 419 -225 417 -224 416 C-223 416 -223 416 -222 416 C-221 415 -221 413 -220 412 C-218 412 -216 412 -214 412 C-213 411 -213 409 -212 408 C-211 408 -211 407 -210 407 C-210 406 -209 405 -209 404 C-205 403 -205 403 -202 403 C-202 402 -202 400 -202 399 C-203 398 -204 398 -205 397 C-205 395 -205 394 -206 392 C-206 390 -206 389 -206 387 C-207 387 -208 386 -209 386 C-209 383 -209 383 -209 378 C-209 378 -209 378 -209 374 C-209 372 -209 371 -209 369 C-209 367 -209 366 -209 364 C-209 363 -209 361 -209 360 C-209 358 -209 357 -209 355 C-209 354 -209 353 -209 352 C-208 352 -207 351 -206 351 C-206 348 -206 348 -206 344 C-205 339 -205 339 -205 336 C-204 336 -203 335 -202 335 C-202 333 -202 331 -202 330 C-201 328 -201 326 -201 324 C-200 324 -199 323 -198 323 C-198 321 -198 319 -198 318 C-197 316 -197 314 -197 312 C-196 312 -195 311 -194 311 C-194 310 -194 309 -194 308 C-193 306 -193 305 -193 304 C-192 304 -191 303 -190 303 C-190 302 -190 301 -190 300 C-189 298 -189 297 -189 296 C-188 296 -187 295 -186 295 C-185 291 -185 291 -185 288 C-184 288 -183 288 -182 288 C-181 287 -181 285 -180 284 C-179 284 -179 283 -178 283 C-178 281 -177 278 -177 276 C-176 276 -175 276 -174 276 C-173 275 -173 273 -172 272 C-171 272 -171 271 -170 271 C-170 269 -169 266 -169 264 C-168 264 -167 264 -166 264 C-165 263 -165 261 -164 260 C-163 260 -163 260 -162 260 C-161 259 -161 257 -160 256 C-159 256 -159 256 -158 256 C-157 255 -157 253 -156 252 C-155 252 -155 252 -154 252 C-153 251 -153 249 -152 248 C-151 248 -151 247 -150 247 C-150 246 -150 245 -150 244 C-149 243 -149 243 -149 240 C-148 240 -147 239 -146 239 C-145 235 -145 235 -145 232 C-144 232 -143 232 -142 232 C-141 231 -141 229 -140 228 C-139 228 -139 227 -138 227 C-138 225 -138 223 -138 222 C-137 221 -137 221 -137 216 C-136 216 -135 215 -134 215 C-134 214 -134 213 -134 212 C-133 210 -133 209 -133 208 C-132 208 -131 207 -130 207 C-130 205 -130 203 -130 202 C-129 200 -129 198 -129 196 C-128 196 -127 195 -126 195 C-126 192 -126 192 -126 188 C-125 183 -125 183 -125 180 C-124 180 -123 179 -122 179 C-122 175 -122 175 -122 170 C-121 164 -121 164 -121 160 C-120 160 -119 159 -118 159 C-118 155 -118 155 -118 150 C-117 144 -117 144 -117 140 C-116 140 -115 139 -114 139 C-114 135 -114 135 -114 130 C-113 124 -113 124 -113 120 C-112 120 -111 119 -110 119 C-110 117 -110 115 -110 114 C-109 112 -109 110 -109 108 C-108 108 -107 107 -106 107 C-106 105 -106 103 -106 102 C-105 100 -105 98 -105 96 C-104 96 -103 95 -102 95 C-102 93 -102 91 -102 90 C-101 88 -101 86 -101 84 C-100 84 -99 83 -98 83 C-97 79 -97 79 -97 76 C-96 76 -95 76 -94 76 C-94 75 -94 75 -92 72 C-91 72 -91 71 -90 71 C-90 70 -90 69 -90 68 C-89 66 -89 65 -89 64 C-88 64 -87 63 -86 63 C-85 59 -85 59 -85 56 C-84 56 -83 56 -82 56 C-81 55 -81 53 -80 52 C-79 52 -79 52 -78 52 C-77 51 -77 49 -76 48 C-75 48 -75 47 -74 47 C-74 45 -73 42 -73 40 C-72 40 -71 40 -70 40 C-69 39 -69 37 -68 36 C-66 36 -64 36 -62 36 C-61 35 -61 33 -60 32 C-59 32 -59 32 -58 32 C-57 31 -57 29 -56 28 C-55 28 -55 28 -54 28 C-53 27 -53 25 -52 24 C-51 24 -51 24 -50 24 C-49 23 -49 21 -48 20 C-46 20 -44 20 -42 20 C-41 19 -41 17 -40 16 C-38 16 -36 16 -34 16 C-33 15 -33 13 -32 12 C-30 12 -28 12 -26 12 C-25 11 -25 9 -24 8 C-21 8 -17 8 -14 8 C-13 7 -13 5 -12 4 C-9 4 -5 4 -2 4 C-1 3 -1 1 0 0 Z " fill="#C8CBD4" transform="translate(290,25)"/>
<path d="M0 0 C4 -0 8 -1 12 -1 C14 -1 15 -1 16 -1 C19 -1 21 -1 24 -1 C28 -1 32 -1 36 -1 C39 -1 41 -1 44 -1 C45 -1 46 -1 47 -1 C51 -1 51 -1 56 0 C57 1 57 3 58 4 C61 4 61 4 65 4 C69 4 69 4 72 4 C73 5 73 7 74 8 C76 8 77 8 79 8 C81 8 82 8 84 8 C85 9 85 11 86 12 C88 12 90 12 92 12 C93 13 93 15 94 16 C96 16 98 16 100 16 C101 17 101 19 102 20 C103 20 103 20 106 22 C106 23 106 23 106 24 C107 24 107 24 110 26 C110 27 110 27 110 28 C112 28 114 28 116 28 C117 29 117 31 118 32 C119 33 121 33 122 34 C122 35 122 35 122 36 C123 37 125 37 126 38 C126 39 126 39 126 40 C127 40 128 40 129 40 C129 41 129 42 129 43 C130 47 130 47 134 50 C134 51 134 51 134 52 C135 53 137 53 138 54 C138 55 138 55 138 56 C139 56 140 56 141 56 C141 57 141 58 141 59 C142 61 142 62 142 63 C143 63 144 64 145 64 C145 66 146 69 146 71 C147 71 148 72 149 72 C149 74 150 77 150 79 C151 79 152 80 153 80 C153 84 154 87 154 91 C155 91 156 92 157 92 C157 96 158 99 158 103 C159 103 160 104 161 104 C161 108 162 112 162 116 C162 117 162 118 162 119 C163 119 164 120 165 120 C165 125 165 130 166 135 C166 138 166 140 166 143 C167 143 168 144 169 144 C169 147 169 147 169 151 C169 152 169 154 169 155 C169 158 170 161 170 164 C170 165 170 167 170 168 C170 169 170 171 170 172 C170 173 170 174 170 175 C171 175 172 176 173 176 C173 180 174 184 174 188 C174 189 174 190 174 191 C175 191 176 192 177 192 C178 196 178 196 178 199 C185 199 191 200 198 200 C199 200 199 200 204 200 C205 200 207 200 209 200 C210 200 210 200 214 200 C215 200 217 200 218 200 C219 199 219 197 220 196 C224 195 224 195 229 195 C230 195 232 195 234 195 C236 195 238 195 240 195 C242 195 244 195 246 195 C251 195 255 195 259 195 C265 196 270 195 276 195 C280 195 284 195 289 195 C291 195 293 195 295 195 C298 195 301 195 303 195 C305 195 307 195 308 195 C310 196 311 196 312 196 C313 197 313 199 314 200 C315 201 317 201 318 202 C318 203 318 203 318 204 C319 204 320 204 321 204 C321 208 321 211 321 215 C321 215 321 215 321 218 C321 221 321 223 321 226 C320 226 319 227 318 227 C318 230 318 230 318 234 C317 239 317 239 317 242 C316 242 315 243 314 243 C314 246 314 246 314 250 C314 251 314 253 314 254 C314 256 314 257 314 258 C313 261 313 264 313 267 C313 268 313 268 313 271 C313 272 313 272 313 274 C312 274 311 275 310 275 C309 279 309 279 310 283 C313 284 313 284 317 285 C317 286 318 287 318 288 C320 288 322 288 324 288 C325 289 325 291 326 292 C327 293 329 293 330 294 C330 295 330 295 330 296 C331 296 332 296 333 296 C333 297 333 297 333 299 C334 301 334 302 334 303 C335 303 336 304 337 304 C337 308 337 311 337 315 C337 316 337 317 337 318 C337 321 337 323 337 325 C337 329 337 333 337 336 C337 338 337 341 337 343 C337 344 337 345 337 346 C337 349 337 351 337 354 C336 354 335 355 334 355 C334 356 334 357 334 358 C333 360 333 361 333 362 C332 362 331 363 330 363 C330 366 330 366 330 370 C329 375 329 375 329 378 C328 378 327 379 326 379 C325 383 325 383 325 386 C324 386 323 386 322 386 C321 387 321 389 320 390 C318 390 316 390 314 390 C313 391 313 393 312 394 C312 394 312 394 310 395 C310 398 310 398 310 401 C310 402 310 403 310 404 C310 405 310 406 310 407 C311 407 312 408 313 408 C313 412 313 416 313 421 C313 422 313 423 313 425 C313 429 313 433 313 437 C313 440 313 443 313 445 C313 452 313 459 313 466 C312 466 311 466 310 466 C309 467 309 469 308 470 C307 470 307 470 306 470 C305 471 305 473 304 474 C302 474 300 474 298 474 C297 475 297 477 296 478 C292 478 288 478 284 478 C282 478 281 478 280 478 C277 478 274 478 271 478 C267 478 262 478 258 478 C246 478 235 478 224 478 C215 478 205 478 196 478 C191 478 187 478 183 478 C180 478 177 478 174 478 C174 478 174 478 171 478 C167 478 167 478 162 478 C161 479 161 481 160 482 C157 482 157 482 153 482 C152 482 151 482 149 482 C148 482 146 482 145 482 C143 482 141 482 140 482 C133 482 127 482 120 482 C115 482 110 482 105 482 C104 482 102 482 101 482 C99 482 98 482 97 482 C96 482 96 482 93 482 C92 482 91 482 90 482 C89 483 89 485 88 486 C87 486 87 486 86 486 C85 487 85 489 84 490 C81 491 81 491 78 491 C78 494 78 496 78 499 C79 499 81 499 82 499 C84 499 85 499 87 499 C89 499 90 499 92 499 C93 500 95 500 96 500 C97 501 97 503 98 504 C100 504 102 504 104 504 C105 505 105 507 106 508 C109 508 109 508 114 508 C114 508 114 508 118 508 C119 508 119 508 123 508 C126 508 129 508 132 508 C134 508 135 508 137 508 C137 508 137 508 140 508 C141 509 141 511 142 512 C145 512 145 512 149 512 C150 512 151 512 153 512 C154 512 156 512 157 512 C160 512 163 512 165 512 C167 512 168 512 169 512 C170 512 171 512 172 512 C173 513 173 515 174 516 C176 516 177 516 179 516 C181 516 182 516 184 516 C185 517 185 519 186 520 C187 520 188 521 189 521 C189 523 188 524 188 526 C187 526 187 526 186 526 C185 527 185 529 184 530 C180 530 177 530 173 530 C173 530 173 530 170 530 C169 531 169 533 168 534 C163 534 159 534 154 534 C151 534 149 534 146 534 C145 535 145 537 144 538 C140 538 140 538 135 538 C133 538 131 538 129 538 C125 538 121 538 117 538 C115 538 113 538 111 538 C110 538 110 538 106 538 C105 538 103 538 102 538 C101 539 101 541 100 542 C96 542 92 542 88 542 C87 542 86 542 84 542 C79 542 74 542 69 542 C65 542 62 542 58 542 C57 542 56 542 54 542 C51 542 51 542 46 542 C45 543 45 545 44 546 C40 547 40 547 36 547 C34 547 32 547 30 547 C28 547 27 547 25 547 C23 547 21 547 19 547 C15 547 10 547 6 547 C1 546 -4 547 -10 547 C-15 547 -20 547 -25 547 C-27 547 -28 547 -30 547 C-32 547 -34 547 -36 547 C-37 547 -39 547 -40 547 C-42 546 -43 546 -44 546 C-45 545 -45 543 -46 542 C-49 542 -49 542 -53 542 C-54 542 -55 542 -57 542 C-58 542 -58 542 -61 542 C-62 542 -62 542 -66 542 C-71 542 -76 542 -81 542 C-88 542 -94 542 -101 542 C-101 542 -101 542 -105 542 C-107 542 -108 542 -109 542 C-111 542 -112 542 -113 542 C-114 542 -115 542 -116 542 C-117 541 -117 539 -118 538 C-122 538 -127 538 -131 538 C-135 538 -140 538 -144 538 C-145 537 -145 535 -146 534 C-150 534 -155 534 -159 534 C-163 534 -168 534 -172 534 C-173 533 -173 531 -174 530 C-177 530 -177 530 -181 530 C-185 530 -185 530 -188 530 C-189 529 -189 527 -190 526 C-191 526 -192 525 -193 525 C-193 524 -193 524 -192 520 C-191 520 -191 520 -190 520 C-189 519 -189 517 -188 516 C-185 516 -181 516 -178 516 C-177 515 -177 513 -176 512 C-172 512 -169 512 -165 512 C-164 512 -163 512 -162 512 C-157 512 -152 512 -147 512 C-144 512 -141 512 -137 512 C-136 512 -135 512 -134 512 C-131 512 -131 512 -126 512 C-125 511 -125 509 -124 508 C-119 508 -115 508 -110 508 C-109 508 -107 508 -106 508 C-105 507 -105 505 -104 504 C-102 504 -100 504 -98 504 C-97 503 -97 501 -96 500 C-93 499 -93 499 -90 499 C-90 498 -90 496 -90 495 C-91 495 -92 495 -93 495 C-94 495 -96 495 -97 495 C-98 495 -99 495 -101 495 C-102 494 -103 494 -104 494 C-105 493 -105 491 -106 490 C-108 490 -110 490 -112 490 C-113 489 -113 487 -114 486 C-116 486 -117 486 -119 486 C-121 486 -122 486 -124 486 C-125 485 -125 483 -126 482 C-128 482 -130 482 -132 482 C-133 481 -133 479 -134 478 C-138 477 -138 477 -142 478 C-143 477 -145 477 -146 477 C-148 478 -149 478 -150 478 C-151 479 -151 481 -152 482 C-155 482 -159 482 -162 482 C-163 483 -163 485 -164 486 C-168 486 -171 486 -175 486 C-176 486 -177 486 -178 486 C-179 487 -179 489 -180 490 C-183 491 -183 491 -186 490 C-187 491 -187 491 -189 491 C-190 490 -191 490 -192 490 C-193 489 -193 487 -194 486 C-200 486 -200 486 -205 486 C-205 485 -205 484 -205 483 C-205 481 -206 480 -206 479 C-210 478 -214 477 -218 478 C-219 479 -219 481 -220 482 C-224 482 -228 483 -232 482 C-233 483 -234 483 -235 483 C-239 483 -239 483 -244 482 C-245 481 -245 479 -246 478 C-248 478 -249 478 -251 478 C-253 478 -254 478 -256 478 C-257 477 -257 475 -258 474 C-259 474 -260 474 -261 474 C-261 473 -261 472 -261 471 C-261 469 -261 468 -261 467 C-262 467 -264 466 -265 466 C-265 465 -265 465 -265 464 C-264 464 -262 463 -261 463 C-261 459 -261 459 -261 456 C-260 456 -259 456 -258 456 C-258 455 -258 455 -256 452 C-255 452 -255 451 -254 451 C-254 448 -254 446 -253 443 C-253 443 -253 443 -253 439 C-253 438 -253 437 -253 436 C-252 436 -251 436 -250 436 C-250 435 -250 435 -248 432 C-247 432 -247 432 -246 432 C-246 431 -246 431 -244 428 C-242 428 -240 428 -238 428 C-238 427 -238 427 -236 424 C-235 424 -235 424 -234 424 C-234 423 -234 423 -232 420 C-230 420 -228 420 -226 420 C-225 419 -225 417 -224 416 C-223 416 -223 416 -222 416 C-221 415 -221 413 -220 412 C-218 412 -216 412 -214 412 C-213 411 -213 409 -212 408 C-211 408 -211 407 -210 407 C-210 406 -209 405 -209 404 C-205 403 -205 403 -202 403 C-202 402 -202 400 -202 399 C-203 398 -204 398 -205 397 C-205 395 -205 394 -206 392 C-206 390 -206 389 -206 387 C-207 387 -208 386 -209 386 C-209 383 -209 383 -209 378 C-209 378 -209 378 -209 374 C-209 372 -209 371 -209 369 C-209 367 -209 366 -209 364 C-209 363 -209 361 -209 360 C-209 358 -209 357 -209 355 C-209 354 -209 353 -209 352 C-208 352 -207 351 -206 351 C-206 348 -206 348 -206 344 C-205 339 -205 339 -205 336 C-204 336 -203 335 -202 335 C-202 333 -202 331 -202 330 C-201 328 -201 326 -201 324 C-200 324 -199 323 -198 323 C-198 321 -198 319 -198 318 C-197 316 -197 314 -197 312 C-196 312 -195 311 -194 311 C-194 310 -194 309 -194 308 C-193 306 -193 305 -193 304 C-192 304 -191 303 -190 303 C-190 302 -190 301 -190 300 C-189 298 -189 297 -189 296 C-188 296 -187 295 -186 295 C-185 291 -185 291 -185 288 C-184 288 -183 288 -182 288 C-181 287 -181 285 -180 284 C-179 284 -179 283 -178 283 C-178 281 -177 278 -177 276 C-176 276 -175 276 -174 276 C-173 275 -173 273 -172 272 C-171 272 -171 271 -170 271 C-170 269 -169 266 -169 264 C-168 264 -167 264 -166 264 C-165 263 -165 261 -164 260 C-163 260 -163 260 -162 260 C-161 259 -161 257 -160 256 C-159 256 -159 256 -158 256 C-157 255 -157 253 -156 252 C-155 252 -155 252 -154 252 C-153 251 -153 249 -152 248 C-151 248 -151 247 -150 247 C-150 246 -150 245 -150 244 C-149 243 -149 243 -149 240 C-148 240 -147 239 -146 239 C-145 235 -145 235 -145 232 C-144 232 -143 232 -142 232 C-141 231 -141 229 -140 228 C-139 228 -139 227 -138 227 C-138 225 -138 223 -138 222 C-137 221 -137 221 -137 216 C-136 216 -135 215 -134 215 C-134 214 -134 213 -134 212 C-133 210 -133 209 -133 208 C-132 208 -131 207 -130 207 C-130 205 -130 203 -130 202 C-129 200 -129 198 -129 196 C-128 196 -127 195 -126 195 C-126 192 -126 192 -126 188 C-125 183 -125 183 -125 180 C-124 180 -123 179 -122 179 C-122 175 -122 175 -122 170 C-121 164 -121 164 -121 160 C-120 160 -119 159 -118 159 C-118 155 -118 155 -118 150 C-117 144 -117 144 -117 140 C-116 140 -115 139 -114 139 C-114 135 -114 135 -114 130 C-113 124 -113 124 -113 120 C-112 120 -111 119 -110 119 C-110 117 -110 115 -110 114 C-109 112 -109 110 -109 108 C-108 108 -107 107 -106 107 C-106 105 -106 103 -106 102 C-105 100 -105 98 -105 96 C-104 96 -103 95 -102 95 C-102 93 -102 91 -102 90 C-101 88 -101 86 -101 84 C-100 84 -99 83 -98 83 C-97 79 -97 79 -97 76 C-96 76 -95 76 -94 76 C-94 75 -94 75 -92 72 C-91 72 -91 71 -90 71 C-90 70 -90 69 -90 68 C-89 66 -89 65 -89 64 C-88 64 -87 63 -86 63 C-85 59 -85 59 -85 56 C-84 56 -83 56 -82 56 C-81 55 -81 53 -80 52 C-79 52 -79 52 -78 52 C-77 51 -77 49 -76 48 C-75 48 -75 47 -74 47 C-74 45 -73 42 -73 40 C-72 40 -71 40 -70 40 C-69 39 -69 37 -68 36 C-66 36 -64 36 -62 36 C-61 35 -61 33 -60 32 C-59 32 -59 32 -58 32 C-57 31 -57 29 -56 28 C-55 28 -55 28 -54 28 C-53 27 -53 25 -52 24 C-51 24 -51 24 -50 24 C-49 23 -49 21 -48 20 C-46 20 -44 20 -42 20 C-41 19 -41 17 -40 16 C-38 16 -36 16 -34 16 C-33 15 -33 13 -32 12 C-30 12 -28 12 -26 12 C-25 11 -25 9 -24 8 C-21 8 -17 8 -14 8 C-13 7 -13 5 -12 4 C-9 4 -5 4 -2 4 C-1 3 -1 1 0 0 Z M-30 26 C-31 26 -32 27 -33 27 C-33 28 -33 28 -33 29 C-34 29 -34 29 -38 31 C-40 32 -41 33 -43 34 C-44 35 -45 36 -46 36 C-48 38 -48 38 -51 41 C-51 42 -51 42 -51 43 C-52 44 -54 44 -55 45 C-66 55 -74 66 -81 79 C-81 80 -81 80 -83 82 C-86 89 -89 96 -91 103 C-91 104 -91 104 -93 107 C-97 116 -99 125 -101 135 C-101 136 -102 136 -102 137 C-102 139 -102 140 -102 142 C-103 147 -103 147 -105 151 C-106 156 -106 161 -107 167 C-108 172 -109 176 -111 181 C-111 183 -111 184 -111 186 C-112 187 -112 189 -113 190 C-113 192 -114 194 -114 196 C-115 201 -116 206 -119 211 C-120 213 -120 214 -121 216 C-124 224 -128 232 -133 239 C-133 241 -133 243 -133 245 C-135 248 -135 248 -137 250 C-138 251 -139 252 -140 253 C-142 255 -142 255 -145 257 C-146 258 -146 258 -147 259 C-147 260 -147 260 -147 261 C-148 261 -149 262 -150 262 C-152 265 -155 268 -157 271 C-157 272 -158 273 -159 274 C-168 286 -175 299 -181 313 C-182 315 -182 316 -183 318 C-184 319 -184 321 -185 322 C-186 323 -186 324 -187 326 C-188 329 -188 329 -188 332 C-189 336 -189 336 -191 340 C-193 345 -193 347 -193 352 C-193 353 -194 355 -194 356 C-197 372 -196 392 -187 406 C-187 407 -186 409 -186 410 C-185 410 -185 410 -184 410 C-184 412 -183 413 -183 415 C-183 415 -183 415 -180 418 C-179 418 -179 418 -178 418 C-178 420 -177 421 -177 423 C-175 424 -174 424 -172 425 C-170 428 -170 428 -168 432 C-159 452 -133 468 -113 476 C-110 476 -108 477 -105 478 C-102 479 -102 479 -99 481 C-92 484 -83 484 -75 482 C-75 481 -75 481 -75 480 C-74 480 -74 480 -73 480 C-73 481 -73 481 -73 482 C-58 492 -43 491 -26 492 C-24 492 -23 492 -21 492 C18 493 18 493 34 489 C37 488 40 488 44 487 C49 486 50 486 54 482 C55 482 56 481 57 481 C57 480 58 480 58 479 C62 479 65 480 68 480 C72 480 72 480 77 478 C78 478 79 477 81 477 C84 475 84 475 85 470 C85 469 86 467 86 465 C87 464 87 462 88 461 C90 457 90 454 90 449 C90 445 90 441 91 437 C91 426 91 416 91 405 C90 404 90 404 90 399 C90 395 90 391 90 387 C90 382 90 376 89 371 C89 366 89 361 89 356 C89 354 89 352 89 351 C88 342 88 333 86 324 C86 322 86 320 86 318 C86 316 86 315 86 314 C86 313 86 312 86 311 C86 310 86 309 86 308 C86 303 86 299 88 294 C88 291 88 289 88 286 C89 278 90 270 91 262 C91 257 91 253 91 248 C91 241 92 235 94 228 C94 227 94 225 94 224 C96 217 100 212 105 206 C110 203 113 202 119 201 C122 201 122 201 124 200 C126 200 129 200 131 200 C132 200 132 200 136 200 C139 200 142 200 145 200 C147 200 148 200 150 199 C151 199 152 199 154 199 C157 199 157 199 160 196 C160 193 160 193 160 190 C160 189 160 188 160 186 C159 183 159 183 158 180 C157 176 157 173 156 169 C156 167 156 166 156 165 C156 164 156 164 156 160 C153 132 153 132 150 122 C149 119 149 116 148 113 C145 98 141 85 133 72 C132 71 132 70 131 69 C116 43 93 25 64 16 C60 15 56 14 52 14 C49 13 49 13 47 12 C22 10 -8 11 -30 26 Z " fill="#101113" transform="translate(290,25)"/>
<path d="M0 0 C2 -0 3 -0 5 -0 C6 -0 8 -0 9 -0 C12 0 12 0 16 4 C16 11 14 17 13 23 C11 31 10 38 9 45 C8 48 8 48 7 53 C6 57 6 61 6 65 C5 71 5 76 2 81 C-2 84 -2 84 -6 86 C-13 92 -17 97 -19 106 C-18 109 -17 112 -17 115 C-16 123 -16 123 -18 127 C-19 131 -19 134 -19 138 C-19 138 -19 138 -19 142 C-19 146 -18 149 -15 152 C-15 155 -15 157 -15 160 C-15 169 -14 175 -8 181 C-5 183 -2 185 1 187 C3 189 3 189 5 194 C5 197 5 200 5 203 C5 209 6 215 7 221 C11 245 11 245 6 253 C-0 258 -7 258 -14 258 C-16 258 -17 257 -19 257 C-23 257 -27 257 -31 257 C-50 257 -68 257 -86 259 C-97 260 -108 261 -120 261 C-122 261 -123 261 -125 261 C-137 261 -148 261 -160 261 C-167 261 -173 262 -180 262 C-185 262 -188 262 -192 258 C-193 253 -193 247 -193 241 C-193 241 -193 241 -193 236 C-193 231 -193 226 -193 221 C-193 217 -193 212 -193 208 C-193 205 -193 202 -193 200 C-193 192 -193 185 -194 178 C-194 174 -194 170 -194 166 C-194 166 -194 166 -194 163 C-195 152 -195 142 -195 131 C-194 131 -193 131 -193 131 C-193 131 -193 130 -193 129 C-193 129 -194 129 -195 129 C-195 27 -195 27 -183 8 C-179 6 -175 5 -170 5 C-170 5 -170 5 -166 5 C-165 5 -164 5 -162 5 C-161 5 -161 5 -157 4 C-153 4 -148 4 -143 4 C-139 4 -136 4 -132 4 C-117 4 -102 4 -88 3 C-86 3 -85 3 -84 3 C-77 3 -70 3 -63 3 C-57 3 -52 3 -47 2 C-34 1 -22 1 -9 0 C-6 0 -3 0 0 0 Z " fill="#FCFCFC" transform="translate(583.78125,231.80078125)"/>
<path d="M0 0 C3 0 3 0 6 1 C6 2 6 2 6 3 C5 3 5 4 4 4 C4 7 3 9 3 12 C3 13 2 15 2 16 C2 24 2 24 3 26 C3 30 3 33 3 37 C3 38 3 39 3 40 C3 45 3 49 2 53 C2 57 2 57 2 60 C3 64 3 68 3 72 C3 74 3 75 3 77 C3 80 3 83 3 86 C3 88 3 90 3 91 C3 93 3 94 3 95 C3 100 3 100 4 105 C6 114 6 123 6 132 C6 134 6 136 6 138 C6 142 6 146 6 150 C7 154 7 158 7 162 C8 181 8 201 8 220 C8 221 8 221 8 224 C8 230 6 235 3 241 C3 243 2 245 2 246 C1 251 1 251 -2 253 C-4 253 -5 254 -6 254 C-8 255 -9 255 -11 256 C-15 256 -18 256 -22 255 C-23 255 -24 255 -25 255 C-25 256 -26 256 -26 257 C-33 261 -38 263 -46 264 C-48 264 -50 265 -52 266 C-75 271 -101 268 -125 267 C-126 267 -128 267 -129 267 C-139 266 -148 264 -156 258 C-156 257 -156 257 -156 256 C-157 256 -157 256 -158 256 C-158 257 -158 257 -158 258 C-167 260 -177 259 -185 255 C-187 254 -190 254 -192 253 C-205 248 -218 241 -229 232 C-230 231 -231 231 -232 230 C-233 229 -235 227 -237 226 C-239 224 -241 223 -243 221 C-248 216 -251 211 -254 204 C-255 201 -255 201 -260 199 C-260 197 -261 196 -261 194 C-262 194 -264 193 -265 193 C-267 189 -267 189 -267 186 C-268 186 -268 186 -269 186 C-270 183 -271 181 -272 178 C-273 177 -273 176 -274 174 C-276 169 -277 164 -277 159 C-277 157 -278 155 -278 153 C-278 145 -278 138 -277 131 C-276 128 -276 124 -276 121 C-275 118 -274 115 -272 112 C-271 109 -271 106 -270 103 C-268 98 -268 98 -266 95 C-266 94 -265 93 -265 92 C-260 77 -251 62 -241 49 C-240 48 -239 47 -238 45 C-234 39 -234 39 -232 37 C-231 37 -231 37 -230 37 C-229 36 -229 34 -228 33 C-226 31 -223 29 -221 27 C-220 26 -219 24 -218 23 C-217 22 -216 21 -215 20 C-213 20 -212 21 -210 21 C-208 21 -207 20 -205 20 C-202 21 -200 23 -197 24 C-194 26 -191 27 -188 29 C-184 32 -181 34 -178 38 C-189 42 -189 42 -192 43 C-195 44 -197 46 -200 48 C-204 51 -208 53 -212 56 C-227 66 -236 80 -240 98 C-245 122 -245 122 -243 132 C-243 132 -243 132 -242 135 C-241 139 -241 139 -239 143 C-239 144 -238 145 -238 146 C-239 147 -239 147 -240 148 C-241 156 -240 162 -236 169 C-236 170 -235 171 -235 172 C-232 177 -230 180 -226 184 C-226 185 -226 185 -226 186 C-225 186 -224 187 -223 187 C-221 189 -220 191 -218 193 C-212 200 -204 205 -196 209 C-193 210 -193 210 -190 212 C-185 214 -181 215 -176 216 C-175 217 -174 217 -173 217 C-173 218 -173 218 -173 219 C-168 219 -164 219 -159 219 C-158 219 -158 219 -155 219 C-148 219 -142 219 -136 215 C-135 214 -135 214 -132 211 C-127 207 -124 207 -118 207 C-114 207 -109 207 -105 206 C-104 206 -102 206 -101 206 C-94 205 -90 202 -85 198 C-84 197 -83 196 -82 195 C-77 190 -76 186 -75 179 C-74 179 -74 179 -73 179 C-73 178 -72 177 -72 176 C-70 175 -67 174 -65 173 C-56 169 -48 163 -43 155 C-42 149 -41 143 -43 136 C-43 133 -43 133 -41 130 C-39 129 -37 127 -34 125 C-29 120 -27 116 -25 109 C-25 103 -26 98 -28 92 C-28 91 -28 90 -28 89 C-29 89 -29 89 -30 89 C-30 88 -31 86 -31 85 C-32 84 -34 84 -35 83 C-36 82 -37 82 -39 81 C-44 79 -47 79 -53 79 C-55 79 -57 79 -59 79 C-61 79 -63 79 -65 80 C-69 80 -73 80 -77 80 C-79 80 -81 80 -82 80 C-87 80 -89 79 -93 76 C-93 75 -94 75 -94 74 C-96 74 -97 74 -99 74 C-99 74 -100 75 -100 75 C-107 76 -107 76 -110 73 C-111 72 -112 72 -113 71 C-116 70 -118 69 -121 68 C-122 67 -122 67 -123 66 C-124 66 -125 65 -126 65 C-127 65 -128 64 -129 64 C-129 63 -129 63 -129 62 C-131 62 -132 61 -134 61 C-134 60 -134 60 -136 57 C-137 57 -137 56 -138 56 C-138 55 -139 54 -139 53 C-140 53 -140 53 -144 50 C-144 49 -145 48 -145 47 C-143 45 -143 45 -139 42 C-139 42 -139 42 -137 40 C-131 36 -127 34 -120 34 C-118 33 -116 32 -114 31 C-113 31 -113 31 -110 30 C-109 30 -108 29 -107 29 C-107 28 -106 28 -106 27 C-105 27 -105 27 -104 27 C-104 26 -103 25 -103 24 C-100 23 -100 23 -95 24 C-94 22 -94 21 -93 19 C-92 19 -92 19 -88 17 C-87 17 -87 18 -86 18 C-82 18 -77 19 -73 19 C-72 19 -71 19 -70 19 C-63 19 -60 19 -55 15 C-53 13 -52 12 -50 10 C-45 6 -40 4 -35 1 C-32 2 -32 2 -30 4 C-27 7 -24 8 -21 10 C-20 11 -19 11 -18 12 C-18 11 -18 11 -18 10 C-16 10 -15 11 -13 11 C-10 10 -10 10 -8 8 C-7 7 -6 7 -5 6 C-3 4 -3 4 0 0 Z " fill="#C8CBD4" transform="translate(373,249)"/>
<path d="M0 0 C1 -0 3 -0 4 -0 C5 -0 7 -0 8 -0 C9 -0 10 -0 11 -0 C14 0 14 0 19 2 C20 2 20 2 25 3 C48 7 68 21 84 37 C85 40 86 42 86 44 C88 48 90 51 92 54 C96 59 97 63 98 69 C99 71 100 72 100 73 C101 74 102 74 103 74 C104 76 104 76 105 80 C105 85 107 88 108 92 C108 98 108 98 106 101 C102 101 100 100 96 97 C91 96 85 95 79 96 C75 99 75 99 72 102 C72 103 72 103 70 105 C67 109 66 114 64 119 C63 123 62 124 59 127 C57 132 55 136 53 140 C53 141 53 142 52 142 C50 142 48 142 46 142 C46 141 45 140 44 139 C35 138 28 139 19 143 C18 144 17 144 16 144 C16 145 16 146 16 146 C15 148 13 149 11 150 C10 151 9 152 8 153 C5 154 5 154 3 154 C3 154 3 153 3 152 C2 152 1 152 0 152 C0 151 0 150 0 148 C0 147 0 147 0 143 C1 141 1 139 1 137 C0 132 -1 130 -3 125 C-3 124 -3 123 -3 122 C-4 118 -4 118 -7 113 C-7 113 -7 113 -9 109 C-11 105 -13 102 -17 99 C-17 99 -18 98 -19 97 C-27 92 -35 91 -45 92 C-51 94 -59 99 -62 105 C-62 105 -63 105 -64 105 C-64 107 -65 109 -66 110 C-67 112 -68 114 -69 115 C-73 127 -75 140 -71 153 C-68 161 -64 166 -57 171 C-61 178 -66 179 -73 181 C-73 181 -73 181 -76 182 C-79 183 -79 183 -83 184 C-88 184 -88 184 -91 186 C-96 188 -102 188 -108 187 C-111 185 -111 185 -114 182 C-114 181 -115 179 -115 178 C-117 172 -121 169 -127 166 C-129 166 -131 165 -134 165 C-136 157 -137 151 -133 143 C-132 143 -132 143 -130 139 C-130 136 -130 136 -131 132 C-131 131 -131 129 -131 127 C-131 126 -131 125 -132 124 C-135 113 -126 96 -122 85 C-121 84 -120 82 -120 80 C-112 61 -101 45 -86 31 C-85 31 -84 31 -84 31 C-84 31 -84 30 -84 29 C-82 28 -80 26 -78 25 C-78 24 -77 23 -76 22 C-69 17 -69 17 -66 17 C-66 17 -66 16 -66 15 C-45 4 -24 0 0 0 Z " fill="#C8CBD4" transform="translate(322.6875,36.75)"/>
<path d="M0 0 C5 3 7 6 11 10 C32 30 56 31 84 32 C98 32 108 33 119 42 C124 48 124 54 123 61 C120 69 116 75 109 80 C108 80 107 80 107 80 C106 85 106 88 107 93 C107 100 106 105 102 111 C94 118 86 124 76 127 C75 128 75 128 75 129 C74 129 73 129 73 129 C73 130 73 130 73 133 C71 141 68 144 63 149 C62 150 61 151 60 152 C54 156 49 156 43 157 C41 157 40 157 38 158 C34 158 34 158 30 158 C22 158 17 160 11 166 C5 171 -1 170 -9 170 C-9 170 -9 170 -12 170 C-17 170 -21 170 -25 169 C-25 168 -25 168 -25 167 C-27 167 -29 167 -31 166 C-38 165 -42 163 -48 159 C-50 158 -52 157 -54 156 C-67 150 -81 136 -87 123 C-88 122 -88 121 -89 120 C-89 119 -89 118 -90 117 C-92 112 -92 112 -93 110 C-94 99 -94 99 -91 95 C-92 94 -92 93 -93 91 C-99 78 -97 67 -94 53 C-94 52 -94 52 -93 51 C-85 55 -82 62 -78 71 C-75 74 -75 74 -72 76 C-71 76 -70 76 -69 76 C-69 74 -68 73 -67 71 C-66 69 -65 68 -64 66 C-63 65 -62 64 -62 63 C-55 54 -48 46 -40 38 C-39 37 -38 36 -37 35 C-30 28 -23 24 -14 19 C-13 18 -12 18 -11 17 C-9 16 -8 16 -7 15 C-6 16 -4 16 -2 17 C-2 17 -2 17 1 18 C5 22 5 22 8 27 C7 28 7 30 7 31 C4 32 4 32 1 33 C-9 37 -18 42 -23 51 C-26 64 -25 75 -18 87 C-12 97 -12 97 -6 99 C-3 99 -3 99 1 99 C8 99 12 102 18 105 C19 106 20 106 22 107 C24 108 26 109 28 110 C31 112 33 113 36 115 C40 117 40 117 42 120 C42 119 42 119 43 118 C43 118 44 118 45 118 C45 117 45 117 47 114 C48 114 49 115 51 115 C54 115 57 116 60 116 C61 116 61 116 66 116 C67 116 68 116 70 116 C70 115 70 114 71 113 C75 112 79 111 83 110 C86 109 86 109 89 108 C91 103 93 99 94 94 C90 89 84 89 79 87 C76 86 76 86 74 83 C74 83 74 83 74 80 C78 75 81 75 87 74 C88 74 88 74 92 72 C96 71 96 71 99 71 C99 70 99 70 99 69 C99 69 99 69 103 67 C107 64 107 64 109 60 C109 52 109 52 108 49 C102 47 97 46 91 45 C90 45 88 45 86 45 C85 45 83 45 81 45 C78 45 75 45 72 44 C70 44 69 44 67 44 C64 44 64 44 63 43 C59 43 56 43 53 43 C43 42 34 41 25 37 C24 36 24 35 24 34 C22 33 21 33 19 32 C11 26 4 20 -2 13 C-3 12 -4 11 -5 10 C-7 7 -7 7 -7 3 C-5 -1 -4 -1 0 0 Z " fill="#7C8296" transform="translate(225.1875,298.9375)"/>
<path d="M0 0 C2 -0 3 -0 5 -0 C6 -0 8 -0 9 -0 C12 0 12 0 16 4 C16 11 14 17 13 23 C11 31 10 38 9 45 C8 48 8 48 7 53 C6 57 6 61 6 65 C5 71 5 76 2 81 C-2 84 -2 84 -6 86 C-13 92 -17 97 -19 106 C-19 108 -19 110 -19 112 C-20 113 -21 114 -22 115 C-22 114 -22 113 -23 111 C-24 111 -25 111 -27 111 C-29 108 -29 108 -31 105 C-31 104 -32 103 -33 102 C-36 102 -36 102 -39 102 C-40 102 -40 102 -43 102 C-44 102 -44 102 -47 102 C-49 101 -50 101 -52 101 C-55 101 -58 101 -62 101 C-62 102 -62 103 -62 104 C-63 104 -64 104 -65 104 C-65 104 -65 103 -65 102 C-68 102 -71 102 -74 102 C-74 103 -74 104 -74 105 C-76 105 -78 105 -81 105 C-81 105 -81 104 -81 103 C-81 103 -81 103 -84 104 C-110 107 -110 107 -120 103 C-121 103 -122 103 -124 103 C-128 102 -128 102 -131 98 C-133 94 -133 94 -132 89 C-133 89 -134 89 -135 88 C-135 88 -135 87 -135 86 C-133 86 -132 85 -131 85 C-129 84 -128 83 -127 82 C-127 78 -128 74 -129 70 C-121 68 -121 68 -116 70 C-116 74 -117 78 -118 81 C-114 83 -108 82 -104 82 C-103 82 -102 82 -100 82 C-97 82 -93 82 -89 82 C-87 82 -84 82 -82 82 C-75 82 -69 82 -63 82 C-63 81 -63 80 -63 79 C-61 80 -59 80 -58 80 C-56 80 -54 80 -52 80 C-50 80 -49 80 -48 80 C-47 79 -46 79 -44 79 C-43 79 -42 79 -41 79 C-38 79 -35 78 -32 78 C-32 78 -32 77 -32 76 C-31 76 -30 76 -30 75 C-30 75 -30 74 -30 73 C-30 73 -31 73 -32 72 C-32 71 -32 70 -32 69 C-49 70 -66 70 -84 70 C-84 71 -84 72 -84 72 C-85 72 -86 72 -87 72 C-87 72 -87 71 -87 70 C-88 70 -89 70 -90 70 C-92 70 -93 70 -95 70 C-96 70 -98 70 -99 70 C-111 70 -111 70 -113 68 C-113 63 -113 63 -114 58 C-113 58 -113 58 -112 56 C-119 56 -126 56 -133 55 C-133 55 -133 54 -133 53 C-126 51 -120 51 -113 51 C-107 51 -100 51 -94 50 C-90 50 -86 50 -82 50 C-78 50 -78 50 -74 49 C-69 48 -64 48 -59 48 C-57 48 -56 48 -54 48 C-53 48 -53 48 -48 48 C-46 48 -44 48 -43 48 C-38 48 -33 48 -29 48 C-29 48 -29 47 -29 46 C-28 46 -26 46 -25 46 C-24 46 -22 45 -21 45 C-19 42 -19 42 -19 39 C-19 39 -20 39 -21 38 C-21 38 -21 37 -21 36 C-75 37 -75 37 -81 40 C-87 41 -93 41 -100 41 C-102 41 -104 41 -106 41 C-109 41 -112 41 -115 41 C-117 41 -119 41 -121 41 C-127 40 -129 38 -133 34 C-140 31 -149 32 -157 33 C-160 36 -162 38 -164 42 C-164 47 -164 49 -162 53 C-158 57 -156 56 -150 56 C-149 56 -148 56 -146 56 C-143 56 -143 56 -138 55 C-137 55 -137 55 -136 56 C-136 57 -136 58 -137 59 C-137 59 -138 59 -139 59 C-139 60 -139 61 -139 61 C-138 62 -137 62 -136 62 C-137 65 -137 65 -139 67 C-137 68 -136 68 -135 69 C-134 69 -134 69 -131 70 C-131 71 -131 71 -131 71 C-146 72 -146 72 -152 72 C-157 72 -164 73 -170 75 C-170 77 -171 78 -172 79 C-176 76 -180 73 -182 67 C-182 67 -182 66 -182 65 C-184 65 -186 65 -188 65 C-188 66 -188 67 -188 69 C-189 74 -191 79 -193 84 C-193 86 -193 87 -194 89 C-194 89 -194 89 -195 89 C-193 24 -193 24 -183 8 C-179 6 -175 5 -170 5 C-170 5 -170 5 -166 5 C-165 5 -164 5 -162 5 C-161 5 -161 5 -157 4 C-153 4 -148 4 -143 4 C-139 4 -136 4 -132 4 C-117 4 -102 4 -88 3 C-86 3 -85 3 -84 3 C-77 3 -70 3 -63 3 C-57 3 -52 3 -47 2 C-34 1 -22 1 -9 0 C-6 0 -3 0 0 0 Z " fill="#FCFCFC" transform="translate(583.78125,231.80078125)"/>
<path d="M0 0 C2 1 3 2 5 2 C9 5 9 5 11 9 C11 10 11 12 10 14 C17 23 26 31 36 38 C38 40 38 40 41 43 C52 48 63 48 75 49 C79 49 79 49 80 50 C83 50 85 50 88 50 C89 50 91 50 93 50 C96 50 99 51 103 51 C104 51 106 51 108 51 C109 51 110 51 112 51 C116 52 120 53 124 55 C127 59 127 62 126 67 C124 72 122 73 117 76 C117 76 116 76 115 76 C115 76 115 77 115 78 C112 79 108 80 104 81 C104 81 104 81 100 83 C99 83 97 83 96 83 C95 83 93 83 92 84 C91 89 91 89 92 93 C95 93 97 93 99 94 C108 97 108 97 111 102 C109 108 108 111 103 116 C98 118 93 120 87 121 C87 121 87 122 86 123 C83 123 80 123 77 123 C75 123 73 123 72 123 C67 123 67 123 63 122 C63 122 63 122 61 125 C61 125 60 125 59 125 C59 126 59 127 58 128 C57 126 56 125 55 124 C52 122 52 122 48 120 C42 117 36 114 30 111 C23 107 19 106 11 107 C1 103 -3 94 -8 85 C-10 75 -10 65 -7 56 C-0 46 12 39 23 37 C22 32 20 30 17 27 C17 26 17 25 17 25 C16 24 15 24 13 24 C12 23 11 23 9 23 C7 24 5 25 2 27 C-1 29 -1 29 -6 31 C-13 35 -19 41 -24 47 C-25 48 -26 49 -28 50 C-36 58 -43 67 -49 77 C-50 79 -50 79 -53 83 C-54 83 -56 83 -58 83 C-61 79 -63 75 -66 70 C-66 69 -67 68 -68 67 C-68 66 -69 65 -69 64 C-70 63 -70 62 -71 62 C-71 62 -72 62 -73 62 C-77 58 -77 58 -77 54 C-73 36 -63 21 -47 11 C-46 11 -46 10 -45 9 C-42 8 -39 5 -36 3 C-24 -6 -14 -6 0 0 Z " fill="#868C9E" transform="translate(208.8125,292.3125)"/>
<path d="M0 0 C2 0 3 1 5 1 C6 1 6 1 10 0 C13 1 15 3 18 4 C21 6 24 7 27 9 C31 12 34 14 37 18 C26 22 26 22 23 23 C20 24 18 26 15 28 C11 31 7 33 3 36 C-12 46 -21 60 -25 78 C-30 102 -30 102 -28 112 C-27 113 -27 114 -27 115 C-26 119 -26 119 -24 123 C-24 124 -23 125 -23 126 C-24 127 -24 127 -25 128 C-26 136 -25 142 -21 149 C-21 150 -20 151 -20 152 C-17 157 -15 160 -11 164 C-11 165 -11 165 -11 166 C-10 166 -9 167 -8 167 C-6 169 -5 171 -3 173 C3 180 11 185 19 189 C22 190 22 190 25 192 C30 194 34 195 39 196 C40 197 41 197 42 197 C42 198 42 198 42 199 C47 199 51 199 56 199 C57 199 57 199 60 199 C67 199 73 199 79 195 C80 194 80 194 83 191 C88 187 91 187 97 187 C101 187 106 187 110 186 C111 186 113 186 114 186 C117 185 120 185 123 184 C121 190 118 193 112 196 C106 199 100 201 93 202 C90 203 86 205 83 206 C79 208 76 208 72 209 C66 210 66 210 65 211 C62 211 60 211 57 211 C56 211 54 210 53 210 C47 210 41 209 35 209 C35 210 34 212 34 213 C39 219 47 222 54 225 C57 227 57 227 58 232 C58 232 58 232 59 236 C58 236 58 236 57 236 C57 237 57 237 57 238 C48 240 38 239 30 235 C28 234 25 234 23 233 C10 228 -3 221 -14 212 C-15 211 -16 211 -17 210 C-18 209 -20 207 -22 206 C-24 204 -26 203 -28 201 C-33 196 -36 191 -39 184 C-40 181 -40 181 -45 179 C-45 177 -46 176 -46 174 C-47 174 -49 173 -50 173 C-52 169 -52 169 -52 166 C-53 166 -53 166 -54 166 C-55 163 -56 161 -57 158 C-58 157 -58 156 -59 154 C-61 149 -62 144 -62 139 C-62 137 -63 135 -63 133 C-63 125 -63 118 -62 111 C-61 108 -61 104 -61 101 C-60 98 -59 95 -57 92 C-56 89 -56 86 -55 83 C-53 78 -53 78 -51 75 C-51 74 -50 73 -50 72 C-45 57 -36 42 -26 29 C-26 28 -26 28 -23 25 C-19 19 -19 19 -17 17 C-16 17 -16 17 -15 17 C-14 16 -14 14 -13 13 C-11 11 -8 9 -6 7 C-5 6 -4 4 -3 3 C-2 2 -1 1 0 0 Z " fill="#AFB2BD" transform="translate(158,269)"/>
<path d="M0 0 C0 3 0 3 -1 7 C-5 9 -5 9 -9 11 C-11 14 -11 14 -11 20 C-11 21 -10 21 -10 22 C-5 23 -1 23 4 22 C10 21 13 22 17 25 C19 27 20 28 22 29 C26 32 29 31 34 31 C35 30 35 28 36 27 C36 26 37 26 37 25 C38 25 39 25 40 25 C40 24 40 24 40 23 C41 23 42 23 43 23 C44 23 46 24 47 24 C49 24 50 24 51 24 C55 24 55 24 60 22 C60 19 60 19 60 15 C60 15 60 15 59 12 C59 11 59 10 59 9 C64 9 69 9 74 9 C75 9 75 9 79 9 C80 9 82 9 83 9 C84 9 86 9 87 9 C88 9 89 9 90 9 C91 10 91 12 92 13 C95 13 95 13 99 13 C99 13 99 13 103 13 C104 13 106 13 107 13 C110 13 113 13 115 13 C116 13 116 13 119 13 C120 13 121 13 122 13 C123 14 123 16 124 17 C126 17 127 17 129 17 C131 17 132 17 134 17 C135 18 135 20 136 21 C137 21 138 22 139 22 C139 24 138 25 138 27 C137 27 137 27 136 27 C135 28 135 30 134 31 C130 31 127 31 123 31 C123 31 123 31 120 31 C119 32 119 34 118 35 C113 35 109 35 104 35 C101 35 99 35 96 35 C95 36 95 38 94 39 C90 39 90 39 85 39 C83 39 81 39 79 39 C77 39 77 39 67 39 C65 39 63 39 61 39 C60 39 58 39 56 39 C55 39 53 39 52 39 C51 40 51 42 50 43 C46 43 42 43 38 43 C37 43 36 43 34 43 C29 43 24 43 19 43 C15 43 12 43 8 43 C7 43 6 43 4 43 C1 43 1 43 -4 43 C-5 44 -5 46 -6 47 C-10 48 -10 48 -14 48 C-16 48 -18 48 -20 48 C-22 48 -23 48 -25 48 C-26 48 -26 48 -31 48 C-35 48 -40 48 -44 48 C-49 47 -54 48 -60 48 C-65 48 -70 48 -75 48 C-77 48 -78 48 -80 48 C-82 48 -84 48 -86 48 C-87 48 -89 48 -90 48 C-91 47 -91 47 -94 47 C-94 46 -94 46 -96 43 C-99 43 -99 43 -103 43 C-103 43 -103 43 -107 43 C-108 43 -110 43 -111 43 C-112 43 -112 43 -116 43 C-121 43 -126 43 -131 43 C-138 43 -144 43 -151 43 C-151 43 -151 43 -155 43 C-156 43 -156 43 -159 43 C-161 43 -162 43 -163 43 C-164 43 -165 43 -166 43 C-166 42 -166 42 -168 39 C-172 39 -177 39 -181 39 C-185 39 -190 39 -194 39 C-195 38 -195 36 -196 35 C-200 35 -205 35 -209 35 C-213 35 -218 35 -222 35 C-223 34 -223 32 -224 31 C-227 31 -227 31 -231 31 C-235 31 -235 31 -238 31 C-239 30 -239 28 -240 27 C-241 27 -242 26 -243 26 C-243 24 -242 23 -242 21 C-241 21 -241 21 -240 21 C-239 20 -239 18 -238 17 C-235 17 -231 17 -228 17 C-227 16 -227 14 -226 13 C-222 13 -219 13 -215 13 C-214 13 -213 13 -212 13 C-207 13 -202 13 -197 13 C-194 13 -191 13 -187 13 C-187 13 -187 13 -184 13 C-181 13 -181 13 -176 13 C-175 12 -175 10 -174 9 C-171 9 -171 9 -167 9 C-166 9 -165 9 -164 9 C-163 9 -163 9 -161 9 C-162 12 -164 14 -165 17 C-165 21 -165 21 -164 24 C-160 27 -160 27 -155 27 C-155 27 -155 27 -154 26 C-149 26 -146 26 -141 28 C-137 33 -137 33 -137 36 C-131 36 -129 34 -125 30 C-124 30 -123 29 -122 28 C-119 25 -118 25 -113 25 C-108 25 -108 25 -105 27 C-100 27 -98 26 -94 23 C-93 18 -93 18 -96 13 C-99 11 -99 11 -103 9 C-105 8 -106 7 -108 6 C-107 5 -106 3 -105 2 C-103 3 -102 3 -100 4 C-97 4 -95 4 -92 4 C-91 4 -89 4 -88 5 C-86 5 -85 5 -83 5 C-81 5 -80 5 -78 5 C-55 5 -33 6 -11 1 C-6 0 -6 0 0 0 Z " fill="#DBDDE3" transform="translate(340,524)"/>
<path d="M0 0 C6 1 6 1 7 2 C8 2 8 2 11 3 C17 4 18 6 22 11 C23 12 25 14 26 16 C29 20 30 22 30 27 C33 30 33 30 38 30 C39 30 41 30 43 30 C46 30 48 31 51 31 C61 32 61 32 66 31 C66 30 67 30 67 29 C68 29 68 29 69 29 C69 31 69 33 69 34 C69 40 69 40 72 43 C74 50 72 54 69 60 C69 62 68 64 68 65 C67 70 67 70 64 72 C62 72 61 73 60 73 C59 73 59 73 55 75 C51 75 48 75 44 74 C43 74 42 74 41 74 C41 75 40 75 40 76 C33 80 28 82 20 83 C18 83 16 84 14 84 C-9 90 -35 87 -59 86 C-60 86 -60 86 -63 86 C-71 86 -77 84 -84 81 C-85 80 -86 80 -88 79 C-91 76 -91 73 -91 69 C-92 69 -92 68 -93 68 C-93 67 -93 67 -93 66 C-96 65 -99 64 -102 62 C-107 60 -111 57 -115 54 C-115 54 -115 54 -116 51 C-115 50 -115 49 -114 48 C-105 48 -97 48 -88 49 C-84 49 -82 48 -78 47 C-76 47 -75 46 -73 46 C-69 45 -66 44 -62 42 C-58 40 -53 39 -49 38 C-40 36 -33 34 -28 27 C-27 25 -26 24 -25 22 C-23 20 -21 18 -19 17 C-15 13 -12 10 -10 5 C-9 4 -8 2 -7 1 C-5 1 -3 1 -1 1 C-1 1 -0 0 0 0 Z " fill="#C7CAD3" transform="translate(307,430)"/>
<path d="M0 0 C2 2 2 2 2 5 C4 6 7 6 9 7 C12 10 12 10 12 13 C12 15 12 18 12 20 C12 21 12 22 12 23 C17 24 17 24 21 23 C22 23 23 23 24 23 C24 23 24 23 26 25 C26 27 25 29 25 31 C25 32 26 32 26 33 C27 33 29 33 30 33 C31 32 32 31 33 30 C34 30 36 29 37 29 C39 30 40 31 42 32 C46 32 46 32 50 32 C58 32 58 32 62 35 C62 38 62 38 61 42 C61 44 60 45 60 47 C58 48 57 48 55 49 C54 48 54 48 53 47 C52 47 51 48 50 48 C51 50 52 51 53 53 C56 58 56 58 55 61 C53 66 51 70 48 75 C46 78 45 80 45 84 C40 82 40 82 38 79 C33 74 28 72 21 72 C11 71 6 73 -2 80 C-6 83 -6 83 -7 85 C-8 85 -8 85 -9 85 C-10 87 -10 88 -11 90 C-12 92 -13 93 -14 95 C-19 107 -21 120 -16 133 C-13 140 -9 146 -2 151 C-6 157 -11 159 -18 161 C-19 161 -19 161 -21 162 C-24 163 -24 163 -28 163 C-33 164 -33 164 -36 166 C-41 168 -47 168 -53 167 C-57 165 -57 165 -59 162 C-59 161 -60 159 -60 158 C-63 151 -66 149 -72 146 C-74 146 -77 145 -79 145 C-81 137 -82 130 -78 123 C-77 122 -76 120 -75 119 C-75 118 -75 117 -76 116 C-76 111 -75 109 -73 105 C-69 103 -66 103 -62 103 C-60 99 -60 99 -61 94 C-63 93 -64 92 -66 91 C-70 81 -65 69 -61 60 C-60 58 -58 57 -57 56 C-53 57 -49 59 -45 60 C-41 62 -38 63 -34 63 C-28 63 -28 63 -25 66 C-21 67 -18 68 -14 69 C-13 70 -12 70 -11 71 C-6 73 -3 72 2 71 C3 70 5 70 6 69 C8 69 9 68 10 68 C14 66 14 66 17 62 C17 59 17 59 16 55 C16 52 16 50 16 47 C17 47 17 47 20 48 C21 46 22 45 23 43 C23 42 22 42 22 41 C21 41 19 41 18 41 C18 41 18 41 17 43 C16 43 16 43 15 43 C15 44 14 45 14 46 C14 46 14 46 11 47 C10 46 9 45 8 44 C7 44 6 43 5 43 C1 42 1 42 -2 39 C-8 36 -10 36 -16 36 C-24 36 -28 34 -34 28 C-36 26 -36 26 -39 25 C-39 24 -38 24 -38 23 C-37 23 -37 23 -36 23 C-36 23 -36 23 -35 20 C-34 20 -34 20 -33 20 C-32 18 -32 17 -31 15 C-28 11 -26 10 -21 8 C-21 7 -21 6 -21 5 C-19 4 -16 4 -14 3 C-13 3 -13 3 -10 1 C-6 -1 -4 -1 0 0 Z " fill="#C1C4CF" transform="translate(268,57)"/>
<path d="M0 0 C1 1 3 3 4 4 C9 4 9 4 14 4 C15 4 16 4 17 4 C19 4 21 4 23 4 C27 4 30 4 33 4 C49 4 49 4 51 3 C70 0 90 1 109 1 C109 2 109 2 109 3 C110 3 111 4 112 4 C111 6 110 8 109 10 C106 10 104 11 101 11 C101 12 101 12 101 13 C100 13 99 13 97 13 C92 13 87 13 82 13 C80 13 78 13 76 13 C74 14 72 14 71 14 C69 14 67 14 66 14 C61 14 57 15 52 16 C49 16 47 16 44 16 C40 16 37 16 33 16 C27 17 22 17 16 17 C14 17 11 17 9 17 C8 17 7 17 6 17 C3 17 0 17 -3 18 C-3 19 -3 19 -3 20 C-1 20 0 19 2 19 C5 19 7 19 10 19 C11 19 11 19 14 20 C18 20 18 20 20 22 C19 23 18 23 17 24 C17 29 17 29 18 33 C23 34 26 34 31 35 C32 35 33 35 34 35 C37 35 40 35 43 35 C43 36 43 36 43 37 C44 37 45 37 46 37 C46 36 46 36 46 35 C50 33 55 34 59 34 C60 34 61 34 62 34 C66 34 70 34 73 34 C76 34 78 34 80 34 C86 34 92 34 98 34 C98 35 98 36 98 37 C99 37 100 38 101 38 C101 39 100 40 100 41 C99 41 99 41 98 41 C98 42 98 42 98 43 C94 45 88 45 83 45 C82 45 81 45 80 45 C77 46 74 46 71 46 C71 45 71 45 71 44 C70 44 68 44 67 44 C67 45 67 46 67 47 C15 49 15 49 11 46 C12 40 12 40 13 35 C8 34 7 34 2 36 C2 38 3 39 4 41 C4 43 4 45 4 47 C0 50 0 50 -4 52 C-3 53 -3 55 -2 56 C-2 57 -2 57 -1 60 C-0 63 -0 63 2 66 C5 67 8 67 11 68 C14 68 14 68 17 69 C28 70 38 69 49 68 C49 69 49 69 49 70 C51 70 54 70 56 70 C56 69 56 68 56 67 C59 67 62 67 65 67 C65 68 65 68 65 69 C66 69 67 69 68 69 C68 68 68 67 68 66 C75 66 81 66 88 66 C88 67 88 67 88 68 C90 68 92 68 94 68 C95 69 97 71 98 72 C98 73 97 75 97 76 C94 78 91 77 87 77 C87 78 87 78 87 79 C87 79 87 79 84 79 C80 79 76 79 72 79 C71 79 71 79 67 80 C60 80 52 80 45 81 C42 81 39 80 36 80 C36 79 36 79 36 78 C35 78 34 78 33 78 C33 78 33 78 32 81 C29 81 29 81 24 82 C24 82 24 82 20 82 C18 82 16 82 14 82 C12 82 10 82 8 82 C3 82 -2 82 -7 83 C-10 83 -14 83 -17 83 C-19 83 -21 83 -23 83 C-24 83 -24 83 -29 83 C-33 83 -33 83 -37 81 C-38 80 -38 79 -39 78 C-38 73 -38 73 -34 69 C-29 68 -29 68 -25 68 C-28 66 -28 66 -32 66 C-35 65 -35 65 -38 63 C-40 63 -42 63 -44 63 C-50 69 -49 88 -50 97 C-50 101 -49 104 -48 108 C-48 113 -49 116 -51 120 C-51 122 -51 124 -52 126 C-52 128 -52 130 -52 132 C-53 132 -55 132 -56 132 C-56 134 -55 137 -55 139 C-54 139 -52 139 -51 139 C-50 148 -50 148 -51 150 C-52 150 -54 149 -55 149 C-57 151 -56 155 -57 158 C-57 159 -57 160 -57 162 C-57 163 -57 164 -57 165 C-57 165 -58 165 -58 165 C-58 163 -58 161 -58 159 C-58 157 -58 154 -58 152 C-58 150 -58 149 -58 148 C-58 141 -58 135 -61 128 C-61 129 -62 131 -62 132 C-62 134 -63 135 -63 137 C-63 137 -64 137 -64 137 C-65 123 -65 110 -65 96 C-64 96 -64 96 -63 96 C-63 95 -63 95 -63 94 C-64 94 -64 94 -65 94 C-65 87 -65 79 -65 72 C-65 71 -65 70 -65 69 C-65 56 -64 46 -59 34 C-59 33 -58 31 -58 30 C-56 30 -54 30 -52 30 C-50 33 -49 36 -47 39 C-44 42 -44 42 -42 43 C-41 42 -41 40 -40 39 C-33 36 -25 36 -17 36 C-12 36 -7 36 -2 35 C-3 35 -4 34 -6 34 C-7 34 -8 33 -9 33 C-9 32 -9 31 -9 30 C-8 30 -8 29 -7 29 C-7 28 -7 28 -7 27 C-8 27 -8 26 -9 26 C-9 25 -9 25 -9 24 C-8 23 -7 22 -6 21 C-7 21 -8 21 -9 21 C-11 21 -14 22 -16 22 C-19 22 -22 22 -24 22 C-29 22 -31 20 -34 17 C-36 14 -35 11 -35 7 C-33 3 -31 -0 -27 -3 C-18 -4 -8 -5 0 0 Z " fill="#F3F4F5" transform="translate(454,267)"/>
<path d="M0 0 C5 3 7 6 11 10 C32 30 56 31 84 32 C98 32 108 33 119 42 C124 48 124 54 123 61 C120 69 116 75 109 80 C108 80 107 80 107 80 C106 85 106 88 107 93 C107 100 106 105 102 111 C94 118 86 124 76 127 C75 128 75 128 75 129 C74 129 73 129 73 129 C73 130 73 130 73 133 C71 141 68 144 63 149 C62 150 61 151 60 152 C54 156 49 156 43 157 C41 157 40 157 38 158 C34 158 34 158 30 158 C22 158 17 160 11 166 C5 171 -1 170 -9 170 C-9 170 -9 170 -12 170 C-17 170 -21 170 -25 169 C-25 168 -25 168 -25 167 C-27 167 -29 167 -31 166 C-38 165 -42 163 -48 159 C-50 158 -52 157 -54 156 C-67 150 -81 136 -87 123 C-88 122 -88 121 -89 120 C-89 119 -89 118 -90 117 C-92 112 -92 112 -93 110 C-94 101 -94 101 -93 98 C-92 97 -91 96 -89 95 C-86 100 -83 105 -81 110 C-75 128 -60 142 -44 150 C-34 154 -25 157 -14 158 C-13 158 -11 158 -10 159 C-9 159 -9 159 -6 159 C-5 159 -3 159 -2 159 C-2 159 -2 159 1 159 C1 158 1 156 2 155 C2 154 2 153 3 152 C2 151 2 149 1 148 C1 147 0 145 -0 144 C1 143 2 142 3 141 C8 142 13 144 18 146 C26 149 38 148 47 146 C52 143 54 141 57 136 C57 130 57 130 56 127 C53 126 50 126 48 125 C46 124 45 123 44 122 C44 121 44 121 44 120 C44 120 45 120 46 120 C46 119 46 117 47 116 C51 116 54 116 58 116 C62 116 66 116 70 116 C70 115 70 114 71 113 C75 112 79 111 83 110 C86 109 86 109 89 108 C91 103 93 99 94 94 C90 89 84 89 79 87 C76 86 76 86 74 83 C74 83 74 83 74 80 C78 75 81 75 87 74 C88 74 88 74 92 72 C96 71 96 71 99 71 C99 70 99 70 99 69 C99 69 99 69 103 67 C107 64 107 64 109 60 C109 52 109 52 108 49 C102 47 97 46 91 45 C90 45 88 45 86 45 C85 45 83 45 81 45 C78 45 75 45 72 44 C70 44 69 44 67 44 C64 44 64 44 63 43 C59 43 56 43 53 43 C43 42 34 41 25 37 C24 36 24 35 24 34 C22 33 21 33 19 32 C11 26 4 20 -2 13 C-3 12 -4 11 -5 10 C-7 7 -7 7 -7 3 C-5 -1 -4 -1 0 0 Z " fill="#070709" transform="translate(225.1875,298.9375)"/>
<path d="M0 0 C6 4 9 8 11 15 C12 28 11 38 3 49 C-3 54 -7 56 -15 56 C-20 55 -20 55 -24 54 C-25 57 -25 57 -24 60 C-24 65 -25 68 -26 73 C-29 76 -31 77 -36 79 C-41 82 -42 84 -44 90 C-47 98 -51 103 -58 107 C-66 107 -68 105 -73 100 C-76 97 -77 94 -79 90 C-82 83 -86 78 -91 73 C-93 70 -95 67 -95 63 C-94 51 -82 42 -74 35 C-69 31 -64 29 -57 29 C-49 31 -44 34 -37 39 C-36 39 -35 39 -34 39 C-34 38 -34 38 -35 35 C-35 33 -35 30 -34 28 C-34 26 -34 25 -34 24 C-33 20 -32 18 -29 15 C-24 14 -24 14 -19 17 C-15 18 -15 18 -12 18 C-12 17 -12 17 -12 16 C-11 16 -11 16 -10 16 C-11 11 -12 10 -16 6 C-15 4 -15 3 -14 1 C-8 -1 -6 -1 0 0 Z " fill="#090708" transform="translate(417,149)"/>
<path d="M0 0 C0 3 0 3 -1 7 C-6 11 -9 11 -15 11 C-17 11 -18 10 -20 10 C-20 9 -20 9 -20 8 C-22 8 -25 9 -27 9 C-27 9 -27 9 -31 9 C-34 10 -34 10 -38 13 C-37 14 -36 14 -36 15 C-33 18 -33 18 -31 23 C-36 29 -36 29 -39 31 C-52 33 -62 29 -73 22 C-73 21 -73 19 -73 18 C-75 17 -77 17 -79 16 C-79 15 -80 14 -80 13 C-83 14 -83 14 -87 17 C-88 21 -88 21 -88 25 C-89 26 -90 27 -91 28 C-92 28 -92 28 -93 28 C-93 29 -93 29 -93 30 C-95 31 -96 32 -98 33 C-98 34 -99 34 -99 35 C-101 35 -102 35 -104 35 C-104 36 -104 36 -104 37 C-105 37 -106 37 -107 37 C-107 38 -107 38 -107 39 C-104 39 -101 39 -98 39 C-95 39 -95 39 -93 40 C-93 41 -92 42 -92 43 C-89 43 -89 43 -85 43 C-83 43 -82 43 -80 43 C-78 43 -77 43 -75 43 C-74 43 -74 43 -70 43 C-64 43 -59 43 -53 43 C-47 43 -42 43 -36 43 C-33 43 -29 43 -26 43 C-24 43 -23 43 -21 43 C-20 43 -18 43 -17 43 C-13 43 -9 43 -5 44 C-5 45 -6 46 -6 47 C-9 47 -9 47 -14 47 C-16 47 -18 47 -19 47 C-21 47 -23 47 -25 47 C-26 47 -26 47 -31 47 C-35 47 -39 47 -44 47 C-49 47 -54 47 -59 47 C-65 48 -70 47 -75 47 C-77 48 -78 48 -80 48 C-82 48 -84 48 -86 48 C-86 48 -86 48 -90 48 C-92 47 -93 47 -94 47 C-94 46 -94 46 -96 43 C-99 43 -99 43 -103 43 C-103 43 -103 43 -107 43 C-108 43 -110 43 -111 43 C-112 43 -112 43 -116 43 C-121 43 -126 43 -131 43 C-138 43 -144 43 -151 43 C-151 43 -151 43 -155 43 C-156 43 -156 43 -159 43 C-161 43 -162 43 -163 43 C-164 43 -165 43 -166 43 C-166 42 -166 42 -168 39 C-172 39 -177 39 -181 39 C-185 39 -190 39 -194 39 C-195 38 -195 36 -196 35 C-200 35 -205 35 -209 35 C-213 35 -218 35 -222 35 C-223 34 -223 32 -224 31 C-227 31 -227 31 -231 31 C-235 31 -235 31 -238 31 C-239 30 -239 28 -240 27 C-241 27 -242 26 -243 26 C-243 24 -242 23 -242 21 C-241 21 -241 21 -240 21 C-239 20 -239 18 -238 17 C-235 17 -231 17 -228 17 C-227 16 -227 14 -226 13 C-222 13 -219 13 -215 13 C-214 13 -213 13 -212 13 C-207 13 -202 13 -197 13 C-194 13 -191 13 -187 13 C-187 13 -187 13 -184 13 C-181 13 -181 13 -176 13 C-175 12 -175 10 -174 9 C-171 9 -171 9 -167 9 C-166 9 -165 9 -164 9 C-163 9 -163 9 -161 9 C-162 12 -164 14 -165 17 C-165 21 -165 21 -164 24 C-160 27 -160 27 -155 27 C-155 27 -155 27 -154 26 C-149 26 -146 26 -141 28 C-137 33 -137 33 -137 36 C-131 36 -129 34 -125 30 C-124 30 -123 29 -122 28 C-119 25 -118 25 -113 25 C-108 25 -108 25 -105 27 C-100 27 -98 26 -94 23 C-93 18 -93 18 -96 13 C-99 11 -99 11 -103 9 C-105 8 -106 7 -108 6 C-107 5 -106 3 -105 2 C-103 3 -102 3 -100 4 C-97 4 -95 4 -92 4 C-91 4 -89 4 -88 5 C-86 5 -85 5 -83 5 C-81 5 -80 5 -78 5 C-55 5 -33 6 -11 1 C-6 0 -6 0 0 0 Z " fill="#DDDEE4" transform="translate(340,524)"/>
<path d="M0 0 C1 1 1 2 2 2 C5 6 8 7 13 9 C21 13 28 17 35 23 C38 25 40 26 44 28 C48 30 48 30 51 33 C57 37 64 35 70 34 C76 33 76 33 81 31 C82 31 83 31 84 31 C90 29 94 24 98 20 C101 17 104 14 107 12 C107 11 108 10 109 9 C115 4 115 4 118 4 C119 11 118 15 115 21 C115 23 114 25 114 26 C113 31 113 31 110 33 C108 33 107 34 106 34 C104 35 103 35 101 36 C97 36 94 36 90 35 C89 35 88 35 87 35 C87 36 86 36 86 37 C79 41 74 43 66 44 C64 44 62 45 60 46 C37 51 11 48 -13 47 C-14 47 -16 47 -17 47 C-25 47 -31 45 -38 42 C-39 41 -40 41 -42 40 C-45 37 -45 34 -45 30 C-46 30 -46 29 -47 29 C-47 28 -47 28 -47 27 C-50 26 -53 25 -56 23 C-61 21 -65 18 -69 15 C-69 14 -70 13 -70 12 C-69 11 -69 10 -68 9 C-59 9 -51 9 -42 10 C-38 10 -36 9 -32 8 C-30 8 -29 7 -27 7 C-23 6 -20 5 -16 3 C-6 -1 -6 -1 0 0 Z " fill="#C1C4CF" transform="translate(261,469)"/>
<path d="M0 0 C2 0 3 0 5 0 C6 7 4 10 0 16 C-1 19 -1 19 -1 22 C1 25 1 25 6 27 C7 27 8 28 9 28 C18 31 27 34 36 33 C40 31 40 31 43 29 C46 27 46 27 49 26 C54 28 54 28 56 32 C60 36 63 36 69 37 C71 38 74 38 76 39 C77 39 79 40 80 40 C83 41 85 41 88 42 C99 45 109 46 120 44 C120 44 120 44 123 44 C127 48 127 48 127 52 C126 58 125 59 120 62 C110 68 97 68 86 65 C82 64 78 62 75 60 C74 60 72 61 71 61 C71 61 71 61 70 63 C71 64 71 66 72 67 C72 69 73 70 73 72 C72 74 71 75 70 77 C53 80 33 73 18 65 C3 54 -8 41 -15 24 C-16 22 -17 20 -18 18 C-18 17 -18 17 -20 13 C-16 15 -16 15 -13 20 C-12 23 -12 25 -11 28 C-11 26 -11 25 -11 23 C-10 22 -9 22 -8 21 C-8 20 -7 18 -7 16 C-6 11 -4 4 0 0 Z " fill="#646A7D" transform="translate(156,381)"/>
<path d="M0 0 C0 0 0 0 1 2 C2 2 3 3 4 3 C6 5 7 7 9 9 C15 16 23 21 31 25 C34 26 34 26 37 28 C42 30 46 31 51 32 C52 33 53 33 54 33 C54 34 54 34 54 35 C59 35 63 35 68 35 C69 35 71 35 72 35 C79 35 85 35 91 31 C92 30 93 29 95 27 C100 23 103 23 109 23 C113 23 118 23 122 22 C123 22 125 22 126 22 C129 21 132 21 135 20 C133 26 130 29 124 32 C118 35 112 37 105 38 C102 39 98 41 95 42 C91 44 88 44 84 45 C78 46 78 46 77 47 C74 47 72 47 69 47 C68 47 66 46 65 46 C59 46 53 45 47 45 C47 46 46 48 46 49 C51 55 59 58 66 61 C69 63 69 63 70 68 C70 68 70 68 71 72 C70 72 70 72 69 72 C69 73 69 73 69 74 C60 76 50 75 42 71 C40 70 37 70 35 69 C22 64 9 57 -2 48 C-3 47 -4 47 -5 46 C-6 45 -8 43 -10 42 C-12 40 -14 39 -16 37 C-21 32 -24 27 -27 20 C-28 17 -28 17 -33 15 C-33 14 -33 14 -34 10 C-35 10 -37 9 -38 9 C-38 8 -38 8 -38 7 C-32 8 -28 9 -23 12 C-18 14 -15 14 -10 13 C-6 10 -4 6 -2 1 C-1 1 -1 0 0 0 Z " fill="#9DA0AF" transform="translate(146,433)"/>
<path d="M0 0 C1 -0 2 -0 3 -0 C7 -0 10 -0 14 -0 C16 -0 19 -0 21 -0 C26 -0 32 -0 37 -0 C43 0 50 0 57 -0 C62 -0 67 -0 72 -0 C74 -0 77 -0 79 -0 C82 -0 86 -0 89 0 C91 0 93 0 95 0 C100 0 100 0 103 1 C103 4 103 4 104 7 C102 8 102 8 96 8 C96 9 96 9 96 10 C91 10 86 10 81 10 C81 9 81 9 81 8 C80 8 79 8 78 8 C78 9 78 9 78 10 C74 12 71 11 68 11 C66 11 65 11 63 11 C60 11 56 12 53 12 C51 12 50 12 48 12 C47 12 45 12 44 12 C39 12 36 13 32 15 C29 16 27 16 24 16 C21 17 17 17 14 18 C14 19 15 19 16 20 C14 21 12 22 11 23 C12 24 13 24 14 25 C13 26 12 28 12 29 C15 33 19 35 25 36 C25 36 25 36 30 35 C33 35 36 35 39 35 C40 35 40 35 44 35 C50 35 50 35 54 36 C61 36 68 36 75 36 C76 36 77 36 79 36 C82 35 85 35 89 35 C89 36 89 36 89 37 C89 37 90 37 91 37 C92 37 92 37 95 36 C96 36 97 36 98 36 C102 35 102 35 107 35 C107 36 107 37 108 38 C108 39 109 39 110 40 C107 44 107 44 102 45 C99 45 97 45 95 45 C94 45 93 45 92 45 C90 45 89 45 88 45 C87 45 85 45 84 45 C75 45 75 45 74 44 C69 44 69 44 64 44 C63 45 62 47 61 48 C52 52 45 52 36 52 C34 52 33 52 31 52 C20 52 20 52 17 48 C15 48 14 47 13 47 C12 46 12 46 12 45 C11 46 10 47 9 48 C4 53 -2 52 -9 52 C-10 52 -10 52 -14 52 C-21 52 -25 52 -29 47 C-30 44 -30 44 -29 40 C-29 40 -29 40 -26 39 C-26 38 -26 38 -26 37 C-15 35 -4 35 8 36 C8 35 8 33 8 32 C7 32 7 32 4 33 C-5 35 -14 35 -23 32 C-23 31 -23 30 -23 29 C-25 28 -26 28 -27 27 C-27 24 -27 22 -27 19 C-23 17 -21 17 -16 16 C-17 16 -17 16 -21 15 C-25 14 -25 14 -30 12 C-31 9 -31 9 -30 5 C-22 -1 -10 0 0 0 Z " fill="#F2F3F4" transform="translate(446.390625,403.87060546875)"/>
<path d="M0 0 C1 1 3 3 4 4 C9 4 9 4 14 4 C15 4 16 4 17 4 C19 4 21 4 23 4 C27 4 30 4 33 4 C49 4 49 4 51 3 C70 0 90 1 109 1 C109 2 109 2 109 3 C110 3 111 4 112 4 C111 6 110 8 109 10 C106 10 104 11 101 11 C101 12 101 12 101 13 C100 13 99 13 97 13 C92 13 87 13 82 13 C80 13 78 13 76 13 C74 14 72 14 71 14 C69 14 67 14 66 14 C61 14 57 15 52 16 C49 16 47 16 44 16 C40 16 37 16 33 16 C27 17 22 17 16 17 C14 17 11 17 9 17 C8 17 7 17 6 17 C3 17 0 17 -3 18 C-3 19 -3 19 -3 20 C-1 20 0 19 2 19 C5 19 7 19 10 19 C11 19 11 19 14 20 C18 20 18 20 20 22 C19 23 18 23 17 24 C17 29 17 29 18 33 C23 34 26 34 31 35 C32 35 33 35 34 35 C37 35 40 35 43 35 C43 36 43 36 43 37 C44 37 45 37 46 37 C46 36 46 36 46 35 C50 33 55 34 59 34 C60 34 61 34 62 34 C66 34 70 34 73 34 C76 34 78 34 80 34 C86 34 92 34 98 34 C98 35 98 36 98 37 C99 37 100 38 101 38 C101 39 100 40 100 41 C99 41 99 41 98 41 C98 42 98 42 98 43 C94 45 88 45 83 45 C82 45 81 45 80 45 C77 46 74 46 71 46 C71 45 71 45 71 44 C70 44 68 44 67 44 C67 45 67 46 67 47 C15 49 15 49 11 46 C12 40 12 40 13 35 C6 34 6 34 2 36 C2 39 3 41 3 44 C2 47 2 47 -1 49 C-4 50 -4 50 -8 50 C-9 50 -9 50 -13 50 C-14 50 -16 50 -17 50 C-18 50 -20 50 -21 50 C-33 50 -33 50 -38 48 C-39 45 -39 45 -39 42 C-39 41 -38 41 -38 40 C-37 40 -37 40 -36 40 C-36 39 -36 39 -36 38 C-28 36 -21 36 -13 36 C-9 36 -6 36 -2 35 C-3 35 -4 34 -6 34 C-7 34 -8 33 -9 33 C-9 32 -9 31 -9 30 C-9 30 -9 30 -7 29 C-7 28 -7 28 -7 27 C-8 27 -8 26 -9 26 C-9 25 -9 25 -9 24 C-8 23 -7 22 -6 21 C-7 21 -8 21 -9 21 C-11 21 -14 22 -16 22 C-19 22 -22 22 -24 22 C-29 22 -31 20 -34 17 C-36 14 -35 11 -35 7 C-33 3 -31 -0 -27 -3 C-18 -4 -8 -5 0 0 Z " fill="#D9DBE2" transform="translate(454,267)"/>
<path d="M0 0 C2 1 3 2 5 2 C9 5 9 5 11 9 C11 13 11 15 8 18 C7 19 6 20 5 21 C4 22 3 23 2 24 C1 25 -1 26 -2 27 C-3 28 -3 28 -4 29 C-7 32 -7 32 -10 34 C-16 38 -21 43 -26 48 C-27 49 -28 50 -29 51 C-36 59 -43 67 -49 77 C-50 79 -51 81 -53 83 C-54 83 -56 83 -58 83 C-61 79 -63 75 -66 70 C-66 69 -67 68 -68 67 C-68 66 -69 65 -69 64 C-70 63 -70 62 -71 62 C-71 62 -72 62 -73 62 C-77 58 -77 58 -77 54 C-73 36 -63 21 -47 11 C-46 11 -46 10 -45 9 C-42 8 -39 5 -36 3 C-24 -6 -14 -6 0 0 Z " fill="#878D9F" transform="translate(208.8125,292.3125)"/>
<path d="M0 0 C3 0 3 0 6 1 C6 2 6 2 6 3 C5 3 5 4 4 4 C4 7 3 9 3 12 C2 15 2 18 1 21 C0 20 -1 20 -2 19 C-8 19 -8 19 -11 20 C-16 23 -21 23 -26 23 C-30 24 -30 24 -33 26 C-37 28 -41 27 -45 26 C-50 26 -53 28 -57 31 C-58 31 -60 31 -61 31 C-70 33 -77 37 -83 43 C-87 48 -90 53 -93 58 C-94 59 -95 60 -96 62 C-98 66 -98 68 -98 73 C-100 75 -100 75 -104 75 C-109 75 -110 74 -113 71 C-116 70 -118 69 -121 68 C-122 67 -122 67 -123 66 C-124 66 -125 65 -126 65 C-127 65 -128 64 -129 64 C-129 63 -129 63 -129 62 C-131 62 -132 61 -134 61 C-135 60 -135 58 -136 57 C-137 57 -137 56 -138 56 C-138 56 -138 56 -139 53 C-141 52 -142 51 -144 50 C-144 50 -144 50 -145 47 C-143 45 -143 45 -139 42 C-139 42 -139 42 -137 40 C-131 36 -127 34 -120 34 C-118 33 -116 32 -114 31 C-113 31 -111 30 -110 30 C-109 30 -108 29 -107 29 C-107 28 -106 28 -106 27 C-105 27 -105 27 -104 27 C-104 27 -104 27 -103 24 C-100 23 -100 23 -95 24 C-94 22 -94 21 -93 19 C-91 18 -90 18 -88 17 C-87 17 -87 18 -86 18 C-82 18 -77 19 -73 19 C-72 19 -71 19 -70 19 C-63 19 -60 19 -55 15 C-53 13 -52 12 -50 10 C-45 6 -40 4 -35 1 C-32 2 -32 2 -30 4 C-27 7 -24 8 -21 10 C-20 11 -19 11 -18 12 C-18 11 -18 11 -18 10 C-16 10 -15 11 -13 11 C-10 10 -10 10 -8 8 C-7 7 -6 7 -5 6 C-3 4 -3 4 0 0 Z " fill="#C1C4CF" transform="translate(373,249)"/>
<path d="M0 0 C7 2 7 2 10 6 C10 6 10 6 11 9 C15 15 19 21 24 26 C24 26 24 26 26 28 C26 29 26 29 26 30 C27 31 29 31 30 32 C35 37 40 42 45 48 C46 49 46 49 47 50 C46 55 46 55 44 57 C41 58 38 59 36 60 C34 60 33 60 31 61 C26 62 22 63 16 63 C16 63 16 63 13 63 C10 63 10 63 7 60 C9 54 11 53 16 50 C23 45 23 45 24 41 C18 40 17 41 12 44 C7 47 1 50 -5 52 C-5 52 -5 52 -8 53 C-20 58 -33 59 -45 55 C-48 53 -48 53 -50 51 C-49 45 -49 45 -44 42 C-43 41 -42 40 -40 39 C-34 35 -28 33 -22 31 C-18 29 -18 29 -17 26 C-17 25 -17 24 -17 23 C-18 23 -19 23 -20 23 C-21 23 -22 22 -23 22 C-24 20 -24 19 -25 17 C-20 11 -12 7 -5 3 C-3 2 -2 1 0 0 Z " fill="#25272B" transform="translate(89,440)"/>
<path d="M0 0 C7 6 10 11 12 20 C13 33 11 42 4 52 C-1 57 -5 60 -12 61 C-20 61 -27 58 -33 53 C-34 52 -34 50 -35 49 C-36 48 -37 47 -37 46 C-41 38 -41 30 -38 21 C-32 10 -28 4 -16 -0 C-5 -3 -5 -3 0 0 Z " fill="#0D0D0F" transform="translate(304.0625,146.5625)"/>
<path d="M0 0 C3 4 3 4 6 7 C7 8 9 9 10 10 C12 13 12 13 13 16 C16 22 16 22 17 23 C17 24 18 26 18 27 C19 32 19 32 21 37 C22 47 22 55 16 63 C13 66 11 68 8 71 C7 71 7 71 6 71 C6 71 6 71 5 74 C-3 81 -11 82 -21 82 C-30 80 -39 76 -46 69 C-54 58 -56 47 -54 33 C-52 25 -49 17 -44 10 C-43 10 -43 10 -42 10 C-41 9 -41 7 -40 6 C-28 -5 -15 -8 0 0 Z M-16 15 C-17 15 -18 15 -20 16 C-28 19 -33 28 -37 36 C-40 44 -40 51 -37 59 C-33 67 -28 71 -20 74 C-13 76 -8 76 -2 73 C7 66 12 59 13 48 C14 37 13 27 6 18 C-2 12 -7 12 -16 15 Z " fill="#F3F4F5" transform="translate(303,132)"/>
<path d="M0 0 C2 5 3 10 4 15 C5 19 5 19 7 23 C7 24 8 25 8 26 C7 27 7 27 6 28 C5 36 6 42 10 49 C10 50 11 51 11 52 C14 56 16 60 19 63 C19 64 19 64 19 65 C18 65 18 65 17 65 C17 66 16 67 16 68 C15 72 14 74 11 77 C4 79 -0 79 -7 76 C-8 75 -8 75 -9 74 C-11 74 -13 73 -15 73 C-16 72 -18 72 -20 71 C-20 69 -21 68 -21 66 C-22 66 -22 66 -23 66 C-24 63 -25 61 -26 58 C-27 57 -27 56 -28 54 C-30 49 -31 44 -31 39 C-31 37 -32 35 -32 33 C-32 24 -32 16 -30 8 C-27 11 -27 13 -27 17 C-26 16 -26 15 -25 15 C-23 12 -21 10 -17 9 C-11 9 -11 9 -8 10 C-7 10 -5 9 -4 9 C-3 9 -3 10 -2 10 C-1 7 -1 3 0 0 Z " fill="#BCBFCC" transform="translate(127,369)"/>
<path d="M0 0 C4 4 7 7 9 13 C8 18 8 18 7 23 C7 28 7 30 9 35 C10 45 9 50 3 58 C2 60 2 60 2 66 C1 73 0 76 -5 81 C-9 83 -12 84 -17 84 C-18 84 -19 83 -20 83 C-20 82 -20 82 -20 81 C-21 81 -22 80 -23 80 C-26 75 -26 75 -26 70 C-24 67 -24 67 -21 65 C-18 61 -18 61 -18 58 C-18 57 -18 57 -19 55 C-23 54 -23 54 -26 54 C-26 53 -26 53 -26 52 C-27 52 -28 51 -29 51 C-31 47 -30 43 -30 39 C-27 33 -24 31 -18 29 C-17 26 -17 26 -18 22 C-19 22 -20 22 -21 22 C-24 21 -24 21 -27 18 C-29 15 -29 15 -29 12 C-27 6 -24 3 -19 -1 C-12 -4 -7 -3 0 0 Z " fill="#7C8296" transform="translate(606,325)"/>
<path d="M0 0 C0 1 0 1 0 2 C1 2 1 2 2 2 C3 5 3 5 5 8 C5 10 6 11 6 12 C7 15 7 15 7 17 C14 20 20 21 27 21 C31 21 31 21 34 23 C36 25 36 25 36 30 C35 30 34 30 32 30 C31 30 29 31 28 31 C26 31 25 31 23 31 C19 32 19 32 16 34 C12 37 9 37 5 37 C3 37 1 37 -1 37 C-2 37 -4 37 -6 37 C-8 37 -10 37 -12 37 C-16 37 -20 37 -24 37 C-29 36 -34 37 -39 37 C-44 37 -49 37 -54 37 C-55 37 -57 37 -59 37 C-61 37 -62 37 -64 37 C-66 37 -67 37 -69 37 C-70 36 -71 36 -72 36 C-72 35 -73 33 -73 32 C-76 31 -76 31 -80 31 C-81 31 -83 31 -84 31 C-84 31 -84 31 -87 31 C-87 30 -87 30 -87 29 C-86 29 -85 29 -84 29 C-84 28 -84 28 -84 27 C-82 27 -81 27 -79 27 C-78 26 -78 24 -77 23 C-76 23 -74 22 -73 22 C-73 21 -73 21 -73 20 C-72 19 -70 18 -69 17 C-69 16 -69 14 -69 13 C-68 9 -68 9 -65 6 C-62 5 -62 5 -60 5 C-59 6 -58 7 -57 8 C-56 9 -54 9 -53 10 C-53 11 -53 13 -53 14 C-50 15 -50 15 -47 16 C-45 17 -43 18 -41 19 C-34 22 -27 23 -19 22 C-15 19 -14 18 -12 13 C-14 10 -17 7 -20 4 C-13 0 -8 -0 0 0 Z " fill="#C8CBD4" transform="translate(320,532)"/>
<path d="M0 0 C1 1 3 3 4 4 C9 4 9 4 14 4 C15 4 16 4 17 4 C19 4 21 4 23 4 C27 4 30 4 33 4 C49 4 49 4 51 3 C70 0 90 1 109 1 C109 2 109 2 109 3 C110 3 111 4 112 4 C111 6 110 8 109 10 C106 10 104 11 101 11 C101 12 101 12 101 13 C100 13 99 13 97 13 C92 13 87 13 82 13 C80 13 78 13 76 13 C74 14 72 14 71 14 C69 14 67 14 66 14 C61 14 57 15 52 16 C49 16 45 16 42 16 C35 15 28 15 21 16 C16 16 12 16 7 15 C1 15 -2 17 -6 20 C-10 21 -12 22 -16 22 C-17 22 -18 22 -19 22 C-24 22 -27 22 -32 20 C-35 16 -35 16 -35 11 C-35 6 -33 3 -30 -1 C-22 -6 -8 -5 0 0 Z " fill="#B9BCC8" transform="translate(454,267)"/>
<path d="M0 0 C0 0 0 0 1 2 C2 2 3 3 4 3 C5 4 6 5 7 7 C11 11 16 15 21 19 C21 19 21 20 21 20 C15 20 11 17 6 14 C5 14 4 13 3 13 C3 14 3 16 3 17 C2 23 -0 26 -4 30 C-5 30 -5 30 -8 32 C-7 38 -6 38 -2 42 C-1 43 -0 44 1 44 C8 51 16 55 25 58 C25 57 25 56 25 55 C25 54 26 53 26 51 C26 51 26 51 26 47 C27 44 27 44 30 40 C33 40 33 40 36 40 C37 40 37 40 40 40 C43 41 43 41 47 44 C47 46 46 47 46 49 C50 55 59 58 66 61 C69 63 69 63 70 68 C70 68 70 68 71 72 C70 72 70 72 69 72 C69 73 69 73 69 74 C60 76 50 75 42 71 C40 70 37 70 35 69 C22 64 9 57 -2 48 C-3 47 -4 47 -5 46 C-6 45 -8 43 -10 42 C-12 40 -14 39 -16 37 C-21 32 -24 27 -27 20 C-28 17 -28 17 -33 15 C-33 14 -33 14 -34 10 C-35 10 -37 9 -38 9 C-38 8 -38 8 -38 7 C-32 8 -28 9 -23 12 C-18 14 -15 14 -10 13 C-6 10 -4 6 -2 1 C-1 1 -1 0 0 0 Z " fill="#AAADB9" transform="translate(146,433)"/>
<path d="M0 0 C5 3 5 8 6 13 C7 14 7 16 8 17 C9 17 10 18 11 18 C12 20 12 20 12 24 C13 29 14 32 16 36 C16 42 16 42 14 45 C9 45 8 44 4 41 C-2 40 -7 39 -13 40 C-17 43 -17 43 -20 46 C-21 47 -21 48 -22 48 C-24 51 -26 55 -27 58 C-32 57 -36 55 -41 53 C-42 53 -43 52 -45 52 C-48 51 -48 51 -51 48 C-51 43 -51 43 -51 38 C-47 34 -45 33 -41 31 C-40 30 -39 30 -38 29 C-37 29 -36 28 -35 28 C-31 26 -31 26 -29 22 C-25 18 -22 16 -17 14 C-10 10 -5 5 0 0 Z " fill="#C2C5D0" transform="translate(415,93)"/>
<path d="M0 0 C-1 2 -1 3 -2 5 C-3 5 -3 5 -4 5 C-5 7 -5 8 -6 10 C-7 12 -8 13 -9 15 C-14 27 -16 40 -11 53 C-10 55 -8 58 -7 61 C-5 64 -5 64 -5 67 C-7 67 -9 67 -11 67 C-12 67 -12 67 -15 66 C-22 66 -25 63 -31 58 C-31 57 -31 57 -34 55 C-37 51 -40 48 -46 47 C-47 47 -48 46 -49 46 C-50 45 -50 43 -51 42 C-48 37 -45 34 -41 30 C-40 27 -40 25 -40 21 C-39 15 -38 11 -35 6 C-30 2 -28 3 -22 2 C-16 2 -6 -2 0 0 Z " fill="#BBBECB" transform="translate(263,137)"/>
<path d="M0 0 C1 0 1 0 5 2 C9 5 9 5 11 9 C11 13 11 15 8 18 C7 19 6 20 5 21 C4 22 3 23 2 24 C1 25 -1 26 -2 27 C-3 28 -3 28 -4 29 C-8 33 -12 35 -17 38 C-21 35 -21 35 -23 30 C-27 28 -27 28 -32 29 C-38 31 -40 31 -46 30 C-47 30 -49 29 -51 29 C-55 29 -55 29 -57 27 C-57 24 -57 21 -57 19 C-53 15 -49 12 -44 9 C-41 7 -37 4 -34 1 C-22 -7 -13 -6 0 0 Z " fill="#91959F" transform="translate(208.8125,292.3125)"/>
<path d="M0 0 C3 1 3 1 4 2 C5 2 7 2 8 2 C14 4 15 6 19 11 C20 12 21 14 23 15 C26 20 26 22 27 27 C30 30 30 30 35 30 C36 30 38 30 40 30 C43 30 45 30 48 31 C58 32 58 32 63 31 C63 30 64 29 64 29 C65 29 65 29 66 29 C66 30 66 32 66 34 C66 40 66 40 67 44 C60 51 60 51 57 51 C57 52 56 53 56 54 C53 56 53 56 50 58 C41 54 41 54 38 50 C38 49 37 47 37 46 C36 42 34 40 31 38 C31 37 30 37 30 37 C29 37 27 37 26 38 C19 38 18 36 13 32 C10 31 7 30 3 29 C-0 29 -4 28 -7 27 C-8 26 -9 26 -11 26 C-13 25 -13 25 -15 22 C-14 16 -12 13 -9 9 C-9 7 -8 6 -8 5 C-6 1 -5 -0 0 0 Z " fill="#C2C5D0" transform="translate(310.125,430.3125)"/>
<path d="M0 0 C2 2 2 2 2 5 C2 6 2 7 2 8 C2 9 2 11 2 12 C2 13 2 13 2 16 C2 17 2 18 2 20 C2 25 2 30 1 35 C0 35 -0 35 -1 35 C-1 36 -1 38 -1 39 C-1 44 -0 50 -0 55 C-0 57 -0 59 -0 62 C0 65 0 68 0 71 C0 73 0 75 0 77 C0 82 0 82 -2 85 C-6 88 -9 88 -13 87 C-15 87 -16 87 -18 87 C-28 87 -28 87 -33 83 C-33 82 -33 81 -33 80 C-34 80 -34 80 -35 80 C-35 77 -35 75 -36 72 C-36 71 -36 69 -36 68 C-36 64 -36 64 -35 62 C-34 62 -34 62 -33 62 C-33 61 -32 59 -32 58 C-30 56 -29 55 -27 53 C-21 47 -19 43 -19 34 C-20 34 -20 34 -21 34 C-21 33 -21 31 -21 30 C-20 30 -20 30 -19 30 C-19 29 -18 27 -18 26 C-17 27 -15 27 -14 28 C-6 30 -6 30 -2 28 C1 19 0 9 0 0 Z " fill="#C1C4CF" transform="translate(371,322)"/>
<path d="M0 0 C7 0 13 0 20 0 C20 1 20 1 20 2 C22 2 24 2 26 2 C27 3 27 3 30 6 C30 7 29 9 29 10 C26 12 23 11 19 11 C19 12 19 12 19 13 C19 13 19 13 16 13 C12 13 8 13 4 13 C2 13 1 14 -1 14 C-8 14 -16 14 -23 15 C-26 15 -29 14 -32 14 C-32 13 -32 13 -32 12 C-33 12 -34 12 -35 12 C-35 13 -36 14 -36 15 C-39 15 -39 15 -44 16 C-45 16 -47 16 -48 16 C-50 16 -52 16 -54 16 C-56 16 -58 16 -60 16 C-65 16 -70 16 -75 17 C-78 17 -82 17 -85 17 C-87 17 -89 17 -91 17 C-93 17 -95 17 -97 17 C-101 17 -101 17 -105 15 C-106 14 -106 13 -107 12 C-106 7 -106 7 -102 3 C-99 3 -99 3 -95 3 C-90 3 -84 3 -78 3 C-77 3 -76 3 -74 3 C-71 2 -68 2 -65 2 C-64 2 -62 2 -61 2 C-60 2 -58 2 -57 2 C-54 2 -54 2 -51 3 C-40 4 -30 3 -19 2 C-19 3 -19 3 -19 4 C-17 4 -14 4 -12 4 C-12 3 -12 2 -12 1 C-9 1 -6 1 -3 1 C-3 2 -3 2 -3 3 C-2 3 -1 3 0 3 C0 2 0 1 0 0 Z " fill="#CED1D9" transform="translate(522,333)"/>
<path d="M0 0 C1 0 2 0 3 0 C3 0 3 0 3 3 C4 6 4 6 8 10 C9 11 10 12 11 13 C14 17 17 19 20 22 C21 23 21 24 22 25 C26 29 29 31 34 33 C40 36 44 38 48 44 C48 46 48 47 48 49 C42 51 41 51 36 49 C36 50 35 52 35 53 C34 53 34 53 33 53 C33 54 32 56 32 57 C26 58 22 56 17 54 C7 49 -1 46 -12 49 C-13 49 -14 50 -15 50 C-16 46 -16 46 -14 41 C-13 39 -12 38 -11 36 C-9 31 -7 26 -6 21 C-4 16 -3 12 0 8 C0 4 0 4 0 0 Z " fill="#C1C4CF" transform="translate(184,207)"/>
<path d="M0 0 C1 -0 2 -0 3 -0 C7 -0 10 -0 14 -0 C16 -0 19 -0 21 -0 C26 -0 32 -0 37 -0 C43 0 50 0 57 -0 C62 -0 67 -0 72 -0 C74 -0 77 -0 79 -0 C82 -0 86 -0 89 0 C91 0 93 0 95 0 C100 0 100 0 103 1 C103 4 103 4 104 7 C102 8 102 8 96 8 C96 9 96 9 96 10 C91 10 86 10 81 10 C81 9 81 9 81 8 C80 8 79 8 78 8 C78 9 78 9 78 10 C74 12 71 11 67 11 C66 11 66 11 61 11 C58 11 54 11 50 11 C48 11 46 11 45 11 C43 11 41 11 40 11 C36 11 36 11 33 12 C29 12 26 13 23 13 C22 13 21 13 20 13 C17 13 15 13 13 13 C10 14 7 14 4 14 C2 14 -0 14 -2 15 C-4 15 -6 15 -8 15 C-25 16 -25 16 -30 12 C-31 9 -31 9 -30 5 C-22 -1 -10 0 0 0 Z " fill="#C4C7D1" transform="translate(446.390625,403.87060546875)"/>
<path d="M0 0 C1 1 1 3 2 4 C5 9 5 9 9 12 C13 14 13 14 14 18 C16 22 16 22 21 24 C23 25 24 25 26 26 C29 29 29 29 30 31 C19 34 5 31 -6 28 C-16 26 -16 26 -21 28 C-22 28 -22 28 -24 30 C-25 29 -25 29 -26 28 C-26 26 -26 25 -26 23 C-27 23 -27 22 -28 22 C-28 21 -28 21 -28 20 C-31 19 -34 18 -37 16 C-42 14 -46 11 -50 8 C-50 7 -51 6 -51 5 C-50 4 -50 3 -49 2 C-40 2 -32 2 -23 3 C-19 3 -17 2 -13 1 C-4 -1 -4 -1 0 0 Z " fill="#C7CAD3" transform="translate(242,476)"/>
<path d="M0 0 C6 4 9 7 12 14 C13 17 13 17 13 20 C13 20 13 20 14 23 C14 26 14 29 14 33 C15 33 15 33 16 33 C17 39 18 49 15 55 C14 55 13 55 12 56 C11 57 11 59 10 61 C8 66 5 69 0 73 C-1 74 -2 75 -3 76 C-4 75 -6 75 -7 75 C-10 75 -13 75 -16 75 C-19 75 -22 74 -25 73 C-25 72 -25 72 -24 71 C-22 71 -20 71 -18 71 C-11 71 -6 69 -0 65 C8 54 9 44 8 31 C6 26 4 22 1 18 C-3 16 -7 16 -11 16 C-13 16 -14 17 -16 18 C-16 19 -17 20 -17 22 C-16 23 -15 23 -15 24 C-14 25 -13 26 -12 27 C-12 28 -12 30 -12 32 C-13 32 -13 32 -14 32 C-14 32 -14 33 -14 34 C-20 34 -21 34 -26 31 C-28 30 -29 30 -31 30 C-33 22 -32 17 -28 10 C-20 -0 -13 -4 0 0 Z " fill="#FBFBFB" transform="translate(419,133.25)"/>
<path d="M0 0 C7 5 10 11 14 18 C15 19 15 20 16 21 C26 37 30 54 33 73 C34 77 34 77 35 78 C35 80 36 83 36 85 C36 86 36 88 36 89 C37 91 37 92 37 94 C37 95 37 97 38 98 C38 105 39 112 40 119 C40 123 40 127 42 132 C43 136 44 140 43 145 C40 148 40 148 37 148 C36 148 35 148 33 148 C33 148 33 148 29 148 C28 148 27 148 25 148 C24 148 23 148 21 148 C18 148 14 148 11 148 C11 146 12 145 12 143 C16 142 16 142 19 141 C19 141 19 141 20 143 C25 143 29 143 34 141 C35 138 35 138 35 134 C35 133 35 132 35 130 C35 127 35 127 32 123 C32 122 32 122 32 121 C31 120 29 120 28 119 C24 122 20 126 16 130 C14 132 14 132 11 133 C12 129 12 129 15 126 C19 123 19 123 21 118 C22 115 22 115 24 112 C25 112 26 112 27 112 C27 105 28 97 28 90 C27 90 27 90 26 90 C26 88 26 87 26 85 C25 80 25 80 24 79 C24 77 23 76 23 74 C22 69 21 66 19 62 C19 62 19 62 22 61 C24 57 23 54 22 50 C21 49 21 47 20 46 C20 44 20 42 20 40 C19 39 19 37 19 35 C18 35 16 34 15 34 C13 30 11 25 10 21 C8 17 6 14 3 10 C1 6 0 5 0 0 Z " fill="#D7D9E0" transform="translate(407,76)"/>
<path d="M0 0 C4 3 5 5 7 9 C10 15 10 15 11 16 C11 17 12 19 12 20 C13 25 13 25 15 30 C16 40 16 48 10 56 C7 59 5 61 2 64 C1 64 1 64 0 64 C-0 64 -0 64 -1 67 C-9 74 -17 75 -27 75 C-36 73 -45 69 -51 63 C-52 60 -52 60 -52 57 C-53 57 -53 56 -54 56 C-54 53 -53 50 -53 47 C-53 46 -53 44 -52 43 C-52 42 -52 41 -52 40 C-51 40 -51 40 -50 40 C-49 37 -49 35 -48 32 C-47 31 -47 30 -46 29 C-45 29 -45 29 -44 29 C-44 31 -44 33 -44 35 C-44 45 -43 53 -36 61 C-28 66 -22 68 -12 67 C-4 63 0 58 4 50 C8 40 7 28 3 18 C0 11 -4 9 -11 6 C-12 6 -14 5 -15 5 C-10 0 -7 -1 0 0 Z " fill="#FCFCFC" transform="translate(309,139)"/>
<path d="M0 0 C1 1 2 1 3 2 C3 3 3 3 3 4 C4 4 5 5 6 5 C10 6 14 8 17 10 C19 11 20 12 21 13 C22 14 23 14 24 15 C24 16 24 17 24 18 C26 18 27 19 29 19 C29 20 29 21 29 22 C24 24 24 24 20 24 C15 25 11 27 6 29 C-9 35 -9 35 -14 34 C-17 32 -17 32 -19 29 C-19 28 -18 27 -18 26 C-18 21 -19 20 -22 17 C-23 15 -24 14 -25 12 C-23 8 -23 8 -21 6 C-18 6 -16 5 -13 5 C-13 4 -13 3 -13 2 C-8 -0 -5 -0 0 0 Z " fill="#C1C4CF" transform="translate(373,53)"/>
<path d="M0 0 C4 1 7 2 10 6 C10 6 10 6 12 9 C13 12 15 15 17 18 C17 19 16 21 16 22 C13 23 13 23 9 24 C8 24 7 25 6 25 C6 26 5 28 5 29 C7 29 8 30 10 30 C11 30 11 30 15 32 C16 32 18 31 19 31 C19 30 20 30 20 29 C21 29 22 29 23 29 C22 31 22 32 21 34 C20 34 20 34 16 35 C16 37 15 38 15 40 C12 41 12 41 9 41 C9 42 9 42 9 43 C4 45 -1 46 -6 43 C-6 39 -5 34 -4 30 C-5 30 -6 29 -7 29 C-11 27 -11 27 -15 24 C-16 24 -16 24 -19 23 C-20 23 -22 22 -23 22 C-24 20 -24 19 -25 17 C-20 11 -12 7 -5 3 C-3 2 -2 1 0 0 Z " fill="#646A7D" transform="translate(89,440)"/>
<path d="M0 0 C2 0 3 0 5 0 C5 4 5 7 4 11 C5 14 5 14 7 17 C8 19 8 20 9 22 C10 22 10 22 11 22 C15 25 16 27 17 32 C15 32 14 32 12 32 C7 32 4 33 -1 36 C-8 39 -12 41 -20 39 C-22 35 -23 31 -23 26 C-24 21 -25 20 -29 17 C-29 16 -29 16 -33 13 C-33 13 -33 12 -33 12 C-32 12 -31 12 -30 12 C-17 11 -9 9 0 0 Z " fill="#C1C4CF" transform="translate(312,201)"/>
<path d="M0 0 C2 -0 3 -0 5 -0 C10 0 10 0 15 1 C22 1 29 1 35 1 C37 1 38 1 39 1 C43 0 46 0 49 0 C49 1 49 1 49 2 C50 2 50 2 52 2 C53 2 53 2 56 1 C57 1 58 1 59 1 C62 0 62 0 67 0 C67 1 67 1 68 3 C69 3 69 3 70 5 C67 9 67 9 62 10 C60 10 58 10 56 10 C55 10 54 10 52 10 C51 10 50 10 49 10 C47 10 46 10 45 10 C35 10 35 10 34 9 C29 9 29 9 24 9 C23 10 22 12 21 13 C14 17 7 17 -2 17 C-2 16 -2 16 -2 15 C-2 15 -2 15 -4 15 C-6 15 -7 15 -8 15 C-9 15 -10 15 -11 15 C-15 15 -15 15 -19 12 C-19 9 -19 9 -19 5 C-13 -1 -8 -0 0 0 Z " fill="#C7CAD4" transform="translate(485.6875,438.875)"/>
<path d="M0 0 C1 7 0 11 -3 17 C-3 19 -4 21 -4 22 C-5 27 -5 27 -8 29 C-10 29 -11 30 -12 30 C-14 31 -15 31 -17 32 C-21 32 -24 32 -28 31 C-28 31 -28 31 -31 31 C-31 32 -32 32 -32 33 C-39 37 -44 39 -52 40 C-54 40 -56 41 -58 42 C-67 44 -79 46 -88 42 C-87 42 -85 42 -84 42 C-83 40 -83 39 -82 37 C-81 36 -81 35 -80 34 C-77 34 -73 33 -70 33 C-59 32 -47 31 -37 27 C-36 27 -35 27 -34 27 C-28 25 -24 20 -20 16 C-17 13 -14 10 -11 8 C-11 7 -10 6 -9 5 C-3 0 -3 0 0 0 Z " fill="#AFB2BE" transform="translate(379,473)"/>
<path d="M0 0 C3 0 3 0 8 0 C11 0 11 0 16 2 C18 5 18 5 18 8 C17 11 17 11 13 12 C9 12 9 12 4 11 C-6 11 -15 13 -25 16 C-29 17 -31 17 -34 15 C-39 13 -43 13 -48 13 C-50 13 -51 13 -53 13 C-58 13 -62 14 -66 14 C-71 14 -75 14 -81 12 C-81 11 -81 10 -81 8 C-81 8 -82 7 -83 6 C-82 6 -82 6 -78 6 C-72 6 -66 6 -59 6 C-57 6 -54 6 -52 5 C-48 5 -44 5 -40 5 C-39 5 -38 5 -37 5 C-26 5 -26 5 -22 2 C-22 2 -22 2 -22 1 C-22 1 -22 1 -27 0 C-27 0 -27 -0 -27 -1 C-17 -2 -9 -1 0 0 Z " fill="#F3F4F5" transform="translate(566.65234375,234.5625)"/>
<path d="M0 0 C0 -1 0 -1 0 -2 C4 -2 8 -2 13 -2 C13 -2 13 -2 16 -2 C28 -2 28 -2 32 1 C32 3 32 4 32 6 C28 10 26 10 20 10 C18 10 15 10 13 10 C13 10 13 10 10 10 C6 10 3 10 -1 10 C-6 10 -11 10 -16 10 C-17 10 -18 10 -19 10 C-27 10 -27 10 -29 11 C-41 11 -41 11 -45 10 C-46 9 -47 7 -48 6 C-47 3 -47 3 -46 0 C-36 -5 -11 -4 0 0 Z " fill="#BBBECB" transform="translate(517,370)"/>
<path d="M0 0 C7 4 16 12 18 20 C18 23 18 23 16 27 C12 27 9 27 5 27 C4 27 4 27 2 27 C-6 27 -6 27 -8 26 C-8 25 -8 25 -8 24 C-9 24 -10 24 -11 24 C-13 24 -14 23 -15 23 C-17 23 -18 23 -19 23 C-23 22 -23 22 -26 17 C-23 11 -18 7 -12 3 C-11 3 -11 3 -10 3 C-10 2 -10 2 -10 1 C-7 -1 -4 -0 0 0 Z " fill="#F4AF2A" transform="translate(362,189)"/>
<path d="M0 0 C0 1 1 1 1 2 C2 2 4 2 6 2 C11 3 11 3 16 5 C17 5 19 6 20 6 C21 4 22 3 23 1 C24 5 23 9 23 14 C22 15 22 17 22 19 C21 23 21 23 19 25 C19 26 19 27 18 28 C18 29 18 29 17 31 C11 33 11 33 8 31 C2 31 1 31 -4 34 C-6 37 -6 37 -8 39 C-10 37 -10 33 -10 30 C-10 30 -10 30 -11 26 C-11 20 -9 16 -5 10 C-3 7 -1 4 0 0 Z " fill="#AFB2BD" transform="translate(108,348)"/>
<path d="M0 0 C3 5 3 5 3 10 C2 15 2 15 -0 17 C-5 20 -10 22 -16 22 C-17 22 -18 22 -19 22 C-24 22 -27 22 -32 20 C-35 16 -35 16 -35 11 C-35 6 -33 3 -30 -1 C-22 -6 -8 -5 0 0 Z " fill="#9CA0AF" transform="translate(454,267)"/>
<path d="M0 0 C1 3 1 3 1 6 C-2 11 -2 11 -4 12 C-11 12 -17 12 -24 13 C-27 13 -31 13 -34 13 C-36 13 -38 13 -40 13 C-41 13 -41 13 -46 13 C-51 13 -51 13 -55 11 C-56 10 -56 9 -57 8 C-56 3 -56 3 -52 -1 C-49 -1 -49 -1 -46 -1 C-39 -1 -31 -1 -24 -2 C-5 -2 -5 -2 0 0 Z " fill="#AFB2BE" transform="translate(472,337)"/>
<path d="M0 0 C0 1 1 3 1 4 C0 5 -1 6 -2 7 C-4 12 -5 15 -5 20 C-2 22 -2 22 1 22 C5 21 5 21 9 19 C10 19 12 19 13 19 C12 25 10 30 8 36 C7 37 7 39 6 40 C5 44 5 44 2 49 C-1 49 -1 49 -5 47 C-6 47 -7 47 -8 46 C-9 46 -9 46 -12 45 C-14 44 -16 44 -18 43 C-18 44 -18 45 -19 46 C-20 50 -20 50 -24 54 C-24 47 -23 44 -19 38 C-19 38 -19 38 -18 35 C-14 23 -7 11 0 0 Z " fill="#BBBECB" transform="translate(126,306)"/>
<path d="M0 0 C7 4 7 4 9 9 C9 13 9 17 8 21 C4 25 2 26 -3 26 C-7 26 -7 26 -9 24 C-12 24 -12 24 -15 25 C-15 27 -16 28 -16 30 C-20 32 -24 32 -29 33 C-30 33 -31 33 -32 33 C-33 33 -34 33 -35 33 C-35 28 -35 28 -35 23 C-32 20 -32 20 -26 19 C-25 19 -23 18 -21 18 C-21 17 -21 16 -21 15 C-20 15 -19 15 -18 15 C-18 14 -17 14 -17 13 C-16 13 -16 14 -15 14 C-14 13 -12 12 -11 11 C-10 11 -10 11 -9 11 C-8 10 -8 8 -7 7 C-5 5 -3 4 -1 2 C-1 1 -0 1 0 0 Z " fill="#C5C8D2" transform="translate(434,194)"/>
<path d="M0 0 C4 -0 4 -0 9 0 C15 7 15 7 15 10 C16 10 18 10 19 10 C19 10 19 10 21 13 C21 12 22 12 22 11 C23 11 23 11 24 11 C24 18 23 23 18 28 C17 28 16 28 15 28 C13 33 13 33 13 39 C12 40 12 40 11 41 C11 41 12 42 12 42 C12 44 13 45 13 47 C15 48 16 48 18 49 C20 54 21 58 21 63 C16 66 16 66 13 66 C10 64 10 64 7 59 C7 54 8 50 9 46 C8 47 7 47 6 48 C3 48 3 48 0 47 C1 46 3 46 4 45 C6 43 6 43 7 38 C6 38 5 37 4 37 C3 37 2 36 1 36 C1 36 1 35 1 35 C2 35 2 35 10 34 C10 33 10 33 9 29 C8 28 7 28 6 27 C5 26 4 26 3 25 C4 23 4 22 5 20 C4 17 4 17 3 14 C2 14 0 13 -1 13 C-1 12 -1 12 -1 11 C2 11 6 10 9 10 C9 7 9 7 8 4 C4 3 4 3 0 2 C0 1 0 1 0 0 Z " fill="#F0F1F2" transform="translate(542,333)"/>
<path d="M0 0 C0 0 1 0 1 0 C1 2 1 3 1 5 C2 10 2 10 4 13 C4 13 4 13 5 10 C5 9 6 8 6 7 C6 7 7 7 7 7 C7 18 7 18 6 23 C5 29 5 34 5 40 C5 41 5 42 5 43 C5 43 5 43 2 44 C1 45 1 47 0 48 C-3 48 -3 48 -7 48 C-9 48 -10 48 -12 48 C-14 48 -15 48 -17 48 C-18 48 -18 48 -22 48 C-28 48 -34 48 -39 48 C-43 48 -47 48 -50 48 C-54 48 -57 48 -61 47 C-63 47 -64 47 -66 47 C-68 47 -69 47 -71 47 C-72 47 -74 47 -75 47 C-79 47 -83 47 -87 46 C-87 44 -87 43 -87 41 C-83 41 -78 41 -74 41 C-74 42 -74 44 -74 45 C-53 45 -32 45 -11 45 C-11 44 -11 44 -12 41 C-11 40 -11 40 -10 39 C-7 35 -7 32 -7 28 C-7 22 -7 17 -4 12 C-3 12 -3 11 -2 11 C-1 7 -1 4 0 0 Z " fill="#F3F4F5" transform="translate(583,437)"/>
<path d="M0 0 C4 9 5 16 2 25 C1 27 0 28 -1 30 C-4 31 -4 31 -8 30 C-11 28 -13 25 -16 23 C-21 22 -25 22 -30 22 C-30 21 -30 21 -30 20 C-29 20 -29 20 -26 20 C-25 20 -23 19 -22 19 C-20 16 -20 16 -20 13 C-21 13 -21 12 -22 12 C-22 11 -22 11 -22 10 C-28 10 -35 10 -41 10 C-41 10 -41 9 -41 9 C-33 6 -26 5 -17 7 C-13 4 -13 4 -10 0 C-6 -1 -4 -2 0 0 Z " fill="#F2F3F4" transform="translate(585,258)"/>
<path d="M0 0 C1 0 1 0 2 0 C3 3 3 3 3 6 C2 7 2 7 1 8 C-2 12 -2 16 -2 21 C-2 26 -2 26 -3 30 C-3 30 -3 30 -6 31 C-8 29 -10 28 -12 26 C-18 22 -24 21 -30 21 C-43 24 -55 36 -62 48 C-64 51 -64 51 -65 56 C-65 55 -66 53 -66 52 C-68 52 -69 52 -71 52 C-70 49 -70 46 -69 43 C-70 43 -72 42 -73 42 C-72 41 -71 40 -70 38 C-67 36 -65 33 -63 30 C-62 30 -61 31 -60 31 C-60 32 -60 32 -60 33 C-59 32 -59 32 -55 30 C-52 28 -50 26 -47 25 C-47 24 -47 24 -47 23 C-41 19 -37 17 -30 17 C-29 17 -27 16 -26 16 C-22 16 -22 16 -19 17 C-18 18 -18 19 -17 20 C-14 21 -14 21 -11 21 C-11 20 -10 18 -10 17 C-8 10 -5 5 0 0 Z " fill="#D8DAE1" transform="translate(386,158)"/>
<path d="M0 0 C1 -0 1 -0 6 -0 C10 0 10 0 13 3 C13 7 13 7 13 10 C13 10 12 10 11 10 C11 11 11 12 11 13 C2 18 -17 16 -28 15 C-32 13 -32 13 -34 10 C-34 9 -34 8 -34 6 C-33 6 -32 6 -32 6 C-31 5 -30 4 -30 2 C-22 -2 -9 0 0 0 Z " fill="#AEB1BC" transform="translate(447.8125,368.75)"/>
<path d="M0 0 C1 0 3 0 4 0 C8 1 8 1 11 4 C12 7 12 9 11 13 C5 18 0 17 -7 17 C-9 17 -11 17 -13 17 C-19 17 -23 17 -28 12 C-28 8 -28 8 -28 5 C-27 5 -26 4 -25 4 C-25 3 -25 3 -25 2 C-16 1 -9 -0 0 0 Z " fill="#AEB1BC" transform="translate(445,439)"/>
<path d="M0 0 C1 -0 1 -0 4 -0 C5 -0 5 -0 8 0 C9 0 11 0 12 -0 C20 0 27 1 35 3 C35 4 35 5 35 6 C39 8 39 8 42 9 C39 12 36 12 32 12 C31 12 29 12 28 12 C26 12 24 12 23 13 C21 13 20 13 18 13 C-6 14 -6 14 -12 10 C-12 7 -12 7 -12 3 C-7 0 -5 0 0 0 Z " fill="#AEB1BC" transform="translate(427.62890625,405.6015625)"/>
<path d="M0 0 C1 0 1 1 2 1 C2 3 2 5 2 6 C3 12 4 17 7 22 C7 23 8 24 8 25 C11 29 13 33 16 36 C16 37 16 37 16 38 C15 38 15 38 14 38 C14 39 13 40 13 41 C12 45 11 47 8 50 C1 52 -3 52 -10 49 C-11 48 -11 48 -12 47 C-14 46 -17 45 -19 44 C-18 43 -18 43 -17 42 C-16 42 -16 42 -11 42 C-8 42 -8 42 -5 42 C-2 38 -2 38 0 34 C1 33 3 32 4 31 C4 27 3 25 1 22 C-2 17 -2 10 -2 4 C-1 3 -1 1 0 0 Z " fill="#C2C5D0" transform="translate(130,396)"/>
<path d="M0 0 C1 -0 1 -0 3 -0 C9 -0 11 0 16 3 C17 8 17 8 16 11 C12 14 10 14 6 14 C5 14 5 14 2 14 C0 14 -1 14 -3 14 C-4 14 -5 14 -7 14 C-19 15 -19 15 -24 12 C-25 9 -25 9 -25 6 C-24 6 -24 5 -24 4 C-23 4 -22 4 -22 4 C-22 4 -22 3 -22 2 C-14 0 -8 0 0 0 Z " fill="#A2A6B3" transform="translate(439.8125,302.6875)"/>
<path d="M0 0 C1 2 1 2 1 6 C2 11 3 14 5 18 C5 24 5 24 3 27 C-2 27 -3 26 -7 23 C-11 22 -11 22 -15 22 C-15 22 -15 22 -19 21 C-20 21 -21 21 -22 21 C-21 20 -20 19 -19 18 C-19 16 -20 15 -20 13 C-20 7 -20 7 -16 3 C-10 -1 -7 -2 0 0 Z " fill="#C8CBD4" transform="translate(426,111)"/>
<path d="M0 0 C1 0 2 1 3 1 C-2 10 -8 13 -17 16 C-20 17 -24 17 -27 18 C-29 19 -31 19 -33 20 C-35 20 -36 21 -38 21 C-39 20 -39 18 -40 17 C-41 16 -43 14 -44 13 C-37 6 -32 3 -23 3 C-18 3 -14 3 -10 2 C-8 2 -7 2 -5 2 C-2 1 -2 1 0 0 Z " fill="#9CA0AF" transform="translate(278,453)"/>
<path d="M0 0 C-0 1 -1 2 -1 3 C-2 3 -2 3 -3 3 C-3 4 -4 6 -4 7 C-4 7 -5 8 -5 8 C-6 8 -6 8 -11 8 C-16 8 -19 8 -23 11 C-24 11 -26 11 -27 11 C-31 12 -31 12 -35 16 C-37 16 -38 16 -40 16 C-40 16 -40 16 -42 17 C-43 17 -44 16 -45 16 C-45 17 -45 19 -45 20 C-49 24 -51 24 -57 24 C-57 25 -57 26 -57 27 C-58 28 -59 28 -60 29 C-65 31 -66 34 -69 39 C-70 40 -71 41 -72 42 C-73 42 -73 42 -74 42 C-74 43 -74 43 -76 47 C-79 51 -81 53 -86 55 C-87 58 -87 58 -87 61 C-87 61 -87 61 -90 62 C-90 63 -91 64 -91 65 C-92 65 -92 65 -93 65 C-88 50 -78 40 -67 30 C-66 30 -66 30 -65 30 C-65 29 -65 29 -65 28 C-63 26 -62 25 -60 24 C-59 23 -58 22 -57 21 C-50 16 -50 16 -47 16 C-47 15 -47 15 -47 14 C-33 6 -16 0 0 0 Z " fill="#D9DBE2" transform="translate(304,38)"/>
<path d="M0 0 C5 -0 5 -0 10 0 C10 1 11 2 11 3 C16 5 20 6 25 7 C25 7 25 7 26 9 C28 9 29 9 31 9 C31 8 32 8 32 7 C33 7 33 7 37 8 C37 9 37 10 37 11 C33 11 30 12 26 12 C26 13 26 13 26 14 C26 14 26 14 23 14 C17 14 14 17 9 20 C7 20 5 21 3 21 C2 22 2 24 1 25 C-2 25 -2 25 -5 24 C-7 21 -7 21 -7 18 C-6 14 -6 14 -4 11 C-3 9 -3 7 -2 5 C-1 3 -1 2 0 0 Z " fill="#7D8397" transform="translate(291,354)"/>
<path d="M0 0 C14 0 27 0 41 1 C40 1 40 1 37 3 C37 4 37 6 37 7 C38 7 38 8 39 8 C25 12 10 13 -4 11 C-5 10 -5 10 -5 6 C-5 0 -5 0 0 0 Z " fill="#AFB2BD" transform="translate(461.1015625,270.8671875)"/>
<path d="M0 0 C1 1 3 1 4 2 C6 2 9 3 11 3 C11 4 11 6 11 7 C16 7 20 7 24 7 C26 7 27 7 28 7 C35 7 41 7 47 6 C47 5 47 3 47 2 C56 0 64 -0 73 -0 C74 -0 76 -0 77 -0 C86 -0 86 -0 88 1 C88 2 88 4 88 5 C81 8 72 7 64 7 C59 7 59 7 56 8 C52 9 49 9 45 9 C44 9 44 9 40 9 C39 10 37 10 36 10 C6 10 6 10 1 12 C-2 9 -2 9 -2 5 C-2 2 -2 2 0 0 Z " fill="#F3F4F5" transform="translate(401,479)"/>
<path d="M0 0 C1 0 1 0 5 2 C9 5 9 5 11 9 C11 10 10 12 9 14 C4 14 4 14 -1 12 C-2 12 -3 12 -5 12 C-9 13 -9 13 -14 11 C-14 9 -15 8 -16 7 C-16 5 -17 4 -18 3 C-24 1 -27 2 -33 5 C-34 5 -36 6 -37 7 C-37 6 -38 6 -39 6 C-26 -6 -15 -7 0 0 Z " fill="#9B9FAE" transform="translate(208.8125,292.3125)"/>
<path d="M0 0 C8 2 16 3 24 3 C24 4 24 4 27 4 C28 8 28 8 28 11 C19 16 6 14 -4 11 C-8 9 -13 7 -17 4 C-13 -3 -6 -2 0 0 Z " fill="#AEB1BC" transform="translate(233.875,502.625)"/>
<path d="M0 0 C0 1 0 2 0 3 C-1 4 -2 4 -3 5 C-3 6 -3 7 -3 8 C-7 9 -7 9 -12 10 C-21 12 -21 12 -23 13 C-35 13 -35 13 -39 12 C-40 11 -41 9 -42 8 C-41 5 -41 5 -40 2 C-30 -3 -11 -0 0 0 Z " fill="#C6C9D3" transform="translate(511,368)"/>
<path d="M0 0 C1 7 0 11 -3 17 C-3 19 -3 21 -4 22 C-4 24 -5 25 -5 27 C-10 29 -13 29 -18 28 C-22 27 -22 27 -24 24 C-25 21 -25 21 -23 17 C-19 14 -17 12 -13 10 C-11 8 -10 7 -8 5 C-2 0 -2 0 0 0 Z " fill="#9CA0AE" transform="translate(379,473)"/>
<path d="M0 0 C1 -0 2 -0 4 -0 C6 -0 9 -0 11 -0 C15 -0 19 -0 22 -0 C25 -0 27 -0 30 -0 C31 -0 32 -0 33 -0 C41 -0 41 -0 43 2 C42 2 40 3 38 3 C38 4 38 6 38 7 C39 7 40 8 40 8 C34 11 29 13 22 12 C18 11 15 9 12 7 C13 7 14 7 14 6 C6 3 -2 3 -11 2 C-12 2 -12 2 -15 2 C-18 2 -21 2 -24 2 C-24 2 -24 2 -24 1 C-16 0 -8 0 0 0 Z " fill="#BBBECB" transform="translate(447.81640625,403.83203125)"/>
<path d="M0 0 C2 -0 3 -0 5 -0 C6 -0 8 -0 10 -0 C12 -0 13 -0 15 -0 C19 -0 23 -0 26 -0 C32 0 38 -0 44 -0 C47 -0 51 -0 54 -0 C56 -0 58 -0 60 -0 C60 -0 60 -0 64 0 C66 0 67 0 69 0 C73 0 77 1 81 1 C80 2 80 3 80 4 C76 4 76 4 71 4 C70 4 68 4 66 4 C64 4 62 4 60 4 C58 4 56 4 54 4 C49 4 44 4 39 4 C34 4 28 4 23 4 C12 4 2 4 -8 4 C-8 -2 -5 0 0 0 Z " fill="#F3F4F5" transform="translate(254.330322265625,566.87060546875)"/>
<path d="M0 0 C7 0 13 0 20 0 C20 1 20 1 20 2 C22 2 24 2 26 2 C27 3 29 5 30 6 C30 7 29 9 29 10 C25 12 19 11 14 11 C14 11 14 11 11 11 C9 11 8 11 7 11 C6 11 5 11 4 11 C1 11 1 11 -4 10 C-4 9 -4 9 -4 8 C-3 8 -3 8 -2 8 C-2 7 -2 6 -2 5 C-3 5 -4 5 -5 5 C-5 4 -5 4 -5 3 C-3 3 -2 3 0 3 C0 2 0 1 0 0 Z " fill="#C3C6D1" transform="translate(522,333)"/>
<path d="M0 0 C3 2 3 2 5 5 C9 7 13 6 17 6 C18 6 18 6 22 6 C26 5 29 5 32 5 C35 5 38 5 41 5 C42 5 44 5 46 5 C53 5 57 7 62 12 C64 14 64 14 64 16 C65 16 65 16 66 16 C66 17 66 17 67 21 C66 20 65 19 64 18 C53 9 40 10 26 10 C12 9 -1 9 -14 6 C-12 2 -12 2 -9 1 C-5 0 -5 0 0 0 Z " fill="#D9DBE2" transform="translate(279,322)"/>
<path d="M0 0 C1 0 3 0 4 0 C6 0 7 0 8 0 C10 0 11 0 13 0 C16 0 20 0 24 0 C22 5 22 5 20 8 C7 11 -5 10 -17 9 C-16 8 -15 8 -14 7 C-15 6 -15 6 -15 2 C-12 -1 -4 -0 0 0 Z " fill="#BABDCA" transform="translate(275.46484375,506.90234375)"/>
<path d="M0 0 C1 1 2 1 3 2 C3 2 2 3 2 3 C7 5 9 5 14 5 C17 5 17 5 20 5 C21 6 21 6 22 7 C21 7 21 7 20 7 C20 8 20 9 20 10 C16 11 13 12 9 13 C7 15 7 15 7 20 C6 26 6 26 2 30 C1 30 -1 31 -2 32 C-5 29 -6 28 -6 23 C-5 22 -4 21 -3 20 C-1 14 -1 9 -2 2 C-1 1 -1 1 0 0 Z " fill="#DADBE2" transform="translate(393,202)"/>
<path d="M0 0 C1 -0 1 -0 5 -0 C7 0 8 0 10 0 C10 1 10 2 11 2 C9 3 9 3 1 5 C2 6 4 7 6 7 C3 9 0 10 -3 11 C-1 12 2 13 5 13 C0 15 -2 15 -7 16 C-9 16 -10 16 -12 16 C-15 15 -15 15 -19 12 C-20 9 -20 9 -19 5 C-13 -1 -8 0 0 0 Z " fill="#AFB2BD" transform="translate(486.25,438.8125)"/>
<path d="M0 0 C4 1 4 1 8 3 C8 5 9 6 9 8 C8 8 7 8 6 8 C5 8 4 9 3 9 C3 11 2 12 2 14 C-2 16 -6 16 -11 17 C-12 17 -13 17 -14 17 C-15 17 -16 17 -17 17 C-17 12 -17 12 -17 7 C-13 3 -9 3 -3 2 C-2 2 -2 3 -1 3 C-1 2 -0 1 0 0 Z " fill="#C3C6D0" transform="translate(416,210)"/>
<path d="M0 0 C0 0 1 0 1 0 C1 6 2 12 2 18 C2 20 2 22 2 24 C4 61 4 61 1 67 C0 67 -1 66 -2 66 C-3 61 -3 56 -3 51 C-3 50 -3 48 -3 47 C-3 45 -3 44 -3 42 C-3 41 -3 39 -3 38 C-3 36 -3 35 -3 33 C-3 32 -3 31 -3 29 C-3 26 -3 26 -2 22 C-2 17 -2 12 -2 7 C-2 3 -2 3 0 0 Z " fill="#D9DBE2" transform="translate(378,406)"/>
<path d="M0 0 C1 0 3 0 4 0 C6 3 7 7 9 10 C13 12 15 12 20 13 C26 13 26 13 28 14 C29 17 29 17 29 20 C27 21 27 21 23 20 C18 19 18 19 13 20 C9 21 9 21 5 19 C0 16 -1 14 -2 8 C-2 3 -2 3 0 0 Z " fill="#41270F" transform="translate(353,520)"/>
<path d="M0 0 C0 1 0 1 0 2 C-10 5 -10 5 -15 5 C-15 6 -15 6 -15 7 C-12 7 -8 8 -5 8 C-6 8 -8 9 -9 9 C-9 10 -9 11 -9 12 C-10 12 -12 12 -13 12 C-13 11 -13 11 -13 10 C-14 10 -15 10 -16 10 C-16 11 -17 12 -17 13 C-21 13 -21 13 -25 13 C-27 13 -28 13 -30 13 C-31 13 -32 13 -33 13 C-33 12 -32 11 -32 10 C-31 6 -31 6 -32 1 C-31 1 -30 1 -29 1 C-20 1 -10 -0 0 0 Z " fill="#C9CCD5" transform="translate(503,335)"/>
<path d="M0 0 C1 1 2 1 3 2 C3 4 4 7 4 9 C4 9 5 10 5 10 C5 15 5 16 1 20 C0 20 0 20 -3 22 C-5 21 -8 19 -10 18 C-13 17 -17 16 -20 15 C-19 11 -19 11 -18 10 C-16 10 -15 10 -13 10 C-6 9 -4 5 0 0 Z " fill="#4D2F10" transform="translate(214,524)"/>
<path d="M0 0 C4 6 5 13 4 20 C1 23 1 23 -2 23 C-3 23 -4 23 -6 23 C-7 23 -8 23 -10 23 C-10 23 -10 23 -14 23 C-14 23 -14 23 -18 23 C-21 23 -25 23 -28 23 C-28 21 -27 20 -27 18 C-24 17 -24 17 -20 16 C-20 17 -19 17 -19 18 C-14 18 -10 18 -5 16 C-4 13 -4 13 -4 10 C-3 3 -3 3 0 0 Z " fill="#D8DAE1" transform="translate(446,201)"/>
<path d="M0 0 C0 3 0 3 -0 6 C-1 14 -1 21 -2 29 C-2 33 -2 33 -3 36 C-3 42 -3 48 -4 53 C-4 57 -4 57 -6 61 C-7 51 -8 42 -7 32 C-6 15 -6 15 -8 11 C-8 4 -8 4 -6 0 C-2 -1 -2 -1 0 0 Z " fill="#D8DAE1" transform="translate(382,262)"/>
<path d="M0 0 C2 0 5 0 7 0 C9 0 10 0 11 0 C17 0 22 0 27 1 C27 2 27 2 27 2 C26 2 25 2 23 2 C22 2 21 3 19 3 C17 9 17 9 15 14 C14 15 14 16 13 16 C13 18 12 19 12 20 C11 20 9 20 8 20 C8 21 8 22 8 22 C7 22 5 22 4 22 C4 21 4 20 4 19 C5 19 5 19 6 18 C5 18 5 18 4 17 C4 16 5 15 5 13 C6 8 6 8 5 5 C3 5 1 4 -1 4 C-3 3 -4 3 -5 3 C-6 3 -7 2 -8 2 C-6 0 -6 0 0 0 Z " fill="#F2F3F4" transform="translate(495.890625,378.76953125)"/>
<path d="M0 0 C1 0 2 0 3 0 C7 0 10 0 14 0 C16 0 19 0 21 0 C27 0 33 0 39 0 C39 1 39 2 39 3 C40 3 41 4 42 4 C42 5 41 6 41 7 C36 9 32 9 27 9 C25 9 24 9 23 8 C19 8 19 8 15 7 C15 6 15 6 15 5 C16 5 18 4 19 4 C16 4 14 3 11 3 C11 2 11 2 11 1 C7 1 2 1 -2 1 C-2 2 -2 3 -2 4 C-6 4 -9 3 -13 3 C-13 2 -13 2 -13 1 C-9 -1 -4 -0 0 0 Z " fill="#CDCFD8" transform="translate(513.1328125,300.90234375)"/>
<path d="M0 0 C0 3 0 6 0 9 C1 10 3 10 4 11 C5 12 5 14 6 15 C2 17 2 17 -3 17 C-6 15 -6 15 -8 13 C-10 12 -11 11 -13 10 C-14 9 -15 9 -16 8 C-16 2 -16 2 -14 -0 C-8 -4 -6 -4 0 0 Z " fill="#C2C5D0" transform="translate(121,396)"/>
<path d="M0 0 C1 0 2 0 3 1 C5 1 6 1 7 1 C8 1 9 2 10 2 C10 3 10 4 11 5 C12 5 13 6 14 6 C14 11 13 13 10 16 C7 18 7 18 2 17 C-0 15 -0 15 -2 12 C-3 11 -4 10 -5 10 C-6 7 -6 7 -7 4 C-3 0 -3 0 0 0 Z " fill="#EC9E2C" transform="translate(350.19921875,223.94140625)"/>
<path d="M0 0 C0 1 0 2 0 3 C-1 3 -1 3 -2 3 C-2 4 -2 6 -2 7 C-3 7 -5 8 -6 8 C-6 9 -6 9 -9 12 C-10 13 -11 14 -12 15 C-16 15 -16 15 -19 13 C-21 9 -21 7 -21 2 C-20 1 -20 0 -19 -1 C-13 -3 -6 -2 0 0 Z " fill="#AEB1BC" transform="translate(443,267)"/>
<path d="M0 0 C2 0 3 0 5 0 C5 2 6 3 6 5 C7 5 7 5 11 7 C13 12 14 16 14 21 C9 24 9 24 6 24 C3 22 3 22 0 17 C0 12 1 8 2 4 C1 5 0 5 -1 6 C-4 6 -4 6 -7 5 C-6 4 -4 4 -3 3 C-2 2 -1 1 0 0 Z " fill="#F3F4F5" transform="translate(549,375)"/>
<path d="M0 0 C0 3 0 3 -3 8 C-6 10 -6 10 -9 11 C-10 12 -12 12 -13 13 C-18 15 -22 16 -27 14 C-24 8 -19 4 -14 1 C-9 -0 -5 -0 0 0 Z " fill="#FCFCFC" transform="translate(288,128)"/>
<path d="M0 0 C-1 2 -2 3 -3 5 C-5 5 -7 5 -9 5 C-9 6 -9 7 -9 8 C-10 9 -11 9 -12 10 C-17 12 -18 15 -21 20 C-22 21 -23 22 -24 23 C-25 23 -25 23 -26 23 C-26 24 -26 24 -28 28 C-31 32 -33 34 -38 36 C-39 39 -39 39 -39 42 C-39 42 -39 42 -42 43 C-42 44 -43 45 -43 46 C-44 46 -44 46 -45 46 C-40 31 -30 21 -19 11 C-18 11 -18 11 -17 11 C-17 10 -17 10 -17 9 C-15 7 -13 6 -12 4 C-11 4 -10 3 -9 2 C-5 -1 -5 -1 0 0 Z " fill="#D1D4DB" transform="translate(256,57)"/>
<path d="M0 0 C4 0 7 1 11 3 C17 4 22 4 28 5 C38 5 38 5 39 6 C42 6 45 6 49 6 C54 7 60 7 66 8 C66 9 66 9 66 10 C65 10 65 10 63 10 C59 11 59 11 56 12 C56 13 56 13 56 14 C53 14 49 14 46 14 C46 12 46 11 46 9 C46 9 46 9 43 9 C36 9 30 9 23 7 C21 7 19 7 17 7 C10 7 6 5 0 1 C0 1 0 0 0 0 Z " fill="#91949E" transform="translate(250,336)"/>
<path d="M0 0 C1 0 1 0 2 0 C4 4 4 6 4 11 C4 13 5 14 5 16 C3 18 2 21 0 23 C-1 26 -1 29 -2 32 C-3 32 -4 32 -5 32 C-5 37 -5 42 -4 47 C-4 48 -5 49 -5 50 C-6 50 -6 50 -10 51 C-10 46 -9 42 -7 37 C-6 32 -5 26 -5 21 C-4 16 -4 16 -2 12 C-2 9 -1 5 -1 2 C-1 1 -0 1 0 0 Z " fill="#D2D4DC" transform="translate(189,160)"/>
<path d="M0 0 C1 0 2 1 3 1 C0 6 -2 9 -7 12 C-11 13 -11 13 -15 14 C-15 13 -15 13 -15 12 C-16 12 -16 12 -20 11 C-19 9 -17 8 -16 6 C-18 6 -20 6 -22 6 C-23 6 -25 6 -26 6 C-29 6 -29 6 -32 8 C-34 8 -35 8 -37 8 C-33 4 -32 4 -27 3 C-21 3 -15 3 -10 2 C-8 2 -7 2 -5 2 C-2 1 -2 1 0 0 Z " fill="#ACAFBA" transform="translate(278,453)"/>
<path d="M0 0 C0 0 1 0 1 0 C1 1 1 3 1 4 C1 5 1 5 2 8 C6 9 6 9 9 10 C9 11 9 11 9 12 C10 12 10 12 11 12 C11 15 11 19 11 22 C10 22 8 22 7 22 C4 18 4 18 4 16 C3 15 1 15 0 14 C-4 17 -8 21 -12 25 C-14 27 -14 27 -17 28 C-16 24 -16 24 -13 21 C-9 18 -9 18 -7 13 C-6 10 -6 10 -4 7 C-3 7 -2 7 -1 7 C-1 5 -0 2 0 0 Z " fill="#CFD2DA" transform="translate(435,181)"/>
<path d="M0 0 C2 4 2 6 1 10 C-4 14 -6 13 -12 13 C-17 12 -17 12 -21 10 C-19 8 -16 7 -13 6 C-14 6 -15 5 -16 5 C-18 5 -19 4 -20 4 C-20 4 -20 3 -20 3 C-18 2 -16 2 -13 1 C-12 1 -11 1 -10 1 C-6 0 -6 0 0 0 Z " fill="#BBBECB" transform="translate(503,440)"/>
<path d="M0 0 C1 0 1 0 2 0 C2 1 2 1 2 2 C1 2 1 2 0 2 C0 1 0 1 0 0 Z " fill="#F3F4F5" transform="translate(389,513)"/>
<path d="M0 0 C1 0 1 0 2 0 C2 1 2 1 2 2 C1 2 1 2 0 2 C0 1 0 1 0 0 Z " fill="#F3F4F5" transform="translate(77,425)"/>
</svg>
