<?xml version="1.0" encoding="UTF-8"?>
<!-- Generator: visioncortex VTracer 0.6.12 -->
<svg version="1.1" xmlns="http://www.w3.org/2000/svg" width="544" height="588">
<path d="M0 0 C4 -0 9 -1 13 -1 C15 -1 16 -1 17 -1 C20 -1 23 -1 26 -1 C30 -1 34 -1 39 -1 C41 -1 44 -1 47 -1 C47 -1 47 -1 51 -1 C54 -1 57 -0 60 0 C60 1 60 1 62 4 C65 4 65 4 69 4 C73 4 73 4 76 4 C77 5 77 7 78 8 C80 8 82 8 84 8 C85 9 85 11 86 12 C88 12 90 12 92 12 C93 13 93 15 94 16 C96 16 98 16 100 16 C101 17 101 19 102 20 C104 20 106 20 108 20 C109 21 109 23 110 24 C111 24 111 24 114 26 C114 27 114 27 114 28 C115 28 115 28 118 30 C118 31 118 31 118 32 C119 33 121 33 122 34 C122 35 122 35 122 36 C123 37 125 37 126 38 C126 39 126 39 126 40 C127 41 129 41 130 42 C130 43 130 43 130 44 C131 45 133 45 134 46 C134 47 134 47 134 48 C135 48 136 48 137 48 C137 49 137 50 137 51 C138 55 138 55 142 58 C142 59 142 59 142 60 C143 60 144 60 145 60 C145 61 145 62 145 63 C146 65 146 66 146 67 C147 67 148 68 149 68 C149 70 150 73 150 75 C151 75 152 76 153 76 C153 80 154 83 154 87 C155 87 156 88 157 88 C157 92 158 95 158 99 C159 99 160 100 161 100 C161 104 162 107 162 111 C163 111 164 112 165 112 C165 117 165 122 166 127 C166 130 166 132 166 135 C167 135 168 136 169 136 C169 142 169 148 170 153 C170 157 170 160 170 163 C171 163 172 164 173 164 C173 167 173 167 173 171 C173 172 173 174 173 175 C173 178 174 181 174 184 C174 185 174 187 174 188 C174 189 174 191 174 192 C174 193 174 194 174 195 C175 195 176 196 177 196 C177 200 178 204 178 208 C178 209 178 210 178 211 C179 211 180 212 181 212 C181 216 182 219 182 223 C183 223 184 224 185 224 C185 226 186 229 186 231 C187 231 188 232 189 232 C189 234 190 237 190 239 C191 240 192 240 193 241 C193 242 193 243 193 244 C194 247 194 247 198 250 C198 251 198 251 198 252 C199 252 201 252 202 252 C204 252 205 252 207 252 C209 252 210 252 212 252 C213 252 215 252 216 252 C217 253 217 255 218 256 C220 256 221 256 223 256 C225 256 226 256 228 256 C229 257 229 259 230 260 C232 260 233 260 235 260 C237 260 238 260 240 260 C241 261 241 263 242 264 C243 265 245 265 246 266 C246 267 246 267 246 268 C248 268 250 268 252 268 C253 269 253 271 254 272 C255 273 257 273 258 274 C258 275 258 275 258 276 C260 276 262 276 264 276 C265 277 265 279 266 280 C267 281 269 281 270 282 C270 283 270 283 270 284 C271 285 273 285 274 286 C274 287 274 287 274 288 C275 289 277 289 278 290 C278 291 278 291 278 292 C279 293 281 293 282 294 C282 295 282 295 282 296 C283 296 284 296 285 296 C285 297 285 298 285 299 C286 303 286 303 290 306 C290 307 290 307 290 308 C291 308 292 308 293 308 C293 309 293 310 293 311 C293 312 293 312 294 315 C295 315 296 316 297 316 C297 318 298 321 298 323 C299 323 300 324 301 324 C301 326 302 329 302 331 C303 331 304 332 305 332 C305 336 306 340 306 344 C306 345 306 346 306 347 C307 347 308 348 309 348 C309 352 309 356 309 360 C309 361 309 362 309 363 C309 366 309 369 309 371 C309 375 309 379 309 383 C309 385 309 388 309 390 C309 391 309 392 309 394 C309 396 309 399 309 402 C308 402 307 403 306 403 C306 405 306 407 306 408 C305 410 305 412 305 414 C304 414 303 415 302 415 C302 416 302 417 302 418 C301 420 301 421 301 422 C300 422 299 423 298 423 C298 424 298 425 298 426 C297 428 297 429 297 430 C296 430 295 431 294 431 C294 432 294 433 294 434 C293 436 293 437 293 438 C292 438 291 439 290 439 C289 443 289 443 289 446 C288 446 287 446 286 446 C285 447 285 449 284 450 C283 450 283 450 282 450 C281 451 281 453 280 454 C279 454 279 455 278 455 C278 457 277 460 277 462 C276 462 275 462 274 462 C272 462 271 462 270 462 C269 463 269 465 268 466 C267 466 267 466 266 466 C265 467 265 469 264 470 C263 470 263 470 262 470 C261 471 261 473 260 474 C259 474 259 474 258 474 C257 475 257 477 256 478 C254 478 252 478 250 478 C249 479 249 481 248 482 C247 482 247 482 246 482 C245 483 245 485 244 486 C242 486 240 486 238 486 C237 487 237 489 236 490 C233 490 229 490 226 490 C225 491 225 493 224 494 C221 494 217 494 214 494 C213 495 213 497 212 498 C208 498 205 499 201 499 C200 499 199 499 198 499 C196 499 194 499 191 499 C188 499 185 499 181 499 C179 499 177 499 175 499 C174 499 173 499 171 499 C169 499 169 499 164 498 C163 497 163 495 162 494 C160 494 159 494 157 494 C155 494 154 494 152 494 C151 493 151 491 150 490 C148 490 147 490 145 490 C143 490 142 490 140 490 C139 489 139 487 138 486 C136 486 133 486 131 486 C131 485 130 484 130 483 C127 482 127 482 124 482 C123 482 122 482 121 482 C120 482 119 482 118 482 C117 483 117 485 116 486 C113 487 113 487 110 487 C110 488 110 490 110 491 C112 491 113 491 115 491 C117 491 118 492 120 492 C121 493 121 495 122 496 C125 496 129 496 132 496 C133 497 133 498 134 499 C135 499 137 499 138 499 C139 498 139 497 140 496 C142 496 143 497 145 497 C145 498 146 499 146 500 C148 500 149 500 151 500 C153 500 154 500 156 500 C157 501 157 503 158 504 C162 504 162 504 166 504 C168 504 170 504 172 504 C175 504 179 504 182 504 C184 504 186 503 188 503 C189 503 191 503 192 503 C194 504 195 504 196 504 C197 507 197 507 198 511 C199 511 200 512 201 512 C201 517 201 517 201 522 C199 522 197 522 196 522 C195 522 195 522 190 522 C189 523 189 525 188 526 C183 526 179 526 174 526 C173 526 173 526 170 526 C169 527 169 529 168 530 C164 530 164 530 159 530 C157 530 155 530 153 530 C149 530 145 530 141 530 C139 530 137 530 135 530 C134 530 134 530 130 530 C129 530 127 530 126 530 C125 531 125 533 124 534 C120 534 120 534 114 534 C113 534 113 534 111 534 C106 534 102 534 98 534 C95 534 91 534 88 534 C87 534 87 534 82 534 C81 534 80 534 78 534 C77 535 77 537 76 538 C73 539 73 539 68 539 C66 539 65 539 63 539 C62 539 62 539 58 539 C56 539 54 539 52 539 C47 539 42 539 37 539 C34 539 31 539 28 539 C22 539 16 539 10 539 C9 539 7 539 5 539 C4 539 4 539 -0 539 C-2 539 -3 539 -5 539 C-6 538 -7 538 -8 538 C-9 537 -9 535 -10 534 C-13 534 -13 534 -17 534 C-18 534 -20 534 -21 534 C-22 534 -22 534 -26 534 C-28 534 -30 534 -31 534 C-37 534 -42 534 -47 534 C-54 534 -61 534 -68 534 C-68 534 -68 534 -73 534 C-74 534 -75 534 -77 534 C-78 534 -80 534 -81 534 C-82 534 -83 534 -84 534 C-85 533 -85 531 -86 530 C-90 530 -95 530 -99 530 C-103 530 -108 530 -112 530 C-113 529 -113 527 -114 526 C-118 526 -123 526 -127 526 C-131 526 -136 526 -140 526 C-141 525 -141 523 -142 522 C-144 522 -145 522 -147 522 C-149 522 -150 522 -152 522 C-153 521 -153 519 -154 518 C-155 518 -156 517 -157 517 C-157 516 -157 516 -156 512 C-154 512 -152 512 -150 512 C-149 511 -149 509 -148 508 C-144 508 -141 508 -137 508 C-136 508 -135 508 -134 508 C-133 507 -133 505 -132 504 C-129 504 -129 504 -125 503 C-124 503 -123 503 -121 503 C-120 503 -118 503 -117 503 C-114 503 -111 503 -109 503 C-108 503 -108 503 -105 503 C-104 503 -103 503 -102 503 C-101 502 -101 501 -100 500 C-98 500 -97 501 -95 501 C-95 502 -94 502 -94 503 C-93 503 -91 503 -90 503 C-89 502 -89 501 -88 500 C-86 500 -84 500 -82 500 C-81 499 -81 497 -80 496 C-77 496 -73 496 -70 496 C-69 495 -69 493 -68 492 C-65 491 -65 491 -62 491 C-62 490 -62 488 -62 487 C-64 487 -66 487 -67 487 C-69 486 -71 486 -73 486 C-73 486 -73 486 -74 483 C-75 483 -76 482 -78 482 C-79 482 -80 481 -81 481 C-81 481 -81 481 -82 478 C-84 478 -86 478 -88 478 C-89 477 -89 475 -90 474 C-92 474 -94 474 -96 474 C-97 473 -97 471 -98 470 C-100 470 -102 470 -104 470 C-105 469 -105 467 -106 466 C-107 465 -109 465 -110 464 C-110 463 -110 463 -110 462 C-111 461 -113 461 -114 460 C-114 459 -114 459 -114 458 C-118 458 -118 458 -122 458 C-123 459 -123 461 -124 462 C-128 463 -128 463 -132 462 C-133 463 -133 463 -136 463 C-138 462 -139 462 -140 462 C-140 461 -140 461 -142 458 C-143 457 -145 457 -146 456 C-146 455 -146 455 -146 454 C-147 453 -149 453 -150 452 C-150 451 -150 451 -150 450 C-151 450 -152 450 -153 450 C-154 450 -156 450 -157 450 C-158 450 -159 450 -161 450 C-162 450 -163 450 -164 450 C-165 449 -165 447 -166 446 C-167 446 -168 446 -169 446 C-169 445 -169 444 -169 443 C-170 441 -170 440 -170 439 C-171 439 -172 438 -173 438 C-173 436 -174 433 -174 431 C-175 431 -176 430 -177 430 C-177 426 -178 423 -178 419 C-179 419 -180 418 -181 418 C-181 413 -182 408 -182 403 C-182 402 -182 400 -182 399 C-183 399 -184 398 -185 398 C-185 394 -185 391 -185 387 C-185 386 -185 385 -185 384 C-185 381 -185 379 -185 377 C-185 373 -185 369 -185 366 C-185 364 -185 361 -185 359 C-185 358 -185 357 -185 356 C-185 353 -185 351 -185 348 C-184 348 -183 347 -182 347 C-182 343 -182 343 -182 338 C-181 332 -181 332 -181 328 C-180 328 -179 327 -178 327 C-178 325 -178 323 -178 322 C-177 320 -177 318 -177 316 C-176 316 -175 315 -174 315 C-174 313 -174 311 -174 310 C-173 308 -173 306 -173 304 C-172 304 -171 303 -170 303 C-170 301 -170 299 -170 298 C-169 296 -169 294 -169 292 C-168 292 -167 291 -166 291 C-166 290 -166 289 -166 288 C-165 286 -165 285 -165 284 C-164 284 -163 283 -162 283 C-161 279 -161 279 -161 276 C-160 276 -159 276 -158 276 C-158 275 -158 275 -156 272 C-155 272 -155 271 -154 271 C-154 269 -153 266 -153 264 C-152 264 -151 264 -150 264 C-149 263 -149 261 -148 260 C-147 260 -147 259 -146 259 C-146 257 -145 254 -145 252 C-144 252 -143 252 -142 252 C-141 251 -141 249 -140 248 C-139 248 -139 247 -138 247 C-138 246 -138 245 -138 244 C-137 243 -137 243 -137 240 C-136 240 -135 239 -134 239 C-134 237 -134 235 -134 234 C-133 232 -133 230 -133 228 C-132 228 -131 227 -130 227 C-130 226 -130 225 -130 224 C-129 222 -129 221 -129 220 C-128 220 -127 219 -126 219 C-126 217 -126 215 -126 214 C-125 212 -125 210 -125 208 C-124 208 -123 207 -122 207 C-122 204 -122 204 -122 200 C-121 195 -121 195 -121 192 C-120 192 -119 191 -118 191 C-118 187 -118 183 -118 180 C-117 176 -117 172 -117 168 C-116 168 -115 167 -114 167 C-114 163 -114 159 -114 156 C-113 152 -113 148 -113 144 C-112 144 -111 143 -110 143 C-110 139 -110 139 -110 134 C-109 128 -109 128 -109 124 C-108 124 -107 123 -106 123 C-106 121 -106 119 -106 118 C-105 116 -105 114 -105 112 C-104 112 -103 111 -102 111 C-102 109 -102 107 -102 106 C-101 104 -101 102 -101 100 C-100 100 -99 99 -98 99 C-98 97 -98 95 -98 94 C-97 92 -97 90 -97 88 C-96 88 -95 87 -94 87 C-94 86 -94 85 -94 84 C-93 82 -93 81 -93 80 C-92 80 -91 79 -90 79 C-90 75 -89 72 -89 68 C-88 68 -87 68 -86 68 C-86 67 -86 67 -84 64 C-83 64 -83 63 -82 63 C-82 61 -81 58 -81 56 C-80 56 -79 56 -78 56 C-77 55 -77 53 -76 52 C-75 52 -75 52 -74 52 C-73 51 -73 49 -72 48 C-71 48 -71 47 -70 47 C-70 45 -69 42 -69 40 C-68 40 -67 40 -66 40 C-65 39 -65 37 -64 36 C-63 36 -63 36 -62 36 C-61 35 -61 33 -60 32 C-59 32 -59 32 -58 32 C-57 31 -57 29 -56 28 C-55 28 -55 28 -54 28 C-53 27 -53 25 -52 24 C-50 24 -48 24 -46 24 C-45 23 -45 21 -44 20 C-43 20 -43 20 -42 20 C-41 19 -41 17 -40 16 C-38 16 -36 16 -34 16 C-33 15 -33 13 -32 12 C-30 12 -28 12 -26 12 C-25 11 -25 9 -24 8 C-21 8 -17 8 -14 8 C-13 7 -13 5 -12 4 C-9 4 -5 4 -2 4 C-1 3 -1 1 0 0 Z " fill="#C7CAD4" transform="translate(210,25)"/>
<path d="M0 0 C4 -0 9 -1 13 -1 C15 -1 16 -1 17 -1 C20 -1 23 -1 26 -1 C30 -1 34 -1 39 -1 C41 -1 44 -1 47 -1 C47 -1 47 -1 51 -1 C54 -1 57 -0 60 0 C60 1 60 1 62 4 C65 4 65 4 69 4 C73 4 73 4 76 4 C77 5 77 7 78 8 C80 8 82 8 84 8 C85 9 85 11 86 12 C88 12 90 12 92 12 C93 13 93 15 94 16 C96 16 98 16 100 16 C101 17 101 19 102 20 C104 20 106 20 108 20 C109 21 109 23 110 24 C111 24 111 24 114 26 C114 27 114 27 114 28 C115 28 115 28 118 30 C118 31 118 31 118 32 C119 33 121 33 122 34 C122 35 122 35 122 36 C123 37 125 37 126 38 C126 39 126 39 126 40 C127 41 129 41 130 42 C130 43 130 43 130 44 C131 45 133 45 134 46 C134 47 134 47 134 48 C135 48 136 48 137 48 C137 49 137 50 137 51 C138 55 138 55 142 58 C142 59 142 59 142 60 C143 60 144 60 145 60 C145 61 145 62 145 63 C146 65 146 66 146 67 C147 67 148 68 149 68 C149 70 150 73 150 75 C151 75 152 76 153 76 C153 80 154 83 154 87 C155 87 156 88 157 88 C157 92 158 95 158 99 C159 99 160 100 161 100 C161 104 162 107 162 111 C163 111 164 112 165 112 C165 117 165 122 166 127 C166 130 166 132 166 135 C167 135 168 136 169 136 C169 142 169 148 170 153 C170 157 170 160 170 163 C171 163 172 164 173 164 C173 167 173 167 173 171 C173 172 173 174 173 175 C173 178 174 181 174 184 C174 185 174 187 174 188 C174 189 174 191 174 192 C174 193 174 194 174 195 C175 195 176 196 177 196 C177 200 178 204 178 208 C178 209 178 210 178 211 C179 211 180 212 181 212 C181 216 182 219 182 223 C183 223 184 224 185 224 C185 226 186 229 186 231 C187 231 188 232 189 232 C189 234 190 237 190 239 C191 240 192 240 193 241 C193 242 193 243 193 244 C194 247 194 247 198 250 C198 251 198 251 198 252 C199 252 201 252 202 252 C204 252 205 252 207 252 C209 252 210 252 212 252 C213 252 215 252 216 252 C217 253 217 255 218 256 C220 256 221 256 223 256 C225 256 226 256 228 256 C229 257 229 259 230 260 C232 260 233 260 235 260 C237 260 238 260 240 260 C241 261 241 263 242 264 C243 265 245 265 246 266 C246 267 246 267 246 268 C248 268 250 268 252 268 C253 269 253 271 254 272 C255 273 257 273 258 274 C258 275 258 275 258 276 C260 276 262 276 264 276 C265 277 265 279 266 280 C267 281 269 281 270 282 C270 283 270 283 270 284 C271 285 273 285 274 286 C274 287 274 287 274 288 C275 289 277 289 278 290 C278 291 278 291 278 292 C279 293 281 293 282 294 C282 295 282 295 282 296 C283 296 284 296 285 296 C285 297 285 298 285 299 C286 303 286 303 290 306 C290 307 290 307 290 308 C291 308 292 308 293 308 C293 309 293 310 293 311 C293 312 293 312 294 315 C295 315 296 316 297 316 C297 318 298 321 298 323 C299 323 300 324 301 324 C301 326 302 329 302 331 C303 331 304 332 305 332 C305 336 306 340 306 344 C306 345 306 346 306 347 C307 347 308 348 309 348 C309 352 309 356 309 360 C309 361 309 362 309 363 C309 366 309 369 309 371 C309 375 309 379 309 383 C309 385 309 388 309 390 C309 391 309 392 309 394 C309 396 309 399 309 402 C308 402 307 403 306 403 C306 405 306 407 306 408 C305 410 305 412 305 414 C304 414 303 415 302 415 C302 416 302 417 302 418 C301 420 301 421 301 422 C300 422 299 423 298 423 C298 424 298 425 298 426 C297 428 297 429 297 430 C296 430 295 431 294 431 C294 432 294 433 294 434 C293 436 293 437 293 438 C292 438 291 439 290 439 C289 443 289 443 289 446 C288 446 287 446 286 446 C285 447 285 449 284 450 C283 450 283 450 282 450 C281 451 281 453 280 454 C279 454 279 455 278 455 C278 457 277 460 277 462 C276 462 275 462 274 462 C272 462 271 462 270 462 C269 463 269 465 268 466 C267 466 267 466 266 466 C265 467 265 469 264 470 C263 470 263 470 262 470 C261 471 261 473 260 474 C259 474 259 474 258 474 C257 475 257 477 256 478 C254 478 252 478 250 478 C249 479 249 481 248 482 C247 482 247 482 246 482 C245 483 245 485 244 486 C242 486 240 486 238 486 C237 487 237 489 236 490 C233 490 229 490 226 490 C225 491 225 493 224 494 C221 494 217 494 214 494 C213 495 213 497 212 498 C208 498 205 499 201 499 C200 499 199 499 198 499 C196 499 194 499 191 499 C188 499 185 499 181 499 C179 499 177 499 175 499 C174 499 173 499 171 499 C169 499 169 499 164 498 C163 497 163 495 162 494 C160 494 159 494 157 494 C155 494 154 494 152 494 C151 493 151 491 150 490 C148 490 147 490 145 490 C143 490 142 490 140 490 C139 489 139 487 138 486 C136 486 133 486 131 486 C131 485 130 484 130 483 C127 482 127 482 124 482 C123 482 122 482 121 482 C120 482 119 482 118 482 C117 483 117 485 116 486 C113 487 113 487 110 487 C110 488 110 490 110 491 C112 491 113 491 115 491 C117 491 118 492 120 492 C121 493 121 495 122 496 C125 496 129 496 132 496 C133 497 133 498 134 499 C135 499 137 499 138 499 C139 498 139 497 140 496 C142 496 143 497 145 497 C145 498 146 499 146 500 C148 500 149 500 151 500 C153 500 154 500 156 500 C157 501 157 503 158 504 C162 504 162 504 166 504 C168 504 170 504 172 504 C175 504 179 504 182 504 C184 504 186 503 188 503 C189 503 191 503 192 503 C194 504 195 504 196 504 C197 507 197 507 198 511 C199 511 200 512 201 512 C201 517 201 517 201 522 C199 522 197 522 196 522 C195 522 195 522 190 522 C189 523 189 525 188 526 C183 526 179 526 174 526 C173 526 173 526 170 526 C169 527 169 529 168 530 C164 530 164 530 159 530 C157 530 155 530 153 530 C149 530 145 530 141 530 C139 530 137 530 135 530 C134 530 134 530 130 530 C129 530 127 530 126 530 C125 531 125 533 124 534 C120 534 120 534 114 534 C113 534 113 534 111 534 C106 534 102 534 98 534 C95 534 91 534 88 534 C87 534 87 534 82 534 C81 534 80 534 78 534 C77 535 77 537 76 538 C73 539 73 539 68 539 C66 539 65 539 63 539 C62 539 62 539 58 539 C56 539 54 539 52 539 C47 539 42 539 37 539 C34 539 31 539 28 539 C22 539 16 539 10 539 C9 539 7 539 5 539 C4 539 4 539 -0 539 C-2 539 -3 539 -5 539 C-6 538 -7 538 -8 538 C-9 537 -9 535 -10 534 C-13 534 -13 534 -17 534 C-18 534 -20 534 -21 534 C-22 534 -22 534 -26 534 C-28 534 -30 534 -31 534 C-37 534 -42 534 -47 534 C-54 534 -61 534 -68 534 C-68 534 -68 534 -73 534 C-74 534 -75 534 -77 534 C-78 534 -80 534 -81 534 C-82 534 -83 534 -84 534 C-85 533 -85 531 -86 530 C-90 530 -95 530 -99 530 C-103 530 -108 530 -112 530 C-113 529 -113 527 -114 526 C-118 526 -123 526 -127 526 C-131 526 -136 526 -140 526 C-141 525 -141 523 -142 522 C-144 522 -145 522 -147 522 C-149 522 -150 522 -152 522 C-153 521 -153 519 -154 518 C-155 518 -156 517 -157 517 C-157 516 -157 516 -156 512 C-154 512 -152 512 -150 512 C-149 511 -149 509 -148 508 C-144 508 -141 508 -137 508 C-136 508 -135 508 -134 508 C-133 507 -133 505 -132 504 C-129 504 -129 504 -125 503 C-124 503 -123 503 -121 503 C-120 503 -118 503 -117 503 C-114 503 -111 503 -109 503 C-108 503 -108 503 -105 503 C-104 503 -103 503 -102 503 C-101 502 -101 501 -100 500 C-98 500 -97 501 -95 501 C-95 502 -94 502 -94 503 C-93 503 -91 503 -90 503 C-89 502 -89 501 -88 500 C-86 500 -84 500 -82 500 C-81 499 -81 497 -80 496 C-77 496 -73 496 -70 496 C-69 495 -69 493 -68 492 C-65 491 -65 491 -62 491 C-62 490 -62 488 -62 487 C-64 487 -66 487 -67 487 C-69 486 -71 486 -73 486 C-73 486 -73 486 -74 483 C-75 483 -76 482 -78 482 C-79 482 -80 481 -81 481 C-81 481 -81 481 -82 478 C-84 478 -86 478 -88 478 C-89 477 -89 475 -90 474 C-92 474 -94 474 -96 474 C-97 473 -97 471 -98 470 C-100 470 -102 470 -104 470 C-105 469 -105 467 -106 466 C-107 465 -109 465 -110 464 C-110 463 -110 463 -110 462 C-111 461 -113 461 -114 460 C-114 459 -114 459 -114 458 C-118 458 -118 458 -122 458 C-123 459 -123 461 -124 462 C-128 463 -128 463 -132 462 C-133 463 -133 463 -136 463 C-138 462 -139 462 -140 462 C-140 461 -140 461 -142 458 C-143 457 -145 457 -146 456 C-146 455 -146 455 -146 454 C-147 453 -149 453 -150 452 C-150 451 -150 451 -150 450 C-151 450 -152 450 -153 450 C-154 450 -156 450 -157 450 C-158 450 -159 450 -161 450 C-162 450 -163 450 -164 450 C-165 449 -165 447 -166 446 C-167 446 -168 446 -169 446 C-169 445 -169 444 -169 443 C-170 441 -170 440 -170 439 C-171 439 -172 438 -173 438 C-173 436 -174 433 -174 431 C-175 431 -176 430 -177 430 C-177 426 -178 423 -178 419 C-179 419 -180 418 -181 418 C-181 413 -182 408 -182 403 C-182 402 -182 400 -182 399 C-183 399 -184 398 -185 398 C-185 394 -185 391 -185 387 C-185 386 -185 385 -185 384 C-185 381 -185 379 -185 377 C-185 373 -185 369 -185 366 C-185 364 -185 361 -185 359 C-185 358 -185 357 -185 356 C-185 353 -185 351 -185 348 C-184 348 -183 347 -182 347 C-182 343 -182 343 -182 338 C-181 332 -181 332 -181 328 C-180 328 -179 327 -178 327 C-178 325 -178 323 -178 322 C-177 320 -177 318 -177 316 C-176 316 -175 315 -174 315 C-174 313 -174 311 -174 310 C-173 308 -173 306 -173 304 C-172 304 -171 303 -170 303 C-170 301 -170 299 -170 298 C-169 296 -169 294 -169 292 C-168 292 -167 291 -166 291 C-166 290 -166 289 -166 288 C-165 286 -165 285 -165 284 C-164 284 -163 283 -162 283 C-161 279 -161 279 -161 276 C-160 276 -159 276 -158 276 C-158 275 -158 275 -156 272 C-155 272 -155 271 -154 271 C-154 269 -153 266 -153 264 C-152 264 -151 264 -150 264 C-149 263 -149 261 -148 260 C-147 260 -147 259 -146 259 C-146 257 -145 254 -145 252 C-144 252 -143 252 -142 252 C-141 251 -141 249 -140 248 C-139 248 -139 247 -138 247 C-138 246 -138 245 -138 244 C-137 243 -137 243 -137 240 C-136 240 -135 239 -134 239 C-134 237 -134 235 -134 234 C-133 232 -133 230 -133 228 C-132 228 -131 227 -130 227 C-130 226 -130 225 -130 224 C-129 222 -129 221 -129 220 C-128 220 -127 219 -126 219 C-126 217 -126 215 -126 214 C-125 212 -125 210 -125 208 C-124 208 -123 207 -122 207 C-122 204 -122 204 -122 200 C-121 195 -121 195 -121 192 C-120 192 -119 191 -118 191 C-118 187 -118 183 -118 180 C-117 176 -117 172 -117 168 C-116 168 -115 167 -114 167 C-114 163 -114 159 -114 156 C-113 152 -113 148 -113 144 C-112 144 -111 143 -110 143 C-110 139 -110 139 -110 134 C-109 128 -109 128 -109 124 C-108 124 -107 123 -106 123 C-106 121 -106 119 -106 118 C-105 116 -105 114 -105 112 C-104 112 -103 111 -102 111 C-102 109 -102 107 -102 106 C-101 104 -101 102 -101 100 C-100 100 -99 99 -98 99 C-98 97 -98 95 -98 94 C-97 92 -97 90 -97 88 C-96 88 -95 87 -94 87 C-94 86 -94 85 -94 84 C-93 82 -93 81 -93 80 C-92 80 -91 79 -90 79 C-90 75 -89 72 -89 68 C-88 68 -87 68 -86 68 C-86 67 -86 67 -84 64 C-83 64 -83 63 -82 63 C-82 61 -81 58 -81 56 C-80 56 -79 56 -78 56 C-77 55 -77 53 -76 52 C-75 52 -75 52 -74 52 C-73 51 -73 49 -72 48 C-71 48 -71 47 -70 47 C-70 45 -69 42 -69 40 C-68 40 -67 40 -66 40 C-65 39 -65 37 -64 36 C-63 36 -63 36 -62 36 C-61 35 -61 33 -60 32 C-59 32 -59 32 -58 32 C-57 31 -57 29 -56 28 C-55 28 -55 28 -54 28 C-53 27 -53 25 -52 24 C-50 24 -48 24 -46 24 C-45 23 -45 21 -44 20 C-43 20 -43 20 -42 20 C-41 19 -41 17 -40 16 C-38 16 -36 16 -34 16 C-33 15 -33 13 -32 12 C-30 12 -28 12 -26 12 C-25 11 -25 9 -24 8 C-21 8 -17 8 -14 8 C-13 7 -13 5 -12 4 C-9 4 -5 4 -2 4 C-1 3 -1 1 0 0 Z M-59 50 C-75 70 -89 98 -93 123 C-94 126 -94 126 -95 131 C-97 138 -99 146 -100 153 C-100 154 -100 156 -100 157 C-101 163 -102 169 -103 175 C-103 180 -103 180 -105 185 C-106 188 -106 191 -107 194 C-109 203 -111 211 -114 219 C-114 220 -115 221 -115 222 C-117 227 -118 231 -120 236 C-122 240 -122 240 -122 246 C-121 247 -121 248 -120 249 C-119 249 -119 249 -118 249 C-118 250 -119 251 -119 252 C-120 252 -120 252 -123 254 C-123 255 -124 255 -124 256 C-126 257 -127 257 -129 258 C-147 267 -156 296 -163 314 C-168 329 -173 346 -171 362 C-171 362 -171 362 -171 366 C-172 366 -172 367 -173 367 C-173 370 -173 370 -173 375 C-173 377 -172 378 -172 380 C-172 382 -172 383 -172 385 C-172 387 -172 389 -171 390 C-170 403 -169 415 -164 426 C-164 427 -164 428 -163 429 C-161 433 -161 435 -157 437 C-156 437 -154 437 -153 437 C-148 433 -146 427 -144 421 C-143 418 -143 418 -139 414 C-138 418 -138 421 -138 425 C-138 432 -138 439 -137 446 C-133 449 -133 449 -128 449 C-116 441 -111 429 -106 416 C-106 415 -106 414 -106 413 C-104 413 -103 414 -101 414 C-98 415 -98 415 -95 414 C-88 407 -85 397 -82 388 C-82 387 -81 386 -81 385 C-73 362 -70 338 -73 314 C-72 314 -70 313 -69 313 C-69 312 -68 312 -68 311 C-66 312 -66 312 -65 315 C-57 343 -66 382 -79 407 C-83 413 -87 419 -92 425 C-92 425 -92 425 -94 428 C-98 433 -102 436 -106 440 C-108 444 -108 444 -107 449 C-96 460 -73 475 -57 475 C-55 474 -53 473 -51 472 C-49 472 -47 472 -45 472 C-42 475 -42 475 -40 478 C-39 478 -39 478 -38 478 C-38 479 -37 480 -37 481 C-32 483 -28 483 -23 483 C-17 483 -12 483 -6 484 C16 489 40 486 62 482 C65 482 65 482 70 482 C75 482 78 481 82 479 C83 478 85 478 86 477 C87 476 88 476 89 475 C89 474 89 474 89 473 C94 470 97 472 103 473 C103 474 103 474 103 475 C104 475 106 474 107 474 C109 471 109 471 109 468 C107 465 107 465 104 462 C103 462 103 462 102 462 C102 461 101 460 101 459 C100 458 100 458 99 457 C96 454 93 450 91 446 C90 444 88 442 87 440 C69 412 65 377 72 346 C80 314 98 290 124 271 C127 269 130 268 133 266 C135 265 136 264 138 263 C150 256 163 254 176 251 C177 245 176 243 174 237 C167 217 163 197 160 177 C160 176 159 175 159 174 C159 173 159 172 159 170 C159 165 158 161 158 155 C157 154 157 152 157 150 C157 148 156 147 156 145 C156 144 156 144 156 142 C155 136 153 130 152 125 C151 119 150 114 149 108 C145 88 135 64 119 50 C118 50 118 50 117 50 C116 49 116 47 115 46 C97 26 69 13 42 12 C38 12 35 12 31 12 C30 12 29 12 27 12 C-5 12 -36 27 -59 50 Z " fill="#ED4131" transform="translate(210,25)"/>
<path d="M0 0 C4 -0 9 -1 13 -1 C15 -1 16 -1 17 -1 C20 -1 23 -1 26 -1 C30 -1 34 -1 39 -1 C41 -1 44 -1 47 -1 C47 -1 47 -1 51 -1 C54 -1 57 -0 60 0 C60 1 60 1 62 4 C65 4 65 4 69 4 C73 4 73 4 76 4 C77 5 77 7 78 8 C80 8 82 8 84 8 C85 9 85 11 86 12 C88 12 90 12 92 12 C93 13 93 15 94 16 C96 16 98 16 100 16 C101 17 101 19 102 20 C104 20 106 20 108 20 C109 21 109 23 110 24 C111 24 111 24 114 26 C114 27 114 27 114 28 C115 28 115 28 118 30 C118 31 118 31 118 32 C119 33 121 33 122 34 C122 35 122 35 122 36 C123 37 125 37 126 38 C126 39 126 39 126 40 C127 41 129 41 130 42 C130 43 130 43 130 44 C131 45 133 45 134 46 C134 47 134 47 134 48 C135 48 136 48 137 48 C137 49 137 50 137 51 C138 55 138 55 142 58 C142 59 142 59 142 60 C143 60 144 60 145 60 C145 61 145 62 145 63 C146 65 146 66 146 67 C147 67 148 68 149 68 C149 70 150 73 150 75 C151 75 152 76 153 76 C153 80 154 83 154 87 C155 87 156 88 157 88 C157 92 158 95 158 99 C159 99 160 100 161 100 C161 104 162 107 162 111 C163 111 164 112 165 112 C165 117 165 122 166 127 C166 130 166 132 166 135 C167 135 168 136 169 136 C169 142 169 148 170 153 C170 157 170 160 170 163 C171 163 172 164 173 164 C173 167 173 167 173 171 C173 172 173 174 173 175 C173 178 174 181 174 184 C174 185 174 187 174 188 C174 189 174 191 174 192 C174 193 174 194 174 195 C175 195 176 196 177 196 C177 200 178 204 178 208 C178 209 178 210 178 211 C179 211 180 212 181 212 C181 216 182 219 182 223 C183 223 184 224 185 224 C185 226 186 229 186 231 C187 231 188 232 189 232 C189 234 190 237 190 239 C191 240 192 240 193 241 C193 242 193 243 193 244 C194 247 194 247 198 250 C198 251 198 251 198 252 C199 252 201 252 202 252 C204 252 205 252 207 252 C209 252 210 252 212 252 C213 252 215 252 216 252 C217 253 217 255 218 256 C220 256 221 256 223 256 C225 256 226 256 228 256 C229 257 229 259 230 260 C232 260 233 260 235 260 C237 260 238 260 240 260 C241 261 241 263 242 264 C243 265 245 265 246 266 C246 267 246 267 246 268 C248 268 250 268 252 268 C253 269 253 271 254 272 C255 273 257 273 258 274 C258 275 258 275 258 276 C260 276 262 276 264 276 C265 277 265 279 266 280 C267 281 269 281 270 282 C270 283 270 283 270 284 C271 285 273 285 274 286 C274 287 274 287 274 288 C275 289 277 289 278 290 C278 291 278 291 278 292 C279 293 281 293 282 294 C282 295 282 295 282 296 C283 296 284 296 285 296 C285 297 285 298 285 299 C286 303 286 303 290 306 C290 307 290 307 290 308 C291 308 292 308 293 308 C293 309 293 310 293 311 C293 312 293 312 294 315 C295 315 296 316 297 316 C297 318 298 321 298 323 C299 323 300 324 301 324 C301 326 302 329 302 331 C303 331 304 332 305 332 C305 336 306 340 306 344 C306 345 306 346 306 347 C307 347 308 348 309 348 C309 352 309 356 309 360 C309 361 309 362 309 363 C309 366 309 369 309 371 C309 375 309 379 309 383 C309 385 309 388 309 390 C309 391 309 392 309 394 C309 396 309 399 309 402 C308 402 307 403 306 403 C306 405 306 407 306 408 C305 410 305 412 305 414 C304 414 303 415 302 415 C302 416 302 417 302 418 C301 420 301 421 301 422 C300 422 299 423 298 423 C298 424 298 425 298 426 C297 428 297 429 297 430 C296 430 295 431 294 431 C294 432 294 433 294 434 C293 436 293 437 293 438 C292 438 291 439 290 439 C289 443 289 443 289 446 C288 446 287 446 286 446 C285 447 285 449 284 450 C283 450 283 450 282 450 C281 451 281 453 280 454 C279 454 279 455 278 455 C278 457 277 460 277 462 C276 462 275 462 274 462 C272 462 271 462 270 462 C269 463 269 465 268 466 C267 466 267 466 266 466 C265 467 265 469 264 470 C263 470 263 470 262 470 C261 471 261 473 260 474 C259 474 259 474 258 474 C257 475 257 477 256 478 C254 478 252 478 250 478 C249 479 249 481 248 482 C247 482 247 482 246 482 C245 483 245 485 244 486 C242 486 240 486 238 486 C237 487 237 489 236 490 C233 490 229 490 226 490 C225 491 225 493 224 494 C221 494 217 494 214 494 C213 495 213 497 212 498 C208 498 205 499 201 499 C200 499 199 499 198 499 C196 499 194 499 191 499 C188 499 185 499 181 499 C179 499 177 499 175 499 C174 499 173 499 171 499 C169 499 169 499 164 498 C163 497 163 495 162 494 C160 494 159 494 157 494 C155 494 154 494 152 494 C151 493 151 491 150 490 C148 490 147 490 145 490 C143 490 142 490 140 490 C139 489 139 487 138 486 C136 486 133 486 131 486 C131 485 130 484 130 483 C127 482 127 482 124 482 C123 482 122 482 121 482 C120 482 119 482 118 482 C117 483 117 485 116 486 C113 487 113 487 110 487 C110 488 110 490 110 491 C112 491 113 491 115 491 C117 491 118 492 120 492 C121 493 121 495 122 496 C125 496 129 496 132 496 C133 497 133 498 134 499 C135 499 137 499 138 499 C139 498 139 497 140 496 C142 496 143 497 145 497 C145 498 146 499 146 500 C148 500 149 500 151 500 C153 500 154 500 156 500 C157 501 157 503 158 504 C162 504 162 504 166 504 C168 504 170 504 172 504 C175 504 179 504 182 504 C184 504 186 503 188 503 C189 503 191 503 192 503 C194 504 195 504 196 504 C197 507 197 507 198 511 C199 511 200 512 201 512 C201 517 201 517 201 522 C199 522 197 522 196 522 C195 522 195 522 190 522 C189 523 189 525 188 526 C183 526 179 526 174 526 C173 526 173 526 170 526 C169 527 169 529 168 530 C164 530 164 530 159 530 C157 530 155 530 153 530 C149 530 145 530 141 530 C139 530 137 530 135 530 C134 530 134 530 130 530 C129 530 127 530 126 530 C125 531 125 533 124 534 C120 534 120 534 114 534 C113 534 113 534 111 534 C106 534 102 534 98 534 C95 534 91 534 88 534 C87 534 87 534 82 534 C81 534 80 534 78 534 C77 535 77 537 76 538 C73 539 73 539 68 539 C66 539 65 539 63 539 C62 539 62 539 58 539 C56 539 54 539 52 539 C47 539 42 539 37 539 C34 539 31 539 28 539 C22 539 16 539 10 539 C9 539 7 539 5 539 C4 539 4 539 -0 539 C-2 539 -3 539 -5 539 C-6 538 -7 538 -8 538 C-9 537 -9 535 -10 534 C-13 534 -13 534 -17 534 C-18 534 -20 534 -21 534 C-22 534 -22 534 -26 534 C-28 534 -30 534 -31 534 C-37 534 -42 534 -47 534 C-54 534 -61 534 -68 534 C-68 534 -68 534 -73 534 C-74 534 -75 534 -77 534 C-78 534 -80 534 -81 534 C-82 534 -83 534 -84 534 C-85 533 -85 531 -86 530 C-90 530 -95 530 -99 530 C-103 530 -108 530 -112 530 C-113 529 -113 527 -114 526 C-118 526 -123 526 -127 526 C-131 526 -136 526 -140 526 C-141 525 -141 523 -142 522 C-144 522 -145 522 -147 522 C-149 522 -150 522 -152 522 C-153 521 -153 519 -154 518 C-155 518 -156 517 -157 517 C-157 516 -157 516 -156 512 C-154 512 -152 512 -150 512 C-149 511 -149 509 -148 508 C-144 508 -141 508 -137 508 C-136 508 -135 508 -134 508 C-133 507 -133 505 -132 504 C-129 504 -129 504 -125 503 C-124 503 -123 503 -121 503 C-120 503 -118 503 -117 503 C-114 503 -111 503 -109 503 C-108 503 -108 503 -105 503 C-104 503 -103 503 -102 503 C-101 502 -101 501 -100 500 C-98 500 -97 501 -95 501 C-95 502 -94 502 -94 503 C-93 503 -91 503 -90 503 C-89 502 -89 501 -88 500 C-86 500 -84 500 -82 500 C-81 499 -81 497 -80 496 C-77 496 -73 496 -70 496 C-69 495 -69 493 -68 492 C-65 491 -65 491 -62 491 C-62 490 -62 488 -62 487 C-64 487 -66 487 -67 487 C-69 486 -71 486 -73 486 C-73 486 -73 486 -74 483 C-75 483 -76 482 -78 482 C-79 482 -80 481 -81 481 C-81 481 -81 481 -82 478 C-84 478 -86 478 -88 478 C-89 477 -89 475 -90 474 C-92 474 -94 474 -96 474 C-97 473 -97 471 -98 470 C-100 470 -102 470 -104 470 C-105 469 -105 467 -106 466 C-107 465 -109 465 -110 464 C-110 463 -110 463 -110 462 C-111 461 -113 461 -114 460 C-114 459 -114 459 -114 458 C-118 458 -118 458 -122 458 C-123 459 -123 461 -124 462 C-128 463 -128 463 -132 462 C-133 463 -133 463 -136 463 C-138 462 -139 462 -140 462 C-140 461 -140 461 -142 458 C-143 457 -145 457 -146 456 C-146 455 -146 455 -146 454 C-147 453 -149 453 -150 452 C-150 451 -150 451 -150 450 C-151 450 -152 450 -153 450 C-154 450 -156 450 -157 450 C-158 450 -159 450 -161 450 C-162 450 -163 450 -164 450 C-165 449 -165 447 -166 446 C-167 446 -168 446 -169 446 C-169 445 -169 444 -169 443 C-170 441 -170 440 -170 439 C-171 439 -172 438 -173 438 C-173 436 -174 433 -174 431 C-175 431 -176 430 -177 430 C-177 426 -178 423 -178 419 C-179 419 -180 418 -181 418 C-181 413 -182 408 -182 403 C-182 402 -182 400 -182 399 C-183 399 -184 398 -185 398 C-185 394 -185 391 -185 387 C-185 386 -185 385 -185 384 C-185 381 -185 379 -185 377 C-185 373 -185 369 -185 366 C-185 364 -185 361 -185 359 C-185 358 -185 357 -185 356 C-185 353 -185 351 -185 348 C-184 348 -183 347 -182 347 C-182 343 -182 343 -182 338 C-181 332 -181 332 -181 328 C-180 328 -179 327 -178 327 C-178 325 -178 323 -178 322 C-177 320 -177 318 -177 316 C-176 316 -175 315 -174 315 C-174 313 -174 311 -174 310 C-173 308 -173 306 -173 304 C-172 304 -171 303 -170 303 C-170 301 -170 299 -170 298 C-169 296 -169 294 -169 292 C-168 292 -167 291 -166 291 C-166 290 -166 289 -166 288 C-165 286 -165 285 -165 284 C-164 284 -163 283 -162 283 C-161 279 -161 279 -161 276 C-160 276 -159 276 -158 276 C-158 275 -158 275 -156 272 C-155 272 -155 271 -154 271 C-154 269 -153 266 -153 264 C-152 264 -151 264 -150 264 C-149 263 -149 261 -148 260 C-147 260 -147 259 -146 259 C-146 257 -145 254 -145 252 C-144 252 -143 252 -142 252 C-141 251 -141 249 -140 248 C-139 248 -139 247 -138 247 C-138 246 -138 245 -138 244 C-137 243 -137 243 -137 240 C-136 240 -135 239 -134 239 C-134 237 -134 235 -134 234 C-133 232 -133 230 -133 228 C-132 228 -131 227 -130 227 C-130 226 -130 225 -130 224 C-129 222 -129 221 -129 220 C-128 220 -127 219 -126 219 C-126 217 -126 215 -126 214 C-125 212 -125 210 -125 208 C-124 208 -123 207 -122 207 C-122 204 -122 204 -122 200 C-121 195 -121 195 -121 192 C-120 192 -119 191 -118 191 C-118 187 -118 183 -118 180 C-117 176 -117 172 -117 168 C-116 168 -115 167 -114 167 C-114 163 -114 159 -114 156 C-113 152 -113 148 -113 144 C-112 144 -111 143 -110 143 C-110 139 -110 139 -110 134 C-109 128 -109 128 -109 124 C-108 124 -107 123 -106 123 C-106 121 -106 119 -106 118 C-105 116 -105 114 -105 112 C-104 112 -103 111 -102 111 C-102 109 -102 107 -102 106 C-101 104 -101 102 -101 100 C-100 100 -99 99 -98 99 C-98 97 -98 95 -98 94 C-97 92 -97 90 -97 88 C-96 88 -95 87 -94 87 C-94 86 -94 85 -94 84 C-93 82 -93 81 -93 80 C-92 80 -91 79 -90 79 C-90 75 -89 72 -89 68 C-88 68 -87 68 -86 68 C-86 67 -86 67 -84 64 C-83 64 -83 63 -82 63 C-82 61 -81 58 -81 56 C-80 56 -79 56 -78 56 C-77 55 -77 53 -76 52 C-75 52 -75 52 -74 52 C-73 51 -73 49 -72 48 C-71 48 -71 47 -70 47 C-70 45 -69 42 -69 40 C-68 40 -67 40 -66 40 C-65 39 -65 37 -64 36 C-63 36 -63 36 -62 36 C-61 35 -61 33 -60 32 C-59 32 -59 32 -58 32 C-57 31 -57 29 -56 28 C-55 28 -55 28 -54 28 C-53 27 -53 25 -52 24 C-50 24 -48 24 -46 24 C-45 23 -45 21 -44 20 C-43 20 -43 20 -42 20 C-41 19 -41 17 -40 16 C-38 16 -36 16 -34 16 C-33 15 -33 13 -32 12 C-30 12 -28 12 -26 12 C-25 11 -25 9 -24 8 C-21 8 -17 8 -14 8 C-13 7 -13 5 -12 4 C-9 4 -5 4 -2 4 C-1 3 -1 1 0 0 Z M-59 50 C-75 70 -89 98 -93 123 C-94 126 -94 126 -95 131 C-97 138 -99 146 -100 153 C-100 154 -100 156 -100 157 C-101 163 -102 169 -103 175 C-103 180 -103 180 -105 185 C-106 188 -106 191 -107 194 C-109 203 -111 211 -114 219 C-114 220 -115 221 -115 222 C-117 227 -118 231 -120 236 C-122 240 -122 240 -122 246 C-121 247 -121 248 -120 249 C-119 249 -119 249 -118 249 C-118 250 -119 251 -119 252 C-120 252 -120 252 -123 254 C-123 255 -124 255 -124 256 C-126 257 -127 257 -129 258 C-147 267 -156 296 -163 314 C-168 329 -173 346 -171 362 C-171 362 -171 362 -171 366 C-172 366 -172 367 -173 367 C-173 370 -173 370 -173 375 C-173 377 -172 378 -172 380 C-172 382 -172 383 -172 385 C-172 387 -172 389 -171 390 C-170 403 -169 415 -164 426 C-164 427 -164 428 -163 429 C-161 433 -161 435 -157 437 C-156 437 -154 437 -153 437 C-148 433 -146 427 -144 421 C-143 418 -143 418 -139 414 C-138 418 -138 421 -138 425 C-138 432 -138 439 -137 446 C-133 449 -133 449 -128 449 C-116 441 -111 429 -106 416 C-106 415 -106 414 -106 413 C-104 413 -103 414 -101 414 C-98 415 -98 415 -95 414 C-88 407 -85 397 -82 388 C-82 387 -81 386 -81 385 C-73 362 -70 338 -73 314 C-72 314 -70 313 -69 313 C-69 312 -68 312 -68 311 C-66 312 -66 312 -65 315 C-57 343 -66 382 -79 407 C-83 413 -87 419 -92 425 C-92 425 -92 425 -94 428 C-98 433 -102 436 -106 440 C-108 444 -108 444 -107 449 C-96 460 -73 475 -57 475 C-55 474 -53 473 -51 472 C-49 472 -47 472 -45 472 C-42 475 -42 475 -40 478 C-39 478 -39 478 -38 478 C-38 479 -37 480 -37 481 C-32 483 -28 483 -23 483 C-17 483 -12 483 -6 484 C16 489 40 486 62 482 C65 482 65 482 70 482 C75 482 78 481 82 479 C83 478 85 478 86 477 C87 476 88 476 89 475 C89 474 89 474 89 473 C94 470 97 472 103 473 C103 474 103 474 103 475 C104 475 106 474 107 474 C109 471 109 471 109 468 C107 465 107 465 104 462 C103 462 103 462 102 462 C102 461 101 460 101 459 C100 458 100 458 99 457 C96 454 93 450 91 446 C90 444 88 442 87 440 C69 412 65 377 72 346 C80 314 98 290 124 271 C127 269 130 268 133 266 C135 265 136 264 138 263 C150 256 163 254 176 251 C177 245 176 243 174 237 C167 217 163 197 160 177 C160 176 159 175 159 174 C159 173 159 172 159 170 C159 165 158 161 158 155 C157 154 157 152 157 150 C157 148 156 147 156 145 C156 144 156 144 156 142 C155 136 153 130 152 125 C151 119 150 114 149 108 C145 88 135 64 119 50 C118 50 118 50 117 50 C116 49 116 47 115 46 C97 26 69 13 42 12 C38 12 35 12 31 12 C30 12 29 12 27 12 C-5 12 -36 27 -59 50 Z M121 286 C121 287 121 287 121 288 C119 289 118 289 116 290 C114 292 112 294 110 297 C108 299 108 299 105 302 C84 324 79 353 80 383 C80 394 82 404 86 414 C86 415 86 415 87 418 C92 431 101 442 111 453 C112 454 113 456 115 457 C130 471 146 480 166 484 C167 484 167 484 171 485 C198 490 223 482 247 469 C249 468 250 466 252 465 C253 464 254 463 256 462 C278 442 295 418 297 387 C297 383 297 380 297 376 C297 375 297 375 297 372 C297 342 288 318 267 296 C267 296 267 296 265 294 C247 274 220 263 194 262 C168 262 140 267 121 286 Z " fill="#100E11" transform="translate(210,25)"/>
<path d="M0 0 C1 0 3 1 4 1 C23 7 40 18 54 32 C54 33 55 34 55 35 C56 36 58 36 59 37 C76 54 85 80 88 104 C89 109 91 114 92 119 C93 123 94 126 94 130 C94 132 94 133 95 135 C95 137 95 139 96 140 C96 142 96 144 96 146 C97 151 97 151 97 156 C97 160 98 164 99 168 C100 172 100 175 101 179 C103 195 108 210 113 226 C114 229 114 229 114 231 C112 231 111 230 109 230 C109 229 110 227 110 226 C109 225 107 224 106 223 C104 219 104 219 104 216 C100 218 96 219 92 221 C84 222 78 222 71 218 C68 215 68 215 68 213 C67 212 65 212 64 211 C57 207 51 204 48 196 C48 191 49 189 51 184 C52 184 53 183 54 182 C59 183 59 183 63 185 C69 187 76 187 82 185 C86 185 89 185 93 185 C93 184 93 182 93 181 C94 181 94 181 95 181 C95 179 96 178 96 176 C95 176 94 175 93 175 C91 170 91 167 92 161 C92 158 92 154 92 151 C91 151 91 151 90 151 C90 150 90 149 90 148 C90 144 90 144 88 141 C85 137 86 135 86 130 C87 130 87 130 88 130 C88 119 87 110 83 99 C82 99 82 98 81 98 C81 99 80 101 80 102 C77 104 77 104 73 105 C69 104 69 104 66 102 C66 103 67 105 67 106 C64 103 62 101 60 98 C55 94 51 92 44 92 C36 93 32 95 27 101 C23 106 20 111 17 116 C18 116 18 116 19 116 C19 118 19 119 19 121 C20 121 20 121 23 120 C30 121 33 124 38 129 C41 132 42 132 47 132 C51 132 51 132 56 131 C57 131 57 131 60 131 C63 136 63 141 63 147 C61 156 58 162 50 167 C43 172 38 172 30 171 C22 168 18 164 13 157 C12 153 12 149 12 144 C12 142 12 141 12 139 C13 134 14 130 15 125 C10 128 10 128 9 131 C9 133 8 136 8 138 C9 138 11 139 12 139 C11 139 10 140 9 140 C9 142 9 145 9 147 C8 148 8 149 7 150 C7 149 7 147 7 146 C6 146 6 146 5 146 C5 154 6 158 11 164 C11 165 11 165 11 166 C12 166 13 167 14 167 C18 173 19 178 17 185 C14 189 12 190 8 192 C4 194 2 196 -0 201 C-1 202 -1 203 -1 204 C-4 210 -7 216 -12 221 C-20 223 -20 223 -24 222 C-31 217 -35 210 -39 202 C-43 195 -48 189 -54 184 C-55 184 -57 183 -58 183 C-59 183 -61 182 -62 182 C-64 179 -64 179 -64 176 C-65 176 -66 177 -67 177 C-70 178 -73 178 -77 178 C-78 178 -80 179 -81 179 C-81 177 -80 176 -80 174 C-82 174 -83 174 -85 173 C-93 171 -98 168 -103 161 C-107 152 -109 144 -106 135 C-104 132 -104 132 -103 131 C-101 131 -98 131 -96 131 C-89 131 -89 131 -86 129 C-85 128 -85 127 -84 126 C-78 116 -78 116 -72 114 C-69 113 -69 113 -64 116 C-63 117 -61 118 -60 119 C-59 118 -58 118 -57 117 C-63 106 -68 98 -80 93 C-83 93 -83 93 -87 93 C-88 93 -89 93 -91 93 C-98 93 -103 97 -109 102 C-117 111 -121 119 -120 131 C-120 133 -120 135 -120 137 C-120 144 -120 149 -117 156 C-117 158 -118 159 -118 161 C-125 164 -130 164 -137 162 C-149 155 -149 155 -150 149 C-152 148 -153 148 -155 147 C-155 141 -155 141 -155 138 C-155 135 -155 135 -156 132 C-156 131 -156 130 -156 129 C-155 128 -155 128 -152 125 C-152 121 -152 121 -153 117 C-153 117 -153 117 -152 115 C-151 115 -151 115 -150 115 C-150 114 -150 113 -150 112 C-151 112 -153 111 -154 111 C-158 100 -148 83 -144 73 C-128 42 -108 16 -74 3 C-70 2 -66 1 -62 0 C-61 -0 -60 -1 -59 -1 C-41 -6 -18 -5 0 0 Z " fill="#C7CAD4" transform="translate(272,40)"/>
<path d="M0 0 C5 2 8 4 12 8 C13 8 13 8 16 10 C20 14 20 17 21 23 C24 26 24 26 27 28 C29 31 30 33 32 36 C36 38 36 38 39 38 C40 38 40 38 42 37 C43 34 44 31 45 28 C49 23 55 21 61 18 C64 16 64 16 68 13 C72 10 75 11 80 12 C87 14 92 16 97 21 C97 22 97 22 97 23 C99 24 100 24 102 25 C105 26 105 26 107 29 C108 35 108 35 107 40 C106 40 104 41 103 41 C103 44 103 47 103 50 C102 51 102 52 101 53 C101 58 101 61 103 65 C103 68 103 68 103 72 C103 73 103 74 103 76 C103 79 103 81 103 84 C103 93 104 100 106 108 C106 110 107 111 107 113 C110 127 115 139 123 151 C124 152 125 154 126 155 C133 166 133 166 136 168 C136 169 136 169 136 170 C137 171 139 171 140 172 C141 173 142 175 143 176 C142 179 142 179 141 182 C140 182 138 183 137 183 C137 182 137 182 137 181 C135 181 134 180 132 180 C130 180 129 179 127 179 C126 179 126 179 123 181 C123 182 123 182 123 183 C116 187 111 190 103 190 C98 190 93 190 88 191 C67 195 45 196 24 192 C18 191 13 191 8 191 C4 191 1 190 -3 189 C-3 188 -4 187 -4 186 C-5 186 -5 186 -8 184 C-8 183 -8 183 -11 180 C-17 180 -17 180 -20 182 C-25 184 -28 183 -33 181 C-38 179 -44 176 -49 173 C-50 173 -51 172 -52 171 C-60 168 -67 163 -73 157 C-74 152 -74 152 -72 148 C-71 147 -70 146 -68 145 C-63 140 -58 134 -54 128 C-53 127 -52 126 -52 125 C-48 120 -45 115 -43 110 C-41 106 -41 106 -38 105 C-37 105 -37 105 -35 104 C-34 102 -34 102 -34 98 C-33 96 -32 95 -32 93 C-29 89 -29 86 -28 82 C-27 76 -27 76 -25 72 C-24 67 -24 64 -24 59 C-24 52 -24 46 -23 40 C-23 40 -22 39 -22 39 C-22 33 -22 27 -24 21 C-24 21 -25 20 -25 20 C-25 14 -25 14 -21 10 C-21 9 -20 8 -20 7 C-18 4 -18 4 -15 3 C-11 3 -8 4 -4 5 C-4 4 -3 4 -3 3 C-2 3 -2 3 -1 3 C-1 2 -0 1 0 0 Z " fill="#C6C9D3" transform="translate(176,317)"/>
<path d="M0 0 C3 2 5 5 7 7 C8 7 8 7 10 9 C19 18 25 27 30 39 C31 40 32 41 32 42 C36 51 37 58 37 67 C34 64 34 64 32 60 C29 59 29 59 24 59 C24 59 24 59 20 63 C20 65 21 66 21 68 C20 76 17 79 12 84 C4 91 -4 98 -12 104 C-17 107 -17 107 -20 110 C-21 110 -23 109 -25 109 C-25 108 -25 107 -26 106 C-27 106 -28 105 -30 105 C-32 103 -32 103 -35 101 C-35 100 -35 100 -35 99 C-36 99 -37 99 -39 99 C-38 100 -37 101 -36 102 C-29 108 -23 114 -18 121 C-17 122 -16 123 -15 124 C-13 127 -13 127 -13 132 C-14 134 -14 134 -17 137 C-18 138 -18 139 -19 140 C-23 144 -24 144 -31 144 C-38 138 -38 138 -40 134 C-41 133 -42 133 -44 132 C-45 130 -47 128 -49 126 C-62 113 -62 113 -71 111 C-73 113 -75 115 -78 117 C-78 117 -79 117 -80 117 C-80 117 -80 118 -80 119 C-81 121 -83 122 -85 124 C-88 126 -90 128 -92 130 C-92 131 -92 131 -94 132 C-95 134 -97 136 -98 137 C-102 140 -104 143 -108 144 C-113 144 -114 143 -118 140 C-123 133 -123 133 -124 129 C-123 123 -121 121 -117 118 C-115 117 -114 115 -113 114 C-109 110 -106 106 -102 102 C-99 99 -97 97 -95 94 C-94 93 -93 92 -92 91 C-93 82 -96 79 -103 74 C-105 71 -107 69 -110 66 C-110 65 -111 64 -112 63 C-115 60 -117 57 -120 54 C-121 53 -122 52 -123 51 C-124 48 -124 45 -124 42 C-121 39 -121 39 -119 37 C-117 36 -116 34 -115 33 C-111 32 -109 31 -105 33 C-100 37 -96 41 -92 45 C-78 59 -78 59 -72 64 C-66 64 -63 62 -58 58 C-57 57 -56 56 -55 55 C-49 50 -45 45 -40 40 C-37 36 -35 34 -31 32 C-25 32 -22 33 -18 37 C-17 38 -16 39 -16 40 C-15 40 -14 39 -13 39 C-13 38 -14 38 -15 37 C-16 31 -16 28 -13 23 C-9 18 -7 15 -1 14 C1 11 1 11 0 7 C-4 2 -6 -1 -13 -2 C-21 1 -27 9 -32 17 C-32 20 -33 23 -34 26 C-34 26 -34 26 -36 28 C-37 28 -38 28 -40 28 C-40 29 -40 30 -41 31 C-42 31 -44 32 -46 33 C-47 34 -48 35 -49 35 C-56 39 -61 39 -69 36 C-74 34 -77 31 -81 27 C-91 18 -102 14 -115 12 C-120 11 -124 9 -129 7 C-132 6 -132 6 -136 5 C-143 10 -143 10 -145 14 C-143 14 -141 15 -140 16 C-136 19 -133 22 -132 27 C-131 32 -131 36 -134 41 C-140 45 -146 49 -153 52 C-157 54 -161 57 -165 60 C-165 60 -166 60 -167 60 C-168 64 -169 69 -171 73 C-171 75 -171 76 -172 77 C-174 85 -174 91 -172 99 C-171 102 -171 105 -170 109 C-170 112 -170 112 -168 117 C-167 120 -166 124 -166 127 C-165 128 -165 129 -165 130 C-160 130 -158 129 -155 126 C-148 124 -140 125 -134 128 C-132 130 -132 130 -131 133 C-129 133 -128 134 -127 135 C-123 139 -121 141 -120 147 C-121 152 -124 155 -129 158 C-132 159 -136 160 -140 161 C-139 165 -139 167 -136 170 C-123 181 -109 187 -92 190 C-88 191 -88 191 -85 194 C-85 195 -85 196 -85 197 C-110 196 -131 182 -148 164 C-168 142 -178 117 -178 87 C-178 85 -178 84 -178 82 C-178 57 -168 32 -152 13 C-149 11 -147 9 -145 7 C-144 6 -143 5 -142 4 C-140 2 -140 2 -137 1 C-136 0 -136 0 -136 -2 C-98 -36 -37 -32 0 0 Z " fill="#EE4B3A" transform="translate(467.5625,312.16015625)"/>
<path d="M0 0 C7 -1 10 1 16 5 C18 6 19 6 21 7 C23 9 23 9 26 12 C27 13 29 15 30 16 C37 23 42 32 45 42 C45 43 46 45 46 46 C47 47 47 49 48 50 C48 51 49 53 49 54 C50 58 50 60 48 64 C47 64 46 64 45 64 C45 65 45 66 45 67 C46 87 47 106 40 125 C40 126 39 127 39 129 C35 142 30 153 23 164 C17 164 17 164 12 163 C12 164 12 165 12 165 C9 179 1 191 -10 199 C-16 199 -16 199 -19 196 C-20 186 -20 175 -20 165 C-21 165 -22 165 -23 165 C-25 169 -27 174 -28 178 C-30 182 -31 185 -35 187 C-38 187 -38 187 -42 185 C-55 165 -54 139 -55 116 C-54 116 -54 116 -53 116 C-53 115 -53 113 -54 112 C-55 92 -47 68 -39 50 C-38 48 -38 47 -37 45 C-32 35 -28 26 -21 17 C-20 16 -19 14 -18 13 C-14 9 -11 8 -6 6 C-5 5 -5 4 -4 3 C-3 3 -2 2 -1 2 C-1 1 -0 1 0 0 Z " fill="#8F93A1" transform="translate(92,275)"/>
<path d="M0 0 C5 1 5 1 9 4 C10 4 10 4 13 5 C18 6 23 8 29 10 C41 16 41 16 48 16 C54 16 58 19 63 23 C63 24 63 24 63 25 C64 25 64 25 65 25 C66 26 67 27 68 28 C68 29 68 29 68 30 C68 30 68 30 71 31 C72 32 72 34 73 35 C76 43 81 49 88 54 C92 59 94 64 97 70 C99 74 101 75 105 76 C115 76 123 75 131 69 C135 66 135 66 139 66 C140 66 141 67 142 67 C142 68 143 69 143 70 C141 71 140 72 138 73 C137 76 136 80 136 83 C137 83 139 84 140 84 C139 84 138 85 137 85 C137 87 137 90 137 92 C136 93 136 94 135 95 C135 94 135 92 135 91 C134 91 134 91 133 91 C133 99 134 103 139 109 C139 110 139 110 139 111 C140 111 141 112 142 112 C146 118 147 123 145 130 C142 134 140 135 136 136 C132 139 130 141 128 146 C127 147 127 148 127 149 C124 155 121 161 116 166 C108 168 108 168 104 167 C97 162 93 155 89 147 C85 140 80 134 74 129 C73 129 71 128 70 128 C69 128 67 127 66 127 C64 124 64 124 64 121 C64 121 64 121 61 122 C58 123 55 123 51 123 C50 123 48 124 47 124 C47 122 48 121 48 119 C46 119 45 119 43 118 C35 116 30 113 25 106 C21 97 19 89 22 80 C24 77 24 77 25 76 C27 76 30 76 32 76 C39 76 39 76 42 74 C43 73 43 72 44 71 C50 61 50 61 56 58 C59 58 59 58 64 61 C65 62 67 63 68 64 C69 63 70 63 71 62 C65 51 60 43 48 38 C45 38 45 38 41 38 C40 38 39 38 37 38 C30 38 25 42 19 47 C11 56 7 64 8 76 C8 78 8 80 8 82 C8 89 8 94 11 101 C11 103 10 104 10 106 C3 109 -2 109 -9 107 C-21 100 -21 100 -22 94 C-24 93 -25 93 -27 92 C-27 86 -27 86 -27 83 C-27 80 -27 80 -28 76 C-28 76 -28 75 -28 74 C-27 73 -25 71 -24 70 C-24 66 -24 66 -25 62 C-25 61 -24 61 -24 60 C-23 60 -23 60 -22 60 C-22 59 -22 58 -22 57 C-23 57 -25 56 -26 56 C-30 43 -18 24 -13 13 C-9 5 -9 5 -4 2 C-3 2 -2 1 -1 1 C-1 1 -0 0 0 0 Z " fill="#C1C4D0" transform="translate(144,95)"/>
<path d="M0 0 C8 5 12 13 16 21 C15 22 13 23 12 24 C9 22 9 22 6 19 C1 18 0 19 -4 21 C-5 21 -5 21 -6 21 C-7 22 -7 24 -8 25 C-14 35 -14 35 -17 36 C-19 36 -22 36 -24 36 C-28 36 -28 36 -31 36 C-35 41 -34 48 -34 54 C-31 63 -28 69 -20 74 C-16 76 -12 77 -7 77 C-8 79 -8 81 -9 83 C-8 82 -6 82 -5 81 C-3 81 -0 81 2 81 C5 80 5 80 8 79 C8 80 8 81 8 82 C9 84 9 85 10 86 C11 86 12 86 14 86 C19 87 22 90 26 94 C29 98 29 102 28 107 C29 107 29 107 30 107 C31 110 31 110 31 114 C27 118 20 119 15 120 C10 122 6 125 2 127 C-3 130 -6 132 -11 133 C-12 133 -13 134 -14 134 C-14 135 -15 135 -15 136 C-16 136 -16 136 -17 136 C-17 137 -18 138 -18 139 C-26 144 -26 144 -32 144 C-35 143 -35 143 -39 140 C-40 140 -41 141 -42 141 C-42 142 -41 143 -41 144 C-40 147 -40 150 -40 154 C-40 154 -40 154 -40 157 C-40 160 -40 160 -42 163 C-43 163 -43 163 -44 163 C-44 164 -44 164 -44 165 C-45 166 -46 167 -47 168 C-48 171 -49 174 -50 177 C-52 181 -52 181 -56 183 C-56 182 -57 181 -57 180 C-58 180 -58 180 -59 180 C-64 173 -64 173 -64 169 C-66 169 -67 169 -69 169 C-70 167 -71 166 -72 164 C-75 159 -79 155 -83 152 C-84 150 -86 149 -87 148 C-87 147 -87 147 -87 146 C-88 146 -89 145 -90 145 C-94 144 -94 144 -97 142 C-101 139 -105 139 -110 138 C-112 135 -112 135 -112 129 C-111 126 -111 126 -110 123 C-102 107 -98 90 -95 73 C-94 70 -94 70 -93 68 C-93 65 -92 61 -92 58 C-91 53 -90 47 -90 42 C-89 41 -89 39 -89 38 C-88 29 -86 21 -83 13 C-81 14 -80 15 -78 16 C-78 17 -78 18 -78 19 C-79 19 -79 19 -80 19 C-80 21 -80 22 -79 24 C-79 25 -79 27 -79 29 C-80 30 -82 32 -83 33 C-83 37 -82 40 -82 44 C-82 45 -82 47 -83 48 C-83 49 -83 50 -83 51 C-81 52 -80 52 -78 53 C-77 55 -76 56 -75 58 C-68 64 -63 66 -54 67 C-49 66 -49 66 -46 64 C-46 60 -46 58 -48 55 C-49 50 -49 46 -49 41 C-49 40 -49 40 -49 37 C-50 24 -46 16 -38 6 C-28 -4 -13 -9 0 0 Z " fill="#C1C4D0" transform="translate(200,136)"/>
<path d="M0 0 C-1 5 -1 5 -5 8 C-6 8 -8 9 -9 10 C-10 12 -10 12 -10 18 C-6 22 -6 22 -3 22 C1 22 1 22 6 21 C10 20 10 20 15 22 C16 23 16 23 19 25 C24 28 26 29 31 29 C33 28 34 28 36 27 C36 26 36 26 36 25 C42 21 46 22 53 22 C54 22 56 22 57 22 C60 18 60 18 60 14 C59 10 59 10 58 7 C57 7 57 6 56 6 C56 6 56 6 59 5 C60 4 60 3 61 2 C63 2 64 3 66 3 C66 4 67 5 67 6 C69 6 70 6 72 6 C74 6 75 6 77 6 C78 7 78 9 79 10 C83 10 83 10 87 10 C88 10 88 10 93 10 C96 10 100 10 103 10 C105 10 107 9 109 9 C109 9 109 9 113 9 C115 10 116 10 117 10 C118 13 118 13 119 17 C120 17 121 18 122 18 C122 23 122 23 122 28 C120 28 118 28 117 28 C116 28 116 28 111 28 C110 29 110 31 109 32 C104 32 100 32 95 32 C94 32 92 32 91 32 C90 33 90 35 89 36 C85 36 85 36 80 36 C78 36 76 36 74 36 C72 36 72 36 62 36 C60 36 58 36 56 36 C55 36 53 36 51 36 C50 36 48 36 47 36 C46 37 46 39 45 40 C41 40 41 40 35 40 C34 40 34 40 32 40 C27 40 23 40 19 40 C16 40 12 40 9 40 C7 40 5 40 3 40 C2 40 1 40 -1 40 C-2 41 -2 43 -3 44 C-6 45 -6 45 -11 45 C-13 45 -14 45 -16 45 C-17 45 -17 45 -22 45 C-22 45 -22 45 -27 45 C-32 45 -37 45 -42 45 C-45 45 -48 45 -51 45 C-57 45 -63 45 -68 45 C-70 45 -72 45 -74 45 C-75 45 -75 45 -79 45 C-80 45 -80 45 -84 45 C-84 44 -84 44 -87 44 C-87 43 -87 43 -89 40 C-92 40 -92 40 -96 40 C-97 40 -97 40 -100 40 C-101 40 -101 40 -105 40 C-107 40 -109 40 -110 40 C-116 40 -121 40 -126 40 C-133 40 -140 40 -147 40 C-148 40 -150 40 -152 40 C-153 40 -154 40 -156 40 C-157 40 -159 40 -160 40 C-161 40 -162 40 -163 40 C-163 39 -163 39 -165 36 C-169 36 -174 36 -178 36 C-182 36 -187 36 -191 36 C-192 35 -192 33 -193 32 C-197 32 -202 32 -206 32 C-210 32 -215 32 -219 32 C-220 31 -220 29 -221 28 C-223 28 -224 28 -226 28 C-228 28 -229 28 -231 28 C-232 27 -232 25 -233 24 C-234 24 -235 23 -236 23 C-236 21 -235 20 -235 18 C-233 18 -231 18 -229 18 C-228 17 -228 15 -227 14 C-223 14 -220 14 -216 14 C-215 14 -214 14 -213 14 C-212 13 -212 11 -211 10 C-208 10 -208 10 -204 9 C-203 9 -202 9 -200 9 C-199 9 -197 9 -196 9 C-193 9 -190 9 -188 9 C-187 9 -187 9 -184 9 C-183 9 -183 9 -181 9 C-180 8 -180 7 -179 6 C-178 6 -178 6 -174 7 C-174 7 -174 7 -173 9 C-172 9 -171 10 -170 10 C-170 13 -170 17 -170 20 C-166 24 -165 24 -160 24 C-158 24 -157 23 -155 23 C-150 22 -150 22 -146 24 C-145 26 -144 27 -143 29 C-140 32 -140 32 -135 33 C-135 32 -135 32 -135 31 C-132 29 -130 28 -127 26 C-126 25 -125 24 -124 23 C-122 21 -122 21 -119 20 C-113 21 -108 23 -102 25 C-102 24 -102 24 -102 23 C-101 23 -101 23 -97 21 C-96 16 -96 16 -97 11 C-99 10 -100 10 -102 9 C-104 8 -105 7 -107 6 C-107 5 -107 3 -107 2 C-102 1 -102 1 -98 2 C-94 3 -94 3 -89 3 C-82 3 -74 4 -67 5 C-52 6 -37 4 -23 2 C-21 2 -20 2 -18 1 C-1 -0 -1 -0 0 0 Z " fill="#DCDDE4" transform="translate(289,519)"/>
<path d="M0 0 C7 5 13 12 19 18 C24 23 29 27 34 31 C40 31 43 29 47 25 C49 24 50 23 51 22 C56 17 61 12 66 7 C69 3 71 1 75 -1 C80 -1 84 1 88 4 C90 7 90 7 92 10 C92 10 92 10 94 12 C91 17 88 22 84 26 C83 26 83 26 82 26 C81 27 81 29 80 30 C78 32 76 34 74 36 C74 37 74 37 72 40 C69 42 69 42 67 42 C66 43 66 45 65 46 C64 46 64 46 63 46 C62 48 62 49 61 51 C60 52 59 52 58 53 C59 58 61 59 64 62 C66 64 67 65 69 67 C75 74 81 81 88 87 C93 93 93 93 93 99 C91 102 91 102 89 104 C88 105 87 106 86 107 C82 111 81 111 75 111 C67 105 67 105 66 101 C65 101 65 101 62 99 C60 97 58 95 56 93 C43 80 43 80 35 78 C33 80 30 82 28 84 C27 84 27 84 26 84 C26 85 26 85 26 86 C24 88 22 89 20 91 C18 93 16 95 14 97 C13 98 12 99 12 100 C10 101 9 103 7 104 C4 108 2 110 -3 111 C-7 111 -9 110 -12 107 C-18 101 -18 101 -18 96 C-18 90 -15 89 -11 85 C-10 84 -10 84 -8 81 C-4 77 0 73 4 69 C6 66 9 64 11 61 C12 60 13 59 14 58 C12 50 9 46 3 41 C1 38 -2 36 -4 33 C-5 32 -6 31 -7 30 C-9 28 -12 24 -14 21 C-15 20 -16 19 -17 18 C-19 15 -18 12 -18 9 C-16 6 -16 6 -13 4 C-12 3 -10 1 -9 0 C-5 -1 -5 -1 0 0 Z " fill="#FDFBFA" transform="translate(362,345)"/>
<path d="M0 0 C4 4 7 8 11 12 C12 13 13 14 14 15 C15 18 15 20 16 23 C17 23 17 23 18 23 C20 28 20 33 20 38 C20 39 20 40 20 42 C21 44 21 47 21 50 C20 50 20 50 19 50 C19 51 19 52 19 53 C17 64 12 71 4 78 C3 78 3 78 2 78 C2 79 2 79 2 80 C-3 82 -8 82 -13 82 C-24 82 -24 82 -29 83 C-29 84 -29 84 -30 87 C-32 93 -36 95 -41 99 C-44 102 -44 102 -46 104 C-46 105 -45 107 -45 108 C-43 109 -42 110 -40 111 C-36 115 -33 118 -31 124 C-30 128 -30 128 -28 130 C-24 132 -20 133 -16 134 C-8 137 0 141 8 146 C8 147 8 147 8 148 C10 148 13 149 15 149 C15 150 15 150 15 151 C11 153 11 153 8 153 C8 154 8 154 8 155 C4 158 0 161 -4 164 C-8 166 -10 168 -13 171 C-13 170 -14 170 -14 169 C-15 169 -15 169 -18 168 C-25 165 -32 161 -36 155 C-36 154 -37 152 -37 151 C-39 145 -41 144 -47 141 C-52 139 -56 138 -61 138 C-62 137 -63 137 -64 136 C-68 134 -72 135 -76 136 C-76 134 -76 133 -76 131 C-77 131 -77 130 -78 130 C-76 129 -75 129 -73 128 C-63 124 -60 114 -56 105 C-56 104 -55 103 -55 102 C-55 102 -55 102 -52 101 C-52 101 -52 101 -51 98 C-44 94 -44 94 -41 94 C-38 88 -39 82 -41 76 C-43 73 -43 73 -47 69 C-52 64 -51 59 -51 52 C-51 52 -51 52 -48 53 C-48 52 -48 50 -48 49 C-48 48 -48 48 -48 44 C-48 43 -48 41 -48 39 C-48 35 -48 35 -44 31 C-43 31 -42 31 -41 31 C-41 32 -41 32 -41 37 C-42 39 -42 41 -42 44 C-42 45 -42 46 -42 47 C-42 48 -43 50 -43 51 C-43 52 -43 53 -43 54 C-43 61 -41 65 -37 70 C-29 76 -22 77 -12 76 C-4 72 2 67 5 58 C6 51 6 44 4 37 C3 37 1 38 0 38 C-7 39 -11 40 -18 36 C-19 35 -21 33 -22 32 C-27 28 -31 27 -37 27 C-37 27 -37 27 -38 24 C-38 23 -37 23 -37 22 C-38 22 -38 22 -39 22 C-35 12 -28 3 -19 -2 C-12 -4 -7 -3 0 0 Z " fill="#C7CAD4" transform="translate(328,134)"/>
<path d="M0 0 C4 2 4 2 5 5 C5 6 5 7 6 8 C7 14 7 14 8 16 C8 18 8 21 8 23 C8 24 8 24 8 27 C8 30 8 30 7 32 C6 32 6 32 5 32 C7 42 7 42 10 46 C10 50 10 50 9 53 C10 53 10 53 11 53 C12 58 12 62 11 67 C11 72 11 72 13 77 C14 77 14 78 15 78 C15 80 15 82 15 84 C15 84 15 84 12 83 C12 84 12 86 12 87 C8 88 5 88 1 88 C-0 88 -2 89 -3 89 C-12 89 -17 88 -25 85 C-30 87 -30 88 -32 93 C-32 98 -31 100 -28 104 C-28 105 -28 105 -28 106 C-27 107 -25 107 -24 108 C-18 111 -13 115 -8 120 C-3 124 5 123 11 122 C16 120 16 120 19 118 C20 118 22 118 23 118 C25 122 25 122 25 125 C27 126 28 126 30 127 C30 128 29 130 29 131 C31 132 32 132 34 133 C34 135 33 136 33 138 C29 139 29 139 23 140 C14 141 7 143 -0 148 C-3 149 -3 149 -8 149 C-8 148 -8 147 -8 146 C-11 145 -14 145 -17 144 C-18 143 -18 142 -19 141 C-22 140 -25 138 -28 137 C-30 136 -32 135 -34 134 C-39 131 -44 130 -49 129 C-52 127 -54 126 -57 123 C-57 122 -57 121 -58 119 C-60 113 -62 111 -67 106 C-68 105 -70 105 -71 104 C-71 103 -72 101 -72 100 C-70 98 -70 98 -67 95 C-66 94 -64 92 -63 91 C-59 88 -59 88 -57 88 C-57 86 -56 85 -56 83 C-54 79 -54 79 -51 78 C-46 77 -42 77 -37 77 C-27 77 -27 77 -23 76 C-23 75 -23 75 -23 74 C-22 73 -22 73 -19 71 C-12 64 -9 58 -7 49 C-6 46 -6 46 -5 45 C-5 41 -6 36 -6 32 C-6 31 -6 29 -6 28 C-6 25 -7 22 -7 19 C-8 19 -8 19 -9 19 C-12 13 -12 13 -12 9 C-13 9 -13 9 -14 9 C-14 8 -14 8 -15 4 C-14 4 -13 4 -12 4 C-7 5 -6 5 -1 3 C-1 2 -0 1 0 0 Z " fill="#C1C4D0" transform="translate(353,138)"/>
<path d="M0 0 C6 0 10 1 16 4 C20 8 22 11 24 16 C29 19 34 18 39 17 C46 17 48 20 53 25 C57 26 60 26 64 25 C67 23 69 21 72 19 C75 17 79 18 83 18 C84 18 86 18 87 18 C89 18 90 18 91 18 C91 24 89 29 86 34 C86 35 85 37 84 38 C83 39 83 41 82 42 C81 43 81 44 80 46 C79 46 79 47 78 48 C72 48 72 48 67 47 C67 48 67 49 67 49 C64 63 56 75 45 83 C39 83 39 83 36 80 C35 70 35 59 35 49 C34 49 33 49 32 49 C30 53 28 58 27 62 C25 66 24 69 20 71 C16 71 16 71 13 69 C0 49 1 23 0 0 Z " fill="#7D8295" transform="translate(37,391)"/>
<path d="M0 0 C6 4 10 10 14 16 C14 17 14 17 14 18 C14 18 14 18 17 19 C20 25 22 30 20 37 C17 40 15 42 11 43 C7 45 5 48 2 53 C2 54 2 55 1 56 C-1 62 -4 68 -9 73 C-17 75 -17 75 -21 74 C-29 69 -32 62 -36 54 C-40 48 -44 43 -49 38 C-52 35 -52 35 -52 30 C-50 24 -47 21 -43 16 C-43 15 -43 15 -40 11 C-29 -2 -16 -9 0 0 Z " fill="#160D0F" transform="translate(269.23046875,188.15625)"/>
<path d="M0 0 C3 0 3 0 8 0 C15 0 23 2 31 2 C31 3 31 3 31 3 C29 3 26 3 24 3 C24 4 24 5 24 6 C23 6 23 6 22 6 C22 5 22 4 22 3 C19 3 17 3 14 3 C14 4 14 5 14 6 C15 7 15 7 18 8 C20 11 20 11 20 14 C21 19 22 23 25 26 C25 30 25 30 25 34 C23 35 23 35 18 36 C14 36 14 36 13 37 C40 37 66 37 94 37 C94 39 94 40 94 41 C83 42 72 42 61 42 C56 42 51 42 46 42 C40 42 34 42 29 42 C27 42 25 42 23 42 C21 42 20 42 18 42 C16 42 15 42 13 42 C12 42 11 42 10 41 C10 41 10 41 8 37 C5 37 5 37 1 37 C0 37 0 37 -3 37 C-4 37 -4 37 -8 37 C-10 37 -12 37 -13 37 C-19 37 -24 37 -29 37 C-36 38 -43 38 -50 38 C-51 38 -53 38 -55 38 C-56 38 -58 38 -59 38 C-60 38 -62 38 -63 38 C-64 38 -65 38 -66 37 C-66 37 -66 37 -68 33 C-72 33 -77 33 -81 33 C-85 34 -90 34 -94 33 C-95 32 -95 31 -96 29 C-100 29 -105 29 -109 29 C-113 30 -118 30 -122 29 C-123 28 -123 27 -124 25 C-126 25 -127 25 -129 25 C-131 25 -132 25 -134 25 C-135 24 -135 23 -136 21 C-137 21 -138 21 -139 20 C-139 19 -138 17 -138 15 C-136 15 -134 15 -132 15 C-131 14 -131 13 -130 11 C-126 11 -123 11 -119 12 C-118 12 -117 12 -116 11 C-115 10 -115 9 -114 7 C-111 7 -111 7 -107 7 C-106 7 -105 7 -103 7 C-102 7 -100 7 -99 7 C-96 7 -93 7 -91 7 C-90 7 -90 7 -87 7 C-86 7 -86 7 -84 6 C-83 5 -83 4 -82 3 C-81 4 -81 4 -77 4 C-77 5 -77 5 -76 6 C-75 7 -74 7 -73 7 C-73 11 -73 14 -73 17 C-69 21 -68 21 -63 21 C-61 21 -60 21 -58 20 C-53 19 -53 19 -49 21 C-48 23 -47 25 -46 26 C-43 29 -43 29 -38 30 C-38 30 -38 29 -38 28 C-35 27 -33 25 -30 23 C-29 23 -28 22 -27 21 C-25 18 -25 18 -22 18 C-16 19 -11 21 -5 22 C-5 22 -5 21 -5 20 C-4 20 -4 20 -0 18 C1 13 1 13 -0 8 C-2 8 -3 7 -5 6 C-7 5 -8 4 -10 3 C-10 2 -10 1 -10 -1 C-7 -2 -4 -1 0 0 Z " fill="#D9DBE2" transform="translate(192.02734375,521.52734375)"/>
<path d="M0 0 C4 1 4 1 7 6 C7 6 7 6 8 8 C9 8 9 7 10 7 C11 15 11 22 11 30 C11 32 11 33 11 34 C11 62 0 86 -19 106 C-21 108 -24 110 -26 112 C-25 108 -25 108 -22 104 C-22 103 -22 101 -22 100 C-23 100 -25 99 -26 98 C-32 96 -38 92 -42 87 C-42 85 -42 84 -42 82 C-41 81 -40 80 -39 79 C-38 75 -37 72 -36 68 C-37 68 -37 68 -38 68 C-40 65 -42 62 -44 59 C-45 58 -46 57 -47 56 C-47 56 -47 56 -49 54 C-49 53 -48 52 -48 51 C-47 51 -47 51 -46 51 C-46 50 -45 49 -45 48 C-43 46 -41 45 -38 43 C-32 39 -27 34 -22 29 C-19 27 -17 26 -15 24 C-12 21 -12 21 -9 16 C-9 14 -9 12 -9 11 C-9 5 -9 5 -7 2 C-4 0 -4 0 0 0 Z " fill="#EE4232" transform="translate(496.125,369.875)"/>
<path d="M0 0 C1 5 2 10 2 15 C3 19 3 19 5 23 C11 23 11 23 15 22 C20 25 25 27 30 31 C33 33 33 33 36 32 C40 30 45 28 50 26 C51 25 52 25 53 24 C62 20 62 20 65 15 C65 14 66 13 66 12 C67 9 67 9 70 7 C72 7 73 6 74 6 C75 5 77 4 78 3 C81 3 81 3 85 3 C86 3 87 3 88 3 C92 4 95 5 98 6 C98 7 98 7 98 8 C100 8 101 9 103 9 C110 12 114 15 118 22 C119 22 119 23 120 23 C120 24 120 25 120 26 C119 26 119 26 116 26 C111 27 111 27 106 30 C100 34 94 33 87 32 C79 30 72 29 64 34 C63 35 62 36 61 37 C60 37 60 37 59 37 C59 38 60 39 60 40 C61 40 62 40 63 41 C64 41 65 42 66 42 C68 46 68 49 68 54 C66 56 66 56 63 58 C56 58 53 56 46 53 C43 51 43 51 37 51 C34 53 34 53 32 55 C27 58 27 58 23 58 C20 57 20 57 18 54 C18 53 18 52 17 51 C16 46 13 43 10 39 C9 37 8 36 7 34 C4 30 4 30 -1 27 C-5 27 -5 27 -10 27 C-18 27 -23 27 -29 22 C-30 22 -30 22 -34 20 C-35 21 -36 21 -37 22 C-35 18 -35 18 -33 16 C-30 13 -30 13 -29 10 C-26 5 -24 3 -19 1 C-18 2 -18 2 -17 3 C-16 3 -16 2 -15 2 C-15 3 -15 3 -15 4 C-14 4 -14 4 -13 4 C-13 3 -13 3 -13 2 C-12 2 -10 3 -9 3 C-5 0 -5 0 0 0 Z " fill="#C1C4D0" transform="translate(202,50)"/>
<path d="M0 0 C7 -1 10 1 16 5 C17 5 17 5 21 7 C23 9 23 9 26 12 C27 13 29 15 30 16 C38 24 46 37 46 49 C46 50 46 51 46 52 C42 50 40 48 37 45 C37 45 36 44 36 44 C22 45 22 45 17 50 C17 51 16 52 15 53 C13 55 11 56 9 58 C8 59 7 60 6 61 C1 66 -3 67 -10 67 C-19 66 -27 64 -33 58 C-36 53 -36 48 -35 42 C-31 30 -23 16 -13 9 C-12 8 -11 8 -9 7 C-6 6 -6 6 -4 3 C-3 3 -2 2 -1 2 C-1 1 -0 1 0 0 Z " fill="#878DA0" transform="translate(92,275)"/>
<path d="M0 0 C1 0 1 0 5 3 C5 4 5 5 5 6 C4 6 4 6 3 6 C3 8 3 9 4 11 C4 12 4 14 4 16 C3 17 1 19 0 20 C0 24 1 27 1 31 C1 36 0 39 -2 43 C-4 47 -5 51 -5 56 C-4 57 -4 58 -3 59 C-3 61 -3 62 -3 64 C-2 64 -0 64 1 64 C9 64 15 67 22 70 C23 70 24 71 26 71 C38 74 46 80 53 90 C56 95 56 100 56 105 C56 109 58 111 60 114 C60 115 60 115 59 118 C54 116 54 116 50 113 C44 110 44 110 39 110 C36 114 36 114 33 118 C29 120 27 119 23 119 C20 117 17 115 14 113 C5 108 -5 102 -16 102 C-18 106 -18 106 -19 109 C-21 114 -23 119 -26 124 C-27 123 -28 123 -29 122 C-29 116 -29 115 -26 110 C-19 94 -15 77 -12 60 C-11 57 -11 57 -10 55 C-10 52 -9 48 -9 45 C-8 40 -7 34 -7 29 C-6 28 -6 26 -6 25 C-5 16 -3 8 0 0 Z " fill="#C8CBD4" transform="translate(117,149)"/>
<path d="M0 0 C1 1 2 1 3 2 C4 2 6 2 8 2 C15 3 21 6 27 11 C28 14 28 14 29 18 C31 24 35 27 41 30 C44 31 47 33 50 34 C49 39 47 41 43 45 C42 46 41 47 40 49 C38 51 35 54 33 56 C33 56 33 56 32 58 C27 56 26 55 23 51 C20 46 17 43 13 40 C12 40 12 40 8 41 C5 40 3 39 0 38 C-6 36 -11 36 -17 35 C-18 35 -18 34 -19 34 C-25 34 -25 34 -30 37 C-35 39 -35 39 -39 39 C-43 37 -44 34 -46 30 C-47 29 -47 29 -48 28 C-49 23 -49 19 -46 14 C-38 5 -24 0 -12 -0 C-11 -0 -11 -0 -8 0 C-5 -1 -3 -1 0 0 Z " fill="#C1C4D0" transform="translate(264,269)"/>
<path d="M0 0 C8 5 12 13 16 21 C15 22 13 23 12 24 C9 22 9 22 6 19 C1 18 0 19 -4 21 C-5 21 -5 21 -6 21 C-7 22 -7 24 -8 25 C-14 35 -14 35 -17 36 C-19 36 -22 36 -24 36 C-28 36 -28 36 -31 36 C-35 41 -34 48 -34 54 C-31 63 -28 69 -20 74 C-16 76 -12 77 -7 77 C-8 79 -8 81 -9 83 C-9 83 -9 83 -7 84 C-9 84 -12 83 -14 83 C-14 82 -14 81 -14 80 C-15 81 -15 81 -16 82 C-26 81 -33 78 -39 70 C-40 70 -41 69 -42 69 C-48 61 -49 51 -49 41 C-49 40 -49 38 -49 37 C-50 24 -46 16 -38 6 C-28 -4 -13 -9 0 0 Z " fill="#FDFCFC" transform="translate(200,136)"/>
<path d="M0 0 C4 4 7 8 11 12 C12 13 13 14 14 15 C15 18 15 20 16 23 C17 23 17 23 18 23 C20 28 20 33 20 38 C20 39 20 40 20 42 C21 44 21 47 21 50 C20 50 20 50 19 50 C19 51 19 52 19 53 C17 64 12 71 4 78 C3 78 3 78 2 78 C2 79 2 79 2 80 C-5 83 -13 82 -21 81 C-21 80 -21 79 -21 78 C-22 78 -22 77 -23 77 C-21 77 -20 77 -18 77 C-10 76 -4 72 1 66 C6 58 7 49 5 40 C5 39 4 38 4 37 C3 37 3 37 0 38 C-7 39 -11 40 -18 36 C-19 35 -21 33 -22 32 C-27 28 -31 27 -37 27 C-37 26 -38 25 -38 24 C-38 23 -37 23 -37 22 C-38 22 -38 22 -39 22 C-35 12 -28 3 -19 -2 C-12 -4 -7 -3 0 0 Z " fill="#FDFCFC" transform="translate(328,134)"/>
<path d="M0 0 C2 1 3 1 5 2 C6 5 6 5 6 8 C6 9 6 10 6 11 C6 18 5 25 2 31 C-2 34 -6 34 -11 34 C-21 35 -30 38 -37 45 C-38 46 -39 48 -40 49 C-42 48 -43 47 -45 46 C-49 46 -53 47 -57 47 C-61 47 -61 47 -64 45 C-67 42 -68 39 -70 35 C-74 31 -77 31 -82 29 C-81 24 -80 23 -76 21 C-75 21 -74 21 -73 22 C-69 22 -67 21 -64 20 C-63 20 -63 20 -60 18 C-59 18 -58 17 -57 17 C-52 15 -48 14 -43 12 C-38 11 -38 11 -34 9 C-26 7 -19 5 -11 4 C-7 3 -4 2 0 0 Z " fill="#888EA1" transform="translate(125,363)"/>
<path d="M0 0 C7 6 10 14 11 22 C12 34 8 43 1 51 C-7 58 -13 59 -23 58 C-30 56 -34 52 -38 46 C-42 37 -44 29 -41 20 C-39 17 -39 17 -38 16 C-36 16 -33 16 -31 16 C-24 16 -24 16 -21 14 C-20 13 -20 12 -19 11 C-9 -4 -9 -4 0 0 Z " fill="#050407" transform="translate(207,155)"/>
<path d="M0 0 C4 3 4 3 8 7 C16 15 26 19 36 24 C40 27 40 27 43 30 C47 33 49 32 53 32 C55 32 56 32 57 31 C58 31 59 31 60 31 C56 35 52 38 47 40 C46 41 44 41 43 42 C26 50 26 50 17 49 C16 46 16 46 15 43 C10 38 3 38 -3 37 C-11 35 -17 32 -23 27 C-24 26 -25 25 -26 25 C-29 22 -29 21 -30 18 C-28 10 -21 5 -15 0 C-10 -2 -5 -1 0 0 Z " fill="#EF4C3B" transform="translate(400,459)"/>
<path d="M0 0 C1 2 1 3 2 5 C6 8 10 10 14 12 C20 16 26 20 28 27 C27 33 25 36 20 40 C16 42 16 42 12 43 C11 44 9 45 8 46 C7 46 7 46 6 46 C5 47 5 49 4 50 C4 50 3 51 3 51 C-3 51 -8 49 -13 46 C-13 46 -13 46 -16 45 C-23 41 -30 38 -34 30 C-34 24 -33 20 -29 15 C-23 11 -18 8 -12 5 C-1 0 -1 0 0 0 Z " fill="#EF4C3B" transform="translate(349,372)"/>
<path d="M0 0 C7 1 9 4 14 9 C17 12 19 12 23 12 C27 12 27 12 32 11 C34 11 35 11 36 11 C40 16 39 21 39 27 C37 36 34 42 27 47 C20 51 15 52 6 51 C-2 48 -6 44 -10 37 C-12 33 -12 29 -11 24 C-11 22 -11 21 -11 19 C-9 2 -9 2 0 0 Z " fill="#050407" transform="translate(295.5625,160.125)"/>
<path d="M0 0 C1 0 1 0 5 1 C5 1 5 1 6 3 C7 3 8 4 9 4 C9 7 9 11 9 14 C13 18 14 18 19 18 C21 18 22 17 24 17 C29 16 29 16 33 18 C33 19 33 19 35 23 C33 23 32 24 30 24 C30 24 30 24 29 27 C25 28 25 28 22 28 C22 28 22 29 22 29 C23 29 24 29 25 29 C27 29 28 29 30 29 C31 29 31 29 34 29 C36 30 37 30 38 30 C38 31 38 31 40 34 C36 34 32 34 28 34 C28 34 28 34 25 34 C22 34 19 34 16 34 C16 33 16 33 14 30 C10 30 5 30 1 30 C-3 30 -8 30 -12 30 C-13 29 -13 27 -14 26 C-18 26 -23 26 -27 26 C-31 26 -36 26 -40 26 C-41 25 -41 23 -42 22 C-44 22 -45 22 -47 22 C-49 22 -50 22 -52 22 C-53 21 -53 19 -54 18 C-55 18 -56 17 -57 17 C-57 15 -56 14 -56 12 C-54 12 -52 12 -50 12 C-49 11 -49 9 -48 8 C-44 8 -41 8 -37 8 C-36 8 -35 8 -34 8 C-33 7 -33 5 -32 4 C-29 4 -29 4 -25 3 C-24 3 -23 3 -21 3 C-20 3 -18 3 -17 3 C-14 3 -11 3 -9 3 C-8 3 -8 3 -5 3 C-4 3 -3 3 -2 3 C-1 2 -1 1 0 0 Z " fill="#DCDDE4" transform="translate(110,525)"/>
<path d="M0 0 C1 0 1 1 2 1 C2 2 2 3 2 4 C3 5 5 5 6 6 C7 7 8 7 8 8 C13 12 16 13 22 14 C24 14 25 14 27 14 C28 15 28 16 29 17 C29 18 29 18 28 22 C28 25 28 28 28 31 C28 33 28 34 28 36 C28 43 28 49 31 55 C31 57 30 58 30 60 C23 63 18 63 11 61 C-1 54 -1 54 -2 48 C-4 47 -5 47 -7 46 C-7 40 -7 40 -7 37 C-7 34 -7 34 -8 30 C-8 30 -8 29 -8 28 C-7 27 -5 25 -4 24 C-4 20 -4 20 -5 16 C-5 15 -4 15 -4 14 C-3 14 -3 14 -2 14 C-2 13 -2 12 -2 11 C-3 11 -5 10 -6 10 C-6 9 -7 8 -7 7 C-7 6 -6 6 -6 5 C-5 5 -5 5 -4 5 C-4 4 -3 3 -3 2 C-2 2 -1 2 0 2 C0 1 0 1 0 0 Z " fill="#C2C5D1" transform="translate(124,141)"/>
<path d="M0 0 C0 1 0 1 0 2 C2 2 5 3 7 3 C5 5 5 5 2 6 C1 11 1 11 1 16 C4 19 4 19 7 20 C8 20 9 21 10 21 C10 22 10 23 10 24 C21 24 21 24 24 22 C27 21 29 21 32 21 C34 20 35 20 37 20 C41 20 44 21 48 23 C49 23 49 23 52 24 C54 23 55 21 57 20 C62 19 63 19 68 22 C70 24 70 24 70 30 C66 31 63 31 59 31 C53 31 53 31 50 34 C46 35 42 35 37 35 C37 35 37 35 33 35 C31 35 29 35 28 35 C26 35 24 35 23 35 C17 35 12 35 6 35 C3 35 -1 35 -5 35 C-14 35 -23 35 -32 35 C-31 34 -31 33 -30 32 C-26 32 -23 31 -19 31 C-19 30 -20 29 -20 28 C-20 26 -20 25 -20 23 C-21 22 -22 20 -23 19 C-23 17 -24 14 -24 12 C-25 11 -25 10 -26 9 C-26 8 -25 8 -25 7 C-28 4 -29 4 -33 4 C-32 4 -31 3 -30 3 C-30 2 -30 1 -30 0 C-27 0 -25 0 -22 0 C-22 1 -22 2 -22 3 C-21 3 -21 3 -20 3 C-20 2 -20 1 -20 0 C-13 -1 -7 -1 0 0 Z " fill="#C7CAD4" transform="translate(236,525)"/>
<path d="M0 0 C4 2 4 2 5 5 C5 6 5 7 6 8 C7 14 7 14 8 16 C8 18 8 21 8 23 C8 24 8 24 8 27 C8 30 8 30 7 32 C6 32 6 32 5 32 C7 42 7 42 10 46 C10 50 10 50 9 53 C10 53 10 53 11 53 C12 58 12 62 11 67 C11 72 11 72 13 77 C13 77 13 77 15 78 C15 80 15 82 15 84 C10 82 10 82 7 79 C4 79 4 79 -0 78 C-5 78 -10 78 -15 77 C-18 77 -20 77 -23 77 C-23 76 -23 75 -23 74 C-22 73 -21 72 -19 71 C-12 64 -9 58 -7 49 C-6 46 -6 46 -5 45 C-5 41 -6 36 -6 32 C-6 31 -6 31 -6 28 C-6 25 -7 22 -7 19 C-8 19 -8 19 -9 19 C-12 13 -12 13 -12 9 C-13 9 -13 9 -14 9 C-14 8 -14 8 -15 4 C-14 4 -13 4 -12 4 C-7 5 -6 5 -1 3 C-1 2 -0 1 0 0 Z " fill="#BDC0CC" transform="translate(353,138)"/>
<path d="M0 0 C3 2 3 2 6 5 C6 9 5 12 3 16 C2 23 1 29 5 35 C5 36 6 37 6 38 C7 39 9 39 10 40 C13 42 16 43 19 45 C21 45 22 46 24 47 C28 50 31 53 33 58 C29 62 29 62 25 64 C15 63 7 58 -1 54 C-2 54 -3 53 -4 52 C-12 49 -19 44 -25 38 C-26 33 -26 33 -24 29 C-23 29 -23 29 -20 26 C-12 19 -6 9 0 0 Z " fill="#B1B3BA" transform="translate(128,436)"/>
<path d="M0 0 C3 -0 3 -0 6 1 C7 2 7 4 8 5 C10 10 10 10 14 12 C14 12 14 12 17 13 C20 16 21 18 22 22 C21 23 21 25 20 26 C31 27 38 22 47 17 C50 15 50 15 52 15 C52 14 53 13 53 12 C54 12 55 12 56 12 C56 12 56 12 55 9 C58 7 58 7 63 8 C63 8 63 8 64 11 C65 12 67 12 68 13 C69 14 70 16 71 17 C70 20 70 20 69 23 C68 23 66 24 65 24 C65 23 65 23 65 22 C63 22 62 21 60 21 C58 21 57 20 55 20 C54 21 52 21 51 22 C51 23 51 23 51 24 C43 29 37 31 27 31 C26 31 26 31 23 29 C17 28 12 28 5 29 C4 29 3 29 2 29 C1 28 1 28 0 27 C-3 27 -7 27 -10 27 C-21 27 -21 27 -24 26 C-26 21 -26 21 -25 17 C-22 11 -18 6 -12 4 C-11 4 -11 5 -10 5 C-7 5 -7 5 -3 5 C-2 3 -1 2 0 0 Z " fill="#C1C4D0" transform="translate(248,476)"/>
<path d="M0 0 C1 0 1 0 2 0 C2 1 2 1 2 2 C3 2 4 2 5 2 C5 3 5 3 5 4 C7 4 9 4 11 4 C18 4 23 6 29 11 C36 19 36 19 38 25 C36 28 34 31 31 33 C29 36 29 36 28 40 C27 41 27 42 26 43 C16 44 8 39 0 33 C-2 31 -2 31 -3 28 C-7 30 -7 30 -8 32 C-9 32 -9 32 -10 32 C-10 25 -8 20 -6 13 C-5 12 -4 10 -4 8 C-2 4 -2 4 0 0 Z " fill="#C9CCD5" transform="translate(128,114)"/>
<path d="M0 0 C1 4 1 8 1 12 C1 14 1 15 1 16 C1 19 1 19 0 25 C-5 27 -5 27 -10 27 C-11 28 -11 30 -12 31 C-13 31 -13 31 -14 31 C-14 32 -15 33 -15 34 C-23 39 -28 42 -38 42 C-39 42 -39 42 -43 42 C-47 42 -49 41 -52 38 C-52 37 -51 36 -51 35 C-52 35 -53 34 -54 34 C-54 33 -54 31 -54 30 C-53 30 -52 29 -51 29 C-51 28 -51 26 -51 25 C-51 25 -50 24 -50 24 C-49 24 -49 24 -47 25 C-40 25 -35 22 -29 18 C-27 15 -27 15 -26 12 C-25 8 -25 8 -22 5 C-20 4 -17 3 -14 2 C-4 -1 -4 -1 0 0 Z " fill="#C1C4D0" transform="translate(270,386)"/>
<path d="M0 0 C5 0 7 -0 12 -2 C13 0 13 0 12 5 C5 21 -5 35 -19 46 C-18 42 -18 42 -15 38 C-15 37 -15 35 -15 34 C-16 33 -18 33 -19 32 C-25 30 -30 26 -35 21 C-35 19 -35 18 -35 16 C-34 15 -33 14 -32 13 C-32 11 -31 10 -31 8 C-29 3 -28 2 -23 -1 C-15 -4 -8 -4 0 0 Z " fill="#EF4C3B" transform="translate(489,436)"/>
<path d="M0 0 C3 1 5 3 8 5 C12 7 16 6 21 6 C24 9 24 9 24 12 C21 19 14 24 8 28 C-4 38 -4 38 -7 44 C-11 42 -11 42 -15 39 C-15 38 -15 38 -15 37 C-16 37 -17 36 -18 36 C-21 35 -21 35 -25 31 C-25 30 -25 30 -25 29 C-26 28 -28 28 -29 27 C-28 23 -28 23 -24 19 C-22 18 -21 18 -19 17 C-15 14 -11 10 -8 6 C-5 3 -5 3 0 0 Z " fill="#EF5542" transform="translate(448,374)"/>
<path d="M0 0 C6 0 7 1 11 5 C12 9 12 12 12 16 C8 21 3 26 -2 31 C-3 33 -5 34 -6 36 C-10 39 -12 40 -17 40 C-22 37 -26 33 -29 28 C-29 25 -29 25 -29 21 C-26 17 -23 15 -19 13 C-18 13 -16 13 -15 13 C-15 12 -14 11 -14 10 C-11 9 -9 7 -6 6 C-3 3 -3 3 -1 1 C-1 1 -0 0 0 0 Z " fill="#FCF6F5" transform="translate(373,416)"/>
<path d="M0 0 C20 10 20 10 25 18 C26 21 26 21 25 26 C21 32 17 35 10 37 C9 38 7 39 6 40 C-0 37 -5 34 -8 28 C-10 23 -12 18 -10 12 C-7 8 -7 8 -3 4 C-2 3 -1 1 0 0 Z " fill="#EF5542" transform="translate(351,378)"/>
<path d="M0 0 C3 2 3 2 6 4 C7 5 8 5 8 6 C11 8 13 10 15 13 C15 14 16 15 17 16 C18 19 18 19 19 24 C18 24 18 24 17 24 C17 25 17 25 17 26 C12 28 9 28 4 28 C2 28 0 28 -2 29 C-7 29 -9 29 -14 26 C-19 24 -19 24 -23 23 C-23 23 -23 23 -26 22 C-26 21 -27 20 -27 19 C-25 16 -25 16 -22 12 C-21 11 -20 10 -19 8 C-13 2 -9 -1 0 0 Z " fill="#F5B127" transform="translate(258,195)"/>
<path d="M0 0 C3 2 3 2 6 7 C11 9 11 9 15 8 C21 9 24 13 28 18 C30 21 30 21 30 26 C28 28 28 28 26 31 C25 32 24 33 24 33 C19 37 19 38 12 38 C5 32 5 32 3 28 C2 27 1 26 -1 26 C-3 23 -3 23 -5 20 C-5 19 -6 18 -7 17 C-9 12 -10 10 -10 5 C-6 1 -5 -1 0 0 Z " fill="#FCF5F4" transform="translate(424.6875,418.375)"/>
<path d="M0 0 C11 9 18 21 23 34 C23 35 23 36 23 37 C21 36 20 36 18 35 C15 36 13 38 10 39 C2 40 -4 37 -11 33 C-14 28 -15 24 -14 19 C-12 14 -9 11 -4 8 C-3 8 -3 8 -2 8 C-1 5 -1 3 0 0 Z " fill="#F05642" transform="translate(477,322)"/>
<path d="M0 0 C3 2 5 4 8 7 C9 8 10 9 11 10 C13 11 14 12 15 14 C16 14 16 14 18 17 C21 20 21 20 21 25 C22 25 22 25 23 25 C23 28 23 28 22 31 C18 34 18 34 12 34 C12 34 12 34 10 32 C7 30 7 30 3 29 C-2 28 -6 26 -10 23 C-11 22 -12 22 -13 21 C-16 20 -16 20 -18 16 C-18 13 -18 13 -18 9 C-16 6 -16 6 -13 4 C-12 3 -10 1 -9 0 C-5 -1 -5 -1 0 0 Z " fill="#FCF6F5" transform="translate(362,345)"/>
<path d="M0 0 C5 0 5 0 8 2 C12 6 17 7 22 9 C28 12 31 16 33 23 C29 27 29 27 26 27 C25 27 24 27 22 27 C16 26 16 26 14 27 C10 28 5 28 1 27 C-3 23 -5 20 -7 15 C-8 14 -9 13 -10 12 C-9 10 -9 9 -8 7 C-7 7 -5 6 -4 6 C-1 4 -1 4 0 0 Z " fill="#C1C4D0" transform="translate(139,425)"/>
<path d="M0 0 C4 1 4 1 6 5 C8 9 8 12 7 17 C8 17 9 18 10 18 C14 22 14 24 14 29 C14 30 13 30 13 31 C12 31 12 31 11 31 C10 35 10 35 10 37 C12 37 15 37 17 37 C17 36 17 35 17 34 C18 34 20 35 21 35 C19 41 15 45 11 50 C7 54 6 59 4 65 C1 65 1 65 -3 64 C-4 61 -4 61 -5 58 C-5 58 -5 58 -8 59 C-11 60 -14 60 -18 60 C-19 60 -19 60 -22 61 C-21 56 -21 56 -18 54 C-17 54 -16 54 -15 53 C-7 50 -2 44 2 36 C6 27 5 18 1 9 C1 8 0 7 -0 6 C-1 3 -1 3 0 0 Z " fill="#D8DAE2" transform="translate(213,158)"/>
<path d="M0 0 C1 0 2 0 3 0 C3 2 3 4 3 6 C2 8 2 10 2 13 C2 14 2 15 2 16 C2 17 2 17 1 20 C1 21 1 22 1 23 C1 30 3 34 7 39 C12 43 17 45 23 47 C23 48 22 50 22 51 C20 51 17 52 15 52 C15 53 14 55 14 56 C12 62 8 64 3 68 C-2 73 -6 78 -10 84 C-11 85 -11 85 -12 87 C-13 87 -13 87 -14 87 C-15 88 -15 90 -16 91 C-17 91 -17 91 -20 92 C-18 87 -15 81 -13 76 C-12 75 -12 74 -11 72 C-11 72 -10 71 -10 70 C-9 70 -9 70 -8 70 C-8 69 -7 68 -7 67 C0 63 0 63 3 63 C6 57 5 51 3 45 C1 42 1 42 -3 38 C-8 33 -7 28 -7 21 C-6 21 -5 22 -4 22 C-4 21 -4 19 -4 18 C-4 17 -4 15 -4 13 C-4 12 -4 10 -4 8 C-4 4 -4 4 0 0 Z " fill="#D0D3DC" transform="translate(284,165)"/>
<path d="M0 0 C2 0 3 1 5 1 C6 1 6 0 7 0 C14 0 21 1 28 3 C29 3 29 3 30 3 C30 2 31 2 31 1 C31 4 32 7 32 10 C33 13 33 13 35 18 C35 19 35 19 34 23 C27 26 22 26 15 24 C3 17 3 17 2 11 C1 10 -1 10 -2 9 C-2 2 -2 2 0 0 Z " fill="#C7CAD4" transform="translate(120,178)"/>
<path d="M0 0 C1 0 1 0 2 0 C6 11 8 23 10 35 C10 37 10 39 10 41 C11 46 11 46 11 51 C11 55 12 59 13 63 C14 67 14 70 15 74 C16 84 19 94 22 104 C23 108 23 108 23 111 C20 111 20 111 17 110 C16 105 16 105 15 100 C14 99 14 98 13 97 C13 96 12 94 12 92 C11 88 11 88 8 85 C7 80 7 80 7 76 C8 76 8 76 9 76 C9 74 10 73 10 71 C9 71 8 70 7 70 C5 65 5 62 6 56 C6 53 6 49 6 46 C5 46 5 46 4 46 C4 45 4 44 4 43 C4 39 4 39 2 36 C-1 32 -0 30 0 25 C1 25 1 25 2 25 C2 22 2 20 2 17 C2 17 2 17 2 13 C2 9 2 9 0 4 C0 3 0 1 0 0 Z " fill="#CACDD6" transform="translate(358,145)"/>
<path d="M0 0 C1 -0 1 -0 4 -0 C8 0 8 0 11 3 C9 8 5 11 1 14 C0 15 -1 16 -2 16 C-2 17 -2 18 -2 19 C2 21 6 23 11 24 C12 25 13 25 14 25 C14 26 14 26 15 29 C10 33 9 33 4 32 C0 32 0 32 -3 30 C-3 29 -4 28 -4 27 C-5 27 -7 26 -8 25 C-9 24 -10 23 -11 21 C-13 21 -14 21 -16 20 C-16 19 -17 18 -17 16 C-18 15 -18 14 -19 13 C-18 8 -17 6 -13 2 C-8 0 -5 0 0 0 Z " fill="#BFC2CE" transform="translate(176.125,475.6875)"/>
<path d="M0 0 C0 1 0 2 0 3 C1 3 2 2 3 2 C3 3 3 3 3 4 C1 6 -2 7 -4 8 C-33 25 -54 51 -62 83 C-63 87 -64 90 -64 94 C-64 95 -65 96 -65 98 C-66 98 -66 98 -67 98 C-69 94 -69 91 -69 86 C-68 85 -68 84 -67 83 C-67 81 -67 80 -67 78 C-67 78 -67 78 -67 74 C-66 74 -66 74 -62 73 C-62 72 -62 70 -63 69 C-63 64 -63 64 -62 62 C-61 62 -61 62 -60 62 C-59 60 -59 59 -58 57 C-54 48 -49 40 -41 33 C-39 31 -37 28 -35 25 C-33 23 -31 20 -28 18 C-27 18 -27 18 -26 18 C-26 18 -26 18 -25 15 C-23 13 -23 13 -20 12 C-16 9 -14 8 -11 5 C-10 5 -10 5 -9 5 C-9 4 -9 4 -9 3 C-3 0 -3 0 0 0 Z " fill="#D8DAE2" transform="translate(345,284)"/>
<path d="M0 0 C0 1 1 1 1 2 C1 3 0 3 0 4 C1 4 1 5 2 5 C2 4 3 3 3 2 C6 0 9 1 12 1 C15 4 15 4 17 9 C17 12 17 12 14 17 C9 20 9 20 4 20 C2 20 1 21 -1 21 C-2 26 -2 26 -3 31 C-6 32 -6 32 -9 32 C-13 30 -13 30 -15 27 C-16 23 -16 23 -14 19 C-15 19 -16 18 -17 18 C-16 17 -16 17 -15 16 C-10 11 -5 6 0 0 Z " fill="#FCF3F2" transform="translate(431,348)"/>
<path d="M0 0 C1 0 1 1 2 1 C2 2 2 3 2 4 C1 4 1 4 0 4 C0 5 0 5 0 6 C-1 6 -1 6 -2 6 C-1 11 -1 11 2 14 C5 18 5 18 6 22 C5 26 3 27 0 30 C-4 32 -7 34 -12 35 C-16 37 -19 39 -23 42 C-24 41 -24 41 -25 40 C-22 26 -12 9 0 0 Z " fill="#F05642" transform="translate(320,322)"/>
<path d="M0 0 C0 0 0 0 2 3 C1 8 -0 9 -4 12 C-10 14 -16 15 -22 13 C-27 10 -29 8 -31 2 C-31 -1 -31 -1 -30 -4 C-19 -7 -10 -7 0 0 Z " fill="#EE4232" transform="translate(423,298)"/>
<path d="M0 0 C-1 5 -1 5 -4 10 C-4 12 -4 13 -4 15 C-6 18 -7 20 -10 21 C-12 21 -14 21 -16 21 C-17 21 -19 21 -20 21 C-23 21 -23 21 -28 18 C-33 18 -33 18 -38 19 C-38 20 -39 21 -39 22 C-40 22 -42 21 -43 21 C-34 11 -14 -4 0 0 Z " fill="#F05642" transform="translate(374,291)"/>
<path d="M0 0 C1 0 1 0 2 0 C2 1 2 1 2 2 C4 2 5 1 7 1 C9 5 8 10 8 14 C8 14 7 15 7 15 C7 17 7 20 6 22 C6 24 6 25 6 27 C6 30 6 34 6 37 C6 44 4 48 2 54 C2 55 2 57 2 58 C1 64 -1 68 -4 72 C-5 75 -5 75 -6 79 C-7 79 -7 79 -11 81 C-10 74 -7 67 -5 60 C0 40 0 21 0 0 Z " fill="#D8DAE2" transform="translate(147,342)"/>
<path d="M0 0 C3 4 3 4 5 8 C3 14 -0 16 -5 20 C-6 21 -7 22 -8 23 C-8 24 -9 24 -10 25 C-15 23 -15 23 -18 18 C-19 17 -20 16 -20 15 C-21 14 -21 13 -22 12 C-20 7 -18 5 -14 1 C-9 -0 -5 -1 0 0 Z " fill="#C2C5D1" transform="translate(278,441)"/>
<path d="M0 0 C0 0 0 0 1 3 C2 4 4 4 5 5 C6 6 7 8 8 9 C7 12 7 12 6 15 C5 15 3 16 2 16 C2 15 2 15 2 14 C1 14 1 14 -3 13 C-4 13 -4 13 -8 12 C-9 12 -9 12 -12 14 C-12 15 -12 15 -12 16 C-21 22 -26 23 -36 23 C-36 22 -36 22 -36 21 C-35 21 -35 21 -34 21 C-34 20 -34 19 -34 18 C-32 17 -29 16 -27 15 C-23 13 -20 11 -16 9 C-13 7 -13 7 -11 7 C-11 6 -10 5 -10 4 C-9 4 -8 4 -7 4 C-7 3 -8 2 -8 1 C-5 -1 -5 -1 0 0 Z " fill="#B7BAC4" transform="translate(311,484)"/>
<path d="M0 0 C7 -1 12 2 18 6 C24 12 27 18 31 25 C30 26 28 27 27 28 C24 26 24 26 21 23 C21 21 22 20 22 18 C16 17 15 17 10 20 C8 20 7 21 5 21 C5 22 4 22 4 23 C3 23 2 22 1 22 C1 21 2 19 2 18 C3 18 3 17 4 17 C4 13 3 11 1 8 C-0 5 0 3 0 0 Z " fill="#F5F1F2" transform="translate(185,132)"/>
<path d="M0 0 C-0 2 -1 3 -1 5 C-4 7 -6 8 -9 10 C-10 12 -11 13 -12 15 C-13 15 -13 15 -14 15 C-14 14 -14 13 -14 12 C-15 12 -16 12 -17 12 C-19 11 -22 11 -25 10 C-30 10 -36 10 -41 10 C-45 10 -49 10 -53 8 C-53 7 -53 6 -53 5 C-52 5 -51 5 -49 5 C-44 4 -39 4 -34 3 C-32 3 -30 3 -28 3 C-27 3 -27 3 -23 2 C-21 2 -19 2 -18 2 C-13 1 -13 1 -8 -0 C-3 -1 -3 -1 0 0 Z " fill="#F2F2F4" transform="translate(289,519)"/>
<path d="M0 0 C3 2 3 2 5 5 C3 10 3 10 0 12 C-3 13 -3 13 -8 13 C-10 13 -11 14 -13 14 C-14 18 -14 18 -14 22 C-18 19 -21 16 -23 12 C-23 11 -23 9 -23 8 C-22 8 -22 8 -21 8 C-21 7 -21 7 -21 6 C-20 5 -18 5 -17 4 C-16 3 -16 2 -15 1 C-11 -4 -6 -2 0 0 Z " fill="#F05642" transform="translate(330,449)"/>
<path d="M0 0 C1 1 1 2 2 2 C4 5 6 6 10 7 C7 13 4 17 0 22 C-1 21 -1 21 -6 14 C-8 13 -11 13 -13 12 C-14 11 -16 9 -17 8 C-16 4 -16 4 -12 0 C-7 -2 -6 -2 0 0 Z " fill="#F05642" transform="translate(484,446)"/>
<path d="M0 0 C-1 1 -3 2 -4 3 C-5 4 -6 5 -7 6 C-10 9 -11 9 -16 9 C-18 9 -21 9 -24 9 C-29 9 -30 10 -33 13 C-36 13 -38 14 -41 14 C-42 15 -44 16 -45 17 C-46 17 -47 16 -48 16 C-48 16 -49 17 -49 17 C-50 17 -52 18 -53 18 C-53 17 -54 15 -54 14 C-46 8 -37 6 -28 3 C-27 3 -26 2 -24 2 C-16 -0 -8 -0 0 0 Z " fill="#D8DAE2" transform="translate(238,37)"/>
<path d="M0 0 C0 1 0 1 0 2 C-1 2 -1 2 -2 2 C-2 4 -3 6 -3 8 C-4 8 -4 8 -5 8 C-5 10 -4 11 -4 13 C-5 15 -5 16 -6 18 C-10 18 -13 19 -17 19 C-20 21 -21 23 -23 26 C-24 26 -24 26 -25 26 C-25 27 -25 27 -27 31 C-29 32 -30 32 -32 33 C-30 23 -23 12 -15 5 C-5 0 -5 0 0 0 Z " fill="#8F93A1" transform="translate(92,280)"/>
<path d="M0 0 C5 1 5 1 7 4 C8 7 8 7 8 12 C8 13 8 15 8 16 C13 17 13 17 16 16 C17 17 19 19 20 20 C17 25 17 25 16 26 C9 25 9 25 7 23 C6 23 5 22 4 22 C0 20 0 20 -4 16 C-5 13 -5 13 -4 10 C-5 9 -5 8 -5 7 C-4 4 -4 4 0 0 Z " fill="#C7CAD4" transform="translate(188,344)"/>
<path d="M0 0 C2 0 3 0 5 0 C7 0 9 0 11 0 C11 0 11 0 16 0 C21 0 26 0 31 0 C36 0 41 0 46 0 C56 0 65 0 75 0 C75 1 75 3 75 4 C64 4 53 4 42 4 C37 4 32 4 27 4 C21 4 15 4 10 4 C8 4 6 4 4 4 C2 4 1 4 -1 4 C-3 4 -4 4 -6 4 C-7 4 -8 4 -9 4 C-9 3 -10 2 -10 1 C-7 -0 -4 -0 0 0 Z " fill="#F1F0F2" transform="translate(210.84619140625,558.886474609375)"/>
<path d="M0 0 C2 1 3 2 5 3 C5 4 5 5 5 6 C4 6 4 6 3 6 C3 8 3 9 4 11 C4 12 4 14 4 16 C3 17 1 19 0 20 C0 24 1 27 1 31 C1 37 -1 41 -4 47 C-4 48 -5 50 -5 52 C-5 53 -6 54 -6 55 C-7 55 -9 55 -10 55 C-9 46 -8 38 -7 29 C-6 28 -6 26 -6 25 C-5 16 -3 8 0 0 Z " fill="#D0D2DB" transform="translate(117,149)"/>
<path d="M0 0 C5 0 7 1 11 4 C15 9 18 14 19 20 C19 20 18 20 17 20 C17 21 17 22 17 22 C13 24 10 25 5 24 C5 24 5 23 5 22 C7 22 7 22 12 21 C11 21 10 21 9 20 C8 20 7 20 6 19 C6 18 6 17 5 16 C3 15 1 13 -1 11 C-4 7 -4 6 -5 1 C-4 0 -4 0 0 0 Z " fill="#ECA328" transform="translate(257.625,198.6875)"/>
<path d="M0 0 C1 0 2 0 3 0 C3 2 3 4 3 6 C2 8 2 10 2 13 C2 14 2 15 2 16 C2 17 1 19 1 20 C1 21 1 22 1 23 C1 30 3 34 7 39 C8 40 10 42 11 43 C10 43 10 43 7 44 C7 46 6 47 6 49 C2 45 2 45 1 42 C-0 41 -2 39 -3 38 C-8 33 -7 28 -7 21 C-6 21 -5 22 -4 22 C-4 21 -4 19 -4 18 C-4 17 -4 15 -4 13 C-4 12 -4 12 -4 8 C-4 4 -4 4 0 0 Z " fill="#E2E3E8" transform="translate(284,165)"/>
<path d="M0 0 C14 10 21 32 26 48 C26 50 26 51 26 53 C23 53 23 53 20 52 C19 48 19 48 18 42 C17 39 15 36 14 33 C13 31 12 29 11 26 C8 20 5 13 1 7 C-1 4 -1 4 0 0 Z " fill="#D8DAE2" transform="translate(331,78)"/>
<path d="M0 0 C4 3 7 6 11 10 C12 11 14 12 15 14 C20 18 23 21 27 26 C27 28 27 30 27 32 C20 27 14 21 8 15 C6 13 5 11 3 10 C2 9 1 8 0 7 C-3 4 -5 3 -9 3 C-14 4 -15 6 -18 9 C-19 9 -19 9 -20 9 C-19 4 -17 2 -13 -1 C-8 -3 -5 -2 0 0 Z " fill="#EB3224" transform="translate(366,342)"/>
<path d="M0 0 C10 6 18 15 26 23 C33 30 33 30 40 30 C41 29 43 29 44 28 C44 29 44 31 44 32 C32 35 32 35 27 33 C20 27 15 22 9 15 C8 14 6 12 5 11 C1 7 1 7 -1 4 C-1 3 -0 1 0 0 Z " fill="#EB3224" transform="translate(403,425)"/>
<path d="M0 0 C1 1 1 1 2 2 C2 6 2 6 1 9 C2 9 4 10 5 10 C4 10 3 11 2 11 C2 13 2 16 2 18 C1 19 1 20 0 21 C0 20 0 18 0 17 C-1 17 -1 17 -2 17 C-2 20 -2 23 -2 26 C-3 25 -4 24 -6 23 C-10 20 -10 20 -14 18 C-14 17 -14 17 -17 16 C-17 15 -17 15 -17 14 C-18 14 -18 14 -19 14 C-19 13 -19 13 -20 9 C-18 9 -17 9 -15 9 C-7 8 -7 8 -3 5 C-2 3 -1 2 0 0 Z " fill="#BDC0CB" transform="translate(279,169)"/>
<path d="M0 0 C5 2 6 2 11 1 C15 -1 15 -1 19 0 C20 4 20 4 20 8 C16 11 16 11 12 12 C8 11 8 11 5 9 C5 10 5 10 6 13 C3 11 1 8 -2 6 C-6 1 -11 -0 -17 -1 C-18 -1 -18 -1 -21 -0 C-22 -0 -22 -0 -25 0 C-26 -1 -26 -1 -27 -2 C-18 -8 -9 -4 0 0 Z " fill="#C3C6D2" transform="translate(333.08203125,132.84375)"/>
<path d="M0 0 C1 1 2 2 3 3 C4 3 5 4 6 4 C7 3 7 1 8 0 C8 1 9 3 9 4 C10 9 10 9 13 13 C13 17 13 17 12 21 C7 24 7 24 3 25 C-2 19 -2 12 -2 5 C-1 3 -1 2 0 0 Z " fill="#C2C5D1" transform="translate(350,171)"/>
<path d="M0 0 C3 5 3 10 3 15 C3 16 3 17 3 19 C4 21 4 24 4 27 C3 27 3 27 2 27 C2 28 2 29 2 30 C-0 41 -5 48 -13 55 C-14 55 -14 55 -15 55 C-15 56 -15 56 -15 57 C-18 58 -18 58 -21 59 C-21 58 -22 58 -22 57 C-21 57 -21 57 -18 56 C-18 54 -17 53 -17 51 C-17 51 -17 51 -15 50 C-15 49 -14 47 -14 46 C-13 46 -13 46 -10 45 C-10 43 -9 42 -9 40 C-7 36 -7 36 -3 34 C0 23 0 11 0 0 Z " fill="#E8E9EC" transform="translate(345,157)"/>
<path d="M0 0 C3 1 5 1 8 2 C10 2 11 3 13 3 C14 4 16 4 17 5 C19 5 21 5 22 6 C26 7 26 7 27 8 C27 10 27 11 27 13 C23 14 23 14 18 15 C17 15 15 16 14 16 C14 15 14 15 14 14 C13 14 11 13 10 13 C5 11 1 8 -3 5 C-1 1 -1 1 0 0 Z " fill="#FBF5F4" transform="translate(302,151)"/>
<path d="M0 0 C1 4 2 9 3 13 C5 21 7 29 9 37 C9 38 9 39 9 40 C6 40 6 40 3 39 C2 34 2 34 1 29 C0 28 -0 27 -1 26 C-1 25 -2 23 -2 22 C-3 17 -3 17 -6 14 C-7 9 -7 9 -7 5 C-6 5 -6 5 -5 5 C-5 4 -4 2 -4 1 C-2 0 -2 0 0 0 Z " fill="#D8DAE2" transform="translate(372,216)"/>
<path d="M0 0 C-0 2 -1 3 -1 5 C-2 5 -2 5 -5 7 C-6 8 -6 10 -7 11 C-10 13 -12 16 -15 18 C-18 21 -21 24 -23 27 C-24 28 -25 29 -26 30 C-27 30 -27 30 -28 30 C-28 32 -29 33 -29 35 C-30 35 -32 35 -33 35 C-32 37 -32 38 -31 40 C-33 40 -34 40 -36 40 C-32 28 -14 0 0 0 Z " fill="#D8DAE2" transform="translate(174,58)"/>
<path d="M0 0 C0 1 0 1 1 4 C2 4 2 4 3 4 C3 5 3 5 3 6 C1 6 -1 6 -2 6 C-10 6 -16 8 -22 12 C-23 13 -23 13 -24 14 C-26 14 -27 13 -29 13 C-29 14 -29 15 -29 16 C-32 17 -32 17 -36 17 C-37 16 -37 16 -38 15 C-37 13 -36 12 -35 10 C-34 10 -34 10 -33 10 C-33 9 -33 9 -33 8 C-31 8 -29 8 -27 8 C-25 6 -22 5 -20 3 C-13 0 -8 -0 0 0 Z " fill="#CBCED8" transform="translate(259,179)"/>
<path d="M0 0 C0 1 0 1 1 4 C0 4 -1 5 -2 5 C-2 6 -3 8 -3 9 C-5 11 -5 11 -7 14 C-10 17 -13 20 -16 23 C-23 32 -23 32 -31 32 C-33 32 -34 32 -36 32 C-36 31 -37 31 -37 30 C-36 30 -35 30 -33 29 C-29 28 -27 26 -23 23 C-22 22 -21 21 -20 20 C-19 19 -18 17 -17 16 C-15 14 -13 12 -11 10 C-10 9 -9 8 -8 7 C-6 5 -6 5 -4 5 C-4 4 -4 4 -4 3 C-3 2 -1 1 0 0 Z " fill="#EB3224" transform="translate(392,426)"/>
<path d="M0 0 C3 0 3 0 8 0 C15 0 23 2 31 2 C31 3 31 3 31 3 C29 3 26 3 24 3 C24 4 24 5 24 6 C23 6 23 6 22 6 C22 5 22 4 22 3 C19 3 17 3 14 3 C14 4 14 5 14 6 C12 6 11 6 9 6 C9 7 9 8 9 8 C7 8 4 8 2 7 C2 8 2 9 2 9 C-6 6 -6 6 -9 4 C-9 4 -9 4 -10 -1 C-7 -2 -4 -1 0 0 Z " fill="#F5F4F5" transform="translate(192.02734375,521.52734375)"/>
<path d="M0 0 C2 0 4 0 6 0 C6 1 6 1 6 2 C4 2 2 2 0 2 C0 1 0 1 0 0 Z " fill="#FEFDFD" transform="translate(129,513)"/>
<path d="M0 0 C2 0 4 0 6 0 C6 1 6 1 6 2 C4 2 2 2 0 2 C0 1 0 1 0 0 Z " fill="#FEFDFD" transform="translate(49,481)"/>
<path d="M0 0 C2 0 4 0 6 0 C6 1 6 1 6 2 C4 2 2 2 0 2 C0 1 0 1 0 0 Z " fill="#F6F6F7" transform="translate(409,265)"/>
<path d="M0 0 C1 0 1 0 2 0 C2 1 2 1 2 2 C1 2 1 2 0 2 C0 1 0 1 0 0 Z " fill="#FEFDFD" transform="translate(337,513)"/>
</svg>
