<?xml version="1.0" encoding="UTF-8"?>
<!-- Generator: visioncortex VTracer 0.6.12 -->
<svg version="1.1" xmlns="http://www.w3.org/2000/svg" width="512" height="596">
<path d="M0 0 C4 -1 4 -1 10 -1 C12 -1 14 -1 16 -1 C17 -1 18 -1 19 -1 C22 -1 25 -1 28 -1 C29 -1 29 -1 34 -1 C36 -1 38 -1 40 -1 C41 -0 43 -0 44 0 C44 1 44 1 46 4 C49 4 49 4 53 4 C57 4 57 4 60 4 C61 5 61 7 62 8 C64 8 65 8 67 8 C69 8 70 8 72 8 C73 9 73 11 74 12 C76 12 78 12 80 12 C81 13 81 15 82 16 C84 16 86 16 88 16 C89 17 89 19 90 20 C91 20 91 20 94 22 C94 23 94 23 94 24 C96 24 98 24 100 24 C101 25 101 27 102 28 C103 28 103 28 106 30 C106 31 106 31 106 32 C107 33 109 33 110 34 C110 35 110 35 110 36 C111 37 113 37 114 38 C114 39 114 39 114 40 C115 41 117 41 118 42 C118 43 118 43 118 44 C119 45 121 45 122 46 C122 47 122 47 122 48 C123 49 125 49 126 50 C126 51 126 51 126 52 C127 53 129 53 130 54 C130 55 130 55 130 56 C131 56 132 56 133 56 C133 57 133 58 133 59 C134 61 134 62 134 63 C135 63 136 64 137 64 C137 66 138 69 138 71 C139 71 140 72 141 72 C141 73 141 74 141 75 C142 79 142 79 146 82 C146 83 146 83 146 84 C147 85 149 85 150 86 C150 87 150 87 150 88 C151 88 152 88 153 88 C154 88 156 88 157 88 C158 88 159 88 161 88 C162 88 163 88 164 88 C165 89 165 91 166 92 C168 92 170 92 172 92 C173 93 173 95 174 96 C176 96 178 96 180 96 C181 97 181 99 182 100 C183 101 185 101 186 102 C186 103 186 103 186 104 C188 104 190 104 192 104 C193 105 193 107 194 108 C195 109 197 109 198 110 C198 111 198 111 198 112 C199 113 201 113 202 114 C202 115 202 115 202 116 C203 117 205 117 206 118 C206 119 206 119 206 120 C207 120 208 120 209 120 C209 121 209 122 209 123 C210 127 210 127 214 130 C214 131 214 131 214 132 C215 132 216 132 217 132 C217 133 217 134 217 135 C218 137 218 138 218 139 C219 139 220 140 221 140 C221 142 222 145 222 147 C223 147 224 148 225 148 C225 152 226 155 226 159 C227 159 228 160 229 160 C229 164 229 167 229 171 C229 172 229 173 229 174 C229 177 229 179 229 181 C229 185 229 189 229 192 C229 194 229 197 229 199 C229 200 229 201 229 202 C229 205 229 207 229 210 C228 210 227 211 226 211 C226 213 226 215 226 216 C225 218 225 220 225 222 C224 222 223 223 222 223 C222 227 221 230 221 234 C220 234 219 234 218 234 C217 235 217 237 216 238 C215 238 215 239 214 239 C214 241 213 244 213 246 C212 246 211 246 210 246 C209 247 209 249 208 250 C207 250 207 250 206 250 C205 251 205 253 204 254 C203 254 203 254 202 254 C201 255 201 257 200 258 C199 258 199 258 198 258 C197 259 197 261 196 262 C195 262 195 262 194 262 C193 263 193 265 192 266 C191 266 191 266 190 266 C189 267 189 269 188 270 C187 270 187 271 186 271 C186 272 186 274 186 275 C187 276 188 276 189 277 C189 278 189 279 189 280 C189 281 190 282 190 283 C194 284 197 284 201 284 C205 284 208 284 212 284 C213 285 213 287 214 288 C216 288 218 288 220 288 C221 289 221 291 222 292 C223 293 225 293 226 294 C226 295 226 295 226 296 C227 297 229 297 230 298 C230 299 230 299 230 300 C231 301 233 301 234 302 C234 303 234 303 234 304 C235 304 236 304 237 304 C237 305 237 306 237 307 C237 308 237 308 238 311 C239 311 240 312 241 312 C241 314 242 317 242 319 C243 319 244 320 245 320 C245 322 246 325 246 327 C247 327 248 328 249 328 C249 332 250 336 250 340 C250 341 250 342 250 343 C251 343 252 344 253 344 C253 347 253 347 253 352 C253 353 253 355 253 356 C253 357 253 357 253 361 C253 363 253 364 253 366 C253 367 253 369 253 370 C253 372 253 373 253 375 C253 376 253 377 253 378 C252 378 251 379 250 379 C250 382 250 382 250 386 C249 391 249 391 249 394 C248 394 247 395 246 395 C245 399 245 399 245 402 C244 402 243 402 242 402 C241 403 241 405 240 406 C239 406 239 407 238 407 C238 409 237 412 237 414 C236 414 235 414 234 414 C232 414 231 414 230 414 C229 415 229 417 228 418 C227 418 227 418 226 418 C225 419 225 421 224 422 C221 422 217 422 214 422 C213 423 213 425 212 426 C211 426 211 426 210 426 C209 427 209 429 208 430 C207 430 207 430 206 430 C205 431 205 433 204 434 C203 434 203 434 202 434 C201 435 201 437 200 438 C199 438 199 438 198 438 C197 439 197 441 196 442 C195 442 195 442 194 442 C193 443 193 445 192 446 C187 446 183 446 178 446 C177 446 175 446 174 446 C173 447 173 449 172 450 C170 450 168 450 166 450 C165 451 165 453 164 454 C162 454 160 455 158 455 C157 456 157 457 156 458 C154 458 153 457 151 457 C151 456 150 456 150 455 C149 455 147 455 146 455 C145 456 145 457 144 458 C143 458 143 458 142 458 C141 459 141 461 140 462 C139 462 139 462 138 462 C137 463 137 465 136 466 C135 466 135 466 134 466 C133 467 133 469 132 470 C131 470 131 470 130 470 C129 471 129 473 128 474 C127 474 127 474 126 474 C125 475 125 477 124 478 C122 478 120 478 118 478 C117 479 117 481 116 482 C114 482 112 482 110 482 C109 483 109 485 108 486 C107 486 107 487 106 487 C106 488 107 490 107 491 C110 492 110 492 113 492 C113 493 113 493 113 494 C109 494 109 494 104 494 C103 493 103 492 102 491 C101 491 99 491 98 491 C97 492 95 494 94 495 C94 496 94 498 94 499 C95 499 97 499 98 499 C100 499 101 499 103 499 C105 499 106 499 108 499 C109 500 111 500 112 500 C113 501 113 503 114 504 C116 504 118 504 120 504 C121 505 121 507 122 508 C125 508 125 508 130 508 C130 508 130 508 134 508 C135 508 135 508 139 508 C142 508 145 508 148 508 C150 508 151 508 153 508 C153 508 153 508 156 508 C157 509 157 511 158 512 C162 512 167 512 171 512 C175 512 180 512 184 512 C185 513 185 515 186 516 C189 516 189 516 193 516 C197 516 197 516 200 516 C201 517 201 519 202 520 C203 520 204 521 205 521 C205 523 204 524 204 526 C203 526 203 526 202 526 C201 527 201 529 200 530 C197 530 193 530 190 530 C189 531 189 533 188 534 C183 534 179 534 174 534 C173 534 173 534 170 534 C169 535 169 537 168 538 C162 538 157 538 151 538 C148 538 145 538 142 538 C141 539 141 541 140 542 C136 542 132 542 127 542 C127 542 127 542 123 542 C118 542 112 542 107 542 C103 542 99 542 95 542 C94 542 92 542 91 542 C88 542 85 542 82 542 C81 543 81 545 80 546 C76 546 72 547 67 547 C66 547 65 547 63 547 C59 547 55 547 50 547 C47 547 44 547 41 547 C35 547 28 547 22 547 C14 546 5 547 -3 547 C-9 547 -15 547 -22 547 C-25 547 -28 547 -31 547 C-35 547 -39 547 -43 547 C-44 547 -44 547 -47 547 C-51 547 -51 547 -56 546 C-57 545 -57 543 -58 542 C-61 542 -61 542 -64 542 C-66 542 -67 542 -68 542 C-69 542 -69 542 -73 542 C-74 542 -75 542 -77 542 C-82 542 -86 542 -91 542 C-97 542 -103 542 -109 542 C-110 542 -110 542 -114 542 C-115 542 -116 542 -118 542 C-119 542 -120 542 -121 542 C-122 542 -123 542 -124 542 C-125 541 -125 539 -126 538 C-130 538 -135 538 -139 538 C-143 538 -148 538 -152 538 C-153 537 -153 535 -154 534 C-158 534 -158 534 -163 534 C-168 534 -168 534 -172 534 C-173 533 -173 531 -174 530 C-176 530 -178 530 -180 530 C-181 529 -181 527 -182 526 C-183 526 -184 525 -185 525 C-185 524 -185 524 -184 520 C-183 520 -183 520 -182 520 C-181 519 -181 517 -180 516 C-176 516 -173 516 -169 516 C-169 516 -169 516 -166 516 C-165 515 -165 513 -164 512 C-158 512 -153 512 -147 512 C-144 512 -141 512 -138 512 C-137 511 -137 509 -136 508 C-133 508 -133 508 -128 508 C-127 508 -125 508 -124 508 C-121 508 -117 508 -114 508 C-113 508 -111 508 -110 508 C-108 508 -107 508 -105 508 C-104 508 -103 508 -102 508 C-101 507 -101 505 -100 504 C-98 504 -96 504 -94 504 C-93 503 -93 501 -92 500 C-87 499 -87 499 -82 499 C-82 498 -82 496 -82 495 C-84 494 -87 494 -89 493 C-89 493 -89 493 -90 490 C-92 490 -94 490 -96 490 C-97 489 -97 487 -98 486 C-102 486 -102 486 -107 486 C-112 486 -112 486 -116 486 C-117 485 -117 483 -118 482 C-120 482 -122 482 -124 482 C-125 481 -125 479 -126 478 C-127 477 -129 477 -130 476 C-130 475 -130 475 -130 474 C-131 473 -133 473 -134 472 C-134 471 -134 471 -134 470 C-136 470 -137 470 -139 470 C-141 470 -143 470 -145 470 C-146 470 -147 470 -148 470 C-151 470 -151 470 -156 470 C-156 469 -156 469 -158 466 C-159 465 -161 465 -162 464 C-162 463 -162 463 -162 462 C-163 462 -164 462 -165 462 C-165 461 -165 460 -165 459 C-165 457 -166 456 -166 455 C-170 454 -173 454 -177 454 C-177 454 -177 454 -180 454 C-181 453 -181 451 -182 450 C-186 450 -186 450 -189 450 C-189 449 -189 448 -189 447 C-190 443 -190 443 -194 440 C-194 439 -194 439 -194 438 C-195 438 -196 438 -197 438 C-197 437 -197 436 -197 435 C-198 433 -198 432 -198 431 C-199 431 -200 430 -201 430 C-201 426 -202 422 -202 418 C-202 417 -202 416 -202 415 C-203 415 -204 414 -205 414 C-205 410 -206 406 -206 402 C-206 401 -206 400 -206 399 C-207 399 -208 398 -209 398 C-209 394 -209 394 -209 389 C-209 387 -209 385 -209 383 C-209 382 -209 381 -209 380 C-209 377 -209 374 -209 371 C-209 369 -209 367 -209 365 C-209 364 -209 364 -209 360 C-209 359 -209 357 -209 356 C-208 356 -207 355 -206 355 C-206 351 -206 351 -206 346 C-205 340 -205 340 -205 336 C-204 336 -203 335 -202 335 C-202 333 -202 331 -202 330 C-201 328 -201 326 -201 324 C-200 324 -199 323 -198 323 C-198 321 -198 319 -198 318 C-197 316 -197 314 -197 312 C-196 312 -195 311 -194 311 C-194 310 -194 309 -194 308 C-193 306 -193 305 -193 304 C-192 304 -191 303 -190 303 C-190 302 -190 301 -190 300 C-189 298 -189 297 -189 296 C-188 296 -187 295 -186 295 C-186 294 -186 293 -186 292 C-185 290 -185 289 -185 288 C-184 288 -183 287 -182 287 C-181 283 -181 283 -181 280 C-180 280 -179 280 -178 280 C-178 279 -178 279 -176 276 C-175 276 -175 275 -174 275 C-174 273 -173 270 -173 268 C-172 268 -171 268 -170 268 C-169 267 -169 265 -168 264 C-167 264 -167 264 -166 264 C-165 263 -165 261 -164 260 C-163 260 -163 260 -162 260 C-161 259 -161 257 -160 256 C-159 256 -159 255 -158 255 C-158 254 -158 253 -158 252 C-157 251 -157 251 -157 248 C-156 248 -155 247 -154 247 C-154 245 -154 243 -154 242 C-153 240 -153 238 -153 236 C-152 236 -151 235 -150 235 C-150 234 -150 233 -150 232 C-149 230 -149 229 -149 228 C-148 228 -147 227 -146 227 C-146 225 -146 223 -146 222 C-145 220 -145 218 -145 216 C-144 216 -143 215 -142 215 C-142 213 -142 211 -142 210 C-141 208 -141 206 -141 204 C-140 204 -139 203 -138 203 C-138 200 -138 200 -138 196 C-137 191 -137 191 -137 188 C-136 188 -135 187 -134 187 C-134 183 -134 179 -134 176 C-133 172 -133 168 -133 164 C-132 164 -131 163 -130 163 C-130 159 -130 159 -130 154 C-129 148 -129 148 -129 144 C-128 144 -127 143 -126 143 C-126 140 -126 140 -126 136 C-125 131 -125 131 -125 128 C-124 128 -123 127 -122 127 C-122 124 -122 124 -122 120 C-121 115 -121 115 -121 112 C-120 112 -119 111 -118 111 C-118 109 -118 107 -118 106 C-117 104 -117 102 -117 100 C-116 100 -115 99 -114 99 C-114 98 -114 97 -114 96 C-113 94 -113 93 -113 92 C-112 92 -111 91 -110 91 C-110 90 -110 89 -110 88 C-109 86 -109 85 -109 84 C-108 84 -107 83 -106 83 C-106 82 -106 81 -106 80 C-105 78 -105 77 -105 76 C-104 76 -103 75 -102 75 C-102 74 -102 73 -102 72 C-101 70 -101 69 -101 68 C-100 68 -99 67 -98 67 C-97 63 -97 63 -97 60 C-96 60 -95 60 -94 60 C-93 59 -93 57 -92 56 C-91 56 -91 56 -90 56 C-89 55 -89 53 -88 52 C-87 52 -87 52 -86 52 C-85 51 -85 49 -84 48 C-83 48 -83 47 -82 47 C-82 45 -81 42 -81 40 C-80 40 -79 40 -78 40 C-76 40 -75 40 -74 40 C-73 39 -73 37 -72 36 C-71 36 -71 36 -70 36 C-69 35 -69 33 -68 32 C-67 32 -67 32 -66 32 C-65 31 -65 29 -64 28 C-63 28 -63 28 -62 28 C-61 27 -61 25 -60 24 C-58 24 -56 24 -54 24 C-53 23 -53 21 -52 20 C-51 20 -51 20 -50 20 C-49 19 -49 17 -48 16 C-46 16 -44 16 -42 16 C-41 15 -41 13 -40 12 C-37 12 -33 12 -30 12 C-29 11 -29 9 -28 8 C-25 8 -21 8 -18 8 C-17 7 -17 5 -16 4 C-12 4 -9 4 -5 4 C-4 4 -3 4 -2 4 C-1 3 -1 1 0 0 Z " fill="#0C0D10" transform="translate(234,25)"/>
<path d="M0 0 C2 0 3 0 5 0 C16 0 26 1 36 4 C37 5 37 5 40 6 C56 11 70 20 83 31 C84 32 84 32 86 34 C94 42 100 51 105 60 C106 61 107 62 107 63 C107 65 107 67 107 68 C107 69 107 69 104 69 C104 70 104 71 104 71 C103 72 102 72 101 72 C78 74 58 82 41 97 C36 101 36 101 34 101 C34 102 34 103 33 104 C32 106 30 108 28 109 C16 124 9 143 6 161 C5 167 1 170 -2 175 C-6 180 -8 184 -7 191 C-4 197 -1 199 4 202 C10 206 11 211 14 217 C16 223 19 227 23 231 C24 233 25 234 26 236 C29 239 29 239 33 244 C36 247 36 247 37 250 C38 250 39 250 39 250 C39 251 39 252 39 252 C41 253 42 254 43 254 C45 255 46 257 48 258 C67 269 85 274 107 275 C112 275 112 275 117 277 C120 283 121 286 121 292 C119 295 117 297 115 299 C110 307 109 316 110 325 C111 328 111 328 113 331 C115 337 114 344 113 351 C113 359 116 366 121 373 C123 376 124 379 126 382 C127 385 127 385 130 389 C134 393 134 395 133 400 C126 425 108 448 85 460 C85 461 85 461 82 462 C73 467 67 468 58 465 C57 465 56 465 55 464 C55 465 55 466 54 467 C42 478 24 479 9 478 C7 478 5 478 3 477 C3 478 3 479 3 479 C-9 480 -22 481 -34 479 C-40 478 -45 478 -50 478 C-72 477 -72 477 -79 471 C-85 466 -89 467 -96 468 C-102 469 -107 467 -113 463 C-115 460 -115 460 -116 456 C-115 453 -114 451 -113 448 C-111 443 -112 440 -113 435 C-113 431 -113 427 -114 422 C-114 421 -114 420 -114 419 C-114 416 -115 413 -115 409 C-115 408 -115 407 -115 405 C-115 401 -113 398 -111 394 C-97 370 -97 338 -102 310 C-103 305 -104 303 -109 299 C-111 296 -112 292 -113 288 C-118 273 -127 259 -141 251 C-145 250 -150 248 -154 246 C-157 245 -157 245 -161 243 C-163 239 -163 239 -163 234 C-161 231 -159 228 -158 224 C-148 201 -144 177 -140 152 C-133 119 -126 80 -104 53 C-103 52 -102 51 -100 49 C-75 17 -41 -0 0 0 Z " fill="#C7CAD4" transform="translate(254.75,38.5625)"/>
<path d="M0 0 C2 0 3 0 5 0 C16 0 26 1 36 4 C37 5 37 5 40 6 C56 11 70 20 83 31 C84 32 84 32 86 34 C94 42 100 51 105 60 C106 61 107 62 107 63 C107 65 107 67 107 68 C106 69 105 69 104 69 C104 70 104 71 104 71 C103 72 102 72 101 72 C78 74 58 82 41 97 C36 101 36 101 34 101 C34 102 34 103 33 104 C32 106 30 108 28 109 C16 124 9 143 6 161 C5 166 1 170 -2 174 C-4 178 -6 181 -8 184 C-8 184 -8 183 -9 182 C-11 182 -13 182 -15 182 C-15 182 -16 182 -17 182 C-18 184 -20 186 -22 187 C-26 191 -28 191 -34 191 C-35 191 -36 191 -37 190 C-37 191 -37 192 -37 192 C-39 192 -41 192 -44 191 C-44 190 -44 188 -44 186 C-46 185 -46 185 -50 183 C-57 180 -60 175 -64 167 C-67 156 -66 144 -61 133 C-56 126 -51 121 -43 117 C-34 117 -27 118 -20 122 C-16 126 -14 130 -12 135 C-12 136 -11 137 -11 137 C-9 137 -7 137 -6 136 C-7 126 -12 115 -20 107 C-27 102 -36 97 -45 98 C-55 100 -65 104 -71 112 C-73 115 -75 117 -76 120 C-77 121 -77 122 -78 123 C-80 127 -82 131 -84 134 C-85 134 -86 133 -88 132 C-100 123 -115 119 -130 120 C-130 122 -131 123 -132 124 C-133 119 -131 115 -130 110 C-129 109 -129 107 -129 106 C-124 89 -116 71 -106 56 C-105 56 -105 56 -104 54 C-84 25 -56 8 -22 1 C-15 -0 -7 -0 0 0 Z " fill="#C7CAD4" transform="translate(254.75,38.5625)"/>
<path d="M0 0 C5 1 7 1 11 4 C12 4 12 4 16 6 C29 10 38 21 44 32 C47 39 50 46 52 53 C52 54 52 54 54 58 C53 59 52 59 51 60 C50 64 50 68 50 73 C51 81 51 89 51 97 C51 98 51 98 51 101 C51 114 49 126 43 138 C42 139 41 140 40 140 C37 146 37 151 38 158 C38 159 38 161 38 162 C38 166 38 171 38 175 C38 179 38 184 38 188 C38 191 38 193 38 196 C38 197 38 198 38 200 C38 201 38 202 38 203 C38 207 37 209 35 212 C30 215 30 215 27 215 C23 214 20 211 17 208 C8 188 8 188 8 180 C6 180 5 181 3 181 C2 184 2 184 1 188 C-0 193 -1 197 -5 201 C-11 201 -11 201 -14 198 C-18 193 -20 188 -22 182 C-22 181 -23 179 -23 178 C-23 177 -24 175 -24 174 C-25 173 -25 172 -26 171 C-28 171 -29 172 -31 172 C-31 173 -31 173 -33 176 C-33 177 -33 177 -35 180 C-37 180 -38 181 -40 181 C-54 168 -55 146 -56 128 C-56 121 -56 114 -55 107 C-55 106 -55 104 -55 103 C-54 92 -52 82 -48 71 C-48 70 -47 68 -47 67 C-40 49 -30 22 -13 11 C-10 10 -7 8 -4 7 C-1 4 -1 4 0 0 Z " fill="#8F94A3" transform="translate(94,282)"/>
<path d="M0 0 C14 11 22 23 26 40 C26 45 27 49 26 54 C26 55 26 56 26 57 C26 78 18 91 4 106 C-9 118 -26 123 -43 122 C-61 121 -76 114 -88 101 C-100 88 -106 71 -105 53 C-104 33 -97 17 -81 3 C-56 -16 -26 -16 0 0 Z " fill="#ECEDEF" transform="translate(400,157)"/>
<path d="M0 0 C1 0 2 1 3 1 C17 6 27 14 36 25 C37 26 38 28 40 29 C57 53 60 77 56 106 C55 110 55 110 53 113 C53 114 52 116 52 117 C45 135 35 149 19 159 C18 160 16 161 15 162 C8 166 1 170 -7 173 C-9 174 -10 174 -12 175 C-30 180 -53 178 -70 170 C-83 163 -94 153 -104 143 C-104 143 -104 143 -107 141 C-110 137 -112 133 -115 129 C-115 128 -115 128 -117 126 C-127 106 -127 78 -121 57 C-120 54 -118 51 -117 48 C-116 47 -116 46 -115 45 C-105 24 -87 8 -65 -1 C-43 -8 -21 -9 0 0 Z M-83 40 C-95 54 -101 71 -100 90 C-99 110 -89 126 -74 139 C-60 150 -42 153 -24 152 C-4 148 9 138 21 122 C22 121 23 120 24 118 C30 107 31 97 32 84 C32 83 32 81 32 80 C31 64 26 50 15 38 C10 33 5 30 -1 27 C-3 26 -4 25 -6 24 C-33 12 -63 19 -83 40 Z " fill="#444B5B" transform="translate(395,127)"/>
<path d="M0 0 C9 6 14 13 18 23 C19 26 19 26 21 30 C21 32 20 33 20 35 C19 35 19 35 15 36 C13 33 13 33 12 30 C9 24 6 21 0 17 C-7 15 -14 15 -21 17 C-30 24 -36 32 -38 42 C-40 53 -39 62 -34 71 C-33 72 -33 73 -32 74 C-29 78 -25 80 -20 82 C-20 82 -20 82 -17 84 C-17 86 -18 87 -18 89 C-16 89 -13 90 -11 90 C-11 89 -11 89 -11 88 C-10 88 -8 88 -7 89 C-6 89 -4 89 -3 89 C-3 88 -2 88 -2 87 C-1 86 1 86 2 85 C4 84 5 83 7 82 C11 82 11 82 15 84 C15 86 15 88 15 90 C10 93 10 93 4 93 C3 93 1 93 -1 93 C-1 94 -1 94 -3 97 C-7 100 -10 102 -14 103 C-18 105 -21 106 -24 109 C-29 112 -33 111 -38 111 C-42 111 -45 113 -48 115 C-49 115 -51 115 -52 115 C-58 116 -62 118 -67 120 C-67 121 -67 121 -71 122 C-76 125 -80 128 -84 131 C-85 132 -86 132 -87 133 C-91 135 -92 137 -93 141 C-94 145 -96 146 -99 149 C-108 151 -112 151 -120 147 C-124 145 -126 144 -130 144 C-133 143 -133 143 -135 140 C-137 137 -137 137 -137 132 C-135 129 -134 125 -132 122 C-122 99 -118 74 -114 49 C-109 24 -109 24 -104 18 C-88 15 -74 21 -60 29 C-59 30 -59 30 -58 31 C-58 30 -58 30 -56 28 C-48 11 -42 1 -24 -5 C-15 -7 -8 -4 0 0 Z " fill="#C1C4CF" transform="translate(229,141)"/>
<path d="M0 0 C0 2 0 3 0 5 C-3 7 -3 7 -6 8 C-10 10 -12 11 -15 14 C-15 20 -15 20 -13 23 C-8 24 -4 24 1 23 C6 22 7 22 12 25 C13 26 13 26 16 28 C20 31 23 32 28 32 C32 29 32 29 35 24 C40 25 40 25 45 26 C51 26 51 26 55 24 C57 20 57 19 56 14 C56 12 55 11 55 9 C60 9 65 9 70 9 C71 9 71 9 75 9 C76 9 78 9 79 9 C80 9 82 9 83 9 C84 9 85 9 86 9 C87 10 87 12 88 13 C92 13 97 13 101 13 C105 13 110 13 114 13 C115 14 115 16 116 17 C119 17 119 17 123 17 C127 17 127 17 130 17 C131 18 131 20 132 21 C133 21 134 22 135 22 C135 24 134 25 134 27 C133 27 133 27 132 27 C131 28 131 30 130 31 C127 31 123 31 120 31 C119 32 119 34 118 35 C113 35 109 35 104 35 C103 35 101 35 100 35 C99 36 99 38 98 39 C92 39 87 39 81 39 C78 39 75 39 72 39 C71 40 71 42 70 43 C66 43 62 43 57 43 C57 43 57 43 53 43 C48 43 42 43 37 43 C33 43 29 43 25 43 C24 43 24 43 21 43 C18 43 15 43 12 43 C11 44 11 46 10 47 C6 47 2 48 -3 48 C-4 48 -5 48 -7 48 C-11 48 -15 48 -20 48 C-23 48 -26 48 -29 48 C-35 48 -42 48 -48 48 C-56 47 -65 48 -73 48 C-79 48 -85 48 -92 48 C-95 48 -98 48 -101 48 C-105 48 -109 48 -113 48 C-114 48 -114 48 -117 48 C-121 48 -121 48 -126 47 C-126 46 -126 46 -128 43 C-131 43 -131 43 -134 43 C-135 43 -135 43 -138 43 C-140 43 -141 43 -143 43 C-143 43 -143 43 -147 43 C-152 43 -156 43 -161 43 C-167 43 -173 43 -179 43 C-181 43 -182 43 -184 43 C-184 43 -184 43 -188 43 C-188 43 -188 43 -191 43 C-192 43 -193 43 -194 43 C-195 42 -195 40 -196 39 C-200 39 -205 39 -209 39 C-213 39 -218 39 -222 39 C-223 38 -223 36 -224 35 C-228 35 -228 35 -233 35 C-238 35 -238 35 -242 35 C-243 34 -243 32 -244 31 C-246 31 -248 31 -250 31 C-251 30 -251 28 -252 27 C-253 27 -254 26 -255 26 C-255 24 -254 23 -254 21 C-253 21 -253 21 -252 21 C-251 20 -251 18 -250 17 C-246 17 -243 17 -239 17 C-238 17 -237 17 -236 17 C-235 16 -235 14 -234 13 C-228 13 -223 13 -217 13 C-214 13 -211 13 -208 13 C-207 12 -207 10 -206 9 C-203 9 -203 9 -199 9 C-198 9 -198 9 -195 9 C-193 9 -192 9 -190 9 C-189 9 -187 9 -186 9 C-182 9 -179 9 -175 9 C-177 14 -177 14 -178 16 C-178 19 -178 19 -178 23 C-175 26 -175 26 -172 26 C-168 26 -168 26 -164 25 C-160 24 -158 24 -154 25 C-153 27 -151 30 -150 32 C-146 33 -145 33 -141 32 C-138 30 -138 30 -135 26 C-131 23 -131 23 -128 22 C-124 23 -124 23 -120 25 C-116 26 -114 26 -110 25 C-106 21 -106 21 -106 18 C-108 13 -111 12 -116 10 C-120 8 -120 8 -122 6 C-122 5 -122 3 -122 2 C-116 2 -111 2 -105 3 C-93 6 -81 6 -69 6 C-67 6 -66 6 -64 6 C-50 6 -36 6 -22 2 C-20 2 -17 1 -15 1 C-4 -1 -4 -1 0 0 Z " fill="#D9DAE1" transform="translate(304,524)"/>
<path d="M0 0 C12 5 18 15 24 27 C25 30 25 33 26 36 C27 41 29 45 32 49 C34 56 32 62 30 69 C30 69 31 69 32 69 C30 85 28 99 16 111 C7 117 -5 117 -16 116 C-22 114 -23 112 -26 107 C-27 99 -27 99 -24 95 C-24 94 -23 94 -22 93 C-22 91 -22 90 -22 88 C-24 88 -26 88 -27 88 C-34 87 -37 86 -43 81 C-46 76 -46 72 -46 66 C-43 57 -38 53 -30 48 C-30 48 -29 48 -28 48 C-29 47 -29 47 -29 46 C-32 46 -34 47 -36 47 C-39 47 -41 47 -43 47 C-44 47 -44 47 -47 47 C-51 47 -52 46 -55 43 C-58 37 -58 32 -56 26 C-52 16 -45 10 -36 5 C-31 3 -26 3 -21 2 C-20 1 -19 1 -18 0 C-12 -2 -6 -2 0 0 Z " fill="#797F94" transform="translate(442.19921875,321.06640625)"/>
<path d="M0 0 C6 2 7 8 10 13 C11 15 11 16 12 17 C13 19 13 20 14 22 C16 25 17 27 21 29 C24 30 24 30 28 30 C34 30 38 31 42 35 C45 39 45 39 46 42 C42 46 42 46 38 46 C37 46 35 46 34 46 C34 48 34 49 34 51 C45 51 45 51 49 49 C52 46 53 43 54 39 C59 41 59 41 60 42 C60 43 60 45 59 46 C59 47 59 47 59 50 C62 53 62 53 66 54 C74 57 80 60 85 67 C90 70 93 69 98 69 C107 70 110 71 116 77 C119 79 122 80 125 81 C125 82 125 83 125 83 C127 84 128 84 130 84 C131 85 132 86 133 86 C136 86 136 86 140 86 C143 86 143 86 146 86 C147 87 147 88 148 88 C147 93 145 94 141 97 C128 103 110 105 96 102 C96 103 96 104 96 104 C83 105 71 106 58 104 C53 103 48 103 43 103 C21 102 21 102 14 95 C8 91 4 92 -3 93 C-9 93 -15 92 -20 88 C-23 84 -23 82 -22 77 C-22 76 -21 75 -21 74 C-20 74 -20 74 -17 73 C-16 70 -16 70 -16 67 C-13 68 -13 68 -12 70 C-10 71 -9 71 -7 71 C-5 73 -3 75 -1 76 C4 79 9 82 15 82 C18 80 18 80 20 77 C24 74 28 71 32 68 C32 68 32 68 33 65 C30 61 27 59 23 56 C21 53 22 49 22 45 C21 42 21 42 18 39 C14 39 10 39 6 38 C6 38 6 38 3 38 C-1 38 -6 38 -11 38 C-11 38 -11 38 -14 38 C-15 37 -15 35 -16 33 C-17 33 -17 33 -18 33 C-19 30 -19 30 -19 25 C-16 22 -16 22 -13 18 C-12 17 -11 15 -10 13 C-9 13 -9 13 -8 12 C-8 11 -8 9 -8 8 C-7 6 -7 5 -7 3 C-3 0 -3 0 0 0 Z " fill="#C1C4CF" transform="translate(161.9375,413.8125)"/>
<path d="M0 0 C9 6 14 13 18 23 C19 26 19 26 21 30 C21 32 20 33 20 35 C19 35 19 35 15 36 C13 33 13 33 12 30 C9 24 6 21 0 17 C-7 15 -14 15 -21 17 C-30 24 -36 32 -38 42 C-40 53 -39 62 -34 71 C-33 72 -33 73 -32 74 C-29 78 -25 80 -20 82 C-20 82 -20 82 -17 84 C-17 86 -18 87 -18 89 C-27 90 -36 88 -43 83 C-55 71 -58 59 -59 43 C-60 43 -60 43 -61 43 C-61 43 -62 44 -62 44 C-63 44 -63 44 -66 44 C-75 47 -81 51 -85 58 C-86 63 -86 66 -85 71 C-85 77 -84 82 -87 88 C-93 94 -99 97 -108 99 C-112 98 -112 98 -115 97 C-115 96 -116 96 -116 95 C-117 95 -117 95 -120 96 C-120 97 -121 99 -121 100 C-122 102 -123 104 -124 106 C-125 102 -124 100 -124 96 C-123 95 -123 95 -122 91 C-122 90 -122 88 -121 86 C-119 75 -116 64 -114 52 C-109 24 -109 24 -104 18 C-88 15 -74 21 -60 29 C-59 30 -59 30 -58 31 C-58 30 -58 30 -56 28 C-48 11 -42 1 -24 -5 C-15 -7 -8 -4 0 0 Z " fill="#C7CAD4" transform="translate(229,141)"/>
<path d="M0 0 C5 2 7 4 10 8 C14 12 14 12 18 13 C20 12 23 12 26 11 C30 13 30 13 32 16 C32 20 32 24 32 28 C32 30 32 31 32 32 C37 34 37 34 42 34 C43 35 44 35 44 36 C47 38 47 38 50 38 C53 37 53 37 56 35 C59 33 63 32 67 32 C73 30 78 28 83 25 C85 24 88 23 90 22 C90 22 90 22 92 21 C95 21 98 21 101 21 C100 25 98 28 95 30 C92 36 92 41 93 48 C93 49 93 51 93 52 C93 56 93 61 93 65 C93 69 93 74 93 78 C93 81 93 83 93 86 C93 87 93 88 93 90 C93 91 93 92 93 93 C93 97 92 99 90 102 C85 105 85 105 82 105 C78 104 75 101 72 98 C63 78 63 78 63 70 C62 70 62 70 58 71 C57 74 57 74 56 78 C55 83 54 87 50 91 C44 91 44 91 41 88 C37 83 35 78 33 72 C33 71 32 69 32 68 C32 67 32 67 31 64 C30 63 30 62 29 61 C28 61 28 61 24 62 C23 63 23 65 22 66 C21 67 21 69 20 70 C19 70 19 70 15 71 C1 58 -0 36 -1 18 C-1 12 -1 6 0 0 Z " fill="#797F94" transform="translate(39,392)"/>
<path d="M0 0 C0 0 0 0 3 1 C18 6 28 20 36 34 C44 53 47 70 41 90 C33 111 21 131 1 141 C-20 150 -38 151 -60 143 C-80 135 -95 122 -105 102 C-106 97 -106 97 -107 92 C-107 91 -107 90 -107 88 C-110 63 -105 42 -90 22 C-66 -6 -33 -11 0 0 Z M-82 26 C-94 41 -100 57 -99 76 C-97 96 -88 112 -73 126 C-58 137 -41 140 -23 138 C-3 134 11 124 22 108 C23 107 24 106 25 105 C31 93 33 83 33 70 C33 69 33 68 33 67 C33 51 27 36 16 24 C11 20 6 17 0 13 C-1 12 -3 12 -4 11 C-32 -2 -61 5 -82 26 Z " fill="#040508" transform="translate(393.625,140.625)"/>
<path d="M0 0 C6 1 7 5 11 9 C14 14 14 15 15 21 C16 31 20 38 26 45 C31 52 31 57 30 65 C30 67 30 68 30 70 C29 73 29 73 26 77 C25 80 25 83 24 86 C23 89 23 91 22 94 C22 94 22 94 25 95 C16 110 4 117 -13 122 C-27 125 -44 124 -56 117 C-57 115 -57 114 -58 112 C-61 110 -63 107 -66 105 C-69 102 -71 99 -74 96 C-74 94 -74 93 -74 91 C-73 90 -72 89 -71 88 C-66 88 -63 90 -59 92 C-49 97 -39 97 -29 94 C-17 90 -11 81 -5 70 C-0 58 -0 42 -3 29 C-3 23 -3 18 -2 13 C-2 12 -2 10 -2 9 C-2 5 -2 5 0 0 Z " fill="#D9DAE1" transform="translate(388,156)"/>
<path d="M0 0 C6 11 4 28 2 40 C1 44 1 44 -1 47 C-1 48 -2 50 -2 51 C-9 69 -19 83 -35 93 C-36 94 -38 95 -39 96 C-46 100 -53 104 -61 107 C-63 108 -64 108 -66 109 C-84 114 -107 112 -124 104 C-137 97 -148 87 -158 77 C-159 76 -160 75 -161 74 C-163 72 -165 69 -166 66 C-165 66 -165 66 -163 65 C-159 64 -159 64 -157 61 C-156 61 -156 61 -155 61 C-155 60 -154 60 -154 59 C-153 60 -152 62 -151 64 C-142 76 -130 84 -115 90 C-114 90 -113 91 -112 91 C-92 98 -74 96 -55 88 C-49 85 -44 82 -39 77 C-38 77 -38 77 -37 77 C-37 76 -37 76 -35 73 C-34 72 -34 72 -32 69 C-28 63 -24 57 -21 51 C-21 51 -21 51 -20 49 C-12 34 -11 20 -13 5 C-13 4 -13 4 -13 1 C-8 -2 -5 -3 0 0 Z " fill="#343B49" transform="translate(449,193)"/>
<path d="M0 0 C0 2 0 3 0 5 C-3 7 -3 7 -6 8 C-10 10 -12 11 -15 14 C-15 20 -15 20 -13 23 C-8 24 -4 24 1 23 C6 22 7 22 12 25 C13 26 15 27 16 28 C20 31 23 32 28 32 C32 29 32 29 35 24 C40 25 40 25 45 26 C51 26 51 26 55 24 C57 20 57 19 56 14 C56 13 56 13 55 9 C60 9 65 9 70 9 C71 9 71 9 75 9 C76 9 78 9 79 9 C80 9 82 9 83 9 C84 9 85 9 86 9 C86 10 86 10 88 13 C92 13 97 13 101 13 C105 13 110 13 114 13 C114 14 114 14 116 17 C119 17 119 17 123 17 C127 17 127 17 130 17 C130 18 130 18 132 21 C133 21 134 22 135 22 C135 24 134 25 134 27 C133 27 133 27 132 27 C131 28 131 30 130 31 C127 31 123 31 120 31 C119 32 119 34 118 35 C113 35 109 35 104 35 C103 35 101 35 100 35 C99 36 99 38 98 39 C92 39 87 39 81 39 C78 39 75 39 72 39 C71 40 71 42 70 43 C66 43 62 43 57 43 C56 43 55 43 53 43 C48 43 42 43 37 43 C33 43 29 43 25 43 C24 43 22 43 21 43 C18 43 15 43 12 43 C11 44 11 46 10 47 C7 47 7 47 3 47 C2 47 2 47 -1 47 C-3 47 -4 47 -6 47 C-7 47 -9 47 -10 47 C-14 47 -17 47 -21 47 C-21 46 -20 44 -20 43 C-16 42 -16 42 -11 42 C-1 42 -1 42 1 41 C1 41 1 41 0 40 C0 38 0 37 0 35 C-3 35 -5 34 -8 34 C-13 33 -16 30 -19 27 C-19 26 -20 26 -20 25 C-22 25 -23 25 -25 25 C-26 20 -26 20 -23 15 C-23 14 -24 12 -24 11 C-25 10 -27 10 -28 9 C-28 8 -28 7 -28 6 C-29 6 -29 6 -30 6 C-30 5 -30 5 -30 4 C-24 2 -18 1 -12 0 C-4 -1 -4 -1 0 0 Z " fill="#DCDDE3" transform="translate(304,524)"/>
<path d="M0 0 C8 5 13 10 16 20 C19 37 17 48 8 63 C3 68 -3 71 -10 72 C-19 72 -26 69 -33 63 C-39 53 -42 43 -40 31 C-38 21 -34 11 -25 4 C-17 -1 -10 -4 0 0 Z " fill="#040508" transform="translate(354.25,173.6875)"/>
<path d="M0 0 C8 5 12 11 16 20 C19 33 17 44 10 56 C5 62 0 66 -8 68 C-17 69 -23 66 -30 62 C-37 54 -40 45 -40 35 C-39 22 -35 13 -25 3 C-18 -2 -9 -3 0 0 Z " fill="#101114" transform="translate(228.9375,157.1875)"/>
<path d="M0 0 C2 1 4 3 6 4 C9 5 13 5 16 6 C17 6 18 7 19 7 C22 8 26 8 29 9 C31 9 32 9 33 9 C34 9 35 9 36 9 C36 8 36 8 36 7 C38 7 40 7 42 7 C42 6 42 6 42 5 C43 6 45 6 46 7 C46 9 46 10 46 12 C47 12 49 13 50 13 C50 14 50 14 50 15 C49 15 48 16 47 16 C47 16 47 16 48 19 C48 20 48 21 48 22 C47 23 47 23 46 24 C46 24 46 24 43 23 C43 25 43 26 43 28 C42 28 41 28 40 28 C39 28 38 29 37 29 C37 30 36 32 36 33 C36 32 36 32 35 29 C26 27 16 29 8 34 C5 36 2 38 -1 40 C-2 41 -3 41 -4 42 C-6 44 -6 44 -7 48 C-7 49 -8 50 -8 51 C-13 53 -13 53 -16 52 C-20 56 -20 56 -22 59 C-24 61 -24 61 -29 61 C-31 61 -32 61 -34 61 C-35 62 -35 62 -36 63 C-36 62 -37 60 -37 59 C-39 57 -39 57 -42 55 C-43 55 -43 54 -44 53 C-47 52 -47 52 -53 52 C-54 53 -55 53 -56 54 C-60 55 -62 55 -66 54 C-66 53 -66 53 -67 49 C-66 49 -66 49 -63 47 C-58 45 -58 45 -56 40 C-55 39 -55 37 -54 36 C-50 34 -47 35 -43 35 C-41 36 -39 37 -37 38 C-32 36 -32 36 -31 35 C-31 33 -31 31 -32 29 C-32 23 -31 19 -29 13 C-27 11 -27 11 -22 10 C-17 9 -15 8 -11 4 C-11 3 -10 2 -10 1 C-6 -0 -4 -0 0 0 Z " fill="#C2C5D0" transform="translate(324,313)"/>
<path d="M0 0 C9 6 14 13 18 23 C19 26 19 26 21 30 C21 32 20 33 20 35 C18 35 17 36 15 36 C13 33 13 33 12 30 C9 24 6 21 0 17 C-7 15 -14 15 -21 17 C-30 24 -36 32 -38 42 C-40 53 -39 62 -34 71 C-33 72 -33 73 -32 74 C-29 78 -25 80 -20 82 C-19 83 -18 83 -17 84 C-17 86 -18 87 -18 89 C-27 90 -36 88 -43 83 C-55 72 -58 60 -59 44 C-59 37 -59 31 -55 24 C-55 23 -55 23 -53 20 C-45 6 -39 0 -24 -5 C-15 -7 -8 -4 0 0 Z " fill="#EDEEF0" transform="translate(229,141)"/>
<path d="M0 0 C3 -0 3 -0 7 -0 C8 -0 8 -0 11 -0 C13 -0 14 -0 16 -0 C17 -0 19 -0 20 -0 C24 -0 27 -0 31 0 C29 5 29 5 28 7 C28 10 28 10 28 14 C31 17 31 17 34 17 C38 17 38 17 42 16 C46 15 48 15 52 16 C53 18 55 21 56 23 C59 24 59 24 62 25 C62 26 62 26 62 27 C64 27 65 28 67 28 C66 29 64 31 63 32 C63 33 64 33 64 34 C57 34 49 34 42 34 C39 34 37 34 34 34 C31 34 27 34 24 34 C23 34 23 34 20 34 C17 34 17 34 12 34 C11 33 11 31 10 30 C6 30 1 30 -3 30 C-7 30 -12 30 -16 30 C-17 29 -17 27 -18 26 C-22 26 -22 26 -27 26 C-32 26 -32 26 -36 26 C-37 25 -37 23 -38 22 C-40 22 -42 22 -44 22 C-45 21 -45 19 -46 18 C-47 18 -48 17 -49 17 C-49 15 -48 14 -48 12 C-47 12 -47 12 -46 12 C-45 11 -45 9 -44 8 C-40 8 -37 8 -33 8 C-32 8 -31 8 -30 8 C-29 7 -29 5 -28 4 C-22 4 -17 4 -11 4 C-8 4 -5 4 -2 4 C-1 3 -1 1 0 0 Z " fill="#DFE0E5" transform="translate(98,533)"/>
<path d="M0 0 C1 0 1 0 5 0 C7 0 9 0 11 0 C15 1 15 1 19 5 C20 10 20 12 17 17 C14 20 14 20 9 23 C6 30 6 38 6 47 C7 48 7 48 12 48 C17 50 17 50 19 53 C18 58 18 58 16 60 C14 60 12 60 10 60 C7 57 7 57 5 52 C1 52 -2 53 -6 55 C-7 55 -8 56 -9 56 C-13 58 -13 58 -18 61 C-19 65 -18 66 -17 71 C-19 71 -19 71 -23 72 C-24 71 -25 70 -27 69 C-27 65 -27 65 -27 61 C-27 53 -27 53 -28 50 C-33 49 -33 49 -37 50 C-40 50 -40 50 -44 50 C-48 46 -51 43 -54 39 C-53 30 -53 30 -50 26 C-46 24 -43 24 -39 24 C-33 25 -27 24 -21 24 C-20 23 -20 23 -17 23 C-13 22 -11 21 -9 18 C-8 17 -8 17 -8 17 C-8 14 -8 11 -9 8 C-8 2 -5 1 0 0 Z " fill="#898EA1" transform="translate(96.625,355.46875)"/>
<path d="M0 0 C3 1 3 1 4 3 C6 3 7 4 9 4 C11 6 13 7 15 9 C21 12 27 15 34 17 C35 17 35 17 39 19 C39 20 39 20 39 21 C40 21 41 20 42 20 C45 21 49 22 52 22 C70 26 89 26 107 26 C111 26 111 26 114 27 C114 26 114 26 114 25 C116 25 117 26 119 26 C125 26 130 25 136 22 C144 19 153 18 162 19 C162 19 162 19 164 21 C163 26 161 27 157 30 C144 35 126 38 112 35 C112 36 112 36 112 37 C99 38 87 38 74 37 C69 36 64 36 59 36 C37 35 37 35 30 28 C24 24 20 25 13 26 C7 26 1 24 -4 21 C-7 17 -7 15 -6 10 C-6 9 -5 8 -5 7 C-4 7 -2 6 -1 6 C-0 3 -0 3 0 0 Z " fill="#B8BBC8" transform="translate(146,481)"/>
<path d="M0 0 C1 3 1 3 1 6 C2 6 3 6 4 6 C4 10 4 14 4 18 C4 19 4 20 4 21 C4 30 4 30 2 34 C2 34 2 34 4 35 C2 41 2 41 -3 43 C-4 45 -5 46 -5 48 C-8 53 -8 53 -11 54 C-14 54 -14 54 -16 53 C-18 53 -20 53 -22 53 C-23 53 -23 53 -26 53 C-29 53 -29 53 -32 56 C-34 56 -35 56 -37 56 C-37 58 -37 59 -37 61 C-39 63 -39 63 -42 65 C-43 67 -44 68 -45 70 C-47 70 -48 69 -50 69 C-49 62 -49 62 -47 60 C-46 60 -45 60 -44 60 C-44 59 -45 57 -45 56 C-45 53 -45 51 -45 48 C-45 47 -45 45 -46 44 C-45 39 -44 38 -40 35 C-39 34 -38 34 -37 33 C-34 30 -33 26 -32 21 C-27 12 -23 6 -13 2 C-12 2 -12 2 -8 1 C-7 1 -6 0 -5 -0 C-2 -1 -2 -1 0 0 Z " fill="#C1C4CF" transform="translate(361,368)"/>
<path d="M0 0 C4 2 8 4 12 6 C12 7 12 7 12 8 C13 8 13 8 17 9 C17 10 17 10 17 11 C18 11 19 12 20 12 C19 18 18 18 14 22 C10 25 6 27 2 29 C2 31 3 32 3 34 C6 36 6 36 10 37 C11 38 12 38 14 39 C15 39 16 40 17 40 C18 41 20 41 21 42 C24 42 27 42 29 42 C31 42 32 42 34 42 C38 42 38 42 43 40 C47 41 47 41 49 43 C49 44 49 45 49 46 C45 48 42 50 38 52 C38 52 38 52 37 54 C33 55 31 55 27 54 C25 55 24 55 22 56 C22 57 22 57 22 58 C21 58 20 58 19 58 C15 59 15 59 10 62 C10 63 9 63 9 64 C6 65 6 65 2 64 C-1 60 -1 60 -3 55 C-4 54 -4 52 -5 51 C-5 48 -5 46 -5 43 C-5 32 -9 26 -15 18 C-17 15 -17 15 -17 9 C-16 7 -15 6 -14 4 C-14 3 -13 1 -13 0 C-9 -2 -4 -1 0 0 Z " fill="#C1C4CF" transform="translate(305,54)"/>
<path d="M0 0 C20 9 20 9 29 11 C29 11 29 11 32 12 C32 19 30 21 26 26 C22 31 20 37 17 43 C16 46 16 46 12 50 C11 55 12 58 14 62 C13 63 13 64 13 64 C12 64 11 64 11 64 C10 66 10 68 10 69 C9 69 8 69 8 69 C7 65 8 61 9 57 C8 57 7 56 7 55 C7 54 7 53 7 51 C5 51 4 51 3 51 C3 50 3 49 3 47 C2 37 -3 28 -9 20 C-17 12 -27 9 -37 6 C-30 1 -30 1 -26 1 C-22 0 -22 0 -18 -4 C-12 -6 -6 -3 0 0 Z " fill="#C2C5D0" transform="translate(246.4375,128.6875)"/>
<path d="M0 0 C6 0 6 0 10 3 C10 3 10 3 13 4 C24 9 33 15 41 23 C42 24 43 24 44 25 C43 30 41 33 39 37 C36 42 33 46 31 51 C30 50 29 49 27 48 C16 41 3 37 -10 37 C-11 35 -11 35 -11 29 C-10 28 -9 28 -8 27 C-8 23 -9 20 -9 16 C-8 15 -8 15 -7 14 C-6 12 -5 9 -4 7 C-2 3 -2 3 0 0 Z " fill="#BDC0CC" transform="translate(140,122)"/>
<path d="M0 0 C4 2 4 2 6 5 C7 22 -5 38 -15 51 C-26 64 -41 75 -58 80 C-62 79 -65 78 -69 76 C-67 70 -65 70 -60 67 C-50 61 -42 54 -34 46 C-33 45 -32 44 -31 43 C-20 34 -13 20 -7 8 C-5 4 -4 2 0 0 Z " fill="#AFB1B9" transform="translate(382,426)"/>
<path d="M0 0 C4 4 4 4 6 7 C14 19 27 26 40 31 C41 31 42 32 43 32 C55 36 66 37 78 37 C78 41 78 41 78 45 C77 46 75 48 74 49 C74 50 74 50 74 51 C58 55 40 50 26 42 C15 36 6 27 -3 18 C-4 17 -5 16 -6 15 C-8 13 -10 10 -11 7 C-10 7 -9 6 -8 6 C-4 5 -4 5 -2 2 C-1 2 -1 2 0 2 C0 1 0 1 0 0 Z " fill="#343B49" transform="translate(294,252)"/>
<path d="M0 0 C1 0 2 0 3 0 C7 7 7 12 4 19 C4 21 4 22 3 24 C4 24 4 24 5 24 C5 29 4 34 2 39 C-0 35 -0 32 0 27 C-0 27 -0 27 -1 24 C-2 26 -2 27 -3 29 C-5 29 -6 29 -8 29 C-9 30 -11 31 -12 32 C-18 34 -20 34 -26 34 C-29 35 -32 36 -35 37 C-37 37 -39 37 -41 37 C-46 32 -46 31 -46 25 C-46 24 -46 22 -46 21 C-46 16 -44 13 -41 10 C-31 5 -20 5 -9 5 C-8 5 -7 5 -6 5 C-5 5 -3 5 -2 5 C-2 6 -2 6 -2 7 C-1 7 -1 7 0 7 C0 5 0 2 0 0 Z " fill="#888DA0" transform="translate(469,366)"/>
<path d="M0 0 C4 3 7 4 10 8 C11 9 11 9 12 10 C16 14 19 18 21 23 C23 25 24 26 26 28 C26 29 26 29 26 30 C23 31 20 32 17 33 C15 35 15 35 14 39 C13 43 13 43 9 46 C7 46 6 45 4 45 C3 42 1 38 0 35 C-4 33 -10 34 -15 34 C-19 33 -19 33 -23 29 C-24 22 -23 17 -18 11 C-14 8 -10 6 -5 4 C-4 3 -3 2 -2 2 C-1 1 -1 1 0 0 Z " fill="#C1C4CF" transform="translate(267,267)"/>
<path d="M0 0 C0 1 0 2 0 3 C1 3 3 4 4 4 C5 5 5 5 6 6 C6 11 6 11 3 14 C3 15 3 15 4 18 C6 18 7 19 9 19 C9 20 9 20 9 21 C10 22 12 22 13 23 C14 24 15 24 16 25 C20 27 20 27 24 28 C26 28 27 29 28 29 C28 30 28 30 29 34 C30 35 30 35 31 36 C19 39 -0 41 -12 37 C-12 35 -12 34 -12 32 C-13 26 -14 26 -18 22 C-18 20 -19 19 -19 17 C-21 11 -21 11 -24 9 C-24 8 -24 8 -24 7 C-29 7 -35 7 -40 7 C-40 6 -39 6 -39 5 C-38 5 -38 5 -37 5 C-37 4 -37 4 -37 3 C-32 2 -27 2 -22 1 C-22 1 -22 0 -22 0 C-5 -3 -5 -3 0 0 Z " fill="#C9CCD5" transform="translate(276,530)"/>
<path d="M0 0 C2 4 2 6 2 10 C2 11 2 12 2 14 C2 17 2 17 -1 20 C-6 20 -12 20 -17 21 C-26 21 -26 21 -29 24 C-30 24 -30 24 -31 24 C-31 24 -31 24 -32 27 C-36 29 -39 28 -43 28 C-46 26 -48 25 -51 23 C-53 21 -53 21 -58 19 C-62 18 -62 18 -65 16 C-66 12 -66 10 -65 6 C-62 4 -60 4 -56 3 C-52 3 -49 3 -46 2 C-45 3 -43 3 -42 4 C-42 5 -42 7 -42 8 C-37 9 -37 9 -34 8 C-30 5 -26 7 -21 7 C-18 6 -18 6 -15 4 C-14 4 -12 3 -11 3 C-10 3 -9 2 -8 2 C-8 1 -7 1 -7 0 C-4 -1 -4 -1 0 0 Z " fill="#C2C5D0" transform="translate(238,296)"/>
<path d="M0 0 C3 1 3 1 4 3 C6 3 7 4 9 4 C11 6 13 7 15 9 C21 12 27 15 34 17 C35 17 35 17 39 19 C39 20 39 20 39 21 C40 21 41 20 42 20 C46 21 50 21 55 22 C56 23 57 23 58 23 C67 25 67 25 69 26 C69 27 69 27 69 28 C66 28 64 28 61 28 C62 28 64 29 65 29 C70 30 70 30 72 32 C70 34 67 33 65 34 C58 34 58 34 56 35 C49 36 41 34 34 32 C33 31 31 30 30 28 C24 24 20 25 13 26 C7 26 1 24 -4 21 C-7 17 -7 15 -6 10 C-6 9 -5 8 -5 7 C-4 7 -2 6 -1 6 C-0 3 -0 3 0 0 Z " fill="#AFB1B9" transform="translate(146,481)"/>
<path d="M0 0 C2 0 4 0 6 0 C5 2 4 3 3 5 C-4 19 -10 32 -12 48 C-14 53 -17 57 -20 61 C-22 64 -24 67 -26 71 C-26 70 -27 70 -27 69 C-29 69 -31 69 -33 69 C-34 69 -34 69 -35 69 C-37 71 -38 72 -40 74 C-44 77 -47 78 -52 78 C-53 78 -54 77 -55 77 C-55 78 -55 78 -55 79 C-57 79 -60 78 -62 78 C-62 76 -62 75 -62 73 C-62 73 -62 73 -59 73 C-58 73 -57 72 -55 72 C-54 72 -53 72 -52 72 C-45 70 -40 68 -36 63 C-30 53 -28 45 -28 34 C-28 32 -28 30 -28 28 C-28 27 -28 25 -28 24 C-27 24 -25 24 -24 24 C-24 25 -24 27 -24 28 C-23 28 -21 28 -20 28 C-17 35 -17 38 -19 46 C-18 46 -18 45 -17 45 C-17 44 -16 42 -16 41 C-15 41 -15 41 -14 41 C-15 37 -15 37 -16 34 C-16 31 -16 31 -16 27 C-14 25 -13 23 -11 21 C-10 18 -8 16 -7 13 C-5 8 -3 4 0 0 Z " fill="#D8D9E0" transform="translate(273,152)"/>
<path d="M0 0 C4 0 8 1 12 2 C13 2 14 2 15 2 C15 1 16 1 16 0 C31 6 40 24 46 38 C48 43 48 48 48 54 C48 53 47 52 46 51 C46 51 45 50 44 49 C40 49 37 50 33 51 C33 50 32 49 32 48 C25 31 18 17 3 5 C2 4 1 3 0 2 C0 1 0 1 0 0 Z " fill="#444B5B" transform="translate(403,143)"/>
<path d="M0 0 C1 1 3 1 4 2 C4 3 4 3 5 6 C8 11 11 13 16 17 C16 17 16 17 17 20 C18 20 20 21 21 21 C21 22 21 23 21 24 C14 24 8 24 1 24 C-1 24 -3 24 -6 24 C-9 24 -12 23 -15 23 C-17 23 -19 23 -21 23 C-26 23 -26 23 -31 21 C-30 20 -28 20 -27 19 C-24 17 -21 15 -19 12 C-16 8 -13 6 -8 4 C-8 4 -8 4 -4 2 C-3 1 -1 1 0 0 Z " fill="#C7CAD4" transform="translate(239,484)"/>
<path d="M0 0 C2 2 2 2 5 4 C8 7 10 8 15 10 C16 10 18 11 19 11 C19 13 19 15 19 17 C14 21 11 22 5 21 C4 21 4 21 2 20 C1 19 -0 19 -1 19 C-4 21 -4 21 -6 24 C-11 29 -11 29 -15 30 C-16 29 -18 29 -19 28 C-19 22 -17 17 -14 12 C-14 10 -13 9 -12 7 C-9 1 -7 -1 0 0 Z " fill="#444B5B" transform="translate(409,438)"/>
<path d="M0 0 C4 2 8 3 12 5 C11 8 9 11 8 14 C7 16 6 18 5 19 C3 24 3 24 -1 28 C-2 33 -1 35 1 40 C1 41 0 41 0 42 C-1 42 -1 42 -2 42 C-2 44 -3 45 -3 47 C-4 47 -4 47 -5 47 C-5 43 -5 39 -4 35 C-5 34 -5 34 -6 33 C-6 32 -6 30 -6 29 C-7 29 -9 29 -10 29 C-10 28 -10 26 -10 25 C-10 19 -12 15 -14 10 C-15 5 -15 3 -12 -1 C-7 -3 -5 -2 0 0 Z " fill="#C6C9D3" transform="translate(259,151)"/>
<path d="M0 0 C1 0 1 0 2 0 C5 5 7 10 8 16 C8 17 8 17 6 21 C6 24 6 28 6 31 C6 34 6 34 3 38 C-1 38 -1 38 -5 38 C-6 38 -7 39 -9 39 C-10 39 -11 39 -12 39 C-16 35 -16 33 -16 28 C-14 25 -14 25 -11 24 C-9 21 -8 19 -6 16 C-6 14 -5 13 -4 11 C-2 7 -2 7 -1 3 C-1 2 -1 2 0 0 Z " fill="#BDC0CC" transform="translate(108,245)"/>
<path d="M0 0 C2 -0 4 -1 6 -1 C10 0 11 2 14 5 C17 7 21 7 25 7 C25 8 25 9 25 10 C26 11 28 11 29 12 C18 13 7 13 -4 13 C-5 13 -7 13 -8 13 C-11 13 -14 13 -17 13 C-17 12 -18 10 -18 9 C-21 9 -23 9 -26 9 C-27 8 -27 8 -28 7 C-27 6 -27 6 -26 5 C-24 5 -22 5 -20 5 C-20 4 -20 4 -20 3 C-13 -0 -8 -1 0 0 Z " fill="#C8CBD5" transform="translate(111,550)"/>
<path d="M0 0 C0 1 1 2 1 3 C2 3 3 3 4 2 C5 2 7 2 8 2 C12 6 14 10 17 15 C18 15 18 16 19 16 C19 17 19 17 19 18 C20 18 21 19 22 19 C22 21 21 22 21 24 C17 27 14 28 10 28 C5 27 2 24 -2 20 C-6 17 -6 17 -8 17 C-7 15 -7 13 -6 11 C-7 11 -7 11 -8 11 C-6 7 -3 4 0 0 Z " fill="#C2C5D0" transform="translate(169,71)"/>
<path d="M0 0 C5 1 9 2 14 3 C17 4 20 4 22 5 C27 6 29 6 32 10 C34 14 36 17 36 21 C35 24 35 24 33 25 C32 24 31 23 30 22 C27 20 25 19 22 18 C21 17 19 17 18 16 C10 13 2 11 -7 11 C-8 9 -8 9 -8 3 C-4 -0 -4 -0 0 0 Z " fill="#C2C5D0" transform="translate(137,148.125)"/>
<path d="M0 0 C6 0 6 0 10 3 C11 3 12 4 13 4 C24 9 33 14 41 23 C42 24 42 24 43 25 C38 30 38 30 34 30 C25 27 15 21 10 13 C10 12 10 12 10 11 C9 11 9 11 5 9 C1 6 1 6 0 3 C0 2 0 2 0 0 Z " fill="#C2C5D0" transform="translate(140,122)"/>
<path d="M0 0 C1 1 1 1 2 2 C1 7 -1 8 -5 11 C-14 15 -25 16 -35 16 C-36 16 -36 15 -37 15 C-39 15 -40 15 -42 15 C-47 15 -47 15 -50 14 C-49 13 -49 11 -48 10 C-44 9 -40 10 -36 10 C-36 9 -37 8 -37 7 C-25 3 -13 -1 0 0 Z " fill="#B0B2BA" transform="translate(308,500)"/>
<path d="M0 0 C2 0 3 0 5 0 C6 4 6 8 6 12 C7 19 9 23 11 29 C12 31 12 32 13 34 C15 35 17 35 19 36 C22 38 22 38 25 41 C26 45 26 45 25 49 C25 49 25 49 22 50 C22 51 22 51 22 52 C17 51 17 51 14 48 C11 43 8 38 6 33 C4 30 2 26 -0 23 C-4 17 -3 12 -3 6 C-2 2 -2 2 0 0 Z " fill="#444B5B" transform="translate(381,377)"/>
<path d="M0 0 C5 1 7 1 11 4 C13 5 15 5 17 6 C22 8 22 8 24 12 C17 20 4 20 -6 21 C-8 21 -11 22 -13 22 C-12 16 -10 16 -5 12 C-5 10 -4 9 -4 7 C-3 6 -2 5 -1 4 C-1 3 -0 1 0 0 Z " fill="#878DA0" transform="translate(94,282)"/>
<path d="M0 0 C0 1 0 3 0 4 C1 4 3 5 4 5 C4 4 4 4 4 3 C5 3 7 3 8 3 C8 4 8 4 8 5 C9 6 9 6 10 7 C8 12 7 14 3 18 C-4 20 -10 20 -17 18 C-20 16 -20 16 -23 13 C-23 11 -23 10 -23 8 C-19 7 -15 7 -11 7 C-11 7 -11 7 -11 4 C-11 3 -10 2 -10 1 C-5 0 -5 0 0 0 Z " fill="#C2C5D0" transform="translate(233,41)"/>
<path d="M0 0 C6 -0 11 0 17 1 C28 3 40 4 51 4 C53 4 55 4 58 4 C63 5 68 5 73 5 C73 5 73 6 73 6 C70 6 70 6 57 7 C57 8 57 8 57 9 C52 12 46 11 40 10 C39 10 37 10 35 10 C31 9 28 9 24 8 C24 9 23 10 23 11 C22 11 22 11 19 13 C19 15 19 17 19 19 C17 18 17 18 16 15 C14 11 11 10 7 8 C4 7 4 7 1 5 C1 4 1 4 0 0 Z " fill="#ECEDEF" transform="translate(182,526)"/>
<path d="M0 0 C-0 1 -1 1 -1 2 C-2 2 -3 1 -4 1 C-4 2 -5 3 -5 4 C-8 5 -8 5 -12 5 C-13 4 -14 4 -15 3 C-15 2 -15 2 -15 1 C-25 1 -34 0 -44 0 C-44 1 -44 1 -44 2 C-48 2 -52 2 -56 2 C-56 1 -55 0 -55 -1 C-56 -1 -58 -1 -59 -1 C-59 -0 -59 0 -59 1 C-60 1 -62 0 -63 0 C-63 -2 -63 -3 -63 -5 C-44 -10 -18 -7 0 0 Z " fill="#D9DAE1" transform="translate(296,45)"/>
<path d="M0 0 C4 0 8 0 12 0 C13 0 13 0 16 1 C18 1 21 1 24 1 C24 5 24 5 24 9 C23 10 21 12 20 13 C20 14 20 14 20 15 C12 16 12 16 9 15 C9 14 9 14 9 13 C8 13 8 13 3 13 C-0 13 -0 13 -3 13 C-4 12 -4 12 -5 11 C-5 10 -5 9 -5 8 C-6 8 -6 7 -7 7 C-7 6 -7 6 -7 5 C-5 4 -3 2 -1 1 C-1 1 -0 0 0 0 Z " fill="#3D4149" transform="translate(348,288)"/>
<path d="M0 0 C1 0 1 0 4 0 C7 0 11 0 15 0 C20 0 24 1 29 1 C30 1 30 1 33 1 C39 1 45 1 52 1 C58 1 64 1 70 2 C71 2 73 2 75 2 C76 3 77 3 79 3 C79 4 79 4 79 5 C67 5 55 5 43 5 C38 5 33 5 27 5 C22 5 17 5 11 5 C8 5 5 5 3 5 C1 5 -1 5 -3 5 C-4 5 -4 5 -8 5 C-9 5 -10 5 -11 5 C-12 4 -13 2 -13 1 C-9 -1 -4 -0 0 0 Z " fill="#EDEEF0" transform="translate(189.4453125,566.12109375)"/>
<path d="M0 0 C0 0 0 0 2 3 C2 4 1 6 1 7 C-2 9 -2 9 -5 10 C-6 11 -7 11 -9 12 C-14 14 -17 15 -23 15 C-26 11 -26 11 -26 5 C-19 -2 -8 -4 0 0 Z " fill="#323846" transform="translate(411,307)"/>
<path d="M0 0 C0 0 1 0 1 0 C4 16 4 16 3 22 C2 23 1 25 0 26 C-1 30 -1 33 -1 38 C-1 42 -2 45 -4 49 C-4 50 -4 52 -4 53 C-4 55 -4 56 -4 57 C-5 57 -5 57 -9 58 C-9 59 -10 61 -10 62 C-11 64 -12 66 -13 68 C-14 64 -13 62 -13 58 C-12 56 -12 55 -11 53 C-11 52 -11 50 -10 48 C-7 36 -5 23 -2 10 C-1 2 -1 2 0 0 Z " fill="#D9DAE1" transform="translate(118,179)"/>
<path d="M0 0 C1 1 3 3 4 4 C5 5 7 6 8 7 C9 8 10 9 11 10 C11 11 11 11 11 12 C6 12 2 12 -3 12 C-4 12 -6 12 -7 12 C-8 12 -8 12 -11 12 C-12 12 -12 12 -15 12 C-18 12 -21 12 -24 11 C-24 9 -24 8 -24 6 C-19 3 -15 1 -9 0 C-6 -2 -3 -1 0 0 Z " fill="#C7CAD4" transform="translate(206,555)"/>
<path d="M0 0 C4 4 4 4 4 7 C3 12 0 15 -3 19 C-4 19 -4 19 -5 19 C-5 20 -6 22 -6 23 C-7 24 -7 26 -8 27 C-8 26 -8 24 -9 23 C-10 18 -10 18 -13 13 C-16 9 -16 9 -17 5 C-17 4 -16 3 -16 2 C-11 -0 -6 -0 0 0 Z " fill="#C2C5D0" transform="translate(168,328)"/>
<path d="M0 0 C1 0 1 1 2 1 C2 2 2 2 2 3 C4 3 5 3 7 3 C7 5 7 8 7 10 C6 10 6 10 5 10 C5 15 5 21 5 26 C6 26 6 26 7 26 C7 30 7 35 7 39 C7 40 7 41 7 43 C7 46 6 49 6 52 C5 52 5 52 2 53 C2 54 2 54 2 55 C1 55 0 55 -1 55 C-1 55 -1 55 -1 52 C0 36 0 20 -1 4 C-1 3 -1 2 -1 1 C-1 1 -0 0 0 0 Z " fill="#D9DAE1" transform="translate(155,351)"/>
<path d="M0 0 C4 3 4 3 5 7 C5 12 4 14 1 18 C-1 19 -1 19 -7 19 C-13 16 -13 16 -14 13 C-14 6 -13 5 -9 1 C-6 -1 -3 -0 0 0 Z " fill="#EDEEF0" transform="translate(343,184)"/>
<path d="M0 0 C4 4 4 4 7 9 C7 11 7 11 5 19 C7 21 10 23 12 25 C14 28 14 28 16 31 C16 32 15 33 15 34 C9 29 3 24 -3 18 C-3 18 -3 18 -6 15 C-8 13 -10 10 -11 7 C-10 7 -9 6 -8 6 C-4 5 -4 5 -2 2 C-1 2 -1 2 0 2 C0 1 0 1 0 0 Z " fill="#3E4350" transform="translate(294,252)"/>
<path d="M0 0 C-1 2 -1 3 -2 5 C-6 6 -10 6 -14 6 C-14 7 -14 9 -14 10 C-15 10 -15 10 -19 10 C-20 10 -20 10 -24 11 C-24 11 -24 11 -26 14 C-28 15 -30 16 -32 17 C-33 18 -33 18 -34 19 C-36 20 -37 20 -39 21 C-42 24 -45 26 -47 29 C-49 30 -50 31 -52 32 C-53 32 -54 31 -55 31 C-50 17 -31 10 -18 4 C-12 2 -7 0 0 0 Z " fill="#D9DAE1" transform="translate(224,43)"/>
<path d="M0 0 C0 2 0 3 0 5 C-3 7 -3 7 -6 8 C-12 11 -12 11 -14 13 C-20 13 -23 12 -28 9 C-28 8 -28 7 -28 6 C-29 6 -29 6 -30 6 C-30 5 -30 5 -30 4 C-24 2 -18 1 -12 0 C-4 -1 -4 -1 0 0 Z " fill="#EDEEF0" transform="translate(304,524)"/>
<path d="M0 0 C3 4 5 7 5 12 C3 15 3 15 0 17 C-2 17 -4 17 -6 17 C-9 14 -11 11 -13 7 C-13 5 -13 4 -13 2 C-8 -0 -5 -1 0 0 Z " fill="#7A8095" transform="translate(289,242)"/>
<path d="M0 0 C5 1 5 1 6 2 C6 5 6 8 6 11 C6 12 6 14 6 16 C6 20 6 20 4 25 C3 27 3 30 2 32 C1 31 -1 31 -2 30 C-2 27 -2 27 -2 24 C-2 23 -2 22 -2 20 C-2 19 -2 18 -2 17 C-2 15 -2 14 -2 13 C-2 3 -2 3 0 0 Z " fill="#B6B9C3" transform="translate(407,219)"/>
<path d="M0 0 C3 -0 6 -0 10 -0 C11 -0 13 -0 15 -0 C20 0 20 0 25 2 C28 8 29 11 29 17 C28 18 27 19 26 20 C25 20 25 20 24 20 C24 18 23 17 23 15 C24 15 26 14 27 14 C27 13 27 13 27 12 C26 12 24 11 23 11 C22 8 22 8 21 5 C20 5 20 4 19 4 C19 5 19 5 19 6 C17 6 15 6 13 6 C13 7 13 7 13 8 C8 8 8 8 2 8 C1 4 1 4 0 0 Z " fill="#D8D9E0" transform="translate(347,314)"/>
<path d="M0 0 C9 2 16 7 23 13 C23 14 24 14 24 15 C23 15 21 14 20 14 C20 15 19 16 19 17 C16 17 16 17 12 16 C10 16 8 15 6 15 C4 14 3 14 1 13 C-1 8 -2 5 0 0 Z " fill="#353A45" transform="translate(399,129)"/>
<path d="M0 0 C1 0 1 0 2 0 C2 1 2 1 2 2 C1 2 1 2 0 2 C0 1 0 1 0 0 Z " fill="#EDEEF0" transform="translate(437,301)"/>
</svg>
