<?xml version="1.0" encoding="UTF-8"?>
<!-- Generator: visioncortex VTracer 0.6.12 -->
<svg version="1.1" xmlns="http://www.w3.org/2000/svg" width="588" height="604">
<path d="M0 0 C4 -1 4 -1 10 -1 C12 -1 14 -1 16 -1 C17 -1 18 -1 19 -1 C22 -1 25 -1 28 -1 C29 -1 29 -1 34 -1 C36 -1 38 -1 40 -1 C41 -0 43 -0 44 0 C45 1 45 3 46 4 C49 4 49 4 53 4 C57 4 57 4 60 4 C61 5 61 7 62 8 C64 8 65 8 67 8 C69 8 70 8 72 8 C73 9 73 11 74 12 C76 12 77 12 79 12 C81 12 82 12 84 12 C85 13 85 15 86 16 C88 16 90 16 92 16 C93 17 93 19 94 20 C95 20 95 20 98 22 C98 23 98 23 98 24 C100 24 102 24 104 24 C105 25 105 27 106 28 C107 28 107 28 110 30 C110 31 110 31 110 32 C111 33 113 33 114 34 C114 35 114 35 114 36 C115 37 117 37 118 38 C118 39 118 39 118 40 C119 41 121 41 122 42 C122 43 122 43 122 44 C123 45 125 45 126 46 C126 47 126 47 126 48 C127 49 129 49 130 50 C130 51 130 51 130 52 C131 53 133 53 134 54 C134 55 134 55 134 56 C135 56 136 56 137 56 C137 57 137 58 137 59 C138 63 138 63 142 66 C142 67 142 67 142 68 C143 68 144 68 145 68 C145 69 145 70 145 71 C146 73 146 74 146 75 C147 75 148 76 149 76 C149 78 150 81 150 83 C151 83 152 84 153 84 C153 88 154 91 154 95 C155 95 156 96 157 96 C157 100 158 103 158 107 C159 107 160 108 161 108 C161 112 162 115 162 119 C163 119 164 120 165 120 C165 125 166 130 166 135 C166 136 166 138 166 139 C167 139 168 140 169 140 C169 145 170 150 170 155 C170 156 170 158 170 159 C171 159 172 160 173 160 C173 166 173 172 174 177 C174 181 174 184 174 187 C175 187 176 188 177 188 C177 193 178 198 178 203 C178 204 178 206 178 207 C179 207 180 208 181 208 C181 212 182 216 182 220 C182 221 182 222 182 223 C183 223 184 224 185 224 C185 226 186 229 186 231 C187 231 188 232 189 232 C189 236 190 239 190 243 C191 243 192 244 193 244 C193 246 194 249 194 251 C195 251 196 252 197 252 C197 253 197 254 197 255 C198 259 198 259 202 262 C202 263 202 263 202 264 C204 264 206 264 208 264 C209 265 209 267 210 268 C211 269 213 269 214 270 C214 271 214 271 214 272 C215 272 216 272 217 272 C217 273 217 274 217 275 C218 279 218 279 222 282 C222 283 222 283 222 284 C223 285 225 285 226 286 C226 287 226 287 226 288 C227 288 228 288 229 288 C229 289 229 290 229 291 C230 295 230 295 234 298 C234 299 234 299 234 300 C235 300 236 300 237 300 C237 301 237 302 237 303 C237 304 237 304 238 307 C239 307 240 308 241 308 C241 312 242 315 242 319 C243 319 244 320 245 320 C245 324 246 327 246 331 C247 331 248 332 249 332 C249 336 250 339 250 343 C251 343 252 344 253 344 C253 347 253 347 253 351 C253 352 253 353 253 355 C253 356 253 356 253 359 C253 361 253 362 253 364 C253 367 253 371 253 374 C253 379 253 384 253 389 C253 392 253 395 253 399 C253 400 253 402 253 403 C253 405 253 406 253 407 C253 409 253 410 253 411 C253 412 253 413 253 414 C252 414 251 415 250 415 C250 418 250 418 250 422 C249 427 249 427 249 430 C248 430 247 431 246 431 C245 435 245 435 245 438 C244 438 243 438 242 438 C241 439 241 441 240 442 C239 442 239 443 238 443 C238 444 237 445 237 446 C237 448 236 449 236 450 C235 450 235 451 234 451 C234 452 234 454 234 455 C235 456 236 456 237 457 C237 460 237 460 237 464 C237 465 237 466 237 467 C237 468 237 468 237 470 C236 470 235 471 234 471 C233 475 233 475 233 478 C232 478 231 478 230 478 C229 479 229 481 228 482 C225 483 225 483 222 483 C222 484 222 486 222 487 C223 487 225 487 226 487 C230 487 235 487 240 487 C242 487 244 487 246 487 C249 487 252 487 255 487 C255 487 255 487 260 487 C261 488 263 488 264 488 C265 489 265 491 266 492 C267 492 268 492 269 492 C269 502 270 512 270 523 C273 523 277 524 280 524 C280 526 281 527 281 529 C281 529 280 530 280 530 C278 530 276 530 274 530 C273 531 273 533 272 534 C269 534 265 534 262 534 C261 535 261 537 260 538 C255 538 251 538 246 538 C245 538 245 538 242 538 C241 539 241 541 240 542 C237 542 237 542 232 542 C231 542 229 542 228 542 C225 542 221 542 218 542 C217 542 215 542 214 542 C213 542 213 542 209 542 C208 542 207 542 206 542 C205 543 205 545 204 546 C201 546 201 546 196 546 C195 546 193 546 192 546 C189 546 185 546 182 546 C181 546 179 546 178 546 C177 546 177 546 173 546 C172 546 171 546 170 546 C169 547 169 549 168 550 C164 550 160 551 156 551 C155 551 154 551 153 551 C149 551 145 551 142 551 C138 551 134 551 130 551 C128 551 126 551 123 551 C121 551 118 551 115 551 C114 552 114 553 113 554 C112 554 112 554 111 554 C111 553 110 551 110 550 C106 551 106 551 104 554 C101 554 101 554 97 554 C95 554 94 554 92 554 C91 554 89 554 87 554 C86 554 84 554 82 554 C77 554 72 554 68 554 C63 554 59 554 55 554 C46 554 37 554 27 554 C17 554 7 554 -2 554 C-11 554 -19 555 -27 554 C-32 554 -37 554 -43 555 C-48 555 -54 555 -59 555 C-61 555 -63 555 -64 555 C-66 555 -67 555 -69 555 C-70 555 -72 555 -73 555 C-74 554 -75 554 -76 554 C-77 553 -77 551 -78 550 C-82 550 -86 550 -91 550 C-92 550 -93 550 -95 550 C-99 550 -103 550 -107 550 C-112 550 -118 550 -123 550 C-124 550 -124 550 -127 550 C-130 550 -133 550 -136 550 C-137 549 -137 547 -138 546 C-142 546 -142 546 -148 546 C-149 546 -150 546 -151 546 C-155 546 -158 546 -161 546 C-165 546 -170 546 -174 546 C-176 546 -178 546 -180 546 C-181 546 -182 546 -184 546 C-185 545 -185 543 -186 542 C-189 542 -189 542 -193 542 C-194 542 -195 542 -197 542 C-198 542 -200 542 -201 542 C-204 542 -207 542 -209 542 C-211 542 -212 542 -213 542 C-214 542 -214 542 -216 542 C-217 541 -217 539 -218 538 C-222 538 -222 538 -227 538 C-232 538 -232 538 -236 538 C-237 537 -237 535 -238 534 C-240 534 -241 534 -243 534 C-245 534 -246 534 -248 534 C-249 533 -249 531 -250 530 C-254 530 -254 530 -257 530 C-257 529 -257 529 -257 528 C-253 524 -253 524 -250 524 C-249 523 -249 521 -248 520 C-245 519 -245 519 -242 519 C-242 518 -242 517 -242 516 C-242 488 -242 460 -242 432 C-242 418 -242 405 -242 391 C-242 380 -242 368 -242 356 C-242 350 -242 344 -242 337 C-241 332 -241 326 -241 320 C-241 318 -241 316 -241 313 C-241 310 -241 308 -241 305 C-241 303 -241 301 -241 300 C-241 298 -241 297 -241 296 C-240 296 -239 295 -238 295 C-237 291 -237 291 -237 288 C-236 288 -235 288 -234 288 C-234 287 -234 287 -232 284 C-231 284 -231 284 -230 284 C-230 283 -230 283 -228 280 C-225 280 -221 280 -218 280 C-217 279 -217 277 -216 276 C-212 276 -209 276 -205 276 C-203 276 -200 276 -198 276 C-195 276 -191 276 -187 276 C-184 276 -181 276 -177 276 C-176 276 -175 276 -174 276 C-171 276 -171 276 -166 275 C-164 271 -164 271 -164 268 C-163 268 -163 268 -162 268 C-161 267 -161 265 -160 264 C-159 264 -159 264 -158 264 C-157 263 -157 261 -156 260 C-155 260 -155 259 -154 259 C-154 258 -154 258 -154 256 C-153 255 -153 255 -153 252 C-152 252 -151 251 -150 251 C-150 250 -150 249 -150 248 C-149 246 -149 245 -149 244 C-148 244 -147 243 -146 243 C-146 241 -146 239 -146 238 C-145 236 -145 234 -145 232 C-144 232 -143 231 -142 231 C-142 229 -142 227 -142 226 C-141 224 -141 222 -141 220 C-140 220 -139 219 -138 219 C-138 217 -138 215 -138 214 C-137 212 -137 210 -137 208 C-136 208 -135 207 -134 207 C-134 203 -134 203 -134 198 C-133 192 -133 192 -133 188 C-132 188 -131 187 -130 187 C-130 182 -130 178 -130 174 C-129 169 -129 165 -129 160 C-128 160 -127 159 -126 159 C-126 155 -126 151 -126 148 C-125 144 -125 140 -125 136 C-124 136 -123 135 -122 135 C-122 132 -122 132 -122 128 C-121 123 -121 123 -121 120 C-120 120 -119 119 -118 119 C-118 117 -118 115 -118 114 C-117 112 -117 110 -117 108 C-116 108 -115 107 -114 107 C-114 105 -114 103 -114 102 C-113 100 -113 98 -113 96 C-112 96 -111 95 -110 95 C-110 94 -110 93 -110 92 C-109 90 -109 89 -109 88 C-108 88 -107 87 -106 87 C-106 83 -105 80 -105 76 C-104 76 -103 76 -102 76 C-102 75 -102 75 -100 72 C-99 72 -99 71 -98 71 C-98 69 -97 66 -97 64 C-96 64 -95 64 -94 64 C-93 63 -93 61 -92 60 C-91 60 -91 59 -90 59 C-90 57 -89 54 -89 52 C-88 52 -87 52 -86 52 C-85 51 -85 49 -84 48 C-83 48 -83 48 -82 48 C-81 47 -81 45 -80 44 C-79 44 -79 44 -78 44 C-77 43 -77 41 -76 40 C-75 40 -75 40 -74 40 C-73 39 -73 37 -72 36 C-71 36 -71 36 -70 36 C-69 35 -69 33 -68 32 C-67 32 -67 32 -66 32 C-65 31 -65 29 -64 28 C-63 28 -63 28 -62 28 C-61 27 -61 25 -60 24 C-58 24 -56 24 -54 24 C-53 23 -53 21 -52 20 C-50 20 -48 20 -46 20 C-45 19 -45 17 -44 16 C-43 16 -43 16 -42 16 C-41 15 -41 13 -40 12 C-37 12 -33 12 -30 12 C-29 11 -29 9 -28 8 C-26 8 -24 8 -22 8 C-21 7 -21 5 -20 4 C-15 4 -11 4 -6 4 C-5 4 -3 4 -2 4 C-1 3 -1 1 0 0 Z " fill="#1C1F2C" transform="translate(282,25)"/>
<path d="M0 0 C1 0 2 1 3 1 C17 4 29 11 40 19 C40 19 40 19 43 21 C52 27 59 34 65 43 C65 44 65 44 65 45 C66 45 67 46 68 46 C82 64 90 86 95 108 C96 111 97 115 98 118 C101 131 101 131 101 138 C102 143 103 148 104 154 C105 157 105 160 106 164 C106 169 107 174 109 179 C109 181 110 183 110 185 C112 202 118 220 126 235 C128 238 128 238 129 243 C129 245 130 246 130 248 C132 249 133 249 135 250 C155 265 171 289 178 313 C178 315 178 316 178 318 C177 317 176 316 175 315 C169 310 167 310 160 310 C152 310 143 310 136 306 C135 307 134 308 133 309 C132 309 131 310 130 310 C128 315 128 320 128 325 C128 327 128 328 128 330 C128 332 128 333 128 335 C128 336 128 338 128 340 C129 352 129 352 130 358 C130 359 130 361 130 362 C129 363 127 364 126 365 C124 363 125 359 125 357 C125 355 125 354 125 352 C125 351 125 351 125 347 C125 344 125 340 125 337 C125 331 125 326 125 320 C124 315 124 309 124 304 C124 303 124 303 124 299 C124 278 124 278 118 271 C109 262 97 262 84 262 C84 262 84 262 81 262 C77 262 73 262 70 262 C67 262 64 262 61 262 C55 262 50 262 44 262 C34 262 25 262 16 262 C-11 262 -38 262 -64 262 C-79 261 -93 261 -108 261 C-117 261 -127 261 -136 261 C-142 261 -147 261 -153 261 C-156 261 -159 261 -161 261 C-165 261 -169 261 -172 261 C-173 261 -174 261 -175 261 C-182 261 -188 261 -194 259 C-194 258 -194 258 -194 257 C-197 256 -200 256 -203 255 C-203 254 -204 254 -204 253 C-203 253 -203 253 -202 253 C-202 252 -201 251 -201 250 C-199 249 -198 247 -196 246 C-195 245 -195 244 -194 243 C-194 242 -195 240 -195 239 C-194 236 -194 236 -192 233 C-184 216 -180 197 -177 178 C-176 175 -176 175 -175 172 C-174 168 -173 164 -173 160 C-168 109 -153 56 -112 22 C-81 -2 -38 -10 0 0 Z " fill="#C8CBD4" transform="translate(338,42)"/>
<path d="M0 0 C4 -1 4 -1 10 -1 C12 -1 14 -1 16 -1 C17 -1 18 -1 19 -1 C22 -1 25 -1 28 -1 C29 -1 29 -1 34 -1 C36 -1 38 -1 40 -1 C41 -0 43 -0 44 0 C45 1 45 3 46 4 C49 4 49 4 53 4 C57 4 57 4 60 4 C61 5 61 7 62 8 C64 8 65 8 67 8 C69 8 70 8 72 8 C73 9 73 11 74 12 C76 12 77 12 79 12 C81 12 82 12 84 12 C85 13 85 15 86 16 C88 16 90 16 92 16 C93 17 93 19 94 20 C95 20 95 20 98 22 C98 23 98 23 98 24 C100 24 102 24 104 24 C105 25 105 27 106 28 C107 28 107 28 110 30 C110 31 110 31 110 32 C111 33 113 33 114 34 C114 35 114 35 114 36 C115 37 117 37 118 38 C118 39 118 39 118 40 C119 41 121 41 122 42 C122 43 122 43 122 44 C123 45 125 45 126 46 C126 47 126 47 126 48 C127 49 129 49 130 50 C130 51 130 51 130 52 C131 53 133 53 134 54 C134 55 134 55 134 56 C135 56 136 56 137 56 C137 57 137 58 137 59 C138 63 138 63 142 66 C142 67 142 67 142 68 C143 68 144 68 145 68 C145 69 145 70 145 71 C146 73 146 74 146 75 C147 75 148 76 149 76 C149 78 150 81 150 83 C151 83 152 84 153 84 C153 88 154 91 154 95 C155 95 156 96 157 96 C157 100 158 103 158 107 C159 107 160 108 161 108 C161 112 162 115 162 119 C163 119 164 120 165 120 C165 125 166 130 166 135 C166 136 166 138 166 139 C167 139 168 140 169 140 C169 145 170 150 170 155 C170 156 170 158 170 159 C171 159 172 160 173 160 C173 166 173 172 174 177 C174 181 174 184 174 187 C175 187 176 188 177 188 C177 193 178 198 178 203 C178 204 178 206 178 207 C179 207 180 208 181 208 C181 212 182 216 182 220 C182 221 182 222 182 223 C183 223 184 224 185 224 C185 226 186 229 186 231 C187 231 188 232 189 232 C189 236 190 239 190 243 C191 243 192 244 193 244 C193 246 194 249 194 251 C195 251 196 252 197 252 C197 253 197 254 197 255 C198 259 198 259 202 262 C202 263 202 263 202 264 C204 264 206 264 208 264 C209 265 209 267 210 268 C211 269 213 269 214 270 C214 271 214 271 214 272 C215 272 216 272 217 272 C217 273 217 274 217 275 C218 279 218 279 222 282 C222 283 222 283 222 284 C223 285 225 285 226 286 C226 287 226 287 226 288 C227 288 228 288 229 288 C229 289 229 290 229 291 C230 295 230 295 234 298 C234 299 234 299 234 300 C235 300 236 300 237 300 C237 301 237 302 237 303 C237 304 237 304 238 307 C239 307 240 308 241 308 C241 312 242 315 242 319 C243 319 244 320 245 320 C245 324 246 327 246 331 C247 331 248 332 249 332 C249 336 250 339 250 343 C251 343 252 344 253 344 C253 347 253 347 253 351 C253 352 253 353 253 355 C253 356 253 356 253 359 C253 361 253 362 253 364 C253 367 253 371 253 374 C253 379 253 384 253 389 C253 392 253 395 253 399 C253 400 253 402 253 403 C253 405 253 406 253 407 C253 409 253 410 253 411 C253 412 253 413 253 414 C252 414 251 415 250 415 C250 418 250 418 250 422 C249 427 249 427 249 430 C248 430 247 431 246 431 C245 435 245 435 245 438 C244 438 243 438 242 438 C241 439 241 441 240 442 C239 442 239 443 238 443 C238 444 237 445 237 446 C237 448 236 449 236 450 C235 450 235 451 234 451 C234 452 234 454 234 455 C235 456 236 456 237 457 C237 460 237 460 237 464 C237 465 237 466 237 467 C237 468 237 468 237 470 C236 470 235 471 234 471 C233 475 233 475 233 478 C232 478 231 478 230 478 C229 479 229 481 228 482 C225 483 225 483 222 483 C222 484 222 486 222 487 C223 487 225 487 226 487 C230 487 235 487 240 487 C242 487 244 487 246 487 C249 487 252 487 255 487 C255 487 255 487 260 487 C261 488 263 488 264 488 C265 489 265 491 266 492 C267 492 268 492 269 492 C269 502 270 512 270 523 C273 523 277 524 280 524 C280 526 281 527 281 529 C281 529 280 530 280 530 C278 530 276 530 274 530 C273 531 273 533 272 534 C269 534 265 534 262 534 C261 535 261 537 260 538 C255 538 251 538 246 538 C245 538 245 538 242 538 C241 539 241 541 240 542 C237 542 237 542 232 542 C231 542 229 542 228 542 C225 542 221 542 218 542 C217 542 215 542 214 542 C213 542 213 542 209 542 C208 542 207 542 206 542 C205 543 205 545 204 546 C201 546 201 546 196 546 C195 546 193 546 192 546 C189 546 185 546 182 546 C181 546 179 546 178 546 C177 546 177 546 173 546 C172 546 171 546 170 546 C169 547 169 549 168 550 C164 550 160 551 156 551 C155 551 154 551 153 551 C149 551 145 551 142 551 C138 551 134 551 130 551 C128 551 126 551 123 551 C121 551 118 551 115 551 C114 552 114 553 113 554 C112 554 112 554 111 554 C111 553 110 551 110 550 C106 551 106 551 104 554 C101 554 101 554 97 554 C95 554 94 554 92 554 C91 554 89 554 87 554 C86 554 84 554 82 554 C77 554 72 554 68 554 C63 554 59 554 55 554 C46 554 37 554 27 554 C17 554 7 554 -2 554 C-11 554 -19 555 -27 554 C-32 554 -37 554 -43 555 C-48 555 -54 555 -59 555 C-61 555 -63 555 -64 555 C-66 555 -67 555 -69 555 C-70 555 -72 555 -73 555 C-74 554 -75 554 -76 554 C-77 553 -77 551 -78 550 C-82 550 -86 550 -91 550 C-92 550 -93 550 -95 550 C-99 550 -103 550 -107 550 C-112 550 -118 550 -123 550 C-124 550 -124 550 -127 550 C-130 550 -133 550 -136 550 C-137 549 -137 547 -138 546 C-142 546 -142 546 -148 546 C-149 546 -150 546 -151 546 C-155 546 -158 546 -161 546 C-165 546 -170 546 -174 546 C-176 546 -178 546 -180 546 C-181 546 -182 546 -184 546 C-185 545 -185 543 -186 542 C-189 542 -189 542 -193 542 C-194 542 -195 542 -197 542 C-198 542 -200 542 -201 542 C-204 542 -207 542 -209 542 C-211 542 -212 542 -213 542 C-214 542 -214 542 -216 542 C-217 541 -217 539 -218 538 C-222 538 -222 538 -227 538 C-232 538 -232 538 -236 538 C-237 537 -237 535 -238 534 C-240 534 -241 534 -243 534 C-245 534 -246 534 -248 534 C-249 533 -249 531 -250 530 C-254 530 -254 530 -257 530 C-257 529 -257 529 -257 528 C-253 524 -253 524 -250 524 C-249 523 -249 521 -248 520 C-245 519 -245 519 -242 519 C-242 518 -242 517 -242 516 C-242 488 -242 460 -242 432 C-242 418 -242 405 -242 391 C-242 380 -242 368 -242 356 C-242 350 -242 344 -242 337 C-241 332 -241 326 -241 320 C-241 318 -241 316 -241 313 C-241 310 -241 308 -241 305 C-241 303 -241 301 -241 300 C-241 298 -241 297 -241 296 C-240 296 -239 295 -238 295 C-237 291 -237 291 -237 288 C-236 288 -235 288 -234 288 C-234 287 -234 287 -232 284 C-231 284 -231 284 -230 284 C-230 283 -230 283 -228 280 C-225 280 -221 280 -218 280 C-217 279 -217 277 -216 276 C-212 276 -209 276 -205 276 C-203 276 -200 276 -198 276 C-195 276 -191 276 -187 276 C-184 276 -181 276 -177 276 C-176 276 -175 276 -174 276 C-171 276 -171 276 -166 275 C-164 271 -164 271 -164 268 C-163 268 -163 268 -162 268 C-161 267 -161 265 -160 264 C-159 264 -159 264 -158 264 C-157 263 -157 261 -156 260 C-155 260 -155 259 -154 259 C-154 258 -154 258 -154 256 C-153 255 -153 255 -153 252 C-152 252 -151 251 -150 251 C-150 250 -150 249 -150 248 C-149 246 -149 245 -149 244 C-148 244 -147 243 -146 243 C-146 241 -146 239 -146 238 C-145 236 -145 234 -145 232 C-144 232 -143 231 -142 231 C-142 229 -142 227 -142 226 C-141 224 -141 222 -141 220 C-140 220 -139 219 -138 219 C-138 217 -138 215 -138 214 C-137 212 -137 210 -137 208 C-136 208 -135 207 -134 207 C-134 203 -134 203 -134 198 C-133 192 -133 192 -133 188 C-132 188 -131 187 -130 187 C-130 182 -130 178 -130 174 C-129 169 -129 165 -129 160 C-128 160 -127 159 -126 159 C-126 155 -126 151 -126 148 C-125 144 -125 140 -125 136 C-124 136 -123 135 -122 135 C-122 132 -122 132 -122 128 C-121 123 -121 123 -121 120 C-120 120 -119 119 -118 119 C-118 117 -118 115 -118 114 C-117 112 -117 110 -117 108 C-116 108 -115 107 -114 107 C-114 105 -114 103 -114 102 C-113 100 -113 98 -113 96 C-112 96 -111 95 -110 95 C-110 94 -110 93 -110 92 C-109 90 -109 89 -109 88 C-108 88 -107 87 -106 87 C-106 83 -105 80 -105 76 C-104 76 -103 76 -102 76 C-102 75 -102 75 -100 72 C-99 72 -99 71 -98 71 C-98 69 -97 66 -97 64 C-96 64 -95 64 -94 64 C-93 63 -93 61 -92 60 C-91 60 -91 59 -90 59 C-90 57 -89 54 -89 52 C-88 52 -87 52 -86 52 C-85 51 -85 49 -84 48 C-83 48 -83 48 -82 48 C-81 47 -81 45 -80 44 C-79 44 -79 44 -78 44 C-77 43 -77 41 -76 40 C-75 40 -75 40 -74 40 C-73 39 -73 37 -72 36 C-71 36 -71 36 -70 36 C-69 35 -69 33 -68 32 C-67 32 -67 32 -66 32 C-65 31 -65 29 -64 28 C-63 28 -63 28 -62 28 C-61 27 -61 25 -60 24 C-58 24 -56 24 -54 24 C-53 23 -53 21 -52 20 C-50 20 -48 20 -46 20 C-45 19 -45 17 -44 16 C-43 16 -43 16 -42 16 C-41 15 -41 13 -40 12 C-37 12 -33 12 -30 12 C-29 11 -29 9 -28 8 C-26 8 -24 8 -22 8 C-21 7 -21 5 -20 4 C-15 4 -11 4 -6 4 C-5 4 -3 4 -2 4 C-1 3 -1 1 0 0 Z M-58 41 C-58 41 -58 41 -61 44 C-66 48 -71 53 -76 59 C-77 60 -77 61 -78 62 C-89 75 -97 91 -102 107 C-102 108 -102 108 -104 113 C-107 124 -110 135 -112 146 C-112 148 -113 149 -113 151 C-115 161 -117 171 -118 182 C-118 187 -119 191 -121 196 C-121 199 -122 202 -122 204 C-125 220 -129 237 -137 252 C-139 256 -139 256 -138 261 C-140 263 -140 263 -143 266 C-144 266 -145 267 -146 268 C-146 269 -146 269 -146 270 C-147 270 -147 271 -148 271 C-145 273 -142 274 -138 274 C-138 275 -138 275 -138 276 C-131 278 -124 278 -116 278 C-115 278 -114 278 -113 278 C-109 278 -105 278 -101 278 C-99 278 -96 278 -93 278 C-87 278 -81 278 -75 278 C-66 278 -57 278 -47 278 C-28 278 -8 278 12 278 C33 279 55 279 76 279 C85 279 95 279 104 279 C110 279 115 279 121 279 C124 279 126 279 129 279 C133 279 136 279 140 279 C141 279 142 279 143 279 C153 279 163 280 171 285 C179 293 180 300 180 311 C180 313 180 314 180 316 C180 317 180 317 180 321 C180 322 180 324 180 326 C180 331 181 337 181 342 C181 346 181 350 181 354 C181 363 181 372 181 381 C182 381 183 381 184 381 C185 380 185 380 186 379 C186 376 185 373 185 370 C185 364 184 358 184 352 C184 350 184 349 184 347 C184 346 184 344 184 342 C184 341 184 340 184 338 C184 334 185 330 187 326 C188 326 188 326 189 326 C190 325 191 324 192 323 C195 324 197 325 200 326 C203 326 206 327 210 327 C226 327 226 327 234 335 C232 312 214 286 197 271 C189 265 189 265 186 265 C185 262 185 259 184 257 C183 253 181 250 180 246 C172 231 167 213 164 196 C164 193 164 193 163 190 C162 186 161 182 161 178 C160 172 160 167 158 162 C158 160 158 158 158 156 C157 145 154 133 150 123 C150 121 149 119 149 118 C144 98 136 77 123 62 C122 62 122 62 121 62 C120 60 120 59 119 57 C103 37 79 23 54 17 C53 17 52 16 50 16 C14 8 -30 16 -58 41 Z M-200 304 C-200 304 -200 304 -204 304 C-205 304 -206 305 -207 305 C-208 306 -208 308 -209 309 C-210 309 -211 310 -212 310 C-214 314 -214 318 -214 323 C-214 324 -214 325 -214 327 C-214 328 -214 329 -214 330 C-214 333 -214 336 -214 338 C-214 339 -214 341 -214 342 C-214 345 -214 348 -215 351 C-215 354 -215 356 -215 359 C-215 361 -215 362 -215 363 C-215 367 -215 367 -214 370 C-214 373 -214 376 -214 378 C-214 380 -214 382 -214 383 C-214 387 -214 387 -215 390 C-215 394 -215 398 -215 401 C-213 425 -213 425 -215 430 C-215 433 -215 436 -215 439 C-214 439 -214 439 -213 439 C-213 440 -213 440 -213 444 C-214 460 -214 475 -213 491 C-213 495 -213 495 -214 497 C-213 497 -213 497 -212 497 C-212 499 -212 500 -212 502 C-208 507 -204 508 -198 509 C-194 509 -190 509 -185 509 C-185 509 -185 509 -182 509 C-177 509 -173 509 -169 509 C-166 509 -163 509 -160 509 C-151 509 -143 509 -135 509 C-130 509 -124 509 -119 509 C-102 509 -86 509 -69 509 C-49 509 -30 509 -10 509 C8 509 26 509 45 509 C55 509 66 509 76 509 C86 509 96 509 106 509 C109 509 113 509 117 509 C122 509 127 509 132 509 C132 509 132 509 136 509 C142 509 146 509 151 505 C159 496 156 482 156 470 C156 467 155 463 155 460 C155 458 155 456 155 455 C155 440 155 440 156 434 C156 432 156 429 156 427 C156 425 156 424 156 422 C156 421 156 419 156 417 C156 416 156 414 156 412 C156 409 156 406 156 402 C156 397 156 391 156 386 C156 383 156 379 156 376 C156 375 156 375 156 371 C156 364 156 357 155 350 C155 347 155 344 155 341 C155 340 155 338 155 336 C155 333 155 330 155 326 C155 325 155 323 155 321 C155 320 156 318 156 317 C155 312 153 310 150 307 C147 306 145 306 141 306 C141 306 141 306 137 306 C136 306 134 306 132 306 C132 306 132 306 128 306 C123 306 118 305 113 305 C110 305 106 305 103 305 C95 305 86 305 78 305 C78 304 78 304 78 303 C77 303 76 303 76 303 C61 304 46 304 31 304 C26 304 20 304 15 304 C14 304 12 304 11 304 C2 304 2 304 -2 305 C-6 305 -10 305 -14 306 C-21 306 -27 306 -34 307 C-34 306 -34 306 -34 305 C-35 305 -35 305 -38 305 C-39 305 -41 305 -43 305 C-44 305 -46 305 -47 305 C-52 305 -52 305 -55 304 C-58 304 -61 304 -64 304 C-65 304 -65 304 -68 304 C-68 304 -68 304 -72 304 C-74 304 -76 304 -79 304 C-80 304 -81 304 -82 304 C-85 304 -85 304 -90 303 C-92 303 -95 303 -97 303 C-106 304 -115 304 -124 304 C-124 304 -124 304 -129 304 C-132 304 -135 304 -139 304 C-144 304 -149 304 -154 304 C-158 304 -161 304 -164 304 C-166 304 -167 304 -169 304 C-179 304 -189 302 -200 304 Z " fill="#0F0F13" transform="translate(282,25)"/>
<path d="M0 0 C6 1 11 1 17 1 C18 1 19 1 20 1 C25 1 29 1 34 0 C70 0 70 0 79 2 C84 3 89 3 94 3 C95 3 96 3 97 3 C101 3 104 3 108 3 C110 3 113 3 115 3 C121 3 127 3 132 3 C132 3 132 4 132 5 C131 5 130 5 129 5 C127 5 125 5 124 5 C123 5 123 5 118 5 C115 5 112 6 109 6 C102 7 95 7 88 6 C81 6 75 7 68 8 C66 7 63 7 60 7 C59 7 59 7 56 7 C52 7 52 7 48 6 C43 5 38 5 32 7 C32 8 32 8 32 10 C26 10 20 10 14 10 C13 10 13 10 9 10 C8 10 8 10 4 10 C2 11 1 11 -1 11 C-5 11 -5 11 -8 9 C-6 9 -4 9 -3 9 C-3 8 -3 7 -3 7 C-12 7 -12 7 -17 12 C-17 16 -17 16 -17 20 C-16 28 -16 28 -18 32 C-18 35 -18 39 -18 42 C-18 44 -18 46 -18 48 C-18 50 -18 51 -19 53 C-20 53 -21 53 -22 53 C-22 56 -22 60 -22 64 C-21 64 -20 64 -19 64 C-18 66 -18 69 -18 73 C-12 71 -6 68 -1 65 C2 64 2 64 6 64 C8 61 8 58 9 55 C12 51 15 48 18 45 C23 40 24 35 25 30 C30 27 33 28 38 28 C48 27 56 24 65 19 C70 16 74 14 80 14 C80 13 80 12 80 12 C82 11 83 11 84 11 C84 10 84 9 84 9 C89 8 94 8 99 8 C100 8 100 8 103 8 C104 8 106 8 107 8 C108 8 108 8 111 8 C112 8 112 8 113 9 C114 10 114 11 114 13 C113 13 112 14 111 15 C111 16 111 16 111 18 C110 19 108 19 106 21 C105 23 105 23 105 29 C106 30 106 30 106 32 C106 33 105 33 104 35 C103 35 102 35 101 35 C100 35 100 35 96 37 C95 39 94 42 93 46 C89 53 85 59 77 64 C77 64 77 64 73 64 C69 65 66 67 62 69 C56 72 52 74 45 74 C44 73 42 72 40 72 C42 68 42 68 47 66 C49 62 49 62 50 58 C47 54 47 54 44 53 C40 52 35 52 30 53 C28 55 28 55 25 58 C22 58 19 59 16 60 C16 61 15 61 14 63 C14 63 13 63 12 63 C11 68 12 72 14 78 C17 80 17 80 20 82 C21 83 22 83 23 85 C24 85 24 85 26 85 C31 87 35 90 38 94 C40 97 40 97 38 102 C36 104 33 106 29 108 C26 111 26 111 22 115 C18 119 18 119 15 119 C14 124 13 126 14 132 C16 134 16 134 19 137 C23 137 27 137 30 136 C31 137 32 137 33 137 C34 137 34 138 34 139 C41 139 47 139 53 136 C56 134 56 134 57 133 C62 133 62 133 66 135 C68 138 68 138 69 142 C74 143 76 144 81 144 C82 144 84 144 85 144 C86 144 88 145 89 145 C90 145 90 145 93 145 C101 145 109 146 117 146 C127 146 133 147 140 153 C142 156 142 156 144 161 C142 164 140 167 137 171 C137 171 137 171 134 175 C126 188 126 188 121 190 C110 191 100 192 90 191 C88 191 87 191 85 192 C85 193 85 195 84 197 C123 199 162 197 200 197 C200 195 200 194 200 193 C199 190 199 190 200 188 C202 187 204 187 205 186 C210 185 210 185 213 182 C216 180 216 180 222 180 C222 180 222 180 226 181 C229 177 229 177 230 173 C234 171 239 171 243 171 C245 171 246 171 248 171 C253 172 253 172 258 173 C267 170 267 170 271 166 C275 163 277 163 282 163 C288 163 292 162 297 157 C300 155 302 154 305 153 C310 150 310 150 312 145 C314 141 314 141 320 138 C325 137 328 136 333 137 C333 135 333 134 334 133 C334 128 334 123 334 118 C334 117 334 117 334 112 C334 111 334 109 334 107 C334 106 334 104 334 102 C334 99 334 99 335 95 C336 92 336 89 336 86 C336 85 336 85 336 81 C335 78 335 78 334 74 C334 71 334 69 334 67 C335 67 335 67 335 67 C336 63 336 60 336 57 C336 57 335 57 334 57 C334 56 334 55 334 55 C335 55 336 55 336 55 C336 51 336 48 335 45 C335 45 335 45 334 45 C334 43 335 41 335 39 C335 37 335 34 335 32 C335 32 335 32 335 29 C335 19 333 13 328 5 C325 4 325 4 320 5 C311 5 302 6 293 6 C292 6 291 6 289 6 C285 6 281 6 277 6 C272 5 266 5 261 5 C260 5 258 5 257 5 C251 5 246 5 240 7 C240 8 240 8 240 10 C227 10 214 10 200 10 C200 9 200 8 200 7 C195 7 190 7 184 7 C184 6 184 5 184 5 C183 5 182 5 180 5 C180 5 180 6 179 7 C179 6 179 5 179 5 C179 5 178 5 177 5 C171 6 166 6 160 6 C160 5 160 4 160 3 C162 2 164 2 166 2 C168 2 170 2 172 2 C173 2 173 2 176 2 C180 2 184 2 188 1 C193 0 197 0 201 0 C202 0 202 0 205 0 C211 0 216 1 222 1 C252 1 252 1 264 -0 C264 0 264 1 264 2 C265 2 266 2 267 2 C276 2 285 2 294 2 C297 2 301 2 304 2 C309 2 314 2 319 2 C320 2 322 2 323 2 C324 2 326 2 327 2 C328 2 328 2 331 2 C335 3 337 4 340 8 C342 11 342 14 342 18 C341 20 341 22 341 23 C341 27 341 31 341 35 C341 36 341 38 341 40 C341 41 341 41 341 45 C341 50 341 50 342 54 C343 61 343 68 343 76 C343 76 343 76 343 80 C343 84 343 87 343 90 C343 95 343 100 343 105 C343 108 343 111 343 114 C343 116 343 117 343 119 C343 126 342 133 341 140 C341 152 342 164 342 176 C343 195 343 195 338 202 C331 206 324 205 315 205 C313 205 312 205 310 205 C305 205 299 205 294 205 C289 205 283 205 278 205 C267 205 257 205 246 205 C234 205 222 205 210 205 C189 205 169 206 148 206 C127 206 105 206 83 206 C71 206 59 206 46 206 C42 206 38 206 34 206 C27 206 21 206 14 206 C12 206 10 206 8 206 C4 206 1 206 -2 206 C-3 206 -3 206 -7 206 C-13 205 -19 205 -24 201 C-26 199 -26 199 -26 194 C-26 193 -27 193 -28 193 C-27 192 -27 192 -27 192 C-27 189 -27 186 -27 183 C-28 167 -27 152 -27 136 C-27 136 -28 136 -29 136 C-29 127 -29 127 -28 124 C-27 114 -28 104 -28 95 C-29 87 -29 87 -28 84 C-27 81 -27 78 -27 75 C-27 74 -27 72 -27 70 C-28 67 -28 67 -29 64 C-29 61 -29 58 -29 56 C-29 54 -29 53 -29 51 C-29 48 -29 48 -28 45 C-28 41 -27 38 -28 35 C-28 34 -28 32 -28 31 C-28 28 -28 26 -28 23 C-28 11 -28 11 -25 6 C-24 6 -23 6 -23 6 C-22 4 -21 3 -21 2 C-17 1 -17 1 -13 0 C-12 0 -12 0 -9 -0 C-5 -0 -5 -0 0 0 Z " fill="#191C28" transform="translate(95.56103515625,328.483642578125)"/>
<path d="M0 0 C2 -0 3 -0 5 -0 C10 -0 15 -0 20 -0 C24 -0 28 -0 31 -0 C40 -0 49 -0 58 -0 C66 -0 73 -0 80 -0 C81 -0 81 -0 83 -0 C85 -0 88 -0 90 -0 C110 -0 129 -0 149 -0 C167 -0 185 -0 204 -0 C222 -0 241 -0 259 -0 C270 -0 280 -0 291 -0 C301 -0 311 -0 320 -0 C324 -0 328 -0 331 -0 C336 -0 341 -0 346 -0 C347 -0 349 -0 350 -0 C351 -0 351 -0 354 -0 C355 -0 357 -0 358 -0 C364 1 367 4 371 8 C372 12 372 16 372 20 C372 21 372 23 372 25 C372 27 372 29 372 31 C372 33 372 35 372 37 C372 42 372 48 372 54 C372 57 372 61 372 64 C372 75 372 86 372 97 C372 109 372 122 372 134 C372 144 372 154 372 163 C372 169 372 175 372 181 C372 186 372 192 372 197 C372 200 372 203 372 206 C372 207 372 207 372 211 C372 213 372 214 372 216 C372 222 371 227 367 232 C361 235 356 235 350 235 C349 235 348 235 346 235 C342 235 338 235 333 235 C330 235 327 235 324 235 C315 235 307 235 298 235 C289 235 280 235 271 235 C256 235 241 235 226 235 C205 235 184 235 163 235 C148 235 133 235 119 235 C115 235 111 235 108 235 C84 235 61 235 37 235 C36 235 34 235 33 235 C25 235 17 235 10 235 C7 235 5 235 3 235 C-0 235 -4 235 -7 235 C-8 235 -10 235 -12 235 C-16 234 -19 233 -22 230 C-26 224 -26 220 -26 213 C-26 211 -26 209 -26 208 C-26 206 -26 204 -26 202 C-26 200 -26 198 -26 195 C-26 189 -26 182 -26 175 C-26 173 -26 170 -26 168 C-26 157 -26 146 -26 135 C-26 122 -26 110 -26 97 C-26 87 -26 77 -26 68 C-26 62 -27 56 -27 50 C-27 45 -27 39 -27 34 C-27 31 -27 28 -27 25 C-27 23 -27 21 -27 19 C-27 18 -27 16 -27 15 C-26 10 -25 7 -22 3 C-16 -1 -8 -0 0 0 Z M2 15 C2 15 2 15 -2 16 C-3 16 -4 16 -5 16 C-6 18 -6 19 -7 20 C-8 21 -9 21 -10 21 C-12 26 -12 29 -12 34 C-12 35 -12 37 -12 38 C-12 39 -12 41 -12 42 C-12 44 -12 47 -12 50 C-12 51 -12 52 -12 53 C-12 56 -13 59 -13 62 C-13 65 -13 68 -13 71 C-13 72 -13 73 -13 75 C-13 78 -13 78 -12 81 C-12 84 -12 87 -12 90 C-12 91 -12 93 -12 94 C-12 98 -12 98 -13 101 C-13 105 -13 109 -13 113 C-12 137 -12 137 -13 141 C-13 144 -13 147 -13 150 C-12 150 -12 150 -11 150 C-11 151 -11 151 -11 155 C-12 171 -12 187 -11 203 C-11 206 -11 206 -12 208 C-11 208 -11 208 -10 208 C-10 210 -10 212 -10 213 C-6 219 -2 219 4 220 C8 221 12 221 17 221 C17 221 17 221 20 221 C25 221 29 221 33 221 C36 221 39 221 42 221 C50 221 59 221 67 221 C72 221 78 221 83 221 C99 221 116 221 133 220 C152 220 172 220 192 220 C210 220 228 220 247 220 C257 220 268 220 278 220 C288 220 298 220 308 220 C311 220 315 220 319 220 C324 220 329 220 334 220 C334 220 334 220 338 220 C344 220 348 220 353 217 C361 207 358 193 358 182 C357 178 357 175 357 171 C357 169 357 168 357 166 C357 152 357 152 358 145 C358 143 358 141 358 138 C358 137 358 135 358 134 C358 132 358 130 358 129 C358 127 358 126 358 124 C358 120 358 117 358 113 C358 108 358 103 358 98 C358 94 358 91 358 87 C358 87 358 87 358 83 C358 76 358 69 357 61 C357 58 357 56 357 53 C357 51 357 49 357 48 C357 44 357 41 357 38 C357 36 357 34 357 33 C357 31 357 30 357 28 C357 24 355 22 352 18 C349 17 346 17 343 17 C343 17 343 17 339 17 C338 17 336 17 334 17 C334 17 334 17 330 17 C325 17 320 17 315 17 C311 17 308 17 305 17 C296 17 288 16 280 16 C280 16 280 15 280 14 C279 14 278 15 278 15 C263 16 248 15 233 15 C228 15 222 15 217 15 C216 15 214 15 213 15 C204 15 204 15 200 16 C196 17 192 17 188 17 C181 17 175 17 168 18 C168 18 168 17 168 16 C167 16 167 16 164 16 C163 16 161 16 159 16 C158 16 156 16 154 16 C150 16 150 16 147 16 C144 15 141 15 138 15 C137 15 137 15 134 15 C133 15 133 15 130 15 C128 15 126 15 123 15 C122 15 121 15 120 15 C117 15 117 15 112 14 C110 14 107 15 105 15 C96 15 87 16 78 16 C77 16 77 16 73 16 C70 16 67 16 63 16 C58 16 53 16 48 16 C44 16 41 16 38 16 C36 16 35 16 33 16 C23 16 13 14 2 15 Z " fill="#4F5666" transform="translate(80.07582092285156,313.61231994628906)"/>
<path d="M0 0 C4 3 4 3 5 6 C5 7 5 7 4 10 C3 11 2 11 1 12 C-3 14 -3 14 -4 18 C-4 19 -4 19 -4 23 C-5 33 -7 38 -14 46 C-21 51 -28 53 -37 53 C-38 52 -38 52 -41 52 C-41 53 -40 53 -40 54 C-38 54 -37 55 -35 56 C-33 56 -32 56 -30 57 C-30 58 -30 58 -30 59 C-16 59 -8 56 2 46 C6 41 6 37 6 30 C7 26 7 26 8 22 C11 19 15 18 19 16 C22 15 22 15 24 12 C26 12 27 11 29 11 C29 12 29 12 30 15 C32 20 32 20 36 22 C37 25 37 25 37 31 C38 31 38 31 41 30 C41 31 41 32 41 34 C42 42 43 49 46 57 C47 60 47 64 47 67 C48 71 49 74 50 77 C51 82 51 82 51 88 C51 87 50 87 50 86 C49 86 49 86 48 86 C48 85 47 85 47 84 C47 84 47 84 46 87 C43 92 37 95 31 97 C30 101 30 101 30 105 C32 108 32 108 34 110 C33 115 33 115 31 117 C26 119 22 121 17 122 C16 123 15 123 14 124 C11 125 8 126 4 126 C2 126 1 127 -0 127 C-1 127 -1 127 -3 127 C-3 128 -3 129 -3 130 C-9 130 -15 130 -21 130 C-21 129 -21 128 -21 127 C-22 127 -23 127 -25 127 C-26 126 -28 126 -29 126 C-31 126 -32 126 -34 126 C-38 125 -38 125 -40 124 C-46 124 -46 124 -48 125 C-50 125 -52 125 -54 125 C-56 126 -58 126 -60 126 C-60 127 -61 129 -61 130 C-65 132 -69 131 -73 131 C-77 129 -77 129 -79 126 C-79 125 -80 124 -80 123 C-81 120 -81 120 -84 116 C-84 115 -84 115 -84 114 C-86 113 -87 113 -89 112 C-91 111 -92 110 -94 109 C-94 108 -94 108 -94 107 C-93 107 -92 106 -91 106 C-88 104 -88 104 -87 100 C-86 99 -86 98 -86 97 C-87 98 -88 99 -90 100 C-94 103 -96 104 -101 104 C-111 100 -115 92 -119 83 C-123 76 -126 73 -133 69 C-136 66 -137 65 -137 60 C-137 53 -133 48 -128 43 C-127 42 -126 41 -125 39 C-125 39 -125 39 -122 36 C-121 35 -120 34 -119 33 C-114 27 -107 24 -99 24 C-87 24 -81 31 -73 40 C-72 41 -71 43 -70 44 C-69 45 -67 47 -66 48 C-62 54 -61 57 -61 64 C-62 66 -62 67 -62 68 C-61 68 -61 68 -60 68 C-60 67 -60 67 -60 66 C-59 66 -58 66 -57 66 C-57 64 -57 63 -57 61 C-57 56 -57 54 -54 50 C-52 50 -51 49 -49 49 C-51 45 -51 45 -54 41 C-56 36 -59 32 -61 27 C-62 26 -62 25 -63 24 C-64 19 -64 18 -62 14 C-58 11 -57 12 -53 13 C-51 13 -48 13 -46 13 C-40 13 -36 14 -31 16 C-25 17 -22 16 -17 12 C-14 9 -11 7 -8 4 C-5 2 -5 2 0 0 Z " fill="#C2C5D0" transform="translate(401,164)"/>
<path d="M0 0 C0 1 0 1 0 2 C1 2 1 2 2 2 C2 3 2 3 2 4 C3 4 4 4 5 4 C5 6 5 7 5 9 C4 9 4 9 3 9 C3 10 3 10 3 11 C4 11 4 11 5 11 C5 12 6 14 6 15 C8 14 8 14 9 12 C10 13 11 13 12 14 C15 17 15 17 18 19 C22 22 23 25 25 29 C29 37 33 43 40 48 C44 49 46 49 50 48 C53 45 53 45 56 43 C57 43 57 43 58 43 C58 49 58 49 56 51 C53 53 53 53 50 53 C51 55 51 55 55 57 C62 61 63 64 66 71 C66 72 66 74 67 75 C72 76 78 77 83 75 C83 74 84 73 84 72 C87 71 87 71 90 71 C96 70 96 70 98 69 C104 69 104 69 106 70 C108 70 110 71 112 71 C116 72 119 72 123 73 C123 74 123 75 123 76 C129 76 135 76 141 76 C141 75 141 74 141 73 C145 71 148 71 152 70 C156 69 159 68 163 66 C166 65 170 64 173 63 C174 63 174 63 177 61 C177 56 177 55 173 51 C173 46 173 46 175 44 C178 41 178 41 183 38 C188 35 189 34 191 29 C191 30 192 31 192 32 C193 32 195 32 196 32 C198 36 198 36 200 42 C202 49 205 55 209 62 C209 64 210 66 210 67 C210 69 211 70 211 72 C213 73 214 73 216 74 C236 89 252 113 259 137 C259 139 259 140 259 142 C258 142 258 142 256 139 C250 134 248 134 241 134 C233 134 224 134 217 130 C216 131 215 132 214 133 C213 133 212 134 211 134 C209 139 209 144 209 149 C209 150 209 150 209 154 C209 156 209 157 209 159 C209 160 209 162 209 164 C210 176 210 176 211 182 C211 183 211 185 211 186 C210 187 208 188 207 189 C205 187 206 183 206 181 C206 179 206 178 206 176 C206 175 206 175 206 171 C206 168 206 164 206 161 C206 155 206 150 206 144 C205 139 205 133 205 128 C205 127 205 127 205 123 C205 102 205 102 199 95 C190 86 178 86 165 86 C165 86 165 86 162 86 C158 86 154 86 151 86 C148 86 145 86 142 86 C136 86 131 86 125 86 C115 86 106 86 97 86 C70 86 43 86 17 86 C2 85 -12 85 -27 85 C-36 85 -46 85 -55 85 C-61 85 -66 85 -72 85 C-75 85 -78 85 -80 85 C-84 85 -88 85 -91 85 C-92 85 -93 85 -94 85 C-101 85 -107 85 -113 83 C-113 82 -113 82 -113 81 C-116 80 -119 80 -122 79 C-122 78 -123 78 -123 77 C-122 77 -122 77 -121 77 C-121 76 -120 75 -120 74 C-118 73 -117 71 -115 70 C-114 69 -114 68 -113 67 C-113 66 -114 64 -114 63 C-113 60 -113 60 -111 57 C-109 53 -108 49 -106 45 C-106 45 -106 45 -105 42 C-104 42 -104 42 -103 42 C-102 50 -102 50 -104 55 C-104 54 -105 54 -105 53 C-104 60 -102 64 -96 68 C-88 73 -79 76 -69 76 C-65 74 -65 74 -62 72 C-62 70 -61 69 -61 67 C-59 65 -59 65 -56 63 C-51 60 -51 60 -50 58 C-50 57 -50 57 -51 53 C-50 52 -50 51 -49 50 C-45 50 -45 50 -41 50 C-40 50 -40 50 -37 50 C-33 50 -33 50 -29 54 C-29 56 -29 57 -29 59 C-27 60 -24 60 -22 61 C-19 63 -19 63 -17 66 C-17 69 -18 73 -18 76 C-14 76 -11 76 -7 77 C-6 77 -5 77 -4 77 C2 77 9 77 15 76 C17 76 18 76 20 76 C21 76 23 76 24 76 C26 72 26 70 26 66 C26 65 26 64 26 62 C26 58 25 57 22 54 C17 51 12 50 6 51 C4 53 4 53 1 54 C-3 57 -4 58 -9 59 C-14 58 -15 57 -18 53 C-21 48 -21 47 -21 41 C-19 38 -19 38 -17 36 C-11 28 -9 18 -10 8 C-10 8 -10 8 -12 7 C-12 6 -11 4 -11 3 C-4 -1 -4 -1 0 0 Z " fill="#C8CBD4" transform="translate(257,218)"/>
<path d="M0 0 C0 1 0 1 0 2 C1 2 2 2 3 2 C12 2 21 2 30 2 C33 2 36 2 40 2 C44 2 49 2 54 2 C56 2 57 2 59 2 C60 2 61 2 63 2 C64 2 64 2 67 2 C71 3 73 5 76 8 C78 11 77 15 77 19 C77 20 77 22 77 24 C77 28 77 31 77 35 C77 37 77 39 77 40 C77 41 77 41 77 45 C77 50 77 50 77 55 C78 62 78 69 78 76 C78 77 78 77 78 81 C78 84 78 87 78 91 C78 96 78 101 78 105 C78 109 78 112 78 115 C78 116 78 118 78 119 C78 126 78 133 77 140 C77 152 77 164 78 176 C79 196 79 196 74 202 C66 207 59 206 51 206 C49 206 47 206 45 206 C40 206 35 206 30 206 C24 206 19 206 13 206 C3 206 -8 206 -18 206 C-30 206 -42 206 -55 206 C-75 206 -96 206 -116 206 C-138 206 -160 206 -181 206 C-194 206 -206 206 -218 206 C-222 206 -226 206 -231 206 C-237 206 -243 206 -250 206 C-252 206 -255 206 -257 206 C-260 206 -263 206 -266 206 C-267 206 -267 206 -271 206 C-278 206 -283 205 -288 202 C-290 199 -290 199 -290 194 C-291 194 -291 193 -292 193 C-292 193 -291 192 -291 192 C-291 186 -291 180 -291 175 C-291 173 -291 172 -291 171 C-291 170 -291 169 -291 167 C-291 164 -291 160 -290 157 C-287 161 -287 161 -287 164 C-286 164 -285 164 -284 164 C-284 163 -283 162 -283 161 C-283 165 -283 169 -282 173 C-282 174 -282 175 -282 176 C-282 185 -282 185 -284 188 C-285 188 -287 188 -288 188 C-288 190 -288 193 -288 195 C-286 195 -285 194 -283 194 C-282 195 -281 196 -280 197 C-276 197 -276 197 -271 197 C-270 197 -270 197 -265 197 C-263 197 -261 197 -259 197 C-256 197 -254 197 -252 197 C-246 197 -240 197 -235 197 C-225 197 -216 197 -207 197 C-204 197 -201 197 -197 197 C-186 197 -175 197 -164 198 C-157 198 -150 198 -142 198 C-141 198 -139 198 -137 198 C-113 198 -88 197 -64 197 C-64 196 -64 195 -65 194 C-65 190 -65 190 -64 188 C-62 188 -61 187 -59 187 C-54 185 -54 185 -51 182 C-48 180 -48 180 -43 181 C-42 181 -42 181 -38 181 C-36 177 -36 177 -34 173 C-30 171 -26 172 -22 172 C-20 172 -18 172 -16 172 C-11 172 -11 172 -6 173 C3 170 3 170 7 166 C11 164 12 164 17 164 C24 163 27 162 33 158 C35 156 38 155 41 153 C45 151 46 150 48 145 C50 141 50 141 55 138 C60 137 64 137 69 137 C69 136 69 135 69 134 C69 128 69 123 69 118 C69 117 69 117 70 113 C70 111 70 109 70 108 C70 106 70 105 70 103 C70 99 70 99 71 95 C71 92 71 89 71 86 C71 86 71 86 71 82 C71 78 71 78 70 74 C70 72 70 69 70 67 C70 67 71 67 71 67 C71 64 72 60 72 57 C71 57 71 57 70 57 C70 56 70 56 70 55 C71 55 71 55 72 55 C72 52 71 48 71 45 C71 45 70 45 70 45 C70 43 70 41 70 40 C70 37 70 35 70 33 C70 32 70 32 70 29 C70 20 68 13 64 5 C61 5 61 5 56 5 C47 6 38 6 29 6 C28 6 26 6 25 6 C21 6 17 6 13 6 C7 6 2 6 -4 6 C-5 6 -6 6 -7 6 C-13 6 -18 6 -24 7 C-24 8 -24 9 -24 10 C-37 10 -50 10 -64 10 C-64 9 -64 8 -64 7 C-69 7 -75 7 -80 7 C-80 6 -80 6 -80 5 C-81 5 -83 5 -84 5 C-84 6 -85 6 -85 7 C-85 6 -85 6 -85 5 C-86 5 -87 5 -88 6 C-93 6 -99 6 -104 6 C-104 5 -104 4 -104 3 C-102 3 -101 3 -99 3 C-97 3 -94 3 -92 3 C-92 3 -92 3 -89 2 C-84 2 -80 2 -76 1 C-72 1 -67 1 -63 1 C-62 1 -60 1 -59 1 C-53 1 -48 1 -42 1 C-38 1 -34 1 -30 1 C-30 1 -30 1 -26 1 C-18 1 -9 0 0 0 Z " fill="#1A1D29" transform="translate(360,328)"/>
<path d="M0 0 C1 0 1 1 2 1 C2 4 2 6 2 9 C3 9 3 9 4 9 C4 7 5 6 5 4 C5 4 6 4 6 4 C6 5 6 6 6 7 C6 9 7 10 7 11 C8 11 8 11 12 13 C16 15 16 15 17 16 C17 19 18 21 18 24 C18 23 18 22 18 21 C19 17 19 17 23 14 C28 14 28 14 33 16 C36 21 36 23 37 29 C38 36 39 41 44 47 C51 51 57 53 66 53 C66 53 66 53 69 53 C70 53 70 53 72 53 C72 53 72 53 70 54 C71 55 71 55 72 56 C73 57 73 58 74 59 C73 60 73 62 72 63 C72 63 72 63 75 64 C76 73 74 83 69 91 C69 92 68 92 67 93 C64 97 64 97 64 103 C68 112 68 112 71 113 C77 114 80 113 85 110 C89 107 90 106 95 105 C101 106 105 108 109 112 C111 116 111 118 111 122 C111 123 111 124 111 126 C111 129 111 129 109 133 C106 133 106 133 102 133 C95 133 95 133 92 134 C88 134 83 134 78 134 C76 134 75 134 73 134 C68 133 68 133 65 130 C65 129 65 129 66 126 C66 125 66 123 66 122 C62 118 62 118 58 117 C55 115 55 115 54 111 C53 110 53 109 53 108 C50 106 47 107 43 107 C41 107 40 107 39 107 C37 107 36 107 35 107 C34 111 34 111 35 115 C32 118 32 118 29 120 C28 121 26 122 25 123 C24 123 24 123 23 123 C23 125 23 126 23 128 C19 132 16 133 10 133 C-1 131 -13 126 -21 116 C-22 113 -22 113 -21 108 C-21 108 -21 108 -19 107 C-19 105 -19 103 -20 102 C-21 92 -18 84 -15 75 C-13 69 -12 64 -12 58 C-11 55 -11 55 -10 52 C-9 48 -8 45 -8 40 C-7 27 -5 13 0 0 Z " fill="#C1C4CF" transform="translate(173,162)"/>
<path d="M0 0 C1 0 2 0 3 0 C3 1 3 1 3 3 C3 30 3 57 3 84 C3 97 3 109 3 122 C3 134 3 145 3 156 C3 162 3 168 3 174 C3 180 3 185 3 191 C3 194 3 197 3 200 C3 202 3 204 3 206 C3 206 3 206 3 210 C3 218 4 224 8 230 C19 239 31 238 45 238 C45 238 45 238 49 238 C54 238 59 238 64 238 C68 238 72 238 75 238 C84 238 93 238 102 238 C112 238 123 238 133 238 C152 238 170 238 189 238 C207 238 224 238 242 238 C243 238 243 238 246 238 C246 238 246 238 249 238 C270 238 290 238 310 238 C318 238 325 238 332 238 C342 238 351 238 361 238 C365 238 368 238 372 238 C377 238 382 238 386 238 C387 238 387 238 391 238 C391 238 391 238 395 238 C395 238 395 238 398 238 C401 238 401 238 405 237 C409 237 413 237 417 236 C419 236 421 236 424 236 C427 236 431 236 435 235 C447 235 460 234 472 232 C478 232 484 232 490 231 C497 231 502 229 507 224 C508 224 509 224 510 224 C510 225 511 226 511 227 C512 227 512 227 516 227 C518 228 519 228 521 228 C521 230 522 231 522 233 C522 233 521 234 521 234 C519 234 517 234 515 234 C514 235 514 237 513 238 C510 238 506 238 503 238 C502 239 502 241 501 242 C496 242 492 242 487 242 C486 242 484 242 483 242 C482 243 482 245 481 246 C478 246 478 246 473 246 C472 246 470 246 469 246 C466 246 462 246 459 246 C458 246 456 246 455 246 C453 246 452 246 450 246 C449 246 448 246 447 246 C446 247 446 249 445 250 C442 250 442 250 437 250 C436 250 434 250 433 250 C430 250 426 250 423 250 C422 250 420 250 419 250 C417 250 416 250 414 250 C413 250 412 250 411 250 C410 251 410 253 409 254 C405 254 401 255 397 255 C396 255 395 255 394 255 C390 255 386 255 382 255 C379 255 375 255 371 255 C369 255 367 255 364 255 C362 255 359 255 356 255 C355 256 355 257 354 258 C353 258 353 258 352 258 C352 257 351 255 351 254 C347 255 347 255 345 258 C342 258 342 258 338 258 C336 258 335 258 333 258 C332 258 330 258 328 258 C327 258 325 258 323 258 C318 258 313 258 309 258 C304 258 300 258 296 258 C287 258 278 258 268 258 C258 258 248 258 239 258 C230 258 222 259 214 258 C209 258 204 258 198 259 C193 259 187 259 182 259 C180 259 178 259 177 259 C175 259 174 259 172 259 C171 259 169 259 168 259 C167 258 166 258 165 258 C164 257 164 255 163 254 C159 254 155 254 150 254 C149 254 148 254 146 254 C142 254 138 254 134 254 C129 254 123 254 118 254 C117 254 115 254 114 254 C111 254 108 254 105 254 C104 253 104 251 103 250 C99 250 99 250 93 250 C92 250 91 250 90 250 C86 250 83 250 80 250 C76 250 71 250 67 250 C65 250 63 250 61 250 C60 250 59 250 57 250 C56 249 56 247 55 246 C52 246 52 246 48 246 C47 246 46 246 44 246 C43 246 41 246 40 246 C37 246 34 246 32 246 C30 246 29 246 28 246 C27 246 27 246 25 246 C25 245 25 245 23 242 C19 242 19 242 14 242 C9 242 9 242 5 242 C4 241 4 239 3 238 C1 238 -0 238 -2 238 C-4 238 -5 238 -7 238 C-8 237 -8 235 -9 234 C-13 234 -13 234 -16 234 C-16 233 -16 233 -16 232 C-12 228 -12 228 -9 228 C-9 227 -9 227 -7 224 C-5 224 -3 223 -1 223 C-1 149 -0 76 0 0 Z " fill="#DADCE2" transform="translate(41,321)"/>
<path d="M0 0 C1 0 2 1 4 1 C8 3 12 3 18 4 C34 4 34 4 40 10 C40 10 40 10 41 12 C42 11 42 11 43 10 C46 16 46 22 47 29 C47 30 48 32 48 33 C55 55 51 82 43 102 C43 103 42 105 42 106 C39 112 37 118 32 122 C30 122 28 122 26 122 C23 118 22 112 21 107 C20 106 20 105 19 104 C18 104 18 104 15 105 C13 109 12 114 11 118 C8 124 6 125 0 128 C-1 129 -2 129 -3 130 C-3 132 -3 133 -3 135 C-2 136 -2 136 1 136 C6 136 8 133 12 130 C18 128 23 131 28 134 C31 136 31 136 33 139 C33 146 31 148 27 153 C18 162 10 166 -2 166 C-3 166 -5 166 -7 166 C-10 161 -10 157 -10 151 C-10 150 -10 149 -10 147 C-10 145 -10 142 -10 139 C-10 134 -10 128 -11 122 C-11 118 -10 116 -8 112 C-7 109 -7 109 -7 106 C-8 106 -9 105 -10 105 C-12 99 -12 94 -12 87 C-12 86 -12 85 -12 83 C-12 80 -12 76 -12 73 C-12 71 -12 70 -12 68 C-12 64 -12 64 -11 59 C-10 58 -8 58 -7 57 C-7 53 -7 53 -8 48 C-8 42 -9 36 -9 30 C-9 28 -9 27 -9 25 C-9 17 -9 10 -6 2 C-6 3 -5 3 -5 4 C-4 4 -4 4 -3 4 C-3 3 -2 2 -2 1 C-1 1 -1 0 0 0 Z " fill="#5F6575" transform="translate(474,347)"/>
<path d="M0 0 C6 1 11 1 17 1 C18 1 19 1 20 1 C25 1 29 1 34 0 C70 0 70 0 79 2 C84 3 89 3 94 3 C95 3 96 3 97 3 C101 3 104 3 108 3 C110 3 113 3 115 3 C121 3 127 3 132 3 C132 3 132 4 132 5 C131 5 130 5 129 5 C127 5 125 5 124 5 C123 5 123 5 118 5 C115 5 112 6 109 6 C102 7 95 7 88 6 C81 6 75 7 68 8 C66 7 63 7 60 7 C59 7 59 7 56 7 C52 7 52 7 48 6 C43 5 38 5 32 7 C32 8 32 8 32 10 C26 10 20 10 14 10 C13 10 13 10 9 10 C8 10 8 10 4 10 C2 11 1 11 -1 11 C-5 11 -5 11 -8 9 C-6 9 -4 9 -3 9 C-3 8 -3 7 -3 7 C-12 7 -12 7 -17 12 C-17 16 -17 16 -17 20 C-16 28 -16 28 -18 32 C-18 35 -18 39 -18 42 C-18 44 -18 46 -18 48 C-18 50 -18 51 -19 53 C-20 53 -21 53 -22 53 C-22 56 -22 60 -22 64 C-21 64 -20 64 -19 64 C-18 66 -18 69 -18 73 C-12 71 -6 68 -1 65 C2 64 2 64 6 64 C8 61 8 58 9 55 C12 51 15 48 18 45 C23 40 24 35 25 30 C30 27 33 28 38 28 C48 27 56 24 65 19 C70 16 74 14 80 14 C80 13 80 12 80 12 C82 11 83 11 84 11 C84 10 84 9 84 9 C89 8 94 8 99 8 C100 8 100 8 103 8 C104 8 106 8 107 8 C108 8 108 8 111 8 C112 8 112 8 113 9 C114 10 114 11 114 13 C113 13 112 14 111 15 C111 16 111 16 111 18 C110 19 108 19 106 21 C105 23 105 23 105 29 C106 30 106 30 106 32 C106 33 105 33 104 35 C103 35 102 35 101 35 C100 35 100 35 96 37 C95 39 94 42 93 46 C89 53 85 59 77 64 C77 64 77 64 73 64 C69 65 66 67 62 69 C56 72 52 74 45 74 C44 73 42 72 40 72 C42 68 42 68 47 66 C49 62 49 62 50 58 C47 54 47 54 44 53 C40 52 35 52 30 53 C28 55 28 55 25 58 C22 58 19 59 16 60 C16 61 15 61 14 63 C14 63 13 63 12 63 C11 68 12 72 14 78 C17 80 17 80 20 82 C21 83 22 84 23 86 C19 90 15 91 8 94 C2 97 -3 101 -7 107 C-10 110 -13 110 -18 111 C-18 112 -18 113 -18 115 C-17 120 -17 125 -17 130 C-17 133 -17 135 -17 137 C-17 140 -17 143 -17 147 C-17 149 -17 151 -17 153 C-18 157 -18 160 -20 164 C-21 164 -22 164 -23 164 C-23 163 -23 163 -25 159 C-25 163 -26 168 -27 174 C-27 174 -27 174 -28 174 C-28 161 -27 148 -27 136 C-27 136 -28 136 -29 136 C-29 127 -29 127 -28 124 C-27 114 -28 104 -28 95 C-29 87 -29 87 -28 84 C-27 81 -27 78 -27 75 C-27 74 -27 72 -27 70 C-28 67 -28 67 -29 64 C-29 61 -29 58 -29 56 C-29 54 -29 53 -29 51 C-29 48 -29 48 -28 45 C-28 41 -27 38 -28 35 C-28 34 -28 32 -28 31 C-28 28 -28 26 -28 23 C-28 11 -28 11 -25 6 C-24 6 -23 6 -23 6 C-22 4 -21 3 -21 2 C-17 1 -17 1 -13 0 C-12 0 -12 0 -9 -0 C-5 -0 -5 -0 0 0 Z " fill="#191C28" transform="translate(95.56103515625,328.483642578125)"/>
<path d="M0 0 C1 -0 1 -0 4 -0 C5 -0 5 -0 8 -0 C10 -0 11 -0 13 -0 C18 -0 23 -0 29 -0 C32 -0 36 -0 40 -0 C49 -0 58 -0 67 -0 C74 -0 81 -0 89 -0 C109 -0 130 -0 151 -0 C152 -0 153 -0 154 -0 C155 -0 156 -0 158 -0 C176 -0 194 -0 212 -0 C231 -0 249 -0 268 -0 C278 -0 289 -0 299 -0 C309 -0 319 -0 329 -0 C333 -0 336 -0 340 -0 C345 -0 350 -0 355 -0 C356 -0 357 -0 359 -0 C360 -0 360 -0 363 -0 C364 -0 365 -0 366 -0 C372 1 375 4 380 8 C381 13 381 17 381 22 C381 24 381 26 381 28 C381 29 381 29 381 32 C379 32 378 32 377 31 C375 33 374 34 373 35 C373 35 373 34 373 33 C369 34 369 34 367 37 C366 36 366 35 366 35 C366 34 366 34 366 31 C366 30 366 30 365 28 C364 24 363 22 361 19 C358 18 355 18 352 18 C351 18 350 18 348 18 C347 18 346 18 344 18 C343 18 341 18 340 18 C335 18 330 18 326 18 C320 18 313 18 307 18 C307 18 307 18 303 17 C302 17 300 17 299 17 C298 17 297 17 296 17 C293 17 293 17 289 16 C289 16 289 15 289 14 C288 14 287 15 286 15 C271 17 257 16 242 16 C238 16 234 16 229 16 C227 16 224 16 222 16 C213 16 213 16 209 17 C206 17 204 18 201 18 C200 18 200 18 197 18 C196 18 196 18 192 18 C192 18 192 18 188 18 C184 18 180 18 177 18 C177 18 177 17 177 16 C175 16 174 16 173 17 C171 17 170 17 168 17 C166 17 165 17 163 17 C159 17 159 17 156 17 C152 16 149 16 146 16 C146 16 146 16 143 16 C142 16 142 16 139 16 C137 16 134 16 132 16 C131 16 130 16 128 16 C126 16 126 16 121 15 C118 15 116 15 113 16 C105 16 96 16 87 16 C86 16 86 16 82 16 C79 16 75 16 72 16 C67 16 61 16 56 16 C53 16 50 16 46 16 C45 16 43 16 42 16 C34 16 27 16 20 15 C15 16 15 16 11 16 C11 16 11 16 7 17 C4 17 4 17 -1 19 C-2 14 -2 14 -1 11 C-3 11 -4 10 -5 9 C-7 10 -8 11 -9 12 C-10 12 -11 12 -12 12 C-13 13 -13 14 -13 15 C-14 15 -15 15 -16 14 C-17 11 -17 11 -16 7 C-12 2 -7 0 0 0 Z " fill="#5D6373" transform="translate(71.47061061859131,313.74273109436035)"/>
<path d="M0 0 C16 5 34 19 42 33 C41 33 39 32 38 32 C38 34 39 35 39 37 C38 37 36 36 35 36 C32 38 28 39 25 41 C24 42 23 42 22 43 C14 47 14 47 13 49 C12 49 12 49 11 49 C11 50 10 51 10 52 C9 53 8 53 7 54 C3 57 3 57 2 61 C1 62 1 63 0 64 C-4 64 -7 64 -11 62 C-17 62 -18 62 -23 66 C-24 66 -24 66 -27 69 C-32 68 -32 68 -36 67 C-36 67 -36 67 -37 70 C-37 71 -36 71 -36 72 C-36 78 -36 79 -39 84 C-39 85 -40 87 -40 88 C-41 92 -41 92 -44 94 C-48 98 -49 102 -51 107 C-57 111 -61 111 -68 110 C-78 106 -85 100 -91 92 C-92 86 -91 84 -88 79 C-87 78 -86 76 -85 75 C-83 71 -83 71 -78 69 C-77 70 -76 70 -75 71 C-75 70 -75 70 -75 69 C-74 69 -74 69 -73 69 C-72 67 -72 66 -71 64 C-63 57 -63 57 -56 57 C-55 57 -53 57 -52 57 C-52 56 -52 54 -52 53 C-52 47 -50 45 -47 40 C-45 38 -45 38 -44 34 C-42 28 -38 26 -33 22 C-29 20 -29 20 -27 17 C-23 14 -19 13 -15 11 C-12 8 -11 5 -10 1 C-9 1 -9 1 -8 1 C-8 2 -8 2 -8 3 C-3 5 -3 5 0 5 C0 4 0 2 0 1 C0 1 0 0 0 0 Z " fill="#C2C5D0" transform="translate(360,51)"/>
<path d="M0 0 C0 0 0 0 1 3 C2 3 4 3 5 3 C7 7 7 7 9 13 C11 20 14 26 18 33 C18 35 19 37 19 38 C19 40 20 41 20 43 C22 44 23 44 25 45 C45 60 61 84 68 108 C68 110 68 111 68 113 C67 112 66 111 65 110 C59 105 57 105 50 105 C42 105 33 105 26 101 C25 102 24 103 23 104 C22 104 21 105 20 105 C18 110 18 115 18 120 C18 121 18 121 18 125 C18 127 18 128 18 130 C18 131 18 133 18 135 C19 147 19 147 20 153 C20 154 20 156 20 157 C19 158 17 159 16 160 C14 158 15 154 15 152 C15 150 15 149 15 147 C15 146 15 146 15 142 C15 139 15 135 15 132 C15 126 15 121 15 115 C14 110 14 104 14 99 C14 97 14 96 14 94 C14 73 14 73 8 66 C-1 57 -11 57 -23 57 C-25 57 -26 57 -28 57 C-29 57 -29 57 -34 57 C-35 57 -37 57 -39 57 C-44 57 -49 57 -54 56 C-60 56 -65 56 -70 56 C-80 56 -90 56 -100 56 C-100 55 -100 55 -100 54 C-100 54 -100 54 -98 53 C-100 53 -102 52 -104 52 C-104 51 -104 50 -104 49 C-106 49 -107 49 -109 49 C-109 48 -110 48 -110 47 C-110 47 -110 47 -108 46 C-108 45 -107 44 -107 43 C-104 42 -104 42 -101 42 C-95 41 -95 41 -93 40 C-87 40 -87 40 -85 41 C-83 41 -81 42 -79 42 C-75 43 -72 43 -68 44 C-68 45 -68 46 -68 47 C-62 47 -56 47 -50 47 C-50 46 -50 45 -50 44 C-46 42 -43 42 -39 41 C-35 40 -32 39 -28 37 C-25 36 -21 35 -18 34 C-17 33 -15 33 -14 32 C-14 27 -14 26 -18 22 C-18 17 -18 17 -16 15 C-13 12 -13 12 -8 9 C-3 6 -2 5 0 0 Z " fill="#BABDC9" transform="translate(448,247)"/>
<path d="M0 0 C7 0 9 1 14 6 C16 8 16 8 17 12 C15 18 12 20 7 23 C4 25 4 25 0 29 C-5 33 -5 33 -7 33 C-9 38 -9 41 -8 46 C-6 49 -6 49 -3 51 C1 51 4 51 8 51 C9 51 10 51 11 51 C11 52 12 52 12 53 C19 54 25 54 31 51 C34 48 34 48 35 47 C40 47 40 47 43 49 C46 52 46 52 47 56 C52 58 54 58 59 59 C60 59 62 59 63 59 C64 59 66 59 67 59 C69 59 70 59 72 59 C75 60 79 60 82 60 C76 63 72 62 66 62 C66 63 66 63 66 64 C67 64 67 65 68 65 C67 65 67 65 64 68 C63 70 63 71 62 73 C59 74 57 76 54 77 C50 81 48 84 47 89 C41 95 36 94 28 94 C28 94 28 94 23 94 C18 94 18 94 14 90 C14 89 14 88 13 87 C12 84 12 84 7 82 C6 82 5 81 4 81 C1 80 1 80 -4 77 C-9 75 -13 74 -19 74 C-22 73 -22 73 -27 70 C-33 68 -35 68 -41 69 C-41 62 -41 56 -41 49 C-41 48 -41 48 -41 44 C-41 42 -41 40 -41 38 C-41 36 -41 35 -41 33 C-41 29 -41 29 -40 25 C-39 25 -37 24 -36 24 C-31 22 -30 21 -26 17 C-21 11 -16 8 -9 5 C-2 2 -2 2 0 0 Z " fill="#1D202D" transform="translate(118,414)"/>
<path d="M0 0 C8 5 13 12 19 18 C21 20 22 21 23 22 C27 27 28 29 28 34 C27 40 25 43 21 46 C20 47 18 48 16 50 C15 52 15 52 13 55 C2 76 2 76 -8 79 C-14 78 -18 75 -22 71 C-25 67 -28 63 -30 58 C-34 51 -36 47 -44 44 C-47 40 -48 39 -48 35 C-47 27 -44 23 -39 18 C-38 17 -38 17 -36 14 C-35 13 -34 12 -33 10 C-32 9 -31 8 -30 7 C-22 -1 -11 -3 0 0 Z " fill="#050508" transform="translate(311.625,189.5)"/>
<path d="M0 0 C3 0 3 0 8 3 C9 5 10 7 10 8 C8 13 6 15 1 17 C1 18 1 19 0 19 C2 20 4 21 5 22 C5 24 5 25 5 26 C7 27 8 28 9 28 C13 32 16 34 18 38 C19 39 19 39 20 39 C21 40 21 41 21 42 C22 43 22 43 23 43 C24 48 24 48 23 51 C20 54 16 58 13 61 C12 61 11 62 11 63 C10 63 10 63 8 65 C6 67 6 67 5 70 C6 70 6 70 9 69 C13 71 13 71 15 72 C16 73 16 74 16 75 C20 76 20 76 23 76 C24 75 25 73 25 71 C29 68 31 67 36 65 C37 66 38 66 38 66 C42 66 46 66 49 66 C58 66 66 67 74 68 C75 69 76 70 77 71 C77 72 77 73 77 74 C77 74 77 74 74 75 C69 75 64 75 60 75 C57 75 54 75 51 75 C49 75 47 75 45 75 C43 75 41 75 40 75 C35 75 35 75 31 77 C31 78 31 78 30 81 C35 87 37 86 44 86 C45 86 45 86 50 86 C52 86 54 86 56 86 C58 86 60 86 62 86 C67 86 72 86 77 86 C77 90 77 90 76 94 C71 96 66 95 61 95 C60 95 59 95 58 95 C55 95 53 95 51 95 C48 94 45 94 43 94 C37 94 34 94 28 90 C28 89 28 88 27 86 C26 86 25 85 23 84 C23 84 23 84 21 82 C16 82 15 83 11 86 C7 89 5 89 0 89 C-1 89 -2 89 -4 89 C-5 89 -6 89 -7 88 C-7 87 -7 86 -8 85 C-11 86 -11 86 -14 86 C-21 87 -21 87 -25 84 C-25 83 -26 82 -27 81 C-27 81 -28 80 -29 79 C-28 75 -27 72 -26 67 C-18 61 -18 61 -16 61 C-15 60 -15 59 -15 58 C-13 57 -11 56 -9 55 C-4 51 -4 51 -2 46 C-2 45 -2 44 -3 42 C-4 42 -5 41 -7 40 C-8 40 -9 39 -10 38 C-13 35 -15 35 -19 33 C-20 32 -21 31 -23 29 C-24 28 -26 27 -28 26 C-30 22 -31 19 -30 14 C-30 13 -29 12 -29 11 C-28 11 -27 11 -27 11 C-26 10 -25 9 -25 7 C-23 7 -22 7 -20 7 C-16 5 -16 5 -13 3 C-9 -1 -5 -0 0 0 Z " fill="#131620" transform="translate(136.625,379.53125)"/>
<path d="M0 0 C1 0 1 0 2 0 C2 1 2 2 2 3 C2 10 2 16 2 23 C2 25 2 26 2 28 C3 30 3 33 3 36 C4 56 4 56 -1 62 C-9 67 -16 66 -24 66 C-25 66 -25 66 -30 66 C-35 66 -40 66 -45 66 C-51 66 -56 66 -62 66 C-72 66 -83 66 -93 66 C-105 66 -117 66 -130 66 C-150 66 -171 66 -191 66 C-213 66 -235 66 -256 66 C-269 66 -281 66 -293 66 C-297 66 -301 66 -306 66 C-312 66 -318 66 -325 66 C-327 66 -330 66 -332 66 C-335 66 -338 66 -341 66 C-342 66 -342 66 -346 66 C-353 66 -358 65 -363 62 C-365 59 -365 59 -365 54 C-366 54 -366 53 -367 53 C-367 53 -367 53 -366 52 C-366 46 -366 40 -366 35 C-366 33 -366 32 -366 31 C-366 30 -366 29 -366 27 C-366 24 -366 20 -365 17 C-362 21 -362 21 -362 24 C-361 24 -360 24 -359 24 C-359 23 -358 22 -358 21 C-358 25 -358 29 -357 33 C-357 34 -357 35 -357 36 C-357 45 -357 45 -359 48 C-360 48 -362 48 -363 48 C-363 50 -363 53 -363 55 C-362 55 -362 55 -358 54 C-357 55 -356 56 -355 57 C-351 57 -351 57 -346 57 C-345 57 -345 57 -340 57 C-338 57 -336 57 -334 57 C-331 57 -329 57 -327 57 C-321 57 -315 57 -310 57 C-300 57 -291 57 -282 57 C-279 57 -276 57 -272 57 C-261 57 -250 57 -239 58 C-232 58 -225 58 -217 58 C-216 58 -214 58 -212 58 C-200 58 -189 58 -177 58 C-148 57 -118 57 -89 57 C-85 57 -82 57 -78 57 C-73 57 -67 57 -62 57 C-60 57 -58 57 -56 57 C-46 57 -36 57 -26 58 C-12 59 -12 59 -7 56 C-6 53 -6 53 -6 48 C-5 37 -5 37 -4 35 C-4 34 -4 34 -4 30 C-4 20 -2 10 0 0 Z " fill="#050508" transform="translate(435,468)"/>
<path d="M0 0 C1 0 2 0 3 0 C3 1 4 2 4 3 C5 3 5 3 9 3 C11 4 12 4 14 4 C14 6 15 7 15 9 C15 9 14 10 14 10 C12 10 10 10 8 10 C7 11 7 13 6 14 C3 14 -1 14 -4 14 C-5 15 -5 17 -6 18 C-11 18 -15 18 -20 18 C-21 18 -23 18 -24 18 C-25 19 -25 21 -26 22 C-29 22 -29 22 -34 22 C-35 22 -37 22 -38 22 C-41 22 -45 22 -48 22 C-49 22 -51 22 -52 22 C-54 22 -55 22 -57 22 C-58 22 -59 22 -60 22 C-61 23 -61 25 -62 26 C-65 26 -65 26 -70 26 C-71 26 -73 26 -74 26 C-77 26 -81 26 -84 26 C-85 26 -87 26 -88 26 C-90 26 -91 26 -93 26 C-94 26 -95 26 -96 26 C-97 27 -97 29 -98 30 C-102 30 -106 31 -110 31 C-111 31 -112 31 -113 31 C-117 31 -121 31 -124 31 C-128 31 -132 31 -136 31 C-138 31 -140 31 -143 31 C-145 31 -148 31 -151 31 C-152 32 -152 33 -153 34 C-154 34 -154 34 -155 34 C-155 33 -156 31 -156 30 C-160 31 -160 31 -162 34 C-165 34 -165 34 -169 34 C-170 34 -170 34 -174 34 C-175 34 -177 34 -179 34 C-180 34 -180 34 -184 34 C-189 34 -194 34 -198 34 C-203 34 -207 34 -211 34 C-220 34 -229 34 -239 34 C-249 34 -259 34 -268 34 C-277 34 -285 35 -293 34 C-298 34 -303 34 -309 35 C-314 35 -320 35 -325 35 C-327 35 -329 35 -330 35 C-332 35 -333 35 -335 35 C-336 35 -338 35 -339 35 C-340 34 -341 34 -342 34 C-343 33 -343 31 -344 30 C-339 29 -335 29 -330 29 C-329 29 -327 29 -326 29 C-324 29 -323 29 -321 29 C-320 29 -318 29 -316 29 C-313 29 -309 29 -306 29 C-300 29 -295 29 -289 29 C-276 29 -262 29 -248 29 C-237 29 -225 29 -213 29 C-208 29 -203 29 -197 29 C-194 29 -190 29 -187 29 C-186 29 -184 29 -183 29 C-164 29 -164 29 -158 26 C-155 26 -151 26 -148 26 C-142 26 -137 26 -132 25 C-129 25 -126 25 -123 25 C-123 24 -123 23 -123 22 C-124 22 -126 21 -127 21 C-124 21 -121 20 -118 20 C-119 20 -121 20 -122 20 C-124 20 -126 20 -128 20 C-129 20 -129 20 -134 19 C-138 19 -143 19 -147 18 C-147 17 -147 17 -147 16 C-148 16 -148 16 -151 15 C-146 14 -141 14 -135 14 C-134 14 -134 14 -130 14 C-128 14 -127 14 -125 14 C-121 14 -118 14 -114 14 C-113 14 -111 14 -110 14 C-106 14 -106 14 -102 13 C-98 13 -94 13 -90 12 C-88 12 -86 12 -83 12 C-80 12 -76 12 -72 11 C-60 11 -47 10 -35 8 C-29 8 -23 8 -17 7 C-10 7 -5 5 0 0 Z " fill="#DDDFE4" transform="translate(548,545)"/>
<path d="M0 0 C6 1 11 1 17 1 C18 1 19 1 20 1 C25 1 29 1 34 0 C70 0 70 0 79 2 C84 3 89 3 94 3 C95 3 96 3 97 3 C101 3 104 3 108 3 C110 3 113 3 115 3 C121 3 127 3 132 3 C132 3 132 4 132 5 C131 5 130 5 129 5 C127 5 125 5 124 5 C123 5 123 5 118 5 C115 5 112 6 109 6 C102 7 95 7 88 6 C81 6 75 7 68 8 C66 7 63 7 60 7 C59 7 59 7 56 7 C52 7 52 7 48 6 C43 5 38 5 32 7 C32 8 32 8 32 10 C26 10 20 10 14 10 C13 10 13 10 9 10 C8 10 8 10 4 10 C2 11 1 11 -1 11 C-5 11 -5 11 -8 9 C-6 9 -4 9 -3 9 C-3 8 -3 7 -3 7 C-12 7 -12 7 -17 12 C-17 16 -17 16 -17 20 C-16 28 -16 28 -18 32 C-18 35 -18 39 -18 42 C-18 44 -18 46 -18 48 C-18 50 -18 51 -19 53 C-20 53 -21 53 -22 53 C-22 56 -22 60 -22 64 C-21 64 -20 64 -19 64 C-18 70 -17 75 -18 82 C-16 82 -14 82 -13 82 C-12 81 -12 81 -11 80 C-6 81 -6 81 -2 85 C-3 89 -5 92 -9 96 C-9 96 -9 97 -10 98 C-10 98 -10 98 -14 99 C-17 104 -17 105 -17 111 C-17 112 -17 113 -18 115 C-18 118 -18 121 -18 124 C-18 126 -18 128 -18 130 C-18 133 -17 136 -17 139 C-17 142 -17 145 -17 148 C-17 149 -17 151 -17 153 C-18 157 -18 160 -20 164 C-21 164 -22 164 -23 164 C-23 163 -23 163 -25 159 C-25 163 -26 168 -27 174 C-27 174 -27 174 -28 174 C-28 161 -27 148 -27 136 C-27 136 -28 136 -29 136 C-29 127 -29 127 -28 124 C-27 114 -28 104 -28 95 C-29 87 -29 87 -28 84 C-27 81 -27 78 -27 75 C-27 74 -27 72 -27 70 C-28 67 -28 67 -29 64 C-29 61 -29 58 -29 56 C-29 54 -29 53 -29 51 C-29 48 -29 48 -28 45 C-28 41 -27 38 -28 35 C-28 34 -28 32 -28 31 C-28 28 -28 26 -28 23 C-28 11 -28 11 -25 6 C-24 6 -23 6 -23 6 C-22 4 -21 3 -21 2 C-17 1 -17 1 -13 0 C-12 0 -12 0 -9 -0 C-5 -0 -5 -0 0 0 Z " fill="#151823" transform="translate(95.56103515625,328.483642578125)"/>
<path d="M0 0 C1 0 1 1 2 1 C2 4 2 6 2 9 C3 9 3 9 4 9 C4 7 5 6 5 4 C5 4 6 4 6 4 C6 5 6 6 6 7 C6 9 7 10 7 11 C9 12 10 12 12 13 C16 15 16 15 17 16 C17 19 18 21 18 24 C18 23 18 22 18 21 C19 17 19 17 23 14 C28 14 28 14 33 16 C36 21 36 23 37 29 C38 36 39 41 44 47 C51 51 57 53 66 53 C66 53 66 53 69 53 C70 53 70 53 72 53 C72 53 72 53 70 54 C70 55 70 56 70 57 C69 57 69 57 61 58 C61 59 61 59 61 60 C48 61 37 59 27 50 C26 48 25 47 24 45 C23 44 22 43 21 42 C16 43 16 43 11 44 C9 43 8 43 6 42 C4 42 3 42 1 42 C1 43 0 44 0 45 C-5 48 -5 48 -7 48 C-7 49 -6 51 -6 52 C-6 53 -6 54 -6 55 C-6 59 -5 62 -4 65 C-5 65 -5 65 -8 67 C-8 70 -8 70 -7 73 C-4 74 -4 74 0 75 C7 78 13 83 17 89 C16 91 16 92 15 94 C6 96 -2 94 -11 92 C-12 91 -13 91 -14 90 C-15 90 -15 90 -18 91 C-17 83 -15 76 -13 68 C-12 65 -12 61 -12 58 C-11 55 -11 55 -10 52 C-9 48 -8 45 -8 40 C-7 27 -5 13 0 0 Z " fill="#C9CCD5" transform="translate(173,162)"/>
<path d="M0 0 C5 -0 9 0 13 1 C21 2 29 2 37 2 C39 2 41 2 42 2 C46 2 49 2 53 2 C58 2 63 2 69 2 C72 2 75 2 79 2 C80 2 82 2 83 2 C85 2 86 2 88 2 C89 2 90 2 92 2 C95 2 95 2 99 1 C105 1 111 1 118 1 C121 1 124 1 127 1 C138 1 149 1 160 3 C160 3 160 4 160 4 C157 4 157 4 140 5 C140 6 140 6 140 7 C141 7 143 7 144 7 C145 7 145 7 149 7 C151 7 153 8 155 8 C159 8 159 8 162 10 C157 12 151 11 146 12 C143 12 139 12 136 12 C120 14 105 14 89 14 C85 14 81 14 77 14 C74 14 72 14 69 14 C65 14 60 14 56 15 C54 15 51 15 49 15 C47 15 46 15 44 15 C44 15 44 15 40 16 C39 16 39 16 35 16 C31 16 28 16 24 16 C24 15 24 15 24 14 C23 14 22 14 20 14 C19 14 17 14 15 15 C15 15 15 15 11 15 C6 15 6 15 3 15 C-0 14 -3 14 -6 14 C-29 15 -29 15 -40 10 C-36 8 -33 7 -29 6 C-30 6 -31 5 -32 5 C-34 5 -35 4 -36 4 C-36 4 -36 3 -36 3 C-29 2 -23 2 -16 1 C-16 2 -16 2 -16 3 C-15 3 -14 3 -13 3 C-9 3 -9 3 -6 4 C-6 3 -6 3 -6 2 C-4 2 -2 2 0 2 C0 1 0 1 0 0 Z " fill="#565B68" transform="translate(224,316)"/>
<path d="M0 0 C0 1 0 1 0 2 C1 2 2 2 3 2 C12 2 21 2 30 2 C33 2 36 2 40 2 C44 2 49 2 54 2 C56 2 57 2 59 2 C60 2 61 2 63 2 C64 2 64 2 67 2 C71 3 73 5 76 8 C78 11 77 15 77 19 C77 20 77 22 77 24 C77 28 77 31 77 35 C77 37 77 39 77 40 C77 41 77 41 77 45 C77 50 77 50 77 55 C78 62 78 69 78 76 C78 77 78 79 78 80 C78 84 78 87 78 90 C78 93 78 96 78 100 C79 117 78 134 74 151 C73 158 72 164 72 170 C72 175 72 177 70 181 C62 177 62 177 60 174 C60 171 60 171 60 167 C60 165 60 164 60 163 C60 156 64 153 68 149 C69 149 69 149 70 149 C70 148 70 146 70 144 C70 139 70 133 70 128 C70 125 70 123 70 121 C70 117 70 114 70 110 C70 109 70 108 70 107 C70 103 70 99 71 95 C71 92 71 89 71 86 C71 85 71 84 71 82 C71 78 71 78 70 74 C70 72 70 69 70 67 C70 67 71 67 71 67 C71 64 72 60 72 57 C71 57 71 57 70 57 C70 56 70 56 70 55 C71 55 71 55 72 55 C72 52 71 48 71 45 C71 45 70 45 70 45 C70 43 70 41 70 40 C70 37 70 35 70 33 C70 32 70 32 70 29 C70 20 68 13 64 5 C61 5 61 5 56 5 C47 6 38 6 29 6 C28 6 26 6 25 6 C21 6 17 6 13 6 C7 6 2 6 -4 6 C-5 6 -6 6 -7 6 C-13 6 -18 6 -24 7 C-24 8 -24 9 -24 10 C-37 10 -50 10 -64 10 C-64 9 -64 8 -64 7 C-69 7 -75 7 -80 7 C-80 6 -80 6 -80 5 C-81 5 -83 5 -84 5 C-84 6 -85 6 -85 7 C-85 6 -85 6 -85 5 C-86 5 -87 5 -88 6 C-93 6 -99 6 -104 6 C-104 5 -104 4 -104 3 C-102 3 -101 3 -99 3 C-97 3 -94 3 -92 3 C-91 3 -90 2 -89 2 C-84 2 -80 2 -76 1 C-72 1 -67 1 -63 1 C-62 1 -60 1 -59 1 C-53 1 -48 1 -42 1 C-38 1 -34 1 -30 1 C-30 1 -30 1 -26 1 C-18 1 -9 0 0 0 Z " fill="#141721" transform="translate(360,328)"/>
<path d="M0 0 C1 0 1 1 2 1 C2 2 1 2 1 3 C2 3 4 3 5 3 C5 2 6 2 6 1 C11 3 14 6 18 9 C22 11 22 11 28 11 C33 12 33 12 37 16 C37 17 37 18 38 19 C39 24 43 26 47 29 C49 34 49 34 47 38 C47 39 46 40 45 41 C40 41 40 41 36 39 C36 40 36 41 35 42 C34 46 34 46 30 49 C23 50 18 50 12 47 C9 44 7 42 4 39 C2 38 2 38 -2 38 C-7 37 -7 37 -12 34 C-14 34 -15 34 -17 34 C-18 33 -20 33 -21 33 C-21 32 -22 31 -22 30 C-21 30 -21 30 -20 30 C-20 28 -19 26 -19 24 C-18 24 -18 24 -17 24 C-17 22 -16 21 -16 19 C-15 19 -15 19 -14 19 C-14 18 -14 18 -14 17 C-15 17 -15 16 -16 16 C-6 5 -6 5 0 0 Z " fill="#C2C5D0" transform="translate(227,63)"/>
<path d="M0 0 C6 1 9 3 14 7 C21 13 30 16 40 16 C44 15 44 15 49 12 C54 12 54 12 59 12 C63 16 63 17 63 23 C63 32 60 39 53 45 C43 51 36 52 25 50 C18 47 14 45 10 39 C8 33 7 28 6 22 C6 18 6 18 4 14 C3 14 2 13 1 13 C-3 12 -3 12 -6 7 C-6 6 -5 5 -5 4 C-3 3 -2 3 0 2 C0 1 0 1 0 0 Z " fill="#050508" transform="translate(202,165)"/>
<path d="M0 0 C4 3 4 3 5 6 C4 8 4 9 4 10 C3 11 2 11 1 12 C-3 14 -3 14 -4 18 C-4 19 -4 19 -4 23 C-5 33 -7 38 -14 46 C-21 52 -29 53 -38 52 C-46 50 -50 47 -54 41 C-55 39 -56 37 -57 35 C-58 34 -58 33 -59 31 C-64 21 -64 21 -63 17 C-62 14 -62 14 -59 12 C-57 12 -55 13 -53 13 C-51 13 -48 13 -46 13 C-40 13 -36 14 -31 16 C-25 17 -22 16 -17 12 C-14 9 -11 7 -8 4 C-5 2 -5 2 0 0 Z " fill="#050508" transform="translate(401,164)"/>
<path d="M0 0 C1 0 2 0 3 0 C3 1 3 1 3 3 C3 30 3 57 3 84 C3 97 3 109 3 122 C3 134 3 145 3 156 C3 162 3 168 3 174 C3 180 3 185 3 191 C3 194 3 197 3 200 C3 202 3 204 3 206 C3 206 3 206 3 210 C3 218 4 224 8 230 C19 239 31 238 44 238 C45 238 46 238 48 238 C53 238 57 238 62 238 C65 238 68 238 72 238 C80 238 89 238 97 238 C111 238 124 238 138 238 C143 238 147 238 152 238 C155 238 158 238 161 238 C162 238 164 238 165 238 C171 238 177 238 183 239 C183 239 183 240 183 240 C181 240 179 240 177 240 C177 241 177 241 177 242 C176 242 175 242 173 242 C172 242 170 242 168 242 C167 243 165 243 164 243 C159 243 159 243 155 244 C152 244 152 244 150 243 C150 242 150 242 150 241 C144 241 139 241 133 241 C132 241 130 241 128 241 C120 242 113 242 105 244 C106 245 106 245 107 246 C105 246 105 246 92 248 C93 249 93 249 94 250 C88 250 82 250 76 250 C74 250 72 250 70 250 C69 250 67 250 65 250 C64 250 62 250 61 250 C59 250 58 250 57 250 C56 249 56 247 55 246 C52 246 52 246 48 246 C47 246 46 246 44 246 C43 246 41 246 40 246 C37 246 34 246 32 246 C30 246 29 246 28 246 C27 246 27 246 25 246 C25 245 25 245 23 242 C19 242 19 242 14 242 C9 242 9 242 5 242 C4 241 4 239 3 238 C1 238 -0 238 -2 238 C-4 238 -5 238 -7 238 C-8 237 -8 235 -9 234 C-13 234 -13 234 -16 234 C-16 233 -16 233 -16 232 C-12 228 -12 228 -9 228 C-9 227 -9 227 -7 224 C-5 224 -3 223 -1 223 C-1 149 -0 76 0 0 Z " fill="#E7E9EC" transform="translate(41,321)"/>
<path d="M0 0 C10 1 16 7 23 14 C26 18 27 20 26 25 C24 26 22 27 21 28 C19 30 16 32 14 33 C13 34 12 35 11 36 C9 37 7 39 5 41 C1 44 -2 44 -7 43 C-9 43 -10 42 -11 42 C-16 40 -21 40 -26 40 C-30 40 -33 40 -36 38 C-38 33 -37 32 -35 27 C-28 16 -21 8 -10 1 C-7 1 -3 0 0 0 Z " fill="#EDEEF0" transform="translate(377.3125,137.625)"/>
<path d="M0 0 C3 2 3 2 4 4 C4 9 4 14 4 19 C4 21 4 22 4 23 C4 27 4 30 4 34 C4 37 4 39 4 42 C4 49 4 56 4 63 C4 70 4 77 4 84 C4 97 4 111 4 125 C4 125 4 125 2 123 C-1 121 -1 121 -3 121 C-3 122 -4 123 -4 124 C-5 123 -5 123 -6 122 C-7 124 -9 126 -10 128 C-13 123 -12 121 -11 115 C-11 109 -11 104 -11 98 C-11 96 -11 95 -11 93 C-11 90 -11 86 -11 83 C-11 78 -11 72 -11 67 C-11 64 -11 60 -11 57 C-11 55 -11 54 -11 52 C-11 45 -11 38 -12 31 C-12 29 -12 26 -12 24 C-12 23 -12 23 -12 20 C-12 19 -12 17 -12 16 C-12 15 -12 13 -12 12 C-12 9 -12 5 -12 2 C-11 2 -11 2 -10 2 C-10 3 -9 3 -9 4 C-8 3 -7 3 -6 2 C-5 3 -4 3 -3 4 C-2 3 -1 1 0 0 Z " fill="#595E6C" transform="translate(448,344)"/>
<path d="M0 0 C3 0 3 0 6 1 C6 2 6 2 8 5 C7 7 6 9 5 11 C5 17 5 17 6 20 C5 21 5 23 4 24 C1 24 -1 24 -4 24 C-4 25 -5 27 -5 28 C-6 28 -6 28 -7 28 C-7 29 -8 31 -8 32 C-11 32 -14 33 -17 33 C-23 36 -26 40 -30 45 C-31 45 -31 45 -32 45 C-32 46 -33 47 -33 48 C-38 50 -42 50 -47 50 C-48 50 -48 50 -50 50 C-58 51 -58 51 -61 50 C-65 52 -67 53 -69 57 C-70 58 -71 59 -72 60 C-76 60 -76 60 -79 59 C-80 58 -80 57 -81 56 C-83 55 -84 55 -86 54 C-82 49 -79 47 -73 45 C-64 42 -59 37 -53 29 C-50 27 -47 25 -44 23 C-41 20 -41 20 -41 16 C-40 15 -40 15 -40 12 C-39 11 -37 10 -36 9 C-35 9 -34 10 -33 10 C-33 11 -33 11 -33 12 C-32 12 -32 12 -31 12 C-30 13 -29 14 -28 15 C-25 15 -25 15 -22 15 C-21 15 -20 15 -19 15 C-16 15 -16 15 -13 12 C-11 12 -10 13 -8 13 C-7 12 -5 12 -4 11 C-3 8 -3 5 -2 2 C-1 1 -1 1 0 0 Z " fill="#1A1D29" transform="translate(232,396)"/>
<path d="M0 0 C15 6 26 15 33 30 C33 34 33 34 33 37 C32 38 32 38 27 38 C21 39 21 39 17 41 C9 45 2 42 -6 39 C-10 37 -13 35 -17 32 C-19 30 -19 30 -24 28 C-28 26 -28 26 -29 23 C-29 18 -28 16 -25 13 C-25 12 -25 12 -22 10 C-16 3 -10 -1 0 0 Z " fill="#EDEEF0" transform="translate(230,139)"/>
<path d="M0 0 C3 3 3 7 5 11 C5 12 5 12 6 17 C7 22 8 26 8 32 C9 37 9 43 10 48 C10 48 10 48 7 47 C7 46 7 44 7 43 C7 42 7 42 6 39 C4 38 3 37 1 36 C0 35 -0 33 -1 32 C-1 31 -2 29 -2 28 C-3 28 -5 28 -6 28 C-7 29 -7 31 -8 32 C-10 34 -10 34 -13 35 C-14 36 -14 36 -16 37 C-19 38 -19 38 -22 38 C-22 40 -22 42 -22 44 C-22 53 -24 58 -30 65 C-37 72 -43 75 -54 75 C-56 75 -58 75 -60 75 C-60 74 -60 74 -60 73 C-61 73 -61 73 -65 72 C-70 71 -70 71 -72 68 C-69 67 -69 67 -65 68 C-57 68 -52 66 -46 62 C-37 54 -35 46 -35 34 C-34 33 -34 31 -34 30 C-29 27 -29 27 -27 26 C-27 21 -27 19 -29 15 C-29 13 -28 12 -28 10 C-20 9 -14 11 -6 14 C-5 14 -4 14 -3 14 C-3 13 -3 13 -4 11 C-4 9 -4 8 -4 7 C-3 7 -3 6 -2 6 C-1 4 -1 2 0 0 Z " fill="#CACCD5" transform="translate(431,148)"/>
<path d="M0 0 C6 9 11 23 10 34 C9 36 9 37 8 39 C7 39 7 39 6 39 C6 40 6 41 7 42 C7 43 7 43 7 46 C3 47 0 46 -4 44 C-7 43 -7 43 -12 43 C-14 43 -15 43 -17 43 C-19 41 -19 41 -21 37 C-27 31 -32 25 -40 23 C-44 23 -49 23 -53 23 C-48 16 -42 9 -33 7 C-28 7 -23 7 -18 6 C-13 6 -13 6 -8 4 C-7 4 -5 4 -4 4 C-4 4 -4 4 -3 6 C-2 4 -1 2 0 0 Z " fill="#BEC1CD" transform="translate(421,116)"/>
<path d="M0 0 C1 1 1 1 2 2 C2 3 3 4 4 5 C5 6 5 7 6 8 C15 18 28 19 41 20 C41 19 41 19 41 18 C46 17 46 17 51 16 C52 17 53 18 54 19 C52 22 52 22 47 24 C44 28 43 32 42 37 C39 40 39 40 35 41 C29 41 25 39 20 36 C17 35 14 35 11 34 C7 33 2 30 -2 28 C-5 27 -8 27 -12 27 C-15 26 -19 26 -22 25 C-23 25 -23 25 -24 25 C-28 20 -28 14 -27 8 C-22 5 -22 5 -20 5 C-20 4 -19 2 -19 1 C-15 1 -11 2 -7 3 C-5 3 -2 2 0 2 C0 1 0 1 0 0 Z " fill="#BEC1CD" transform="translate(193,202)"/>
<path d="M0 0 C3 3 2 5 2 8 C2 10 2 11 2 12 C2 15 2 15 -2 19 C-7 21 -13 20 -19 20 C-21 20 -23 20 -25 20 C-28 20 -31 20 -34 20 C-38 21 -41 21 -44 21 C-46 21 -48 21 -50 21 C-55 21 -60 22 -65 23 C-71 23 -71 23 -75 23 C-76 16 -75 10 -72 3 C-68 0 -66 1 -61 1 C-49 1 -37 0 -25 -0 C-8 -1 -8 -1 0 0 Z " fill="#454C59" transform="translate(538,524)"/>
<path d="M0 0 C0 1 0 2 0 4 C1 12 2 19 5 27 C6 30 6 34 6 37 C7 41 8 44 9 47 C10 52 10 52 10 58 C10 57 9 57 9 56 C8 56 8 56 7 56 C7 55 6 55 6 54 C5 55 5 56 4 57 C3 55 3 54 2 52 C1 52 1 52 -2 53 C-9 55 -12 55 -19 51 C-25 46 -30 40 -34 33 C-34 32 -34 32 -34 31 C-35 31 -36 30 -37 30 C-39 26 -39 25 -38 20 C-33 16 -31 17 -25 16 C-24 16 -22 16 -20 16 C-17 16 -13 16 -9 16 C-9 15 -9 13 -9 12 C-8 11 -8 9 -8 8 C-7 8 -6 7 -5 7 C-5 6 -5 5 -4 4 C-4 3 -4 2 -4 1 C-1 0 -1 0 0 0 Z " fill="#C7CAD3" transform="translate(442,194)"/>
<path d="M0 0 C12 4 12 4 15 9 C15 16 13 18 9 23 C0 31 -8 36 -20 36 C-21 36 -21 36 -25 36 C-31 27 -29 11 -27 2 C-26 1 -24 1 -23 1 C-23 2 -23 4 -23 6 C-17 6 -14 7 -9 3 C-8 2 -7 1 -6 -0 C-4 -1 -4 -1 0 0 Z " fill="#3D414A" transform="translate(492.125,477.1875)"/>
<path d="M0 0 C6 1 9 4 13 8 C14 9 15 10 17 11 C18 12 20 13 21 15 C23 16 25 18 26 19 C27 20 28 21 29 21 C32 23 34 25 36 27 C39 30 39 30 39 36 C37 40 34 42 30 45 C26 48 23 51 20 54 C16 57 11 60 7 64 C6 65 4 66 3 67 C-3 66 -3 66 -5 65 C-5 59 -5 59 -2 55 C2 52 5 49 9 47 C10 46 11 45 11 44 C14 42 14 42 18 39 C18 39 18 39 21 37 C21 35 21 33 21 31 C19 28 19 28 15 26 C10 22 6 19 1 15 C0 14 -1 13 -2 12 C-5 9 -5 7 -5 3 C-3 1 -3 1 0 0 Z " fill="#ECEDEF" transform="translate(118.0625,392.4375)"/>
<path d="M0 0 C1 -0 2 -0 3 -0 C5 -0 8 -0 10 0 C13 0 17 0 20 -0 C22 -0 25 -0 27 0 C27 -0 27 -0 30 -0 C35 0 39 0 44 2 C44 3 44 4 44 4 C50 5 57 5 63 5 C63 6 63 6 63 6 C61 7 58 8 56 8 C60 9 63 10 67 11 C58 16 49 17 38 17 C38 17 38 17 35 16 C30 16 25 16 20 16 C15 15 11 15 7 16 C6 16 6 16 3 17 C-1 17 -1 17 -6 19 C-7 14 -7 14 -6 11 C-7 11 -9 10 -10 9 C-11 10 -13 11 -14 12 C-15 12 -16 12 -17 12 C-17 13 -18 14 -18 15 C-19 15 -20 15 -21 14 C-21 11 -21 11 -21 7 C-15 0 -9 -0 0 0 Z " fill="#575C69" transform="translate(75.99609375,313.734375)"/>
<path d="M0 0 C4 3 7 6 10 10 C12 13 12 13 16 16 C16 17 17 19 18 20 C17 25 17 25 16 26 C14 26 12 26 10 26 C5 26 2 27 -3 30 C-10 30 -14 29 -20 27 C-23 26 -27 26 -30 25 C-33 25 -33 25 -35 23 C-34 16 -31 15 -26 11 C-24 8 -22 5 -20 3 C-14 -2 -8 -3 0 0 Z " fill="#F5B225" transform="translate(310,199.375)"/>
<path d="M0 0 C2 -0 3 -0 5 -0 C6 -0 6 -0 10 -0 C11 -0 13 -0 14 -0 C15 -0 15 -0 17 0 C18 1 18 2 18 3 C15 7 9 6 5 6 C2 6 -0 6 -3 6 C-6 6 -10 6 -14 6 C-18 6 -21 6 -25 6 C-26 6 -27 6 -28 6 C-31 6 -34 6 -37 6 C-37 7 -38 8 -39 9 C-39 9 -40 9 -41 9 C-41 8 -41 7 -42 5 C-46 6 -46 6 -48 9 C-51 10 -51 10 -55 10 C-56 10 -58 10 -59 10 C-61 10 -63 10 -64 10 C-65 10 -65 10 -70 10 C-75 10 -79 10 -84 10 C-88 10 -92 10 -96 10 C-106 10 -115 10 -125 10 C-134 10 -144 10 -154 10 C-162 10 -171 10 -179 10 C-184 10 -189 10 -194 10 C-200 10 -205 10 -211 10 C-213 10 -214 10 -216 10 C-218 10 -219 10 -221 10 C-222 10 -223 10 -225 10 C-225 10 -225 10 -228 9 C-228 8 -229 7 -230 5 C-225 4 -220 4 -216 4 C-214 4 -213 4 -211 4 C-211 4 -211 4 -207 4 C-205 4 -204 4 -202 4 C-199 4 -195 4 -192 4 C-186 4 -181 4 -175 4 C-161 4 -148 4 -134 4 C-122 4 -111 4 -99 4 C-94 4 -88 4 -83 4 C-80 4 -76 4 -73 4 C-72 4 -72 4 -68 4 C-50 4 -50 4 -44 1 C-40 1 -37 1 -33 1 C-22 1 -11 0 0 0 Z " fill="#EDEEF0" transform="translate(433.75,569.75)"/>
<path d="M0 0 C1 0 3 0 4 0 C4 1 4 2 4 3 C6 3 7 3 9 3 C14 3 14 3 16 5 C14 5 13 5 11 5 C11 6 11 6 11 7 C12 7 12 8 13 8 C12 8 12 9 11 9 C11 11 10 12 10 14 C7 21 5 23 -2 27 C-7 28 -7 28 -13 28 C-13 28 -13 28 -18 28 C-23 28 -23 28 -27 24 C-28 23 -28 22 -29 21 C-31 18 -33 16 -36 14 C-37 13 -37 13 -38 12 C-36 12 -34 11 -32 11 C-33 10 -34 8 -35 7 C-26 6 -26 6 -22 7 C-21 6 -20 5 -19 5 C-12 0 -7 1 0 2 C0 1 0 1 0 0 Z " fill="#C2C5D0" transform="translate(299,40)"/>
<path d="M0 0 C5 2 5 2 8 6 C8 9 9 12 9 14 C10 22 11 26 16 32 C23 37 29 39 38 39 C38 39 38 39 41 39 C42 39 42 39 44 38 C44 39 44 39 42 40 C42 40 42 41 42 42 C40 43 40 43 33 44 C33 44 33 45 33 46 C20 46 9 44 -1 36 C-8 28 -9 22 -9 12 C-9 10 -9 8 -10 7 C-9 6 -9 6 -9 2 C-5 -0 -5 -0 0 0 Z " fill="#ECEDEF" transform="translate(201.0625,176.5)"/>
<path d="M0 0 C3 2 5 4 8 7 C11 7 11 7 15 7 C17 7 20 7 22 7 C22 8 23 8 23 9 C30 10 36 10 42 7 C45 4 45 4 46 3 C51 3 51 3 54 5 C57 8 57 8 58 13 C56 14 56 14 52 16 C51 17 50 18 49 19 C44 23 41 23 36 23 C32 23 29 24 26 26 C21 27 18 28 13 28 C8 25 6 20 4 15 C2 12 2 12 -2 8 C-2 2 -2 2 0 0 Z " fill="#1A1D29" transform="translate(107,458)"/>
<path d="M0 0 C3 2 3 2 5 5 C6 9 6 9 5 14 C5 16 5 18 5 19 C5 30 1 36 -7 43 C-15 49 -23 49 -33 49 C-33 48 -33 48 -33 47 C-35 47 -36 46 -38 46 C-43 45 -43 45 -45 42 C-42 41 -42 41 -38 42 C-30 42 -25 40 -19 36 C-10 28 -8 20 -8 8 C-7 7 -7 5 -7 4 C-2 1 -2 1 0 0 Z " fill="#ECEDEF" transform="translate(404,174)"/>
<path d="M0 0 C16 5 34 19 42 33 C41 33 39 32 38 32 C38 33 38 33 39 37 C38 37 37 36 36 36 C36 35 36 35 36 34 C35 34 34 33 33 33 C33 32 33 32 33 31 C27 30 20 29 14 29 C8 29 6 29 2 25 C-0 22 -0 20 -1 16 C-1 12 -1 9 -2 5 C-1 5 -1 5 0 5 C0 4 0 2 0 1 C0 1 0 0 0 0 Z " fill="#BEC1CD" transform="translate(360,51)"/>
<path d="M0 0 C4 -1 9 -1 13 0 C13 1 14 1 14 2 C16 3 17 3 19 4 C22 12 23 25 20 34 C13 34 8 31 3 27 C-3 20 -3 15 -2 7 C-2 6 -2 4 -2 3 C-1 2 -1 1 0 0 Z " fill="#1A1D29" transform="translate(410,337)"/>
<path d="M0 0 C3 0 3 0 8 1 C9 2 10 2 12 2 C15 3 15 3 17 4 C17 5 17 5 17 6 C32 5 32 5 38 3 C38 4 38 4 39 8 C39 9 40 10 40 11 C41 14 41 14 40 19 C37 22 33 22 28 22 C27 22 26 22 24 23 C20 23 18 22 14 20 C13 20 13 20 11 19 C8 18 8 18 5 13 C4 12 3 10 2 9 C2 8 2 8 2 7 C1 7 0 6 -1 6 C-1 5 -2 3 -2 2 C-1 1 -1 1 0 0 Z " fill="#BEC1CD" transform="translate(354,217)"/>
<path d="M0 0 C1 -0 2 -0 3 -0 C6 0 6 0 10 1 C10 2 10 2 10 3 C11 3 12 3 13 3 C17 3 21 3 25 4 C26 4 27 4 29 4 C30 4 31 4 33 4 C33 4 33 4 36 4 C39 4 39 4 42 6 C40 6 37 7 34 7 C34 8 34 9 34 10 C24 12 14 12 4 12 C-1 12 -1 12 -5 14 C-11 15 -16 16 -22 12 C-22 11 -22 10 -23 9 C-24 9 -25 8 -27 8 C-28 8 -29 7 -31 7 C-31 6 -31 5 -31 4 C-24 3 -18 3 -12 3 C-12 2 -12 2 -12 1 C-7 0 -4 -0 0 0 Z " fill="#C9CCD5" transform="translate(390.5625,559.875)"/>
<path d="M0 0 C1 0 2 0 3 0 C3 29 3 58 3 88 C3 101 3 115 3 128 C3 140 3 152 3 164 C3 170 3 176 3 182 C3 188 3 194 3 200 C3 202 3 204 3 207 C3 209 3 212 3 215 C3 217 3 219 3 220 C3 222 3 223 3 224 C2 224 1 225 0 225 C-2 227 -4 230 -6 232 C-5 233 -3 233 -2 234 C-2 235 -2 235 -3 238 C-5 238 -6 237 -8 237 C-8 236 -9 235 -9 234 C-13 234 -13 234 -16 234 C-16 233 -16 233 -16 232 C-12 228 -12 228 -9 228 C-9 227 -9 227 -7 224 C-5 224 -3 223 -1 223 C-1 149 -0 76 0 0 Z " fill="#EDEEF0" transform="translate(41,321)"/>
<path d="M0 0 C2 -0 4 -0 6 -0 C7 -0 9 -0 11 -0 C12 -0 12 -0 16 -0 C20 0 22 1 25 4 C25 6 25 8 25 9 C17 14 9 13 -0 13 C-1 13 -1 13 -6 13 C-8 13 -10 13 -12 13 C-12 13 -12 13 -17 13 C-21 12 -21 12 -24 10 C-25 9 -25 8 -26 7 C-22 -3 -10 0 0 0 Z " fill="#EBECEF" transform="translate(191.9375,453.625)"/>
<path d="M0 0 C1 0 1 1 2 1 C5 11 5 21 3 31 C1 34 1 34 -4 35 C-10 35 -12 34 -16 30 C-17 29 -17 28 -18 27 C-17 22 -17 22 -15 19 C-13 16 -13 16 -12 12 C-11 8 -10 6 -7 3 C-3 1 -3 1 0 0 Z " fill="#1A1D29" transform="translate(428,397)"/>
<path d="M0 0 C1 -0 1 -0 5 -0 C10 0 14 0 18 1 C18 2 18 2 18 3 C46 3 74 3 102 3 C102 4 102 5 102 6 C84 6 67 6 49 7 C40 7 32 7 24 7 C16 7 8 7 -0 7 C-3 7 -6 7 -9 7 C-13 7 -18 7 -22 7 C-23 7 -24 7 -26 7 C-35 7 -35 7 -38 6 C-38 5 -38 5 -38 4 C-33 3 -29 3 -25 3 C-23 3 -21 3 -20 3 C-19 3 -19 3 -16 3 C-16 2 -16 2 -16 1 C-11 0 -5 -0 0 0 Z " fill="#CACDD6" transform="translate(233.875,559.875)"/>
<path d="M0 0 C-4 2 -4 2 -9 2 C-9 3 -9 3 -9 4 C-23 6 -38 6 -52 6 C-52 5 -52 5 -52 4 C-80 4 -107 4 -136 4 C-136 3 -136 3 -136 2 C-139 2 -141 2 -144 2 C-144 2 -144 1 -144 1 C-96 0 -48 -0 0 0 Z " fill="#EDEEF0" transform="translate(388,559)"/>
<path d="M0 0 C1 1 2 2 3 3 C3 6 3 8 3 11 C3 13 4 14 4 16 C6 21 7 24 6 29 C4 32 4 32 1 33 C-3 32 -3 32 -8 30 C-11 30 -15 29 -18 29 C-19 22 -17 19 -13 13 C-12 12 -11 11 -11 9 C-8 6 -8 6 -4 4 C-3 4 -1 4 0 4 C-0 3 -1 2 -1 1 C-1 1 -0 0 0 0 Z " fill="#BEC1CD" transform="translate(332,239)"/>
<path d="M0 0 C1 1 2 1 3 2 C2 4 2 5 1 7 C-4 9 -4 9 -8 10 C-9 10 -9 11 -10 11 C-9 12 -8 14 -7 15 C-11 16 -15 16 -19 16 C-20 16 -20 16 -23 16 C-25 16 -26 16 -28 16 C-29 16 -31 16 -32 16 C-34 16 -35 16 -36 16 C-38 16 -39 16 -40 16 C-44 16 -47 16 -51 15 C-51 14 -51 13 -51 12 C-50 12 -50 11 -49 11 C-55 9 -61 8 -67 7 C-67 7 -67 6 -67 6 C-65 6 -63 6 -61 6 C-55 6 -48 6 -41 6 C-38 6 -35 6 -33 6 C-28 6 -24 6 -20 6 C-19 6 -17 6 -16 6 C-9 6 -5 5 0 0 Z " fill="#585D6A" transform="translate(435,527)"/>
<path d="M0 0 C0 1 0 1 1 5 C-5 11 -10 12 -18 13 C-19 14 -21 15 -22 16 C-26 17 -26 17 -30 16 C-33 16 -33 16 -36 18 C-39 18 -39 18 -43 19 C-44 19 -45 19 -46 19 C-47 19 -47 19 -49 19 C-44 12 -38 5 -29 3 C-24 3 -19 3 -14 2 C-9 2 -5 0 0 0 Z " fill="#C2C5D0" transform="translate(417,120)"/>
<path d="M0 0 C1 1 3 2 4 3 C5 3 6 4 7 4 C7 5 7 7 7 8 C9 7 11 7 13 6 C12 13 9 16 4 21 C-0 25 -0 30 0 36 C0 38 1 39 1 41 C0 41 -1 41 -2 41 C-2 40 -3 38 -3 37 C-4 37 -4 37 -5 37 C-5 36 -5 36 -5 35 C-4 35 -4 35 -3 35 C-3 33 -3 32 -3 30 C-4 30 -5 30 -6 30 C-6 29 -6 29 -6 28 C-7 28 -7 28 -8 28 C-8 27 -8 27 -8 26 C-13 27 -13 27 -18 29 C-19 28 -21 27 -22 26 C-22 25 -22 25 -22 24 C-20 23 -18 22 -16 20 C-7 15 -3 10 0 0 Z " fill="#D9DBE2" transform="translate(265,192)"/>
<path d="M0 0 C1 1 1 1 2 2 C6 6 11 10 15 13 C17 14 18 15 19 16 C19 17 19 17 19 18 C20 19 22 19 23 20 C24 23 24 23 25 26 C8 26 8 26 -1 24 C-1 23 -1 23 -1 22 C-4 21 -7 21 -10 20 C-10 19 -11 19 -11 18 C-10 18 -10 18 -9 18 C-9 17 -8 16 -8 15 C-6 14 -5 12 -3 11 C-2 10 -2 9 -1 8 C-1 7 -2 5 -2 4 C-1 3 -1 1 0 0 Z " fill="#BEC1CD" transform="translate(145,277)"/>
<path d="M0 0 C3 2 3 2 4 5 C4 8 4 12 4 16 C4 17 4 17 4 20 C4 24 4 27 3 31 C2 31 2 31 1 31 C1 33 0 34 0 36 C-1 36 -1 36 -2 36 C-2 34 -3 31 -3 29 C-4 29 -4 29 -5 29 C-5 30 -6 32 -6 33 C-12 27 -11 22 -12 14 C-12 13 -12 12 -12 11 C-12 8 -12 5 -12 2 C-11 2 -11 2 -10 2 C-10 3 -9 3 -9 4 C-8 3 -7 3 -6 2 C-5 3 -4 3 -3 4 C-2 3 -1 1 0 0 Z " fill="#4F5665" transform="translate(448,344)"/>
<path d="M0 0 C9 0 14 7 20 13 C20 13 20 13 22 16 C21 17 21 19 20 20 C11 22 2 21 -6 18 C-8 15 -9 13 -9 9 C-8 7 -8 6 -7 4 C-5 3 -4 3 -2 2 C-1 1 -1 1 0 0 Z " fill="#C8CBD4" transform="translate(168,236)"/>
<path d="M0 0 C1 0 1 0 2 0 C4 3 5 5 6 8 C11 17 11 17 13 20 C14 20 14 21 15 22 C15 23 15 23 13 27 C13 26 12 25 12 24 C11 25 10 25 9 26 C9 27 9 28 9 29 C8 29 8 29 7 29 C7 33 6 37 6 41 C5 41 4 41 3 41 C3 42 3 42 3 43 C2 43 2 43 1 43 C1 42 1 40 1 39 C1 30 -3 25 -9 18 C-10 17 -11 16 -12 15 C-14 13 -14 13 -14 7 C-14 7 -14 7 -12 8 C-12 9 -12 9 -12 10 C-11 10 -9 11 -8 11 C-7 12 -5 14 -4 15 C-3 14 -2 14 -1 13 C-1 10 -2 7 -2 4 C-1 3 -1 1 0 0 Z " fill="#D8DAE1" transform="translate(338,189)"/>
<path d="M0 0 C0 1 1 1 1 2 C1 3 0 4 0 5 C0 7 0 9 0 11 C-1 13 -2 14 -3 16 C-3 20 -3 20 -2 23 C-3 23 -4 22 -5 22 C-5 21 -6 20 -6 19 C-7 20 -8 21 -8 22 C-9 23 -10 24 -11 25 C-12 25 -13 25 -14 25 C-14 26 -14 26 -14 27 C-15 27 -16 28 -17 28 C-17 27 -18 26 -18 25 C-19 25 -19 25 -23 23 C-24 21 -25 20 -26 18 C-24 14 -22 12 -19 9 C-18 8 -18 7 -17 6 C-13 3 -9 3 -4 3 C-3 2 -1 1 0 0 Z " fill="#C1C4CF" transform="translate(341,166)"/>
<path d="M0 0 C2 -0 3 -0 5 -0 C5 -0 5 -0 10 0 C11 0 13 0 14 -0 C16 -0 18 -0 19 0 C20 0 20 0 23 0 C27 0 27 0 31 2 C30 2 30 2 29 2 C29 3 29 4 29 5 C27 5 26 5 24 5 C24 4 24 3 24 2 C23 2 22 3 21 3 C21 3 21 3 18 3 C17 3 17 3 14 4 C11 4 11 4 5 4 C4 5 3 6 2 6 C4 6 4 6 16 7 C16 8 16 8 16 8 C10 9 5 10 -1 10 C-1 11 -1 12 -1 12 C-0 12 -0 12 4 13 C9 13 13 14 18 14 C18 15 18 15 18 15 C17 15 16 16 15 16 C13 16 12 16 10 16 C10 16 10 16 6 17 C2 17 2 17 -3 19 C-4 14 -4 14 -3 11 C-4 11 -6 10 -7 9 C-8 10 -10 11 -11 12 C-12 12 -13 12 -14 12 C-14 13 -15 14 -15 15 C-16 15 -17 15 -18 14 C-19 11 -19 11 -18 7 C-13 1 -8 0 0 0 Z " fill="#5D6373" transform="translate(73.00390625,313.734375)"/>
<path d="M0 0 C2 2 3 3 5 5 C5 4 6 3 6 2 C7 2 7 2 8 2 C8 4 9 7 9 9 C10 9 10 9 11 9 C11 7 12 6 12 4 C13 4 14 4 15 4 C15 8 15 13 15 17 C15 19 15 20 15 21 C15 23 15 24 15 25 C15 26 15 27 15 28 C15 29 15 30 15 31 C14 31 14 32 13 32 C13 31 12 29 12 28 C12 27 12 27 11 24 C10 24 10 24 9 24 C9 25 9 25 7 29 C6 28 6 28 5 27 C5 28 4 29 4 30 C2 32 1 35 0 37 C0 36 0 36 0 32 C0 30 0 28 0 26 C0 24 0 23 0 22 C0 17 -0 13 -1 8 C-1 4 -1 4 0 0 Z " fill="#5A5F6D" transform="translate(437,371)"/>
<path d="M0 0 C3 0 3 0 7 1 C9 1 10 1 12 1 C13 1 13 1 16 2 C16 3 17 5 17 6 C15 9 13 11 11 14 C11 16 11 17 11 19 C10 20 10 20 9 21 C9 22 10 24 10 25 C10 28 10 31 10 34 C8 32 8 32 8 28 C7 27 7 25 7 24 C3 22 3 22 -2 20 C-3 18 -3 17 -4 15 C-4 16 -5 16 -5 17 C-6 17 -6 17 -7 17 C-7 13 -7 13 -7 8 C-6 7 -4 7 -3 6 C-3 5 -2 4 -2 3 C-1 2 -1 1 0 0 Z " fill="#C1C4CF" transform="translate(182,154)"/>
<path d="M0 0 C38 -0 38 -0 47 2 C52 2 56 2 62 2 C63 2 64 2 65 2 C68 2 72 2 75 2 C78 2 80 2 83 2 C88 2 94 2 100 2 C100 3 100 3 100 4 C99 4 97 4 96 4 C94 4 93 4 91 4 C90 4 90 4 86 5 C83 5 80 5 77 6 C70 6 63 6 56 6 C49 6 43 6 36 7 C28 7 20 7 12 4 C12 3 12 3 12 2 C8 2 4 2 0 2 C0 1 0 1 0 0 Z " fill="#181B27" transform="translate(128,329)"/>
<path d="M0 0 C2 0 3 0 5 0 C6 0 6 0 10 0 C14 0 14 0 16 2 C16 9 12 13 9 17 C6 19 6 19 -0 19 C-5 15 -7 11 -8 4 C-4 0 -4 0 0 0 Z " fill="#F5B225" transform="translate(298.2578125,236.5390625)"/>
<path d="M0 0 C1 0 1 0 2 0 C6 8 6 18 4 27 C3 28 3 30 2 31 C1 31 0 30 -1 30 C-1 29 -1 29 -1 28 C-2 28 -2 28 -3 28 C-3 29 -4 30 -4 31 C-8 27 -9 25 -9 19 C-9 12 -8 8 -5 2 C-4 3 -3 3 -2 4 C-1 3 -1 1 0 0 Z " fill="#4E5666" transform="translate(446,395)"/>
<path d="M0 0 C2 3 2 3 3 7 C5 8 6 8 8 9 C9 10 10 11 11 12 C10 12 9 13 8 13 C2 15 -1 17 -5 21 C-8 22 -8 22 -11 22 C-11 22 -12 21 -12 21 C-13 21 -15 21 -16 21 C-17 21 -17 21 -20 20 C-21 19 -21 18 -22 17 C-21 17 -20 16 -19 16 C-19 14 -19 13 -19 11 C-16 9 -16 9 -11 7 C-1 2 -1 2 0 0 Z " fill="#5F6575" transform="translate(465,283)"/>
<path d="M0 0 C5 2 5 2 7 6 C7 14 7 14 6 18 C2 21 2 21 -1 21 C-2 20 -3 20 -4 20 C-5 20 -6 19 -7 19 C-10 18 -10 18 -14 16 C-15 16 -16 17 -17 17 C-17 16 -18 14 -18 13 C-15 10 -12 8 -9 6 C-7 5 -6 4 -4 2 C-3 2 -1 1 0 0 Z " fill="#BEC1CD" transform="translate(431,183)"/>
<path d="M0 0 C2 -0 3 -0 5 -0 C6 -0 6 -0 10 -0 C10 -0 10 -0 14 -0 C15 -0 15 -0 17 0 C17 1 17 1 18 3 C15 7 9 6 5 6 C2 6 -0 6 -3 6 C-6 6 -10 6 -14 6 C-18 6 -21 6 -25 6 C-26 6 -27 6 -28 6 C-31 6 -34 6 -37 6 C-37 7 -37 7 -39 9 C-39 9 -40 9 -41 9 C-41 8 -41 7 -42 5 C-44 5 -46 5 -48 5 C-47 4 -47 3 -47 2 C-40 1 -33 1 -26 1 C-17 1 -9 0 0 0 Z " fill="#E7E8EC" transform="translate(433.75,569.75)"/>
<path d="M0 0 C1 0 3 0 4 0 C4 1 4 2 4 3 C6 3 7 3 9 3 C14 3 14 3 16 5 C14 5 13 5 11 5 C11 6 11 6 11 7 C12 7 12 8 13 8 C9 9 6 9 2 8 C1 8 -1 9 -2 9 C-5 9 -8 9 -11 9 C-11 10 -11 10 -11 11 C-15 12 -20 12 -24 11 C-25 11 -27 11 -28 11 C-32 10 -32 10 -35 7 C-26 6 -26 6 -22 7 C-21 6 -20 5 -19 5 C-12 0 -7 1 0 2 C0 1 0 1 0 0 Z " fill="#BEC1CD" transform="translate(299,40)"/>
<path d="M0 0 C0 0 1 0 1 0 C1 3 2 6 2 9 C2 10 2 12 2 14 C2 18 2 18 -2 22 C-6 25 -8 26 -13 26 C-15 19 -14 11 -13 4 C-12 5 -11 6 -10 7 C-9 7 -9 7 -8 7 C-7 6 -7 6 -6 5 C-5 6 -4 6 -3 7 C-3 6 -2 5 -2 4 C-1 2 -1 1 0 0 Z " fill="#585D6B" transform="translate(68,502)"/>
<path d="M0 0 C-0 1 -1 2 -1 3 C-3 4 -6 5 -8 6 C-8 7 -8 7 -8 8 C-13 10 -18 9 -23 9 C-24 8 -26 8 -27 7 C-26 7 -24 6 -23 6 C-33 3 -43 4 -53 3 C-54 3 -55 3 -57 3 C-58 3 -59 3 -61 3 C-64 3 -64 3 -68 1 C-19 -0 -19 -0 0 0 Z " fill="#585D6A" transform="translate(240,533)"/>
<path d="M0 0 C0 1 0 1 0 2 C-0 2 -0 2 -2 3 C-1 4 -0 5 1 6 C0 12 -4 17 -8 22 C-10 22 -12 22 -14 22 C-16 20 -15 16 -15 13 C-15 12 -15 10 -16 9 C-15 5 -15 5 -13 2 C-9 -1 -5 -0 0 0 Z " fill="#1A1D29" transform="translate(93,335)"/>
<path d="M0 0 C39 -1 39 -1 53 5 C53 6 53 6 53 7 C52 7 51 7 50 7 C50 8 50 8 50 9 C47 10 47 10 43 10 C42 9 41 9 41 8 C38 6 38 6 34 6 C30 7 30 7 28 8 C25 8 22 8 19 8 C19 7 19 7 19 6 C20 6 21 5 22 5 C19 5 15 4 12 4 C12 3 12 2 12 1 C11 1 9 1 8 1 C8 2 8 2 8 3 C5 3 3 3 0 3 C0 2 0 1 0 0 Z " fill="#D8DAE1" transform="translate(291,39)"/>
<path d="M0 0 C1 1 1 3 2 4 C0 8 0 8 -2 9 C-11 11 -21 10 -30 9 C-29 8 -29 6 -28 5 C-27 5 -27 5 -26 5 C-26 4 -26 4 -26 3 C-18 0 -9 -2 0 0 Z " fill="#1D202D" transform="translate(428,517)"/>
<path d="M0 0 C1 -0 1 -0 5 -0 C7 -0 8 -0 10 -0 C11 -0 13 -0 14 -0 C18 0 18 0 23 1 C18 4 15 4 9 4 C8 4 8 4 5 4 C3 4 1 4 -0 4 C-2 4 -4 4 -6 4 C-17 4 -28 4 -40 4 C-41 4 -42 4 -44 4 C-53 3 -53 3 -55 1 C-37 0 -18 0 0 0 Z " fill="#5F6575" transform="translate(297.3125,319.875)"/>
<path d="M0 0 C1 0 1 1 2 1 C2 4 2 6 2 9 C3 9 3 9 4 9 C4 7 5 6 5 4 C5 4 6 4 6 4 C6 10 6 12 3 17 C2 17 2 18 1 18 C-0 23 0 27 1 32 C1 34 1 35 1 37 C-2 39 -2 39 -6 39 C-7 25 -5 13 0 0 Z " fill="#D8DAE1" transform="translate(173,162)"/>
<path d="M0 0 C3 1 6 3 9 4 C14 6 14 6 18 7 C18 7 18 7 21 8 C22 12 22 12 22 15 C18 16 15 15 11 13 C8 12 8 12 2 12 C1 12 -0 12 -2 12 C-3 10 -4 9 -5 7 C-5 6 -4 4 -4 3 C-3 3 -3 3 -2 3 C-2 2 -2 2 -2 1 C-1 1 -1 0 0 0 Z " fill="#C2C5D0" transform="translate(406,147)"/>
<path d="M0 0 C3 6 4 13 4 19 C5 23 6 26 7 29 C8 34 8 34 8 40 C8 39 7 39 7 38 C6 38 6 38 5 38 C3 34 3 34 3 30 C2 30 0 29 -1 29 C-2 26 -2 26 -2 22 C-2 18 -2 18 -5 13 C-5 7 -5 7 -5 2 C-2 0 -2 0 0 0 Z " fill="#D6D8DF" transform="translate(444,212)"/>
<path d="M0 0 C1 0 1 1 2 1 C2 2 1 2 1 3 C2 3 4 3 5 3 C5 2 6 2 6 1 C4 9 -2 14 -8 19 C-9 20 -9 20 -12 22 C-15 25 -15 25 -18 25 C-18 26 -19 28 -19 29 C-19 28 -20 28 -20 27 C-20 26 -19 25 -19 24 C-18 24 -18 24 -17 24 C-17 22 -16 21 -16 19 C-15 19 -15 19 -14 19 C-14 18 -14 18 -14 17 C-15 17 -15 16 -16 16 C-6 5 -6 5 0 0 Z " fill="#BABDC9" transform="translate(227,63)"/>
<path d="M0 0 C1 0 1 0 2 0 C3 5 2 7 1 11 C0 13 -0 14 -1 16 C-1 17 -2 19 -2 20 C-3 22 -3 25 -4 27 C-5 28 -5 29 -5 30 C-6 33 -6 35 -7 37 C-7 38 -7 38 -8 40 C-9 40 -9 40 -13 41 C-12 34 -11 28 -9 21 C-8 19 -8 17 -7 15 C-5 10 -3 5 0 0 Z " fill="#D7D9E0" transform="translate(188,113)"/>
<path d="M0 0 C6 0 11 0 17 -0 C24 -0 31 0 39 1 C41 1 44 1 46 1 C47 1 47 1 51 1 C51 2 51 2 51 3 C54 3 56 3 59 3 C59 4 59 4 59 5 C50 6 40 8 31 4 C31 3 31 3 31 2 C30 2 30 2 26 2 C20 2 14 2 8 3 C6 3 3 3 1 3 C-3 3 -7 3 -11 3 C-12 3 -13 3 -14 3 C-24 3 -24 3 -29 1 C-29 1 -29 0 -29 0 C-28 0 -28 0 -26 0 C-17 0 -8 -2 0 0 Z " fill="#1E212D" transform="translate(197,329)"/>
<path d="M0 0 C3 0 7 0 10 0 C10 1 10 1 10 2 C7 2 3 2 0 2 C0 1 0 1 0 0 Z " fill="#EDEEF0" transform="translate(101,293)"/>
</svg>
