<?xml version="1.0" encoding="UTF-8"?>
<!-- Generator: visioncortex VTracer 0.6.12 -->
<svg version="1.1" xmlns="http://www.w3.org/2000/svg" width="688" height="600">
<path d="M0 0 C4 -1 4 -1 10 -1 C12 -1 14 -1 16 -1 C17 -1 18 -1 19 -1 C22 -1 25 -1 28 -1 C29 -1 29 -1 34 -1 C36 -1 38 -1 40 -1 C41 -0 43 -0 44 0 C45 1 45 3 46 4 C48 4 49 4 51 4 C53 4 54 4 56 4 C57 5 57 7 58 8 C60 8 62 8 64 8 C65 9 65 11 66 12 C68 12 70 12 72 12 C73 13 73 15 74 16 C76 16 78 16 80 16 C81 17 81 19 82 20 C83 20 83 20 86 22 C86 23 86 23 86 24 C87 24 87 24 90 26 C90 27 90 27 90 28 C91 28 91 28 94 30 C94 31 94 31 94 32 C95 33 97 33 98 34 C98 35 98 35 98 36 C99 37 101 37 102 38 C102 39 102 39 102 40 C103 40 104 40 105 40 C105 41 105 42 105 43 C106 47 106 47 110 50 C110 51 110 51 110 52 C111 52 112 52 113 52 C113 53 113 54 113 55 C114 57 114 58 114 59 C115 59 116 60 117 60 C117 62 118 65 118 67 C119 67 120 68 121 68 C121 72 122 75 122 79 C123 79 124 80 125 80 C125 85 126 90 126 95 C126 96 126 98 126 99 C127 99 128 100 129 100 C129 103 129 103 129 107 C129 108 129 110 129 111 C129 114 130 117 130 120 C130 121 130 123 130 124 C130 125 130 127 130 128 C130 129 130 130 130 131 C131 131 132 132 133 132 C133 137 134 142 134 147 C134 148 134 150 134 151 C135 151 136 152 137 152 C137 156 138 160 138 164 C138 165 138 166 138 167 C139 167 140 168 141 168 C141 172 142 175 142 179 C143 179 144 180 145 180 C145 185 145 190 146 195 C146 198 146 200 146 203 C147 203 148 204 149 204 C149 208 150 211 150 215 C151 215 153 215 154 215 C155 214 155 213 156 212 C160 212 163 212 167 212 C168 212 169 212 170 212 C171 211 171 209 172 208 C176 208 179 208 183 208 C184 208 185 208 186 208 C187 207 187 205 188 204 C193 204 197 204 202 204 C203 204 205 204 206 204 C207 203 207 201 208 200 C214 200 219 200 225 200 C228 200 231 200 234 200 C234 199 234 199 236 196 C239 195 239 195 243 195 C244 195 244 195 247 195 C249 195 250 195 252 196 C253 195 253 195 257 195 C258 195 259 195 261 195 C262 195 262 195 265 195 C266 196 267 196 268 196 C269 197 269 199 270 200 C274 200 279 200 283 200 C287 200 292 200 296 200 C297 201 297 203 298 204 C300 204 301 204 303 204 C305 204 306 204 308 204 C309 205 309 207 310 208 C312 208 314 208 316 208 C317 209 317 211 318 212 C319 212 320 212 321 212 C321 217 321 222 321 227 C321 228 321 228 321 231 C321 233 321 234 321 235 C321 237 321 238 321 239 C321 240 321 240 321 242 C320 242 319 243 318 243 C318 246 318 246 318 250 C317 255 317 255 317 258 C316 258 315 259 314 259 C314 261 314 263 314 264 C313 266 313 268 313 270 C312 270 311 271 310 271 C310 272 310 273 310 274 C309 276 309 277 309 278 C308 278 307 279 306 279 C306 280 306 281 306 282 C305 284 305 285 305 286 C304 286 303 287 302 287 C302 288 302 289 302 290 C301 292 301 293 301 294 C300 294 299 295 298 295 C298 296 298 297 298 298 C297 300 297 301 297 302 C296 302 295 303 294 303 C293 307 293 307 293 310 C292 310 291 310 290 310 C289 311 289 313 288 314 C288 314 288 314 286 315 C286 317 285 320 285 322 C284 322 283 322 282 322 C281 323 281 325 280 326 C279 326 279 326 278 326 C277 327 277 329 276 330 C276 330 276 330 274 331 C274 333 273 336 273 338 C272 338 271 338 270 338 C269 339 269 341 268 342 C267 342 267 342 266 342 C265 343 265 345 264 346 C263 346 263 346 262 346 C261 347 261 349 260 350 C260 350 260 350 258 351 C258 353 257 356 257 358 C256 358 255 358 254 358 C253 359 253 361 252 362 C251 362 251 362 250 362 C249 363 249 365 248 366 C247 366 247 366 246 366 C245 367 245 369 244 370 C243 370 243 370 242 370 C241 371 241 373 240 374 C239 374 239 374 238 374 C237 375 237 377 236 378 C235 378 235 378 234 378 C233 379 233 381 232 382 C231 382 231 382 230 382 C229 383 229 385 228 386 C227 386 227 386 226 386 C225 387 225 389 224 390 C223 390 223 390 222 390 C221 391 221 393 220 394 C219 394 219 394 218 394 C217 395 217 397 216 398 C214 398 212 398 210 398 C209 399 209 401 208 402 C207 402 207 402 206 402 C205 403 205 405 204 406 C203 406 203 406 202 406 C201 407 201 409 200 410 C199 410 199 410 198 410 C197 411 197 413 196 414 C194 414 192 414 190 414 C189 415 189 417 188 418 C187 418 187 418 186 418 C185 419 185 421 184 422 C183 422 183 422 182 422 C181 423 181 425 180 426 C178 426 176 426 174 426 C173 427 173 429 172 430 C170 430 168 430 166 430 C165 431 165 433 164 434 C163 434 163 434 162 434 C161 435 161 437 160 438 C158 438 156 438 154 438 C153 439 153 441 152 442 C151 442 151 442 150 442 C149 443 149 445 148 446 C146 446 144 446 142 446 C141 447 141 449 140 450 C138 450 136 450 134 450 C133 451 133 453 132 454 C130 454 128 454 126 454 C125 455 125 457 124 458 C122 458 120 458 118 458 C117 459 117 461 116 462 C113 462 109 462 106 462 C105 463 105 465 104 466 C103 466 103 466 101 466 C100 466 100 466 98 467 C98 471 97 474 97 478 C96 478 95 479 94 479 C94 480 94 481 94 482 C93 484 93 485 93 486 C92 486 91 487 90 487 C89 491 89 491 89 494 C88 494 87 494 86 494 C85 495 85 497 84 498 C83 498 83 499 82 499 C82 501 81 504 81 506 C80 506 79 506 78 506 C77 507 77 509 76 510 C75 510 75 510 74 510 C73 511 73 513 72 514 C71 514 71 514 70 514 C69 515 69 517 68 518 C67 518 67 518 66 518 C65 519 65 521 64 522 C63 522 63 522 62 522 C61 523 61 525 60 526 C58 526 56 526 54 526 C53 527 53 529 52 530 C50 530 48 530 46 530 C45 531 45 533 44 534 C42 534 40 534 38 534 C37 535 37 537 36 538 C33 538 29 538 26 538 C25 539 25 541 24 542 C21 542 17 542 14 542 C13 543 13 545 12 546 C8 546 5 547 1 547 C-3 547 -6 547 -10 547 C-11 548 -11 549 -12 550 C-14 550 -15 549 -17 549 C-17 548 -18 548 -18 547 C-19 547 -20 546 -22 546 C-23 546 -24 545 -25 545 C-25 544 -26 543 -26 542 C-27 542 -28 542 -29 542 C-29 540 -29 537 -29 535 C-29 534 -29 532 -29 531 C-29 530 -29 529 -29 528 C-28 528 -27 527 -26 527 C-26 526 -26 525 -26 524 C-25 522 -25 521 -25 520 C-24 520 -23 519 -22 519 C-22 518 -22 517 -22 516 C-21 514 -21 513 -21 512 C-20 512 -19 511 -18 511 C-18 510 -18 509 -18 508 C-17 506 -17 505 -17 504 C-16 504 -15 503 -14 503 C-13 501 -13 498 -12 496 C-11 496 -11 495 -10 495 C-10 494 -10 492 -10 491 C-19 490 -19 490 -22 490 C-23 491 -23 493 -24 494 C-25 494 -25 494 -26 494 C-27 495 -27 497 -28 498 C-29 498 -29 498 -30 498 C-31 499 -31 501 -32 502 C-33 502 -33 502 -34 502 C-35 503 -35 505 -36 506 C-38 506 -40 506 -42 506 C-43 507 -43 509 -44 510 C-48 510 -52 511 -56 510 C-57 511 -58 511 -59 511 C-63 511 -63 511 -68 510 C-69 509 -69 507 -70 506 C-71 505 -73 505 -74 504 C-74 503 -74 503 -74 502 C-78 502 -78 502 -82 502 C-83 503 -83 505 -84 506 C-85 506 -85 506 -86 506 C-87 507 -87 509 -88 510 C-89 510 -89 510 -90 510 C-91 511 -91 513 -92 514 C-93 514 -93 514 -94 514 C-95 515 -95 517 -96 518 C-97 518 -97 518 -98 518 C-99 519 -99 521 -100 522 C-102 522 -104 522 -106 522 C-107 523 -107 525 -108 526 C-110 526 -112 526 -114 526 C-115 527 -115 529 -116 530 C-119 530 -119 530 -123 530 C-124 530 -125 530 -126 530 C-127 530 -127 530 -129 530 C-129 529 -129 528 -129 527 C-129 525 -130 524 -130 523 C-134 522 -134 522 -138 522 C-139 523 -139 525 -140 526 C-143 526 -147 526 -150 526 C-151 527 -151 529 -152 530 C-155 530 -159 530 -162 530 C-163 531 -163 533 -164 534 C-167 534 -167 534 -171 534 C-173 534 -174 534 -176 534 C-177 534 -179 534 -181 534 C-181 534 -181 534 -185 534 C-189 534 -193 534 -197 534 C-197 530 -197 530 -197 525 C-196 524 -195 524 -194 523 C-194 522 -194 520 -194 519 C-198 519 -202 518 -206 518 C-207 518 -208 518 -209 518 C-212 518 -215 518 -218 518 C-219 519 -219 521 -220 522 C-224 523 -224 523 -230 523 C-231 523 -231 523 -236 523 C-237 523 -238 523 -239 523 C-242 523 -245 523 -248 523 C-250 523 -252 523 -254 523 C-256 523 -258 523 -260 523 C-260 522 -260 522 -264 522 C-265 521 -265 519 -266 518 C-272 518 -272 518 -277 518 C-277 513 -277 509 -277 504 C-276 504 -275 504 -274 504 C-274 503 -274 503 -272 500 C-271 500 -271 500 -270 500 C-270 499 -270 499 -268 496 C-267 496 -267 496 -266 496 C-266 495 -266 495 -264 492 C-263 492 -263 492 -262 492 C-262 491 -262 491 -260 488 C-259 488 -259 488 -258 488 C-258 487 -258 487 -256 484 C-255 484 -255 484 -254 484 C-254 483 -254 483 -252 480 C-251 480 -251 480 -250 480 C-250 479 -250 479 -248 476 C-247 476 -247 476 -246 476 C-246 475 -246 475 -244 472 C-243 472 -243 472 -242 472 C-241 471 -241 469 -240 468 C-239 468 -239 468 -238 468 C-237 467 -237 465 -236 464 C-235 464 -235 464 -234 464 C-233 463 -233 461 -232 460 C-231 460 -231 460 -230 460 C-229 459 -229 457 -228 456 C-227 456 -227 456 -226 456 C-225 455 -225 453 -224 452 C-223 452 -223 451 -222 451 C-222 450 -222 448 -222 447 C-223 447 -224 447 -225 447 C-226 447 -227 447 -229 447 C-230 447 -231 447 -232 447 C-236 446 -238 445 -241 442 C-241 441 -241 441 -241 440 C-240 440 -238 439 -237 439 C-237 435 -237 435 -237 432 C-236 432 -235 432 -234 432 C-233 431 -233 429 -232 428 C-231 428 -231 428 -230 428 C-229 427 -229 425 -228 424 C-227 424 -227 424 -226 424 C-225 423 -225 421 -224 420 C-223 420 -223 420 -222 420 C-221 419 -221 417 -220 416 C-219 416 -219 416 -218 416 C-217 415 -217 413 -216 412 C-215 412 -215 412 -214 412 C-213 411 -213 409 -212 408 C-210 408 -208 408 -206 408 C-205 407 -205 405 -204 404 C-203 404 -203 404 -202 404 C-201 403 -201 401 -200 400 C-198 400 -196 400 -194 400 C-193 399 -193 397 -192 396 C-190 396 -188 396 -186 396 C-185 395 -185 393 -184 392 C-182 392 -180 392 -178 392 C-177 391 -177 389 -176 388 C-173 388 -169 388 -166 388 C-165 387 -165 385 -164 384 C-160 384 -160 384 -155 384 C-153 384 -151 384 -149 384 C-145 384 -141 384 -137 384 C-135 384 -133 384 -131 384 C-130 384 -128 384 -126 384 C-125 384 -123 384 -122 384 C-121 383 -121 381 -120 380 C-119 380 -119 379 -118 379 C-118 377 -117 374 -117 372 C-116 372 -115 372 -114 372 C-113 371 -113 369 -112 368 C-111 368 -111 367 -110 367 C-109 363 -109 363 -110 359 C-113 358 -113 358 -117 357 C-117 356 -118 355 -118 354 C-122 354 -126 354 -130 354 C-131 354 -132 354 -133 354 C-137 354 -137 354 -142 354 C-143 355 -143 357 -144 358 C-147 359 -147 359 -151 359 C-155 359 -155 359 -158 359 C-159 360 -159 361 -160 362 C-162 362 -163 361 -165 361 C-165 360 -166 360 -166 359 C-168 359 -170 359 -172 359 C-173 359 -175 358 -177 358 C-177 357 -177 356 -177 354 C-177 353 -178 352 -178 351 C-182 350 -185 350 -189 350 C-193 350 -196 350 -200 350 C-201 349 -201 347 -202 346 C-204 346 -205 346 -207 346 C-209 346 -210 346 -212 346 C-212 345 -212 345 -214 342 C-215 341 -217 341 -218 340 C-218 339 -218 339 -218 338 C-219 338 -220 338 -221 338 C-221 335 -221 331 -221 328 C-220 328 -219 328 -218 328 C-217 327 -217 325 -216 324 C-215 324 -215 324 -214 324 C-213 323 -213 321 -212 320 C-210 320 -208 320 -206 320 C-205 319 -205 317 -204 316 C-202 316 -200 316 -198 316 C-197 315 -197 313 -196 312 C-194 312 -192 312 -190 312 C-189 311 -189 309 -188 308 C-186 308 -184 308 -182 308 C-181 307 -181 305 -180 304 C-178 304 -176 304 -174 304 C-173 303 -173 301 -172 300 C-170 300 -168 300 -166 300 C-165 299 -165 297 -164 296 C-163 296 -163 296 -162 296 C-161 295 -161 293 -160 292 C-159 292 -159 292 -158 292 C-157 291 -157 289 -156 288 C-155 288 -155 288 -153 288 C-152 288 -152 288 -150 287 C-149 283 -149 283 -149 278 C-149 274 -149 271 -149 268 C-148 268 -147 267 -146 267 C-146 264 -146 264 -146 260 C-145 255 -145 255 -145 252 C-144 252 -143 251 -142 251 C-142 250 -142 249 -142 248 C-141 246 -141 245 -141 244 C-140 244 -139 243 -138 243 C-138 242 -138 241 -138 240 C-137 238 -137 237 -137 236 C-136 236 -135 235 -134 235 C-134 234 -134 233 -134 232 C-133 230 -133 229 -133 228 C-132 228 -131 227 -130 227 C-129 223 -129 223 -129 220 C-128 220 -127 220 -126 220 C-125 219 -125 217 -124 216 C-123 216 -123 215 -122 215 C-122 213 -121 210 -121 208 C-120 208 -119 208 -118 208 C-117 207 -117 205 -116 204 C-115 204 -115 203 -114 203 C-114 201 -113 198 -113 196 C-112 196 -111 196 -110 196 C-109 195 -109 193 -108 192 C-107 192 -107 191 -106 191 C-106 190 -106 189 -106 188 C-105 186 -105 185 -105 184 C-104 184 -103 183 -102 183 C-102 182 -102 181 -102 180 C-101 178 -101 177 -101 176 C-100 176 -99 175 -98 175 C-98 173 -98 171 -98 170 C-97 168 -97 166 -97 164 C-96 164 -95 163 -94 163 C-94 159 -94 155 -94 152 C-93 148 -93 144 -93 140 C-92 140 -91 139 -90 139 C-90 135 -90 135 -90 130 C-90 130 -90 130 -90 125 C-90 123 -90 121 -90 120 C-89 116 -89 112 -89 109 C-89 107 -89 105 -89 104 C-89 102 -89 101 -89 100 C-88 100 -87 99 -86 99 C-86 95 -86 95 -86 90 C-85 84 -85 84 -85 80 C-84 80 -83 79 -82 79 C-82 77 -82 75 -82 74 C-81 72 -81 70 -81 68 C-80 68 -79 67 -78 67 C-78 66 -78 65 -78 64 C-77 62 -77 61 -77 60 C-76 60 -75 59 -74 59 C-73 55 -73 55 -73 52 C-72 52 -71 52 -70 52 C-69 51 -69 49 -68 48 C-67 48 -67 47 -66 47 C-66 45 -65 42 -65 40 C-64 40 -63 40 -62 40 C-61 39 -61 37 -60 36 C-59 36 -59 36 -58 36 C-57 35 -57 33 -56 32 C-55 32 -55 32 -54 32 C-53 31 -53 29 -52 28 C-51 28 -51 28 -50 28 C-49 27 -49 25 -48 24 C-47 24 -47 24 -46 24 C-45 23 -45 21 -44 20 C-42 20 -40 20 -38 20 C-37 19 -37 17 -36 16 C-34 16 -32 16 -30 16 C-29 15 -29 13 -28 12 C-27 12 -27 12 -26 12 C-25 11 -25 9 -24 8 C-21 8 -17 8 -14 8 C-13 7 -13 5 -12 4 C-9 4 -5 4 -2 4 C-1 3 -1 1 0 0 Z " fill="#C9CCD4" transform="translate(306,25)"/>
<path d="M0 0 C4 -1 4 -1 10 -1 C12 -1 14 -1 16 -1 C17 -1 18 -1 19 -1 C22 -1 25 -1 28 -1 C29 -1 29 -1 34 -1 C36 -1 38 -1 40 -1 C41 -0 43 -0 44 0 C45 1 45 3 46 4 C48 4 49 4 51 4 C53 4 54 4 56 4 C57 5 57 7 58 8 C60 8 62 8 64 8 C65 9 65 11 66 12 C68 12 70 12 72 12 C73 13 73 15 74 16 C76 16 78 16 80 16 C81 17 81 19 82 20 C83 20 83 20 86 22 C86 23 86 23 86 24 C87 24 87 24 90 26 C90 27 90 27 90 28 C91 28 91 28 94 30 C94 31 94 31 94 32 C95 33 97 33 98 34 C98 35 98 35 98 36 C99 37 101 37 102 38 C102 39 102 39 102 40 C103 40 104 40 105 40 C105 41 105 42 105 43 C106 47 106 47 110 50 C110 51 110 51 110 52 C111 52 112 52 113 52 C113 53 113 54 113 55 C114 57 114 58 114 59 C115 59 116 60 117 60 C117 62 118 65 118 67 C119 67 120 68 121 68 C121 72 122 75 122 79 C123 79 124 80 125 80 C125 85 126 90 126 95 C126 96 126 98 126 99 C127 99 128 100 129 100 C129 103 129 103 129 107 C129 108 129 110 129 111 C129 114 130 117 130 120 C130 121 130 123 130 124 C130 125 130 127 130 128 C130 129 130 130 130 131 C131 131 132 132 133 132 C133 137 134 142 134 147 C134 148 134 150 134 151 C135 151 136 152 137 152 C137 156 138 160 138 164 C138 165 138 166 138 167 C139 167 140 168 141 168 C141 172 142 175 142 179 C143 179 144 180 145 180 C145 185 145 190 146 195 C146 198 146 200 146 203 C147 203 148 204 149 204 C149 208 150 211 150 215 C151 215 153 215 154 215 C155 214 155 213 156 212 C160 212 163 212 167 212 C168 212 169 212 170 212 C171 211 171 209 172 208 C176 208 179 208 183 208 C184 208 185 208 186 208 C187 207 187 205 188 204 C193 204 197 204 202 204 C203 204 205 204 206 204 C207 203 207 201 208 200 C214 200 219 200 225 200 C228 200 231 200 234 200 C234 199 234 199 236 196 C239 195 239 195 243 195 C244 195 244 195 247 195 C249 195 250 195 252 196 C253 195 253 195 257 195 C258 195 259 195 261 195 C262 195 262 195 265 195 C266 196 267 196 268 196 C269 197 269 199 270 200 C274 200 279 200 283 200 C287 200 292 200 296 200 C297 201 297 203 298 204 C300 204 301 204 303 204 C305 204 306 204 308 204 C309 205 309 207 310 208 C312 208 314 208 316 208 C317 209 317 211 318 212 C319 212 320 212 321 212 C321 217 321 222 321 227 C321 228 321 228 321 231 C321 233 321 234 321 235 C321 237 321 238 321 239 C321 240 321 240 321 242 C320 242 319 243 318 243 C318 246 318 246 318 250 C317 255 317 255 317 258 C316 258 315 259 314 259 C314 261 314 263 314 264 C313 266 313 268 313 270 C312 270 311 271 310 271 C310 272 310 273 310 274 C309 276 309 277 309 278 C308 278 307 279 306 279 C306 280 306 281 306 282 C305 284 305 285 305 286 C304 286 303 287 302 287 C302 288 302 289 302 290 C301 292 301 293 301 294 C300 294 299 295 298 295 C298 296 298 297 298 298 C297 300 297 301 297 302 C296 302 295 303 294 303 C293 307 293 307 293 310 C292 310 291 310 290 310 C289 311 289 313 288 314 C288 314 288 314 286 315 C286 317 285 320 285 322 C284 322 283 322 282 322 C281 323 281 325 280 326 C279 326 279 326 278 326 C277 327 277 329 276 330 C276 330 276 330 274 331 C274 333 273 336 273 338 C272 338 271 338 270 338 C269 339 269 341 268 342 C267 342 267 342 266 342 C265 343 265 345 264 346 C263 346 263 346 262 346 C261 347 261 349 260 350 C260 350 260 350 258 351 C258 353 257 356 257 358 C256 358 255 358 254 358 C253 359 253 361 252 362 C251 362 251 362 250 362 C249 363 249 365 248 366 C247 366 247 366 246 366 C245 367 245 369 244 370 C243 370 243 370 242 370 C241 371 241 373 240 374 C239 374 239 374 238 374 C237 375 237 377 236 378 C235 378 235 378 234 378 C233 379 233 381 232 382 C231 382 231 382 230 382 C229 383 229 385 228 386 C227 386 227 386 226 386 C225 387 225 389 224 390 C223 390 223 390 222 390 C221 391 221 393 220 394 C219 394 219 394 218 394 C217 395 217 397 216 398 C214 398 212 398 210 398 C209 399 209 401 208 402 C207 402 207 402 206 402 C205 403 205 405 204 406 C203 406 203 406 202 406 C201 407 201 409 200 410 C199 410 199 410 198 410 C197 411 197 413 196 414 C194 414 192 414 190 414 C189 415 189 417 188 418 C187 418 187 418 186 418 C185 419 185 421 184 422 C183 422 183 422 182 422 C181 423 181 425 180 426 C178 426 176 426 174 426 C173 427 173 429 172 430 C170 430 168 430 166 430 C165 431 165 433 164 434 C163 434 163 434 162 434 C161 435 161 437 160 438 C158 438 156 438 154 438 C153 439 153 441 152 442 C151 442 151 442 150 442 C149 443 149 445 148 446 C146 446 144 446 142 446 C141 447 141 449 140 450 C138 450 136 450 134 450 C133 451 133 453 132 454 C130 454 128 454 126 454 C125 455 125 457 124 458 C122 458 120 458 118 458 C117 459 117 461 116 462 C113 462 109 462 106 462 C105 463 105 465 104 466 C103 466 103 466 101 466 C100 466 100 466 98 467 C98 471 97 474 97 478 C96 478 95 479 94 479 C94 480 94 481 94 482 C93 484 93 485 93 486 C92 486 91 487 90 487 C89 491 89 491 89 494 C88 494 87 494 86 494 C85 495 85 497 84 498 C83 498 83 499 82 499 C82 501 81 504 81 506 C80 506 79 506 78 506 C77 507 77 509 76 510 C75 510 75 510 74 510 C73 511 73 513 72 514 C71 514 71 514 70 514 C69 515 69 517 68 518 C67 518 67 518 66 518 C65 519 65 521 64 522 C63 522 63 522 62 522 C61 523 61 525 60 526 C58 526 56 526 54 526 C53 527 53 529 52 530 C50 530 48 530 46 530 C45 531 45 533 44 534 C42 534 40 534 38 534 C37 535 37 537 36 538 C33 538 29 538 26 538 C25 539 25 541 24 542 C21 542 17 542 14 542 C13 543 13 545 12 546 C8 546 5 547 1 547 C-3 547 -6 547 -10 547 C-11 548 -11 549 -12 550 C-14 550 -15 549 -17 549 C-17 548 -18 548 -18 547 C-19 547 -20 546 -22 546 C-23 546 -24 545 -25 545 C-25 544 -26 543 -26 542 C-27 542 -28 542 -29 542 C-29 540 -29 537 -29 535 C-29 534 -29 532 -29 531 C-29 530 -29 529 -29 528 C-28 528 -27 527 -26 527 C-26 526 -26 525 -26 524 C-25 522 -25 521 -25 520 C-24 520 -23 519 -22 519 C-22 518 -22 517 -22 516 C-21 514 -21 513 -21 512 C-20 512 -19 511 -18 511 C-18 510 -18 509 -18 508 C-17 506 -17 505 -17 504 C-16 504 -15 503 -14 503 C-13 501 -13 498 -12 496 C-11 496 -11 495 -10 495 C-10 494 -10 492 -10 491 C-19 490 -19 490 -22 490 C-23 491 -23 493 -24 494 C-25 494 -25 494 -26 494 C-27 495 -27 497 -28 498 C-29 498 -29 498 -30 498 C-31 499 -31 501 -32 502 C-33 502 -33 502 -34 502 C-35 503 -35 505 -36 506 C-38 506 -40 506 -42 506 C-43 507 -43 509 -44 510 C-48 510 -52 511 -56 510 C-57 511 -58 511 -59 511 C-63 511 -63 511 -68 510 C-69 509 -69 507 -70 506 C-71 505 -73 505 -74 504 C-74 503 -74 503 -74 502 C-78 502 -78 502 -82 502 C-83 503 -83 505 -84 506 C-85 506 -85 506 -86 506 C-87 507 -87 509 -88 510 C-89 510 -89 510 -90 510 C-91 511 -91 513 -92 514 C-93 514 -93 514 -94 514 C-95 515 -95 517 -96 518 C-97 518 -97 518 -98 518 C-99 519 -99 521 -100 522 C-102 522 -104 522 -106 522 C-107 523 -107 525 -108 526 C-110 526 -112 526 -114 526 C-115 527 -115 529 -116 530 C-119 530 -119 530 -123 530 C-124 530 -125 530 -126 530 C-127 530 -127 530 -129 530 C-129 529 -129 528 -129 527 C-129 525 -130 524 -130 523 C-134 522 -134 522 -138 522 C-139 523 -139 525 -140 526 C-143 526 -147 526 -150 526 C-151 527 -151 529 -152 530 C-155 530 -159 530 -162 530 C-163 531 -163 533 -164 534 C-167 534 -167 534 -171 534 C-173 534 -174 534 -176 534 C-177 534 -179 534 -181 534 C-181 534 -181 534 -185 534 C-189 534 -193 534 -197 534 C-197 530 -197 530 -197 525 C-196 524 -195 524 -194 523 C-194 522 -194 520 -194 519 C-198 519 -202 518 -206 518 C-207 518 -208 518 -209 518 C-212 518 -215 518 -218 518 C-219 519 -219 521 -220 522 C-224 523 -224 523 -230 523 C-231 523 -231 523 -236 523 C-237 523 -238 523 -239 523 C-242 523 -245 523 -248 523 C-250 523 -252 523 -254 523 C-256 523 -258 523 -260 523 C-260 522 -260 522 -264 522 C-265 521 -265 519 -266 518 C-272 518 -272 518 -277 518 C-277 513 -277 509 -277 504 C-276 504 -275 504 -274 504 C-274 503 -274 503 -272 500 C-271 500 -271 500 -270 500 C-270 499 -270 499 -268 496 C-267 496 -267 496 -266 496 C-266 495 -266 495 -264 492 C-263 492 -263 492 -262 492 C-262 491 -262 491 -260 488 C-259 488 -259 488 -258 488 C-258 487 -258 487 -256 484 C-255 484 -255 484 -254 484 C-254 483 -254 483 -252 480 C-251 480 -251 480 -250 480 C-250 479 -250 479 -248 476 C-247 476 -247 476 -246 476 C-246 475 -246 475 -244 472 C-243 472 -243 472 -242 472 C-241 471 -241 469 -240 468 C-239 468 -239 468 -238 468 C-237 467 -237 465 -236 464 C-235 464 -235 464 -234 464 C-233 463 -233 461 -232 460 C-231 460 -231 460 -230 460 C-229 459 -229 457 -228 456 C-227 456 -227 456 -226 456 C-225 455 -225 453 -224 452 C-223 452 -223 451 -222 451 C-222 450 -222 448 -222 447 C-223 447 -224 447 -225 447 C-226 447 -227 447 -229 447 C-230 447 -231 447 -232 447 C-236 446 -238 445 -241 442 C-241 441 -241 441 -241 440 C-240 440 -238 439 -237 439 C-237 435 -237 435 -237 432 C-236 432 -235 432 -234 432 C-233 431 -233 429 -232 428 C-231 428 -231 428 -230 428 C-229 427 -229 425 -228 424 C-227 424 -227 424 -226 424 C-225 423 -225 421 -224 420 C-223 420 -223 420 -222 420 C-221 419 -221 417 -220 416 C-219 416 -219 416 -218 416 C-217 415 -217 413 -216 412 C-215 412 -215 412 -214 412 C-213 411 -213 409 -212 408 C-210 408 -208 408 -206 408 C-205 407 -205 405 -204 404 C-203 404 -203 404 -202 404 C-201 403 -201 401 -200 400 C-198 400 -196 400 -194 400 C-193 399 -193 397 -192 396 C-190 396 -188 396 -186 396 C-185 395 -185 393 -184 392 C-182 392 -180 392 -178 392 C-177 391 -177 389 -176 388 C-173 388 -169 388 -166 388 C-165 387 -165 385 -164 384 C-160 384 -160 384 -155 384 C-153 384 -151 384 -149 384 C-145 384 -141 384 -137 384 C-135 384 -133 384 -131 384 C-130 384 -128 384 -126 384 C-125 384 -123 384 -122 384 C-121 383 -121 381 -120 380 C-119 380 -119 379 -118 379 C-118 377 -117 374 -117 372 C-116 372 -115 372 -114 372 C-113 371 -113 369 -112 368 C-111 368 -111 367 -110 367 C-109 363 -109 363 -110 359 C-113 358 -113 358 -117 357 C-117 356 -118 355 -118 354 C-122 354 -126 354 -130 354 C-131 354 -132 354 -133 354 C-137 354 -137 354 -142 354 C-143 355 -143 357 -144 358 C-147 359 -147 359 -151 359 C-155 359 -155 359 -158 359 C-159 360 -159 361 -160 362 C-162 362 -163 361 -165 361 C-165 360 -166 360 -166 359 C-168 359 -170 359 -172 359 C-173 359 -175 358 -177 358 C-177 357 -177 356 -177 354 C-177 353 -178 352 -178 351 C-182 350 -185 350 -189 350 C-193 350 -196 350 -200 350 C-201 349 -201 347 -202 346 C-204 346 -205 346 -207 346 C-209 346 -210 346 -212 346 C-212 345 -212 345 -214 342 C-215 341 -217 341 -218 340 C-218 339 -218 339 -218 338 C-219 338 -220 338 -221 338 C-221 335 -221 331 -221 328 C-220 328 -219 328 -218 328 C-217 327 -217 325 -216 324 C-215 324 -215 324 -214 324 C-213 323 -213 321 -212 320 C-210 320 -208 320 -206 320 C-205 319 -205 317 -204 316 C-202 316 -200 316 -198 316 C-197 315 -197 313 -196 312 C-194 312 -192 312 -190 312 C-189 311 -189 309 -188 308 C-186 308 -184 308 -182 308 C-181 307 -181 305 -180 304 C-178 304 -176 304 -174 304 C-173 303 -173 301 -172 300 C-170 300 -168 300 -166 300 C-165 299 -165 297 -164 296 C-163 296 -163 296 -162 296 C-161 295 -161 293 -160 292 C-159 292 -159 292 -158 292 C-157 291 -157 289 -156 288 C-155 288 -155 288 -153 288 C-152 288 -152 288 -150 287 C-149 283 -149 283 -149 278 C-149 274 -149 271 -149 268 C-148 268 -147 267 -146 267 C-146 264 -146 264 -146 260 C-145 255 -145 255 -145 252 C-144 252 -143 251 -142 251 C-142 250 -142 249 -142 248 C-141 246 -141 245 -141 244 C-140 244 -139 243 -138 243 C-138 242 -138 241 -138 240 C-137 238 -137 237 -137 236 C-136 236 -135 235 -134 235 C-134 234 -134 233 -134 232 C-133 230 -133 229 -133 228 C-132 228 -131 227 -130 227 C-129 223 -129 223 -129 220 C-128 220 -127 220 -126 220 C-125 219 -125 217 -124 216 C-123 216 -123 215 -122 215 C-122 213 -121 210 -121 208 C-120 208 -119 208 -118 208 C-117 207 -117 205 -116 204 C-115 204 -115 203 -114 203 C-114 201 -113 198 -113 196 C-112 196 -111 196 -110 196 C-109 195 -109 193 -108 192 C-107 192 -107 191 -106 191 C-106 190 -106 189 -106 188 C-105 186 -105 185 -105 184 C-104 184 -103 183 -102 183 C-102 182 -102 181 -102 180 C-101 178 -101 177 -101 176 C-100 176 -99 175 -98 175 C-98 173 -98 171 -98 170 C-97 168 -97 166 -97 164 C-96 164 -95 163 -94 163 C-94 159 -94 155 -94 152 C-93 148 -93 144 -93 140 C-92 140 -91 139 -90 139 C-90 135 -90 135 -90 130 C-90 130 -90 130 -90 125 C-90 123 -90 121 -90 120 C-89 116 -89 112 -89 109 C-89 107 -89 105 -89 104 C-89 102 -89 101 -89 100 C-88 100 -87 99 -86 99 C-86 95 -86 95 -86 90 C-85 84 -85 84 -85 80 C-84 80 -83 79 -82 79 C-82 77 -82 75 -82 74 C-81 72 -81 70 -81 68 C-80 68 -79 67 -78 67 C-78 66 -78 65 -78 64 C-77 62 -77 61 -77 60 C-76 60 -75 59 -74 59 C-73 55 -73 55 -73 52 C-72 52 -71 52 -70 52 C-69 51 -69 49 -68 48 C-67 48 -67 47 -66 47 C-66 45 -65 42 -65 40 C-64 40 -63 40 -62 40 C-61 39 -61 37 -60 36 C-59 36 -59 36 -58 36 C-57 35 -57 33 -56 32 C-55 32 -55 32 -54 32 C-53 31 -53 29 -52 28 C-51 28 -51 28 -50 28 C-49 27 -49 25 -48 24 C-47 24 -47 24 -46 24 C-45 23 -45 21 -44 20 C-42 20 -40 20 -38 20 C-37 19 -37 17 -36 16 C-34 16 -32 16 -30 16 C-29 15 -29 13 -28 12 C-27 12 -27 12 -26 12 C-25 11 -25 9 -24 8 C-21 8 -17 8 -14 8 C-13 7 -13 5 -12 4 C-9 4 -5 4 -2 4 C-1 3 -1 1 0 0 Z M12 12 C-13 13 -34 27 -51 44 C-70 66 -76 93 -78 121 C-79 139 -81 156 -86 173 C-87 177 -87 179 -86 183 C-87 183 -87 183 -88 183 C-88 184 -89 186 -89 187 C-91 192 -92 194 -96 197 C-102 204 -107 211 -112 218 C-113 219 -114 220 -114 222 C-120 231 -125 240 -129 250 C-130 252 -130 253 -131 255 C-138 271 -138 271 -135 279 C-132 280 -132 280 -128 278 C-124 273 -122 268 -119 263 C-119 262 -118 261 -118 260 C-117 259 -117 258 -117 257 C-114 253 -112 251 -108 249 C-108 255 -109 258 -112 263 C-112 264 -112 265 -112 266 C-113 266 -113 266 -114 266 C-114 267 -114 267 -117 271 C-121 277 -125 281 -131 285 C-136 289 -139 292 -142 298 C-143 298 -144 299 -145 299 C-145 300 -145 300 -145 301 C-145 301 -145 301 -148 301 C-153 302 -157 304 -161 307 C-162 307 -162 307 -166 310 C-167 310 -167 310 -170 312 C-170 314 -170 315 -170 317 C-166 320 -162 321 -158 322 C-156 323 -155 323 -153 324 C-155 329 -156 330 -160 333 C-164 336 -165 337 -168 342 C-165 346 -165 346 -161 347 C-154 347 -147 345 -140 342 C-139 342 -139 342 -135 340 C-127 338 -120 335 -112 331 C-107 329 -103 327 -98 325 C-97 325 -97 325 -95 324 C-90 322 -85 320 -79 320 C-66 319 -66 319 -61 314 C-60 314 -59 314 -58 314 C-58 315 -58 315 -57 321 C-58 321 -59 321 -60 321 C-60 322 -60 322 -60 323 C-58 323 -56 323 -54 323 C-52 323 -51 324 -49 324 C-36 320 -22 313 -12 304 C-11 303 -9 302 -8 300 C-0 292 6 282 10 271 C10 271 10 271 11 268 C12 263 12 258 13 253 C13 242 13 242 14 240 C15 240 17 240 18 240 C24 253 20 268 16 281 C8 303 -11 318 -32 328 C-42 332 -52 334 -64 334 C-65 334 -67 334 -68 334 C-72 334 -72 334 -76 331 C-80 329 -82 329 -86 330 C-87 331 -89 331 -90 332 C-97 334 -103 336 -110 337 C-113 338 -113 338 -115 341 C-114 345 -114 345 -111 347 C-101 352 -93 353 -82 354 C-77 355 -71 355 -66 356 C-60 357 -55 357 -49 357 C-47 354 -47 350 -47 346 C-46 343 -46 343 -44 340 C-43 340 -41 339 -40 339 C-36 343 -36 343 -34 347 C-31 350 -31 350 -27 351 C-24 350 -21 349 -18 347 C-14 346 -10 346 -6 346 C-2 345 1 343 4 341 C7 340 10 339 14 339 C14 345 14 345 11 348 C5 352 -1 354 -7 355 C-12 356 -16 358 -20 359 C-22 360 -24 361 -26 362 C-27 362 -27 362 -29 363 C-40 367 -50 367 -61 367 C-64 367 -64 367 -70 367 C-75 375 -74 381 -74 390 C-74 392 -74 394 -74 396 C-74 401 -74 401 -72 406 C-67 407 -62 405 -57 404 C-47 402 -40 400 -31 405 C-27 409 -27 410 -27 415 C-32 425 -43 431 -52 436 C-53 437 -54 437 -55 438 C-55 446 -53 449 -48 455 C-44 458 -44 458 -41 461 C-40 462 -39 463 -39 463 C-29 473 -19 477 -5 478 C-2 478 -2 478 2 475 C2 474 2 474 2 473 C5 471 9 470 12 469 C16 468 20 467 24 465 C33 462 43 460 53 459 C58 458 63 457 67 455 C72 454 76 454 80 454 C82 454 83 454 84 454 C88 454 88 454 92 456 C99 456 103 454 109 451 C110 451 112 450 113 450 C121 445 130 441 138 436 C140 435 141 434 143 433 C156 426 168 418 180 409 C183 407 186 406 188 404 C195 400 200 394 206 389 C211 384 217 379 222 374 C226 371 229 368 232 364 C234 362 235 361 237 359 C239 357 242 354 244 352 C245 350 247 349 248 348 C252 342 252 342 252 338 C248 334 246 332 241 330 C212 311 195 278 185 246 C184 241 183 235 182 230 C182 227 182 225 181 222 C174 218 161 224 154 226 C149 228 148 229 145 234 C144 237 144 237 144 241 C139 262 130 284 112 297 C107 300 106 300 100 299 C99 298 98 298 98 297 C95 295 95 295 90 295 C89 296 87 297 86 298 C77 305 66 309 56 313 C54 314 51 315 49 316 C45 317 42 319 38 320 C33 322 33 322 30 325 C29 328 29 328 28 331 C28 332 28 333 28 334 C27 337 27 337 27 340 C25 340 22 340 20 340 C20 339 20 337 20 336 C21 334 21 332 21 330 C21 329 21 328 21 326 C22 320 22 317 18 311 C16 310 15 309 14 308 C13 307 13 305 12 304 C17 305 20 308 24 311 C29 313 35 311 40 310 C41 309 43 308 44 308 C46 307 47 307 49 306 C50 305 52 305 53 304 C55 303 57 302 58 302 C68 298 77 293 86 287 C91 284 93 283 99 284 C100 285 102 285 103 286 C109 286 109 286 111 284 C129 264 135 243 136 216 C136 215 136 215 136 213 C137 195 131 177 126 160 C123 152 122 145 121 137 C120 130 119 122 119 115 C118 113 118 111 118 109 C117 104 116 99 114 93 C113 93 112 93 111 93 C110 95 110 97 109 99 C106 102 104 104 101 107 C101 111 100 114 100 118 C98 121 96 123 93 125 C89 129 88 133 87 139 C85 143 84 145 80 147 C75 147 73 146 69 144 C63 139 59 135 54 129 C53 128 52 127 52 126 C49 123 49 121 49 117 C51 109 57 100 64 96 C69 94 73 93 78 92 C79 92 80 91 81 91 C81 88 82 84 82 81 C84 76 87 72 91 69 C95 69 95 69 99 69 C99 69 100 70 100 70 C102 70 103 70 105 70 C103 54 89 38 77 29 C57 14 36 11 12 12 Z " fill="#0F0F11" transform="translate(306,25)"/>
<path d="M0 0 C1 4 1 7 2 11 C3 22 7 32 11 43 C12 44 12 46 13 48 C20 65 30 80 43 94 C44 95 45 96 46 98 C51 102 57 106 63 109 C70 113 70 113 71 117 C71 122 67 125 64 128 C62 130 61 131 59 133 C56 137 53 140 50 143 C49 144 48 145 47 146 C44 149 42 152 39 155 C35 158 32 161 29 164 C20 172 12 179 2 185 C-2 187 -5 190 -8 192 C-16 198 -23 202 -31 207 C-32 207 -32 207 -36 210 C-78 234 -78 234 -89 234 C-90 233 -92 233 -93 232 C-102 231 -110 232 -119 235 C-125 237 -132 238 -139 238 C-146 239 -151 241 -157 244 C-159 245 -161 245 -163 246 C-168 247 -172 248 -176 250 C-177 250 -178 251 -179 251 C-180 252 -180 254 -181 255 C-187 258 -196 255 -202 253 C-216 247 -229 236 -236 222 C-236 220 -236 218 -236 216 C-233 214 -233 214 -229 211 C-212 202 -212 202 -208 193 C-208 187 -209 186 -213 182 C-222 178 -232 181 -242 183 C-246 184 -249 185 -253 184 C-255 178 -255 174 -255 168 C-255 166 -255 165 -255 163 C-255 149 -255 149 -251 145 C-248 145 -245 145 -242 145 C-225 146 -211 142 -195 135 C-192 134 -189 133 -186 132 C-182 132 -179 131 -175 129 C-174 129 -173 128 -172 128 C-167 131 -167 131 -165 133 C-155 126 -154 118 -152 107 C-151 103 -151 103 -149 101 C-145 98 -141 97 -137 96 C-134 95 -132 94 -129 93 C-126 91 -123 90 -120 89 C-109 84 -100 80 -91 73 C-85 73 -85 74 -81 77 C-75 78 -73 77 -68 74 C-49 61 -40 35 -36 13 C-35 9 -35 9 -32 6 C-8 -4 -8 -4 0 0 Z " fill="#FDFDFC" transform="translate(487,247)"/>
<path d="M0 0 C1 4 1 7 2 11 C3 22 7 32 11 43 C12 44 12 46 13 48 C22 69 36 93 56 105 C58 106 59 107 61 108 C60 110 59 111 58 113 C58 114 57 114 57 115 C56 115 55 116 53 116 C47 119 43 124 38 129 C35 133 32 136 28 139 C25 142 22 145 20 148 C11 156 3 164 -7 170 C-8 171 -10 172 -11 173 C-17 176 -22 180 -28 183 C-38 189 -48 195 -58 201 C-64 205 -70 208 -76 211 C-79 212 -82 213 -85 214 C-92 218 -100 219 -107 221 C-108 221 -108 221 -112 222 C-124 226 -124 226 -130 225 C-131 223 -131 221 -132 219 C-133 218 -134 218 -136 217 C-141 215 -144 211 -148 207 C-150 204 -150 204 -155 201 C-153 197 -153 197 -148 195 C-145 195 -141 195 -138 195 C-135 194 -135 194 -132 193 C-132 192 -132 192 -130 189 C-132 187 -132 187 -135 185 C-136 184 -136 183 -137 182 C-137 180 -136 179 -136 177 C-135 178 -134 179 -133 180 C-121 190 -106 199 -90 198 C-71 195 -59 189 -48 174 C-40 159 -37 143 -41 127 C-47 113 -57 104 -71 97 C-77 95 -83 95 -89 95 C-91 95 -93 95 -95 95 C-107 95 -119 101 -127 110 C-130 112 -130 112 -134 112 C-135 112 -137 111 -138 111 C-140 111 -141 111 -143 111 C-144 110 -144 110 -145 109 C-146 108 -147 108 -148 107 C-149 104 -149 104 -148 100 C-144 98 -141 97 -137 96 C-134 95 -131 94 -129 93 C-126 91 -123 90 -120 89 C-109 84 -100 80 -91 73 C-85 73 -85 74 -81 77 C-75 78 -73 77 -68 74 C-49 61 -40 35 -36 13 C-35 9 -35 9 -32 6 C-8 -4 -8 -4 0 0 Z " fill="#FCFBF7" transform="translate(487,247)"/>
<path d="M0 0 C5 4 10 8 15 13 C15 14 15 15 15 15 C16 16 17 16 18 16 C21 21 21 21 22 25 C22 27 23 28 23 30 C25 34 25 34 25 36 C24 37 23 38 22 39 C21 43 21 47 21 50 C21 60 20 67 16 75 C15 76 15 77 14 78 C4 99 -13 111 -33 119 C-39 121 -42 122 -48 120 C-49 120 -50 120 -51 120 C-51 120 -51 119 -51 118 C-50 118 -49 118 -48 118 C-48 117 -48 117 -49 111 C-53 112 -53 112 -58 115 C-63 117 -67 117 -72 117 C-79 119 -84 120 -90 123 C-91 123 -91 123 -95 125 C-97 126 -99 127 -100 127 C-112 132 -123 137 -134 140 C-135 141 -137 141 -138 142 C-144 144 -149 145 -156 143 C-157 142 -158 141 -159 139 C-156 134 -153 131 -148 128 C-145 125 -145 125 -144 121 C-148 120 -151 119 -155 117 C-160 115 -160 115 -161 114 C-161 113 -161 111 -161 109 C-158 107 -158 107 -152 104 C-150 103 -148 102 -147 101 C-141 98 -141 98 -136 98 C-136 98 -136 97 -136 96 C-136 96 -136 96 -133 95 C-133 94 -132 93 -131 92 C-128 87 -124 84 -119 80 C-115 76 -111 73 -108 68 C-107 66 -106 65 -105 63 C-105 63 -104 63 -103 63 C-103 62 -103 60 -102 58 C-102 58 -101 57 -101 56 C-99 52 -99 52 -99 48 C-99 43 -98 42 -94 38 C-93 36 -92 34 -90 31 C-83 19 -73 10 -60 3 C-59 3 -58 2 -57 1 C-50 -2 -43 -5 -35 -6 C-25 -9 -9 -4 0 0 Z " fill="#878D9E" transform="translate(297.3125,227.5625)"/>
<path d="M0 0 C3 4 3 8 3 13 C4 15 4 17 4 18 C4 20 4 22 4 24 C4 25 4 26 4 27 C4 32 1 35 -1 40 C-2 44 -1 46 1 50 C3 53 3 53 6 55 C8 55 10 55 12 55 C18 56 21 57 25 62 C27 65 27 65 27 67 C28 67 30 68 31 69 C34 71 34 71 36 74 C36 86 28 97 19 105 C13 111 8 115 0 119 C0 118 0 117 0 117 C-1 117 -1 117 -2 117 C-2 115 -2 114 -3 113 C-3 112 -3 112 -4 109 C-8 107 -10 107 -13 109 C-15 110 -16 110 -17 111 C-24 115 -30 117 -38 120 C-40 120 -43 121 -45 122 C-51 124 -57 124 -63 124 C-63 123 -64 122 -64 122 C-62 119 -60 117 -59 114 C-57 111 -56 109 -55 106 C-55 105 -56 104 -56 104 C-62 103 -68 104 -75 105 C-89 109 -104 109 -119 109 C-122 110 -124 110 -127 110 C-129 110 -130 110 -132 110 C-133 110 -135 110 -136 110 C-137 110 -138 110 -139 110 C-139 108 -140 107 -140 106 C-141 105 -142 105 -143 105 C-142 105 -142 105 -141 105 C-140 103 -140 102 -139 101 C-137 98 -135 96 -133 94 C-129 90 -125 85 -121 81 C-119 79 -118 77 -116 76 C-115 75 -114 74 -113 73 C-109 67 -103 62 -98 58 C-97 57 -96 56 -95 55 C-91 50 -86 47 -80 45 C-80 43 -80 41 -80 39 C-86 37 -92 37 -98 37 C-99 37 -99 37 -103 37 C-103 36 -103 36 -104 33 C-99 27 -93 22 -87 18 C-86 17 -84 15 -83 14 C-61 -1 -26 -14 0 0 Z " fill="#F25C25" transform="translate(189.86328125,424.46484375)"/>
<path d="M0 0 C4 0 7 -0 11 -0 C25 -0 39 0 52 7 C55 10 55 10 55 14 C55 15 55 15 55 19 C55 21 55 22 55 24 C55 28 55 28 53 32 C53 33 52 34 52 36 C51 40 49 44 47 49 C46 52 46 52 45 56 C44 61 42 66 39 70 C38 72 38 74 37 76 C34 80 32 84 29 88 C27 91 25 94 24 97 C23 98 22 98 22 99 C21 101 19 103 18 105 C15 111 12 115 6 119 C0 118 -2 116 -7 112 C-7 111 -7 111 -11 108 C-15 105 -19 102 -23 98 C-25 96 -27 95 -29 93 C-32 90 -34 87 -36 83 C-37 82 -37 82 -38 81 C-42 78 -45 73 -47 68 C-48 67 -49 66 -49 65 C-54 56 -57 47 -60 37 C-60 36 -61 34 -61 33 C-62 28 -62 23 -62 18 C-62 17 -62 15 -63 14 C-63 10 -63 10 -61 6 C-57 5 -53 4 -49 3 C-48 3 -48 3 -44 2 C-38 1 -32 0 -25 -0 C-24 -0 -23 -0 -22 -0 C-14 -1 -7 -1 0 0 Z " fill="#5D6578" transform="translate(561,235)"/>
<path d="M0 0 C2 -0 4 -0 5 -0 C21 1 32 8 42 19 C50 30 53 42 51 56 C49 72 41 85 29 95 C18 103 3 107 -10 105 C-25 101 -41 94 -49 80 C-56 65 -56 52 -52 36 C-49 29 -45 23 -40 17 C-39 16 -38 15 -37 14 C-27 5 -14 0 0 0 Z " fill="#5E6679" transform="translate(397.3125,340.6875)"/>
<path d="M0 0 C5 1 5 1 8 3 C10 4 13 4 15 4 C21 5 25 7 30 10 C32 11 34 12 36 14 C41 17 44 20 48 25 C47 25 46 26 45 26 C41 29 37 33 34 38 C33 38 33 38 32 38 C32 39 31 40 31 41 C30 45 29 48 26 51 C23 51 20 52 17 50 C11 50 9 51 4 53 C2 53 1 54 -1 54 C-5 55 -5 55 -8 58 C-10 64 -11 69 -10 75 C-6 83 -2 86 6 89 C11 91 14 91 19 90 C20 90 21 89 22 89 C30 87 30 87 33 83 C33 82 34 81 34 80 C35 80 35 79 36 79 C39 80 41 82 44 83 C52 87 58 88 66 86 C72 84 77 80 80 75 C87 77 90 81 94 87 C95 88 95 88 98 91 C100 92 101 94 102 95 C100 101 99 101 94 103 C93 104 93 105 92 105 C88 109 83 110 78 112 C77 112 77 112 74 114 C74 114 74 114 73 117 C69 119 69 119 66 120 C65 119 65 117 64 116 C64 115 65 115 65 114 C65 108 65 108 63 104 C62 101 62 99 61 96 C61 96 60 95 60 95 C58 95 57 95 55 95 C51 95 48 95 44 94 C41 95 41 95 39 99 C37 100 34 102 32 103 C30 107 31 110 31 114 C33 120 35 123 40 126 C45 128 45 128 50 127 C51 127 51 127 54 129 C54 132 54 132 53 135 C50 137 50 137 45 138 C40 139 40 139 37 141 C32 143 28 142 23 140 C20 139 17 139 13 139 C3 139 -6 137 -14 130 C-14 129 -14 129 -14 128 C-16 127 -17 127 -19 126 C-20 125 -22 124 -23 123 C-24 123 -24 123 -28 124 C-30 122 -30 122 -32 118 C-32 112 -32 112 -29 109 C-29 107 -29 106 -29 104 C-29 104 -30 104 -30 104 C-32 78 -32 78 -29 71 C-28 71 -27 71 -26 71 C-25 67 -25 63 -24 59 C-24 58 -23 57 -23 56 C-19 54 -19 54 -13 54 C-9 50 -8 49 -6 44 C-6 43 -5 42 -5 41 C-3 36 -5 33 -7 28 C-11 27 -11 27 -14 26 C-13 16 -7 7 0 0 Z " fill="#C0C4CF" transform="translate(262,71)"/>
<path d="M0 0 C7 1 11 5 15 11 C16 11 16 11 17 15 C19 19 19 19 22 20 C25 21 29 21 32 21 C34 21 35 21 37 22 C43 22 45 19 50 16 C53 16 56 16 58 16 C60 15 63 14 65 13 C72 10 79 10 87 11 C92 13 92 13 95 15 C101 14 101 14 103 13 C107 12 107 12 111 13 C112 13 112 13 113 17 C104 33 91 44 74 53 C73 53 71 54 70 55 C63 58 58 59 51 58 C50 58 49 58 48 58 C48 57 48 56 48 56 C49 56 50 56 51 56 C51 54 51 54 50 49 C46 50 46 50 41 53 C36 55 32 55 27 55 C21 56 15 58 9 60 C8 61 6 62 4 62 C3 63 1 64 -1 65 C-12 69 -23 74 -35 78 C-36 78 -37 78 -38 79 C-45 81 -50 82 -57 81 C-58 79 -59 78 -60 77 C-57 71 -53 69 -48 65 C-46 63 -46 63 -45 59 C-48 57 -52 56 -56 55 C-61 53 -61 53 -62 52 C-62 50 -62 48 -62 47 C-58 44 -58 44 -53 42 C-51 41 -49 39 -47 38 C-42 36 -42 36 -37 36 C-37 35 -37 34 -37 34 C-36 33 -36 33 -34 33 C-33 31 -33 30 -32 29 C-28 24 -25 21 -20 17 C-15 13 -12 10 -9 5 C-6 1 -6 1 0 0 Z " fill="#7E8497" transform="translate(197.8125,290.375)"/>
<path d="M0 0 C4 0 8 1 13 1 C14 2 15 2 17 2 C21 3 23 4 25 7 C26 12 26 12 27 17 C27 19 27 21 27 23 C27 25 27 26 27 28 C28 29 28 31 28 32 C27 37 25 40 22 44 C22 49 22 50 24 54 C26 57 26 57 29 59 C31 59 33 59 35 60 C41 60 44 62 48 66 C50 69 50 69 50 71 C51 71 51 71 54 73 C57 76 57 76 59 78 C59 79 59 80 59 81 C59 81 58 81 57 81 C57 82 57 82 57 83 C56 83 55 84 53 84 C48 85 48 85 44 89 C41 91 41 91 37 92 C32 94 27 96 22 99 C22 99 22 99 19 98 C14 99 10 100 5 102 C-2 105 -5 104 -13 101 C-14 98 -14 98 -12 95 C-12 94 -12 93 -12 92 C-16 88 -16 88 -19 88 C-19 88 -19 88 -22 88 C-23 88 -23 88 -26 88 C-28 88 -29 88 -30 88 C-33 88 -36 88 -39 88 C-40 88 -41 88 -42 88 C-45 88 -48 88 -52 87 C-52 86 -52 85 -52 83 C-53 83 -54 83 -55 83 C-53 71 -47 61 -39 52 C-36 50 -33 48 -31 46 C-27 44 -25 41 -22 38 C-22 36 -22 35 -22 33 C-25 32 -28 32 -32 31 C-32 30 -33 29 -34 27 C-34 27 -35 27 -36 27 C-35 22 -35 22 -32 20 C-19 13 -19 13 -15 13 C-14 12 -14 11 -14 10 C-13 10 -12 9 -11 8 C-8 6 -8 6 -5 1 C-4 0 -4 0 0 0 Z " fill="#FBC044" transform="translate(166.55078125,419.859375)"/>
<path d="M0 0 C5 1 7 2 11 5 C12 8 12 8 12 11 C9 15 9 15 5 19 C3 21 2 22 0 24 C-3 28 -6 31 -9 34 C-10 35 -11 36 -12 37 C-15 40 -17 43 -20 46 C-24 49 -27 52 -30 55 C-39 63 -47 70 -57 76 C-61 78 -64 81 -67 83 C-75 89 -82 93 -90 98 C-92 99 -93 100 -95 101 C-137 125 -137 125 -148 125 C-149 124 -151 124 -152 123 C-161 122 -169 123 -178 126 C-184 128 -191 129 -198 129 C-205 130 -210 132 -216 135 C-218 136 -220 136 -222 137 C-227 138 -231 139 -235 141 C-236 141 -237 142 -238 142 C-239 143 -239 145 -240 146 C-246 149 -255 146 -261 144 C-273 139 -287 129 -293 117 C-293 114 -293 114 -292 111 C-285 113 -281 116 -275 120 C-270 122 -264 123 -258 124 C-258 124 -258 124 -256 125 C-252 125 -248 125 -244 125 C-243 125 -242 125 -240 125 C-232 125 -225 124 -217 123 C-213 122 -209 123 -204 124 C-203 122 -202 121 -201 119 C-197 118 -193 117 -188 116 C-186 116 -183 115 -181 115 C-179 114 -178 114 -177 114 C-163 111 -150 108 -138 102 C-135 100 -135 100 -130 98 C-124 96 -119 92 -113 89 C-105 83 -96 78 -87 73 C-73 65 -73 65 -66 60 C-65 60 -65 60 -62 57 C-52 50 -44 42 -35 33 C-32 30 -29 27 -25 24 C-21 20 -17 16 -13 11 C-11 9 -11 9 -6 6 C-5 6 -3 6 -2 6 C-1 3 -1 3 0 0 Z " fill="#CACDD5" transform="translate(546,356)"/>
<path d="M0 0 C1 1 2 1 3 2 C7 4 7 4 12 5 C18 6 24 9 28 13 C29 18 29 18 28 23 C20 30 16 30 6 30 C2 30 2 30 -3 32 C-9 32 -9 32 -11 30 C-13 27 -13 27 -14 23 C-16 20 -16 20 -21 18 C-22 19 -23 20 -24 21 C-24 26 -24 27 -20 31 C-20 32 -21 34 -21 35 C-20 35 -20 35 -19 35 C-19 37 -19 38 -19 40 C-18 40 -18 40 -17 40 C-16 43 -16 43 -16 49 C-16 58 -15 66 -13 75 C-13 77 -14 78 -14 80 C-12 80 -11 81 -9 81 C-8 81 -6 82 -5 82 C-2 80 -2 80 -1 77 C-1 74 -1 71 -1 68 C-1 64 1 61 4 58 C11 53 21 54 28 56 C31 56 31 56 36 58 C36 61 36 61 33 64 C29 68 25 71 21 75 C20 76 19 77 19 78 C7 88 -8 96 -22 103 C-28 107 -33 110 -39 114 C-45 118 -51 121 -57 123 C-60 125 -63 126 -66 127 C-73 131 -81 132 -88 134 C-89 134 -89 134 -93 135 C-105 139 -105 139 -111 138 C-112 136 -112 134 -113 132 C-114 131 -115 131 -116 130 C-122 128 -125 124 -129 120 C-131 117 -131 117 -136 114 C-134 110 -134 110 -129 108 C-126 108 -122 108 -119 108 C-116 107 -116 107 -113 106 C-112 105 -112 103 -111 102 C-113 100 -113 100 -116 98 C-117 97 -117 96 -118 95 C-118 93 -117 92 -117 90 C-116 91 -115 92 -114 93 C-102 103 -87 112 -71 111 C-52 108 -40 102 -29 87 C-21 72 -18 56 -22 40 C-27 27 -36 18 -48 12 C-49 11 -51 11 -52 10 C-53 10 -54 9 -55 9 C-55 8 -55 8 -55 7 C-54 7 -54 7 -50 6 C-50 5 -50 4 -50 3 C-45 0 -44 -0 -38 1 C-38 4 -38 7 -38 10 C-36 10 -35 11 -33 11 C-31 9 -28 7 -26 5 C-21 2 -15 1 -9 0 C-6 -2 -3 -1 0 0 Z " fill="#FDFDFC" transform="translate(468,334)"/>
<path d="M0 0 C1 -0 1 -0 5 -0 C13 -1 19 3 25 8 C30 13 30 13 30 16 C31 16 31 16 34 17 C38 23 38 31 37 38 C36 42 34 45 32 49 C31 49 31 49 30 49 C29 50 29 52 28 53 C22 59 17 62 8 62 C-1 62 -7 58 -15 54 C-15 55 -16 56 -16 57 C-21 63 -27 65 -34 66 C-43 65 -50 63 -56 57 C-61 51 -61 47 -61 39 C-60 34 -60 34 -58 30 C-53 27 -50 26 -44 25 C-42 24 -41 24 -39 23 C-34 23 -29 24 -24 25 C-23 23 -23 22 -22 20 C-21 17 -19 15 -18 12 C-17 12 -17 12 -16 12 C-15 10 -15 9 -14 7 C-6 -1 -6 -1 0 0 Z " fill="#C9CCD4" transform="translate(312,97)"/>
<path d="M0 0 C3 1 3 1 6 6 C7 8 7 11 7 13 C8 15 9 16 10 18 C11 19 11 19 11 23 C12 24 13 24 14 25 C14 26 14 27 14 28 C15 28 16 28 16 28 C16 27 16 26 16 25 C17 25 18 25 18 25 C23 35 23 35 23 42 C26 45 28 47 30 50 C28 53 26 55 22 56 C20 56 17 56 15 56 C11 56 11 56 6 58 C6 59 6 60 5 61 C6 61 6 61 8 63 C11 65 13 67 16 70 C19 74 22 76 27 78 C29 80 29 80 29 84 C30 85 31 85 31 86 C21 88 21 88 17 88 C17 90 16 91 15 93 C12 94 12 94 7 92 C2 92 -3 93 -8 94 C-14 95 -20 95 -26 95 C-27 95 -28 95 -29 95 C-34 95 -39 95 -44 93 C-44 93 -44 93 -49 92 C-55 91 -58 89 -64 85 C-67 83 -70 82 -74 80 C-74 81 -74 82 -75 83 C-75 83 -76 82 -77 82 C-77 80 -77 78 -77 76 C-74 73 -74 73 -70 71 C-69 71 -69 71 -66 69 C-62 67 -59 67 -55 67 C-50 64 -50 64 -47 61 C-45 60 -43 59 -42 58 C-42 57 -42 55 -42 54 C-43 49 -43 49 -40 44 C-39 43 -39 42 -38 41 C-33 42 -33 42 -30 46 C-29 51 -28 54 -30 58 C-33 61 -33 61 -37 64 C-36 68 -36 68 -35 71 C-28 71 -28 71 -25 69 C-19 69 -19 69 -16 70 C-15 70 -15 70 -11 69 C-10 69 -10 69 -10 66 C-9 66 -8 66 -8 66 C-6 62 -6 62 -5 57 C-5 56 -5 55 -6 54 C-6 54 -7 54 -8 54 C-8 53 -8 53 -8 52 C-9 51 -10 51 -12 50 C-14 46 -15 44 -14 39 C-13 37 -13 36 -13 34 C-12 32 -12 30 -11 29 C-10 24 -10 24 -8 21 C-8 16 -8 12 -8 7 C-8 6 -8 4 -8 3 C-4 0 -4 0 0 0 Z " fill="#FCFBF6" transform="translate(327.5625,387)"/>
<path d="M0 0 C3 3 3 3 3 6 C2 23 -10 41 -23 51 C-31 58 -40 61 -50 64 C-54 65 -54 65 -57 67 C-62 69 -66 69 -71 70 C-71 70 -71 70 -74 72 C-76 73 -78 73 -80 74 C-81 74 -81 74 -84 74 C-87 75 -87 75 -92 75 C-93 74 -95 72 -96 71 C-96 65 -94 62 -91 58 C-91 57 -90 56 -90 55 C-90 54 -90 54 -89 52 C-88 52 -88 52 -87 52 C-87 51 -87 50 -87 50 C-85 42 -81 34 -77 27 C-77 26 -76 25 -76 24 C-73 18 -71 16 -66 14 C-64 13 -61 13 -59 12 C-58 12 -57 12 -55 11 C-54 11 -53 11 -51 10 C-50 10 -49 10 -47 10 C-40 8 -33 6 -26 5 C-23 4 -20 4 -18 3 C-17 3 -17 3 -14 2 C-12 2 -11 1 -10 1 C-6 0 -6 0 0 0 Z " fill="#5E6679" transform="translate(387,487)"/>
<path d="M0 0 C3 0 7 1 10 2 C10 5 10 5 10 8 C10 9 10 11 10 12 C10 15 10 15 8 19 C8 20 7 21 7 22 C6 27 4 31 2 36 C1 39 1 39 0 43 C-1 48 -3 53 -6 57 C-7 59 -7 61 -8 63 C-11 67 -13 71 -16 75 C-18 78 -20 81 -22 84 C-22 85 -23 85 -23 86 C-24 88 -26 90 -27 92 C-30 98 -33 102 -39 106 C-45 105 -47 103 -52 99 C-52 98 -52 98 -56 95 C-60 92 -64 89 -68 85 C-70 83 -72 81 -74 80 C-77 77 -77 77 -80 73 C-80 71 -79 70 -79 68 C-74 65 -69 63 -64 61 C-42 52 -21 38 -6 20 C-5 19 -4 18 -4 17 C-1 15 -1 15 2 10 C1 7 1 7 0 4 C0 3 0 1 0 0 Z " fill="#464D5F" transform="translate(606,248)"/>
<path d="M0 0 C0 0 0 0 1 2 C2 2 2 2 3 2 C4 4 5 7 7 9 C8 12 8 12 11 15 C17 23 14 34 13 43 C15 43 17 43 19 43 C19 49 18 51 14 55 C13 55 13 55 12 55 C12 56 11 57 11 58 C10 58 9 59 8 59 C7 58 6 56 5 55 C5 55 5 55 2 53 C3 52 4 51 4 50 C7 47 7 47 7 42 C2 43 -1 44 -6 46 C-10 48 -13 49 -18 49 C-23 49 -26 50 -30 52 C-35 54 -35 54 -38 53 C-41 50 -43 47 -45 43 C-48 42 -48 42 -51 43 C-54 48 -55 52 -55 58 C-55 58 -55 58 -56 60 C-63 60 -69 59 -76 59 C-88 57 -88 57 -94 57 C-104 56 -114 53 -122 47 C-122 45 -121 44 -121 42 C-117 40 -114 39 -110 39 C-105 38 -100 36 -95 34 C-89 32 -89 32 -83 34 C-80 36 -80 36 -79 37 C-67 38 -57 36 -46 33 C-44 32 -42 32 -40 31 C-27 26 -7 13 0 0 Z " fill="#5F677A" transform="translate(313,322)"/>
<path d="M0 0 C2 -0 4 -0 5 -0 C21 1 32 8 42 19 C50 30 53 42 51 56 C49 72 41 85 29 95 C18 103 3 107 -10 105 C-25 101 -41 94 -49 80 C-56 65 -56 52 -52 36 C-49 29 -45 23 -40 17 C-39 16 -38 15 -37 14 C-27 5 -14 0 0 0 Z M-33 24 C-38 31 -42 37 -42 45 C-42 45 -42 45 -43 46 C-44 61 -41 72 -31 83 C-21 92 -12 95 1 95 C10 94 17 91 24 84 C25 83 26 82 28 81 C35 76 38 69 40 60 C41 47 40 36 34 25 C26 16 16 11 5 10 C3 10 2 10 -0 10 C-2 10 -4 10 -6 10 C-17 11 -25 16 -33 24 Z " fill="#050507" transform="translate(397.3125,340.6875)"/>
<path d="M0 0 C-0 3 -1 5 -1 8 C-1 9 -1 10 -1 11 C-2 12 -2 14 -2 15 C-2 16 -2 17 -2 18 C-3 21 -3 21 -6 26 C-7 26 -8 26 -9 26 C-10 28 -10 30 -11 32 C-12 33 -13 34 -14 35 C-14 35 -14 35 -15 37 C-16 37 -16 37 -17 37 C-17 38 -18 39 -18 40 C-22 40 -22 40 -26 40 C-26 39 -27 39 -27 38 C-31 38 -34 38 -38 39 C-37 40 -36 42 -35 43 C-48 52 -62 59 -76 65 C-78 65 -79 66 -80 66 C-86 69 -91 71 -98 71 C-101 70 -101 70 -104 68 C-107 66 -109 64 -113 62 C-113 62 -113 62 -115 61 C-115 60 -115 59 -115 58 C-116 58 -116 58 -117 58 C-116 50 -116 50 -112 47 C-105 46 -100 47 -93 49 C-83 51 -76 49 -67 44 C-65 43 -64 43 -62 42 C-62 40 -62 39 -61 37 C-60 31 -58 30 -53 26 C-52 26 -51 25 -50 25 C-43 21 -39 15 -34 9 C-32 5 -32 5 -28 2 C-25 2 -21 1 -18 1 C-2 -0 -2 -0 0 0 Z " fill="#C0C4CF" transform="translate(431,266)"/>
<path d="M0 0 C4 0 8 1 12 2 C17 3 17 3 22 3 C24 3 25 3 27 3 C30 7 31 12 30 17 C28 20 27 23 25 26 C24 30 25 32 27 36 C29 39 29 39 32 41 C34 41 36 41 37 41 C43 42 43 42 48 45 C50 48 50 48 52 51 C47 54 45 54 40 55 C40 56 40 57 40 58 C36 61 33 63 28 65 C27 66 26 66 26 67 C21 71 17 70 11 69 C10 69 8 68 7 68 C7 67 6 65 6 64 C5 64 5 63 4 63 C4 60 3 58 3 55 C-8 56 -8 56 -11 57 C-13 57 -15 57 -17 57 C-18 57 -19 57 -20 58 C-21 57 -22 57 -23 57 C-24 55 -25 54 -26 52 C-26 51 -25 50 -25 49 C-24 49 -24 49 -23 49 C-23 49 -23 49 -22 46 C-21 41 -18 37 -15 33 C-14 33 -13 33 -12 33 C-12 32 -12 32 -12 31 C-9 29 -7 26 -4 24 C-1 21 1 18 3 15 C2 11 2 11 1 8 C0 8 -0 8 -1 8 C-1 5 -0 3 0 0 Z " fill="#FCFBF3" transform="translate(164,438)"/>
<path d="M0 0 C-3 5 -5 8 -10 11 C-11 12 -13 14 -14 15 C-18 17 -22 18 -26 19 C-30 21 -30 23 -32 27 C-31 27 -31 27 -30 27 C-29 28 -29 29 -28 30 C-27 30 -27 30 -23 31 C-21 32 -20 32 -18 33 C-17 36 -17 36 -17 39 C-19 41 -19 41 -22 43 C-24 44 -26 46 -28 47 C-28 48 -29 49 -30 50 C-39 57 -46 65 -49 76 C-50 78 -50 79 -50 80 C-51 81 -51 82 -51 83 C-50 83 -49 83 -48 83 C-48 84 -48 86 -48 87 C-44 87 -40 88 -36 88 C-36 88 -36 89 -36 89 C-43 90 -50 90 -57 91 C-58 91 -60 91 -61 91 C-61 92 -62 93 -62 94 C-62 93 -62 93 -62 92 C-63 92 -64 92 -65 92 C-67 92 -68 91 -69 91 C-70 89 -70 88 -71 86 C-69 83 -69 83 -67 80 C-66 78 -66 77 -65 75 C-65 75 -65 75 -63 73 C-63 71 -63 69 -63 67 C-66 64 -66 64 -71 63 C-68 59 -67 57 -63 54 C-62 54 -61 53 -61 53 C-58 51 -58 51 -53 49 C-53 47 -53 45 -53 43 C-59 41 -65 42 -72 42 C-72 41 -72 41 -76 41 C-76 40 -77 38 -77 37 C-72 31 -66 27 -60 22 C-59 21 -59 21 -56 19 C-39 7 -21 -1 0 0 Z " fill="#F06515" transform="translate(163,420)"/>
<path d="M0 0 C3 1 3 1 7 5 C7 7 7 9 7 11 C6 12 5 13 4 14 C3 16 2 19 1 22 C1 23 0 24 -1 26 C0 28 0 28 4 29 C7 30 7 30 12 28 C15 27 17 27 20 27 C25 27 31 26 37 26 C44 25 50 24 57 25 C58 25 58 25 58 28 C60 28 61 29 62 30 C62 35 62 35 59 41 C53 45 44 43 36 42 C36 42 36 42 33 42 C28 41 25 38 21 35 C18 34 18 34 14 34 C13 34 12 33 10 33 C9 33 9 33 6 34 C4 38 4 38 4 41 C3 45 3 45 1 47 C-1 47 -3 48 -5 48 C-11 50 -11 50 -12 51 C-19 52 -27 52 -35 52 C-36 52 -36 52 -39 52 C-40 52 -41 52 -43 52 C-43 50 -43 49 -44 48 C-45 47 -46 47 -47 47 C-46 47 -45 47 -45 47 C-44 45 -43 44 -43 43 C-41 40 -39 38 -37 36 C-33 32 -29 27 -25 23 C-23 21 -21 19 -20 18 C-19 17 -18 16 -17 15 C-15 12 -12 9 -10 7 C-9 6 -8 4 -7 3 C-4 1 -4 1 0 0 Z " fill="#EF5C15" transform="translate(93.625,482.375)"/>
<path d="M0 0 C4 2 7 5 10 8 C14 10 19 12 23 14 C27 16 27 16 28 18 C27 18 26 18 25 19 C6 28 -9 37 -19 56 C-22 62 -26 67 -31 70 C-34 73 -36 76 -38 80 C-38 80 -38 80 -40 84 C-41 87 -43 90 -44 93 C-47 96 -47 96 -50 98 C-51 98 -51 98 -54 98 C-57 89 -53 80 -50 72 C-49 70 -48 68 -47 66 C-46 64 -46 63 -45 61 C-41 53 -37 44 -31 36 C-30 36 -30 35 -29 34 C-16 15 -16 15 -9 8 C-8 7 -8 6 -8 5 C-7 4 -7 3 -7 2 C-3 -0 -3 -0 0 0 Z " fill="#BBBECA" transform="translate(224.8125,206.5)"/>
<path d="M0 0 C7 2 11 5 17 9 C22 11 28 12 34 13 C35 13 35 14 36 14 C40 14 44 14 48 14 C49 14 50 14 52 14 C60 14 67 13 75 12 C79 11 83 12 88 13 C89 11 90 10 91 8 C94 7 94 7 97 6 C98 6 99 6 101 6 C102 5 103 5 105 5 C105 5 105 5 108 4 C111 4 113 3 116 3 C119 2 122 1 125 1 C129 0 132 -0 136 1 C136 2 137 3 137 4 C139 4 140 5 142 5 C143 5 144 6 145 6 C150 7 154 6 159 4 C163 3 166 3 170 3 C170 4 170 4 170 5 C167 7 164 8 160 10 C159 10 157 11 155 12 C150 14 150 14 144 14 C143 14 143 14 140 12 C131 11 123 12 114 15 C108 17 101 18 94 18 C87 19 82 21 76 24 C74 25 72 25 70 26 C65 27 61 28 57 30 C56 30 55 31 54 31 C53 32 53 34 52 35 C46 38 37 35 31 33 C19 28 5 18 -1 6 C-1 3 -1 3 0 0 Z " fill="#CDCFD6" transform="translate(254,467)"/>
<path d="M0 0 C2 0 3 1 5 1 C11 14 7 29 3 42 C-5 64 -25 80 -46 90 C-56 94 -66 96 -78 96 C-79 96 -81 96 -82 96 C-86 96 -86 96 -90 93 C-94 91 -96 91 -100 92 C-101 93 -103 93 -104 94 C-112 97 -119 98 -127 99 C-127 96 -127 96 -127 92 C-123 90 -119 88 -115 87 C-113 86 -110 85 -108 84 C-103 82 -98 80 -93 80 C-80 79 -80 79 -75 74 C-74 74 -72 75 -71 75 C-70 80 -70 80 -71 82 C-72 82 -73 82 -74 82 C-74 83 -74 83 -74 84 C-74 84 -74 84 -71 83 C-68 83 -68 83 -63 84 C-50 80 -36 73 -26 64 C-25 63 -24 62 -22 61 C-15 52 -9 43 -5 32 C-5 31 -4 30 -4 29 C-2 23 -3 17 -2 11 C-2 3 -2 3 0 0 Z " fill="#070709" transform="translate(320,264)"/>
<path d="M0 0 C5 4 7 6 8 13 C9 20 11 24 16 29 C20 31 20 31 24 33 C25 33 26 34 27 34 C35 36 41 34 48 31 C50 30 52 28 54 27 C55 27 55 27 56 27 C60 20 62 13 63 6 C64 3 64 3 66 1 C70 2 70 2 72 3 C73 7 73 10 73 14 C73 15 73 15 73 19 C73 23 72 25 69 28 C63 37 63 37 62 42 C60 47 57 48 53 51 C43 56 33 57 23 54 C12 50 4 43 -2 34 C-4 28 -6 23 -6 17 C-6 15 -6 14 -6 12 C-6 6 -4 4 0 0 Z " fill="#4F5769" transform="translate(360,380)"/>
<path d="M0 0 C6 4 10 7 13 14 C15 22 12 27 8 33 C2 37 -4 38 -11 40 C-14 40 -14 40 -17 42 C-19 43 -21 44 -23 44 C-24 44 -24 44 -27 45 C-30 45 -30 45 -35 45 C-36 44 -38 43 -39 41 C-39 36 -37 33 -34 28 C-34 27 -33 26 -33 25 C-33 25 -33 25 -32 22 C-31 22 -31 22 -30 22 C-30 22 -30 21 -30 20 C-29 14 -26 9 -23 4 C-19 2 -19 2 -16 1 C-15 0 -15 -1 -14 -2 C-9 -3 -5 -2 0 0 Z " fill="#4E5668" transform="translate(330,516.625)"/>
<path d="M0 0 C6 5 10 10 11 18 C12 27 11 33 5 41 C1 45 -2 46 -8 47 C-14 46 -18 45 -22 41 C-29 33 -30 26 -29 15 C-28 10 -27 7 -24 4 C-16 -2 -8 -3 0 0 Z " fill="#08080A" transform="translate(330.6875,105.5)"/>
<path d="M0 0 C2 1 3 1 5 2 C5 3 5 3 7 7 C3 11 -0 13 -5 15 C-6 15 -6 15 -7 15 C-7 16 -8 17 -8 18 C-12 19 -12 19 -16 20 C-21 22 -25 23 -30 25 C-35 26 -40 27 -45 27 C-48 28 -51 29 -54 30 C-55 30 -55 30 -58 30 C-59 31 -61 31 -62 31 C-62 31 -62 31 -64 34 C-64 36 -63 37 -63 39 C-62 46 -62 46 -65 51 C-68 55 -68 55 -73 56 C-77 56 -77 56 -80 56 C-82 50 -82 46 -82 40 C-82 38 -82 37 -82 35 C-82 21 -82 21 -78 17 C-75 17 -72 17 -69 17 C-52 18 -38 14 -22 7 C-19 6 -16 5 -12 4 C-9 4 -6 3 -2 1 C-2 1 -2 1 0 0 Z " fill="#F0F1F0" transform="translate(314,375)"/>
<path d="M0 0 C1 1 2 2 2 3 C5 6 7 7 11 8 C13 12 13 12 13 15 C10 18 8 19 4 20 C-0 22 -4 23 -8 25 C-16 29 -25 32 -34 35 C-35 35 -37 36 -38 36 C-44 39 -49 40 -56 38 C-57 37 -58 35 -59 34 C-56 29 -52 26 -47 22 C-45 20 -45 20 -44 16 C-45 16 -46 15 -47 15 C-43 10 -37 6 -31 3 C-27 3 -27 3 -24 4 C-15 5 -9 -2 0 0 Z " fill="#5C6477" transform="translate(197,333)"/>
<path d="M0 0 C3 4 4 7 6 12 C11 28 19 48 31 60 C31 60 31 60 30 62 C25 60 25 60 23 56 C21 53 18 51 15 49 C13 47 12 45 11 41 C9 40 9 40 3 40 C2 41 2 41 1 42 C1 43 1 43 2 46 C2 50 2 50 0 55 C-5 59 -7 59 -13 59 C-16 58 -16 58 -20 56 C-21 56 -23 55 -24 55 C-30 53 -35 49 -40 45 C-40 39 -37 36 -33 32 C-33 32 -33 32 -31 29 C-27 25 -23 22 -18 22 C-15 23 -15 23 -11 27 C-7 30 -7 30 -3 30 C-2 29 -1 29 0 28 C0 24 0 24 0 21 C1 20 1 20 2 19 C1 14 1 14 -1 9 C-1 6 -0 3 0 0 Z " fill="#FDFDFC" transform="translate(489,269)"/>
<path d="M0 0 C4 2 4 2 5 3 C15 4 25 3 35 1 C35 5 35 5 36 8 C35 9 34 9 33 9 C30 14 29 19 29 24 C28 25 28 26 28 26 C21 27 14 26 8 25 C-4 23 -4 23 -10 23 C-20 22 -30 20 -38 13 C-38 12 -38 10 -37 8 C-33 6 -31 6 -26 5 C-21 4 -16 3 -11 0 C-6 -2 -6 -2 0 0 Z " fill="#7F8598" transform="translate(229.25,355.625)"/>
<path d="M0 0 C1 -0 1 -0 5 -0 C13 -1 19 3 25 8 C30 13 30 13 30 16 C31 16 33 17 34 17 C38 23 38 31 37 38 C36 42 34 45 32 49 C31 49 31 49 30 49 C29 50 29 52 28 53 C21 60 17 62 8 62 C7 62 7 62 4 62 C3 61 3 59 2 58 C-1 58 -3 57 -6 57 C-13 53 -17 48 -19 41 C-21 37 -21 33 -21 28 C-21 26 -21 24 -21 22 C-20 17 -20 17 -18 12 C-17 12 -17 12 -16 12 C-15 10 -15 9 -14 7 C-6 -1 -6 -1 0 0 Z M-5 12 C-11 20 -11 26 -11 35 C-10 41 -7 46 -3 51 C4 55 8 56 16 55 C23 52 26 48 29 41 C31 35 31 28 29 22 C26 16 23 12 18 8 C10 5 2 7 -5 12 Z " fill="#FBFBFA" transform="translate(312,97)"/>
<path d="M0 0 C1 1 1 1 2 2 C7 6 14 7 20 8 C20 12 20 12 20 16 C20 16 20 16 17 17 C17 18 17 19 17 20 C10 23 3 22 -4 22 C-17 22 -27 26 -38 33 C-39 34 -40 35 -41 37 C-44 39 -44 39 -48 39 C-49 39 -51 38 -52 38 C-54 38 -55 38 -57 38 C-58 37 -58 37 -59 36 C-60 35 -61 35 -62 34 C-63 31 -63 31 -62 27 C-58 25 -55 24 -51 23 C-48 22 -45 21 -43 20 C-40 18 -37 17 -34 16 C-24 12 -10 0 0 0 Z " fill="#FDFDFC" transform="translate(401,320)"/>
<path d="M0 0 C4 0 7 -0 11 -0 C36 -0 36 -0 47 5 C47 5 47 5 48 7 C47 8 45 10 44 11 C39 11 39 11 34 10 C18 8 2 10 -15 12 C-16 13 -18 13 -19 13 C-30 14 -41 17 -52 20 C-56 21 -57 21 -61 19 C-63 14 -63 13 -62 8 C-51 -3 -14 -3 0 0 Z " fill="#888E9F" transform="translate(561,235)"/>
<path d="M0 0 C2 2 2 2 4 5 C7 9 11 14 14 18 C15 19 15 20 16 21 C18 23 18 23 21 25 C21 26 22 26 23 27 C23 28 23 28 23 29 C24 29 24 29 28 31 C31 33 31 33 33 36 C33 38 33 39 33 41 C27 45 22 48 14 49 C9 48 9 48 5 45 C3 45 2 45 -0 45 C-2 45 -3 45 -5 45 C-6 40 -5 38 -2 33 C0 28 0 26 -1 21 C-2 21 -2 21 -6 19 C-11 16 -15 14 -18 9 C-18 6 -18 6 -17 3 C-7 -3 -7 -3 0 0 Z " fill="#464C5D" transform="translate(240,472)"/>
<path d="M0 0 C1 1 2 3 3 4 C-10 13 -24 20 -38 26 C-40 26 -41 27 -42 27 C-48 30 -53 32 -60 32 C-63 31 -63 31 -66 29 C-69 27 -71 25 -75 23 C-75 23 -76 22 -77 22 C-77 21 -77 20 -77 19 C-78 19 -78 19 -79 19 C-78 12 -78 12 -74 8 C-67 7 -62 8 -55 10 C-46 12 -40 11 -32 6 C-28 5 -24 4 -20 4 C-10 3 -10 3 -7 1 C-2 0 -2 0 0 0 Z " fill="#BBBECA" transform="translate(393,305)"/>
<path d="M0 0 C1 0 3 0 4 0 C5 0 5 1 6 1 C5 2 5 2 2 5 C-7 13 -16 21 -19 33 C-20 35 -20 36 -20 37 C-20 38 -20 38 -21 40 C-20 40 -19 40 -18 40 C-18 41 -18 43 -18 44 C-14 44 -10 45 -6 45 C-6 45 -6 46 -6 46 C-13 47 -20 47 -27 48 C-27 48 -27 48 -31 48 C-31 49 -32 50 -32 51 C-32 50 -32 50 -32 49 C-33 49 -34 49 -35 49 C-37 49 -38 48 -39 48 C-40 46 -40 45 -41 43 C-39 40 -39 40 -37 37 C-36 35 -36 34 -35 32 C-34 31 -34 31 -33 30 C-33 28 -33 26 -33 24 C-36 21 -36 21 -41 20 C-38 16 -37 14 -33 11 C-32 11 -31 10 -31 10 C-28 8 -28 8 -23 6 C-22 4 -22 3 -21 1 C-18 -0 -15 -1 -12 -1 C-12 -1 -12 -1 -8 -2 C-5 -2 -5 -2 0 0 Z " fill="#FC672C" transform="translate(133,463)"/>
<path d="M0 0 C0 1 0 2 0 3 C0 4 0 4 1 7 C1 8 1 9 1 11 C2 14 2 14 4 17 C4 18 4 20 4 21 C5 21 6 22 7 22 C7 23 7 23 8 26 C9 26 9 26 10 26 C11 30 11 32 9 36 C4 38 4 38 -0 39 C-4 40 -4 40 -5 41 C-13 42 -21 42 -28 42 C-29 42 -29 42 -33 42 C-34 42 -35 42 -36 42 C-36 41 -37 39 -37 38 C-38 38 -39 37 -40 37 C-39 37 -39 37 -38 37 C-37 36 -37 34 -36 33 C-35 32 -34 32 -33 31 C-29 29 -26 26 -23 22 C-22 22 -22 22 -21 22 C-20 21 -20 19 -19 18 C-16 14 -16 14 -12 11 C-11 11 -11 11 -10 11 C-9 10 -9 8 -8 7 C-4 0 -4 0 0 0 Z " fill="#EF4A22" transform="translate(87,492)"/>
<path d="M0 0 C1 1 1 1 2 2 C0 11 -8 18 -15 23 C-20 26 -25 28 -30 31 C-31 32 -33 33 -34 33 C-41 36 -46 37 -53 36 C-54 36 -55 36 -56 36 C-56 35 -56 35 -56 34 C-55 34 -54 34 -53 34 C-53 31 -53 31 -54 27 C-55 26 -56 26 -57 25 C-52 16 -52 16 -47 14 C-44 14 -44 14 -41 15 C-34 15 -34 15 -31 14 C-28 11 -28 11 -26 9 C-19 1 -10 -5 0 0 Z " fill="#5D6578" transform="translate(302,312)"/>
<path d="M0 0 C4 4 4 7 5 12 C6 13 7 15 8 16 C9 22 8 23 5 28 C-6 33 -19 31 -30 28 C-34 23 -34 21 -33 15 C-33 12 -33 12 -31 10 C-30 9 -29 9 -28 8 C-26 6 -25 5 -23 3 C-21 1 -21 1 -16 1 C-15 1 -15 1 -10 1 C-6 0 -6 0 0 0 Z " fill="#C1C5D0" transform="translate(418,170)"/>
<path d="M0 0 C-0 1 -1 1 -1 2 C-1 3 -1 3 -0 6 C0 10 -0 14 -1 18 C-5 22 -7 23 -13 25 C-17 26 -21 27 -25 29 C-26 29 -27 30 -28 30 C-30 29 -33 28 -35 26 C-39 25 -42 25 -46 25 C-50 25 -50 25 -53 25 C-56 22 -56 22 -56 18 C-55 13 -55 13 -53 11 C-49 10 -46 10 -42 9 C-41 9 -40 8 -39 8 C-35 7 -32 7 -28 6 C-22 5 -16 3 -9 1 C-2 -1 -2 -1 0 0 Z " fill="#FCFBF6" transform="translate(305,394)"/>
<path d="M0 0 C3 0 7 0 10 0 C10 2 10 4 10 5 C10 7 11 9 11 11 C12 12 14 13 15 14 C15 15 15 15 15 16 C17 16 19 16 21 16 C22 17 22 19 23 20 C24 20 25 20 26 20 C26 23 26 27 26 30 C24 30 22 30 21 30 C19 30 17 30 15 30 C14 31 14 33 13 34 C13 34 13 34 11 35 C11 37 11 39 11 40 C10 42 10 44 10 46 C10 46 10 46 7 47 C6 48 6 49 5 50 C3 50 2 49 0 49 C-0 46 -1 42 -1 39 C-1 39 -1 39 -4 38 C-4 37 -4 36 -4 34 C-4 33 -5 32 -5 31 C-10 30 -10 30 -15 30 C-16 29 -16 27 -17 26 C-18 26 -19 25 -20 25 C-20 23 -19 22 -19 20 C-16 20 -12 20 -9 20 C-8 19 -8 17 -7 16 C-6 16 -6 16 -5 16 C-4 15 -4 13 -3 12 C-2 12 -2 11 -1 11 C-1 7 -0 4 0 0 Z " fill="#222225" transform="translate(637,105)"/>
<path d="M0 0 C3 3 3 3 3 6 C3 14 -1 24 -7 30 C-12 30 -12 30 -16 28 C-21 24 -26 24 -33 24 C-44 24 -44 24 -50 22 C-50 21 -50 21 -51 17 C-47 12 -44 11 -38 10 C-38 9 -38 9 -38 8 C-34 6 -30 5 -25 5 C-17 3 -9 0 0 0 Z " fill="#51596B" transform="translate(387,487)"/>
<path d="M0 0 C1 0 1 0 5 1 C6 4 6 4 6 7 C7 7 8 8 9 8 C9 9 9 10 9 11 C10 15 10 15 14 18 C14 19 14 19 14 20 C15 20 15 20 19 20 C21 20 22 20 24 20 C24 21 24 21 25 25 C24 25 23 26 22 26 C21 27 21 29 20 30 C18 30 16 30 14 30 C13 31 13 33 12 34 C12 34 12 34 10 35 C10 36 10 37 10 38 C9 40 9 41 9 42 C9 42 9 42 6 43 C5 47 5 47 4 50 C2 50 1 49 -1 49 C-1 48 -2 48 -2 47 C-2 47 -2 47 -5 46 C-5 44 -5 42 -5 41 C-6 35 -6 35 -10 31 C-16 30 -16 30 -21 30 C-21 27 -21 23 -21 20 C-19 20 -17 20 -16 20 C-14 20 -12 20 -10 20 C-9 19 -9 17 -8 16 C-7 16 -7 15 -6 15 C-6 13 -6 11 -6 10 C-5 8 -5 6 -5 4 C-4 4 -3 3 -2 3 C-1 2 -1 1 0 0 Z " fill="#252527" transform="translate(54,185)"/>
<path d="M0 0 C1 0 1 0 2 0 C-2 16 -13 29 -26 38 C-29 39 -31 41 -34 42 C-34 41 -34 41 -34 40 C-35 40 -35 40 -36 40 C-36 39 -36 37 -37 36 C-37 35 -38 33 -38 32 C-41 31 -41 31 -44 31 C-46 31 -47 31 -49 31 C-49 30 -48 28 -48 27 C-49 27 -49 26 -50 26 C-50 25 -50 24 -50 23 C-53 23 -55 23 -58 23 C-52 19 -44 16 -37 16 C-36 16 -35 17 -34 17 C-31 15 -29 14 -26 12 C-23 10 -19 9 -16 8 C-13 7 -13 7 -9 3 C-6 2 -3 2 0 2 C0 1 0 1 0 0 Z " fill="#F37D1B" transform="translate(224,501)"/>
<path d="M0 0 C0 1 0 1 0 2 C1 3 3 3 4 4 C7 6 7 6 9 9 C9 10 9 11 9 12 C8 12 8 12 7 12 C7 13 7 13 7 14 C6 14 6 14 3 15 C-2 16 -2 16 -6 20 C-9 22 -9 22 -13 23 C-18 25 -23 27 -28 30 C-29 30 -30 29 -31 29 C-36 30 -40 31 -45 33 C-53 35 -56 35 -63 32 C-64 29 -64 29 -62 24 C-59 24 -59 24 -54 24 C-50 24 -50 24 -47 24 C-47 23 -46 21 -46 20 C-46 19 -45 18 -45 17 C-39 17 -39 17 -36 18 C-31 18 -29 17 -26 14 C-22 11 -22 11 -19 10 C-18 10 -17 10 -16 10 C-16 9 -15 8 -15 7 C-14 7 -14 7 -13 7 C-13 6 -13 5 -13 4 C-3 0 -3 0 0 0 Z " fill="#FDBE41" transform="translate(217,489)"/>
<path d="M0 0 C1 1 1 3 2 4 C-1 10 -6 13 -12 16 C-13 16 -13 16 -17 19 C-19 19 -20 20 -22 21 C-23 22 -24 22 -26 23 C-36 28 -47 33 -59 33 C-60 32 -60 30 -61 29 C-60 27 -59 26 -58 24 C-57 24 -57 24 -56 24 C-56 23 -55 22 -55 21 C-40 10 -19 -1 0 0 Z " fill="#3F4249" transform="translate(261,436)"/>
<path d="M0 0 C2 3 2 3 2 6 C1 7 1 8 1 9 C1 11 0 12 0 14 C-1 14 -2 14 -3 14 C-3 15 -3 17 -3 18 C-4 23 -4 23 -8 26 C-10 27 -11 27 -13 28 C-18 31 -22 35 -27 39 C-29 41 -29 41 -32 42 C-32 43 -31 45 -31 46 C-30 53 -31 55 -34 60 C-35 59 -37 59 -38 58 C-38 57 -38 56 -38 55 C-39 55 -39 55 -40 55 C-40 54 -40 54 -39 51 C-39 50 -39 48 -39 47 C-40 47 -40 46 -41 46 C-40 46 -40 46 -39 46 C-40 41 -41 35 -43 30 C-42 29 -41 29 -39 28 C-35 26 -35 26 -32 23 C-28 19 -28 19 -24 17 C-18 14 -15 10 -11 6 C-7 1 -6 0 0 0 Z " fill="#BFC3CE" transform="translate(388,83)"/>
<path d="M0 0 C4 2 4 2 6 6 C7 6 8 7 9 7 C12 12 13 13 12 19 C11 23 11 23 9 27 C8 27 8 27 5 29 C5 30 4 31 4 32 C4 33 3 34 3 35 C-1 37 -4 37 -8 38 C-10 38 -11 39 -13 39 C-15 39 -16 39 -18 39 C-22 35 -22 35 -22 32 C-19 21 -14 11 -4 5 C-3 4 -3 3 -2 2 C-1 1 -1 1 0 0 Z " fill="#7F8598" transform="translate(306,237)"/>
<path d="M0 0 C1 3 1 5 0 8 C1 8 2 9 3 9 C4 14 4 15 2 20 C-4 21 -8 22 -13 19 C-16 17 -16 17 -17 15 C-20 15 -20 15 -23 15 C-25 15 -26 15 -27 15 C-28 15 -28 15 -32 15 C-34 15 -37 15 -40 15 C-40 15 -40 15 -44 15 C-47 15 -50 15 -53 14 C-53 13 -53 11 -53 10 C-54 10 -55 10 -56 10 C-56 6 -56 6 -55 2 C-49 -1 -47 1 -41 3 C-40 4 -38 5 -37 6 C-32 6 -32 6 -28 6 C-27 5 -27 3 -26 2 C-23 2 -21 1 -18 1 C-15 1 -15 1 -10 -0 C-5 -1 -5 -1 0 0 Z " fill="#FCBE31" transform="translate(168,493)"/>
<path d="M0 0 C1 0 1 0 5 1 C5 2 6 2 6 3 C7 3 8 4 9 4 C9 5 9 5 9 7 C9 9 10 10 10 11 C14 12 14 12 17 13 C17 13 17 13 18 16 C19 16 20 16 21 16 C21 19 21 23 21 26 C19 26 17 26 16 26 C14 26 12 27 10 27 C9 32 9 32 9 38 C8 39 6 41 5 42 C1 41 0 39 -2 36 C-2 35 -2 35 -2 34 C-3 34 -4 33 -5 33 C-5 33 -5 33 -5 30 C-5 29 -6 28 -6 27 C-10 26 -10 26 -13 25 C-13 24 -14 23 -14 22 C-15 22 -16 21 -17 21 C-17 19 -16 18 -16 16 C-14 16 -12 16 -10 16 C-9 15 -9 13 -8 12 C-7 12 -7 12 -6 12 C-5 11 -5 9 -4 8 C-3 8 -3 7 -2 7 C-1 5 -1 2 0 0 Z " fill="#262628" transform="translate(558,461)"/>
<path d="M0 0 C1 0 1 0 4 0 C12 0 12 0 16 4 C11 13 1 16 -9 19 C-16 20 -20 21 -27 17 C-31 14 -33 12 -37 9 C-38 8 -39 7 -41 6 C-41 5 -41 4 -41 3 C-28 -2 -13 -0 0 0 Z " fill="#C0C4CF" transform="translate(341.5625,45.25)"/>
<path d="M0 0 C-0 1 -1 3 -1 4 C-2 4 -2 4 -3 4 C-4 6 -4 7 -5 9 C-7 10 -8 10 -10 11 C-11 11 -11 11 -14 13 C-14 14 -14 16 -14 17 C-12 17 -11 16 -9 16 C-4 15 -4 15 1 18 C3 21 3 21 4 24 C5 25 5 27 6 28 C7 28 7 28 8 28 C9 30 9 31 10 33 C9 33 8 33 8 32 C3 32 -0 32 -4 33 C-6 33 -7 33 -9 33 C-10 34 -11 34 -12 34 C-12 35 -13 35 -13 36 C-13 35 -14 34 -14 33 C-20 31 -26 32 -33 32 C-33 31 -33 31 -37 31 C-37 30 -38 28 -38 27 C-33 21 -27 17 -21 12 C-20 11 -20 11 -17 9 C-5 0 -5 0 0 0 Z " fill="#F25D26" transform="translate(124,430)"/>
<path d="M0 0 C1 0 2 1 3 1 C6 2 6 2 8 6 C9 7 10 7 11 8 C12 12 12 12 13 16 C12 17 12 17 11 18 C11 18 11 18 10 16 C5 11 1 12 -5 11 C-8 16 -8 21 -9 27 C-10 31 -11 33 -14 36 C-22 39 -22 39 -26 38 C-28 31 -26 25 -24 18 C-23 15 -23 15 -22 10 C-21 6 -21 6 -18 3 C-7 -2 -7 -2 0 0 Z " fill="#F5F5F4" transform="translate(473,250)"/>
<path d="M0 0 C1 1 3 1 4 2 C3 6 3 6 2 11 C2 11 2 11 3 14 C1 17 -0 19 -2 22 C-3 24 -3 26 -4 28 C-5 28 -5 29 -6 29 C-5 31 -5 32 -4 34 C-4 35 -3 36 -3 37 C-5 40 -5 40 -9 41 C-15 41 -15 40 -19 37 C-24 35 -24 35 -30 35 C-30 26 -23 19 -17 13 C-14 11 -12 9 -9 7 C-7 6 -6 4 -4 3 C-3 2 -1 1 0 0 Z " fill="#FDC84D" transform="translate(145,459)"/>
<path d="M0 0 C4 0 8 1 12 2 C17 3 17 3 22 3 C24 3 25 3 27 3 C30 7 31 12 30 17 C26 25 26 25 22 26 C22 29 22 31 22 34 C22 35 21 35 21 36 C17 36 13 36 10 33 C7 28 7 23 7 18 C5 18 3 19 1 19 C2 18 2 16 3 15 C2 11 2 11 1 8 C0 8 -0 8 -1 8 C-1 5 -0 3 0 0 Z " fill="#F3F3F2" transform="translate(164,438)"/>
<path d="M0 0 C7 2 13 5 18 11 C18 16 18 17 15 21 C14 22 13 23 13 24 C12 24 12 25 11 26 C10 27 9 29 8 30 C1 30 -1 29 -7 25 C-7 23 -8 21 -8 19 C-10 16 -10 16 -12 14 C-17 9 -17 9 -18 7 C-17 7 -16 7 -15 7 C-15 6 -14 4 -14 3 C-8 -0 -7 -1 0 0 Z " fill="#C0C4CF" transform="translate(324,228)"/>
<path d="M0 0 C1 0 1 0 5 2 C5 3 4 4 4 5 C4 8 4 11 4 15 C4 16 4 18 4 20 C5 25 7 28 9 33 C8 37 7 39 4 42 C-4 46 -4 46 -9 45 C-10 44 -12 42 -13 41 C-13 35 -13 35 -12 32 C-12 29 -12 29 -12 23 C-12 13 -9 8 -2 1 C-1 1 -1 0 0 0 Z " fill="#4F5769" transform="translate(216,399)"/>
<path d="M0 0 C4 0 8 1 13 1 C13 2 13 2 17 2 C21 3 23 4 25 7 C26 12 26 12 26 17 C26 19 26 20 26 22 C26 23 26 25 26 26 C26 25 25 25 24 24 C24 23 24 22 24 21 C23 21 22 22 20 22 C13 23 6 20 -2 18 C-2 18 -2 17 -3 17 C-4 17 -6 17 -7 17 C-13 17 -13 17 -15 16 C-15 14 -15 13 -15 11 C-12 9 -10 8 -8 6 C-7 4 -6 3 -5 1 C-4 0 -4 0 0 0 Z " fill="#FCB533" transform="translate(166.55078125,419.859375)"/>
<path d="M0 0 C2 0 3 1 5 1 C5 2 6 2 6 3 C7 3 8 4 9 4 C9 5 9 5 9 7 C9 9 10 10 10 11 C13 12 13 12 17 13 C18 14 20 15 21 16 C21 17 21 17 21 18 C18 21 17 22 13 22 C12 23 11 23 10 23 C9 26 9 26 9 30 C8 30 7 31 6 31 C6 31 6 31 4 34 C2 34 1 33 -1 33 C-1 31 -2 29 -2 27 C-3 26 -5 25 -6 24 C-6 23 -6 23 -6 22 C-8 22 -11 22 -13 22 C-13 19 -13 15 -13 12 C-12 12 -12 12 -10 12 C-8 12 -7 11 -6 11 C-5 8 -5 8 -5 4 C-4 4 -3 3 -2 3 C-1 2 -1 1 0 0 Z " fill="#1B1C1E" transform="translate(38,357)"/>
<path d="M0 0 C4 3 7 6 9 11 C8 12 8 13 7 14 C6 14 6 14 5 14 C5 15 5 15 5 16 C1 17 -2 18 -6 18 C-9 19 -9 19 -12 20 C-15 21 -15 21 -19 21 C-22 17 -21 12 -21 7 C-21 6 -22 4 -22 3 C-22 0 -22 0 -20 -3 C-13 -8 -7 -3 0 0 Z " fill="#7F8598" transform="translate(223,269)"/>
<path d="M0 0 C5 4 7 6 8 13 C10 21 12 26 19 31 C19 34 19 34 17 38 C13 40 10 42 5 42 C-2 36 -4 30 -6 21 C-6 20 -6 18 -6 17 C-6 15 -6 14 -6 12 C-6 6 -4 4 0 0 Z " fill="#464D5F" transform="translate(360,380)"/>
<path d="M0 0 C2 2 2 2 4 5 C5 6 6 7 7 9 C7 9 7 9 10 13 C11 14 11 15 12 15 C14 18 15 20 17 22 C16 24 16 24 11 26 C6 27 6 27 1 27 C0 25 -0 23 -1 21 C-2 21 -2 21 -6 19 C-11 16 -15 14 -18 9 C-18 6 -18 6 -17 3 C-7 -3 -7 -3 0 0 Z " fill="#4E5668" transform="translate(240,472)"/>
<path d="M0 0 C1 3 1 3 1 7 C0 7 -1 8 -2 8 C-5 13 -6 17 -6 23 C-6 24 -7 24 -7 25 C-14 25 -21 24 -28 24 C-29 23 -30 23 -32 23 C-34 23 -37 22 -40 22 C-40 22 -40 21 -40 21 C-37 20 -33 20 -30 19 C-27 18 -27 18 -24 15 C-23 15 -23 15 -22 15 C-22 14 -22 13 -22 12 C-24 11 -25 11 -27 10 C-27 9 -27 9 -27 8 C-28 8 -28 8 -29 8 C-30 6 -30 5 -31 3 C-30 3 -29 3 -27 3 C-18 2 -9 0 0 0 Z " fill="#878D9E" transform="translate(264,357)"/>
<path d="M0 0 C4 4 6 8 8 13 C8 14 8 16 8 17 C6 17 5 17 3 17 C3 17 2 16 2 16 C-5 15 -5 15 -9 18 C-13 23 -15 26 -15 33 C-15 35 -16 36 -16 38 C-20 40 -23 40 -27 41 C-33 43 -37 46 -41 51 C-42 52 -43 54 -44 55 C-45 55 -45 55 -46 55 C-47 53 -47 53 -47 47 C-44 44 -44 44 -39 40 C-37 39 -36 38 -34 36 C-29 33 -25 30 -19 28 C-18 23 -18 23 -18 19 C-17 19 -17 18 -16 18 C-16 17 -15 15 -15 14 C-14 13 -12 13 -11 12 C-7 10 -6 9 -4 4 C-3 4 -2 4 -1 4 C-1 3 -0 1 0 0 Z " fill="#CBCED5" transform="translate(403,78)"/>
<path d="M0 0 C1 1 1 1 2 2 C7 6 14 7 20 8 C20 12 20 12 20 16 C19 16 18 17 17 17 C17 18 17 19 17 20 C12 22 12 22 7 22 C7 21 7 20 7 19 C2 17 -1 17 -7 17 C-9 18 -10 18 -12 19 C-14 19 -15 18 -17 18 C-17 17 -16 15 -16 14 C-18 13 -19 12 -21 11 C-19 9 -19 9 -16 7 C-12 5 -12 5 -8 2 C-5 0 -5 0 0 0 Z " fill="#F6F6F5" transform="translate(401,320)"/>
<path d="M0 0 C0 0 0 0 3 1 C2 2 1 3 0 5 C-3 11 -6 17 -7 25 C-6 25 -5 25 -4 25 C-4 26 -4 27 -4 29 C-0 29 4 29 8 30 C8 30 8 30 8 31 C1 32 -6 32 -13 32 C-14 32 -14 32 -17 33 C-18 34 -18 35 -18 36 C-18 35 -18 34 -18 34 C-19 34 -21 34 -22 34 C-23 33 -24 33 -25 33 C-26 31 -27 29 -27 28 C-26 25 -26 25 -23 22 C-23 20 -22 18 -21 17 C-18 14 -16 11 -12 9 C-12 9 -11 9 -10 9 C-10 7 -9 5 -8 4 C-5 1 -4 -0 0 0 Z " fill="#FC7E28" transform="translate(119.3125,478.25)"/>
<path d="M0 0 C3 2 6 3 9 5 C8 7 7 8 6 10 C6 11 5 11 5 12 C4 12 3 13 1 13 C-7 16 -11 24 -17 30 C-18 31 -19 32 -20 33 C-25 33 -27 31 -31 28 C-32 28 -32 28 -36 26 C-36 25 -37 23 -37 22 C-34 19 -31 17 -28 14 C-25 14 -22 14 -19 14 C-14 14 -8 13 -3 10 C-1 6 -1 6 -1 3 C-1 2 -0 1 0 0 Z " fill="#FCFCFB" transform="translate(539,350)"/>
<path d="M0 0 C2 0 3 0 5 0 C8 4 8 4 11 8 C6 11 4 11 -1 12 C-1 13 -1 14 -1 15 C-5 18 -8 20 -13 22 C-14 23 -15 23 -16 24 C-20 28 -24 27 -30 26 C-31 26 -33 25 -34 25 C-34 24 -35 22 -35 21 C-36 21 -36 20 -37 20 C-37 17 -37 14 -37 11 C-34 10 -34 10 -30 10 C-30 11 -29 11 -29 12 C-25 14 -22 14 -18 15 C-16 15 -15 15 -14 15 C-11 15 -11 15 -6 13 C-4 9 -3 7 -3 3 C-2 3 -2 3 -1 3 C-1 2 -0 1 0 0 Z " fill="#FDEFB2" transform="translate(205,481)"/>
<path d="M0 0 C2 6 2 11 2 17 C2 18 2 20 2 21 C2 23 2 26 2 29 C1 29 1 29 0 29 C0 30 0 30 0 31 C-3 33 -3 33 -8 32 C-14 23 -12 8 -12 -2 C-6 -3 -5 -3 0 0 Z " fill="#F3F3F2" transform="translate(463,375)"/>
<path d="M0 0 C1 2 1 3 2 5 C-2 9 -5 11 -10 13 C-11 13 -11 13 -12 13 C-12 14 -13 15 -13 16 C-17 17 -17 17 -21 19 C-22 19 -22 19 -26 20 C-30 21 -34 21 -38 21 C-37 20 -37 18 -36 17 C-37 17 -38 17 -39 17 C-39 17 -39 17 -42 16 C-42 15 -43 15 -43 14 C-42 14 -42 14 -39 13 C-30 12 -23 10 -16 4 C-14 3 -13 2 -11 1 C-10 0 -9 -0 -8 -1 C-5 -2 -5 -2 0 0 Z " fill="#C5C8D1" transform="translate(319,377)"/>
<path d="M0 0 C0 1 0 1 0 2 C1 3 3 3 4 4 C7 6 7 6 9 9 C9 10 9 11 9 12 C8 12 8 12 7 12 C7 13 7 13 7 14 C6 14 6 14 3 15 C-2 16 -2 16 -6 20 C-11 22 -16 24 -21 25 C-21 24 -21 24 -22 20 C-21 19 -20 18 -19 17 C-19 16 -18 15 -18 14 C-18 13 -17 12 -17 11 C-16 11 -14 11 -13 11 C-13 10 -13 10 -14 8 C-13 7 -13 5 -13 4 C-4 0 -4 0 0 0 Z " fill="#FCC859" transform="translate(217,489)"/>
<path d="M0 0 C5 2 8 4 12 8 C12 9 13 11 13 12 C14 12 16 13 17 13 C21 19 21 27 20 34 C19 38 17 41 15 45 C14 45 14 45 13 45 C12 46 12 48 11 49 C4 56 4 56 -2 57 C-2 55 -2 53 -2 51 C1 49 4 47 7 45 C12 37 13 31 12 22 C10 16 8 12 4 7 C3 7 3 6 2 6 C2 5 1 3 1 2 C1 1 0 1 0 0 Z " fill="#F3F3F2" transform="translate(329,101)"/>
<path d="M0 0 C4 0 7 1 11 1 C10 2 9 4 8 5 C7 5 7 5 6 5 C6 6 7 8 7 9 C5 14 4 16 -2 18 C-9 18 -15 18 -21 14 C-20 11 -20 11 -17 9 C-14 7 -14 7 -11 3 C-7 -2 -6 -3 0 0 Z " fill="#F3F3F2" transform="translate(196,479)"/>
<path d="M0 0 C2 0 3 0 5 0 C2 3 -2 6 -6 8 C-8 10 -11 11 -13 13 C-18 15 -22 17 -27 20 C-31 21 -34 22 -37 24 C-42 26 -42 26 -46 26 C-46 24 -47 22 -47 20 C-43 20 -39 20 -35 20 C-35 20 -35 20 -35 17 C-34 14 -34 14 -31 12 C-31 11 -31 11 -31 10 C-26 8 -26 8 -23 8 C-23 7 -23 7 -23 6 C-19 5 -16 4 -12 3 C-11 3 -11 2 -10 2 C-10 3 -10 3 -10 4 C-7 3 -4 3 -1 2 C-1 1 -0 1 0 0 Z " fill="#F3F3F2" transform="translate(438,438)"/>
<path d="M0 0 C5 1 5 1 7 4 C10 9 9 12 7 17 C6 20 6 20 4 23 C-1 24 -4 24 -8 21 C-11 17 -11 15 -10 11 C-8 6 -4 3 0 0 Z " fill="#C1C5D0" transform="translate(426,209)"/>
<path d="M0 0 C2 1 5 1 7 2 C8 2 10 2 11 2 C12 2 12 2 15 3 C16 5 16 6 17 8 C8 13 -4 14 -14 13 C-15 12 -15 12 -16 11 C-16 6 -16 6 -13 3 C-8 -1 -6 -1 0 0 Z " fill="#454C5D" transform="translate(119,348)"/>
<path d="M0 0 C1 0 2 1 3 1 C3 3 3 4 4 5 C5 6 6 7 7 7 C5 12 3 14 -1 17 C-5 17 -5 17 -9 16 C-11 16 -13 16 -14 16 C-15 16 -16 15 -16 14 C-17 14 -18 13 -19 12 C-20 9 -20 9 -19 5 C-15 4 -12 2 -8 1 C-3 -1 -3 -1 0 0 Z " fill="#F3F3F2" transform="translate(358.25,341.625)"/>
<path d="M0 0 C2 5 2 5 1 9 C-1 10 -2 12 -4 13 C-5 14 -6 15 -7 16 C-9 18 -9 18 -13 21 C-17 21 -17 21 -20 20 C-20 20 -21 21 -21 21 C-23 21 -25 21 -27 21 C-27 20 -28 18 -28 17 C-25 14 -22 13 -18 12 C-17 11 -17 9 -16 8 C-15 8 -15 7 -14 7 C-14 6 -13 4 -13 3 C-5 -1 -5 -1 0 0 Z " fill="#F04F17" transform="translate(137,426)"/>
<path d="M0 0 C4 2 5 4 6 7 C6 8 6 8 6 11 C-0 16 -5 18 -13 19 C-18 18 -18 18 -22 15 C-22 13 -21 12 -21 10 C-15 10 -15 10 -13 11 C-12 10 -12 8 -11 7 C-6 -1 -6 -1 0 0 Z " fill="#50586A" transform="translate(267,502)"/>
<path d="M0 0 C0 2 0 3 0 5 C-2 7 -2 7 -5 9 C-6 11 -8 12 -9 14 C-10 15 -11 15 -12 16 C-12 17 -12 19 -12 20 C-10 21 -9 21 -7 22 C-0 26 -0 26 2 28 C-5 28 -9 25 -15 21 C-18 19 -22 18 -25 16 C-25 17 -26 18 -26 19 C-27 19 -27 18 -28 18 C-28 16 -28 14 -28 12 C-25 9 -25 9 -22 7 C-21 7 -21 7 -18 5 C-14 3 -11 3 -6 3 C-1 0 -1 0 0 0 Z " fill="#F3F3F2" transform="translate(279,451)"/>
<path d="M0 0 C4 2 7 5 10 8 C8 12 8 12 3 14 C-0 14 -3 14 -7 14 C-8 14 -8 14 -12 14 C-16 14 -16 14 -18 12 C-17 6 -14 4 -9 0 C-6 -2 -4 -1 0 0 Z " fill="#F49727" transform="translate(385,128)"/>
<path d="M0 0 C2 5 1 8 -1 12 C-2 14 -3 15 -4 17 C-5 17 -5 17 -6 17 C-6 18 -6 18 -8 22 C-13 29 -18 36 -27 38 C-28 35 -28 32 -29 29 C-28 29 -28 29 -26 29 C-22 29 -22 29 -19 26 C-17 22 -14 17 -12 13 C-6 0 -6 0 0 0 Z " fill="#191A1F" transform="translate(198,274)"/>
<path d="M0 0 C5 4 7 7 8 13 C9 18 10 22 12 26 C11 25 9 25 8 24 C8 23 7 22 7 21 C4 22 4 22 1 23 C1 24 1 24 -2 28 C-3 28 -3 28 -4 28 C-6 21 -7 14 -6 7 C-3 3 -3 3 0 0 Z " fill="#4F5769" transform="translate(360,380)"/>
<path d="M0 0 C1 1 3 2 4 3 C9 3 9 3 13 3 C12 8 12 8 9 12 C2 13 -5 12 -12 11 C-12 10 -12 8 -12 7 C-13 7 -14 7 -15 7 C-15 3 -15 3 -14 -1 C-8 -4 -6 -2 0 0 Z " fill="#FDBB3F" transform="translate(127,496)"/>
<path d="M0 0 C0 1 1 2 1 3 C3 3 4 4 6 4 C7 4 8 5 9 5 C14 6 18 5 23 3 C27 2 30 2 34 2 C34 3 34 3 34 4 C31 6 28 7 24 9 C23 9 21 10 19 11 C14 13 14 13 8 13 C7 12 5 12 4 11 C2 11 -1 11 -3 10 C-5 10 -6 10 -7 10 C-8 10 -9 10 -10 10 C-10 9 -10 8 -10 7 C-9 6 -7 5 -6 4 C-8 4 -9 3 -11 3 C-7 -0 -5 -1 0 0 Z " fill="#F3F3F2" transform="translate(390,468)"/>
<path d="M0 0 C1 1 1 3 2 4 C-1 11 -8 14 -15 17 C-16 17 -17 16 -18 16 C-18 15 -18 13 -18 12 C-20 9 -21 7 -23 4 C-15 0 -9 -1 0 0 Z " fill="#464D5F" transform="translate(261,436)"/>
<path d="M0 0 C2 0 4 0 6 0 C6 1 6 1 6 2 C7 2 7 2 8 2 C8 3 9 5 9 6 C10 6 11 7 12 8 C13 8 13 8 15 9 C14 13 14 13 13 16 C7 17 3 18 -2 15 C-5 13 -5 13 -6 11 C-7 11 -7 11 -11 9 C-11 8 -11 7 -11 6 C-7 4 -4 4 1 4 C0 3 -0 2 -1 1 C-1 1 -0 0 0 0 Z " fill="#FDB52E" transform="translate(157,497)"/>
<path d="M0 0 C-0 1 -1 2 -1 3 C-4 4 -7 6 -10 7 C-10 8 -9 10 -9 11 C-10 11 -10 11 -11 11 C-11 12 -11 12 -11 13 C-9 13 -8 14 -6 14 C-1 15 -1 15 1 18 C0 19 0 19 -4 19 C-12 18 -20 15 -26 10 C-26 8 -25 7 -25 5 C-21 3 -18 2 -14 1 C-13 1 -13 1 -10 1 C-6 0 -6 0 0 0 Z " fill="#888E9F" transform="translate(217,359)"/>
<path d="M0 0 C3 1 3 1 7 5 C7 7 7 9 7 11 C7 11 7 11 3 13 C2 12 1 11 -1 10 C-7 10 -7 10 -12 12 C-12 13 -13 15 -14 17 C-16 19 -16 19 -19 22 C-27 29 -27 29 -28 32 C-28 32 -29 32 -30 32 C-30 33 -31 34 -32 36 C-36 39 -36 39 -40 43 C-40 42 -41 42 -42 42 C-41 41 -40 40 -39 39 C-35 35 -31 30 -27 26 C-25 23 -22 20 -20 18 C-19 17 -18 16 -17 15 C-15 12 -12 9 -10 7 C-9 6 -8 4 -7 3 C-4 1 -4 1 0 0 Z " fill="#F15C26" transform="translate(93.625,482.375)"/>
<path d="M0 0 C1 0 2 0 4 0 C4 2 5 3 6 4 C7 4 8 4 10 4 C10 6 10 7 10 8 C14 9 17 9 22 9 C22 10 22 10 22 10 C15 12 8 12 1 12 C0 12 0 12 -3 12 C-4 13 -4 14 -4 15 C-4 15 -4 14 -4 13 C-6 13 -7 13 -8 13 C-9 13 -10 13 -11 12 C-12 11 -13 9 -13 7 C-10 4 -8 3 -4 1 C-3 0 -3 0 0 0 Z " fill="#F89028" transform="translate(105.4375,498.6875)"/>
<path d="M0 0 C4 4 6 8 8 13 C8 14 8 16 8 17 C6 17 5 17 3 17 C3 17 2 16 2 16 C-5 15 -5 15 -9 18 C-11 21 -13 25 -15 28 C-15 28 -16 28 -16 28 C-16 18 -16 18 -15 14 C-14 13 -12 13 -11 12 C-7 10 -6 9 -4 4 C-3 4 -2 4 -1 4 C-1 3 -0 1 0 0 Z " fill="#F3F3F2" transform="translate(403,78)"/>
<path d="M0 0 C1 0 2 0 3 0 C7 11 8 22 8 33 C5 30 5 30 5 25 C5 23 5 22 5 20 C5 19 4 18 4 17 C0 17 0 17 -5 19 C-5 20 -5 20 -7 24 C-8 24 -9 25 -10 25 C-11 15 -11 15 -8 11 C-7 10 -6 10 -5 9 C-1 5 -1 5 0 0 Z " fill="#EFEFEF" transform="translate(417,118)"/>
<path d="M0 0 C1 0 1 0 2 0 C2 1 2 3 2 4 C1 4 -1 5 -2 5 C-3 8 -3 8 -4 11 C-5 12 -5 12 -6 13 C-6 15 -6 17 -6 19 C-9 21 -9 21 -13 23 C-14 23 -15 22 -16 22 C-18 22 -20 22 -22 22 C-22 17 -22 17 -20 12 C-16 10 -16 10 -12 8 C-11 7 -10 7 -9 6 C-7 4 -4 4 -1 3 C-1 2 -0 1 0 0 Z " fill="#FCAD2D" transform="translate(202,496)"/>
<path d="M0 0 C4 0 9 1 13 2 C14 2 16 2 17 3 C18 3 19 3 20 3 C12 11 12 11 8 11 C4 11 4 11 0 10 C-3 10 -6 9 -9 8 C-5 0 -5 0 0 0 Z " fill="#FCA12A" transform="translate(166.59375,419.78125)"/>
<path d="M0 0 C0 4 -2 6 -4 10 C-5 10 -5 10 -6 14 C-9 17 -11 20 -15 22 C-21 21 -23 19 -28 15 C-29 14 -31 13 -32 11 C-36 8 -39 5 -43 2 C-42 2 -42 1 -41 1 C-39 2 -37 4 -35 5 C-34 6 -33 6 -32 7 C-32 8 -32 9 -32 10 C-29 11 -29 11 -26 12 C-24 13 -23 13 -21 14 C-16 13 -16 13 -12 11 C-11 9 -11 8 -10 6 C-8 5 -6 5 -4 4 C-3 3 -1 1 0 0 Z " fill="#4F5769" transform="translate(582,332)"/>
<path d="M0 0 C4 0 8 1 12 2 C17 3 22 3 27 3 C27 4 26 6 26 7 C20 7 20 7 16 6 C12 9 10 11 8 15 C7 16 7 17 6 18 C4 18 3 19 1 19 C2 18 2 16 3 15 C2 11 2 11 1 8 C0 8 -0 8 -1 8 C-1 5 -0 3 0 0 Z " fill="#FDEBAA" transform="translate(164,438)"/>
<path d="M0 0 C-1 3 -1 3 -2 7 C-6 8 -10 8 -14 8 C-15 8 -16 8 -18 8 C-21 7 -21 7 -25 4 C-24 0 -24 0 -21 -2 C-13 -4 -7 -4 0 0 Z " fill="#FCFBF6" transform="translate(405,451)"/>
<path d="M0 0 C1 0 1 1 2 1 C2 2 2 4 2 5 C4 5 5 6 7 6 C12 10 18 15 21 21 C10 23 10 23 6 20 C5 19 5 18 4 17 C3 16 3 15 2 14 C-2 7 -2 7 -1 2 C-1 2 -0 1 0 0 Z " fill="#F3F3F2" transform="translate(512,324)"/>
<path d="M0 0 C0 1 1 1 1 2 C3 2 4 3 6 3 C6 4 7 5 7 6 C8 6 8 6 11 6 C12 6 12 6 15 6 C18 10 18 10 18 13 C14 13 9 13 5 13 C4 13 3 13 1 13 C-2 13 -5 12 -8 12 C-8 11 -9 9 -9 8 C-3 2 -3 2 0 0 Z " fill="#ED6029" transform="translate(95,449)"/>
<path d="M0 0 C4 -0 4 -0 9 0 C9 2 10 3 10 5 C5 6 5 6 2 4 C1 3 1 3 0 2 C0 1 0 1 0 0 Z " fill="#FEFEFD" transform="translate(93,549)"/>
<path d="M0 0 C2 0 3 0 5 0 C5 1 6 1 6 2 C4 2 2 2 0 2 C0 1 0 1 0 0 Z " fill="#FAFAF9" transform="translate(37,221)"/>
<path d="M0 0 C1 0 1 0 2 0 C2 1 2 1 2 2 C1 2 1 2 0 2 C0 1 0 1 0 0 Z " fill="#F3F3F2" transform="translate(545,493)"/>
<path d="M0 0 C1 0 1 0 2 0 C2 1 2 1 2 2 C1 2 1 2 0 2 C0 1 0 1 0 0 Z " fill="#F3F3F2" transform="translate(73,221)"/>
</svg>
