<?xml version="1.0" encoding="UTF-8"?>
<!-- Generator: visioncortex VTracer 0.6.12 -->
<svg version="1.1" xmlns="http://www.w3.org/2000/svg" width="560" height="588">
<path d="M0 0 C4 -1 4 -1 8 -1 C9 -1 9 -1 13 -1 C15 -1 16 -1 18 -0 C20 -1 21 -1 23 -1 C25 -1 26 -1 28 -1 C29 -1 31 -1 32 -1 C34 -0 35 -0 36 0 C36 1 36 1 38 4 C41 4 41 4 45 4 C49 4 49 4 52 4 C52 5 52 5 54 8 C56 8 57 8 59 8 C61 8 62 8 64 8 C65 9 65 11 66 12 C68 12 70 12 72 12 C73 13 73 15 74 16 C76 16 78 16 80 16 C81 17 81 19 82 20 C84 20 86 20 88 20 C89 21 89 23 90 24 C91 24 91 24 94 26 C94 27 94 27 94 28 C95 28 95 28 98 30 C98 31 98 31 98 32 C99 33 101 33 102 34 C102 35 102 35 102 36 C103 37 105 37 106 38 C106 39 106 39 106 40 C107 41 109 41 110 42 C110 43 110 43 110 44 C111 45 113 45 114 46 C114 47 114 47 114 48 C115 49 117 49 118 50 C118 51 118 51 118 52 C119 53 121 53 122 54 C122 55 122 55 122 56 C123 56 124 56 125 56 C125 57 125 58 125 59 C126 61 126 62 126 63 C127 63 128 64 129 64 C129 66 130 69 130 71 C131 71 132 72 133 72 C133 74 134 77 134 79 C135 79 136 80 137 80 C137 82 138 85 138 87 C139 87 140 88 141 88 C141 92 142 95 142 99 C143 99 144 100 145 100 C145 104 146 108 146 112 C146 113 146 114 146 115 C147 115 148 116 149 116 C149 120 150 124 150 128 C150 129 150 130 150 131 C151 131 152 132 153 132 C153 138 153 144 154 149 C154 153 154 156 154 159 C155 159 156 160 157 160 C157 163 157 163 157 167 C157 168 157 170 157 171 C157 174 158 177 158 180 C158 181 158 183 158 184 C158 185 158 187 158 188 C158 189 158 190 158 191 C159 191 160 192 161 192 C161 197 162 202 162 207 C162 208 162 210 162 211 C163 211 164 212 165 212 C165 216 166 219 166 223 C167 223 168 224 169 224 C169 228 170 231 170 235 C171 236 172 236 173 237 C173 238 173 239 173 240 C174 241 174 242 174 243 C177 244 177 244 181 244 C182 244 183 244 185 244 C185 244 185 244 189 244 C192 244 194 244 197 244 C199 244 200 244 201 244 C202 244 203 244 204 244 C205 245 205 247 206 248 C210 248 210 248 215 248 C220 248 220 248 224 248 C225 249 225 251 226 252 C228 252 229 252 231 252 C233 252 234 252 236 252 C237 253 237 255 238 256 C240 256 242 256 244 256 C245 257 245 259 246 260 C248 260 250 260 252 260 C253 261 253 263 254 264 C256 264 258 264 260 264 C261 265 261 267 262 268 C263 269 265 269 266 270 C266 271 266 271 266 272 C267 273 269 273 270 274 C270 275 270 275 270 276 C271 277 273 277 274 278 C274 279 274 279 274 280 C275 281 277 281 278 282 C278 283 278 283 278 284 C279 285 281 285 282 286 C282 287 282 287 282 288 C283 289 285 289 286 290 C286 291 286 291 286 292 C287 293 289 293 290 294 C290 295 290 295 290 296 C291 296 292 296 293 296 C293 297 293 298 293 299 C294 303 294 303 298 306 C298 307 298 307 298 308 C299 308 300 308 301 308 C301 309 301 310 301 311 C301 312 301 312 302 315 C303 315 304 316 305 316 C305 318 306 321 306 323 C307 323 308 324 309 324 C309 328 310 332 310 336 C310 337 310 338 310 339 C311 339 312 340 313 340 C313 344 313 348 313 353 C313 354 313 355 313 357 C313 359 313 362 313 365 C313 369 313 373 313 377 C313 380 313 383 313 385 C313 387 313 388 313 389 C313 392 313 395 313 398 C312 398 311 399 310 399 C310 401 310 403 310 404 C309 406 309 408 309 410 C308 410 307 411 306 411 C306 412 306 413 306 414 C305 416 305 417 305 418 C304 418 303 419 302 419 C302 420 302 421 302 422 C301 424 301 425 301 426 C300 426 299 427 298 427 C298 428 298 429 298 430 C297 432 297 433 297 434 C296 434 295 435 294 435 C293 439 293 439 293 442 C292 442 291 442 290 442 C289 443 289 445 288 446 C287 446 287 446 286 446 C285 447 285 449 284 450 C283 450 283 450 282 450 C281 451 281 453 280 454 C279 454 279 454 278 454 C277 455 277 457 276 458 C275 458 275 458 274 458 C273 459 273 461 272 462 C271 462 271 462 270 462 C269 463 269 465 268 466 C267 466 267 466 266 466 C265 467 265 469 264 470 C262 470 260 470 258 470 C257 471 257 473 256 474 C254 474 252 474 250 474 C249 475 249 477 248 478 C246 478 244 478 242 478 C241 479 241 481 240 482 C238 482 236 482 234 482 C233 483 233 485 232 486 C228 486 225 486 221 486 C220 486 219 486 218 486 C217 487 217 489 216 490 C212 490 208 491 204 491 C204 491 204 491 201 491 C199 491 196 491 194 491 C190 491 186 491 183 491 C180 491 178 491 176 491 C174 491 173 491 172 491 C169 491 169 491 164 490 C163 489 163 487 162 486 C160 486 159 486 157 486 C155 486 154 486 152 486 C151 485 151 483 150 482 C148 482 147 482 145 482 C143 482 142 482 140 482 C139 481 139 479 138 478 C136 478 134 478 132 478 C131 477 131 475 130 474 C126 474 126 474 122 474 C121 475 121 477 120 478 C118 478 116 478 114 478 C113 479 113 481 112 482 C110 482 108 482 106 482 C105 483 105 485 104 486 C101 487 101 487 98 487 C98 488 98 490 98 491 C100 491 101 491 103 491 C105 491 106 492 108 492 C109 493 109 495 110 496 C112 496 113 496 115 496 C117 496 118 496 120 496 C121 497 121 499 122 500 C123 501 125 501 126 502 C126 503 126 503 126 504 C127 504 128 504 129 504 C134 504 138 504 143 504 C144 504 146 504 148 504 C149 504 149 504 152 504 C154 504 155 504 157 504 C157 504 157 504 160 504 C161 505 161 507 162 508 C166 508 169 508 173 508 C177 508 180 508 184 508 C185 509 185 511 186 512 C188 512 190 512 192 512 C193 513 193 515 194 516 C195 516 196 517 197 517 C197 519 196 520 196 522 C194 522 192 522 190 522 C189 523 189 525 188 526 C183 526 179 526 174 526 C173 526 173 526 170 526 C169 527 169 529 168 530 C163 530 159 530 154 530 C151 530 149 530 146 530 C145 531 145 533 144 534 C141 534 141 534 138 534 C137 534 137 534 134 534 C132 534 131 534 129 534 C129 534 129 534 125 534 C119 534 112 534 106 534 C102 534 97 534 93 534 C91 534 90 534 88 534 C88 534 88 534 84 534 C83 534 82 534 81 534 C80 534 79 534 78 534 C77 535 77 537 76 538 C72 538 68 539 63 539 C62 539 61 539 59 539 C55 539 51 539 46 539 C43 539 40 539 37 539 C31 539 24 539 18 539 C10 538 1 539 -7 539 C-13 539 -19 539 -26 539 C-29 539 -32 539 -35 539 C-39 539 -43 539 -47 539 C-48 539 -48 539 -51 539 C-55 539 -55 539 -60 538 C-61 537 -61 535 -62 534 C-66 534 -70 534 -74 534 C-75 534 -76 534 -78 534 C-81 534 -85 534 -89 534 C-94 534 -99 534 -104 534 C-105 534 -105 534 -108 534 C-111 534 -111 534 -116 534 C-117 533 -117 531 -118 530 C-122 530 -127 530 -131 530 C-135 530 -140 530 -144 530 C-145 529 -145 527 -146 526 C-149 526 -149 526 -153 526 C-157 526 -157 526 -160 526 C-161 525 -161 523 -162 522 C-164 522 -166 522 -168 522 C-168 521 -168 521 -169 517 C-168 517 -167 516 -166 516 C-165 515 -165 513 -164 512 C-161 512 -157 512 -154 512 C-153 511 -153 509 -152 508 C-147 508 -143 508 -138 508 C-135 508 -133 508 -130 508 C-129 507 -129 505 -128 504 C-125 504 -125 504 -121 504 C-120 504 -119 504 -117 504 C-114 504 -112 504 -109 504 C-107 504 -106 504 -105 504 C-103 504 -102 504 -101 504 C-100 504 -99 504 -98 504 C-97 503 -97 501 -96 500 C-95 500 -95 500 -94 500 C-93 499 -93 497 -92 496 C-89 495 -89 495 -85 495 C-84 495 -82 495 -81 495 C-80 495 -79 495 -78 495 C-78 492 -78 490 -78 487 C-80 487 -81 487 -83 487 C-84 487 -84 487 -88 486 C-89 485 -89 483 -90 482 C-92 482 -94 482 -96 482 C-97 481 -97 479 -98 478 C-100 478 -102 478 -104 478 C-105 477 -105 475 -106 474 C-107 473 -109 473 -110 472 C-110 471 -110 471 -110 470 C-112 470 -114 470 -116 470 C-117 469 -117 467 -118 466 C-119 465 -121 465 -122 464 C-122 463 -122 463 -122 462 C-123 461 -125 461 -126 460 C-126 459 -126 459 -126 458 C-128 458 -130 458 -132 458 C-133 458 -134 458 -135 458 C-136 458 -136 458 -138 458 C-139 459 -139 461 -140 462 C-144 462 -144 462 -148 462 C-148 461 -148 461 -150 458 C-154 458 -154 458 -157 458 C-157 457 -157 456 -157 455 C-157 453 -158 452 -158 451 C-162 450 -165 450 -169 450 C-169 450 -169 450 -172 450 C-173 449 -173 447 -174 446 C-175 445 -177 445 -178 444 C-178 443 -178 443 -178 442 C-179 441 -181 441 -182 440 C-182 439 -182 439 -182 438 C-183 438 -184 438 -185 438 C-185 436 -185 434 -185 433 C-186 431 -186 429 -186 427 C-187 427 -188 426 -189 426 C-189 422 -190 419 -190 415 C-191 415 -192 414 -193 414 C-193 408 -193 402 -194 397 C-194 393 -194 390 -194 387 C-195 387 -196 386 -197 386 C-197 382 -197 377 -197 373 C-197 372 -197 371 -197 369 C-197 366 -197 363 -197 360 C-196 360 -195 359 -194 359 C-194 354 -194 350 -194 346 C-193 341 -193 337 -193 332 C-192 332 -191 331 -190 331 C-190 328 -190 328 -190 324 C-189 319 -189 319 -189 316 C-188 316 -187 315 -186 315 C-186 313 -186 311 -186 310 C-185 308 -185 306 -185 304 C-184 304 -183 303 -182 303 C-182 301 -182 299 -182 298 C-181 296 -181 294 -181 292 C-180 292 -179 291 -178 291 C-177 287 -177 287 -177 284 C-176 284 -175 284 -174 284 C-174 283 -174 283 -172 280 C-171 280 -171 279 -170 279 C-170 278 -170 277 -170 276 C-169 274 -169 273 -169 272 C-168 272 -167 271 -166 271 C-165 267 -165 267 -165 264 C-164 264 -163 264 -162 264 C-161 263 -161 261 -160 260 C-159 260 -159 259 -158 259 C-158 257 -157 254 -157 252 C-156 252 -155 252 -154 252 C-153 251 -153 249 -152 248 C-151 248 -151 247 -150 247 C-150 246 -150 245 -150 244 C-149 243 -149 243 -149 240 C-148 240 -147 239 -146 239 C-146 237 -146 235 -146 234 C-145 232 -145 230 -145 228 C-144 228 -143 227 -142 227 C-142 225 -142 223 -142 222 C-141 220 -141 218 -141 216 C-140 216 -139 215 -138 215 C-138 213 -138 211 -138 210 C-137 208 -137 206 -137 204 C-136 204 -135 203 -134 203 C-134 199 -134 199 -134 194 C-133 188 -133 188 -133 184 C-132 184 -131 183 -130 183 C-130 178 -130 174 -130 170 C-129 165 -129 161 -129 156 C-128 156 -127 155 -126 155 C-126 151 -126 147 -126 144 C-125 140 -125 136 -125 132 C-124 132 -123 131 -122 131 C-122 128 -122 128 -122 124 C-121 119 -121 119 -121 116 C-120 116 -119 115 -118 115 C-118 113 -118 111 -118 110 C-117 108 -117 106 -117 104 C-116 104 -115 103 -114 103 C-114 101 -114 99 -114 98 C-113 96 -113 94 -113 92 C-112 92 -111 91 -110 91 C-110 90 -110 89 -110 88 C-109 86 -109 85 -109 84 C-108 84 -107 83 -106 83 C-106 82 -106 81 -106 80 C-105 78 -105 77 -105 76 C-104 76 -103 75 -102 75 C-102 74 -102 73 -102 72 C-101 70 -101 69 -101 68 C-100 68 -99 67 -98 67 C-97 63 -97 63 -97 60 C-96 60 -95 60 -94 60 C-93 59 -93 57 -92 56 C-91 56 -91 56 -90 56 C-89 55 -89 53 -88 52 C-87 52 -87 51 -86 51 C-86 49 -85 46 -85 44 C-84 44 -83 44 -82 44 C-81 43 -81 41 -80 40 C-79 40 -79 40 -78 40 C-77 39 -77 37 -76 36 C-75 36 -75 36 -74 36 C-73 35 -73 33 -72 32 C-71 32 -71 32 -70 32 C-69 31 -69 29 -68 28 C-66 28 -64 28 -62 28 C-61 27 -61 25 -60 24 C-59 24 -59 24 -58 24 C-57 23 -57 21 -56 20 C-55 20 -55 20 -54 20 C-53 19 -53 17 -52 16 C-50 16 -48 16 -46 16 C-45 15 -45 13 -44 12 C-41 12 -37 12 -34 12 C-33 11 -33 9 -32 8 C-29 8 -25 8 -22 8 C-21 7 -21 5 -20 4 C-15 4 -11 4 -6 4 C-5 4 -3 4 -2 4 C-1 3 -1 1 0 0 Z " fill="#C8CAD4" transform="translate(222,25)"/>
<path d="M0 0 C4 -1 4 -1 8 -1 C9 -1 9 -1 13 -1 C15 -1 16 -1 18 -0 C20 -1 21 -1 23 -1 C25 -1 26 -1 28 -1 C29 -1 31 -1 32 -1 C34 -0 35 -0 36 0 C36 1 36 1 38 4 C41 4 41 4 45 4 C49 4 49 4 52 4 C52 5 52 5 54 8 C56 8 57 8 59 8 C61 8 62 8 64 8 C65 9 65 11 66 12 C68 12 70 12 72 12 C73 13 73 15 74 16 C76 16 78 16 80 16 C81 17 81 19 82 20 C84 20 86 20 88 20 C89 21 89 23 90 24 C91 24 91 24 94 26 C94 27 94 27 94 28 C95 28 95 28 98 30 C98 31 98 31 98 32 C99 33 101 33 102 34 C102 35 102 35 102 36 C103 37 105 37 106 38 C106 39 106 39 106 40 C107 41 109 41 110 42 C110 43 110 43 110 44 C111 45 113 45 114 46 C114 47 114 47 114 48 C115 49 117 49 118 50 C118 51 118 51 118 52 C119 53 121 53 122 54 C122 55 122 55 122 56 C123 56 124 56 125 56 C125 57 125 58 125 59 C126 61 126 62 126 63 C127 63 128 64 129 64 C129 66 130 69 130 71 C131 71 132 72 133 72 C133 74 134 77 134 79 C135 79 136 80 137 80 C137 82 138 85 138 87 C139 87 140 88 141 88 C141 92 142 95 142 99 C143 99 144 100 145 100 C145 104 146 108 146 112 C146 113 146 114 146 115 C147 115 148 116 149 116 C149 120 150 124 150 128 C150 129 150 130 150 131 C151 131 152 132 153 132 C153 138 153 144 154 149 C154 153 154 156 154 159 C155 159 156 160 157 160 C157 163 157 163 157 167 C157 168 157 170 157 171 C157 174 158 177 158 180 C158 181 158 183 158 184 C158 185 158 187 158 188 C158 189 158 190 158 191 C159 191 160 192 161 192 C161 197 162 202 162 207 C162 208 162 210 162 211 C163 211 164 212 165 212 C165 216 166 219 166 223 C167 223 168 224 169 224 C169 228 170 231 170 235 C171 236 172 236 173 237 C173 238 173 239 173 240 C174 241 174 242 174 243 C177 244 177 244 181 244 C182 244 183 244 185 244 C185 244 185 244 189 244 C192 244 194 244 197 244 C199 244 200 244 201 244 C202 244 203 244 204 244 C205 245 205 247 206 248 C210 248 210 248 215 248 C220 248 220 248 224 248 C225 249 225 251 226 252 C228 252 229 252 231 252 C233 252 234 252 236 252 C237 253 237 255 238 256 C240 256 242 256 244 256 C245 257 245 259 246 260 C248 260 250 260 252 260 C253 261 253 263 254 264 C256 264 258 264 260 264 C261 265 261 267 262 268 C263 269 265 269 266 270 C266 271 266 271 266 272 C267 273 269 273 270 274 C270 275 270 275 270 276 C271 277 273 277 274 278 C274 279 274 279 274 280 C275 281 277 281 278 282 C278 283 278 283 278 284 C279 285 281 285 282 286 C282 287 282 287 282 288 C283 289 285 289 286 290 C286 291 286 291 286 292 C287 293 289 293 290 294 C290 295 290 295 290 296 C291 296 292 296 293 296 C293 297 293 298 293 299 C294 303 294 303 298 306 C298 307 298 307 298 308 C299 308 300 308 301 308 C301 309 301 310 301 311 C301 312 301 312 302 315 C303 315 304 316 305 316 C305 318 306 321 306 323 C307 323 308 324 309 324 C309 328 310 332 310 336 C310 337 310 338 310 339 C311 339 312 340 313 340 C313 344 313 348 313 353 C313 354 313 355 313 357 C313 359 313 362 313 365 C313 369 313 373 313 377 C313 380 313 383 313 385 C313 387 313 388 313 389 C313 392 313 395 313 398 C312 398 311 399 310 399 C310 401 310 403 310 404 C309 406 309 408 309 410 C308 410 307 411 306 411 C306 412 306 413 306 414 C305 416 305 417 305 418 C304 418 303 419 302 419 C302 420 302 421 302 422 C301 424 301 425 301 426 C300 426 299 427 298 427 C298 428 298 429 298 430 C297 432 297 433 297 434 C296 434 295 435 294 435 C293 439 293 439 293 442 C292 442 291 442 290 442 C289 443 289 445 288 446 C287 446 287 446 286 446 C285 447 285 449 284 450 C283 450 283 450 282 450 C281 451 281 453 280 454 C279 454 279 454 278 454 C277 455 277 457 276 458 C275 458 275 458 274 458 C273 459 273 461 272 462 C271 462 271 462 270 462 C269 463 269 465 268 466 C267 466 267 466 266 466 C265 467 265 469 264 470 C262 470 260 470 258 470 C257 471 257 473 256 474 C254 474 252 474 250 474 C249 475 249 477 248 478 C246 478 244 478 242 478 C241 479 241 481 240 482 C238 482 236 482 234 482 C233 483 233 485 232 486 C228 486 225 486 221 486 C220 486 219 486 218 486 C217 487 217 489 216 490 C212 490 208 491 204 491 C204 491 204 491 201 491 C199 491 196 491 194 491 C190 491 186 491 183 491 C180 491 178 491 176 491 C174 491 173 491 172 491 C169 491 169 491 164 490 C163 489 163 487 162 486 C160 486 159 486 157 486 C155 486 154 486 152 486 C151 485 151 483 150 482 C148 482 147 482 145 482 C143 482 142 482 140 482 C139 481 139 479 138 478 C136 478 134 478 132 478 C131 477 131 475 130 474 C126 474 126 474 122 474 C121 475 121 477 120 478 C118 478 116 478 114 478 C113 479 113 481 112 482 C110 482 108 482 106 482 C105 483 105 485 104 486 C101 487 101 487 98 487 C98 488 98 490 98 491 C100 491 101 491 103 491 C105 491 106 492 108 492 C109 493 109 495 110 496 C112 496 113 496 115 496 C117 496 118 496 120 496 C121 497 121 499 122 500 C123 501 125 501 126 502 C126 503 126 503 126 504 C127 504 128 504 129 504 C134 504 138 504 143 504 C144 504 146 504 148 504 C149 504 149 504 152 504 C154 504 155 504 157 504 C157 504 157 504 160 504 C161 505 161 507 162 508 C166 508 169 508 173 508 C177 508 180 508 184 508 C185 509 185 511 186 512 C188 512 190 512 192 512 C193 513 193 515 194 516 C195 516 196 517 197 517 C197 519 196 520 196 522 C194 522 192 522 190 522 C189 523 189 525 188 526 C183 526 179 526 174 526 C173 526 173 526 170 526 C169 527 169 529 168 530 C163 530 159 530 154 530 C151 530 149 530 146 530 C145 531 145 533 144 534 C141 534 141 534 138 534 C137 534 137 534 134 534 C132 534 131 534 129 534 C129 534 129 534 125 534 C119 534 112 534 106 534 C102 534 97 534 93 534 C91 534 90 534 88 534 C88 534 88 534 84 534 C83 534 82 534 81 534 C80 534 79 534 78 534 C77 535 77 537 76 538 C72 538 68 539 63 539 C62 539 61 539 59 539 C55 539 51 539 46 539 C43 539 40 539 37 539 C31 539 24 539 18 539 C10 538 1 539 -7 539 C-13 539 -19 539 -26 539 C-29 539 -32 539 -35 539 C-39 539 -43 539 -47 539 C-48 539 -48 539 -51 539 C-55 539 -55 539 -60 538 C-61 537 -61 535 -62 534 C-66 534 -70 534 -74 534 C-75 534 -76 534 -78 534 C-81 534 -85 534 -89 534 C-94 534 -99 534 -104 534 C-105 534 -105 534 -108 534 C-111 534 -111 534 -116 534 C-117 533 -117 531 -118 530 C-122 530 -127 530 -131 530 C-135 530 -140 530 -144 530 C-145 529 -145 527 -146 526 C-149 526 -149 526 -153 526 C-157 526 -157 526 -160 526 C-161 525 -161 523 -162 522 C-164 522 -166 522 -168 522 C-168 521 -168 521 -169 517 C-168 517 -167 516 -166 516 C-165 515 -165 513 -164 512 C-161 512 -157 512 -154 512 C-153 511 -153 509 -152 508 C-147 508 -143 508 -138 508 C-135 508 -133 508 -130 508 C-129 507 -129 505 -128 504 C-125 504 -125 504 -121 504 C-120 504 -119 504 -117 504 C-114 504 -112 504 -109 504 C-107 504 -106 504 -105 504 C-103 504 -102 504 -101 504 C-100 504 -99 504 -98 504 C-97 503 -97 501 -96 500 C-95 500 -95 500 -94 500 C-93 499 -93 497 -92 496 C-89 495 -89 495 -85 495 C-84 495 -82 495 -81 495 C-80 495 -79 495 -78 495 C-78 492 -78 490 -78 487 C-80 487 -81 487 -83 487 C-84 487 -84 487 -88 486 C-89 485 -89 483 -90 482 C-92 482 -94 482 -96 482 C-97 481 -97 479 -98 478 C-100 478 -102 478 -104 478 C-105 477 -105 475 -106 474 C-107 473 -109 473 -110 472 C-110 471 -110 471 -110 470 C-112 470 -114 470 -116 470 C-117 469 -117 467 -118 466 C-119 465 -121 465 -122 464 C-122 463 -122 463 -122 462 C-123 461 -125 461 -126 460 C-126 459 -126 459 -126 458 C-128 458 -130 458 -132 458 C-133 458 -134 458 -135 458 C-136 458 -136 458 -138 458 C-139 459 -139 461 -140 462 C-144 462 -144 462 -148 462 C-148 461 -148 461 -150 458 C-154 458 -154 458 -157 458 C-157 457 -157 456 -157 455 C-157 453 -158 452 -158 451 C-162 450 -165 450 -169 450 C-169 450 -169 450 -172 450 C-173 449 -173 447 -174 446 C-175 445 -177 445 -178 444 C-178 443 -178 443 -178 442 C-179 441 -181 441 -182 440 C-182 439 -182 439 -182 438 C-183 438 -184 438 -185 438 C-185 436 -185 434 -185 433 C-186 431 -186 429 -186 427 C-187 427 -188 426 -189 426 C-189 422 -190 419 -190 415 C-191 415 -192 414 -193 414 C-193 408 -193 402 -194 397 C-194 393 -194 390 -194 387 C-195 387 -196 386 -197 386 C-197 382 -197 377 -197 373 C-197 372 -197 371 -197 369 C-197 366 -197 363 -197 360 C-196 360 -195 359 -194 359 C-194 354 -194 350 -194 346 C-193 341 -193 337 -193 332 C-192 332 -191 331 -190 331 C-190 328 -190 328 -190 324 C-189 319 -189 319 -189 316 C-188 316 -187 315 -186 315 C-186 313 -186 311 -186 310 C-185 308 -185 306 -185 304 C-184 304 -183 303 -182 303 C-182 301 -182 299 -182 298 C-181 296 -181 294 -181 292 C-180 292 -179 291 -178 291 C-177 287 -177 287 -177 284 C-176 284 -175 284 -174 284 C-174 283 -174 283 -172 280 C-171 280 -171 279 -170 279 C-170 278 -170 277 -170 276 C-169 274 -169 273 -169 272 C-168 272 -167 271 -166 271 C-165 267 -165 267 -165 264 C-164 264 -163 264 -162 264 C-161 263 -161 261 -160 260 C-159 260 -159 259 -158 259 C-158 257 -157 254 -157 252 C-156 252 -155 252 -154 252 C-153 251 -153 249 -152 248 C-151 248 -151 247 -150 247 C-150 246 -150 245 -150 244 C-149 243 -149 243 -149 240 C-148 240 -147 239 -146 239 C-146 237 -146 235 -146 234 C-145 232 -145 230 -145 228 C-144 228 -143 227 -142 227 C-142 225 -142 223 -142 222 C-141 220 -141 218 -141 216 C-140 216 -139 215 -138 215 C-138 213 -138 211 -138 210 C-137 208 -137 206 -137 204 C-136 204 -135 203 -134 203 C-134 199 -134 199 -134 194 C-133 188 -133 188 -133 184 C-132 184 -131 183 -130 183 C-130 178 -130 174 -130 170 C-129 165 -129 161 -129 156 C-128 156 -127 155 -126 155 C-126 151 -126 147 -126 144 C-125 140 -125 136 -125 132 C-124 132 -123 131 -122 131 C-122 128 -122 128 -122 124 C-121 119 -121 119 -121 116 C-120 116 -119 115 -118 115 C-118 113 -118 111 -118 110 C-117 108 -117 106 -117 104 C-116 104 -115 103 -114 103 C-114 101 -114 99 -114 98 C-113 96 -113 94 -113 92 C-112 92 -111 91 -110 91 C-110 90 -110 89 -110 88 C-109 86 -109 85 -109 84 C-108 84 -107 83 -106 83 C-106 82 -106 81 -106 80 C-105 78 -105 77 -105 76 C-104 76 -103 75 -102 75 C-102 74 -102 73 -102 72 C-101 70 -101 69 -101 68 C-100 68 -99 67 -98 67 C-97 63 -97 63 -97 60 C-96 60 -95 60 -94 60 C-93 59 -93 57 -92 56 C-91 56 -91 56 -90 56 C-89 55 -89 53 -88 52 C-87 52 -87 51 -86 51 C-86 49 -85 46 -85 44 C-84 44 -83 44 -82 44 C-81 43 -81 41 -80 40 C-79 40 -79 40 -78 40 C-77 39 -77 37 -76 36 C-75 36 -75 36 -74 36 C-73 35 -73 33 -72 32 C-71 32 -71 32 -70 32 C-69 31 -69 29 -68 28 C-66 28 -64 28 -62 28 C-61 27 -61 25 -60 24 C-59 24 -59 24 -58 24 C-57 23 -57 21 -56 20 C-55 20 -55 20 -54 20 C-53 19 -53 17 -52 16 C-50 16 -48 16 -46 16 C-45 15 -45 13 -44 12 C-41 12 -37 12 -34 12 C-33 11 -33 9 -32 8 C-29 8 -25 8 -22 8 C-21 7 -21 5 -20 4 C-15 4 -11 4 -6 4 C-5 4 -3 4 -2 4 C-1 3 -1 1 0 0 Z M-32 24 C-33 25 -35 25 -36 26 C-59 37 -75 52 -88 74 C-89 77 -91 79 -92 81 C-94 85 -96 88 -97 92 C-97 93 -98 94 -98 95 C-102 104 -105 113 -107 123 C-108 125 -108 127 -109 129 C-110 135 -110 135 -110 141 C-111 146 -111 146 -112 150 C-114 154 -115 159 -115 164 C-118 190 -123 218 -135 242 C-135 243 -135 245 -134 246 C-134 251 -134 251 -137 256 C-138 257 -139 258 -141 258 C-151 265 -157 275 -160 286 C-161 289 -163 291 -164 294 C-164 295 -164 296 -164 297 C-165 297 -165 297 -166 297 C-167 300 -167 302 -168 305 C-168 306 -168 306 -170 309 C-171 313 -173 316 -174 320 C-175 322 -176 325 -177 327 C-178 332 -179 337 -180 342 C-180 346 -180 346 -181 351 C-182 356 -182 361 -182 366 C-181 366 -181 366 -180 366 C-180 366 -180 366 -181 368 C-188 384 -181 408 -176 424 C-174 429 -172 432 -168 435 C-165 436 -165 436 -160 433 C-158 430 -158 430 -157 426 C-156 425 -156 425 -155 422 C-154 418 -154 418 -153 414 C-151 414 -149 414 -147 414 C-147 415 -147 417 -147 418 C-148 418 -148 418 -149 418 C-150 427 -152 438 -148 446 C-142 448 -142 448 -137 447 C-128 440 -122 429 -118 419 C-118 418 -119 416 -119 415 C-118 415 -118 415 -115 414 C-110 413 -110 413 -105 410 C-103 407 -103 407 -101 403 C-101 402 -100 400 -100 399 C-97 393 -96 388 -96 381 C-95 379 -94 378 -93 376 C-93 374 -92 371 -92 369 C-91 368 -91 366 -90 365 C-89 360 -89 356 -89 352 C-89 348 -89 348 -88 346 C-88 344 -88 342 -88 340 C-88 338 -88 337 -88 336 C-88 333 -88 330 -88 328 C-88 326 -88 325 -88 324 C-88 323 -88 322 -88 320 C-88 317 -87 314 -86 311 C-81 313 -81 314 -79 319 C-77 336 -78 352 -81 369 C-81 370 -81 371 -81 372 C-83 381 -83 381 -85 384 C-85 386 -86 388 -86 390 C-88 398 -90 404 -96 410 C-97 412 -98 414 -99 415 C-103 424 -109 432 -116 439 C-118 442 -118 442 -119 446 C-117 454 -108 458 -101 463 C-89 470 -78 475 -64 472 C-61 472 -61 472 -58 474 C-58 475 -57 476 -56 477 C-47 483 -40 483 -30 482 C-26 482 -26 482 -21 482 C-21 483 -21 484 -21 485 C-13 486 -6 486 2 486 C3 486 5 486 6 486 C7 486 9 486 10 486 C11 486 11 486 14 486 C17 486 21 486 24 485 C27 485 30 485 32 485 C40 484 47 483 54 482 C57 482 57 482 61 482 C70 482 75 478 82 473 C84 471 84 471 89 472 C90 472 90 473 91 473 C98 474 101 472 107 469 C108 468 110 468 111 467 C112 464 112 464 111 460 C109 457 109 457 106 455 C102 451 102 451 99 446 C98 445 97 443 96 442 C91 436 88 430 85 424 C85 424 85 424 84 422 C81 417 79 412 78 407 C77 406 77 404 76 403 C75 398 75 394 74 389 C74 386 74 386 73 382 C72 372 72 364 73 354 C73 353 73 353 74 350 C74 344 75 339 78 334 C78 332 79 331 79 329 C82 319 87 310 93 301 C94 300 95 298 95 297 C104 285 116 272 129 265 C129 264 129 264 133 262 C133 261 133 261 133 260 C135 260 136 259 138 259 C141 258 144 256 147 255 C148 255 149 254 150 254 C157 250 157 250 159 247 C159 238 156 231 152 223 C151 218 150 213 150 208 C149 205 149 205 148 202 C147 198 146 193 145 188 C145 187 145 186 145 184 C144 181 144 178 144 174 C143 171 143 167 142 164 C142 162 142 159 141 157 C141 152 140 147 138 142 C138 138 137 134 137 130 C137 126 136 123 135 120 C135 119 135 119 134 115 C133 104 129 93 123 84 C122 82 121 80 120 78 C110 58 97 43 78 31 C77 30 76 30 74 29 C71 27 71 27 68 27 C68 26 68 26 68 25 C64 24 61 23 57 22 C56 21 55 21 54 20 C52 19 50 19 48 18 C43 18 40 17 36 15 C29 15 23 15 16 15 C14 15 13 15 11 15 C-5 15 -18 17 -32 24 Z " fill="#111112" transform="translate(222,25)"/>
<path d="M0 0 C18 14 32 36 35 59 C35 60 36 61 36 62 C43 88 38 115 26 138 C23 143 23 143 20 147 C19 148 18 150 17 151 C15 154 13 156 10 158 C9 159 9 159 7 162 C4 165 1 168 -3 171 C-3 171 -3 171 -5 173 C-24 192 -50 196 -75 196 C-107 195 -132 181 -155 158 C-173 139 -181 111 -180 85 C-179 58 -171 32 -153 11 C-152 10 -151 8 -150 7 C-141 -3 -131 -9 -119 -15 C-118 -16 -117 -16 -116 -17 C-76 -37 -34 -24 0 0 Z " fill="#40A95C" transform="translate(486,308)"/>
<path d="M0 0 C1 -0 1 -0 5 -0 C7 -0 9 0 11 0 C12 0 12 0 17 -0 C18 -0 20 -0 22 0 C24 0 25 0 27 0 C31 0 31 0 36 2 C38 3 40 3 41 3 C46 4 50 6 55 8 C58 9 58 9 63 10 C63 11 63 12 63 12 C65 13 67 13 68 13 C93 26 109 48 120 73 C121 75 121 76 122 77 C130 96 130 96 130 105 C130 106 129 107 128 107 C125 107 121 107 117 106 C116 106 115 107 114 107 C111 107 111 107 106 105 C104 103 104 103 101 100 C98 97 96 96 92 94 C92 94 92 94 91 93 C80 94 80 94 76 96 C75 96 74 96 73 96 C73 97 73 98 72 99 C71 100 70 101 69 102 C63 107 61 111 58 117 C59 118 60 118 60 118 C61 120 61 121 61 122 C62 122 62 122 62 121 C68 122 71 122 75 126 C76 127 76 128 77 129 C80 132 83 132 88 132 C90 132 93 132 95 132 C100 132 100 132 102 133 C105 141 104 150 101 158 C97 165 92 169 84 172 C81 173 78 173 75 173 C75 174 75 175 75 176 C73 176 71 176 69 176 C65 177 65 177 62 179 C62 181 62 183 62 185 C59 187 59 187 55 188 C53 190 51 192 49 193 C49 194 49 194 46 195 C42 198 41 201 39 206 C36 213 33 219 26 223 C21 224 18 224 14 221 C11 218 9 215 7 212 C7 210 6 209 5 208 C4 206 3 204 2 201 C-2 195 -6 192 -11 187 C-13 183 -13 180 -13 175 C-12 174 -12 173 -12 172 C-19 171 -19 171 -21 171 C-21 173 -22 175 -23 176 C-25 178 -25 178 -29 179 C-30 180 -31 180 -32 180 C-35 181 -35 181 -39 180 C-39 179 -39 178 -39 176 C-38 176 -37 176 -37 176 C-37 176 -37 175 -37 174 C-38 174 -39 174 -41 174 C-48 173 -52 171 -58 166 C-63 159 -66 150 -65 141 C-63 136 -63 136 -62 132 C-58 130 -53 131 -48 132 C-44 131 -43 130 -40 127 C-39 127 -39 127 -37 124 C-35 120 -35 120 -30 117 C-23 117 -23 117 -19 119 C-17 119 -15 119 -14 118 C-11 121 -11 121 -9 125 C-9 129 -9 129 -10 132 C-4 131 -1 129 2 124 C5 120 6 115 5 109 C2 105 -0 103 -5 101 C-12 98 -14 94 -18 88 C-20 82 -23 80 -29 77 C-30 76 -31 75 -33 74 C-37 70 -37 70 -42 69 C-47 67 -47 67 -50 64 C-56 60 -61 57 -67 54 C-71 52 -72 51 -75 47 C-76 47 -77 47 -78 46 C-81 50 -81 50 -85 54 C-86 55 -86 56 -87 57 C-91 62 -92 68 -93 74 C-91 75 -90 75 -88 75 C-78 79 -71 83 -65 91 C-63 95 -63 95 -63 101 C-65 103 -65 103 -68 105 C-69 107 -70 108 -71 109 C-74 113 -74 113 -78 114 C-85 114 -92 112 -100 110 C-104 109 -104 109 -108 110 C-108 110 -108 110 -111 110 C-114 101 -106 87 -103 79 C-102 77 -101 75 -100 73 C-99 72 -98 70 -98 68 C-85 45 -71 28 -48 14 C-46 13 -44 12 -43 11 C-41 10 -39 10 -37 9 C-33 7 -29 6 -25 4 C-16 1 -9 0 0 0 Z " fill="#C8CAD4" transform="translate(226.76953125,39.734375)"/>
<path d="M0 0 C15 3 26 11 35 23 C43 34 48 48 48 61 C48 61 48 61 47 64 C44 70 45 76 45 82 C45 85 45 87 45 90 C45 91 45 92 45 93 C45 96 45 96 44 98 C44 100 44 101 44 103 C44 116 44 116 41 119 C41 120 40 122 40 123 C39 128 39 128 37 131 C37 132 37 133 37 134 C37 143 33 154 27 161 C22 163 19 165 14 165 C14 166 15 168 15 169 C11 179 5 190 -4 197 C-8 198 -9 198 -13 197 C-16 195 -16 195 -17 192 C-17 184 -17 176 -16 168 C-15 168 -15 168 -14 168 C-14 167 -14 165 -14 164 C-16 164 -18 164 -20 164 C-22 168 -22 168 -23 172 C-26 181 -26 181 -28 184 C-33 186 -33 186 -36 185 C-46 175 -50 155 -50 142 C-51 122 -51 122 -47 116 C-48 116 -48 116 -49 116 C-49 108 -48 101 -47 94 C-46 90 -46 90 -46 85 C-45 81 -44 77 -42 73 C-41 69 -40 65 -38 61 C-37 58 -37 58 -34 53 C-33 50 -33 50 -33 47 C-32 47 -32 47 -31 47 C-31 45 -30 44 -30 42 C-29 40 -28 38 -27 36 C-27 35 -26 34 -26 32 C-21 22 -16 13 -6 6 C-2 4 -2 4 0 0 Z " fill="#888DA0" transform="translate(89,275)"/>
<path d="M0 0 C0 2 0 4 0 6 C-2 8 -2 8 -5 9 C-11 12 -11 12 -13 15 C-13 18 -13 18 -12 22 C-8 25 -8 25 -2 25 C-1 25 -0 24 1 24 C5 23 8 23 12 24 C16 26 19 29 22 32 C25 34 25 34 30 35 C30 34 31 33 31 32 C35 27 35 27 39 26 C43 26 47 26 51 27 C55 26 55 26 58 24 C59 20 59 16 59 12 C64 12 69 12 74 12 C75 12 77 12 78 12 C80 12 81 12 82 12 C83 12 85 12 86 12 C87 12 87 12 89 12 C90 13 90 15 91 16 C95 16 98 16 102 16 C106 16 109 16 113 16 C114 17 114 19 115 20 C117 20 119 20 121 20 C122 21 122 23 123 24 C124 24 125 25 126 25 C126 27 125 28 125 30 C123 30 121 30 119 30 C118 31 118 33 117 34 C112 34 108 34 103 34 C102 34 100 34 99 34 C98 35 98 37 97 38 C92 38 88 38 83 38 C80 38 78 38 75 38 C74 39 74 41 73 42 C70 42 70 42 67 42 C65 42 64 42 63 42 C61 42 60 42 58 42 C57 42 56 42 54 42 C48 42 41 42 35 42 C31 42 26 42 22 42 C20 42 19 42 17 42 C16 42 15 42 13 42 C12 42 11 42 10 42 C9 42 8 42 7 42 C6 43 6 45 5 46 C1 46 -3 47 -8 47 C-9 47 -10 47 -12 47 C-16 47 -20 47 -25 47 C-28 47 -31 47 -34 47 C-40 47 -47 47 -53 47 C-61 46 -70 47 -78 47 C-84 47 -90 47 -97 47 C-100 47 -103 47 -106 47 C-110 47 -114 47 -118 47 C-119 47 -119 47 -122 47 C-126 47 -126 47 -131 46 C-131 45 -131 45 -133 42 C-137 42 -141 42 -145 42 C-146 42 -147 42 -149 42 C-152 42 -156 42 -160 42 C-165 42 -170 42 -175 42 C-176 42 -176 42 -179 42 C-182 42 -182 42 -187 42 C-188 41 -188 39 -189 38 C-193 38 -198 38 -202 38 C-206 38 -211 38 -215 38 C-216 37 -216 35 -217 34 C-220 34 -220 34 -224 34 C-228 34 -228 34 -231 34 C-232 33 -232 31 -233 30 C-235 30 -237 30 -239 30 C-239 29 -239 29 -240 25 C-239 25 -238 24 -237 24 C-236 23 -236 21 -235 20 C-232 20 -228 20 -225 20 C-224 19 -224 17 -223 16 C-218 16 -214 16 -209 16 C-206 16 -204 16 -201 16 C-200 15 -200 13 -199 12 C-195 12 -190 12 -186 12 C-185 12 -185 12 -182 12 C-179 12 -176 12 -173 12 C-174 14 -174 15 -175 17 C-175 22 -175 22 -172 26 C-167 28 -163 27 -158 26 C-154 26 -154 26 -151 28 C-150 30 -148 32 -147 34 C-142 35 -142 35 -137 34 C-133 30 -133 30 -130 26 C-127 24 -124 25 -120 25 C-119 25 -118 26 -117 26 C-113 27 -109 26 -105 25 C-102 21 -102 21 -102 17 C-102 16 -103 15 -103 14 C-104 14 -104 14 -107 12 C-112 10 -112 10 -116 7 C-116 6 -116 4 -116 3 C-115 3 -113 3 -112 3 C-95 5 -95 5 -88 6 C-85 6 -81 6 -78 7 C-59 9 -40 6 -22 3 C-18 3 -15 3 -12 2 C-7 2 -5 0 0 0 Z " fill="#D9DCE3" transform="translate(293,517)"/>
<path d="M0 0 C5 2 5 2 8 5 C13 8 15 7 20 5 C21 4 23 4 24 3 C28 2 28 2 33 3 C35 5 35 5 37 8 C38 9 39 10 40 10 C42 13 42 13 43 17 C44 20 44 20 46 22 C51 26 50 31 51 37 C52 64 50 88 33 111 C32 112 31 114 30 115 C28 118 26 120 23 122 C22 123 21 125 20 126 C19 127 19 127 16 130 C14 130 13 130 11 130 C8 132 6 134 3 136 C-1 138 -1 138 -4 138 C-9 135 -9 135 -11 133 C-14 129 -19 126 -23 123 C-25 121 -25 121 -26 118 C-28 112 -35 109 -40 106 C-41 105 -42 104 -44 103 C-47 101 -47 101 -50 99 C-51 99 -52 98 -53 98 C-53 97 -53 97 -53 96 C-57 95 -57 95 -60 96 C-63 98 -63 98 -64 100 C-65 100 -66 99 -67 99 C-62 91 -56 85 -49 78 C-44 72 -38 66 -33 60 C-28 55 -23 49 -18 44 C-14 40 -11 36 -8 32 C-5 28 -2 26 1 23 C5 18 6 17 6 10 C4 8 2 5 0 3 C0 2 0 1 0 0 Z " fill="#3FA25A" transform="translate(473,344)"/>
<path d="M0 0 C3 1 3 1 6 3 C7 3 9 3 10 3 C15 3 15 3 20 5 C20 6 20 7 20 9 C22 9 23 9 25 10 C25 10 25 11 25 12 C26 12 28 13 30 13 C34 15 37 16 41 19 C42 22 42 22 42 25 C40 28 40 28 37 31 C34 36 34 40 34 46 C33 49 33 49 30 51 C30 51 30 51 32 55 C30 55 29 55 28 55 C19 58 14 64 9 71 C8 71 8 71 7 71 C8 66 8 66 9 64 C8 64 8 64 6 65 C5 65 5 65 1 66 C-0 66 -2 66 -3 67 C-12 69 -19 69 -28 67 C-30 67 -32 66 -34 66 C-40 66 -40 66 -43 65 C-49 63 -54 65 -59 67 C-64 64 -64 64 -66 61 C-71 62 -71 62 -74 65 C-84 72 -96 73 -108 72 C-113 70 -113 70 -116 68 C-118 60 -117 54 -113 47 C-108 40 -108 40 -102 39 C-99 40 -99 40 -94 42 C-86 44 -79 44 -70 43 C-68 43 -66 44 -64 45 C-58 45 -53 45 -47 43 C-41 43 -41 43 -39 44 C-31 44 -23 42 -16 37 C-15 34 -15 34 -15 31 C-16 29 -17 28 -18 26 C-18 26 -18 26 -20 22 C-17 17 -17 17 -14 12 C-10 8 -10 8 -8 3 C-3 -0 -3 -0 0 0 Z " fill="#3EA259" transform="translate(438.125,289.1875)"/>
<path d="M0 0 C1 0 1 0 5 3 C7 5 8 6 10 8 C13 11 15 11 19 11 C20 11 22 11 24 10 C28 10 31 10 35 12 C38 17 37 22 38 27 C38 32 39 36 40 41 C42 51 43 60 45 70 C45 74 46 77 46 80 C46 83 47 85 47 87 C48 94 48 94 49 95 C49 97 50 99 50 102 C51 107 52 111 54 116 C57 123 59 129 59 136 C58 136 56 136 55 136 C55 135 55 135 55 134 C56 134 56 134 57 134 C57 133 56 132 56 131 C55 130 55 129 54 128 C53 127 53 126 52 125 C51 122 51 122 50 118 C50 114 50 114 47 110 C47 109 47 108 46 107 C46 104 46 104 43 101 C43 99 42 98 42 96 C39 96 39 96 35 96 C34 97 34 97 33 98 C28 99 24 99 19 99 C17 99 16 99 14 100 C10 99 10 99 8 97 C7 96 7 95 6 94 C5 93 4 93 3 92 C3 87 3 85 5 81 C5 80 4 80 4 79 C3 79 2 80 1 80 C-3 82 -3 82 -9 82 C-9 81 -9 80 -9 79 C-12 79 -14 79 -17 79 C-17 80 -17 81 -17 82 C-18 82 -19 82 -20 82 C-20 80 -21 79 -21 77 C-20 77 -19 77 -18 77 C-9 76 -5 74 1 67 C6 60 7 55 7 47 C7 45 7 43 7 42 C7 41 7 41 7 38 C6 38 6 38 3 38 C1 38 -1 38 -3 38 C-4 38 -4 38 -8 38 C-13 38 -13 38 -18 35 C-19 34 -20 33 -20 32 C-23 29 -23 29 -28 27 C-33 27 -33 27 -35 28 C-35 26 -35 25 -35 23 C-36 23 -37 22 -38 22 C-34 15 -31 9 -25 4 C-24 3 -23 2 -22 1 C-15 -3 -7 -5 0 0 Z " fill="#C8CAD4" transform="translate(322,135)"/>
<path d="M0 0 C6 1 8 4 12 8 C14 11 14 11 14 17 C12 19 12 19 10 22 C10 23 9 24 8 24 C6 27 4 29 1 32 C-1 34 -2 35 -4 37 C-5 38 -6 39 -6 40 C-9 42 -11 45 -13 47 C-15 49 -17 52 -19 54 C-22 57 -25 60 -27 63 C-31 68 -35 72 -40 77 C-42 79 -45 82 -47 85 C-49 87 -52 90 -54 93 C-55 94 -56 95 -58 97 C-61 100 -63 101 -67 103 C-76 101 -82 95 -88 89 C-89 87 -91 86 -92 84 C-113 65 -113 65 -115 56 C-114 50 -111 48 -107 45 C-104 43 -101 44 -98 44 C-97 44 -95 45 -94 46 C-94 46 -94 47 -94 48 C-93 48 -91 49 -90 50 C-90 51 -89 52 -89 53 C-88 53 -86 54 -85 55 C-82 58 -78 61 -75 64 C-72 67 -72 67 -66 67 C-62 64 -62 64 -58 59 C-58 59 -58 59 -55 55 C-52 52 -50 49 -47 47 C-45 44 -42 41 -39 38 C-35 34 -31 29 -27 24 C-24 21 -21 18 -18 15 C-17 13 -16 12 -14 11 C-6 1 -6 1 0 0 Z " fill="#FCFCFC" transform="translate(465.9375,343.1875)"/>
<path d="M0 0 C1 1 2 2 3 3 C4 3 5 4 7 4 C12 5 15 7 19 11 C19 12 20 14 20 15 C28 13 28 13 31 12 C36 12 36 12 41 12 C42 13 43 14 44 15 C49 15 52 13 57 11 C62 9 63 9 69 11 C73 13 73 13 76 15 C77 15 78 15 80 15 C81 15 82 16 83 16 C85 24 81 33 77 40 C75 45 74 45 69 48 C64 49 64 49 61 49 C61 50 61 50 62 53 C58 63 52 74 43 81 C39 82 38 82 34 81 C31 79 31 79 30 76 C30 68 30 60 31 52 C32 52 32 52 33 52 C33 51 33 49 33 48 C31 48 29 48 27 48 C25 52 25 52 24 56 C21 65 21 65 19 68 C14 70 14 70 11 69 C1 59 -3 39 -3 26 C-4 6 -4 6 0 0 Z " fill="#7F8598" transform="translate(42,391)"/>
<path d="M0 0 C6 3 10 7 14 11 C17 14 18 15 22 16 C24 15 26 15 27 15 C29 15 31 15 32 15 C35 19 35 19 36 23 C37 23 38 24 39 25 C40 28 41 31 42 35 C44 37 45 40 46 43 C47 44 47 46 48 48 C50 53 53 57 57 62 C58 63 58 64 59 65 C59 66 60 67 60 68 C62 68 64 68 66 68 C68 69 69 70 70 72 C71 72 71 72 73 74 C75 77 75 77 76 80 C76 81 76 82 75 84 C72 86 72 86 67 88 C67 88 67 88 63 90 C58 90 56 90 51 88 C46 89 46 89 43 92 C37 97 32 98 24 99 C21 99 18 98 15 97 C17 96 18 95 19 94 C20 93 20 93 22 91 C27 88 35 84 41 84 C40 82 39 81 38 80 C35 79 35 79 32 80 C28 80 25 81 21 80 C17 79 13 79 9 79 C5 79 3 78 0 75 C-0 74 -0 73 -1 72 C-4 73 -4 73 -5 75 C-6 75 -7 75 -8 75 C-11 70 -12 69 -12 64 C-10 61 -10 61 -7 59 C-1 54 3 49 4 41 C4 36 4 33 1 29 C0 28 -1 27 -2 27 C-3 26 -4 25 -6 24 C-7 23 -8 22 -9 22 C-10 19 -10 16 -10 13 C-10 13 -10 13 -10 10 C-10 7 -10 7 -7 2 C-3 -0 -3 -0 0 0 Z " fill="#C1C4CF" transform="translate(257.75,408.4375)"/>
<path d="M0 0 C8 4 12 9 17 16 C18 18 19 19 20 21 C23 25 25 28 25 34 C23 40 21 42 16 45 C15 46 15 46 13 47 C9 50 8 53 6 58 C3 65 -1 71 -7 75 C-12 76 -15 76 -19 73 C-22 70 -24 68 -26 64 C-27 63 -28 61 -28 60 C-30 58 -31 56 -32 54 C-35 48 -39 44 -44 39 C-47 35 -47 32 -46 27 C-44 23 -44 23 -42 20 C-42 20 -41 20 -40 20 C-40 19 -39 18 -38 16 C-37 14 -35 12 -33 10 C-32 9 -31 8 -30 7 C-27 3 -25 2 -20 -1 C-19 -1 -19 -2 -18 -2 C-11 -5 -6 -3 0 0 Z " fill="#1A130A" transform="translate(260.35546875,187.57421875)"/>
<path d="M0 0 C0 1 0 2 0 3 C5 2 9 1 14 -1 C14 -0 14 -0 15 4 C14 5 14 5 13 6 C13 9 13 9 13 13 C15 16 15 16 18 18 C18 18 19 19 19 19 C22 19 25 19 28 19 C29 19 31 19 33 19 C41 19 41 19 44 16 C47 16 47 16 51 17 C52 20 52 20 53 24 C53 24 53 24 56 25 C57 28 57 30 58 33 C59 34 59 34 60 35 C60 37 61 38 61 40 C62 45 63 48 66 52 C66 53 66 54 66 55 C66 55 65 56 65 56 C65 56 65 56 68 58 C65 59 65 59 61 60 C58 61 56 62 53 63 C52 64 50 65 49 65 C45 67 42 69 39 71 C37 72 36 73 34 74 C33 75 32 76 31 77 C28 80 24 82 20 84 C17 83 17 83 15 79 C14 78 14 77 13 76 C9 68 9 68 9 64 C10 63 10 62 11 61 C14 60 17 59 20 59 C24 58 27 55 31 52 C32 51 34 51 35 50 C35 49 36 47 36 46 C31 39 27 37 18 35 C14 34 14 34 11 32 C6 30 -1 31 -7 31 C-14 31 -18 30 -24 27 C-29 26 -30 26 -35 28 C-36 29 -37 29 -38 30 C-39 30 -39 29 -40 29 C-40 28 -40 28 -38 26 C-36 22 -36 22 -35 17 C-32 14 -32 14 -28 11 C-27 11 -25 11 -24 11 C-24 9 -24 8 -24 6 C-25 6 -26 5 -27 5 C-16 1 -16 1 -8 3 C-8 2 -8 1 -8 0 C-3 -1 -3 -1 0 0 Z " fill="#C2C5D0" transform="translate(313,214)"/>
<path d="M0 0 C1 0 3 1 4 1 C5 3 6 4 7 6 C11 8 11 8 15 10 C21 13 26 17 31 21 C33 21 34 22 36 22 C42 24 45 27 49 31 C50 32 52 33 54 34 C59 38 61 42 64 48 C67 52 71 54 76 56 C82 60 82 60 84 64 C85 72 83 77 78 83 C74 87 74 87 68 87 C67 82 67 82 68 79 C67 78 67 77 66 77 C63 73 62 71 60 67 C56 59 50 54 42 50 C34 48 28 49 20 52 C18 53 17 54 15 55 C15 54 14 52 14 51 C12 46 11 44 7 41 C6 40 6 39 5 38 C-0 34 -7 33 -13 31 C-13 30 -14 30 -15 29 C-15 18 -9 10 -2 2 C-2 1 -1 1 0 0 Z " fill="#C1C4CF" transform="translate(149,85)"/>
<path d="M0 0 C6 5 11 10 14 17 C14 18 14 18 13 22 C9 21 9 21 7 20 C3 20 -0 20 -4 22 C-8 25 -10 28 -13 32 C-17 35 -20 34 -25 34 C-29 34 -29 34 -33 34 C-35 38 -35 38 -35 43 C-35 44 -35 45 -35 46 C-34 56 -32 64 -24 71 C-19 74 -14 75 -8 76 C-8 77 -8 77 -8 78 C-9 78 -9 78 -10 78 C-10 79 -10 81 -10 82 C-10 82 -10 82 -8 83 C-19 84 -28 80 -37 74 C-43 68 -47 63 -49 55 C-50 54 -50 52 -51 51 C-51 35 -50 19 -40 7 C-28 -5 -15 -9 0 0 Z " fill="#FCFCFC" transform="translate(198,138)"/>
<path d="M0 0 C6 3 7 5 9 11 C11 23 11 36 4 47 C-2 53 -8 56 -17 57 C-25 57 -30 54 -35 49 C-41 43 -43 35 -43 27 C-43 23 -42 19 -40 15 C-36 13 -31 14 -27 14 C-22 14 -21 13 -18 10 C-17 9 -16 8 -16 6 C-11 0 -7 -1 0 0 Z " fill="#050507" transform="translate(205,157)"/>
<path d="M0 0 C1 0 3 1 4 1 C4 2 4 2 4 3 C5 3 5 3 6 3 C9 6 9 6 11 10 C11 11 11 13 11 14 C12 14 12 14 13 14 C14 16 14 18 15 20 C16 20 16 20 17 20 C17 23 16 27 15 30 C14 30 12 30 11 31 C5 32 3 34 0 39 C0 41 0 42 0 44 C1 44 1 44 2 44 C5 49 5 49 5 53 C1 52 -1 51 -5 48 C-10 48 -16 48 -20 51 C-21 51 -22 51 -23 51 C-23 52 -24 53 -24 54 C-25 55 -26 56 -28 57 C-33 61 -36 67 -39 73 C-41 76 -41 76 -44 78 C-44 76 -44 74 -44 72 C-48 68 -48 68 -52 66 C-56 64 -56 64 -58 61 C-58 56 -58 56 -57 54 C-54 51 -52 50 -49 48 C-44 44 -43 41 -41 35 C-39 33 -39 33 -36 31 C-35 30 -33 29 -32 28 C-29 26 -26 25 -24 23 C-21 21 -21 21 -19 18 C-16 14 -12 12 -8 10 C-4 7 -3 4 0 0 Z " fill="#C1C4CF" transform="translate(323,85)"/>
<path d="M0 0 C1 0 1 0 5 3 C9 6 12 10 15 14 C15 15 15 15 15 16 C16 16 16 16 17 16 C18 19 18 19 19 24 C19 25 19 27 20 28 C20 33 19 37 18 42 C18 47 18 52 18 56 C18 64 14 70 9 75 C3 80 -1 82 -9 82 C-9 81 -9 80 -9 79 C-12 79 -14 79 -17 79 C-17 80 -17 81 -17 82 C-18 82 -19 82 -20 82 C-20 80 -21 79 -21 77 C-20 77 -19 77 -18 77 C-9 76 -5 74 1 67 C6 60 7 55 7 47 C7 45 7 43 7 42 C7 41 7 41 7 38 C6 38 6 38 3 38 C1 38 -1 38 -3 38 C-4 38 -4 38 -8 38 C-13 38 -13 38 -18 35 C-19 34 -20 33 -20 32 C-23 29 -23 29 -28 27 C-33 27 -33 27 -35 28 C-35 26 -35 25 -35 23 C-36 23 -37 22 -38 22 C-34 15 -31 9 -25 4 C-24 3 -23 2 -22 1 C-15 -3 -7 -5 0 0 Z " fill="#FCFCFC" transform="translate(322,135)"/>
<path d="M0 0 C3 2 3 2 4 5 C5 11 4 15 2 21 C1 24 1 24 1 27 C1 29 1 30 1 31 C2 32 2 32 2 35 C2 38 2 40 2 43 C2 43 2 43 2 46 C2 49 2 49 1 51 C1 53 1 54 1 56 C1 69 1 69 -2 72 C-3 73 -3 75 -3 76 C-4 78 -4 79 -4 81 C-5 81 -6 81 -7 81 C-8 80 -9 78 -9 77 C-9 75 -8 73 -7 71 C-9 67 -9 67 -13 65 C-18 63 -20 60 -22 56 C-23 56 -24 55 -24 55 C-24 54 -24 54 -24 53 C-25 53 -25 53 -27 52 C-28 49 -28 49 -27 46 C-28 45 -28 43 -28 42 C-31 42 -33 41 -35 41 C-38 39 -38 39 -40 37 C-41 36 -41 36 -41 32 C-39 30 -39 30 -36 27 C-34 23 -31 19 -29 14 C-23 4 -12 -4 0 0 Z " fill="#8F93A2" transform="translate(132.375,322.0625)"/>
<path d="M0 0 C6 3 7 6 9 12 C9 14 10 15 10 16 C12 21 14 24 18 27 C22 29 26 30 31 31 C32 31 33 32 35 32 C36 32 37 33 38 33 C46 35 50 40 55 46 C55 47 55 48 55 49 C54 49 54 49 53 49 C52 50 52 52 51 53 C47 55 42 54 38 54 C36 53 33 52 31 51 C28 50 24 50 21 50 C18 49 18 49 13 47 C12 47 10 46 9 46 C5 45 5 45 1 42 C-2 42 -5 41 -8 41 C-13 39 -13 39 -17 36 C-17 35 -17 34 -17 33 C-18 28 -20 27 -24 24 C-26 21 -26 21 -28 18 C-27 13 -27 13 -22 10 C-22 9 -22 9 -20 8 C-17 6 -14 3 -12 1 C-8 -0 -4 -0 0 0 Z " fill="#3FA35A" transform="translate(366,447)"/>
<path d="M0 0 C5 -0 10 -0 15 -0 C16 -0 18 -0 19 -0 C21 -0 22 -0 23 -0 C24 -0 26 -0 27 -0 C28 -0 29 -0 30 0 C30 1 30 1 32 4 C36 4 39 4 43 4 C47 4 50 4 54 4 C54 5 54 5 56 8 C58 8 60 8 62 8 C62 9 62 9 64 12 C65 12 66 13 67 13 C67 15 66 16 66 18 C64 18 62 18 60 18 C59 19 59 21 58 22 C53 22 49 22 44 22 C43 22 41 22 40 22 C39 23 39 25 38 26 C33 26 29 26 24 26 C21 26 19 26 16 26 C15 27 15 29 14 30 C9 30 9 30 4 30 C2 30 1 30 0 30 C-3 30 -6 30 -10 30 C-12 30 -14 30 -16 30 C-22 30 -27 30 -33 30 C-32 28 -31 27 -30 25 C-29 25 -29 25 -28 25 C-28 24 -29 22 -29 21 C-26 18 -24 16 -20 14 C-16 14 -12 14 -8 15 C-4 14 -4 14 -1 12 C-0 8 0 4 0 0 Z " fill="#DBDDE4" transform="translate(352,529)"/>
<path d="M0 0 C5 2 8 3 11 8 C14 11 17 11 22 11 C24 11 26 11 28 11 C34 11 34 11 36 12 C39 20 38 29 34 37 C30 44 25 48 18 51 C8 52 3 50 -5 44 C-11 39 -12 33 -12 25 C-12 17 -12 10 -7 3 C-4 0 -4 0 0 0 Z " fill="#050507" transform="translate(293.0625,160.8125)"/>
<path d="M0 0 C1 0 2 1 3 1 C3 2 2 4 2 5 C1 5 -1 5 -2 5 C-2 6 -3 8 -3 9 C-5 11 -7 12 -9 14 C-14 18 -19 23 -23 28 C-24 29 -26 31 -27 32 C-28 34 -29 35 -30 36 C-31 37 -31 38 -32 38 C-36 44 -37 50 -38 56 C-37 56 -35 57 -34 57 C-23 61 -16 64 -10 73 C-8 77 -8 77 -8 83 C-10 85 -10 85 -13 87 C-14 88 -15 90 -16 91 C-19 95 -19 95 -23 96 C-31 96 -38 94 -45 92 C-49 91 -49 91 -53 92 C-53 92 -53 92 -56 92 C-59 83 -52 69 -48 60 C-47 59 -46 57 -45 55 C-44 53 -44 52 -43 50 C-33 30 -20 11 0 0 Z " fill="#C9CCD5" transform="translate(172,58)"/>
<path d="M0 0 C4 3 8 7 11 11 C16 16 16 16 22 16 C29 17 29 17 32 21 C34 24 36 27 38 31 C37 32 37 34 36 35 C35 35 35 35 31 36 C32 43 32 43 34 45 C34 46 34 47 34 48 C33 48 32 48 31 47 C29 48 28 48 27 48 C25 52 25 52 24 56 C21 65 21 65 19 68 C14 70 14 70 11 69 C1 59 -3 39 -3 26 C-4 6 -4 6 0 0 Z " fill="#656A7D" transform="translate(42,391)"/>
<path d="M0 0 C3 1 3 1 7 5 C10 6 13 7 16 8 C16 9 16 9 18 9 C18 15 17 21 15 26 C15 27 15 27 14 31 C10 32 6 33 2 33 C1 33 -0 33 -2 33 C-3 33 -4 33 -6 32 C-7 33 -8 33 -10 33 C-16 33 -23 32 -29 31 C-29 30 -29 29 -29 28 C-34 28 -39 28 -44 29 C-52 29 -59 28 -65 23 C-66 22 -66 21 -67 20 C-67 19 -66 18 -66 17 C-61 16 -59 16 -54 18 C-48 21 -41 22 -34 22 C-34 21 -34 20 -34 19 C-32 18 -31 16 -29 14 C-28 13 -28 12 -27 10 C-23 5 -18 4 -11 2 C-1 -0 -1 -0 0 0 Z " fill="#C1C4CF" transform="translate(230,478.625)"/>
<path d="M0 0 C3 1 3 1 7 4 C12 6 16 7 22 8 C31 10 31 10 35 12 C38 12 41 12 43 12 C42 13 42 13 35 20 C32 26 33 30 34 36 C35 37 35 38 35 39 C34 39 33 40 32 40 C29 41 29 41 27 42 C18 43 10 43 1 40 C-0 40 -1 39 -3 39 C-7 33 -6 27 -7 20 C-7 20 -7 20 -7 16 C-7 15 -7 13 -7 12 C-7 11 -7 10 -7 8 C-7 4 -5 0 0 0 Z " fill="#3DA259" transform="translate(319.75,370.875)"/>
<path d="M0 0 C7 2 14 2 21 2 C21 3 21 4 20 5 C17 16 16 27 16 38 C9 37 9 37 8 36 C7 36 5 36 4 36 C-2 36 -2 36 -7 36 C-10 35 -13 35 -17 36 C-17 36 -18 36 -19 35 C-19 34 -18 33 -18 32 C-18 31 -18 31 -18 28 C-19 28 -20 28 -21 27 C-22 23 -22 23 -21 20 C-20 16 -20 12 -19 8 C-19 4 -19 4 -17 -1 C-10 -3 -7 -2 0 0 Z " fill="#C5C8D2" transform="translate(131.828125,150.80859375)"/>
<path d="M0 0 C0 3 -0 5 -0 8 C0 13 0 13 2 16 C5 22 5 28 4 34 C2 38 -1 41 -4 44 C-5 45 -5 46 -6 47 C-10 52 -14 54 -20 55 C-26 56 -30 55 -36 53 C-40 53 -40 53 -43 54 C-43 53 -43 53 -44 49 C-42 46 -42 46 -38 42 C-37 40 -36 39 -34 38 C-30 33 -26 29 -22 25 C-18 21 -15 17 -12 13 C-9 9 -6 7 -3 4 C-2 3 -1 1 0 0 Z " fill="#41A95D" transform="translate(477,363)"/>
<path d="M0 0 C2 3 2 3 2 7 C3 7 4 7 5 7 C2 15 2 15 0 19 C-1 24 -1 28 -1 33 C1 36 1 36 3 39 C4 40 4 41 5 41 C8 45 12 47 16 50 C25 56 25 56 29 59 C29 60 29 61 29 62 C29 62 29 62 31 63 C22 67 18 66 9 63 C2 60 -4 56 -10 52 C-12 51 -13 51 -14 50 C-23 43 -23 43 -25 38 C-24 33 -22 31 -18 28 C-11 20 -6 10 -1 1 C-1 1 -0 0 0 0 Z " fill="#B0B2BA" transform="translate(128,433)"/>
<path d="M0 0 C1 0 1 0 2 0 C6 28 2 55 -15 78 C-16 79 -17 81 -18 82 C-20 85 -22 87 -25 89 C-26 90 -27 91 -28 92 C-28 91 -29 90 -29 89 C-28 87 -28 87 -26 84 C-25 83 -24 82 -24 81 C-23 81 -23 81 -22 79 C-21 79 -21 79 -20 79 C-19 76 -18 73 -17 70 C-17 69 -16 68 -16 66 C-15 63 -15 63 -15 57 C-17 56 -18 56 -20 55 C-28 48 -28 48 -29 43 C-28 41 -28 40 -27 38 C-27 36 -27 35 -27 33 C-26 28 -26 28 -22 24 C-18 23 -14 23 -10 23 C-9 23 -8 23 -7 23 C-6 21 -5 20 -4 18 C-3 18 -3 17 -2 17 C-2 14 -1 11 -1 8 C-1 6 -0 5 0 3 C0 2 0 1 0 0 Z " fill="#3FA95B" transform="translate(521,377)"/>
<path d="M0 0 C5 1 8 2 12 5 C13 6 14 6 16 7 C19 9 19 9 23 12 C26 12 29 12 32 12 C36 12 40 12 44 13 C44 13 44 13 47 13 C48 13 49 14 50 14 C52 22 48 27 44 34 C43 34 43 34 41 37 C40 37 39 37 38 37 C38 39 37 40 37 42 C36 43 35 44 34 45 C28 44 23 41 17 38 C16 38 14 37 13 37 C10 36 10 36 8 33 C8 31 8 29 7 26 C7 23 7 20 6 17 C6 16 7 16 7 15 C8 12 8 12 7 8 C5 7 2 6 0 5 C0 3 0 2 0 0 Z " fill="#C1C4CF" transform="translate(264,299)"/>
<path d="M0 0 C4 0 4 0 9 1 C11 1 12 1 14 1 C25 3 31 11 37 19 C40 23 42 26 44 30 C45 31 46 33 47 34 C48 37 48 39 49 42 C49 43 50 44 50 45 C51 46 51 46 51 48 C46 51 46 51 41 51 C34 49 32 47 27 42 C26 41 25 40 24 39 C23 37 21 35 20 32 C16 26 10 18 3 14 C3 13 3 11 3 10 C2 9 0 9 -1 8 C-1 7 -1 7 -2 3 C-1 2 -1 1 0 0 Z " fill="#C1C4CF" transform="translate(105,269)"/>
<path d="M0 0 C1 1 3 2 4 3 C8 3 10 2 13 0 C12 6 8 9 4 14 C-1 19 -6 24 -11 30 C-11 30 -12 31 -12 31 C-19 31 -20 29 -25 24 C-33 17 -33 17 -37 14 C-40 11 -40 11 -43 6 C-44 5 -46 5 -47 4 C-47 3 -47 3 -47 2 C-45 2 -44 2 -42 2 C-42 1 -41 0 -41 -1 C-29 -6 -13 -3 0 0 Z " fill="#3FA25A" transform="translate(412,380)"/>
<path d="M0 0 C3 5 3 5 4 8 C4 9 5 10 5 11 C6 11 6 11 7 11 C8 12 8 14 9 15 C10 16 11 17 12 18 C10 19 10 19 7 19 C0 21 -3 24 -7 29 C-9 34 -10 38 -10 44 C-10 47 -10 47 -14 51 C-19 52 -19 52 -24 53 C-26 52 -27 51 -29 50 C-31 50 -32 49 -34 49 C-38 47 -38 47 -42 43 C-42 40 -42 40 -41 37 C-37 35 -34 34 -30 33 C-29 33 -29 33 -26 32 C-22 31 -22 31 -19 31 C-19 29 -18 28 -18 26 C-19 26 -20 25 -21 25 C-21 22 -21 22 -20 18 C-19 17 -18 16 -16 16 C-15 15 -14 14 -13 13 C-12 9 -13 7 -14 3 C-4 -1 -4 -1 0 0 Z " fill="#C1C4CF" transform="translate(206,217)"/>
<path d="M0 0 C6 4 6 6 8 12 C9 13 10 13 11 14 C13 16 13 16 14 21 C14 22 14 24 14 25 C13 25 13 25 12 25 C12 26 12 27 13 28 C13 31 13 31 12 33 C12 34 12 36 12 38 C11 39 11 40 11 42 C10 43 8 43 7 44 C3 41 3 41 -2 38 C-3 37 -4 37 -6 36 C-9 34 -12 32 -15 29 C-16 28 -18 27 -19 26 C-22 23 -22 23 -23 19 C-23 15 -23 15 -20 11 C-15 8 -10 6 -5 3 C-3 2 -2 1 0 0 Z " fill="#359C53" transform="translate(509,352)"/>
<path d="M0 0 C1 0 1 0 2 0 C2 1 3 2 3 4 C4 5 4 6 5 7 C9 7 9 7 14 7 C15 8 17 8 18 9 C21 9 25 9 28 9 C29 10 30 10 31 10 C33 15 34 17 33 22 C31 24 31 24 28 26 C26 27 25 28 23 29 C22 30 20 31 19 32 C18 33 17 33 16 34 C11 35 7 35 2 34 C1 34 0 34 -1 34 C-4 39 -4 39 -4 44 C-5 45 -5 47 -5 48 C-6 48 -6 48 -9 49 C-9 41 -8 34 -7 27 C-6 23 -6 23 -6 18 C-5 14 -4 10 -2 6 C-2 5 -1 4 -1 2 C-1 2 -0 1 0 0 Z " fill="#9094A3" transform="translate(49,342)"/>
<path d="M0 0 C2 0 3 0 5 0 C8 3 8 3 10 8 C11 9 12 11 13 12 C16 17 18 22 20 27 C21 28 21 30 22 31 C30 50 30 50 30 59 C29 60 29 60 28 61 C24 61 21 60 17 60 C16 60 15 60 14 61 C11 61 11 61 6 59 C1 55 0 53 -1 47 C-1 46 -2 44 -2 43 C-3 43 -3 43 -4 43 C-4 42 -4 42 -5 38 C1 31 1 31 4 29 C5 29 6 29 8 30 C9 29 10 29 11 29 C12 24 12 24 13 19 C12 19 12 19 11 19 C10 17 10 15 9 13 C8 13 8 13 7 13 C5 8 5 8 5 5 C4 5 3 4 2 4 C2 3 2 3 2 2 C1 2 1 2 0 2 C0 1 0 1 0 0 Z " fill="#C8CAD4" transform="translate(327,86)"/>
<path d="M0 0 C1 3 1 5 2 8 C5 18 9 26 16 33 C16 34 15 36 15 37 C10 35 6 32 2 28 C0 27 0 27 -4 27 C-10 26 -13 25 -18 22 C-21 21 -24 20 -27 19 C-32 17 -34 16 -38 12 C-34 8 -34 8 -29 8 C-28 7 -28 5 -27 4 C-22 1 -22 1 -16 1 C-12 1 -9 -0 -5 -1 C-2 -1 -2 -1 0 0 Z " fill="#C1C4CF" transform="translate(213,50)"/>
<path d="M0 0 C6 4 10 8 14 13 C15 14 16 15 17 16 C17 17 17 17 18 21 C14 24 11 25 6 27 C5 28 4 28 3 29 C-4 30 -9 29 -15 25 C-15 24 -15 24 -15 23 C-16 23 -18 23 -19 24 C-20 24 -20 24 -23 24 C-24 23 -25 21 -26 20 C-23 14 -20 10 -15 6 C-14 6 -14 6 -13 6 C-13 5 -12 4 -12 3 C-6 -1 -6 -1 0 0 Z " fill="#EDAD25" transform="translate(253,196)"/>
<path d="M0 0 C2 1 4 1 6 2 C5 3 4 4 4 4 C1 7 1 7 1 9 C2 9 3 10 4 10 C8 11 8 11 10 14 C11 20 11 25 8 31 C7 32 5 34 4 35 C1 35 1 35 -4 35 C-4 35 -4 35 -8 34 C-12 34 -12 34 -15 33 C-19 32 -21 33 -25 34 C-25 26 -21 21 -16 15 C-12 11 -9 9 -5 6 C-2 4 -2 4 0 0 Z " fill="#9195A4" transform="translate(89,275)"/>
<path d="M0 0 C1 0 2 1 4 1 C4 1 4 1 6 2 C6 3 6 3 6 4 C7 4 8 4 9 4 C9 3 10 1 10 0 C15 2 15 2 19 4 C20 4 21 4 22 4 C28 6 33 8 37 12 C38 13 38 14 39 15 C36 20 33 21 28 24 C26 24 25 24 23 24 C22 21 20 18 19 15 C18 15 18 15 14 13 C13 13 12 14 11 14 C7 17 4 16 -0 15 C-2 15 -3 14 -4 14 C-8 13 -8 13 -12 10 C-12 9 -12 9 -12 8 C-13 8 -13 8 -14 8 C-17 5 -17 5 -17 2 C-16 -1 -16 -1 -14 -3 C-9 -3 -5 -2 0 0 Z " fill="#C2C5D0" transform="translate(217,272)"/>
<path d="M0 0 C1 1 1 2 2 3 C4 3 5 3 7 3 C12 3 12 3 16 7 C17 7 17 8 18 8 C18 9 18 9 18 10 C19 10 20 10 21 10 C22 11 23 11 24 11 C24 11 24 11 25 13 C24 13 22 13 21 13 C21 14 20 15 20 16 C12 22 3 30 -7 30 C-13 27 -13 27 -14 23 C-14 22 -13 21 -13 21 C-11 17 -11 15 -11 11 C-11 5 -11 5 -9 1 C-6 0 -6 0 0 0 Z " fill="#C1C4CF" transform="translate(274,48)"/>
<path d="M0 0 C1 1 3 1 4 2 C5 2 5 2 8 2 C9 3 9 3 12 3 C13 5 13 5 11 10 C6 26 6 26 -2 31 C-9 33 -9 33 -13 31 C-14 29 -16 27 -17 25 C-18 24 -19 24 -20 23 C-21 22 -22 22 -23 21 C-23 19 -22 18 -22 16 C-21 15 -20 15 -19 14 C-13 12 -10 8 -6 4 C-4 2 -4 2 0 0 Z " fill="#656A7D" transform="translate(113,408)"/>
<path d="M0 0 C1 1 3 2 4 3 C8 4 11 6 15 7 C16 8 16 8 17 9 C22 8 22 8 24 5 C25 4 26 3 27 2 C29 2 30 2 32 2 C32 4 31 6 31 8 C29 17 28 26 28 36 C24 34 24 34 22 29 C19 26 19 26 17 24 C17 24 16 23 16 23 C15 23 14 23 13 23 C9 22 9 22 7 20 C5 19 2 19 0 18 C-0 19 -1 20 -1 21 C-2 21 -3 20 -4 20 C-6 15 -5 11 -5 6 C-2 2 -2 2 0 0 Z " fill="#BDC0CC" transform="translate(120,153)"/>
<path d="M0 0 C6 3 9 6 12 12 C13 15 13 15 16 17 C18 19 18 19 19 22 C19 26 19 26 16 29 C11 32 7 32 1 32 C-3 30 -3 30 -5 27 C-5 26 -5 25 -5 24 C-7 24 -9 25 -11 25 C-12 20 -12 18 -10 13 C-7 9 -7 9 -5 8 C-4 6 -4 5 -3 3 C-2 3 -2 3 -1 3 C-1 2 -0 1 0 0 Z " fill="#C1C4CF" transform="translate(141,415)"/>
<path d="M0 0 C1 0 2 1 3 1 C3 7 2 8 -1 13 C-3 23 -3 33 0 42 C3 46 6 48 10 51 C11 51 11 52 12 52 C13 53 14 53 15 54 C16 55 17 55 18 56 C18 57 18 58 18 59 C16 59 14 59 12 59 C8 60 8 60 5 62 C5 64 5 66 5 68 C4 68 4 68 0 69 C0 68 0 68 0 65 C-0 56 -5 50 -11 43 C-12 39 -12 35 -11 31 C-11 29 -11 28 -11 26 C-11 22 -11 19 -10 15 C-9 15 -8 14 -7 14 C-6 11 -5 8 -4 5 C-2 2 -2 2 0 0 Z " fill="#D7DAE2" transform="translate(284,157)"/>
<path d="M0 0 C5 5 5 5 6 7 C6 9 5 12 5 14 C7 14 8 14 10 14 C12 32 12 32 9 40 C11 40 13 40 15 40 C12 46 8 50 4 54 C-0 54 -0 54 -4 53 C-5 53 -5 53 -6 53 C-6 54 -6 54 -8 58 C-11 60 -11 60 -14 61 C-15 61 -16 62 -17 62 C-20 63 -20 63 -24 62 C-24 61 -24 59 -24 58 C-23 58 -23 58 -22 58 C-22 57 -21 56 -21 55 C-18 54 -14 52 -11 51 C-4 47 -1 42 1 34 C2 25 3 15 -1 7 C-1 6 -2 5 -2 4 C-1 3 -1 1 0 0 Z " fill="#D6D9E1" transform="translate(212,158)"/>
<path d="M0 0 C0 1 0 2 0 3 C1 7 1 7 4 10 C7 16 6 21 6 27 C6 28 6 29 6 30 C5 33 5 35 5 38 C-0 38 -4 38 -8 35 C-10 31 -10 26 -11 22 C-11 21 -11 21 -12 18 C-12 14 -13 10 -13 5 C-14 5 -14 5 -15 5 C-16 3 -16 2 -17 0 C-3 -2 -3 -2 0 0 Z " fill="#BDC0CC" transform="translate(352,146)"/>
<path d="M0 0 C1 0 2 1 3 1 C4 4 4 6 5 9 C6 10 6 10 7 11 C7 13 8 14 8 16 C9 21 10 24 13 28 C13 29 13 30 13 31 C13 31 13 31 12 32 C13 33 14 33 15 34 C12 35 12 35 8 36 C5 37 3 38 0 39 C-1 40 -3 41 -4 41 C-8 43 -11 45 -14 47 C-16 48 -17 49 -19 50 C-20 51 -21 52 -22 53 C-27 56 -27 56 -29 56 C-28 50 -25 47 -20 43 C-19 43 -18 43 -17 43 C-17 42 -17 42 -17 41 C-15 40 -12 38 -10 37 C-9 36 -8 35 -7 34 C-6 34 -6 34 -5 34 C-4 33 -4 31 -3 30 C-3 29 -2 29 -2 28 C-1 21 -1 16 -3 10 C-3 6 -2 4 0 0 Z " fill="#BDC0CC" transform="translate(366,238)"/>
<path d="M0 0 C-1 5 -1 7 -4 12 C-5 12 -5 12 -6 12 C-7 13 -7 15 -8 16 C-9 17 -9 18 -10 19 C-12 22 -12 22 -13 25 C-14 28 -14 28 -17 30 C-19 30 -20 31 -22 31 C-23 32 -24 32 -25 33 C-26 33 -26 33 -28 34 C-32 30 -32 30 -32 27 C-31 23 -28 19 -25 15 C-24 14 -24 12 -23 11 C-21 7 -19 5 -15 2 C-10 1 -5 0 0 0 Z " fill="#359C53" transform="translate(505,444)"/>
<path d="M0 0 C1 1 3 1 4 2 C5 2 6 3 7 3 C7 4 8 4 8 5 C12 5 16 4 20 3 C21 3 21 4 22 4 C23 4 25 3 26 3 C26 8 24 11 21 15 C21 16 20 17 20 18 C21 18 21 19 22 19 C21 19 21 19 20 19 C20 20 20 21 21 22 C21 26 21 26 19 30 C17 32 17 32 14 32 C11 31 11 31 8 28 C7 27 6 27 5 26 C2 23 2 23 1 19 C1 18 1 16 1 15 C1 7 1 7 -2 3 C-1 2 -1 1 0 0 Z " fill="#C1C4CF" transform="translate(270,349)"/>
<path d="M0 0 C5 1 8 2 12 5 C14 5 16 6 18 6 C23 8 25 9 28 14 C28 18 28 18 27 21 C23 24 20 23 16 23 C10 23 5 23 0 24 C0 23 0 22 0 20 C0 19 0 17 0 16 C0 14 0 12 0 11 C0 10 0 8 0 7 C-1 7 -2 6 -3 6 C-2 6 -1 6 0 6 C0 4 0 2 0 0 Z " fill="#C2C5D0" transform="translate(148,361)"/>
<path d="M0 0 C3 0 5 0 8 0 C9 0 11 0 12 0 C14 0 16 0 17 0 C19 0 21 0 22 0 C26 0 30 1 33 1 C39 1 44 1 49 1 C53 1 56 1 60 1 C61 1 63 1 65 1 C65 1 65 1 69 1 C71 1 72 1 73 1 C77 1 77 1 81 0 C84 0 84 0 88 1 C88 2 87 3 87 4 C83 4 79 4 74 4 C73 4 72 4 70 4 C66 4 62 4 57 4 C54 4 51 4 48 4 C42 4 35 4 29 4 C21 4 13 4 4 4 C-2 5 -8 5 -15 4 C-18 4 -21 5 -24 5 C-28 5 -32 5 -36 5 C-38 5 -39 5 -40 5 C-44 5 -44 5 -49 4 C-50 3 -50 1 -51 0 C-50 0 -49 0 -48 0 C-43 0 -38 0 -33 0 C-32 0 -30 0 -28 0 C-28 0 -28 0 -24 0 C-22 0 -21 0 -19 0 C-15 0 -15 0 -11 -1 C-7 -1 -4 -1 0 0 Z " fill="#EFF1F2" transform="translate(211,559)"/>
<path d="M0 0 C1 0 1 0 2 0 C2 2 2 4 2 6 C3 6 3 6 8 5 C11 5 11 5 14 5 C18 10 18 11 17 17 C16 19 15 20 14 22 C15 22 17 21 18 21 C14 28 14 28 10 30 C6 30 4 29 0 27 C-3 19 -1 8 0 0 Z " fill="#656A7D" transform="translate(73,443)"/>
<path d="M0 0 C0 2 0 4 0 6 C-2 8 -2 8 -5 9 C-10 11 -11 12 -15 16 C-16 15 -17 14 -18 13 C-19 12 -21 11 -22 10 C-26 11 -26 11 -30 13 C-34 13 -37 13 -41 13 C-41 12 -41 12 -41 11 C-42 11 -42 11 -46 11 C-48 10 -49 10 -51 10 C-51 9 -52 8 -52 7 C-47 6 -41 6 -36 5 C-35 5 -35 5 -31 5 C-25 4 -18 3 -12 2 C-7 2 -5 0 0 0 Z " fill="#F3F4F5" transform="translate(293,517)"/>
<path d="M0 0 C0 0 0 0 3 3 C2 8 2 8 -0 10 C-5 13 -10 13 -16 12 C-20 12 -23 12 -27 12 C-28 12 -29 11 -30 11 C-31 8 -31 8 -31 5 C-28 2 -26 1 -22 0 C-20 -0 -18 -0 -17 -0 C-15 -0 -13 -1 -12 -1 C-8 -1 -4 -1 0 0 Z " fill="#F4AB15" transform="translate(263,208)"/>
<path d="M0 0 C4 2 4 2 7 7 C8 8 9 8 10 9 C11 12 11 12 10 16 C6 18 6 18 2 20 C1 20 1 20 -2 22 C-9 22 -9 22 -13 20 C-13 10 -13 10 -9 6 C-7 6 -6 5 -4 5 C-4 4 -3 2 -3 1 C-2 1 -1 0 0 0 Z " fill="#A9ABB4" transform="translate(323,476)"/>
<path d="M0 0 C2 0 3 1 5 1 C7 5 7 8 7 12 C8 19 9 25 10 31 C11 35 11 38 11 41 C11 41 11 41 8 42 C7 44 7 46 6 48 C3 50 0 48 -3 47 C-4 47 -6 47 -7 46 C-7 46 -7 46 -10 45 C-11 41 -11 40 -10 36 C-5 35 -5 35 0 37 C2 37 3 38 5 38 C5 34 5 31 5 27 C5 26 5 25 5 24 C6 17 4 13 0 7 C-0 3 -0 3 0 0 Z " fill="#C4C7D1" transform="translate(352,146)"/>
<path d="M0 0 C1 0 2 1 3 1 C4 4 5 8 6 11 C7 14 9 16 10 19 C11 24 11 24 10 26 C9 26 9 26 8 26 C8 25 8 25 8 24 C7 24 6 25 4 25 C0 27 0 27 -4 28 C-8 23 -9 20 -9 13 C-7 8 -5 6 -1 2 C-1 1 -0 1 0 0 Z " fill="#BDC0CC" transform="translate(294,432)"/>
<path d="M0 0 C6 0 6 0 9 3 C10 3 11 3 12 3 C16 4 16 4 20 8 C20 9 20 9 20 10 C21 10 22 11 23 11 C24 14 24 14 25 17 C23 17 22 16 20 16 C18 16 17 16 15 16 C10 16 10 16 5 15 C1 15 -1 15 -5 16 C-6 16 -6 15 -7 15 C-7 11 -7 11 -6 7 C-5 7 -4 6 -3 6 C-2 5 -2 3 -1 2 C-1 1 -0 1 0 0 Z " fill="#C2C5D0" transform="translate(120,171)"/>
<path d="M0 0 C3 4 3 5 4 10 C5 10 5 10 6 10 C5 13 5 16 4 19 C3 20 2 20 1 21 C1 24 0 28 0 31 C-0 32 -1 32 -1 33 C-2 33 -3 33 -4 33 C-4 36 -5 38 -5 41 C-5 41 -4 42 -4 42 C-4 44 -4 45 -4 47 C-4 47 -4 47 -7 48 C-8 51 -8 55 -9 58 C-10 58 -10 58 -11 58 C-12 61 -12 63 -13 66 C-13 66 -13 66 -14 68 C-15 68 -15 68 -16 68 C-16 69 -16 69 -16 70 C-17 70 -17 70 -18 70 C-17 62 -15 56 -12 49 C-6 33 -3 16 0 0 Z " fill="#D7DAE2" transform="translate(105,202)"/>
<path d="M0 0 C1 1 1 3 2 4 C3 5 4 7 5 8 C4 8 4 8 3 8 C3 9 3 9 3 10 C5 11 7 11 9 12 C9 12 9 13 9 13 C-2 14 -12 14 -23 13 C-23 12 -23 11 -23 10 C-24 10 -24 10 -25 10 C-25 9 -25 7 -25 6 C-22 4 -22 4 -19 3 C-19 3 -18 2 -18 2 C-16 2 -15 2 -13 2 C-7 2 -7 2 -3 1 C-2 1 -1 0 0 0 Z " fill="#C8CAD4" transform="translate(194,546)"/>
<path d="M0 0 C1 1 1 1 2 2 C2 5 1 9 0 12 C-1 25 -0 36 1 48 C2 54 2 54 1 57 C-1 56 -2 56 -4 55 C-5 51 -5 51 -5 47 C-5 43 -5 43 -8 38 C-8 34 -7 30 -7 26 C-8 26 -8 26 -9 26 C-9 24 -9 23 -9 21 C-8 21 -8 21 -7 21 C-7 20 -7 20 -7 19 C-6 19 -5 19 -4 19 C-2 15 -2 13 -3 8 C-4 7 -4 6 -5 5 C-5 4 -5 2 -5 1 C-3 1 -2 0 0 0 Z " fill="#D7DAE2" transform="translate(295,367)"/>
<path d="M0 0 C6 1 10 2 14 6 C15 11 15 11 14 14 C9 16 4 17 -2 15 C-6 11 -6 11 -7 9 C-7 7 -7 5 -7 3 C-4 0 -4 0 0 0 Z " fill="#379A52" transform="translate(499.75,363.625)"/>
<path d="M0 0 C5 2 8 3 11 7 C12 13 12 18 8 23 C6 23 5 24 3 24 C1 22 1 22 -0 19 C-1 18 -1 17 -2 16 C-4 11 -4 9 -3 4 C-1 1 -1 1 0 0 Z " fill="#3FA35A" transform="translate(321,422)"/>
<path d="M0 0 C1 0 1 0 6 0 C10 0 15 0 20 0 C20 1 20 2 20 2 C14 4 14 4 12 4 C12 4 12 3 12 2 C10 2 8 2 6 2 C6 3 6 4 6 4 C0 6 -5 5 -10 4 C-10 4 -10 3 -10 2 C-12 2 -13 2 -14 2 C-14 3 -14 4 -14 4 C-18 4 -21 4 -24 5 C-24 5 -24 5 -26 5 C-27 7 -27 9 -28 10 C-33 12 -33 12 -36 10 C-37 7 -37 7 -38 4 C-25 0 -13 -0 0 0 Z " fill="#D7DAE2" transform="translate(238.5,39.75)"/>
<path d="M0 0 C0 5 0 5 -3 9 C-10 13 -17 16 -25 15 C-28 14 -28 14 -31 13 C-30 12 -28 11 -27 10 C-26 9 -25 8 -24 8 C-19 4 -13 2 -7 0 C-5 -1 -5 -1 0 0 Z " fill="#BDC0CC" transform="translate(304,492)"/>
<path d="M0 0 C1 1 2 1 3 2 C4 3 5 3 6 4 C8 6 11 8 13 10 C12 10 11 10 9 10 C9 12 9 13 9 14 C0 14 -8 10 -15 4 C-14 3 -14 1 -14 -1 C-9 -3 -5 -3 0 0 Z " fill="#9A9EAD" transform="translate(139.71875,479.70703125)"/>
<path d="M0 0 C1 0 2 1 3 1 C3 2 2 4 2 5 C1 5 -1 5 -2 5 C-2 6 -3 8 -3 9 C-5 11 -7 12 -9 14 C-16 19 -21 26 -27 33 C-30 36 -30 36 -33 38 C-34 37 -34 37 -35 36 C-33 33 -31 29 -28 26 C-27 25 -27 24 -26 23 C-19 14 -10 6 0 0 Z " fill="#D7DAE2" transform="translate(172,58)"/>
<path d="M0 0 C1 0 1 1 2 1 C3 4 3 6 3 9 C4 10 4 12 4 14 C4 15 4 17 5 19 C5 20 5 22 5 24 C7 36 7 36 7 41 C5 41 4 40 2 40 C0 36 0 36 1 32 C1 27 -0 24 -3 19 C-3 19 -4 18 -4 18 C-6 6 -6 6 -2 1 C-1 1 -1 0 0 0 Z " fill="#D7DAE2" transform="translate(362,187)"/>
<path d="M0 0 C3 3 3 3 3 9 C1 11 -2 10 -5 10 C-10 10 -15 10 -19 7 C-20 2 -20 2 -20 -1 C-4 -3 -4 -3 0 0 Z " fill="#C8CAD4" transform="translate(409.375,538.125)"/>
<path d="M0 0 C0 1 1 3 1 4 C2 4 3 5 4 5 C4 4 4 3 4 2 C7 1 7 1 12 3 C14 6 14 6 15 9 C9 11 3 11 -3 12 C-6 12 -6 12 -10 15 C-10 17 -10 19 -10 21 C-11 21 -12 22 -13 22 C-14 21 -15 19 -16 18 C-13 12 -10 8 -5 4 C-4 4 -4 4 -3 4 C-3 3 -2 2 -2 1 C-1 1 -1 0 0 0 Z " fill="#EAA121" transform="translate(243,198)"/>
<path d="M0 0 C1 0 2 1 3 1 C6 3 6 3 11 4 C13 4 14 5 16 5 C17 7 17 8 18 10 C10 13 5 12 -3 9 C-7 7 -7 7 -11 3 C-11 2 -10 1 -10 0 C-6 -1 -4 -1 0 0 Z " fill="#BCBFCA" transform="translate(174,496)"/>
<path d="M0 0 C1 0 3 0 4 0 C5 4 5 9 5 13 C5 16 5 16 7 18 C6 22 5 25 3 28 C1 31 1 31 0 34 C0 35 0 36 0 37 C-1 37 -1 37 -4 38 C-5 34 -5 32 -4 28 C-2 19 -1 9 0 0 Z " fill="#D7DAE2" transform="translate(144,368)"/>
<path d="M0 0 C1 0 1 0 2 0 C8 11 13 24 14 36 C13 37 13 37 12 38 C9 38 9 38 6 36 C6 31 6 31 6 26 C5 25 5 23 4 22 C4 21 3 20 3 19 C2 15 2 15 -1 10 C-1 5 -1 5 0 1 C0 1 0 0 0 0 Z " fill="#D7DAE2" transform="translate(343,109)"/>
<path d="M0 0 C3 0 7 0 10 0 C10 1 10 1 10 2 C7 2 3 2 0 2 C0 1 0 1 0 0 Z " fill="#F7F8F8" transform="translate(401,261)"/>
</svg>
