<?xml version="1.0" encoding="UTF-8"?>
<!-- Generator: visioncortex VTracer 0.6.12 -->
<svg version="1.1" xmlns="http://www.w3.org/2000/svg" width="820" height="596">
<path d="M0 0 C3 -1 3 -1 6 -0 C7 -1 7 -1 9 -1 C10 -0 11 -0 12 0 C13 1 13 3 14 4 C15 5 17 5 18 6 C18 7 18 7 18 8 C19 9 21 9 22 10 C22 11 22 11 22 12 C23 12 24 12 25 12 C25 13 25 14 25 15 C26 19 26 19 30 22 C30 23 30 23 30 24 C31 24 32 24 33 24 C33 25 33 26 33 27 C34 29 34 30 34 31 C34 31 34 31 37 32 C37 33 37 34 37 35 C38 39 38 39 42 42 C42 43 42 43 42 44 C43 44 44 44 45 44 C45 45 45 46 45 47 C46 51 46 51 50 54 C50 55 50 55 50 56 C51 57 53 57 54 58 C54 59 54 59 54 60 C55 60 56 60 57 60 C57 61 57 62 57 63 C58 67 58 67 62 70 C62 71 62 71 62 72 C63 72 64 72 65 72 C65 73 65 74 65 75 C66 79 66 79 70 82 C70 83 70 83 70 84 C71 84 71 84 74 86 C74 87 74 87 74 88 C75 88 76 88 77 88 C77 89 77 90 77 91 C78 95 78 95 82 98 C82 99 82 99 82 100 C83 100 83 100 86 102 C86 103 86 103 86 104 C87 105 89 105 90 106 C90 107 90 107 90 108 C91 109 93 109 94 110 C94 111 94 111 94 112 C95 113 97 113 98 114 C98 115 98 115 98 116 C99 117 101 117 102 118 C102 119 102 119 102 120 C103 121 105 121 106 122 C106 123 106 123 106 124 C107 125 109 125 110 126 C110 127 110 127 110 128 C111 129 113 129 114 130 C114 131 114 131 114 132 C115 132 116 132 117 132 C117 133 117 134 117 135 C118 139 118 139 122 142 C122 143 122 143 122 144 C123 145 125 145 126 146 C126 147 126 147 126 148 C127 149 129 149 130 150 C131 151 131 152 132 153 C132 153 132 153 134 155 C135 155 137 155 138 155 C138 154 138 154 138 152 C138 151 138 151 139 148 C140 148 141 147 142 147 C142 144 143 140 143 137 C144 136 145 136 146 135 C146 133 146 131 146 129 C147 128 147 126 147 124 C148 124 149 123 150 123 C150 121 150 119 150 118 C151 116 151 114 151 112 C152 112 153 111 154 111 C154 110 154 109 154 108 C155 106 155 105 155 104 C156 104 157 103 158 103 C158 99 159 96 159 92 C160 92 161 92 162 92 C162 91 162 91 164 88 C165 88 165 87 166 87 C166 85 167 82 167 80 C168 80 169 80 170 80 C170 79 170 79 172 76 C173 76 173 75 174 75 C174 73 175 70 175 68 C176 68 177 68 178 68 C178 67 178 67 180 64 C181 64 181 64 182 64 C183 63 183 61 184 60 C185 60 185 59 186 59 C186 57 187 54 187 52 C188 52 189 52 190 52 C191 51 191 49 192 48 C193 48 193 48 194 48 C195 47 195 45 196 44 C198 44 200 44 202 44 C203 43 203 41 204 40 C205 40 205 40 206 40 C207 39 207 37 208 36 C209 36 209 36 210 36 C211 35 211 33 212 32 C214 32 216 32 218 32 C219 31 219 29 220 28 C222 28 224 28 226 28 C227 27 227 25 228 24 C231 24 235 24 238 24 C239 23 239 21 240 20 C243 20 247 20 250 20 C251 19 251 17 252 16 C256 16 260 15 264 15 C265 15 266 15 267 15 C269 15 272 15 274 15 C278 15 282 15 285 15 C288 15 290 15 292 15 C293 15 293 15 296 15 C299 15 299 15 304 16 C305 17 305 19 306 20 C308 20 309 20 311 20 C313 20 314 20 316 20 C317 21 317 23 318 24 C320 24 321 24 323 24 C325 24 326 24 328 24 C329 25 329 27 330 28 C332 28 334 28 336 28 C337 29 337 31 338 32 C340 32 342 32 344 32 C345 33 345 35 346 36 C347 37 349 37 350 38 C350 39 350 39 350 40 C352 40 354 40 356 40 C357 41 357 43 358 44 C359 45 361 45 362 46 C362 47 362 47 362 48 C363 49 365 49 366 50 C366 51 366 51 366 52 C367 53 369 53 370 54 C370 55 370 55 370 56 C371 57 373 57 374 58 C374 59 374 59 374 60 C375 60 376 60 377 60 C377 61 377 62 377 63 C378 67 378 67 382 70 C382 71 382 71 382 72 C383 72 384 72 385 72 C385 73 385 74 385 75 C386 77 386 78 386 79 C387 79 388 80 389 80 C389 82 390 85 390 87 C391 87 392 88 393 88 C393 90 394 93 394 95 C395 95 396 96 397 96 C397 100 398 103 398 107 C399 107 400 108 401 108 C401 113 401 118 402 123 C402 126 402 128 402 131 C403 131 404 132 405 132 C405 136 405 136 406 142 C406 142 406 142 406 147 C406 149 406 151 406 154 C406 156 406 158 406 160 C406 165 406 170 406 175 C407 175 409 175 410 175 C411 174 411 173 412 172 C414 172 416 172 418 172 C419 171 419 169 420 168 C422 168 424 168 426 168 C427 167 427 165 428 164 C430 164 432 164 434 164 C435 163 435 161 436 160 C439 160 443 160 446 160 C447 159 447 157 448 156 C450 156 452 156 454 156 C455 155 455 153 456 152 C458 152 460 152 462 152 C463 151 463 149 464 148 C466 148 468 148 470 148 C470 147 470 147 472 144 C474 144 476 144 478 144 C479 143 479 141 480 140 C481 140 481 140 482 140 C483 139 483 137 484 136 C486 136 488 136 490 136 C491 135 491 133 492 132 C493 132 493 132 494 132 C495 131 495 129 496 128 C498 128 500 128 502 128 C503 127 503 125 504 124 C505 124 505 124 506 124 C507 123 507 121 508 120 C510 120 512 120 514 120 C515 119 515 117 516 116 C517 116 517 116 518 116 C519 115 519 113 520 112 C521 112 521 112 522 112 C523 111 523 109 524 108 C526 108 528 108 530 108 C531 107 531 105 532 104 C533 104 533 104 534 104 C535 103 535 101 536 100 C537 100 537 100 538 100 C539 99 539 97 540 96 C541 96 541 96 542 96 C543 95 543 93 544 92 C545 92 545 92 546 92 C547 91 547 89 548 88 C550 88 552 88 554 88 C555 87 555 85 556 84 C560 83 560 83 564 84 C565 83 567 83 568 83 C570 84 571 84 572 84 C573 85 573 87 574 88 C575 89 577 89 578 90 C578 91 578 91 578 92 C579 92 580 92 581 92 C581 93 581 94 581 95 C582 97 582 98 582 99 C583 99 584 100 585 100 C585 105 585 105 585 110 C585 110 585 110 582 111 C582 114 582 114 582 118 C581 123 581 123 581 126 C581 126 581 126 578 127 C578 128 578 129 578 130 C577 132 577 133 577 134 C576 134 575 135 574 135 C573 139 573 139 573 142 C572 142 571 142 570 142 C569 143 569 145 568 146 C567 146 567 147 566 147 C566 148 566 149 566 150 C565 152 565 153 565 154 C564 154 563 155 562 155 C562 159 562 159 562 163 C563 163 564 163 565 163 C566 163 566 163 569 164 C570 167 570 167 570 171 C571 171 572 172 573 172 C573 175 573 175 573 179 C573 180 573 182 573 183 C573 183 573 183 573 186 C572 186 571 187 570 187 C569 191 569 191 569 194 C568 194 567 194 566 194 C565 195 565 197 564 198 C563 198 563 199 562 199 C562 201 561 204 561 206 C560 206 559 206 558 206 C557 207 557 209 556 210 C555 210 555 210 554 210 C553 211 553 213 552 214 C551 214 551 214 550 214 C549 215 549 217 548 218 C547 218 547 218 546 218 C545 219 545 221 544 222 C543 222 543 222 542 222 C541 223 541 225 540 226 C538 226 536 226 534 226 C533 227 533 229 532 230 C531 230 531 231 530 231 C530 235 530 235 530 239 C531 239 532 240 533 240 C533 243 533 243 533 247 C533 248 533 250 533 251 C533 251 533 251 533 254 C532 254 531 255 530 255 C529 259 529 259 529 262 C528 262 527 262 526 262 C525 263 525 265 524 266 C523 266 523 266 522 266 C521 267 521 269 520 270 C519 270 519 270 518 270 C517 271 517 273 516 274 C514 274 512 274 510 274 C509 275 509 277 508 278 C507 278 507 278 506 278 C505 279 505 281 504 282 C502 282 500 282 498 282 C497 283 497 285 496 286 C494 286 492 286 490 286 C489 287 489 289 488 290 C485 291 485 291 481 291 C480 291 478 291 477 291 C476 291 475 291 474 291 C474 292 474 294 474 295 C475 295 476 296 477 296 C477 297 477 297 477 298 C476 298 474 299 473 299 C473 303 473 303 473 306 C472 306 471 306 470 306 C469 307 469 309 468 310 C467 310 467 310 466 310 C465 311 465 313 464 314 C462 314 460 314 458 314 C457 315 457 317 456 318 C455 318 455 318 454 318 C453 319 453 321 452 322 C449 323 449 323 444 323 C443 323 441 323 440 323 C438 323 437 323 435 323 C434 323 434 323 430 323 C426 323 422 323 418 323 C418 325 417 328 417 330 C416 330 415 330 414 330 C412 330 411 330 410 330 C409 331 409 333 408 334 C404 334 401 334 397 334 C396 334 395 334 394 334 C393 335 393 337 392 338 C388 338 388 338 384 338 C383 337 383 335 382 334 C378 333 374 334 370 335 C369 338 369 338 369 342 C368 342 367 343 366 343 C366 344 366 345 366 346 C365 348 365 349 365 350 C364 350 363 351 362 351 C361 355 361 355 361 358 C360 358 359 358 358 358 C357 359 357 361 356 362 C355 362 355 362 354 362 C353 363 353 365 352 366 C351 366 351 366 350 366 C349 367 349 369 348 370 C347 370 347 370 346 370 C345 371 345 373 344 374 C343 374 343 375 342 375 C342 377 341 380 341 382 C340 382 339 382 338 382 C337 383 337 385 336 386 C335 386 335 386 334 386 C333 387 333 389 332 390 C330 390 328 390 326 390 C325 391 325 393 324 394 C323 394 323 394 322 394 C321 395 321 397 320 398 C319 398 319 398 318 398 C317 399 317 401 316 402 C315 402 315 402 314 402 C313 403 313 405 312 406 C310 406 308 406 306 406 C305 407 305 409 304 410 C303 410 303 410 302 410 C301 411 301 413 300 414 C298 414 296 414 294 414 C293 415 293 417 292 418 C290 418 288 418 286 418 C285 419 285 421 284 422 C281 422 277 422 274 422 C273 423 273 425 272 426 C269 426 265 426 262 426 C261 427 261 429 260 430 C259 430 259 430 258 430 C257 431 257 433 256 434 C255 434 255 434 254 434 C253 435 253 437 252 438 C251 438 251 438 250 438 C249 439 249 441 248 442 C246 442 244 442 242 442 C241 443 241 445 240 446 C235 447 231 447 226 447 C226 456 225 465 225 474 C224 474 223 474 222 474 C221 475 221 477 220 478 C220 479 220 479 217 482 C213 481 212 479 210 476 C210 475 210 475 210 474 C208 474 206 474 204 474 C203 474 202 474 201 474 C200 474 199 474 198 474 C197 475 197 477 196 478 C192 478 192 478 188 478 C187 477 187 475 186 474 C185 474 184 474 183 474 C183 470 183 470 183 465 C184 464 185 464 186 463 C186 462 186 460 186 459 C184 459 183 459 181 459 C180 459 180 459 176 458 C175 457 175 455 174 454 C173 454 172 453 171 453 C171 451 172 450 172 448 C173 448 173 447 174 447 C174 446 174 445 175 444 C175 442 176 441 176 440 C179 439 179 439 182 439 C182 438 182 436 182 435 C180 435 179 435 177 435 C176 435 176 435 172 434 C171 433 171 431 170 430 C167 429 167 429 164 429 C163 429 161 429 160 429 C159 429 157 429 156 430 C155 429 153 429 152 429 C151 429 150 429 148 429 C148 429 148 429 145 429 C144 430 143 430 142 430 C141 431 141 433 140 434 C134 435 128 435 122 435 C122 445 121 455 121 466 C120 466 119 466 118 466 C117 467 117 469 116 470 C115 471 114 473 113 474 C109 473 108 471 106 468 C106 467 106 467 106 466 C105 466 104 465 103 465 C103 464 102 464 102 463 C101 463 99 463 98 463 C97 464 97 465 96 466 C95 466 95 466 94 466 C93 467 93 469 92 470 C89 471 89 471 86 470 C85 471 85 471 83 471 C82 470 81 470 80 470 C79 469 79 467 78 466 C77 466 76 466 75 466 C75 463 75 459 75 456 C76 456 77 456 78 456 C79 455 79 453 80 452 C81 452 81 451 82 451 C82 450 82 448 82 447 C77 447 72 446 67 446 C67 441 67 437 67 432 C68 432 69 432 70 432 C71 431 71 429 72 428 C73 428 73 428 74 428 C75 427 75 425 76 424 C80 424 83 423 87 423 C88 423 88 423 90 423 C93 423 95 423 98 423 C98 422 98 420 98 419 C97 418 96 418 95 417 C95 413 95 410 95 406 C94 403 94 403 90 400 C90 399 90 399 90 398 C89 397 87 397 86 396 C86 395 86 395 86 394 C85 393 83 393 82 392 C82 391 82 391 82 390 C80 390 79 390 77 390 C71 390 65 390 59 390 C56 390 54 390 51 390 C47 390 44 390 40 390 C39 390 39 390 36 390 C33 390 33 390 28 390 C27 389 27 387 26 386 C24 386 22 386 20 386 C20 385 20 385 18 382 C17 381 15 381 14 380 C14 379 14 379 14 378 C13 378 12 378 11 378 C11 376 11 374 11 373 C11 371 10 369 10 367 C6 366 6 366 3 365 C3 365 3 365 2 362 C0 362 -1 362 -3 362 C-5 362 -6 362 -8 362 C-8 361 -8 361 -10 358 C-12 358 -14 358 -16 358 C-17 357 -17 355 -18 354 C-19 353 -21 353 -22 352 C-22 351 -22 351 -22 350 C-23 349 -25 349 -26 348 C-26 347 -26 347 -26 346 C-27 346 -28 345 -29 345 C-29 343 -28 342 -28 340 C-27 340 -27 339 -26 339 C-26 337 -25 334 -25 332 C-24 332 -23 332 -22 332 C-22 331 -22 331 -20 328 C-18 328 -16 328 -14 328 C-14 327 -14 327 -12 324 C-10 324 -8 324 -6 324 C-5 323 -5 321 -4 320 C2 320 7 320 13 320 C16 320 19 320 22 320 C23 319 23 317 24 316 C28 316 31 316 35 316 C36 316 37 316 38 316 C39 315 39 313 40 312 C43 311 43 311 47 311 C48 311 50 311 51 311 C52 311 53 311 54 311 C54 307 54 307 54 303 C53 302 51 301 50 300 C50 299 50 299 50 298 C49 297 47 297 46 296 C46 295 46 295 46 294 C45 293 43 293 42 292 C42 291 42 291 42 290 C41 289 39 289 38 288 C38 287 38 287 38 286 C37 286 36 286 35 286 C35 284 35 282 35 281 C35 279 34 277 34 275 C30 274 30 274 27 273 C27 273 27 273 26 270 C24 270 22 270 20 270 C20 269 20 269 18 266 C16 266 14 266 12 266 C12 265 12 265 10 262 C9 261 7 261 6 260 C6 259 6 259 6 258 C5 257 3 257 2 256 C2 255 2 255 2 254 C1 253 -1 253 -2 252 C-2 251 -2 251 -2 250 C-3 249 -5 249 -6 248 C-6 247 -6 247 -6 246 C-7 246 -8 246 -9 246 C-9 243 -9 239 -9 236 C-9 234 -9 232 -9 230 C-9 228 -9 227 -9 225 C-8 224 -7 224 -6 223 C-6 222 -6 220 -6 219 C-7 218 -9 217 -10 216 C-10 215 -10 215 -10 214 C-11 213 -13 213 -14 212 C-14 211 -14 211 -14 210 C-15 209 -17 209 -18 208 C-18 207 -18 207 -18 206 C-19 205 -21 205 -22 204 C-22 203 -22 203 -22 202 C-23 202 -24 202 -25 202 C-25 201 -25 200 -25 199 C-26 195 -26 195 -30 192 C-30 191 -30 191 -30 190 C-31 190 -32 190 -33 190 C-33 188 -33 186 -33 185 C-34 183 -34 181 -34 179 C-35 179 -36 178 -37 178 C-37 174 -37 171 -37 167 C-37 166 -37 165 -37 164 C-37 161 -37 159 -37 156 C-36 156 -35 156 -34 156 C-34 155 -34 155 -32 152 C-31 152 -31 152 -30 152 C-30 151 -30 151 -28 148 C-25 147 -25 147 -22 147 C-22 146 -22 144 -22 143 C-23 142 -25 141 -26 140 C-26 139 -26 139 -26 138 C-27 138 -28 138 -29 138 C-29 137 -29 136 -29 135 C-30 133 -30 132 -30 131 C-31 131 -32 130 -33 130 C-33 126 -34 123 -34 119 C-35 119 -36 118 -37 118 C-37 113 -37 108 -37 103 C-37 102 -37 100 -37 99 C-38 99 -40 98 -41 98 C-41 97 -41 97 -41 96 C-40 96 -40 96 -37 95 C-37 92 -37 92 -37 87 C-37 86 -37 85 -37 83 C-37 82 -37 81 -37 80 C-36 80 -35 80 -34 80 C-33 79 -33 77 -32 76 C-31 76 -31 76 -30 76 C-29 75 -29 73 -28 72 C-25 71 -25 71 -21 71 C-20 71 -18 71 -17 71 C-16 71 -15 71 -14 71 C-14 69 -14 67 -14 65 C-14 64 -14 63 -14 62 C-14 61 -14 60 -14 59 C-14 59 -14 59 -17 58 C-17 54 -17 54 -17 49 C-17 47 -17 45 -17 43 C-17 42 -17 41 -17 40 C-17 37 -17 34 -17 31 C-17 29 -17 27 -17 25 C-17 24 -17 24 -17 20 C-17 19 -17 17 -17 16 C-16 16 -15 15 -14 15 C-13 11 -13 11 -13 8 C-12 8 -11 8 -10 8 C-9 7 -9 5 -8 4 C-6 4 -4 4 -2 4 C-1 3 -1 1 0 0 Z " fill="#C7CAD3" transform="translate(210,25)"/>
<path d="M0 0 C3 -1 3 -1 6 -0 C7 -1 7 -1 9 -1 C10 -0 11 -0 12 0 C13 1 13 3 14 4 C15 5 17 5 18 6 C18 7 18 7 18 8 C19 9 21 9 22 10 C22 11 22 11 22 12 C23 12 24 12 25 12 C25 13 25 14 25 15 C26 19 26 19 30 22 C30 23 30 23 30 24 C31 24 32 24 33 24 C33 25 33 26 33 27 C34 29 34 30 34 31 C34 31 34 31 37 32 C37 33 37 34 37 35 C38 39 38 39 42 42 C42 43 42 43 42 44 C43 44 44 44 45 44 C45 45 45 46 45 47 C46 51 46 51 50 54 C50 55 50 55 50 56 C51 57 53 57 54 58 C54 59 54 59 54 60 C55 60 56 60 57 60 C57 61 57 62 57 63 C58 67 58 67 62 70 C62 71 62 71 62 72 C63 72 64 72 65 72 C65 73 65 74 65 75 C66 79 66 79 70 82 C70 83 70 83 70 84 C71 84 71 84 74 86 C74 87 74 87 74 88 C75 88 76 88 77 88 C77 89 77 90 77 91 C78 95 78 95 82 98 C82 99 82 99 82 100 C83 100 83 100 86 102 C86 103 86 103 86 104 C87 105 89 105 90 106 C90 107 90 107 90 108 C91 109 93 109 94 110 C94 111 94 111 94 112 C95 113 97 113 98 114 C98 115 98 115 98 116 C99 117 101 117 102 118 C102 119 102 119 102 120 C103 121 105 121 106 122 C106 123 106 123 106 124 C107 125 109 125 110 126 C110 127 110 127 110 128 C111 129 113 129 114 130 C114 131 114 131 114 132 C115 132 116 132 117 132 C117 133 117 134 117 135 C118 139 118 139 122 142 C122 143 122 143 122 144 C123 145 125 145 126 146 C126 147 126 147 126 148 C127 149 129 149 130 150 C131 151 131 152 132 153 C132 153 132 153 134 155 C135 155 137 155 138 155 C138 154 138 154 138 152 C138 151 138 151 139 148 C140 148 141 147 142 147 C142 144 143 140 143 137 C144 136 145 136 146 135 C146 133 146 131 146 129 C147 128 147 126 147 124 C148 124 149 123 150 123 C150 121 150 119 150 118 C151 116 151 114 151 112 C152 112 153 111 154 111 C154 110 154 109 154 108 C155 106 155 105 155 104 C156 104 157 103 158 103 C158 99 159 96 159 92 C160 92 161 92 162 92 C162 91 162 91 164 88 C165 88 165 87 166 87 C166 85 167 82 167 80 C168 80 169 80 170 80 C170 79 170 79 172 76 C173 76 173 75 174 75 C174 73 175 70 175 68 C176 68 177 68 178 68 C178 67 178 67 180 64 C181 64 181 64 182 64 C183 63 183 61 184 60 C185 60 185 59 186 59 C186 57 187 54 187 52 C188 52 189 52 190 52 C191 51 191 49 192 48 C193 48 193 48 194 48 C195 47 195 45 196 44 C198 44 200 44 202 44 C203 43 203 41 204 40 C205 40 205 40 206 40 C207 39 207 37 208 36 C209 36 209 36 210 36 C211 35 211 33 212 32 C214 32 216 32 218 32 C219 31 219 29 220 28 C222 28 224 28 226 28 C227 27 227 25 228 24 C231 24 235 24 238 24 C239 23 239 21 240 20 C243 20 247 20 250 20 C251 19 251 17 252 16 C256 16 260 15 264 15 C265 15 266 15 267 15 C269 15 272 15 274 15 C278 15 282 15 285 15 C288 15 290 15 292 15 C293 15 293 15 296 15 C299 15 299 15 304 16 C305 17 305 19 306 20 C308 20 309 20 311 20 C313 20 314 20 316 20 C317 21 317 23 318 24 C320 24 321 24 323 24 C325 24 326 24 328 24 C329 25 329 27 330 28 C332 28 334 28 336 28 C337 29 337 31 338 32 C340 32 342 32 344 32 C345 33 345 35 346 36 C347 37 349 37 350 38 C350 39 350 39 350 40 C352 40 354 40 356 40 C357 41 357 43 358 44 C359 45 361 45 362 46 C362 47 362 47 362 48 C363 49 365 49 366 50 C366 51 366 51 366 52 C367 53 369 53 370 54 C370 55 370 55 370 56 C371 57 373 57 374 58 C374 59 374 59 374 60 C375 60 376 60 377 60 C377 61 377 62 377 63 C378 67 378 67 382 70 C382 71 382 71 382 72 C383 72 384 72 385 72 C385 73 385 74 385 75 C386 77 386 78 386 79 C387 79 388 80 389 80 C389 82 390 85 390 87 C391 87 392 88 393 88 C393 90 394 93 394 95 C395 95 396 96 397 96 C397 100 398 103 398 107 C399 107 400 108 401 108 C401 113 401 118 402 123 C402 126 402 128 402 131 C403 131 404 132 405 132 C405 136 405 136 406 142 C406 142 406 142 406 147 C406 149 406 151 406 154 C406 156 406 158 406 160 C406 165 406 170 406 175 C407 175 409 175 410 175 C411 174 411 173 412 172 C414 172 416 172 418 172 C419 171 419 169 420 168 C422 168 424 168 426 168 C427 167 427 165 428 164 C430 164 432 164 434 164 C435 163 435 161 436 160 C439 160 443 160 446 160 C447 159 447 157 448 156 C450 156 452 156 454 156 C455 155 455 153 456 152 C458 152 460 152 462 152 C463 151 463 149 464 148 C466 148 468 148 470 148 C470 147 470 147 472 144 C474 144 476 144 478 144 C479 143 479 141 480 140 C481 140 481 140 482 140 C483 139 483 137 484 136 C486 136 488 136 490 136 C491 135 491 133 492 132 C493 132 493 132 494 132 C495 131 495 129 496 128 C498 128 500 128 502 128 C503 127 503 125 504 124 C505 124 505 124 506 124 C507 123 507 121 508 120 C510 120 512 120 514 120 C515 119 515 117 516 116 C517 116 517 116 518 116 C519 115 519 113 520 112 C521 112 521 112 522 112 C523 111 523 109 524 108 C526 108 528 108 530 108 C531 107 531 105 532 104 C533 104 533 104 534 104 C535 103 535 101 536 100 C537 100 537 100 538 100 C539 99 539 97 540 96 C541 96 541 96 542 96 C543 95 543 93 544 92 C545 92 545 92 546 92 C547 91 547 89 548 88 C550 88 552 88 554 88 C555 87 555 85 556 84 C560 83 560 83 564 84 C565 83 567 83 568 83 C570 84 571 84 572 84 C573 85 573 87 574 88 C575 89 577 89 578 90 C578 91 578 91 578 92 C579 92 580 92 581 92 C581 93 581 94 581 95 C582 97 582 98 582 99 C583 99 584 100 585 100 C585 105 585 105 585 110 C585 110 585 110 582 111 C582 114 582 114 582 118 C581 123 581 123 581 126 C581 126 581 126 578 127 C578 128 578 129 578 130 C577 132 577 133 577 134 C576 134 575 135 574 135 C573 139 573 139 573 142 C572 142 571 142 570 142 C569 143 569 145 568 146 C567 146 567 147 566 147 C566 148 566 149 566 150 C565 152 565 153 565 154 C564 154 563 155 562 155 C562 159 562 159 562 163 C563 163 564 163 565 163 C566 163 566 163 569 164 C570 167 570 167 570 171 C571 171 572 172 573 172 C573 175 573 175 573 179 C573 180 573 182 573 183 C573 183 573 183 573 186 C572 186 571 187 570 187 C569 191 569 191 569 194 C568 194 567 194 566 194 C565 195 565 197 564 198 C563 198 563 199 562 199 C562 201 561 204 561 206 C560 206 559 206 558 206 C557 207 557 209 556 210 C555 210 555 210 554 210 C553 211 553 213 552 214 C551 214 551 214 550 214 C549 215 549 217 548 218 C547 218 547 218 546 218 C545 219 545 221 544 222 C543 222 543 222 542 222 C541 223 541 225 540 226 C538 226 536 226 534 226 C533 227 533 229 532 230 C531 230 531 231 530 231 C530 235 530 235 530 239 C531 239 532 240 533 240 C533 243 533 243 533 247 C533 248 533 250 533 251 C533 251 533 251 533 254 C532 254 531 255 530 255 C529 259 529 259 529 262 C528 262 527 262 526 262 C525 263 525 265 524 266 C523 266 523 266 522 266 C521 267 521 269 520 270 C519 270 519 270 518 270 C517 271 517 273 516 274 C514 274 512 274 510 274 C509 275 509 277 508 278 C507 278 507 278 506 278 C505 279 505 281 504 282 C502 282 500 282 498 282 C497 283 497 285 496 286 C494 286 492 286 490 286 C489 287 489 289 488 290 C485 291 485 291 481 291 C480 291 478 291 477 291 C476 291 475 291 474 291 C474 292 474 294 474 295 C475 295 476 296 477 296 C477 297 477 297 477 298 C476 298 474 299 473 299 C473 303 473 303 473 306 C472 306 471 306 470 306 C469 307 469 309 468 310 C467 310 467 310 466 310 C465 311 465 313 464 314 C462 314 460 314 458 314 C457 315 457 317 456 318 C455 318 455 318 454 318 C453 319 453 321 452 322 C449 323 449 323 444 323 C443 323 441 323 440 323 C438 323 437 323 435 323 C434 323 434 323 430 323 C426 323 422 323 418 323 C418 325 417 328 417 330 C416 330 415 330 414 330 C412 330 411 330 410 330 C409 331 409 333 408 334 C404 334 401 334 397 334 C396 334 395 334 394 334 C393 335 393 337 392 338 C388 338 388 338 384 338 C383 337 383 335 382 334 C378 333 374 334 370 335 C369 338 369 338 369 342 C368 342 367 343 366 343 C366 344 366 345 366 346 C365 348 365 349 365 350 C364 350 363 351 362 351 C361 355 361 355 361 358 C360 358 359 358 358 358 C357 359 357 361 356 362 C355 362 355 362 354 362 C353 363 353 365 352 366 C351 366 351 366 350 366 C349 367 349 369 348 370 C347 370 347 370 346 370 C345 371 345 373 344 374 C343 374 343 375 342 375 C342 377 341 380 341 382 C340 382 339 382 338 382 C337 383 337 385 336 386 C335 386 335 386 334 386 C333 387 333 389 332 390 C330 390 328 390 326 390 C325 391 325 393 324 394 C323 394 323 394 322 394 C321 395 321 397 320 398 C319 398 319 398 318 398 C317 399 317 401 316 402 C315 402 315 402 314 402 C313 403 313 405 312 406 C310 406 308 406 306 406 C305 407 305 409 304 410 C303 410 303 410 302 410 C301 411 301 413 300 414 C298 414 296 414 294 414 C293 415 293 417 292 418 C290 418 288 418 286 418 C285 419 285 421 284 422 C281 422 277 422 274 422 C273 423 273 425 272 426 C269 426 265 426 262 426 C261 427 261 429 260 430 C259 430 259 430 258 430 C257 431 257 433 256 434 C255 434 255 434 254 434 C253 435 253 437 252 438 C251 438 251 438 250 438 C249 439 249 441 248 442 C246 442 244 442 242 442 C241 443 241 445 240 446 C235 447 231 447 226 447 C226 456 225 465 225 474 C224 474 223 474 222 474 C221 475 221 477 220 478 C220 479 220 479 217 482 C213 481 212 479 210 476 C210 475 210 475 210 474 C208 474 206 474 204 474 C203 474 202 474 201 474 C200 474 199 474 198 474 C197 475 197 477 196 478 C192 478 192 478 188 478 C187 477 187 475 186 474 C185 474 184 474 183 474 C183 470 183 470 183 465 C184 464 185 464 186 463 C186 462 186 460 186 459 C184 459 183 459 181 459 C180 459 180 459 176 458 C175 457 175 455 174 454 C173 454 172 453 171 453 C171 451 172 450 172 448 C173 448 173 447 174 447 C174 446 174 445 175 444 C175 442 176 441 176 440 C179 439 179 439 182 439 C182 438 182 436 182 435 C180 435 179 435 177 435 C176 435 176 435 172 434 C171 433 171 431 170 430 C167 429 167 429 164 429 C163 429 161 429 160 429 C159 429 157 429 156 430 C155 429 153 429 152 429 C151 429 150 429 148 429 C148 429 148 429 145 429 C144 430 143 430 142 430 C141 431 141 433 140 434 C134 435 128 435 122 435 C122 445 121 455 121 466 C120 466 119 466 118 466 C117 467 117 469 116 470 C115 471 114 473 113 474 C109 473 108 471 106 468 C106 467 106 467 106 466 C105 466 104 465 103 465 C103 464 102 464 102 463 C101 463 99 463 98 463 C97 464 97 465 96 466 C95 466 95 466 94 466 C93 467 93 469 92 470 C89 471 89 471 86 470 C85 471 85 471 83 471 C82 470 81 470 80 470 C79 469 79 467 78 466 C77 466 76 466 75 466 C75 463 75 459 75 456 C76 456 77 456 78 456 C79 455 79 453 80 452 C81 452 81 451 82 451 C82 450 82 448 82 447 C77 447 72 446 67 446 C67 441 67 437 67 432 C68 432 69 432 70 432 C71 431 71 429 72 428 C73 428 73 428 74 428 C75 427 75 425 76 424 C80 424 83 423 87 423 C88 423 88 423 90 423 C93 423 95 423 98 423 C98 422 98 420 98 419 C97 418 96 418 95 417 C95 413 95 410 95 406 C94 403 94 403 90 400 C90 399 90 399 90 398 C89 397 87 397 86 396 C86 395 86 395 86 394 C85 393 83 393 82 392 C82 391 82 391 82 390 C80 390 79 390 77 390 C71 390 65 390 59 390 C56 390 54 390 51 390 C47 390 44 390 40 390 C39 390 39 390 36 390 C33 390 33 390 28 390 C27 389 27 387 26 386 C24 386 22 386 20 386 C20 385 20 385 18 382 C17 381 15 381 14 380 C14 379 14 379 14 378 C13 378 12 378 11 378 C11 376 11 374 11 373 C11 371 10 369 10 367 C6 366 6 366 3 365 C3 365 3 365 2 362 C0 362 -1 362 -3 362 C-5 362 -6 362 -8 362 C-8 361 -8 361 -10 358 C-12 358 -14 358 -16 358 C-17 357 -17 355 -18 354 C-19 353 -21 353 -22 352 C-22 351 -22 351 -22 350 C-23 349 -25 349 -26 348 C-26 347 -26 347 -26 346 C-27 346 -28 345 -29 345 C-29 343 -28 342 -28 340 C-27 340 -27 339 -26 339 C-26 337 -25 334 -25 332 C-24 332 -23 332 -22 332 C-22 331 -22 331 -20 328 C-18 328 -16 328 -14 328 C-14 327 -14 327 -12 324 C-10 324 -8 324 -6 324 C-5 323 -5 321 -4 320 C2 320 7 320 13 320 C16 320 19 320 22 320 C23 319 23 317 24 316 C28 316 31 316 35 316 C36 316 37 316 38 316 C39 315 39 313 40 312 C43 311 43 311 47 311 C48 311 50 311 51 311 C52 311 53 311 54 311 C54 307 54 307 54 303 C53 302 51 301 50 300 C50 299 50 299 50 298 C49 297 47 297 46 296 C46 295 46 295 46 294 C45 293 43 293 42 292 C42 291 42 291 42 290 C41 289 39 289 38 288 C38 287 38 287 38 286 C37 286 36 286 35 286 C35 284 35 282 35 281 C35 279 34 277 34 275 C30 274 30 274 27 273 C27 273 27 273 26 270 C24 270 22 270 20 270 C20 269 20 269 18 266 C16 266 14 266 12 266 C12 265 12 265 10 262 C9 261 7 261 6 260 C6 259 6 259 6 258 C5 257 3 257 2 256 C2 255 2 255 2 254 C1 253 -1 253 -2 252 C-2 251 -2 251 -2 250 C-3 249 -5 249 -6 248 C-6 247 -6 247 -6 246 C-7 246 -8 246 -9 246 C-9 243 -9 239 -9 236 C-9 234 -9 232 -9 230 C-9 228 -9 227 -9 225 C-8 224 -7 224 -6 223 C-6 222 -6 220 -6 219 C-7 218 -9 217 -10 216 C-10 215 -10 215 -10 214 C-11 213 -13 213 -14 212 C-14 211 -14 211 -14 210 C-15 209 -17 209 -18 208 C-18 207 -18 207 -18 206 C-19 205 -21 205 -22 204 C-22 203 -22 203 -22 202 C-23 202 -24 202 -25 202 C-25 201 -25 200 -25 199 C-26 195 -26 195 -30 192 C-30 191 -30 191 -30 190 C-31 190 -32 190 -33 190 C-33 188 -33 186 -33 185 C-34 183 -34 181 -34 179 C-35 179 -36 178 -37 178 C-37 174 -37 171 -37 167 C-37 166 -37 165 -37 164 C-37 161 -37 159 -37 156 C-36 156 -35 156 -34 156 C-34 155 -34 155 -32 152 C-31 152 -31 152 -30 152 C-30 151 -30 151 -28 148 C-25 147 -25 147 -22 147 C-22 146 -22 144 -22 143 C-23 142 -25 141 -26 140 C-26 139 -26 139 -26 138 C-27 138 -28 138 -29 138 C-29 137 -29 136 -29 135 C-30 133 -30 132 -30 131 C-31 131 -32 130 -33 130 C-33 126 -34 123 -34 119 C-35 119 -36 118 -37 118 C-37 113 -37 108 -37 103 C-37 102 -37 100 -37 99 C-38 99 -40 98 -41 98 C-41 97 -41 97 -41 96 C-40 96 -40 96 -37 95 C-37 92 -37 92 -37 87 C-37 86 -37 85 -37 83 C-37 82 -37 81 -37 80 C-36 80 -35 80 -34 80 C-33 79 -33 77 -32 76 C-31 76 -31 76 -30 76 C-29 75 -29 73 -28 72 C-25 71 -25 71 -21 71 C-20 71 -18 71 -17 71 C-16 71 -15 71 -14 71 C-14 69 -14 67 -14 65 C-14 64 -14 63 -14 62 C-14 61 -14 60 -14 59 C-14 59 -14 59 -17 58 C-17 54 -17 54 -17 49 C-17 47 -17 45 -17 43 C-17 42 -17 41 -17 40 C-17 37 -17 34 -17 31 C-17 29 -17 27 -17 25 C-17 24 -17 24 -17 20 C-17 19 -17 17 -17 16 C-16 16 -15 15 -14 15 C-13 11 -13 11 -13 8 C-12 8 -11 8 -10 8 C-9 7 -9 5 -8 4 C-6 4 -4 4 -2 4 C-1 3 -1 1 0 0 Z M-2 19 C-6 26 -6 31 -4 39 C-4 39 -5 40 -5 40 C-5 46 -5 51 -3 56 C-3 58 -2 59 -2 61 C-1 67 2 72 5 77 C6 79 6 81 7 83 C11 92 15 100 21 108 C21 110 22 111 22 113 C17 115 16 115 11 113 C10 112 10 110 9 109 C7 107 5 104 3 102 C2 101 2 101 -1 98 C-4 95 -7 93 -10 90 C-11 89 -13 87 -14 86 C-16 85 -16 85 -22 85 C-26 96 -27 105 -23 116 C-22 118 -21 120 -20 122 C-19 124 -18 126 -17 128 C-16 133 -14 137 -11 141 C-10 141 -10 141 -9 141 C-8 142 -8 144 -7 145 C-3 150 1 155 5 159 C9 163 11 166 14 170 C13 170 11 171 10 171 C10 172 9 173 9 174 C4 173 3 172 -1 169 C-4 168 -6 166 -9 165 C-11 164 -12 163 -13 163 C-17 161 -17 161 -20 160 C-23 162 -23 162 -25 165 C-25 169 -25 169 -25 173 C-24 173 -23 173 -22 173 C-22 174 -22 175 -22 176 C-19 189 -9 200 1 208 C3 209 6 211 8 212 C14 216 19 219 23 225 C22 226 22 226 21 227 C21 228 21 230 21 231 C18 231 18 231 15 230 C15 229 14 229 14 228 C10 228 10 228 7 228 C7 229 6 230 6 231 C5 231 5 231 2 233 C3 240 8 247 13 252 C26 261 37 264 53 265 C53 266 53 267 53 268 C54 268 54 268 55 268 C55 269 55 270 55 271 C54 272 53 272 52 273 C50 276 50 276 50 280 C50 280 50 280 51 283 C52 283 52 283 53 283 C53 283 53 283 54 286 C60 290 65 291 72 293 C73 293 73 293 75 294 C80 295 85 295 90 295 C91 295 93 295 95 295 C99 295 103 294 107 293 C107 294 108 296 108 297 C109 298 110 298 111 299 C101 305 93 305 82 305 C77 305 74 306 70 308 C64 315 66 330 66 339 C63 338 63 338 60 337 C59 334 58 331 57 328 C56 328 56 328 52 325 C52 324 51 324 51 323 C50 323 48 324 47 324 C47 325 47 325 47 326 C46 326 45 326 44 326 C43 327 42 327 41 327 C41 327 41 327 38 327 C35 328 35 328 34 329 C32 329 30 330 28 330 C22 331 15 332 9 333 C6 334 6 334 1 334 C-4 335 -6 336 -9 340 C-8 343 -8 343 -7 346 C-4 348 -4 348 -1 349 C-0 350 1 350 2 351 C2 351 2 351 5 352 C6 352 6 352 8 354 C12 355 15 355 20 355 C21 355 22 355 24 355 C25 355 25 355 28 355 C31 355 34 355 37 355 C38 355 40 355 41 355 C44 355 44 355 46 356 C46 359 46 359 45 362 C37 366 37 366 34 366 C33 366 33 366 31 367 C30 370 30 370 30 374 C39 380 55 380 65 379 C67 375 67 375 66 370 C65 369 65 368 64 367 C61 362 62 358 62 352 C63 351 64 350 65 349 C70 350 71 352 73 356 C76 360 78 364 79 367 C82 371 84 375 87 379 C88 379 88 379 89 379 C90 380 90 382 91 383 C94 386 98 389 102 392 C105 394 105 394 107 399 C107 400 107 402 107 403 C108 409 110 411 115 415 C119 417 119 417 123 419 C124 419 125 420 126 420 C135 422 135 422 140 421 C144 418 147 415 150 412 C151 411 152 410 153 409 C155 409 156 410 158 410 C158 411 159 413 159 414 C162 418 162 418 165 419 C170 419 175 419 180 420 C184 420 184 420 188 421 C190 421 193 421 195 421 C197 421 198 421 199 421 C202 421 205 421 208 421 C209 421 211 421 212 422 C214 422 215 422 216 422 C217 422 218 422 219 422 C219 423 220 424 220 425 C221 425 221 425 222 425 C222 427 222 429 222 431 C223 432 224 434 225 435 C232 435 237 434 242 430 C248 423 248 423 249 419 C252 418 254 418 257 417 C257 416 257 416 257 415 C259 415 261 415 263 415 C266 414 266 414 269 412 C273 410 276 408 280 407 C304 399 327 381 340 360 C341 359 342 357 343 356 C347 351 350 346 353 341 C354 339 355 338 356 336 C364 324 368 312 372 298 C373 294 374 290 376 286 C378 280 379 274 379 268 C380 262 381 257 382 251 C385 251 387 252 390 252 C390 281 390 281 387 288 C387 289 387 290 387 291 C386 292 386 293 386 294 C385 295 384 295 383 296 C382 299 381 302 381 305 C380 308 379 311 378 314 C378 316 377 317 377 319 C378 320 379 321 380 322 C380 323 381 323 381 324 C384 324 384 324 388 324 C389 324 391 324 392 324 C398 324 401 323 406 320 C406 319 407 318 408 317 C409 316 409 315 410 314 C412 312 412 312 412 310 C413 310 415 310 416 310 C438 313 438 313 448 309 C448 308 448 308 448 307 C449 307 449 307 451 306 C455 305 455 305 459 301 C459 300 459 300 459 299 C460 299 460 299 461 299 C460 294 460 294 457 291 C457 291 457 291 455 288 C456 283 456 283 459 280 C462 280 462 280 467 280 C476 279 486 278 493 271 C494 271 496 270 497 270 C498 269 500 269 501 268 C501 267 502 266 502 265 C504 264 505 264 507 263 C510 261 510 261 513 258 C514 257 515 257 516 256 C518 253 518 253 519 249 C518 248 518 247 518 246 C513 244 509 244 503 244 C494 244 494 244 490 242 C491 238 491 238 494 236 C496 235 497 235 498 234 C500 233 501 233 503 232 C506 230 510 229 513 228 C520 225 525 221 530 217 C531 216 532 216 533 215 C543 207 555 196 558 183 C558 181 558 179 558 177 C554 174 554 174 549 174 C544 176 540 179 535 182 C530 184 525 186 520 187 C519 184 519 184 519 181 C521 177 524 174 528 171 C538 163 548 154 555 143 C555 142 555 141 555 140 C556 140 556 140 557 140 C558 138 559 135 560 133 C564 126 564 126 566 125 C570 117 571 110 570 101 C568 97 568 97 565 95 C565 96 564 96 564 97 C564 97 564 97 561 98 C558 99 555 101 552 103 C551 104 550 105 549 105 C545 109 541 112 538 115 C535 117 532 119 530 121 C529 122 527 123 526 124 C526 125 526 125 526 126 C524 127 523 127 521 128 C520 128 520 128 518 131 C514 134 510 136 505 139 C501 141 498 143 494 145 C493 146 492 146 491 147 C485 151 478 155 472 159 C469 161 469 161 466 162 C465 162 464 163 463 163 C463 164 463 164 463 165 C460 166 457 166 454 167 C450 168 446 171 442 174 C439 175 437 175 434 176 C429 178 424 180 420 182 C419 182 418 183 417 183 C410 186 405 190 402 197 C402 198 401 199 401 200 C400 205 400 205 399 208 C398 207 396 206 395 205 C393 205 392 204 390 204 C391 192 391 192 392 189 C392 187 392 184 392 182 C392 181 392 181 392 178 C392 177 392 176 392 175 C387 176 384 177 380 180 C377 182 373 183 370 185 C366 187 366 187 365 191 C365 192 365 193 365 194 C364 194 364 194 363 194 C362 195 360 197 359 198 C356 199 356 199 352 200 C348 201 346 202 343 205 C343 206 343 206 342 209 C340 216 336 220 331 224 C327 227 325 227 320 226 C311 220 309 214 306 204 C303 197 300 191 295 185 C294 185 293 184 292 184 C292 179 292 179 294 177 C294 176 293 175 293 174 C291 174 290 173 288 173 C288 174 288 176 288 177 C287 177 286 177 285 177 C281 178 281 178 277 182 C275 182 274 183 272 183 C272 181 273 180 273 178 C272 177 272 177 266 176 C259 175 255 173 250 168 C246 161 244 154 245 146 C247 139 247 139 249 137 C251 137 254 137 256 137 C264 137 264 137 267 134 C268 133 268 132 269 131 C273 125 273 125 277 123 C280 123 280 123 283 123 C285 123 287 123 289 123 C289 122 290 121 290 120 C294 123 296 126 298 131 C300 130 302 130 304 129 C305 129 306 129 307 128 C310 127 312 127 315 126 C326 122 326 122 331 123 C332 124 333 124 334 125 C338 126 340 126 344 125 C345 124 347 124 348 123 C349 123 350 123 351 123 C351 124 352 124 352 125 C357 123 357 123 358 120 C361 116 363 114 368 112 C374 112 379 113 385 115 C383 93 373 78 358 62 C358 62 358 62 355 59 C349 53 343 48 336 44 C335 43 334 43 333 42 C327 39 321 36 314 34 C312 33 311 33 309 32 C303 31 298 30 292 30 C291 30 291 29 290 29 C260 28 231 32 208 53 C207 54 206 55 205 56 C202 59 200 61 197 63 C182 77 174 95 167 113 C166 115 165 118 164 120 C161 126 159 132 157 138 C156 140 155 142 155 144 C145 169 145 169 148 175 C149 176 149 178 150 179 C151 179 151 179 152 179 C153 181 153 183 154 185 C155 187 156 188 157 190 C158 192 159 194 159 196 C159 197 159 197 160 200 C161 203 161 203 161 209 C158 210 158 210 155 209 C153 206 153 206 151 202 C150 200 149 199 149 198 C147 194 147 194 146 191 C145 191 145 191 144 191 C144 190 143 188 143 187 C143 186 142 185 142 184 C141 184 141 184 140 184 C140 182 139 181 139 179 C137 176 137 176 135 174 C132 170 129 167 126 163 C120 156 114 149 106 142 C103 139 100 136 97 132 C96 131 95 130 93 129 C90 125 87 121 84 116 C83 115 82 114 82 114 C78 110 75 105 72 101 C69 98 67 96 64 93 C54 82 46 70 38 58 C36 55 34 52 32 49 C28 44 25 39 22 34 C20 30 18 27 15 24 C14 23 14 22 13 21 C11 18 11 18 7 16 C3 16 3 16 -2 19 Z " fill="#131417" transform="translate(210,25)"/>
<path d="M0 0 C2 2 2 2 4 5 C4 5 4 5 6 8 C6 8 6 8 8 11 C9 12 10 14 11 15 C14 19 16 22 18 26 C20 28 21 31 23 33 C25 37 28 41 31 45 C38 56 46 67 55 77 C60 83 65 89 70 95 C72 98 72 98 75 101 C76 103 77 104 79 106 C82 110 86 114 91 119 C93 121 93 121 96 125 C99 128 99 128 103 131 C110 138 116 145 122 153 C122 153 122 153 124 156 C125 157 126 158 126 159 C127 160 128 161 128 162 C130 164 130 164 130 167 C131 167 131 167 132 167 C134 171 134 171 134 174 C135 174 135 174 136 174 C137 177 139 179 140 182 C141 183 141 185 142 186 C143 188 143 189 144 190 C145 192 145 192 150 194 C154 207 153 222 152 236 C152 235 152 234 153 233 C153 232 153 231 154 230 C154 228 154 227 155 226 C155 225 155 225 156 223 C160 222 160 222 164 223 C165 224 166 224 167 225 C168 225 169 225 170 226 C176 228 177 232 180 237 C181 238 182 240 182 241 C184 246 185 249 184 254 C180 258 179 258 174 260 C172 265 173 271 173 276 C173 278 173 279 173 280 C173 287 173 292 176 298 C175 299 175 300 174 301 C172 301 171 300 169 300 C167 296 167 296 166 292 C163 290 160 291 156 291 C156 291 156 291 153 294 C151 294 149 294 147 294 C146 293 145 292 144 291 C141 291 141 291 138 292 C137 294 136 297 135 299 C131 300 131 300 129 299 C123 299 121 300 116 302 C110 305 106 307 100 308 C97 310 95 311 92 313 C88 314 87 314 83 313 C82 314 82 314 81 315 C80 315 79 316 78 316 C74 317 73 318 71 322 C70 331 74 340 78 348 C84 356 90 362 100 366 C101 367 103 369 104 370 C112 375 120 379 129 383 C136 387 136 387 137 392 C137 396 137 396 134 400 C130 404 130 404 125 405 C115 403 107 401 100 394 C97 389 97 385 96 379 C94 376 91 374 88 372 C84 369 81 367 79 362 C78 362 78 362 77 362 C75 360 74 358 73 355 C72 354 71 353 70 352 C68 348 67 345 65 342 C60 333 60 333 55 332 C52 335 52 335 52 340 C52 346 54 350 57 355 C56 359 56 359 55 362 C45 363 29 363 20 357 C20 354 20 354 21 350 C25 349 25 349 30 348 C31 347 32 346 33 345 C34 345 34 345 35 345 C35 343 36 341 36 339 C32 338 29 338 25 338 C24 338 23 338 22 338 C19 338 16 338 14 338 C1 339 -8 335 -18 328 C-18 326 -19 325 -19 323 C-14 318 -10 317 -3 316 C3 316 8 315 14 313 C16 313 17 313 19 312 C24 312 24 312 28 310 C31 310 34 309 37 309 C37 308 37 308 37 307 C38 307 40 306 41 306 C42 307 42 307 45 310 C46 310 46 311 47 311 C47 312 48 314 48 315 C49 316 49 316 50 320 C53 321 53 321 56 322 C56 321 56 320 56 319 C56 296 56 296 60 291 C65 288 69 288 75 288 C94 288 94 288 101 281 C100 281 99 280 98 280 C98 279 97 277 97 276 C97 276 97 276 94 277 C81 280 68 279 56 274 C54 273 53 273 51 272 C47 271 47 271 43 268 C43 267 43 267 43 266 C42 266 42 266 41 266 C40 263 40 263 40 259 C42 256 42 256 45 253 C45 252 45 252 45 251 C44 251 44 251 43 251 C43 250 43 249 43 248 C42 248 41 248 39 248 C38 247 36 247 34 247 C34 247 34 247 30 247 C18 245 7 240 -1 230 C-2 230 -2 229 -3 228 C-4 227 -4 226 -5 225 C-7 222 -8 220 -8 216 C-7 216 -7 216 -4 214 C-4 213 -3 212 -3 211 C0 211 0 211 4 211 C4 212 5 212 5 213 C8 214 8 214 11 214 C12 209 12 209 12 207 C7 201 2 197 -5 193 C-16 187 -23 178 -29 167 C-30 166 -30 165 -31 164 C-32 161 -32 161 -32 156 C-33 156 -34 156 -35 156 C-35 151 -36 149 -33 145 C-32 144 -31 144 -30 143 C-21 147 -12 151 -4 157 C-3 157 -2 157 -1 157 C-0 156 0 154 1 153 C2 153 3 153 4 153 C0 148 -4 143 -8 139 C-12 135 -16 131 -19 126 C-19 125 -19 125 -19 124 C-20 124 -20 124 -21 124 C-26 115 -30 106 -33 97 C-34 96 -34 94 -35 93 C-36 88 -36 85 -35 80 C-35 79 -35 78 -35 77 C-33 69 -33 69 -32 68 C-26 68 -26 68 -21 71 C-19 73 -18 75 -16 77 C-15 78 -14 79 -12 80 C-7 84 -3 89 1 94 C1 95 1 95 1 96 C4 97 4 97 7 98 C8 98 8 98 12 96 C11 90 8 86 5 81 C2 78 1 75 -1 71 C-1 70 -1 70 -3 68 C-4 65 -4 65 -5 61 C-6 58 -6 58 -9 53 C-12 47 -13 41 -14 35 C-14 34 -15 34 -15 33 C-15 30 -15 26 -15 23 C-15 23 -14 22 -14 22 C-14 20 -15 19 -15 17 C-15 11 -16 8 -13 3 C-9 -2 -6 -1 0 0 Z " fill="#888DA0" transform="translate(220,42)"/>
<path d="M0 0 C5 4 5 4 6 6 C7 15 6 22 2 30 C1 31 0 32 -1 33 C-3 36 -4 39 -6 42 C-6 43 -6 43 -7 45 C-8 45 -8 45 -9 45 C-9 46 -10 48 -10 49 C-18 60 -28 71 -39 79 C-42 81 -42 81 -45 86 C-45 89 -45 89 -44 92 C-35 90 -28 86 -20 82 C-16 80 -13 79 -9 79 C-8 80 -7 81 -6 82 C-6 93 -11 99 -18 107 C-20 109 -22 111 -23 113 C-33 123 -44 129 -57 135 C-60 136 -63 138 -66 139 C-67 140 -68 140 -70 141 C-73 143 -73 143 -74 147 C-68 150 -62 149 -56 149 C-51 149 -51 149 -46 151 C-45 154 -45 154 -46 158 C-48 161 -48 161 -51 163 C-52 164 -53 165 -54 166 C-57 168 -57 168 -62 170 C-62 171 -63 172 -63 173 C-66 174 -69 176 -72 177 C-74 178 -75 179 -77 180 C-85 184 -92 184 -101 184 C-105 185 -105 185 -109 189 C-109 192 -109 192 -108 195 C-107 196 -107 196 -104 199 C-104 200 -104 200 -103 204 C-104 204 -104 204 -105 204 C-106 205 -106 207 -107 208 C-112 211 -112 211 -116 212 C-116 213 -116 213 -116 214 C-127 218 -138 217 -149 215 C-149 215 -149 215 -152 215 C-153 216 -153 218 -154 219 C-155 221 -156 222 -158 224 C-158 224 -159 225 -160 226 C-164 230 -170 229 -176 229 C-177 229 -178 229 -180 229 C-180 229 -180 229 -183 229 C-184 228 -184 226 -185 225 C-186 225 -186 224 -187 224 C-186 221 -186 219 -185 216 C-184 213 -183 210 -182 206 C-181 201 -181 201 -178 199 C-177 196 -177 193 -176 190 C-176 190 -175 189 -175 189 C-175 185 -174 180 -174 176 C-174 173 -174 170 -174 167 C-173 160 -173 160 -174 157 C-178 155 -178 155 -182 155 C-180 146 -180 146 -179 144 C-178 141 -178 137 -178 134 C-177 131 -177 131 -175 128 C-175 126 -175 125 -175 123 C-175 123 -175 123 -174 121 C-174 119 -175 118 -175 116 C-175 114 -174 111 -174 109 C-170 109 -168 110 -165 113 C-165 111 -164 109 -164 108 C-162 101 -161 98 -156 93 C-151 90 -145 87 -140 85 C-138 84 -137 83 -135 83 C-131 81 -131 81 -126 80 C-122 79 -122 79 -118 76 C-113 73 -109 72 -104 71 C-103 71 -102 70 -101 70 C-101 69 -101 69 -101 68 C-99 67 -97 67 -95 66 C-92 64 -90 63 -87 61 C-80 56 -72 52 -65 48 C-48 38 -48 38 -42 33 C-40 31 -40 31 -38 31 C-38 30 -38 30 -38 29 C-36 28 -35 26 -33 25 C-33 24 -33 24 -30 22 C-29 22 -28 21 -27 20 C-26 19 -24 18 -23 16 C-21 15 -20 14 -18 13 C-17 12 -16 11 -15 11 C-14 10 -14 10 -12 8 C-11 7 -10 7 -9 6 C-6 4 -3 3 0 2 C0 1 0 1 0 0 Z " fill="#63697E" transform="translate(774,120)"/>
<path d="M0 0 C3 0 5 1 8 1 C15 2 21 3 27 6 C29 7 30 7 32 8 C53 17 71 34 83 54 C84 55 84 56 85 57 C90 66 92 75 93 85 C92 85 92 85 87 83 C81 82 77 82 71 85 C68 87 68 87 66 91 C66 91 66 91 64 94 C63 94 63 94 59 95 C59 94 59 94 59 93 C54 94 54 94 49 96 C45 96 43 95 39 93 C32 92 26 95 19 97 C10 100 10 100 6 101 C4 98 3 95 1 92 C0 91 -1 91 -2 90 C-2 91 -3 92 -3 93 C-6 93 -9 93 -12 93 C-15 93 -15 93 -20 96 C-22 99 -24 102 -26 105 C-28 107 -28 107 -31 107 C-34 107 -37 107 -39 107 C-41 107 -42 107 -43 107 C-48 115 -48 120 -46 129 C-43 136 -40 141 -34 144 C-29 146 -25 147 -20 147 C-19 149 -19 149 -20 153 C-31 155 -39 155 -49 149 C-56 144 -60 138 -63 130 C-65 116 -65 102 -57 90 C-58 90 -59 90 -60 90 C-66 90 -69 89 -74 87 C-79 86 -85 84 -90 83 C-97 80 -100 77 -106 73 C-110 70 -110 70 -114 70 C-115 73 -115 73 -116 76 C-117 76 -117 76 -118 76 C-118 77 -119 78 -119 79 C-120 79 -120 79 -121 79 C-121 80 -121 82 -121 83 C-121 88 -121 88 -123 90 C-123 92 -124 93 -124 95 C-125 95 -125 95 -126 95 C-126 96 -125 98 -125 99 C-126 99 -128 99 -129 99 C-129 101 -129 103 -129 105 C-130 113 -133 120 -136 127 C-137 129 -137 130 -138 132 C-139 132 -139 133 -140 133 C-141 136 -141 136 -142 140 C-141 141 -139 143 -138 144 C-138 145 -138 145 -138 146 C-139 146 -139 146 -140 146 C-140 147 -140 147 -140 148 C-139 148 -138 149 -137 149 C-137 150 -137 150 -138 153 C-139 152 -139 150 -140 149 C-141 149 -141 149 -142 149 C-146 142 -146 142 -145 137 C-142 128 -140 120 -136 111 C-135 108 -134 105 -133 101 C-130 95 -128 89 -125 83 C-123 79 -122 76 -121 72 C-109 42 -85 20 -56 6 C-43 0 -14 -7 0 0 Z " fill="#C7CAD4" transform="translate(502,55)"/>
<path d="M0 0 C2 2 2 2 4 5 C4 5 4 5 6 8 C6 8 6 8 8 11 C9 12 10 14 11 15 C14 19 16 22 18 26 C20 28 21 31 23 33 C23 34 24 36 25 37 C27 40 29 42 31 45 C32 47 33 48 34 49 C34 50 35 52 36 53 C38 56 38 56 39 59 C37 61 37 61 34 64 C29 69 29 70 29 76 C29 80 30 85 31 89 C31 89 31 89 32 92 C34 101 34 101 38 104 C42 104 44 104 48 102 C52 101 54 101 58 101 C63 104 63 104 64 105 C64 107 64 108 64 110 C58 111 58 111 55 110 C50 113 49 115 46 120 C44 132 46 145 50 157 C51 160 51 160 49 164 C45 170 45 175 45 182 C46 182 46 182 47 182 C47 183 48 184 48 185 C49 190 53 194 56 198 C58 201 58 201 58 205 C57 208 56 210 53 213 C52 213 52 214 51 214 C50 218 50 218 50 222 C51 222 52 223 53 223 C54 225 55 227 56 229 C57 230 57 231 58 232 C62 237 62 242 62 249 C61 250 60 251 59 252 C57 252 55 251 53 251 C51 252 50 252 48 253 C47 253 46 253 45 253 C45 252 45 252 45 251 C44 251 44 251 43 251 C43 250 43 249 43 248 C42 248 41 248 39 248 C38 247 36 247 34 247 C34 247 34 247 30 247 C18 245 7 240 -1 230 C-2 230 -2 229 -3 228 C-4 227 -4 226 -5 225 C-7 222 -8 220 -8 216 C-7 216 -7 216 -4 214 C-4 213 -3 212 -3 211 C0 211 0 211 4 211 C4 212 5 212 5 213 C8 214 8 214 11 214 C12 209 12 209 12 207 C7 201 2 197 -5 193 C-16 187 -23 178 -29 167 C-30 166 -30 165 -31 164 C-32 161 -32 161 -32 156 C-33 156 -34 156 -35 156 C-35 151 -36 149 -33 145 C-32 144 -31 144 -30 143 C-21 147 -12 151 -4 157 C-3 157 -2 157 -1 157 C-0 156 0 154 1 153 C2 153 3 153 4 153 C0 148 -4 143 -8 139 C-12 135 -16 131 -19 126 C-19 125 -19 125 -19 124 C-20 124 -20 124 -21 124 C-26 115 -30 106 -33 97 C-34 96 -34 94 -35 93 C-36 88 -36 85 -35 80 C-35 79 -35 78 -35 77 C-33 69 -33 69 -32 68 C-26 68 -26 68 -21 71 C-19 73 -18 75 -16 77 C-15 78 -14 79 -12 80 C-7 84 -3 89 1 94 C1 95 1 95 1 96 C4 97 4 97 7 98 C8 98 8 98 12 96 C11 90 8 86 5 81 C2 78 1 75 -1 71 C-1 70 -1 70 -3 68 C-4 65 -4 65 -5 61 C-6 58 -6 58 -9 53 C-12 47 -13 41 -14 35 C-14 34 -15 34 -15 33 C-15 30 -15 26 -15 23 C-15 23 -14 22 -14 22 C-14 20 -15 19 -15 17 C-15 11 -16 8 -13 3 C-9 -2 -6 -1 0 0 Z M43 255 C44 255 44 256 45 256 C44 257 44 257 41 262 C41 261 40 260 40 259 C41 258 42 256 43 255 Z " fill="#6A7186" transform="translate(220,42)"/>
<path d="M0 0 C5 2 6 4 8 9 C11 18 11 27 12 37 C11 37 10 37 10 37 C10 38 10 40 10 41 C10 41 11 41 12 41 C12 44 12 47 12 51 C12 53 12 55 12 58 C10 63 4 65 -1 68 C-2 68 -3 69 -4 70 C-7 71 -7 71 -11 72 C-14 74 -14 74 -16 78 C-16 79 -16 80 -16 81 C-17 81 -18 81 -18 81 C-19 82 -19 82 -20 85 C-24 86 -24 86 -28 88 C-35 90 -35 90 -37 92 C-38 93 -38 95 -38 96 C-40 103 -44 107 -50 112 C-54 114 -56 115 -61 114 C-71 109 -73 100 -77 91 C-79 85 -81 81 -85 76 C-86 74 -86 74 -86 72 C-88 72 -89 71 -90 71 C-90 66 -90 66 -88 62 C-90 61 -92 61 -93 60 C-93 61 -93 63 -93 64 C-94 64 -96 64 -97 64 C-98 64 -99 65 -100 65 C-101 66 -102 68 -102 69 C-103 69 -103 69 -107 71 C-108 71 -109 70 -109 70 C-109 68 -109 67 -109 65 C-110 65 -110 65 -115 64 C-122 63 -127 61 -132 55 C-136 48 -138 41 -137 33 C-135 26 -135 26 -132 23 C-128 23 -125 23 -121 23 C-117 23 -117 23 -115 21 C-114 20 -114 19 -113 18 C-109 11 -109 11 -104 9 C-95 9 -95 9 -92 10 C-92 8 -92 7 -92 5 C-92 5 -92 5 -91 7 C-90 8 -89 8 -87 9 C-86 11 -84 14 -82 17 C-81 16 -80 16 -79 16 C-75 14 -71 13 -67 12 C-59 10 -59 10 -57 9 C-53 9 -51 9 -47 10 C-43 12 -41 12 -37 11 C-36 10 -35 10 -33 9 C-32 10 -31 10 -29 11 C-29 10 -28 10 -27 9 C-27 10 -27 10 -27 11 C-24 8 -24 8 -21 3 C-14 -3 -9 -2 0 0 Z " fill="#C6C9D3" transform="translate(591.3125,138.125)"/>
<path d="M0 0 C6 0 6 0 10 3 C11 3 12 3 13 4 C19 6 20 10 23 15 C23 16 23 16 25 19 C27 24 28 27 27 32 C23 36 22 36 17 38 C15 43 16 49 16 54 C16 56 16 57 16 58 C16 65 16 70 19 76 C18 77 18 78 17 79 C15 79 14 78 12 78 C10 74 10 74 9 70 C6 68 3 69 -1 69 C-2 70 -3 71 -4 72 C-6 72 -8 72 -10 72 C-11 71 -12 70 -13 69 C-16 69 -16 69 -19 70 C-20 72 -21 75 -22 77 C-26 78 -26 78 -28 77 C-34 77 -36 78 -41 80 C-47 83 -51 85 -57 86 C-60 88 -62 89 -65 91 C-69 92 -70 92 -74 91 C-75 92 -75 92 -76 93 C-77 93 -78 94 -79 94 C-83 95 -84 96 -86 100 C-87 109 -83 118 -79 126 C-73 134 -67 140 -57 144 C-56 145 -56 145 -53 148 C-45 153 -37 157 -28 161 C-21 165 -21 165 -20 170 C-20 174 -20 174 -23 178 C-27 182 -27 182 -32 183 C-42 181 -50 179 -57 172 C-60 167 -60 163 -61 157 C-63 154 -66 152 -69 150 C-73 147 -76 145 -78 140 C-79 140 -79 140 -80 140 C-82 138 -83 136 -84 133 C-85 132 -86 131 -87 130 C-89 126 -90 123 -92 120 C-97 111 -97 111 -102 110 C-105 113 -105 113 -106 118 C-105 124 -103 128 -100 133 C-101 137 -101 137 -102 140 C-112 141 -128 141 -137 135 C-137 132 -137 132 -136 128 C-132 127 -132 127 -127 126 C-126 125 -125 124 -124 123 C-123 123 -123 123 -122 123 C-122 121 -121 119 -121 117 C-125 116 -128 116 -132 116 C-133 116 -134 116 -135 116 C-138 116 -141 116 -143 116 C-156 117 -165 113 -175 106 C-175 104 -176 103 -176 101 C-171 96 -167 95 -160 94 C-154 94 -149 93 -143 91 C-141 91 -140 91 -138 90 C-133 90 -133 90 -129 88 C-126 88 -123 87 -120 87 C-120 86 -120 86 -120 85 C-119 85 -119 85 -116 84 C-115 85 -113 87 -112 88 C-111 88 -111 89 -110 89 C-110 90 -109 92 -109 93 C-108 95 -108 96 -107 98 C-104 99 -104 99 -101 100 C-101 99 -101 98 -101 97 C-101 74 -101 74 -97 69 C-92 66 -88 66 -82 66 C-73 66 -64 66 -56 60 C-52 57 -52 57 -47 56 C-35 53 -22 41 -16 31 C-12 25 -10 19 -7 13 C-7 13 -7 13 -5 14 C-5 13 -4 12 -4 11 C-4 10 -3 9 -3 8 C-3 6 -2 5 -2 4 C-1 1 -1 1 0 0 Z " fill="#C2C5D0" transform="translate(377,264)"/>
<path d="M0 0 C3 -1 3 -1 7 -1 C9 -1 10 -1 12 -1 C14 -1 15 -1 17 -1 C19 -1 21 -1 23 -1 C27 -1 32 -1 37 -1 C42 -1 48 -1 53 -1 C61 -1 70 -1 79 -1 C89 -0 99 -1 109 -1 C117 -1 126 -1 134 -1 C140 -1 145 -1 150 -1 C155 -1 161 -1 167 -1 C168 -1 168 -1 172 -1 C174 -1 175 -1 177 -1 C177 -1 177 -1 181 -1 C182 -0 183 -0 184 0 C184 1 184 1 186 4 C189 4 189 4 194 4 C194 4 194 4 198 4 C199 4 199 4 203 4 C206 4 209 4 212 4 C214 4 215 4 217 4 C217 4 217 4 220 4 C221 5 221 7 222 8 C226 8 226 8 231 8 C236 8 236 8 240 8 C241 9 241 11 242 12 C243 12 244 13 245 13 C245 15 244 16 244 18 C243 18 243 18 242 18 C241 19 241 21 240 22 C236 22 233 22 229 22 C229 22 229 22 226 22 C225 23 225 25 224 26 C220 26 220 26 216 26 C214 26 212 26 210 26 C207 26 203 26 200 26 C198 26 196 26 194 26 C193 26 191 26 190 26 C188 26 187 26 186 26 C185 27 185 29 184 30 C181 31 181 31 177 31 C175 31 174 31 172 31 C170 31 169 31 167 31 C165 31 163 31 161 31 C157 31 152 31 147 31 C142 31 136 31 131 31 C123 31 114 31 105 31 C95 30 85 31 75 31 C67 31 58 31 50 31 C44 31 39 31 34 31 C29 31 23 31 17 31 C15 31 14 31 12 31 C10 31 9 31 7 31 C6 31 5 31 3 31 C2 30 1 30 0 30 C-1 29 -1 27 -2 26 C-5 26 -5 26 -10 26 C-11 26 -13 26 -14 26 C-15 26 -15 26 -19 26 C-22 26 -25 26 -28 26 C-29 26 -29 26 -33 26 C-33 26 -33 26 -36 26 C-37 25 -37 23 -38 22 C-42 22 -45 22 -49 22 C-53 22 -56 22 -60 22 C-61 21 -61 19 -62 18 C-63 18 -64 17 -65 17 C-65 15 -64 14 -64 12 C-63 12 -63 12 -62 12 C-61 11 -61 9 -60 8 C-55 8 -51 8 -46 8 C-43 8 -41 8 -38 8 C-37 7 -37 5 -36 4 C-33 4 -33 4 -28 4 C-27 4 -25 4 -24 4 C-21 4 -17 4 -14 4 C-13 4 -11 4 -10 4 C-8 4 -7 4 -5 4 C-4 4 -3 4 -2 4 C-1 3 -1 1 0 0 Z " fill="#DADCE2" transform="translate(306,541)"/>
<path d="M0 0 C1 0 3 1 4 1 C0 4 -4 6 -8 9 C-16 12 -16 12 -19 14 C-22 15 -22 15 -24 15 C-24 18 -24 18 -23 22 C-19 24 -19 24 -13 26 C-12 27 -10 27 -8 28 C-3 29 0 29 5 29 C6 28 7 28 8 27 C9 28 11 28 12 29 C13 28 13 28 14 27 C14 30 14 33 13 37 C13 38 13 40 13 42 C12 47 11 49 8 53 C7 54 6 55 5 56 C-0 62 -6 67 -13 71 C-14 71 -14 71 -15 71 C-13 76 -13 76 -10 80 C-8 84 -8 84 -9 87 C-14 94 -21 98 -27 103 C-28 103 -28 103 -29 103 C-30 104 -30 106 -31 107 C-38 118 -38 118 -43 121 C-47 122 -47 122 -52 122 C-55 122 -58 122 -60 123 C-64 123 -68 123 -72 123 C-72 123 -73 122 -73 122 C-73 120 -73 117 -73 115 C-73 113 -73 112 -73 110 C-73 107 -72 104 -72 101 C-72 100 -72 100 -72 96 C-72 95 -72 94 -72 92 C-72 91 -73 90 -73 89 C-77 88 -77 88 -81 87 C-79 78 -79 78 -78 76 C-77 73 -77 69 -77 66 C-76 63 -76 63 -74 60 C-74 58 -74 57 -74 55 C-74 54 -73 54 -73 53 C-73 52 -73 52 -74 48 C-74 46 -73 43 -73 41 C-69 41 -67 42 -64 45 C-64 44 -64 44 -63 40 C-61 33 -60 30 -55 25 C-50 22 -44 19 -39 17 C-38 17 -38 17 -34 15 C-30 13 -30 13 -26 12 C-21 11 -21 11 -16 8 C-12 5 -8 4 -3 3 C-2 3 -1 2 0 2 C0 1 0 1 0 0 Z " fill="#888DA1" transform="translate(673,188)"/>
<path d="M0 0 C2 2 2 2 4 5 C4 5 4 5 6 8 C6 8 6 8 8 11 C9 12 10 14 11 15 C14 19 16 22 18 26 C20 28 21 31 23 33 C23 34 24 36 25 37 C27 40 29 42 31 45 C32 47 33 48 34 49 C34 50 35 52 36 53 C38 56 38 56 39 59 C37 61 37 61 34 64 C29 69 29 70 29 76 C29 80 30 85 31 89 C31 89 31 89 32 92 C34 101 34 101 38 104 C41 105 41 105 44 105 C43 106 43 107 42 108 C39 114 37 122 36 129 C34 134 33 136 29 139 C21 139 12 137 6 132 C-0 126 -4 119 -8 111 C-10 107 -12 106 -17 105 C-21 105 -21 105 -24 106 C-25 107 -25 108 -26 109 C-27 109 -27 109 -28 109 C-33 100 -37 91 -35 80 C-35 79 -35 78 -35 77 C-33 69 -33 69 -32 68 C-26 68 -26 68 -21 71 C-19 73 -18 75 -16 77 C-15 78 -14 79 -12 80 C-7 84 -3 89 1 94 C1 95 1 95 1 96 C4 97 4 97 7 98 C8 98 8 98 12 96 C11 90 8 86 5 81 C2 78 1 75 -1 71 C-1 70 -1 70 -3 68 C-4 65 -4 65 -5 61 C-6 58 -6 58 -9 53 C-12 47 -13 41 -14 35 C-14 34 -15 34 -15 33 C-15 30 -15 26 -15 23 C-15 23 -14 22 -14 22 C-14 20 -15 19 -15 17 C-15 11 -16 8 -13 3 C-9 -2 -6 -1 0 0 Z " fill="#6C7387" transform="translate(220,42)"/>
<path d="M0 0 C1 0 1 0 5 1 C6 2 6 4 7 5 C8 6 8 8 9 9 C16 9 18 7 23 3 C25 3 26 3 28 3 C32 7 33 9 33 15 C33 24 28 33 22 39 C19 41 19 41 16 42 C13 44 13 44 12 47 C12 48 12 49 12 50 C11 53 11 56 10 59 C9 59 9 59 8 59 C7 60 7 62 6 63 C3 64 3 64 -2 66 C-9 68 -9 68 -11 70 C-11 71 -11 73 -12 74 C-14 81 -18 85 -23 90 C-28 93 -30 93 -35 92 C-44 87 -47 79 -50 69 C-52 64 -54 60 -57 56 C-60 52 -61 50 -61 45 C-61 43 -60 42 -60 41 C-60 41 -60 41 -57 40 C-56 39 -56 37 -55 36 C-53 34 -51 32 -49 30 C-48 28 -47 27 -46 26 C-40 20 -35 16 -26 16 C-21 16 -21 16 -16 18 C-15 18 -13 19 -12 19 C-8 15 -7 13 -6 8 C-4 3 -4 3 0 0 Z " fill="#070708" transform="translate(565,160)"/>
<path d="M0 0 C5 4 5 4 6 6 C7 15 6 22 2 30 C1 31 0 32 -1 33 C-3 36 -4 39 -6 42 C-6 43 -7 44 -7 45 C-8 45 -8 45 -9 45 C-9 46 -10 48 -10 49 C-31 77 -31 77 -45 82 C-48 87 -48 87 -49 92 C-56 91 -56 91 -59 89 C-61 89 -63 89 -65 89 C-71 88 -71 88 -74 86 C-74 85 -74 85 -76 83 C-78 81 -78 81 -81 79 C-84 79 -84 79 -87 80 C-87 81 -87 82 -86 83 C-86 87 -86 91 -86 95 C-87 95 -87 95 -88 95 C-88 95 -88 95 -89 98 C-91 97 -92 97 -94 96 C-94 96 -94 96 -96 98 C-103 99 -108 97 -114 95 C-116 94 -118 94 -120 93 C-124 91 -124 91 -126 86 C-125 83 -125 83 -121 81 C-119 80 -117 79 -115 78 C-114 78 -113 77 -112 77 C-104 73 -104 73 -102 73 C-102 72 -101 72 -101 71 C-95 66 -89 62 -82 58 C-81 57 -80 56 -79 56 C-75 54 -72 52 -69 50 C-48 38 -48 38 -42 33 C-40 31 -40 31 -38 31 C-38 30 -38 30 -38 29 C-36 28 -35 26 -33 25 C-32 24 -31 23 -30 22 C-29 22 -28 21 -27 20 C-26 19 -24 18 -23 16 C-21 15 -20 14 -18 13 C-17 12 -16 11 -15 11 C-14 10 -14 10 -12 8 C-11 7 -10 7 -9 6 C-6 4 -3 3 0 2 C0 1 0 1 0 0 Z " fill="#6B7287" transform="translate(774,120)"/>
<path d="M0 0 C1 0 2 0 3 0 C4 0 4 0 5 0 C5 0 5 0 6 2 C7 2 8 2 9 2 C10 7 10 7 11 12 C11 13 11 13 12 17 C13 17 13 18 14 18 C16 27 16 27 15 31 C15 32 14 34 14 35 C14 36 13 37 13 38 C12 41 12 41 12 46 C11 50 11 50 8 53 C7 53 6 53 5 54 C4 54 3 55 2 55 C2 58 3 60 3 63 C1 66 1 66 -2 68 C-6 66 -6 66 -8 61 C-16 59 -25 59 -32 62 C-33 63 -34 63 -35 64 C-42 67 -50 67 -58 65 C-58 65 -58 65 -61 65 C-62 66 -62 68 -63 69 C-64 70 -64 72 -65 73 C-70 73 -72 71 -76 67 C-79 67 -79 67 -83 67 C-90 66 -94 65 -100 60 C-100 58 -99 57 -99 55 C-94 53 -90 54 -85 56 C-84 53 -84 53 -85 50 C-84 49 -82 47 -81 46 C-80 46 -78 47 -77 47 C-76 47 -76 47 -72 46 C-72 45 -72 45 -72 44 C-64 39 -64 39 -59 40 C-58 40 -57 41 -56 41 C-53 42 -53 42 -47 42 C-46 41 -44 40 -43 39 C-38 41 -38 41 -34 45 C-31 47 -31 47 -27 49 C-25 49 -24 50 -23 51 C-19 52 -16 52 -11 52 C-7 49 -7 49 -6 45 C-6 41 -6 41 -9 37 C-13 35 -18 34 -22 32 C-26 30 -26 30 -28 27 C-29 22 -28 20 -27 16 C-25 13 -25 13 -22 12 C-21 12 -21 12 -18 12 C-15 12 -15 12 -12 11 C-11 10 -11 9 -10 8 C-9 8 -8 8 -7 8 C-6 5 -6 5 -5 1 C-5 1 -5 1 -7 0 C-4 -1 -4 -1 0 0 Z " fill="#C1C4D0" transform="translate(585,214)"/>
<path d="M0 0 C3 0 3 0 6 1 C7 2 7 4 8 5 C8 5 8 5 6 8 C8 9 9 9 11 10 C16 12 18 13 21 17 C22 18 23 19 24 20 C27 24 27 24 30 28 C32 32 32 32 35 34 C38 34 38 34 42 34 C44 34 45 34 46 34 C50 34 50 34 55 31 C56 31 57 31 58 31 C59 33 60 34 61 36 C62 37 63 38 63 39 C65 43 65 43 64 46 C59 53 52 57 46 62 C45 62 45 62 44 62 C43 63 43 65 42 66 C35 77 35 77 30 80 C26 81 26 81 21 81 C18 81 15 81 13 82 C9 82 5 82 1 82 C1 82 0 81 0 81 C0 79 0 76 0 74 C0 72 0 71 0 69 C0 66 1 63 1 60 C1 59 1 59 1 55 C1 54 1 53 1 51 C1 50 0 49 0 48 C-4 47 -4 47 -8 46 C-6 37 -6 37 -5 35 C-4 32 -4 28 -4 25 C-3 22 -3 22 -1 19 C-1 17 -1 16 -1 14 C-1 13 -0 13 0 12 C-0 11 -0 11 -1 7 C-1 5 -0 2 0 0 Z " fill="#797F94" transform="translate(600,229)"/>
<path d="M0 0 C4 2 4 2 6 4 C9 6 9 6 12 7 C18 10 21 14 24 19 C25 20 26 21 27 22 C27 23 27 23 28 27 C26 27 25 28 23 28 C12 32 0 36 -7 46 C-7 52 -7 53 -3 58 C2 62 7 64 13 66 C14 66 15 67 16 67 C19 68 19 68 24 67 C25 68 25 68 26 69 C24 73 24 73 22 76 C20 76 19 77 17 77 C17 76 17 76 17 75 C12 76 12 76 7 78 C3 78 1 77 -3 75 C-10 74 -16 77 -23 79 C-32 82 -32 82 -36 83 C-38 80 -39 77 -41 74 C-43 72 -45 70 -47 68 C-50 65 -53 61 -55 58 C-48 53 -48 53 -46 53 C-45 52 -45 50 -44 49 C-38 45 -32 42 -25 41 C-24 40 -22 40 -21 39 C-21 38 -21 36 -21 35 C-20 29 -18 27 -15 22 C-13 20 -13 20 -10 16 C-8 12 -8 12 -4 9 C-3 7 -2 6 -1 4 C-0 4 0 4 1 4 C1 3 1 3 0 0 Z " fill="#C1C4D0" transform="translate(544,73)"/>
<path d="M0 0 C1 0 2 1 3 1 C11 4 11 4 13 7 C13 11 12 15 11 19 C12 19 13 20 14 20 C16 19 19 17 21 16 C25 14 30 14 34 14 C36 13 37 13 39 12 C45 12 50 12 56 13 C60 13 63 12 67 10 C67 11 68 12 68 13 C68 14 69 15 69 16 C70 16 70 16 71 16 C71 21 71 24 69 29 C69 30 69 31 68 32 C67 35 67 35 64 38 C63 38 62 38 61 38 C61 39 60 40 60 41 C59 41 59 41 58 41 C57 43 57 45 56 47 C55 49 54 52 53 54 C50 53 50 53 47 48 C42 46 39 44 33 44 C30 45 30 45 26 48 C22 51 22 51 18 51 C15 50 15 50 13 47 C13 39 13 39 14 35 C14 34 14 34 13 31 C10 31 8 31 5 31 C4 30 3 30 2 29 C2 28 2 28 2 27 C1 27 1 27 -2 27 C-3 27 -5 27 -7 27 C-8 27 -10 27 -12 27 C-16 27 -16 27 -19 24 C-19 23 -19 23 -19 22 C-20 22 -21 21 -22 21 C-23 18 -23 16 -24 13 C-24 9 -24 6 -25 3 C-23 -1 -23 -1 -20 -2 C-12 -4 -7 -2 0 0 Z " fill="#C1C4D0" transform="translate(511,301)"/>
<path d="M0 0 C2 2 4 5 6 7 C8 8 8 8 14 8 C19 9 22 9 26 12 C27 12 29 13 30 13 C30 11 30 10 30 8 C32 5 32 5 34 2 C35 2 35 2 36 2 C35 4 35 5 34 7 C34 10 34 10 35 13 C44 11 51 7 59 3 C63 1 66 0 70 0 C71 1 72 2 73 3 C73 14 68 20 61 28 C59 30 57 32 56 34 C51 39 46 43 40 47 C39 48 38 48 37 49 C34 51 34 51 31 51 C30 51 29 50 28 50 C28 49 28 49 27 46 C26 45 24 45 23 44 C20 40 20 40 20 38 C19 38 19 38 18 38 C16 35 13 33 11 30 C10 29 10 29 9 28 C7 28 5 28 3 28 C2 31 0 33 -1 36 C-4 41 -8 44 -13 47 C-16 50 -19 52 -22 55 C-24 56 -25 57 -27 58 C-29 61 -31 64 -33 67 C-34 66 -36 65 -37 64 C-37 63 -37 61 -37 60 C-34 58 -31 57 -28 55 C-20 49 -12 42 -10 32 C-10 29 -10 26 -9 23 C-9 19 -9 19 -8 16 C-8 12 -8 8 -9 4 C-9 3 -9 2 -9 1 C-5 -1 -5 -1 0 0 Z " fill="#63697E" transform="translate(695,199)"/>
<path d="M0 0 C5 3 5 3 6 4 C6 6 6 7 6 9 C0 10 0 10 -3 9 C-8 12 -9 14 -12 19 C-14 31 -12 44 -8 56 C-7 59 -7 59 -9 63 C-13 69 -13 74 -13 81 C-16 81 -16 81 -19 79 C-23 74 -22 70 -22 64 C-22 62 -21 61 -21 59 C-24 60 -28 61 -31 61 C-33 62 -35 62 -37 63 C-42 64 -42 64 -47 66 C-51 66 -51 66 -55 66 C-56 65 -56 63 -57 62 C-58 62 -58 62 -59 62 C-59 58 -59 56 -57 52 C-56 52 -55 52 -54 52 C-58 47 -62 42 -66 38 C-70 34 -74 30 -77 25 C-77 24 -77 24 -77 23 C-78 23 -78 23 -79 23 C-80 21 -80 21 -82 18 C-83 17 -83 16 -84 15 C-85 12 -85 12 -86 8 C-85 8 -85 8 -84 8 C-83 7 -83 5 -82 4 C-78 3 -75 3 -71 5 C-66 7 -65 10 -62 15 C-58 24 -54 30 -45 34 C-39 36 -35 37 -29 37 C-23 31 -23 24 -21 16 C-19 10 -16 5 -10 1 C-6 -0 -4 -0 0 0 Z " fill="#63697E" transform="translate(278,143)"/>
<path d="M0 0 C1 1 3 3 4 4 C4 4 4 4 6 5 C6 6 7 8 7 9 C8 11 8 12 9 14 C11 15 13 15 15 16 C18 22 18 22 18 26 C16 26 15 27 13 27 C11 29 11 29 11 34 C11 40 13 44 16 49 C15 53 15 53 14 56 C4 57 -12 57 -21 51 C-21 48 -21 48 -20 44 C-16 43 -16 43 -11 42 C-10 41 -9 40 -8 39 C-7 39 -7 39 -6 39 C-6 37 -5 35 -5 33 C-9 32 -12 32 -16 32 C-17 32 -18 32 -19 32 C-22 32 -25 32 -27 32 C-40 33 -49 29 -59 22 C-59 21 -59 21 -60 17 C-55 12 -51 11 -44 10 C-38 10 -33 9 -27 7 C-25 7 -24 7 -22 6 C-17 6 -17 6 -13 4 C-10 4 -7 3 -4 3 C-4 2 -4 2 -4 1 C-2 0 -2 0 0 0 Z " fill="#63697E" transform="translate(261,348)"/>
<path d="M0 0 C2 2 3 4 5 6 C6 7 7 7 8 8 C8 12 8 12 8 15 C5 15 2 15 -1 15 C-4 15 -4 15 -9 18 C-11 21 -13 24 -15 27 C-17 29 -17 29 -20 29 C-23 29 -26 29 -28 29 C-30 29 -31 29 -32 29 C-37 37 -37 42 -35 51 C-32 58 -29 63 -23 66 C-18 68 -14 69 -9 69 C-8 71 -8 71 -9 75 C-20 77 -28 77 -38 71 C-45 66 -49 60 -52 52 C-54 37 -54 24 -45 11 C-38 3 -32 -4 -21 -6 C-12 -7 -8 -6 0 0 Z " fill="#ECEDEF" transform="translate(491,133)"/>
<path d="M0 0 C6 0 6 0 9 2 C9 3 10 4 11 4 C11 5 11 5 13 7 C15 9 15 9 15 11 C16 11 16 11 17 11 C19 13 20 16 22 18 C23 18 23 19 24 19 C24 19 24 19 25 22 C26 23 27 24 28 25 C27 25 26 26 24 26 C20 29 15 31 10 33 C9 34 8 34 6 35 C3 37 3 37 2 41 C8 44 14 43 20 43 C25 43 25 43 30 45 C31 48 31 48 30 52 C28 55 28 55 25 57 C24 58 23 59 22 60 C19 62 19 62 15 63 C7 61 -1 59 -8 54 C-12 51 -16 50 -21 49 C-23 48 -24 47 -26 46 C-29 46 -31 47 -34 48 C-34 47 -35 45 -35 44 C-35 44 -36 43 -36 43 C-36 37 -34 34 -30 29 C-28 28 -27 28 -25 27 C-23 25 -22 24 -20 22 C-18 20 -16 19 -14 17 C-8 13 -5 9 -2 2 C-1 2 -1 1 0 0 Z " fill="#6A7186" transform="translate(698,226)"/>
<path d="M0 0 C0 7 0 7 -1 10 C-5 13 -7 14 -12 15 C-12 16 -12 16 -12 17 C-13 17 -15 18 -16 18 C-18 19 -19 19 -21 20 C-24 30 -20 41 -16 50 C-14 54 -12 57 -9 60 C-8 61 -7 62 -6 64 C-2 68 3 72 9 74 C10 75 12 77 13 78 C21 83 29 87 38 91 C45 95 45 95 46 100 C46 104 46 104 43 108 C39 112 39 112 34 113 C24 111 16 109 9 102 C6 97 6 93 5 87 C3 84 0 82 -3 80 C-7 77 -10 75 -12 70 C-13 70 -13 70 -14 70 C-16 68 -17 66 -18 63 C-19 62 -20 61 -21 60 C-23 56 -24 53 -26 50 C-27 49 -28 47 -29 46 C-37 34 -36 20 -34 6 C-34 5 -33 5 -33 4 C-31 4 -28 3 -26 3 C-24 2 -23 2 -21 1 C-18 1 -15 1 -12 0 C-10 0 -9 0 -7 0 C-5 0 -2 0 0 0 Z " fill="#AFB2BC" transform="translate(311,334)"/>
<path d="M0 0 C1 0 2 1 3 1 C3 6 2 9 -2 13 C-3 13 -3 14 -4 14 C-5 18 -5 18 -5 22 C-4 22 -3 23 -2 23 C-1 25 0 27 1 29 C2 30 2 31 3 32 C7 37 7 42 7 49 C6 50 5 51 4 52 C2 52 -0 51 -2 51 C-4 52 -5 52 -7 53 C-8 53 -9 53 -10 53 C-10 52 -10 52 -10 51 C-11 51 -11 51 -12 51 C-12 50 -12 49 -12 48 C-13 48 -13 48 -16 48 C-17 47 -19 47 -21 47 C-22 47 -24 47 -25 47 C-37 45 -48 40 -56 30 C-57 30 -57 29 -58 28 C-59 27 -59 26 -60 25 C-62 22 -63 20 -63 16 C-62 15 -60 15 -59 14 C-59 13 -58 12 -58 11 C-54 11 -54 11 -51 11 C-51 12 -51 12 -51 13 C-53 13 -54 13 -56 13 C-56 15 -56 17 -56 19 C-54 19 -53 20 -51 20 C-51 19 -51 17 -51 16 C-49 15 -49 15 -43 15 C-37 15 -34 14 -29 10 C-27 10 -25 9 -23 9 C-16 7 -10 5 -3 2 C-2 1 -1 1 0 0 Z M-12 55 C-11 55 -11 56 -10 56 C-11 57 -11 57 -14 62 C-14 61 -15 60 -15 59 C-14 58 -13 56 -12 55 Z " fill="#63697E" transform="translate(275,242)"/>
<path d="M0 0 C1 1 3 1 4 2 C5 5 5 5 5 8 C4 9 3 11 2 12 C2 12 2 12 3 14 C5 14 7 14 9 14 C9 13 10 13 10 12 C11 12 11 12 12 12 C12 11 13 9 13 8 C21 7 21 7 25 8 C26 9 28 11 29 12 C29 15 29 15 28 18 C25 20 25 20 20 21 C18 21 17 22 15 22 C13 27 13 27 11 31 C8 32 8 32 5 32 C5 34 5 35 5 37 C9 40 12 39 17 39 C18 38 19 37 20 36 C22 36 23 36 25 36 C25 38 25 39 25 41 C25 41 25 41 28 42 C29 45 30 47 31 50 C34 53 34 53 39 56 C38 57 38 59 37 60 C36 60 35 59 34 59 C29 57 24 57 19 57 C18 57 18 57 15 57 C11 57 6 57 1 56 C-2 56 -5 56 -9 56 C-10 56 -11 56 -12 56 C-17 56 -21 56 -26 53 C-29 53 -33 53 -36 53 C-39 52 -39 52 -43 48 C-45 43 -47 38 -47 32 C-45 31 -44 31 -42 30 C-41 30 -41 31 -40 31 C-39 31 -37 31 -36 31 C-29 32 -25 33 -19 36 C-19 37 -19 39 -19 40 C-14 41 -14 41 -9 38 C-9 37 -8 36 -8 35 C-8 34 -9 34 -9 33 C-9 26 -8 24 -4 18 C-3 18 -1 17 0 17 C-0 17 -0 17 -1 14 C-2 14 -3 14 -4 13 C-5 13 -6 12 -7 12 C-7 9 -7 9 -6 5 C-2 1 -2 1 0 0 Z " fill="#C2C5D1" transform="translate(423,324)"/>
<path d="M0 0 C5 3 6 7 8 13 C9 27 7 37 -1 48 C-5 52 -9 55 -15 56 C-22 56 -28 54 -34 50 C-40 43 -43 37 -43 28 C-43 23 -42 18 -38 14 C-34 14 -30 14 -27 14 C-23 14 -23 14 -21 12 C-20 11 -20 10 -19 9 C-14 1 -10 -1 0 0 Z " fill="#040507" transform="translate(497,147)"/>
<path d="M0 0 C6 0 6 0 11 3 C13 5 14 7 16 9 C17 10 19 11 20 12 C24 16 25 19 27 24 C31 28 31 28 34 29 C34 30 34 30 34 31 C36 32 38 32 40 33 C41 34 43 35 44 36 C45 36 46 36 47 37 C50 38 50 38 52 41 C55 46 57 47 62 48 C67 48 67 48 71 46 C70 49 70 51 69 54 C69 56 69 57 68 59 C66 68 66 68 61 71 C51 71 42 69 35 62 C31 56 28 50 24 43 C22 39 20 38 15 37 C11 37 11 37 8 38 C7 39 7 40 6 41 C5 41 5 41 4 41 C-1 32 -5 23 -3 12 C-3 11 -3 10 -3 9 C-1 1 -1 1 0 0 Z " fill="#6B7286" transform="translate(188,110)"/>
<path d="M0 0 C1 0 1 0 6 1 C5 5 5 5 4 6 C4 11 4 11 5 16 C3 18 3 18 -1 19 C-5 18 -9 17 -13 15 C-17 14 -21 14 -26 14 C-27 14 -29 14 -31 14 C-32 14 -34 14 -35 14 C-36 16 -36 16 -36 22 C-34 27 -32 28 -28 30 C-22 31 -18 31 -13 29 C-12 30 -11 30 -10 31 C-10 34 -10 34 -10 38 C-10 40 -10 41 -10 42 C-10 46 -10 46 -14 50 C-15 50 -16 50 -17 51 C-22 53 -22 56 -24 61 C-25 61 -26 62 -27 62 C-28 61 -30 59 -31 58 C-35 55 -38 53 -42 50 C-45 48 -45 48 -46 45 C-46 44 -45 43 -45 42 C-45 41 -46 39 -46 38 C-51 38 -56 38 -61 39 C-63 38 -64 38 -66 38 C-70 33 -70 33 -70 29 C-72 29 -73 28 -75 28 C-76 25 -76 25 -75 22 C-72 18 -68 17 -64 16 C-60 14 -56 13 -52 10 C-50 6 -50 6 -49 3 C-48 4 -47 4 -47 5 C-36 11 -25 11 -13 10 C-8 7 -8 7 -5 4 C-3 4 -2 4 0 4 C0 3 0 1 0 0 Z " fill="#C1C4D0" transform="translate(498,198)"/>
<path d="M0 0 C0 1 0 3 0 4 C1 4 2 4 3 4 C11 6 14 11 19 17 C21 18 22 20 24 21 C25 22 26 24 27 25 C25 29 25 29 20 31 C20 33 19 34 19 36 C15 38 12 40 8 41 C3 42 -0 44 -4 47 C-7 48 -7 48 -13 48 C-13 49 -13 49 -13 50 C-14 50 -16 51 -17 51 C-18 51 -20 52 -21 52 C-22 53 -22 55 -23 56 C-27 63 -31 66 -39 68 C-41 68 -43 68 -45 68 C-48 64 -48 64 -48 58 C-49 58 -49 58 -50 58 C-50 57 -50 57 -51 53 C-46 50 -40 49 -34 48 C-34 47 -34 47 -34 46 C-31 45 -28 45 -26 44 C-17 42 -17 42 -14 40 C-13 40 -13 40 -9 39 C-12 36 -15 35 -19 34 C-19 33 -20 33 -20 32 C-17 27 -15 25 -10 23 C-9 23 -9 23 -7 22 C-7 20 -6 19 -6 17 C-8 15 -8 15 -12 14 C-13 13 -15 13 -16 12 C-16 9 -16 9 -15 6 C-13 4 -13 4 -10 2 C-9 1 -9 1 -8 0 C-5 -1 -5 -1 0 0 Z " fill="#C2C5D1" transform="translate(480,392)"/>
<path d="M0 0 C5 -0 5 -0 9 0 C9 3 9 7 9 10 C8 10 7 10 6 10 C5 10 5 10 2 10 C1 11 1 13 0 14 C-2 14 -4 14 -6 14 C-7 15 -7 17 -8 18 C-10 18 -12 18 -14 18 C-15 19 -15 21 -16 22 C-18 22 -20 22 -22 22 C-23 23 -23 25 -24 26 C-25 26 -25 26 -26 26 C-27 27 -27 29 -28 30 C-30 30 -32 30 -34 30 C-35 31 -35 33 -36 34 C-38 34 -40 34 -42 34 C-43 35 -43 37 -44 38 C-47 38 -51 38 -54 38 C-55 39 -55 41 -56 42 C-58 42 -60 42 -62 42 C-63 43 -63 45 -64 46 C-66 46 -68 46 -70 46 C-71 47 -71 49 -72 50 C-74 50 -76 50 -78 50 C-79 51 -79 53 -80 54 C-82 54 -84 54 -86 54 C-87 55 -87 57 -88 58 C-90 58 -92 58 -94 58 C-95 59 -95 61 -96 62 C-98 62 -100 62 -102 62 C-103 63 -103 65 -104 66 C-106 66 -108 67 -110 67 C-111 68 -111 69 -112 70 C-117 69 -117 69 -121 65 C-121 63 -120 62 -120 60 C-119 60 -119 60 -118 60 C-117 59 -117 57 -116 56 C-114 56 -112 56 -110 56 C-109 55 -109 53 -108 52 C-106 52 -104 52 -102 52 C-101 51 -101 49 -100 48 C-98 48 -96 48 -94 48 C-93 47 -93 45 -92 44 C-90 44 -88 44 -86 44 C-85 43 -85 41 -84 40 C-82 40 -80 40 -78 40 C-77 39 -77 37 -76 36 C-74 36 -72 36 -70 36 C-69 35 -69 33 -68 32 C-66 32 -64 32 -62 32 C-61 31 -61 29 -60 28 C-58 28 -56 28 -54 28 C-53 27 -53 25 -52 24 C-50 24 -48 24 -46 24 C-45 23 -45 21 -44 20 C-42 20 -40 20 -38 20 C-37 19 -37 17 -36 16 C-34 16 -32 16 -30 16 C-29 15 -29 13 -28 12 C-26 12 -24 12 -22 12 C-21 11 -21 9 -20 8 C-18 8 -16 8 -14 8 C-13 7 -13 5 -12 4 C-9 4 -5 4 -2 4 C-1 3 -1 1 0 0 Z " fill="#C4C7CE" transform="translate(146,317)"/>
<path d="M0 0 C5 -0 5 -0 9 0 C9 3 9 7 9 10 C8 10 7 10 6 10 C5 11 5 13 4 14 C2 14 0 14 -2 14 C-3 15 -3 17 -4 18 C-6 18 -8 18 -10 18 C-11 19 -11 21 -12 22 C-14 22 -16 22 -18 22 C-19 23 -19 25 -20 26 C-22 26 -24 26 -26 26 C-27 27 -27 29 -28 30 C-30 30 -32 30 -34 30 C-35 31 -35 33 -36 34 C-38 34 -40 34 -42 34 C-43 35 -43 37 -44 38 C-46 38 -48 38 -50 38 C-51 39 -51 41 -52 42 C-54 42 -56 42 -58 42 C-59 43 -59 45 -60 46 C-62 46 -64 46 -66 46 C-67 47 -67 49 -68 50 C-70 50 -72 50 -74 50 C-75 51 -75 53 -76 54 C-77 54 -77 54 -78 54 C-79 55 -79 57 -80 58 C-82 58 -84 58 -86 58 C-87 59 -87 61 -88 62 C-90 62 -92 62 -94 62 C-95 63 -95 65 -96 66 C-98 66 -100 66 -102 66 C-103 67 -103 69 -104 70 C-109 70 -109 70 -113 70 C-113 67 -113 63 -113 60 C-112 60 -111 60 -110 60 C-109 59 -109 57 -108 56 C-107 56 -107 56 -106 56 C-105 55 -105 53 -104 52 C-102 52 -100 52 -98 52 C-97 51 -97 49 -96 48 C-94 48 -92 48 -90 48 C-89 47 -89 45 -88 44 C-86 44 -84 44 -82 44 C-81 43 -81 41 -80 40 C-78 40 -76 40 -74 40 C-73 39 -73 37 -72 36 C-70 36 -68 36 -66 36 C-65 35 -65 33 -64 32 C-62 32 -60 32 -58 32 C-57 31 -57 29 -56 28 C-54 28 -52 28 -50 28 C-49 27 -49 25 -48 24 C-46 24 -44 24 -42 24 C-41 23 -41 21 -40 20 C-38 20 -36 20 -34 20 C-33 19 -33 17 -32 16 C-30 16 -28 16 -26 16 C-25 15 -25 13 -24 12 C-22 12 -20 12 -18 12 C-17 11 -17 9 -16 8 C-14 8 -12 8 -10 8 C-9 7 -9 5 -8 4 C-6 4 -4 4 -2 4 C-1 3 -1 1 0 0 Z " fill="#9195A5" transform="translate(190,441)"/>
<path d="M0 0 C0 0 0 0 3 2 C8 6 14 8 20 11 C24 13 26 14 29 18 C29 21 29 24 29 27 C30 32 34 35 37 38 C36 39 35 41 34 42 C33 42 33 42 32 42 C32 43 31 44 31 45 C31 45 31 45 28 46 C27 46 26 45 26 45 C22 43 22 43 16 43 C11 42 11 42 8 40 C6 36 3 33 1 29 C-3 26 -5 27 -10 27 C-17 26 -22 25 -28 21 C-30 21 -31 20 -33 20 C-33 21 -33 21 -33 22 C-34 22 -34 22 -35 22 C-35 21 -34 19 -34 18 C-34 17 -34 15 -34 14 C-33 13 -33 12 -32 11 C-30 11 -29 12 -27 12 C-24 10 -20 7 -17 5 C-7 -1 -7 -1 0 0 Z " fill="#C2C5D1" transform="translate(447,70)"/>
<path d="M0 0 C4 2 6 5 9 9 C13 13 16 17 20 22 C24 26 28 31 32 36 C34 39 34 39 37 42 C38 44 40 45 41 47 C43 50 46 53 48 56 C51 58 51 58 51 60 C47 59 47 59 43 56 C42 55 40 54 39 53 C34 54 34 54 31 55 C28 56 28 56 25 55 C25 54 25 52 25 51 C25 49 25 48 25 46 C20 43 19 42 13 43 C12 43 11 44 10 44 C6 46 4 47 0 46 C-3 45 -3 45 -5 42 C-6 38 -7 34 -8 30 C-8 29 -8 28 -9 26 C-10 20 -11 15 -9 9 C-5 5 -5 5 -1 2 C-1 1 -0 1 0 0 Z " fill="#8F93A1" transform="translate(258,101)"/>
<path d="M0 0 C5 2 6 4 8 9 C11 18 11 27 12 37 C11 37 10 37 10 37 C10 38 10 40 10 41 C10 41 11 41 12 41 C12 44 12 47 12 51 C12 53 12 55 12 58 C10 63 4 65 -1 68 C-2 68 -3 69 -4 69 C-5 70 -6 70 -7 71 C-8 71 -8 71 -11 73 C-13 73 -14 72 -15 72 C-15 69 -15 69 -14 66 C-11 64 -8 62 -4 60 C-0 56 2 51 4 46 C4 45 5 44 5 43 C6 38 5 34 5 29 C4 28 3 27 2 26 C-3 26 -5 26 -8 29 C-11 32 -11 32 -17 32 C-20 29 -21 26 -22 23 C-24 23 -26 23 -28 23 C-30 18 -30 18 -29 15 C-21 1 -15 -4 0 0 Z " fill="#EBECEE" transform="translate(591.3125,138.125)"/>
<path d="M0 0 C4 1 7 4 10 7 C13 10 17 11 22 12 C23 13 24 13 26 14 C28 14 29 15 31 15 C32 16 34 16 35 17 C42 19 48 20 56 20 C55 21 55 22 54 23 C54 25 53 26 53 28 C52 29 52 29 51 32 C48 39 49 45 49 52 C49 52 49 52 49 55 C49 58 49 61 50 64 C46 61 46 59 44 55 C44 55 43 55 42 55 C41 53 41 53 40 49 C40 48 39 47 39 46 C38 44 37 42 36 40 C36 40 35 39 34 39 C30 38 28 36 26 33 C24 29 24 29 24 26 C22 25 22 25 19 25 C10 25 1 25 -8 26 C-8 27 -8 27 -8 28 C-10 28 -12 29 -14 29 C-14 28 -14 27 -14 26 C-14 26 -13 26 -12 26 C-12 24 -12 23 -12 21 C-12 20 -11 19 -10 18 C-10 17 -10 15 -10 14 C-10 10 -10 10 -6 7 C-6 7 -5 7 -4 7 C-4 6 -4 5 -4 4 C-3 0 -3 0 0 0 Z " fill="#C1C4D0" transform="translate(390.5,123.9375)"/>
<path d="M0 0 C6 3 8 7 11 12 C13 16 15 19 18 23 C18 24 19 26 20 27 C22 30 24 32 26 35 C27 37 28 38 29 39 C29 40 30 42 31 43 C33 46 33 46 34 49 C32 51 32 51 29 54 C24 59 24 60 24 66 C24 70 25 75 26 79 C26 79 26 79 27 82 C29 91 29 91 33 94 C36 95 36 95 39 95 C34 104 34 104 30 107 C24 107 21 106 16 102 C13 98 13 98 13 96 C12 96 11 95 10 95 C5 94 1 92 -3 89 C-3 88 -3 88 -3 87 C-4 87 -6 86 -7 86 C-10 83 -12 81 -13 77 C-9 79 -7 81 -4 84 C-4 85 -4 85 -4 86 C-1 87 -1 87 2 88 C3 88 3 88 7 86 C6 80 3 76 -0 71 C-3 68 -4 65 -6 61 C-7 60 -7 59 -8 58 C-9 55 -9 55 -8 51 C-7 53 -6 54 -5 56 C5 71 5 71 9 74 C10 74 11 74 12 74 C12 73 13 73 13 72 C14 72 14 72 15 72 C16 70 16 69 17 67 C18 66 19 64 20 63 C21 60 21 60 21 57 C22 53 22 51 24 47 C24 40 23 38 19 33 C18 32 17 31 16 30 C15 29 14 28 14 27 C11 25 11 25 6 23 C1 16 1 8 0 0 Z " fill="#7A8095" transform="translate(225,52)"/>
<path d="M0 0 C1 -0 2 -0 4 -0 C7 0 7 0 11 4 C10 7 10 7 9 10 C9 16 13 20 16 25 C19 30 20 34 19 40 C14 45 13 45 7 45 C-1 45 -1 45 -4 46 C-7 45 -7 45 -9 42 C-9 39 -9 39 -8 36 C-9 36 -9 36 -10 35 C-10 34 -10 33 -10 32 C-11 28 -11 28 -13 26 C-17 23 -17 19 -19 14 C-20 13 -22 12 -23 11 C-23 11 -23 10 -23 9 C-22 9 -22 9 -21 9 C-21 8 -21 7 -21 6 C-18 5 -18 5 -15 4 C-14 3 -13 3 -12 2 C-11 2 -10 2 -9 1 C-6 -0 -3 0 0 0 Z " fill="#C1C4D0" transform="translate(384.875,191.6875)"/>
<path d="M0 0 C0 2 0 5 0 7 C0 8 0 9 0 11 C0 14 0 14 -1 17 C-1 20 -1 23 -2 27 C-2 28 -2 28 -2 32 C-2 33 -2 35 -2 36 C-2 35 -2 35 -3 32 C-3 32 -3 32 -6 31 C-7 28 -7 24 -7 21 C-7 21 -7 21 -8 18 C-9 17 -11 17 -12 16 C-12 15 -12 15 -12 14 C-14 15 -15 15 -17 16 C-17 16 -17 16 -18 14 C-19 14 -21 15 -22 15 C-22 16 -22 16 -23 20 C-23 21 -24 21 -24 22 C-25 22 -26 22 -27 22 C-28 23 -28 25 -29 26 C-32 27 -35 27 -39 27 C-40 27 -41 28 -42 28 C-45 36 -45 36 -45 40 C-42 44 -39 45 -35 47 C-25 50 -25 50 -22 55 C-22 60 -22 62 -25 66 C-29 68 -32 67 -36 67 C-40 65 -40 65 -44 63 C-46 62 -47 62 -48 61 C-52 59 -52 59 -55 57 C-55 56 -55 56 -55 55 C-60 54 -60 54 -65 57 C-67 57 -68 56 -70 56 C-70 55 -70 54 -70 53 C-71 53 -72 52 -73 52 C-72 52 -70 52 -69 52 C-62 51 -58 47 -53 42 C-51 39 -51 39 -50 34 C-49 29 -48 29 -44 26 C-41 25 -41 25 -37 24 C-31 22 -31 22 -29 19 C-28 19 -28 19 -27 19 C-27 18 -27 17 -27 16 C-26 12 -26 12 -23 10 C-21 9 -20 9 -18 8 C-16 7 -14 6 -12 5 C-3 0 -3 0 0 0 Z " fill="#C7CAD4" transform="translate(602,200)"/>
<path d="M0 0 C-2 4 -2 4 -5 6 C-6 7 -6 9 -7 10 C-10 11 -12 13 -15 14 C-19 16 -22 18 -26 19 C-28 21 -31 22 -33 23 C-36 25 -36 25 -37 29 C-37 33 -37 33 -36 38 C-35 43 -35 48 -35 53 C-36 53 -36 53 -37 53 C-37 54 -38 55 -38 56 C-40 55 -41 55 -43 54 C-44 55 -44 55 -45 56 C-52 57 -57 55 -63 53 C-65 52 -67 52 -69 51 C-73 49 -73 49 -75 44 C-74 41 -74 41 -70 39 C-68 38 -66 37 -64 36 C-63 36 -62 35 -61 35 C-53 31 -53 31 -51 31 C-51 30 -50 30 -50 29 C-44 24 -38 20 -31 16 C-29 14 -27 13 -24 12 C-24 11 -24 11 -21 10 C-16 7 -11 4 -6 0 C-3 -1 -3 -1 0 0 Z " fill="#7A8095" transform="translate(723,162)"/>
<path d="M0 0 C4 4 4 4 4 6 C5 6 6 7 7 7 C8 8 8 9 9 10 C12 13 12 13 16 16 C21 20 24 24 27 29 C27 32 27 32 25 35 C13 40 -2 38 -14 33 C-17 31 -17 31 -19 29 C-19 28 -19 28 -19 27 C-20 27 -20 27 -21 27 C-22 23 -22 23 -20 20 C-14 12 -14 12 -8 11 C-6 11 -3 12 -1 12 C-1 8 -0 4 0 0 Z " fill="#7B8195" transform="translate(282,281)"/>
<path d="M0 0 C9 4 14 12 20 20 C22 23 24 26 27 28 C30 33 30 33 31 38 C32 38 32 38 33 38 C35 42 35 42 35 45 C36 45 36 45 37 45 C38 48 40 50 41 53 C42 54 42 56 43 57 C44 58 44 58 45 61 C46 63 46 63 51 65 C51 67 51 69 51 71 C50 71 48 70 47 70 C45 70 44 70 42 70 C42 70 42 70 38 70 C34 65 35 64 36 58 C36 53 34 50 32 45 C31 43 31 43 31 41 C30 40 28 40 27 39 C26 38 26 37 25 36 C19 35 19 35 16 36 C7 37 -2 35 -9 29 C-11 26 -11 26 -11 23 C-9 19 -7 16 -4 13 C-1 12 -1 12 2 12 C1 8 1 4 0 0 Z " fill="#8F93A1" transform="translate(319,171)"/>
<path d="M0 0 C9 5 15 12 19 21 C19 22 19 22 18 26 C17 26 17 26 16 26 C16 26 16 26 15 29 C12 30 10 30 6 30 C5 30 4 30 3 30 C2 30 1 30 0 30 C0 29 0 28 0 27 C-1 27 -2 27 -3 28 C-8 28 -11 27 -16 25 C-17 25 -17 25 -20 24 C-24 22 -24 22 -26 19 C-26 16 -26 16 -23 12 C-10 -1 -10 -1 0 0 Z " fill="#EF9C12" transform="translate(545,185)"/>
<path d="M0 0 C3 -0 3 -0 7 -0 C8 -0 9 -0 10 -0 C11 -0 11 -0 13 0 C13 3 13 7 13 10 C12 10 12 10 10 10 C9 10 9 10 6 10 C5 11 5 13 4 14 C2 14 0 14 -2 14 C-3 15 -3 17 -4 18 C-6 18 -8 18 -10 18 C-11 19 -11 21 -12 22 C-14 22 -16 22 -18 22 C-19 23 -19 25 -20 26 C-22 26 -24 26 -26 26 C-27 27 -27 29 -28 30 C-29 30 -29 30 -30 30 C-31 31 -31 33 -32 34 C-34 34 -36 34 -38 34 C-39 35 -39 37 -40 38 C-50 39 -50 39 -55 36 C-57 34 -57 34 -57 32 C-53 28 -53 28 -50 28 C-49 27 -49 25 -48 24 C-46 24 -44 24 -42 24 C-41 23 -41 21 -40 20 C-38 20 -36 20 -34 20 C-33 19 -33 17 -32 16 C-30 16 -28 16 -26 16 C-25 15 -25 13 -24 12 C-22 12 -20 12 -18 12 C-17 11 -17 9 -16 8 C-14 8 -12 8 -10 8 C-9 7 -9 5 -8 4 C-6 4 -4 4 -2 4 C-1 3 -1 1 0 0 Z " fill="#BDC0C8" transform="translate(134,393)"/>
<path d="M0 0 C3 1 3 1 4 3 C5 3 6 4 7 4 C8 7 8 7 9 10 C7 13 7 13 6 16 C5 17 4 18 4 19 C1 22 0 23 -4 24 C-7 26 -9 28 -12 30 C-14 28 -16 27 -17 25 C-18 24 -19 24 -20 23 C-31 11 -31 11 -31 3 C-24 -7 -10 -2 0 0 Z " fill="#C2C5D1" transform="translate(551.25,360)"/>
<path d="M0 0 C9 2 21 5 28 12 C29 14 30 16 31 19 C31 20 32 22 33 24 C23 25 23 25 21 24 C22 27 22 27 26 31 C24 33 22 35 20 38 C20 37 20 36 20 35 C20 31 20 31 19 27 C16 25 16 25 11 23 C4 19 -3 15 -10 11 C-11 10 -13 10 -14 9 C-15 8 -15 8 -16 7 C-14 -2 -7 -1 0 0 Z " fill="#C1C4D0" transform="translate(336.26171875,403.15234375)"/>
<path d="M0 0 C1 0 1 1 2 1 C2 3 2 4 3 6 C4 11 4 11 6 14 C11 16 15 18 20 20 C25 22 30 24 35 28 C33 32 33 32 29 35 C20 37 10 37 0 37 C-2 35 -1 31 -1 28 C-1 27 -1 25 -1 24 C-1 22 -1 20 -1 18 C-1 17 -1 15 -1 13 C-1 12 -1 10 -1 9 C-1 7 -1 6 -1 4 C-1 1 -1 1 0 0 Z " fill="#898EA0" transform="translate(601,274)"/>
<path d="M0 0 C2 1 4 2 6 3 C9 4 9 4 12 4 C12 5 12 5 12 6 C9 8 7 9 4 11 C2 13 2 13 0 16 C-3 19 -7 19 -11 20 C-14 21 -14 21 -18 23 C-23 20 -26 16 -29 11 C-30 10 -31 8 -32 7 C-32 6 -32 5 -32 4 C-33 3 -35 3 -36 2 C-31 0 -31 0 -27 1 C-24 1 -22 1 -19 1 C-18 1 -18 1 -15 1 C-9 1 -6 -1 0 0 Z " fill="#C1C4D0" transform="translate(510,60)"/>
<path d="M0 0 C5 3 5 3 6 7 C7 8 7 10 7 11 C8 9 9 8 10 6 C10 7 11 7 11 8 C10 11 9 13 7 16 C7 17 6 19 5 20 C3 24 1 27 -2 30 C-6 26 -6 26 -7 24 C-8 24 -10 23 -11 23 C-16 21 -17 20 -19 15 C-20 11 -19 9 -17 5 C-15 2 -15 2 -13 1 C-9 1 -6 1 -2 1 C-1 1 -1 0 0 0 Z " fill="#9094A1" transform="translate(357,275)"/>
<path d="M0 0 C0 1 1 1 1 2 C2 3 4 3 5 4 C8 8 8 8 10 13 C10 14 9 16 9 17 C9 19 9 20 9 22 C9 27 9 27 8 31 C9 33 11 36 12 38 C13 40 13 41 14 43 C14 43 14 43 17 40 C18 40 19 39 20 38 C21 38 22 39 23 39 C21 43 19 46 16 49 C15 50 14 51 13 52 C11 54 9 56 7 58 C6 61 6 64 5 67 C5 67 5 67 2 66 C2 61 2 61 4 57 C2 56 1 56 -1 55 C-1 56 -1 58 -1 59 C-2 59 -3 59 -4 59 C-6 59 -7 60 -8 60 C-9 61 -9 63 -10 64 C-11 64 -11 64 -15 66 C-16 66 -16 65 -17 65 C-17 62 -17 62 -16 59 C-12 57 -12 57 -8 55 C-1 50 2 44 4 36 C6 27 5 19 3 10 C2 9 1 7 0 6 C0 4 0 2 0 0 Z " fill="#D7D9E0" transform="translate(499,143)"/>
<path d="M0 0 C5 -0 5 -0 9 0 C9 3 9 7 9 10 C8 10 7 10 6 10 C5 11 5 13 4 14 C2 14 0 14 -2 14 C-3 15 -3 17 -4 18 C-6 18 -8 18 -10 18 C-11 19 -11 21 -12 22 C-14 22 -16 22 -18 22 C-19 23 -19 25 -20 26 C-22 26 -24 26 -26 26 C-27 27 -27 29 -28 30 C-30 30 -32 30 -34 30 C-35 31 -35 33 -36 34 C-38 34 -40 34 -42 34 C-42 33 -42 33 -42 32 C-40 31 -38 31 -36 30 C-36 29 -35 29 -35 28 C-27 24 -27 24 -24 24 C-24 23 -25 21 -25 20 C-30 20 -30 20 -34 20 C-33 19 -33 17 -32 16 C-30 16 -28 16 -26 16 C-25 15 -25 13 -24 12 C-22 12 -20 12 -18 12 C-17 11 -17 9 -16 8 C-14 8 -12 8 -10 8 C-9 7 -9 5 -8 4 C-6 4 -4 4 -2 4 C-1 3 -1 1 0 0 Z " fill="#BBBEBF" transform="translate(190,441)"/>
<path d="M0 0 C4 3 4 5 5 10 C6 11 7 12 8 13 C6 14 4 14 2 15 C3 15 3 15 8 16 C9 16 11 17 13 17 C13 18 13 18 13 19 C3 20 -7 20 -18 18 C-18 18 -19 17 -19 17 C-19 15 -19 13 -19 11 C-18 11 -18 10 -17 10 C-18 9 -18 7 -19 6 C-19 4 -19 3 -19 1 C-12 -3 -7 -4 0 0 Z " fill="#6A7186" transform="translate(639.875,317.0625)"/>
<path d="M0 0 C1 1 2 1 3 2 C6 3 6 3 11 4 C16 4 16 4 20 7 C18 13 16 15 11 18 C6 19 1 19 -4 16 C-5 16 -6 15 -7 14 C-9 13 -11 11 -12 10 C-14 9 -15 7 -17 6 C-12 0 -8 -3 0 0 Z " fill="#777A84" transform="translate(721,173)"/>
<path d="M0 0 C0 4 0 4 -1 9 C-5 11 -5 11 -9 13 C-10 14 -12 15 -13 15 C-14 16 -14 16 -17 17 C-18 17 -18 18 -19 18 C-24 18 -28 18 -32 15 C-33 11 -33 8 -33 4 C-32 4 -31 4 -30 4 C-26 3 -26 3 -21 1 C-18 1 -15 1 -12 0 C-10 0 -9 0 -7 0 C-5 0 -2 0 0 0 Z " fill="#9094A1" transform="translate(311,334)"/>
<path d="M0 0 C-2 4 -5 8 -8 12 C-9 13 -9 14 -10 15 C-12 17 -15 19 -18 21 C-19 21 -20 22 -21 23 C-22 23 -23 24 -24 24 C-25 24 -25 23 -26 23 C-26 22 -25 20 -25 19 C-26 19 -26 18 -27 18 C-26 17 -26 16 -25 15 C-26 15 -27 16 -28 16 C-33 16 -37 16 -42 17 C-46 17 -46 17 -51 19 C-53 19 -56 19 -58 19 C-57 15 -57 15 -53 12 C-49 12 -45 12 -41 12 C-29 11 -21 10 -11 2 C-7 1 -4 0 0 0 Z " fill="#AEB1B9" transform="translate(336,319)"/>
<path d="M0 0 C1 1 2 2 3 3 C4 3 6 4 7 4 C6 9 3 13 -1 17 C-7 20 -10 21 -17 21 C-20 17 -20 17 -20 11 C-21 11 -21 11 -22 11 C-22 10 -22 10 -23 6 C-19 3 -16 3 -11 2 C-6 0 -6 0 0 0 Z " fill="#989CA6" transform="translate(452,439)"/>
<path d="M0 0 C3 1 3 1 4 4 C5 5 5 6 6 7 C6 7 6 7 8 10 C12 15 12 20 12 27 C11 28 10 29 9 30 C7 30 5 29 3 29 C1 30 -0 30 -2 31 C-3 31 -4 31 -5 31 C-5 30 -5 30 -5 29 C-6 29 -6 29 -7 29 C-7 28 -7 27 -7 26 C-13 25 -19 25 -25 24 C-23 22 -23 22 -20 22 C-19 22 -19 22 -16 22 C-16 22 -16 22 -13 22 C-12 22 -11 22 -10 22 C-10 21 -10 20 -10 19 C-9 19 -9 19 -7 18 C-2 17 -1 16 1 12 C2 7 2 5 0 0 Z M-7 33 C-6 33 -6 34 -5 34 C-6 35 -6 35 -9 40 C-9 39 -10 38 -10 37 C-9 36 -8 34 -7 33 Z " fill="#6B7286" transform="translate(270,264)"/>
<path d="M0 0 C5 -1 7 -1 11 2 C13 4 13 4 13 6 C9 10 9 10 6 10 C5 11 5 13 4 14 C2 14 0 14 -2 14 C-3 15 -3 17 -4 18 C-6 18 -8 18 -10 18 C-11 19 -11 21 -12 22 C-17 22 -17 22 -21 22 C-21 19 -21 15 -21 12 C-20 12 -19 12 -18 12 C-17 11 -17 9 -16 8 C-14 8 -12 8 -10 8 C-9 7 -9 5 -8 4 C-6 4 -4 4 -2 4 C-1 3 -1 1 0 0 Z " fill="#E6E8EB" transform="translate(210,489)"/>
<path d="M0 0 C0 3 0 3 -3 8 C-8 8 -11 8 -16 7 C-18 7 -19 8 -21 8 C-21 9 -22 10 -22 11 C-27 12 -27 12 -31 12 C-31 12 -31 12 -33 15 C-34 15 -36 16 -37 16 C-44 19 -50 22 -56 27 C-57 28 -58 28 -59 29 C-60 28 -62 28 -63 27 C-54 14 -33 5 -18 2 C-12 1 -6 0 0 0 Z " fill="#D8DAE1" transform="translate(479,54)"/>
<path d="M0 0 C3 -0 7 -0 10 -0 C12 -0 14 -0 16 -0 C21 0 21 0 23 1 C26 1 28 2 31 2 C38 3 44 4 50 7 C52 8 54 8 56 9 C60 11 60 11 62 15 C55 14 55 14 52 11 C49 10 49 10 46 9 C46 10 46 10 46 11 C44 11 42 10 40 10 C40 10 40 10 37 10 C34 9 34 9 29 6 C25 6 25 6 22 7 C22 7 22 8 22 8 C19 8 16 8 13 8 C12 8 10 8 8 8 C4 8 4 8 -1 6 C-1 3 -1 3 0 0 Z " fill="#CACDD6" transform="translate(479,54)"/>
<path d="M0 0 C1 0 3 1 4 1 C6 5 6 5 6 9 C7 10 9 10 10 11 C11 15 11 15 12 19 C11 18 9 18 8 17 C3 15 -1 15 -5 18 C-9 19 -11 20 -15 19 C-18 18 -18 18 -20 15 C-20 11 -20 11 -20 7 C-19 7 -18 7 -17 8 C-12 8 -10 7 -6 5 C-5 4 -4 3 -3 2 C-2 2 -2 2 0 0 Z " fill="#898EA1" transform="translate(273,128)"/>
<path d="M0 0 C0 2 0 5 0 7 C0 8 0 9 0 11 C0 14 0 14 -1 17 C-1 20 -1 23 -2 27 C-2 28 -2 30 -2 32 C-2 33 -2 33 -2 36 C-2 35 -3 33 -3 32 C-4 32 -5 31 -6 31 C-7 28 -7 24 -7 21 C-7 21 -7 21 -8 18 C-9 17 -11 17 -12 16 C-12 15 -12 15 -12 14 C-14 15 -15 15 -17 16 C-17 15 -18 15 -18 14 C-22 15 -22 15 -26 19 C-27 16 -27 16 -25 11 C-22 10 -22 10 -18 8 C-15 7 -12 5 -10 3 C-3 0 -3 0 0 0 Z " fill="#CDD0D9" transform="translate(602,200)"/>
<path d="M0 0 C-8 20 -30 35 -49 44 C-50 44 -50 44 -51 44 C-51 42 -50 41 -50 39 C-48 38 -47 38 -45 37 C-45 36 -44 35 -44 34 C-43 33 -41 33 -40 32 C-35 30 -32 28 -28 24 C-26 22 -24 20 -21 18 C-18 16 -16 13 -13 10 C-4 0 -4 0 0 0 Z " fill="#D8DAE1" transform="translate(550,383)"/>
<path d="M0 0 C4 -0 4 -0 8 0 C8 2 8 4 8 6 C8 7 8 8 8 10 C8 14 7 15 4 18 C-1 20 -4 21 -9 20 C-13 18 -16 17 -19 14 C-19 12 -18 11 -18 9 C-15 8 -15 8 -11 8 C-9 9 -7 11 -5 12 C-3 12 -2 12 0 12 C-0 11 -0 11 -1 8 C-2 4 -2 4 0 0 Z " fill="#C2C5D1" transform="translate(456,300)"/>
<path d="M0 0 C5 2 6 4 8 8 C9 16 9 16 8 20 C5 20 1 20 -2 20 C-6 22 -6 22 -8 23 C-10 18 -10 14 -9 9 C-5 5 -5 5 -1 2 C-1 1 -0 1 0 0 Z " fill="#888DA1" transform="translate(258,101)"/>
<path d="M0 0 C1 0 1 0 5 2 C6 2 7 2 8 2 C12 2 12 2 15 4 C17 6 17 6 17 9 C16 14 14 15 11 18 C10 18 10 18 7 20 C1 16 -1 14 -4 7 C-4 6 -5 4 -5 3 C-3 2 -2 1 0 0 Z " fill="#EF9C12" transform="translate(527,220)"/>
<path d="M0 0 C2 0 3 1 5 1 C5 3 5 3 3 11 C3 12 3 14 4 15 C4 22 3 25 0 31 C-4 32 -4 32 -8 31 C-8 31 -8 31 -6 28 C-3 25 -3 25 0 20 C-2 15 -5 13 -9 10 C-12 7 -12 7 -13 2 C-13 2 -12 1 -12 1 C-8 1 -5 1 -1 1 C-1 1 -0 0 0 0 Z " fill="#503725" transform="translate(419,468)"/>
<path d="M0 0 C0 1 1 1 1 2 C2 2 2 2 3 2 C3 3 4 5 4 6 C3 6 1 6 0 6 C-0 8 -0 10 -0 12 C-1 20 -4 27 -7 34 C-7 35 -7 35 -9 39 C-9 39 -9 39 -11 40 C-12 43 -12 43 -13 47 C-12 48 -10 50 -9 51 C-9 52 -9 52 -9 53 C-10 53 -10 53 -11 53 C-11 54 -11 54 -11 55 C-10 55 -9 56 -8 56 C-8 57 -9 59 -9 60 C-10 59 -10 57 -11 56 C-12 56 -12 56 -13 56 C-17 49 -17 49 -16 44 C-13 35 -11 27 -7 18 C-5 13 -4 9 -2 4 C-1 1 -1 1 0 0 Z " fill="#D7D9E0" transform="translate(373,148)"/>
<path d="M0 0 C8 -0 16 -0 25 -0 C27 -0 30 -0 33 -0 C37 -0 41 -0 45 -0 C46 -0 48 -0 49 -0 C52 -0 55 -0 58 0 C59 1 59 3 60 4 C57 5 55 5 52 5 C51 5 51 5 48 5 C47 5 45 5 44 5 C43 5 41 5 40 5 C36 5 32 5 28 5 C27 5 25 5 24 5 C15 4 8 3 0 1 C0 1 0 0 0 0 Z " fill="#ECEDEF" transform="translate(432,541)"/>
<path d="M0 0 C5 -1 8 -0 12 2 C19 7 23 13 27 21 C27 23 26 24 26 26 C25 26 25 26 24 26 C24 25 24 25 24 24 C23 24 22 24 21 24 C20 23 20 22 19 20 C15 12 9 9 1 6 C0 5 -1 5 -2 4 C-1 3 -1 1 0 0 Z " fill="#F3AF27" transform="translate(537,185)"/>
<path d="M0 0 C5 4 5 4 6 6 C7 15 6 22 2 30 C1 30 1 30 0 30 C-1 26 -1 24 -0 20 C0 14 -1 12 -4 7 C-5 8 -6 10 -7 11 C-12 14 -15 16 -21 17 C-16 10 -9 5 0 2 C0 1 0 1 0 0 Z " fill="#7A8094" transform="translate(774,120)"/>
<path d="M0 0 C4 2 5 3 7 7 C7 8 8 9 8 10 C9 14 9 16 8 19 C6 20 5 21 3 22 C-1 20 -1 20 -2 17 C-2 17 -2 17 -3 14 C-4 14 -4 14 -5 14 C-5 12 -5 10 -5 7 C-5 6 -5 5 -5 4 C-5 3 -5 1 -5 0 C-3 -1 -3 -1 0 0 Z " fill="#8F93A1" transform="translate(269.91015625,209.578125)"/>
<path d="M0 0 C1 0 3 1 4 1 C6 5 8 10 9 14 C5 18 3 19 -2 20 C-6 16 -7 14 -8 9 C-6 5 -4 3 0 0 Z " fill="#777A84" transform="translate(223,62)"/>
<path d="M0 0 C2 0 4 0 6 0 C2 3 -1 5 -5 7 C-9 9 -14 12 -18 14 C-22 16 -22 16 -26 17 C-25 19 -24 21 -23 23 C-21 22 -19 21 -17 21 C-16 20 -15 20 -14 19 C-12 18 -9 17 -7 16 C-6 16 -4 17 -3 17 C-4 17 -5 18 -6 18 C-7 19 -7 21 -8 22 C-10 22 -12 22 -14 22 C-15 23 -15 25 -16 26 C-26 27 -26 27 -31 24 C-33 22 -33 22 -33 20 C-29 16 -29 16 -26 16 C-25 15 -25 13 -24 12 C-22 12 -20 12 -18 12 C-17 11 -17 9 -16 8 C-14 8 -12 8 -10 8 C-9 7 -9 5 -8 4 C-6 4 -4 4 -2 4 C-1 3 -1 1 0 0 Z " fill="#E8EAEC" transform="translate(110,405)"/>
<path d="M0 0 C0 1 0 1 1 4 C-4 8 -6 8 -12 8 C-12 9 -12 9 -12 10 C-18 12 -19 12 -25 10 C-25 9 -25 9 -25 8 C-28 8 -30 7 -33 7 C-33 7 -33 6 -33 6 C-29 5 -24 4 -20 3 C-16 2 -16 2 -13 0 C-8 -1 -5 -1 0 0 Z " fill="#B5B8C3" transform="translate(479,432)"/>
<path d="M0 0 C1 0 2 1 3 1 C-1 16 -1 16 -5 21 C-8 22 -8 22 -12 21 C-19 18 -26 18 -33 21 C-33 20 -33 18 -33 17 C-31 17 -30 17 -28 17 C-28 16 -27 14 -27 13 C-23 13 -19 14 -15 14 C-15 15 -15 15 -15 16 C-10 15 -10 15 -5 13 C-3 7 -3 7 -2 2 C-1 1 -1 1 0 0 Z " fill="#D8DAE1" transform="translate(560,158)"/>
<path d="M0 0 C2 0 3 1 5 1 C5 3 4 4 4 6 C2 6 1 5 -1 5 C-1 3 -0 2 0 0 Z " fill="#ECEDEF" transform="translate(342,161)"/>
<path d="M0 0 C1 0 1 0 2 0 C2 1 3 3 3 4 C2 5 1 5 0 6 C-0 5 -0 5 -1 1 C-1 1 -0 0 0 0 Z " fill="#ECEDEF" transform="translate(297,437)"/>
<path d="M0 0 C2 0 4 0 6 0 C6 1 6 1 6 2 C4 2 2 2 0 2 C0 1 0 1 0 0 Z " fill="#ECEDEF" transform="translate(281,421)"/>
<path d="M0 0 C2 0 3 0 5 0 C5 1 6 1 6 2 C4 2 2 2 0 2 C0 1 0 1 0 0 Z " fill="#ECEDEF" transform="translate(209,397)"/>
</svg>
