<?xml version="1.0" encoding="UTF-8"?>
<!-- Generator: visioncortex VTracer 0.6.12 -->
<svg version="1.1" xmlns="http://www.w3.org/2000/svg" width="728" height="680">
<path d="M0 0 C4 -1 4 -1 10 -1 C12 -1 14 -1 16 -1 C17 -1 18 -1 19 -1 C22 -1 25 -1 28 -1 C29 -1 29 -1 34 -1 C36 -1 38 -1 40 -1 C41 -0 43 -0 44 0 C45 1 45 3 46 4 C50 4 53 4 57 4 C61 4 64 4 68 4 C69 5 69 7 70 8 C72 8 73 8 75 8 C77 8 78 8 80 8 C81 9 81 11 82 12 C84 12 86 12 88 12 C89 13 89 15 90 16 C92 16 94 16 96 16 C97 17 97 19 98 20 C100 20 102 20 104 20 C105 21 105 23 106 24 C108 24 110 24 112 24 C113 25 113 27 114 28 C115 28 115 28 118 30 C118 31 118 31 118 32 C119 33 121 33 122 34 C122 35 122 35 122 36 C123 37 125 37 126 38 C126 39 126 39 126 40 C128 40 130 40 132 40 C133 41 133 43 134 44 C135 45 137 45 138 46 C138 47 138 47 138 48 C139 49 141 49 142 50 C142 51 142 51 142 52 C143 52 144 52 145 52 C145 53 145 54 145 55 C146 59 146 59 150 62 C150 63 150 63 150 64 C151 65 153 65 154 66 C154 67 154 67 154 68 C155 68 156 68 157 68 C157 69 157 70 157 71 C158 73 158 74 158 75 C159 75 160 76 161 76 C161 78 162 81 162 83 C163 83 164 84 165 84 C165 86 166 89 166 91 C167 91 168 92 169 92 C169 94 170 97 170 99 C171 99 172 100 173 100 C173 104 174 107 174 111 C175 111 176 112 177 112 C177 116 178 119 178 123 C179 123 180 124 181 124 C181 128 182 132 182 136 C182 137 182 138 182 139 C183 139 184 140 185 140 C185 146 185 152 186 157 C186 161 186 164 186 167 C187 167 188 168 189 168 C189 171 189 171 189 176 C189 177 189 179 189 180 C189 184 190 187 190 191 C190 192 190 194 190 195 C190 197 190 198 190 200 C190 201 190 202 190 203 C191 203 192 204 193 204 C193 208 193 208 193 214 C193 215 193 216 193 217 C193 222 193 226 194 231 C194 234 194 237 194 241 C194 243 194 245 194 247 C194 248 194 249 194 251 C195 251 196 252 197 252 C197 256 198 260 198 264 C198 265 198 266 198 267 C199 267 200 268 201 268 C201 272 202 276 202 280 C202 281 202 282 202 283 C203 283 204 284 205 284 C205 288 206 292 206 296 C206 297 206 298 206 299 C207 299 208 300 209 300 C209 302 210 305 210 307 C211 307 212 308 213 308 C213 309 213 310 213 311 C214 315 214 315 218 318 C218 319 218 319 218 320 C219 320 220 320 221 320 C221 321 221 322 221 323 C221 324 221 324 222 327 C223 327 224 328 225 328 C225 330 226 333 226 335 C227 335 228 336 229 336 C229 338 230 341 230 343 C231 343 232 344 233 344 C233 348 234 351 234 355 C235 355 236 356 237 356 C237 360 238 364 238 368 C238 369 238 370 238 371 C239 371 240 372 241 372 C241 375 241 375 241 379 C241 380 241 381 241 383 C241 384 241 384 241 387 C241 389 241 390 241 392 C241 395 241 399 241 402 C241 407 241 412 241 417 C241 420 241 423 241 427 C241 428 241 430 241 431 C241 433 241 434 241 435 C241 437 241 438 241 439 C241 440 241 441 241 442 C240 442 239 443 238 443 C238 445 238 447 238 448 C237 450 237 452 237 454 C236 454 235 455 234 455 C234 456 234 457 234 458 C233 460 233 461 233 462 C232 462 231 463 230 463 C230 467 229 470 229 474 C228 474 227 474 226 474 C225 475 225 477 224 478 C223 478 223 479 222 479 C222 481 221 484 221 486 C220 486 219 486 218 486 C217 487 217 489 216 490 C215 490 215 490 214 490 C213 491 213 493 212 494 C211 494 211 494 210 494 C209 495 209 497 208 498 C207 498 207 498 206 498 C205 499 205 501 204 502 C201 502 197 502 194 502 C193 503 193 505 192 506 C191 506 191 506 190 506 C189 507 189 509 188 510 C187 510 187 510 186 510 C185 511 185 513 184 514 C183 514 183 514 182 514 C181 515 181 517 180 518 C178 518 176 518 174 518 C173 519 173 521 172 522 C167 522 163 522 158 522 C157 522 157 522 154 522 C153 523 153 525 152 526 C150 526 148 526 146 526 C145 527 145 529 144 530 C143 530 143 530 142 530 C141 531 141 533 140 534 C139 534 139 534 138 534 C137 535 137 537 136 538 C134 538 132 538 130 538 C129 539 129 541 128 542 C127 542 127 542 126 542 C125 543 125 545 124 546 C122 546 120 546 118 546 C117 547 117 549 116 550 C114 550 112 550 110 550 C109 551 109 553 108 554 C105 555 105 555 102 555 C102 556 102 558 102 559 C104 560 107 560 109 561 C109 562 110 563 110 564 C112 564 113 564 115 564 C117 564 118 564 120 564 C121 565 121 567 122 568 C124 568 126 568 128 568 C129 569 129 571 130 572 C131 573 133 573 134 574 C134 575 134 575 134 576 C135 576 135 576 139 576 C141 576 142 576 144 576 C145 577 145 579 146 580 C149 580 149 580 153 580 C154 580 155 580 157 580 C158 580 160 580 161 580 C164 580 167 580 169 580 C171 580 172 580 173 580 C174 580 175 580 176 580 C177 581 177 583 178 584 C180 584 181 584 183 584 C185 584 186 584 188 584 C189 585 189 587 190 588 C192 588 194 588 196 588 C196 590 197 591 197 593 C196 593 195 594 194 594 C193 595 193 597 192 598 C190 598 188 598 186 598 C185 599 185 601 184 602 C179 602 175 602 170 602 C169 602 169 602 166 602 C165 603 165 605 164 606 C158 606 153 606 147 606 C144 606 141 606 138 606 C137 607 137 609 136 610 C132 610 132 610 128 610 C126 610 124 610 122 610 C119 610 115 610 112 610 C110 610 108 610 106 610 C106 610 106 610 102 610 C101 610 101 610 98 610 C97 611 97 613 96 614 C92 614 88 614 84 614 C83 614 82 614 80 614 C75 614 70 614 65 614 C61 614 58 614 54 614 C53 614 52 614 50 614 C47 614 47 614 42 614 C41 615 41 617 40 618 C36 618 33 619 29 619 C28 619 27 619 26 619 C24 619 22 619 19 619 C16 619 13 619 9 619 C7 619 5 619 3 619 C2 619 1 619 -1 619 C-3 619 -3 619 -8 618 C-9 617 -9 615 -10 614 C-14 614 -14 614 -19 614 C-21 614 -23 614 -25 614 C-26 614 -27 614 -28 614 C-32 614 -35 614 -38 614 C-45 614 -52 614 -59 614 C-67 614 -75 614 -83 614 C-86 614 -90 614 -93 614 C-95 614 -97 614 -99 614 C-101 614 -102 614 -104 614 C-105 614 -107 614 -108 614 C-109 613 -109 611 -110 610 C-113 610 -113 610 -117 610 C-118 610 -119 610 -121 610 C-122 610 -124 610 -125 610 C-128 610 -131 610 -133 610 C-135 610 -136 610 -137 610 C-138 610 -139 610 -140 610 C-141 609 -141 607 -142 606 C-146 606 -151 606 -155 606 C-159 606 -164 606 -168 606 C-169 605 -169 603 -170 602 C-174 602 -174 602 -179 602 C-184 602 -184 602 -188 602 C-189 601 -189 599 -190 598 C-192 598 -194 598 -196 598 C-197 597 -197 595 -198 594 C-199 594 -200 593 -201 593 C-201 592 -201 592 -200 588 C-198 588 -196 588 -194 588 C-193 587 -193 585 -192 584 C-189 584 -185 584 -182 584 C-181 583 -181 581 -180 580 C-175 580 -171 580 -166 580 C-163 580 -161 580 -158 580 C-157 579 -157 577 -156 576 C-153 576 -153 576 -149 576 C-148 576 -147 576 -145 576 C-142 576 -140 576 -137 576 C-135 576 -134 576 -133 576 C-132 576 -132 576 -129 576 C-128 576 -127 576 -126 576 C-125 575 -125 573 -124 572 C-123 572 -123 572 -122 572 C-121 571 -121 569 -120 568 C-117 567 -117 567 -114 567 C-114 566 -114 564 -114 563 C-115 563 -115 563 -118 560 C-116 556 -116 556 -114 555 C-114 554 -114 552 -114 551 C-116 550 -119 550 -121 549 C-121 549 -121 549 -122 546 C-124 546 -126 546 -128 546 C-129 545 -129 543 -130 542 C-131 541 -133 541 -134 540 C-134 539 -134 539 -134 538 C-136 538 -138 538 -140 538 C-141 537 -141 535 -142 534 C-143 533 -145 533 -146 532 C-146 531 -146 531 -146 530 C-148 530 -150 530 -152 530 C-153 529 -153 527 -154 526 C-155 525 -157 525 -158 524 C-158 523 -158 523 -158 522 C-159 521 -161 521 -162 520 C-162 519 -162 519 -162 518 C-165 518 -167 518 -170 518 C-171 518 -171 518 -174 518 C-176 518 -177 518 -178 518 C-179 519 -179 521 -180 522 C-184 523 -184 523 -188 522 C-189 523 -191 523 -192 523 C-193 522 -193 522 -196 522 C-197 521 -197 519 -198 518 C-200 518 -202 518 -204 518 C-205 517 -205 515 -206 514 C-207 514 -208 514 -209 514 C-209 513 -209 513 -210 507 C-211 507 -213 507 -214 507 C-215 508 -215 509 -216 510 C-220 510 -220 510 -224 510 C-225 510 -225 510 -228 510 C-229 510 -229 510 -232 510 C-233 509 -233 507 -234 506 C-238 506 -238 506 -241 506 C-241 505 -241 504 -241 503 C-242 501 -242 500 -242 499 C-243 499 -244 498 -245 498 C-245 494 -245 491 -245 487 C-245 486 -245 486 -245 484 C-245 481 -245 479 -245 476 C-244 476 -243 475 -242 475 C-242 473 -242 471 -242 470 C-241 468 -241 466 -241 464 C-240 464 -239 463 -238 463 C-238 460 -238 460 -238 457 C-238 456 -238 456 -238 454 C-238 453 -238 452 -238 451 C-239 451 -240 450 -241 450 C-241 446 -242 442 -242 438 C-242 437 -242 436 -242 435 C-243 435 -244 434 -245 434 C-245 431 -245 431 -245 426 C-245 425 -245 423 -245 422 C-245 420 -245 419 -245 417 C-245 415 -245 414 -245 412 C-245 411 -245 409 -245 408 C-245 406 -245 405 -245 403 C-245 403 -245 403 -245 400 C-244 400 -243 399 -242 399 C-242 395 -242 395 -242 390 C-241 384 -241 384 -241 380 C-240 380 -239 379 -238 379 C-238 376 -238 376 -238 372 C-237 367 -237 367 -237 364 C-236 364 -235 363 -234 363 C-234 362 -234 361 -234 360 C-233 358 -233 357 -233 356 C-232 356 -231 355 -230 355 C-230 354 -230 353 -230 352 C-229 350 -229 349 -229 348 C-228 348 -227 347 -226 347 C-226 346 -226 345 -226 344 C-225 342 -225 341 -225 340 C-224 340 -223 339 -222 339 C-221 335 -221 335 -221 332 C-220 332 -219 332 -218 332 C-218 331 -218 331 -216 328 C-215 328 -215 327 -214 327 C-214 325 -213 322 -213 320 C-212 320 -211 320 -210 320 C-209 319 -209 317 -208 316 C-207 316 -207 316 -206 316 C-205 315 -205 313 -204 312 C-203 312 -203 312 -202 312 C-201 311 -201 309 -200 308 C-199 308 -199 308 -198 308 C-197 307 -197 305 -196 304 C-195 304 -195 304 -194 304 C-193 303 -193 301 -192 300 C-191 300 -191 300 -190 300 C-189 299 -189 297 -188 296 C-187 296 -187 296 -186 296 C-185 295 -185 293 -184 292 C-183 292 -183 292 -182 292 C-181 291 -181 289 -180 288 C-179 288 -179 287 -178 287 C-178 286 -178 286 -178 284 C-177 282 -177 281 -177 280 C-176 280 -175 279 -174 279 C-174 278 -174 277 -174 276 C-173 274 -173 273 -173 272 C-172 272 -171 271 -170 271 C-170 269 -170 267 -170 266 C-169 264 -169 262 -169 260 C-168 260 -167 259 -166 259 C-166 257 -166 255 -166 254 C-165 252 -165 250 -165 248 C-164 248 -163 247 -162 247 C-162 244 -162 244 -162 240 C-161 235 -161 235 -161 232 C-160 232 -159 231 -158 231 C-158 227 -158 223 -158 220 C-157 216 -157 212 -157 208 C-156 208 -155 207 -154 207 C-154 203 -154 199 -154 196 C-153 192 -153 188 -153 184 C-152 184 -151 183 -150 183 C-150 179 -150 175 -150 172 C-149 168 -149 164 -149 160 C-148 160 -147 159 -146 159 C-146 156 -146 156 -146 152 C-145 147 -145 147 -145 144 C-144 144 -143 143 -142 143 C-142 141 -142 139 -142 138 C-141 136 -141 134 -141 132 C-140 132 -139 131 -138 131 C-138 129 -138 127 -138 126 C-137 124 -137 122 -137 120 C-136 120 -135 119 -134 119 C-134 117 -134 115 -134 114 C-133 112 -133 110 -133 108 C-132 108 -131 107 -130 107 C-130 106 -130 105 -130 104 C-129 102 -129 101 -129 100 C-128 100 -127 99 -126 99 C-126 95 -125 92 -125 88 C-124 88 -123 88 -122 88 C-122 87 -122 87 -120 84 C-119 84 -119 83 -118 83 C-118 82 -118 81 -118 80 C-117 79 -117 79 -117 76 C-116 76 -115 75 -114 75 C-113 71 -113 71 -113 68 C-112 68 -111 68 -110 68 C-110 67 -110 67 -108 64 C-107 64 -107 64 -106 64 C-105 63 -105 61 -104 60 C-103 60 -103 60 -102 60 C-101 59 -101 57 -100 56 C-99 56 -99 56 -98 56 C-97 55 -97 53 -96 52 C-95 52 -95 52 -94 52 C-93 51 -93 49 -92 48 C-91 48 -91 48 -90 48 C-89 47 -89 45 -88 44 C-87 44 -87 44 -86 44 C-85 43 -85 41 -84 40 C-83 40 -83 40 -82 40 C-81 39 -81 37 -80 36 C-79 36 -79 36 -78 36 C-77 35 -77 33 -76 32 C-75 32 -75 32 -74 32 C-73 31 -73 29 -72 28 C-70 28 -68 28 -66 28 C-65 27 -65 25 -64 24 C-63 24 -63 24 -62 24 C-61 23 -61 21 -60 20 C-58 20 -56 20 -54 20 C-53 19 -53 17 -52 16 C-50 16 -48 16 -46 16 C-45 15 -45 13 -44 12 C-41 12 -37 12 -34 12 C-33 11 -33 9 -32 8 C-29 8 -25 8 -22 8 C-21 7 -21 5 -20 4 C-15 4 -11 4 -6 4 C-5 4 -3 4 -2 4 C-1 3 -1 1 0 0 Z " fill="#C6C8D2" transform="translate(354,37)"/>
<path d="M0 0 C4 -1 4 -1 10 -1 C12 -1 14 -1 16 -1 C17 -1 18 -1 19 -1 C22 -1 25 -1 28 -1 C29 -1 29 -1 34 -1 C36 -1 38 -1 40 -1 C41 -0 43 -0 44 0 C45 1 45 3 46 4 C50 4 53 4 57 4 C61 4 64 4 68 4 C69 5 69 7 70 8 C72 8 73 8 75 8 C77 8 78 8 80 8 C81 9 81 11 82 12 C84 12 86 12 88 12 C89 13 89 15 90 16 C92 16 94 16 96 16 C97 17 97 19 98 20 C100 20 102 20 104 20 C105 21 105 23 106 24 C108 24 110 24 112 24 C113 25 113 27 114 28 C115 28 115 28 118 30 C118 31 118 31 118 32 C119 33 121 33 122 34 C122 35 122 35 122 36 C123 37 125 37 126 38 C126 39 126 39 126 40 C128 40 130 40 132 40 C133 41 133 43 134 44 C135 45 137 45 138 46 C138 47 138 47 138 48 C139 49 141 49 142 50 C142 51 142 51 142 52 C143 52 144 52 145 52 C145 53 145 54 145 55 C146 59 146 59 150 62 C150 63 150 63 150 64 C151 65 153 65 154 66 C154 67 154 67 154 68 C155 68 156 68 157 68 C157 69 157 70 157 71 C158 73 158 74 158 75 C159 75 160 76 161 76 C161 78 162 81 162 83 C163 83 164 84 165 84 C165 86 166 89 166 91 C167 91 168 92 169 92 C169 94 170 97 170 99 C171 99 172 100 173 100 C173 104 174 107 174 111 C175 111 176 112 177 112 C177 116 178 119 178 123 C179 123 180 124 181 124 C181 128 182 132 182 136 C182 137 182 138 182 139 C183 139 184 140 185 140 C185 146 185 152 186 157 C186 161 186 164 186 167 C187 167 188 168 189 168 C189 171 189 171 189 176 C189 177 189 179 189 180 C189 184 190 187 190 191 C190 192 190 194 190 195 C190 197 190 198 190 200 C190 201 190 202 190 203 C191 203 192 204 193 204 C193 208 193 208 193 214 C193 215 193 216 193 217 C193 222 193 226 194 231 C194 234 194 237 194 241 C194 243 194 245 194 247 C194 248 194 249 194 251 C195 251 196 252 197 252 C197 256 198 260 198 264 C198 265 198 266 198 267 C199 267 200 268 201 268 C201 272 202 276 202 280 C202 281 202 282 202 283 C203 283 204 284 205 284 C205 288 206 292 206 296 C206 297 206 298 206 299 C207 299 208 300 209 300 C209 302 210 305 210 307 C211 307 212 308 213 308 C213 309 213 310 213 311 C214 315 214 315 218 318 C218 319 218 319 218 320 C219 320 220 320 221 320 C221 321 221 322 221 323 C221 324 221 324 222 327 C223 327 224 328 225 328 C225 330 226 333 226 335 C227 335 228 336 229 336 C229 338 230 341 230 343 C231 343 232 344 233 344 C233 348 234 351 234 355 C235 355 236 356 237 356 C237 360 238 364 238 368 C238 369 238 370 238 371 C239 371 240 372 241 372 C241 375 241 375 241 379 C241 380 241 381 241 383 C241 384 241 384 241 387 C241 389 241 390 241 392 C241 395 241 399 241 402 C241 407 241 412 241 417 C241 420 241 423 241 427 C241 428 241 430 241 431 C241 433 241 434 241 435 C241 437 241 438 241 439 C241 440 241 441 241 442 C240 442 239 443 238 443 C238 445 238 447 238 448 C237 450 237 452 237 454 C236 454 235 455 234 455 C234 456 234 457 234 458 C233 460 233 461 233 462 C232 462 231 463 230 463 C230 467 229 470 229 474 C228 474 227 474 226 474 C225 475 225 477 224 478 C223 478 223 479 222 479 C222 481 221 484 221 486 C220 486 219 486 218 486 C217 487 217 489 216 490 C215 490 215 490 214 490 C213 491 213 493 212 494 C211 494 211 494 210 494 C209 495 209 497 208 498 C207 498 207 498 206 498 C205 499 205 501 204 502 C201 502 197 502 194 502 C193 503 193 505 192 506 C191 506 191 506 190 506 C189 507 189 509 188 510 C187 510 187 510 186 510 C185 511 185 513 184 514 C183 514 183 514 182 514 C181 515 181 517 180 518 C178 518 176 518 174 518 C173 519 173 521 172 522 C167 522 163 522 158 522 C157 522 157 522 154 522 C153 523 153 525 152 526 C150 526 148 526 146 526 C145 527 145 529 144 530 C143 530 143 530 142 530 C141 531 141 533 140 534 C139 534 139 534 138 534 C137 535 137 537 136 538 C134 538 132 538 130 538 C129 539 129 541 128 542 C127 542 127 542 126 542 C125 543 125 545 124 546 C122 546 120 546 118 546 C117 547 117 549 116 550 C114 550 112 550 110 550 C109 551 109 553 108 554 C105 555 105 555 102 555 C102 556 102 558 102 559 C104 560 107 560 109 561 C109 562 110 563 110 564 C112 564 113 564 115 564 C117 564 118 564 120 564 C121 565 121 567 122 568 C124 568 126 568 128 568 C129 569 129 571 130 572 C131 573 133 573 134 574 C134 575 134 575 134 576 C135 576 135 576 139 576 C141 576 142 576 144 576 C145 577 145 579 146 580 C149 580 149 580 153 580 C154 580 155 580 157 580 C158 580 160 580 161 580 C164 580 167 580 169 580 C171 580 172 580 173 580 C174 580 175 580 176 580 C177 581 177 583 178 584 C180 584 181 584 183 584 C185 584 186 584 188 584 C189 585 189 587 190 588 C192 588 194 588 196 588 C196 590 197 591 197 593 C196 593 195 594 194 594 C193 595 193 597 192 598 C190 598 188 598 186 598 C185 599 185 601 184 602 C179 602 175 602 170 602 C169 602 169 602 166 602 C165 603 165 605 164 606 C158 606 153 606 147 606 C144 606 141 606 138 606 C137 607 137 609 136 610 C132 610 132 610 128 610 C126 610 124 610 122 610 C119 610 115 610 112 610 C110 610 108 610 106 610 C106 610 106 610 102 610 C101 610 101 610 98 610 C97 611 97 613 96 614 C92 614 88 614 84 614 C83 614 82 614 80 614 C75 614 70 614 65 614 C61 614 58 614 54 614 C53 614 52 614 50 614 C47 614 47 614 42 614 C41 615 41 617 40 618 C36 618 33 619 29 619 C28 619 27 619 26 619 C24 619 22 619 19 619 C16 619 13 619 9 619 C7 619 5 619 3 619 C2 619 1 619 -1 619 C-3 619 -3 619 -8 618 C-9 617 -9 615 -10 614 C-14 614 -14 614 -19 614 C-21 614 -23 614 -25 614 C-26 614 -27 614 -28 614 C-32 614 -35 614 -38 614 C-45 614 -52 614 -59 614 C-67 614 -75 614 -83 614 C-86 614 -90 614 -93 614 C-95 614 -97 614 -99 614 C-101 614 -102 614 -104 614 C-105 614 -107 614 -108 614 C-109 613 -109 611 -110 610 C-113 610 -113 610 -117 610 C-118 610 -119 610 -121 610 C-122 610 -124 610 -125 610 C-128 610 -131 610 -133 610 C-135 610 -136 610 -137 610 C-138 610 -139 610 -140 610 C-141 609 -141 607 -142 606 C-146 606 -151 606 -155 606 C-159 606 -164 606 -168 606 C-169 605 -169 603 -170 602 C-174 602 -174 602 -179 602 C-184 602 -184 602 -188 602 C-189 601 -189 599 -190 598 C-192 598 -194 598 -196 598 C-197 597 -197 595 -198 594 C-199 594 -200 593 -201 593 C-201 592 -201 592 -200 588 C-198 588 -196 588 -194 588 C-193 587 -193 585 -192 584 C-189 584 -185 584 -182 584 C-181 583 -181 581 -180 580 C-175 580 -171 580 -166 580 C-163 580 -161 580 -158 580 C-157 579 -157 577 -156 576 C-153 576 -153 576 -149 576 C-148 576 -147 576 -145 576 C-142 576 -140 576 -137 576 C-135 576 -134 576 -133 576 C-132 576 -132 576 -129 576 C-128 576 -127 576 -126 576 C-125 575 -125 573 -124 572 C-123 572 -123 572 -122 572 C-121 571 -121 569 -120 568 C-117 567 -117 567 -114 567 C-114 566 -114 564 -114 563 C-115 563 -115 563 -118 560 C-116 556 -116 556 -114 555 C-114 554 -114 552 -114 551 C-116 550 -119 550 -121 549 C-121 549 -121 549 -122 546 C-124 546 -126 546 -128 546 C-129 545 -129 543 -130 542 C-131 541 -133 541 -134 540 C-134 539 -134 539 -134 538 C-136 538 -138 538 -140 538 C-141 537 -141 535 -142 534 C-143 533 -145 533 -146 532 C-146 531 -146 531 -146 530 C-148 530 -150 530 -152 530 C-153 529 -153 527 -154 526 C-155 525 -157 525 -158 524 C-158 523 -158 523 -158 522 C-159 521 -161 521 -162 520 C-162 519 -162 519 -162 518 C-165 518 -167 518 -170 518 C-171 518 -171 518 -174 518 C-176 518 -177 518 -178 518 C-179 519 -179 521 -180 522 C-184 523 -184 523 -188 522 C-189 523 -191 523 -192 523 C-193 522 -193 522 -196 522 C-197 521 -197 519 -198 518 C-200 518 -202 518 -204 518 C-205 517 -205 515 -206 514 C-207 514 -208 514 -209 514 C-209 513 -209 513 -210 507 C-211 507 -213 507 -214 507 C-215 508 -215 509 -216 510 C-220 510 -220 510 -224 510 C-225 510 -225 510 -228 510 C-229 510 -229 510 -232 510 C-233 509 -233 507 -234 506 C-238 506 -238 506 -241 506 C-241 505 -241 504 -241 503 C-242 501 -242 500 -242 499 C-243 499 -244 498 -245 498 C-245 494 -245 491 -245 487 C-245 486 -245 486 -245 484 C-245 481 -245 479 -245 476 C-244 476 -243 475 -242 475 C-242 473 -242 471 -242 470 C-241 468 -241 466 -241 464 C-240 464 -239 463 -238 463 C-238 460 -238 460 -238 457 C-238 456 -238 456 -238 454 C-238 453 -238 452 -238 451 C-239 451 -240 450 -241 450 C-241 446 -242 442 -242 438 C-242 437 -242 436 -242 435 C-243 435 -244 434 -245 434 C-245 431 -245 431 -245 426 C-245 425 -245 423 -245 422 C-245 420 -245 419 -245 417 C-245 415 -245 414 -245 412 C-245 411 -245 409 -245 408 C-245 406 -245 405 -245 403 C-245 403 -245 403 -245 400 C-244 400 -243 399 -242 399 C-242 395 -242 395 -242 390 C-241 384 -241 384 -241 380 C-240 380 -239 379 -238 379 C-238 376 -238 376 -238 372 C-237 367 -237 367 -237 364 C-236 364 -235 363 -234 363 C-234 362 -234 361 -234 360 C-233 358 -233 357 -233 356 C-232 356 -231 355 -230 355 C-230 354 -230 353 -230 352 C-229 350 -229 349 -229 348 C-228 348 -227 347 -226 347 C-226 346 -226 345 -226 344 C-225 342 -225 341 -225 340 C-224 340 -223 339 -222 339 C-221 335 -221 335 -221 332 C-220 332 -219 332 -218 332 C-218 331 -218 331 -216 328 C-215 328 -215 327 -214 327 C-214 325 -213 322 -213 320 C-212 320 -211 320 -210 320 C-209 319 -209 317 -208 316 C-207 316 -207 316 -206 316 C-205 315 -205 313 -204 312 C-203 312 -203 312 -202 312 C-201 311 -201 309 -200 308 C-199 308 -199 308 -198 308 C-197 307 -197 305 -196 304 C-195 304 -195 304 -194 304 C-193 303 -193 301 -192 300 C-191 300 -191 300 -190 300 C-189 299 -189 297 -188 296 C-187 296 -187 296 -186 296 C-185 295 -185 293 -184 292 C-183 292 -183 292 -182 292 C-181 291 -181 289 -180 288 C-179 288 -179 287 -178 287 C-178 286 -178 286 -178 284 C-177 282 -177 281 -177 280 C-176 280 -175 279 -174 279 C-174 278 -174 277 -174 276 C-173 274 -173 273 -173 272 C-172 272 -171 271 -170 271 C-170 269 -170 267 -170 266 C-169 264 -169 262 -169 260 C-168 260 -167 259 -166 259 C-166 257 -166 255 -166 254 C-165 252 -165 250 -165 248 C-164 248 -163 247 -162 247 C-162 244 -162 244 -162 240 C-161 235 -161 235 -161 232 C-160 232 -159 231 -158 231 C-158 227 -158 223 -158 220 C-157 216 -157 212 -157 208 C-156 208 -155 207 -154 207 C-154 203 -154 199 -154 196 C-153 192 -153 188 -153 184 C-152 184 -151 183 -150 183 C-150 179 -150 175 -150 172 C-149 168 -149 164 -149 160 C-148 160 -147 159 -146 159 C-146 156 -146 156 -146 152 C-145 147 -145 147 -145 144 C-144 144 -143 143 -142 143 C-142 141 -142 139 -142 138 C-141 136 -141 134 -141 132 C-140 132 -139 131 -138 131 C-138 129 -138 127 -138 126 C-137 124 -137 122 -137 120 C-136 120 -135 119 -134 119 C-134 117 -134 115 -134 114 C-133 112 -133 110 -133 108 C-132 108 -131 107 -130 107 C-130 106 -130 105 -130 104 C-129 102 -129 101 -129 100 C-128 100 -127 99 -126 99 C-126 95 -125 92 -125 88 C-124 88 -123 88 -122 88 C-122 87 -122 87 -120 84 C-119 84 -119 83 -118 83 C-118 82 -118 81 -118 80 C-117 79 -117 79 -117 76 C-116 76 -115 75 -114 75 C-113 71 -113 71 -113 68 C-112 68 -111 68 -110 68 C-110 67 -110 67 -108 64 C-107 64 -107 64 -106 64 C-105 63 -105 61 -104 60 C-103 60 -103 60 -102 60 C-101 59 -101 57 -100 56 C-99 56 -99 56 -98 56 C-97 55 -97 53 -96 52 C-95 52 -95 52 -94 52 C-93 51 -93 49 -92 48 C-91 48 -91 48 -90 48 C-89 47 -89 45 -88 44 C-87 44 -87 44 -86 44 C-85 43 -85 41 -84 40 C-83 40 -83 40 -82 40 C-81 39 -81 37 -80 36 C-79 36 -79 36 -78 36 C-77 35 -77 33 -76 32 C-75 32 -75 32 -74 32 C-73 31 -73 29 -72 28 C-70 28 -68 28 -66 28 C-65 27 -65 25 -64 24 C-63 24 -63 24 -62 24 C-61 23 -61 21 -60 20 C-58 20 -56 20 -54 20 C-53 19 -53 17 -52 16 C-50 16 -48 16 -46 16 C-45 15 -45 13 -44 12 C-41 12 -37 12 -34 12 C-33 11 -33 9 -32 8 C-29 8 -25 8 -22 8 C-21 7 -21 5 -20 4 C-15 4 -11 4 -6 4 C-5 4 -3 4 -2 4 C-1 3 -1 1 0 0 Z M-23 21 C-24 21 -25 22 -26 22 C-45 28 -62 38 -76 51 C-78 53 -81 55 -83 58 C-97 70 -106 86 -114 103 C-115 104 -115 105 -116 107 C-132 142 -140 182 -142 220 C-143 226 -144 229 -146 234 C-147 238 -148 241 -149 245 C-158 273 -158 273 -164 284 C-165 287 -165 287 -166 292 C-166 298 -168 301 -172 305 C-176 307 -176 307 -180 308 C-187 312 -191 318 -196 324 C-197 325 -198 327 -199 328 C-204 334 -208 341 -212 347 C-213 348 -213 349 -214 350 C-225 370 -229 392 -230 415 C-230 416 -230 418 -230 420 C-230 434 -230 434 -228 441 C-227 442 -226 443 -225 444 C-224 445 -223 446 -222 447 C-222 451 -224 455 -225 459 C-226 460 -226 461 -227 462 C-227 463 -228 464 -228 465 C-231 473 -233 479 -233 488 C-230 493 -230 493 -226 496 C-220 497 -216 495 -211 492 C-204 487 -198 480 -194 473 C-193 472 -193 472 -191 469 C-190 469 -189 469 -188 469 C-190 478 -191 485 -196 493 C-198 497 -199 499 -198 504 C-197 505 -195 505 -194 506 C-194 507 -194 507 -194 508 C-189 511 -187 510 -181 509 C-177 507 -174 505 -171 503 C-170 502 -169 502 -168 501 C-160 496 -156 492 -154 482 C-154 480 -153 479 -153 477 C-150 476 -150 476 -147 477 C-146 477 -145 477 -144 477 C-136 470 -129 457 -129 447 C-129 447 -129 447 -129 444 C-128 444 -128 444 -127 444 C-123 435 -121 426 -119 416 C-118 411 -118 411 -116 407 C-115 406 -113 406 -112 405 C-107 412 -109 419 -111 427 C-113 439 -117 450 -122 461 C-123 463 -123 464 -124 466 C-132 479 -140 491 -152 501 C-153 502 -153 503 -154 504 C-152 513 -145 517 -138 522 C-109 542 -109 542 -94 542 C-89 540 -89 540 -88 539 C-79 539 -72 542 -66 548 C-61 552 -56 553 -50 554 C-49 554 -48 554 -47 555 C-43 555 -39 555 -35 556 C-34 556 -32 556 -31 556 C-26 556 -26 556 -22 555 C-18 555 -13 555 -8 555 C-6 555 -4 555 -3 555 C-2 555 -1 555 0 556 C18 556 34 556 51 553 C53 553 54 553 56 552 C66 551 73 548 82 541 C85 539 85 539 91 539 C92 540 94 540 95 541 C106 543 116 534 125 528 C130 525 135 521 139 516 C140 515 140 515 143 513 C157 499 164 480 170 462 C171 461 171 459 172 458 C175 448 175 438 175 428 C175 427 175 425 176 424 C177 411 175 399 174 387 C171 367 171 367 174 360 C175 361 176 362 177 363 C178 363 178 363 179 363 C180 365 180 368 181 370 C181 372 182 373 182 375 C182 376 183 378 183 379 C183 380 184 382 184 383 C187 401 186 420 186 438 C187 438 187 438 188 438 C187 439 187 441 186 442 C183 449 181 456 180 464 C177 478 172 490 165 502 C166 506 166 506 167 508 C174 507 179 504 184 498 C187 494 190 489 192 485 C194 482 194 482 197 480 C198 481 200 481 201 482 C206 482 206 482 209 479 C219 465 225 449 227 432 C227 429 227 426 228 422 C232 401 229 380 222 360 C222 359 222 359 221 356 C215 339 208 325 196 312 C194 308 194 306 193 301 C193 296 191 291 189 285 C187 276 185 268 184 259 C184 258 183 256 183 255 C182 250 182 246 181 241 C181 237 181 234 180 230 C179 230 179 230 178 230 C178 229 178 229 178 226 C178 189 174 152 162 117 C162 116 162 116 160 112 C155 95 147 80 136 66 C135 65 134 64 133 62 C127 55 121 49 113 43 C112 42 112 42 108 39 C72 15 19 6 -23 21 Z " fill="#0C0C0F" transform="translate(354,37)"/>
<path d="M0 0 C0 0 0 0 2 2 C3 2 5 3 6 3 C8 8 9 12 9 17 C10 19 10 20 10 21 C11 24 11 27 12 30 C12 31 12 32 13 34 C13 35 13 36 13 37 C14 41 14 41 15 45 C16 49 16 52 16 56 C16 57 16 59 16 60 C16 61 16 62 16 63 C17 63 17 63 18 63 C18 64 18 65 18 66 C18 66 18 66 18 69 C19 70 19 71 19 73 C19 76 19 76 20 81 C20 83 20 85 20 88 C20 94 21 98 24 104 C30 116 35 134 32 148 C32 149 32 149 33 153 C33 167 33 167 32 174 C31 174 31 174 28 176 C26 180 25 185 25 190 C23 197 22 205 18 212 C17 212 17 212 16 212 C16 213 16 214 16 215 C16 224 11 230 7 237 C6 238 6 239 5 240 C4 242 4 242 1 245 C-3 245 -3 245 -6 244 C-7 244 -7 245 -8 245 C-8 247 -8 248 -9 250 C-10 258 -14 263 -20 267 C-36 278 -36 278 -45 278 C-46 277 -48 277 -49 276 C-49 275 -49 275 -49 274 C-50 273 -52 273 -53 272 C-54 267 -52 263 -50 259 C-46 253 -45 248 -44 242 C-44 240 -43 239 -43 237 C-48 238 -49 241 -52 245 C-58 253 -64 260 -73 264 C-78 265 -80 265 -84 262 C-88 258 -88 257 -88 252 C-88 242 -84 233 -79 224 C-77 219 -77 219 -78 214 C-79 213 -80 213 -80 212 C-87 204 -85 191 -85 182 C-85 180 -85 179 -85 177 C-83 141 -68 112 -45 85 C-44 84 -43 83 -42 82 C-38 77 -32 74 -26 72 C-23 68 -21 65 -21 60 C-20 55 -19 53 -17 50 C-11 37 -7 23 -3 9 C-1 2 -1 2 0 0 Z " fill="#9094A3" transform="translate(209,269)"/>
<path d="M0 0 C-0 2 -1 3 -1 5 C-4 6 -6 8 -9 9 C-12 12 -14 14 -15 18 C-15 21 -15 21 -12 26 C-7 29 -2 28 3 28 C8 27 12 27 17 27 C21 30 21 30 25 34 C29 37 32 38 37 39 C41 38 41 38 44 34 C45 33 45 31 46 30 C51 27 56 28 62 28 C66 28 66 28 70 24 C71 20 71 16 71 12 C75 12 75 12 79 12 C80 13 80 15 81 16 C84 16 84 16 88 16 C88 16 88 16 92 16 C93 16 95 16 96 16 C99 16 102 16 104 16 C105 16 105 16 108 16 C109 16 110 16 111 16 C112 17 112 19 113 20 C115 20 116 20 118 20 C120 20 121 20 123 20 C124 21 124 23 125 24 C127 24 129 24 131 24 C131 26 132 27 132 29 C131 29 130 30 129 30 C128 31 128 33 127 34 C125 34 123 34 121 34 C120 35 120 37 119 38 C114 38 110 38 105 38 C104 38 102 38 101 38 C100 39 100 41 99 42 C93 42 88 42 82 42 C79 42 76 42 73 42 C72 43 72 45 71 46 C67 46 67 46 63 46 C61 46 59 46 57 46 C54 46 50 46 47 46 C45 46 43 46 41 46 C40 46 38 46 37 46 C36 46 36 46 33 46 C32 47 32 49 31 50 C27 50 23 50 19 50 C18 50 17 50 15 50 C10 50 5 50 0 50 C-4 50 -7 50 -11 50 C-12 50 -13 50 -15 50 C-18 50 -18 50 -23 50 C-24 51 -24 53 -25 54 C-29 54 -32 55 -36 55 C-37 55 -38 55 -39 55 C-41 55 -43 55 -46 55 C-49 55 -52 55 -56 55 C-58 55 -60 55 -62 55 C-63 55 -64 55 -66 55 C-68 55 -68 55 -73 54 C-73 53 -73 53 -75 50 C-79 50 -79 50 -84 50 C-86 50 -88 50 -90 50 C-91 50 -91 50 -93 50 C-97 50 -100 50 -103 50 C-110 50 -117 50 -124 50 C-132 50 -140 50 -148 50 C-151 50 -155 50 -158 50 C-160 50 -162 50 -164 50 C-166 50 -167 50 -169 50 C-170 50 -172 50 -173 50 C-173 49 -173 49 -175 46 C-178 46 -178 46 -182 46 C-182 46 -182 46 -186 46 C-187 46 -189 46 -190 46 C-193 46 -196 46 -198 46 C-200 46 -201 46 -202 46 C-203 46 -203 46 -205 46 C-206 45 -206 43 -207 42 C-211 42 -216 42 -220 42 C-224 42 -229 42 -233 42 C-234 41 -234 39 -235 38 C-239 38 -239 38 -244 38 C-249 38 -249 38 -253 38 C-254 37 -254 35 -255 34 C-257 34 -259 34 -261 34 C-262 33 -262 31 -263 30 C-264 30 -265 29 -266 29 C-266 27 -265 26 -265 24 C-263 24 -261 24 -259 24 C-258 23 -258 21 -257 20 C-254 20 -250 20 -247 20 C-246 19 -246 17 -245 16 C-240 16 -236 16 -231 16 C-228 16 -226 16 -223 16 C-222 15 -222 13 -221 12 C-218 12 -218 12 -215 12 C-214 12 -212 12 -211 12 C-211 12 -211 12 -207 12 C-207 12 -207 12 -204 12 C-200 12 -197 12 -194 12 C-194 14 -194 15 -195 17 C-195 23 -195 23 -192 28 C-189 29 -187 29 -184 29 C-183 29 -181 29 -180 29 C-177 29 -177 29 -173 28 C-172 28 -171 28 -170 28 C-166 32 -166 32 -163 37 C-157 40 -156 40 -150 39 C-145 36 -143 32 -140 28 C-136 26 -131 27 -127 28 C-122 29 -119 29 -114 28 C-110 24 -110 24 -110 20 C-110 16 -111 14 -114 11 C-119 8 -123 7 -129 5 C-129 4 -128 2 -128 1 C-121 0 -115 1 -108 2 C-99 4 -89 4 -80 5 C-75 5 -71 5 -66 6 C-61 6 -57 6 -52 5 C-45 4 -39 4 -32 4 C-24 3 -17 2 -9 1 C-5 0 -5 0 0 0 Z " fill="#CACCD6" transform="translate(419,601)"/>
<path d="M0 0 C1 0 2 1 3 1 C3 2 4 4 4 5 C6 11 9 13 14 16 C19 16 23 16 28 15 C33 15 33 15 37 19 C45 30 46 41 45 54 C45 55 44 55 44 56 C42 56 40 57 38 57 C23 59 14 69 4 81 C0 85 0 85 -3 86 C-4 86 -4 85 -5 85 C-11 85 -11 85 -15 88 C-15 89 -15 91 -15 92 C-15 93 -15 95 -15 96 C-16 96 -16 96 -19 98 C-22 96 -26 94 -29 92 C-31 92 -32 91 -34 91 C-35 92 -36 93 -37 93 C-42 97 -45 97 -50 96 C-51 95 -52 95 -53 94 C-53 93 -53 93 -53 92 C-54 92 -54 92 -55 92 C-55 91 -56 91 -56 90 C-57 90 -59 90 -60 90 C-60 91 -61 91 -61 92 C-62 92 -62 92 -63 92 C-64 93 -64 95 -65 96 C-64 97 -63 99 -62 100 C-64 100 -65 100 -67 100 C-67 99 -68 99 -68 98 C-71 98 -71 98 -75 98 C-75 99 -76 100 -76 101 C-77 102 -77 103 -78 104 C-82 105 -86 105 -90 105 C-90 105 -90 105 -93 105 C-101 105 -101 105 -106 100 C-108 89 -106 81 -100 72 C-98 71 -97 70 -95 69 C-94 68 -93 67 -92 66 C-88 64 -84 64 -80 64 C-74 63 -74 63 -71 61 C-71 60 -71 60 -69 58 C-67 56 -67 56 -63 56 C-57 55 -56 54 -53 50 C-50 48 -48 46 -45 44 C-42 42 -40 39 -37 36 C-35 34 -34 33 -32 31 C-30 28 -30 24 -30 20 C-30 18 -29 17 -29 15 C-29 14 -29 13 -29 11 C-29 10 -29 9 -29 8 C-26 7 -24 7 -20 7 C-13 6 -6 6 0 0 Z " fill="#C1C4CF" transform="translate(494,284)"/>
<path d="M0 0 C15 15 24 34 28 55 C29 57 29 59 30 61 C36 81 35 102 31 123 C31 125 30 127 30 130 C28 145 22 161 11 172 C7 172 4 171 1 170 C-2 173 -4 177 -6 181 C-11 189 -15 193 -23 197 C-25 197 -26 198 -28 198 C-29 197 -29 196 -30 195 C-29 190 -28 187 -25 183 C-19 170 -16 157 -13 142 C-12 138 -12 138 -9 133 C-8 131 -8 130 -7 128 C-8 128 -8 128 -9 128 C-9 127 -9 126 -9 125 C-9 81 -9 81 -12 69 C-13 67 -13 64 -14 62 C-14 59 -15 56 -16 53 C-17 52 -19 52 -20 51 C-24 47 -23 42 -23 37 C-22 23 -18 11 -8 1 C-5 -1 -5 -1 0 0 Z " fill="#7F8598" transform="translate(549,347)"/>
<path d="M0 0 C1 1 2 2 3 3 C6 3 6 3 10 3 C11 3 12 3 13 3 C16 3 16 3 19 2 C31 1 41 1 51 7 C54 9 54 9 59 10 C60 17 58 22 56 28 C55 32 55 32 55 35 C56 35 57 36 58 36 C58 37 59 39 59 40 C61 44 61 44 66 46 C67 47 69 47 70 48 C70 49 70 49 70 50 C71 50 71 50 74 51 C74 51 74 51 77 52 C77 52 77 52 78 50 C80 50 82 50 84 50 C84 49 85 48 85 47 C90 50 92 52 95 57 C95 60 95 63 95 66 C95 67 95 69 95 71 C95 75 95 75 93 78 C93 79 92 80 92 81 C95 88 99 90 106 93 C110 93 110 93 113 92 C113 92 113 92 114 89 C113 89 112 88 111 88 C108 87 108 87 104 84 C104 82 105 81 105 79 C108 78 110 78 113 78 C114 78 115 78 116 78 C117 78 118 78 119 78 C121 82 121 82 121 86 C122 89 122 89 124 91 C127 93 129 93 133 93 C134 94 134 94 139 94 C139 96 140 97 140 99 C136 102 136 102 130 102 C129 101 128 101 126 100 C125 100 124 99 123 99 C122 100 121 101 120 102 C119 102 119 102 118 102 C118 102 118 102 117 105 C111 109 106 111 99 110 C99 110 99 110 96 108 C96 107 96 107 96 106 C95 106 95 106 94 106 C93 105 92 104 91 103 C87 103 83 103 79 103 C75 102 75 102 71 98 C71 97 71 95 71 94 C71 93 71 91 71 90 C66 89 66 89 64 90 C47 92 47 92 41 87 C40 86 40 86 37 83 C32 79 31 79 25 79 C18 76 12 73 8 65 C6 60 7 55 7 49 C7 46 7 46 6 43 C6 41 6 39 6 36 C6 35 6 34 6 33 C6 32 6 31 6 30 C5 30 5 30 4 30 C3 27 3 27 3 22 C3 15 2 10 0 4 C0 3 0 1 0 0 Z " fill="#C1C4CF" transform="translate(221,302)"/>
<path d="M0 0 C3 3 3 3 5 6 C6 8 7 9 8 11 C9 12 10 13 10 13 C12 16 14 18 16 21 C21 28 22 33 21 42 C17 49 11 51 4 53 C3 53 3 53 2 53 C1 55 1 57 0 59 C-9 79 -9 79 -18 85 C-23 86 -26 86 -31 84 C-34 82 -34 82 -36 79 C-37 78 -38 77 -39 76 C-43 71 -47 66 -50 61 C-53 57 -55 55 -59 53 C-65 49 -67 47 -70 41 C-70 35 -70 31 -67 26 C-65 24 -63 22 -61 20 C-57 17 -54 13 -51 9 C-45 0 -35 -6 -25 -9 C-15 -9 -8 -6 0 0 Z " fill="#050507" transform="translate(419,252)"/>
<path d="M0 0 C6 1 6 2 10 6 C14 8 18 10 22 11 C27 12 30 15 34 19 C36 21 36 21 40 22 C41 22 42 21 43 21 C47 18 50 18 55 19 C56 20 56 22 57 23 C57 24 58 26 59 27 C63 27 67 27 71 27 C75 27 75 27 79 31 C78 34 76 37 74 39 C74 41 75 43 75 45 C75 50 75 52 73 56 C69 59 64 62 60 65 C57 67 57 67 56 69 C55 69 55 69 54 69 C54 68 54 68 54 67 C45 63 37 61 27 62 C21 64 19 65 15 70 C14 70 14 70 13 70 C13 71 13 71 13 72 C9 75 9 75 7 75 C7 76 7 76 7 77 C-0 81 -0 81 -3 81 C-4 82 -4 84 -5 85 C-5 85 -5 85 -7 86 C-7 87 -6 89 -6 90 C-6 90 -6 90 -4 91 C-4 95 -4 95 -4 99 C-5 99 -5 99 -9 100 C-10 102 -10 103 -11 105 C-12 105 -13 104 -14 104 C-21 102 -28 103 -35 104 C-36 104 -36 104 -40 104 C-40 104 -41 103 -41 103 C-41 97 -41 97 -38 94 C-35 92 -35 92 -31 92 C-31 86 -31 83 -34 78 C-35 68 -33 59 -28 50 C-25 49 -23 48 -20 50 C-10 51 -3 48 5 41 C8 39 8 39 10 36 C8 30 5 27 -0 24 C-4 23 -4 23 -8 23 C-9 22 -10 22 -11 22 C-12 19 -12 19 -12 16 C-10 12 -8 8 -5 5 C-4 4 -3 3 -2 2 C-2 1 -1 1 0 0 Z " fill="#C1C4CF" transform="translate(269,105)"/>
<path d="M0 0 C3 3 4 5 6 8 C10 15 15 20 22 22 C28 22 30 21 35 18 C40 19 42 22 45 26 C49 30 51 32 57 32 C62 32 62 32 67 30 C69 29 70 29 72 28 C75 30 75 30 77 33 C78 38 78 40 76 45 C75 46 75 47 74 48 C73 50 72 51 71 52 C69 55 69 55 67 56 C65 56 63 55 61 55 C61 55 61 55 59 56 C59 58 59 59 58 61 C57 69 53 74 47 78 C31 89 31 89 22 89 C21 88 19 88 18 87 C18 86 18 86 18 85 C17 84 15 84 14 83 C13 78 15 74 17 70 C21 64 22 59 23 53 C23 51 24 50 24 48 C19 49 18 52 15 56 C9 64 3 71 -6 75 C-11 76 -13 76 -17 73 C-21 69 -21 68 -21 63 C-21 53 -17 44 -12 35 C-10 30 -10 30 -11 25 C-12 24 -13 24 -13 23 C-17 19 -18 14 -18 8 C-18 4 -18 4 -17 1 C-16 1 -16 1 -14 1 C-8 1 -6 -2 0 0 Z " fill="#646A7E" transform="translate(142,458)"/>
<path d="M0 0 C2 1 4 2 6 3 C8 4 9 5 11 5 C13 6 14 7 16 8 C18 9 20 10 22 11 C34 18 47 24 59 30 C64 33 64 33 70 33 C71 33 72 32 73 32 C73 31 73 30 73 29 C74 27 74 26 74 25 C77 23 77 23 80 23 C83 26 84 28 84 32 C84 39 82 42 77 47 C75 47 72 48 70 48 C69 49 68 49 67 50 C66 53 66 53 66 57 C65 69 61 77 52 85 C43 90 35 92 25 91 C18 89 12 87 8 81 C7 80 7 80 6 79 C-1 68 -2 56 -0 43 C2 29 2 29 7 24 C7 21 7 21 7 17 C6 17 6 17 2 15 C-4 12 -4 12 -5 11 C-5 8 -5 8 -5 4 C-2 1 -2 1 0 0 Z " fill="#09090B" transform="translate(273,188)"/>
<path d="M0 0 C4 -1 4 -1 10 -0 C12 -1 14 -1 16 -1 C17 -0 18 -0 20 0 C20 1 20 1 22 4 C24 4 26 4 28 4 C28 5 28 5 30 8 C31 9 33 9 34 10 C34 11 34 11 34 12 C35 13 37 13 38 14 C38 15 38 15 38 16 C39 17 41 17 42 18 C42 19 42 19 42 20 C43 21 45 21 46 22 C46 23 46 23 46 24 C48 24 49 24 51 24 C53 24 54 24 56 24 C56 25 56 25 58 28 C60 28 62 28 64 28 C64 29 64 29 66 32 C67 33 69 33 70 34 C70 35 70 35 70 36 C71 37 73 37 74 38 C74 39 74 39 74 40 C75 40 76 40 77 40 C77 41 77 42 77 43 C78 45 78 46 78 47 C79 47 80 48 81 48 C81 52 81 57 81 61 C81 62 81 63 81 65 C81 68 81 71 81 74 C80 74 79 75 78 75 C78 76 78 77 78 78 C77 80 77 81 77 82 C76 82 75 83 74 83 C74 86 74 86 74 90 C73 95 73 95 73 98 C72 98 71 99 70 99 C70 103 69 106 69 110 C68 110 67 110 66 110 C66 111 66 111 64 114 C63 114 63 114 62 114 C62 115 62 115 60 118 C59 118 59 118 58 118 C58 119 58 119 56 122 C54 122 52 122 50 122 C50 123 50 123 48 126 C45 127 45 127 42 127 C41 127 39 127 38 127 C37 127 35 127 34 126 C33 127 33 127 30 127 C29 127 29 127 26 127 C25 127 24 127 23 127 C22 126 21 126 20 126 C19 125 19 123 18 122 C17 122 17 122 14 120 C14 119 14 119 14 118 C12 118 10 118 8 118 C7 117 7 115 6 114 C2 114 2 114 -2 114 C-3 115 -3 117 -4 118 C-6 118 -8 118 -10 118 C-11 119 -11 121 -12 122 C-13 122 -13 122 -14 122 C-15 123 -15 125 -16 126 C-18 126 -20 126 -22 126 C-23 127 -23 129 -24 130 C-26 130 -28 130 -30 130 C-30 131 -30 131 -32 134 C-32 135 -32 135 -35 138 C-36 138 -37 137 -38 137 C-38 136 -38 135 -38 134 C-39 134 -40 133 -41 133 C-41 131 -40 130 -40 128 C-39 128 -39 128 -38 128 C-37 127 -37 125 -36 124 C-35 124 -35 124 -34 124 C-33 123 -33 121 -32 120 C-30 120 -28 120 -26 120 C-25 119 -25 117 -24 116 C-22 116 -20 116 -18 116 C-17 115 -17 113 -16 112 C-15 112 -15 112 -14 112 C-13 111 -13 109 -12 108 C-10 108 -8 108 -6 108 C-5 107 -5 105 -4 104 C-3 104 -3 104 -2 104 C-1 103 -1 101 0 100 C4 100 4 100 8 100 C9 101 9 103 10 104 C11 104 11 104 14 106 C14 107 14 107 14 108 C15 108 15 108 18 110 C18 111 18 111 18 112 C20 112 22 112 24 112 C25 113 25 115 26 116 C30 117 30 117 34 116 C35 117 35 117 38 117 C40 116 41 116 42 116 C42 115 42 115 44 112 C46 112 48 112 50 112 C50 111 50 111 52 108 C53 108 53 108 54 108 C54 107 54 107 56 104 C57 104 57 103 58 103 C58 99 59 95 59 91 C59 90 59 89 59 88 C59 85 59 83 59 80 C60 80 61 80 62 80 C64 80 65 80 66 80 C66 79 66 79 68 76 C69 76 69 75 70 75 C70 71 70 67 70 63 C70 63 70 63 70 60 C70 57 70 54 70 51 C69 50 67 49 66 48 C66 47 66 47 66 46 C65 45 63 45 62 44 C62 43 62 43 62 42 C61 41 59 41 58 40 C58 39 58 39 58 38 C56 38 54 38 52 38 C52 37 52 37 50 34 C46 34 46 34 42 35 C41 36 41 37 40 38 C38 38 37 37 35 37 C35 35 35 33 35 31 C34 31 32 30 31 30 C31 29 31 29 31 28 C32 28 33 27 34 27 C34 26 34 24 34 23 C33 22 31 21 30 20 C30 19 30 19 30 18 C28 18 26 18 24 18 C24 17 24 17 22 14 C19 14 15 14 12 14 C12 14 12 14 10 11 C9 11 7 11 6 11 C5 12 5 13 4 14 C3 14 3 14 -1 14 C-3 14 -4 14 -6 14 C-7 15 -7 17 -8 18 C-9 18 -9 18 -10 18 C-11 19 -11 21 -12 22 C-13 22 -13 22 -14 22 C-15 23 -15 25 -16 26 C-16 26 -16 26 -18 27 C-18 28 -18 29 -18 30 C-19 31 -19 31 -19 34 C-20 34 -21 35 -22 35 C-22 39 -22 43 -22 47 C-22 48 -22 49 -22 50 C-22 53 -22 56 -22 59 C-21 59 -20 60 -19 60 C-19 61 -19 62 -19 63 C-19 65 -18 66 -18 67 C-14 68 -14 68 -11 69 C-11 71 -12 72 -12 74 C-13 74 -13 74 -14 74 C-15 75 -15 77 -16 78 C-17 78 -17 78 -18 78 C-19 79 -19 81 -20 82 C-21 82 -21 82 -22 82 C-23 83 -23 85 -24 86 C-25 86 -25 86 -26 86 C-27 87 -27 89 -28 90 C-29 90 -29 90 -30 90 C-31 91 -31 93 -32 94 C-32 94 -32 94 -34 95 C-34 97 -35 100 -35 102 C-36 102 -37 102 -38 102 C-39 103 -39 105 -40 106 C-41 106 -41 106 -42 106 C-43 107 -43 109 -44 110 C-45 110 -45 110 -46 110 C-47 111 -47 113 -48 114 C-53 113 -53 113 -57 109 C-57 107 -56 106 -56 104 C-55 104 -54 104 -53 104 C-53 104 -53 104 -50 103 C-49 99 -49 99 -49 96 C-48 96 -47 96 -46 96 C-45 95 -45 93 -44 92 C-43 92 -43 92 -42 92 C-41 91 -41 89 -40 88 C-39 88 -39 88 -38 88 C-37 87 -37 85 -36 84 C-35 84 -35 84 -34 84 C-33 83 -33 81 -32 80 C-31 80 -31 80 -30 80 C-29 79 -29 77 -28 76 C-28 76 -28 76 -26 75 C-26 74 -26 72 -26 71 C-27 70 -29 69 -30 68 C-30 67 -30 67 -30 66 C-31 66 -32 66 -33 66 C-33 65 -33 64 -33 63 C-33 62 -33 62 -33 59 C-33 57 -33 56 -33 54 C-34 53 -34 52 -34 51 C-34 51 -34 51 -37 50 C-37 45 -37 45 -37 40 C-37 40 -37 40 -34 39 C-34 37 -34 35 -34 34 C-33 32 -33 30 -33 28 C-32 28 -31 27 -30 27 C-29 23 -29 23 -29 20 C-28 20 -27 20 -26 20 C-25 19 -25 17 -24 16 C-23 16 -23 16 -22 16 C-21 15 -21 13 -20 12 C-19 12 -19 12 -18 12 C-17 11 -17 9 -16 8 C-15 8 -15 8 -14 8 C-13 7 -13 5 -12 4 C-9 4 -5 4 -2 4 C-1 3 -1 1 0 0 Z " fill="#232326" transform="translate(622,25)"/>
<path d="M0 0 C4 -0 8 -1 12 -0 C13 -1 14 -1 15 -1 C19 -1 19 -1 24 0 C24 1 24 1 26 4 C28 4 30 4 32 4 C32 5 32 5 34 8 C36 8 38 8 40 8 C40 9 40 9 42 12 C43 13 45 13 46 14 C46 15 46 15 46 16 C47 16 48 16 49 16 C49 17 49 18 49 19 C50 21 50 22 50 23 C50 23 50 23 53 24 C53 26 54 29 54 31 C54 31 54 31 57 32 C57 36 57 41 57 45 C57 46 57 47 57 49 C57 52 57 55 57 58 C57 58 57 58 54 59 C54 60 54 61 54 62 C53 64 53 65 53 66 C53 66 53 66 50 67 C49 75 49 75 50 79 C51 80 53 81 54 82 C54 83 54 83 54 84 C55 84 55 84 58 86 C58 87 58 87 58 88 C59 88 59 88 62 90 C62 91 62 91 62 92 C63 92 63 92 66 94 C66 95 66 95 66 96 C67 97 69 97 70 98 C70 99 70 99 70 100 C71 101 73 101 74 102 C74 103 74 103 74 104 C75 104 76 104 77 104 C77 107 77 111 77 114 C73 114 73 114 68 114 C67 113 67 111 66 110 C65 110 65 110 62 108 C62 107 62 107 62 106 C61 106 60 106 59 106 C59 105 59 104 59 103 C58 99 58 99 54 96 C54 95 54 95 54 94 C53 94 53 94 50 92 C50 91 50 91 50 90 C49 90 49 90 46 88 C46 87 46 87 46 86 C45 86 45 86 42 84 C42 83 42 83 42 82 C41 82 41 82 38 80 C38 79 38 79 38 78 C37 78 36 78 35 78 C35 75 35 71 35 68 C36 68 37 68 38 68 C38 67 38 67 40 64 C41 64 41 63 42 63 C42 62 42 61 42 60 C43 59 43 59 43 56 C44 56 45 55 46 55 C46 51 46 51 46 47 C46 46 46 44 46 43 C46 42 46 42 46 39 C46 39 46 39 43 38 C43 37 43 37 43 33 C42 31 42 29 42 27 C41 26 39 25 38 24 C38 23 38 23 38 22 C37 21 35 21 34 20 C34 19 34 19 34 18 C33 17 31 17 30 16 C30 15 30 15 30 14 C28 14 27 14 25 14 C23 14 22 14 20 14 C20 13 20 13 18 10 C14 9 14 9 10 10 C9 9 7 9 6 9 C4 10 3 10 2 10 C1 11 1 13 0 14 C-2 14 -4 14 -6 14 C-7 15 -7 17 -8 18 C-8 18 -8 18 -10 19 C-10 22 -10 24 -11 27 C-11 28 -11 29 -11 31 C-11 32 -11 33 -11 34 C-13 34 -14 34 -16 34 C-18 34 -20 34 -22 34 C-23 34 -25 34 -26 34 C-29 34 -29 34 -34 34 C-35 35 -35 37 -36 38 C-37 38 -37 38 -38 38 C-39 39 -39 41 -40 42 C-41 42 -41 42 -42 42 C-43 43 -43 45 -44 46 C-45 46 -45 46 -46 46 C-47 47 -47 49 -48 50 C-48 50 -48 50 -50 51 C-50 54 -50 58 -50 61 C-50 63 -50 65 -50 67 C-50 67 -50 67 -50 71 C-49 71 -48 72 -47 72 C-47 73 -47 73 -47 76 C-47 77 -46 78 -46 79 C-45 79 -45 79 -42 79 C-41 79 -40 80 -39 80 C-38 84 -38 87 -38 91 C-38 95 -38 99 -38 103 C-37 104 -35 105 -34 106 C-34 107 -34 107 -34 108 C-33 109 -31 109 -30 110 C-30 111 -30 111 -30 112 C-28 112 -26 112 -24 112 C-23 113 -23 115 -22 116 C-18 117 -18 117 -14 116 C-13 117 -13 117 -10 117 C-8 116 -7 116 -6 116 C-5 115 -5 113 -4 112 C-2 112 -0 112 2 112 C2 111 2 111 4 108 C5 108 5 108 6 108 C6 107 6 107 8 104 C9 104 9 103 10 103 C11 101 11 98 12 96 C14 96 15 97 17 97 C17 98 18 99 18 100 C19 100 19 100 22 102 C22 103 22 103 22 104 C23 104 23 104 26 106 C26 107 26 107 26 108 C28 108 30 108 32 108 C33 109 33 111 34 112 C36 112 38 112 40 112 C41 113 41 115 42 116 C43 116 43 116 46 118 C46 119 46 119 46 120 C48 120 50 120 52 120 C53 121 53 123 54 124 C55 124 55 124 58 126 C58 127 58 127 58 128 C59 128 60 129 61 129 C61 131 60 132 60 134 C59 134 59 134 58 134 C58 135 57 137 57 138 C53 137 52 135 50 132 C50 131 50 131 50 130 C48 130 46 130 44 130 C43 129 43 127 42 126 C40 126 38 126 36 126 C35 125 35 123 34 122 C33 122 33 122 30 120 C30 119 30 119 30 118 C28 118 26 118 24 118 C23 117 23 115 22 114 C18 114 18 114 14 114 C14 115 14 115 12 118 C10 118 8 118 6 118 C6 119 6 119 4 122 C2 122 0 122 -2 122 C-3 123 -3 125 -4 126 C-8 126 -12 127 -16 126 C-17 127 -18 127 -19 127 C-23 127 -23 127 -28 126 C-29 125 -29 123 -30 122 C-32 122 -34 122 -36 122 C-37 121 -37 119 -38 118 C-39 117 -41 117 -42 116 C-42 115 -42 115 -42 114 C-43 114 -44 114 -45 114 C-45 113 -45 113 -45 111 C-46 109 -46 108 -46 107 C-47 107 -48 106 -49 106 C-49 101 -49 96 -49 91 C-50 90 -50 89 -50 87 C-51 86 -53 85 -54 84 C-54 83 -54 83 -54 82 C-55 81 -57 81 -58 80 C-58 79 -58 79 -58 78 C-59 78 -60 78 -61 78 C-61 73 -61 68 -61 63 C-61 62 -61 62 -61 59 C-61 57 -61 56 -61 55 C-61 53 -61 52 -61 51 C-61 50 -61 49 -61 48 C-61 48 -61 48 -58 47 C-57 43 -57 43 -57 40 C-56 40 -55 40 -54 40 C-53 39 -53 37 -52 36 C-51 36 -51 36 -50 36 C-49 35 -49 33 -48 32 C-47 32 -47 32 -46 32 C-45 31 -45 29 -44 28 C-43 28 -43 28 -42 28 C-41 27 -41 25 -40 24 C-36 24 -33 24 -29 24 C-29 24 -29 24 -26 24 C-25 23 -25 21 -24 20 C-23 20 -23 20 -22 20 C-21 19 -21 17 -20 16 C-19 16 -19 16 -18 16 C-17 15 -17 13 -16 12 C-15 12 -15 12 -14 12 C-13 11 -13 9 -12 8 C-11 8 -11 8 -10 8 C-9 7 -9 5 -8 4 C-6 4 -4 4 -2 4 C-1 3 -1 1 0 0 Z " fill="#1B1B1F" transform="translate(86,25)"/>
<path d="M0 0 C4 1 4 1 6 4 C6 8 6 11 3 14 C2 15 0 15 -1 16 C-2 16 -4 17 -5 18 C-5 24 -3 29 -1 34 C2 49 1 62 -7 75 C-11 81 -17 87 -25 89 C-36 90 -43 89 -52 82 C-60 73 -65 65 -65 53 C-65 51 -66 49 -66 47 C-70 45 -70 45 -74 43 C-78 38 -77 31 -77 25 C-76 24 -75 22 -75 21 C-73 21 -71 21 -69 21 C-67 25 -67 25 -67 31 C-66 31 -65 31 -64 31 C-64 32 -64 32 -64 33 C-61 32 -59 31 -56 29 C-54 29 -53 28 -52 27 C-47 25 -43 23 -40 21 C-33 17 -27 14 -21 10 C-16 8 -12 5 -8 2 C-5 0 -5 0 0 0 Z " fill="#0C0C0F" transform="translate(502.8125,190)"/>
<path d="M0 0 C7 3 14 7 21 12 C25 14 28 16 32 17 C35 19 37 21 39 24 C38 25 38 25 37 26 C31 32 29 35 28 43 C26 44 26 44 22 43 C19 43 19 43 16 44 C15 46 15 47 14 49 C13 50 12 50 11 51 C10 51 10 51 7 50 C6 50 5 50 4 49 C-6 47 -10 45 -17 38 C-21 37 -21 37 -24 38 C-28 40 -31 41 -35 41 C-36 41 -38 42 -39 42 C-42 43 -42 43 -44 42 C-44 41 -44 41 -44 40 C-45 39 -47 39 -48 38 C-48 38 -48 38 -49 35 C-50 34 -52 34 -53 33 C-54 32 -56 31 -57 30 C-57 29 -57 29 -57 28 C-58 28 -58 28 -59 28 C-59 26 -59 25 -59 23 C-56 21 -56 21 -52 19 C-51 18 -50 17 -49 17 C-45 13 -41 11 -36 9 C-35 9 -35 9 -33 6 C-28 3 -24 3 -18 3 C-11 3 -8 -1 0 0 Z " fill="#C1C4CF" transform="translate(404,168)"/>
<path d="M0 0 C1 0 3 1 4 1 C4 2 4 2 4 3 C6 4 7 4 9 5 C15 13 18 20 18 30 C15 33 15 33 11 35 C6 39 4 42 1 48 C1 50 1 51 0 53 C-0 54 -1 56 -1 57 C-7 58 -7 58 -12 57 C-12 56 -11 55 -11 54 C-13 54 -14 54 -16 54 C-16 55 -16 55 -16 56 C-28 53 -28 53 -32 51 C-37 51 -43 51 -48 51 C-53 50 -55 49 -59 45 C-60 43 -60 43 -60 39 C-60 37 -61 36 -61 34 C-65 32 -65 32 -69 31 C-70 29 -71 28 -72 26 C-68 22 -68 22 -64 22 C-60 22 -60 22 -57 24 C-57 25 -57 25 -57 26 C-56 26 -56 26 -55 26 C-54 27 -53 28 -52 29 C-48 29 -46 29 -42 26 C-40 23 -40 23 -37 19 C-32 13 -27 11 -19 10 C-12 8 -6 4 0 0 Z " fill="#C2C5D0" transform="translate(484,110)"/>
<path d="M0 0 C1 1 1 1 2 2 C3 2 5 3 6 3 C8 8 9 12 9 17 C10 19 10 20 10 21 C11 24 11 27 12 30 C12 31 12 32 13 34 C13 35 13 36 13 37 C14 41 14 41 15 45 C16 49 16 52 16 56 C16 57 16 59 16 60 C16 61 16 62 16 63 C17 63 17 63 18 63 C18 64 18 65 18 66 C18 66 18 66 18 69 C19 70 19 71 19 73 C19 76 19 76 20 81 C20 83 20 86 20 88 C19 89 19 90 19 91 C19 92 19 92 19 94 C18 94 18 93 17 93 C16 90 16 90 16 87 C8 88 1 90 -6 94 C-17 95 -17 95 -21 92 C-23 90 -24 87 -25 84 C-29 81 -29 81 -34 81 C-37 82 -37 82 -39 86 C-41 88 -41 88 -44 90 C-45 90 -47 89 -48 89 C-43 82 -39 76 -30 74 C-25 71 -23 69 -21 64 C-21 63 -21 61 -21 60 C-20 55 -19 53 -17 50 C-11 37 -7 23 -3 9 C-1 2 -1 2 0 0 Z " fill="#969BAB" transform="translate(209,269)"/>
<path d="M0 0 C0 0 0 0 2 2 C5 5 5 5 9 5 C10 4 12 4 13 3 C20 3 22 5 27 10 C28 12 28 12 28 18 C28 19 27 20 27 21 C25 24 25 24 24 30 C23 35 23 37 19 40 C18 41 18 41 17 42 C25 50 33 56 44 60 C44 60 44 60 43 62 C44 62 44 63 45 63 C45 64 45 64 45 65 C46 65 46 66 47 66 C40 67 40 67 38 67 C38 68 38 68 36 71 C22 74 7 63 -5 56 C-11 53 -16 49 -21 45 C-22 44 -23 44 -24 43 C-26 41 -26 41 -28 38 C-28 33 -27 32 -24 28 C-23 27 -21 26 -20 25 C-12 17 -6 9 0 0 Z " fill="#BEC1CC" transform="translate(228,507)"/>
<path d="M0 0 C1 0 1 0 5 0 C5 1 5 3 5 4 C12 4 18 3 25 1 C30 0 30 0 35 3 C37 4 38 5 40 6 C43 6 46 7 49 7 C52 9 52 9 54 12 C55 13 56 14 57 15 C58 16 60 18 61 19 C62 19 63 19 64 19 C69 20 70 22 73 25 C76 29 77 33 79 38 C79 38 79 38 78 40 C77 40 77 40 74 41 C70 42 70 42 66 46 C60 50 58 50 52 49 C50 49 49 49 48 49 C37 47 30 41 24 33 C24 32 23 31 23 30 C22 27 22 27 19 26 C14 25 9 24 4 27 C1 28 1 28 -2 27 C-3 27 -4 27 -5 26 C-6 26 -8 26 -9 26 C-10 25 -11 25 -12 24 C-13 19 -13 16 -10 12 C-9 11 -9 10 -8 9 C-8 8 -7 6 -7 5 C-6 5 -6 5 -5 5 C-5 4 -6 2 -6 1 C-5 0 -5 0 0 0 Z " fill="#C1C4CF" transform="translate(292.0625,287.9375)"/>
<path d="M0 0 C2 2 2 2 5 5 C6 6 8 7 9 8 C13 12 13 12 16 16 C20 20 25 24 30 27 C30 28 30 28 30 29 C31 30 33 30 34 31 C36 33 37 34 39 36 C40 37 41 38 42 39 C42 42 42 42 42 45 C42 46 42 48 42 49 C42 52 42 56 41 59 C40 59 39 59 38 59 C38 58 39 56 39 55 C39 51 39 47 38 43 C35 43 35 43 31 44 C30 47 30 47 29 51 C26 53 26 53 20 53 C16 51 16 51 11 49 C11 49 11 49 8 47 C1 44 -6 40 -14 36 C-18 33 -23 30 -28 28 C-29 28 -30 27 -31 27 C-34 25 -37 24 -39 23 C-41 22 -42 21 -43 20 C-43 15 -43 14 -40 10 C-37 8 -37 8 -35 8 C-35 7 -35 7 -35 6 C-34 6 -34 6 -33 6 C-32 5 -32 3 -31 2 C-22 -5 -10 -5 0 0 Z " fill="#FBFBFB" transform="translate(317,169)"/>
<path d="M0 0 C4 1 4 1 7 3 C8 4 10 4 11 5 C12 9 12 11 10 15 C10 17 9 18 8 19 C3 32 2 45 7 59 C9 64 9 64 11 67 C12 68 12 70 13 71 C14 72 16 72 17 73 C18 73 19 74 20 74 C29 79 37 79 47 77 C56 73 62 67 67 57 C68 52 69 47 69 41 C70 38 70 38 74 35 C76 35 78 35 80 35 C83 39 84 41 84 46 C80 66 80 66 74 70 C74 70 74 70 71 72 C69 73 68 75 67 76 C63 80 59 83 55 86 C54 87 53 88 52 89 C44 92 37 92 28 92 C28 91 28 89 28 88 C27 88 27 88 24 89 C22 89 21 89 19 89 C19 88 18 88 18 87 C16 86 14 85 12 84 C8 82 4 80 1 76 C-0 75 -1 74 -3 72 C-6 68 -8 64 -10 59 C-10 58 -11 57 -11 56 C-13 51 -14 48 -13 43 C-13 40 -12 36 -12 33 C-11 20 -10 9 0 0 Z " fill="#FBFBFB" transform="translate(269,200)"/>
<path d="M0 0 C4 -0 4 -0 8 0 C8 1 8 1 10 4 C13 4 13 4 17 4 C17 4 17 4 21 4 C22 4 24 4 25 4 C28 4 31 4 33 4 C35 4 36 4 37 4 C38 4 39 4 40 4 C40 5 40 5 42 8 C44 8 45 8 47 8 C49 8 50 8 52 8 C52 9 52 9 54 12 C56 12 58 12 60 12 C60 14 61 15 61 17 C60 17 59 18 58 18 C57 19 57 21 56 22 C54 22 52 22 50 22 C49 23 49 25 48 26 C43 26 39 26 34 26 C33 26 31 26 30 26 C29 27 29 29 28 30 C22 30 17 30 11 30 C8 30 5 30 2 30 C1 31 1 33 0 34 C-4 34 -4 34 -8 34 C-10 34 -12 34 -14 34 C-17 34 -21 34 -24 34 C-26 34 -28 34 -30 34 C-31 34 -33 34 -34 34 C-36 34 -37 34 -38 34 C-39 35 -39 37 -40 38 C-44 38 -44 38 -48 38 C-50 38 -51 38 -53 38 C-55 38 -56 38 -58 38 C-60 38 -62 38 -63 38 C-68 38 -72 38 -76 38 C-71 33 -65 34 -58 33 C-58 33 -58 33 -55 33 C-52 33 -50 33 -47 33 C-49 26 -52 24 -58 20 C-63 21 -63 21 -66 23 C-71 25 -74 23 -79 22 C-80 21 -81 21 -82 20 C-82 19 -82 18 -82 17 C-76 16 -71 16 -65 15 C-64 15 -63 15 -62 15 C-56 14 -54 15 -50 18 C-49 19 -47 21 -46 22 C-42 25 -39 26 -34 27 C-30 26 -30 26 -27 22 C-26 21 -26 19 -25 18 C-20 15 -15 16 -9 16 C-5 16 -5 16 -1 12 C-0 8 0 4 0 0 Z " fill="#CBCDD6" transform="translate(490,613)"/>
<path d="M0 0 C1 0 1 0 2 0 C3 3 4 7 6 10 C6 11 6 11 7 16 C12 30 12 47 6 61 C5 63 4 64 3 66 C2 66 2 66 1 66 C0 68 -0 69 -1 71 C-4 75 -7 78 -10 81 C-11 82 -12 83 -12 84 C-19 89 -30 91 -39 90 C-39 89 -40 88 -40 87 C-43 86 -46 85 -49 84 C-50 84 -50 84 -54 81 C-59 79 -59 79 -63 79 C-65 79 -66 79 -67 79 C-69 77 -69 77 -71 73 C-72 71 -73 70 -74 68 C-75 68 -75 68 -76 65 C-78 63 -79 61 -81 59 C-83 56 -83 56 -83 53 C-83 52 -82 51 -82 50 C-82 49 -81 47 -81 46 C-80 42 -79 40 -76 37 C-75 36 -75 34 -74 33 C-69 34 -69 34 -68 35 C-68 37 -67 40 -67 42 C-66 54 -62 62 -54 70 C-46 76 -38 77 -28 76 C-19 73 -13 67 -8 59 C-2 45 -2 29 -7 15 C-7 14 -7 14 -9 11 C-9 9 -9 8 -9 6 C-6 3 -4 2 0 2 C0 1 0 1 0 0 Z " fill="#FBFBFB" transform="translate(506,202)"/>
<path d="M0 0 C4 4 5 6 6 12 C7 12 8 13 9 13 C9 16 8 20 8 23 C8 23 8 23 10 25 C10 27 10 27 9 31 C9 33 8 35 8 37 C7 42 7 42 4 45 C-3 46 -3 46 -7 45 C-8 44 -9 43 -10 42 C-13 42 -13 42 -16 42 C-22 41 -25 41 -29 37 C-33 34 -33 34 -37 33 C-40 32 -40 32 -42 29 C-42 28 -42 28 -42 25 C-42 24 -42 22 -42 21 C-44 21 -45 20 -47 20 C-48 21 -49 22 -50 23 C-54 23 -54 23 -57 22 C-56 18 -56 18 -51 15 C-49 14 -48 14 -46 13 C-42 10 -38 7 -34 3 C-30 1 -29 1 -25 1 C-24 1 -24 1 -21 1 C-20 1 -18 1 -17 1 C-14 1 -12 1 -9 1 C-8 1 -7 1 -6 1 C-3 1 -3 1 0 0 Z " fill="#C1C4CF" transform="translate(514,411)"/>
<path d="M0 0 C6 3 10 6 14 12 C15 17 15 17 15 21 C11 25 7 27 2 30 C1 30 1 30 -3 32 C-4 33 -5 34 -7 35 C-8 36 -9 36 -11 37 C-18 41 -25 45 -32 48 C-34 50 -37 51 -39 52 C-42 54 -42 54 -45 54 C-45 53 -45 53 -45 52 C-46 52 -47 52 -48 52 C-49 49 -49 46 -50 43 C-51 42 -52 41 -53 40 C-52 34 -50 31 -46 27 C-45 27 -45 27 -44 27 C-43 26 -43 24 -42 23 C-40 21 -40 21 -37 19 C-32 15 -27 10 -21 6 C-19 4 -19 4 -17 4 C-17 3 -17 3 -17 2 C-11 -2 -7 -3 0 0 Z " fill="#FAFBFB" transform="translate(484,169)"/>
<path d="M0 0 C1 15 -7 30 -15 42 C-16 43 -18 45 -19 46 C-23 46 -26 45 -29 44 C-32 47 -34 51 -36 55 C-41 63 -45 67 -53 71 C-54 71 -54 71 -58 72 C-59 71 -59 70 -60 69 C-59 64 -58 61 -55 57 C-49 44 -45 31 -43 16 C-42 12 -42 12 -39 10 C-35 10 -35 10 -32 12 C-32 11 -32 11 -32 10 C-31 9 -29 9 -28 8 C-22 6 -18 3 -14 -1 C-10 -3 -4 -1 0 0 Z " fill="#646A7E" transform="translate(579,473)"/>
<path d="M0 0 C1 1 1 1 2 2 C9 7 16 10 25 11 C31 11 31 11 35 15 C36 22 36 30 33 36 C30 39 27 41 24 43 C22 48 22 48 23 52 C23 53 23 54 23 55 C19 59 19 59 15 60 C10 59 9 58 6 54 C5 52 4 51 3 49 C0 46 -3 43 -6 40 C-8 37 -8 37 -8 35 C-9 35 -9 35 -10 35 C-10 30 -10 28 -7 24 C-7 21 -6 18 -6 15 C-6 11 -5 7 -3 3 C-2 3 -2 3 -1 3 C-1 2 -0 1 0 0 Z " fill="#C2C5D0" transform="translate(257,449)"/>
<path d="M0 0 C7 6 13 13 18 21 C19 23 20 24 21 25 C21 27 21 29 21 30 C17 34 9 34 4 34 C3 34 3 34 0 35 C-13 36 -25 31 -37 26 C-38 26 -38 26 -38 25 C-38 24 -38 22 -38 20 C-36 18 -34 16 -31 14 C-29 12 -27 9 -25 6 C-18 -0 -9 -5 0 0 Z " fill="#F4AB23" transform="translate(406.1875,257.6875)"/>
<path d="M0 0 C1 1 2 1 3 2 C6 3 9 5 13 6 C16 8 16 8 19 10 C22 12 22 12 28 12 C29 11 31 11 32 11 C33 11 33 12 34 13 C31 18 31 18 28 21 C28 21 28 21 29 25 C27 29 27 29 23 30 C21 31 20 31 18 32 C15 33 13 34 10 36 C5 37 -0 38 -5 38 C-9 39 -9 39 -12 40 C-14 40 -15 40 -17 40 C-17 38 -17 37 -17 35 C-19 21 -19 21 -20 18 C-19 14 -19 14 -18 10 C-17 9 -15 9 -14 9 C-13 5 -13 2 -12 -1 C-7 -3 -4 -2 0 0 Z " fill="#898EA0" transform="translate(148.96484375,399.3046875)"/>
<path d="M0 0 C-0 2 -1 3 -1 5 C-4 6 -6 8 -9 9 C-12 12 -14 14 -15 18 C-16 18 -16 18 -17 18 C-18 17 -19 16 -20 14 C-23 11 -23 11 -27 10 C-30 11 -33 11 -36 12 C-41 13 -46 13 -51 13 C-51 13 -51 13 -52 12 C-54 12 -56 12 -58 12 C-64 11 -64 11 -65 10 C-69 10 -73 10 -77 10 C-78 10 -79 10 -80 10 C-87 10 -95 10 -102 11 C-102 12 -102 12 -101 15 C-102 15 -102 15 -103 15 C-103 16 -103 17 -103 18 C-102 18 -102 18 -98 20 C-99 21 -99 23 -100 24 C-101 24 -101 24 -102 24 C-102 28 -102 31 -102 35 C-105 35 -109 35 -112 35 C-113 36 -114 36 -115 37 C-118 37 -118 37 -121 37 C-123 37 -124 37 -125 37 C-128 37 -128 37 -132 35 C-136 35 -138 36 -141 38 C-144 40 -144 40 -149 39 C-147 37 -145 34 -143 32 C-143 32 -143 32 -141 29 C-138 27 -138 27 -135 27 C-131 27 -131 27 -127 28 C-122 29 -119 29 -114 28 C-110 24 -110 24 -110 20 C-110 16 -111 14 -114 11 C-119 8 -123 7 -129 5 C-129 4 -128 2 -128 1 C-121 0 -115 1 -108 2 C-99 4 -89 4 -80 5 C-75 5 -71 5 -66 6 C-61 6 -57 6 -52 5 C-45 4 -39 4 -32 4 C-24 3 -17 2 -9 1 C-5 0 -5 0 0 0 Z " fill="#F1F2F3" transform="translate(419,601)"/>
<path d="M0 0 C0 0 0 0 1 2 C3 3 5 3 7 4 C5 19 -6 31 -17 40 C-18 41 -20 43 -21 44 C-27 49 -33 53 -40 57 C-41 58 -42 58 -44 59 C-53 64 -53 64 -59 63 C-60 62 -62 62 -63 61 C-64 60 -66 60 -67 59 C-65 54 -64 51 -59 49 C-58 48 -57 48 -56 48 C-45 42 -35 35 -26 26 C-21 23 -21 23 -19 23 C-19 21 -18 20 -18 18 C-15 16 -13 13 -10 11 C-7 7 -3 4 0 0 Z " fill="#B0B2B9" transform="translate(508,515)"/>
<path d="M0 0 C1 0 2 0 3 0 C3 2 2 3 2 5 C-0 12 0 15 3 21 C6 26 9 29 13 33 C16 36 16 36 19 41 C19 42 19 43 19 44 C21 44 23 44 25 44 C28 45 28 45 31 45 C33 49 33 49 32 53 C29 56 29 56 27 57 C21 57 18 55 13 52 C12 52 10 51 8 50 C-1 47 -9 42 -16 35 C-17 34 -19 33 -20 32 C-21 31 -22 30 -24 29 C-24 27 -24 25 -24 23 C-21 21 -18 19 -16 16 C-14 14 -12 11 -10 8 C-4 0 -4 0 0 0 Z " fill="#979CAC" transform="translate(229.75,516.6875)"/>
<path d="M0 0 C3 3 4 4 5 8 C2 8 -2 7 -5 6 C-13 5 -20 6 -27 10 C-28 11 -29 13 -30 14 C-31 14 -31 14 -32 14 C-32 15 -32 15 -32 16 C-36 19 -36 19 -38 19 C-38 20 -38 20 -38 21 C-45 25 -45 25 -48 25 C-49 26 -49 28 -50 29 C-54 30 -54 30 -59 28 C-64 23 -64 23 -64 20 C-65 20 -65 20 -66 20 C-71 15 -72 11 -72 4 C-71 4 -71 4 -67 6 C-66 6 -64 5 -63 5 C-58 3 -55 3 -50 2 C-44 2 -39 1 -33 -1 C-31 -1 -29 -1 -27 -1 C-24 -3 -22 -4 -19 -6 C-12 -8 -6 -3 0 0 Z " fill="#BDC0CC" transform="translate(314,161)"/>
<path d="M0 0 C1 0 1 0 2 0 C3 2 4 3 5 5 C9 8 12 8 16 8 C21 8 25 9 29 11 C32 11 32 11 35 10 C35 8 35 5 35 3 C38 5 38 7 39 10 C42 17 46 23 51 28 C51 29 51 29 52 33 C51 33 50 33 49 32 C46 32 46 32 43 33 C32 37 22 32 12 27 C11 27 9 26 8 26 C4 25 1 24 -3 22 C-3 23 -4 23 -4 24 C-6 24 -7 24 -9 24 C-10 23 -10 23 -10 20 C-10 19 -10 19 -10 16 C-9 16 -7 15 -6 15 C-5 12 -4 9 -3 6 C-1 2 -1 2 0 0 Z " fill="#C0C3CE" transform="translate(220,248)"/>
<path d="M0 0 C12 12 20 27 25 43 C25 44 24 45 24 46 C22 45 22 45 21 42 C20 39 20 39 20 35 C19 35 18 36 17 36 C16 35 16 35 15 34 C14 34 13 35 11 35 C6 37 1 38 -5 39 C-8 39 -8 39 -12 40 C-17 37 -19 33 -21 28 C-21 19 -16 10 -10 3 C-6 -1 -6 -1 0 0 Z " fill="#898EA1" transform="translate(549,347)"/>
<path d="M0 0 C2 4 2 4 3 9 C4 10 5 12 6 13 C5 18 5 18 3 22 C0 20 -2 19 -5 17 C-6 18 -7 19 -8 20 C-10 22 -11 23 -12 25 C-13 26 -14 26 -14 27 C-20 33 -20 33 -23 34 C-23 36 -24 37 -24 39 C-27 41 -27 41 -31 43 C-35 41 -37 39 -40 36 C-41 32 -41 30 -39 25 C-26 5 -26 5 -18 1 C-15 1 -12 0 -9 0 C-7 0 -6 -0 -4 -0 C-3 -0 -1 -0 0 0 Z " fill="#C1C4CF" transform="translate(513,499)"/>
<path d="M0 0 C1 0 1 1 2 1 C3 7 3 12 3 18 C3 20 3 21 3 23 C2 27 2 27 -1 29 C-4 30 -4 30 -6 30 C-8 34 -8 34 -10 39 C-11 38 -12 37 -13 36 C-22 30 -31 26 -41 22 C-42 22 -42 21 -43 21 C-43 20 -43 20 -43 19 C-44 19 -45 18 -46 18 C-48 15 -47 12 -47 8 C-45 7 -44 7 -42 6 C-42 7 -42 7 -42 8 C-41 8 -41 8 -40 8 C-40 9 -39 11 -39 12 C-27 11 -27 11 -23 9 C-19 8 -17 8 -13 8 C-7 8 -7 8 -4 6 C-3 4 -1 2 0 0 Z " fill="#888DA0" transform="translate(239,416)"/>
<path d="M0 0 C4 1 4 1 6 3 C12 9 21 9 29 9 C35 10 38 11 43 15 C44 15 46 16 47 16 C55 18 60 22 66 27 C67 27 69 28 70 29 C74 28 74 28 77 25 C83 22 83 22 87 22 C87 23 87 23 87 24 C86 24 86 24 85 24 C85 25 85 26 85 28 C85 33 84 36 81 40 C80 40 80 40 79 40 C79 39 79 38 79 37 C78 34 78 34 76 31 C75 31 74 30 73 30 C70 31 67 33 64 34 C58 35 54 34 49 31 C47 28 44 25 42 22 C41 21 41 21 40 20 C36 21 36 21 33 23 C28 24 26 24 21 23 C12 18 7 11 2 2 C1 1 1 1 0 0 Z " fill="#858B9E" transform="translate(140,457)"/>
<path d="M0 0 C2 5 4 10 5 15 C5 16 6 17 6 19 C10 33 9 46 9 60 C7 58 7 58 5 53 C2 51 2 51 -1 50 C-8 47 -11 44 -14 37 C-15 32 -15 28 -12 24 C-10 21 -10 21 -6 20 C-5 19 -3 19 -2 18 C-0 12 0 6 0 0 Z " fill="#8A8FA1" transform="translate(574,393)"/>
<path d="M0 0 C5 2 6 4 8 9 C10 16 12 23 11 30 C10 31 10 31 9 32 C8 32 7 31 6 31 C1 29 -4 30 -9 30 C-14 30 -16 28 -19 25 C-20 23 -20 23 -20 17 C-17 11 -13 8 -7 6 C-4 4 -4 4 0 0 Z " fill="#BDC0CC" transform="translate(528,302)"/>
<path d="M0 0 C5 4 5 4 6 9 C5 9 4 10 3 10 C-4 12 -6 16 -10 22 C-13 25 -15 28 -18 30 C-19 31 -19 31 -21 33 C-21 35 -21 37 -21 39 C-17 42 -17 42 -13 45 C-12 46 -10 47 -9 48 C-9 49 -9 49 -9 50 C-8 50 -7 50 -7 51 C-3 52 -3 52 1 55 C6 58 10 60 16 62 C19 63 19 63 22 65 C26 66 29 66 33 65 C33 62 33 59 33 56 C42 59 42 59 44 61 C44 61 43 62 43 62 C44 62 44 63 45 63 C45 64 45 64 45 65 C46 65 46 66 47 66 C40 67 40 67 38 67 C38 68 38 68 36 71 C22 74 7 63 -5 56 C-11 53 -16 49 -21 45 C-22 44 -23 44 -24 43 C-26 41 -26 41 -28 38 C-28 33 -27 32 -24 28 C-23 27 -21 26 -20 25 C-12 17 -6 9 0 0 Z " fill="#B0B2B9" transform="translate(228,507)"/>
<path d="M0 0 C1 0 1 0 2 0 C3 2 4 3 5 5 C9 8 12 8 16 8 C21 8 25 9 29 11 C32 11 32 11 35 10 C35 8 35 5 35 3 C38 5 38 7 39 10 C41 16 44 20 48 25 C48 26 47 28 47 29 C46 28 45 27 44 27 C40 24 40 24 35 24 C29 23 25 21 19 18 C15 16 11 16 6 17 C2 17 2 17 -2 15 C-2 16 -3 17 -3 18 C-4 18 -4 18 -5 18 C-7 13 -4 7 -1 2 C-1 2 -1 2 0 0 Z " fill="#BDC0CC" transform="translate(220,248)"/>
<path d="M0 0 C2 0 3 0 5 0 C9 0 9 0 14 3 C16 6 16 6 16 9 C14 12 12 15 9 16 C5 17 0 17 -4 17 C-8 17 -8 17 -11 20 C-12 20 -12 20 -13 20 C-13 21 -14 22 -14 23 C-16 23 -17 23 -19 22 C-21 19 -20 15 -20 11 C-15 3 -10 -0 0 0 Z " fill="#C2C5D0" transform="translate(456.0625,443.5625)"/>
<path d="M0 0 C1 0 1 0 4 2 C13 7 22 7 32 9 C33 9 35 9 36 9 C37 10 39 10 40 10 C41 10 42 11 43 11 C43 13 43 14 43 16 C44 16 45 17 46 17 C34 22 21 21 9 17 C6 15 3 13 0 10 C-3 8 -6 7 -9 5 C-8 5 -8 4 -7 4 C-8 3 -8 1 -9 0 C-6 -2 -4 -1 0 0 Z " fill="#AEB0B8" transform="translate(285,572)"/>
<path d="M0 0 C1 0 2 1 3 1 C4 4 5 8 6 11 C7 13 7 14 8 16 C8 19 7 22 7 25 C7 28 8 32 8 35 C9 37 9 39 9 40 C9 42 10 43 10 45 C10 46 10 47 11 49 C11 49 11 50 11 51 C12 51 12 51 13 51 C13 52 14 53 14 54 C16 58 17 60 20 63 C24 67 24 67 25 71 C22 75 19 77 14 78 C11 77 11 77 7 75 C7 74 7 73 7 72 C6 72 6 72 5 72 C5 71 5 70 5 69 C5 25 5 25 2 13 C0 4 0 4 0 0 Z " fill="#898EA0" transform="translate(535,403)"/>
<path d="M0 0 C1 -0 1 -0 3 -0 C9 -0 13 1 18 4 C19 4 19 4 24 5 C23 6 22 7 20 8 C19 8 18 8 16 8 C15 9 14 10 12 11 C10 12 10 12 7 13 C3 14 -1 15 -4 16 C-10 17 -13 17 -18 15 C-20 12 -20 12 -22 7 C-23 7 -24 7 -26 6 C-17 -0 -10 0 0 0 Z " fill="#BDC0CC" transform="translate(382.5,54.6875)"/>
<path d="M0 0 C1 0 1 0 4 1 C8 2 10 3 13 7 C16 12 15 16 15 22 C14 22 14 22 13 22 C12 21 12 19 11 18 C10 19 10 21 9 22 C8 21 7 21 6 20 C3 20 0 19 -3 19 C-7 19 -10 19 -13 17 C-14 12 -14 9 -12 5 C-12 4 -11 3 -11 2 C-9 -1 -9 -1 -6 -2 C-3 -2 -3 -2 0 0 Z " fill="#9094A3" transform="translate(209,314)"/>
<path d="M0 0 C5 -0 8 0 12 4 C13 5 14 6 16 7 C22 12 30 13 38 13 C38 14 38 14 38 14 C36 15 34 15 33 15 C31 16 29 16 28 16 C28 17 28 17 27 19 C26 19 25 19 24 19 C23 21 22 22 22 23 C18 24 18 24 14 24 C12 24 10 24 9 24 C7 24 5 24 4 24 C2 24 0 24 -2 24 C-6 24 -10 23 -14 23 C-9 18 -4 19 3 19 C4 19 4 19 7 19 C9 19 12 18 15 18 C13 12 9 9 4 5 C-1 6 -1 6 -4 8 C-9 10 -12 9 -17 7 C-18 7 -19 6 -20 5 C-20 4 -20 3 -20 2 C-14 1 -7 1 0 0 Z " fill="#EEEFF1" transform="translate(428.296875,627.62109375)"/>
<path d="M0 0 C2 0 3 0 5 0 C5 0 5 0 6 1 C6 4 6 7 6 10 C6 13 6 13 9 18 C10 21 10 21 10 24 C7 25 4 27 1 28 C0 30 -1 31 -2 33 C-3 33 -3 33 -7 34 C-7 32 -7 30 -7 28 C-10 25 -11 25 -15 25 C-18 26 -21 26 -24 27 C-26 27 -29 28 -31 28 C-31 27 -32 25 -32 24 C-25 20 -18 19 -9 17 C-6 17 -6 17 -3 16 C-3 13 -2 10 -2 7 C-2 4 -2 4 0 0 Z " fill="#E1850D" transform="translate(271,592)"/>
<path d="M0 0 C1 0 3 0 4 0 C4 1 4 1 5 3 C4 3 4 3 3 3 C3 4 3 5 3 6 C4 7 4 7 8 8 C7 10 7 11 6 12 C5 12 5 12 4 12 C4 16 4 20 4 23 C1 23 -3 23 -6 23 C-7 24 -8 25 -9 25 C-12 26 -12 26 -15 26 C-17 26 -18 26 -19 26 C-22 25 -22 25 -26 23 C-30 23 -32 24 -35 26 C-38 28 -38 28 -43 27 C-41 25 -39 23 -37 20 C-37 20 -37 20 -35 17 C-32 15 -32 15 -29 15 C-25 15 -25 15 -21 16 C-16 17 -13 17 -8 16 C-4 12 -4 12 -4 8 C-4 4 -4 4 -5 1 C-4 0 -4 0 0 0 Z " fill="#EEEFF1" transform="translate(313,612.75)"/>
<path d="M0 0 C1 0 3 1 4 1 C6 5 5 9 5 13 C5 15 5 16 5 18 C5 23 5 23 1 27 C-4 28 -9 28 -14 25 C-14 24 -14 24 -14 23 C-15 22 -17 22 -18 21 C-21 17 -21 17 -21 14 C-21 13 -21 13 -19 11 C-13 10 -13 10 -10 10 C-7 10 -7 10 -3 6 C-3 5 -2 4 -2 3 C-1 2 -1 1 0 0 Z " fill="#C2C5D0" transform="translate(479,457)"/>
<path d="M0 0 C0 1 0 1 0 2 C1 2 1 2 2 2 C2 3 2 4 2 6 C3 11 4 12 8 15 C13 16 13 16 18 17 C25 18 31 19 38 22 C38 22 38 22 37 25 C26 23 26 23 22 22 C16 22 16 22 11 22 C8 27 8 27 7 30 C7 30 7 30 5 28 C0 23 -4 23 -10 22 C-10 20 -9 18 -9 16 C-8 16 -8 16 -7 16 C-7 14 -7 12 -7 10 C-6 7 -6 4 -5 1 C-3 0 -3 0 0 0 Z " fill="#BD6A0A" transform="translate(441,594)"/>
<path d="M0 0 C2 0 3 0 5 0 C7 4 7 4 8 9 C9 10 9 10 10 11 C13 17 14 20 14 26 C7 26 7 26 3 23 C-0 21 -3 20 -6 19 C-9 17 -9 17 -13 13 C-13 10 -13 10 -12 6 C-7 4 -7 4 -2 2 C-1 1 -1 1 0 0 Z " fill="#BFC2CE" transform="translate(506,162)"/>
<path d="M0 0 C6 0 6 0 11 2 C15 2 18 3 22 3 C22 4 22 4 22 5 C23 5 23 5 24 5 C23 12 21 17 16 22 C10 22 10 22 7 20 C4 15 1 11 -1 6 C-1 3 -1 3 0 0 Z " fill="#EFA221" transform="translate(382,302)"/>
<path d="M0 0 C7 -1 13 0 20 1 C29 3 39 3 49 4 C54 4 57 4 61 6 C60 6 58 6 57 6 C57 7 57 7 57 8 C53 9 51 9 47 9 C38 9 30 10 21 12 C15 12 13 11 9 7 C6 6 2 5 -1 4 C-1 3 -0 1 0 0 Z " fill="#F9F9F9" transform="translate(291,602)"/>
<path d="M0 0 C5 1 5 1 10 4 C15 6 18 7 24 7 C25 7 27 7 28 8 C29 8 30 8 31 8 C31 7 32 6 32 5 C33 9 33 12 32 16 C29 18 29 18 24 17 C23 17 23 16 22 16 C18 16 13 15 9 15 C4 14 2 13 -1 9 C-2 4 -2 4 0 0 Z " fill="#C2C5D0" transform="translate(223,242)"/>
<path d="M0 0 C4 -0 4 -0 8 0 C9 2 10 3 11 5 C9 10 6 14 2 18 C1 19 -0 20 -1 21 C-6 24 -10 24 -16 24 C-17 24 -19 25 -20 25 C-22 24 -25 24 -27 23 C-25 18 -25 18 -22 16 C-18 16 -13 16 -9 16 C-5 16 -5 16 -1 12 C-0 8 0 4 0 0 Z " fill="#EEEFF1" transform="translate(490,613)"/>
<path d="M0 0 C0 1 1 3 1 4 C2 4 3 5 4 5 C3 9 1 9 -2 12 C-3 12 -4 13 -5 13 C-11 17 -14 17 -20 17 C-21 17 -22 17 -24 16 C-25 16 -26 16 -27 16 C-27 15 -28 15 -28 14 C-27 13 -26 13 -25 12 C-26 11 -26 10 -27 9 C-24 8 -21 7 -18 6 C-17 5 -15 4 -14 4 C-4 0 -4 0 0 0 Z " fill="#B0B2B9" transform="translate(433,570)"/>
<path d="M0 0 C6 3 8 7 11 13 C12 17 12 17 12 23 C11 23 9 23 8 22 C3 22 3 22 -3 23 C-4 23 -4 23 -8 23 C-10 21 -10 21 -10 18 C-9 15 -9 15 -6 12 C-1 8 -1 6 0 0 Z " fill="#BDC0CC" transform="translate(489,113)"/>
<path d="M0 0 C4 2 4 2 8 6 C12 6 12 6 16 5 C13 11 10 16 6 21 C5 22 4 23 3 23 C1 25 1 25 -2 25 C-3 25 -4 24 -5 24 C-6 19 -5 17 -3 12 C-3 10 -2 8 -2 6 C-1 1 -1 1 0 0 Z " fill="#BDC0CC" transform="translate(353,245)"/>
<path d="M0 0 C1 0 3 0 4 0 C5 0 6 0 7 0 C6 2 6 3 5 4 C0 4 -4 4 -9 4 C-10 4 -11 4 -13 4 C-14 6 -14 7 -15 8 C-20 8 -26 8 -32 8 C-35 8 -38 8 -41 8 C-42 10 -42 11 -43 12 C-46 13 -46 13 -49 13 C-50 13 -50 13 -53 13 C-54 13 -56 12 -57 12 C-58 12 -58 12 -61 12 C-64 12 -68 12 -71 12 C-64 6 -57 7 -49 7 C-44 7 -44 7 -39 6 C-33 3 -26 4 -19 4 C-12 3 -7 -0 0 0 Z " fill="#EEEFF1" transform="translate(532.875,634.8125)"/>
<path d="M0 0 C1 4 0 6 -1 10 C-3 14 -3 14 -5 17 C-6 17 -6 17 -7 17 C-7 18 -7 18 -9 22 C-12 26 -13 27 -18 28 C-18 28 -18 28 -21 28 C-22 25 -22 25 -22 21 C-19 16 -15 12 -10 8 C-9 7 -9 6 -8 5 C-7 5 -7 5 -6 5 C-5 4 -5 2 -4 1 C-2 0 -2 0 0 0 Z " fill="#979CAC" transform="translate(506,523)"/>
<path d="M0 0 C4 1 4 1 6 3 C6 4 7 5 8 6 C8 4 8 2 8 1 C11 4 11 6 12 10 C9 18 9 18 6 21 C0 21 0 21 -2 19 C-2 18 -2 18 -4 16 C-5 15 -5 14 -6 13 C-8 11 -8 11 -8 6 C-5 2 -4 1 0 0 Z " fill="#979CAC" transform="translate(228.5,386.375)"/>
<path d="M0 0 C2 0 3 1 5 1 C7 6 7 6 8 12 C8 13 8 13 9 16 C10 16 10 17 10 18 C5 21 0 21 -5 20 C-6 19 -8 17 -9 16 C-8 11 -7 9 -4 5 C-4 4 -3 3 -2 2 C-1 1 -1 1 0 0 Z " fill="#F49C12" transform="translate(386,264)"/>
<path d="M0 0 C2 0 4 0 6 0 C8 3 8 3 9 8 C10 8 10 8 11 8 C11 14 10 16 6 20 C1 20 1 20 -3 19 C-6 13 -4 10 -3 4 C-3 3 -2 3 -2 2 C-1 2 -1 2 0 2 C0 1 0 1 0 0 Z " fill="#C1C4CF" transform="translate(517,249)"/>
<path d="M0 0 C1 0 1 1 2 1 C4 10 3 19 3 28 C2 28 2 27 1 27 C1 28 2 29 2 30 C2 30 3 30 3 30 C3 33 4 35 4 38 C3 39 3 39 -1 39 C-2 39 -3 39 -4 39 C-4 9 -4 9 0 0 Z " fill="#979CAC" transform="translate(129,419)"/>
<path d="M0 0 C0 0 1 0 1 0 C1 1 2 2 2 3 C3 7 4 10 7 13 C8 14 10 14 11 15 C13 18 13 18 15 21 C15 22 14 23 14 24 C10 25 7 25 3 25 C-4 16 -4 16 -4 12 C-4 11 -3 10 -3 9 C-3 8 -2 6 -2 5 C-1 1 -1 1 0 0 Z " fill="#EEEFF1" transform="translate(427,243)"/>
<path d="M0 0 C1 1 1 1 2 2 C-0 8 -4 12 -8 17 C-9 17 -9 17 -10 17 C-11 20 -11 22 -12 25 C-13 27 -14 29 -15 31 C-15 32 -15 32 -17 36 C-18 37 -19 38 -20 39 C-21 39 -22 39 -23 39 C-23 41 -23 42 -23 44 C-23 46 -24 47 -24 49 C-25 50 -27 50 -28 51 C-28 33 -12 13 0 0 Z " fill="#969BAB" transform="translate(160,359)"/>
<path d="M0 0 C0 0 0 0 3 2 C3 2 3 2 3 2 C-5 3 -13 3 -21 3 C-23 3 -26 3 -28 3 C-32 3 -36 3 -40 3 C-41 3 -42 3 -44 3 C-46 3 -49 3 -52 2 C-52 2 -53 1 -53 -0 C-50 -1 -47 -1 -44 -1 C-30 -3 -14 -4 0 0 Z " fill="#EFF0F1" transform="translate(298.0625,648.5)"/>
<path d="M0 0 C6 2 12 4 17 7 C18 11 18 11 17 13 C14 14 12 14 9 15 C7 15 6 16 4 16 C3 16 2 17 1 17 C1 16 0 14 0 13 C-1 12 -3 11 -4 10 C-2 6 -2 6 0 5 C0 3 0 2 0 0 Z " fill="#F9F9F9" transform="translate(240,587)"/>
<path d="M0 0 C2 0 4 0 6 0 C6 1 6 1 6 2 C4 2 2 2 0 2 C0 1 0 1 0 0 Z " fill="#FDFDFD" transform="translate(69,133)"/>
<path d="M0 0 C1 0 1 0 2 0 C2 1 2 1 2 2 C1 2 1 2 0 2 C0 1 0 1 0 0 Z " fill="#EEEFF1" transform="translate(657,133)"/>
</svg>
