<?xml version="1.0" encoding="UTF-8"?>
<!-- Generator: visioncortex VTracer 0.6.12 -->
<svg version="1.1" xmlns="http://www.w3.org/2000/svg" width="476" height="588">
<path d="M0 0 C4 -0 8 -1 12 -1 C14 -1 15 -1 16 -1 C19 -1 21 -1 24 -1 C28 -1 32 -1 36 -1 C39 -1 41 -1 44 -1 C45 -1 46 -1 47 -1 C51 -1 51 -1 56 0 C56 1 56 1 58 4 C60 4 61 4 63 4 C65 4 66 4 68 4 C68 5 68 5 70 8 C72 8 74 8 76 8 C77 9 77 11 78 12 C80 12 82 12 84 12 C85 13 85 15 86 16 C88 16 90 16 92 16 C93 17 93 19 94 20 C95 20 95 20 98 22 C98 23 98 23 98 24 C99 24 99 24 102 26 C102 27 102 27 102 28 C103 28 103 28 106 30 C106 31 106 31 106 32 C107 33 109 33 110 34 C110 35 110 35 110 36 C111 37 113 37 114 38 C114 39 114 39 114 40 C115 40 116 40 117 40 C117 41 117 42 117 43 C118 47 118 47 122 50 C122 51 122 51 122 52 C123 52 124 52 125 52 C125 53 125 54 125 55 C126 57 126 58 126 59 C127 59 128 60 129 60 C129 64 130 67 130 71 C131 71 132 72 133 72 C133 74 134 77 134 79 C135 79 136 80 137 80 C137 84 138 88 138 92 C138 93 138 94 138 95 C139 95 140 96 141 96 C141 102 141 108 142 113 C142 117 142 120 142 123 C143 123 144 124 145 124 C145 127 145 127 145 131 C145 132 145 134 145 135 C145 138 146 141 146 144 C146 145 146 147 146 148 C146 149 146 151 146 152 C146 153 146 154 146 155 C147 155 148 156 149 156 C149 160 150 164 150 168 C150 169 150 170 150 171 C151 171 152 172 153 172 C153 176 154 179 154 183 C155 183 156 184 157 184 C157 186 158 189 158 191 C159 191 160 192 161 192 C161 194 162 197 162 199 C163 199 164 200 165 200 C165 202 166 205 166 207 C167 207 168 208 169 208 C169 212 170 215 170 219 C171 219 172 220 173 220 C173 224 174 228 174 232 C174 233 174 234 174 235 C175 235 176 236 177 236 C177 240 177 244 177 249 C177 250 177 251 177 253 C177 255 177 258 177 261 C177 265 177 269 177 273 C177 276 177 279 177 281 C177 283 177 284 177 285 C177 288 177 291 177 294 C176 294 175 295 174 295 C174 296 174 297 174 298 C173 300 173 301 173 302 C172 302 171 303 170 303 C169 311 169 311 170 315 C173 317 173 317 177 317 C177 318 178 319 178 320 C179 320 180 321 181 321 C181 322 182 322 182 323 C183 323 185 323 186 323 C186 321 187 318 187 316 C190 316 193 316 195 316 C197 316 198 316 200 316 C201 316 203 316 204 316 C205 317 205 319 206 320 C207 321 209 321 210 322 C210 323 210 323 210 324 C211 324 212 324 213 324 C213 329 213 329 213 334 C212 335 210 337 209 338 C205 337 204 335 202 332 C202 331 202 331 202 330 C199 330 197 331 194 331 C194 335 194 335 194 339 C195 339 196 340 197 340 C197 343 197 343 198 348 C198 349 198 349 198 353 C198 354 198 356 198 358 C198 359 198 361 198 363 C198 367 198 371 198 375 C203 375 207 375 212 375 C213 375 215 376 216 376 C219 376 223 376 226 375 C228 372 228 372 228 368 C232 368 232 368 236 368 C237 369 237 369 237 372 C237 373 237 373 237 376 C237 377 237 378 237 379 C237 380 237 380 237 382 C236 382 235 382 234 382 C233 383 233 385 232 386 C227 386 223 386 218 386 C217 386 215 387 214 387 C213 390 213 390 213 394 C212 394 211 395 210 395 C209 396 209 397 208 398 C206 398 205 397 203 397 C203 396 202 396 202 395 C201 395 200 394 199 394 C199 390 199 386 199 382 C197 382 196 383 194 383 C193 384 193 385 192 386 C186 387 180 386 174 386 C172 386 171 386 169 386 C167 386 166 386 164 386 C163 386 161 386 160 387 C158 386 157 386 156 386 C155 385 155 383 154 382 C153 382 152 381 151 381 C151 380 150 380 150 379 C149 379 147 379 146 379 C146 381 145 384 145 386 C144 386 143 386 142 386 C119 386 96 386 74 386 C62 386 51 386 40 386 C31 386 21 386 11 386 C6 386 1 386 -4 386 C-10 387 -15 387 -21 387 C-23 387 -24 387 -26 387 C-28 387 -29 387 -31 387 C-32 387 -34 387 -35 387 C-36 387 -37 387 -38 387 C-39 388 -39 389 -40 390 C-42 390 -43 389 -45 389 C-45 388 -46 388 -46 387 C-49 387 -52 387 -54 387 C-56 387 -58 387 -59 387 C-63 387 -67 387 -70 387 C-72 387 -74 387 -76 387 C-77 387 -79 387 -80 387 C-82 386 -83 386 -84 386 C-85 385 -85 383 -86 382 C-90 382 -90 382 -94 382 C-95 383 -95 385 -96 386 C-100 386 -104 387 -108 386 C-109 386 -110 386 -111 386 C-114 386 -117 386 -120 386 C-121 385 -121 384 -122 383 C-123 383 -125 383 -126 383 C-127 384 -127 385 -128 386 C-133 386 -137 386 -142 386 C-143 386 -145 387 -146 387 C-147 391 -147 391 -147 394 C-148 394 -149 394 -150 394 C-151 395 -151 397 -152 398 C-157 398 -157 398 -161 398 C-161 394 -162 391 -162 387 C-163 387 -165 387 -166 387 C-168 387 -169 387 -171 387 C-173 387 -174 387 -176 387 C-177 386 -179 386 -180 386 C-181 385 -181 383 -182 382 C-183 382 -184 382 -185 382 C-185 380 -185 378 -185 376 C-185 374 -185 373 -185 372 C-185 371 -185 370 -185 369 C-184 368 -183 368 -182 367 C-182 366 -182 364 -182 363 C-183 362 -184 362 -185 361 C-185 358 -185 358 -185 354 C-185 353 -185 352 -185 351 C-185 350 -185 349 -185 348 C-184 348 -183 348 -182 348 C-182 347 -182 347 -180 344 C-177 344 -177 344 -173 344 C-172 344 -171 344 -170 344 C-169 344 -168 344 -167 344 C-167 347 -167 351 -167 354 C-168 354 -169 354 -170 354 C-170 355 -170 355 -172 358 C-173 358 -173 358 -174 358 C-174 359 -174 359 -176 362 C-177 362 -177 362 -178 362 C-178 364 -178 365 -178 367 C-177 368 -176 368 -175 369 C-175 371 -174 373 -174 375 C-163 375 -153 375 -142 375 C-142 374 -142 372 -142 371 C-143 370 -144 370 -145 369 C-145 364 -146 360 -146 355 C-146 354 -146 352 -146 351 C-147 350 -148 350 -149 349 C-149 347 -148 346 -148 344 C-147 344 -147 343 -146 343 C-146 342 -145 341 -145 340 C-145 338 -144 337 -144 336 C-143 336 -143 335 -142 335 C-142 334 -142 332 -142 331 C-146 330 -146 330 -150 330 C-151 331 -151 333 -152 334 C-153 334 -153 334 -154 334 C-154 335 -154 335 -156 338 C-161 337 -161 337 -165 333 C-165 331 -164 330 -164 328 C-163 328 -163 327 -162 327 C-162 325 -161 322 -161 320 C-160 320 -159 320 -158 320 C-156 320 -155 320 -154 320 C-154 319 -154 319 -152 316 C-149 316 -149 316 -145 316 C-144 316 -143 316 -142 316 C-141 316 -140 316 -139 316 C-139 317 -139 317 -138 323 C-137 323 -135 323 -134 323 C-133 322 -133 321 -132 320 C-131 320 -131 320 -130 320 C-129 319 -129 317 -128 316 C-125 315 -125 315 -121 315 C-120 315 -118 315 -117 315 C-116 315 -115 315 -114 315 C-114 314 -114 312 -114 311 C-115 310 -116 310 -117 309 C-117 307 -117 306 -118 304 C-118 302 -118 301 -118 299 C-119 299 -120 298 -121 298 C-121 294 -122 290 -122 286 C-122 285 -122 284 -122 283 C-123 283 -124 282 -125 282 C-125 279 -125 279 -125 274 C-125 274 -125 274 -125 270 C-125 268 -125 267 -125 265 C-125 263 -125 262 -125 260 C-125 259 -125 257 -125 256 C-125 254 -125 253 -125 251 C-125 250 -125 249 -125 248 C-124 248 -123 247 -122 247 C-122 243 -122 243 -122 238 C-121 232 -121 232 -121 228 C-120 228 -119 227 -118 227 C-118 225 -118 223 -118 222 C-117 220 -117 218 -117 216 C-116 216 -115 215 -114 215 C-114 214 -114 213 -114 212 C-113 210 -113 209 -113 208 C-112 208 -111 207 -110 207 C-110 206 -110 205 -110 204 C-109 202 -109 201 -109 200 C-108 200 -107 199 -106 199 C-106 198 -106 197 -106 196 C-105 194 -105 193 -105 192 C-104 192 -103 191 -102 191 C-102 189 -102 187 -102 186 C-101 184 -101 182 -101 180 C-100 180 -99 179 -98 179 C-98 177 -98 175 -98 174 C-97 172 -97 170 -97 168 C-96 168 -95 167 -94 167 C-94 163 -94 163 -94 158 C-93 152 -93 152 -93 148 C-92 148 -91 147 -90 147 C-90 142 -90 138 -90 134 C-89 129 -89 125 -89 120 C-88 120 -87 119 -86 119 C-86 115 -86 111 -86 108 C-85 104 -85 100 -85 96 C-84 96 -83 95 -82 95 C-82 92 -82 92 -82 88 C-81 83 -81 83 -81 80 C-80 80 -79 79 -78 79 C-78 78 -78 77 -78 76 C-77 74 -77 73 -77 72 C-76 72 -75 71 -74 71 C-74 69 -74 67 -74 66 C-73 64 -73 62 -73 60 C-72 60 -71 59 -70 59 C-69 55 -69 55 -69 52 C-68 52 -67 52 -66 52 C-65 51 -65 49 -64 48 C-63 48 -63 47 -62 47 C-62 45 -61 42 -61 40 C-60 40 -59 40 -58 40 C-57 39 -57 37 -56 36 C-55 36 -55 36 -54 36 C-53 35 -53 33 -52 32 C-51 32 -51 32 -50 32 C-49 31 -49 29 -48 28 C-47 28 -47 28 -46 28 C-45 27 -45 25 -44 24 C-43 24 -43 24 -42 24 C-41 23 -41 21 -40 20 C-38 20 -36 20 -34 20 C-33 19 -33 17 -32 16 C-31 16 -31 16 -30 16 C-29 15 -29 13 -28 12 C-26 12 -24 12 -22 12 C-21 11 -21 9 -20 8 C-18 8 -16 8 -14 8 C-13 7 -13 5 -12 4 C-9 4 -5 4 -2 4 C-1 3 -1 1 0 0 Z " fill="#C7CAD4" transform="translate(210,25)"/>
<path d="M0 0 C4 -0 8 -1 12 -1 C14 -1 15 -1 16 -1 C19 -1 21 -1 24 -1 C28 -1 32 -1 36 -1 C39 -1 41 -1 44 -1 C45 -1 46 -1 47 -1 C51 -1 51 -1 56 0 C56 1 56 1 58 4 C60 4 61 4 63 4 C65 4 66 4 68 4 C68 5 68 5 70 8 C72 8 74 8 76 8 C77 9 77 11 78 12 C80 12 82 12 84 12 C85 13 85 15 86 16 C88 16 90 16 92 16 C93 17 93 19 94 20 C95 20 95 20 98 22 C98 23 98 23 98 24 C99 24 99 24 102 26 C102 27 102 27 102 28 C103 28 103 28 106 30 C106 31 106 31 106 32 C107 33 109 33 110 34 C110 35 110 35 110 36 C111 37 113 37 114 38 C114 39 114 39 114 40 C115 40 116 40 117 40 C117 41 117 42 117 43 C118 47 118 47 122 50 C122 51 122 51 122 52 C123 52 124 52 125 52 C125 53 125 54 125 55 C126 57 126 58 126 59 C127 59 128 60 129 60 C129 64 130 67 130 71 C131 71 132 72 133 72 C133 74 134 77 134 79 C135 79 136 80 137 80 C137 84 138 88 138 92 C138 93 138 94 138 95 C139 95 140 96 141 96 C141 102 141 108 142 113 C142 117 142 120 142 123 C143 123 144 124 145 124 C145 127 145 127 145 131 C145 132 145 134 145 135 C145 138 146 141 146 144 C146 145 146 147 146 148 C146 149 146 151 146 152 C146 153 146 154 146 155 C147 155 148 156 149 156 C149 160 150 164 150 168 C150 169 150 170 150 171 C151 171 152 172 153 172 C153 176 154 179 154 183 C155 183 156 184 157 184 C157 186 158 189 158 191 C159 191 160 192 161 192 C161 194 162 197 162 199 C163 199 164 200 165 200 C165 202 166 205 166 207 C167 207 168 208 169 208 C169 212 170 215 170 219 C171 219 172 220 173 220 C173 224 174 228 174 232 C174 233 174 234 174 235 C175 235 176 236 177 236 C177 240 177 244 177 249 C177 250 177 251 177 253 C177 255 177 258 177 261 C177 265 177 269 177 273 C177 276 177 279 177 281 C177 283 177 284 177 285 C177 288 177 291 177 294 C176 294 175 295 174 295 C174 296 174 297 174 298 C173 300 173 301 173 302 C172 302 171 303 170 303 C169 311 169 311 170 315 C173 317 173 317 177 317 C177 318 178 319 178 320 C179 320 180 321 181 321 C181 322 182 322 182 323 C183 323 185 323 186 323 C186 321 187 318 187 316 C190 316 193 316 195 316 C197 316 198 316 200 316 C201 316 203 316 204 316 C205 317 205 319 206 320 C207 321 209 321 210 322 C210 323 210 323 210 324 C211 324 212 324 213 324 C213 329 213 329 213 334 C212 335 210 337 209 338 C205 337 204 335 202 332 C202 331 202 331 202 330 C199 330 197 331 194 331 C194 335 194 335 194 339 C195 339 196 340 197 340 C197 343 197 343 198 348 C198 349 198 349 198 353 C198 354 198 356 198 358 C198 359 198 361 198 363 C198 367 198 371 198 375 C203 375 207 375 212 375 C213 375 215 376 216 376 C219 376 223 376 226 375 C228 372 228 372 228 368 C232 368 232 368 236 368 C237 369 237 369 237 372 C237 373 237 373 237 376 C237 377 237 378 237 379 C237 380 237 380 237 382 C236 382 235 382 234 382 C233 383 233 385 232 386 C227 386 223 386 218 386 C217 386 215 387 214 387 C213 390 213 390 213 394 C212 394 211 395 210 395 C209 396 209 397 208 398 C206 398 205 397 203 397 C203 396 202 396 202 395 C201 395 200 394 199 394 C199 390 199 386 199 382 C197 382 196 383 194 383 C193 384 193 385 192 386 C186 387 180 386 174 386 C172 386 171 386 169 386 C167 386 166 386 164 386 C163 386 161 386 160 387 C158 386 157 386 156 386 C155 385 155 383 154 382 C153 382 152 381 151 381 C151 380 150 380 150 379 C149 379 147 379 146 379 C146 381 145 384 145 386 C144 386 143 386 142 386 C119 386 96 386 74 386 C62 386 51 386 40 386 C31 386 21 386 11 386 C6 386 1 386 -4 386 C-10 387 -15 387 -21 387 C-23 387 -24 387 -26 387 C-28 387 -29 387 -31 387 C-32 387 -34 387 -35 387 C-36 387 -37 387 -38 387 C-39 388 -39 389 -40 390 C-42 390 -43 389 -45 389 C-45 388 -46 388 -46 387 C-49 387 -52 387 -54 387 C-56 387 -58 387 -59 387 C-63 387 -67 387 -70 387 C-72 387 -74 387 -76 387 C-77 387 -79 387 -80 387 C-82 386 -83 386 -84 386 C-85 385 -85 383 -86 382 C-90 382 -90 382 -94 382 C-95 383 -95 385 -96 386 C-100 386 -104 387 -108 386 C-109 386 -110 386 -111 386 C-114 386 -117 386 -120 386 C-121 385 -121 384 -122 383 C-123 383 -125 383 -126 383 C-127 384 -127 385 -128 386 C-133 386 -137 386 -142 386 C-143 386 -145 387 -146 387 C-147 391 -147 391 -147 394 C-148 394 -149 394 -150 394 C-151 395 -151 397 -152 398 C-157 398 -157 398 -161 398 C-161 394 -162 391 -162 387 C-163 387 -165 387 -166 387 C-168 387 -169 387 -171 387 C-173 387 -174 387 -176 387 C-177 386 -179 386 -180 386 C-181 385 -181 383 -182 382 C-183 382 -184 382 -185 382 C-185 380 -185 378 -185 376 C-185 374 -185 373 -185 372 C-185 371 -185 370 -185 369 C-184 368 -183 368 -182 367 C-182 366 -182 364 -182 363 C-183 362 -184 362 -185 361 C-185 358 -185 358 -185 354 C-185 353 -185 352 -185 351 C-185 350 -185 349 -185 348 C-184 348 -183 348 -182 348 C-182 347 -182 347 -180 344 C-177 344 -177 344 -173 344 C-172 344 -171 344 -170 344 C-169 344 -168 344 -167 344 C-167 347 -167 351 -167 354 C-168 354 -169 354 -170 354 C-170 355 -170 355 -172 358 C-173 358 -173 358 -174 358 C-174 359 -174 359 -176 362 C-177 362 -177 362 -178 362 C-178 364 -178 365 -178 367 C-177 368 -176 368 -175 369 C-175 371 -174 373 -174 375 C-163 375 -153 375 -142 375 C-142 374 -142 372 -142 371 C-143 370 -144 370 -145 369 C-145 364 -146 360 -146 355 C-146 354 -146 352 -146 351 C-147 350 -148 350 -149 349 C-149 347 -148 346 -148 344 C-147 344 -147 343 -146 343 C-146 342 -145 341 -145 340 C-145 338 -144 337 -144 336 C-143 336 -143 335 -142 335 C-142 334 -142 332 -142 331 C-146 330 -146 330 -150 330 C-151 331 -151 333 -152 334 C-153 334 -153 334 -154 334 C-154 335 -154 335 -156 338 C-161 337 -161 337 -165 333 C-165 331 -164 330 -164 328 C-163 328 -163 327 -162 327 C-162 325 -161 322 -161 320 C-160 320 -159 320 -158 320 C-156 320 -155 320 -154 320 C-154 319 -154 319 -152 316 C-149 316 -149 316 -145 316 C-144 316 -143 316 -142 316 C-141 316 -140 316 -139 316 C-139 317 -139 317 -138 323 C-137 323 -135 323 -134 323 C-133 322 -133 321 -132 320 C-131 320 -131 320 -130 320 C-129 319 -129 317 -128 316 C-125 315 -125 315 -121 315 C-120 315 -118 315 -117 315 C-116 315 -115 315 -114 315 C-114 314 -114 312 -114 311 C-115 310 -116 310 -117 309 C-117 307 -117 306 -118 304 C-118 302 -118 301 -118 299 C-119 299 -120 298 -121 298 C-121 294 -122 290 -122 286 C-122 285 -122 284 -122 283 C-123 283 -124 282 -125 282 C-125 279 -125 279 -125 274 C-125 274 -125 274 -125 270 C-125 268 -125 267 -125 265 C-125 263 -125 262 -125 260 C-125 259 -125 257 -125 256 C-125 254 -125 253 -125 251 C-125 250 -125 249 -125 248 C-124 248 -123 247 -122 247 C-122 243 -122 243 -122 238 C-121 232 -121 232 -121 228 C-120 228 -119 227 -118 227 C-118 225 -118 223 -118 222 C-117 220 -117 218 -117 216 C-116 216 -115 215 -114 215 C-114 214 -114 213 -114 212 C-113 210 -113 209 -113 208 C-112 208 -111 207 -110 207 C-110 206 -110 205 -110 204 C-109 202 -109 201 -109 200 C-108 200 -107 199 -106 199 C-106 198 -106 197 -106 196 C-105 194 -105 193 -105 192 C-104 192 -103 191 -102 191 C-102 189 -102 187 -102 186 C-101 184 -101 182 -101 180 C-100 180 -99 179 -98 179 C-98 177 -98 175 -98 174 C-97 172 -97 170 -97 168 C-96 168 -95 167 -94 167 C-94 163 -94 163 -94 158 C-93 152 -93 152 -93 148 C-92 148 -91 147 -90 147 C-90 142 -90 138 -90 134 C-89 129 -89 125 -89 120 C-88 120 -87 119 -86 119 C-86 115 -86 111 -86 108 C-85 104 -85 100 -85 96 C-84 96 -83 95 -82 95 C-82 92 -82 92 -82 88 C-81 83 -81 83 -81 80 C-80 80 -79 79 -78 79 C-78 78 -78 77 -78 76 C-77 74 -77 73 -77 72 C-76 72 -75 71 -74 71 C-74 69 -74 67 -74 66 C-73 64 -73 62 -73 60 C-72 60 -71 59 -70 59 C-69 55 -69 55 -69 52 C-68 52 -67 52 -66 52 C-65 51 -65 49 -64 48 C-63 48 -63 47 -62 47 C-62 45 -61 42 -61 40 C-60 40 -59 40 -58 40 C-57 39 -57 37 -56 36 C-55 36 -55 36 -54 36 C-53 35 -53 33 -52 32 C-51 32 -51 32 -50 32 C-49 31 -49 29 -48 28 C-47 28 -47 28 -46 28 C-45 27 -45 25 -44 24 C-43 24 -43 24 -42 24 C-41 23 -41 21 -40 20 C-38 20 -36 20 -34 20 C-33 19 -33 17 -32 16 C-31 16 -31 16 -30 16 C-29 15 -29 13 -28 12 C-26 12 -24 12 -22 12 C-21 11 -21 9 -20 8 C-18 8 -16 8 -14 8 C-13 7 -13 5 -12 4 C-9 4 -5 4 -2 4 C-1 3 -1 1 0 0 Z M-44 40 C-48 45 -51 50 -54 55 C-55 56 -55 57 -56 58 C-63 71 -68 82 -70 96 C-71 101 -73 105 -74 109 C-75 118 -77 126 -78 135 C-82 167 -82 167 -87 182 C-89 186 -89 189 -89 194 C-90 195 -91 196 -92 197 C-93 199 -94 200 -95 202 C-96 204 -97 205 -98 207 C-114 232 -116 263 -111 292 C-110 298 -107 305 -103 309 C-97 309 -96 309 -92 305 C-88 309 -88 312 -87 317 C-86 320 -86 320 -82 322 C-81 322 -79 321 -78 321 C-75 316 -73 311 -71 306 C-71 304 -70 302 -70 300 C-65 285 -64 269 -63 253 C-63 250 -63 246 -62 243 C-62 242 -62 240 -62 238 C-62 235 -62 235 -61 233 C-60 233 -58 232 -57 232 C-51 261 -53 298 -69 324 C-67 332 -62 337 -56 341 C-51 344 -48 346 -42 346 C-38 345 -38 345 -37 344 C-32 344 -32 344 -27 344 C-26 347 -26 347 -25 351 C-18 358 -8 358 1 359 C2 359 2 359 5 359 C22 360 39 361 56 358 C58 358 59 358 61 357 C62 357 64 357 65 357 C66 357 66 357 69 356 C73 355 73 355 77 351 C78 350 78 348 79 347 C85 344 88 344 94 344 C95 345 95 345 96 346 C106 346 111 341 118 335 C124 329 124 329 125 325 C124 321 123 317 122 313 C115 296 113 278 112 260 C112 259 112 258 112 256 C112 248 113 241 115 233 C117 233 118 234 120 234 C120 237 120 237 120 242 C119 278 119 278 125 292 C125 294 125 295 126 297 C127 303 129 313 134 318 C136 318 137 318 139 318 C141 315 142 311 144 308 C145 307 145 306 146 305 C149 305 149 305 153 306 C155 306 156 307 158 307 C170 286 171 258 165 234 C162 222 157 209 149 199 C146 194 144 190 143 185 C143 183 142 182 142 180 C136 162 134 144 132 125 C132 123 131 121 131 120 C131 119 131 119 131 115 C129 103 129 103 127 101 C127 99 127 97 126 96 C123 70 109 46 89 30 C48 -0 -9 4 -44 40 Z " fill="#0F0F11" transform="translate(210,25)"/>
<path d="M0 0 C1 0 1 0 2 0 C3 3 5 7 6 10 C6 11 7 11 7 12 C7 15 7 18 8 22 C8 25 8 25 11 30 C11 36 11 40 10 46 C10 46 9 46 9 46 C9 48 9 49 9 51 C8 56 8 56 4 59 C3 59 2 59 1 59 C-2 60 -2 60 -6 64 C-6 65 -6 65 -7 69 C-9 74 -11 77 -15 82 C-17 85 -19 88 -20 92 C-23 96 -25 99 -28 103 C-31 106 -33 108 -35 112 C-39 118 -42 118 -49 120 C-57 125 -57 125 -58 130 C-60 130 -61 130 -63 130 C-64 129 -65 128 -66 127 C-75 126 -75 126 -79 128 C-84 131 -90 130 -96 130 C-98 130 -99 130 -100 130 C-101 130 -101 130 -104 130 C-105 130 -107 130 -108 131 C-111 130 -111 130 -114 128 C-117 126 -117 126 -123 126 C-123 126 -123 126 -124 129 C-125 130 -127 131 -128 132 C-133 135 -135 138 -138 143 C-141 148 -146 153 -150 157 C-153 158 -157 158 -160 158 C-163 159 -163 159 -165 161 C-165 160 -166 158 -166 157 C-168 157 -169 156 -171 156 C-172 154 -172 153 -173 151 C-174 151 -176 152 -177 152 C-179 155 -178 158 -178 162 C-179 164 -179 165 -179 167 C-179 170 -179 174 -179 177 C-180 196 -181 226 -196 241 C-198 241 -199 240 -201 240 C-203 236 -203 236 -204 231 C-205 227 -205 227 -208 224 C-209 225 -209 225 -210 226 C-213 228 -213 228 -219 228 C-232 212 -231 185 -229 166 C-225 147 -219 132 -208 116 C-205 111 -205 109 -204 103 C-203 101 -203 99 -202 96 C-196 80 -195 62 -192 44 C-190 23 -190 23 -185 16 C-184 16 -184 16 -183 16 C-182 19 -182 19 -182 22 C-183 24 -184 25 -185 27 C-186 33 -187 37 -184 43 C-184 44 -184 46 -184 47 C-178 47 -178 47 -176 46 C-170 46 -169 46 -164 50 C-163 47 -163 47 -163 41 C-163 30 -161 22 -154 13 C-148 9 -144 5 -137 4 C-128 5 -123 10 -117 16 C-115 20 -114 22 -114 27 C-118 26 -118 26 -122 23 C-127 20 -131 20 -137 21 C-144 24 -146 27 -149 34 C-151 41 -151 47 -148 54 C-145 59 -142 62 -137 64 C-131 66 -126 65 -121 62 C-116 58 -114 55 -113 49 C-113 45 -113 41 -114 36 C-114 34 -114 33 -115 31 C-115 30 -115 29 -115 28 C-114 28 -114 28 -113 28 C-113 29 -113 29 -113 30 C-113 30 -113 30 -110 31 C-108 35 -106 38 -105 42 C-104 44 -104 45 -103 46 C-101 46 -100 47 -98 47 C-97 46 -95 45 -94 44 C-92 43 -90 43 -88 42 C-88 43 -88 43 -88 44 C-87 44 -86 43 -85 43 C-78 42 -75 44 -70 47 C-67 48 -67 48 -62 48 C-62 47 -62 47 -62 46 C-61 46 -59 46 -58 46 C-58 44 -58 43 -58 41 C-59 41 -59 41 -60 41 C-60 35 -59 33 -56 27 C-55 25 -54 24 -54 22 C-49 13 -45 9 -36 5 C-29 5 -25 7 -19 11 C-18 11 -18 10 -17 10 C-16 10 -15 11 -14 11 C-9 9 -8 8 -5 3 C-3 3 -2 2 0 2 C0 1 0 1 0 0 Z " fill="#C1C4D0" transform="translate(326,106)"/>
<path d="M0 0 C1 0 1 0 4 1 C9 2 12 3 15 8 C16 9 16 11 17 12 C19 12 20 12 22 12 C22 13 23 13 23 14 C23 14 23 14 26 15 C29 17 31 19 34 22 C35 23 36 24 37 24 C41 28 44 31 47 35 C48 36 49 37 50 38 C52 41 52 41 52 43 C53 43 53 43 54 43 C56 48 58 52 59 57 C59 58 60 60 60 61 C61 61 62 61 63 61 C63 63 64 66 64 68 C63 68 63 68 62 68 C62 69 62 69 62 70 C61 70 61 70 57 71 C56 73 56 74 55 76 C48 80 48 80 44 80 C41 79 38 77 35 75 C32 74 32 74 26 74 C14 80 9 89 4 101 C3 104 3 106 2 109 C3 109 3 109 4 109 C4 111 4 112 4 114 C3 114 1 114 0 114 C0 115 0 115 0 116 C-5 117 -7 117 -12 115 C-13 114 -15 113 -16 112 C-16 112 -16 112 -19 111 C-19 111 -20 112 -20 112 C-23 112 -25 112 -28 112 C-30 113 -33 114 -35 115 C-36 115 -38 116 -39 116 C-44 113 -44 111 -45 106 C-48 99 -48 99 -51 98 C-51 97 -51 97 -51 96 C-52 96 -52 96 -53 96 C-53 97 -52 98 -52 99 C-50 108 -49 117 -54 126 C-58 131 -62 133 -67 134 C-73 134 -75 133 -80 131 C-87 124 -89 120 -89 111 C-89 103 -87 97 -81 91 C-76 87 -70 87 -64 88 C-60 90 -60 90 -56 93 C-55 93 -55 93 -52 95 C-55 86 -57 82 -65 77 C-70 74 -73 73 -79 74 C-84 76 -87 78 -90 81 C-91 81 -91 81 -92 81 C-93 82 -93 84 -94 85 C-95 86 -95 87 -96 89 C-100 97 -100 105 -100 114 C-100 117 -100 117 -102 120 C-103 119 -103 118 -104 117 C-109 115 -112 115 -117 116 C-120 116 -120 116 -122 115 C-125 109 -126 105 -125 99 C-124 95 -124 95 -122 92 C-121 89 -121 89 -121 84 C-122 84 -122 84 -123 84 C-123 84 -123 84 -124 86 C-125 66 -111 42 -97 28 C-72 0 -36 -8 0 0 Z " fill="#C8CBD5" transform="translate(264,38)"/>
<path d="M0 0 C0 1 1 1 1 2 C2 2 3 2 4 2 C5 5 5 5 6 9 C5 10 5 11 4 12 C5 12 7 12 8 12 C8 14 8 15 8 17 C9 17 10 16 11 16 C13 20 16 23 18 27 C19 29 20 30 21 32 C36 58 38 87 32 115 C30 121 28 127 25 132 C20 132 20 132 16 130 C15 130 13 131 12 131 C10 134 9 137 8 140 C7 141 7 142 6 143 C4 143 3 143 1 143 C-4 134 -7 124 -9 114 C-9 112 -10 111 -10 109 C-12 102 -12 95 -13 88 C-13 86 -13 84 -13 82 C-13 76 -13 69 -13 62 C-13 61 -13 60 -13 59 C-15 59 -16 58 -18 58 C-18 59 -18 60 -19 61 C-19 62 -19 63 -19 64 C-20 66 -20 67 -20 68 C-20 69 -21 70 -21 71 C-23 71 -25 71 -27 71 C-27 73 -27 74 -27 76 C-27 76 -27 76 -30 77 C-30 75 -31 74 -31 72 C-35 69 -37 69 -42 69 C-48 71 -49 74 -53 79 C-55 79 -56 78 -58 78 C-59 78 -60 78 -61 78 C-63 83 -62 90 -62 95 C-63 100 -63 100 -65 103 C-68 105 -68 105 -71 107 C-74 109 -74 109 -77 112 C-81 118 -84 120 -91 121 C-101 119 -108 114 -115 107 C-118 102 -121 98 -123 93 C-126 89 -129 88 -134 87 C-135 86 -136 85 -137 84 C-136 79 -136 79 -132 76 C-128 74 -128 74 -123 72 C-121 74 -121 74 -120 77 C-119 81 -119 81 -116 83 C-110 86 -105 86 -99 84 C-99 82 -98 80 -98 78 C-94 76 -94 76 -91 77 C-85 77 -82 74 -78 71 C-73 68 -73 68 -69 68 C-66 70 -66 70 -64 75 C-63 75 -62 74 -61 74 C-61 73 -62 72 -62 71 C-63 63 -64 56 -63 48 C-62 47 -60 45 -59 44 C-58 44 -58 44 -55 45 C-54 45 -52 44 -51 44 C-51 40 -51 40 -51 36 C-52 33 -52 30 -52 27 C-52 27 -52 27 -51 26 C-45 26 -45 26 -42 28 C-42 28 -42 28 -41 25 C-39 24 -39 24 -34 23 C-27 22 -22 20 -16 17 C-14 16 -12 16 -11 15 C-6 13 -6 13 -2 9 C-1 9 -1 9 0 9 C0 6 0 3 0 0 Z " fill="#C2C5D0" transform="translate(343,200)"/>
<path d="M0 0 C2 3 2 3 4 7 C8 11 10 12 15 14 C20 15 22 16 26 20 C28 20 29 21 31 21 C37 22 37 23 41 27 C43 29 45 30 46 32 C47 33 47 33 49 35 C52 37 52 37 57 40 C57 42 56 43 56 45 C53 46 50 48 47 49 C44 52 42 53 41 57 C41 64 41 64 42 66 C49 67 54 67 60 65 C61 65 62 66 63 66 C63 68 64 69 64 71 C65 71 65 71 66 71 C66 72 66 72 66 73 C60 73 54 73 48 73 C46 73 44 73 42 73 C41 73 39 73 37 73 C36 73 34 73 33 73 C31 73 30 73 29 73 C28 72 28 70 27 69 C23 68 23 68 19 69 C19 70 19 70 17 73 C13 73 9 74 5 73 C4 73 3 73 2 73 C-1 73 -4 73 -7 73 C-8 72 -8 71 -9 70 C-10 70 -12 70 -13 70 C-14 71 -14 72 -15 73 C-20 73 -24 73 -29 73 C-30 73 -30 73 -33 74 C-34 78 -34 78 -34 81 C-35 81 -36 81 -37 81 C-38 82 -38 84 -39 85 C-44 85 -44 85 -48 85 C-48 81 -49 78 -49 74 C-50 74 -52 74 -53 74 C-55 74 -56 74 -58 74 C-60 74 -61 74 -63 74 C-64 73 -66 73 -67 73 C-68 72 -68 70 -69 69 C-70 69 -71 69 -72 69 C-72 67 -72 65 -72 63 C-72 61 -72 60 -72 59 C-72 58 -72 57 -72 56 C-71 55 -70 55 -69 54 C-69 53 -69 51 -69 50 C-70 49 -71 49 -72 48 C-72 45 -72 45 -72 41 C-72 40 -72 39 -72 38 C-72 37 -72 36 -72 35 C-71 35 -70 35 -69 35 C-68 34 -68 32 -67 31 C-64 31 -64 31 -60 31 C-59 31 -58 31 -57 31 C-56 31 -56 31 -54 31 C-54 34 -54 38 -54 41 C-55 41 -56 41 -57 41 C-58 42 -58 44 -59 45 C-60 45 -60 45 -61 45 C-62 46 -62 48 -63 49 C-64 49 -64 49 -65 49 C-65 51 -65 52 -65 54 C-64 55 -63 55 -62 56 C-62 58 -61 60 -61 62 C-50 62 -40 62 -29 62 C-29 61 -29 59 -29 58 C-30 57 -31 57 -32 56 C-32 51 -33 47 -33 42 C-33 41 -33 41 -33 38 C-34 37 -35 37 -36 36 C-36 34 -35 33 -35 31 C-34 31 -34 30 -33 30 C-33 29 -32 28 -32 26 C-32 25 -31 24 -31 23 C-30 23 -30 22 -29 22 C-29 21 -29 19 -29 18 C-33 17 -33 17 -37 17 C-38 18 -38 20 -39 21 C-40 21 -40 21 -41 21 C-42 22 -42 24 -43 25 C-48 24 -48 24 -52 20 C-52 18 -51 17 -51 15 C-50 15 -50 14 -49 14 C-49 12 -48 9 -48 7 C-47 7 -46 7 -45 7 C-44 7 -44 7 -41 7 C-40 6 -40 4 -39 3 C-36 3 -36 3 -32 3 C-31 3 -30 3 -29 3 C-28 3 -28 3 -26 3 C-26 4 -26 4 -25 10 C-24 10 -22 10 -21 10 C-20 9 -20 8 -19 7 C-18 7 -18 7 -17 7 C-16 6 -16 4 -15 3 C-12 2 -12 2 -8 2 C-6 2 -3 2 -1 2 C-1 1 -0 1 0 0 Z " fill="#D6D8E0" transform="translate(97,338)"/>
<path d="M0 0 C0 0 1 0 1 0 C1 1 1 1 2 5 C4 6 7 6 9 7 C9 7 9 7 10 10 C11 10 12 11 13 11 C13 11 13 11 14 13 C15 13 17 13 18 13 C18 11 19 8 19 6 C22 6 25 6 27 6 C29 6 30 6 32 6 C33 6 33 6 36 6 C36 7 36 7 38 10 C39 11 41 11 42 12 C42 13 42 13 42 14 C43 14 44 14 45 14 C45 19 45 19 45 24 C44 25 42 27 41 28 C37 27 36 25 34 22 C34 21 34 21 34 20 C33 20 33 20 26 21 C26 25 26 25 26 29 C26 29 26 29 29 30 C29 33 29 33 30 38 C30 39 30 41 30 43 C30 44 30 46 30 48 C30 49 30 51 30 53 C30 57 30 61 30 65 C35 65 39 65 44 65 C45 65 47 66 48 66 C51 66 55 66 58 65 C60 62 60 62 60 58 C64 58 64 58 68 58 C69 59 69 59 69 62 C69 63 69 63 69 66 C69 67 69 68 69 69 C69 70 69 70 69 72 C68 72 67 72 66 72 C66 73 66 73 64 76 C59 76 55 76 50 76 C49 76 47 77 46 77 C45 80 45 80 45 84 C45 84 45 84 42 85 C41 86 41 87 40 88 C38 88 37 87 35 87 C35 86 34 86 34 85 C34 85 34 85 31 84 C31 80 31 76 31 72 C29 72 28 73 26 73 C25 74 25 75 24 76 C18 77 12 76 6 76 C4 76 3 76 1 76 C-1 76 -2 76 -4 76 C-5 76 -5 76 -8 77 C-10 76 -11 76 -12 76 C-13 75 -13 73 -14 72 C-15 72 -16 71 -17 71 C-17 70 -18 70 -18 69 C-19 69 -21 69 -22 69 C-22 71 -23 74 -23 76 C-36 76 -49 76 -63 76 C-62 71 -62 71 -60 69 C-57 69 -55 69 -52 69 C-49 69 -47 69 -44 69 C-44 68 -43 68 -43 67 C-42 67 -42 67 -41 67 C-42 61 -43 57 -48 53 C-50 52 -52 51 -53 50 C-55 50 -56 49 -58 48 C-57 43 -57 43 -54 41 C-53 40 -52 39 -51 38 C-50 38 -48 37 -47 36 C-44 34 -44 34 -40 32 C-39 31 -39 29 -38 28 C-34 25 -31 23 -26 21 C-25 20 -23 19 -22 18 C-18 16 -18 16 -13 14 C-7 12 -5 10 -2 4 C-1 3 -1 3 0 0 Z " fill="#D6D8E0" transform="translate(378,335)"/>
<path d="M0 0 C10 5 14 12 18 22 C20 32 20 44 16 53 C11 59 6 65 -2 67 C-10 68 -15 66 -22 62 C-27 61 -27 61 -30 61 C-30 62 -30 62 -29 65 C-28 70 -28 70 -29 73 C-31 76 -31 76 -35 78 C-41 82 -42 85 -44 91 C-51 100 -51 100 -57 101 C-63 100 -66 97 -70 93 C-76 85 -76 85 -76 81 C-77 80 -79 80 -80 79 C-86 73 -86 73 -86 68 C-85 59 -78 52 -71 45 C-65 41 -60 40 -53 41 C-47 43 -43 45 -39 50 C-38 50 -38 50 -37 50 C-37 48 -36 47 -36 45 C-36 43 -35 42 -35 40 C-34 40 -32 40 -31 40 C-31 38 -31 37 -31 35 C-32 35 -32 35 -33 35 C-33 29 -32 27 -29 21 C-28 19 -27 18 -27 16 C-21 5 -13 -3 0 0 Z " fill="#E9EAEE" transform="translate(299,112)"/>
<path d="M0 0 C13 4 20 13 26 25 C28 30 29 33 29 39 C28 40 27 41 26 42 C26 46 26 46 25 50 C25 52 25 53 25 55 C25 56 25 56 25 60 C23 114 23 114 8 129 C6 129 5 128 3 128 C1 124 1 124 0 119 C-1 115 -1 115 -4 112 C-5 113 -5 113 -6 114 C-9 116 -9 116 -15 116 C-28 100 -27 73 -25 54 C-21 35 -14 14 0 0 Z " fill="#7E8498" transform="translate(122,218)"/>
<path d="M0 0 C4 2 5 7 7 10 C8 11 9 13 10 14 C26 40 28 70 22 99 C20 105 18 111 15 116 C10 116 10 116 6 114 C5 114 5 114 2 115 C0 118 -1 121 -2 124 C-3 125 -3 126 -4 127 C-6 127 -7 127 -9 127 C-14 118 -17 108 -19 98 C-19 96 -20 95 -20 93 C-23 78 -23 62 -23 46 C-23 46 -23 46 -23 43 C-24 42 -26 42 -27 41 C-27 30 -21 20 -14 11 C-13 10 -12 9 -12 8 C-8 4 -4 2 0 0 Z " fill="#7E8498" transform="translate(353,216)"/>
<path d="M0 0 C6 4 10 8 14 14 C15 18 15 18 15 21 C11 20 11 20 8 17 C2 14 -1 14 -8 15 C-15 18 -17 21 -20 28 C-22 34 -21 41 -19 48 C-16 53 -13 55 -8 58 C-2 59 3 58 9 56 C13 52 15 49 16 43 C16 38 16 34 15 30 C15 28 15 27 15 25 C14 24 14 23 14 22 C15 22 15 22 16 22 C16 22 16 23 16 24 C17 24 17 24 19 25 C22 28 23 32 25 36 C25 37 26 38 26 40 C28 40 29 40 31 41 C32 40 34 39 35 38 C37 37 39 36 41 36 C41 36 41 37 41 38 C42 37 43 37 45 36 C51 35 54 38 59 41 C62 42 62 42 67 42 C67 44 67 47 66 50 C61 50 59 47 55 44 C50 41 46 41 40 42 C30 46 24 52 18 61 C17 66 17 66 16 70 C12 68 9 67 6 64 C5 64 4 64 2 64 C2 64 2 65 2 66 C-3 66 -8 66 -14 66 C-13 67 -12 68 -11 69 C-11 71 -11 73 -11 75 C-19 80 -27 82 -37 81 C-42 78 -48 76 -53 73 C-53 72 -53 71 -54 70 C-55 69 -57 68 -59 68 C-60 65 -60 65 -60 62 C-59 61 -59 61 -59 61 C-59 60 -60 60 -61 60 C-61 61 -61 61 -61 65 C-61 70 -62 74 -65 80 C-65 82 -64 84 -64 87 C-65 88 -66 89 -68 91 C-69 94 -69 94 -69 98 C-67 97 -66 97 -64 96 C-58 95 -54 97 -48 100 C-47 100 -47 100 -45 101 C-35 106 -35 106 -33 111 C-35 116 -35 116 -38 119 C-40 119 -42 120 -43 120 C-45 121 -47 121 -49 122 C-50 125 -50 125 -50 128 C-54 124 -54 124 -57 119 C-62 114 -65 110 -72 108 C-73 107 -74 106 -76 106 C-76 101 -75 98 -74 94 C-68 76 -66 57 -63 38 C-60 17 -60 17 -56 10 C-55 10 -55 10 -54 10 C-53 12 -53 12 -53 16 C-54 17 -55 19 -56 21 C-57 27 -58 31 -55 37 C-55 38 -55 39 -55 41 C-49 41 -49 41 -47 40 C-41 40 -39 40 -35 44 C-34 41 -34 41 -34 35 C-34 24 -32 15 -25 7 C-17 1 -10 -4 0 0 Z " fill="#C7CAD4" transform="translate(196.82421875,112.28125)"/>
<path d="M0 0 C9 5 15 14 19 23 C20 28 20 28 20 31 C17 34 17 34 13 36 C7 39 7 42 4 49 C-2 57 -2 57 -9 58 C-15 57 -17 55 -22 51 C-28 43 -28 43 -28 39 C-29 38 -30 37 -32 37 C-37 31 -37 31 -38 26 C-37 16 -30 9 -22 3 C-15 -2 -9 -3 0 0 Z " fill="#100D09" transform="translate(250.5625,154.4375)"/>
<path d="M0 0 C5 3 6 3 8 8 C9 9 9 9 9 12 C10 11 11 11 12 11 C16 10 16 10 21 10 C22 11 22 12 23 13 C24 14 24 15 25 16 C27 15 28 14 30 14 C31 12 31 11 32 10 C32 8 33 7 33 6 C35 5 36 4 38 4 C41 6 41 6 44 9 C46 9 47 9 49 10 C49 11 49 11 50 15 C41 22 33 23 21 23 C16 23 14 24 10 26 C9 26 9 26 5 26 C-3 27 -8 31 -14 36 C-18 39 -18 39 -20 39 C-20 40 -19 41 -19 42 C-19 47 -19 47 -21 52 C-21 52 -21 52 -23 53 C-29 49 -34 45 -38 39 C-38 34 -37 31 -34 27 C-33 23 -31 19 -30 15 C-30 14 -30 13 -29 12 C-28 7 -27 2 -26 -2 C-26 -4 -25 -5 -25 -6 C-17 -9 -7 -4 0 0 Z " fill="#C2C5D1" transform="translate(178.875,314.1875)"/>
<path d="M0 0 C6 4 10 8 14 14 C15 18 15 18 15 21 C11 20 11 20 8 17 C2 14 -1 14 -8 15 C-15 18 -17 21 -20 28 C-22 34 -21 41 -19 48 C-16 53 -13 55 -8 58 C-2 59 3 58 9 56 C13 52 15 49 16 43 C16 38 16 34 15 30 C15 28 15 27 15 25 C14 24 14 23 14 22 C15 22 15 22 16 22 C16 22 16 23 16 24 C17 24 18 24 19 25 C22 28 23 32 25 36 C25 37 26 38 26 40 C28 40 29 40 31 41 C32 40 34 39 35 38 C37 37 39 36 41 36 C41 36 41 37 41 38 C42 37 43 37 45 36 C51 35 54 38 59 41 C62 42 62 42 67 42 C67 44 67 47 66 50 C61 50 59 47 55 44 C50 41 46 41 40 42 C30 46 24 52 18 61 C17 66 17 66 16 70 C12 68 9 67 6 64 C5 64 4 64 2 64 C2 64 2 65 2 66 C-8 66 -16 66 -24 60 C-29 54 -33 49 -34 42 C-34 28 -34 17 -25 7 C-17 1 -10 -4 0 0 Z " fill="#E9EAEE" transform="translate(196.82421875,112.28125)"/>
<path d="M0 0 C1 -0 3 -0 4 -0 C5 -0 5 -0 8 -0 C9 -0 9 -0 13 -0 C16 -0 19 -0 22 -0 C27 -0 32 -0 37 -0 C40 -0 43 -0 46 -0 C47 -0 49 -0 50 -0 C52 -0 53 -0 54 -0 C55 -0 57 -0 58 -0 C59 0 60 0 61 0 C63 3 63 3 63 7 C64 8 64 9 65 10 C70 12 72 11 77 10 C83 8 83 8 87 10 C90 12 90 12 94 16 C91 19 87 17 84 17 C83 17 82 17 81 17 C79 17 78 17 77 17 C72 17 68 17 64 17 C61 17 58 17 55 17 C47 17 40 17 32 17 C24 17 16 17 8 17 C-7 17 -23 17 -38 17 C-31 10 -31 10 -24 9 C-23 10 -22 10 -21 10 C-17 10 -13 10 -9 10 C-9 9 -9 8 -9 6 C-8 -0 -6 0 0 0 Z " fill="#D8DAE2" transform="translate(211.345703125,393.725341796875)"/>
<path d="M0 0 C2 1 2 1 6 4 C8 5 10 6 12 7 C11 8 10 8 8 8 C8 10 8 12 7 13 C6 15 4 16 1 17 C1 19 -0 21 -2 22 C-5 26 -10 26 -14 27 C-15 27 -15 27 -20 28 C-29 29 -29 29 -34 28 C-34 27 -34 26 -35 24 C-39 24 -39 24 -45 24 C-47 24 -49 24 -51 24 C-52 24 -52 24 -56 24 C-56 24 -56 23 -56 22 C-53 22 -50 21 -48 20 C-48 19 -49 18 -50 16 C-50 12 -50 12 -51 8 C-38 -6 -17 -7 0 0 Z " fill="#C1C4D0" transform="translate(286.50390625,355.61328125)"/>
<path d="M0 0 C6 3 9 6 12 12 C15 21 15 30 10 38 C6 43 2 45 -3 46 C-9 46 -11 45 -16 43 C-23 36 -25 32 -25 23 C-25 15 -23 9 -17 3 C-12 -1 -6 -1 0 0 Z " fill="#141417" transform="translate(200,126)"/>
<path d="M0 0 C0 1 0 2 0 3 C1 3 2 3 3 3 C6 4 6 4 8 7 C9 10 9 13 10 16 C11 20 13 23 14 27 C16 34 16 34 15 38 C10 45 4 52 -4 55 C-7 55 -7 55 -10 54 C-10 49 -9 47 -6 44 C-3 42 -3 42 -1 42 C-1 39 -1 37 -1 34 C-2 34 -3 34 -4 34 C-13 33 -19 32 -25 25 C-28 21 -28 17 -28 12 C-28 11 -29 9 -29 8 C-29 7 -29 6 -29 5 C-24 1 -22 2 -16 2 C-10 2 -6 0 0 0 Z " fill="#C2C5D1" transform="translate(319,315)"/>
<path d="M0 0 C2 0 3 0 5 0 C8 4 8 4 9 8 C8 11 8 11 6 14 C7 18 8 21 10 24 C6 24 6 24 3 22 C-2 20 -5 19 -10 20 C-15 22 -18 24 -21 27 C-22 27 -22 27 -23 27 C-24 28 -24 30 -25 31 C-26 32 -26 33 -27 35 C-31 43 -31 51 -31 60 C-31 63 -31 63 -33 66 C-34 65 -34 64 -35 63 C-40 61 -43 61 -48 62 C-51 62 -51 62 -53 61 C-56 55 -57 51 -56 45 C-55 41 -55 41 -53 38 C-52 34 -52 30 -52 26 C-51 23 -51 23 -47 19 C-41 20 -41 20 -39 22 C-28 22 -21 21 -12 15 C-11 15 -11 14 -10 14 C-10 13 -9 11 -9 10 C-7 5 -6 4 -1 1 C-1 1 -0 0 0 0 Z " fill="#C1C4D0" transform="translate(195,92)"/>
<path d="M0 0 C5 2 7 4 10 8 C14 19 14 27 9 38 C5 42 2 44 -3 46 C-9 46 -13 45 -18 41 C-23 36 -25 33 -25 27 C-25 22 -24 20 -22 16 C-21 15 -20 15 -19 14 C-18 15 -17 15 -17 16 C-14 18 -14 18 -8 18 C-7 17 -7 17 -7 14 C-7 12 -7 11 -7 10 C-8 10 -8 10 -12 7 C-12 5 -12 4 -12 2 C-7 -0 -5 -0 0 0 Z " fill="#040407" transform="translate(296,126)"/>
<path d="M0 0 C3 -0 3 -0 7 -0 C8 -0 9 -0 10 -0 C11 -0 11 -0 13 0 C13 3 13 7 13 10 C12 10 11 10 10 10 C9 11 9 13 8 14 C7 14 7 14 6 14 C5 15 5 17 4 18 C3 18 3 18 2 18 C2 20 2 21 2 23 C3 24 4 24 5 25 C5 26 5 26 5 28 C5 29 6 30 6 31 C10 32 10 32 15 32 C16 32 16 32 21 32 C22 32 22 32 27 32 C29 32 30 32 32 32 C37 32 42 32 47 32 C47 34 46 35 46 37 C47 37 47 37 48 37 C48 39 48 40 48 42 C48 42 48 42 45 42 C41 42 38 42 34 43 C33 47 33 47 33 50 C32 50 31 50 30 50 C29 51 29 53 28 54 C23 54 23 54 19 54 C19 50 18 47 18 43 C17 43 17 43 14 43 C12 43 11 43 9 43 C7 43 6 43 4 43 C3 42 1 42 0 42 C-1 41 -1 39 -2 38 C-3 38 -4 38 -5 38 C-5 36 -5 34 -5 32 C-5 30 -5 29 -5 28 C-5 27 -5 26 -5 25 C-4 24 -3 24 -2 23 C-2 22 -2 20 -2 19 C-3 18 -4 18 -5 17 C-5 14 -5 14 -5 10 C-5 9 -5 8 -5 7 C-5 6 -5 5 -5 4 C-4 4 -3 4 -2 4 C-1 3 -1 1 0 0 Z " fill="#D4D6DD" transform="translate(30,369)"/>
<path d="M0 0 C1 1 3 2 4 3 C5 3 6 3 7 2 C12 2 15 4 20 7 C20 11 20 11 18 14 C14 17 11 18 6 20 C5 21 4 21 3 22 C-2 24 -8 23 -14 23 C-18 24 -20 25 -24 28 C-26 28 -27 27 -29 27 C-29 26 -29 25 -29 24 C-28 18 -28 13 -31 7 C-31 3 -31 3 -30 0 C-25 -0 -21 0 -16 1 C-10 1 -6 -1 0 0 Z " fill="#C1C4D0" transform="translate(257,41)"/>
<path d="M0 0 C4 4 4 9 4 14 C4 22 3 28 -1 36 C-1 38 -0 41 0 43 C-1 44 -3 46 -4 47 C-5 51 -5 51 -5 54 C-3 54 -2 53 -0 53 C6 52 10 53 16 56 C17 56 18 57 19 57 C29 62 29 62 31 67 C29 72 29 72 26 75 C24 75 22 76 20 76 C19 77 17 77 15 78 C14 81 14 81 14 84 C10 80 10 80 7 76 C2 70 -1 67 -8 64 C-9 64 -11 63 -12 62 C-13 56 -10 51 -9 46 C-6 37 -4 27 -3 18 C-3 17 -3 17 -2 12 C-1 8 -1 4 0 0 Z " fill="#C8CBD5" transform="translate(133,156)"/>
<path d="M0 0 C-1 0 -1 0 -2 0 C-2 1 -2 3 -2 4 C-8 6 -10 6 -16 5 C-28 4 -28 4 -33 5 C-34 6 -35 8 -36 9 C-37 9 -38 9 -40 9 C-47 9 -51 12 -57 15 C-61 17 -61 17 -66 19 C-71 23 -75 27 -79 32 C-81 34 -82 35 -84 37 C-89 42 -92 47 -95 53 C-95 54 -96 55 -96 56 C-98 61 -100 65 -101 70 C-102 74 -102 74 -106 78 C-107 82 -107 82 -107 85 C-108 85 -109 85 -110 85 C-110 85 -110 85 -111 87 C-112 67 -98 43 -84 29 C-67 10 -27 -13 0 0 Z " fill="#D8DAE2" transform="translate(251,37)"/>
<path d="M0 0 C4 2 6 3 9 6 C9 7 9 7 10 11 C11 11 12 12 13 12 C13 13 13 13 13 14 C11 14 9 15 7 15 C7 16 7 16 8 19 C9 24 9 26 6 30 C5 33 5 33 5 36 C7 36 8 37 10 37 C10 38 10 40 10 41 C6 43 6 43 3 43 C3 41 3 40 2 38 C2 36 1 35 1 33 C-2 32 -2 32 -6 33 C-9 36 -9 36 -11 39 C-12 40 -14 40 -15 41 C-15 42 -16 42 -16 43 C-28 44 -28 44 -34 43 C-34 41 -33 40 -33 38 C-29 36 -25 37 -20 37 C-17 37 -17 37 -13 36 C-13 35 -13 35 -13 34 C-13 34 -13 34 -16 33 C-16 32 -17 31 -17 30 C-18 30 -18 29 -19 29 C-18 24 -18 24 -16 22 C-12 20 -12 20 -7 19 C-6 19 -4 18 -3 18 C-2 17 -2 15 -1 14 C-3 9 -3 9 -5 8 C-5 6 -5 4 -5 2 C-3 1 -2 1 0 0 Z " fill="#C3C6D0" transform="translate(127,364)"/>
<path d="M0 0 C4 2 5 5 7 8 C7 11 6 14 6 16 C6 18 6 19 6 21 C6 22 6 23 6 24 C5 24 5 24 1 23 C-3 22 -3 22 -7 23 C-9 26 -10 29 -12 33 C-12 34 -13 34 -13 35 C-15 35 -17 35 -18 35 C-23 27 -27 19 -26 9 C-25 9 -24 9 -23 9 C-14 8 -8 1 0 0 Z " fill="#626878" transform="translate(362.3125,307.75)"/>
<path d="M0 0 C1 -0 3 -0 4 -0 C5 -0 7 -0 8 -0 C9 -0 9 -0 13 -0 C16 -0 19 -0 22 -0 C27 -0 32 -0 37 -0 C40 -0 43 -0 46 -0 C47 -0 49 -0 50 -0 C52 -0 53 -0 54 -0 C55 -0 57 -0 58 -0 C59 0 60 0 61 0 C63 3 63 3 63 7 C64 8 64 9 65 10 C70 12 72 11 77 10 C83 8 83 8 87 10 C90 12 90 12 94 16 C93 17 93 17 90 17 C88 17 87 17 86 17 C84 17 83 17 81 17 C80 17 80 17 77 17 C75 17 74 17 72 17 C68 17 64 17 61 17 C61 16 61 15 62 13 C59 13 56 13 53 13 C53 12 53 10 54 8 C45 8 37 8 29 7 C29 8 29 9 29 9 C26 9 23 9 20 9 C19 9 19 9 19 8 C19 7 19 5 19 3 C16 3 13 3 10 3 C9 3 7 3 6 3 C4 3 3 3 2 3 C0 6 0 6 -0 9 C-4 9 -4 9 -8 8 C-8 0 -7 0 0 0 Z " fill="#E9EAEE" transform="translate(211.345703125,393.725341796875)"/>
<path d="M0 0 C1 0 1 0 2 0 C2 1 2 1 2 2 C3 2 4 3 5 3 C7 7 9 10 10 14 C11 16 11 17 12 18 C14 18 15 19 17 19 C18 18 20 17 21 16 C23 15 25 15 27 14 C27 15 27 15 27 16 C28 16 29 15 30 15 C37 14 40 16 45 19 C48 20 48 20 53 20 C53 23 52 25 52 28 C47 28 45 25 41 22 C36 20 31 20 26 20 C16 24 10 30 4 39 C3 44 3 44 2 48 C-2 46 -5 45 -8 42 C-9 42 -11 42 -12 42 C-11 37 -11 37 -7 34 C-5 33 -4 32 -2 31 C3 24 2 16 1 8 C1 7 1 7 0 3 C0 2 0 1 0 0 Z " fill="#DBDCE4" transform="translate(211,134)"/>
<path d="M0 0 C1 0 1 0 2 0 C3 3 5 7 6 10 C6 11 7 11 7 12 C7 15 7 18 8 22 C8 25 8 25 11 30 C11 36 11 40 10 46 C9 46 8 46 7 46 C7 44 7 42 6 40 C6 39 5 37 5 35 C-0 34 -3 34 -7 37 C-7 36 -8 34 -8 33 C-10 27 -13 21 -16 16 C-17 15 -17 14 -18 13 C-18 12 -17 11 -17 10 C-16 10 -15 11 -14 11 C-9 9 -8 8 -5 3 C-3 3 -2 2 0 2 C0 1 0 1 0 0 Z " fill="#BABECB" transform="translate(326,106)"/>
<path d="M0 0 C0 0 0 0 1 2 C2 2 3 2 4 2 C4 3 4 3 5 9 C4 9 4 9 3 9 C3 10 3 10 3 11 C1 11 -0 12 -2 12 C-3 14 -3 15 -4 17 C-11 21 -11 21 -15 21 C-18 20 -21 18 -24 16 C-27 15 -27 15 -33 15 C-43 20 -48 26 -52 36 C-53 36 -53 36 -54 36 C-57 32 -59 28 -59 23 C-56 18 -56 18 -53 16 C-51 16 -50 16 -48 16 C-43 15 -42 14 -38 11 C-31 10 -24 10 -17 10 C-10 10 -5 5 0 0 Z " fill="#C2C5D1" transform="translate(323,97)"/>
<path d="M0 0 C6 3 10 8 14 13 C14 15 13 16 13 18 C2 23 -5 23 -16 18 C-19 17 -19 17 -21 13 C-15 5 -10 -1 0 0 Z " fill="#F0B42A" transform="translate(245,162)"/>
<path d="M0 0 C1 0 1 0 3 1 C6 4 5 7 5 12 C7 11 8 11 9 10 C15 8 19 9 25 10 C29 9 29 9 32 8 C33 8 34 8 35 9 C36 9 36 9 36 14 C37 14 38 14 38 14 C38 14 38 15 38 16 C32 16 26 16 20 16 C18 16 17 16 15 16 C13 16 11 16 10 16 C8 16 7 16 5 16 C4 16 3 16 1 16 C1 14 0 13 -1 12 C-5 11 -5 11 -9 12 C-9 13 -10 14 -11 16 C-15 16 -18 16 -23 16 C-24 16 -25 16 -26 16 C-29 16 -32 16 -35 16 C-35 15 -36 14 -37 13 C-38 13 -39 13 -41 13 C-41 13 -41 13 -43 16 C-44 16 -45 16 -47 16 C-47 14 -47 12 -47 11 C-42 8 -42 8 -38 8 C-35 9 -35 9 -32 12 C-27 12 -27 12 -22 12 C-21 12 -19 12 -18 12 C-16 12 -15 12 -14 12 C-13 10 -12 9 -12 8 C-11 8 -10 8 -9 8 C-8 6 -7 5 -7 4 C-4 1 -4 1 0 0 Z " fill="#DDDFE5" transform="translate(124.5625,395.4375)"/>
<path d="M0 0 C6 10 6 10 6 15 C4 19 4 19 2 22 C1 22 -1 21 -2 21 C-3 22 -5 24 -6 25 C-8 25 -10 25 -12 25 C-18 18 -20 10 -21 1 C-19 0 -19 0 -14 1 C-9 1 -5 -1 0 0 Z " fill="#636979" transform="translate(119,309)"/>
<path d="M0 0 C4 0 4 0 7 3 C7 3 8 4 8 5 C7 7 6 9 5 10 C5 10 4 10 3 10 C3 11 3 11 4 13 C3 14 2 14 1 14 C1 16 -0 17 -1 18 C-1 18 -2 18 -3 18 C-3 19 -3 20 -3 20 C-6 22 -6 22 -9 22 C-9 24 -10 26 -11 27 C-11 27 -12 27 -13 27 C-13 28 -13 29 -14 30 C-16 37 -21 42 -27 45 C-33 46 -37 44 -42 40 C-50 33 -50 33 -53 27 C-53 26 -53 24 -53 22 C-56 21 -56 21 -59 20 C-63 16 -63 15 -64 9 C-59 11 -59 12 -56 16 C-55 17 -54 18 -53 19 C-50 21 -49 23 -47 27 C-44 32 -41 36 -36 39 C-31 40 -28 40 -24 38 C-20 33 -18 29 -16 24 C-13 19 -13 19 -9 17 C-5 15 -5 15 -3 13 C-3 9 -4 5 -5 1 C-4 0 -4 0 0 0 Z " fill="#C8CBD5" transform="translate(272.8125,171.625)"/>
<path d="M0 0 C2 0 3 1 5 1 C5 2 6 2 6 3 C7 3 8 4 9 4 C9 5 9 5 9 7 C9 9 10 10 10 11 C14 12 14 12 17 13 C17 14 18 15 18 16 C19 16 20 16 21 16 C21 19 21 23 21 26 C19 26 17 26 15 26 C13 26 12 26 11 26 C10 26 9 26 8 26 C7 25 7 23 6 22 C4 22 2 22 0 22 C-1 21 -1 19 -2 18 C-3 18 -4 18 -5 18 C-5 16 -5 13 -5 11 C-5 10 -5 8 -5 7 C-5 6 -5 5 -5 4 C-4 4 -3 3 -2 3 C-1 2 -1 1 0 0 Z " fill="#D2D5DD" transform="translate(54,537)"/>
<path d="M0 0 C4 -0 4 -0 8 0 C9 1 9 1 9 4 C9 5 9 6 9 8 C9 9 9 10 9 11 C9 12 9 13 9 14 C8 14 7 14 6 14 C5 15 5 17 4 18 C0 19 0 19 -5 19 C-17 19 -17 19 -21 23 C-22 23 -22 22 -23 22 C-23 21 -23 20 -23 19 C-24 19 -24 19 -25 19 C-25 15 -24 12 -24 8 C-22 8 -21 8 -19 8 C-17 8 -15 8 -13 8 C-13 8 -13 8 -10 8 C-7 8 -7 8 -2 7 C-1 3 -1 3 0 0 Z " fill="#CDCFD8" transform="translate(438,393)"/>
<path d="M0 0 C4 -0 8 -1 12 -0 C13 -1 14 -1 15 -1 C19 -1 19 -1 24 0 C25 1 25 3 26 4 C26 4 26 4 29 5 C29 7 28 8 28 10 C27 10 27 10 26 10 C25 11 25 13 24 14 C20 14 16 15 12 14 C11 15 10 15 9 15 C5 15 5 15 0 14 C-1 13 -1 11 -2 10 C-3 10 -4 9 -5 9 C-5 7 -4 6 -4 4 C-3 4 -3 4 -2 4 C-1 3 -1 1 0 0 Z " fill="#D4D6DE" transform="translate(226,549)"/>
<path d="M0 0 C1 0 1 0 5 1 C5 2 6 2 6 3 C7 3 8 4 9 4 C9 7 9 7 9 11 C9 12 9 14 9 15 C9 16 9 17 9 18 C8 18 7 18 6 18 C5 19 5 21 4 22 C2 22 0 22 -2 22 C-3 23 -3 25 -4 26 C-8 26 -8 26 -12 26 C-13 25 -13 23 -14 22 C-15 22 -16 21 -17 21 C-17 19 -16 18 -16 16 C-15 16 -15 16 -14 16 C-13 15 -13 13 -12 12 C-11 12 -10 12 -9 12 C-8 11 -7 11 -6 11 C-5 8 -5 8 -5 4 C-4 4 -3 3 -2 3 C-1 2 -1 1 0 0 Z " fill="#D8DBE1" transform="translate(414,537)"/>
<path d="M0 0 C6 -1 11 -0 17 1 C17 3 18 4 18 6 C23 7 23 7 27 7 C27 6 27 6 27 5 C30 5 33 5 37 5 C38 5 40 5 42 5 C47 5 47 5 52 6 C52 8 51 9 51 11 C43 13 35 12 26 12 C23 12 20 12 17 12 C15 12 13 12 11 12 C10 12 10 12 5 11 C-0 11 -4 10 -9 8 C-10 8 -10 8 -11 8 C-11 7 -11 7 -11 6 C-10 6 -8 6 -7 6 C-6 6 -6 6 -3 6 C-3 5 -2 4 -2 3 C-1 2 -1 1 0 0 Z " fill="#CDD0D9" transform="translate(213,396)"/>
<path d="M0 0 C3 2 3 2 6 4 C6 5 6 5 6 6 C7 6 8 6 9 6 C12 5 16 5 20 5 C20 5 20 5 24 5 C25 5 27 5 28 5 C30 5 31 5 33 5 C37 5 40 5 44 5 C44 4 44 4 44 3 C46 4 49 4 51 5 C51 7 50 9 50 11 C51 11 51 11 52 11 C52 12 52 13 52 14 C53 13 55 13 56 12 C57 12 59 11 60 11 C60 14 60 14 60 18 C60 18 60 18 57 19 C57 19 57 19 55 22 C53 22 52 21 50 21 C50 21 50 21 49 19 C48 19 47 18 46 18 C46 14 46 10 46 6 C44 6 43 7 41 7 C40 8 40 9 39 10 C33 11 27 10 21 10 C19 10 18 10 16 10 C14 10 13 10 11 10 C10 10 10 10 6 11 C6 10 6 10 3 10 C2 9 2 7 1 6 C0 6 -1 5 -2 5 C-2 4 -3 4 -3 3 C-4 3 -6 3 -7 3 C-7 5 -8 8 -8 10 C-10 10 -12 10 -14 10 C-14 7 -14 7 -13 4 C-6 0 -6 0 0 0 Z " fill="#E3E4EA" transform="translate(363,401)"/>
<path d="M0 0 C21 7 37 24 48 43 C50 47 52 52 53 56 C54 58 54 60 55 61 C55 62 55 62 56 65 C54 64 53 64 51 63 C50 59 50 59 50 56 C49 56 48 56 47 56 C45 51 43 47 42 41 C42 40 41 39 41 38 C40 38 40 38 39 38 C37 35 35 33 33 30 C31 28 30 27 28 25 C27 24 26 23 26 23 C23 20 19 17 16 14 C15 13 14 12 13 11 C12 10 10 10 9 9 C9 8 9 8 9 7 C7 7 6 8 4 8 C0 3 0 3 0 0 Z " fill="#D8DAE2" transform="translate(277,43)"/>
<path d="M0 0 C3 -0 7 -0 10 -0 C12 -0 14 -0 16 -0 C18 -0 19 -0 21 0 C22 1 22 3 23 4 C25 4 27 4 29 4 C29 6 30 7 30 9 C29 9 28 10 27 10 C26 11 26 13 25 14 C20 15 20 15 15 14 C13 15 11 15 10 15 C8 14 7 14 5 14 C4 13 4 11 3 10 C2 10 1 10 0 10 C0 7 0 3 0 0 Z " fill="#DADCE2" transform="translate(125,549)"/>
<path d="M0 0 C4 -1 4 -1 10 -0 C12 -1 14 -1 16 -1 C17 -0 18 -0 20 0 C21 1 21 3 22 4 C23 4 24 5 25 5 C25 7 24 8 24 10 C23 10 23 10 22 10 C21 11 21 13 20 14 C16 15 16 15 10 14 C8 15 6 15 4 15 C3 14 2 14 0 14 C-1 13 -1 11 -2 10 C-3 10 -4 9 -5 9 C-5 7 -4 6 -4 4 C-3 4 -3 4 -2 4 C-1 3 -1 1 0 0 Z " fill="#D3D5DD" transform="translate(366,549)"/>
<path d="M0 0 C4 -1 4 -1 10 -0 C12 -1 14 -1 16 -1 C17 -0 18 -0 20 0 C21 1 21 3 22 4 C23 4 24 5 25 5 C25 7 24 8 24 10 C23 10 23 10 22 10 C21 11 21 13 20 14 C16 15 16 15 10 14 C8 15 6 15 4 15 C3 14 2 14 0 14 C-1 13 -1 11 -2 10 C-3 10 -4 9 -5 9 C-5 7 -4 6 -4 4 C-3 4 -3 4 -2 4 C-1 3 -1 1 0 0 Z " fill="#DCDEE4" transform="translate(330,549)"/>
<path d="M0 0 C4 -1 4 -1 10 -0 C12 -1 14 -1 16 -1 C17 -0 18 -0 20 0 C21 1 21 3 22 4 C23 4 24 5 25 5 C25 7 24 8 24 10 C23 10 23 10 22 10 C21 11 21 13 20 14 C16 15 16 15 10 14 C8 15 6 15 4 15 C3 14 2 14 0 14 C-1 13 -1 11 -2 10 C-3 10 -4 9 -5 9 C-5 7 -4 6 -4 4 C-3 4 -3 4 -2 4 C-1 3 -1 1 0 0 Z " fill="#D7D9E0" transform="translate(190,549)"/>
<path d="M0 0 C4 -1 4 -1 10 -0 C12 -1 14 -1 16 -1 C17 -0 18 -0 20 0 C21 1 21 3 22 4 C23 4 24 5 25 5 C25 7 24 8 24 10 C23 10 23 10 22 10 C21 11 21 13 20 14 C16 15 16 15 10 14 C8 15 6 15 4 15 C3 14 2 14 0 14 C-1 13 -1 11 -2 10 C-3 10 -4 9 -5 9 C-5 7 -4 6 -4 4 C-3 4 -3 4 -2 4 C-1 3 -1 1 0 0 Z " fill="#D7D8E0" transform="translate(90,549)"/>
<path d="M0 0 C3 0 3 0 6 2 C8 6 8 9 7 13 C2 20 -4 27 -12 30 C-15 30 -15 30 -18 29 C-18 24 -17 22 -14 19 C-11 17 -11 17 -9 17 C-9 16 -8 14 -8 13 C-6 8 -4 4 0 0 Z " fill="#B6B9C6" transform="translate(327,340)"/>
<path d="M0 0 C2 0 3 1 5 1 C5 2 6 3 6 4 C7 4 8 4 9 4 C9 11 9 19 9 26 C8 26 7 26 6 26 C5 27 5 29 4 30 C2 30 1 29 -1 29 C-1 28 -2 28 -2 27 C-3 27 -4 26 -5 26 C-5 22 -5 22 -5 17 C-5 15 -5 14 -5 12 C-5 11 -5 9 -5 8 C-4 8 -3 7 -2 7 C-1 3 -1 3 0 0 Z " fill="#DEE0E6" transform="translate(414,465)"/>
<path d="M0 0 C2 0 3 1 5 1 C6 4 6 4 6 7 C7 7 8 8 9 8 C9 11 9 11 9 15 C9 16 9 18 9 19 C9 20 9 21 9 22 C8 22 7 23 6 23 C5 27 5 27 4 30 C2 30 1 29 -1 29 C-1 28 -2 27 -2 26 C-3 26 -4 26 -5 26 C-5 19 -5 11 -5 4 C-4 4 -3 4 -2 4 C-1 3 -1 1 0 0 Z " fill="#D1D3DB" transform="translate(54,429)"/>
<path d="M0 0 C3 1 3 1 6 4 C6 8 6 11 6 15 C6 16 6 17 6 18 C6 21 6 23 6 26 C1 26 -3 26 -8 26 C-8 19 -8 11 -8 4 C-6 4 -4 3 -2 3 C-1 2 -1 1 0 0 Z " fill="#D9DBE2" transform="translate(417,501)"/>
<path d="M0 0 C2 0 3 1 5 1 C5 2 6 3 6 4 C7 4 8 4 9 4 C9 10 9 16 9 22 C8 22 7 22 6 22 C5 23 5 25 4 26 C1 26 -2 26 -5 26 C-5 19 -5 11 -5 4 C-4 4 -3 4 -2 4 C-1 3 -1 1 0 0 Z " fill="#D6D8DF" transform="translate(54,501)"/>
<path d="M0 0 C4 4 4 9 4 14 C4 22 3 28 -1 36 C-1 38 -0 41 0 43 C-1 44 -3 46 -4 47 C-4 50 -4 52 -4 55 C-5 58 -5 61 -6 64 C-9 64 -9 64 -12 62 C-12 56 -10 51 -9 46 C-6 37 -4 27 -3 18 C-3 17 -3 17 -2 12 C-1 8 -1 4 0 0 Z " fill="#D1D3DC" transform="translate(133,156)"/>
<path d="M0 0 C2 0 3 1 5 1 C5 4 6 8 6 11 C7 11 8 12 9 12 C9 17 9 17 9 22 C8 22 7 23 6 23 C5 27 5 27 4 30 C2 30 1 29 -1 29 C-1 28 -2 27 -2 26 C-3 26 -4 26 -5 26 C-5 19 -5 11 -5 4 C-4 4 -3 4 -2 4 C-1 3 -1 1 0 0 Z " fill="#D2D4DC" transform="translate(54,465)"/>
<path d="M0 0 C3 0 6 0 9 0 C9 7 9 15 9 22 C8 22 7 22 6 22 C5 23 5 25 4 26 C2 26 1 25 -1 25 C-2 22 -2 22 -2 19 C-3 19 -4 18 -5 18 C-5 15 -5 15 -5 11 C-5 10 -5 8 -5 7 C-5 6 -5 5 -5 4 C-4 4 -3 4 -2 4 C-1 3 -1 1 0 0 Z " fill="#E1E2E8" transform="translate(414,433)"/>
<path d="M0 0 C6 -1 9 -0 14 2 C22 5 30 5 38 4 C41 4 43 4 46 4 C47 4 47 4 50 4 C54 4 54 4 59 5 C59 6 59 6 60 9 C48 13 31 10 18 9 C17 9 15 8 14 8 C12 8 11 8 10 8 C9 8 7 8 6 8 C3 7 3 7 -2 4 C-1 3 -1 1 0 0 Z " fill="#D8DAE2" transform="translate(193,375)"/>
<path d="M0 0 C3 -1 3 -1 6 -0 C7 -1 7 -1 9 -1 C10 -0 11 -0 12 0 C13 1 13 3 14 4 C20 4 20 4 25 4 C25 5 25 5 25 6 C21 10 21 10 18 10 C17 11 17 13 16 14 C12 15 12 15 8 14 C7 15 5 15 4 15 C3 14 3 14 0 14 C-1 13 -1 11 -2 10 C-3 10 -4 9 -5 9 C-5 7 -4 6 -4 4 C-3 4 -3 4 -2 4 C-1 3 -1 1 0 0 Z " fill="#DDDEE4" transform="translate(270,549)"/>
<path d="M0 0 C0 1 0 2 0 3 C0 7 1 11 1 15 C1 16 1 18 1 19 C2 27 3 35 4 43 C4 45 4 48 4 50 C2 50 0 49 -2 49 C-2 48 -2 47 -2 46 C-3 46 -3 45 -4 45 C-4 44 -3 44 -3 43 C-3 36 -4 31 -6 25 C-7 17 -7 9 -5 2 C-1 0 -1 0 0 0 Z " fill="#D8DAE2" transform="translate(321,269)"/>
<path d="M0 0 C1 4 1 4 0 7 C-1 7 -3 8 -4 8 C-4 9 -4 10 -4 11 C-5 11 -5 11 -6 11 C-7 12 -7 14 -8 15 C-9 15 -9 15 -10 15 C-11 16 -11 18 -12 19 C-17 18 -17 18 -21 14 C-21 12 -20 11 -20 9 C-19 9 -19 8 -18 8 C-18 7 -18 6 -18 5 C-18 3 -17 2 -17 1 C-11 -1 -6 -2 0 0 Z " fill="#B8BCC8" transform="translate(66,344)"/>
<path d="M0 0 C6 0 6 0 8 2 C8 6 8 6 6 10 C3 11 3 11 -1 11 C-3 11 -4 11 -6 11 C-7 11 -9 11 -11 11 C-11 11 -11 11 -16 11 C-20 11 -24 10 -28 10 C-26 5 -26 5 -24 3 C-20 3 -16 3 -12 4 C-7 3 -6 0 0 0 Z " fill="#C6C8D3" transform="translate(342.5,400.6875)"/>
<path d="M0 0 C1 1 1 3 2 4 C3 4 4 4 5 4 C5 5 5 6 5 7 C5 8 5 8 5 11 C6 11 8 12 9 12 C9 14 9 14 7 16 C3 19 1 19 -4 18 C-5 17 -5 15 -6 14 C-7 14 -8 14 -9 14 C-9 13 -9 12 -9 11 C-9 10 -9 10 -9 7 C-10 7 -12 6 -13 6 C-13 4 -13 4 -11 2 C-7 -1 -5 -1 0 0 Z " fill="#DBDDE4" transform="translate(442,369)"/>
<path d="M0 0 C0 0 1 0 1 0 C1 2 1 4 1 6 C0 6 -1 6 -2 6 C-3 6 -4 6 -5 6 C-6 6 -6 6 -9 6 C-10 6 -11 6 -12 6 C-13 8 -14 9 -15 11 C-17 13 -19 14 -21 16 C-22 17 -22 18 -23 19 C-24 19 -24 19 -25 19 C-25 20 -26 22 -26 23 C-27 23 -28 22 -29 22 C-29 21 -29 19 -29 18 C-31 18 -33 17 -35 17 C-35 16 -35 15 -35 14 C-34 14 -32 13 -31 13 C-31 11 -31 9 -31 7 C-32 7 -33 7 -34 7 C-38 6 -38 6 -41 5 C-39 3 -39 3 -36 3 C-35 3 -35 3 -32 3 C-32 3 -32 3 -29 3 C-28 3 -27 3 -26 3 C-26 5 -25 8 -25 10 C-24 10 -22 10 -21 10 C-20 9 -20 8 -19 7 C-18 7 -18 7 -17 7 C-16 6 -16 4 -15 3 C-12 2 -12 2 -8 2 C-6 2 -3 2 -1 2 C-1 1 -0 1 0 0 Z " fill="#E5E6EB" transform="translate(97,338)"/>
<path d="M0 0 C0 0 0 0 2 2 C2 3 3 4 4 5 C5 6 6 7 6 8 C9 11 9 11 14 14 C14 18 14 18 13 22 C12 23 11 23 10 24 C4 21 -1 16 -5 10 C-5 6 -5 6 -4 3 C-3 2 -1 1 0 0 Z " fill="#ADB1BE" transform="translate(146,343)"/>
<path d="M0 0 C2 0 3 1 5 1 C7 5 7 9 7 14 C7 16 7 17 6 18 C6 20 6 21 6 22 C6 25 6 28 5 31 C5 32 5 33 5 35 C5 38 5 38 6 41 C6 42 6 43 6 44 C2 46 2 46 -1 46 C-1 45 -1 44 -1 43 C0 38 0 34 0 29 C0 27 0 26 0 24 C0 22 0 20 0 18 C0 17 0 15 0 13 C0 9 0 4 0 0 Z " fill="#D8DAE2" transform="translate(155,262)"/>
<path d="M0 0 C4 -1 8 -1 13 -0 C14 -0 15 -0 16 -0 C19 -0 22 -0 25 0 C25 2 24 3 24 5 C25 5 25 6 26 6 C22 6 17 6 13 6 C13 7 13 7 13 8 C12 8 11 9 10 9 C7 11 7 11 5 16 C4 16 2 15 1 15 C1 14 0 12 0 11 C-1 10 -2 8 -3 7 C-2 3 -2 3 0 0 Z " fill="#B4B7C4" transform="translate(52,401)"/>
<path d="M0 0 C3 3 5 5 7 8 C7 10 6 11 6 13 C3 14 0 14 -3 14 C-4 14 -5 14 -7 14 C-10 14 -10 14 -15 12 C-7 -2 -7 -2 0 0 Z " fill="#C2C5D1" transform="translate(176,69)"/>
<path d="M0 0 C1 0 1 0 2 0 C2 2 2 3 3 5 C8 35 8 35 12 44 C12 46 11 47 11 49 C10 49 10 49 9 49 C9 47 9 46 9 44 C8 44 6 44 5 44 C5 42 6 41 6 39 C6 38 6 38 5 34 C3 34 2 33 0 33 C0 31 0 30 1 28 C1 22 1 22 -1 19 C-4 14 -3 10 -2 5 C-1 3 -1 2 0 0 Z " fill="#D8DAE2" transform="translate(342,168)"/>
<path d="M0 0 C4 0 4 0 7 3 C7 3 8 4 8 5 C7 7 6 9 5 10 C5 10 4 10 3 10 C4 11 4 12 4 13 C3 14 2 14 1 14 C1 16 -0 17 -1 18 C-1 18 -2 18 -3 18 C-3 19 -3 20 -3 20 C-6 22 -6 22 -9 22 C-9 23 -9 23 -11 27 C-14 28 -14 28 -17 28 C-16 25 -16 25 -14 20 C-11 19 -8 17 -5 15 C-2 11 -3 10 -4 5 C-4 4 -4 3 -5 1 C-4 0 -4 0 0 0 Z " fill="#D0D2DB" transform="translate(272.8125,171.625)"/>
<path d="M0 0 C1 1 3 1 4 2 C4 3 5 5 5 6 C6 6 6 6 7 6 C9 15 9 15 6 20 C3 22 3 22 -1 23 C-1 24 -2 26 -2 27 C-3 27 -3 27 -4 27 C-6 24 -5 21 -5 17 C-4 13 -4 13 -2 10 C-1 7 -0 3 0 0 Z " fill="#BABECB" transform="translate(144,120)"/>
<path d="M0 0 C5 0 10 0 15 -1 C18 -0 18 -0 21 1 C21 1 21 2 21 2 C19 2 17 3 15 3 C15 4 15 6 15 7 C4 7 -6 7 -17 7 C-9 -1 -9 -1 0 0 Z " fill="#E9EAEE" transform="translate(190,404)"/>
<path d="M0 0 C4 -0 4 -0 8 0 C9 1 9 3 10 4 C11 4 12 5 13 5 C13 7 12 8 12 10 C11 10 11 10 10 10 C9 11 9 13 8 14 C4 14 4 14 0 14 C-1 13 -1 11 -2 10 C-3 10 -4 9 -5 9 C-5 7 -4 6 -4 4 C-3 4 -3 4 -2 4 C-1 3 -1 1 0 0 Z " fill="#DCDEE4" transform="translate(166,549)"/>
<path d="M0 0 C1 0 2 1 3 1 C3 2 3 3 3 4 C4 4 5 5 6 5 C5 10 5 10 1 14 C-4 13 -4 13 -8 9 C-8 7 -7 6 -7 4 C-5 4 -3 4 -1 4 C-1 3 -0 1 0 0 Z " fill="#DEE0E6" transform="translate(309,549)"/>
</svg>
