<?xml version="1.0" encoding="UTF-8"?>
<!-- Generator: visioncortex VTracer 0.6.12 -->
<svg version="1.1" xmlns="http://www.w3.org/2000/svg" width="576" height="700">
<path d="M0 0 C4 -0 8 -1 12 -1 C14 -1 15 -1 16 -1 C19 -1 21 -1 24 -1 C28 -1 32 -1 36 -1 C39 -1 41 -1 44 -1 C45 -1 46 -1 47 -1 C51 -1 51 -1 56 0 C57 1 57 3 58 4 C62 4 62 4 67 4 C72 4 72 4 76 4 C77 5 77 7 78 8 C80 8 82 8 84 8 C85 9 85 11 86 12 C88 12 89 12 91 12 C93 12 94 12 96 12 C97 13 97 15 98 16 C100 16 102 16 104 16 C105 17 105 19 106 20 C108 20 110 20 112 20 C113 21 113 23 114 24 C115 24 115 24 118 26 C118 27 118 27 118 28 C119 28 119 28 122 30 C122 31 122 31 122 32 C123 33 125 33 126 34 C126 35 126 35 126 36 C128 36 130 36 132 36 C133 37 133 39 134 40 C135 41 137 41 138 42 C138 43 138 43 138 44 C139 45 141 45 142 46 C142 47 142 47 142 48 C143 49 145 49 146 50 C146 51 146 51 146 52 C147 52 148 52 149 52 C149 53 149 54 149 55 C150 59 150 59 154 62 C154 63 154 63 154 64 C155 64 156 64 157 64 C157 65 157 66 157 67 C158 71 158 71 162 74 C162 75 162 75 162 76 C163 76 164 76 165 76 C165 77 165 78 165 79 C166 81 166 82 166 83 C167 83 168 84 169 84 C169 86 170 89 170 91 C171 91 172 92 173 92 C173 96 174 99 174 103 C175 103 176 104 177 104 C177 106 178 109 178 111 C179 111 180 112 181 112 C181 116 182 120 182 124 C182 125 182 126 182 127 C183 127 184 128 185 128 C185 132 186 136 186 140 C186 141 186 142 186 143 C187 143 188 144 189 144 C189 149 189 154 190 159 C190 162 190 164 190 167 C191 167 192 168 193 168 C193 174 193 180 194 185 C194 189 194 192 194 195 C195 195 196 196 197 196 C197 199 197 199 197 203 C197 204 197 206 197 207 C197 210 198 213 198 216 C198 217 198 219 198 220 C198 221 198 223 198 224 C198 225 198 226 198 227 C199 227 200 228 201 228 C201 233 201 238 202 243 C202 246 202 248 202 251 C203 251 204 252 205 252 C205 256 206 260 206 264 C206 265 206 266 206 267 C207 267 208 268 209 268 C209 272 210 275 210 279 C211 279 212 280 213 280 C213 284 214 287 214 291 C215 291 216 292 217 292 C217 294 218 297 218 299 C219 299 220 300 221 300 C221 301 221 302 221 303 C222 307 222 307 226 310 C226 311 226 311 226 312 C227 312 228 312 229 312 C229 313 229 314 229 315 C229 316 229 316 230 319 C231 319 232 320 233 320 C233 322 234 325 234 327 C235 327 236 328 237 328 C237 330 238 333 238 335 C239 335 240 336 241 336 C241 340 242 343 242 347 C243 347 244 348 245 348 C245 352 246 355 246 359 C247 359 248 360 249 360 C249 365 249 370 250 375 C250 378 250 380 250 383 C251 383 252 384 253 384 C253 388 253 393 253 397 C253 398 253 399 253 401 C253 404 253 407 253 410 C252 410 251 411 250 411 C250 415 250 419 250 422 C249 426 249 430 249 434 C248 434 247 435 246 435 C246 437 246 439 246 440 C245 442 245 444 245 446 C244 446 243 447 242 447 C242 449 242 451 242 452 C241 454 241 456 241 458 C240 458 239 459 238 459 C237 463 237 463 237 466 C236 466 235 466 234 466 C233 467 233 469 232 470 C231 470 231 471 230 471 C230 473 229 476 229 478 C228 478 227 478 226 478 C225 479 225 481 224 482 C223 482 223 483 222 483 C222 485 221 488 221 490 C220 490 219 490 218 490 C217 491 217 493 216 494 C215 494 215 495 214 495 C214 499 214 499 214 503 C215 503 216 504 217 504 C217 505 217 506 217 507 C218 511 218 511 222 514 C222 515 222 515 222 516 C223 517 225 517 226 518 C226 519 226 519 226 520 C227 521 229 521 230 522 C230 523 230 523 230 524 C231 525 233 525 234 526 C234 527 234 527 234 528 C235 528 236 528 237 528 C237 529 237 530 237 531 C238 533 238 534 238 535 C239 535 240 536 241 536 C241 541 241 541 241 546 C240 546 239 546 238 546 C237 547 237 549 236 550 C235 550 235 550 234 550 C233 551 233 553 232 554 C231 554 231 554 230 554 C229 555 229 557 228 558 C225 558 225 558 221 558 C220 558 219 558 217 558 C214 558 212 558 209 558 C207 558 206 558 205 558 C204 558 204 558 201 558 C200 558 199 558 198 558 C197 559 197 561 196 562 C195 562 195 562 194 562 C193 563 193 565 192 566 C191 566 191 566 190 566 C189 567 189 569 188 570 C184 570 180 571 176 570 C175 571 174 571 173 571 C169 571 169 571 164 570 C163 569 163 567 162 566 C157 566 157 566 152 566 C151 566 151 566 146 567 C145 567 143 567 142 567 C142 568 142 570 142 571 C144 572 147 572 149 573 C149 574 150 575 150 576 C151 576 152 577 153 577 C153 578 154 578 154 579 C155 579 157 579 158 579 C159 578 159 577 160 576 C162 576 163 577 165 577 C165 578 166 579 166 580 C171 580 175 580 180 580 C183 580 185 580 188 580 C189 581 189 583 190 584 C194 584 197 584 201 584 C205 584 208 584 212 584 C213 585 213 587 214 588 C216 588 217 588 219 588 C221 588 222 588 224 588 C225 589 225 591 226 592 C227 592 228 593 229 593 C229 595 228 596 228 598 C226 598 224 598 222 598 C221 599 221 601 220 602 C217 602 213 602 210 602 C209 603 209 605 208 606 C203 606 199 606 194 606 C193 606 193 606 190 606 C189 607 189 609 188 610 C185 610 185 610 180 610 C179 610 177 610 176 610 C173 610 169 610 166 610 C165 610 163 610 162 610 C161 610 161 610 157 610 C156 610 155 610 154 610 C153 611 153 613 152 614 C148 614 145 614 141 614 C140 614 139 614 138 614 C133 614 128 614 123 614 C120 614 117 614 113 614 C112 614 111 614 110 614 C107 614 107 614 102 614 C101 615 101 617 100 618 C97 619 97 619 94 619 C92 619 91 619 89 619 C88 619 86 619 85 619 C84 619 84 619 80 619 C75 619 69 619 64 619 C60 619 57 619 53 619 C45 619 38 619 30 619 C20 618 10 619 0 619 C-7 619 -15 619 -23 619 C-26 619 -30 619 -33 619 C-39 619 -44 619 -49 619 C-50 619 -50 619 -53 619 C-55 619 -56 619 -58 619 C-59 619 -60 619 -61 619 C-62 618 -62 618 -64 618 C-65 617 -65 615 -66 614 C-69 614 -69 614 -74 614 C-75 614 -77 614 -78 614 C-80 614 -81 614 -83 614 C-86 614 -89 614 -92 614 C-94 614 -95 614 -97 614 C-98 614 -99 614 -100 614 C-101 613 -101 611 -102 610 C-105 610 -105 610 -110 610 C-111 610 -113 610 -114 610 C-116 610 -117 610 -119 610 C-122 610 -125 610 -128 610 C-130 610 -131 610 -133 610 C-134 610 -135 610 -136 610 C-137 609 -137 607 -138 606 C-142 606 -142 606 -147 606 C-152 606 -152 606 -156 606 C-157 605 -157 603 -158 602 C-160 602 -162 602 -164 602 C-165 601 -165 599 -166 598 C-168 598 -170 598 -172 598 C-172 596 -173 595 -173 593 C-172 593 -171 592 -170 592 C-169 591 -169 589 -168 588 C-165 588 -161 588 -158 588 C-157 587 -157 585 -156 584 C-151 584 -147 584 -142 584 C-141 584 -141 584 -138 584 C-137 583 -137 581 -136 580 C-133 580 -133 580 -128 580 C-127 580 -125 580 -124 580 C-121 580 -117 580 -114 580 C-113 580 -111 580 -110 580 C-109 580 -109 580 -105 580 C-104 580 -103 580 -102 580 C-101 579 -101 577 -100 576 C-98 576 -96 576 -94 576 C-93 575 -93 573 -92 572 C-90 572 -88 572 -86 572 C-85 571 -85 569 -84 568 C-81 567 -81 567 -77 567 C-76 567 -74 567 -73 567 C-72 567 -71 567 -70 567 C-70 564 -70 562 -70 559 C-71 559 -72 559 -73 559 C-75 558 -76 558 -77 558 C-77 557 -78 556 -78 555 C-79 555 -80 554 -82 554 C-83 554 -84 553 -85 553 C-85 553 -85 553 -86 550 C-88 550 -90 550 -92 550 C-93 549 -93 547 -94 546 C-96 546 -98 546 -100 546 C-101 545 -101 543 -102 542 C-103 541 -105 541 -106 540 C-106 539 -106 539 -106 538 C-108 538 -110 538 -112 538 C-113 537 -113 535 -114 534 C-115 533 -117 533 -118 532 C-118 531 -118 531 -118 530 C-119 529 -121 529 -122 528 C-122 527 -122 527 -122 526 C-126 526 -129 527 -133 527 C-134 528 -134 529 -135 530 C-136 530 -137 529 -138 529 C-138 528 -139 528 -139 527 C-140 527 -142 527 -143 527 C-145 526 -146 526 -148 526 C-149 525 -149 523 -150 522 C-151 521 -153 521 -154 520 C-154 519 -154 519 -154 518 C-155 518 -156 518 -157 518 C-157 517 -157 517 -157 515 C-157 513 -158 512 -158 511 C-162 510 -165 510 -169 510 C-169 510 -169 510 -172 510 C-172 509 -172 509 -174 506 C-176 506 -178 506 -180 506 C-180 505 -180 505 -182 502 C-183 501 -185 501 -186 500 C-186 499 -186 499 -186 498 C-187 497 -189 497 -190 496 C-190 495 -190 495 -190 494 C-191 494 -192 494 -193 494 C-193 493 -193 492 -193 491 C-194 489 -194 488 -194 487 C-195 487 -196 486 -197 486 C-197 484 -198 481 -198 479 C-199 479 -200 478 -201 478 C-201 476 -202 473 -202 471 C-203 471 -204 470 -205 470 C-205 466 -206 463 -206 459 C-207 459 -208 458 -209 458 C-209 454 -210 450 -210 446 C-210 445 -210 444 -210 443 C-211 443 -212 442 -213 442 C-213 438 -213 434 -213 430 C-213 429 -213 428 -213 427 C-213 424 -213 421 -213 419 C-213 415 -213 411 -213 407 C-213 405 -213 402 -213 400 C-213 399 -213 398 -213 396 C-213 394 -213 391 -213 388 C-212 388 -211 387 -210 387 C-210 384 -210 384 -210 380 C-209 375 -209 375 -209 372 C-208 372 -207 371 -206 371 C-206 369 -206 367 -206 366 C-205 364 -205 362 -205 360 C-204 360 -203 359 -202 359 C-202 357 -202 355 -202 354 C-201 352 -201 350 -201 348 C-200 348 -199 347 -198 347 C-198 346 -198 345 -198 344 C-197 342 -197 341 -197 340 C-196 340 -195 339 -194 339 C-194 338 -194 337 -194 336 C-193 334 -193 333 -193 332 C-192 332 -191 331 -190 331 C-189 327 -189 327 -189 324 C-188 324 -187 324 -186 324 C-186 323 -186 323 -184 320 C-183 320 -183 319 -182 319 C-182 317 -181 314 -181 312 C-180 312 -179 312 -178 312 C-177 311 -177 309 -176 308 C-175 308 -175 308 -174 308 C-173 307 -173 305 -172 304 C-171 304 -171 304 -170 304 C-169 303 -169 301 -168 300 C-167 300 -167 299 -166 299 C-166 298 -166 297 -166 296 C-165 294 -165 293 -165 292 C-164 292 -163 291 -162 291 C-162 289 -162 287 -162 286 C-161 284 -161 282 -161 280 C-160 280 -159 279 -158 279 C-158 277 -158 275 -158 274 C-157 272 -157 270 -157 268 C-156 268 -155 267 -154 267 C-154 264 -154 264 -154 260 C-153 255 -153 255 -153 252 C-152 252 -151 251 -150 251 C-150 247 -150 247 -150 242 C-149 236 -149 236 -149 232 C-148 232 -147 231 -146 231 C-146 227 -146 223 -146 220 C-145 216 -145 212 -145 208 C-144 208 -143 207 -142 207 C-142 203 -142 199 -142 196 C-141 192 -141 188 -141 184 C-140 184 -139 183 -138 183 C-138 179 -138 175 -138 172 C-137 168 -137 164 -137 160 C-136 160 -135 159 -134 159 C-134 156 -134 156 -134 152 C-133 147 -133 147 -133 144 C-132 144 -131 143 -130 143 C-130 140 -130 140 -130 136 C-129 131 -129 131 -129 128 C-128 128 -127 127 -126 127 C-126 125 -126 123 -126 122 C-125 120 -125 118 -125 116 C-124 116 -123 115 -122 115 C-122 113 -122 111 -122 110 C-121 108 -121 106 -121 104 C-120 104 -119 103 -118 103 C-118 102 -118 101 -118 100 C-117 98 -117 97 -117 96 C-116 96 -115 95 -114 95 C-114 94 -114 93 -114 92 C-113 90 -113 89 -113 88 C-112 88 -111 87 -110 87 C-110 86 -110 85 -110 84 C-109 82 -109 81 -109 80 C-108 80 -107 79 -106 79 C-106 78 -106 77 -106 76 C-105 74 -105 73 -105 72 C-104 72 -103 71 -102 71 C-101 67 -101 67 -101 64 C-100 64 -99 64 -98 64 C-97 63 -97 61 -96 60 C-95 60 -95 60 -94 60 C-93 59 -93 57 -92 56 C-91 56 -91 55 -90 55 C-90 53 -89 50 -89 48 C-88 48 -87 48 -86 48 C-85 47 -85 45 -84 44 C-83 44 -83 44 -82 44 C-81 43 -81 41 -80 40 C-78 40 -76 40 -74 40 C-73 39 -73 37 -72 36 C-71 36 -71 36 -70 36 C-69 35 -69 33 -68 32 C-67 32 -67 32 -66 32 C-65 31 -65 29 -64 28 C-63 28 -63 28 -62 28 C-61 27 -61 25 -60 24 C-58 24 -56 24 -54 24 C-53 23 -53 21 -52 20 C-51 20 -51 20 -50 20 C-49 19 -49 17 -48 16 C-46 16 -44 16 -42 16 C-41 15 -41 13 -40 12 C-38 12 -36 12 -34 12 C-33 11 -33 9 -32 8 C-29 8 -25 8 -22 8 C-21 7 -21 5 -20 4 C-15 4 -11 4 -6 4 C-5 4 -3 4 -2 4 C-1 3 -1 1 0 0 Z " fill="#C8CAD4" transform="translate(238,57)"/>
<path d="M0 0 C1 0 1 0 4 1 C41 12 67 34 86 67 C86 68 86 68 88 70 C103 96 109 127 113 156 C113 160 113 163 114 166 C114 167 114 167 114 171 C115 177 116 182 117 187 C117 191 118 196 118 201 C119 206 120 211 121 216 C121 219 121 222 122 225 C124 242 129 259 135 275 C137 280 137 283 137 288 C139 292 139 292 143 294 C159 305 166 333 170 351 C172 359 172 368 172 377 C172 378 172 379 172 381 C173 408 162 431 144 451 C132 463 120 469 105 476 C104 476 104 476 100 478 C81 485 50 483 32 476 C31 476 30 475 29 475 C19 471 8 466 0 458 C0 456 0 454 0 452 C0 452 0 452 -1 447 C-5 446 -8 445 -12 445 C-22 443 -29 436 -35 428 C-39 421 -40 416 -40 409 C-40 408 -40 408 -40 405 C-40 405 -40 405 -40 402 C-39 402 -38 401 -37 401 C-37 400 -37 400 -37 399 C-34 398 -34 398 -28 400 C-27 400 -27 400 -23 401 C-23 400 -22 400 -22 399 C-21 400 -19 402 -18 403 C-17 403 -17 404 -16 404 C-16 403 -15 401 -15 400 C-18 398 -18 398 -21 396 C-32 390 -40 384 -47 374 C-48 373 -49 372 -50 371 C-52 364 -53 355 -50 348 C-47 344 -45 342 -41 339 C-34 339 -30 341 -25 344 C-24 344 -22 345 -21 345 C-20 342 -20 342 -20 339 C-22 336 -22 336 -25 334 C-38 322 -48 306 -48 288 C-48 281 -48 279 -45 274 C-39 269 -35 270 -28 270 C-16 273 -7 280 3 289 C6 292 10 295 13 298 C16 300 19 303 21 305 C57 339 57 339 77 339 C82 338 87 337 92 335 C93 330 93 330 93 325 C92 325 90 326 88 326 C73 329 62 323 50 315 C46 312 43 310 39 307 C39 307 39 307 36 305 C34 303 32 301 30 298 C23 289 14 283 5 276 C4 275 2 274 1 273 C-0 272 -1 271 -3 271 C-3 270 -4 269 -5 268 C-5 265 -5 265 -4 262 C-5 262 -7 263 -8 263 C-8 262 -7 260 -7 259 C-2 256 3 254 8 252 C12 251 15 249 18 246 C19 245 21 244 22 243 C27 239 31 236 34 230 C34 225 34 222 32 218 C33 218 34 219 36 219 C48 221 57 222 68 215 C78 208 83 202 87 190 C88 184 88 179 88 173 C88 171 88 170 88 169 C88 157 86 146 80 136 C79 136 79 136 78 134 C74 128 70 125 64 121 C63 120 62 120 60 119 C54 115 48 115 40 117 C28 121 18 128 11 140 C9 145 7 150 7 156 C6 156 6 156 5 156 C3 152 2 147 1 143 C-2 142 -4 142 -8 143 C-9 144 -10 144 -11 145 C-26 150 -26 150 -33 147 C-37 146 -39 146 -43 147 C-46 147 -46 147 -49 147 C-51 142 -51 142 -53 137 C-58 133 -64 133 -71 132 C-72 132 -73 132 -74 132 C-78 131 -82 131 -86 132 C-86 137 -86 141 -85 145 C-85 149 -85 149 -87 152 C-92 150 -92 150 -95 148 C-99 148 -99 148 -102 148 C-104 151 -104 151 -105 156 C-106 161 -106 161 -108 164 C-112 165 -114 165 -118 164 C-121 160 -122 158 -123 153 C-124 150 -124 150 -125 147 C-131 144 -139 147 -145 149 C-146 150 -147 150 -148 151 C-149 155 -149 159 -149 163 C-149 165 -149 166 -149 168 C-150 182 -148 192 -139 203 C-131 209 -124 211 -115 210 C-111 209 -108 207 -104 206 C-103 206 -103 206 -102 206 C-102 208 -102 209 -102 211 C-108 217 -113 219 -121 219 C-130 219 -137 218 -145 214 C-145 213 -145 213 -148 212 C-149 212 -150 213 -151 213 C-160 217 -171 215 -180 211 C-183 210 -186 208 -189 206 C-189 205 -189 205 -190 202 C-189 202 -189 202 -188 202 C-188 200 -189 199 -189 197 C-190 197 -190 197 -191 197 C-191 198 -191 199 -191 200 C-189 210 -190 214 -196 222 C-195 222 -194 223 -193 223 C-193 225 -193 226 -193 228 C-194 228 -195 228 -196 228 C-197 228 -198 229 -199 229 C-200 233 -200 233 -200 239 C-200 249 -200 249 -202 254 C-202 255 -203 256 -203 258 C-204 263 -207 267 -209 272 C-210 275 -211 277 -212 280 C-213 282 -213 283 -214 285 C-215 285 -215 285 -216 285 C-217 280 -216 277 -214 272 C-211 263 -208 254 -206 245 C-206 244 -205 243 -205 241 C-199 222 -197 201 -194 181 C-190 154 -190 154 -187 144 C-187 142 -186 139 -186 137 C-182 117 -176 97 -167 78 C-166 77 -166 76 -165 75 C-162 67 -157 60 -152 53 C-151 52 -151 51 -150 51 C-128 23 -103 6 -68 -2 C-67 -2 -65 -3 -64 -3 C-43 -6 -20 -5 0 0 Z " fill="#C8CAD4" transform="translate(304,75)"/>
<path d="M0 0 C4 -0 8 -1 12 -1 C14 -1 15 -1 16 -1 C19 -1 21 -1 24 -1 C28 -1 32 -1 36 -1 C39 -1 41 -1 44 -1 C45 -1 46 -1 47 -1 C51 -1 51 -1 56 0 C57 1 57 3 58 4 C62 4 62 4 67 4 C72 4 72 4 76 4 C77 5 77 7 78 8 C80 8 82 8 84 8 C85 9 85 11 86 12 C88 12 89 12 91 12 C93 12 94 12 96 12 C97 13 97 15 98 16 C100 16 102 16 104 16 C105 17 105 19 106 20 C108 20 110 20 112 20 C113 21 113 23 114 24 C115 24 115 24 118 26 C118 27 118 27 118 28 C119 28 119 28 122 30 C122 31 122 31 122 32 C123 33 125 33 126 34 C126 35 126 35 126 36 C128 36 130 36 132 36 C133 37 133 39 134 40 C135 41 137 41 138 42 C138 43 138 43 138 44 C139 45 141 45 142 46 C142 47 142 47 142 48 C143 49 145 49 146 50 C146 51 146 51 146 52 C147 52 148 52 149 52 C149 53 149 54 149 55 C150 59 150 59 154 62 C154 63 154 63 154 64 C155 64 156 64 157 64 C157 65 157 66 157 67 C158 71 158 71 162 74 C162 75 162 75 162 76 C163 76 164 76 165 76 C165 77 165 78 165 79 C166 81 166 82 166 83 C167 83 168 84 169 84 C169 86 170 89 170 91 C171 91 172 92 173 92 C173 96 174 99 174 103 C175 103 176 104 177 104 C177 106 178 109 178 111 C179 111 180 112 181 112 C181 116 182 120 182 124 C182 125 182 126 182 127 C183 127 184 128 185 128 C185 132 186 136 186 140 C186 141 186 142 186 143 C187 143 188 144 189 144 C189 149 189 154 190 159 C190 162 190 164 190 167 C191 167 192 168 193 168 C193 174 193 180 194 185 C194 189 194 192 194 195 C195 195 196 196 197 196 C197 199 197 199 197 203 C197 204 197 206 197 207 C197 210 198 213 198 216 C198 217 198 219 198 220 C198 221 198 223 198 224 C198 225 198 226 198 227 C199 227 200 228 201 228 C201 233 201 238 202 243 C202 246 202 248 202 251 C203 251 204 252 205 252 C205 256 206 260 206 264 C206 265 206 266 206 267 C207 267 208 268 209 268 C209 272 210 275 210 279 C211 279 212 280 213 280 C213 284 214 287 214 291 C215 291 216 292 217 292 C217 294 218 297 218 299 C219 299 220 300 221 300 C221 301 221 302 221 303 C222 307 222 307 226 310 C226 311 226 311 226 312 C227 312 228 312 229 312 C229 313 229 314 229 315 C229 316 229 316 230 319 C231 319 232 320 233 320 C233 322 234 325 234 327 C235 327 236 328 237 328 C237 330 238 333 238 335 C239 335 240 336 241 336 C241 340 242 343 242 347 C243 347 244 348 245 348 C245 352 246 355 246 359 C247 359 248 360 249 360 C249 365 249 370 250 375 C250 378 250 380 250 383 C251 383 252 384 253 384 C253 388 253 393 253 397 C253 398 253 399 253 401 C253 404 253 407 253 410 C252 410 251 411 250 411 C250 415 250 419 250 422 C249 426 249 430 249 434 C248 434 247 435 246 435 C246 437 246 439 246 440 C245 442 245 444 245 446 C244 446 243 447 242 447 C242 449 242 451 242 452 C241 454 241 456 241 458 C240 458 239 459 238 459 C237 463 237 463 237 466 C236 466 235 466 234 466 C233 467 233 469 232 470 C231 470 231 471 230 471 C230 473 229 476 229 478 C228 478 227 478 226 478 C225 479 225 481 224 482 C223 482 223 483 222 483 C222 485 221 488 221 490 C220 490 219 490 218 490 C217 491 217 493 216 494 C215 494 215 495 214 495 C214 499 214 499 214 503 C215 503 216 504 217 504 C217 505 217 506 217 507 C218 511 218 511 222 514 C222 515 222 515 222 516 C223 517 225 517 226 518 C226 519 226 519 226 520 C227 521 229 521 230 522 C230 523 230 523 230 524 C231 525 233 525 234 526 C234 527 234 527 234 528 C235 528 236 528 237 528 C237 529 237 530 237 531 C238 533 238 534 238 535 C239 535 240 536 241 536 C241 541 241 541 241 546 C240 546 239 546 238 546 C237 547 237 549 236 550 C235 550 235 550 234 550 C233 551 233 553 232 554 C231 554 231 554 230 554 C229 555 229 557 228 558 C225 558 225 558 221 558 C220 558 219 558 217 558 C214 558 212 558 209 558 C207 558 206 558 205 558 C204 558 204 558 201 558 C200 558 199 558 198 558 C197 559 197 561 196 562 C195 562 195 562 194 562 C193 563 193 565 192 566 C191 566 191 566 190 566 C189 567 189 569 188 570 C184 570 180 571 176 570 C175 571 174 571 173 571 C169 571 169 571 164 570 C163 569 163 567 162 566 C157 566 157 566 152 566 C151 566 151 566 146 567 C145 567 143 567 142 567 C142 568 142 570 142 571 C144 572 147 572 149 573 C149 574 150 575 150 576 C151 576 152 577 153 577 C153 578 154 578 154 579 C155 579 157 579 158 579 C159 578 159 577 160 576 C162 576 163 577 165 577 C165 578 166 579 166 580 C171 580 175 580 180 580 C183 580 185 580 188 580 C189 581 189 583 190 584 C194 584 197 584 201 584 C205 584 208 584 212 584 C213 585 213 587 214 588 C216 588 217 588 219 588 C221 588 222 588 224 588 C225 589 225 591 226 592 C227 592 228 593 229 593 C229 595 228 596 228 598 C226 598 224 598 222 598 C221 599 221 601 220 602 C217 602 213 602 210 602 C209 603 209 605 208 606 C203 606 199 606 194 606 C193 606 193 606 190 606 C189 607 189 609 188 610 C185 610 185 610 180 610 C179 610 177 610 176 610 C173 610 169 610 166 610 C165 610 163 610 162 610 C161 610 161 610 157 610 C156 610 155 610 154 610 C153 611 153 613 152 614 C148 614 145 614 141 614 C140 614 139 614 138 614 C133 614 128 614 123 614 C120 614 117 614 113 614 C112 614 111 614 110 614 C107 614 107 614 102 614 C101 615 101 617 100 618 C97 619 97 619 94 619 C92 619 91 619 89 619 C88 619 86 619 85 619 C84 619 84 619 80 619 C75 619 69 619 64 619 C60 619 57 619 53 619 C45 619 38 619 30 619 C20 618 10 619 0 619 C-7 619 -15 619 -23 619 C-26 619 -30 619 -33 619 C-39 619 -44 619 -49 619 C-50 619 -50 619 -53 619 C-55 619 -56 619 -58 619 C-59 619 -60 619 -61 619 C-62 618 -62 618 -64 618 C-65 617 -65 615 -66 614 C-69 614 -69 614 -74 614 C-75 614 -77 614 -78 614 C-80 614 -81 614 -83 614 C-86 614 -89 614 -92 614 C-94 614 -95 614 -97 614 C-98 614 -99 614 -100 614 C-101 613 -101 611 -102 610 C-105 610 -105 610 -110 610 C-111 610 -113 610 -114 610 C-116 610 -117 610 -119 610 C-122 610 -125 610 -128 610 C-130 610 -131 610 -133 610 C-134 610 -135 610 -136 610 C-137 609 -137 607 -138 606 C-142 606 -142 606 -147 606 C-152 606 -152 606 -156 606 C-157 605 -157 603 -158 602 C-160 602 -162 602 -164 602 C-165 601 -165 599 -166 598 C-168 598 -170 598 -172 598 C-172 596 -173 595 -173 593 C-172 593 -171 592 -170 592 C-169 591 -169 589 -168 588 C-165 588 -161 588 -158 588 C-157 587 -157 585 -156 584 C-151 584 -147 584 -142 584 C-141 584 -141 584 -138 584 C-137 583 -137 581 -136 580 C-133 580 -133 580 -128 580 C-127 580 -125 580 -124 580 C-121 580 -117 580 -114 580 C-113 580 -111 580 -110 580 C-109 580 -109 580 -105 580 C-104 580 -103 580 -102 580 C-101 579 -101 577 -100 576 C-98 576 -96 576 -94 576 C-93 575 -93 573 -92 572 C-90 572 -88 572 -86 572 C-85 571 -85 569 -84 568 C-81 567 -81 567 -77 567 C-76 567 -74 567 -73 567 C-72 567 -71 567 -70 567 C-70 564 -70 562 -70 559 C-71 559 -72 559 -73 559 C-75 558 -76 558 -77 558 C-77 557 -78 556 -78 555 C-79 555 -80 554 -82 554 C-83 554 -84 553 -85 553 C-85 553 -85 553 -86 550 C-88 550 -90 550 -92 550 C-93 549 -93 547 -94 546 C-96 546 -98 546 -100 546 C-101 545 -101 543 -102 542 C-103 541 -105 541 -106 540 C-106 539 -106 539 -106 538 C-108 538 -110 538 -112 538 C-113 537 -113 535 -114 534 C-115 533 -117 533 -118 532 C-118 531 -118 531 -118 530 C-119 529 -121 529 -122 528 C-122 527 -122 527 -122 526 C-126 526 -129 527 -133 527 C-134 528 -134 529 -135 530 C-136 530 -137 529 -138 529 C-138 528 -139 528 -139 527 C-140 527 -142 527 -143 527 C-145 526 -146 526 -148 526 C-149 525 -149 523 -150 522 C-151 521 -153 521 -154 520 C-154 519 -154 519 -154 518 C-155 518 -156 518 -157 518 C-157 517 -157 517 -157 515 C-157 513 -158 512 -158 511 C-162 510 -165 510 -169 510 C-169 510 -169 510 -172 510 C-172 509 -172 509 -174 506 C-176 506 -178 506 -180 506 C-180 505 -180 505 -182 502 C-183 501 -185 501 -186 500 C-186 499 -186 499 -186 498 C-187 497 -189 497 -190 496 C-190 495 -190 495 -190 494 C-191 494 -192 494 -193 494 C-193 493 -193 492 -193 491 C-194 489 -194 488 -194 487 C-195 487 -196 486 -197 486 C-197 484 -198 481 -198 479 C-199 479 -200 478 -201 478 C-201 476 -202 473 -202 471 C-203 471 -204 470 -205 470 C-205 466 -206 463 -206 459 C-207 459 -208 458 -209 458 C-209 454 -210 450 -210 446 C-210 445 -210 444 -210 443 C-211 443 -212 442 -213 442 C-213 438 -213 434 -213 430 C-213 429 -213 428 -213 427 C-213 424 -213 421 -213 419 C-213 415 -213 411 -213 407 C-213 405 -213 402 -213 400 C-213 399 -213 398 -213 396 C-213 394 -213 391 -213 388 C-212 388 -211 387 -210 387 C-210 384 -210 384 -210 380 C-209 375 -209 375 -209 372 C-208 372 -207 371 -206 371 C-206 369 -206 367 -206 366 C-205 364 -205 362 -205 360 C-204 360 -203 359 -202 359 C-202 357 -202 355 -202 354 C-201 352 -201 350 -201 348 C-200 348 -199 347 -198 347 C-198 346 -198 345 -198 344 C-197 342 -197 341 -197 340 C-196 340 -195 339 -194 339 C-194 338 -194 337 -194 336 C-193 334 -193 333 -193 332 C-192 332 -191 331 -190 331 C-189 327 -189 327 -189 324 C-188 324 -187 324 -186 324 C-186 323 -186 323 -184 320 C-183 320 -183 319 -182 319 C-182 317 -181 314 -181 312 C-180 312 -179 312 -178 312 C-177 311 -177 309 -176 308 C-175 308 -175 308 -174 308 C-173 307 -173 305 -172 304 C-171 304 -171 304 -170 304 C-169 303 -169 301 -168 300 C-167 300 -167 299 -166 299 C-166 298 -166 297 -166 296 C-165 294 -165 293 -165 292 C-164 292 -163 291 -162 291 C-162 289 -162 287 -162 286 C-161 284 -161 282 -161 280 C-160 280 -159 279 -158 279 C-158 277 -158 275 -158 274 C-157 272 -157 270 -157 268 C-156 268 -155 267 -154 267 C-154 264 -154 264 -154 260 C-153 255 -153 255 -153 252 C-152 252 -151 251 -150 251 C-150 247 -150 247 -150 242 C-149 236 -149 236 -149 232 C-148 232 -147 231 -146 231 C-146 227 -146 223 -146 220 C-145 216 -145 212 -145 208 C-144 208 -143 207 -142 207 C-142 203 -142 199 -142 196 C-141 192 -141 188 -141 184 C-140 184 -139 183 -138 183 C-138 179 -138 175 -138 172 C-137 168 -137 164 -137 160 C-136 160 -135 159 -134 159 C-134 156 -134 156 -134 152 C-133 147 -133 147 -133 144 C-132 144 -131 143 -130 143 C-130 140 -130 140 -130 136 C-129 131 -129 131 -129 128 C-128 128 -127 127 -126 127 C-126 125 -126 123 -126 122 C-125 120 -125 118 -125 116 C-124 116 -123 115 -122 115 C-122 113 -122 111 -122 110 C-121 108 -121 106 -121 104 C-120 104 -119 103 -118 103 C-118 102 -118 101 -118 100 C-117 98 -117 97 -117 96 C-116 96 -115 95 -114 95 C-114 94 -114 93 -114 92 C-113 90 -113 89 -113 88 C-112 88 -111 87 -110 87 C-110 86 -110 85 -110 84 C-109 82 -109 81 -109 80 C-108 80 -107 79 -106 79 C-106 78 -106 77 -106 76 C-105 74 -105 73 -105 72 C-104 72 -103 71 -102 71 C-101 67 -101 67 -101 64 C-100 64 -99 64 -98 64 C-97 63 -97 61 -96 60 C-95 60 -95 60 -94 60 C-93 59 -93 57 -92 56 C-91 56 -91 55 -90 55 C-90 53 -89 50 -89 48 C-88 48 -87 48 -86 48 C-85 47 -85 45 -84 44 C-83 44 -83 44 -82 44 C-81 43 -81 41 -80 40 C-78 40 -76 40 -74 40 C-73 39 -73 37 -72 36 C-71 36 -71 36 -70 36 C-69 35 -69 33 -68 32 C-67 32 -67 32 -66 32 C-65 31 -65 29 -64 28 C-63 28 -63 28 -62 28 C-61 27 -61 25 -60 24 C-58 24 -56 24 -54 24 C-53 23 -53 21 -52 20 C-51 20 -51 20 -50 20 C-49 19 -49 17 -48 16 C-46 16 -44 16 -42 16 C-41 15 -41 13 -40 12 C-38 12 -36 12 -34 12 C-33 11 -33 9 -32 8 C-29 8 -25 8 -22 8 C-21 7 -21 5 -20 4 C-15 4 -11 4 -6 4 C-5 4 -3 4 -2 4 C-1 3 -1 1 0 0 Z M-27 24 C-28 24 -29 25 -30 25 C-44 31 -57 38 -67 49 C-68 50 -69 51 -70 52 C-75 57 -79 62 -83 67 C-84 68 -85 69 -85 70 C-93 80 -99 91 -104 103 C-105 106 -106 109 -107 112 C-115 129 -119 147 -122 165 C-122 167 -123 169 -123 171 C-125 180 -127 189 -128 198 C-128 199 -129 201 -129 203 C-130 211 -131 220 -133 229 C-136 251 -142 273 -150 294 C-151 298 -151 302 -151 306 C-153 309 -153 309 -156 311 C-156 312 -157 313 -157 314 C-158 314 -159 314 -160 315 C-172 319 -179 336 -184 347 C-196 372 -205 402 -198 430 C-198 433 -198 433 -198 436 C-198 456 -189 475 -178 490 C-177 491 -175 493 -174 494 C-169 494 -169 494 -167 492 C-165 489 -164 486 -163 483 C-163 481 -162 479 -162 477 C-161 477 -160 476 -159 476 C-159 477 -158 479 -158 480 C-151 506 -151 506 -141 514 C-138 515 -138 515 -135 515 C-129 510 -129 510 -127 507 C-127 505 -127 502 -127 500 C-127 498 -127 497 -127 495 C-127 494 -127 492 -127 490 C-127 489 -127 487 -127 486 C-127 482 -127 478 -127 474 C-128 474 -128 474 -129 474 C-129 470 -129 466 -129 462 C-128 462 -128 462 -127 462 C-127 460 -127 459 -127 457 C-127 445 -127 434 -124 423 C-124 421 -123 419 -123 416 C-123 416 -123 415 -122 414 C-121 406 -121 398 -121 389 C-121 388 -121 387 -121 386 C-121 383 -121 380 -121 378 C-121 374 -121 371 -120 368 C-116 366 -116 366 -113 366 C-109 388 -111 411 -114 433 C-114 434 -114 434 -114 437 C-115 440 -115 440 -116 443 C-117 447 -117 452 -117 456 C-117 458 -117 460 -117 462 C-117 467 -117 467 -116 471 C-116 476 -116 480 -116 485 C-116 486 -116 488 -116 490 C-116 493 -116 496 -117 500 C-117 512 -117 512 -113 518 C-112 519 -110 520 -109 521 C-108 522 -107 523 -105 524 C-74 546 -74 546 -60 545 C-59 544 -58 544 -57 543 C-50 543 -49 544 -44 547 C-38 552 -32 554 -24 556 C-20 556 -15 557 -11 558 C-2 560 6 560 15 560 C16 560 18 560 20 560 C82 561 82 561 100 548 C105 545 110 542 116 542 C119 543 121 545 124 546 C133 546 141 539 149 535 C150 534 152 533 153 533 C167 525 192 511 197 495 C193 496 190 498 186 499 C166 508 146 512 125 511 C124 511 123 511 122 511 C97 510 75 498 56 483 C55 482 54 481 52 480 C50 478 50 478 49 476 C48 476 48 476 47 476 C46 475 46 473 45 472 C43 470 41 468 39 467 C38 466 37 465 35 464 C33 462 30 459 28 457 C19 450 15 440 14 429 C14 424 14 419 15 414 C16 408 14 405 11 401 C4 390 2 380 5 367 C7 359 12 353 18 347 C18 341 17 339 14 334 C7 323 4 310 7 297 C8 289 6 286 2 280 C-2 275 -3 271 -3 264 C-3 259 -3 259 -7 255 C-8 254 -9 254 -10 253 C-13 251 -13 251 -15 247 C-16 237 -16 237 -13 233 C-11 230 -11 230 -8 227 C-4 224 -3 222 -1 218 C3 209 9 205 18 201 C27 198 34 200 42 204 C52 211 58 219 65 229 C66 230 67 231 68 232 C70 236 71 238 72 242 C71 247 71 247 70 252 C69 252 68 253 67 253 C66 254 65 255 64 256 C63 257 62 258 61 259 C60 263 60 263 59 267 C57 274 57 274 56 276 C56 278 56 280 56 282 C59 285 62 287 66 290 C91 309 91 309 96 317 C106 328 121 337 135 343 C136 343 137 344 138 344 C145 346 152 345 159 343 C159 349 159 349 158 353 C147 357 138 358 127 353 C115 348 105 340 96 331 C94 329 92 327 90 325 C87 323 85 321 82 318 C77 314 73 310 68 306 C67 305 66 304 65 303 C55 295 46 289 33 288 C27 288 24 290 20 294 C17 298 17 300 18 305 C18 306 18 306 18 310 C19 326 31 342 43 353 C46 357 46 357 46 360 C46 361 45 362 45 363 C36 359 36 359 31 357 C25 357 25 357 21 360 C16 365 15 370 14 377 C15 388 20 395 28 403 C33 408 39 412 46 415 C48 416 49 417 51 418 C51 419 50 421 50 422 C45 419 45 419 43 417 C43 418 43 418 43 419 C43 419 43 419 40 418 C39 418 38 418 37 417 C36 417 35 417 34 417 C31 416 31 416 29 417 C29 418 29 418 29 419 C28 419 27 420 26 420 C24 431 27 439 33 448 C39 455 46 463 56 463 C59 464 59 464 65 465 C66 470 66 470 66 476 C69 479 71 481 75 483 C76 484 77 484 78 485 C85 490 94 493 103 496 C107 497 107 497 109 498 C121 499 133 499 145 499 C147 499 150 499 152 499 C168 499 191 488 202 477 C203 476 204 475 205 474 C206 473 207 472 208 471 C209 470 211 468 212 467 C216 463 220 458 223 453 C224 452 224 452 226 448 C237 430 239 409 238 388 C238 387 238 387 238 384 C237 361 228 333 213 315 C209 312 209 312 205 310 C203 306 203 306 203 303 C203 296 201 291 198 285 C193 270 189 257 188 242 C187 235 186 229 185 222 C185 221 185 220 184 219 C184 213 183 207 182 201 C181 195 180 189 180 183 C179 181 179 179 179 177 C178 173 178 169 177 166 C172 128 160 89 134 60 C133 59 132 57 130 56 C129 55 128 53 127 52 C126 51 126 50 125 50 C105 27 70 16 40 14 C36 14 31 14 26 14 C26 14 26 14 22 14 C5 14 -11 18 -27 24 Z " fill="#0B0B0E" transform="translate(238,57)"/>
<path d="M0 0 C6 4 12 9 18 14 C21 17 25 20 28 23 C31 25 34 28 36 30 C72 64 72 64 92 64 C97 63 102 62 107 60 C108 55 108 55 108 51 C108 50 108 48 108 47 C109 47 110 46 111 46 C112 45 112 43 113 42 C116 38 118 34 122 31 C123 30 124 29 125 28 C128 24 132 21 136 18 C137 17 138 16 139 15 C142 12 144 11 148 10 C149 10 150 10 151 10 C152 12 153 15 154 17 C155 18 157 19 158 20 C173 29 180 54 184 71 C186 81 187 91 187 102 C187 103 187 104 187 106 C188 133 177 156 159 176 C147 188 135 194 120 201 C118 202 116 203 115 203 C96 210 65 208 47 201 C46 201 45 200 44 200 C34 196 23 191 15 183 C15 181 15 179 15 178 C15 176 14 174 14 172 C10 171 7 170 3 170 C-7 168 -14 161 -20 153 C-24 146 -25 141 -25 134 C-25 133 -25 131 -25 130 C-25 130 -25 130 -25 127 C-24 127 -23 126 -22 126 C-22 125 -22 125 -22 124 C-19 123 -19 123 -13 125 C-12 125 -10 126 -8 126 C-8 125 -7 125 -7 124 C-6 125 -4 127 -3 128 C-2 128 -2 129 -1 129 C-1 128 -0 126 0 125 C-3 123 -3 123 -6 121 C-17 115 -25 109 -32 99 C-33 98 -34 97 -34 96 C-37 89 -38 80 -35 73 C-32 69 -30 67 -26 64 C-19 64 -15 66 -10 69 C-9 69 -7 70 -6 70 C-5 67 -5 67 -5 64 C-7 61 -7 61 -10 59 C-23 47 -33 31 -34 13 C-33 6 -33 4 -30 -1 C-20 -8 -10 -5 0 0 Z " fill="#878D9F" transform="translate(289,350)"/>
<path d="M0 0 C1 1 1 2 2 2 C4 5 4 5 8 6 C22 12 31 35 37 48 C41 59 44 70 47 81 C47 82 48 84 48 85 C51 96 52 107 54 118 C54 122 54 125 55 128 C55 129 55 129 55 133 C56 139 57 144 58 149 C58 153 59 158 59 163 C60 168 61 173 62 178 C62 181 62 184 63 187 C65 204 70 221 77 237 C78 242 78 242 77 247 C73 249 73 249 69 250 C68 251 66 252 65 253 C64 253 64 253 63 253 C62 254 62 256 61 257 C59 259 57 260 54 262 C51 265 48 269 45 273 C45 273 45 273 42 276 C41 277 40 278 39 280 C37 283 37 283 35 284 C35 285 34 286 34 287 C22 290 12 289 1 283 C-6 279 -13 274 -20 269 C-20 269 -20 269 -23 267 C-25 265 -27 263 -29 260 C-36 251 -45 245 -54 238 C-55 237 -57 236 -58 235 C-59 234 -60 233 -62 233 C-62 232 -63 231 -64 230 C-64 227 -64 227 -63 224 C-64 224 -66 225 -67 225 C-67 224 -66 222 -66 221 C-61 218 -56 216 -51 214 C-47 213 -44 211 -41 208 C-40 207 -38 206 -37 205 C-32 201 -28 198 -25 192 C-25 187 -25 184 -27 180 C-26 180 -25 181 -23 181 C-11 183 -2 184 9 177 C19 170 24 164 28 152 C29 146 29 141 29 135 C29 134 29 134 29 131 C29 119 27 108 20 98 C20 98 19 97 19 96 C15 90 11 87 5 83 C4 82 3 82 1 81 C-5 77 -11 77 -18 79 C-23 80 -28 82 -32 84 C-34 80 -34 78 -35 74 C-35 73 -36 72 -36 71 C-39 70 -43 69 -46 68 C-49 67 -52 66 -55 65 C-58 64 -61 64 -65 64 C-66 64 -67 64 -69 64 C-72 64 -72 64 -75 67 C-79 67 -79 67 -83 68 C-84 68 -86 68 -87 68 C-92 67 -93 66 -96 62 C-97 60 -97 60 -97 54 C-97 53 -96 53 -96 52 C-96 46 -96 45 -100 41 C-101 39 -102 38 -103 36 C-101 32 -101 32 -99 31 C-94 31 -88 31 -83 30 C-78 30 -76 29 -72 27 C-69 27 -65 27 -62 26 C-59 26 -59 26 -56 23 C-56 22 -55 21 -55 20 C-54 15 -52 13 -48 11 C-41 10 -35 11 -29 12 C-27 11 -26 10 -24 9 C-21 8 -19 6 -16 5 C-13 4 -11 3 -8 2 C-4 0 -4 0 0 0 Z " fill="#C1C4CF" transform="translate(363,113)"/>
<path d="M0 0 C9 9 17 22 17 35 C18 40 18 44 18 48 C18 50 18 51 18 53 C18 65 16 76 7 85 C-1 92 -9 98 -20 98 C-26 98 -32 96 -38 95 C-37 97 -36 98 -36 100 C-36 108 -39 111 -45 117 C-49 120 -49 120 -53 123 C-53 123 -53 123 -57 126 C-62 129 -66 131 -72 133 C-73 134 -74 134 -75 135 C-76 135 -77 135 -78 135 C-78 136 -78 137 -78 138 C-77 138 -76 138 -75 138 C-74 139 -74 140 -74 141 C-74 142 -74 142 -75 143 C-79 142 -79 142 -81 140 C-81 134 -80 131 -78 126 C-77 124 -77 123 -77 121 C-75 116 -73 114 -69 110 C-68 110 -67 110 -67 110 C-65 104 -64 100 -66 94 C-69 90 -71 87 -75 83 C-76 81 -77 80 -78 78 C-85 69 -93 60 -105 58 C-116 57 -123 60 -132 66 C-135 71 -137 75 -140 80 C-142 84 -145 86 -149 88 C-149 82 -148 80 -145 76 C-145 75 -144 73 -143 72 C-143 72 -142 71 -142 70 C-141 70 -140 70 -140 70 C-139 68 -138 67 -138 65 C-137 64 -136 62 -135 61 C-134 57 -134 54 -136 50 C-140 46 -143 44 -149 42 C-149 44 -149 44 -148 54 C-148 53 -148 53 -149 52 C-149 52 -150 52 -151 52 C-150 53 -150 54 -150 56 C-150 63 -152 66 -156 72 C-158 74 -158 74 -161 76 C-162 77 -163 79 -164 80 C-168 84 -168 84 -173 87 C-173 85 -173 84 -173 82 C-174 82 -174 83 -175 83 C-184 87 -191 88 -200 85 C-211 80 -215 74 -220 63 C-223 52 -221 38 -220 27 C-214 22 -206 21 -199 21 C-196 22 -196 22 -194 24 C-193 27 -192 30 -191 33 C-191 35 -190 36 -190 38 C-185 40 -184 40 -180 39 C-177 36 -177 34 -176 31 C-175 25 -175 25 -173 23 C-166 22 -163 24 -158 28 C-157 22 -157 18 -158 12 C-157 11 -157 9 -157 8 C-151 5 -147 6 -141 7 C-140 7 -139 7 -138 7 C-132 8 -128 9 -123 13 C-122 15 -122 16 -121 18 C-121 19 -120 20 -120 22 C-116 23 -113 22 -110 21 C-106 21 -104 22 -101 23 C-96 23 -92 23 -87 21 C-86 21 -86 21 -83 20 C-80 19 -80 19 -77 18 C-74 17 -74 17 -70 19 C-67 24 -66 26 -66 32 C-65 32 -64 32 -64 32 C-64 31 -64 30 -64 29 C-63 17 -56 9 -48 1 C-32 -13 -17 -11 0 0 Z " fill="#C8CAD4" transform="translate(374.75,199.0625)"/>
<path d="M0 0 C6 4 12 9 18 14 C21 17 25 20 28 23 C31 25 34 28 36 30 C38 32 40 34 42 35 C42 36 42 36 45 38 C48 41 51 43 54 46 C58 49 59 50 60 55 C59 63 55 67 50 72 C48 75 46 77 45 80 C43 83 43 83 40 86 C37 90 37 94 36 100 C35 102 35 103 34 105 C33 116 33 130 39 139 C40 140 42 142 43 144 C47 149 48 156 49 162 C48 166 48 166 45 169 C42 171 42 171 38 173 C38 176 38 176 39 180 C42 182 45 183 48 185 C50 186 50 186 51 189 C54 189 56 190 59 190 C60 190 62 191 63 191 C81 195 97 194 115 192 C114 193 112 195 111 196 C112 196 114 197 115 197 C119 198 119 198 122 200 C114 204 106 206 97 206 C97 206 97 206 94 206 C60 206 60 206 47 201 C46 201 45 200 44 200 C34 196 23 191 15 183 C15 181 15 179 15 178 C15 176 14 174 14 172 C10 171 7 170 3 170 C-7 168 -14 161 -20 153 C-24 146 -25 141 -25 134 C-25 133 -25 131 -25 130 C-25 130 -25 130 -25 127 C-24 127 -23 126 -22 126 C-22 125 -22 125 -22 124 C-19 123 -19 123 -13 125 C-12 125 -10 126 -8 126 C-8 125 -7 125 -7 124 C-6 125 -4 127 -3 128 C-2 128 -2 129 -1 129 C-1 128 -0 126 0 125 C-3 123 -3 123 -6 121 C-17 115 -25 109 -32 99 C-33 98 -34 97 -34 96 C-37 89 -38 80 -35 73 C-32 69 -30 67 -26 64 C-19 64 -15 66 -10 69 C-9 69 -7 70 -6 70 C-5 67 -5 67 -5 64 C-7 61 -7 61 -10 59 C-23 47 -33 31 -34 13 C-33 6 -33 4 -30 -1 C-20 -8 -10 -5 0 0 Z " fill="#7E8498" transform="translate(289,350)"/>
<path d="M0 0 C10 3 17 11 22 20 C26 25 28 30 30 36 C30 37 31 38 31 39 C34 47 35 55 35 64 C33 64 32 65 30 65 C29 70 29 74 29 78 C29 81 29 84 29 86 C29 88 29 89 29 90 C29 102 27 114 25 126 C23 134 23 141 23 149 C23 151 23 153 23 155 C23 156 23 158 23 159 C22 159 22 159 21 159 C21 163 21 167 21 171 C22 171 22 171 23 171 C23 176 23 182 23 187 C23 189 23 190 24 192 C24 203 24 203 20 208 C17 211 17 211 12 212 C-2 203 -5 188 -9 173 C-10 173 -11 174 -12 174 C-13 177 -13 180 -14 183 C-15 187 -16 189 -19 191 C-24 191 -24 191 -28 188 C-35 178 -40 167 -44 156 C-45 155 -45 154 -46 152 C-48 145 -48 138 -48 131 C-48 127 -48 127 -49 123 C-57 90 -40 54 -25 26 C-21 21 -18 16 -13 12 C-11 12 -9 11 -7 11 C-7 10 -6 9 -6 8 C-4 6 -3 5 -1 3 C-1 2 -0 1 0 0 Z " fill="#888E9F" transform="translate(88,360)"/>
<path d="M0 0 C6 -1 13 0 19 1 C53 7 88 5 122 1 C121 6 121 6 119 8 C118 8 117 9 116 10 C110 13 110 13 108 16 C108 20 108 20 109 24 C113 27 114 27 120 27 C121 27 122 27 123 27 C126 27 126 27 129 26 C133 25 133 25 137 26 C141 30 141 30 145 34 C149 38 149 38 155 38 C160 38 160 38 162 36 C164 33 164 33 165 30 C166 29 166 28 167 27 C171 27 171 27 176 28 C184 29 184 29 188 28 C191 25 191 25 192 22 C192 18 192 18 191 15 C191 14 191 14 190 12 C191 11 193 9 194 8 C196 8 197 9 199 9 C199 10 200 11 200 12 C205 12 209 12 214 12 C217 12 219 12 222 12 C223 13 223 15 224 16 C228 16 231 16 235 16 C239 16 242 16 246 16 C247 17 247 19 248 20 C250 20 251 20 253 20 C255 20 256 20 258 20 C259 21 259 23 260 24 C261 24 262 25 263 25 C263 27 262 28 262 30 C260 30 258 30 256 30 C255 31 255 33 254 34 C251 34 247 34 244 34 C243 35 243 37 242 38 C237 38 233 38 228 38 C227 38 225 38 224 38 C223 39 223 41 222 42 C219 42 219 42 214 42 C213 42 211 42 210 42 C207 42 203 42 200 42 C199 42 197 42 196 42 C194 42 193 42 191 42 C190 42 189 42 188 42 C187 43 187 45 186 46 C182 46 179 46 175 46 C174 46 174 46 172 46 C167 46 162 46 157 46 C154 46 151 46 147 46 C146 46 145 46 144 46 C141 46 141 46 136 46 C135 47 135 49 134 50 C131 51 131 51 128 51 C126 51 125 51 123 51 C123 51 123 51 119 51 C117 51 116 51 114 51 C109 51 103 51 98 51 C94 51 91 51 87 51 C79 51 72 51 64 51 C54 50 44 51 34 51 C27 51 19 51 11 51 C8 51 4 51 1 51 C-5 51 -10 51 -15 51 C-16 51 -16 51 -19 51 C-21 51 -22 51 -24 51 C-25 51 -26 51 -27 51 C-28 50 -28 50 -30 50 C-30 49 -30 49 -32 46 C-35 46 -35 46 -40 46 C-41 46 -43 46 -44 46 C-46 46 -47 46 -49 46 C-52 46 -55 46 -58 46 C-60 46 -61 46 -63 46 C-64 46 -65 46 -66 46 C-66 45 -66 45 -68 42 C-71 42 -71 42 -76 42 C-77 42 -79 42 -80 42 C-82 42 -83 42 -85 42 C-88 42 -91 42 -94 42 C-96 42 -97 42 -99 42 C-99 42 -99 42 -102 42 C-103 41 -103 39 -104 38 C-108 38 -108 38 -113 38 C-118 38 -118 38 -122 38 C-123 37 -123 35 -124 34 C-126 34 -128 34 -130 34 C-131 33 -131 31 -132 30 C-134 30 -136 30 -138 30 C-138 29 -138 29 -139 25 C-138 25 -137 24 -136 24 C-135 23 -135 21 -134 20 C-131 20 -127 20 -124 20 C-123 19 -123 17 -122 16 C-117 16 -113 16 -108 16 C-107 16 -105 16 -104 16 C-103 15 -103 13 -102 12 C-99 12 -99 12 -94 12 C-93 12 -91 12 -90 12 C-87 12 -83 12 -80 12 C-79 12 -77 12 -76 12 C-74 12 -73 12 -71 12 C-70 12 -69 12 -68 12 C-67 11 -67 9 -66 8 C-65 8 -64 8 -63 8 C-63 9 -64 10 -64 11 C-65 11 -65 11 -66 11 C-68 17 -68 20 -66 26 C-59 30 -53 29 -45 27 C-42 30 -41 32 -39 35 C-37 38 -37 38 -34 39 C-26 39 -22 34 -16 29 C-12 25 -8 26 -3 26 C-2 26 -0 27 1 27 C9 27 9 27 14 25 C17 19 17 19 15 14 C12 11 8 9 4 7 C3 7 3 7 -1 4 C-1 3 -0 1 0 0 Z " fill="#DCDDE6" transform="translate(204,625)"/>
<path d="M0 0 C3 -1 3 -1 7 -1 C9 -1 10 -1 11 -1 C13 -1 14 -1 16 -0 C18 -1 19 -1 21 -1 C21 -1 21 -1 25 -1 C26 -1 26 -1 29 -1 C29 -0 29 -0 32 0 C32 1 32 1 34 4 C36 4 37 4 39 4 C41 4 42 4 44 4 C44 5 44 5 46 8 C47 9 49 9 50 10 C50 11 50 11 50 12 C52 12 54 12 56 12 C56 13 56 13 58 16 C59 16 60 16 61 16 C61 17 61 18 61 19 C62 21 62 22 62 23 C62 23 62 23 65 24 C65 26 66 29 66 31 C66 31 66 31 69 32 C69 36 69 36 69 40 C69 42 69 44 69 46 C69 47 69 49 69 51 C69 53 69 55 69 56 C69 58 69 60 69 62 C69 63 69 65 69 66 C69 68 69 69 69 70 C69 70 69 70 66 71 C65 75 65 75 65 78 C64 78 63 78 62 78 C62 79 62 79 60 82 C59 82 59 82 58 82 C58 83 58 83 56 86 C55 86 55 86 54 86 C54 87 54 87 52 90 C51 90 51 90 50 90 C50 91 50 91 48 94 C46 94 44 94 42 94 C42 95 42 95 40 98 C38 98 36 98 34 98 C34 99 34 99 32 102 C31 102 31 102 30 102 C29 103 29 105 28 106 C28 106 28 106 26 107 C26 109 26 111 26 112 C25 113 25 113 25 118 C24 118 23 119 22 119 C21 123 21 123 21 126 C18 126 14 126 11 126 C9 126 7 126 5 126 C3 126 2 126 0 126 C-1 125 -1 123 -2 122 C-3 122 -4 122 -5 122 C-5 118 -5 115 -5 111 C-5 110 -5 109 -5 108 C-5 105 -5 103 -5 100 C-5 100 -5 100 -2 99 C-1 95 -1 95 -1 92 C-0 92 1 92 2 92 C3 91 3 89 4 88 C5 88 5 88 6 88 C7 87 7 85 8 84 C9 84 9 84 10 84 C11 83 11 81 12 80 C14 80 16 80 18 80 C19 79 19 77 20 76 C21 76 21 76 22 76 C23 75 23 73 24 72 C26 72 28 72 30 72 C30 71 30 71 32 68 C33 68 33 67 34 67 C34 66 34 65 34 64 C35 63 35 63 35 60 C36 60 37 59 38 59 C38 55 38 55 38 51 C38 50 38 48 38 47 C38 46 38 46 38 43 C38 43 38 43 35 42 C35 41 35 40 35 39 C35 37 34 36 34 35 C30 34 30 34 27 33 C27 32 26 31 26 30 C22 30 22 30 16 30 C14 30 12 30 11 30 C10 30 10 30 6 30 C5 31 5 33 4 34 C3 34 3 34 2 34 C1 35 1 37 0 38 C-0 38 -0 38 -2 39 C-2 41 -3 44 -3 46 C-4 46 -5 46 -6 46 C-7 47 -7 49 -8 50 C-9 50 -9 50 -10 50 C-11 51 -11 53 -12 54 C-16 55 -16 55 -20 54 C-21 55 -23 55 -24 55 C-26 54 -27 54 -28 54 C-29 53 -29 51 -30 50 C-31 50 -32 50 -33 50 C-33 46 -33 43 -33 39 C-33 39 -33 39 -33 36 C-33 33 -33 31 -33 28 C-32 28 -31 27 -30 27 C-29 23 -29 23 -29 20 C-28 20 -27 20 -26 20 C-25 19 -25 17 -24 16 C-23 16 -23 16 -22 16 C-21 15 -21 13 -20 12 C-19 12 -19 12 -18 12 C-17 11 -17 9 -16 8 C-14 8 -12 8 -10 8 C-9 7 -9 5 -8 4 C-6 4 -4 4 -2 4 C-1 3 -1 1 0 0 Z " fill="#8486D6" transform="translate(482,25)"/>
<path d="M0 0 C1 1 1 2 2 2 C4 5 4 5 8 6 C18 10 24 22 28 32 C27 32 27 32 26 32 C26 33 27 34 27 35 C26 35 25 35 24 35 C24 36 23 37 23 38 C20 39 18 40 15 42 C12 43 12 43 9 46 C8 47 7 47 6 48 C5 48 5 48 2 47 C1 47 -1 48 -2 48 C-3 48 -5 48 -6 48 C-14 48 -21 49 -28 52 C-28 53 -27 54 -27 55 C-26 54 -24 54 -23 53 C-14 50 -5 50 4 53 C7 55 7 55 9 58 C9 59 8 61 8 62 C3 64 2 63 -3 61 C-9 60 -14 60 -19 63 C-17 63 -16 62 -14 62 C-12 62 -10 62 -8 62 C-6 65 -6 65 -4 69 C-3 70 -2 71 -1 72 C-1 75 -1 75 -2 78 C-3 78 -4 78 -5 78 C-15 78 -22 80 -32 84 C-34 80 -34 78 -35 74 C-35 73 -36 72 -36 71 C-39 70 -43 69 -46 68 C-49 67 -52 66 -55 65 C-58 64 -61 64 -65 64 C-66 64 -67 64 -69 64 C-72 64 -72 64 -75 67 C-79 67 -79 67 -83 68 C-84 68 -86 68 -87 68 C-92 67 -93 66 -96 62 C-97 60 -97 60 -97 54 C-97 53 -96 53 -96 52 C-96 46 -96 45 -100 41 C-101 39 -102 38 -103 36 C-101 32 -101 32 -99 31 C-94 31 -88 31 -83 30 C-78 30 -76 29 -72 27 C-69 27 -65 27 -62 26 C-59 26 -59 26 -56 23 C-56 22 -55 21 -55 20 C-54 15 -52 13 -48 11 C-41 10 -35 11 -29 12 C-27 11 -26 10 -24 9 C-21 8 -19 6 -16 5 C-13 4 -11 3 -8 2 C-4 0 -4 0 0 0 Z " fill="#C1C4CF" transform="translate(363,113)"/>
<path d="M0 0 C1 0 2 0 3 0 C18 25 24 58 28 86 C28 90 28 93 29 96 C29 98 29 100 29 101 C30 107 31 112 32 117 C32 120 33 124 33 128 C33 129 33 130 34 131 C34 134 34 136 35 139 C35 140 35 141 35 143 C35 143 35 143 36 146 C36 149 36 149 37 153 C37 156 37 158 37 161 C34 161 34 161 29 160 C29 161 28 162 28 163 C20 168 13 169 3 167 C-2 165 -4 161 -7 156 C-7 155 -8 154 -8 153 C-8 152 -9 152 -9 151 C-9 145 -9 145 -7 140 C-8 140 -8 139 -9 139 C-8 138 -7 137 -6 136 C2 126 3 116 3 103 C3 102 3 102 3 99 C3 87 1 77 -6 66 C-6 66 -7 65 -7 64 C-12 56 -17 53 -25 49 C-28 47 -28 47 -29 43 C-29 42 -29 40 -29 39 C-31 37 -32 34 -34 32 C-34 32 -34 31 -34 31 C-39 31 -43 31 -47 32 C-43 28 -41 28 -35 28 C-30 28 -27 29 -22 30 C-21 30 -19 29 -18 29 C-19 24 -19 24 -22 22 C-33 18 -44 19 -54 24 C-54 23 -54 21 -54 20 C-45 14 -36 15 -26 15 C-25 15 -24 14 -23 14 C-23 14 -23 14 -20 15 C-19 14 -18 13 -17 12 C-13 9 -8 7 -3 5 C-2 4 -1 3 0 2 C0 1 0 1 0 0 Z " fill="#C8CAD4" transform="translate(389,145)"/>
<path d="M0 0 C6 -1 13 0 19 1 C53 7 88 5 122 1 C121 6 121 6 119 8 C118 9 117 9 116 10 C115 10 114 11 113 11 C112 12 111 12 110 13 C109 14 108 14 107 15 C107 15 107 15 105 14 C99 12 94 13 89 13 C88 13 88 13 85 13 C81 13 77 13 73 13 C68 13 63 13 58 13 C57 13 56 13 55 13 C44 13 34 13 24 12 C24 13 25 14 25 15 C25 17 25 18 25 20 C25 21 25 21 26 25 C29 26 32 27 36 27 C42 29 46 33 49 38 C50 41 50 41 49 46 C78 46 106 46 136 46 C135 47 135 49 134 50 C131 51 131 51 128 51 C126 51 125 51 123 51 C123 51 123 51 119 51 C117 51 116 51 114 51 C109 51 103 51 98 51 C94 51 91 51 87 51 C79 51 72 51 64 51 C54 50 44 51 34 51 C27 51 19 51 11 51 C8 51 4 51 1 51 C-5 51 -10 51 -15 51 C-16 51 -16 51 -19 51 C-21 51 -22 51 -24 51 C-25 51 -26 51 -27 51 C-28 50 -28 50 -30 50 C-30 49 -30 49 -32 46 C-35 46 -35 46 -40 46 C-41 46 -43 46 -44 46 C-46 46 -47 46 -49 46 C-52 46 -55 46 -58 46 C-60 46 -61 46 -63 46 C-64 46 -65 46 -66 46 C-66 45 -66 45 -68 42 C-71 42 -71 42 -76 42 C-77 42 -79 42 -80 42 C-82 42 -83 42 -85 42 C-88 42 -91 42 -94 42 C-96 42 -97 42 -99 42 C-99 42 -99 42 -102 42 C-103 41 -103 39 -104 38 C-108 38 -108 38 -113 38 C-118 38 -118 38 -122 38 C-123 37 -123 35 -124 34 C-126 34 -128 34 -130 34 C-131 33 -131 31 -132 30 C-134 30 -136 30 -138 30 C-138 29 -138 29 -139 25 C-138 25 -137 24 -136 24 C-135 23 -135 21 -134 20 C-131 20 -127 20 -124 20 C-123 19 -123 17 -122 16 C-117 16 -113 16 -108 16 C-107 16 -105 16 -104 16 C-103 15 -103 13 -102 12 C-99 12 -99 12 -94 12 C-93 12 -91 12 -90 12 C-87 12 -83 12 -80 12 C-79 12 -77 12 -76 12 C-74 12 -73 12 -71 12 C-70 12 -69 12 -68 12 C-67 11 -67 9 -66 8 C-65 8 -64 8 -63 8 C-63 9 -64 10 -64 11 C-65 11 -65 11 -66 11 C-68 17 -68 20 -66 26 C-59 30 -53 29 -45 27 C-42 30 -41 32 -39 35 C-37 38 -37 38 -34 39 C-26 39 -22 34 -16 29 C-12 25 -8 26 -3 26 C-2 26 -0 27 1 27 C9 27 9 27 14 25 C17 19 17 19 15 14 C12 11 8 9 4 7 C3 7 3 7 -1 4 C-1 3 -0 1 0 0 Z " fill="#D9DAE4" transform="translate(204,625)"/>
<path d="M0 0 C5 2 8 4 12 7 C13 8 14 9 15 10 C18 13 18 13 19 16 C20 16 20 16 21 16 C23 18 24 19 26 21 C49 42 78 52 109 51 C127 50 145 46 161 38 C163 37 164 36 166 35 C167 35 168 36 169 36 C150 58 126 76 99 86 C94 85 94 85 91 83 C86 82 84 82 79 84 C76 86 74 87 71 89 C64 94 57 96 49 97 C47 98 45 98 43 98 C29 100 15 100 0 100 C-2 100 -3 100 -5 100 C-21 100 -36 100 -51 96 C-54 95 -56 95 -59 94 C-66 92 -73 87 -79 83 C-79 83 -79 83 -78 81 C-77 81 -75 81 -74 81 C-74 80 -74 80 -74 79 C-68 80 -63 81 -58 82 C-49 84 -40 86 -32 87 C-31 87 -30 88 -29 88 C-16 90 -4 90 9 91 C10 91 12 91 13 91 C13 91 13 91 16 91 C19 91 19 91 20 92 C20 91 20 91 20 90 C23 89 27 88 30 88 C47 84 63 81 77 70 C79 68 79 68 81 68 C81 66 80 65 80 63 C77 63 77 63 73 63 C56 60 39 53 25 43 C24 42 23 42 23 41 C15 35 11 28 7 20 C4 16 4 16 1 12 C-2 8 -1 5 0 0 Z " fill="#AEB1BB" transform="translate(266,517)"/>
<path d="M0 0 C9 10 12 23 11 36 C10 46 7 53 1 61 C-7 67 -13 70 -23 69 C-32 67 -39 63 -45 56 C-52 45 -54 33 -52 21 C-49 11 -45 3 -37 -3 C-25 -10 -11 -10 0 0 Z " fill="#040407" transform="translate(371,217)"/>
<path d="M0 0 C4 3 4 3 7 7 C8 8 10 9 11 10 C16 16 19 22 20 30 C19 35 19 35 18 37 C13 35 13 35 10 33 C6 33 6 33 3 33 C1 36 1 36 0 41 C-1 46 -1 46 -3 49 C-7 50 -9 50 -13 49 C-16 45 -17 43 -18 38 C-19 35 -19 35 -20 32 C-26 29 -34 32 -40 34 C-41 35 -42 35 -43 36 C-44 40 -44 44 -44 48 C-44 50 -44 51 -44 53 C-45 67 -43 77 -34 88 C-26 94 -19 96 -10 95 C-6 94 -3 92 1 91 C2 91 2 91 3 91 C3 93 3 94 3 96 C-3 102 -8 104 -16 104 C-26 104 -36 103 -44 96 C-55 84 -59 72 -60 56 C-60 55 -60 53 -60 52 C-60 51 -60 49 -60 48 C-60 47 -60 46 -60 44 C-60 41 -60 41 -58 36 C-58 35 -58 35 -57 32 C-54 18 -44 7 -32 -1 C-21 -6 -11 -6 0 0 Z " fill="#EEEFF2" transform="translate(199,190)"/>
<path d="M0 0 C0 1 0 1 1 3 C3 7 3 7 7 10 C22 19 29 45 33 61 C34 67 35 73 35 79 C35 79 34 79 34 79 C34 78 34 77 33 76 C32 71 30 68 27 64 C21 61 17 62 11 64 C8 64 8 64 5 62 C3 60 1 58 -1 56 C-6 52 -11 52 -17 53 C-22 56 -26 59 -31 62 C-38 68 -44 72 -53 72 C-57 72 -57 72 -59 70 C-59 69 -59 69 -58 66 C-59 65 -59 63 -60 62 C-62 62 -63 61 -65 61 C-69 59 -72 57 -75 54 C-76 54 -78 53 -79 53 C-79 53 -79 53 -80 50 C-81 50 -82 49 -84 49 C-85 49 -86 48 -87 48 C-87 48 -87 48 -88 45 C-89 45 -91 44 -92 44 C-92 43 -91 42 -91 41 C-90 41 -90 41 -87 44 C-74 51 -64 56 -49 52 C-47 51 -46 51 -44 50 C-43 45 -43 45 -43 41 C-43 40 -43 38 -43 37 C-42 37 -41 36 -40 36 C-39 35 -39 33 -38 32 C-35 28 -33 24 -29 21 C-28 20 -27 19 -26 18 C-23 14 -19 11 -15 8 C-14 7 -13 6 -12 5 C-8 1 -6 0 0 0 Z " fill="#8E93A1" transform="translate(440,360)"/>
<path d="M0 0 C3 4 3 7 4 11 C5 13 5 14 6 16 C10 18 11 18 16 17 C19 14 19 13 20 9 C21 3 21 3 23 1 C28 0 30 1 34 3 C38 6 39 7 41 12 C43 29 39 41 29 55 C22 61 15 65 6 65 C-3 65 -11 62 -17 55 C-26 39 -27 23 -24 5 C-18 0 -8 -3 0 0 Z " fill="#040407" transform="translate(179,221)"/>
<path d="M0 0 C0 6 -0 10 -3 15 C-3 16 -4 17 -4 19 C-5 22 -5 22 -8 24 C-12 24 -16 24 -20 24 C-25 25 -27 28 -30 31 C-32 34 -33 36 -35 39 C-33 44 -33 44 -30 48 C-30 50 -29 51 -29 53 C-29 54 -28 56 -28 57 C-24 59 -22 59 -18 59 C-13 60 -11 60 -7 62 C-5 65 -5 65 -4 68 C-8 72 -8 72 -11 73 C-16 75 -16 78 -18 83 C-21 84 -23 84 -27 85 C-31 85 -35 86 -39 88 C-44 89 -46 89 -50 87 C-50 86 -51 84 -51 83 C-52 83 -52 83 -53 83 C-54 80 -54 77 -55 74 C-56 61 -61 49 -68 38 C-68 37 -67 37 -67 36 C-66 37 -66 37 -65 38 C-65 37 -65 37 -66 34 C-69 26 -69 26 -68 22 C-65 18 -62 15 -59 12 C-58 11 -57 10 -55 8 C-54 8 -53 7 -52 6 C-47 7 -47 7 -44 9 C-39 8 -39 8 -36 6 C-33 6 -33 6 -29 6 C-29 6 -29 6 -26 6 C-23 6 -23 6 -21 7 C-17 7 -17 7 -12 7 C-11 6 -10 5 -9 4 C-8 4 -8 4 -7 4 C-7 3 -6 2 -6 1 C-4 0 -4 0 0 0 Z " fill="#C1C4CF" transform="translate(176,340)"/>
<path d="M0 0 C2 3 3 6 5 9 C6 9 6 9 9 7 C13 5 13 5 17 6 C21 6 23 6 27 4 C28 4 29 3 30 3 C34 6 34 6 38 10 C42 13 43 13 48 12 C50 11 52 10 54 9 C59 7 59 7 64 8 C64 8 65 7 65 7 C67 7 68 7 70 7 C70 6 71 5 71 4 C71 11 71 18 71 25 C70 25 70 25 69 25 C69 29 69 33 69 37 C70 37 70 37 71 37 C71 42 71 48 71 53 C71 55 71 56 72 58 C72 69 72 69 68 74 C65 77 65 77 60 78 C46 69 43 54 39 39 C38 39 37 40 36 40 C35 43 35 46 34 49 C33 53 32 55 29 57 C24 57 24 57 20 54 C13 44 8 33 4 22 C3 21 3 20 2 18 C0 12 0 6 0 0 Z " fill="#64697C" transform="translate(40,494)"/>
<path d="M0 0 C4 0 8 0 12 0 C12 1 12 2 12 3 C14 3 16 3 18 2 C27 2 33 2 40 7 C43 8 46 8 49 9 C52 10 54 11 57 12 C54 15 54 15 50 16 C44 18 41 21 37 25 C22 35 22 35 14 37 C9 39 8 42 5 47 C-0 52 -3 52 -11 52 C-12 52 -14 52 -16 52 C-20 52 -22 51 -26 49 C-27 49 -28 48 -30 48 C-33 47 -33 47 -35 44 C-35 43 -35 43 -35 40 C-37 31 -43 26 -49 20 C-50 19 -50 19 -51 18 C-51 17 -51 16 -51 15 C-50 15 -49 15 -48 15 C-47 15 -47 15 -44 14 C-44 13 -43 12 -43 11 C-41 11 -40 11 -38 11 C-37 10 -36 10 -36 9 C-32 6 -31 7 -26 7 C-23 7 -23 7 -20 7 C-19 6 -18 4 -17 3 C-13 3 -13 3 -8 3 C-8 3 -8 3 -4 4 C-3 4 -3 4 0 4 C0 3 0 1 0 0 Z " fill="#C1C4CF" transform="translate(259,72)"/>
<path d="M0 0 C10 1 19 7 26 13 C37 27 40 41 40 58 C40 59 40 61 40 62 C40 75 38 85 29 94 C21 102 13 107 2 108 C-13 107 -23 100 -33 90 C-33 90 -33 90 -36 88 C-44 79 -43 68 -43 56 C-43 55 -43 54 -43 53 C-43 36 -39 24 -27 11 C-19 4 -11 1 0 0 Z M-17 23 C-27 32 -33 41 -35 55 C-34 69 -32 80 -22 89 C-13 95 -6 97 4 96 C12 94 19 91 23 84 C30 70 32 57 27 42 C24 33 19 27 10 21 C1 19 -8 19 -17 23 Z " fill="#EEEFF2" transform="translate(352.625,189.5625)"/>
<path d="M0 0 C3 1 5 1 8 2 C21 3 21 3 25 2 C27 3 30 4 32 5 C33 5 34 6 35 6 C35 5 36 5 36 4 C37 4 37 4 38 4 C38 3 39 2 39 1 C42 0 42 0 45 0 C47 2 47 2 48 6 C49 11 49 11 53 15 C56 15 56 15 61 15 C76 16 87 24 98 34 C100 35 102 36 104 37 C106 38 107 39 109 40 C109 41 109 41 109 42 C112 41 115 40 118 39 C118 38 119 38 119 37 C121 36 123 36 125 35 C125 36 124 37 124 38 C120 45 117 51 116 59 C115 59 115 59 114 59 C112 55 111 50 110 46 C107 45 105 45 101 46 C100 47 99 47 98 48 C83 53 83 53 76 50 C72 49 70 49 66 50 C63 50 63 50 60 50 C58 45 58 45 56 40 C51 36 45 36 38 35 C37 35 36 35 35 35 C31 34 27 34 23 35 C23 37 22 38 22 40 C20 38 19 35 17 33 C15 30 12 27 9 24 C9 23 9 23 6 21 C-0 15 -8 14 -16 13 C-16 12 -15 11 -15 10 C-14 10 -12 9 -11 9 C-11 8 -11 8 -11 7 C-10 7 -9 7 -8 7 C-6 7 -5 6 -4 6 C-3 5 -3 3 -2 2 C-1 1 -1 1 0 0 Z " fill="#C1C4CF" transform="translate(195,172)"/>
<path d="M0 0 C0 0 1 0 1 0 C3 5 3 10 3 16 C3 17 3 19 4 20 C4 23 4 23 3 25 C3 29 2 32 2 36 C1 36 0 36 -1 36 C-2 37 -2 39 -3 40 C-4 40 -4 40 -5 40 C-6 41 -6 43 -7 44 C-8 44 -8 44 -9 44 C-10 45 -10 47 -11 48 C-12 48 -12 48 -13 48 C-14 49 -14 51 -15 52 C-17 52 -19 52 -21 52 C-22 53 -22 55 -23 56 C-25 56 -27 56 -29 56 C-30 57 -30 59 -31 60 C-32 60 -32 60 -33 60 C-34 61 -34 63 -35 64 C-35 64 -35 64 -37 65 C-37 67 -37 69 -37 70 C-38 72 -38 74 -38 76 C-38 76 -38 76 -41 77 C-42 81 -42 81 -42 84 C-45 84 -49 84 -52 84 C-54 84 -56 84 -58 84 C-60 84 -61 84 -63 84 C-64 83 -64 81 -65 80 C-66 80 -67 80 -68 80 C-68 76 -68 73 -68 69 C-68 69 -68 69 -68 66 C-68 63 -68 61 -68 58 C-68 58 -68 58 -65 57 C-64 53 -64 53 -64 50 C-63 50 -62 50 -61 50 C-60 49 -60 47 -59 46 C-58 46 -58 46 -57 46 C-56 45 -56 43 -55 42 C-54 42 -54 42 -53 42 C-52 41 -52 39 -51 38 C-49 38 -47 38 -45 38 C-44 37 -44 35 -43 34 C-42 34 -42 34 -41 34 C-40 33 -40 31 -39 30 C-37 30 -35 30 -33 30 C-32 29 -32 27 -31 26 C-30 26 -30 25 -29 25 C-29 24 -29 23 -29 22 C-28 20 -28 19 -28 18 C-27 18 -27 18 -23 15 C-21 11 -20 8 -19 3 C-18 3 -17 3 -16 3 C-15 3 -15 3 -12 3 C-12 3 -12 3 -8 3 C-5 3 -5 3 -1 2 C-1 1 -0 1 0 0 Z " fill="#797BD3" transform="translate(545,67)"/>
<path d="M0 0 C6 4 12 9 18 14 C21 17 25 20 28 23 C35 29 35 29 37 32 C35 32 34 31 32 31 C31 32 31 32 29 36 C26 41 24 42 18 45 C9 50 9 50 6 52 C3 55 -1 55 -5 55 C-6 55 -6 54 -7 54 C-7 56 -7 59 -7 61 C-19 52 -30 36 -33 21 C-34 6 -34 6 -30 -1 C-20 -8 -10 -5 0 0 Z " fill="#7E8498" transform="translate(289,350)"/>
<path d="M0 0 C1 2 1 2 1 5 C2 8 2 8 5 11 C5 12 5 12 6 15 C8 19 8 19 11 23 C13 27 14 28 13 33 C12 36 11 38 10 41 C10 43 9 44 9 46 C10 47 10 48 11 49 C14 53 13 55 13 60 C13 61 13 61 14 65 C7 72 -0 73 -9 73 C-14 73 -17 71 -20 68 C-23 65 -23 65 -24 62 C-22 57 -22 57 -19 54 C-19 52 -18 51 -17 50 C-20 43 -25 35 -31 30 C-34 30 -37 29 -40 29 C-41 28 -43 26 -44 25 C-43 24 -42 22 -41 21 C-41 16 -42 13 -44 9 C-39 4 -39 5 -32 5 C-24 4 -18 3 -11 -0 C-7 -1 -4 -1 0 0 Z " fill="#C2C5D0" transform="translate(236,439)"/>
<path d="M0 0 C11 -0 21 -1 32 -1 C35 -1 39 -1 43 -1 C48 -1 53 -1 58 -1 C59 -1 59 -1 63 -1 C71 -1 71 -1 75 0 C77 3 77 6 78 10 C78 11 78 12 78 13 C79 13 79 13 80 13 C80 14 80 14 82 17 C82 17 82 17 85 19 C87 22 87 22 88 27 C88 27 88 27 89 29 C88 29 86 30 85 30 C85 31 85 31 86 34 C82 36 76 35 72 35 C70 35 69 35 68 35 C65 35 63 35 60 35 C56 35 52 35 48 35 C46 35 43 35 40 35 C40 35 40 35 37 35 C28 35 28 35 25 34 C25 33 25 32 25 30 C24 25 23 24 19 21 C18 20 18 18 17 17 C13 16 9 16 5 15 C4 15 3 14 2 14 C-0 9 -0 5 0 0 Z " fill="#C8CAD4" transform="translate(228,637)"/>
<path d="M0 0 C8 5 12 10 17 19 C18 20 18 20 21 23 C22 23 22 23 25 26 C25 28 25 29 25 31 C20 35 16 35 10 35 C2 35 2 35 0 36 C-0 39 -0 39 -1 42 C0 42 1 42 2 42 C7 43 9 46 12 50 C12 54 12 57 9 61 C5 64 1 63 -5 63 C-7 64 -8 64 -10 65 C-15 67 -15 67 -18 67 C-22 64 -23 61 -24 57 C-24 49 -24 49 -22 45 C-19 44 -19 44 -16 43 C-15 43 -14 43 -12 43 C-12 42 -11 42 -10 42 C-11 39 -11 39 -12 35 C-17 33 -22 34 -27 33 C-31 33 -34 33 -37 31 C-37 30 -37 30 -38 26 C-36 24 -36 24 -33 21 C-26 14 -26 14 -24 10 C-20 1 -9 -3 0 0 Z " fill="#F4A01D" transform="translate(271.875,269)"/>
<path d="M0 0 C4 1 4 1 6 4 C8 7 8 7 8 10 C9 10 9 10 10 10 C10 11 11 12 11 14 C12 18 13 20 16 23 C20 31 20 42 18 51 C13 49 12 48 8 44 C-1 37 -11 36 -22 35 C-23 34 -24 34 -25 33 C-25 32 -25 32 -25 31 C-26 31 -26 31 -27 31 C-28 30 -30 28 -31 27 C-32 27 -33 26 -34 26 C-37 24 -39 22 -42 19 C-43 19 -45 18 -46 18 C-46 13 -46 13 -46 7 C-45 6 -43 4 -42 3 C-40 4 -37 5 -35 6 C-28 7 -22 6 -16 4 C-14 4 -12 4 -10 4 C-4 3 -4 3 0 0 Z " fill="#C1C4CF" transform="translate(222,321)"/>
<path d="M0 0 C2 -0 3 -0 5 -0 C6 -0 8 -0 9 -0 C10 -0 12 -0 13 -0 C16 0 16 0 20 2 C19 4 19 5 18 7 C15 9 11 8 8 8 C5 7 3 6 0 5 C-0 6 -1 6 -2 6 C-2 8 -2 9 -2 10 C-1 11 -0 11 0 11 C0 12 0 13 0 13 C1 14 2 14 4 14 C5 18 5 21 4 25 C2 29 -1 31 -5 34 C-6 34 -7 35 -8 36 C-10 37 -12 38 -14 39 C-16 42 -16 42 -14 45 C-13 46 -11 46 -10 46 C-9 47 -8 48 -6 49 C-6 50 -6 51 -6 51 C-5 52 -3 52 -2 52 C-1 53 0 54 1 54 C4 56 4 56 10 56 C11 56 12 56 12 55 C18 55 18 55 24 56 C24 56 25 56 26 56 C26 57 26 58 26 59 C27 59 27 59 30 60 C15 63 5 62 -7 54 C-13 51 -19 47 -24 42 C-25 42 -26 41 -27 40 C-30 38 -31 36 -33 33 C-38 27 -44 22 -51 17 C-58 11 -58 11 -62 8 C-62 7 -62 6 -62 5 C-56 8 -52 11 -48 14 C-44 17 -42 17 -38 15 C-36 13 -34 11 -32 9 C-22 0 -13 0 0 0 Z " fill="#C8CAD4" transform="translate(367.5,339.8125)"/>
<path d="M0 0 C1 0 1 0 2 0 C3 46 3 46 -4 66 C-5 66 -5 66 -6 66 C-6 64 -6 62 -7 61 C-7 59 -8 57 -8 55 C-11 54 -11 54 -14 54 C-15 55 -16 55 -17 56 C-19 56 -21 57 -22 57 C-27 58 -30 59 -34 61 C-35 61 -35 61 -39 62 C-43 64 -43 64 -46 69 C-51 71 -53 72 -58 71 C-62 67 -62 67 -66 64 C-66 64 -66 64 -64 63 C-63 62 -63 60 -62 59 C-60 56 -57 54 -55 52 C-54 50 -53 49 -51 48 C-50 46 -49 45 -48 44 C-47 43 -46 42 -45 41 C-42 38 -38 37 -33 36 C-31 34 -29 33 -27 31 C-25 30 -23 30 -21 29 C-16 27 -16 27 -13 24 C-11 23 -10 23 -8 22 C-6 19 -6 19 -6 15 C-5 9 -3 5 0 0 Z " fill="#8F94A2" transform="translate(115,427)"/>
<path d="M0 0 C3 2 3 2 5 5 C4 8 2 10 1 13 C1 14 1 16 1 17 C0 22 0 22 -3 27 C-3 33 -3 33 -2 38 C-3 39 -3 40 -4 41 C-5 41 -7 41 -8 41 C-9 46 -9 48 -7 53 C-7 59 -7 59 -8 61 C-9 61 -11 61 -12 61 C-12 66 -12 68 -10 73 C-10 74 -11 75 -11 76 C-12 76 -12 75 -13 75 C-13 76 -13 77 -12 78 C-12 83 -12 87 -12 92 C-12 92 -12 92 -9 92 C-8 91 -6 91 -5 91 C-3 91 -2 91 -0 90 C6 90 9 90 14 93 C16 96 18 99 20 103 C22 106 22 106 26 110 C26 111 26 113 26 114 C18 118 7 116 -1 114 C-6 112 -10 110 -14 107 C-14 106 -15 104 -15 103 C-14 103 -14 103 -13 103 C-13 101 -14 100 -14 98 C-15 98 -15 98 -16 98 C-16 99 -16 100 -16 101 C-14 111 -15 115 -21 123 C-21 123 -21 123 -18 124 C-18 126 -18 127 -18 129 C-19 129 -20 129 -21 129 C-22 129 -23 130 -24 130 C-25 134 -25 134 -25 140 C-25 150 -25 150 -27 155 C-27 156 -28 157 -28 159 C-29 164 -32 168 -34 173 C-35 176 -36 178 -37 181 C-38 183 -38 184 -39 186 C-40 186 -40 186 -41 186 C-42 181 -41 178 -39 173 C-36 164 -33 155 -31 146 C-31 145 -30 144 -30 142 C-24 123 -22 102 -19 82 C-15 55 -15 55 -12 45 C-12 43 -11 40 -11 38 C-8 25 -5 12 0 0 Z " fill="#C9CBD5" transform="translate(129,174)"/>
<path d="M0 0 C7 4 12 9 17 16 C18 17 18 17 19 17 C19 19 19 20 19 21 C20 21 20 21 21 21 C23 25 24 27 24 30 C25 30 25 30 26 30 C27 31 27 32 28 33 C30 34 31 35 33 36 C34 38 34 39 35 41 C35 42 36 43 37 44 C40 44 40 44 44 42 C45 42 46 41 48 41 C51 39 51 39 53 37 C57 41 58 41 59 46 C59 54 55 58 50 63 C46 67 46 67 42 69 C41 70 39 71 38 72 C33 76 29 77 23 79 C22 80 21 81 20 81 C19 81 18 81 17 81 C17 82 17 83 17 84 C18 84 19 84 20 84 C20 85 21 86 21 87 C21 88 20 89 20 89 C16 88 16 88 14 86 C14 80 15 78 17 72 C17 71 18 69 18 67 C19 62 22 60 26 56 C27 56 27 56 28 56 C30 50 30 47 28 41 C26 36 23 33 20 29 C19 28 18 26 16 24 C10 15 1 7 -10 4 C-21 3 -28 7 -37 13 C-41 17 -43 21 -45 26 C-48 30 -50 32 -54 34 C-54 28 -54 27 -51 22 C-50 21 -49 20 -49 19 C-48 18 -48 17 -47 16 C-46 16 -46 16 -45 16 C-44 15 -44 13 -43 11 C-31 -0 -16 -7 0 0 Z " fill="#CACCD6" transform="translate(280.11328125,252.6953125)"/>
<path d="M0 0 C1 0 3 0 4 0 C4 1 4 2 5 4 C5 4 5 4 5 8 C6 10 6 12 6 14 C7 20 8 27 9 33 C10 37 10 41 10 45 C7 45 7 45 2 44 C2 45 1 46 1 47 C-7 52 -14 53 -24 51 C-29 49 -31 45 -34 40 C-34 39 -35 38 -35 37 C-35 36 -36 36 -36 35 C-36 29 -36 29 -34 24 C-35 24 -35 23 -36 23 C-33 18 -31 16 -25 15 C-23 15 -22 14 -20 14 C-19 13 -17 13 -16 12 C-11 11 -8 11 -3 11 C-3 9 -3 7 -3 5 C-2 5 -1 6 0 6 C0 4 0 2 0 0 Z " fill="#C8CAD4" transform="translate(416,261)"/>
<path d="M0 0 C4 2 7 5 10 8 C12 9 14 11 16 12 C19 15 19 15 19 20 C20 21 20 23 20 24 C25 25 25 25 28 24 C29 24 30 24 31 24 C32 25 34 27 35 28 C34 31 34 31 32 35 C32 37 32 38 32 40 C31 44 31 44 27 48 C23 49 23 49 19 49 C18 49 18 49 15 49 C10 48 9 47 6 43 C5 42 5 41 4 40 C1 37 -4 36 -8 34 C-19 31 -19 31 -24 29 C-22 25 -20 21 -18 17 C-19 17 -21 16 -22 16 C-21 15 -20 15 -19 14 C-18 14 -18 15 -17 15 C-13 12 -10 9 -6 5 C-4 3 -4 3 0 0 Z " fill="#C1C4CF" transform="translate(177,108)"/>
<path d="M0 0 C1 1 2 2 3 3 C2 8 2 8 0 13 C-1 14 -3 14 -4 15 C-10 18 -11 21 -14 27 C-19 36 -24 42 -34 47 C-40 48 -40 48 -44 48 C-48 50 -48 50 -49 52 C-50 52 -52 51 -53 51 C-56 46 -57 42 -56 36 C-56 36 -56 36 -53 35 C-53 34 -54 32 -54 31 C-53 31 -52 31 -51 31 C-51 29 -51 27 -52 25 C-52 22 -52 22 -52 19 C-51 18 -51 18 -50 17 C-49 17 -49 18 -48 18 C-48 17 -47 15 -47 14 C-43 13 -43 13 -38 12 C-37 12 -36 11 -35 11 C-33 11 -30 11 -28 11 C-18 10 -12 7 -4 2 C-3 1 -1 1 0 0 Z " fill="#C1C4CF" transform="translate(183,453)"/>
<path d="M0 0 C3 4 3 4 4 7 C6 13 12 15 17 17 C41 25 63 25 87 23 C86 24 84 26 83 27 C84 27 86 28 87 28 C91 29 91 29 94 31 C86 35 78 37 69 37 C68 37 67 37 66 37 C32 37 32 37 19 32 C18 32 17 31 16 31 C6 27 -5 22 -13 14 C-14 9 -14 9 -14 4 C-9 0 -6 0 0 0 Z " fill="#656A7D" transform="translate(317,519)"/>
<path d="M0 0 C2 2 2 2 2 6 C3 7 3 8 3 9 C4 9 4 9 8 11 C13 15 14 19 17 24 C21 30 25 34 31 39 C32 40 34 42 35 43 C40 48 47 51 53 55 C57 57 60 59 63 63 C63 64 63 65 63 66 C58 69 54 69 49 69 C38 65 28 61 19 54 C18 53 17 52 16 52 C1 40 1 40 -1 33 C-1 31 -1 30 -1 28 C-1 27 -1 27 -1 23 C-0 22 -0 20 -0 18 C-0 16 -0 15 -0 13 C-0 9 -0 4 0 0 Z " fill="#AEB1BB" transform="translate(122,533)"/>
<path d="M0 0 C3 4 3 8 4 12 C5 13 5 14 6 15 C7 18 7 22 8 25 C9 26 9 28 10 29 C10 32 11 36 11 39 C12 39 12 39 13 39 C14 42 14 42 15 46 C12 48 12 48 9 49 C8 50 6 51 5 52 C4 52 4 52 3 52 C2 53 2 55 1 56 C-1 58 -3 59 -6 61 C-8 63 -10 65 -12 68 C-13 69 -14 71 -15 72 C-16 72 -16 71 -17 71 C-17 71 -17 70 -17 70 C-18 70 -18 70 -22 72 C-23 72 -24 72 -25 72 C-28 68 -28 68 -30 64 C-29 58 -26 57 -21 54 C-20 53 -19 52 -18 51 C-16 50 -15 49 -13 48 C-12 47 -12 47 -12 42 C-12 37 -13 35 -15 31 C-15 25 -15 24 -12 19 C-12 18 -11 17 -11 15 C-9 10 -6 7 -2 3 C-1 2 -1 1 0 0 Z " fill="#BCBFCB" transform="translate(423,314)"/>
<path d="M0 0 C3 0 3 0 7 1 C9 4 9 4 9 8 C10 12 10 12 14 15 C17 15 17 15 21 15 C22 15 23 15 24 15 C27 15 27 15 30 14 C34 13 34 13 38 14 C42 18 42 18 46 22 C50 26 50 26 56 26 C61 26 61 26 63 24 C65 21 65 21 66 18 C67 17 67 16 68 15 C73 15 77 16 81 17 C81 18 81 19 81 20 C82 20 82 20 83 20 C85 24 85 24 85 29 C80 31 75 31 70 29 C70 30 70 30 70 31 C64 35 58 34 52 34 C51 34 50 34 48 34 C46 34 43 34 41 34 C37 34 33 34 30 34 C27 34 25 34 22 34 C21 35 20 35 19 35 C16 35 16 35 11 34 C11 33 10 31 10 30 C11 29 12 29 13 28 C12 27 12 25 11 24 C10 22 10 21 9 19 C8 18 6 16 5 15 C5 14 5 14 5 13 C4 13 4 13 3 13 C0 4 0 4 0 0 Z " fill="#DBDCE6" transform="translate(303,637)"/>
<path d="M0 0 C3 4 3 6 3 11 C4 12 4 14 4 15 C5 15 7 16 8 16 C11 19 10 28 10 32 C10 33 10 34 10 36 C9 36 8 36 7 36 C7 38 7 40 7 42 C6 42 6 42 5 42 C5 44 4 45 4 47 C1 48 -2 48 -4 48 C-10 49 -16 51 -21 53 C-22 50 -22 50 -20 46 C-16 37 -18 27 -18 18 C-18 16 -18 15 -18 13 C-18 12 -18 11 -18 9 C-17 8 -17 7 -17 6 C-15 5 -14 5 -12 4 C-11 3 -9 2 -8 1 C-4 -1 -4 -1 0 0 Z " fill="#BFC1CD" transform="translate(409,225)"/>
<path d="M0 0 C1 4 1 4 2 7 C1 7 0 6 -1 6 C0 9 0 9 5 12 C7 15 9 17 11 20 C12 21 14 23 15 24 C16 27 17 30 18 33 C19 34 19 35 20 36 C20 42 20 42 18 45 C10 44 7 42 2 36 C-6 28 -6 28 -11 28 C-18 28 -22 29 -28 33 C-29 34 -31 34 -32 35 C-32 36 -32 37 -32 38 C-33 38 -34 38 -35 38 C-35 39 -36 39 -36 40 C-38 37 -38 37 -38 32 C-36 28 -33 24 -29 21 C-29 20 -29 20 -26 18 C-23 14 -19 11 -15 8 C-14 7 -13 6 -12 5 C-8 1 -6 0 0 0 Z " fill="#878D9F" transform="translate(440,360)"/>
<path d="M0 0 C1 0 1 0 5 1 C5 2 6 2 6 3 C7 3 7 3 10 4 C11 4 12 5 13 5 C13 6 14 7 14 8 C15 9 17 9 18 10 C18 11 18 11 18 12 C19 12 20 12 21 12 C21 14 21 17 21 19 C21 20 21 20 21 23 C21 24 21 25 21 26 C20 26 19 27 18 27 C17 31 17 31 17 34 C16 34 15 34 14 34 C12 34 11 34 10 34 C9 35 9 37 8 38 C4 39 4 39 0 38 C-1 39 -3 39 -4 39 C-6 38 -7 38 -8 38 C-9 37 -9 35 -10 34 C-11 34 -12 34 -13 34 C-13 33 -13 32 -13 31 C-14 29 -14 28 -14 27 C-15 27 -16 26 -17 26 C-17 23 -17 23 -17 19 C-17 18 -17 16 -17 15 C-17 14 -17 13 -17 12 C-16 12 -15 12 -14 12 C-13 11 -13 9 -12 8 C-11 8 -11 8 -10 8 C-9 7 -9 5 -8 4 C-6 4 -4 3 -2 3 C-1 2 -1 1 0 0 Z " fill="#9496D9" transform="translate(486,161)"/>
<path d="M0 0 C2 0 4 0 6 0 C13 1 13 1 17 4 C17 5 16 6 16 8 C15 8 15 8 14 8 C14 8 14 9 14 10 C13 10 12 11 11 12 C10 12 10 12 9 12 C9 13 8 14 8 16 C4 17 0 17 -4 17 C-7 18 -7 18 -11 20 C-14 25 -13 30 -14 37 C-14 40 -14 40 -17 44 C-21 45 -21 45 -25 46 C-29 43 -32 39 -35 35 C-36 34 -36 33 -37 32 C-39 28 -39 28 -40 24 C-34 18 -27 12 -18 12 C-18 11 -18 10 -18 9 C-16 -0 -8 -0 0 0 Z " fill="#C2C5D0" transform="translate(174,523.5)"/>
<path d="M0 0 C6 -1 13 0 19 1 C53 7 88 5 122 1 C121 6 121 6 119 8 C118 9 117 9 116 10 C115 10 114 11 113 11 C112 12 111 12 110 13 C109 14 108 14 107 15 C105 14 103 14 101 13 C98 13 96 13 93 13 C92 13 90 13 89 13 C88 13 88 13 84 13 C82 13 80 13 79 13 C75 13 72 13 68 13 C63 13 57 13 52 13 C48 13 45 13 41 13 C40 13 38 13 36 13 C35 13 33 13 32 13 C31 13 29 13 28 13 C24 13 24 13 20 15 C18 15 17 16 16 16 C14 14 14 14 12 11 C9 9 5 7 2 6 C1 5 -0 5 -1 4 C-1 3 -0 1 0 0 Z " fill="#EDEEF1" transform="translate(204,625)"/>
<path d="M0 0 C4 3 9 7 13 10 C14 10 14 10 16 12 C18 14 18 14 20 18 C18 18 17 17 15 17 C14 18 14 18 12 22 C9 27 7 28 1 31 C-8 36 -8 36 -11 38 C-14 41 -18 41 -22 41 C-23 41 -23 40 -24 40 C-24 42 -24 45 -24 47 C-32 41 -39 32 -43 23 C-43 22 -43 22 -43 21 C-42 21 -42 21 -39 23 C-39 24 -39 25 -39 26 C-33 26 -33 26 -30 25 C-27 23 -27 23 -22 22 C-17 22 -17 22 -13 19 C-12 19 -12 19 -11 19 C-10 18 -10 16 -9 15 C-7 14 -6 13 -4 12 C-1 10 -1 10 1 8 C1 4 1 4 0 0 Z " fill="#888EA0" transform="translate(306,364)"/>
<path d="M0 0 C8 7 17 16 20 26 C20 29 20 29 18 32 C11 36 4 35 -3 33 C-11 30 -18 26 -24 21 C-24 20 -24 20 -25 16 C-10 -4 -10 -4 0 0 Z " fill="#464B5B" transform="translate(445,570)"/>
<path d="M0 0 C0 0 1 0 1 0 C1 5 1 11 1 16 C2 16 2 16 3 16 C3 21 3 27 3 32 C3 34 3 35 4 37 C4 48 4 48 0 53 C-3 56 -3 56 -8 57 C-22 49 -24 35 -28 21 C-28 20 -29 18 -29 17 C-28 17 -27 16 -26 16 C-22 18 -21 19 -20 24 C-15 22 -15 22 -14 20 C-12 19 -11 19 -9 18 C-8 16 -7 14 -6 12 C-5 12 -4 12 -3 12 C-3 11 -3 9 -3 8 C-2 3 -2 3 0 0 Z " fill="#7E8498" transform="translate(108,515)"/>
<path d="M0 0 C1 0 3 0 4 0 C4 1 4 1 4 2 C1 4 1 4 -4 5 C-5 5 -5 5 -10 6 C-12 11 -12 11 -14 16 C-16 19 -16 19 -18 21 C-16 21 -15 20 -13 20 C-10 21 -10 21 -7 22 C-10 23 -10 23 -15 24 C-20 24 -20 24 -23 26 C-24 26 -25 27 -26 27 C-30 28 -33 30 -35 34 C-36 34 -36 34 -37 34 C-38 35 -38 37 -39 38 C-45 43 -45 43 -49 43 C-49 42 -49 42 -49 41 C-50 41 -50 41 -51 41 C-51 40 -51 40 -51 39 C-52 39 -52 39 -53 39 C-53 37 -53 35 -52 32 C-52 31 -52 30 -52 29 C-51 25 -51 25 -48 20 C-47 20 -47 20 -46 20 C-45 18 -45 17 -44 15 C-41 10 -39 8 -34 6 C-30 6 -27 5 -23 5 C-20 4 -16 3 -13 2 C-10 2 -8 1 -5 1 C-4 0 -4 0 0 0 Z " fill="#6C70D0" transform="translate(510.0625,27.9375)"/>
<path d="M0 0 C4 1 4 1 6 2 C10 15 10 15 9 21 C5 23 2 23 -2 22 C-5 23 -7 25 -10 26 C-14 27 -16 28 -20 27 C-24 24 -24 24 -28 20 C-29 19 -31 19 -32 18 C-33 18 -33 18 -37 21 C-41 21 -44 21 -48 20 C-52 21 -52 21 -55 23 C-56 26 -56 26 -56 29 C-56 29 -57 29 -57 29 C-58 26 -58 23 -59 20 C-59 19 -60 18 -60 17 C-60 14 -60 11 -60 8 C-54 9 -51 11 -47 15 C-43 18 -41 17 -37 17 C-32 15 -32 15 -29 10 C-26 8 -26 8 -23 7 C-22 7 -20 7 -19 6 C-18 6 -17 5 -16 5 C-14 4 -13 4 -11 3 C-8 2 -4 2 -1 1 C-1 1 -0 0 0 0 Z " fill="#848A9D" transform="translate(101,480)"/>
<path d="M0 0 C3 -1 3 -1 7 -0 C8 -0 8 -0 11 -0 C12 -0 12 -0 16 -0 C18 -0 19 -0 21 -0 C29 -0 29 -0 32 0 C32 0 32 0 34 3 C31 5 28 4 24 4 C24 4 23 5 23 5 C20 6 18 6 15 6 C7 8 7 8 4 9 C3 9 3 9 -1 9 C-6 10 -9 11 -13 14 C-15 17 -16 20 -18 23 C-19 23 -19 24 -20 24 C-23 30 -24 36 -25 42 C-24 42 -24 42 -23 42 C-23 43 -23 43 -23 44 C-22 44 -22 44 -21 44 C-21 45 -21 45 -21 46 C-16 44 -12 42 -9 37 C-8 37 -8 37 -7 37 C-6 36 -6 34 -5 33 C-2 30 -1 29 4 29 C3 33 3 33 -1 36 C-2 39 -2 43 -3 46 C-4 46 -5 46 -6 46 C-7 47 -7 49 -8 50 C-9 50 -9 50 -10 50 C-11 51 -11 53 -12 54 C-16 55 -16 55 -20 54 C-21 55 -23 55 -24 55 C-26 54 -27 54 -28 54 C-29 53 -29 51 -30 50 C-31 50 -32 50 -33 50 C-33 46 -33 43 -33 39 C-33 39 -33 39 -33 36 C-33 33 -33 31 -33 28 C-32 28 -31 27 -30 27 C-29 23 -29 23 -29 20 C-28 20 -27 20 -26 20 C-25 19 -25 17 -24 16 C-23 16 -23 16 -22 16 C-21 15 -21 13 -20 12 C-19 12 -19 12 -18 12 C-17 11 -17 9 -16 8 C-14 8 -12 8 -10 8 C-9 7 -9 5 -8 4 C-6 4 -4 4 -2 4 C-1 3 -1 1 0 0 Z " fill="#898BD7" transform="translate(482,25)"/>
<path d="M0 0 C3 2 3 2 6 5 C5 10 5 10 3 14 C3 15 3 17 3 19 C3 24 3 27 -0 31 C-5 34 -7 34 -12 33 C-14 33 -15 33 -17 33 C-18 32 -19 32 -20 32 C-21 29 -21 29 -21 26 C-22 25 -23 25 -23 25 C-23 23 -23 22 -23 21 C-28 23 -28 23 -31 28 C-33 27 -34 27 -35 27 C-35 23 -35 23 -32 19 C-31 18 -30 18 -29 17 C-26 14 -25 10 -23 7 C-17 0 -9 -4 0 0 Z " fill="#F6B024" transform="translate(272.25,269.3125)"/>
<path d="M0 0 C1 0 2 0 3 0 C3 1 2 2 2 3 C2 11 2 11 4 16 C7 17 7 17 12 16 C15 17 15 17 18 18 C19 19 19 21 20 22 C17 26 13 30 9 33 C8 34 6 36 5 37 C4 38 2 39 1 39 C-3 42 -4 43 -6 48 C-6 51 -6 51 -6 55 C-6 55 -6 55 -7 58 C-7 60 -7 61 -7 62 C-7 65 -7 67 -7 70 C-7 70 -7 70 -7 73 C-7 76 -7 76 -9 80 C-10 80 -11 79 -12 79 C-19 57 -12 30 -4 9 C-4 8 -4 8 -3 6 C-2 3 -2 3 0 0 Z " fill="#8F94A2" transform="translate(52,408)"/>
<path d="M0 0 C2 5 -1 8 -3 12 C-5 19 -6 25 -6 31 C-6 33 -6 34 -6 35 C-6 36 -6 36 -6 39 C-6 40 -6 41 -5 43 C-5 48 -5 54 -4 59 C-5 59 -6 59 -7 59 C-7 58 -7 58 -10 58 C-11 58 -12 58 -13 57 C-18 57 -21 58 -25 59 C-26 59 -28 58 -29 58 C-30 55 -30 55 -30 52 C-30 51 -30 51 -31 48 C-31 45 -31 45 -30 41 C-29 41 -29 41 -28 41 C-28 40 -28 40 -28 38 C-28 34 -28 34 -26 30 C-25 30 -23 29 -22 29 C-21 28 -20 27 -19 26 C-18 26 -17 27 -16 27 C-13 23 -13 23 -13 18 C-12 11 -10 9 -6 5 C-6 4 -5 3 -5 2 C-3 1 -2 1 0 0 Z " fill="#C1C4CF" transform="translate(146,208)"/>
<path d="M0 0 C1 0 1 0 2 0 C2 2 3 3 3 5 C2 5 2 5 1 5 C4 11 9 13 15 15 C34 18 34 18 42 16 C42 15 43 15 43 14 C46 16 48 17 51 19 C50 19 48 20 47 20 C47 23 46 26 46 29 C46 30 46 30 46 32 C45 33 43 33 42 34 C42 34 42 34 40 33 C37 33 35 33 32 33 C27 32 22 32 17 30 C11 29 7 29 1 31 C0 31 -1 30 -2 30 C-2 29 -3 27 -3 26 C-4 26 -4 25 -5 25 C-3 20 -3 20 0 15 C0 11 0 11 0 7 C0 6 0 4 0 3 C0 2 0 1 0 0 Z " fill="#C1C4CF" transform="translate(113,272)"/>
<path d="M0 0 C3 2 3 2 5 5 C5 7 4 8 4 9 C-1 11 -2 10 -7 8 C-13 8 -18 8 -23 10 C-21 10 -19 10 -18 9 C-16 9 -14 9 -12 9 C-9 12 -9 12 -8 16 C-7 17 -6 18 -5 19 C-5 22 -5 22 -6 25 C-7 25 -8 25 -8 25 C-15 25 -20 25 -26 27 C-28 28 -31 29 -33 29 C-34 25 -34 21 -33 16 C-32 16 -30 15 -29 14 C-31 14 -32 14 -34 13 C-35 10 -35 10 -35 7 C-32 2 -29 1 -25 -1 C-16 -3 -8 -3 0 0 Z " fill="#B5B8C3" transform="translate(366.875,165.8125)"/>
<path d="M0 0 C4 2 6 4 8 8 C11 13 11 13 15 17 C16 17 16 17 19 20 C19 22 19 23 19 25 C14 29 10 29 3 29 C-4 29 -4 29 -6 30 C-7 33 -7 33 -7 36 C-10 36 -12 36 -15 36 C-17 34 -17 34 -18 29 C-23 27 -28 28 -33 27 C-37 27 -40 27 -43 25 C-43 24 -43 24 -44 20 C-43 19 -43 19 -42 18 C-41 19 -41 20 -40 21 C-39 21 -38 22 -37 22 C-36 20 -36 19 -35 17 C-32 15 -32 15 -29 15 C-29 16 -29 18 -29 19 C-28 19 -27 20 -26 20 C-26 22 -26 24 -26 26 C-24 26 -23 26 -21 26 C-16 26 -16 26 -13 27 C-10 27 -10 27 -6 24 C-4 20 -4 17 -4 13 C-4 7 -3 4 0 0 Z " fill="#F39C10" transform="translate(278,275)"/>
<path d="M0 0 C5 5 7 10 8 17 C7 23 5 27 2 32 C-8 26 -17 17 -22 6 C-23 2 -23 2 -22 -2 C-14 -4 -8 -3 0 0 Z " fill="#656A7D" transform="translate(275,436)"/>
<path d="M0 0 C1 2 1 2 0 5 C-4 11 -10 13 -17 14 C-26 14 -36 14 -44 10 C-45 9 -45 9 -46 8 C-46 7 -45 5 -45 4 C-46 4 -46 4 -50 2 C-50 1 -50 1 -50 0 C-44 -0 -37 -0 -31 -1 C-29 -1 -27 -1 -25 -1 C-24 -1 -24 -1 -20 -1 C-18 -1 -16 -1 -15 -1 C-10 -1 -5 -1 0 0 Z " fill="#D7D8E4" transform="translate(291,639)"/>
<path d="M0 0 C1 0 2 0 3 0 C19 26 29 66 28 96 C27 96 25 95 24 95 C23 91 23 91 22 86 C22 86 22 86 21 84 C22 83 23 82 24 81 C21 76 21 76 18 74 C18 71 18 71 17 67 C17 60 16 56 13 50 C13 46 14 42 14 38 C13 38 11 37 10 37 C9 36 9 36 9 32 C8 27 8 27 5 22 C4 20 4 18 3 16 C2 15 2 14 1 13 C1 11 1 9 1 7 C0 6 -1 6 -2 5 C-2 4 -2 4 -2 3 C-1 3 -1 2 0 2 C0 1 0 1 0 0 Z " fill="#D7D8E4" transform="translate(389,145)"/>
<path d="M0 0 C5 3 5 3 8 6 C9 6 10 7 11 7 C10 10 10 10 8 12 C8 13 7 14 7 15 C6 15 6 15 5 15 C5 17 4 18 4 20 C3 20 2 21 1 21 C1 22 1 23 1 24 C-3 26 -7 25 -12 24 C-13 23 -15 23 -16 22 C-15 21 -14 20 -13 19 C-15 19 -18 19 -20 19 C-19 13 -18 8 -15 2 C-10 -1 -5 -1 0 0 Z " fill="#8A8F9F" transform="translate(415,524)"/>
<path d="M0 0 C2 2 1 9 1 13 C1 14 1 15 1 16 C2 21 1 24 -1 29 C-4 31 -4 31 -8 32 C-12 31 -15 30 -18 28 C-20 23 -18 17 -17 12 C-15 7 -12 4 -8 0 C-4 -1 -4 -1 0 0 Z " fill="#7E8498" transform="translate(472,442)"/>
<path d="M0 0 C1 1 2 3 3 4 C4 4 6 4 7 4 C12 4 12 4 15 5 C19 10 20 15 20 21 C19 24 19 24 15 28 C11 26 7 24 3 22 C2 21 1 20 -1 19 C-4 17 -4 17 -5 13 C-5 12 -5 10 -5 9 C-7 7 -8 4 -10 2 C-10 2 -10 1 -10 1 C-15 1 -19 1 -23 2 C-17 -4 -8 -3 0 0 Z " fill="#BFC2CD" transform="translate(365,175)"/>
<path d="M0 0 C3 2 3 2 5 5 C5 6 5 6 8 8 C10 11 10 11 12 14 C11 18 11 18 7 21 C-2 22 -11 21 -20 18 C-21 17 -22 16 -23 15 C-22 10 -21 10 -17 7 C-16 6 -15 6 -14 5 C-9 1 -6 0 0 0 Z " fill="#3A3B42" transform="translate(412,594)"/>
<path d="M0 0 C7 4 12 9 17 16 C18 17 18 17 19 17 C19 18 19 19 19 20 C18 20 18 20 17 20 C17 21 17 21 16 23 C15 22 14 21 13 20 C5 11 -4 5 -15 4 C-25 5 -34 9 -40 16 C-42 20 -44 23 -45 26 C-48 30 -50 32 -54 34 C-54 28 -54 27 -51 22 C-50 21 -49 20 -49 19 C-48 18 -48 17 -47 16 C-46 16 -46 16 -45 16 C-44 15 -44 13 -43 11 C-31 -0 -16 -7 0 0 Z " fill="#D7D8E4" transform="translate(280.11328125,252.6953125)"/>
<path d="M0 0 C1 0 1 0 2 0 C2 5 2 11 2 16 C2 18 2 19 3 21 C3 32 3 32 -1 37 C-4 40 -4 40 -9 41 C-14 38 -17 36 -20 31 C-20 26 -19 21 -18 16 C-17 15 -16 14 -15 13 C-12 14 -8 15 -5 16 C-3 16 -1 17 1 17 C1 11 0 6 0 0 Z " fill="#656A7D" transform="translate(109,531)"/>
<path d="M0 0 C2 3 2 3 3 7 C5 16 12 21 19 26 C20 27 21 28 22 29 C22 29 22 29 21 32 C17 34 13 35 9 36 C9 37 8 37 8 38 C8 38 8 38 6 39 C6 37 5 36 5 34 C3 28 1 27 -4 24 C-4 23 -4 23 -4 22 C-5 22 -5 22 -6 22 C-8 19 -9 17 -9 13 C-10 13 -10 13 -11 13 C-11 10 -11 10 -9 7 C-6 5 -6 5 -2 3 C-1 2 -1 1 0 0 Z " fill="#BEC1CD" transform="translate(310,261)"/>
<path d="M0 0 C1 0 1 0 3 0 C7 1 7 1 11 0 C18 4 18 4 19 7 C19 15 19 15 17 19 C18 19 20 18 21 18 C21 20 21 21 21 23 C17 23 14 24 10 24 C10 23 10 23 10 22 C9 22 7 22 6 22 C1 21 -1 20 -4 16 C-6 12 -6 12 -6 6 C-4 3 -4 3 -1 1 C-1 1 -0 0 0 0 Z " fill="#7A7CD3" transform="translate(482,172)"/>
<path d="M0 0 C4 0 8 0 12 0 C12 1 12 2 12 3 C14 3 16 3 18 2 C27 2 33 2 40 7 C43 8 43 8 46 8 C46 9 45 9 45 10 C43 11 40 11 38 12 C37 12 36 13 35 13 C26 13 21 13 13 9 C7 8 1 7 -5 7 C-6 7 -7 7 -8 7 C-12 7 -15 7 -18 7 C-19 8 -19 10 -20 11 C-26 13 -29 12 -34 9 C-34 8 -33 8 -33 7 C-30 7 -26 7 -23 7 C-22 7 -21 7 -20 7 C-19 6 -18 4 -17 3 C-13 3 -13 3 -8 3 C-8 3 -8 3 -4 4 C-3 4 -3 4 0 4 C0 3 0 1 0 0 Z " fill="#BDC0CC" transform="translate(259,72)"/>
<path d="M0 0 C3 2 3 2 5 5 C4 8 2 10 1 13 C1 14 1 16 1 17 C0 22 0 22 -3 27 C-3 33 -3 33 -2 38 C-3 39 -3 40 -4 41 C-5 41 -7 41 -8 41 C-9 46 -9 48 -7 53 C-7 59 -7 59 -8 61 C-9 61 -11 61 -12 61 C-12 66 -12 68 -10 73 C-10 74 -11 75 -11 76 C-12 76 -12 75 -13 75 C-13 76 -13 78 -13 79 C-13 79 -13 79 -16 80 C-16 80 -16 80 -18 82 C-18 75 -17 69 -16 62 C-16 61 -16 61 -15 56 C-14 52 -13 49 -12 45 C-12 43 -11 40 -11 38 C-8 25 -5 12 0 0 Z " fill="#D7D8E4" transform="translate(129,174)"/>
<path d="M0 0 C7 2 11 5 15 11 C16 17 15 19 12 24 C11 25 10 27 9 28 C8 28 8 28 7 28 C7 29 7 29 5 33 C-0 34 -2 33 -7 30 C-5 25 -5 25 -3 22 C-2 18 -2 15 -2 10 C-1 10 -1 10 0 10 C-0 9 -0 7 -1 6 C-1 2 -1 2 0 0 Z " fill="#C1C4D0" transform="translate(226,241)"/>
<path d="M0 0 C2 1 3 2 5 3 C5 5 5 7 5 9 C6 10 6 12 7 13 C8 17 8 17 7 22 C4 27 1 30 -4 33 C-5 33 -6 33 -7 33 C-8 32 -8 31 -9 30 C-10 30 -11 29 -12 29 C-13 24 -13 20 -12 15 C-10 12 -10 12 -7 10 C-5 7 -2 3 0 0 Z " fill="#6D71D1" transform="translate(496,110)"/>
<path d="M0 0 C1 0 1 0 5 1 C6 6 6 6 6 11 C7 15 7 15 9 18 C11 18 12 19 14 19 C14 19 14 19 13 22 C12 22 11 21 11 21 C5 21 2 23 -3 26 C-6 29 -6 29 -8 32 C-10 29 -11 26 -11 22 C-24 22 -24 22 -29 23 C-29 22 -30 21 -30 20 C-20 16 -20 16 -13 16 C-12 17 -11 17 -10 18 C-10 17 -10 17 -10 16 C-9 16 -7 15 -6 15 C-4 11 -4 11 -3 7 C-2 3 -2 3 0 0 Z " fill="#D3740B" transform="translate(185,618)"/>
<path d="M0 0 C0 3 1 6 1 9 C6 14 7 14 14 15 C21 16 26 17 32 20 C31 21 31 22 30 23 C27 23 27 23 23 22 C18 21 13 21 7 22 C7 24 6 25 6 27 C0 26 -3 24 -8 20 C-9 17 -9 17 -8 13 C-8 12 -8 11 -8 10 C-7 3 -7 3 -6 0 C-4 -1 -4 -1 0 0 Z " fill="#D7750A" transform="translate(350,619)"/>
<path d="M0 0 C1 0 1 0 5 1 C6 4 6 4 6 8 C7 9 8 10 9 11 C9 12 10 13 10 15 C12 19 12 19 15 23 C17 27 18 28 17 33 C16 36 15 38 14 41 C14 43 13 44 13 46 C14 47 14 48 15 49 C17 52 17 52 17 56 C17 57 16 58 16 59 C14 58 13 58 11 57 C11 56 11 56 11 55 C10 55 10 55 9 55 C8 47 8 47 9 44 C8 44 7 43 6 43 C5 39 5 37 6 33 C8 28 8 25 7 20 C6 20 6 20 5 20 C3 15 3 11 2 5 C1 3 1 2 0 0 Z " fill="#BDC0CC" transform="translate(232,439)"/>
<path d="M0 0 C4 2 4 2 6 6 C6 7 7 9 7 10 C7 11 8 12 8 14 C9 17 9 17 8 21 C8 24 9 26 9 29 C9 28 8 28 8 27 C7 27 7 27 6 27 C6 28 7 30 7 31 C7 38 5 42 1 47 C-1 49 -1 49 -4 51 C-5 52 -6 54 -8 55 C-11 59 -11 59 -16 62 C-16 56 -16 56 -14 54 C-13 53 -13 53 -11 51 C-2 42 1 31 1 18 C1 18 1 18 1 13 C1 9 1 9 -1 5 C-1 3 -0 2 0 0 Z " fill="#D7D8E4" transform="translate(218,224)"/>
<path d="M0 0 C3 2 3 2 5 5 C5 7 4 8 4 9 C-1 11 -2 10 -7 8 C-15 8 -19 8 -26 12 C-28 12 -30 12 -32 12 C-32 12 -32 11 -32 10 C-33 10 -33 10 -34 10 C-34 8 -34 6 -34 4 C-23 -2 -12 -4 0 0 Z " fill="#040407" transform="translate(366.875,165.8125)"/>
<path d="M0 0 C6 2 9 5 13 9 C14 13 14 13 12 16 C10 19 10 19 8 20 C4 20 4 20 1 20 C1 20 0 19 0 19 C-4 19 -7 19 -11 19 C-14 19 -14 19 -16 18 C-16 15 -16 15 -14 13 C-14 12 -14 12 -14 11 C-12 10 -11 10 -9 9 C-8 8 -7 7 -6 6 C-5 6 -5 6 -4 6 C-4 5 -4 5 -4 4 C-3 4 -2 4 -1 4 C-1 3 -0 1 0 0 Z " fill="#6C70D0" transform="translate(523,87)"/>
<path d="M0 0 C0 1 0 2 0 3 C-2 5 -2 5 -6 5 C-6 5 -6 5 -9 6 C-9 7 -10 9 -10 10 C-13 12 -13 12 -16 13 C-17 14 -19 15 -20 16 C-22 17 -24 18 -26 19 C-27 19 -27 19 -29 21 C-32 22 -32 22 -35 23 C-36 24 -36 26 -37 27 C-39 29 -40 30 -42 32 C-43 33 -44 34 -45 35 C-46 35 -46 35 -47 35 C-48 36 -48 38 -49 39 C-51 41 -54 43 -56 45 C-57 44 -58 43 -59 42 C-57 40 -55 37 -52 35 C-51 33 -50 32 -49 31 C-35 16 -19 6 0 0 Z " fill="#D6D7E3" transform="translate(216,79)"/>
<path d="M0 0 C4 4 4 4 5 8 C4 14 3 16 -1 19 C-6 20 -7 20 -12 17 C-15 13 -16 12 -16 7 C-14 4 -13 2 -10 -1 C-6 -2 -4 -2 0 0 Z " fill="#EEEFF2" transform="translate(350,226)"/>
<path d="M0 0 C6 0 6 0 10 4 C12 6 13 7 15 9 C16 10 18 11 19 13 C21 14 22 15 23 16 C23 17 23 17 23 18 C25 18 26 19 28 19 C29 20 30 21 31 22 C31 23 31 23 31 24 C33 24 34 25 36 25 C37 26 38 26 39 27 C42 29 42 29 48 29 C49 29 49 28 50 28 C56 28 56 28 61 29 C62 29 63 29 64 29 C64 30 64 31 64 32 C64 32 64 32 67 33 C53 36 43 35 30 27 C24 23 19 19 13 15 C12 14 11 14 10 13 C8 11 6 9 4 6 C3 5 2 4 2 3 C0 1 0 1 0 0 Z " fill="#CFD0DB" transform="translate(330,367)"/>
<path d="M0 0 C2 2 4 5 5 8 C8 14 8 14 9 15 C9 22 8 23 3 28 C-5 36 -5 47 -6 58 C-10 57 -10 57 -14 56 C-14 51 -14 51 -13 50 C-13 49 -13 48 -12 46 C-10 38 -6 30 0 23 C3 19 3 19 3 15 C2 11 2 11 -1 7 C-1 1 -1 1 0 0 Z " fill="#D7D8E4" transform="translate(247,383)"/>
<path d="M0 0 C4 1 4 1 7 3 C7 5 7 6 7 8 C7 8 7 8 4 8 C4 8 4 8 1 9 C0 13 0 13 0 19 C0 29 0 29 -2 34 C-2 35 -3 36 -3 38 C-4 43 -7 47 -9 52 C-10 55 -11 57 -12 60 C-12 61 -12 61 -14 65 C-15 65 -15 65 -16 65 C-17 60 -16 57 -14 52 C-11 43 -8 34 -6 25 C-6 24 -5 22 -5 21 C-3 14 -1 7 0 0 Z " fill="#D6D7E3" transform="translate(104,295)"/>
<path d="M0 0 C5 0 9 1 13 2 C13 3 13 4 13 5 C14 5 14 5 15 5 C17 9 17 9 17 14 C12 16 7 16 2 14 C2 15 2 15 2 16 C-3 20 -8 19 -14 19 C-14 18 -14 18 -14 17 C-11 16 -8 15 -5 14 C-6 13 -6 12 -7 11 C-5 9 -5 9 -3 6 C-3 5 -2 4 -2 3 C-1 2 -1 1 0 0 Z " fill="#D4D5E0" transform="translate(371,652)"/>
<path d="M0 0 C1 0 3 0 4 0 C4 1 4 2 5 4 C5 4 5 4 5 8 C6 10 6 12 6 14 C7 20 8 27 9 33 C10 37 10 41 10 45 C7 45 7 45 2 44 C2 40 2 37 3 33 C3 28 1 24 -1 20 C-3 15 -3 10 -3 5 C-2 5 -1 6 0 6 C0 4 0 2 0 0 Z " fill="#D7D8E4" transform="translate(416,261)"/>
<path d="M0 0 C1 0 2 0 3 0 C47 0 47 0 60 4 C60 4 60 5 60 5 C50 5 39 5 29 5 C26 5 22 5 18 5 C13 5 8 5 3 6 C2 6 0 6 -2 6 C-3 6 -4 6 -6 6 C-7 6 -9 6 -10 6 C-11 5 -12 5 -13 5 C-14 4 -14 2 -15 1 C-10 -0 -5 -0 0 0 Z " fill="#EEEFF2" transform="translate(186.875,669.875)"/>
<path d="M0 0 C0 0 1 0 1 0 C1 2 1 3 1 5 C3 5 5 5 7 5 C11 10 15 14 15 21 C19 22 19 22 23 21 C25 16 25 16 26 12 C27 12 27 13 28 13 C27 17 27 19 24 22 C20 25 17 24 13 24 C11 23 10 23 8 23 C8 23 8 23 5 22 C4 19 4 19 4 16 C3 16 3 15 2 15 C2 14 2 12 2 11 C-3 13 -3 13 -6 18 C-7 18 -9 17 -10 17 C-10 13 -10 13 -6 9 C-5 8 -3 6 -2 5 C-1 3 -1 2 0 0 Z " fill="#F5A816" transform="translate(247,279)"/>
<path d="M0 0 C5 1 8 4 12 7 C13 8 14 9 15 10 C18 13 18 13 20 18 C19 18 18 17 17 17 C11 15 7 16 1 18 C-0 18 -2 18 -3 18 C-3 17 -3 17 -3 16 C-4 16 -4 16 -8 14 C-8 13 -9 12 -9 11 C-8 11 -8 11 -7 11 C-7 10 -6 9 -6 8 C-4 6 -3 5 -1 3 C-1 2 -0 1 0 0 Z " fill="#757B8F" transform="translate(88,360)"/>
<path d="M0 0 C0 4 -2 5 -5 8 C-12 15 -23 25 -34 25 C-34 24 -33 23 -33 22 C-32 22 -31 22 -30 22 C-30 20 -29 19 -29 17 C-28 17 -28 17 -27 17 C-27 15 -26 14 -26 12 C-24 10 -24 10 -21 8 C-20 8 -19 7 -18 7 C-17 6 -16 6 -15 5 C-13 4 -12 3 -10 2 C-7 2 -4 1 -1 1 C-1 1 -0 0 0 0 Z " fill="#656A7D" transform="translate(449,522)"/>
<path d="M0 0 C4 2 6 4 9 7 C10 7 10 7 14 9 C14 10 14 10 14 11 C8 12 8 12 6 11 C0 11 0 11 -2 12 C-9 12 -11 11 -16 7 C-17 7 -18 6 -19 6 C-19 5 -19 5 -19 4 C-20 4 -21 3 -22 3 C-22 2 -22 2 -22 1 C-21 1 -20 1 -18 1 C-11 1 -7 -1 0 0 Z " fill="#BDC0CC" transform="translate(380,385)"/>
<path d="M0 0 C3 1 3 1 5 6 C10 17 16 30 14 43 C13 43 13 43 10 44 C10 44 10 44 9 41 C7 35 5 29 3 23 C0 15 -2 8 0 0 Z " fill="#7D8397" transform="translate(109,381)"/>
<path d="M0 0 C18 2 36 19 47 32 C48 34 49 35 50 37 C44 37 43 36 39 32 C39 31 39 31 39 30 C38 29 36 29 35 28 C33 26 32 25 30 23 C27 21 25 19 22 17 C20 16 19 15 18 14 C14 11 14 11 11 10 C10 9 9 8 8 7 C6 6 5 5 3 4 C2 3 1 3 0 2 C0 1 0 1 0 0 Z " fill="#D7D8E4" transform="translate(324,83)"/>
<path d="M0 0 C1 2 2 3 3 5 C6 5 6 5 9 5 C15 5 15 5 18 6 C20 10 20 12 20 16 C21 18 21 21 22 23 C18 22 16 21 12 18 C7 14 7 14 5 14 C1 13 1 13 -3 9 C-3 7 -2 6 -2 4 C-3 4 -5 5 -6 5 C-6 4 -5 2 -5 1 C-2 0 -2 0 0 0 Z " fill="#BEC1CD" transform="translate(302,333)"/>
<path d="M0 0 C0 1 0 3 0 4 C1 4 2 5 3 5 C3 7 3 9 3 11 C4 11 6 11 7 11 C13 11 17 11 22 14 C23 18 23 18 22 21 C19 21 17 21 14 21 C12 19 12 19 11 14 C6 12 1 13 -4 12 C-8 12 -11 12 -14 10 C-14 9 -14 9 -15 5 C-14 4 -14 4 -13 3 C-13 3 -13 3 -11 6 C-10 6 -9 7 -8 7 C-7 5 -7 4 -6 2 C-3 0 -3 0 0 0 Z " fill="#D47C0F" transform="translate(249,290)"/>
<path d="M0 0 C3 0 5 1 8 1 C8 3 8 4 8 6 C7 6 7 6 6 6 C6 12 5 19 5 25 C4 25 4 25 3 25 C3 27 3 30 3 32 C4 32 4 32 5 32 C5 33 6 35 6 36 C7 36 7 36 8 36 C8 40 8 40 8 44 C4 46 4 46 0 47 C0 31 0 16 0 0 Z " fill="#D7D8E4" transform="translate(127,427)"/>
<path d="M0 0 C4 2 7 5 11 8 C12 9 13 10 14 11 C15 11 15 12 16 13 C16 14 15 15 15 16 C11 18 7 19 3 20 C3 21 2 21 2 22 C1 22 1 23 0 23 C-2 17 -4 12 -3 5 C-2 3 -1 2 0 0 Z " fill="#C2C5D0" transform="translate(316,277)"/>
<path d="M0 0 C3 -0 3 -0 6 1 C7 5 8 8 9 12 C11 22 14 32 18 42 C20 47 21 50 20 55 C20 55 20 55 17 54 C16 51 16 51 16 48 C15 48 15 48 14 48 C13 44 12 40 11 36 C10 35 10 33 9 32 C9 31 9 29 9 28 C8 24 7 22 5 18 C5 16 4 15 4 13 C3 9 3 9 0 4 C0 3 0 1 0 0 Z " fill="#CACCD6" transform="translate(420,305)"/>
<path d="M0 0 C1 0 1 0 5 3 C5 5 5 7 5 9 C3 9 2 9 -0 10 C-7 11 -13 13 -20 15 C-21 12 -21 12 -20 7 C-19 5 -18 4 -17 2 C-12 1 -12 1 -8 1 C-6 0 -6 0 0 0 Z " fill="#C2C5D0" transform="translate(408,263)"/>
<path d="M0 0 C3 2 7 4 10 6 C12 7 13 7 15 8 C15 8 15 9 15 9 C13 9 12 9 10 9 C8 9 7 10 5 10 C4 11 4 13 3 14 C-0 14 -0 14 -4 13 C-5 13 -6 12 -8 12 C-11 11 -11 11 -14 9 C-14 7 -14 6 -14 4 C-10 -0 -6 -1 0 0 Z " fill="#EDEEF1" transform="translate(375,614)"/>
<path d="M0 0 C2 0 4 0 6 0 C8 2 8 2 10 5 C11 5 12 6 13 6 C14 9 14 9 13 13 C10 16 7 18 3 20 C1 20 -0 19 -2 19 C-2 18 -2 18 -2 17 C-1 17 -1 16 0 16 C-0 13 -0 13 -0 10 C-1 3 -1 3 0 0 Z " fill="#C1C4CF" transform="translate(421,348)"/>
<path d="M0 0 C1 0 1 0 2 0 C2 1 2 1 2 2 C1 2 1 2 0 2 C0 1 0 1 0 0 Z " fill="#EEEFF2" transform="translate(157,617)"/>
</svg>
