<?xml version="1.0" encoding="UTF-8"?>
<!-- Generator: visioncortex VTracer 0.6.12 -->
<svg version="1.1" xmlns="http://www.w3.org/2000/svg" width="656" height="604">
<path d="M0 0 C4 -0 8 -1 12 -1 C13 -1 14 -1 15 -1 C17 -1 20 -1 22 -1 C26 -1 30 -1 33 -1 C36 -1 38 -1 40 -1 C41 -1 41 -1 44 -1 C47 -1 47 -1 52 0 C53 1 53 3 54 4 C57 4 57 4 61 4 C65 4 65 4 68 4 C69 5 69 7 70 8 C72 8 74 8 76 8 C77 9 77 11 78 12 C80 12 82 12 84 12 C85 13 85 15 86 16 C88 16 90 16 92 16 C93 17 93 19 94 20 C95 20 95 20 98 22 C98 23 98 23 98 24 C100 24 102 24 104 24 C105 25 105 27 106 28 C107 28 107 28 110 30 C110 31 110 31 110 32 C111 33 113 33 114 34 C114 35 114 35 114 36 C115 37 117 37 118 38 C118 39 118 39 118 40 C119 41 121 41 122 42 C122 43 122 43 122 44 C123 44 124 44 125 44 C125 45 125 46 125 47 C126 51 126 51 130 54 C130 55 130 55 130 56 C131 56 132 56 133 56 C133 57 133 58 133 59 C134 63 134 63 138 66 C138 67 138 67 138 68 C139 68 140 68 141 68 C141 69 141 69 141 73 C142 75 142 77 142 79 C143 79 144 80 145 80 C145 84 146 87 146 91 C147 91 148 92 149 92 C149 97 150 102 150 107 C150 107 150 107 150 111 C151 111 152 112 153 112 C153 117 153 122 153 127 C153 130 153 130 154 135 C157 137 157 137 161 137 C161 138 162 139 162 140 C163 141 165 141 166 142 C166 143 166 143 166 144 C167 145 169 145 170 146 C170 147 170 147 170 148 C171 149 173 149 174 150 C174 151 174 151 174 152 C175 153 177 153 178 154 C178 155 178 155 178 156 C179 156 180 156 181 156 C181 162 181 168 181 174 C180 174 179 174 178 174 C177 175 177 177 176 178 C172 178 169 178 165 178 C164 178 163 178 162 178 C161 179 161 181 160 182 C159 182 159 182 157 182 C156 182 155 183 154 183 C153 189 153 189 153 194 C152 194 151 194 150 194 C149 195 149 197 148 198 C147 198 147 198 146 198 C145 199 145 201 144 202 C143 202 142 202 141 202 C140 203 139 203 138 203 C137 206 137 206 137 210 C136 210 135 211 134 211 C134 212 134 213 134 214 C133 216 133 217 133 218 C132 218 131 219 130 219 C130 221 130 223 130 224 C129 226 129 228 129 230 C128 230 127 231 126 231 C126 233 126 235 126 236 C125 238 125 240 125 242 C124 242 123 243 122 243 C122 248 122 252 122 256 C121 261 121 265 121 270 C120 270 119 271 118 271 C118 275 118 275 118 280 C117 286 117 286 117 290 C116 290 115 291 114 291 C114 294 114 294 114 299 C114 300 114 302 114 303 C114 304 114 304 114 307 C115 307 115 307 118 310 C118 311 118 311 118 312 C120 312 121 312 123 312 C125 312 127 312 129 312 C130 312 131 312 132 312 C135 312 135 312 140 312 C141 313 141 315 142 316 C144 316 146 316 148 316 C149 317 149 319 150 320 C151 321 153 321 154 322 C154 323 154 323 154 324 C155 324 156 324 157 324 C157 325 157 325 157 329 C158 331 158 333 158 335 C159 336 160 336 161 337 C161 339 160 340 160 342 C160 342 160 342 158 343 C158 345 157 348 157 350 C156 350 155 350 154 350 C153 351 153 353 152 354 C151 354 151 354 150 354 C149 355 149 357 148 358 C148 358 148 358 146 359 C146 362 146 364 145 367 C145 368 145 369 145 371 C145 372 145 373 145 374 C144 374 143 374 142 374 C141 375 141 377 140 378 C139 378 139 378 138 378 C137 379 137 381 136 382 C135 382 135 382 134 382 C133 383 133 385 132 386 C131 386 131 386 130 386 C129 387 129 389 128 390 C123 390 119 390 114 390 C113 390 111 390 110 390 C109 391 109 393 108 394 C107 394 107 394 106 394 C105 395 105 397 104 398 C103 398 103 398 102 398 C101 399 101 401 100 402 C99 402 99 402 98 402 C97 403 97 405 96 406 C93 406 89 406 86 406 C85 407 85 409 84 410 C80 411 80 411 76 410 C75 411 73 411 72 411 C70 410 69 410 68 410 C67 409 67 407 66 406 C63 405 63 405 60 405 C59 405 57 405 56 405 C55 405 53 405 52 406 C51 405 49 405 48 405 C47 405 46 405 44 405 C44 405 44 405 41 405 C40 406 39 406 38 406 C37 407 37 409 36 410 C34 410 32 410 30 410 C29 411 29 413 28 414 C27 414 27 414 26 414 C25 415 25 417 24 418 C23 418 23 419 22 419 C22 423 22 426 21 430 C21 431 21 432 21 433 C20 434 19 434 18 435 C18 436 18 438 18 439 C20 440 23 440 25 441 C25 442 26 443 26 444 C27 444 28 445 29 445 C29 446 30 446 30 447 C31 447 33 447 34 447 C35 446 35 445 36 444 C38 444 40 444 42 444 C43 443 43 441 44 440 C46 440 48 440 50 440 C51 439 51 437 52 436 C56 436 56 436 60 436 C61 437 61 439 62 440 C64 440 66 440 68 440 C69 441 69 443 70 444 C71 444 72 445 73 445 C73 447 72 448 72 450 C71 450 71 450 70 450 C69 451 69 453 68 454 C65 455 65 455 62 455 C62 456 62 458 62 459 C63 459 63 459 66 462 C66 463 66 463 66 464 C67 464 68 464 69 464 C69 467 69 471 69 474 C68 474 67 474 66 474 C65 475 65 477 64 478 C58 478 53 478 47 478 C44 478 41 478 38 478 C37 479 37 481 36 482 C35 482 35 482 34 482 C33 483 33 485 32 486 C31 486 31 486 30 486 C29 487 29 489 28 490 C27 490 27 490 26 490 C25 491 25 493 24 494 C21 494 21 494 17 494 C16 494 15 494 14 494 C13 494 12 494 11 494 C11 493 11 492 11 491 C11 489 11 488 11 487 C10 487 8 486 7 486 C7 485 7 485 7 484 C8 484 10 483 11 483 C11 480 11 476 11 473 C12 472 13 472 14 471 C14 470 14 468 14 467 C13 467 13 467 10 464 C10 463 10 463 10 462 C9 461 7 461 6 460 C6 459 6 459 6 458 C5 457 3 457 2 456 C2 455 2 455 2 454 C1 453 -1 453 -2 452 C-2 451 -2 451 -2 450 C-4 450 -5 450 -7 450 C-9 450 -11 450 -13 450 C-14 450 -15 450 -16 450 C-19 450 -19 450 -24 450 C-25 449 -25 447 -26 446 C-28 446 -29 446 -31 446 C-33 446 -34 446 -36 446 C-37 445 -37 443 -38 442 C-41 441 -41 441 -44 441 C-45 441 -47 441 -48 441 C-49 441 -51 441 -52 442 C-53 441 -55 441 -56 441 C-57 441 -58 441 -60 441 C-60 441 -60 441 -63 441 C-64 442 -65 442 -66 442 C-67 443 -67 445 -68 446 C-72 447 -72 447 -76 447 C-78 447 -79 447 -81 447 C-82 447 -82 447 -86 446 C-88 447 -89 447 -91 447 C-92 447 -92 447 -96 447 C-97 447 -99 447 -100 447 C-102 446 -103 446 -104 446 C-105 445 -105 443 -106 442 C-110 441 -110 441 -115 441 C-116 441 -116 441 -120 441 C-122 441 -124 441 -126 442 C-127 441 -127 441 -132 441 C-133 441 -133 441 -137 441 C-138 441 -138 441 -142 441 C-143 442 -145 442 -146 442 C-147 443 -147 445 -148 446 C-153 446 -157 446 -162 446 C-165 446 -167 446 -170 446 C-171 447 -171 449 -172 450 C-174 450 -176 450 -178 450 C-179 451 -179 453 -180 454 C-185 454 -189 454 -194 454 C-195 454 -197 455 -198 455 C-199 458 -199 458 -199 462 C-200 462 -201 463 -202 463 C-203 467 -203 467 -203 470 C-204 470 -205 470 -206 470 C-207 471 -207 473 -208 474 C-209 474 -209 474 -210 474 C-211 475 -211 477 -212 478 C-214 478 -216 478 -218 478 C-218 479 -219 481 -219 482 C-223 481 -224 479 -226 476 C-226 475 -226 475 -226 474 C-227 474 -228 473 -229 473 C-229 471 -228 470 -228 468 C-227 468 -227 467 -226 467 C-226 466 -226 464 -226 463 C-230 462 -230 462 -234 462 C-235 463 -235 465 -236 466 C-238 466 -239 465 -241 465 C-241 464 -242 464 -242 463 C-243 463 -244 462 -245 462 C-245 457 -245 457 -245 452 C-244 452 -243 452 -242 452 C-241 451 -241 449 -240 448 C-239 448 -239 448 -238 448 C-237 447 -237 445 -236 444 C-235 444 -235 444 -234 444 C-233 443 -233 441 -232 440 C-231 440 -231 440 -230 440 C-229 439 -229 437 -228 436 C-227 436 -227 435 -226 435 C-226 432 -226 429 -225 425 C-225 424 -225 422 -225 420 C-225 419 -225 417 -225 416 C-224 416 -223 416 -222 416 C-220 416 -219 416 -218 416 C-217 415 -217 413 -216 412 C-215 412 -215 411 -214 411 C-214 410 -214 408 -214 407 C-216 406 -219 406 -221 405 C-221 404 -222 403 -222 402 C-223 401 -225 401 -226 400 C-226 399 -226 399 -226 398 C-230 398 -230 398 -234 398 C-235 399 -235 401 -236 402 C-239 402 -243 402 -246 402 C-247 403 -247 405 -248 406 C-250 406 -252 406 -254 406 C-255 407 -255 409 -256 410 C-259 410 -263 410 -266 410 C-267 411 -267 413 -268 414 C-272 414 -275 415 -279 415 C-283 415 -286 415 -290 415 C-291 416 -291 417 -292 418 C-294 418 -295 417 -297 417 C-297 416 -298 416 -298 415 C-302 415 -305 415 -309 415 C-310 414 -311 414 -312 414 C-312 413 -312 413 -314 410 C-315 409 -317 409 -318 408 C-318 407 -318 407 -318 406 C-319 406 -320 406 -321 406 C-321 404 -321 404 -322 395 C-324 395 -326 395 -328 395 C-330 395 -332 395 -335 395 C-336 395 -337 395 -339 395 C-342 395 -345 394 -348 394 C-349 393 -349 391 -350 390 C-353 390 -353 390 -357 390 C-361 390 -361 390 -364 390 C-365 389 -365 387 -366 386 C-367 385 -369 385 -370 384 C-370 383 -370 383 -370 382 C-371 382 -372 382 -373 382 C-373 377 -373 377 -373 372 C-372 372 -371 371 -370 371 C-370 370 -370 369 -370 368 C-370 366 -369 365 -369 364 C-367 364 -364 363 -362 363 C-361 359 -361 359 -361 356 C-360 356 -359 356 -358 356 C-358 355 -358 355 -356 352 C-355 352 -355 352 -354 352 C-354 351 -354 351 -352 348 C-349 348 -345 348 -342 348 C-342 347 -342 347 -340 344 C-337 344 -333 344 -330 344 C-329 343 -329 341 -328 340 C-325 340 -321 340 -318 340 C-317 339 -317 337 -316 336 C-313 336 -309 336 -306 336 C-305 335 -305 333 -304 332 C-301 332 -297 332 -294 332 C-293 331 -293 329 -292 328 C-291 328 -290 328 -289 328 C-288 327 -287 327 -286 327 C-286 325 -285 324 -285 322 C-288 322 -290 322 -293 322 C-292 319 -292 319 -289 317 C-286 315 -286 315 -285 310 C-285 309 -285 307 -285 305 C-285 304 -285 302 -285 300 C-285 299 -285 297 -285 296 C-284 296 -283 296 -282 296 C-281 295 -281 293 -280 292 C-279 292 -279 292 -278 292 C-277 291 -277 289 -276 288 C-275 288 -275 288 -274 288 C-273 287 -273 285 -272 284 C-271 284 -271 283 -270 283 C-270 282 -270 282 -270 280 C-269 278 -269 277 -269 276 C-268 276 -267 275 -266 275 C-266 271 -265 268 -265 264 C-264 264 -263 264 -262 264 C-261 263 -261 261 -260 260 C-259 260 -259 259 -258 259 C-258 257 -257 254 -257 252 C-256 252 -255 252 -254 252 C-253 251 -253 249 -252 248 C-251 248 -251 248 -250 248 C-249 247 -249 245 -248 244 C-247 244 -247 244 -246 244 C-245 243 -245 241 -244 240 C-243 240 -243 240 -242 240 C-241 239 -241 237 -240 236 C-239 236 -239 236 -238 236 C-237 235 -237 233 -236 232 C-235 232 -235 232 -234 232 C-233 231 -233 229 -232 228 C-231 228 -231 228 -230 228 C-229 227 -229 225 -228 224 C-227 224 -227 224 -226 224 C-225 223 -225 221 -224 220 C-223 220 -223 220 -222 220 C-221 219 -221 217 -220 216 C-218 216 -216 216 -214 216 C-213 215 -213 213 -212 212 C-211 212 -211 212 -210 212 C-209 211 -209 209 -208 208 C-206 208 -204 208 -202 208 C-201 207 -201 205 -200 204 C-198 204 -196 204 -194 204 C-193 203 -193 201 -192 200 C-191 200 -191 200 -190 200 C-189 199 -189 197 -188 196 C-186 196 -184 196 -182 196 C-181 195 -181 193 -180 192 C-178 192 -176 192 -174 192 C-173 191 -173 189 -172 188 C-170 188 -168 188 -166 188 C-165 187 -165 185 -164 184 C-163 184 -163 184 -162 184 C-161 183 -161 181 -160 180 C-158 180 -156 180 -154 180 C-153 179 -153 177 -152 176 C-151 176 -151 176 -150 176 C-149 175 -149 173 -148 172 C-146 172 -144 172 -142 172 C-141 171 -141 169 -140 168 C-139 168 -139 168 -138 168 C-137 167 -137 165 -136 164 C-135 164 -135 163 -134 163 C-134 161 -133 158 -133 156 C-132 156 -131 156 -130 156 C-129 155 -129 153 -128 152 C-127 152 -127 151 -126 151 C-126 150 -126 149 -126 148 C-125 146 -125 145 -125 144 C-124 144 -123 143 -122 143 C-122 142 -122 141 -122 140 C-121 138 -121 137 -121 136 C-120 136 -119 135 -118 135 C-118 133 -118 131 -118 130 C-117 128 -117 126 -117 124 C-117 124 -117 124 -114 123 C-114 122 -114 121 -114 120 C-113 118 -113 117 -113 116 C-113 116 -113 116 -110 115 C-110 113 -110 111 -110 110 C-109 108 -109 106 -109 104 C-109 104 -109 104 -106 103 C-106 102 -106 101 -106 100 C-105 98 -105 97 -105 96 C-105 96 -105 96 -102 95 C-102 94 -102 93 -102 92 C-101 90 -101 89 -101 88 C-101 88 -101 88 -98 87 C-98 83 -97 80 -97 76 C-96 76 -95 76 -94 76 C-93 75 -93 73 -92 72 C-91 72 -91 71 -90 71 C-90 70 -90 69 -90 68 C-89 66 -89 65 -89 64 C-89 64 -89 64 -86 63 C-85 59 -85 59 -85 56 C-84 56 -83 56 -82 56 C-81 55 -81 53 -80 52 C-79 52 -79 52 -78 52 C-77 51 -77 49 -76 48 C-75 48 -75 48 -74 48 C-73 47 -73 45 -72 44 C-71 44 -71 44 -70 44 C-69 43 -69 41 -68 40 C-67 40 -67 40 -66 40 C-65 39 -65 37 -64 36 C-63 36 -63 36 -62 36 C-61 35 -61 33 -60 32 C-59 32 -59 32 -58 32 C-57 31 -57 29 -56 28 C-55 28 -55 28 -54 28 C-53 27 -53 25 -52 24 C-51 24 -51 24 -50 24 C-49 23 -49 21 -48 20 C-46 20 -44 20 -42 20 C-41 19 -41 17 -40 16 C-39 16 -39 16 -38 16 C-37 15 -37 13 -36 12 C-34 12 -32 12 -30 12 C-29 11 -29 9 -28 8 C-25 8 -21 8 -18 8 C-17 7 -17 5 -16 4 C-12 4 -9 4 -5 4 C-4 4 -3 4 -2 4 C-1 3 -1 1 0 0 Z " fill="#C9CCD5" transform="translate(450,25)"/>
<path d="M0 0 C4 -0 8 -1 12 -1 C13 -1 14 -1 15 -1 C17 -1 20 -1 22 -1 C26 -1 30 -1 33 -1 C36 -1 38 -1 40 -1 C41 -1 41 -1 44 -1 C47 -1 47 -1 52 0 C53 1 53 3 54 4 C57 4 57 4 61 4 C65 4 65 4 68 4 C69 5 69 7 70 8 C72 8 74 8 76 8 C77 9 77 11 78 12 C80 12 82 12 84 12 C85 13 85 15 86 16 C88 16 90 16 92 16 C93 17 93 19 94 20 C95 20 95 20 98 22 C98 23 98 23 98 24 C100 24 102 24 104 24 C105 25 105 27 106 28 C107 28 107 28 110 30 C110 31 110 31 110 32 C111 33 113 33 114 34 C114 35 114 35 114 36 C115 37 117 37 118 38 C118 39 118 39 118 40 C119 41 121 41 122 42 C122 43 122 43 122 44 C123 44 124 44 125 44 C125 45 125 46 125 47 C126 51 126 51 130 54 C130 55 130 55 130 56 C131 56 132 56 133 56 C133 57 133 58 133 59 C134 63 134 63 138 66 C138 67 138 67 138 68 C139 68 140 68 141 68 C141 69 141 69 141 73 C142 75 142 77 142 79 C143 79 144 80 145 80 C145 84 146 87 146 91 C147 91 148 92 149 92 C149 97 150 102 150 107 C150 107 150 107 150 111 C151 111 152 112 153 112 C153 117 153 122 153 127 C153 130 153 130 154 135 C157 137 157 137 161 137 C161 138 162 139 162 140 C163 141 165 141 166 142 C166 143 166 143 166 144 C167 145 169 145 170 146 C170 147 170 147 170 148 C171 149 173 149 174 150 C174 151 174 151 174 152 C175 153 177 153 178 154 C178 155 178 155 178 156 C179 156 180 156 181 156 C181 162 181 168 181 174 C180 174 179 174 178 174 C177 175 177 177 176 178 C172 178 169 178 165 178 C164 178 163 178 162 178 C161 179 161 181 160 182 C159 182 159 182 157 182 C156 182 155 183 154 183 C153 189 153 189 153 194 C152 194 151 194 150 194 C149 195 149 197 148 198 C147 198 147 198 146 198 C145 199 145 201 144 202 C143 202 142 202 141 202 C140 203 139 203 138 203 C137 206 137 206 137 210 C136 210 135 211 134 211 C134 212 134 213 134 214 C133 216 133 217 133 218 C132 218 131 219 130 219 C130 221 130 223 130 224 C129 226 129 228 129 230 C128 230 127 231 126 231 C126 233 126 235 126 236 C125 238 125 240 125 242 C124 242 123 243 122 243 C122 248 122 252 122 256 C121 261 121 265 121 270 C120 270 119 271 118 271 C118 275 118 275 118 280 C117 286 117 286 117 290 C116 290 115 291 114 291 C114 294 114 294 114 299 C114 300 114 302 114 303 C114 304 114 304 114 307 C115 307 115 307 118 310 C118 311 118 311 118 312 C120 312 121 312 123 312 C125 312 127 312 129 312 C130 312 131 312 132 312 C135 312 135 312 140 312 C141 313 141 315 142 316 C144 316 146 316 148 316 C149 317 149 319 150 320 C151 321 153 321 154 322 C154 323 154 323 154 324 C155 324 156 324 157 324 C157 325 157 325 157 329 C158 331 158 333 158 335 C159 336 160 336 161 337 C161 339 160 340 160 342 C160 342 160 342 158 343 C158 345 157 348 157 350 C156 350 155 350 154 350 C153 351 153 353 152 354 C151 354 151 354 150 354 C149 355 149 357 148 358 C148 358 148 358 146 359 C146 362 146 364 145 367 C145 368 145 369 145 371 C145 372 145 373 145 374 C144 374 143 374 142 374 C141 375 141 377 140 378 C139 378 139 378 138 378 C137 379 137 381 136 382 C135 382 135 382 134 382 C133 383 133 385 132 386 C131 386 131 386 130 386 C129 387 129 389 128 390 C123 390 119 390 114 390 C113 390 111 390 110 390 C109 391 109 393 108 394 C107 394 107 394 106 394 C105 395 105 397 104 398 C103 398 103 398 102 398 C101 399 101 401 100 402 C99 402 99 402 98 402 C97 403 97 405 96 406 C93 406 89 406 86 406 C85 407 85 409 84 410 C80 411 80 411 76 410 C75 411 73 411 72 411 C70 410 69 410 68 410 C67 409 67 407 66 406 C63 405 63 405 60 405 C59 405 57 405 56 405 C55 405 53 405 52 406 C51 405 49 405 48 405 C47 405 46 405 44 405 C44 405 44 405 41 405 C40 406 39 406 38 406 C37 407 37 409 36 410 C34 410 32 410 30 410 C29 411 29 413 28 414 C27 414 27 414 26 414 C25 415 25 417 24 418 C23 418 23 419 22 419 C22 423 22 426 21 430 C21 431 21 432 21 433 C20 434 19 434 18 435 C18 436 18 438 18 439 C20 440 23 440 25 441 C25 442 26 443 26 444 C27 444 28 445 29 445 C29 446 30 446 30 447 C31 447 33 447 34 447 C35 446 35 445 36 444 C38 444 40 444 42 444 C43 443 43 441 44 440 C46 440 48 440 50 440 C51 439 51 437 52 436 C56 436 56 436 60 436 C61 437 61 439 62 440 C64 440 66 440 68 440 C69 441 69 443 70 444 C71 444 72 445 73 445 C73 447 72 448 72 450 C71 450 71 450 70 450 C69 451 69 453 68 454 C65 455 65 455 62 455 C62 456 62 458 62 459 C63 459 63 459 66 462 C66 463 66 463 66 464 C67 464 68 464 69 464 C69 467 69 471 69 474 C68 474 67 474 66 474 C65 475 65 477 64 478 C58 478 53 478 47 478 C44 478 41 478 38 478 C37 479 37 481 36 482 C35 482 35 482 34 482 C33 483 33 485 32 486 C31 486 31 486 30 486 C29 487 29 489 28 490 C27 490 27 490 26 490 C25 491 25 493 24 494 C21 494 21 494 17 494 C16 494 15 494 14 494 C13 494 12 494 11 494 C11 493 11 492 11 491 C11 489 11 488 11 487 C10 487 8 486 7 486 C7 485 7 485 7 484 C8 484 10 483 11 483 C11 480 11 476 11 473 C12 472 13 472 14 471 C14 470 14 468 14 467 C13 467 13 467 10 464 C10 463 10 463 10 462 C9 461 7 461 6 460 C6 459 6 459 6 458 C5 457 3 457 2 456 C2 455 2 455 2 454 C1 453 -1 453 -2 452 C-2 451 -2 451 -2 450 C-4 450 -5 450 -7 450 C-9 450 -11 450 -13 450 C-14 450 -15 450 -16 450 C-19 450 -19 450 -24 450 C-25 449 -25 447 -26 446 C-28 446 -29 446 -31 446 C-33 446 -34 446 -36 446 C-37 445 -37 443 -38 442 C-41 441 -41 441 -44 441 C-45 441 -47 441 -48 441 C-49 441 -51 441 -52 442 C-53 441 -55 441 -56 441 C-57 441 -58 441 -60 441 C-60 441 -60 441 -63 441 C-64 442 -65 442 -66 442 C-67 443 -67 445 -68 446 C-72 447 -72 447 -76 447 C-78 447 -79 447 -81 447 C-82 447 -82 447 -86 446 C-88 447 -89 447 -91 447 C-92 447 -92 447 -96 447 C-97 447 -99 447 -100 447 C-102 446 -103 446 -104 446 C-105 445 -105 443 -106 442 C-110 441 -110 441 -115 441 C-116 441 -116 441 -120 441 C-122 441 -124 441 -126 442 C-127 441 -127 441 -132 441 C-133 441 -133 441 -137 441 C-138 441 -138 441 -142 441 C-143 442 -145 442 -146 442 C-147 443 -147 445 -148 446 C-153 446 -157 446 -162 446 C-165 446 -167 446 -170 446 C-171 447 -171 449 -172 450 C-174 450 -176 450 -178 450 C-179 451 -179 453 -180 454 C-185 454 -189 454 -194 454 C-195 454 -197 455 -198 455 C-199 458 -199 458 -199 462 C-200 462 -201 463 -202 463 C-203 467 -203 467 -203 470 C-204 470 -205 470 -206 470 C-207 471 -207 473 -208 474 C-209 474 -209 474 -210 474 C-211 475 -211 477 -212 478 C-214 478 -216 478 -218 478 C-218 479 -219 481 -219 482 C-223 481 -224 479 -226 476 C-226 475 -226 475 -226 474 C-227 474 -228 473 -229 473 C-229 471 -228 470 -228 468 C-227 468 -227 467 -226 467 C-226 466 -226 464 -226 463 C-230 462 -230 462 -234 462 C-235 463 -235 465 -236 466 C-238 466 -239 465 -241 465 C-241 464 -242 464 -242 463 C-243 463 -244 462 -245 462 C-245 457 -245 457 -245 452 C-244 452 -243 452 -242 452 C-241 451 -241 449 -240 448 C-239 448 -239 448 -238 448 C-237 447 -237 445 -236 444 C-235 444 -235 444 -234 444 C-233 443 -233 441 -232 440 C-231 440 -231 440 -230 440 C-229 439 -229 437 -228 436 C-227 436 -227 435 -226 435 C-226 432 -226 429 -225 425 C-225 424 -225 422 -225 420 C-225 419 -225 417 -225 416 C-224 416 -223 416 -222 416 C-220 416 -219 416 -218 416 C-217 415 -217 413 -216 412 C-215 412 -215 411 -214 411 C-214 410 -214 408 -214 407 C-216 406 -219 406 -221 405 C-221 404 -222 403 -222 402 C-223 401 -225 401 -226 400 C-226 399 -226 399 -226 398 C-230 398 -230 398 -234 398 C-235 399 -235 401 -236 402 C-239 402 -243 402 -246 402 C-247 403 -247 405 -248 406 C-250 406 -252 406 -254 406 C-255 407 -255 409 -256 410 C-259 410 -263 410 -266 410 C-267 411 -267 413 -268 414 C-272 414 -275 415 -279 415 C-283 415 -286 415 -290 415 C-291 416 -291 417 -292 418 C-294 418 -295 417 -297 417 C-297 416 -298 416 -298 415 C-302 415 -305 415 -309 415 C-310 414 -311 414 -312 414 C-312 413 -312 413 -314 410 C-315 409 -317 409 -318 408 C-318 407 -318 407 -318 406 C-319 406 -320 406 -321 406 C-321 404 -321 404 -322 395 C-324 395 -326 395 -328 395 C-330 395 -332 395 -335 395 C-336 395 -337 395 -339 395 C-342 395 -345 394 -348 394 C-349 393 -349 391 -350 390 C-353 390 -353 390 -357 390 C-361 390 -361 390 -364 390 C-365 389 -365 387 -366 386 C-367 385 -369 385 -370 384 C-370 383 -370 383 -370 382 C-371 382 -372 382 -373 382 C-373 377 -373 377 -373 372 C-372 372 -371 371 -370 371 C-370 370 -370 369 -370 368 C-370 366 -369 365 -369 364 C-367 364 -364 363 -362 363 C-361 359 -361 359 -361 356 C-360 356 -359 356 -358 356 C-358 355 -358 355 -356 352 C-355 352 -355 352 -354 352 C-354 351 -354 351 -352 348 C-349 348 -345 348 -342 348 C-342 347 -342 347 -340 344 C-337 344 -333 344 -330 344 C-329 343 -329 341 -328 340 C-325 340 -321 340 -318 340 C-317 339 -317 337 -316 336 C-313 336 -309 336 -306 336 C-305 335 -305 333 -304 332 C-301 332 -297 332 -294 332 C-293 331 -293 329 -292 328 C-291 328 -290 328 -289 328 C-288 327 -287 327 -286 327 C-286 325 -285 324 -285 322 C-288 322 -290 322 -293 322 C-292 319 -292 319 -289 317 C-286 315 -286 315 -285 310 C-285 309 -285 307 -285 305 C-285 304 -285 302 -285 300 C-285 299 -285 297 -285 296 C-284 296 -283 296 -282 296 C-281 295 -281 293 -280 292 C-279 292 -279 292 -278 292 C-277 291 -277 289 -276 288 C-275 288 -275 288 -274 288 C-273 287 -273 285 -272 284 C-271 284 -271 283 -270 283 C-270 282 -270 282 -270 280 C-269 278 -269 277 -269 276 C-268 276 -267 275 -266 275 C-266 271 -265 268 -265 264 C-264 264 -263 264 -262 264 C-261 263 -261 261 -260 260 C-259 260 -259 259 -258 259 C-258 257 -257 254 -257 252 C-256 252 -255 252 -254 252 C-253 251 -253 249 -252 248 C-251 248 -251 248 -250 248 C-249 247 -249 245 -248 244 C-247 244 -247 244 -246 244 C-245 243 -245 241 -244 240 C-243 240 -243 240 -242 240 C-241 239 -241 237 -240 236 C-239 236 -239 236 -238 236 C-237 235 -237 233 -236 232 C-235 232 -235 232 -234 232 C-233 231 -233 229 -232 228 C-231 228 -231 228 -230 228 C-229 227 -229 225 -228 224 C-227 224 -227 224 -226 224 C-225 223 -225 221 -224 220 C-223 220 -223 220 -222 220 C-221 219 -221 217 -220 216 C-218 216 -216 216 -214 216 C-213 215 -213 213 -212 212 C-211 212 -211 212 -210 212 C-209 211 -209 209 -208 208 C-206 208 -204 208 -202 208 C-201 207 -201 205 -200 204 C-198 204 -196 204 -194 204 C-193 203 -193 201 -192 200 C-191 200 -191 200 -190 200 C-189 199 -189 197 -188 196 C-186 196 -184 196 -182 196 C-181 195 -181 193 -180 192 C-178 192 -176 192 -174 192 C-173 191 -173 189 -172 188 C-170 188 -168 188 -166 188 C-165 187 -165 185 -164 184 C-163 184 -163 184 -162 184 C-161 183 -161 181 -160 180 C-158 180 -156 180 -154 180 C-153 179 -153 177 -152 176 C-151 176 -151 176 -150 176 C-149 175 -149 173 -148 172 C-146 172 -144 172 -142 172 C-141 171 -141 169 -140 168 C-139 168 -139 168 -138 168 C-137 167 -137 165 -136 164 C-135 164 -135 163 -134 163 C-134 161 -133 158 -133 156 C-132 156 -131 156 -130 156 C-129 155 -129 153 -128 152 C-127 152 -127 151 -126 151 C-126 150 -126 149 -126 148 C-125 146 -125 145 -125 144 C-124 144 -123 143 -122 143 C-122 142 -122 141 -122 140 C-121 138 -121 137 -121 136 C-120 136 -119 135 -118 135 C-118 133 -118 131 -118 130 C-117 128 -117 126 -117 124 C-117 124 -117 124 -114 123 C-114 122 -114 121 -114 120 C-113 118 -113 117 -113 116 C-113 116 -113 116 -110 115 C-110 113 -110 111 -110 110 C-109 108 -109 106 -109 104 C-109 104 -109 104 -106 103 C-106 102 -106 101 -106 100 C-105 98 -105 97 -105 96 C-105 96 -105 96 -102 95 C-102 94 -102 93 -102 92 C-101 90 -101 89 -101 88 C-101 88 -101 88 -98 87 C-98 83 -97 80 -97 76 C-96 76 -95 76 -94 76 C-93 75 -93 73 -92 72 C-91 72 -91 71 -90 71 C-90 70 -90 69 -90 68 C-89 66 -89 65 -89 64 C-89 64 -89 64 -86 63 C-85 59 -85 59 -85 56 C-84 56 -83 56 -82 56 C-81 55 -81 53 -80 52 C-79 52 -79 52 -78 52 C-77 51 -77 49 -76 48 C-75 48 -75 48 -74 48 C-73 47 -73 45 -72 44 C-71 44 -71 44 -70 44 C-69 43 -69 41 -68 40 C-67 40 -67 40 -66 40 C-65 39 -65 37 -64 36 C-63 36 -63 36 -62 36 C-61 35 -61 33 -60 32 C-59 32 -59 32 -58 32 C-57 31 -57 29 -56 28 C-55 28 -55 28 -54 28 C-53 27 -53 25 -52 24 C-51 24 -51 24 -50 24 C-49 23 -49 21 -48 20 C-46 20 -44 20 -42 20 C-41 19 -41 17 -40 16 C-39 16 -39 16 -38 16 C-37 15 -37 13 -36 12 C-34 12 -32 12 -30 12 C-29 11 -29 9 -28 8 C-25 8 -21 8 -18 8 C-17 7 -17 5 -16 4 C-12 4 -9 4 -5 4 C-4 4 -3 4 -2 4 C-1 3 -1 1 0 0 Z M7 14 C5 14 2 15 -0 15 C-7 16 -12 17 -18 20 C-19 20 -21 21 -22 21 C-33 25 -42 33 -51 40 C-52 41 -53 42 -54 42 C-81 67 -95 106 -107 139 C-111 148 -115 156 -122 164 C-123 165 -124 167 -125 168 C-140 186 -140 186 -148 189 C-150 190 -153 192 -155 193 C-162 198 -169 202 -176 206 C-205 221 -240 243 -253 274 C-253 276 -254 277 -254 279 C-253 279 -253 279 -250 280 C-249 280 -247 281 -246 281 C-246 283 -245 284 -245 286 C-249 288 -249 288 -254 290 C-256 291 -259 292 -261 293 C-263 294 -264 295 -265 295 C-268 297 -268 297 -271 302 C-271 305 -271 305 -270 308 C-269 308 -269 308 -268 308 C-268 309 -268 309 -268 310 C-262 309 -256 308 -250 306 C-245 304 -239 302 -234 301 C-228 299 -228 299 -223 296 C-223 295 -223 295 -223 294 C-222 294 -222 294 -221 294 C-221 293 -221 292 -221 291 C-222 281 -220 275 -214 268 C-206 260 -197 255 -187 250 C-186 249 -185 249 -184 248 C-181 247 -178 246 -175 246 C-175 249 -175 249 -176 253 C-180 256 -180 256 -184 258 C-195 263 -204 270 -209 280 C-209 286 -209 286 -206 289 C-202 292 -198 294 -193 294 C-193 294 -193 294 -190 295 C-190 296 -189 298 -189 299 C-194 301 -198 301 -204 302 C-214 303 -223 306 -232 310 C-234 311 -236 311 -238 312 C-240 313 -241 313 -243 314 C-244 314 -245 315 -246 315 C-260 320 -260 320 -264 324 C-263 329 -263 329 -261 332 C-250 339 -238 338 -226 338 C-224 338 -223 338 -222 338 C-222 339 -221 341 -221 342 C-217 347 -213 348 -207 349 C-189 350 -173 349 -156 341 C-153 340 -153 340 -149 339 C-149 340 -149 341 -149 342 C-148 342 -148 343 -147 343 C-148 344 -148 344 -151 346 C-155 350 -155 350 -156 354 C-154 358 -154 358 -152 359 C-114 361 -80 352 -51 327 C-50 326 -49 325 -48 324 C-38 316 -27 305 -23 292 C-22 292 -21 293 -20 293 C-19 292 -17 292 -16 291 C-18 304 -25 316 -34 326 C-35 327 -35 327 -37 329 C-56 350 -86 363 -113 368 C-115 368 -116 369 -118 369 C-134 372 -153 372 -167 363 C-168 362 -169 361 -170 360 C-174 357 -177 358 -181 358 C-183 358 -185 358 -186 358 C-190 358 -194 358 -197 358 C-210 358 -220 357 -231 351 C-236 349 -240 348 -246 348 C-248 353 -247 354 -245 358 C-242 362 -240 366 -237 370 C-236 370 -236 370 -235 370 C-235 371 -235 371 -233 374 C-232 374 -231 375 -230 375 C-230 376 -230 376 -228 379 C-226 382 -226 382 -223 384 C-222 384 -222 384 -221 384 C-221 385 -221 385 -221 386 C-213 393 -205 398 -196 403 C-193 405 -190 407 -187 408 C-183 411 -183 411 -181 411 C-180 416 -180 420 -180 425 C-176 430 -171 433 -164 433 C-164 433 -164 433 -160 433 C-159 433 -158 433 -157 433 C-153 433 -150 432 -147 430 C-138 425 -133 426 -124 429 C-114 431 -104 431 -93 432 C-93 431 -93 431 -93 430 C-92 430 -91 431 -90 431 C-77 431 -64 431 -51 429 C-51 428 -51 428 -51 427 C-49 427 -47 427 -46 427 C-40 427 -35 426 -30 424 C-28 423 -26 423 -24 422 C-21 422 -18 421 -15 420 C-13 420 -12 419 -10 419 C-9 424 -9 424 -9 429 C-14 431 -14 431 -18 432 C-19 432 -20 433 -21 433 C-21 434 -22 435 -22 436 C-22 437 -21 437 -21 438 C-12 438 -6 438 1 433 C5 430 5 430 6 426 C6 423 6 423 3 418 C3 417 3 415 3 414 C8 410 14 407 20 404 C29 399 35 394 42 388 C43 388 43 388 45 385 C48 383 51 380 54 377 C54 377 54 377 57 374 C85 347 101 306 107 268 C107 267 107 267 107 263 C107 256 108 251 110 245 C110 244 110 242 111 241 C112 234 115 226 118 219 C119 216 120 213 121 210 C122 209 122 207 123 206 C124 202 124 202 124 196 C122 193 121 191 119 188 C117 184 116 179 114 175 C113 173 113 172 112 170 C110 164 111 158 114 152 C116 150 118 147 120 145 C121 144 122 142 123 141 C126 136 130 134 135 132 C138 130 138 130 140 126 C140 116 139 107 136 97 C136 96 135 95 135 94 C133 85 128 77 124 68 C123 67 123 65 122 64 C110 41 84 25 60 16 C50 14 16 5 7 14 Z " fill="#121214" transform="translate(450,25)"/>
<path d="M0 0 C1 0 1 0 6 2 C20 6 33 14 44 25 C46 27 48 29 50 30 C63 43 70 58 76 75 C76 76 77 77 77 78 C80 86 81 93 82 101 C82 103 82 104 82 106 C82 110 82 110 79 115 C76 116 74 118 71 119 C66 122 64 126 61 130 C60 131 59 133 58 134 C53 142 52 149 54 157 C53 157 52 157 51 157 C51 156 51 156 51 155 C50 155 49 154 48 154 C47 148 48 145 51 140 C54 132 54 132 54 128 C53 128 51 128 50 128 C48 128 46 128 45 128 C43 128 41 128 39 128 C35 128 35 128 32 126 C32 123 32 123 32 118 C31 104 26 93 16 83 C7 76 0 73 -10 73 C-21 75 -30 81 -37 90 C-42 99 -45 106 -45 116 C-45 117 -45 117 -45 120 C-46 134 -43 142 -35 153 C-31 157 -28 159 -23 161 C-22 162 -20 163 -19 164 C-19 165 -19 165 -19 166 C-18 166 -16 167 -15 167 C-14 169 -14 170 -13 172 C-10 178 -7 179 -2 182 C-2 184 -3 185 -3 187 C-3 187 -3 187 0 190 C0 191 0 191 0 192 C1 192 2 193 3 193 C3 194 3 194 3 195 C4 195 4 195 5 195 C5 195 5 195 8 198 C8 199 8 199 8 200 C9 200 10 201 11 201 C13 205 13 211 12 215 C7 218 7 218 3 219 C0 218 0 218 -2 215 C-2 214 -3 212 -3 211 C-3 210 -4 208 -4 207 C-8 206 -8 206 -11 206 C-12 205 -12 205 -13 204 C-13 199 -12 198 -9 195 C-8 195 -8 195 -7 195 C-7 194 -6 193 -6 192 C-6 192 -6 192 -9 192 C-13 191 -17 189 -21 187 C-22 187 -24 186 -25 185 C-28 183 -31 181 -34 179 C-40 176 -46 174 -52 173 C-56 172 -59 170 -63 168 C-69 167 -76 166 -82 169 C-83 172 -83 172 -83 176 C-83 177 -82 178 -82 179 C-78 186 -79 196 -80 204 C-82 208 -84 211 -87 214 C-87 215 -88 216 -88 217 C-93 216 -96 214 -100 211 C-118 201 -140 197 -160 201 C-161 201 -161 201 -163 202 C-168 202 -173 204 -178 205 C-180 205 -182 206 -185 206 C-192 208 -198 211 -205 214 C-206 215 -208 215 -209 216 C-215 219 -221 222 -226 225 C-231 228 -236 230 -241 232 C-245 234 -248 236 -252 238 C-253 239 -254 239 -255 240 C-265 245 -274 252 -279 263 C-279 268 -279 273 -279 278 C-280 278 -280 278 -281 278 C-282 279 -282 281 -283 282 C-291 285 -299 288 -308 290 C-311 291 -314 292 -317 293 C-321 294 -321 294 -326 294 C-326 293 -326 293 -326 292 C-327 292 -327 292 -328 292 C-329 289 -329 289 -329 286 C-326 280 -324 280 -318 277 C-317 276 -315 276 -314 275 C-310 273 -310 273 -306 272 C-305 271 -304 271 -303 270 C-303 268 -304 267 -304 265 C-308 264 -308 264 -312 263 C-307 246 -294 231 -280 220 C-279 219 -277 218 -276 216 C-263 207 -250 198 -236 191 C-233 189 -231 188 -228 186 C-224 184 -221 182 -217 180 C-214 178 -211 176 -207 174 C-203 171 -203 171 -198 169 C-192 164 -188 158 -183 152 C-182 151 -182 150 -181 150 C-179 147 -178 145 -176 143 C-175 142 -175 142 -174 141 C-171 137 -169 132 -167 127 C-167 126 -166 125 -166 124 C-163 119 -161 113 -159 108 C-150 83 -139 58 -122 37 C-121 36 -121 35 -120 34 C-108 20 -91 8 -73 3 C-70 2 -70 2 -67 0 C-64 -0 -62 -1 -59 -1 C-51 -2 -51 -2 -50 -3 C-33 -6 -16 -4 0 0 Z " fill="#C9CCD5" transform="translate(508,41)"/>
<path d="M0 0 C9 9 15 21 16 33 C16 40 15 47 14 54 C14 55 14 56 14 57 C14 57 14 57 10 59 C10 59 9 58 8 58 C7 60 6 63 5 65 C-7 88 -31 104 -54 114 C-55 115 -56 115 -57 116 C-78 125 -98 126 -121 125 C-123 124 -123 124 -124 121 C-125 118 -125 118 -123 115 C-121 113 -118 111 -116 109 C-116 109 -117 108 -118 108 C-118 107 -118 106 -118 105 C-119 106 -121 106 -122 107 C-125 108 -127 108 -129 109 C-130 109 -131 110 -132 110 C-148 116 -168 118 -185 113 C-189 110 -190 109 -191 104 C-194 104 -194 104 -198 104 C-209 104 -221 104 -230 97 C-231 96 -232 95 -233 94 C-233 91 -233 91 -232 88 C-228 86 -225 84 -220 83 C-215 82 -210 79 -205 77 C-190 71 -178 68 -162 67 C-162 67 -162 67 -159 66 C-159 66 -159 66 -158 63 C-158 62 -158 62 -159 61 C-160 61 -162 60 -163 60 C-170 59 -173 57 -178 52 C-178 45 -176 43 -172 37 C-164 30 -155 25 -146 20 C-144 18 -144 15 -144 12 C-144 12 -145 11 -146 11 C-144 10 -143 10 -142 9 C-139 7 -135 5 -132 3 C-118 -5 -103 -11 -87 -14 C-84 -15 -84 -15 -79 -17 C-75 -18 -71 -18 -67 -19 C-67 -19 -67 -19 -64 -19 C-42 -22 -17 -14 0 0 Z " fill="#878DA0" transform="translate(418.73046875,258.93359375)"/>
<path d="M0 0 C1 0 3 0 4 1 C17 5 25 15 31 27 C34 35 34 41 34 49 C34 51 35 52 35 53 C41 55 47 54 53 54 C54 54 55 54 56 54 C58 61 54 66 51 72 C51 77 51 77 51 81 C52 81 52 82 53 82 C53 83 53 83 53 84 C54 84 55 84 56 84 C56 85 55 86 55 87 C54 91 55 93 58 97 C59 100 60 102 61 105 C61 105 62 106 62 106 C64 121 57 135 50 148 C49 149 48 149 47 150 C44 149 44 149 40 147 C32 143 26 142 18 143 C17 147 17 147 20 152 C23 157 23 157 26 159 C26 160 26 160 26 161 C27 161 27 161 30 163 C31 163 31 163 33 165 C35 166 36 166 37 167 C42 165 42 165 44 162 C47 166 46 169 46 173 C46 175 46 176 46 178 C46 182 45 184 42 188 C42 192 42 192 42 196 C42 203 42 203 40 207 C39 207 39 207 38 207 C38 208 38 208 39 211 C39 212 39 214 39 215 C38 216 36 218 35 219 C34 222 34 222 34 225 C33 225 33 225 32 225 C32 226 32 227 32 228 C32 230 31 231 31 232 C30 232 30 232 27 234 C18 231 9 227 2 220 C1 220 1 220 -3 218 C-8 217 -8 217 -10 214 C-10 213 -10 211 -10 210 C-9 209 -7 209 -6 208 C-1 206 -1 206 1 201 C-2 196 -7 194 -12 191 C-13 190 -15 190 -17 189 C-21 187 -25 186 -30 188 C-35 185 -35 185 -39 181 C-46 178 -51 180 -58 182 C-64 181 -66 179 -71 175 C-71 179 -71 184 -71 188 C-71 188 -72 188 -72 188 C-72 187 -72 186 -72 185 C-73 171 -77 159 -86 147 C-87 146 -87 145 -88 144 C-87 144 -87 144 -86 144 C-86 142 -85 141 -85 139 C-84 138 -83 137 -82 135 C-78 130 -78 126 -78 120 C-78 118 -78 116 -78 114 C-79 109 -80 107 -82 103 C-82 99 -82 99 -81 96 C-76 93 -72 92 -66 93 C-62 94 -58 95 -54 98 C-51 99 -48 99 -46 100 C-39 102 -33 104 -28 108 C-20 114 -12 118 -2 118 C-3 119 -4 121 -5 122 C-6 122 -6 122 -7 122 C-7 122 -7 122 -8 125 C-9 125 -9 125 -10 125 C-10 127 -10 129 -10 131 C-7 133 -7 133 -2 134 C-1 137 1 140 2 143 C7 145 7 145 10 144 C13 142 13 142 13 139 C14 136 14 133 13 130 C12 129 11 128 10 127 C10 126 10 126 10 125 C10 125 10 125 7 124 C7 123 7 123 7 122 C6 122 6 122 5 122 C4 121 3 120 2 119 C2 118 2 118 2 117 C2 117 2 117 -1 116 C-1 115 -2 114 -2 113 C-2 112 -2 112 0 109 C-0 109 -0 109 -3 108 C-7 107 -9 104 -12 100 C-13 97 -13 97 -13 94 C-14 94 -14 94 -17 93 C-18 92 -20 90 -21 89 C-22 88 -24 88 -25 87 C-35 81 -41 72 -44 62 C-45 56 -44 49 -44 43 C-44 41 -44 39 -44 37 C-42 24 -36 14 -25 6 C-17 1 -10 -2 0 0 Z " fill="#C1C4CF" transform="translate(506,114)"/>
<path d="M0 0 C3 -1 3 -1 8 -1 C9 -1 11 -1 12 -1 C14 -1 16 -1 18 -1 C19 -1 21 -1 23 -1 C27 -1 30 -1 34 -1 C40 -1 46 -1 51 -1 C55 -1 59 -1 62 -1 C64 -1 66 -1 68 -1 C69 -1 71 -1 72 -1 C73 -1 73 -1 77 -1 C78 -0 79 -0 80 0 C81 1 81 3 82 4 C85 4 85 4 89 4 C91 4 92 4 94 4 C96 4 97 4 99 4 C101 4 103 4 104 4 C110 4 115 4 121 4 C128 4 136 4 143 4 C145 4 146 4 148 4 C149 4 151 4 153 4 C153 4 153 4 157 4 C158 4 159 4 160 4 C161 5 161 7 162 8 C166 8 171 8 175 8 C179 8 184 8 188 8 C189 9 189 11 190 12 C194 12 197 12 201 12 C205 12 208 12 212 12 C213 13 213 15 214 16 C217 16 217 16 221 16 C225 16 225 16 228 16 C229 17 229 19 230 20 C231 20 232 21 233 21 C233 23 232 24 232 26 C231 26 231 26 230 26 C229 27 229 29 228 30 C226 30 224 30 222 30 C221 31 221 33 220 34 C215 34 211 34 206 34 C205 34 203 34 202 34 C201 35 201 37 200 38 C197 38 197 38 192 38 C191 38 189 38 188 38 C185 38 181 38 178 38 C177 38 175 38 174 38 C172 38 171 38 169 38 C168 38 167 38 166 38 C165 39 165 41 164 42 C161 42 161 42 156 42 C155 42 155 42 151 42 C150 42 148 42 146 42 C144 42 142 42 140 42 C133 42 125 42 117 42 C111 42 106 42 100 42 C98 42 97 42 95 42 C94 42 94 42 90 42 C89 42 89 42 85 42 C84 42 83 42 82 42 C81 43 81 45 80 46 C77 47 77 47 74 46 C73 47 73 47 71 47 C70 46 69 46 68 46 C67 45 67 43 66 42 C62 42 57 42 53 42 C51 42 50 42 49 42 C46 42 43 42 40 42 C35 42 30 42 25 42 C15 42 5 42 -5 42 C-17 42 -28 42 -40 42 C-45 42 -49 42 -54 42 C-57 42 -60 42 -63 42 C-64 42 -65 42 -67 42 C-70 42 -73 42 -76 42 C-76 41 -76 41 -78 38 C-82 38 -82 38 -86 38 C-87 38 -87 38 -92 38 C-93 38 -95 38 -97 38 C-101 38 -104 38 -108 38 C-108 38 -108 38 -112 38 C-114 38 -115 38 -116 38 C-116 37 -116 37 -118 34 C-122 34 -125 34 -129 34 C-133 34 -136 34 -140 34 C-141 33 -141 31 -142 30 C-148 30 -148 30 -153 30 C-153 29 -153 29 -154 23 C-155 23 -156 23 -157 23 C-162 23 -166 23 -171 23 C-172 23 -174 23 -176 23 C-177 23 -179 23 -180 23 C-181 23 -181 23 -185 23 C-186 22 -187 22 -188 22 C-189 21 -189 19 -190 18 C-191 18 -192 17 -193 17 C-193 15 -192 14 -192 12 C-190 12 -188 12 -186 12 C-185 11 -185 9 -184 8 C-180 8 -180 8 -176 8 C-175 8 -175 8 -170 8 C-168 8 -166 8 -164 8 C-162 8 -160 8 -158 8 C-151 8 -143 8 -136 8 C-129 8 -123 8 -117 8 C-114 8 -111 8 -108 8 C-107 8 -107 8 -102 8 C-102 8 -102 8 -98 8 C-96 8 -95 8 -94 8 C-93 7 -93 5 -92 4 C-88 4 -88 4 -84 4 C-83 4 -83 4 -78 4 C-76 4 -74 4 -72 4 C-70 4 -68 4 -66 4 C-59 4 -51 4 -44 4 C-37 4 -31 4 -25 4 C-22 4 -19 4 -16 4 C-15 4 -15 4 -10 4 C-10 4 -10 4 -6 4 C-4 4 -3 4 -2 4 C-1 3 -1 1 0 0 Z " fill="#DADBE2" transform="translate(306,533)"/>
<path d="M0 0 C1 0 1 0 3 1 C8 3 12 4 16 5 C30 8 38 14 46 25 C50 31 54 35 60 39 C64 41 67 43 71 46 C74 46 76 46 79 46 C80 47 80 47 81 48 C80 49 80 51 79 52 C78 52 78 52 77 52 C76 53 76 55 75 56 C74 56 74 56 73 56 C73 57 72 58 72 59 C71 59 71 59 70 59 C70 60 69 61 69 62 C68 62 68 62 67 62 C66 63 66 65 65 66 C61 69 61 69 58 72 C57 72 57 71 56 71 C56 69 55 68 55 66 C50 65 45 65 40 65 C35 64 34 62 31 59 C30 58 29 58 28 57 C26 55 26 55 26 52 C27 47 29 46 32 43 C33 43 35 43 36 43 C36 41 36 40 36 38 C35 38 34 38 33 38 C26 39 19 39 12 39 C6 40 2 40 -3 43 C-4 43 -4 43 -7 44 C-12 45 -14 47 -18 51 C-22 55 -27 57 -32 60 C-33 61 -34 61 -36 62 C-41 64 -45 63 -51 62 C-53 59 -54 57 -54 53 C-54 53 -54 53 -56 54 C-72 63 -90 68 -108 70 C-111 71 -114 71 -117 72 C-121 72 -125 72 -130 73 C-138 74 -144 75 -151 80 C-151 81 -151 81 -153 84 C-143 89 -132 94 -121 95 C-115 96 -113 97 -108 100 C-89 112 -60 109 -39 109 C-38 109 -38 108 -37 108 C-35 108 -34 108 -32 108 C-26 108 -24 107 -19 105 C-17 105 -16 105 -14 104 C-10 104 -10 104 -7 101 C-3 99 1 99 5 99 C6 99 6 99 8 98 C13 98 16 100 20 102 C20 103 21 105 21 106 C22 108 23 109 24 111 C24 115 24 115 23 118 C17 124 11 126 2 126 C1 126 -1 126 -3 126 C-3 125 -4 124 -4 123 C-1 120 4 119 9 117 C9 112 9 112 8 107 C1 108 -5 110 -11 112 C-19 115 -25 115 -33 115 C-33 116 -33 116 -33 117 C-64 122 -64 122 -75 118 C-75 119 -75 119 -75 120 C-100 119 -100 119 -112 116 C-117 114 -119 114 -125 116 C-127 116 -128 117 -129 118 C-136 122 -142 122 -150 121 C-155 119 -158 117 -162 113 C-162 110 -162 106 -162 103 C-162 102 -163 100 -163 99 C-165 98 -166 98 -168 97 C-179 91 -189 85 -199 77 C-200 76 -202 75 -203 74 C-203 73 -203 73 -203 72 C-204 71 -206 71 -207 70 C-210 68 -210 68 -212 65 C-212 64 -212 64 -212 63 C-213 62 -215 62 -216 61 C-216 61 -216 61 -217 58 C-218 58 -218 58 -219 58 C-221 55 -221 55 -224 52 C-224 51 -225 50 -226 49 C-228 45 -229 42 -229 38 C-229 37 -228 37 -228 36 C-221 36 -216 38 -209 41 C-196 47 -183 46 -169 45 C-160 45 -154 46 -147 52 C-138 58 -127 59 -117 58 C-116 58 -115 58 -113 58 C-104 58 -97 57 -88 54 C-86 54 -85 53 -83 53 C-79 52 -75 51 -71 49 C-70 49 -68 48 -67 48 C-49 41 -34 32 -20 18 C-19 17 -18 16 -16 14 C-15 13 -14 12 -13 11 C-12 10 -10 8 -9 7 C-8 7 -6 7 -5 7 C-4 6 -4 5 -3 4 C-2 4 -2 4 -1 4 C-1 3 -0 1 0 0 Z " fill="#C2C5D0" transform="translate(432,337)"/>
<path d="M0 0 C1 0 1 0 4 1 C4 2 5 3 5 4 C7 6 9 7 12 9 C13 10 14 11 15 12 C18 13 21 15 24 17 C28 20 31 23 34 27 C38 30 41 30 46 31 C51 32 53 33 56 37 C57 39 57 39 57 45 C45 61 32 65 13 68 C10 68 7 69 4 69 C-2 70 -7 71 -13 73 C-15 73 -18 74 -20 74 C-27 76 -33 79 -40 82 C-41 83 -43 83 -44 84 C-50 87 -56 90 -61 93 C-66 96 -71 98 -76 100 C-80 102 -83 104 -87 106 C-88 107 -89 107 -90 108 C-100 113 -109 120 -114 131 C-114 136 -114 141 -114 146 C-115 146 -115 146 -116 146 C-117 147 -117 149 -118 150 C-126 153 -134 156 -143 158 C-146 159 -149 160 -152 161 C-156 162 -156 162 -161 162 C-161 161 -161 161 -161 160 C-162 160 -162 160 -163 160 C-164 157 -164 157 -164 154 C-161 148 -159 148 -153 145 C-152 144 -150 144 -149 143 C-145 141 -145 141 -141 140 C-140 139 -139 139 -138 138 C-138 136 -139 135 -139 133 C-143 132 -143 132 -147 131 C-142 114 -129 99 -115 88 C-114 87 -112 86 -111 84 C-98 75 -85 66 -71 59 C-68 57 -66 56 -63 54 C-59 52 -56 50 -52 48 C-49 46 -46 44 -42 42 C-38 39 -38 39 -33 37 C-27 32 -23 26 -18 20 C-17 19 -17 18 -16 18 C-16 17 -15 16 -14 15 C-13 14 -12 12 -11 11 C-10 10 -9 9 -8 8 C-6 5 -6 5 -1 4 C-1 3 -0 1 0 0 Z " fill="#C2C5CF" transform="translate(343,173)"/>
<path d="M0 0 C1 3 1 3 3 6 C6 10 8 13 11 17 C14 22 14 26 14 32 C18 34 24 33 28 33 C32 34 34 35 37 38 C38 42 38 44 37 48 C37 50 37 52 37 54 C38 55 38 55 39 56 C42 56 45 56 48 56 C52 56 55 58 58 61 C61 65 61 69 61 73 C63 76 63 76 66 77 C70 77 74 78 79 78 C80 78 81 78 82 78 C94 79 94 79 100 78 C100 77 101 75 101 74 C102 73 103 72 104 71 C105 70 106 68 107 67 C113 59 118 58 127 56 C130 55 130 55 133 54 C136 53 136 53 138 54 C136 65 126 71 117 77 C110 82 102 86 93 90 C92 91 91 91 89 92 C69 101 48 102 26 101 C24 100 24 100 23 97 C22 94 22 94 24 91 C26 89 28 87 31 85 C30 85 30 84 29 84 C29 83 29 82 29 81 C27 82 26 82 24 83 C22 84 20 84 18 85 C17 85 16 86 15 86 C-1 92 -21 94 -38 89 C-42 86 -43 85 -44 80 C-47 80 -47 80 -52 80 C-63 80 -74 80 -83 73 C-84 72 -85 71 -86 70 C-86 67 -86 67 -85 64 C-81 62 -78 60 -74 59 C-68 57 -63 55 -58 53 C-44 47 -31 44 -16 43 C-14 42 -13 42 -12 42 C-12 41 -11 40 -11 39 C-11 38 -12 38 -12 37 C-14 37 -15 36 -17 36 C-23 35 -26 33 -31 28 C-31 21 -29 19 -25 13 C-18 7 -9 -2 0 0 Z " fill="#7B8094" transform="translate(272,283)"/>
<path d="M0 0 C4 4 5 10 7 15 C9 19 9 19 12 23 C12 31 9 37 7 44 C-5 74 -5 74 -5 89 C-5 96 -6 102 -8 109 C-8 110 -8 112 -9 113 C-10 119 -12 126 -14 132 C-14 133 -15 135 -15 136 C-27 170 -48 199 -77 221 C-78 222 -79 222 -80 223 C-86 228 -91 231 -98 234 C-99 234 -100 233 -101 233 C-99 229 -99 229 -94 227 C-93 226 -93 225 -92 224 C-89 222 -86 221 -83 219 C-82 218 -80 217 -79 216 C-78 216 -77 216 -76 216 C-75 214 -75 213 -74 211 C-72 210 -70 208 -68 207 C-66 205 -65 203 -63 201 C-61 200 -60 198 -58 197 C-57 196 -56 195 -55 194 C-55 193 -55 193 -53 191 C-52 191 -52 191 -51 191 C-51 190 -50 188 -50 187 C-53 186 -53 186 -59 186 C-62 184 -64 183 -66 181 C-69 179 -71 178 -74 176 C-80 172 -84 167 -88 160 C-95 148 -109 146 -122 143 C-125 142 -125 142 -130 140 C-130 141 -131 142 -131 143 C-132 144 -132 144 -135 147 C-136 147 -138 147 -139 147 C-137 141 -134 135 -131 129 C-128 123 -129 119 -130 113 C-130 109 -130 109 -128 104 C-128 102 -128 99 -127 97 C-127 96 -127 95 -127 94 C-127 93 -127 92 -127 91 C-123 93 -123 93 -121 95 C-117 98 -114 97 -109 96 C-108 96 -106 95 -105 95 C-100 94 -97 95 -92 98 C-91 99 -89 101 -88 102 C-87 102 -86 103 -85 103 C-84 103 -84 102 -83 102 C-76 102 -73 104 -67 107 C-66 108 -64 108 -62 109 C-56 113 -56 113 -54 117 C-56 122 -56 122 -58 124 C-61 125 -63 125 -66 126 C-66 129 -66 129 -64 132 C-61 133 -57 134 -54 135 C-52 137 -50 138 -48 140 C-45 141 -43 143 -40 144 C-39 145 -38 145 -37 146 C-34 147 -31 148 -28 149 C-27 149 -27 148 -26 148 C-26 147 -25 146 -25 144 C-25 143 -24 142 -24 141 C-23 141 -23 141 -22 141 C-22 139 -22 137 -22 135 C-21 134 -19 132 -18 131 C-18 127 -18 127 -18 123 C-17 123 -17 123 -16 123 C-15 118 -15 114 -15 109 C-15 104 -15 104 -13 101 C-10 97 -11 94 -11 89 C-11 88 -11 86 -11 85 C-11 83 -11 82 -11 81 C-13 81 -13 81 -17 83 C-17 83 -17 83 -20 84 C-28 79 -37 73 -40 63 C-39 59 -39 59 -38 58 C-26 57 -18 60 -8 65 C1 52 6 38 5 22 C4 20 3 19 2 17 C1 14 -1 10 -2 7 C-2 6 -3 6 -3 5 C-2 3 -1 2 0 0 Z " fill="#C9CCD5" transform="translate(562,198)"/>
<path d="M0 0 C1 0 3 0 4 1 C17 5 25 15 31 27 C34 34 34 39 34 47 C34 49 34 50 34 52 C33 66 27 76 17 85 C7 91 -3 94 -14 92 C-27 89 -35 81 -41 70 C-45 61 -45 53 -44 43 C-44 41 -44 39 -44 37 C-42 24 -36 14 -25 6 C-17 1 -10 -2 0 0 Z " fill="#EBECEE" transform="translate(506,114)"/>
<path d="M0 0 C8 0 13 2 19 6 C22 7 22 7 27 9 C28 9 29 10 30 10 C30 11 30 11 30 12 C40 15 50 16 60 14 C70 14 74 16 81 22 C85 25 85 25 90 27 C89 29 89 31 88 33 C89 33 89 33 92 34 C91 34 90 34 88 34 C84 34 84 34 80 35 C76 35 76 35 73 34 C67 33 62 32 56 33 C55 34 54 34 53 35 C53 36 53 36 54 39 C60 42 66 45 72 47 C75 48 75 48 79 50 C97 58 97 58 107 59 C113 60 115 61 120 64 C139 76 168 73 189 73 C190 73 190 72 191 72 C193 72 194 72 196 72 C202 72 204 71 209 69 C211 69 212 69 214 68 C218 68 218 68 221 65 C225 63 229 63 233 63 C234 63 235 62 236 62 C241 62 244 64 248 66 C248 67 249 69 249 70 C250 72 251 73 252 75 C252 79 252 79 251 82 C245 88 239 90 230 90 C229 90 227 90 225 90 C225 89 224 88 224 87 C227 84 232 83 237 81 C237 76 237 76 236 71 C229 72 223 74 217 76 C209 79 203 79 195 79 C195 80 195 80 195 81 C164 86 164 86 153 82 C153 83 153 83 153 84 C128 83 128 83 116 80 C111 78 109 78 103 80 C101 80 100 81 99 82 C92 86 86 86 78 85 C73 83 70 81 66 77 C66 74 66 70 66 67 C66 66 65 64 65 63 C63 62 62 62 60 61 C49 55 39 49 29 41 C28 40 26 39 25 38 C25 37 25 37 25 36 C24 35 22 35 21 34 C18 32 18 32 16 29 C16 28 16 28 16 27 C15 26 13 26 12 25 C12 24 11 23 11 22 C10 22 10 22 9 22 C7 19 7 19 4 16 C4 15 3 14 2 13 C-0 9 -1 6 -1 2 C-1 1 -0 1 0 0 Z " fill="#9C9FAD" transform="translate(204,373)"/>
<path d="M0 0 C0 0 0 0 3 2 C4 3 6 3 8 4 C12 7 13 9 16 14 C19 21 24 28 29 34 C30 35 31 36 31 38 C32 39 33 40 34 41 C36 44 36 44 37 48 C36 48 36 48 35 48 C35 49 34 51 34 52 C27 58 18 60 10 62 C9 62 8 63 7 63 C-3 66 -15 68 -25 65 C-26 63 -27 62 -28 60 C-25 54 -21 51 -15 48 C-12 46 -8 43 -5 41 C-5 40 -5 39 -5 38 C-10 37 -12 37 -16 39 C-22 41 -27 42 -33 42 C-34 43 -36 43 -37 44 C-50 47 -64 46 -76 41 C-78 39 -78 39 -79 34 C-70 20 -46 15 -31 9 C-27 8 -27 8 -23 6 C-20 6 -16 5 -13 5 C-13 4 -13 4 -13 3 C-4 -1 -4 -1 0 0 Z " fill="#484F61" transform="translate(173.0625,362.9375)"/>
<path d="M0 0 C0 1 0 1 1 5 C3 6 6 7 8 8 C9 9 9 9 12 10 C12 10 12 10 15 12 C16 12 17 13 18 13 C18 14 18 14 18 15 C19 15 19 15 20 15 C20 16 20 16 19 20 C19 20 19 20 20 23 C19 24 18 24 17 25 C4 31 4 31 -1 34 C-6 37 -11 39 -16 41 C-20 43 -23 45 -27 47 C-28 48 -29 48 -30 49 C-40 54 -49 61 -54 72 C-54 77 -54 82 -54 87 C-55 87 -55 87 -56 87 C-57 88 -57 90 -58 91 C-66 94 -74 97 -83 99 C-86 100 -89 101 -92 102 C-96 103 -96 103 -101 103 C-101 102 -101 102 -101 101 C-102 101 -102 101 -103 101 C-104 98 -104 98 -104 95 C-101 89 -99 89 -93 86 C-92 85 -90 85 -89 84 C-85 82 -85 82 -81 81 C-80 80 -79 80 -78 79 C-78 75 -78 75 -78 71 C-78 62 -77 59 -72 52 C-71 51 -71 50 -70 49 C-67 44 -63 40 -58 36 C-58 36 -58 36 -56 33 C-52 29 -49 27 -45 25 C-41 22 -38 20 -34 17 C-29 13 -29 13 -25 12 C-24 11 -23 10 -22 9 C-19 7 -16 6 -12 4 C-11 4 -9 3 -7 2 C-3 0 -3 0 0 0 Z " fill="#BCBFCA" transform="translate(283,232)"/>
<path d="M0 0 C4 1 7 1 11 1 C18 1 21 4 26 9 C29 15 29 15 27 20 C22 25 17 28 9 28 C7 28 5 29 3 29 C3 30 3 32 2 34 C5 36 7 38 10 40 C12 42 12 42 13 45 C12 50 11 51 7 54 C-1 59 -12 58 -21 55 C-22 55 -24 55 -26 55 C-26 56 -27 57 -28 59 C-27 60 -27 61 -26 62 C-26 63 -25 64 -25 65 C-27 70 -27 70 -32 73 C-38 75 -44 75 -51 75 C-51 74 -51 73 -51 73 C-53 73 -55 73 -57 73 C-58 71 -59 70 -60 69 C-57 64 -55 62 -51 58 C-46 53 -42 47 -38 42 C-37 41 -37 41 -35 39 C-28 29 -23 18 -17 7 C-16 4 -14 2 -13 -1 C-8 -2 -5 -1 0 0 Z " fill="#5F6679" transform="translate(568.57421875,347.2578125)"/>
<path d="M0 0 C8 3 12 6 16 13 C21 26 21 39 15 51 C11 59 6 64 -3 67 C-12 68 -18 67 -25 61 C-33 51 -34 41 -33 29 C-31 20 -29 11 -22 5 C-14 1 -9 -1 0 0 Z " fill="#121315" transform="translate(511,131)"/>
<path d="M0 0 C3 2 3 2 5 5 C14 15 14 15 22 15 C36 15 51 11 65 7 C73 5 73 5 77 6 C79 12 79 19 76 25 C74 27 74 27 70 30 C70 30 70 30 67 29 C67 28 67 27 67 26 C65 27 64 27 62 28 C60 29 58 29 56 30 C56 30 56 30 53 31 C37 37 17 39 0 34 C-4 31 -5 30 -6 25 C-9 25 -9 25 -14 25 C-25 25 -36 25 -45 18 C-46 17 -47 16 -48 15 C-48 12 -48 12 -47 9 C-43 7 -40 5 -36 4 C-29 2 -22 -1 -16 -4 C-9 -5 -5 -3 0 0 Z " fill="#5E6578" transform="translate(234,338)"/>
<path d="M0 0 C5 3 7 6 11 10 C13 13 13 13 17 15 C18 15 18 15 21 15 C26 15 26 15 29 16 C34 19 40 19 47 19 C47 19 47 19 51 19 C59 19 64 17 71 12 C75 9 79 9 83 8 C84 7 85 6 86 5 C89 4 89 4 92 3 C91 7 91 9 89 13 C89 16 89 16 88 19 C88 20 88 20 88 23 C88 24 88 25 88 26 C88 27 88 27 88 30 C87 33 87 36 87 39 C85 39 84 39 82 38 C73 38 66 38 58 44 C57 45 56 46 54 47 C52 46 51 45 49 44 C46 47 46 47 45 51 C43 54 43 54 40 55 C36 55 36 55 33 52 C34 49 34 49 35 46 C36 42 36 42 36 39 C33 36 33 36 29 36 C24 36 21 37 17 39 C16 37 16 37 11 29 C9 28 9 28 3 28 C-1 27 -3 27 -6 25 C-8 21 -9 18 -10 14 C-8 8 -5 5 0 0 Z " fill="#C2C5D0" transform="translate(375,133)"/>
<path d="M0 0 C17 -0 35 -0 52 -0 C60 -0 68 -0 76 -0 C84 -0 92 -0 99 -0 C102 -0 105 -0 108 -0 C112 -0 116 -0 121 -0 C121 -0 121 -0 124 -0 C128 -0 128 -0 133 0 C133 1 133 1 135 4 C136 4 137 5 138 5 C138 7 137 8 137 10 C135 10 133 10 131 10 C130 11 130 13 129 14 C125 14 121 15 117 15 C116 15 115 15 114 15 C110 15 106 15 102 15 C99 15 96 15 93 15 C88 15 82 15 76 15 C69 14 61 15 54 15 C48 15 42 15 36 15 C34 15 31 15 28 15 C24 15 20 15 17 15 C16 15 16 15 13 15 C10 15 10 15 5 14 C4 13 4 11 3 10 C2 10 1 10 0 10 C0 7 0 3 0 0 Z " fill="#BCBFCB" transform="translate(25,229)"/>
<path d="M0 0 C17 12 26 30 33 50 C33 51 34 52 34 53 C37 61 38 68 39 76 C39 78 39 79 39 81 C39 85 39 85 36 90 C33 91 31 93 28 94 C23 97 21 101 18 105 C17 106 16 108 15 109 C10 117 9 124 11 132 C10 132 9 132 8 132 C8 131 8 131 8 130 C7 130 6 129 5 129 C4 123 5 120 8 115 C11 107 11 107 11 103 C10 103 8 103 7 103 C6 103 6 103 2 103 C1 103 1 103 -4 103 C-8 103 -8 103 -11 101 C-11 98 -11 98 -11 94 C-11 92 -11 91 -11 90 C-11 86 -11 86 -8 83 C2 77 2 77 7 74 C12 71 12 71 15 69 C19 67 21 66 25 66 C25 66 25 66 27 67 C27 63 27 59 27 55 C28 55 28 55 29 55 C29 54 29 52 29 51 C28 51 28 51 27 51 C26 48 25 45 24 42 C24 41 23 40 23 39 C23 37 23 35 23 33 C22 32 21 32 20 31 C19 29 19 27 18 25 C17 25 17 24 16 24 C16 23 16 22 16 21 C15 20 15 19 15 18 C14 18 13 17 12 17 C10 14 7 12 5 9 C3 8 2 6 0 5 C-0 4 -1 3 -1 2 C-1 1 -0 1 0 0 Z " fill="#CBCED7" transform="translate(551,66)"/>
<path d="M0 0 C5 4 5 7 6 13 C8 13 9 14 10 15 C14 17 14 17 17 22 C19 29 20 37 18 45 C16 48 16 48 12 52 C4 52 -4 48 -12 44 C-16 42 -16 42 -21 40 C-29 38 -29 38 -32 35 C-32 34 -32 34 -33 30 C-30 27 -28 25 -26 23 C-23 19 -20 16 -18 13 C-17 12 -17 12 -16 10 C-13 7 -11 4 -9 1 C-4 -1 -4 -1 0 0 Z " fill="#AFB2BC" transform="translate(342.625,180.25)"/>
<path d="M0 0 C1 4 1 4 0 8 C-14 19 -37 23 -54 25 C-57 26 -60 26 -63 27 C-67 27 -71 27 -76 28 C-84 29 -90 31 -97 35 C-98 36 -98 37 -99 38 C-107 38 -112 35 -119 32 C-120 31 -121 30 -122 29 C-121 25 -121 25 -118 23 C-112 22 -106 23 -100 24 C-95 25 -91 25 -86 24 C-86 24 -86 24 -87 21 C-86 21 -86 21 -85 21 C-87 16 -91 15 -95 13 C-97 11 -99 10 -101 8 C-107 5 -112 5 -119 7 C-127 7 -136 7 -144 3 C-144 2 -144 2 -144 1 C-138 1 -132 1 -126 1 C-123 1 -120 0 -117 0 C-100 0 -100 0 -92 7 C-84 14 -73 14 -63 14 C-62 13 -61 13 -59 13 C-50 13 -43 12 -34 9 C-32 9 -31 8 -29 8 C-24 7 -19 5 -14 3 C-13 2 -11 2 -10 1 C-9 1 -8 0 -7 -0 C-4 -1 -4 -1 0 0 Z " fill="#B0B3BD" transform="translate(378,382)"/>
<path d="M0 0 C4 -1 4 -1 10 -1 C11 -1 11 -1 13 -1 C17 -1 20 -1 24 -1 C26 -1 29 -1 31 -1 C36 -1 41 -1 46 -1 C53 -0 59 -1 66 -1 C71 -1 76 -1 81 -1 C83 -1 85 -1 88 -1 C91 -1 95 -1 98 -1 C100 -1 102 -1 104 -1 C105 -0 107 -0 108 0 C108 1 108 1 110 4 C111 4 112 5 113 5 C113 7 112 8 112 10 C111 10 111 10 110 10 C109 11 109 13 108 14 C104 15 104 15 98 15 C97 15 96 15 95 15 C91 15 88 15 84 15 C82 15 79 15 77 15 C72 15 67 15 62 15 C55 14 49 15 42 15 C37 15 32 15 27 15 C25 15 23 15 20 15 C17 15 13 15 10 15 C8 15 6 15 4 15 C3 14 1 14 0 14 C-1 13 -1 11 -2 10 C-3 10 -4 9 -5 9 C-5 7 -4 6 -4 4 C-3 4 -3 4 -2 4 C-1 3 -1 1 0 0 Z " fill="#D9DAE1" transform="translate(98,169)"/>
<path d="M0 0 C6 0 10 2 15 5 C34 17 62 14 84 14 C85 14 85 13 86 13 C87 13 87 13 91 13 C97 13 99 12 104 10 C106 10 107 10 109 10 C113 9 113 9 116 6 C120 4 124 4 128 4 C129 4 129 4 131 3 C136 3 139 5 143 7 C143 8 144 10 144 11 C145 13 146 14 147 16 C147 20 147 20 146 23 C140 29 134 31 125 31 C124 31 122 31 120 31 C120 31 120 31 119 28 C122 25 127 24 132 22 C132 17 132 17 131 12 C124 13 118 15 112 17 C104 20 98 20 90 20 C90 21 90 21 90 22 C59 27 59 27 48 23 C48 24 48 24 48 25 C14 23 14 23 4 19 C4 18 4 16 4 15 C7 15 10 15 13 15 C14 12 14 12 14 8 C10 4 5 3 0 1 C0 1 0 0 0 0 Z " fill="#BCBFCA" transform="translate(309,432)"/>
<path d="M0 0 C1 0 1 0 2 0 C2 1 2 2 2 3 C3 3 3 3 4 3 C4 3 4 3 5 5 C7 5 8 5 10 5 C17 6 19 7 23 12 C24 17 24 17 23 20 C22 21 21 22 20 23 C20 24 19 25 19 26 C16 31 13 32 8 34 C5 35 1 35 -2 36 C-6 37 -9 38 -13 40 C-15 44 -16 48 -17 52 C-18 56 -18 56 -20 58 C-25 58 -28 57 -32 55 C-33 49 -32 48 -29 43 C-28 41 -28 38 -27 36 C-26 35 -26 35 -25 34 C-24 32 -24 31 -23 29 C-22 29 -21 28 -20 28 C-20 27 -19 26 -19 25 C-18 21 -15 18 -12 14 C-11 13 -11 12 -10 11 C-7 7 -4 4 0 0 Z " fill="#C2C5D0" transform="translate(397,73)"/>
<path d="M0 0 C1 0 2 0 3 0 C4 2 4 2 6 6 C6 7 7 8 7 9 C8 12 8 12 8 17 C9 17 9 17 10 17 C10 18 10 20 10 21 C9 21 9 21 8 21 C8 23 8 24 9 26 C9 31 9 31 8 33 C7 33 6 33 4 33 C-2 34 -6 37 -12 41 C-15 43 -15 43 -18 45 C-21 46 -21 46 -24 49 C-26 50 -28 51 -30 52 C-30 51 -31 50 -31 49 C-34 41 -38 34 -43 27 C-44 26 -45 24 -46 23 C-42 21 -38 19 -34 18 C-33 18 -32 17 -31 17 C-28 16 -25 16 -22 15 C-22 15 -22 15 -18 14 C-16 13 -15 13 -13 13 C-8 11 -7 9 -4 5 C-2 2 -2 2 0 0 Z " fill="#C1C4CF" transform="translate(570,100)"/>
<path d="M0 0 C1 0 1 0 4 1 C4 2 5 3 5 4 C7 6 9 7 12 9 C13 10 14 11 15 12 C18 13 21 15 24 17 C28 20 31 23 34 27 C38 30 41 30 46 31 C51 32 53 33 56 37 C57 39 57 39 57 45 C47 58 36 64 20 67 C16 67 16 67 13 67 C13 66 13 66 16 64 C20 58 22 54 23 47 C23 46 23 45 23 43 C22 32 18 23 10 15 C9 14 7 13 6 12 C6 11 6 11 6 10 C5 10 5 10 1 8 C0 7 -0 6 -1 5 C-1 3 -0 2 0 0 Z " fill="#C2C5D0" transform="translate(343,173)"/>
<path d="M0 0 C1 0 2 0 3 1 C10 2 16 4 22 8 C22 14 22 14 19 17 C13 19 8 18 2 16 C-3 15 -8 15 -13 15 C-14 15 -16 15 -18 15 C-22 15 -22 15 -26 16 C-35 17 -43 17 -52 13 C-52 12 -53 11 -54 10 C-54 7 -54 7 -54 4 C-54 4 -54 3 -54 2 C-47 -0 -40 -2 -33 -2 C-31 -3 -29 -3 -27 -3 C-18 -4 -9 -2 0 0 Z " fill="#9094A1" transform="translate(384.5,242.75)"/>
<path d="M0 0 C1 0 2 0 3 0 C9 1 14 1 19 1 C20 1 20 1 22 1 C24 8 20 13 17 19 C17 22 17 26 17 29 C17 30 16 30 16 31 C14 31 12 31 10 31 C10 32 10 32 10 33 C8 35 8 35 5 38 C4 39 3 40 2 41 C-2 44 -4 45 -8 45 C-12 44 -14 44 -18 40 C-18 40 -19 39 -20 38 C-23 39 -23 39 -27 40 C-31 40 -34 40 -38 40 C-38 40 -38 39 -38 39 C-36 38 -34 38 -32 37 C-21 34 -13 28 -6 19 C-3 13 -1 7 0 0 Z " fill="#BCBFCB" transform="translate(540,167)"/>
<path d="M0 0 C0 1 0 1 2 4 C3 5 5 5 6 6 C11 9 11 9 15 12 C15 15 15 15 13 18 C9 21 6 23 1 24 C-4 23 -9 21 -12 18 C-17 18 -21 18 -26 19 C-26 20 -26 20 -26 21 C-29 22 -32 24 -35 25 C-38 27 -42 28 -45 30 C-48 31 -48 31 -50 31 C-50 32 -51 33 -51 34 C-54 35 -56 37 -59 38 C-61 40 -63 41 -65 43 C-76 51 -76 51 -79 51 C-79 52 -80 53 -80 54 C-82 56 -83 57 -85 59 C-86 60 -88 62 -89 63 C-90 63 -90 63 -91 63 C-92 64 -92 66 -93 67 C-95 70 -97 73 -99 76 C-102 81 -103 84 -103 89 C-103 91 -103 92 -103 94 C-106 96 -110 94 -113 93 C-108 76 -95 61 -81 50 C-80 49 -78 48 -77 46 C-64 37 -51 28 -37 21 C-34 19 -32 18 -29 16 C-25 14 -22 12 -18 10 C-15 8 -12 6 -8 4 C-4 1 -4 1 0 0 Z " fill="#CBCED6" transform="translate(309,211)"/>
<path d="M0 0 C1 -0 1 -0 4 -0 C11 1 12 5 16 9 C16 10 16 11 16 11 C17 12 19 13 20 13 C24 16 24 16 25 20 C24 21 24 21 21 22 C20 25 20 25 19 28 C18 29 18 30 17 31 C13 31 11 30 7 28 C5 29 3 29 1 29 C-5 30 -8 30 -14 26 C-17 22 -17 22 -17 19 C-16 16 -15 13 -13 9 C-13 8 -12 7 -12 6 C-10 -1 -6 0 0 0 Z " fill="#C2C5D0" transform="translate(435.875,407.5625)"/>
<path d="M0 0 C1 1 1 3 2 4 C1 5 -1 6 -2 7 C-3 8 -5 9 -6 10 C-6 15 -5 18 -3 23 C-3 24 -3 24 -2 28 C-3 28 -4 29 -6 29 C-13 32 -20 35 -27 40 C-28 40 -28 40 -29 40 C-29 38 -30 37 -30 35 C-33 33 -33 33 -37 32 C-42 31 -42 31 -46 27 C-45 22 -42 19 -38 16 C-33 14 -30 12 -24 12 C-17 11 -13 6 -7 2 C-5 0 -5 0 0 0 Z " fill="#C2C5D0" transform="translate(504,84)"/>
<path d="M0 0 C1 1 3 3 4 4 C7 6 10 8 13 10 C18 13 18 13 21 16 C21 17 20 19 20 20 C19 20 17 21 16 21 C9 22 6 24 0 28 C-6 31 -11 32 -18 32 C-21 31 -21 31 -23 28 C-24 20 -25 17 -21 10 C-19 9 -17 7 -15 6 C-13 4 -11 3 -9 1 C-6 -1 -3 -0 0 0 Z " fill="#C1C4CF" transform="translate(530,53)"/>
<path d="M0 0 C6 0 10 2 15 5 C30 15 48 13 65 14 C65 14 65 14 69 14 C69 14 69 14 72 14 C75 14 75 14 78 16 C78 17 78 19 78 20 C80 20 81 21 83 21 C83 21 83 21 85 23 C57 26 57 26 48 23 C48 24 48 24 48 25 C14 23 14 23 4 19 C4 18 4 16 4 15 C7 15 10 15 13 15 C14 12 14 12 14 8 C10 4 5 3 0 1 C0 1 0 0 0 0 Z " fill="#B0B3BE" transform="translate(309,432)"/>
<path d="M0 0 C0 1 1 3 1 4 C0 5 -0 5 -1 6 C-1 10 -1 12 1 16 C1 19 2 22 2 25 C2 28 2 28 4 33 C-2 40 -11 41 -20 42 C-21 42 -22 42 -23 42 C-23 42 -23 42 -24 43 C-26 43 -29 43 -31 43 C-29 39 -27 36 -24 32 C-20 25 -17 18 -13 11 C-11 7 -9 4 -7 0 C-3 -1 -3 -1 0 0 Z " fill="#7D8295" transform="translate(563,346)"/>
<path d="M0 0 C7 5 14 11 19 18 C19 21 19 21 17 24 C13 25 9 25 5 25 C4 25 3 25 2 25 C-4 24 -9 24 -14 21 C-15 21 -16 21 -17 21 C-20 20 -20 20 -22 18 C-23 17 -23 16 -24 15 C-21 9 -17 4 -11 0 C-7 -1 -5 -1 0 0 Z " fill="#F2AC2A" transform="translate(597,168)"/>
<path d="M0 0 C1 0 1 0 2 0 C2 2 2 5 2 7 C29 8 29 8 41 8 C44 8 47 8 50 9 C52 9 54 9 56 9 C57 9 58 9 59 9 C62 9 62 9 65 8 C73 7 81 8 89 9 C94 9 98 9 103 8 C103 7 103 7 102 0 C104 0 106 0 108 0 C108 1 108 1 110 4 C111 4 112 5 113 5 C113 7 112 8 112 10 C111 10 111 10 110 10 C109 11 109 13 108 14 C104 15 104 15 98 15 C97 15 96 15 95 15 C91 15 88 15 84 15 C82 15 79 15 77 15 C72 15 67 15 62 15 C55 14 49 15 42 15 C37 15 32 15 27 15 C25 15 23 15 20 15 C17 15 13 15 10 15 C8 15 6 15 4 15 C3 14 1 14 0 14 C-1 13 -1 11 -2 10 C-3 10 -4 9 -5 9 C-5 7 -4 6 -4 4 C-3 4 -3 4 -2 4 C-1 3 -1 1 0 0 Z " fill="#EAEBED" transform="translate(98,169)"/>
<path d="M0 0 C9 -0 18 -0 28 -0 C31 -0 34 -0 37 -0 C42 -0 46 -0 51 -0 C52 -0 53 -0 55 -0 C56 -0 57 -0 59 -0 C59 -0 59 -0 62 -0 C63 -0 64 -0 65 0 C65 1 65 1 67 4 C68 4 69 5 70 5 C70 7 69 8 69 10 C66 11 66 11 63 11 C61 11 60 11 58 11 C57 11 55 11 54 10 C52 10 51 10 49 10 C44 10 39 10 34 10 C31 10 28 10 24 10 C16 10 8 10 0 10 C0 7 0 3 0 0 Z " fill="#CACDD6" transform="translate(61,289)"/>
<path d="M0 0 C0 10 0 10 -1 12 C-3 12 -4 12 -6 12 C-7 13 -7 15 -8 16 C-12 18 -12 18 -18 19 C-29 22 -29 22 -34 24 C-38 25 -38 25 -43 25 C-43 24 -43 24 -43 23 C-44 23 -44 23 -45 23 C-46 20 -46 20 -46 17 C-41 9 -32 6 -23 3 C-16 1 -8 0 0 0 Z " fill="#AFB2BC" transform="translate(225,310)"/>
<path d="M0 0 C1 0 1 1 2 1 C2 2 2 2 2 3 C3 3 3 3 7 1 C15 -1 15 -1 19 1 C20 4 20 4 20 8 C10 17 3 18 -10 18 C-17 18 -23 16 -29 12 C-29 11 -29 10 -29 9 C-27 8 -24 8 -22 7 C-22 6 -22 6 -22 5 C-21 5 -20 5 -19 5 C-15 4 -15 4 -11 2 C-7 -0 -5 -0 0 0 Z " fill="#C1C4CF" transform="translate(457,43)"/>
<path d="M0 0 C0 0 0 0 3 2 C5 3 6 4 8 5 C12 7 12 7 14 10 C14 11 14 13 14 14 C9 18 3 18 -3 20 C-5 20 -7 21 -9 21 C-15 22 -19 22 -25 19 C-28 16 -28 16 -29 12 C-30 11 -30 11 -31 10 C-25 7 -20 5 -13 5 C-13 4 -13 4 -13 3 C-4 -1 -4 -1 0 0 Z " fill="#7C8194" transform="translate(173.0625,362.9375)"/>
<path d="M0 0 C2 1 3 1 5 2 C5 4 4 5 4 7 C2 7 0 7 -2 7 C-3 8 -3 10 -4 11 C-8 11 -12 12 -16 12 C-17 12 -18 12 -19 12 C-23 12 -27 12 -31 12 C-34 12 -37 12 -40 12 C-45 12 -51 12 -57 12 C-64 11 -72 12 -79 12 C-85 12 -91 12 -97 12 C-99 12 -102 12 -105 12 C-109 12 -113 12 -116 12 C-117 12 -117 12 -120 12 C-123 12 -123 12 -128 11 C-129 10 -129 8 -130 7 C-131 7 -132 6 -133 6 C-132 6 -131 6 -130 6 C-130 5 -130 5 -130 4 C-129 4 -128 3 -127 3 C-126 4 -126 4 -125 5 C-120 6 -114 6 -109 6 C-108 6 -108 6 -106 6 C-102 6 -99 6 -95 6 C-93 6 -91 6 -88 6 C-83 6 -78 6 -73 6 C-67 6 -61 6 -54 6 C-49 6 -44 6 -40 6 C-37 6 -35 6 -33 6 C-29 6 -26 6 -23 6 C-21 6 -19 6 -17 6 C-7 6 -7 6 -3 5 C-2 3 -1 2 0 0 Z " fill="#EBECEE" transform="translate(158,232)"/>
<path d="M0 0 C9 0 16 3 23 8 C25 12 25 12 24 16 C23 18 22 19 20 20 C19 22 18 24 17 26 C12 26 12 26 8 24 C1 19 -5 13 -8 6 C-6 1 -6 1 0 0 Z " fill="#C8CBD4" transform="translate(529.5625,255.5)"/>
<path d="M0 0 C2 8 -5 16 -9 23 C-15 33 -22 42 -30 50 C-31 51 -32 52 -33 53 C-40 60 -46 66 -54 72 C-55 73 -56 73 -57 74 C-63 79 -68 82 -75 85 C-76 85 -77 84 -78 84 C-76 80 -76 80 -71 78 C-70 77 -70 76 -69 75 C-66 73 -63 72 -60 70 C-59 69 -57 68 -56 67 C-55 67 -54 67 -53 67 C-52 65 -52 64 -51 62 C-49 61 -47 59 -45 58 C-43 56 -42 54 -40 52 C-38 51 -37 49 -35 48 C-34 47 -33 46 -32 45 C-32 44 -31 43 -30 42 C-29 42 -29 42 -28 42 C-27 40 -27 39 -26 37 C-25 36 -23 36 -22 35 C-21 33 -21 32 -20 30 C-17 26 -15 22 -12 18 C-10 15 -10 15 -9 10 C-8 9 -6 9 -5 8 C-4 6 -4 4 -3 2 C-2 2 -1 2 0 2 C0 1 0 1 0 0 Z " fill="#D9DAE1" transform="translate(539,347)"/>
<path d="M0 0 C17 -0 35 -0 52 -0 C60 -0 68 -0 76 -0 C84 -0 92 -0 99 -0 C102 -0 105 -0 108 -0 C112 -0 116 -0 121 -0 C122 -0 123 -0 124 -0 C127 -0 130 -0 133 0 C133 0 133 0 135 3 C134 3 134 3 133 3 C133 4 132 5 132 6 C132 5 131 5 131 4 C127 4 123 4 120 4 C118 4 117 4 116 4 C112 4 108 4 104 4 C101 4 98 4 95 4 C88 4 81 4 73 4 C66 4 59 4 51 4 C36 4 22 4 7 4 C7 5 7 5 7 6 C6 6 4 7 3 7 C3 8 3 8 3 9 C2 9 1 9 0 9 C0 6 0 3 0 0 Z " fill="#CDD0D8" transform="translate(25,229)"/>
<path d="M0 0 C1 1 3 3 4 4 C5 5 6 6 8 7 C18 16 23 25 24 38 C24 46 23 53 17 59 C13 61 11 61 6 61 C2 59 0 57 -3 54 C-8 50 -11 47 -17 46 C-21 45 -21 45 -23 42 C-15 43 -9 46 -2 49 C3 52 6 53 12 53 C16 50 17 48 18 43 C18 37 17 32 16 26 C16 25 15 23 15 22 C15 21 15 21 14 19 C13 19 13 19 9 17 C5 13 5 13 4 9 C2 5 2 5 -1 3 C-4 2 -4 2 -8 3 C-5 -1 -4 -1 0 0 Z " fill="#BCBFCB" transform="translate(343,178)"/>
<path d="M0 0 C4 4 5 10 7 15 C9 19 9 19 12 23 C12 31 9 37 7 44 C0 60 -6 77 -5 95 C-5 97 -6 98 -6 100 C-7 99 -9 99 -10 98 C-11 94 -11 94 -11 90 C-11 85 -11 81 -12 76 C-11 75 -9 74 -8 73 C-8 72 -8 71 -8 70 C-9 66 -9 66 -7 64 C-7 63 -7 63 -5 61 C-4 58 -2 55 -1 52 C-0 51 0 50 1 48 C4 40 7 32 5 22 C4 20 3 19 2 17 C1 14 -1 10 -2 7 C-2 6 -3 6 -3 5 C-2 3 -1 2 0 0 Z " fill="#D0D2DA" transform="translate(562,198)"/>
<path d="M0 0 C-0 2 -1 3 -1 5 C-0 6 0 7 1 8 C1 9 2 10 2 11 C0 16 0 16 -5 19 C-11 21 -17 21 -24 21 C-24 20 -24 20 -24 19 C-26 19 -28 19 -30 19 C-31 18 -32 16 -33 15 C-30 10 -27 7 -23 3 C-23 4 -22 5 -22 6 C-15 5 -6 0 0 0 Z " fill="#495062" transform="translate(542,401)"/>
<path d="M0 0 C5 1 7 4 11 8 C15 12 18 16 22 19 C23 19 25 19 26 19 C27 18 28 16 30 15 C31 14 32 12 33 11 C34 11 36 12 37 12 C37 13 37 13 38 17 C34 21 31 24 26 27 C25 27 25 27 24 27 C23 28 23 30 22 31 C21 32 20 33 19 34 C18 34 16 33 15 33 C15 32 15 31 14 29 C12 21 6 14 0 8 C-1 7 -1 6 -2 5 C-1 1 -1 1 0 0 Z " fill="#5B320D" transform="translate(458,467)"/>
<path d="M0 0 C2 0 4 0 6 0 C7 1 8 3 9 4 C8 4 8 4 7 4 C7 12 9 15 14 21 C14 22 15 24 15 25 C16 25 16 25 17 25 C18 26 19 27 20 28 C23 32 25 33 29 35 C29 36 29 36 29 37 C30 37 32 38 33 38 C35 40 38 41 40 43 C46 47 53 51 60 53 C64 55 64 55 66 57 C66 59 66 61 66 63 C60 62 58 60 53 57 C51 56 50 55 48 54 C41 51 35 46 29 41 C28 40 26 39 25 38 C25 37 25 37 25 36 C24 35 22 35 21 34 C18 32 18 32 16 29 C16 28 16 28 16 27 C15 26 13 26 12 25 C12 24 11 23 11 22 C10 22 10 22 9 22 C7 19 7 19 4 16 C4 15 3 14 2 13 C-0 9 -1 6 -1 2 C-1 1 -0 1 0 0 Z " fill="#AFB2BC" transform="translate(204,373)"/>
<path d="M0 0 C0 1 0 3 0 4 C1 4 2 4 4 3 C16 1 29 -1 41 1 C41 2 41 2 42 5 C36 7 31 8 25 6 C21 6 18 6 14 6 C13 6 13 6 10 6 C6 6 3 6 0 7 C-2 7 -4 7 -6 7 C-7 7 -8 7 -9 7 C-12 7 -12 7 -15 6 C-20 6 -25 6 -30 6 C-40 6 -49 6 -59 5 C-59 4 -58 2 -58 1 C-57 1 -56 1 -56 2 C-52 2 -52 2 -49 2 C-41 1 -34 1 -27 1 C-18 1 -9 0 0 0 Z " fill="#B5B8C3" transform="translate(160,172)"/>
<path d="M0 0 C1 0 1 1 2 1 C2 2 2 2 2 3 C3 3 3 3 4 3 C4 4 4 4 4 5 C5 5 5 5 6 5 C6 6 6 6 6 7 C7 8 9 8 10 9 C11 10 11 10 12 11 C15 13 15 13 20 15 C24 17 24 17 26 22 C22 26 22 26 19 26 C10 25 7 22 1 16 C-2 15 -2 15 -5 14 C-5 12 -4 11 -4 9 C-4 7 -3 6 -3 4 C-4 4 -4 3 -5 3 C-3 2 -2 1 0 0 Z " fill="#8E92A0" transform="translate(278,267)"/>
<path d="M0 0 C3 -1 3 -1 8 -1 C9 -1 11 -1 12 -1 C14 -1 16 -1 18 -1 C19 -1 21 -1 23 -1 C27 -1 30 -1 34 -1 C40 -1 46 -1 51 -1 C55 -1 59 -1 62 -1 C64 -1 66 -1 68 -1 C69 -1 71 -1 72 -1 C73 -1 73 -1 77 -1 C78 -0 79 -0 80 0 C80 1 80 1 82 4 C75 5 68 5 60 5 C60 5 60 5 56 5 C37 5 17 5 -2 4 C-1 3 -1 1 0 0 Z " fill="#EBECEE" transform="translate(306,533)"/>
<path d="M0 0 C7 1 7 1 9 3 C9 4 9 6 9 7 C10 7 10 7 11 7 C11 9 12 10 12 12 C11 12 11 12 8 14 C7 14 7 13 6 13 C5 15 4 18 3 20 C1 23 1 23 -2 24 C-2 22 -2 20 -2 18 C-3 18 -4 18 -5 18 C-13 16 -13 16 -16 13 C-16 11 -15 10 -15 8 C-12 6 -12 6 -8 4 C-1 1 -1 1 0 0 Z " fill="#8E929F" transform="translate(421,304)"/>
<path d="M0 0 C7 2 7 2 9 4 C13 4 16 5 20 5 C16 8 16 8 12 10 C8 12 8 12 6 15 C-2 15 -7 12 -14 9 C-15 8 -16 7 -17 6 C-15 -2 -7 -1 0 0 Z " fill="#B8BBC6" transform="translate(273,405)"/>
<path d="M0 0 C3 -0 3 -0 7 -0 C8 -0 9 -0 10 -0 C12 -0 13 -0 15 -0 C15 -0 15 -0 19 -0 C22 -0 26 -0 29 0 C20 6 10 5 -1 5 C-1 6 -1 7 -1 8 C-0 8 -0 8 5 8 C7 9 9 9 12 9 C13 9 14 9 15 9 C17 9 18 9 19 9 C20 9 20 9 22 10 C25 10 25 10 28 12 C28 13 28 13 28 14 C23 14 17 14 12 14 C11 14 9 14 8 14 C6 14 5 14 3 14 C3 14 3 14 -1 14 C-2 14 -3 14 -4 14 C-5 13 -5 11 -6 10 C-7 10 -8 9 -9 9 C-9 7 -8 6 -8 4 C-6 4 -4 4 -2 4 C-1 3 -1 1 0 0 Z " fill="#EBECEE" transform="translate(122,541)"/>
<path d="M0 0 C3 1 3 1 5 4 C6 8 7 11 4 15 C-3 22 -11 22 -21 22 C-21 21 -22 20 -22 19 C-19 16 -14 15 -9 13 C-9 8 -9 8 -10 3 C-9 3 -8 3 -7 3 C-4 2 -4 2 0 0 Z " fill="#83879A" transform="translate(450,441)"/>
<path d="M0 0 C-0 1 -1 2 -1 3 C-4 4 -7 5 -10 6 C-15 8 -19 10 -23 13 C-25 14 -26 15 -28 16 C-37 21 -44 27 -48 37 C-48 42 -48 47 -48 52 C-49 52 -49 52 -50 52 C-51 53 -51 55 -52 56 C-57 58 -57 58 -60 58 C-59 57 -59 55 -58 54 C-56 54 -55 55 -53 55 C-53 53 -53 51 -53 49 C-53 48 -53 47 -53 46 C-53 43 -53 40 -53 37 C-52 30 -48 27 -42 23 C-41 23 -41 23 -40 23 C-39 22 -39 20 -38 19 C-37 19 -37 19 -36 19 C-35 18 -35 16 -34 15 C-31 13 -28 12 -25 10 C-22 8 -20 6 -17 4 C-15 3 -13 2 -11 1 C-10 0 -9 -0 -8 -1 C-5 -2 -5 -2 0 0 Z " fill="#C7CAD3" transform="translate(277,267)"/>
<path d="M0 0 C7 0 15 0 22 0 C22 1 22 1 22 2 C27 3 33 3 38 4 C35 6 35 6 32 7 C31 7 30 8 29 8 C29 9 29 9 29 10 C19 10 10 10 0 10 C0 7 0 3 0 0 Z " fill="#D8D9E0" transform="translate(61,289)"/>
<path d="M0 0 C3 2 3 2 6 5 C7 6 9 6 10 7 C10 8 11 9 12 10 C11 12 11 13 10 15 C10 16 11 16 11 17 C4 18 4 18 1 16 C1 15 2 15 2 14 C1 14 -0 14 -2 14 C-6 13 -9 11 -13 9 C-15 9 -16 9 -18 9 C-17 7 -16 6 -15 4 C-13 4 -12 3 -10 3 C-9 3 -7 2 -6 2 C-6 1 -6 1 -6 0 C-4 -1 -4 -1 0 0 Z " fill="#ECA125" transform="translate(594,171)"/>
<path d="M0 0 C2 0 3 0 5 0 C5 1 6 2 6 3 C7 4 7 5 8 6 C13 7 16 7 21 6 C26 6 26 6 30 6 C31 7 31 7 32 8 C31 12 31 12 30 13 C25 13 19 13 14 13 C9 13 9 13 5 15 C-0 15 -0 15 -5 15 C-5 14 -6 14 -6 13 C-5 11 -3 8 -2 6 C-2 5 -1 4 -1 3 C-1 2 -0 1 0 0 Z " fill="#4E280B" transform="translate(235,456)"/>
<path d="M0 0 C-1 0 -2 1 -3 1 C-3 2 -4 4 -4 5 C-6 6 -8 6 -10 7 C-11 8 -11 9 -12 10 C-14 11 -15 11 -17 12 C-19 13 -21 15 -23 16 C-24 17 -25 18 -25 19 C-28 21 -28 21 -31 25 C-32 25 -32 25 -33 25 C-34 26 -34 28 -35 29 C-37 31 -38 32 -40 34 C-41 35 -41 36 -42 37 C-43 38 -43 38 -44 39 C-46 39 -47 38 -49 38 C-46 32 -43 28 -38 24 C-37 23 -37 22 -36 22 C-29 13 -12 -2 0 0 Z " fill="#D9DAE1" transform="translate(430,48)"/>
<path d="M0 0 C1 0 2 0 3 0 C9 1 14 1 19 1 C20 1 21 1 22 1 C23 5 23 5 22 7 C19 8 17 9 14 11 C11 12 11 12 7 16 C3 16 3 16 -1 16 C-2 10 -2 6 0 0 Z " fill="#C2C5D0" transform="translate(540,167)"/>
<path d="M0 0 C1 -0 3 -0 4 -0 C5 -0 7 -0 8 -0 C9 -0 10 0 11 0 C11 2 12 4 12 5 C10 6 7 6 5 7 C4 7 4 7 0 8 C-3 8 -3 8 -5 8 C-5 9 -5 10 -5 11 C-9 13 -9 13 -14 13 C-18 10 -19 9 -20 3 C-13 1 -7 0 0 0 Z " fill="#474E60" transform="translate(248.015625,358.765625)"/>
<path d="M0 0 C2 2 2 2 4 5 C5 5 5 6 6 6 C6 9 6 9 4 12 C-2 15 -6 16 -12 16 C-12 15 -12 15 -12 14 C-13 14 -13 14 -14 14 C-15 11 -15 11 -15 8 C-11 1 -8 -2 0 0 Z " fill="#8C90A7" transform="translate(194,319)"/>
<path d="M0 0 C0 2 0 3 0 5 C-5 9 -7 8 -12 8 C-14 8 -15 8 -17 8 C-21 7 -21 7 -24 5 C-25 2 -25 2 -24 -3 C-15 -6 -8 -5 0 0 Z " fill="#9094A1" transform="translate(302,444)"/>
<path d="M0 0 C1 0 3 1 4 1 C3 1 3 1 2 1 C2 2 1 3 1 4 C-1 6 -2 7 -4 9 C-5 10 -7 12 -8 13 C-9 13 -9 13 -10 13 C-11 14 -11 16 -12 17 C-14 20 -16 23 -18 26 C-21 31 -22 34 -22 39 C-22 41 -22 42 -22 44 C-25 46 -29 44 -32 43 C-27 26 -14 11 0 0 Z " fill="#C9CCD5" transform="translate(228,261)"/>
<path d="M0 0 C4 5 4 7 4 13 C3 14 1 16 0 17 C-5 17 -5 17 -10 16 C-10 15 -10 15 -10 14 C-11 14 -11 14 -12 14 C-14 10 -14 10 -14 5 C-10 1 -6 -1 0 0 Z " fill="#5F6679" transform="translate(276,300)"/>
<path d="M0 0 C1 0 1 1 2 1 C2 7 -0 12 -3 18 C-3 20 -4 21 -5 23 C-5 24 -5 26 -6 27 C-9 24 -12 21 -14 17 C-14 11 -14 11 -12 8 C-10 8 -9 7 -8 6 C-7 5 -5 4 -4 3 C-3 2 -1 1 0 0 Z " fill="#BCBFCB" transform="translate(566,228)"/>
<path d="M0 0 C-0 5 -1 6 -5 10 C-7 11 -9 13 -10 14 C-11 14 -12 15 -13 16 C-16 17 -16 17 -20 18 C-20 19 -20 19 -20 20 C-21 20 -22 20 -23 20 C-23 19 -23 18 -23 17 C-23 15 -23 14 -23 13 C-24 13 -25 12 -26 12 C-23 10 -19 8 -16 6 C-15 6 -15 6 -13 4 C-8 2 -6 0 0 0 Z " fill="#BBBECA" transform="translate(401,369)"/>
<path d="M0 0 C17 9 17 9 19 15 C19 18 19 18 16 21 C11 20 11 20 8 16 C4 11 1 9 -4 7 C-3 6 -2 5 -1 4 C-1 3 -0 1 0 0 Z " fill="#EBECEE" transform="translate(237,432)"/>
<path d="M0 0 C1 4 1 8 0 13 C-0 14 -1 14 -1 15 C-2 15 -3 15 -4 15 C-4 16 -4 18 -3 19 C-3 24 -3 24 -6 29 C-7 29 -7 29 -8 29 C-8 31 -8 33 -8 35 C-8 35 -8 35 -11 36 C-11 37 -11 37 -11 39 C-12 41 -12 42 -12 43 C-14 44 -15 44 -17 45 C-19 40 -15 35 -14 30 C-13 29 -13 28 -12 27 C-2 2 -2 2 0 0 Z " fill="#D9DAE1" transform="translate(361,121)"/>
<path d="M0 0 C2 0 4 0 6 0 C6 1 6 1 6 2 C4 2 2 2 0 2 C0 1 0 1 0 0 Z " fill="#EBECEE" transform="translate(577,329)"/>
<path d="M0 0 C1 0 1 0 2 0 C2 1 2 1 2 2 C1 2 1 2 0 2 C0 1 0 1 0 0 Z " fill="#EBECEE" transform="translate(617,209)"/>
</svg>
