<?xml version="1.0" encoding="UTF-8"?>
<!-- Generator: visioncortex VTracer 0.6.12 -->
<svg version="1.1" xmlns="http://www.w3.org/2000/svg" width="528" height="684">
<path d="M0 0 C4 -1 4 -1 9 -1 C10 -1 10 -1 14 -1 C16 -1 18 -1 20 -0 C21 -1 21 -1 26 -1 C27 -1 29 -1 31 -1 C32 -1 32 -1 36 -1 C37 -0 39 -0 40 0 C41 1 41 3 42 4 C46 4 49 4 53 4 C57 4 60 4 64 4 C65 5 65 7 66 8 C68 8 69 8 71 8 C73 8 74 8 76 8 C77 9 77 11 78 12 C80 12 82 12 84 12 C85 13 85 15 86 16 C88 16 90 16 92 16 C93 17 93 19 94 20 C96 20 98 20 100 20 C101 21 101 23 102 24 C104 24 106 24 108 24 C109 25 109 27 110 28 C111 28 111 28 114 30 C114 31 114 31 114 32 C116 32 118 32 120 32 C121 33 121 35 122 36 C123 37 125 37 126 38 C126 39 126 39 126 40 C127 41 129 41 130 42 C130 43 130 43 130 44 C131 45 133 45 134 46 C134 47 134 47 134 48 C135 48 136 48 137 48 C137 49 137 50 137 51 C138 55 138 55 142 58 C142 59 142 59 142 60 C143 61 145 61 146 62 C146 63 146 63 146 64 C147 64 148 64 149 64 C149 65 149 66 149 67 C150 71 150 71 154 74 C154 75 154 75 154 76 C155 76 156 76 157 76 C157 77 157 78 157 79 C158 81 158 82 158 83 C159 83 160 84 161 84 C161 86 162 89 162 91 C163 91 164 92 165 92 C165 96 166 99 166 103 C167 103 168 104 169 104 C169 106 170 109 170 111 C171 111 172 112 173 112 C173 116 174 120 174 124 C174 125 174 126 174 127 C175 127 176 128 177 128 C177 132 178 136 178 140 C178 141 178 142 178 143 C179 143 180 144 181 144 C181 148 182 152 182 156 C182 157 182 158 182 159 C183 159 184 160 185 160 C185 163 185 163 185 167 C185 168 185 170 185 171 C185 174 186 177 186 180 C186 181 186 183 186 184 C186 185 186 187 186 188 C186 189 186 190 186 191 C187 191 188 192 189 192 C189 195 189 195 189 199 C189 200 189 202 189 203 C189 206 190 209 190 212 C190 213 190 215 190 216 C190 217 190 219 190 220 C190 221 190 222 190 223 C191 223 192 224 193 224 C193 229 193 234 194 239 C194 242 194 244 194 247 C195 247 196 248 197 248 C197 253 198 258 198 263 C198 264 198 266 198 267 C199 267 200 268 201 268 C201 272 202 275 202 279 C203 279 204 280 205 280 C205 284 206 287 206 291 C207 291 208 292 209 292 C209 294 210 297 210 299 C211 299 212 300 213 300 C213 301 213 302 213 303 C214 307 214 307 218 310 C218 311 218 311 218 312 C219 313 221 313 222 314 C222 315 222 315 222 316 C223 317 225 317 226 318 C226 319 226 319 226 320 C227 320 228 320 229 320 C229 321 229 322 229 323 C230 327 230 327 234 330 C234 331 234 331 234 332 C235 332 236 332 237 332 C237 333 237 334 237 335 C237 336 237 336 238 339 C239 339 240 340 241 340 C241 342 242 345 242 347 C243 347 244 348 245 348 C245 352 246 355 246 359 C247 359 248 360 249 360 C249 362 250 365 250 367 C251 367 252 368 253 368 C253 372 254 376 254 380 C254 381 254 382 254 383 C255 383 256 384 257 384 C257 390 257 396 258 401 C258 405 258 408 258 411 C259 411 260 412 261 412 C261 415 261 415 261 419 C261 420 261 421 261 423 C261 423 261 423 261 427 C261 428 261 430 261 431 C261 433 261 434 261 435 C261 437 261 438 261 439 C261 440 261 440 261 442 C260 442 259 443 258 443 C258 447 258 447 258 452 C257 458 257 458 257 462 C256 462 255 463 254 463 C254 466 254 466 254 470 C253 475 253 475 253 478 C252 478 251 479 250 479 C250 481 250 483 250 484 C249 486 249 488 249 490 C248 490 247 491 246 491 C245 495 245 495 245 498 C244 498 243 498 242 498 C241 499 241 501 240 502 C239 502 239 503 238 503 C238 505 237 508 237 510 C236 510 235 510 234 510 C233 511 233 513 232 514 C230 514 228 515 226 515 C225 516 225 517 224 518 C222 518 221 517 219 517 C219 516 218 516 218 515 C217 515 215 515 214 515 C213 516 213 517 212 518 C211 518 211 518 210 518 C209 519 209 521 208 522 C207 522 207 522 206 522 C205 523 205 525 204 526 C199 526 195 526 190 526 C187 526 185 526 182 526 C181 527 181 529 180 530 C179 530 179 530 178 530 C177 531 177 533 176 534 C175 534 175 534 174 534 C173 535 173 537 172 538 C171 538 171 538 170 538 C169 539 169 541 168 542 C167 542 167 542 166 542 C165 543 165 545 164 546 C162 546 160 546 158 546 C157 547 157 549 156 550 C155 550 155 550 154 550 C153 551 153 553 152 554 C150 554 148 554 146 554 C145 555 145 557 144 558 C143 558 143 558 142 558 C141 559 141 561 140 562 C137 562 133 562 130 562 C129 563 129 565 128 566 C126 566 124 566 122 566 C121 567 121 569 120 570 C119 570 119 571 118 571 C118 572 118 574 118 575 C119 575 119 575 122 578 C122 579 122 579 122 580 C123 580 124 580 125 580 C126 580 128 580 129 580 C130 580 131 580 133 580 C134 580 135 580 136 580 C137 581 137 583 138 584 C140 584 142 584 144 584 C145 585 145 587 146 588 C147 589 149 589 150 590 C150 591 150 591 150 592 C151 592 153 592 154 592 C156 592 157 592 159 592 C161 592 162 592 164 592 C165 592 167 592 168 592 C169 593 169 595 170 596 C174 596 179 596 183 596 C187 596 192 596 196 596 C197 597 197 599 198 600 C200 600 201 600 203 600 C205 600 206 600 208 600 C209 601 209 603 210 604 C212 604 214 604 216 604 C216 606 217 607 217 609 C216 609 215 610 214 610 C213 611 213 613 212 614 C210 614 208 614 206 614 C205 615 205 617 204 618 C200 618 197 618 193 618 C193 618 193 618 190 618 C189 619 189 621 188 622 C183 622 179 622 174 622 C173 622 173 622 170 622 C169 623 169 625 168 626 C165 626 165 626 161 626 C160 626 159 626 157 626 C154 626 152 626 149 626 C147 626 146 626 145 626 C144 626 144 626 141 626 C140 626 139 626 138 626 C137 627 137 629 136 630 C132 630 132 630 127 630 C125 630 123 630 121 630 C120 630 119 630 118 630 C114 630 111 630 108 630 C100 630 92 630 83 630 C77 630 70 630 63 630 C60 630 56 630 53 630 C51 630 49 630 47 630 C45 630 44 630 42 630 C41 630 39 630 38 630 C37 631 37 633 36 634 C32 634 27 635 23 635 C21 635 20 635 19 635 C16 635 13 635 10 635 C6 635 2 635 -3 635 C-5 635 -8 635 -11 635 C-11 635 -11 635 -15 635 C-18 635 -21 634 -24 634 C-25 633 -25 631 -26 630 C-29 630 -29 630 -33 630 C-34 630 -35 630 -37 630 C-38 630 -38 630 -41 630 C-42 630 -42 630 -46 630 C-51 630 -56 630 -61 630 C-68 630 -74 630 -81 630 C-81 630 -81 630 -85 630 C-87 630 -88 630 -89 630 C-91 630 -92 630 -93 630 C-94 630 -95 630 -96 630 C-97 629 -97 627 -98 626 C-102 626 -107 626 -111 626 C-115 626 -120 626 -124 626 C-125 625 -125 623 -126 622 C-130 622 -133 622 -137 622 C-141 622 -144 622 -148 622 C-149 621 -149 619 -150 618 C-153 618 -153 618 -157 618 C-161 618 -161 618 -164 618 C-165 617 -165 615 -166 614 C-168 614 -170 614 -172 614 C-173 613 -173 611 -174 610 C-175 610 -176 609 -177 609 C-177 608 -177 608 -176 604 C-175 604 -175 604 -174 604 C-173 603 -173 601 -172 600 C-169 600 -165 600 -162 600 C-161 599 -161 597 -160 596 C-157 596 -157 596 -153 596 C-152 596 -151 596 -149 596 C-146 596 -144 596 -141 596 C-139 596 -138 596 -137 596 C-136 596 -136 596 -133 596 C-132 596 -131 596 -130 596 C-129 595 -129 593 -128 592 C-123 592 -119 592 -114 592 C-113 592 -113 592 -110 592 C-109 591 -109 589 -108 588 C-107 588 -107 588 -106 588 C-105 587 -105 585 -104 584 C-102 584 -100 584 -98 584 C-97 583 -97 581 -96 580 C-92 580 -89 580 -85 580 C-85 580 -85 580 -82 580 C-81 579 -81 577 -80 576 C-79 576 -79 575 -78 575 C-78 574 -78 572 -78 571 C-79 571 -79 571 -82 568 C-82 567 -82 567 -82 566 C-84 566 -86 566 -88 566 C-89 565 -89 563 -90 562 C-92 562 -94 562 -96 562 C-97 561 -97 559 -98 558 C-100 558 -102 558 -104 558 C-105 557 -105 555 -106 554 C-108 554 -110 554 -112 554 C-113 553 -113 551 -114 550 C-115 549 -117 549 -118 548 C-118 547 -118 547 -118 546 C-120 546 -122 546 -124 546 C-125 545 -125 543 -126 542 C-127 541 -129 541 -130 540 C-130 539 -130 539 -130 538 C-131 537 -133 537 -134 536 C-134 535 -134 535 -134 534 C-135 533 -137 533 -138 532 C-138 531 -138 531 -138 530 C-139 529 -141 529 -142 528 C-142 527 -142 527 -142 526 C-146 526 -146 526 -150 526 C-151 527 -151 529 -152 530 C-156 530 -156 530 -160 530 C-161 529 -161 527 -162 526 C-163 525 -165 525 -166 524 C-166 523 -166 523 -166 522 C-167 521 -169 521 -170 520 C-170 519 -170 519 -170 518 C-171 517 -173 517 -174 516 C-174 515 -174 515 -174 514 C-177 514 -177 514 -181 515 C-182 516 -182 517 -183 518 C-184 518 -185 517 -186 517 C-186 516 -186 515 -186 514 C-188 514 -190 514 -192 514 C-193 513 -193 511 -194 510 C-195 509 -197 509 -198 508 C-198 507 -198 507 -198 506 C-199 506 -200 506 -201 506 C-201 505 -201 504 -201 503 C-202 501 -202 500 -202 499 C-203 499 -204 498 -205 498 C-205 496 -206 493 -206 491 C-207 491 -208 490 -209 490 C-209 486 -210 483 -210 479 C-211 479 -212 478 -213 478 C-213 474 -214 470 -214 466 C-214 465 -214 464 -214 463 C-215 463 -216 462 -217 462 C-217 459 -217 459 -217 455 C-217 454 -217 454 -217 450 C-217 448 -217 447 -217 445 C-217 443 -217 441 -217 440 C-217 436 -217 432 -217 429 C-217 423 -217 417 -217 412 C-217 408 -217 405 -217 401 C-217 399 -217 398 -217 396 C-217 394 -217 393 -217 391 C-217 390 -217 388 -217 387 C-217 386 -217 385 -217 384 C-216 384 -215 383 -214 383 C-214 381 -214 379 -214 378 C-213 376 -213 374 -213 372 C-212 372 -211 371 -210 371 C-210 369 -210 367 -210 366 C-209 364 -209 362 -209 360 C-208 360 -207 359 -206 359 C-206 358 -206 357 -206 356 C-205 354 -205 353 -205 352 C-204 352 -203 351 -202 351 C-202 350 -202 349 -202 348 C-201 346 -201 345 -201 344 C-200 344 -199 343 -198 343 C-198 342 -198 341 -198 340 C-197 338 -197 337 -197 336 C-196 336 -195 335 -194 335 C-193 331 -193 331 -193 328 C-192 328 -191 328 -190 328 C-190 327 -190 327 -188 324 C-187 324 -187 323 -186 323 C-186 321 -185 318 -185 316 C-184 316 -183 316 -182 316 C-181 315 -181 313 -180 312 C-179 312 -179 312 -178 312 C-177 311 -177 309 -176 308 C-175 308 -175 307 -174 307 C-174 305 -174 303 -174 302 C-173 301 -173 301 -173 296 C-172 296 -171 295 -170 295 C-170 294 -170 293 -170 292 C-169 290 -169 289 -169 288 C-168 288 -167 287 -166 287 C-166 285 -166 283 -166 282 C-165 280 -165 278 -165 276 C-164 276 -163 275 -162 275 C-162 273 -162 271 -162 270 C-161 268 -161 266 -161 264 C-160 264 -159 263 -158 263 C-158 259 -158 259 -158 254 C-157 248 -157 248 -157 244 C-156 244 -155 243 -154 243 C-154 238 -154 234 -154 230 C-153 225 -153 221 -153 216 C-152 216 -151 215 -150 215 C-150 212 -150 212 -150 208 C-150 207 -150 207 -150 204 C-150 202 -150 201 -150 200 C-149 197 -149 194 -149 191 C-149 190 -149 188 -149 187 C-149 186 -149 185 -149 184 C-148 184 -147 183 -146 183 C-146 179 -146 175 -146 172 C-145 168 -145 164 -145 160 C-144 160 -143 159 -142 159 C-142 155 -142 155 -142 150 C-141 144 -141 144 -141 140 C-140 140 -139 139 -138 139 C-138 136 -138 136 -138 132 C-137 127 -137 127 -137 124 C-136 124 -135 123 -134 123 C-134 121 -134 119 -134 118 C-133 116 -133 114 -133 112 C-132 112 -131 111 -130 111 C-130 109 -130 107 -130 106 C-129 104 -129 102 -129 100 C-128 100 -127 99 -126 99 C-126 98 -126 97 -126 96 C-125 94 -125 93 -125 92 C-124 92 -123 91 -122 91 C-122 90 -122 89 -122 88 C-121 86 -121 85 -121 84 C-120 84 -119 83 -118 83 C-117 79 -117 79 -117 76 C-116 76 -115 76 -114 76 C-114 75 -114 75 -112 72 C-111 72 -111 71 -110 71 C-110 69 -109 66 -109 64 C-108 64 -107 64 -106 64 C-105 63 -105 61 -104 60 C-103 60 -103 60 -102 60 C-101 59 -101 57 -100 56 C-99 56 -99 56 -98 56 C-97 55 -97 53 -96 52 C-95 52 -95 52 -94 52 C-93 51 -93 49 -92 48 C-91 48 -91 48 -90 48 C-89 47 -89 45 -88 44 C-87 44 -87 44 -86 44 C-85 43 -85 41 -84 40 C-83 40 -83 40 -82 40 C-81 39 -81 37 -80 36 C-79 36 -79 36 -78 36 C-77 35 -77 33 -76 32 C-75 32 -75 32 -74 32 C-73 31 -73 29 -72 28 C-71 28 -71 28 -70 28 C-69 27 -69 25 -68 24 C-66 24 -64 24 -62 24 C-61 23 -61 21 -60 20 C-58 20 -56 20 -54 20 C-53 19 -53 17 -52 16 C-50 16 -48 16 -46 16 C-45 15 -45 13 -44 12 C-42 12 -40 12 -38 12 C-37 11 -37 9 -36 8 C-32 8 -29 8 -25 8 C-25 8 -25 8 -22 8 C-21 7 -21 5 -20 4 C-15 4 -11 4 -6 4 C-5 4 -3 4 -2 4 C-1 3 -1 1 0 0 Z " fill="#C7C9D4" transform="translate(242,25)"/>
<path d="M0 0 C1 -0 1 -0 6 -0 C18 -0 26 1 35 10 C39 14 39 14 39 16 C40 16 41 16 41 16 C41 17 41 18 41 19 C42 18 43 18 44 17 C45 17 45 17 47 16 C48 16 48 16 51 18 C52 19 52 20 52 21 C50 22 47 23 45 24 C44 25 44 25 41 26 C38 28 36 29 33 30 C25 34 17 38 10 42 C8 43 7 44 5 45 C4 45 3 46 2 46 C-1 48 -3 48 -7 47 C-10 44 -10 44 -11 40 C-11 40 -11 39 -12 38 C-14 38 -16 38 -18 38 C-20 42 -19 46 -18 51 C-16 55 -14 57 -10 59 C-8 59 -6 59 -5 59 C-2 61 -2 61 -1 64 C-1 65 -1 67 -0 68 C1 77 4 85 10 92 C10 92 10 93 10 94 C12 94 13 95 14 96 C16 96 17 97 18 98 C28 102 36 101 46 98 C56 91 61 84 63 73 C64 60 63 47 57 36 C57 34 57 32 57 31 C61 27 63 27 68 26 C78 36 78 50 78 64 C78 76 74 88 67 98 C67 98 66 98 65 98 C65 98 65 99 65 100 C56 109 46 112 33 113 C18 112 8 106 -2 96 C-3 94 -4 93 -5 91 C-6 90 -8 89 -9 88 C-10 88 -12 88 -14 88 C-14 89 -14 90 -14 92 C-19 89 -22 85 -26 80 C-31 73 -37 68 -46 66 C-57 65 -63 68 -72 75 C-74 78 -77 81 -79 85 C-82 88 -82 88 -86 91 C-90 96 -93 101 -95 108 C-95 115 -92 120 -87 125 C-84 128 -84 128 -80 130 C-75 133 -72 138 -69 143 C-61 154 -61 154 -55 157 C-49 157 -46 157 -42 154 C-36 147 -32 141 -28 133 C-25 129 -23 127 -18 125 C-13 122 -11 119 -9 114 C-9 112 -9 109 -9 107 C-9 106 -9 106 -9 102 C-6 102 -6 102 -1 104 C-0 104 -0 104 2 109 C4 108 5 108 6 108 C7 110 7 112 7 114 C8 114 9 114 9 114 C10 116 11 118 12 120 C13 120 13 120 14 124 C15 125 16 126 17 128 C17 128 17 128 19 132 C19 133 20 134 20 136 C18 140 18 140 13 142 C11 142 9 143 7 144 C6 144 5 144 4 145 C-5 148 -5 148 -8 148 C-9 152 -9 156 -9 161 C-6 164 -2 166 1 168 C2 168 3 169 4 170 C7 172 7 172 12 172 C16 173 16 173 20 177 C20 181 20 181 20 185 C21 185 22 185 23 185 C28 186 31 189 35 192 C37 192 38 192 39 193 C43 194 43 194 47 197 C53 201 58 201 65 200 C66 199 67 199 68 198 C72 196 75 196 80 196 C85 196 89 195 94 194 C96 194 97 194 98 195 C97 199 95 204 93 208 C91 213 90 218 88 224 C88 226 87 228 86 230 C85 233 85 236 84 239 C84 239 83 239 82 239 C78 249 79 261 79 272 C79 273 79 275 79 277 C79 287 80 298 81 309 C81 309 81 309 82 314 C83 322 85 330 88 338 C89 341 89 341 89 346 C90 347 91 349 92 351 C93 353 94 356 95 358 C97 363 98 367 101 371 C103 375 103 375 104 378 C102 382 99 385 95 389 C94 390 93 392 91 393 C79 405 61 416 44 421 C38 421 38 421 35 418 C27 418 23 421 17 426 C12 429 10 429 4 430 C3 430 2 431 0 432 C-18 436 -38 436 -56 436 C-59 436 -63 436 -66 436 C-68 436 -69 436 -72 436 C-73 436 -75 436 -77 436 C-82 436 -86 435 -91 434 C-95 433 -99 433 -103 432 C-107 432 -107 432 -112 430 C-113 429 -114 429 -115 429 C-120 427 -125 424 -129 421 C-135 419 -139 419 -145 421 C-159 422 -177 410 -187 402 C-193 397 -199 392 -204 387 C-205 386 -206 384 -207 383 C-210 380 -210 380 -210 376 C-209 372 -207 368 -204 364 C-193 341 -187 315 -186 290 C-185 289 -185 288 -185 288 C-183 252 -183 252 -189 241 C-190 241 -191 241 -193 242 C-197 249 -195 261 -195 269 C-195 284 -196 298 -200 313 C-201 317 -201 317 -202 322 C-203 328 -205 333 -207 339 C-207 340 -207 341 -208 342 C-211 351 -214 359 -218 367 C-219 368 -219 369 -220 370 C-224 378 -224 378 -229 380 C-232 380 -232 380 -234 378 C-241 367 -242 354 -243 342 C-246 342 -246 342 -250 344 C-251 347 -251 350 -251 354 C-251 359 -251 362 -254 366 C-255 366 -256 366 -258 367 C-269 357 -274 339 -277 325 C-277 321 -277 318 -277 315 C-277 315 -278 315 -279 315 C-279 313 -279 312 -279 311 C-279 310 -279 308 -279 306 C-279 306 -279 306 -279 302 C-279 298 -279 298 -280 294 C-281 270 -276 247 -267 226 C-266 225 -266 224 -265 222 C-264 219 -262 216 -261 213 C-260 212 -260 211 -259 210 C-255 201 -250 193 -243 186 C-240 185 -237 185 -234 184 C-231 184 -231 184 -228 181 C-228 176 -228 176 -230 173 C-230 173 -231 173 -232 173 C-231 168 -230 163 -229 159 C-228 158 -228 157 -227 155 C-225 152 -224 152 -220 151 C-219 147 -219 144 -219 141 C-217 140 -216 140 -215 140 C-215 138 -215 136 -215 135 C-216 130 -216 130 -215 127 C-213 126 -212 125 -211 125 C-210 121 -210 118 -212 114 C-213 114 -213 113 -214 112 C-212 107 -212 107 -211 105 C-209 104 -208 104 -207 104 C-206 98 -207 93 -208 88 C-208 84 -208 81 -208 78 C-207 78 -206 78 -205 78 C-205 76 -205 74 -205 72 C-205 71 -205 71 -208 71 C-207 71 -206 71 -205 71 C-205 70 -205 69 -205 68 C-205 66 -205 65 -205 64 C-205 62 -205 61 -205 60 C-205 59 -205 59 -205 57 C-203 56 -202 56 -201 56 C-198 59 -196 61 -195 65 C-191 63 -188 60 -185 58 C-184 59 -184 61 -184 62 C-184 64 -184 65 -183 66 C-183 68 -182 71 -182 74 C-178 90 -173 99 -159 109 C-148 114 -137 114 -126 111 C-114 107 -105 96 -99 85 C-98 84 -98 83 -97 82 C-95 77 -95 72 -94 67 C-93 65 -93 64 -93 63 C-91 62 -89 62 -87 62 C-86 60 -86 59 -86 58 C-85 57 -84 56 -83 56 C-82 52 -81 49 -81 45 C-80 41 -78 39 -75 37 C-71 35 -68 33 -64 32 C-57 29 -51 25 -45 21 C-44 20 -42 20 -41 20 C-40 19 -39 19 -38 19 C-37 18 -37 18 -36 14 C-34 10 -34 10 -30 8 C-29 8 -29 8 -26 7 C-25 6 -25 5 -25 5 C-24 5 -23 5 -23 5 C-22 4 -22 3 -22 2 C-16 -1 -7 0 0 0 Z " fill="#C6C8D3" transform="translate(315.75,159.375)"/>
<path d="M0 0 C4 -1 4 -1 9 -1 C10 -1 10 -1 14 -1 C16 -1 18 -1 20 -0 C21 -1 21 -1 26 -1 C27 -1 29 -1 31 -1 C32 -1 32 -1 36 -1 C37 -0 39 -0 40 0 C41 1 41 3 42 4 C46 4 49 4 53 4 C57 4 60 4 64 4 C65 5 65 7 66 8 C68 8 69 8 71 8 C73 8 74 8 76 8 C77 9 77 11 78 12 C80 12 82 12 84 12 C85 13 85 15 86 16 C88 16 90 16 92 16 C93 17 93 19 94 20 C96 20 98 20 100 20 C101 21 101 23 102 24 C104 24 106 24 108 24 C109 25 109 27 110 28 C111 28 111 28 114 30 C114 31 114 31 114 32 C116 32 118 32 120 32 C121 33 121 35 122 36 C123 37 125 37 126 38 C126 39 126 39 126 40 C127 41 129 41 130 42 C130 43 130 43 130 44 C131 45 133 45 134 46 C134 47 134 47 134 48 C135 48 136 48 137 48 C137 49 137 50 137 51 C138 55 138 55 142 58 C142 59 142 59 142 60 C143 61 145 61 146 62 C146 63 146 63 146 64 C147 64 148 64 149 64 C149 65 149 66 149 67 C150 71 150 71 154 74 C154 75 154 75 154 76 C155 76 156 76 157 76 C157 77 157 78 157 79 C158 81 158 82 158 83 C159 83 160 84 161 84 C161 86 162 89 162 91 C163 91 164 92 165 92 C165 96 166 99 166 103 C167 103 168 104 169 104 C169 106 170 109 170 111 C171 111 172 112 173 112 C173 116 174 120 174 124 C174 125 174 126 174 127 C175 127 176 128 177 128 C177 132 178 136 178 140 C178 141 178 142 178 143 C179 143 180 144 181 144 C181 148 182 152 182 156 C182 157 182 158 182 159 C183 159 184 160 185 160 C185 163 185 163 185 167 C185 168 185 170 185 171 C185 174 186 177 186 180 C186 181 186 183 186 184 C186 185 186 187 186 188 C186 189 186 190 186 191 C187 191 188 192 189 192 C189 195 189 195 189 199 C189 200 189 202 189 203 C189 206 190 209 190 212 C190 213 190 215 190 216 C190 217 190 219 190 220 C190 221 190 222 190 223 C191 223 192 224 193 224 C193 229 193 234 194 239 C194 242 194 244 194 247 C195 247 196 248 197 248 C197 253 198 258 198 263 C198 264 198 266 198 267 C199 267 200 268 201 268 C201 272 202 275 202 279 C203 279 204 280 205 280 C205 284 206 287 206 291 C207 291 208 292 209 292 C209 294 210 297 210 299 C211 299 212 300 213 300 C213 301 213 302 213 303 C214 307 214 307 218 310 C218 311 218 311 218 312 C219 313 221 313 222 314 C222 315 222 315 222 316 C223 317 225 317 226 318 C226 319 226 319 226 320 C227 320 228 320 229 320 C229 321 229 322 229 323 C230 327 230 327 234 330 C234 331 234 331 234 332 C235 332 236 332 237 332 C237 333 237 334 237 335 C237 336 237 336 238 339 C239 339 240 340 241 340 C241 342 242 345 242 347 C243 347 244 348 245 348 C245 352 246 355 246 359 C247 359 248 360 249 360 C249 362 250 365 250 367 C251 367 252 368 253 368 C253 372 254 376 254 380 C254 381 254 382 254 383 C255 383 256 384 257 384 C257 390 257 396 258 401 C258 405 258 408 258 411 C259 411 260 412 261 412 C261 415 261 415 261 419 C261 420 261 421 261 423 C261 423 261 423 261 427 C261 428 261 430 261 431 C261 433 261 434 261 435 C261 437 261 438 261 439 C261 440 261 440 261 442 C260 442 259 443 258 443 C258 447 258 447 258 452 C257 458 257 458 257 462 C256 462 255 463 254 463 C254 466 254 466 254 470 C253 475 253 475 253 478 C252 478 251 479 250 479 C250 481 250 483 250 484 C249 486 249 488 249 490 C248 490 247 491 246 491 C245 495 245 495 245 498 C244 498 243 498 242 498 C241 499 241 501 240 502 C239 502 239 503 238 503 C238 505 237 508 237 510 C236 510 235 510 234 510 C233 511 233 513 232 514 C230 514 228 515 226 515 C225 516 225 517 224 518 C222 518 221 517 219 517 C219 516 218 516 218 515 C217 515 215 515 214 515 C213 516 213 517 212 518 C211 518 211 518 210 518 C209 519 209 521 208 522 C207 522 207 522 206 522 C205 523 205 525 204 526 C199 526 195 526 190 526 C187 526 185 526 182 526 C181 527 181 529 180 530 C179 530 179 530 178 530 C177 531 177 533 176 534 C175 534 175 534 174 534 C173 535 173 537 172 538 C171 538 171 538 170 538 C169 539 169 541 168 542 C167 542 167 542 166 542 C165 543 165 545 164 546 C162 546 160 546 158 546 C157 547 157 549 156 550 C155 550 155 550 154 550 C153 551 153 553 152 554 C150 554 148 554 146 554 C145 555 145 557 144 558 C143 558 143 558 142 558 C141 559 141 561 140 562 C137 562 133 562 130 562 C129 563 129 565 128 566 C126 566 124 566 122 566 C121 567 121 569 120 570 C119 570 119 571 118 571 C118 572 118 574 118 575 C119 575 119 575 122 578 C122 579 122 579 122 580 C123 580 124 580 125 580 C126 580 128 580 129 580 C130 580 131 580 133 580 C134 580 135 580 136 580 C137 581 137 583 138 584 C140 584 142 584 144 584 C145 585 145 587 146 588 C147 589 149 589 150 590 C150 591 150 591 150 592 C151 592 153 592 154 592 C156 592 157 592 159 592 C161 592 162 592 164 592 C165 592 167 592 168 592 C169 593 169 595 170 596 C174 596 179 596 183 596 C187 596 192 596 196 596 C197 597 197 599 198 600 C200 600 201 600 203 600 C205 600 206 600 208 600 C209 601 209 603 210 604 C212 604 214 604 216 604 C216 606 217 607 217 609 C216 609 215 610 214 610 C213 611 213 613 212 614 C210 614 208 614 206 614 C205 615 205 617 204 618 C200 618 197 618 193 618 C193 618 193 618 190 618 C189 619 189 621 188 622 C183 622 179 622 174 622 C173 622 173 622 170 622 C169 623 169 625 168 626 C165 626 165 626 161 626 C160 626 159 626 157 626 C154 626 152 626 149 626 C147 626 146 626 145 626 C144 626 144 626 141 626 C140 626 139 626 138 626 C137 627 137 629 136 630 C132 630 132 630 127 630 C125 630 123 630 121 630 C120 630 119 630 118 630 C114 630 111 630 108 630 C100 630 92 630 83 630 C77 630 70 630 63 630 C60 630 56 630 53 630 C51 630 49 630 47 630 C45 630 44 630 42 630 C41 630 39 630 38 630 C37 631 37 633 36 634 C32 634 27 635 23 635 C21 635 20 635 19 635 C16 635 13 635 10 635 C6 635 2 635 -3 635 C-5 635 -8 635 -11 635 C-11 635 -11 635 -15 635 C-18 635 -21 634 -24 634 C-25 633 -25 631 -26 630 C-29 630 -29 630 -33 630 C-34 630 -35 630 -37 630 C-38 630 -38 630 -41 630 C-42 630 -42 630 -46 630 C-51 630 -56 630 -61 630 C-68 630 -74 630 -81 630 C-81 630 -81 630 -85 630 C-87 630 -88 630 -89 630 C-91 630 -92 630 -93 630 C-94 630 -95 630 -96 630 C-97 629 -97 627 -98 626 C-102 626 -107 626 -111 626 C-115 626 -120 626 -124 626 C-125 625 -125 623 -126 622 C-130 622 -133 622 -137 622 C-141 622 -144 622 -148 622 C-149 621 -149 619 -150 618 C-153 618 -153 618 -157 618 C-161 618 -161 618 -164 618 C-165 617 -165 615 -166 614 C-168 614 -170 614 -172 614 C-173 613 -173 611 -174 610 C-175 610 -176 609 -177 609 C-177 608 -177 608 -176 604 C-175 604 -175 604 -174 604 C-173 603 -173 601 -172 600 C-169 600 -165 600 -162 600 C-161 599 -161 597 -160 596 C-157 596 -157 596 -153 596 C-152 596 -151 596 -149 596 C-146 596 -144 596 -141 596 C-139 596 -138 596 -137 596 C-136 596 -136 596 -133 596 C-132 596 -131 596 -130 596 C-129 595 -129 593 -128 592 C-123 592 -119 592 -114 592 C-113 592 -113 592 -110 592 C-109 591 -109 589 -108 588 C-107 588 -107 588 -106 588 C-105 587 -105 585 -104 584 C-102 584 -100 584 -98 584 C-97 583 -97 581 -96 580 C-92 580 -89 580 -85 580 C-85 580 -85 580 -82 580 C-81 579 -81 577 -80 576 C-79 576 -79 575 -78 575 C-78 574 -78 572 -78 571 C-79 571 -79 571 -82 568 C-82 567 -82 567 -82 566 C-84 566 -86 566 -88 566 C-89 565 -89 563 -90 562 C-92 562 -94 562 -96 562 C-97 561 -97 559 -98 558 C-100 558 -102 558 -104 558 C-105 557 -105 555 -106 554 C-108 554 -110 554 -112 554 C-113 553 -113 551 -114 550 C-115 549 -117 549 -118 548 C-118 547 -118 547 -118 546 C-120 546 -122 546 -124 546 C-125 545 -125 543 -126 542 C-127 541 -129 541 -130 540 C-130 539 -130 539 -130 538 C-131 537 -133 537 -134 536 C-134 535 -134 535 -134 534 C-135 533 -137 533 -138 532 C-138 531 -138 531 -138 530 C-139 529 -141 529 -142 528 C-142 527 -142 527 -142 526 C-146 526 -146 526 -150 526 C-151 527 -151 529 -152 530 C-156 530 -156 530 -160 530 C-161 529 -161 527 -162 526 C-163 525 -165 525 -166 524 C-166 523 -166 523 -166 522 C-167 521 -169 521 -170 520 C-170 519 -170 519 -170 518 C-171 517 -173 517 -174 516 C-174 515 -174 515 -174 514 C-177 514 -177 514 -181 515 C-182 516 -182 517 -183 518 C-184 518 -185 517 -186 517 C-186 516 -186 515 -186 514 C-188 514 -190 514 -192 514 C-193 513 -193 511 -194 510 C-195 509 -197 509 -198 508 C-198 507 -198 507 -198 506 C-199 506 -200 506 -201 506 C-201 505 -201 504 -201 503 C-202 501 -202 500 -202 499 C-203 499 -204 498 -205 498 C-205 496 -206 493 -206 491 C-207 491 -208 490 -209 490 C-209 486 -210 483 -210 479 C-211 479 -212 478 -213 478 C-213 474 -214 470 -214 466 C-214 465 -214 464 -214 463 C-215 463 -216 462 -217 462 C-217 459 -217 459 -217 455 C-217 454 -217 454 -217 450 C-217 448 -217 447 -217 445 C-217 443 -217 441 -217 440 C-217 436 -217 432 -217 429 C-217 423 -217 417 -217 412 C-217 408 -217 405 -217 401 C-217 399 -217 398 -217 396 C-217 394 -217 393 -217 391 C-217 390 -217 388 -217 387 C-217 386 -217 385 -217 384 C-216 384 -215 383 -214 383 C-214 381 -214 379 -214 378 C-213 376 -213 374 -213 372 C-212 372 -211 371 -210 371 C-210 369 -210 367 -210 366 C-209 364 -209 362 -209 360 C-208 360 -207 359 -206 359 C-206 358 -206 357 -206 356 C-205 354 -205 353 -205 352 C-204 352 -203 351 -202 351 C-202 350 -202 349 -202 348 C-201 346 -201 345 -201 344 C-200 344 -199 343 -198 343 C-198 342 -198 341 -198 340 C-197 338 -197 337 -197 336 C-196 336 -195 335 -194 335 C-193 331 -193 331 -193 328 C-192 328 -191 328 -190 328 C-190 327 -190 327 -188 324 C-187 324 -187 323 -186 323 C-186 321 -185 318 -185 316 C-184 316 -183 316 -182 316 C-181 315 -181 313 -180 312 C-179 312 -179 312 -178 312 C-177 311 -177 309 -176 308 C-175 308 -175 307 -174 307 C-174 305 -174 303 -174 302 C-173 301 -173 301 -173 296 C-172 296 -171 295 -170 295 C-170 294 -170 293 -170 292 C-169 290 -169 289 -169 288 C-168 288 -167 287 -166 287 C-166 285 -166 283 -166 282 C-165 280 -165 278 -165 276 C-164 276 -163 275 -162 275 C-162 273 -162 271 -162 270 C-161 268 -161 266 -161 264 C-160 264 -159 263 -158 263 C-158 259 -158 259 -158 254 C-157 248 -157 248 -157 244 C-156 244 -155 243 -154 243 C-154 238 -154 234 -154 230 C-153 225 -153 221 -153 216 C-152 216 -151 215 -150 215 C-150 212 -150 212 -150 208 C-150 207 -150 207 -150 204 C-150 202 -150 201 -150 200 C-149 197 -149 194 -149 191 C-149 190 -149 188 -149 187 C-149 186 -149 185 -149 184 C-148 184 -147 183 -146 183 C-146 179 -146 175 -146 172 C-145 168 -145 164 -145 160 C-144 160 -143 159 -142 159 C-142 155 -142 155 -142 150 C-141 144 -141 144 -141 140 C-140 140 -139 139 -138 139 C-138 136 -138 136 -138 132 C-137 127 -137 127 -137 124 C-136 124 -135 123 -134 123 C-134 121 -134 119 -134 118 C-133 116 -133 114 -133 112 C-132 112 -131 111 -130 111 C-130 109 -130 107 -130 106 C-129 104 -129 102 -129 100 C-128 100 -127 99 -126 99 C-126 98 -126 97 -126 96 C-125 94 -125 93 -125 92 C-124 92 -123 91 -122 91 C-122 90 -122 89 -122 88 C-121 86 -121 85 -121 84 C-120 84 -119 83 -118 83 C-117 79 -117 79 -117 76 C-116 76 -115 76 -114 76 C-114 75 -114 75 -112 72 C-111 72 -111 71 -110 71 C-110 69 -109 66 -109 64 C-108 64 -107 64 -106 64 C-105 63 -105 61 -104 60 C-103 60 -103 60 -102 60 C-101 59 -101 57 -100 56 C-99 56 -99 56 -98 56 C-97 55 -97 53 -96 52 C-95 52 -95 52 -94 52 C-93 51 -93 49 -92 48 C-91 48 -91 48 -90 48 C-89 47 -89 45 -88 44 C-87 44 -87 44 -86 44 C-85 43 -85 41 -84 40 C-83 40 -83 40 -82 40 C-81 39 -81 37 -80 36 C-79 36 -79 36 -78 36 C-77 35 -77 33 -76 32 C-75 32 -75 32 -74 32 C-73 31 -73 29 -72 28 C-71 28 -71 28 -70 28 C-69 27 -69 25 -68 24 C-66 24 -64 24 -62 24 C-61 23 -61 21 -60 20 C-58 20 -56 20 -54 20 C-53 19 -53 17 -52 16 C-50 16 -48 16 -46 16 C-45 15 -45 13 -44 12 C-42 12 -40 12 -38 12 C-37 11 -37 9 -36 8 C-32 8 -29 8 -25 8 C-25 8 -25 8 -22 8 C-21 7 -21 5 -20 4 C-15 4 -11 4 -6 4 C-5 4 -3 4 -2 4 C-1 3 -1 1 0 0 Z M-6 17 C-7 17 -8 17 -9 17 C-21 19 -32 23 -43 28 C-44 29 -45 29 -47 30 C-53 33 -59 38 -65 42 C-66 43 -67 44 -68 44 C-71 47 -74 49 -77 51 C-78 52 -79 53 -80 53 C-84 57 -87 61 -90 65 C-92 68 -94 70 -96 73 C-112 93 -121 119 -126 144 C-126 145 -126 146 -127 147 C-127 151 -128 154 -129 158 C-129 159 -130 160 -130 161 C-132 170 -133 178 -133 187 C-134 196 -136 204 -137 213 C-137 215 -137 217 -138 218 C-141 240 -145 260 -150 281 C-151 282 -151 283 -151 284 C-153 289 -154 294 -156 298 C-158 303 -158 303 -158 307 C-157 307 -157 307 -156 307 C-155 311 -155 311 -154 315 C-157 318 -157 318 -163 319 C-168 319 -169 320 -173 323 C-179 333 -185 341 -189 352 C-190 354 -191 357 -192 359 C-196 367 -199 375 -201 383 C-201 384 -202 385 -202 386 C-206 400 -209 418 -205 432 C-205 435 -205 438 -205 441 C-205 442 -205 444 -205 445 C-205 447 -205 448 -205 449 C-204 449 -204 449 -203 449 C-203 450 -203 450 -203 453 C-203 469 -196 488 -186 500 C-184 500 -183 501 -181 501 C-177 496 -177 494 -177 488 C-177 480 -177 480 -175 477 C-172 476 -172 476 -169 476 C-169 477 -169 479 -168 480 C-165 509 -165 509 -158 514 C-155 514 -155 514 -152 513 C-143 502 -138 490 -134 477 C-134 476 -134 476 -133 473 C-130 465 -128 457 -126 449 C-126 447 -125 446 -125 444 C-121 428 -121 412 -121 395 C-121 379 -121 379 -117 375 C-116 375 -115 376 -114 376 C-113 380 -112 385 -112 389 C-112 390 -112 391 -112 392 C-109 418 -109 418 -112 424 C-112 426 -113 429 -113 431 C-116 458 -122 483 -135 506 C-136 509 -136 509 -136 514 C-133 518 -129 522 -125 526 C-124 527 -123 528 -123 528 C-111 539 -91 555 -75 555 C-71 555 -71 555 -67 554 C-61 553 -57 554 -52 558 C-47 561 -43 564 -37 565 C-36 565 -34 566 -33 566 C-28 567 -28 567 -22 568 C-17 568 -17 568 -13 569 C-8 570 -3 570 2 570 C3 570 3 570 8 570 C9 570 10 570 11 570 C14 570 17 570 20 570 C55 570 55 570 69 567 C70 567 72 566 73 566 C77 565 77 565 78 564 C79 564 81 564 82 563 C88 562 92 560 97 556 C101 552 103 552 109 552 C110 553 110 553 111 554 C118 556 124 553 131 550 C147 541 168 530 177 513 C177 508 174 504 172 500 C169 496 168 491 166 486 C165 483 165 483 163 479 C163 477 162 475 162 473 C161 471 161 470 160 468 C158 462 157 455 156 449 C156 448 156 448 155 446 C153 433 153 420 153 406 C153 405 153 403 153 401 C153 400 153 400 153 396 C153 395 153 393 153 391 C153 379 153 379 156 375 C158 375 159 376 161 376 C163 382 163 385 163 391 C163 392 163 393 163 394 C163 398 163 401 164 404 C164 435 164 435 168 448 C170 454 171 459 172 465 C173 474 176 483 180 491 C181 492 181 494 182 495 C188 509 188 509 193 514 C196 514 196 514 199 513 C205 506 208 498 209 489 C210 483 210 483 213 480 C215 480 216 480 218 480 C218 481 218 481 218 483 C218 484 218 486 218 487 C218 488 218 488 218 491 C218 495 218 495 220 500 C221 501 222 501 223 502 C231 498 234 489 237 481 C238 477 238 474 238 470 C239 470 239 470 240 470 C241 466 242 462 243 458 C243 455 243 455 244 454 C246 433 247 410 243 389 C243 388 243 388 242 385 C240 374 236 365 231 355 C230 354 230 352 229 351 C226 344 222 338 218 332 C216 330 216 330 214 326 C210 322 206 320 201 318 C200 317 198 315 197 314 C196 314 196 314 195 314 C195 312 195 309 195 307 C196 307 196 307 197 307 C197 301 196 298 193 293 C184 270 179 245 177 220 C176 213 175 206 174 199 C174 197 174 196 173 195 C172 186 171 178 170 170 C170 169 170 169 169 165 C168 156 166 146 164 137 C164 136 164 136 163 133 C155 100 138 64 109 44 C107 43 106 42 104 41 C103 39 101 38 99 37 C99 37 99 37 96 35 C65 15 30 12 -6 17 Z " fill="#0D0D10" transform="translate(242,25)"/>
<path d="M0 0 C5 4 9 9 13 14 C20 22 20 22 22 23 C22 22 22 20 22 19 C24 19 25 18 27 18 C29 20 29 20 31 23 C38 32 47 39 58 42 C59 42 60 42 61 43 C72 44 83 43 92 37 C94 35 97 33 99 31 C100 31 100 31 101 31 C101 30 101 30 101 29 C102 29 102 29 103 29 C104 27 104 25 105 23 C105 22 105 22 107 19 C109 15 110 12 111 8 C112 5 112 5 113 2 C118 2 118 2 123 3 C124 2 124 1 125 0 C129 -1 129 -1 132 -2 C133 6 133 14 133 22 C133 25 133 25 136 28 C136 34 136 34 134 36 C134 42 135 43 139 47 C140 51 140 54 139 58 C140 58 141 58 142 58 C146 60 146 60 148 64 C148 66 149 67 149 69 C152 79 154 89 159 98 C159 100 159 102 159 104 C158 104 158 104 157 104 C157 106 157 109 157 111 C158 111 158 111 159 111 C159 111 159 111 161 113 C164 116 164 116 169 118 C175 121 178 125 181 131 C182 132 182 133 183 134 C199 158 207 185 207 214 C207 215 207 217 207 218 C207 250 207 250 205 252 C205 254 204 256 204 258 C203 265 203 265 202 267 C201 267 201 267 200 267 C200 268 200 270 200 271 C199 281 195 291 188 298 C187 298 186 299 185 299 C181 296 181 296 180 292 C180 289 180 287 180 284 C180 283 180 282 180 280 C180 280 180 280 180 277 C177 277 177 277 173 278 C172 282 172 282 171 288 C166 306 166 306 159 311 C154 310 154 310 152 308 C144 296 139 282 135 269 C135 268 134 267 134 266 C133 262 132 258 132 255 C131 249 130 244 128 238 C125 225 126 211 126 198 C126 195 125 192 125 188 C125 187 125 187 125 183 C125 178 125 176 122 172 C121 171 119 171 118 170 C119 170 119 170 120 170 C120 169 120 168 120 167 C120 161 121 158 124 153 C125 149 127 145 128 140 C129 137 129 137 131 134 C132 131 132 131 133 126 C132 126 131 127 130 127 C123 128 117 128 111 129 C107 129 105 130 101 132 C95 133 89 133 84 130 C82 129 79 127 77 125 C74 124 72 124 69 123 C66 121 64 119 61 117 C59 117 58 116 56 116 C55 111 55 111 54 106 C52 105 52 105 48 105 C42 104 38 101 33 97 C32 96 31 95 29 95 C27 93 27 93 26 92 C26 87 26 87 26 82 C30 78 33 76 39 75 C44 74 49 72 54 70 C55 67 55 67 53 63 C53 62 52 61 51 59 C47 52 47 52 46 47 C46 47 45 46 45 45 C44 45 44 45 43 45 C43 44 43 44 41 40 C41 40 41 40 38 41 C36 39 35 38 33 36 C31 35 30 34 28 33 C28 35 28 37 28 38 C28 45 27 50 22 55 C19 57 19 57 15 59 C10 62 9 64 6 69 C-3 85 -3 85 -12 89 C-18 89 -19 89 -24 86 C-30 81 -34 73 -39 67 C-42 62 -46 61 -51 58 C-56 53 -59 49 -60 42 C-59 31 -52 24 -45 17 C-44 15 -42 13 -41 11 C-31 -3 -16 -8 0 0 Z " fill="#C1C4D0" transform="translate(280,228)"/>
<path d="M0 0 C5 2 8 4 12 8 C12 9 12 10 12 10 C13 10 14 10 14 10 C16 12 16 12 18 15 C18 16 19 17 20 18 C22 22 23 25 23 30 C24 30 24 30 26 31 C27 34 27 34 28 37 C30 43 30 43 31 45 C32 49 32 53 32 56 C32 57 32 57 33 60 C32 62 31 63 29 64 C28 72 28 79 28 86 C28 102 28 118 23 133 C22 137 22 137 21 142 C20 148 18 154 16 160 C16 160 16 160 15 163 C12 171 9 179 5 187 C4 189 4 190 3 191 C-1 199 -1 199 -6 200 C-9 200 -9 200 -11 198 C-18 188 -19 174 -20 162 C-23 163 -23 163 -27 164 C-28 168 -28 171 -28 175 C-28 179 -28 182 -31 186 C-32 187 -33 187 -35 187 C-46 178 -51 159 -54 145 C-54 142 -54 139 -54 135 C-54 135 -55 135 -56 135 C-56 134 -56 133 -56 132 C-56 130 -56 129 -56 127 C-56 126 -56 126 -56 122 C-56 118 -56 118 -57 114 C-58 91 -53 67 -44 46 C-43 45 -43 44 -42 43 C-41 40 -39 36 -38 33 C-37 32 -37 31 -36 30 C-32 21 -27 13 -20 6 C-17 6 -14 5 -11 5 C-6 4 -5 0 0 0 Z " fill="#878C9F" transform="translate(92.75,338.8125)"/>
<path d="M0 0 C0 1 0 1 0 2 C1 2 1 2 2 2 C3 3 3 3 4 4 C7 7 7 7 12 9 C18 12 21 16 24 22 C24 22 24 22 26 25 C42 49 50 76 50 105 C50 106 50 106 50 109 C50 141 50 141 48 143 C48 145 47 147 47 149 C46 156 46 156 45 158 C44 158 44 158 43 158 C43 159 43 161 43 162 C42 172 38 182 31 189 C30 189 29 190 28 190 C24 187 24 187 23 183 C23 180 23 178 23 175 C23 174 23 173 23 171 C23 170 23 169 23 168 C20 168 20 168 16 169 C15 173 15 173 14 179 C9 197 9 197 2 202 C-3 201 -3 201 -5 199 C-13 187 -18 173 -22 160 C-22 159 -23 158 -23 157 C-24 153 -25 149 -25 146 C-26 140 -27 135 -29 129 C-32 116 -31 102 -31 89 C-31 86 -32 83 -32 79 C-32 78 -32 76 -32 74 C-32 69 -32 67 -35 63 C-36 62 -38 62 -39 61 C-38 61 -38 61 -37 61 C-37 60 -37 59 -37 58 C-37 52 -35 49 -33 44 C-32 41 -31 38 -30 35 C-26 21 -19 8 -7 1 C-4 0 -4 0 0 0 Z " fill="#878C9F" transform="translate(437,337)"/>
<path d="M0 0 C7 -0 12 0 19 1 C52 7 88 7 121 1 C126 0 126 0 131 0 C132 2 132 3 133 5 C129 9 125 11 120 13 C117 15 117 15 115 17 C114 22 114 25 115 30 C122 31 128 31 135 29 C145 29 149 35 156 41 C160 43 163 42 167 42 C170 39 171 37 173 34 C173 33 174 32 175 31 C179 31 179 31 183 31 C191 32 191 32 195 30 C198 28 198 28 199 25 C199 21 199 18 198 15 C201 15 203 15 206 15 C207 15 209 15 210 15 C212 15 213 15 214 15 C215 16 215 18 216 19 C220 19 225 19 229 19 C233 19 238 19 242 19 C243 20 243 22 244 23 C246 23 247 23 249 23 C251 23 252 23 254 23 C255 24 255 26 256 27 C258 27 260 27 262 27 C262 29 263 30 263 32 C263 32 263 32 260 33 C259 34 259 36 258 37 C256 37 254 37 252 37 C251 38 251 40 250 41 C246 41 243 41 239 41 C238 41 237 41 236 41 C235 42 235 44 234 45 C229 45 225 45 220 45 C219 45 217 45 216 45 C215 46 215 48 214 49 C211 49 211 49 207 49 C206 49 205 49 203 49 C200 49 198 49 195 49 C193 49 192 49 191 49 C189 49 188 49 187 49 C186 49 185 49 184 49 C183 50 183 52 182 53 C178 53 178 53 173 53 C171 53 169 53 167 53 C166 53 165 53 164 53 C160 53 157 53 154 53 C146 53 138 53 129 53 C123 53 116 53 109 53 C106 53 102 53 99 53 C98 53 98 53 93 53 C91 53 90 53 88 53 C87 53 85 53 84 53 C83 54 83 56 82 57 C78 57 73 58 69 58 C67 58 66 58 65 58 C62 58 59 58 56 58 C52 58 48 58 43 58 C41 58 38 58 35 58 C35 58 35 58 31 58 C28 58 25 57 22 57 C22 56 22 56 20 53 C17 53 17 53 13 53 C13 53 13 53 9 53 C8 53 6 53 5 53 C4 53 4 53 -0 53 C-5 53 -10 53 -15 53 C-22 53 -28 53 -35 53 C-35 53 -35 53 -39 53 C-40 53 -40 53 -43 53 C-45 53 -46 53 -47 53 C-48 53 -49 53 -50 53 C-50 52 -50 52 -52 49 C-56 49 -61 49 -65 49 C-69 49 -74 49 -78 49 C-79 48 -79 46 -80 45 C-84 45 -87 45 -91 45 C-95 45 -98 45 -102 45 C-103 44 -103 42 -104 41 C-107 41 -107 41 -111 41 C-115 41 -115 41 -118 41 C-119 40 -119 38 -120 37 C-122 37 -124 37 -126 37 C-127 36 -127 34 -128 33 C-129 33 -130 32 -131 32 C-131 30 -130 29 -130 27 C-129 27 -129 27 -128 27 C-127 26 -127 24 -126 23 C-123 23 -119 23 -116 23 C-115 22 -115 20 -114 19 C-111 19 -111 19 -107 19 C-106 19 -105 19 -103 19 C-102 19 -102 19 -95 19 C-93 19 -92 19 -91 19 C-90 19 -90 19 -87 19 C-86 19 -85 19 -84 19 C-83 18 -83 16 -82 15 C-78 15 -78 15 -74 15 C-72 15 -71 15 -69 15 C-68 15 -67 15 -66 15 C-66 16 -67 18 -67 19 C-67 24 -67 26 -65 31 C-59 34 -54 32 -48 31 C-44 31 -44 31 -41 33 C-39 36 -39 36 -38 40 C-33 42 -29 42 -24 41 C-20 39 -19 38 -16 34 C-11 28 -11 28 -5 28 C-1 29 2 30 6 31 C11 31 13 32 17 30 C19 27 19 27 20 23 C19 18 18 16 14 13 C11 11 7 9 4 8 C3 8 3 8 1 6 C0 1 0 1 0 0 Z " fill="#D8DAE2" transform="translate(196,602)"/>
<path d="M0 0 C5 1 5 2 8 6 C8 6 8 6 9 9 C13 7 16 5 19 2 C19 4 20 5 20 7 C20 8 20 9 20 10 C21 13 21 15 22 18 C25 34 31 44 45 53 C57 59 69 58 81 55 C79 58 78 60 76 63 C75 69 76 71 79 77 C82 80 82 80 84 82 C84 83 84 83 84 84 C85 84 85 84 88 86 C88 86 88 86 90 87 C97 91 101 92 108 93 C115 96 117 102 120 108 C122 116 122 116 120 121 C116 122 116 122 110 122 C100 122 100 122 97 125 C86 127 78 125 69 120 C65 117 61 117 57 116 C56 116 56 116 53 114 C47 114 42 114 36 114 C35 114 33 114 32 114 C30 114 29 114 27 114 C26 114 25 114 23 114 C20 114 20 114 17 117 C17 120 17 120 18 124 C23 128 23 128 27 131 C29 135 28 139 28 143 C28 144 28 144 28 148 C28 153 28 153 24 157 C20 159 18 160 14 159 C11 158 11 158 9 156 C8 156 7 156 6 156 C3 153 2 150 1 146 C-0 142 -3 139 -5 136 C-5 135 -5 135 -5 134 C-6 134 -6 134 -7 134 C-8 133 -9 132 -10 131 C-14 126 -17 126 -23 124 C-26 119 -26 119 -26 117 C-27 117 -27 117 -28 117 C-28 112 -26 108 -25 103 C-24 102 -24 101 -24 100 C-22 96 -20 96 -16 95 C-16 92 -15 88 -15 85 C-14 85 -14 85 -11 84 C-11 82 -11 81 -12 79 C-12 74 -12 74 -11 71 C-10 71 -10 71 -7 69 C-6 65 -7 63 -9 59 C-9 58 -10 57 -10 56 C-8 51 -8 51 -7 49 C-6 49 -6 49 -3 48 C-2 43 -3 37 -4 32 C-4 29 -4 25 -4 22 C-3 22 -2 22 -1 22 C-1 20 -1 18 -1 16 C-2 16 -3 15 -4 15 C-3 15 -2 15 -1 15 C-1 14 -1 13 -1 12 C-1 11 -1 9 -1 8 C-1 7 -1 5 -1 4 C-1 1 -1 1 0 0 Z " fill="#C2C5D0" transform="translate(112,215)"/>
<path d="M0 0 C0 1 0 1 0 2 C1 2 1 2 2 2 C2 3 2 3 3 7 C4 8 6 8 7 9 C9 12 9 12 11 16 C11 17 12 18 13 19 C14 23 14 23 14 29 C15 29 15 29 16 29 C18 33 18 35 18 40 C18 44 18 44 21 47 C22 51 22 54 23 58 C24 60 25 62 26 64 C26 66 27 69 27 71 C28 72 28 74 29 75 C30 81 31 86 29 92 C24 91 24 91 19 88 C18 88 17 89 16 89 C14 89 13 89 12 89 C7 82 7 82 7 78 C-2 80 -2 80 -5 82 C-5 88 -3 93 -1 98 C3 110 2 124 -3 136 C-8 144 -14 150 -24 152 C-33 154 -41 153 -50 148 C-57 142 -61 134 -64 125 C-64 123 -64 120 -64 118 C-64 116 -65 114 -65 112 C-69 111 -69 111 -74 111 C-79 108 -81 104 -83 98 C-84 92 -84 92 -81 88 C-79 88 -77 88 -75 88 C-73 92 -73 92 -71 96 C-68 98 -68 98 -65 98 C-57 96 -49 91 -41 86 C-35 83 -29 80 -23 77 C-19 75 -16 73 -12 71 C-12 70 -12 70 -12 69 C-17 68 -17 68 -22 70 C-22 69 -22 68 -22 67 C-23 67 -23 67 -24 67 C-25 65 -25 64 -26 62 C-28 61 -30 61 -32 60 C-33 59 -35 58 -36 56 C-42 52 -48 52 -55 53 C-57 52 -58 52 -59 52 C-60 49 -60 49 -61 46 C-62 46 -62 45 -63 45 C-63 44 -63 44 -63 43 C-63 43 -63 43 -66 42 C-68 38 -67 34 -68 30 C-68 27 -68 27 -70 24 C-69 23 -68 22 -67 21 C-66 21 -65 22 -64 22 C-64 23 -64 23 -64 24 C-63 24 -63 24 -62 24 C-62 23 -61 22 -61 21 C-55 17 -53 16 -46 16 C-46 16 -46 16 -43 18 C-39 19 -37 19 -33 18 C-32 17 -31 15 -30 14 C-26 9 -23 8 -17 6 C-12 5 -5 0 0 0 Z " fill="#C1C4D0" transform="translate(379,108)"/>
<path d="M0 0 C7 -2 14 -1 21 2 C26 5 31 9 35 13 C35 14 35 14 35 15 C36 15 36 15 37 15 C37 16 37 17 37 18 C37 18 37 18 40 16 C41 16 42 15 43 15 C44 15 44 15 47 17 C47 18 48 19 48 20 C46 21 43 22 41 24 C39 24 38 25 36 26 C34 27 31 28 29 30 C21 33 13 38 5 42 C5 42 5 42 1 44 C-0 45 -1 45 -2 46 C-6 47 -8 47 -11 46 C-14 43 -14 43 -15 40 C-15 39 -15 39 -16 37 C-18 37 -20 37 -22 37 C-24 41 -23 46 -22 50 C-20 54 -18 56 -14 58 C-12 58 -11 58 -9 58 C-6 60 -6 60 -5 63 C-5 65 -5 66 -5 67 C-3 76 -1 84 6 91 C6 92 6 92 6 93 C7 93 7 93 10 95 C11 96 13 96 14 97 C24 102 32 100 42 97 C52 91 57 83 59 72 C60 59 59 47 53 35 C53 33 53 32 53 30 C57 27 59 26 64 25 C74 35 74 50 74 63 C74 75 70 87 63 97 C62 97 62 97 61 97 C61 98 61 98 61 99 C52 108 41 111 29 112 C14 111 4 106 -6 95 C-7 94 -8 92 -10 91 C-11 89 -12 88 -13 87 C-15 87 -16 87 -18 87 C-18 88 -18 90 -18 91 C-23 88 -26 84 -30 79 C-36 72 -41 67 -50 65 C-61 64 -67 67 -76 74 C-79 77 -81 81 -84 84 C-86 87 -86 87 -90 91 C-95 96 -97 101 -99 107 C-99 115 -96 120 -91 125 C-88 127 -88 127 -84 129 C-79 133 -76 137 -73 142 C-65 154 -65 154 -59 156 C-54 156 -50 156 -46 153 C-40 147 -36 140 -32 133 C-29 128 -26 126 -20 124 C-20 125 -20 125 -22 128 C-23 129 -23 130 -24 132 C-30 143 -40 156 -52 161 C-58 162 -61 160 -66 157 C-66 156 -66 156 -66 155 C-67 154 -69 154 -70 153 C-70 152 -71 151 -71 150 C-72 150 -73 149 -74 149 C-76 146 -79 143 -81 140 C-87 134 -93 129 -99 123 C-103 120 -103 120 -105 116 C-105 112 -104 109 -104 105 C-104 104 -104 104 -104 102 C-102 94 -96 89 -90 84 C-88 81 -87 79 -85 76 C-83 74 -80 71 -78 69 C-76 67 -76 67 -74 64 C-71 63 -69 62 -66 61 C-66 62 -65 62 -65 63 C-64 63 -64 63 -63 63 C-63 62 -62 61 -62 60 C-54 59 -45 59 -38 64 C-37 65 -37 65 -36 66 C-36 65 -36 63 -36 62 C-38 62 -39 61 -41 61 C-41 60 -41 60 -41 59 C-36 56 -32 56 -26 57 C-26 56 -27 55 -27 54 C-27 51 -27 49 -27 46 C-27 45 -27 43 -27 42 C-27 38 -27 38 -24 33 C-24 31 -24 30 -24 28 C-24 27 -24 25 -24 24 C-24 23 -24 22 -24 20 C-24 17 -24 17 -22 15 C-18 15 -15 15 -11 15 C-10 15 -8 14 -7 14 C-7 13 -7 13 -7 12 C-6 11 -5 11 -5 10 C-2 7 -2 7 -1 3 C-1 3 -1 3 0 0 Z " fill="#C7C9D4" transform="translate(320,160)"/>
<path d="M0 0 C5 4 9 9 13 14 C17 18 20 22 24 26 C28 32 29 38 28 45 C26 51 24 54 19 57 C18 58 16 58 15 59 C10 62 9 64 6 69 C-3 85 -3 85 -12 89 C-18 89 -19 89 -24 86 C-30 81 -34 73 -39 67 C-42 62 -46 61 -51 58 C-56 53 -59 49 -60 42 C-59 31 -52 24 -45 17 C-44 15 -42 13 -41 11 C-31 -3 -16 -8 0 0 Z " fill="#050407" transform="translate(280,228)"/>
<path d="M0 0 C4 1 4 1 7 3 C12 6 17 9 23 11 C30 15 38 18 45 22 C61 31 61 31 68 31 C69 31 70 30 71 30 C71 30 71 30 72 27 C72 27 72 27 73 24 C76 23 76 23 79 23 C83 27 83 27 83 31 C83 35 82 38 80 42 C76 45 76 45 71 45 C70 46 68 46 67 47 C66 50 65 53 65 57 C64 67 58 75 50 82 C43 87 36 89 27 88 C16 85 9 80 3 70 C-2 57 -2 45 2 31 C3 28 4 26 6 23 C7 19 7 19 7 16 C4 15 4 15 1 14 C-3 12 -3 12 -6 10 C-7 6 -7 6 -7 3 C-3 0 -3 0 0 0 Z " fill="#0A0A0D" transform="translate(148.25,173)"/>
<path d="M0 0 C4 4 4 4 4 7 C3 10 3 10 -1 12 C-3 13 -4 13 -6 14 C-7 15 -8 15 -9 16 C-9 22 -7 27 -5 32 C-1 44 -2 58 -7 70 C-12 78 -18 84 -28 86 C-37 88 -45 87 -54 82 C-61 76 -65 68 -68 59 C-68 57 -68 54 -68 52 C-68 50 -69 48 -69 46 C-73 45 -73 45 -78 45 C-83 42 -85 38 -87 32 C-88 26 -88 26 -85 22 C-83 22 -81 22 -79 22 C-77 26 -77 26 -75 30 C-72 32 -72 32 -69 32 C-61 30 -53 25 -45 20 C-39 17 -34 14 -28 11 C-21 8 -16 5 -10 2 C-6 0 -6 0 0 0 Z " fill="#0B0B0E" transform="translate(383,174)"/>
<path d="M0 0 C5 3 5 3 7 7 C7 8 7 10 7 11 C9 22 15 29 22 36 C23 37 24 39 26 40 C37 51 52 58 67 64 C69 65 72 66 75 67 C81 70 87 72 94 73 C95 73 96 74 98 74 C118 78 140 79 161 77 C162 77 163 76 164 76 C182 74 200 71 217 66 C217 67 218 68 218 69 C221 70 221 70 224 70 C224 71 224 71 224 72 C222 73 220 75 218 76 C217 77 215 78 214 79 C209 82 206 83 201 83 C200 83 200 83 197 85 C179 90 159 89 140 89 C137 89 134 89 131 89 C130 89 130 89 125 89 C123 89 122 89 120 89 C115 89 111 88 106 87 C102 86 98 86 94 86 C90 85 90 85 85 83 C84 83 83 82 82 82 C76 81 72 78 68 75 C62 72 58 73 52 74 C38 76 20 63 10 55 C4 50 -2 45 -7 40 C-8 39 -9 38 -10 37 C-13 33 -13 33 -13 30 C-12 25 -10 21 -8 17 C-5 12 -3 7 -1 2 C-1 1 -0 1 0 0 Z " fill="#AFB2BC" transform="translate(119,506)"/>
<path d="M0 0 C0 1 0 1 0 2 C1 2 1 2 2 2 C3 3 3 3 4 4 C7 7 7 7 12 9 C18 12 21 16 24 22 C25 24 26 26 28 28 C34 38 34 38 34 46 C35 46 35 46 36 46 C36 52 36 52 35 54 C29 56 23 56 17 56 C15 56 13 55 11 55 C11 55 11 55 7 55 C6 55 4 55 3 55 C2 60 2 60 3 64 C3 65 2 66 2 67 C0 70 0 70 -0 75 C-1 80 -2 82 -5 86 C-9 88 -14 88 -19 88 C-22 87 -22 87 -24 84 C-24 79 -24 79 -24 74 C-25 74 -25 74 -26 74 C-27 72 -27 70 -28 68 C-29 68 -29 68 -30 68 C-30 68 -30 68 -31 70 C-32 69 -32 68 -33 67 C-35 63 -35 63 -39 61 C-38 61 -38 61 -37 61 C-37 60 -37 59 -37 58 C-37 52 -35 49 -33 44 C-32 41 -31 38 -30 35 C-26 21 -19 8 -7 1 C-4 0 -4 0 0 0 Z " fill="#80869A" transform="translate(437,337)"/>
<path d="M0 0 C5 1 5 2 8 6 C8 7 9 8 9 9 C13 7 16 5 19 2 C19 4 20 5 20 7 C20 8 20 9 20 10 C21 13 21 15 22 18 C26 35 31 43 45 53 C46 54 47 55 48 55 C51 58 55 59 59 60 C60 60 61 60 62 60 C62 61 63 61 63 62 C62 62 62 62 61 62 C61 63 61 64 61 65 C60 68 60 68 57 71 C54 73 51 74 48 76 C47 77 46 78 45 79 C40 81 38 81 32 81 C22 82 15 85 7 91 C1 96 -5 98 -13 98 C-16 95 -16 93 -16 89 C-16 88 -15 86 -15 85 C-14 85 -14 85 -11 84 C-11 82 -11 81 -12 79 C-12 74 -12 74 -11 71 C-10 71 -10 71 -7 69 C-6 65 -7 63 -9 59 C-9 58 -10 57 -10 56 C-8 51 -8 51 -7 49 C-6 49 -6 49 -3 48 C-2 43 -3 37 -4 32 C-4 29 -4 25 -4 22 C-3 22 -2 22 -1 22 C-1 20 -1 18 -1 16 C-2 16 -3 15 -4 15 C-3 15 -2 15 -1 15 C-1 14 -1 13 -1 12 C-1 11 -1 9 -1 8 C-1 7 -1 5 -1 4 C-1 1 -1 1 0 0 Z " fill="#C6C8D3" transform="translate(112,215)"/>
<path d="M0 0 C1 8 1 16 1 24 C1 27 1 27 4 30 C4 36 4 36 2 38 C2 44 3 45 7 49 C8 53 8 56 7 60 C8 60 9 60 10 60 C14 62 14 62 16 66 C16 68 17 69 17 71 C20 81 22 91 27 100 C27 102 27 104 27 106 C26 106 26 106 25 106 C25 107 25 107 24 110 C20 111 20 111 16 112 C17 111 17 109 18 108 C19 105 20 102 20 98 C13 98 13 98 11 99 C9 99 7 100 5 100 C1 100 -2 101 -5 102 C-10 102 -15 102 -20 103 C-25 103 -28 104 -32 106 C-34 104 -34 104 -35 99 C-35 97 -36 96 -36 94 C-39 93 -39 93 -42 93 C-42 91 -43 90 -43 88 C-39 85 -37 86 -32 86 C-24 86 -19 83 -12 78 C-5 73 2 73 10 73 C9 69 9 69 7 65 C4 64 4 64 1 63 C-5 61 -5 61 -7 60 C-12 60 -18 59 -23 59 C-24 59 -24 59 -27 59 C-28 59 -29 59 -30 59 C-34 58 -35 57 -38 54 C-40 49 -40 49 -40 43 C-41 43 -42 42 -43 42 C-40 39 -37 36 -33 33 C-32 33 -32 33 -31 33 C-31 32 -31 32 -31 31 C-30 31 -30 31 -29 31 C-28 29 -28 27 -27 25 C-26 24 -26 23 -25 21 C-23 17 -22 14 -21 10 C-20 7 -20 7 -19 4 C-14 4 -14 4 -9 5 C-8 4 -8 3 -7 2 C-2 0 -2 0 0 0 Z " fill="#C7C9D4" transform="translate(412,226)"/>
<path d="M0 0 C1 0 1 0 3 0 C6 0 9 0 12 0 C11 5 11 8 7 12 C6 12 6 12 5 12 C5 13 5 13 5 14 C1 16 1 16 -5 16 C-6 16 -6 16 -10 16 C-11 21 -11 23 -10 27 C-10 28 -10 28 -11 30 C-11 32 -12 33 -12 35 C-13 36 -13 37 -14 38 C-14 41 -14 45 -14 48 C-14 49 -14 51 -14 53 C-14 54 -14 56 -14 57 C-15 57 -17 57 -18 57 C-22 57 -25 58 -29 59 C-29 60 -29 60 -29 61 C-27 61 -26 62 -24 62 C-24 63 -24 65 -24 66 C-28 64 -28 64 -31 62 C-35 61 -39 61 -44 61 C-44 61 -44 61 -47 61 C-50 61 -50 61 -53 64 C-54 63 -54 63 -55 62 C-62 64 -65 68 -69 73 C-70 74 -71 75 -72 77 C-75 80 -75 80 -77 83 C-79 86 -81 89 -84 91 C-85 91 -87 90 -88 90 C-89 86 -89 82 -88 78 C-88 77 -88 77 -88 73 C-87 69 -87 66 -85 62 C-82 61 -82 61 -79 61 C-79 60 -78 58 -78 57 C-77 56 -76 56 -75 55 C-74 52 -74 48 -73 45 C-72 40 -71 39 -67 36 C-64 34 -60 33 -56 31 C-49 28 -43 25 -37 20 C-36 20 -35 20 -33 19 C-32 19 -31 18 -30 18 C-30 17 -30 17 -28 14 C-26 9 -26 9 -22 7 C-21 7 -19 6 -18 6 C-18 5 -17 5 -17 4 C-16 4 -16 4 -15 4 C-15 3 -14 2 -14 1 C-10 -1 -5 -0 0 0 Z " fill="#C1C4D0" transform="translate(308.125,159.9375)"/>
<path d="M0 0 C8 4 15 9 20 16 C21 16 21 16 25 15 C30 15 30 15 34 17 C37 20 37 20 39 24 C44 27 47 28 53 27 C56 25 59 24 62 22 C67 19 71 19 76 19 C75 26 74 33 71 40 C71 40 71 40 70 42 C67 51 63 59 60 67 C59 68 58 70 58 71 C54 78 54 78 49 80 C46 80 46 80 44 78 C37 68 36 54 35 42 C32 43 32 43 28 44 C27 48 27 51 27 54 C27 59 26 62 24 66 C23 66 23 66 20 67 C8 58 4 39 1 25 C1 22 1 18 1 15 C0 15 -0 15 -1 15 C-1 10 -1 5 0 0 Z " fill="#6A7186" transform="translate(38,459)"/>
<path d="M0 0 C0 3 0 6 0 8 C0 10 0 12 0 13 C0 17 0 17 -1 18 C-1 20 -2 22 -2 24 C-3 31 -3 31 -4 33 C-5 33 -5 33 -6 33 C-6 34 -6 36 -6 37 C-7 47 -11 57 -18 64 C-19 64 -20 65 -21 65 C-25 62 -25 62 -26 58 C-26 55 -26 53 -26 50 C-26 49 -26 48 -26 46 C-26 45 -26 44 -26 43 C-29 43 -29 43 -33 44 C-34 48 -34 48 -35 54 C-40 72 -40 72 -47 77 C-52 76 -52 76 -54 74 C-62 62 -67 48 -71 35 C-71 34 -72 33 -72 31 C-73 28 -73 28 -73 22 C-66 21 -63 22 -57 26 C-51 29 -48 28 -42 26 C-41 24 -41 22 -40 20 C-37 15 -36 15 -31 13 C-31 12 -30 12 -30 11 C-30 11 -30 11 -29 12 C-19 12 -19 12 -13 9 C-12 8 -11 7 -11 7 C-4 0 -4 0 0 0 Z " fill="#6B7286" transform="translate(486,462)"/>
<path d="M0 0 C3 1 3 1 7 3 C8 3 9 4 10 4 C13 6 13 6 14 9 C13 11 12 14 11 16 C5 32 5 45 11 61 C16 70 23 74 33 77 C42 78 50 76 58 70 C66 62 70 52 72 41 C72 40 72 38 72 37 C75 35 75 35 80 35 C82 38 80 42 80 46 C80 47 80 47 80 51 C79 55 78 57 76 61 C76 62 75 63 75 63 C68 75 59 84 46 89 C35 91 25 91 15 86 C2 77 -5 67 -9 52 C-12 34 -11 18 -2 2 C-1 1 -1 1 0 0 Z " fill="#EBECEF" transform="translate(142,183)"/>
<path d="M0 0 C8 15 10 33 7 49 C4 57 1 64 -3 71 C-4 71 -4 71 -5 71 C-5 72 -5 72 -5 73 C-14 82 -25 85 -37 86 C-52 85 -62 80 -72 69 C-73 68 -74 66 -76 65 C-77 63 -78 62 -79 61 C-81 61 -82 61 -84 61 C-84 62 -84 64 -84 65 C-92 61 -97 53 -102 46 C-101 45 -100 44 -99 43 C-95 44 -93 48 -91 51 C-89 55 -86 57 -83 59 C-83 58 -83 58 -83 55 C-82 51 -82 51 -81 50 C-81 48 -81 47 -82 45 C-82 36 -82 36 -80 32 C-75 32 -75 32 -72 34 C-71 37 -71 37 -71 41 C-69 50 -67 58 -60 65 C-60 66 -60 66 -60 67 C-59 68 -57 68 -56 69 C-55 70 -53 70 -52 71 C-42 76 -34 74 -24 71 C-14 65 -9 57 -7 46 C-6 33 -7 21 -13 9 C-13 7 -13 6 -13 4 C-9 1 -5 -2 0 0 Z " fill="#E9EAEE" transform="translate(386,186)"/>
<path d="M0 0 C1 -0 1 -1 2 -1 C2 1 1 2 1 4 C-1 9 -2 14 -3 19 C-4 19 -4 19 -5 19 C-7 25 -8 30 -8 36 C-8 36 -8 36 -9 39 C-12 41 -12 41 -15 41 C-15 42 -16 43 -16 44 C-16 44 -16 44 -18 45 C-18 44 -18 43 -18 42 C-19 38 -21 36 -25 34 C-27 34 -28 34 -30 34 C-35 33 -35 33 -38 30 C-39 29 -39 28 -40 27 C-41 27 -42 26 -43 26 C-44 27 -45 28 -46 29 C-46 32 -46 32 -45 35 C-42 36 -42 36 -37 35 C-35 37 -35 37 -35 41 C-35 45 -35 45 -37 48 C-43 52 -48 55 -56 55 C-62 52 -62 52 -63 48 C-62 47 -61 46 -60 45 C-59 41 -59 41 -59 37 C-60 37 -62 37 -63 37 C-68 37 -68 37 -72 34 C-72 32 -71 31 -71 29 C-70 29 -69 28 -68 28 C-65 27 -65 27 -62 23 C-61 22 -60 20 -59 19 C-55 19 -55 19 -51 20 C-48 17 -48 17 -47 12 C-47 10 -46 9 -46 7 C-42 5 -42 5 -37 3 C-36 2 -34 0 -33 -1 C-31 -1 -28 -0 -26 0 C-24 -1 -23 -1 -21 -2 C-6 -4 -6 -4 0 0 Z " fill="#C2C5D0" transform="translate(403,379)"/>
<path d="M0 0 C5 1 9 2 14 4 C15 5 17 5 18 6 C21 8 23 10 25 14 C27 16 30 17 32 19 C35 22 35 22 36 24 C32 31 26 35 18 38 C17 38 17 38 13 38 C11 38 10 39 8 39 C7 40 7 42 6 43 C6 44 5 46 4 47 C-0 48 -4 48 -8 48 C-12 48 -15 48 -18 49 C-18 52 -18 52 -17 57 C-20 59 -20 59 -24 59 C-24 58 -24 58 -25 54 C-24 53 -22 53 -21 52 C-21 52 -21 52 -22 49 C-23 49 -23 48 -24 48 C-24 47 -24 47 -24 46 C-25 46 -26 45 -27 45 C-29 41 -29 36 -28 31 C-26 28 -24 26 -21 24 C-16 20 -15 14 -12 9 C-10 5 -10 5 -6 4 C-5 4 -4 4 -3 4 C-2 4 -1 3 0 3 C0 2 0 1 0 0 Z " fill="#C2C5D1" transform="translate(312,49)"/>
<path d="M0 0 C0 1 0 1 0 2 C1 2 1 2 5 3 C6 4 8 4 9 5 C11 5 12 6 14 6 C17 7 17 7 20 9 C20 10 20 10 20 11 C22 12 24 12 26 13 C26 13 26 13 28 15 C31 16 33 17 36 18 C48 23 48 23 53 27 C60 30 66 32 73 32 C73 34 72 35 72 37 C69 39 69 39 65 38 C59 37 54 35 49 32 C48 32 47 31 46 31 C38 27 30 22 22 18 C17 15 11 13 6 10 C5 9 3 9 2 8 C-1 8 -1 8 -4 9 C-4 11 -5 12 -5 14 C-6 18 -7 21 -9 25 C-12 32 -15 39 -15 47 C-16 53 -19 55 -24 59 C-27 58 -27 58 -29 55 C-29 54 -30 53 -30 52 C-31 51 -31 51 -32 50 C-33 50 -34 50 -35 50 C-35 57 -36 64 -36 71 C-37 71 -38 71 -39 71 C-39 73 -39 75 -39 77 C-38 77 -38 78 -37 78 C-37 81 -38 84 -38 87 C-38 88 -37 89 -37 90 C-37 94 -37 94 -37 97 C-38 97 -38 97 -42 98 C-44 101 -44 101 -44 105 C-43 107 -42 109 -41 111 C-40 115 -40 115 -41 118 C-42 118 -42 118 -46 120 C-46 123 -46 123 -46 127 C-46 130 -46 130 -46 133 C-47 133 -49 134 -50 134 C-50 136 -50 137 -50 139 C-50 141 -50 142 -50 144 C-51 144 -53 145 -54 145 C-54 145 -54 145 -55 147 C-56 141 -55 136 -53 130 C-48 115 -46 100 -44 84 C-43 83 -43 81 -43 80 C-42 73 -41 66 -40 59 C-40 58 -40 58 -39 53 C-39 51 -39 50 -39 48 C-38 44 -38 44 -36 40 C-35 40 -34 39 -33 39 C-32 39 -31 38 -30 38 C-30 35 -30 35 -30 31 C-30 25 -29 22 -26 16 C-26 14 -26 13 -26 11 C-25 10 -25 8 -25 7 C-21 5 -17 4 -13 2 C-12 2 -11 1 -9 1 C-6 0 -6 0 0 0 Z " fill="#C6C9D4" transform="translate(147,166)"/>
<path d="M0 0 C5 1 7 2 10 6 C10 7 10 7 10 8 C11 8 11 8 12 8 C13 9 14 10 15 11 C16 11 16 11 19 11 C25 12 26 13 30 17 C32 20 34 24 36 27 C39 30 39 30 41 32 C44 36 43 39 42 44 C41 48 41 48 38 50 C30 52 26 51 19 47 C19 47 19 47 18 49 C18 48 18 47 18 46 C16 46 15 45 13 45 C13 45 13 45 10 44 C10 43 10 43 10 42 C8 42 6 43 4 43 C3 44 1 44 0 44 C-3 45 -3 45 -7 47 C-8 47 -9 47 -10 47 C-10 48 -11 48 -11 49 C-16 48 -16 48 -18 46 C-18 43 -17 41 -16 38 C-14 38 -13 39 -11 39 C-11 37 -12 36 -12 34 C-13 28 -13 28 -12 23 C-11 23 -11 22 -10 22 C-10 20 -9 19 -9 17 C-8 17 -8 16 -7 16 C-6 13 -6 10 -5 7 C-4 6 -4 5 -3 4 C-2 4 -2 4 -1 4 C-1 3 -0 1 0 0 Z " fill="#C2C4D0" transform="translate(137,124)"/>
<path d="M0 0 C1 1 1 3 2 4 C3 6 4 7 5 9 C6 9 7 9 8 9 C14 17 14 17 14 22 C12 27 9 30 6 33 C5 34 3 36 2 37 C-10 49 -32 65 -49 65 C-52 64 -52 64 -55 60 C-56 59 -58 59 -59 58 C-58 57 -58 55 -57 54 C-57 53 -56 51 -56 50 C-54 48 -54 48 -51 47 C-44 43 -39 39 -33 35 C-32 34 -30 33 -29 32 C-18 23 -9 14 -5 1 C-4 1 -4 2 -3 2 C-3 2 -3 2 -2 5 C-1 3 -1 2 0 0 Z " fill="#AFB2BC" transform="translate(405,515)"/>
<path d="M0 0 C1 1 1 1 2 2 C3 2 4 2 5 2 C5 1 6 1 6 0 C10 2 10 2 13 5 C14 6 16 6 17 7 C23 11 28 15 32 20 C32 21 32 21 33 24 C31 27 28 30 25 32 C24 32 24 32 21 31 C20 31 18 31 17 31 C16 32 16 34 15 35 C14 35 14 35 13 35 C13 36 13 37 13 39 C13 43 13 43 9 47 C-2 49 -10 47 -19 41 C-19 41 -19 41 -22 39 C-25 37 -25 37 -29 34 C-29 29 -29 29 -27 26 C-25 25 -23 23 -21 22 C-16 18 -12 14 -10 7 C-9 4 -9 4 -6 2 C-3 0 -3 0 0 0 Z " fill="#C2C5D1" transform="translate(183,65)"/>
<path d="M0 0 C1 0 2 1 3 1 C3 2 3 2 4 5 C5 5 6 5 7 5 C6 9 6 9 3 12 C2 19 2 27 2 34 C2 72 2 72 -5 87 C-7 87 -8 87 -10 88 C-15 88 -18 90 -22 93 C-27 96 -30 97 -36 96 C-42 94 -43 92 -46 87 C-48 82 -48 82 -48 80 C-43 78 -41 78 -35 78 C-34 78 -32 78 -31 78 C-28 78 -25 79 -22 79 C-18 79 -14 79 -10 78 C-8 73 -8 73 -8 67 C-7 67 -7 66 -6 66 C-6 66 -6 66 -4 67 C-4 63 -4 60 -4 56 C-4 55 -4 54 -4 53 C-5 45 -5 45 -7 42 C-8 42 -8 42 -11 42 C-16 42 -18 40 -22 36 C-23 34 -23 34 -23 28 C-20 23 -17 18 -12 15 C-11 15 -10 16 -9 16 C-5 11 -2 6 0 0 Z " fill="#8F93A0" transform="translate(119,391)"/>
<path d="M0 0 C0 1 0 1 0 2 C1 2 2 2 3 2 C5 6 5 6 7 12 C10 22 10 22 12 26 C12 28 12 30 12 32 C11 32 11 32 10 32 C10 33 9 35 9 36 C5 37 5 37 1 38 C2 37 2 35 3 34 C4 31 5 28 5 24 C-2 24 -2 24 -4 25 C-6 25 -8 26 -10 26 C-14 26 -17 27 -20 28 C-25 28 -30 28 -35 29 C-40 29 -43 30 -47 32 C-49 30 -49 30 -50 25 C-50 23 -51 22 -51 20 C-54 19 -54 19 -57 19 C-57 18 -57 18 -58 14 C-54 11 -52 12 -47 12 C-39 12 -34 9 -27 4 C-18 -2 -10 -1 0 0 Z " fill="#C7C9D4" transform="translate(427,300)"/>
<path d="M0 0 C0 1 0 1 0 2 C1 2 1 2 2 2 C3 3 3 3 4 4 C7 7 7 7 12 10 C17 12 17 12 20 16 C20 17 20 17 20 18 C18 17 15 17 13 16 C13 17 13 18 13 19 C11 29 2 38 -5 45 C-9 48 -11 47 -15 47 C-17 47 -18 47 -19 46 C-23 46 -26 45 -30 44 C-31 42 -31 42 -31 36 C-26 22 -19 9 -7 1 C-4 0 -4 0 0 0 Z " fill="#878C9F" transform="translate(437,337)"/>
<path d="M0 0 C7 -0 12 0 19 1 C52 7 88 7 121 1 C126 0 126 0 131 0 C131 1 131 1 133 5 C129 9 125 11 120 13 C117 15 117 15 115 17 C114 21 114 24 114 28 C113 28 112 28 111 28 C110 25 108 21 107 18 C100 13 93 14 85 14 C72 14 60 14 48 13 C41 13 34 13 27 15 C24 19 24 19 24 23 C23 24 23 25 23 26 C22 27 21 27 20 28 C20 27 20 25 20 24 C19 18 18 17 14 13 C11 11 7 9 4 8 C3 7 2 7 1 6 C0 1 0 1 0 0 Z " fill="#EBECEF" transform="translate(196,602)"/>
<path d="M0 0 C7 4 11 8 15 14 C16 15 17 16 18 17 C20 20 20 20 20 22 C21 22 22 23 23 23 C23 24 23 24 24 28 C21 31 15 30 11 30 C7 31 4 33 1 35 C-6 36 -10 35 -16 32 C-19 31 -22 30 -25 30 C-28 29 -28 29 -33 27 C-33 26 -34 24 -34 23 C-31 20 -31 20 -29 18 C-25 16 -24 13 -22 9 C-21 9 -21 9 -20 9 C-19 8 -19 6 -18 5 C-12 -0 -8 -1 0 0 Z " fill="#F7C045" transform="translate(270,236)"/>
<path d="M0 0 C1 0 2 1 3 1 C3 -1 4 -2 4 -4 C5 -4 6 -4 7 -4 C9 6 10 15 11 25 C11 26 11 28 12 29 C12 36 13 43 14 50 C15 58 17 67 18 75 C19 80 20 84 20 89 C18 88 15 88 13 87 C13 86 13 85 14 84 C14 80 14 80 12 75 C11 74 10 73 9 72 C8 68 8 68 8 64 C9 64 9 64 10 64 C10 61 10 61 10 57 C9 56 8 55 7 54 C7 51 7 51 7 48 C7 47 7 45 7 44 C7 43 7 42 7 40 C7 39 7 38 7 36 C7 33 7 30 7 27 C6 28 5 28 4 29 C3 29 1 29 0 29 C-1 30 -1 32 -2 33 C-9 33 -9 33 -11 31 C-12 24 -12 16 -13 8 C-13 5 -13 2 -14 -2 C-8 -5 -5 -4 0 0 Z " fill="#CBCDD7" transform="translate(405,199)"/>
<path d="M0 0 C0 1 0 1 0 2 C-1 2 -1 2 -2 2 C-1 6 -1 6 0 10 C1 11 3 11 4 12 C4 16 4 21 4 25 C5 25 6 26 7 26 C7 27 7 27 7 28 C5 28 4 28 2 28 C-4 29 -4 29 -7 31 C-12 33 -17 32 -22 32 C-27 32 -28 34 -32 36 C-34 36 -35 35 -37 35 C-38 26 -37 22 -32 14 C-26 6 -20 4 -10 2 C-5 0 -5 0 0 0 Z " fill="#C1C4D0" transform="translate(393,473)"/>
<path d="M0 0 C1 0 2 0 3 0 C4 4 4 7 5 11 C6 13 7 15 8 17 C8 19 9 22 9 24 C10 25 10 27 11 28 C12 34 13 39 11 45 C6 44 6 44 1 41 C-0 41 -1 42 -2 42 C-4 42 -5 42 -6 42 C-11 35 -11 35 -11 31 C-12 31 -12 30 -13 30 C-12 29 -12 27 -11 26 C-12 22 -12 22 -14 20 C-20 20 -22 21 -27 24 C-28 24 -29 24 -30 24 C-30 23 -30 23 -30 22 C-31 22 -33 21 -34 21 C-34 18 -34 18 -33 14 C-30 12 -30 12 -27 10 C-26 10 -24 11 -23 11 C-20 9 -16 8 -13 6 C-12 6 -12 6 -8 5 C-4 4 -4 4 0 0 Z " fill="#BDC0CC" transform="translate(397,155)"/>
<path d="M0 0 C3 -0 3 -0 6 -0 C8 -1 9 -1 10 -1 C11 -0 12 -0 13 0 C14 2 14 3 15 5 C15 5 15 5 12 5 C6 5 1 5 -5 8 C-6 8 -6 8 -9 10 C-14 14 -18 19 -22 24 C-24 27 -24 27 -28 31 C-33 36 -35 41 -37 47 C-37 55 -34 60 -29 65 C-26 67 -26 67 -22 69 C-17 73 -14 77 -11 82 C-3 94 -3 94 3 96 C8 96 12 96 16 93 C22 87 26 80 30 73 C33 68 36 66 42 64 C42 65 42 65 40 68 C40 69 40 69 38 72 C32 83 22 96 10 101 C4 102 1 100 -4 97 C-4 96 -4 96 -4 95 C-5 94 -7 94 -8 93 C-8 92 -9 91 -9 90 C-10 90 -11 89 -12 89 C-14 86 -17 83 -19 80 C-25 74 -31 69 -37 63 C-41 60 -41 60 -43 56 C-43 52 -42 49 -42 45 C-42 44 -42 43 -42 42 C-40 34 -34 29 -28 24 C-26 21 -25 19 -23 16 C-21 14 -18 11 -16 9 C-14 7 -14 7 -12 4 C-9 3 -7 2 -4 1 C-4 1 -4 1 -3 3 C-2 3 -2 3 -1 3 C-1 2 -0 1 0 0 Z " fill="#D7D9E1" transform="translate(258,220)"/>
<path d="M0 0 C1 0 2 0 3 0 C9 0 11 0 15 5 C14 6 13 8 12 9 C13 12 13 12 14 15 C15 18 15 18 15 21 C11 25 11 25 8 25 C-1 25 -6 25 -14 20 C-15 20 -17 20 -19 20 C-20 20 -21 19 -22 19 C-22 17 -22 15 -22 13 C-23 13 -24 13 -25 13 C-25 11 -25 8 -25 6 C-24 6 -23 6 -22 6 C-21 5 -21 3 -21 2 C-14 -0 -7 -0 0 0 Z " fill="#C1C4D0" transform="translate(160.8125,415.125)"/>
<path d="M0 0 C1 1 1 1 2 2 C6 3 9 4 14 4 C19 5 21 6 24 10 C25 14 25 14 23 17 C14 31 14 31 8 35 C3 36 -1 35 -5 32 C-7 28 -7 28 -9 25 C-10 25 -10 24 -11 24 C-11 19 -10 16 -8 11 C-7 11 -5 11 -4 11 C-4 10 -3 8 -3 7 C-2 7 -2 7 -1 7 C-1 5 -0 2 0 0 Z " fill="#C2C5D0" transform="translate(131,483)"/>
<path d="M0 0 C3 3 2 9 2 12 C2 14 2 15 2 16 C-3 20 -3 20 -8 22 C-10 25 -10 25 -12 27 C-17 30 -21 29 -27 29 C-30 29 -32 31 -35 32 C-36 33 -36 33 -37 34 C-37 27 -34 24 -29 19 C-29 18 -30 16 -30 15 C-28 9 -26 5 -21 2 C-14 0 -7 -0 0 0 Z " fill="#80869A" transform="translate(484,446)"/>
<path d="M0 0 C1 0 1 0 2 0 C2 1 2 3 2 4 C3 4 5 4 6 4 C7 4 7 4 11 4 C12 7 12 7 11 10 C3 23 3 23 -4 27 C-10 27 -12 26 -18 23 C-20 23 -21 22 -23 22 C-28 20 -30 19 -34 16 C-34 15 -35 13 -35 12 C-31 9 -31 9 -29 9 C-29 8 -29 8 -29 7 C-22 6 -15 6 -8 8 C-8 7 -7 5 -7 4 C-7 4 -6 3 -6 3 C-4 3 -2 3 0 3 C0 2 0 1 0 0 Z " fill="#C1C4D0" transform="translate(253,41)"/>
<path d="M0 0 C14 19 16 44 16 67 C15 66 15 64 14 63 C11 59 10 56 6 53 C5 53 4 53 2 53 C-1 53 -1 53 -4 51 C-5 50 -5 49 -6 48 C-6 48 -7 47 -7 47 C-7 45 -7 42 -7 40 C-7 39 -7 38 -7 36 C-7 33 -7 33 -5 29 C-4 29 -4 29 -1 28 C-0 28 1 27 2 27 C3 21 4 17 1 11 C1 8 1 8 2 5 C1 5 1 5 0 5 C0 3 0 2 0 0 Z " fill="#8F93A0" transform="translate(471,378)"/>
<path d="M0 0 C0 3 0 6 1 10 C1 11 1 13 1 15 C1 16 1 18 1 19 C-0 19 -1 19 -3 19 C-7 19 -10 20 -14 21 C-14 22 -14 22 -14 23 C-12 23 -11 24 -9 24 C-9 25 -9 27 -9 28 C-13 26 -13 26 -16 24 C-20 23 -24 23 -29 23 C-29 23 -29 23 -32 23 C-35 23 -35 23 -38 26 C-39 25 -39 25 -40 24 C-41 24 -41 24 -44 26 C-45 26 -46 25 -47 25 C-46 25 -44 24 -43 24 C-43 22 -43 20 -43 18 C-39 14 -36 13 -31 11 C-29 10 -28 9 -26 8 C-21 6 -21 6 -17 5 C-13 4 -11 3 -8 0 C-3 -1 -3 -1 0 0 Z " fill="#BDC0CC" transform="translate(293,198)"/>
<path d="M0 0 C4 3 6 4 9 8 C10 9 11 11 12 12 C13 17 13 23 13 28 C12 28 11 28 10 28 C10 30 10 33 10 35 C11 35 12 35 13 35 C13 38 13 40 13 43 C12 43 12 43 11 43 C11 44 10 46 10 47 C9 47 8 47 7 47 C7 48 7 49 7 50 C8 50 9 50 10 50 C10 52 10 54 10 56 C11 56 11 56 12 56 C12 61 12 61 12 66 C11 67 10 68 9 69 C7 75 7 81 7 87 C7 87 7 87 6 89 C5 89 4 89 3 89 C3 91 2 93 2 95 C3 95 3 95 4 95 C4 96 4 96 4 97 C3 97 3 97 2 97 C2 98 1 100 1 101 C-0 101 -2 101 -3 101 C-2 95 -1 90 -0 84 C2 76 3 68 4 59 C4 56 4 56 5 54 C5 43 5 32 4 22 C4 20 4 18 4 16 C3 11 1 8 -1 3 C-1 2 -0 1 0 0 Z " fill="#D7D9E1" transform="translate(126,393)"/>
<path d="M0 0 C-0 2 -1 3 -1 5 C-1 11 1 15 4 20 C4 23 4 23 3 26 C-1 29 -3 30 -8 29 C-13 26 -13 26 -17 23 C-18 23 -20 23 -21 23 C-22 24 -22 26 -23 27 C-24 27 -24 27 -27 29 C-27 30 -27 30 -29 34 C-30 34 -31 33 -32 33 C-28 21 -21 10 -12 1 C-8 -0 -4 -0 0 0 Z " fill="#8F93A0" transform="translate(85,344)"/>
<path d="M0 0 C1 7 1 14 1 21 C1 22 2 23 2 25 C1 26 1 27 1 28 C-3 31 -7 30 -12 30 C-18 29 -23 29 -29 31 C-28 28 -27 25 -25 21 C-23 17 -22 14 -21 10 C-20 7 -20 7 -19 4 C-14 4 -14 4 -9 5 C-8 4 -8 3 -7 2 C-2 0 -2 0 0 0 Z " fill="#BDC0CC" transform="translate(412,226)"/>
<path d="M0 0 C1 0 1 0 2 0 C2 1 2 1 2 2 C3 2 3 2 4 2 C5 7 5 12 4 17 C5 17 6 17 7 17 C8 16 8 14 9 13 C12 12 12 12 15 12 C18 14 18 14 20 16 C20 18 21 19 21 21 C17 25 17 25 13 27 C11 27 10 26 8 26 C7 26 5 26 4 26 C2 30 2 30 1 35 C1 35 1 35 -1 38 C-3 42 -2 46 -2 51 C-2 51 -2 51 -3 52 C-3 53 -3 55 -3 56 C-3 58 -3 59 -3 61 C-3 61 -3 61 -6 62 C-13 44 -6 17 0 0 Z " fill="#8F93A0" transform="translate(44,397)"/>
<path d="M0 0 C4 2 5 3 7 8 C7 11 7 11 5 16 C5 17 4 19 3 20 C3 22 2 23 1 24 C-2 25 -2 25 -6 26 C-7 26 -9 27 -10 28 C-15 28 -15 28 -18 27 C-22 22 -21 18 -21 12 C-20 12 -20 12 -19 12 C-19 11 -18 9 -18 8 C-14 4 -11 3 -6 2 C-3 -0 -3 -0 0 0 Z " fill="#646A7D" transform="translate(99.9375,494.5)"/>
<path d="M0 0 C4 4 4 4 5 8 C6 8 6 8 7 8 C7 9 8 11 8 12 C9 13 9 15 10 16 C11 16 13 17 14 17 C23 20 23 20 26 23 C26 26 26 26 26 30 C22 34 21 35 15 35 C13 35 12 34 10 34 C10 35 9 35 9 36 C8 36 8 36 7 36 C7 37 7 38 7 39 C6 43 6 43 3 46 C0 35 -0 25 -0 14 C-0 13 -0 11 -0 10 C-0 7 -0 3 0 0 Z " fill="#9094A1" transform="translate(406,424)"/>
<path d="M0 0 C1 0 3 0 4 0 C6 0 7 0 8 0 C12 1 12 1 16 5 C16 6 16 8 15 10 C16 10 16 11 16 12 C17 16 17 16 16 21 C15 22 14 23 12 25 C11 25 10 25 8 25 C8 23 8 22 7 21 C7 21 6 21 5 21 C5 20 5 19 4 19 C3 19 2 19 0 19 C-2 22 -2 22 -3 26 C-4 25 -5 25 -7 25 C-8 20 -8 17 -8 13 C-8 11 -8 10 -8 8 C-8 3 -5 1 0 0 Z " fill="#C2C5D1" transform="translate(207.75,111.46875)"/>
<path d="M0 0 C2 0 3 1 5 1 C6 4 6 4 7 7 C7 9 7 10 8 11 C8 14 8 14 8 16 C9 16 11 16 12 17 C32 20 32 20 39 23 C39 25 39 26 39 28 C35 28 32 27 28 25 C22 24 18 24 13 25 C13 26 13 26 14 29 C14 30 14 32 14 33 C14 33 14 33 11 34 C9 32 9 32 6 29 C1 24 -2 24 -9 24 C-9 23 -8 21 -8 20 C-6 19 -5 19 -3 18 C-2 14 -2 11 -2 7 C-2 3 -2 3 0 0 Z " fill="#D3800E" transform="translate(343,596)"/>
<path d="M0 0 C1 0 1 0 2 0 C6 5 5 7 5 13 C5 16 5 16 9 20 C12 21 12 21 15 22 C15 22 15 22 14 25 C11 25 7 25 4 25 C-2 27 -4 31 -7 36 C-7 35 -8 35 -8 34 C-9 34 -9 33 -10 33 C-10 29 -10 29 -9 26 C-18 25 -24 25 -32 28 C-33 28 -35 28 -36 28 C-36 26 -35 25 -35 23 C-31 21 -31 21 -25 20 C-24 20 -22 19 -20 19 C-16 18 -11 18 -7 17 C-6 17 -5 16 -4 16 C-4 13 -4 13 -4 10 C-3 3 -3 3 0 0 Z " fill="#C9750E" transform="translate(179,595)"/>
<path d="M0 0 C5 1 5 2 8 6 C8 7 9 8 9 9 C13 7 16 5 19 2 C19 4 20 5 20 7 C22 16 24 26 26 35 C24 35 23 34 21 34 C21 33 20 31 20 30 C19 30 18 29 17 29 C14 25 13 22 11 18 C9 19 8 20 6 21 C5 21 5 20 4 20 C3 21 3 23 2 24 C1 24 1 24 0 24 C-1 22 -1 22 -1 16 C-2 16 -3 15 -4 15 C-3 15 -2 15 -1 15 C-1 14 -1 13 -1 12 C-1 11 -1 11 -1 8 C-1 7 -1 5 -1 4 C-1 1 -1 1 0 0 Z " fill="#BDC0CC" transform="translate(112,215)"/>
<path d="M0 0 C5 1 9 3 13 5 C13 6 13 6 13 7 C15 8 17 8 19 9 C20 10 20 10 21 11 C24 12 26 13 29 14 C41 19 41 19 46 23 C53 26 59 28 66 28 C66 29 66 29 65 33 C62 35 62 35 58 34 C52 33 47 31 42 28 C42 28 42 28 39 27 C31 23 23 18 15 14 C8 11 2 7 -5 4 C-6 4 -7 3 -8 3 C-8 2 -8 2 -8 1 C-5 1 -3 2 0 2 C0 1 0 1 0 0 Z " fill="#D7D9E1" transform="translate(154,170)"/>
<path d="M0 0 C3 2 5 4 8 7 C9 7 9 7 10 7 C13 15 12 21 9 28 C3 26 -0 20 -4 15 C-4 14 -4 14 -4 13 C-5 13 -6 14 -7 14 C-13 14 -16 12 -21 8 C-21 7 -22 5 -22 4 C-17 4 -14 5 -10 9 C-10 8 -10 6 -10 5 C-12 5 -13 4 -15 4 C-15 3 -15 3 -15 2 C-10 -1 -6 -2 0 0 Z " fill="#C4C7D2" transform="translate(294,217)"/>
<path d="M0 0 C0 1 0 1 0 2 C1 2 1 3 2 3 C-5 20 -5 20 -11 23 C-14 23 -14 23 -17 22 C-26 12 -26 12 -26 5 C-26 4 -25 3 -25 2 C-21 1 -17 1 -12 0 C-11 0 -10 0 -8 0 C-5 0 -3 0 0 0 Z " fill="#EEAB37" transform="translate(277,281)"/>
<path d="M0 0 C1 0 1 0 2 0 C2 7 2 14 2 21 C1 21 0 21 -1 21 C-1 23 -1 25 -1 27 C-0 27 0 28 1 28 C1 31 0 34 0 37 C0 38 1 39 1 40 C1 44 1 44 1 47 C0 47 0 47 -4 48 C-6 51 -6 51 -6 55 C-5 57 -4 59 -3 61 C-2 65 -2 65 -3 68 C-4 68 -4 68 -8 70 C-8 73 -8 73 -8 77 C-8 80 -8 80 -8 83 C-9 83 -9 83 -12 84 C-12 86 -12 87 -12 89 C-12 91 -12 92 -12 94 C-13 94 -13 94 -16 95 C-16 95 -16 95 -17 97 C-18 91 -17 86 -15 80 C-10 65 -8 50 -5 34 C-5 32 -5 31 -5 29 C-4 23 -3 18 -2 12 C-2 10 -2 9 -2 7 C-2 6 -2 5 -1 4 C-1 1 -1 1 0 0 Z " fill="#D7D9E1" transform="translate(109,216)"/>
<path d="M0 0 C6 4 10 10 13 17 C14 17 15 18 16 18 C16 20 17 21 17 23 C14 26 8 25 4 25 C-0 26 -3 28 -6 30 C-7 30 -9 30 -10 30 C-10 24 -9 20 -6 15 C-6 14 -6 14 -5 10 C-4 6 -3 4 0 0 Z " fill="#F4AC17" transform="translate(277,241)"/>
<path d="M0 0 C0 1 1 2 1 3 C2 2 2 2 3 1 C9 1 9 1 13 3 C14 3 14 3 18 4 C19 4 21 5 22 5 C24 9 24 9 24 12 C16 13 7 13 -1 13 C-1 12 -2 11 -2 10 C-1 10 1 9 2 9 C2 8 2 8 2 7 C1 7 0 8 -1 8 C-6 9 -11 10 -16 8 C-16 7 -16 7 -16 6 C-17 6 -18 5 -19 5 C-17 2 -14 1 -11 0 C-7 -2 -4 -1 0 0 Z " fill="#C7C9D4" transform="translate(133,638)"/>
<path d="M0 0 C1 0 3 1 4 1 C4 3 3 4 3 6 C3 6 3 6 1 7 C1 9 2 12 2 14 C2 17 2 19 2 22 C0 22 -1 21 -3 21 C-4 25 -4 25 -4 29 C-3 30 -2 32 -1 33 C-2 38 -2 42 -5 46 C-6 50 -6 52 -6 56 C-6 60 -6 60 -6 63 C-9 65 -9 65 -13 66 C-14 65 -14 65 -14 62 C-14 55 -13 49 -11 43 C-11 42 -11 42 -10 39 C-8 26 -4 13 0 0 Z " fill="#D7D9E1" transform="translate(124,141)"/>
<path d="M0 0 C0 1 0 2 0 3 C1 34 1 34 3 47 C3 50 3 54 3 57 C0 56 -2 56 -5 55 C-4 50 -4 50 -3 47 C-3 42 -3 38 -4 33 C-5 32 -7 32 -8 31 C-8 26 -9 22 -9 18 C-9 16 -9 15 -9 14 C-9 10 -9 7 -8 4 C-5 1 -4 0 0 0 Z " fill="#D6D8E0" transform="translate(394,418)"/>
<path d="M0 0 C1 0 1 0 5 2 C5 2 5 2 6 5 C4 6 1 7 -1 9 C-3 9 -4 10 -6 11 C-8 12 -11 13 -13 15 C-21 18 -29 23 -37 27 C-37 27 -37 27 -41 29 C-42 30 -43 30 -44 31 C-48 32 -50 32 -53 31 C-56 28 -57 26 -57 22 C-48 24 -48 24 -46 26 C-45 25 -45 25 -44 24 C-40 21 -36 20 -32 18 C-31 18 -31 18 -28 16 C-25 14 -25 14 -20 12 C-16 10 -16 10 -13 7 C-11 6 -9 5 -7 4 C-1 1 -1 1 0 0 Z " fill="#D7D9E1" transform="translate(362,175)"/>
<path d="M0 0 C4 1 4 1 8 4 C9 8 9 8 9 12 C10 12 10 13 11 13 C11 19 11 24 8 29 C7 29 5 30 4 30 C-1 26 -4 21 -6 15 C-6 7 -6 7 -6 4 C-4 3 -3 2 -1 1 C-1 1 -0 0 0 0 Z " fill="#62687A" transform="translate(54,496)"/>
<path d="M0 0 C21 -0 40 1 59 8 C58 8 58 9 57 9 C57 10 57 11 57 12 C55 13 54 13 52 14 C52 12 52 11 52 9 C50 9 48 9 47 10 C39 10 32 9 25 6 C21 6 21 6 17 6 C15 7 12 7 10 7 C10 7 9 6 9 6 C6 6 3 5 0 5 C0 3 0 2 0 0 Z " fill="#D7D9E1" transform="translate(255,40)"/>
<path d="M0 0 C2 5 2 5 1 9 C1 10 1 11 1 12 C5 16 5 16 10 19 C10 21 11 22 11 24 C10 24 10 24 7 26 C3 24 3 24 -1 21 C-2 20 -3 20 -4 19 C-6 18 -9 16 -11 14 C-11 13 -11 13 -11 12 C-12 12 -12 12 -13 12 C-14 11 -15 10 -16 9 C-16 7 -16 6 -16 4 C-11 -0 -6 -1 0 0 Z " fill="#C2C5D1" transform="translate(304,360)"/>
<path d="M0 0 C0 1 1 1 1 2 C2 2 4 3 5 3 C9 9 11 14 10 21 C9 22 8 23 7 24 C4 23 4 23 1 22 C-1 22 -2 21 -4 21 C-9 19 -9 19 -12 16 C-11 12 -11 12 -8 10 C-4 7 -2 4 0 0 Z " fill="#F6AE1D" transform="translate(248,245)"/>
<path d="M0 0 C1 0 1 0 2 0 C5 4 7 7 9 11 C10 12 11 13 12 14 C12 15 12 15 12 16 C13 16 13 16 14 16 C14 17 14 17 14 18 C4 18 4 18 0 16 C-5 16 -5 16 -10 18 C-10 19 -11 19 -11 20 C-12 20 -12 20 -13 20 C-13 19 -13 17 -12 16 C-12 14 -12 13 -12 11 C-12 11 -13 10 -13 10 C-13 8 -13 6 -13 4 C-12 4 -10 4 -9 4 C-9 5 -9 5 -9 6 C-8 5 -6 3 -5 2 C-4 2 -2 1 -1 1 C-1 1 -0 0 0 0 Z " fill="#C2C5D1" transform="translate(121,233)"/>
<path d="M0 0 C1 -0 1 -0 6 -0 C7 -0 8 0 9 0 C12 0 15 0 18 -0 C29 0 41 0 53 1 C52 2 51 4 51 5 C46 6 42 6 38 6 C36 6 35 6 34 6 C31 6 28 6 25 6 C21 6 17 6 12 6 C9 6 7 6 4 6 C3 6 3 6 0 6 C-3 6 -6 5 -9 5 C-10 4 -11 2 -11 1 C-8 -1 -4 0 0 0 Z " fill="#EBECEF" transform="translate(227.1875,653.8671875)"/>
<path d="M0 0 C1 1 1 1 2 2 C2 3 1 5 1 6 C-1 7 -2 7 -4 8 C-4 9 -4 11 -4 12 C-3 13 -1 13 0 14 C-6 15 -9 12 -14 10 C-18 8 -21 8 -25 8 C-25 3 -24 2 -20 -2 C-13 -4 -7 -2 0 0 Z " fill="#80869A" transform="translate(438,476)"/>
<path d="M0 0 C5 1 9 2 14 4 C15 5 17 5 18 6 C21 8 23 10 25 14 C29 17 29 17 32 19 C31 20 30 21 29 22 C22 21 14 18 8 14 C8 13 8 12 8 11 C7 11 7 11 3 9 C1 8 -1 7 -3 6 C-3 5 -2 4 -2 3 C-1 3 -1 3 0 3 C0 2 0 1 0 0 Z " fill="#BFC2CE" transform="translate(312,49)"/>
<path d="M0 0 C3 3 3 4 4 8 C4 9 4 10 4 11 C6 19 6 19 4 22 C2 25 -0 28 -3 30 C-4 30 -6 29 -7 29 C-8 24 -8 21 -7 17 C-7 16 -7 16 -7 12 C-6 8 -5 5 -4 1 C-3 1 -1 0 0 0 Z " fill="#BDC0CC" transform="translate(227,221)"/>
<path d="M0 0 C4 4 5 6 6 11 C5 14 5 14 2 16 C-2 16 -2 16 -5 15 C-5 14 -5 14 -6 10 C-8 10 -9 10 -11 10 C-15 8 -16 7 -17 2 C-11 -2 -7 -3 0 0 Z " fill="#C2C5D1" transform="translate(326,434)"/>
<path d="M0 0 C3 -0 6 -0 9 -0 C11 -0 13 -0 15 -0 C17 -0 18 -0 20 -0 C25 0 29 2 34 4 C34 5 34 5 34 5 C27 5 20 5 12 6 C10 6 7 6 5 6 C1 6 -2 6 -6 6 C-7 6 -8 6 -9 6 C-12 6 -12 6 -17 5 C-18 4 -18 3 -19 1 C-16 -2 -5 0 0 0 Z " fill="#EBECEF" transform="translate(162.95263671875,649.704833984375)"/>
<path d="M0 0 C3 0 3 0 7 4 C6 9 4 12 2 15 C2 17 2 19 2 20 C-0 19 -3 18 -5 16 C-6 16 -7 15 -9 15 C-9 14 -10 13 -11 12 C-11 9 -11 9 -10 6 C-10 5 -10 3 -10 1 C-8 -1 -3 0 0 0 Z " fill="#80869A" transform="translate(50.01953125,447.57421875)"/>
<path d="M0 0 C4 0 4 0 7 -0 C8 -1 8 -1 11 -1 C13 3 13 3 12 8 C-10 7 -10 7 -20 5 C-21 5 -22 5 -22 5 C-22 4 -22 3 -22 2 C-15 -1 -8 -1 0 0 Z " fill="#C2C5D1" transform="translate(403.421875,254.7734375)"/>
<path d="M0 0 C14 9 25 22 33 36 C32 37 31 37 30 38 C29 37 28 36 27 35 C27 34 28 34 28 33 C27 32 25 32 24 31 C22 28 20 26 17 23 C13 18 9 13 4 9 C0 6 0 6 -1 1 C-1 1 -0 0 0 0 Z " fill="#D7D9E1" transform="translate(350,69)"/>
<path d="M0 0 C1 0 3 0 4 0 C5 0 5 0 8 0 C8 1 8 2 8 2 C10 3 10 3 23 4 C23 5 23 5 23 5 C19 5 19 5 3 6 C3 8 3 9 3 10 C-3 10 -3 10 -7 9 C-10 9 -13 9 -16 9 C-16 5 -15 4 -12 2 C-8 -0 -4 -0 0 0 Z " fill="#C9CBD5" transform="translate(384.375,640.8125)"/>
<path d="M0 0 C4 3 5 5 8 9 C8 10 7 11 7 12 C5 12 4 12 2 12 C0 12 -1 13 -3 13 C-2 21 -2 21 0 23 C-0 24 -1 26 -1 27 C-6 30 -6 30 -10 30 C-10 24 -9 20 -6 15 C-6 14 -6 14 -5 10 C-4 6 -3 4 0 0 Z " fill="#F7AD23" transform="translate(277,241)"/>
</svg>
