<?xml version="1.0" encoding="UTF-8"?>
<!-- Generator: visioncortex VTracer 0.6.12 -->
<svg version="1.1" xmlns="http://www.w3.org/2000/svg" width="676" height="544">
<path d="M0 0 C3 -1 3 -1 6 -0 C7 -1 7 -1 9 -1 C10 -0 11 -0 12 0 C13 1 13 3 14 4 C18 4 21 4 25 4 C29 4 32 4 36 4 C37 5 37 7 38 8 C41 8 41 8 45 8 C49 8 49 8 52 8 C53 9 53 11 54 12 C56 12 58 12 60 12 C61 13 61 15 62 16 C63 16 63 16 66 18 C66 19 66 19 66 20 C68 20 70 20 72 20 C73 21 73 23 74 24 C75 24 75 24 78 26 C78 27 78 27 78 28 C80 28 82 28 84 28 C85 29 85 31 86 32 C87 33 89 33 90 34 C90 35 90 35 90 36 C91 36 92 36 93 36 C93 37 93 38 93 39 C94 43 94 43 98 46 C98 47 98 47 98 48 C99 49 101 49 102 50 C102 51 102 51 102 52 C103 52 104 52 105 52 C105 53 105 54 105 55 C106 57 106 58 106 59 C107 59 108 60 109 60 C109 62 110 65 110 67 C111 67 112 68 113 68 C113 72 114 75 114 79 C115 79 116 80 117 80 C117 84 118 87 118 91 C119 91 120 92 121 92 C121 96 122 99 122 103 C123 103 124 104 125 104 C125 108 126 111 126 115 C127 115 128 115 129 115 C130 115 130 115 133 115 C134 115 134 115 137 115 C138 116 139 116 140 116 C141 117 141 119 142 120 C144 120 146 120 148 120 C149 121 149 123 150 124 C152 124 154 124 156 124 C157 125 157 127 158 128 C159 129 161 129 162 130 C162 131 162 131 162 132 C163 133 165 133 166 134 C166 135 166 135 166 136 C167 137 169 137 170 138 C170 139 170 139 170 140 C171 141 173 141 174 142 C174 143 174 143 174 144 C175 145 177 145 178 146 C178 147 178 147 178 148 C179 148 180 148 181 148 C181 149 181 150 181 151 C182 153 182 154 182 155 C183 155 184 156 185 156 C185 158 186 161 186 163 C187 163 188 164 189 164 C189 168 189 172 190 175 C190 179 190 183 190 187 C191 188 192 188 193 189 C193 191 192 192 192 194 C191 194 191 195 190 195 C190 200 190 205 190 210 C189 213 189 215 189 218 C188 218 187 219 186 219 C186 220 186 221 186 222 C185 224 185 225 185 226 C184 226 183 227 182 227 C182 228 182 229 182 230 C181 232 181 233 181 234 C180 234 179 235 178 235 C177 239 177 239 177 242 C176 242 175 242 174 242 C173 243 173 245 172 246 C171 246 171 246 170 246 C169 247 169 249 168 250 C167 250 167 250 166 250 C165 251 165 253 164 254 C163 254 163 254 162 254 C161 255 161 257 160 258 C158 258 156 258 154 258 C153 259 153 261 152 262 C151 262 151 262 150 262 C149 263 149 265 148 266 C146 266 144 266 142 266 C141 267 141 269 140 270 C139 270 139 271 138 271 C138 272 138 274 138 275 C139 276 140 276 141 277 C141 278 141 279 142 280 C142 281 142 282 142 283 C143 283 144 284 145 284 C145 286 146 289 146 291 C147 291 148 292 149 292 C149 296 150 299 150 303 C151 303 152 304 153 304 C153 308 153 308 153 312 C153 314 153 316 153 318 C153 319 153 321 153 323 C153 325 153 327 153 328 C153 330 153 332 153 334 C153 335 153 337 153 338 C153 340 153 341 153 342 C152 342 151 343 150 343 C150 345 150 347 150 348 C149 350 149 352 149 354 C148 354 147 355 146 355 C146 356 146 357 146 358 C145 360 145 361 145 362 C144 362 143 363 142 363 C141 367 141 367 141 370 C140 370 139 370 138 370 C137 371 137 373 136 374 C135 374 135 374 134 374 C133 375 133 377 132 378 C131 378 131 378 130 378 C129 379 129 381 128 382 C127 382 127 382 126 382 C125 383 125 385 124 386 C123 386 123 386 122 386 C121 387 121 389 120 390 C118 390 116 390 114 390 C113 391 113 393 112 394 C110 394 108 394 106 394 C105 395 105 397 104 398 C103 398 103 399 102 399 C102 401 101 404 101 406 C100 406 99 406 98 406 C97 407 97 409 96 410 C95 410 95 410 94 410 C93 411 93 413 92 414 C91 414 91 414 90 414 C89 415 89 417 88 418 C87 418 87 418 86 418 C85 419 85 421 84 422 C83 422 83 422 82 422 C81 423 81 425 80 426 C79 426 79 426 78 426 C77 427 77 429 76 430 C75 430 75 430 74 430 C73 431 73 433 72 434 C70 434 68 434 66 434 C65 435 65 437 64 438 C63 438 63 438 62 438 C61 439 61 441 60 442 C58 442 56 442 54 442 C53 443 53 445 52 446 C51 446 51 447 50 447 C50 448 50 450 50 451 C52 451 53 451 55 451 C57 451 58 452 60 452 C61 453 61 455 62 456 C66 456 66 456 71 456 C72 456 72 456 77 456 C78 456 78 456 83 456 C87 456 91 456 95 456 C96 456 98 456 100 456 C101 456 103 456 104 456 C105 457 105 459 106 460 C110 460 115 460 119 460 C123 460 128 460 132 460 C133 461 133 463 134 464 C138 464 138 464 143 464 C148 464 148 464 152 464 C153 465 153 467 154 468 C156 468 158 468 160 468 C160 470 161 471 161 473 C160 473 159 474 158 474 C157 475 157 477 156 478 C153 478 149 478 146 478 C145 479 145 481 144 482 C139 482 135 482 130 482 C129 482 127 482 126 482 C125 483 125 485 124 486 C121 486 121 486 117 486 C117 486 117 486 113 486 C110 486 108 486 105 486 C104 486 104 486 101 486 C99 486 98 486 97 486 C96 486 95 486 94 486 C93 487 93 489 92 490 C89 490 89 490 84 490 C83 490 81 490 79 490 C78 490 76 490 74 490 C73 490 73 490 68 490 C61 490 53 490 45 490 C39 490 34 490 28 490 C26 490 25 490 23 490 C21 490 19 490 18 490 C17 490 17 490 13 490 C12 490 11 490 10 490 C9 491 9 493 8 494 C5 495 5 495 1 495 C-0 495 -2 495 -3 495 C-5 495 -6 495 -8 495 C-9 495 -11 495 -13 495 C-16 495 -19 495 -23 495 C-28 495 -33 495 -38 495 C-42 495 -45 495 -48 495 C-50 495 -51 495 -53 495 C-54 495 -54 495 -57 495 C-58 495 -60 495 -61 495 C-62 494 -62 494 -64 494 C-65 493 -65 491 -66 490 C-69 490 -69 490 -72 490 C-74 490 -75 490 -76 490 C-77 490 -77 490 -81 490 C-82 490 -83 490 -85 490 C-90 490 -94 490 -99 490 C-105 490 -111 490 -117 490 C-118 490 -118 490 -122 490 C-123 490 -124 490 -126 490 C-127 490 -128 490 -129 490 C-130 490 -131 490 -132 490 C-133 489 -133 487 -134 486 C-137 486 -137 486 -141 486 C-141 486 -141 486 -145 486 C-145 486 -145 486 -149 486 C-152 486 -155 486 -157 486 C-159 486 -160 486 -161 486 C-162 486 -163 486 -164 486 C-165 485 -165 483 -166 482 C-170 482 -170 482 -175 482 C-180 482 -180 482 -184 482 C-185 481 -185 479 -186 478 C-190 478 -193 478 -197 478 C-201 478 -202 477 -205 474 C-205 473 -205 473 -205 472 C-203 470 -203 470 -200 468 C-198 468 -196 468 -194 468 C-193 467 -193 465 -192 464 C-187 464 -183 464 -178 464 C-177 464 -175 464 -174 464 C-173 463 -173 461 -172 460 C-169 460 -169 460 -164 460 C-163 460 -161 460 -160 460 C-157 460 -153 460 -150 460 C-149 460 -147 460 -146 460 C-144 460 -143 460 -141 460 C-140 460 -139 460 -138 460 C-137 459 -137 457 -136 456 C-132 456 -129 455 -125 455 C-124 455 -124 455 -122 455 C-119 455 -117 455 -114 455 C-114 454 -114 452 -114 451 C-116 451 -117 451 -119 451 C-120 451 -120 451 -124 450 C-125 449 -125 447 -126 446 C-128 446 -130 446 -132 446 C-133 445 -133 443 -134 442 C-136 442 -139 442 -141 442 C-141 442 -141 442 -142 439 C-146 438 -146 438 -150 438 C-151 439 -151 441 -152 442 C-154 442 -156 442 -158 442 C-159 443 -159 445 -160 446 C-163 446 -167 446 -170 446 C-171 447 -171 449 -172 450 C-176 450 -179 450 -183 450 C-184 450 -185 450 -186 450 C-187 451 -187 453 -188 454 C-191 455 -191 455 -194 454 C-195 455 -195 455 -197 455 C-198 454 -199 454 -200 454 C-200 453 -200 453 -202 450 C-204 450 -206 450 -208 450 C-208 449 -208 449 -210 446 C-213 445 -213 445 -216 446 C-217 445 -218 445 -219 445 C-220 446 -221 446 -222 446 C-223 447 -223 449 -224 450 C-228 450 -232 451 -236 450 C-237 451 -238 451 -239 451 C-243 451 -243 451 -248 450 C-249 449 -249 447 -250 446 C-252 446 -254 446 -256 446 C-257 445 -257 443 -258 442 C-259 442 -260 442 -261 442 C-261 437 -261 433 -261 428 C-260 428 -259 428 -258 428 C-258 427 -258 427 -256 424 C-255 424 -255 424 -254 424 C-254 423 -254 423 -252 420 C-251 420 -251 419 -250 419 C-250 418 -250 416 -250 415 C-251 414 -252 414 -253 413 C-253 408 -253 408 -253 404 C-252 404 -251 404 -250 404 C-250 403 -250 403 -248 400 C-246 400 -244 400 -242 400 C-242 399 -242 399 -240 396 C-238 396 -236 396 -234 396 C-234 395 -234 395 -232 392 C-231 392 -231 392 -230 392 C-230 391 -230 391 -228 388 C-227 388 -227 388 -226 388 C-225 387 -225 385 -224 384 C-222 384 -220 384 -218 384 C-217 383 -217 381 -216 380 C-215 380 -215 380 -214 380 C-213 379 -213 377 -212 376 C-210 376 -208 376 -206 376 C-205 375 -205 373 -204 372 C-203 372 -203 372 -202 372 C-201 371 -201 369 -200 368 C-199 368 -199 367 -198 367 C-198 364 -198 360 -198 357 C-198 355 -198 352 -198 350 C-198 347 -198 343 -198 340 C-198 337 -197 334 -197 330 C-197 328 -197 326 -197 324 C-197 323 -197 322 -197 320 C-196 320 -195 319 -194 319 C-194 316 -194 316 -194 312 C-193 307 -193 307 -193 304 C-192 304 -191 303 -190 303 C-190 301 -190 299 -190 298 C-189 296 -189 294 -189 292 C-188 292 -187 291 -186 291 C-186 290 -186 289 -186 288 C-185 286 -185 285 -185 284 C-184 284 -183 283 -182 283 C-182 282 -182 281 -182 280 C-181 278 -181 277 -181 276 C-180 276 -179 275 -178 275 C-178 274 -178 273 -178 272 C-177 270 -177 269 -177 268 C-176 268 -175 267 -174 267 C-174 266 -174 265 -174 264 C-173 262 -173 261 -173 260 C-172 260 -171 259 -170 259 C-169 255 -169 255 -169 252 C-168 252 -167 252 -166 252 C-165 251 -165 249 -164 248 C-163 248 -163 247 -162 247 C-162 245 -161 242 -161 240 C-160 240 -159 240 -158 240 C-157 239 -157 237 -156 236 C-155 236 -155 235 -154 235 C-154 233 -153 230 -153 228 C-152 228 -151 228 -150 228 C-149 227 -149 225 -148 224 C-147 224 -147 223 -146 223 C-146 222 -146 221 -146 220 C-145 219 -145 219 -145 216 C-144 216 -143 215 -142 215 C-142 214 -142 213 -142 212 C-141 210 -141 209 -141 208 C-140 208 -139 207 -138 207 C-138 206 -138 205 -138 204 C-137 202 -137 201 -137 200 C-136 200 -135 199 -134 199 C-134 197 -134 195 -134 194 C-133 192 -133 190 -133 188 C-132 188 -131 187 -130 187 C-130 185 -130 183 -130 182 C-129 180 -129 178 -129 176 C-128 176 -127 175 -126 175 C-126 171 -126 171 -126 166 C-125 160 -125 160 -125 156 C-124 156 -123 155 -122 155 C-122 151 -122 151 -122 146 C-121 140 -121 140 -121 136 C-120 136 -119 135 -118 135 C-118 131 -118 131 -118 126 C-117 120 -117 120 -117 116 C-116 116 -115 115 -114 115 C-114 113 -114 111 -114 110 C-113 108 -113 106 -113 104 C-112 104 -111 103 -110 103 C-110 101 -110 99 -110 98 C-109 96 -109 94 -109 92 C-108 92 -107 91 -106 91 C-106 90 -106 89 -106 88 C-105 86 -105 85 -105 84 C-104 84 -103 83 -102 83 C-102 81 -102 79 -102 78 C-101 76 -101 74 -101 72 C-100 72 -99 71 -98 71 C-97 67 -97 67 -97 64 C-96 64 -95 64 -94 64 C-93 63 -93 61 -92 60 C-91 60 -91 59 -90 59 C-90 57 -89 54 -89 52 C-88 52 -87 52 -86 52 C-85 51 -85 49 -84 48 C-83 48 -83 48 -82 48 C-81 47 -81 45 -80 44 C-79 44 -79 43 -78 43 C-78 41 -77 38 -77 36 C-76 36 -75 36 -74 36 C-73 35 -73 33 -72 32 C-70 32 -68 32 -66 32 C-65 31 -65 29 -64 28 C-63 28 -63 28 -62 28 C-61 27 -61 25 -60 24 C-59 24 -59 24 -58 24 C-57 23 -57 21 -56 20 C-54 20 -52 20 -50 20 C-49 19 -49 17 -48 16 C-46 16 -44 16 -42 16 C-41 15 -41 13 -40 12 C-38 12 -36 12 -34 12 C-33 11 -33 9 -32 8 C-29 8 -25 8 -22 8 C-21 7 -21 5 -20 4 C-15 4 -11 4 -6 4 C-5 4 -3 4 -2 4 C-1 3 -1 1 0 0 Z " fill="#0E0D10" transform="translate(286,25)"/>
<path d="M0 0 C4 4 7 7 11 11 C12 12 13 13 13 13 C27 27 35 42 38 61 C39 66 40 70 42 75 C42 77 42 79 42 81 C38 83 38 83 33 84 C31 85 30 85 28 86 C22 87 17 87 11 86 C7 86 5 86 1 88 C-1 91 -1 91 -3 95 C-6 101 -9 106 -14 110 C-17 111 -20 111 -23 111 C-33 111 -40 118 -47 125 C-50 129 -52 131 -53 136 C-51 147 -44 156 -37 164 C-35 167 -36 170 -35 173 C-34 190 -27 205 -16 217 C-12 221 -12 221 -12 227 C-14 231 -14 231 -16 235 C-19 240 -22 245 -24 250 C-27 255 -27 255 -30 257 C-65 258 -95 249 -123 227 C-129 223 -135 222 -142 220 C-146 219 -146 219 -150 217 C-159 214 -174 221 -183 224 C-188 226 -192 229 -196 232 C-200 235 -200 235 -203 235 C-208 236 -209 237 -212 241 C-213 245 -213 245 -213 249 C-212 249 -211 249 -210 249 C-210 250 -211 251 -211 253 C-215 263 -217 273 -216 284 C-216 286 -216 287 -216 288 C-216 297 -215 305 -212 313 C-210 320 -210 320 -211 322 C-211 332 -205 340 -198 347 C-179 366 -155 374 -129 376 C-128 376 -128 376 -125 376 C-117 377 -108 375 -102 369 C-98 366 -95 367 -91 366 C-78 366 -68 363 -59 354 C-58 352 -57 351 -56 349 C-52 343 -47 342 -40 339 C-31 336 -25 332 -19 324 C-17 319 -17 319 -17 313 C-17 310 -17 310 -16 307 C-13 305 -10 303 -6 302 C-1 299 3 295 5 289 C6 279 6 279 3 275 C2 270 3 268 5 264 C6 263 6 263 7 262 C9 259 9 259 11 254 C13 249 16 245 19 241 C26 239 32 240 39 243 C49 273 45 309 36 339 C35 340 35 341 35 342 C29 359 18 371 6 384 C5 385 4 387 2 388 C-1 391 -6 394 -10 397 C-11 398 -12 398 -13 399 C-17 401 -19 402 -23 402 C-31 403 -34 405 -40 410 C-50 414 -60 416 -71 417 C-74 418 -78 418 -81 419 C-88 419 -94 419 -101 419 C-103 419 -105 419 -106 419 C-107 419 -107 419 -112 419 C-113 419 -113 419 -117 419 C-123 419 -126 418 -131 413 C-133 411 -133 411 -138 411 C-141 413 -141 413 -143 415 C-153 420 -169 412 -178 409 C-188 406 -197 401 -206 395 C-207 394 -209 393 -210 392 C-222 384 -233 372 -240 360 C-240 360 -240 360 -243 357 C-256 337 -256 311 -252 288 C-251 281 -249 275 -246 268 C-245 266 -245 265 -244 263 C-242 258 -239 252 -236 247 C-236 246 -235 245 -235 244 C-233 242 -232 239 -230 236 C-229 235 -228 233 -228 232 C-222 223 -217 213 -210 205 C-203 197 -199 188 -196 178 C-195 176 -195 175 -194 173 C-186 156 -182 137 -178 118 C-176 108 -174 97 -171 87 C-171 86 -170 84 -170 83 C-168 75 -166 68 -163 61 C-163 60 -162 58 -162 57 C-154 38 -144 22 -129 9 C-128 9 -128 9 -127 9 C-127 9 -127 9 -126 6 C-92 -21 -36 -29 0 0 Z " fill="#C0C4CF" transform="translate(354,57)"/>
<path d="M0 0 C4 4 7 7 11 11 C12 12 13 13 13 13 C27 27 35 42 38 61 C39 66 40 70 42 75 C42 77 42 79 42 81 C38 83 38 83 33 84 C31 85 30 85 28 86 C22 87 17 87 11 86 C7 86 5 86 1 88 C-1 91 -1 91 -3 95 C-6 101 -9 106 -14 110 C-17 111 -20 111 -23 111 C-33 111 -40 118 -47 125 C-50 129 -52 131 -53 136 C-52 143 -48 149 -44 155 C-44 156 -43 156 -43 157 C-43 158 -44 158 -44 159 C-49 156 -52 153 -55 148 C-59 146 -61 146 -66 147 C-66 148 -67 148 -67 149 C-69 150 -70 150 -72 151 C-73 152 -74 153 -75 154 C-76 154 -77 155 -78 155 C-83 157 -84 159 -87 163 C-94 171 -102 174 -112 177 C-112 178 -113 178 -113 179 C-115 179 -116 179 -118 179 C-118 182 -118 184 -118 187 C-119 187 -121 186 -122 186 C-121 186 -120 186 -119 186 C-119 185 -119 185 -120 181 C-125 179 -129 179 -135 179 C-135 180 -136 181 -136 182 C-139 183 -141 183 -144 183 C-146 183 -147 183 -148 183 C-151 183 -151 183 -154 180 C-155 180 -155 180 -158 180 C-164 179 -167 176 -172 173 C-174 172 -176 171 -178 171 C-180 170 -181 170 -183 169 C-183 168 -183 168 -183 167 C-184 167 -185 167 -186 167 C-186 168 -186 169 -186 170 C-187 173 -188 176 -190 179 C-190 180 -190 181 -191 182 C-192 185 -192 185 -193 186 C-195 186 -196 186 -198 186 C-197 180 -195 176 -192 170 C-185 153 -181 136 -178 118 C-176 108 -174 97 -171 87 C-171 86 -170 84 -170 83 C-168 75 -166 68 -163 61 C-163 60 -162 58 -162 57 C-154 38 -144 22 -129 9 C-128 9 -128 9 -127 9 C-127 9 -127 9 -126 6 C-92 -21 -36 -29 0 0 Z " fill="#C9CCD6" transform="translate(354,57)"/>
<path d="M0 0 C1 0 3 1 4 1 C8 3 8 3 11 5 C10 5 10 5 9 5 C15 20 33 30 47 36 C64 43 79 46 97 47 C107 47 119 48 129 53 C129 54 129 54 131 55 C135 57 137 60 139 64 C139 70 139 70 137 72 C128 81 115 81 103 81 C103 84 103 84 104 88 C107 88 107 88 110 89 C113 90 113 90 116 93 C117 98 116 100 114 104 C104 113 93 115 80 115 C79 115 77 115 75 115 C74 115 72 115 71 115 C71 116 72 117 72 119 C71 119 71 119 70 119 C73 122 73 122 77 125 C77 130 77 130 74 133 C66 139 57 138 47 138 C43 137 40 136 37 134 C34 134 34 134 29 135 C29 136 28 137 28 138 C29 139 30 141 31 143 C30 147 30 147 27 149 C1 150 -25 141 -44 124 C-50 119 -55 113 -59 106 C-61 104 -61 104 -66 102 C-72 91 -74 79 -74 66 C-73 65 -73 64 -73 63 C-73 51 -71 41 -66 31 C-67 31 -68 31 -69 31 C-70 25 -70 23 -66 19 C-63 17 -63 17 -60 16 C-56 15 -54 14 -51 12 C-41 5 -31 1 -19 -1 C-11 -2 -8 -3 0 0 Z " fill="#888EA0" transform="translate(210.0625,275.4375)"/>
<path d="M0 0 C1 1 2 2 4 3 C5 4 6 5 7 6 C12 12 15 18 18 24 C19 25 20 26 20 27 C27 41 27 57 24 72 C16 93 3 109 -17 119 C-35 127 -50 130 -70 123 C-73 122 -76 120 -78 119 C-80 119 -81 118 -82 118 C-94 112 -102 102 -108 90 C-113 76 -115 62 -110 48 C-110 47 -110 45 -110 44 C-109 36 -105 29 -102 22 C-101 21 -100 20 -100 19 C-94 6 -82 -3 -69 -8 C-46 -16 -20 -13 0 0 Z " fill="#292F3E" transform="translate(442.5,161.9375)"/>
<path d="M0 0 C4 -0 4 -0 8 0 C8 1 8 1 10 4 C11 4 12 5 13 5 C13 7 12 8 12 10 C11 10 11 11 10 11 C10 14 10 16 10 19 C12 19 13 19 15 19 C17 19 19 19 21 19 C22 19 23 19 24 19 C27 19 29 20 32 20 C32 20 32 20 34 23 C35 23 37 23 38 23 C38 21 39 18 39 16 C40 16 41 16 42 16 C43 15 43 13 44 12 C45 12 45 12 46 12 C47 11 47 9 48 8 C49 8 49 8 50 8 C51 7 51 5 52 4 C57 5 57 5 61 8 C61 9 61 9 61 10 C60 10 58 11 57 11 C57 15 57 15 57 18 C56 18 55 18 54 18 C53 19 53 21 52 22 C51 22 51 23 50 23 C50 24 50 26 50 27 C51 28 53 29 54 30 C54 31 54 31 54 32 C55 33 57 33 58 34 C58 35 58 35 58 36 C60 36 62 36 64 36 C64 37 64 37 66 40 C67 40 68 41 69 41 C69 42 70 42 70 43 C71 43 73 43 74 43 C75 42 75 41 76 40 C77 40 77 40 78 40 C79 39 79 37 80 36 C81 36 81 36 82 36 C83 35 83 33 84 32 C88 32 88 32 92 32 C92 33 92 33 94 36 C95 36 96 37 97 37 C97 39 96 40 96 42 C95 42 95 42 94 42 C93 43 93 45 92 46 C91 46 91 46 89 46 C88 47 87 47 86 47 C85 51 85 51 85 54 C84 54 83 54 82 54 C81 55 81 57 80 58 C80 58 80 58 78 59 C78 60 78 62 78 63 C79 64 80 64 81 65 C82 68 82 68 82 72 C82 73 82 75 82 76 C82 77 82 77 82 79 C84 79 86 79 87 79 C88 79 88 79 93 80 C94 84 94 84 94 87 C95 87 96 88 97 88 C97 89 97 90 97 92 C97 93 98 94 98 95 C102 96 102 96 105 96 C105 99 105 103 105 106 C104 106 103 106 102 106 C102 107 102 107 100 110 C95 110 95 110 91 110 C91 109 91 108 91 107 C90 103 90 103 86 99 C85 99 83 99 82 99 C82 100 82 100 82 102 C82 103 82 103 81 106 C80 106 79 107 78 107 C77 111 77 111 77 114 C76 114 75 114 74 114 C74 115 74 115 72 118 C72 118 72 118 70 119 C70 120 70 122 70 123 C71 124 72 124 73 125 C73 126 73 127 74 128 C74 129 74 130 74 131 C75 131 76 132 77 132 C77 137 77 137 77 142 C76 143 74 145 73 146 C69 145 68 143 66 140 C66 139 66 139 66 138 C65 138 64 138 63 138 C63 137 63 136 63 135 C63 134 63 134 62 131 C58 130 58 130 54 130 C53 131 53 133 52 134 C50 134 48 135 46 135 C46 136 45 137 45 138 C43 138 41 138 40 138 C38 138 36 139 34 139 C33 144 33 144 33 150 C32 150 31 151 30 151 C29 152 29 153 28 154 C26 154 25 153 23 153 C23 152 22 152 22 151 C21 151 20 150 19 150 C19 146 18 143 18 139 C16 139 15 139 13 139 C11 139 9 139 7 139 C6 139 5 139 4 139 C1 139 1 139 -4 138 C-4 137 -4 137 -6 134 C-7 134 -8 133 -9 133 C-9 132 -10 132 -10 131 C-11 131 -13 131 -14 131 C-18 135 -18 136 -19 142 C-20 142 -21 143 -22 143 C-23 144 -23 145 -24 146 C-29 145 -29 145 -33 141 C-33 139 -32 138 -32 136 C-31 136 -31 136 -30 136 C-30 135 -30 135 -28 132 C-27 132 -27 132 -26 132 C-25 131 -25 129 -24 128 C-23 128 -23 127 -22 127 C-22 126 -22 124 -22 123 C-23 123 -24 123 -25 123 C-27 123 -28 122 -29 122 C-30 118 -30 118 -30 115 C-30 115 -30 115 -33 114 C-33 113 -33 112 -33 110 C-33 109 -34 108 -34 107 C-38 106 -38 106 -42 106 C-43 107 -43 109 -44 110 C-45 110 -45 110 -46 110 C-47 111 -47 113 -48 114 C-49 115 -50 117 -51 118 C-54 117 -54 117 -57 114 C-57 109 -57 109 -57 104 C-56 104 -55 104 -54 104 C-53 103 -53 101 -52 100 C-51 100 -51 100 -50 100 C-49 99 -49 97 -48 96 C-48 96 -48 96 -46 95 C-46 94 -46 92 -46 91 C-51 91 -56 90 -61 90 C-61 85 -61 81 -61 76 C-60 76 -59 76 -58 76 C-56 75 -55 75 -54 75 C-53 74 -53 73 -52 72 C-50 72 -49 73 -47 73 C-47 74 -46 75 -46 76 C-42 77 -42 77 -38 75 C-37 71 -37 67 -37 63 C-37 62 -37 61 -37 60 C-37 60 -37 60 -34 59 C-34 56 -34 56 -34 51 C-34 50 -34 48 -34 47 C-34 46 -34 46 -34 43 C-35 42 -37 41 -38 40 C-38 39 -38 39 -38 38 C-40 38 -43 38 -45 38 C-45 37 -45 37 -45 36 C-44 35 -43 35 -42 34 C-42 32 -41 30 -41 28 C-36 28 -32 28 -27 28 C-27 29 -27 30 -27 31 C-27 32 -27 32 -26 35 C-22 36 -22 36 -18 36 C-17 35 -17 33 -16 32 C-14 32 -12 32 -10 32 C-9 31 -9 29 -8 28 C-5 27 -5 27 -2 27 C-2 24 -2 22 -2 19 C-2 18 -2 16 -2 15 C-2 13 -2 12 -2 11 C-3 10 -4 10 -5 9 C-5 7 -4 6 -4 4 C-3 4 -3 4 -2 4 C-1 3 -1 1 0 0 Z " fill="#222022" transform="translate(530,337)"/>
<path d="M0 0 C6 -0 11 1 16 3 C26 33 22 70 13 99 C13 100 12 101 12 102 C6 119 -5 132 -17 144 C-18 146 -19 147 -20 148 C-24 152 -28 154 -33 157 C-34 158 -35 159 -36 159 C-39 162 -42 162 -46 162 C-48 163 -49 163 -50 163 C-54 163 -54 163 -59 163 C-59 162 -60 161 -61 159 C-66 160 -66 160 -68 162 C-71 163 -74 164 -78 164 C-78 164 -78 164 -81 165 C-103 171 -129 168 -152 165 C-152 166 -152 167 -152 167 C-156 169 -156 169 -160 168 C-162 166 -164 164 -166 162 C-168 159 -168 159 -172 156 C-175 153 -175 152 -176 147 C-175 147 -175 147 -170 147 C-168 147 -165 147 -163 147 C-161 147 -160 147 -159 147 C-147 147 -137 147 -126 142 C-118 139 -111 137 -102 135 C-98 134 -96 133 -94 129 C-94 128 -93 127 -93 126 C-91 121 -88 119 -84 116 C-82 114 -80 112 -79 109 C-75 103 -69 102 -63 100 C-54 97 -48 92 -42 84 C-40 79 -40 79 -40 73 C-40 70 -40 70 -39 67 C-36 65 -33 63 -29 62 C-23 59 -20 55 -18 49 C-17 39 -17 39 -20 35 C-21 30 -20 29 -17 24 C-17 24 -16 23 -16 22 C-14 19 -14 19 -12 15 C-6 2 -6 2 0 0 Z " fill="#CACDD6" transform="translate(376.8046875,296.76953125)"/>
<path d="M0 0 C4 2 6 3 9 6 C9 7 9 7 9 8 C13 10 13 10 17 12 C22 14 25 17 28 21 C30 22 31 23 33 24 C33 26 33 27 33 29 C26 34 18 36 10 36 C9 36 8 35 7 35 C3 34 -1 34 -6 34 C-7 34 -9 33 -11 33 C-12 34 -14 34 -15 34 C-16 36 -16 37 -17 39 C-13 44 -10 44 -4 46 C0 50 0 50 1 53 C1 54 0 56 0 57 C1 59 2 62 4 64 C6 69 6 74 6 79 C7 82 7 82 11 86 C14 86 14 86 18 85 C23 84 23 84 27 84 C31 88 31 88 32 91 C36 97 41 99 47 101 C48 102 50 102 51 103 C55 104 59 104 63 104 C64 104 64 104 67 101 C68 103 68 104 69 106 C68 106 68 106 67 106 C70 109 70 109 74 112 C74 117 74 117 71 120 C63 126 54 126 44 125 C40 124 37 123 34 122 C31 121 31 121 26 122 C26 122 26 122 25 125 C26 127 27 128 28 130 C27 134 27 134 24 136 C-2 138 -28 129 -47 112 C-53 106 -58 100 -62 94 C-64 91 -64 91 -69 89 C-75 78 -77 66 -76 54 C-76 53 -76 51 -76 50 C-76 39 -74 28 -69 18 C-70 18 -71 18 -72 18 C-73 13 -72 11 -70 7 C-65 3 -61 3 -55 3 C-55 4 -54 6 -54 7 C-55 9 -56 10 -57 12 C-57 15 -57 18 -56 21 C-56 30 -59 36 -64 43 C-68 47 -67 52 -67 57 C-66 58 -66 60 -65 61 C-61 62 -61 62 -59 61 C-55 57 -53 54 -50 50 C-45 41 -40 35 -32 28 C-31 27 -30 26 -29 25 C-25 21 -22 18 -18 16 C-13 12 -9 8 -5 3 C-3 2 -2 1 0 0 Z " fill="#7D8397" transform="translate(213,288)"/>
<path d="M0 0 C6 1 11 3 16 5 C19 6 23 6 26 7 C26 10 26 10 25 14 C24 14 23 15 22 15 C22 18 22 18 23 22 C27 24 29 24 33 24 C33 24 33 24 35 23 C40 23 42 22 46 25 C47 26 48 27 49 28 C53 29 55 29 59 28 C59 27 60 25 60 24 C60 24 60 24 63 24 C64 24 64 24 67 25 C68 25 69 25 71 25 C74 25 74 25 77 24 C78 21 78 21 78 18 C79 14 79 14 81 11 C85 11 89 10 92 10 C103 9 114 8 125 6 C129 5 133 4 138 4 C137 7 136 10 134 13 C134 14 133 15 133 16 C133 16 133 16 135 19 C139 19 143 19 147 18 C150 18 150 18 155 21 C162 25 162 25 167 24 C168 24 169 23 170 23 C170 22 171 21 171 20 C175 19 178 19 182 20 C183 20 183 20 186 19 C187 17 187 17 187 11 C186 10 186 10 183 7 C183 6 183 6 183 5 C189 5 194 5 200 5 C201 5 203 5 205 5 C206 5 206 5 209 5 C211 5 212 5 214 5 C215 5 216 5 217 5 C218 6 218 8 219 9 C223 9 228 9 232 9 C236 9 241 9 245 9 C246 10 246 12 247 13 C251 13 251 13 256 13 C261 13 261 13 265 13 C266 14 266 16 267 17 C269 17 271 17 273 17 C273 19 274 20 274 22 C273 22 272 23 271 23 C270 24 270 26 269 27 C266 27 262 27 259 27 C258 28 258 30 257 31 C252 31 248 31 243 31 C242 31 240 31 239 31 C238 32 238 34 237 35 C234 35 234 35 230 35 C229 35 228 35 226 35 C223 35 221 35 218 35 C216 35 215 35 214 35 C212 35 211 35 210 35 C209 35 208 35 207 35 C206 36 206 38 205 39 C202 39 202 39 197 39 C196 39 196 39 192 39 C191 39 189 39 187 39 C185 39 183 39 181 39 C174 39 166 39 158 39 C152 39 147 39 141 39 C139 39 138 39 136 39 C135 39 135 39 131 39 C130 39 130 39 126 39 C125 39 124 39 123 39 C122 40 122 42 121 43 C118 44 118 44 114 44 C113 44 111 44 110 44 C108 44 107 44 105 44 C104 44 102 44 100 44 C97 44 94 44 90 44 C85 44 80 44 75 44 C71 44 68 44 65 44 C63 44 62 44 60 44 C59 44 59 44 56 44 C55 44 53 44 52 44 C51 43 50 43 49 43 C49 42 49 42 47 39 C44 39 44 39 41 39 C40 39 40 39 37 39 C35 39 34 39 32 39 C32 39 32 39 28 39 C23 39 19 39 14 39 C8 39 2 39 -4 39 C-6 39 -7 39 -9 39 C-9 39 -9 39 -13 39 C-13 39 -13 39 -16 39 C-17 39 -18 39 -19 39 C-19 38 -19 38 -21 35 C-24 35 -24 35 -28 35 C-28 35 -28 35 -32 35 C-33 35 -35 35 -36 35 C-39 35 -42 35 -44 35 C-46 35 -47 35 -48 35 C-49 35 -49 35 -51 35 C-52 34 -52 32 -53 31 C-57 31 -57 31 -62 31 C-67 31 -67 31 -71 31 C-72 30 -72 28 -73 27 C-77 27 -80 27 -84 27 C-88 27 -89 26 -92 23 C-92 22 -92 22 -92 21 C-90 19 -90 19 -87 17 C-85 17 -83 17 -81 17 C-80 16 -80 14 -79 13 C-74 13 -70 13 -65 13 C-64 13 -62 13 -61 13 C-60 12 -60 10 -59 9 C-56 9 -56 9 -51 9 C-50 9 -48 9 -47 9 C-44 9 -40 9 -37 9 C-36 9 -34 9 -33 9 C-31 9 -30 9 -28 9 C-27 9 -26 9 -25 9 C-24 8 -24 6 -23 5 C-19 5 -16 4 -12 4 C-8 5 -5 4 -1 4 C-1 3 -0 1 0 0 Z " fill="#DBDDE3" transform="translate(173,476)"/>
<path d="M0 0 C5 3 6 6 9 11 C9 13 9 14 9 15 C9 16 9 16 10 18 C13 20 13 20 18 20 C21 19 24 17 26 14 C32 10 38 11 45 11 C54 15 63 23 68 32 C71 36 71 39 72 44 C72 45 72 45 74 48 C74 54 74 54 74 59 C73 60 72 60 71 60 C70 64 70 64 70 67 C71 68 72 69 73 70 C72 75 72 75 70 79 C68 79 66 79 65 78 C63 79 62 79 61 79 C60 79 59 79 59 78 C58 80 58 82 58 83 C54 86 54 86 51 87 C50 88 50 88 49 88 C39 90 32 88 23 84 C18 82 15 84 11 86 C1 91 1 91 -3 94 C-5 96 -5 96 -10 96 C-14 95 -14 95 -17 94 C-21 93 -24 95 -27 96 C-29 97 -30 97 -32 97 C-36 97 -38 98 -42 100 C-45 101 -48 102 -50 102 C-51 103 -51 103 -52 103 C-54 103 -56 103 -58 103 C-58 98 -57 96 -54 91 C-55 91 -56 91 -56 91 C-56 87 -55 84 -53 80 C-50 76 -50 76 -51 71 C-51 70 -50 69 -49 68 C-49 69 -49 70 -48 71 C-48 71 -48 71 -44 69 C-43 69 -43 69 -39 68 C-37 67 -35 66 -32 65 C-27 62 -23 60 -18 58 C-12 56 -8 54 -3 50 C-1 45 -1 45 -1 39 C-2 37 -2 37 -6 36 C-11 34 -14 34 -19 34 C-21 34 -22 34 -24 34 C-29 35 -32 36 -36 38 C-38 38 -40 38 -41 37 C-41 36 -41 35 -41 34 C-42 34 -43 34 -43 34 C-43 33 -43 32 -43 30 C-43 30 -42 30 -41 30 C-41 30 -41 30 -41 28 C-41 27 -41 27 -40 24 C-40 23 -40 21 -40 20 C-39 16 -39 16 -36 11 C-36 10 -36 9 -36 8 C-35 5 -35 5 -32 2 C-32 1 -31 -1 -30 -3 C-22 -7 -9 -3 0 0 Z " fill="#C0C4CF" transform="translate(231.2734375,111.54296875)"/>
<path d="M0 0 C10 7 16 19 19 31 C20 48 15 62 4 75 C-5 85 -16 91 -29 92 C-43 91 -56 86 -65 76 C-74 63 -75 51 -74 35 C-73 31 -72 28 -70 24 C-70 24 -69 24 -68 24 C-68 22 -68 21 -67 20 C-62 8 -54 2 -42 -4 C-28 -9 -13 -8 0 0 Z " fill="#E9EAED" transform="translate(425.1875,177.1875)"/>
<path d="M0 0 C4 3 5 4 7 8 C7 10 7 13 8 16 C9 32 16 47 27 59 C31 63 31 63 31 69 C29 73 29 73 27 77 C24 82 21 87 19 92 C16 97 16 97 13 99 C-22 100 -52 91 -80 69 C-86 65 -92 64 -99 62 C-107 60 -116 56 -121 49 C-121 48 -121 47 -121 46 C-117 42 -113 41 -107 41 C-102 42 -99 43 -94 46 C-87 49 -81 49 -74 49 C-72 49 -70 49 -68 49 C-62 48 -60 45 -55 41 C-51 41 -51 41 -47 41 C-42 41 -42 41 -39 41 C-37 37 -37 37 -36 32 C-27 27 -18 26 -8 25 C-5 24 -5 24 -2 22 C-2 18 -2 18 -1 12 C-1 2 -1 2 0 0 Z " fill="#CACCD6" transform="translate(311,215)"/>
<path d="M0 0 C6 0 8 2 12 6 C30 22 51 27 74 29 C75 29 75 29 78 29 C86 30 95 28 101 22 C105 19 108 19 112 19 C119 19 126 18 133 16 C133 22 133 22 131 25 C127 29 122 29 117 31 C109 33 102 35 95 39 C85 42 74 41 64 41 C63 41 63 41 60 41 C57 41 54 41 51 41 C53 47 56 50 61 54 C62 55 63 57 64 58 C65 59 66 60 67 61 C71 61 71 61 74 60 C74 59 74 59 74 58 C75 58 76 58 78 58 C140 62 140 62 150 55 C151 55 153 55 154 55 C158 54 158 54 161 51 C163 51 164 52 166 52 C166 53 167 54 167 55 C168 56 169 56 170 57 C160 67 146 68 132 70 C129 71 125 71 122 72 C115 72 109 72 102 72 C101 72 101 72 97 72 C96 72 96 72 91 72 C90 72 90 72 86 72 C80 72 77 71 72 66 C70 64 70 64 65 64 C62 66 62 66 60 68 C50 73 34 65 25 62 C15 59 6 54 -3 48 C-4 47 -6 46 -8 45 C-19 37 -31 25 -37 12 C-31 12 -31 12 -28 14 C-27 14 -26 14 -25 14 C-25 13 -25 11 -25 10 C-23 9 -23 9 -18 9 C-12 9 -9 8 -4 6 C-3 6 -1 5 0 5 C0 3 0 2 0 0 Z " fill="#BABDCA" transform="translate(151,404)"/>
<path d="M0 0 C1 4 1 7 0 11 C-4 14 -4 14 -6 14 C-6 16 -6 17 -6 19 C-7 24 -8 28 -11 33 C-11 34 -11 34 -11 35 C-8 36 -6 37 -3 38 C-2 37 -2 35 -1 34 C-1 34 -1 34 1 32 C1 34 1 36 0 37 C0 43 0 43 1 46 C6 49 11 49 17 48 C21 46 22 44 24 40 C26 35 26 33 24 28 C22 27 21 26 19 25 C20 23 20 22 21 20 C22 20 22 20 23 20 C23 19 23 19 23 18 C26 19 26 19 28 22 C28 23 29 24 29 25 C30 26 30 27 31 29 C35 40 35 54 33 66 C31 69 31 69 29 72 C28 73 27 74 27 75 C20 82 12 89 3 91 C1 91 -0 91 -2 91 C-5 88 -5 88 -5 83 C-5 82 -5 82 -5 78 C-6 78 -6 78 -9 80 C-9 79 -10 79 -10 78 C-10 79 -11 81 -11 82 C-12 85 -14 89 -15 92 C-25 94 -35 92 -43 87 C-47 83 -47 81 -47 77 C-47 77 -47 77 -46 74 C-46 64 -46 64 -47 62 C-46 59 -46 59 -45 55 C-44 54 -44 53 -44 51 C-42 48 -41 46 -37 44 C-30 45 -27 48 -22 53 C-18 56 -18 56 -14 58 C-10 57 -10 57 -8 56 C-8 52 -8 52 -8 48 C-11 45 -16 45 -21 44 C-22 44 -22 44 -24 43 C-24 42 -24 42 -24 41 C-25 41 -27 40 -28 40 C-28 37 -28 37 -28 32 C-28 27 -28 23 -31 18 C-37 16 -40 16 -46 16 C-49 17 -49 17 -51 20 C-52 26 -53 31 -50 36 C-49 36 -47 37 -46 37 C-45 40 -45 40 -45 43 C-48 50 -52 55 -57 61 C-57 61 -57 61 -60 62 C-60 62 -60 62 -61 64 C-62 64 -63 63 -64 63 C-68 47 -65 33 -58 19 C-55 15 -53 13 -50 11 C-49 10 -48 10 -47 9 C-35 -1 -14 -10 0 0 Z " fill="#646F8E" transform="translate(567,372)"/>
<path d="M0 0 C-0 2 -1 3 -1 5 C-2 5 -2 6 -3 6 C-2 6 -1 6 -0 7 C4 8 5 10 8 14 C15 23 15 23 18 26 C22 30 22 33 23 38 C24 40 25 41 26 43 C24 48 24 48 21 50 C18 51 16 52 13 53 C12 54 11 54 10 55 C9 59 10 61 11 65 C8 65 6 66 3 66 C2 66 0 66 -1 66 C-3 66 -4 66 -5 66 C-6 65 -6 63 -7 62 C-12 63 -12 63 -14 65 C-17 66 -21 66 -24 67 C-25 67 -25 67 -27 68 C-49 74 -76 70 -98 68 C-98 69 -98 69 -98 70 C-102 72 -102 72 -106 71 C-108 69 -110 67 -112 64 C-114 62 -114 62 -118 59 C-121 56 -122 54 -122 50 C-120 50 -118 50 -116 50 C-114 50 -111 50 -109 50 C-108 50 -108 50 -105 50 C-93 50 -83 50 -72 45 C-64 42 -57 40 -49 38 C-44 37 -43 35 -40 32 C-40 31 -40 30 -39 29 C-38 24 -35 22 -31 19 C-28 17 -27 15 -25 12 C-20 5 -13 3 -5 1 C-3 0 -3 0 0 0 Z " fill="#C9CCD6" transform="translate(323,394)"/>
<path d="M0 0 C4 3 7 6 11 10 C16 16 16 16 20 18 C22 18 24 18 25 18 C31 18 31 18 35 21 C36 22 37 23 38 24 C42 23 42 23 47 21 C58 20 68 23 78 29 C81 30 81 30 86 31 C93 33 98 36 104 40 C107 42 107 42 110 43 C111 44 112 44 113 45 C113 47 114 48 114 50 C112 53 112 53 109 55 C110 55 110 56 111 56 C102 56 95 56 87 53 C84 52 84 52 79 53 C79 54 78 55 78 56 C79 58 80 59 81 61 C80 65 80 65 77 67 C51 69 25 60 6 42 C-0 37 -5 31 -9 25 C-11 22 -11 22 -16 20 C-16 18 -16 16 -16 14 C-17 13 -17 12 -18 11 C-16 9 -16 9 -14 6 C-13 6 -12 5 -11 4 C-7 0 -6 0 0 0 Z " fill="#636980" transform="translate(160,357)"/>
<path d="M0 0 C9 6 17 13 22 24 C23 28 23 28 23 32 C23 32 23 32 25 36 C25 41 25 41 25 47 C24 47 24 47 22 48 C21 51 21 51 21 55 C21 55 21 55 24 58 C23 63 23 63 21 67 C19 66 18 66 16 66 C15 66 15 66 12 67 C12 67 12 67 10 66 C10 67 9 69 9 71 C5 73 5 73 2 75 C2 75 2 75 -0 76 C-13 77 -24 74 -34 66 C-41 56 -43 48 -42 36 C-42 35 -42 34 -42 32 C-42 22 -37 14 -30 7 C-20 -1 -12 -4 0 0 Z " fill="#EBECEE" transform="translate(280.0625,124.3125)"/>
<path d="M0 0 C1 1 2 1 3 2 C2 2 2 2 1 2 C1 3 2 4 2 5 C0 8 -2 11 -4 14 C-6 18 -8 22 -9 26 C-9 27 -8 29 -8 30 C-5 30 -5 30 -1 30 C7 29 7 29 10 30 C11 34 11 35 10 39 C8 46 8 52 8 59 C8 61 8 62 8 63 C8 72 9 80 12 88 C14 95 14 95 13 97 C13 103 13 104 16 109 C17 110 17 111 18 112 C20 115 23 119 25 122 C24 122 22 122 21 122 C21 124 21 125 21 127 C13 132 7 132 -2 132 C-3 132 -3 133 -4 133 C-4 134 -4 134 -3 137 C-9 136 -9 136 -10 135 C-11 135 -12 135 -14 135 C-18 134 -18 134 -21 129 C-22 128 -23 126 -24 124 C-25 123 -25 122 -26 121 C-34 97 -31 66 -22 43 C-21 41 -21 40 -20 38 C-18 32 -15 27 -12 22 C-12 21 -11 20 -11 19 C-10 17 -9 16 -8 14 C-5 9 -3 5 0 0 Z " fill="#C0C4CF" transform="translate(130,282)"/>
<path d="M0 0 C2 0 4 0 6 0 C7 2 7 2 6 7 C5 16 6 20 12 27 C13 28 13 29 14 30 C18 35 22 39 27 43 C30 49 29 54 28 61 C26 66 24 70 19 73 C18 73 18 73 15 74 C15 74 15 74 12 75 C11 76 11 78 10 79 C7 84 4 87 -1 90 C-5 90 -8 91 -12 91 C-13 91 -15 91 -17 91 C-24 91 -27 89 -32 85 C-32 85 -32 85 -35 83 C-39 80 -42 77 -43 72 C-44 72 -46 71 -47 71 C-50 66 -50 66 -50 61 C-47 62 -47 62 -44 63 C-43 65 -43 67 -42 69 C-40 69 -39 69 -37 69 C-35 65 -34 62 -34 57 C-32 51 -30 46 -27 40 C-27 40 -27 40 -24 39 C-23 38 -23 36 -22 35 C-17 31 -13 27 -8 23 C-1 18 -1 18 -1 12 C-1 11 -0 9 -0 8 C-0 6 -0 5 -0 3 C-0 2 -0 1 0 0 Z " fill="#D8DAE1" transform="translate(406,172)"/>
<path d="M0 0 C2 0 4 1 6 1 C6 2 6 2 6 3 C8 3 9 2 11 2 C17 6 22 13 26 19 C26 20 26 20 26 21 C25 21 25 21 24 21 C24 22 24 24 24 25 C21 27 18 28 14 29 C9 30 4 32 -1 33 C-1 34 -1 34 -6 35 C-10 37 -13 38 -16 41 C-17 43 -17 44 -18 46 C-15 52 -10 54 -4 56 C2 58 9 59 15 60 C14 61 13 62 12 63 C9 67 7 70 4 74 C-3 84 -3 84 -7 85 C-12 85 -14 84 -18 82 C-20 81 -22 81 -24 81 C-32 79 -39 77 -43 70 C-44 69 -45 67 -46 66 C-48 62 -48 62 -51 60 C-51 59 -51 59 -51 58 C-52 58 -52 58 -53 58 C-57 52 -56 50 -56 43 C-56 42 -56 42 -56 37 C-56 36 -55 34 -55 33 C-53 32 -52 32 -50 31 C-49 31 -49 32 -48 32 C-40 33 -35 32 -29 27 C-27 24 -25 21 -23 18 C-18 12 -13 8 -5 5 C-4 4 -3 3 -2 2 C-1 2 -1 2 0 2 C0 1 0 1 0 0 Z " fill="#C1C4D0" transform="translate(351,63)"/>
<path d="M0 0 C13 13 17 26 17 44 C17 45 17 47 17 49 C16 64 8 79 -3 88 C-14 98 -28 103 -43 103 C-57 101 -69 96 -79 87 C-88 75 -95 60 -94 45 C-94 44 -94 44 -93 41 C-93 39 -93 37 -93 36 C-91 23 -86 10 -76 2 C-52 -16 -25 -19 0 0 Z M-72 12 C-78 21 -78 21 -78 26 C-79 26 -80 26 -80 26 C-86 37 -86 51 -83 63 C-80 73 -73 81 -63 88 C-53 92 -42 96 -31 93 C-13 86 -3 77 5 60 C10 46 11 33 4 20 C-1 10 -6 3 -16 -1 C-38 -8 -56 -5 -72 12 Z " fill="#050507" transform="translate(435.3125,175.3125)"/>
<path d="M0 0 C5 2 5 2 7 5 C7 7 8 8 9 9 C11 16 14 21 19 27 C19 27 19 27 21 30 C23 32 24 34 26 36 C28 38 28 38 28 40 C29 41 31 41 32 42 C38 46 38 46 39 51 C35 57 29 59 22 61 C17 62 13 62 8 62 C7 59 7 59 7 56 C9 53 9 53 13 51 C19 46 19 46 20 43 C20 42 19 42 19 41 C14 42 11 43 7 46 C-8 53 -25 59 -42 59 C-43 59 -43 59 -46 59 C-48 59 -49 59 -50 59 C-51 58 -52 56 -53 55 C-52 50 -50 49 -46 47 C-40 43 -34 41 -28 39 C-20 36 -20 36 -18 31 C-18 30 -18 29 -18 28 C-22 28 -25 29 -29 31 C-33 32 -33 32 -38 32 C-39 31 -39 29 -40 28 C-36 25 -32 23 -28 20 C-20 15 -13 10 -6 4 C-3 2 -3 2 0 0 Z " fill="#424758" transform="translate(90,404)"/>
<path d="M0 0 C0 1 0 1 0 2 C1 2 2 2 3 1 C5 1 6 1 8 1 C9 1 11 0 12 0 C16 0 16 0 20 2 C21 2 22 1 23 1 C26 3 26 3 29 5 C28 6 28 8 27 9 C26 9 24 10 23 10 C17 11 13 14 8 18 C7 19 6 19 5 20 C3 22 3 22 2 26 C2 26 2 26 3 28 C3 29 3 31 3 32 C4 37 4 37 7 41 C9 44 9 44 9 48 C8 51 8 51 5 53 C1 53 -3 53 -7 53 C-8 53 -9 53 -11 53 C-14 53 -14 53 -19 53 C-19 52 -19 52 -20 49 C-21 49 -21 49 -22 49 C-22 48 -22 48 -23 45 C-29 47 -29 47 -31 49 C-32 48 -33 48 -34 47 C-34 46 -34 46 -34 45 C-35 45 -35 45 -36 45 C-37 44 -38 43 -39 42 C-43 41 -46 39 -50 38 C-51 37 -52 37 -53 36 C-56 35 -58 35 -61 34 C-61 35 -62 36 -62 37 C-62 37 -62 37 -63 34 C-61 31 -61 31 -59 29 C-58 29 -58 29 -57 29 C-56 28 -56 26 -55 25 C-51 16 -51 16 -46 13 C-46 13 -46 13 -44 11 C-41 10 -41 10 -36 10 C-36 11 -35 11 -35 12 C-35 11 -34 11 -34 10 C-31 10 -28 9 -25 9 C-25 8 -25 7 -25 6 C-24 6 -24 6 -22 6 C-21 6 -21 6 -18 6 C-16 6 -15 6 -13 6 C-12 6 -11 6 -10 6 C-9 4 -9 3 -8 1 C-4 -1 -4 -1 0 0 Z " fill="#C1C5D0" transform="translate(283,43)"/>
<path d="M0 0 C4 2 7 5 10 8 C14 11 14 11 18 13 C24 11 30 10 36 7 C37 8 38 9 39 10 C48 14 55 14 65 13 C65 19 65 22 61 27 C60 28 59 29 59 30 C52 37 44 44 35 46 C33 46 32 46 30 46 C27 43 27 43 27 38 C27 37 27 37 27 33 C26 34 24 34 23 35 C23 34 22 34 22 33 C22 34 21 36 21 37 C20 40 18 44 17 47 C7 49 -3 47 -11 42 C-15 38 -15 36 -15 32 C-15 31 -14 30 -14 29 C-14 19 -14 19 -15 17 C-14 14 -14 14 -13 10 C-13 10 -13 10 -12 6 C-9 0 -7 -1 0 0 Z " fill="#616A89" transform="translate(535,417)"/>
<path d="M0 0 C6 1 11 3 16 5 C19 6 23 6 26 7 C26 10 26 10 25 14 C23 14 22 15 20 15 C19 14 18 13 17 12 C17 11 17 11 17 10 C16 10 15 10 14 10 C10 10 10 10 6 9 C0 8 -5 9 -11 10 C-9 10 -8 11 -6 11 C-1 13 -1 13 3 15 C3 16 3 16 2 20 C1 21 0 21 -1 22 C-2 24 -3 26 -4 28 C-6 32 -6 32 -9 34 C-8 34 -7 34 -6 34 C-4 34 -3 35 -2 35 C-2 36 -2 36 0 39 C-3 39 -6 39 -9 39 C-10 39 -10 39 -15 39 C-16 39 -18 39 -19 39 C-19 38 -19 38 -21 35 C-24 35 -24 35 -28 35 C-28 35 -28 35 -32 35 C-33 35 -35 35 -36 35 C-39 35 -42 35 -44 35 C-46 35 -47 35 -48 35 C-49 35 -49 35 -51 35 C-52 34 -52 32 -53 31 C-57 31 -57 31 -62 31 C-67 31 -67 31 -71 31 C-72 30 -72 28 -73 27 C-77 27 -80 27 -84 27 C-88 27 -89 26 -92 23 C-92 22 -92 22 -92 21 C-90 19 -90 19 -87 17 C-85 17 -83 17 -81 17 C-80 16 -80 14 -79 13 C-74 13 -70 13 -65 13 C-64 13 -62 13 -61 13 C-60 12 -60 10 -59 9 C-56 9 -56 9 -51 9 C-50 9 -48 9 -47 9 C-44 9 -40 9 -37 9 C-36 9 -34 9 -33 9 C-31 9 -30 9 -28 9 C-27 9 -26 9 -25 9 C-24 8 -24 6 -23 5 C-19 5 -16 4 -12 4 C-8 5 -5 4 -1 4 C-1 3 -0 1 0 0 Z " fill="#DADCE3" transform="translate(173,476)"/>
<path d="M0 0 C0 0 0 0 1 2 C2 2 2 2 6 3 C8 5 10 6 13 8 C15 10 17 12 20 13 C24 16 26 18 29 22 C33 26 33 26 38 29 C34 33 31 33 26 34 C15 37 6 40 -3 47 C-7 50 -7 50 -10 50 C-15 51 -16 52 -19 56 C-20 60 -20 60 -20 64 C-19 64 -18 64 -17 64 C-19 70 -19 70 -21 72 C-21 71 -21 71 -21 70 C-25 70 -28 70 -32 71 C-35 71 -35 71 -39 70 C-41 65 -41 65 -39 60 C-35 52 -35 52 -32 50 C-31 47 -31 44 -30 41 C-27 33 -22 27 -17 20 C-13 15 -10 10 -7 4 C-5 1 -5 1 0 0 Z " fill="#AFB1BB" transform="translate(161,242)"/>
<path d="M0 0 C3 3 3 3 5 6 C8 9 11 10 15 11 C19 15 19 15 19 21 C18 24 18 24 16 27 C15 28 15 29 14 30 C14 30 14 30 12 32 C10 32 9 32 7 32 C7 33 7 33 8 36 C8 36 8 36 7 38 C6 38 6 38 3 39 C3 40 2 41 2 42 C1 42 1 42 -3 43 C-3 45 -4 46 -4 48 C-7 50 -11 48 -15 48 C-15 46 -15 45 -15 43 C-16 43 -18 43 -19 43 C-19 45 -19 46 -19 48 C-20 48 -20 48 -21 48 C-21 47 -21 46 -21 45 C-22 45 -22 45 -27 45 C-33 45 -35 44 -39 40 C-40 40 -40 40 -42 41 C-48 43 -52 40 -57 37 C-57 36 -58 34 -58 33 C-55 29 -50 26 -46 24 C-43 22 -41 20 -38 18 C-34 14 -29 11 -24 8 C-23 7 -21 6 -20 5 C-17 4 -17 4 -14 4 C-10 3 -7 3 -3 1 C-2 1 -1 0 0 0 Z " fill="#C1C5D0" transform="translate(323,263)"/>
<path d="M0 0 C0 1 0 1 1 4 C1 5 2 6 2 7 C3 12 3 15 2 20 C-1 23 -4 26 -7 29 C-21 41 -32 54 -42 69 C-46 76 -46 76 -50 78 C-55 76 -55 76 -57 72 C-58 63 -55 58 -49 51 C-46 44 -46 39 -47 32 C-47 27 -47 27 -44 22 C-44 21 -44 20 -44 19 C-45 19 -47 18 -48 18 C-37 9 -26 4 -11 2 C-1 -0 -1 -0 0 0 Z " fill="#999EAE" transform="translate(202,273)"/>
<path d="M0 0 C1 0 2 0 3 0 C7 1 9 3 11 6 C11 8 12 11 12 13 C16 15 18 15 22 15 C23 15 23 14 24 14 C29 14 31 13 35 16 C36 17 37 18 38 19 C42 20 42 20 45 20 C46 19 47 19 48 18 C52 18 54 19 58 21 C60 24 60 24 60 26 C61 26 61 26 62 26 C63 24 63 23 64 21 C66 20 68 18 70 17 C71 15 72 14 73 12 C75 9 75 9 77 7 C80 6 80 6 84 7 C85 7 86 7 87 7 C90 7 90 7 93 9 C93 13 93 13 92 18 C93 20 94 21 95 23 C95 24 95 24 97 27 C97 27 97 27 99 29 C93 30 87 30 81 30 C81 30 81 30 78 30 C73 30 69 30 64 29 C57 29 51 29 44 30 C33 30 23 30 12 30 C10 30 8 30 5 30 C-0 30 -6 30 -11 30 C-11 29 -11 29 -11 28 C-16 27 -21 26 -26 25 C-26 25 -26 24 -26 24 C-25 24 -23 23 -22 23 C-20 23 -19 22 -17 22 C-16 20 -15 17 -14 15 C-12 12 -12 12 -9 10 C-9 9 -8 7 -8 6 C-15 4 -22 3 -30 2 C-30 2 -30 1 -30 1 C-27 0 -23 -0 -20 -1 C-19 -1 -19 -1 -14 -2 C-9 -2 -5 -1 0 0 Z " fill="#D9DBE2" transform="translate(184,485)"/>
<path d="M0 0 C2 1 3 1 5 2 C6 2 7 3 8 3 C8 4 8 4 8 5 C9 6 11 6 12 7 C11 9 10 10 9 12 C3 12 -2 10 -7 8 C-14 5 -19 4 -26 6 C-28 6 -29 7 -31 7 C-38 9 -38 9 -41 10 C-41 11 -41 11 -41 12 C-43 13 -45 14 -47 15 C-54 18 -59 22 -65 27 C-66 27 -66 27 -67 27 C-68 28 -68 30 -69 31 C-70 33 -71 34 -72 36 C-79 48 -83 63 -80 77 C-79 80 -79 82 -78 85 C-76 90 -75 95 -77 101 C-77 101 -77 101 -80 103 C-84 102 -84 102 -87 98 C-93 86 -95 73 -92 60 C-92 59 -91 58 -91 57 C-91 56 -91 54 -91 53 C-90 44 -86 38 -82 31 C-81 30 -81 29 -80 28 C-74 15 -62 6 -49 1 C-34 -4 -16 -5 0 0 Z " fill="#3F4555" transform="translate(423,153)"/>
<path d="M0 0 C5 2 8 5 11 9 C15 18 15 27 13 36 C10 43 8 47 2 50 C-5 53 -11 54 -18 52 C-25 49 -27 45 -30 38 C-30 34 -30 34 -30 31 C-30 29 -30 28 -30 27 C-30 23 -29 20 -27 17 C-22 15 -22 15 -19 15 C-19 14 -19 13 -19 12 C-18 12 -18 12 -17 12 C-17 10 -17 8 -17 6 C-12 -0 -8 -0 0 0 Z " fill="#060608" transform="translate(284,140)"/>
<path d="M0 0 C1 1 2 1 3 2 C2 2 2 2 1 2 C1 3 2 4 2 5 C0 8 -2 11 -4 14 C-6 18 -8 22 -9 26 C-9 27 -8 29 -8 30 C-5 30 -5 30 -1 30 C7 29 7 29 10 30 C11 33 11 33 10 39 C8 46 8 53 8 60 C8 61 8 62 8 63 C8 70 8 75 10 81 C10 83 10 84 10 86 C6 82 6 82 4 79 C1 74 -2 73 -7 72 C-12 71 -12 71 -15 68 C-16 67 -18 67 -19 66 C-19 64 -20 63 -20 61 C-21 61 -21 61 -22 61 C-22 62 -22 63 -21 64 C-21 68 -21 68 -24 73 C-27 84 -27 93 -23 103 C-22 107 -22 111 -22 115 C-21 115 -21 115 -20 115 C-20 116 -20 117 -20 118 C-20 122 -20 122 -16 126 C-16 127 -16 128 -16 130 C-15 131 -15 132 -15 133 C-14 133 -12 134 -11 134 C-14 135 -14 135 -18 134 C-20 131 -22 128 -24 124 C-25 123 -25 122 -26 121 C-34 97 -31 66 -22 43 C-21 41 -21 40 -20 38 C-18 32 -15 27 -12 22 C-12 21 -11 20 -11 19 C-10 17 -9 16 -8 14 C-5 9 -3 5 0 0 Z " fill="#C9CCD6" transform="translate(130,282)"/>
<path d="M0 0 C6 0 8 1 13 5 C22 13 33 20 45 24 C44 25 44 25 43 26 C44 26 46 26 47 26 C54 26 59 28 64 31 C66 32 68 32 70 33 C71 34 72 34 73 35 C77 36 80 38 84 39 C91 42 96 46 102 51 C96 57 96 57 91 57 C71 56 50 48 34 36 C33 35 31 34 30 33 C18 25 6 13 0 0 Z " fill="#989DAD" transform="translate(114,416)"/>
<path d="M0 0 C7 7 9 20 9 30 C9 31 9 33 9 34 C10 55 3 72 -11 88 C-12 89 -13 89 -14 90 C-16 90 -17 89 -19 89 C-20 82 -17 74 -14 68 C-13 67 -12 67 -11 66 C-11 65 -10 65 -9 64 C-9 62 -9 60 -9 58 C-10 58 -10 58 -11 58 C-13 53 -13 50 -12 45 C-11 39 -11 33 -12 27 C-14 19 -14 12 -11 5 C-7 0 -7 0 0 0 Z " fill="#636880" transform="translate(419,313)"/>
<path d="M0 0 C5 1 5 2 8 7 C14 17 16 27 17 39 C13 38 10 38 6 36 C2 36 -1 36 -5 38 C-12 41 -23 37 -30 35 C-40 30 -40 30 -43 25 C-41 19 -39 17 -33 15 C-33 15 -33 15 -30 14 C-29 13 -28 13 -27 12 C-25 12 -24 11 -23 11 C-22 11 -22 11 -19 10 C-14 8 -9 6 -4 5 C-3 5 -1 4 0 4 C0 3 0 1 0 0 Z " fill="#CACDD7" transform="translate(375,84)"/>
<path d="M0 0 C4 2 7 3 11 6 C27 16 43 19 62 21 C63 21 63 21 66 21 C74 22 83 20 89 14 C93 11 96 11 100 11 C107 11 114 10 121 8 C121 14 121 14 119 17 C115 21 110 21 105 23 C99 24 93 26 87 29 C80 32 74 33 66 33 C65 33 63 33 61 33 C48 33 48 33 42 31 C41 31 41 31 36 31 C29 30 22 28 16 25 C15 23 14 22 13 20 C11 19 10 18 8 17 C6 16 5 14 3 12 C2 12 1 11 0 10 C-1 8 -3 7 -5 5 C-3 2 -3 2 0 0 Z " fill="#9EA2B1" transform="translate(163,412)"/>
<path d="M0 0 C5 3 7 5 10 10 C10 11 10 11 10 12 C11 13 13 13 14 14 C15 15 16 16 17 17 C24 21 31 24 39 26 C37 37 29 48 20 55 C18 56 17 57 15 58 C14 58 12 59 11 60 C11 61 10 63 10 64 C6 68 4 70 -2 71 C-4 67 -4 67 -4 62 C-1 60 -1 60 3 58 C8 56 8 56 11 54 C12 49 11 48 8 43 C8 42 8 41 8 40 C7 35 4 33 0 29 C-3 26 -5 23 -7 19 C-11 15 -12 14 -17 14 C-17 13 -16 13 -16 12 C-15 12 -15 12 -14 12 C-14 10 -14 8 -14 6 C-12 5 -11 5 -9 4 C-8 5 -7 6 -6 7 C-5 6 -5 4 -4 3 C-3 2 -1 1 0 0 Z " fill="#C1C5D0" transform="translate(336,387)"/>
<path d="M0 0 C9 1 16 5 22 12 C24 16 24 16 23 20 C22 21 21 22 20 23 C20 24 19 24 19 25 C20 25 20 25 24 27 C26 30 26 30 27 33 C26 39 23 43 19 48 C15 50 10 49 5 49 C3 48 2 47 0 46 C-1 42 -1 39 -1 35 C-2 36 -2 37 -3 38 C-7 37 -7 37 -11 35 C-11 35 -11 35 -12 32 C-11 31 -11 30 -10 29 C-8 25 -8 25 -7 19 C-6 14 -6 14 -2 11 C-1 11 -1 11 0 11 C0 7 0 4 0 0 Z " fill="#5C6175" transform="translate(567,372)"/>
<path d="M0 0 C4 1 5 2 8 6 C10 11 9 16 8 22 C8 23 8 24 8 25 C9 25 11 26 12 26 C12 27 12 27 12 28 C13 28 13 28 17 28 C25 29 25 29 29 33 C29 37 29 37 29 41 C28 42 26 43 25 44 C18 43 15 40 10 36 C10 35 10 35 10 34 C8 33 7 33 5 32 C4 31 3 31 2 30 C1 30 1 30 -3 31 C-7 38 -11 44 -9 52 C-11 52 -13 52 -15 52 C-17 55 -17 55 -18 59 C-19 60 -21 60 -22 61 C-27 52 -27 52 -27 49 C-26 49 -26 49 -25 49 C-25 48 -24 47 -24 46 C-24 46 -24 46 -21 45 C-19 43 -18 41 -16 38 C-15 37 -14 36 -13 35 C-11 31 -10 28 -10 24 C-10 23 -11 23 -11 22 C-12 22 -13 21 -14 21 C-17 17 -17 15 -17 10 C-16 5 -16 5 -14 2 C-9 -1 -5 -1 0 0 Z " fill="#5D6277" transform="translate(531,387)"/>
<path d="M0 0 C4 -0 4 -0 7 0 C7 2 7 3 7 5 C10 6 14 6 17 7 C17 8 17 8 18 12 C19 12 19 12 20 12 C20 21 21 29 21 38 C20 38 20 38 19 38 C19 39 20 40 20 41 C20 43 20 46 20 48 C19 48 18 48 17 48 C17 47 16 45 16 44 C11 43 6 43 1 42 C-2 42 -2 42 -7 39 C-8 36 -9 33 -10 30 C-11 30 -11 30 -12 30 C-15 25 -16 21 -15 16 C-11 13 -11 13 -6 10 C-5 9 -5 8 -4 7 C-3 7 -3 7 -2 7 C-2 6 -2 5 -1 4 C-1 2 -0 1 0 0 Z " fill="#BCBFCC" transform="translate(372,309)"/>
<path d="M0 0 C2 0 3 1 5 1 C5 1 5 1 6 4 C7 5 8 5 9 6 C-1 16 -15 17 -29 19 C-32 20 -36 20 -39 21 C-46 21 -52 21 -59 21 C-61 21 -63 21 -64 21 C-65 21 -65 21 -70 21 C-71 21 -71 21 -75 21 C-81 21 -85 19 -89 15 C-90 14 -90 13 -91 12 C-90 12 -89 11 -88 11 C-88 10 -87 8 -87 7 C-83 7 -83 7 -78 7 C-21 11 -21 11 -11 4 C-10 4 -8 4 -7 4 C-3 3 -3 3 0 0 Z " fill="#A5A8B5" transform="translate(312,455)"/>
<path d="M0 0 C1 0 1 0 3 2 C8 6 13 7 19 8 C21 8 22 7 24 7 C28 10 28 10 29 14 C28 19 26 21 22 25 C12 31 0 34 -12 32 C-12 31 -13 29 -13 28 C-14 27 -16 27 -17 26 C-19 23 -19 23 -19 19 C-17 16 -15 13 -13 11 C-11 8 -9 5 -8 1 C-6 0 -6 0 0 0 Z " fill="#7D8397" transform="translate(298,358)"/>
<path d="M0 0 C-1 5 -1 5 -3 8 C-3 11 -2 14 -2 17 C-2 26 -5 32 -10 39 C-14 43 -13 48 -13 53 C-12 54 -12 56 -11 57 C-7 58 -7 58 -3 56 C-6 63 -6 63 -10 64 C-11 65 -12 65 -13 65 C-14 65 -16 66 -17 66 C-19 66 -20 67 -21 67 C-25 50 -23 29 -15 14 C-16 14 -17 14 -18 14 C-19 9 -19 7 -16 3 C-11 -1 -6 -2 0 0 Z " fill="#898EA0" transform="translate(159,292)"/>
<path d="M0 0 C4 3 7 6 11 10 C16 16 16 16 20 18 C22 18 24 18 25 18 C31 18 31 18 35 21 C36 21 36 21 38 24 C38 25 37 25 37 26 C36 26 36 26 33 26 C27 27 26 27 22 30 C17 33 17 33 13 33 C10 32 10 32 8 31 C8 30 8 30 8 29 C6 28 5 28 3 27 C2 25 2 22 1 20 C-0 20 -2 20 -3 20 C-5 24 -5 24 -6 27 C-7 26 -8 25 -9 25 C-12 22 -12 22 -16 20 C-16 18 -16 16 -16 14 C-17 13 -17 12 -18 11 C-16 9 -16 9 -14 6 C-13 6 -12 5 -11 4 C-7 0 -6 0 0 0 Z " fill="#636B8C" transform="translate(160,357)"/>
<path d="M0 0 C3 1 3 1 7 2 C9 2 11 3 13 3 C20 4 25 5 31 8 C31 10 31 13 31 15 C32 16 32 17 33 18 C33 21 34 24 34 27 C30 28 26 28 21 28 C16 29 12 29 7 30 C6 33 6 33 5 36 C4 36 4 36 3 36 C2 31 2 31 2 28 C1 24 1 24 -1 20 C-3 13 -3 7 0 0 Z " fill="#BCBFCC" transform="translate(105,361)"/>
<path d="M0 0 C6 2 6 4 9 9 C9 11 10 12 11 13 C12 17 12 17 13 21 C10 23 10 23 5 25 C4 26 2 27 1 27 C-6 30 -11 30 -18 30 C-18 29 -18 29 -18 28 C-22 28 -25 29 -29 31 C-33 32 -33 32 -38 32 C-39 31 -39 29 -40 28 C-36 25 -32 23 -28 20 C-20 15 -13 10 -6 4 C-3 2 -3 2 0 0 Z " fill="#626986" transform="translate(90,404)"/>
<path d="M0 0 C1 0 1 1 2 1 C3 6 3 10 3 15 C2 15 1 15 0 15 C-1 15 -2 15 -3 15 C-4 15 -5 15 -7 15 C-11 15 -12 16 -15 19 C-16 25 -17 30 -14 35 C-13 35 -11 36 -10 36 C-9 38 -9 38 -9 42 C-12 49 -16 54 -21 60 C-21 60 -21 60 -24 61 C-24 62 -25 62 -25 63 C-26 63 -27 62 -28 62 C-32 46 -29 32 -22 18 C-19 14 -17 12 -14 10 C-12 8 -10 7 -8 5 C-2 1 -2 1 0 0 Z " fill="#636C8C" transform="translate(531,373)"/>
<path d="M0 0 C3 2 3 2 5 6 C6 10 6 10 6 16 C2 17 2 17 -3 19 C-5 19 -7 20 -8 20 C-16 23 -26 23 -34 21 C-36 17 -36 17 -35 14 C-27 -1 -16 -7 0 0 Z " fill="#ECEDEF" transform="translate(390.41015625,122.37890625)"/>
<path d="M0 0 C6 0 10 1 16 3 C24 26 23 57 18 80 C17 79 17 78 16 76 C16 76 16 76 14 74 C14 70 14 66 14 62 C14 61 14 60 14 59 C14 56 14 53 14 50 C15 50 15 50 16 50 C16 50 16 50 16 47 C15 39 15 32 15 24 C14 24 14 24 13 24 C13 23 12 22 12 20 C10 20 9 19 7 19 C5 18 4 18 2 17 C2 16 2 14 2 12 C-1 13 -1 13 -5 13 C-6 15 -6 17 -7 19 C-14 26 -14 26 -17 26 C-7 3 -7 3 0 0 Z " fill="#CDD0D9" transform="translate(376.88671875,296.62109375)"/>
<path d="M0 0 C1 0 1 0 3 0 C5 0 6 0 7 0 C10 1 10 1 13 3 C13 7 13 7 12 12 C13 13 14 15 15 17 C16 18 16 19 17 21 C18 21 18 22 19 23 C13 24 7 24 1 24 C0 24 -1 24 -2 24 C-7 24 -12 23 -17 23 C-22 23 -22 23 -28 23 C-29 23 -31 23 -32 23 C-34 18 -34 18 -35 14 C-32 12 -32 12 -29 12 C-25 13 -23 14 -20 18 C-20 18 -20 19 -20 20 C-19 20 -19 20 -18 20 C-17 18 -17 16 -16 15 C-14 13 -12 12 -10 11 C-9 9 -8 7 -7 6 C-4 1 -4 1 0 0 Z " fill="#C8CBD5" transform="translate(264.12890625,491.44140625)"/>
<path d="M0 0 C3 1 3 1 5 4 C5 5 6 6 6 7 C7 8 7 9 8 11 C10 17 11 23 11 30 C11 31 11 33 11 34 C11 38 11 38 10 40 C0 42 -7 42 -16 38 C-17 37 -18 36 -19 35 C-24 36 -24 36 -28 38 C-29 38 -29 38 -30 38 C-30 37 -30 35 -30 34 C-31 30 -31 30 -33 28 C-36 27 -40 27 -43 26 C-43 26 -43 25 -43 25 C-41 25 -40 25 -38 25 C-33 24 -33 24 -29 20 C-28 20 -27 20 -26 20 C-25 19 -25 17 -24 16 C-23 15 -23 15 -22 14 C-22 16 -22 18 -23 19 C-23 25 -23 25 -22 28 C-17 31 -12 31 -6 30 C-2 28 -1 26 1 22 C3 17 3 15 1 10 C-1 9 -2 8 -4 7 C-3 5 -3 4 -2 2 C-1 2 -1 2 0 2 C0 1 0 1 0 0 Z " fill="#7A8599" transform="translate(590,390)"/>
<path d="M0 0 C2 3 2 3 2 6 C4 11 5 14 10 17 C14 20 14 20 15 23 C15 24 15 25 15 26 C10 28 6 27 1 27 C0 27 0 27 -3 27 C-10 27 -17 27 -25 25 C-25 25 -25 24 -25 24 C-24 24 -22 23 -21 23 C-19 23 -18 22 -16 22 C-15 20 -14 17 -13 15 C-11 12 -11 12 -8 10 C-8 9 -7 7 -7 6 C-14 4 -21 3 -29 2 C-29 2 -29 1 -29 1 C-26 0 -22 -0 -19 -1 C-17 -1 -15 -1 -13 -2 C-8 -2 -5 -2 0 0 Z " fill="#C9CCD6" transform="translate(183,485)"/>
<path d="M0 0 C4 1 5 2 8 6 C9 10 9 12 9 17 C9 17 9 17 9 21 C9 22 8 23 8 24 C6 25 5 25 3 26 C3 27 3 27 3 28 C-2 28 -6 27 -10 24 C-10 23 -11 23 -11 22 C-12 22 -13 21 -14 21 C-17 17 -17 15 -17 10 C-16 5 -16 5 -14 2 C-9 -1 -5 -1 0 0 Z " fill="#1E1A1D" transform="translate(531,387)"/>
<path d="M0 0 C3 1 3 1 6 4 C6 9 6 9 6 14 C5 14 4 15 3 15 C3 17 3 19 2 20 C2 22 2 24 2 26 C1 26 0 27 -1 27 C-1 28 -1 29 -2 30 C-2 32 -2 33 -2 34 C-2 34 -2 34 -5 35 C-6 39 -6 39 -6 42 C-7 42 -8 42 -9 42 C-10 43 -10 45 -11 46 C-12 46 -12 46 -13 46 C-14 47 -14 49 -15 50 C-17 50 -18 49 -20 49 C-21 46 -21 46 -20 42 C-20 41 -20 40 -20 39 C-20 38 -20 37 -20 36 C-20 36 -20 36 -17 35 C-17 34 -17 33 -16 32 C-16 30 -16 29 -16 28 C-15 28 -14 27 -13 27 C-13 26 -13 25 -12 24 C-12 22 -12 21 -12 20 C-11 20 -10 19 -9 19 C-9 18 -9 17 -8 16 C-8 14 -8 13 -8 12 C-7 12 -6 11 -5 11 C-5 10 -5 9 -5 8 C-4 4 -4 4 0 0 Z " fill="#2C2C2E" transform="translate(601,265)"/>
<path d="M0 0 C1 0 1 0 2 0 C3 2 3 3 4 5 C6 6 7 7 9 8 C10 9 11 9 12 10 C13 10 14 10 16 10 C21 11 23 13 27 17 C28 19 30 22 31 24 C32 25 33 26 34 27 C35 31 35 31 36 34 C36 34 36 34 35 36 C35 42 35 43 38 48 C42 54 42 54 42 57 C37 56 35 53 32 49 C29 45 29 41 29 36 C28 35 28 34 27 33 C27 29 27 29 28 26 C22 24 16 23 10 22 C1 21 1 21 -3 18 C-3 12 -3 12 0 7 C0 3 0 3 0 0 Z " fill="#C2C6D0" transform="translate(108,343)"/>
<path d="M0 0 C8 0 14 3 21 6 C25 8 25 8 30 9 C37 11 42 14 48 18 C51 20 51 20 54 21 C55 22 56 22 57 23 C57 24 57 24 58 28 C56 31 56 31 53 33 C53 33 53 33 55 34 C53 34 51 34 48 34 C47 34 46 34 45 34 C41 34 41 34 36 32 C36 32 36 31 36 31 C37 31 37 31 44 30 C43 29 42 28 41 27 C40 25 40 24 39 22 C34 19 30 16 24 15 C15 13 7 7 0 1 C0 1 0 0 0 0 Z " fill="#636B8C" transform="translate(216,379)"/>
<path d="M0 0 C5 3 7 6 8 12 C9 14 9 17 10 19 C10 21 10 22 11 23 C15 41 15 41 12 47 C11 47 11 47 7 48 C-2 38 -4 26 -3 13 C-3 8 -2 4 0 0 Z " fill="#424859" transform="translate(333,208)"/>
<path d="M0 0 C2 0 3 1 5 1 C5 2 6 2 6 3 C7 3 8 4 9 4 C10 11 10 18 10 24 C10 26 10 28 10 30 C10 31 10 31 10 36 C10 38 10 39 10 41 C9 42 9 44 9 45 C8 45 8 45 4 46 C3 45 3 44 2 43 C1 43 0 42 -1 42 C-1 37 -1 32 -2 27 C-2 24 -2 22 -2 19 C-3 19 -4 18 -5 18 C-5 15 -5 15 -5 11 C-5 10 -5 8 -5 7 C-5 6 -5 5 -5 4 C-4 4 -3 3 -2 3 C-1 2 -1 1 0 0 Z " fill="#535458" transform="translate(546,265)"/>
<path d="M0 0 C5 2 5 2 7 5 C8 10 7 12 5 17 C1 23 1 23 -2 24 C-13 24 -13 24 -19 21 C-20 16 -20 13 -19 9 C-17 6 -17 6 -12 3 C-8 7 -8 7 -7 12 C-6 12 -6 12 -5 12 C-4 10 -4 7 -3 5 C-2 3 -1 2 0 0 Z " fill="#080608" transform="translate(586,397)"/>
<path d="M0 0 C4 2 7 4 10 7 C10 8 11 10 11 11 C7 17 1 19 -6 21 C-11 22 -15 22 -20 22 C-21 19 -21 19 -21 16 C-19 13 -19 13 -15 11 C-12 8 -8 5 -5 2 C-3 1 -2 1 0 0 Z " fill="#43495A" transform="translate(118,444)"/>
<path d="M0 0 C1 0 2 1 3 1 C3 2 3 3 3 4 C3 4 3 4 6 5 C6 7 5 8 5 10 C4 10 4 10 3 10 C2 11 2 13 1 14 C0 14 -0 14 -1 14 C-2 15 -2 17 -3 18 C-6 18 -10 18 -13 18 C-14 19 -14 21 -15 22 C-16 22 -16 22 -17 22 C-18 23 -18 25 -19 26 C-24 26 -24 26 -28 26 C-28 23 -28 19 -28 16 C-27 16 -26 16 -25 16 C-24 15 -24 13 -23 12 C-21 12 -19 12 -17 12 C-16 11 -16 9 -15 8 C-13 8 -11 8 -9 8 C-8 7 -8 5 -7 4 C-5 4 -3 4 -1 4 C-1 3 -0 1 0 0 Z " fill="#3A3A3C" transform="translate(645,317)"/>
<path d="M0 0 C6 -0 10 1 16 3 C33 11 33 11 39 11 C39 10 39 9 39 8 C43 8 48 9 52 9 C51 8 50 8 49 7 C54 7 58 7 63 8 C63 8 63 9 63 9 C60 9 58 10 55 10 C56 16 60 19 65 23 C66 24 67 26 68 27 C69 28 70 29 71 30 C75 30 75 30 78 29 C78 29 78 29 77 32 C73 33 73 33 67 32 C65 30 62 28 60 26 C54 22 46 19 39 16 C37 15 36 14 34 14 C25 10 19 7 9 8 C9 7 10 6 10 5 C8 4 7 4 5 3 C3 2 2 2 0 1 C0 1 0 0 0 0 Z " fill="#B5B8C3" transform="translate(147,435)"/>
<path d="M0 0 C1 1 2 1 3 2 C2 2 2 2 1 2 C1 3 2 4 2 5 C0 8 -2 11 -4 14 C-6 18 -8 22 -9 26 C-9 27 -8 29 -8 30 C-5 30 -5 30 -1 30 C7 29 7 29 10 30 C11 34 10 38 9 42 C7 42 6 42 4 42 C4 43 3 44 3 45 C-0 45 -0 45 -5 45 C-6 45 -7 44 -9 44 C-10 44 -11 44 -12 44 C-13 32 -13 32 -11 29 C-12 28 -12 28 -13 27 C-12 21 -9 16 -6 11 C-5 10 -5 9 -4 8 C-3 5 -1 3 0 0 Z " fill="#BFC3CE" transform="translate(130,282)"/>
<path d="M0 0 C2 0 3 0 5 1 C10 2 14 3 18 6 C17 7 17 8 16 10 C11 11 11 11 6 12 C5 12 4 12 3 13 C-1 14 -5 14 -9 14 C-10 14 -11 14 -12 14 C-16 14 -16 14 -21 14 C-21 8 -21 8 -19 6 C-13 -0 -8 -1 0 0 Z " fill="#C1C5D0" transform="translate(292.9375,449.5)"/>
<path d="M0 0 C2 2 2 2 4 5 C4 12 -0 19 -5 24 C-5 24 -5 24 -7 26 C-8 27 -8 27 -9 28 C-11 28 -13 28 -15 28 C-18 24 -18 24 -17 20 C-15 13 -12 7 -7 1 C-5 0 -5 0 0 0 Z " fill="#9EA2B0" transform="translate(357,291)"/>
<path d="M0 0 C4 2 4 2 8 5 C8 7 8 9 8 11 C8 12 9 12 9 13 C5 21 -0 29 -7 34 C-9 34 -10 33 -12 33 C-13 26 -10 18 -7 12 C-7 12 -7 12 -4 10 C-2 8 -2 8 -2 4 C-2 3 -2 2 -2 1 C-1 1 -1 0 0 0 Z " fill="#43495A" transform="translate(412,369)"/>
<path d="M0 0 C1 4 1 7 0 11 C-4 14 -4 14 -6 14 C-8 12 -9 11 -11 9 C-13 7 -17 7 -20 7 C-20 7 -20 7 -24 7 C-28 7 -28 7 -33 10 C-34 7 -35 5 -35 2 C-26 -4 -9 -6 0 0 Z " fill="#7B8397" transform="translate(567,372)"/>
<path d="M0 0 C8 1 15 0 23 0 C26 0 29 0 33 0 C34 0 36 0 37 0 C41 0 41 0 46 1 C46 3 45 4 44 5 C41 6 41 6 37 6 C37 6 37 6 33 6 C32 6 30 6 28 6 C27 6 25 6 24 6 C20 6 17 6 13 6 C8 6 3 6 -2 6 C-5 6 -9 6 -12 6 C-13 6 -15 6 -17 6 C-18 6 -19 6 -21 6 C-22 6 -23 6 -25 6 C-26 6 -27 5 -28 5 C-28 4 -29 3 -30 1 C-26 -1 -22 -0 -18 -0 C-17 -0 -15 -1 -13 -1 C-9 -1 -4 -0 0 0 Z " fill="#ECEDEF" transform="translate(249.708251953125,513.76416015625)"/>
<path d="M0 0 C0 0 1 0 1 0 C2 8 3 16 4 24 C4 25 4 27 4 28 C4 42 4 57 1 71 C0 70 -0 68 -1 67 C-2 66 -2 66 -3 65 C-3 61 -3 57 -3 53 C-3 52 -3 51 -3 49 C-3 47 -3 44 -3 41 C-2 41 -2 41 -1 41 C-1 40 -1 39 -2 38 C-2 30 -2 23 -2 15 C-3 15 -3 15 -4 15 C-4 14 -4 14 -5 10 C-4 9 -3 7 -2 6 C-1 4 -1 2 0 0 Z " fill="#D3D5DD" transform="translate(394,306)"/>
<path d="M0 0 C1 5 1 5 -2 10 C-5 21 -5 30 -1 40 C-0 44 0 48 0 52 C1 52 1 52 2 52 C2 53 2 53 2 55 C2 59 2 59 6 63 C6 64 6 65 6 67 C7 68 7 69 7 70 C8 70 10 71 11 71 C8 72 8 72 4 71 C2 68 -0 65 -2 61 C-3 60 -3 59 -4 58 C-8 46 -7 35 -7 23 C-7 21 -7 19 -7 18 C-7 4 -7 4 -6 1 C-3 0 -3 0 0 0 Z " fill="#CBCED8" transform="translate(108,345)"/>
<path d="M0 0 C0 0 0 0 1 3 C-1 6 -1 6 -4 9 C-5 10 -5 12 -6 13 C-10 17 -13 21 -19 24 C-20 24 -22 25 -23 26 C-23 27 -24 29 -24 30 C-28 34 -30 36 -36 37 C-38 33 -38 33 -38 28 C-35 26 -35 26 -31 24 C-26 22 -22 20 -19 15 C-16 13 -14 10 -11 8 C-10 7 -9 5 -7 4 C-4 1 -4 1 0 0 Z " fill="#B6B9C5" transform="translate(370,421)"/>
<path d="M0 0 C3 -0 7 -0 10 -0 C12 -0 14 -0 16 -0 C18 -0 19 -0 21 0 C22 1 22 3 23 4 C27 4 32 4 36 4 C40 4 45 4 49 4 C50 5 50 7 51 8 C55 8 55 8 60 8 C65 8 65 8 69 8 C69 9 69 9 71 12 C73 12 75 12 77 12 C77 13 77 13 78 17 C78 17 78 17 75 18 C74 19 74 21 73 22 C71 22 69 22 67 22 C68 21 68 21 69 20 C69 16 69 16 69 13 C68 13 67 13 65 13 C61 13 61 13 58 12 C53 10 48 9 43 9 C39 9 39 9 34 7 C29 6 24 6 19 5 C13 4 6 3 0 1 C0 1 0 0 0 0 Z " fill="#ECEDEF" transform="translate(369,481)"/>
<path d="M0 0 C1 0 2 1 3 1 C6 3 6 3 10 4 C14 8 14 8 14 14 C9 18 9 18 6 18 C6 19 5 21 5 22 C-1 20 -5 18 -9 12 C-9 11 -9 10 -9 9 C-6 6 -6 6 -2 3 C-1 2 -1 1 0 0 Z " fill="#BCBFCC" transform="translate(328,270)"/>
<path d="M0 0 C6 1 11 3 16 5 C19 6 23 6 26 7 C26 10 26 10 25 14 C23 14 22 15 20 15 C19 14 18 13 17 12 C17 11 17 11 17 10 C16 10 15 10 14 10 C10 10 10 10 6 9 C1 8 -2 9 -8 9 C-13 10 -18 10 -24 10 C-24 6 -24 6 -23 5 C-18 5 -14 5 -9 5 C-6 5 -6 5 -1 4 C-1 3 -0 1 0 0 Z " fill="#ECEDEF" transform="translate(173,476)"/>
<path d="M0 0 C0 1 0 3 0 4 C-1 4 -1 4 -4 6 C-4 6 -4 6 -5 4 C-8 4 -8 4 -12 4 C-13 4 -15 4 -16 4 C-17 4 -18 4 -19 4 C-19 5 -20 5 -20 6 C-21 6 -22 5 -23 5 C-23 5 -23 5 -24 3 C-29 4 -29 4 -31 5 C-32 7 -32 8 -33 10 C-38 11 -43 10 -48 9 C-48 10 -48 11 -48 12 C-49 12 -49 12 -52 12 C-54 13 -55 13 -57 13 C-57 14 -58 15 -58 16 C-58 15 -59 14 -59 13 C-60 13 -61 12 -62 12 C-42 1 -23 -0 0 0 Z " fill="#D9DBE2" transform="translate(306,40)"/>
<path d="M0 0 C2 5 3 10 3 16 C2 16 1 16 0 16 C-0 15 -1 13 -1 12 C-6 11 -11 11 -16 10 C-19 10 -19 10 -24 7 C-23 6 -21 4 -20 3 C-19 3 -19 3 -18 3 C-18 2 -17 1 -17 0 C-10 -3 -7 -3 0 0 Z " fill="#C1C5D0" transform="translate(389,341)"/>
<path d="M0 0 C5 1 7 3 11 6 C12 6 12 6 16 8 C17 8 18 9 19 10 C22 11 22 11 26 12 C27 12 28 13 29 13 C29 14 30 16 30 17 C32 17 33 17 35 17 C36 19 38 21 39 23 C42 25 44 26 47 28 C47 29 47 29 47 30 C37 30 27 23 19 17 C18 16 16 15 15 14 C9 10 4 6 0 1 C0 1 0 0 0 0 Z " fill="#AFB1BB" transform="translate(129,435)"/>
<path d="M0 0 C1 -0 2 -0 3 -0 C6 0 6 0 9 3 C13 5 16 6 19 7 C23 8 26 9 29 10 C29 11 29 11 30 12 C21 11 21 11 16 10 C16 11 16 12 16 13 C11 15 7 13 2 10 C0 10 -2 9 -4 8 C-7 7 -11 5 -15 3 C-11 -1 -5 0 0 0 Z " fill="#C0C4CF" transform="translate(169.6875,432.75)"/>
<path d="M0 0 C0 1 0 1 1 4 C-5 11 -5 11 -10 13 C-13 13 -13 13 -16 13 C-25 13 -32 19 -38 25 C-40 27 -40 27 -43 29 C-43 28 -44 26 -44 25 C-45 25 -46 24 -47 24 C-47 18 -47 18 -45 16 C-43 16 -40 17 -38 17 C-35 17 -35 17 -33 15 C-32 14 -32 14 -30 12 C-24 8 -20 8 -13 8 C-8 7 -7 5 -4 2 C-3 2 -1 2 0 2 C0 1 0 1 0 0 Z " fill="#D9DBE2" transform="translate(347,155)"/>
<path d="M0 0 C6 0 6 0 8 1 C11 1 14 1 16 1 C26 1 36 1 46 2 C45 3 45 5 44 6 C41 6 41 6 38 6 C37 6 37 6 34 6 C33 6 31 6 30 6 C28 6 27 6 26 6 C21 6 16 6 12 6 C9 6 6 6 3 6 C-5 6 -12 6 -20 6 C-16 2 -12 3 -7 2 C-7 2 -7 2 -3 2 C-2 2 -1 2 0 2 C0 1 0 1 0 0 Z " fill="#ECEDEF" transform="translate(334,509)"/>
<path d="M0 0 C10 -0 10 -0 14 1 C14 2 14 4 15 5 C16 10 16 10 20 12 C21 13 23 13 24 14 C25 15 26 17 27 18 C26 18 25 18 24 18 C24 19 24 19 24 20 C20 22 20 22 16 21 C14 19 12 17 10 14 C8 12 8 12 4 9 C1 6 1 6 0 3 C0 2 0 2 0 0 Z " fill="#BEC2CE" transform="translate(201,444)"/>
<path d="M0 0 C6 2 6 4 9 10 C9 11 10 12 11 14 C12 17 12 17 12 19 C11 19 10 20 9 20 C8 19 7 18 6 17 C-0 13 -6 14 -14 14 C-14 15 -15 15 -16 15 C-16 14 -16 13 -16 12 C-13 10 -13 10 -10 7 C-9 6 -7 5 -6 4 C-4 3 -2 1 0 0 Z " fill="#788195" transform="translate(90,404)"/>
<path d="M0 0 C5 -0 5 -0 11 0 C13 0 14 0 16 1 C21 1 25 1 30 2 C27 5 22 5 17 5 C17 6 17 6 17 7 C18 7 19 7 20 7 C20 8 20 8 20 9 C24 9 28 9 32 9 C32 9 32 10 32 10 C28 10 24 10 21 11 C19 11 18 11 17 11 C11 11 5 11 -1 9 C-2 8 -3 6 -4 5 C-3 5 -2 4 -1 4 C-1 3 -0 1 0 0 Z " fill="#9A9FAE" transform="translate(225,462)"/>
<path d="M0 0 C1 0 2 1 3 1 C0 5 -2 9 -6 13 C-10 18 -15 23 -18 29 C-19 29 -19 30 -20 31 C-21 31 -21 31 -22 31 C-22 33 -22 34 -22 36 C-24 37 -25 37 -27 38 C-27 40 -27 41 -27 43 C-29 44 -30 44 -32 45 C-29 31 -20 20 -10 10 C-9 9 -9 9 -6 6 C-3 3 -3 3 -1 3 C-1 2 -0 1 0 0 Z " fill="#D8DAE1" transform="translate(228,63)"/>
<path d="M0 0 C16 1 30 8 42 19 C43 20 44 21 45 22 C45 23 44 23 44 24 C43 24 42 24 41 24 C41 23 41 23 41 22 C40 22 39 21 38 21 C37 21 36 20 35 20 C35 19 35 19 34 16 C32 16 30 15 28 15 C27 15 27 15 23 12 C22 12 21 11 20 11 C17 10 17 10 16 8 C12 7 9 7 5 8 C4 8 3 8 2 8 C0 3 0 3 0 0 Z " fill="#D8DAE1" transform="translate(316,42)"/>
<path d="M0 0 C1 1 2 1 3 2 C2 5 0 7 -1 10 C-2 11 -2 13 -3 14 C-5 18 -5 18 -8 20 C-11 20 -11 20 -14 20 C-16 20 -17 20 -18 20 C-19 20 -19 20 -22 20 C-24 20 -25 20 -26 20 C-36 19 -36 19 -41 17 C-40 16 -40 14 -39 13 C-34 13 -34 13 -30 14 C-30 15 -30 16 -30 17 C-29 17 -29 17 -28 17 C-28 15 -28 14 -28 12 C-27 12 -25 12 -24 12 C-24 14 -24 15 -24 17 C-23 17 -21 17 -20 17 C-20 16 -19 14 -19 13 C-19 14 -19 16 -19 17 C-17 17 -16 17 -14 17 C-13 15 -13 14 -12 12 C-10 12 -9 11 -7 11 C-7 10 -6 8 -6 7 C-5 7 -3 7 -2 7 C-2 6 -2 6 -3 3 C-2 2 -1 1 0 0 Z " fill="#D9DBE2" transform="translate(332,294)"/>
<path d="M0 0 C1 0 2 0 3 0 C3 2 3 3 3 5 C7 6 10 6 13 7 C14 9 14 10 14 12 C12 15 12 15 7 17 C1 16 -2 14 -6 9 C-5 0 -5 0 0 0 Z " fill="#C1C5D0" transform="translate(375.5625,308.9375)"/>
<path d="M0 0 C4 -0 4 -0 10 -0 C11 -0 13 -0 15 -0 C16 -0 16 -0 19 0 C11 6 3 5 -7 6 C-12 6 -12 6 -14 8 C-17 8 -20 9 -23 9 C-22 10 -21 12 -20 13 C-20 14 -21 15 -21 16 C-21 17 -20 17 -20 18 C-27 18 -27 18 -31 16 C-33 14 -33 14 -33 12 C-31 10 -31 10 -28 8 C-26 8 -24 8 -22 8 C-21 7 -21 5 -20 4 C-15 4 -11 4 -6 4 C-5 4 -3 4 -2 4 C-1 3 -1 1 0 0 Z " fill="#ECEDEF" transform="translate(114,485)"/>
<path d="M0 0 C1 0 1 1 2 1 C3 6 3 10 3 15 C2 15 1 15 0 15 C-7 15 -11 15 -17 20 C-18 20 -20 19 -21 19 C-19 14 -18 13 -14 10 C-13 9 -12 8 -11 8 C-10 7 -9 6 -8 5 C-7 5 -6 4 -5 3 C-2 1 -2 1 0 0 Z " fill="#585E73" transform="translate(531,373)"/>
<path d="M0 0 C13 1 13 1 17 5 C17 9 17 9 17 13 C16 14 14 15 13 16 C7 15 2 13 -2 8 C-2 4 -2 4 0 0 Z " fill="#100507" transform="translate(543,415)"/>
<path d="M0 0 C0 0 1 0 1 0 C1 6 1 6 -3 10 C-4 11 -5 11 -5 12 C-9 16 -11 20 -13 25 C-15 29 -15 29 -19 33 C-20 33 -22 32 -23 32 C-22 31 -22 30 -21 29 C-19 24 -19 23 -19 18 C-19 15 -19 15 -18 12 C-15 10 -12 8 -8 7 C-5 5 -3 3 0 0 Z " fill="#D9DBE2" transform="translate(356,352)"/>
<path d="M0 0 C6 0 12 0 18 0 C18 1 18 1 18 2 C15 2 12 2 10 2 C9 2 9 2 5 2 C4 2 2 2 1 2 C1 1 0 1 0 0 Z " fill="#ECEDEF" transform="translate(545,349)"/>
<path d="M0 0 C1 0 1 0 2 0 C2 1 2 1 2 2 C1 2 1 2 0 2 C0 1 0 1 0 0 Z " fill="#ECEDEF" transform="translate(569,481)"/>
<path d="M0 0 C1 0 1 0 2 0 C2 1 2 1 2 2 C1 2 1 2 0 2 C0 1 0 1 0 0 Z " fill="#ECEDEF" transform="translate(577,477)"/>
<path d="M0 0 C1 0 1 0 2 0 C2 1 2 1 2 2 C1 2 1 2 0 2 C0 1 0 1 0 0 Z " fill="#ECEDEF" transform="translate(141,469)"/>
<path d="M0 0 C1 0 1 0 2 0 C2 1 2 1 2 2 C1 2 1 2 0 2 C0 1 0 1 0 0 Z " fill="#ECEDEF" transform="translate(417,133)"/>
</svg>
